<?xml version="1.0" encoding="UTF-8" standalone="no"?>
<!-- Created with Inkscape (http://www.inkscape.org/) -->

<svg
   xmlns:dc="http://purl.org/dc/elements/1.1/"
   xmlns:cc="http://creativecommons.org/ns#"
   xmlns:rdf="http://www.w3.org/1999/02/22-rdf-syntax-ns#"
   xmlns:svg="http://www.w3.org/2000/svg"
   xmlns="http://www.w3.org/2000/svg"
   xmlns:xlink="http://www.w3.org/1999/xlink"
   xmlns:sodipodi="http://sodipodi.sourceforge.net/DTD/sodipodi-0.dtd"
   xmlns:inkscape="http://www.inkscape.org/namespaces/inkscape"
   sodipodi:docname="C:\DOCUME~1\Owner\LOCALS~1\Temp\ink_ext_XXXXXX.svgJJS8IW"
   inkscape:version="0.48.2 r9819"
   version="1.1"
   id="svg4064"
   height="2834.6455"
   width="1559.0551">
  <sodipodi:namedview
     id="base"
     pagecolor="#ffffff"
     bordercolor="#666666"
     borderopacity="1.0"
     inkscape:pageopacity="0.0"
     inkscape:pageshadow="2"
     inkscape:zoom="0.64"
     inkscape:cx="533.27328"
     inkscape:cy="2369.5397"
     inkscape:document-units="px"
     inkscape:current-layer="layer1"
     showgrid="false"
     units="cm"
     inkscape:window-width="908"
     inkscape:window-height="559"
     inkscape:window-x="90"
     inkscape:window-y="88"
     inkscape:window-maximized="0" />
  <defs
     id="defs4066" />
  <metadata
     id="metadata4069">
    <rdf:RDF>
      <cc:Work
         rdf:about="">
        <dc:format>image/svg+xml</dc:format>
        <dc:type
           rdf:resource="http://purl.org/dc/dcmitype/StillImage" />
        <dc:title />
      </cc:Work>
    </rdf:RDF>
  </metadata>
  <g
     transform="translate(0,1782.2847)"
     id="layer1"
     inkscape:groupmode="layer"
     inkscape:label="Layer 1">
    <path
       inkscape:connector-curvature="0"
       style="fill:none;stroke:#4d4d4d;stroke-width:0.36230555"
       d=""
       id="path4314" />
    <path
       inkscape:connector-curvature="0"
       style="fill:none;stroke:#4d4d4d;stroke-width:0.36230555"
       d=""
       id="path4332" />
    <path
       inkscape:connector-curvature="0"
       style="fill:none;stroke:#4d4d4d;stroke-width:0.36230555"
       d=""
       id="path4340" />
    <path
       sodipodi:nodetypes="cccccccc"
       id="path5441"
       d="m -2.2719434,-1397.2868 0,65.9761 m 0,-65.9761 26.3558714,65.9761 m 26.355871,-65.9761 -26.355871,65.9761 m 26.355871,-65.9761 0,65.9761"
       style="fill:none;stroke:#4d4d4d;stroke-width:2.5950861"
       inkscape:connector-curvature="0" />
    <path
       sodipodi:nodetypes="cccccccccccccccc"
       id="path5443"
       d="m 113.03499,-1375.2948 0,43.9841 m 0,-34.5588 -6.58896,-6.2836 -6.588971,-3.1417 -9.883452,0 -6.588969,3.1417 -6.588967,6.2836 -3.294485,9.4251 0,6.2834 3.294485,9.4252 6.588967,6.2834 6.588969,3.1417 9.883452,0 6.588971,-3.1417 6.58896,-6.2834"
       style="fill:none;stroke:#4d4d4d;stroke-width:2.5950861"
       inkscape:connector-curvature="0" />
    <path
       sodipodi:nodetypes="cccccccc"
       id="path5445"
       d="m 132.8019,-1375.2948 19.76691,43.9841 m 19.7669,-43.9841 -19.7669,43.9841 -6.58898,12.567 -6.58896,6.2834 -6.58897,3.1417 -3.29448,0"
       style="fill:none;stroke:#4d4d4d;stroke-width:2.5950861"
       inkscape:connector-curvature="0" />
    <path
       id="path5447"
       d=""
       style="fill:none;stroke:#4d4d4d;stroke-width:2.5950861"
       inkscape:connector-curvature="0" />
    <path
       sodipodi:nodetypes="cccccccccccccccc"
       id="path5449"
       d="m 281.05367,-1375.2948 0,43.9841 m 0,-34.5588 -6.58897,-6.2836 -6.58896,-3.1417 -9.88346,0 -6.58895,3.1417 -6.58898,6.2836 -3.29448,9.4251 0,6.2834 3.29448,9.4252 6.58898,6.2834 6.58895,3.1417 9.88346,0 6.58896,-3.1417 6.58897,-6.2834"
       style="fill:none;stroke:#4d4d4d;stroke-width:2.5950861"
       inkscape:connector-curvature="0" />
    <path
       sodipodi:nodetypes="cc"
       id="path5451"
       d="m 307.40955,-1397.2868 0,65.9761"
       style="fill:none;stroke:#4d4d4d;stroke-width:2.5950861"
       inkscape:connector-curvature="0" />
    <path
       id="path5455"
       d=""
       style="fill:none;stroke:#4d4d4d;stroke-width:2.5950861"
       inkscape:connector-curvature="0" />
    <path
       sodipodi:nodetypes="cccccccccccccccc"
       id="path5459"
       d="m 472.13374,-1375.2948 0,43.9841 m 0,-31.4171 9.88345,-9.4253 6.58897,-3.1417 9.88346,0 6.58896,3.1417 3.29448,9.4253 0,31.4171 m 0,-31.4171 9.88345,-9.4253 6.58897,-3.1417 9.88346,0 6.58896,3.1417 3.29448,9.4253 0,31.4171"
       style="fill:none;stroke:#4d4d4d;stroke-width:2.5950861"
       inkscape:connector-curvature="0" />
    <path
       sodipodi:nodetypes="cccccccccccccccc"
       id="path5461"
       d="m 570.96826,-1375.2948 0,65.9762 m 0,-56.5509 6.58897,-6.2836 6.58896,-3.1417 9.88346,0 6.58896,3.1417 6.58897,6.2836 3.29449,9.4251 0,6.2834 -3.29449,9.4252 -6.58897,6.2834 -6.58896,3.1417 -9.88346,0 -6.58896,-3.1417 -6.58897,-6.2834"
       style="fill:none;stroke:#4d4d4d;stroke-width:2.5950861"
       inkscape:connector-curvature="0" />
    <path
       sodipodi:nodetypes="ccccccc"
       id="path5463"
       d="m 630.26897,-1397.2868 3.29449,3.1418 3.29448,-3.1418 -3.29448,-3.1417 -3.29449,3.1417 m 3.29449,21.992 0,43.9841"
       style="fill:none;stroke:#4d4d4d;stroke-width:2.5950861"
       inkscape:connector-curvature="0" />
    <path
       sodipodi:nodetypes="ccccccc"
       id="path5465"
       d="m 659.91933,-1375.2948 0,43.9841 m 0,-25.1337 3.29448,-9.4251 6.58897,-6.2836 6.58897,-3.1417 9.88345,0"
       style="fill:none;stroke:#4d4d4d;stroke-width:2.5950861"
       inkscape:connector-curvature="0" />
    <path
       sodipodi:nodetypes="ccccccccccccccccc"
       id="path5467"
       d="m 699.45313,-1356.4444 39.53381,0 0,-6.2834 -3.29449,-6.2834 -3.29449,-3.1419 -6.58896,-3.1417 -9.88345,0 -6.58896,3.1417 -6.58898,6.2836 -3.29448,9.4251 0,6.2834 3.29448,9.4252 6.58898,6.2834 6.58896,3.1417 9.88345,0 6.58896,-3.1417 6.58898,-6.2834"
       style="fill:none;stroke:#4d4d4d;stroke-width:2.5950861"
       inkscape:connector-curvature="0" />
    <path
       sodipodi:nodetypes="ccccccccccccccccc"
       id="path5469"
       d="m 794.99316,-1365.8695 -3.29449,-6.2836 -9.88344,-3.1417 -9.88346,0 -9.88344,3.1417 -3.29449,6.2836 3.29449,6.2834 6.58895,3.1417 16.47242,3.1417 6.58897,3.1417 3.29449,6.2835 0,3.1417 -3.29449,6.2834 -9.88344,3.1417 -9.88346,0 -9.88344,-3.1417 -3.29449,-6.2834"
       style="fill:none;stroke:#4d4d4d;stroke-width:2.5950861"
       inkscape:connector-curvature="0" />
    <path
       id="path5471"
       d=""
       style="fill:none;stroke:#4d4d4d;stroke-width:2.5950861"
       inkscape:connector-curvature="0" />
    <path
       sodipodi:nodetypes="ccccccc"
       id="path5473"
       d="m 645.56935,-1360.1114 -4.78112,0 -4.78111,2.8172 -2.39056,8.4513 0,47.8909 m -7.17167,-39.4396 16.7339,0"
       style="fill:none;stroke:#4d4d4d;stroke-width:2.5950861"
       inkscape:connector-curvature="0" />
    <path
       sodipodi:nodetypes="cccccccccccccccc"
       id="path5475"
       d="m 686.20885,-1340.3916 0,39.4396 m 0,-30.9882 -4.78112,-5.6343 -4.78111,-2.8171 -7.17168,0 -4.78111,2.8171 -4.78112,5.6343 -2.39056,8.4513 0,5.6342 2.39056,8.4514 4.78112,5.6342 4.78111,2.8171 7.17168,0 4.78111,-2.8171 4.78112,-5.6342"
       style="fill:none;stroke:#4d4d4d;stroke-width:2.5950861"
       inkscape:connector-curvature="0" />
    <path
       sodipodi:nodetypes="cc"
       id="path5477"
       d="m 705.33331,-1360.1114 0,59.1594"
       style="fill:none;stroke:#4d4d4d;stroke-width:2.5950861"
       inkscape:connector-curvature="0" />
    <path
       sodipodi:nodetypes="cc"
       id="path5479"
       d="m 724.45778,-1360.1114 0,59.1594"
       style="fill:none;stroke:#4d4d4d;stroke-width:2.5950861"
       inkscape:connector-curvature="0" />
    <path
       sodipodi:nodetypes="cccccccc"
       inkscape:connector-curvature="0"
       style="fill:none;stroke:#4d4d4d;stroke-width:2.5950861"
       d="m 760.22805,-1360.1114 0,59.1594 m 0,-59.1594 19.12447,59.1594 m 19.12447,-59.1594 -19.12447,59.1594 m 19.12447,-59.1594 0,59.1594"
       id="path5940" />
    <path
       sodipodi:nodetypes="cccccccccccccccc"
       inkscape:connector-curvature="0"
       style="fill:none;stroke:#4d4d4d;stroke-width:2.5950861"
       d="m 843.89759,-1340.3916 0,39.4396 m 0,-30.9882 -4.78112,-5.6343 -4.78111,-2.8171 -7.17168,0 -4.78111,2.8171 -4.78112,5.6343 -2.39056,8.4513 0,5.6342 2.39056,8.4514 4.78112,5.6342 4.78111,2.8171 7.17168,0 4.78111,-2.8171 4.78112,-5.6342"
       id="path5942" />
    <path
       inkscape:connector-curvature="0"
       style="fill:none;stroke:#4d4d4d;stroke-width:2.5950861"
       d=""
       id="path5946" />
    <path
       inkscape:connector-curvature="0"
       style="fill:none;stroke:#4d4d4d;stroke-width:2.5950861"
       d=""
       id="path5954" />
    <path
       sodipodi:nodetypes="ccccccccccccccccc"
       inkscape:connector-curvature="0"
       style="fill:none;stroke:#4d4d4d;stroke-width:2.5950861"
       d="m 1059.0479,-1323.4889 28.6866,0 0,-5.6342 -2.3905,-5.6342 -2.3906,-2.8172 -4.7811,-2.8171 -7.1717,0 -4.7811,2.8171 -4.7811,5.6343 -2.3905,8.4513 0,5.6342 2.3905,8.4514 4.7811,5.6342 4.7811,2.8171 7.1717,0 4.7811,-2.8171 4.7811,-5.6342"
       id="path5956" />
    <path
       sodipodi:nodetypes="ccccccc"
       inkscape:connector-curvature="0"
       style="fill:none;stroke:#4d4d4d;stroke-width:2.5950861"
       d="m 1219.2152,-1360.1114 2.3906,2.8172 2.3906,-2.8172 -2.3906,-2.8171 -2.3906,2.8171 m 2.3906,19.7198 0,39.4396"
       id="path5962" />
    <path
       sodipodi:nodetypes="ccccccc"
       inkscape:connector-curvature="0"
       style="fill:none;stroke:#4d4d4d;stroke-width:2.5950861"
       d="m 1240.7302,-1340.3916 0,39.4396 m 0,-22.5369 2.3906,-8.4513 4.7811,-5.6343 4.7811,-2.8171 7.1717,0"
       id="path5964" />
    <path
       sodipodi:nodetypes="ccccccccccccccccc"
       inkscape:connector-curvature="0"
       style="fill:none;stroke:#4d4d4d;stroke-width:2.5950861"
       d="m 1269.417,-1323.4889 28.6866,0 0,-5.6342 -2.3905,-5.6342 -2.3906,-2.8172 -4.7811,-2.8171 -7.1717,0 -4.7811,2.8171 -4.7811,5.6343 -2.3905,8.4513 0,5.6342 2.3905,8.4514 4.7811,5.6342 4.7811,2.8171 7.1717,0 4.7811,-2.8171 4.7811,-5.6342"
       id="path5966" />
    <path
       sodipodi:nodetypes="ccccccccccccccccc"
       inkscape:connector-curvature="0"
       style="fill:none;stroke:#4d4d4d;stroke-width:2.5950861"
       d="m 1338.7431,-1331.9402 -2.3905,-5.6343 -7.1717,-2.8171 -7.1717,0 -7.1716,2.8171 -2.3906,5.6343 2.3906,5.6342 4.7811,2.8171 11.9528,2.8171 4.7811,2.8171 2.3905,5.6343 0,2.8171 -2.3905,5.6342 -7.1717,2.8171 -7.1717,0 -7.1716,-2.8171 -2.3906,-5.6342"
       id="path5968" />
    <path
       inkscape:connector-curvature="0"
       style="fill:none;stroke:#4d4d4d;stroke-width:2.5950861"
       d=""
       id="path5970" />
    <path
       sodipodi:nodetypes="ccccccc"
       inkscape:connector-curvature="0"
       style="fill:none;stroke:#4d4d4d;stroke-width:2.5950861"
       d="m 1408.0694,-1360.1114 -4.7811,0 -4.7811,2.8172 -2.3906,8.4513 0,47.8909 m -7.1717,-39.4396 16.7339,0"
       id="path5972" />
    <path
       sodipodi:nodetypes="cccccccccccccccc"
       inkscape:connector-curvature="0"
       style="fill:none;stroke:#4d4d4d;stroke-width:2.5950861"
       d="m 1448.7088,-1340.3916 0,39.4396 m 0,-30.9882 -4.7811,-5.6343 -4.7811,-2.8171 -7.1717,0 -4.7811,2.8171 -4.7811,5.6343 -2.3905,8.4513 0,5.6342 2.3905,8.4514 4.7811,5.6342 4.7811,2.8171 7.1717,0 4.7811,-2.8171 4.7811,-5.6342"
       id="path5974" />
    <path
       sodipodi:nodetypes="cc"
       inkscape:connector-curvature="0"
       style="fill:none;stroke:#4d4d4d;stroke-width:2.5950861"
       d="m 1298.3835,-1360.1114 31.0714,59.1594"
       id="path5976" />
    <path
       sodipodi:nodetypes="cc"
       inkscape:connector-curvature="0"
       style="fill:none;stroke:#4d4d4d;stroke-width:2.5950861"
       d="m 1486.9578,-1360.1114 0,59.1594"
       id="path5978" />
    <path
       sodipodi:nodetypes="cccccccc"
       inkscape:connector-curvature="0"
       style="fill:none;stroke:#4d4d4d;stroke-width:2.5950861"
       d="m -2.2719434,-1306.6747 0,65.9762 m 0,-65.9762 26.3558714,65.9762 m 26.355871,-65.9762 -26.355871,65.9762 m 26.355871,-65.9762 0,65.9762"
       id="path5984" />
    <path
       sodipodi:nodetypes="cccccccccccccccc"
       inkscape:connector-curvature="0"
       style="fill:none;stroke:#4d4d4d;stroke-width:2.5950861"
       d="m 113.03499,-1284.6826 0,43.9841 m 0,-34.5589 -6.58896,-6.2835 -6.588971,-3.1417 -9.883452,0 -6.588969,3.1417 -6.588967,6.2835 -3.294485,9.4251 0,6.2834 3.294485,9.4253 6.588967,6.2834 6.588969,3.1417 9.883452,0 6.588971,-3.1417 6.58896,-6.2834"
       id="path5986" />
    <path
       sodipodi:nodetypes="cccccccc"
       inkscape:connector-curvature="0"
       style="fill:none;stroke:#4d4d4d;stroke-width:2.5950861"
       d="m 132.8019,-1284.6826 19.76691,43.9841 m 19.7669,-43.9841 -19.7669,43.9841 -6.58898,12.5669 -6.58896,6.2834 -6.58897,3.1417 -3.29448,0"
       id="path5988" />
    <path
       inkscape:connector-curvature="0"
       style="fill:none;stroke:#4d4d4d;stroke-width:2.5950861"
       d=""
       id="path5990" />
    <path
       sodipodi:nodetypes="cccccccccccccccc"
       inkscape:connector-curvature="0"
       style="fill:none;stroke:#4d4d4d;stroke-width:2.5950861"
       d="m 281.05367,-1284.6826 0,43.9841 m 0,-34.5589 -6.58897,-6.2835 -6.58896,-3.1417 -9.88346,0 -6.58895,3.1417 -6.58898,6.2835 -3.29448,9.4251 0,6.2834 3.29448,9.4253 6.58898,6.2834 6.58895,3.1417 9.88346,0 6.58896,-3.1417 6.58897,-6.2834"
       id="path5992" />
    <path
       sodipodi:nodetypes="cc"
       inkscape:connector-curvature="0"
       style="fill:none;stroke:#4d4d4d;stroke-width:2.5950861"
       d="m 333.76541,-1306.6747 0,65.9762"
       id="path5996" />
    <path
       inkscape:connector-curvature="0"
       style="fill:none;stroke:#4d4d4d;stroke-width:2.5950861"
       d=""
       id="path5998" />
    <path
       sodipodi:nodetypes="ccccccccccccccccc"
       inkscape:connector-curvature="0"
       style="fill:none;stroke:#4d4d4d;stroke-width:2.5950861"
       d="m 409.53854,-1265.8323 39.53381,0 0,-6.2834 -3.29449,-6.2834 -3.29448,-3.1418 -6.58896,-3.1417 -9.88346,0 -6.58896,3.1417 -6.58897,6.2835 -3.29449,9.4251 0,6.2834 3.29449,9.4253 6.58897,6.2834 6.58896,3.1417 9.88346,0 6.58896,-3.1417 6.58897,-6.2834"
       id="path6000" />
    <path
       sodipodi:nodetypes="cccccccccccccccc"
       inkscape:connector-curvature="0"
       style="fill:none;stroke:#4d4d4d;stroke-width:2.5950861"
       d="m 570.96826,-1284.6826 0,65.9761 m 0,-56.5509 6.58897,-6.2835 6.58896,-3.1417 9.88346,0 6.58896,3.1417 6.58897,6.2835 3.29449,9.4251 0,6.2834 -3.29449,9.4253 -6.58897,6.2834 -6.58896,3.1417 -9.88346,0 -6.58896,-3.1417 -6.58897,-6.2834"
       id="path6004" />
    <path
       sodipodi:nodetypes="ccccccc"
       inkscape:connector-curvature="0"
       style="fill:none;stroke:#4d4d4d;stroke-width:2.5950861"
       d="m 630.26897,-1306.6747 3.29449,3.1419 3.29448,-3.1419 -3.29448,-3.1417 -3.29449,3.1417 m 3.29449,21.9921 0,43.9841"
       id="path6006" />
    <path
       sodipodi:nodetypes="ccccccc"
       inkscape:connector-curvature="0"
       style="fill:none;stroke:#4d4d4d;stroke-width:2.5950861"
       d="m 659.91933,-1284.6826 0,43.9841 m 0,-25.1338 3.29448,-9.4251 6.58897,-6.2835 6.58897,-3.1417 9.88345,0"
       id="path6008" />
    <path
       inkscape:connector-curvature="0"
       style="fill:none;stroke:#4d4d4d;stroke-width:2.5950861"
       d=""
       id="path6014" />
    <path
       sodipodi:nodetypes="cccccccccccccccc"
       id="path6030"
       d="m 843.89759,-1259.1416 0,39.4396 m 0,-30.9882 -4.78112,-5.6343 -4.78111,-2.8171 -7.17168,0 -4.78111,2.8171 -4.78112,5.6343 -2.39056,8.4513 0,5.6342 2.39056,8.4514 4.78112,5.6342 4.78111,2.8171 7.17168,0 4.78111,-2.8171 4.78112,-5.6342"
       style="fill:none;stroke:#4d4d4d;stroke-width:2.5950861"
       inkscape:connector-curvature="0" />
    <path
       id="path6034"
       d=""
       style="fill:none;stroke:#4d4d4d;stroke-width:2.5950861"
       inkscape:connector-curvature="0" />
    <path
       sodipodi:nodetypes="cccccccccccccccc"
       id="path6036"
       d="m 965.81607,-1259.1416 0,39.4396 m 0,-30.9882 -4.78112,-5.6343 -4.78111,-2.8171 -7.17168,0 -4.78111,2.8171 -4.78112,5.6343 -2.39056,8.4513 0,5.6342 2.39056,8.4514 4.78112,5.6342 4.78111,2.8171 7.17168,0 4.78111,-2.8171 4.78112,-5.6342"
       style="fill:none;stroke:#4d4d4d;stroke-width:2.5950861"
       inkscape:connector-curvature="0" />
    <path
       sodipodi:nodetypes="cc"
       id="path6038"
       d="m 984.94053,-1278.8614 0,59.1594"
       style="fill:none;stroke:#4d4d4d;stroke-width:2.5950861"
       inkscape:connector-curvature="0" />
    <path
       id="path6042"
       d=""
       style="fill:none;stroke:#4d4d4d;stroke-width:2.5950861"
       inkscape:connector-curvature="0" />
    <path
       id="path6058"
       d=""
       style="fill:none;stroke:#4d4d4d;stroke-width:2.5950861"
       inkscape:connector-curvature="0" />
    <path
       sodipodi:nodetypes="ccccccc"
       id="path6060"
       d="m 1408.0694,-1278.8614 -4.7811,0 -4.7811,2.8172 -2.3906,8.4513 0,47.8909 m -7.1717,-39.4396 16.7339,0"
       style="fill:none;stroke:#4d4d4d;stroke-width:2.5950861"
       inkscape:connector-curvature="0" />
    <path
       sodipodi:nodetypes="cccccccccccccccc"
       id="path6062"
       d="m 1448.7088,-1259.1416 0,39.4396 m 0,-30.9882 -4.7811,-5.6343 -4.7811,-2.8171 -7.1717,0 -4.7811,2.8171 -4.7811,5.6343 -2.3905,8.4513 0,5.6342 2.3905,8.4514 4.7811,5.6342 4.7811,2.8171 7.1717,0 4.7811,-2.8171 4.7811,-5.6342"
       style="fill:none;stroke:#4d4d4d;stroke-width:2.5950861"
       inkscape:connector-curvature="0" />
    <path
       sodipodi:nodetypes="cc"
       id="path6064"
       d="m 1467.8333,-1278.8614 0,59.1594"
       style="fill:none;stroke:#4d4d4d;stroke-width:2.5950861"
       inkscape:connector-curvature="0" />
    <path
       sodipodi:nodetypes="cc"
       id="path6066"
       d="m 1486.9578,-1278.8614 0,59.1594"
       style="fill:none;stroke:#4d4d4d;stroke-width:2.5950861"
       inkscape:connector-curvature="0" />
    <path
       sodipodi:nodetypes="cccccccccccccccc"
       inkscape:connector-curvature="0"
       style="fill:none;stroke:#4d4d4d;stroke-width:2.5950861"
       d="m 113.03499,-1194.0705 0,43.9841 m 0,-34.5588 -6.58896,-6.2836 -6.588971,-3.1417 -9.883452,0 -6.588969,3.1417 -6.588967,6.2836 -3.294485,9.4251 0,6.2834 3.294485,9.4252 6.588967,6.2834 6.588969,3.1417 9.883452,0 6.588971,-3.1417 6.58896,-6.2834"
       id="path6074" />
    <path
       sodipodi:nodetypes="cccccccc"
       inkscape:connector-curvature="0"
       style="fill:none;stroke:#4d4d4d;stroke-width:2.5950861"
       d="m 132.8019,-1194.0705 19.76691,43.9841 m 19.7669,-43.9841 -19.7669,43.9841 -6.58898,12.5669 -6.58896,6.2835 -6.58897,3.1417 -3.29448,0"
       id="path6076" />
    <path
       inkscape:connector-curvature="0"
       style="fill:none;stroke:#4d4d4d;stroke-width:2.5950861"
       d=""
       id="path6078" />
    <path
       sodipodi:nodetypes="cc"
       inkscape:connector-curvature="0"
       style="fill:none;stroke:#4d4d4d;stroke-width:2.5950861"
       d="m 307.40955,-1216.0625 0,65.9761"
       id="path6082" />
    <path
       sodipodi:nodetypes="cc"
       inkscape:connector-curvature="0"
       style="fill:none;stroke:#4d4d4d;stroke-width:2.5950861"
       d="m 333.76541,-1216.0625 0,65.9761"
       id="path6084" />
    <path
       inkscape:connector-curvature="0"
       style="fill:none;stroke:#4d4d4d;stroke-width:2.5950861"
       d=""
       id="path6086" />
    <path
       sodipodi:nodetypes="ccccccc"
       inkscape:connector-curvature="0"
       style="fill:none;stroke:#4d4d4d;stroke-width:2.5950861"
       d="m 630.26897,-1216.0625 3.29449,3.1418 3.29448,-3.1418 -3.29448,-3.1417 -3.29449,3.1417 m 3.29449,21.992 0,43.9841"
       id="path6094" />
    <path
       inkscape:connector-curvature="0"
       style="fill:none;stroke:#4d4d4d;stroke-width:2.5950861"
       d=""
       id="path6102" />
    <path
       sodipodi:nodetypes="cccccccccccccccc"
       inkscape:connector-curvature="0"
       style="fill:none;stroke:#4d4d4d;stroke-width:2.5950861"
       d="m 686.20885,-1177.8916 0,39.4396 m 0,-30.9882 -4.78112,-5.6343 -4.78111,-2.8171 -7.17168,0 -4.78111,2.8171 -4.78112,5.6343 -2.39056,8.4513 0,5.6342 2.39056,8.4514 4.78112,5.6342 4.78111,2.8171 7.17168,0 4.78111,-2.8171 4.78112,-5.6342"
       id="path6106" />
    <path
       sodipodi:nodetypes="cccccccc"
       id="path6120"
       d="m 858.24094,-1177.8916 14.34335,39.4396 m 14.34335,-39.4396 -14.34335,39.4396 -4.78112,11.2685 -4.78111,5.6342 -4.78112,2.8171 -2.39056,0"
       style="fill:none;stroke:#4d4d4d;stroke-width:2.5950861"
       inkscape:connector-curvature="0" />
    <path
       id="path6122"
       d=""
       style="fill:none;stroke:#4d4d4d;stroke-width:2.5950861"
       inkscape:connector-curvature="0" />
    <path
       id="path6130"
       d=""
       style="fill:none;stroke:#4d4d4d;stroke-width:2.5950861"
       inkscape:connector-curvature="0" />
    <path
       id="path6146"
       d=""
       style="fill:none;stroke:#4d4d4d;stroke-width:2.5950861"
       inkscape:connector-curvature="0" />
    <path
       id="path6166"
       d=""
       style="fill:none;stroke:#4d4d4d;stroke-width:2.5950861"
       inkscape:connector-curvature="0" />
    <path
       id="path6174"
       d=""
       style="fill:none;stroke:#4d4d4d;stroke-width:2.5950861"
       inkscape:connector-curvature="0" />
    <path
       sodipodi:nodetypes="ccccccccccccccccc"
       id="path6186"
       d="m 699.45313,-1084.608 39.53381,0 0,-6.2834 -3.29449,-6.2834 -3.29449,-3.1418 -6.58896,-3.1417 -9.88345,0 -6.58896,3.1417 -6.58898,6.2835 -3.29448,9.4251 0,6.2834 3.29448,9.4252 6.58898,6.2835 6.58896,3.1417 9.88345,0 6.58896,-3.1417 6.58898,-6.2835"
       style="fill:none;stroke:#4d4d4d;stroke-width:2.5950861"
       inkscape:connector-curvature="0" />
    <path
       sodipodi:nodetypes="ccccccccccccccccc"
       id="path6188"
       d="m 794.99316,-1094.0331 -3.29449,-6.2835 -9.88344,-3.1417 -9.88346,0 -9.88344,3.1417 -3.29449,6.2835 3.29449,6.2834 6.58895,3.1417 16.47242,3.1417 6.58897,3.1417 3.29449,6.2835 0,3.1417 -3.29449,6.2835 -9.88344,3.1417 -9.88346,0 -9.88344,-3.1417 -3.29449,-6.2835"
       style="fill:none;stroke:#4d4d4d;stroke-width:2.5950861"
       inkscape:connector-curvature="0" />
    <path
       id="path6190"
       d=""
       style="fill:none;stroke:#4d4d4d;stroke-width:2.5950861"
       inkscape:connector-curvature="0" />
    <path
       sodipodi:nodetypes="cc"
       id="path6196"
       d="m 705.33331,-1116.3614 0,59.1594"
       style="fill:none;stroke:#4d4d4d;stroke-width:2.5950861"
       inkscape:connector-curvature="0" />
    <path
       sodipodi:nodetypes="cccccccc"
       inkscape:connector-curvature="0"
       style="fill:none;stroke:#4d4d4d;stroke-width:2.5950861"
       d="m 718.79948,-1116.3614 31.07143,59.1594 m -31.07143,-59.1594 50.1959,59.1594 m -11.94696,-59.1594 11.94696,59.1594 m -11.94696,-59.1594 31.07143,59.1594"
       id="path6204" />
    <path
       sodipodi:nodetypes="cccccccccccccccc"
       inkscape:connector-curvature="0"
       style="fill:none;stroke:#4d4d4d;stroke-width:2.5950861"
       d="m 812.82616,-1096.6416 20.71429,39.4396 m -16.27548,-30.9882 -7.74035,-5.6343 -6.26069,-2.8171 -7.17168,0 -3.30153,2.8171 -1.82189,5.6343 2.04819,8.4513 2.95917,5.6342 6.82936,8.4514 7.74029,5.6342 6.2607,2.8171 7.17168,0 3.30152,-2.8171 1.82195,-5.6342"
       id="path6206" />
    <path
       sodipodi:nodetypes="cccccccc"
       inkscape:connector-curvature="0"
       style="fill:none;stroke:#4d4d4d;stroke-width:2.5950861"
       d="m 858.24094,-1096.6416 14.34335,39.4396 m 14.34335,-39.4396 -14.34335,39.4396 -4.78112,11.2685 -4.78111,5.6342 -4.78112,2.8171 -2.39056,0"
       id="path6208" />
    <path
       inkscape:connector-curvature="0"
       style="fill:none;stroke:#4d4d4d;stroke-width:2.5950861"
       d=""
       id="path6210" />
    <path
       sodipodi:nodetypes="cccccccccccccccc"
       inkscape:connector-curvature="0"
       style="fill:none;stroke:#4d4d4d;stroke-width:2.5950861"
       d="m 965.81607,-1096.6416 0,39.4396 m 0,-30.9882 -4.78112,-5.6343 -4.78111,-2.8171 -7.17168,0 -4.78111,2.8171 -4.78112,5.6343 -2.39056,8.4513 0,5.6342 2.39056,8.4514 4.78112,5.6342 4.78111,2.8171 7.17168,0 4.78111,-2.8171 4.78112,-5.6342"
       id="path6212" />
    <path
       sodipodi:nodetypes="cc"
       inkscape:connector-curvature="0"
       style="fill:none;stroke:#4d4d4d;stroke-width:2.5950861"
       d="m 943.51196,-1116.3614 31.07143,59.1594"
       id="path6214" />
    <path
       sodipodi:nodetypes="cc"
       inkscape:connector-curvature="0"
       style="fill:none;stroke:#4d4d4d;stroke-width:2.5950861"
       d="m 962.63643,-1116.3614 31.07143,59.1594"
       id="path6216" />
    <path
       sodipodi:nodetypes="ccccccccccccccccc"
       inkscape:connector-curvature="0"
       style="fill:none;stroke:#4d4d4d;stroke-width:2.5950861"
       d="m 1036.854,-1079.7389 28.6866,0 -2.9591,-5.6342 -5.3497,-5.6342 -3.8702,-2.8172 -6.2607,-2.8171 -7.1717,0 -3.3015,2.8171 -1.8219,5.6343 2.0482,8.4513 2.9592,5.6342 6.8293,8.4514 7.7403,5.6342 6.2607,2.8171 7.1717,0 3.3015,-2.8171 1.8219,-5.6342"
       id="path6220" />
    <path
       sodipodi:nodetypes="ccccccc"
       inkscape:connector-curvature="0"
       style="fill:none;stroke:#4d4d4d;stroke-width:2.5950861"
       d="m 1177.7866,-1116.3614 3.8703,2.8172 0.9109,-2.8172 -3.8702,-2.8171 -0.911,2.8171 m 12.7478,19.7198 20.7143,39.4396"
       id="path6226" />
    <path
       sodipodi:nodetypes="ccccccc"
       inkscape:connector-curvature="0"
       style="fill:none;stroke:#4d4d4d;stroke-width:2.5950861"
       d="m 1209.6588,-1096.6416 20.7143,39.4396 m -11.8368,-22.5369 -2.0481,-8.4513 1.8219,-5.6343 3.3015,-2.8171 7.1717,0"
       id="path6228" />
    <path
       sodipodi:nodetypes="ccccccccccccccccc"
       inkscape:connector-curvature="0"
       style="fill:none;stroke:#4d4d4d;stroke-width:2.5950861"
       d="m 1247.2231,-1079.7389 28.6866,0 -2.9591,-5.6342 -5.3497,-5.6342 -3.8702,-2.8172 -6.2607,-2.8171 -7.1717,0 -3.3015,2.8171 -1.8219,5.6343 2.0482,8.4513 2.9592,5.6342 6.8293,8.4514 7.7403,5.6342 6.2607,2.8171 7.1717,0 3.3015,-2.8171 1.8219,-5.6342"
       id="path6230" />
    <path
       sodipodi:nodetypes="ccccccc"
       inkscape:connector-curvature="0"
       style="fill:none;stroke:#4d4d4d;stroke-width:2.5950861"
       d="m 1408.0694,-1116.3614 -4.7811,0 -4.7811,2.8172 -2.3906,8.4513 0,47.8909 m -7.1717,-39.4396 16.7339,0"
       id="path6236" />
    <path
       sodipodi:nodetypes="cccccccccccccccc"
       inkscape:connector-curvature="0"
       style="fill:none;stroke:#4d4d4d;stroke-width:2.5950861"
       d="m 1448.7088,-1096.6416 0,39.4396 m 0,-30.9882 -4.7811,-5.6343 -4.7811,-2.8171 -7.1717,0 -4.7811,2.8171 -4.7811,5.6343 -2.3905,8.4513 0,5.6342 2.3905,8.4514 4.7811,5.6342 4.7811,2.8171 7.1717,0 4.7811,-2.8171 4.7811,-5.6342"
       id="path6238" />
    <path
       sodipodi:nodetypes="cc"
       inkscape:connector-curvature="0"
       style="fill:none;stroke:#4d4d4d;stroke-width:2.5950861"
       d="m 1486.9578,-1116.3614 0,59.1594"
       id="path6242" />
    <path
       inkscape:connector-curvature="0"
       style="fill:none;stroke:#4d4d4d;stroke-width:2.5950861"
       d="m 1690.1092,-28.7211 0,59.1594"
       id="use16704"
       sodipodi:nodetypes="cc" />
    <path
       inkscape:connector-curvature="0"
       style="fill:none;stroke:#4d4d4d;stroke-width:2.5950861"
       d="m 974.72211,-1136.3707 0,39.4396 m 0,-30.9882 -4.78112,-5.6343 -4.78111,-2.8171 -7.17168,0 -4.78111,2.8171 -4.78112,5.6343 -2.39056,8.4513 0,5.6342 2.39056,8.4514 4.78112,5.6342 4.78111,2.8171 7.17168,0 4.78111,-2.8171 4.78112,-5.6342"
       id="use16706"
       sodipodi:nodetypes="cccccccccccccccc" />
    <path
       inkscape:connector-curvature="0"
       style="fill:none;stroke:#4d4d4d;stroke-width:2.5950861"
       d="m 20.31126,-708.44195 0,59.1594"
       id="use16754"
       sodipodi:nodetypes="cc" />
    <use
       transform="translate(782.30118,75.617085)"
       height="2834.6455"
       width="1559.0551"
       y="0"
       x="0"
       xlink:href="#path6084"
       id="use16758" />
    <path
       id="rect16979"
       d="m 424.26407,987.32904 804.33403,0 0,486.13596 -804.33403,0 z"
       style="fill:none;stroke:#4d4d4d;stroke-width:1;stroke-miterlimit:4;stroke-opacity:1"
       transform="translate(0,-1782.2847)" />
    <path
       sodipodi:nodetypes="cc"
       inkscape:connector-curvature="0"
       id="path16981"
       d="M424.666322156 2446.41505935C575.252119773 2189.27904935 529.050032504 1589.68305986 1228.19584784 2287.17825622"
       style="fill:none;stroke:#000000;stroke-width:1px;stroke-linecap:butt;stroke-linejoin:miter;stroke-opacity:1" />
  </g>
</svg>
