<?xml version="1.0" encoding="UTF-8" standalone="no"?>
<!-- Created with Inkscape (http://www.inkscape.org/) -->

<svg
 xmlns:dc="http://purl.org/dc/elements/1.1/"
 xmlns:cc="http://creativecommons.org/ns#"
 xmlns:rdf="http://www.w3.org/1999/02/22-rdf-syntax-ns#"
 xmlns:svg="http://www.w3.org/2000/svg"
 xmlns="http://www.w3.org/2000/svg"
 xmlns:xlink="http://www.w3.org/1999/xlink"
 xmlns:sodipodi="http://sodipodi.sourceforge.net/DTD/sodipodi-0.dtd"
 xmlns:inkscape="http://www.inkscape.org/namespaces/inkscape"
 width="744.09448819"
 height="1052.3622047"
 id="svg2"
 version="1.1"
 inkscape:version="0.48.2 r9819"
 sodipodi:docname="New document 1">
<defs
 id="defs4" />
<sodipodi:namedview
 id="base"
 pagecolor="#ffffff"
 bordercolor="#666666"
 borderopacity="1.0"
 inkscape:pageopacity="0.0"
 inkscape:pageshadow="2"
 inkscape:zoom="0.35"
 inkscape:cx="175.50237914302"
 inkscape:cy="770.2696995954"
 inkscape:document-units="px"
 inkscape:current-layer="layer1"
 showgrid="false"
 inkscape:window-width="952"
 inkscape:window-height="682"
 inkscape:window-x="46"
 inkscape:window-y="22"
 inkscape:window-maximized="0" />
<metadata
 id="metadata7">
<rdf:RDF>
<cc:Work
 rdf:about="">
<dc:format>image/svg+xml</dc:format>
<dc:type
 rdf:resource="http://purl.org/dc/dcmitype/StillImage" />
<dc:title></dc:title>
</cc:Work>
</rdf:RDF>
</metadata>
<g
 inkscape:label="Layer 1"
 inkscape:groupmode="layer"
 id="layer1">
<path
 sodipodi:type="star"
 style="fill:none;stroke:#1a1a1a;stroke-width:1;stroke-miterlimit:4;stroke-opacity:1;stroke-dasharray:none"
 id="path2985"
 sodipodi:sides="36"
 sodipodi:cx="54.285713195801"
 sodipodi:cy="509.50503540039"
 sodipodi:r1="269.75424194336"
 sodipodi:r2="220.33067321777"
 sodipodi:arg1="1.0739855252915"
 sodipodi:arg2="1.1612519878912"
 inkscape:flatsided="false"
 inkscape:rounded="0"
 inkscape:randomized="0"
 d="M 182.85714539611,746.64789923651 142.01949029856,711.61488156302 139.72443029069,765.37136117933 105.59061061295,723.77918937518 93.995703000422,776.32045428797 67.602857580864,729.43288544677 47.060407764161,779.16249590882 29.210469855433,728.40418508357 0.34464977725962,773.81113204539 -8.4200192897852,720.72434482556 -44.732136293165,760.42896118073 -44.145226484061,706.62671273279 -86.800315112316,739.42259380487 -76.879659384623,686.53963822265 -124.5816663543,711.43029776079 -105.62869881221,661.0734568896 -156.92822277992,677.302604799 -129.51881975153,631.00194576691 -182.85715064032,638.0764676007 -147.82413296683,597.23881250315 -201.58061258314,594.94375249528 -159.98844077899,560.80993281754 -212.52970569178,549.21502520501 -165.64213685058,522.82217978545 -215.37174731263,502.27972996875 -164.61343648738,484.42979206002 -210.02038344919,455.56397198185 -156.93359622936,446.7993029148 -196.63821258454,410.48718591143 -142.83596413659,411.07409572053 -175.63184520868,368.41900709227 -122.74888962646,378.33966281997 -147.6395491646,330.63765585029 -97.282708293405,349.59062339238 -113.51185620281,298.29109942467 -67.211197170721,325.70050245306 -74.285719004513,272.36217156427 -33.448063906954,307.39518923776 -31.153003899093,253.63870962145 2.9808157786471,295.2308814256 14.575723391179,242.68961651281 40.968568810738,289.57718535401 61.51101862744,239.84757489196 79.360956536168,290.60588571721 108.22677661434,245.1989387554 116.99144568139,298.28572597523 153.30356268477,258.58110962005 152.71665287566,312.383358068 195.37174150392,279.58747699591 185.45108577622,332.47043257813 233.1530927459,307.57977303999 214.20012520381,357.93661391119 265.49964917152,341.70746600178 238.09024614313,388.00812503387 291.42857703192,380.93360320008 256.39555935843,421.77125829764 310.15203897474,424.0663183055 268.55986717059,458.20013798324 321.10113208338,469.79504559577 274.21356324218,496.18789101533 323.94317370423,516.73034083203 273.18486287898,534.58027874076 318.5918098408,563.44609881893 265.50502262097,572.21076788598 305.20963897614,608.52288488936 251.4073905282,607.93597508025 284.20327160028,650.59106370851 231.32031601806,640.67040798081 256.2109755562,688.37241495049 205.85413468501,669.4194474084 222.08328259441,720.71897137611 175.78262356232,693.30956834772 z"
 transform="matrix(0.99666152387457,0.08164439250807,-0.08164439250807,0.99666152387457,330.35088922395,-125.58829653641)" />
<path
 style="fill:none;stroke:#1a1a1a;stroke-width:1;stroke-miterlimit:4;stroke-opacity:1;stroke-dasharray:none"
 d="M 367.08388919918,164.61171560082 C 357.66265877593,176.40535686857 336.04634330485,176.73747599411 327.90527816901,163.28356771395 324.03360496697,177.58003713902 319.08844983915,191.60544623378 314.91660829072,205.86527366093 306.40084772095,193.59716297165 297.96140100781,181.3364428744 289.46072325411,169.07035443198 287.68503877027,183.86018132808 285.9071500224,198.64974373505 284.13292452963,213.43974569514 273.59640024704,202.83052093152 263.05266963951,192.22838725679 252.56713707898,181.56867534725 253.32253564392,196.43466562826 254.11899805641,211.29785878548 254.93434185375,226.16081413375 242.71657081281,217.51829023604 230.46455868599,208.92421743105 218.23596046567,200.29700135782 221.60164700959,214.83258232682 224.89642272413,229.38450518554 228.2705387653,243.91814655899 214.77415494168,237.56851821075 201.28035558133,231.21339713449 187.7849881879,224.86160857966 193.58254859486,238.53216671248 199.37615905884,252.20441424136 205.14987567363,265.88506008283 190.78280089586,261.99691162154 176.41563646714,258.10909053608 162.05356633014,254.20248609279 170.10263379173,266.75888597971 178.09653507421,279.33417559062 186.05229460439,291.94409715117 171.29804126889,290.5006396977 156.54630711053,289.03141936542 141.78813298444,287.62826827416 151.96708759619,298.60191387874 162.13698151822,309.58403044867 172.36139737477,320.51544693308 157.43371903476,321.67306912839 142.50659264258,322.83783907735 127.58142024158,324.02738743303 139.60644350548,333.10288215026 151.64174821794,342.16472439551 163.7029068879,351.19219332267 149.16002836032,354.92793545088 134.63347194815,358.57906045645 120.11194304838,362.38936705834 133.36077836512,369.16644367007 146.59689472302,375.96841701734 159.86742190819,382.70299554243 146.37492192196,388.98859142707 132.88108579988,395.24569705029 119.35717420501,401.45817469619 133.65643524194,405.75055680699 147.86961131601,410.13824389854 162.12065141319,414.52444424331 149.79665042925,423.02887594687 137.5490912109,431.49783595076 125.22464100457,440.06611213599 139.96385349139,441.94315771697 154.70775456642,443.78328963703 169.44648709186,445.664016365 159.02032795706,456.19983548303 148.34177576545,466.5451569221 137.88124167022,476.94130957483 152.69544104232,476.18349888153 167.50640179273,475.37703876998 182.31765209361,474.56134786373 173.65084148731,486.83100314859 164.97926957875,499.08332391783 156.35019675076,511.37665778049 170.83470611374,508.10902112964 185.31659160613,504.82977598334 199.79775387796,501.54734225288 193.58022383956,514.94685360448 187.3367157906,528.33423153194 181.08073788477,541.71580430411 194.73856187692,535.88841908 208.43135508313,530.14307482767 222.10418938794,524.35091681838 218.21604092665,538.71799159615 214.32821984119,553.08515602488 210.4216153979,567.44722616187 222.9394623745,559.36494502024 235.55611081697,551.43715885953 248.13208078365,543.44594650035 246.68308810439,558.19966724161 245.22851333956,572.95281755486 243.81625190664,587.7101081203 254.82857198555,577.56251217872 265.78966488231,567.35960391887 276.73457623819,557.13939511724 277.89219843349,572.06707345725 279.05696838246,586.99419984943 280.24651673814,601.91937225044 289.29362657535,589.96115942059 298.35003911123,578.00997904421 307.39091152965,566.04705098508 311.1327013536,580.51263990045 314.77931610298,594.99247064219 318.6370906488,609.42254650352 325.37477576521,596.21214107565 332.12101071921,583.00610900319 338.90681652394,569.82024461955 345.22766409701,583.21250793432 351.46605098399,596.64746268178 357.61501265605,610.13851551247 361.99370042845,595.89270384788 366.3470279411,581.64076296253 370.65013653056,567.37248691703 379.18916903137,579.66981755158 387.71877480374,591.97369272059 396.25409576848,604.27360010017 398.12783017204,589.56543806968 399.96679226426,574.85285659003 401.84434583569,560.14519103074 412.38016495372,570.57135016555 422.72548639279,581.24990235716 433.12163904552,591.71043645239 432.36390770425,576.86523530548 431.56455351706,562.02287553122 430.74933149622,547.18058901114 443.0001599566,555.83376381568 455.23392628573,564.49137787341 467.504901455,573.11179590683 464.10453796627,558.69545103209 460.81359510744,544.2571156948 457.44225789545,529.8332531045 470.96034243476,536.07378204427 484.47494121609,542.32185261802 497.98446801813,548.58088574488 492.18057648719,534.8624273199 486.36100602827,521.15059208972 480.56749473622,507.42774877669 494.92473241596,511.31304248334 509.28229170386,515.19715533338 523.63265840709,519.10777137947 515.56851914531,506.50021742246 507.35834528637,493.98694241077 499.22138222697,481.4264293045 514.17243834079,482.89077882097 529.12247225166,484.36537988137 544.07731162672,485.79073453956 533.90792447466,474.80122526258 523.76958264671,463.78304899137 513.60768980331,452.78662735195 528.45227961658,451.62157532695 543.29692902498,450.45728306926 558.13850155554,449.25427575388 546.10786148301,440.16611452008 534.07688495677,431.0781796616 521.95217217671,422.11551276232 536.56545842958,418.40739761263 551.17814482584,414.61505511887 565.75860433731,410.96734441014 552.47366998605,404.15884172489 539.18432069457,397.35891980431 525.88364556155,390.58121903174 539.34627932575,384.31776400018 552.80356772457,378.03008935554 566.2979048596,371.84953138881 552.09933832777,367.53099385681 537.82255441743,363.14617414162 523.56047054951,358.84810457419 535.83033332234,350.33749897077 548.05019177404,341.75485627747 560.33444965491,333.26508545982 545.60693311539,331.49434514564 530.87951093601,329.72281985885 516.15193242747,327.95259505894 526.69988096705,317.37389379986 537.31355707263,306.86058976244 547.96071143012,296.38170483376 533.07352737146,297.11639565412 518.19078840611,297.95014461608 503.30628129838,298.743806834 512.04047512887,286.56511492028 520.63439087844,274.28851839984 529.23493680681,262.01938254783 514.75496931933,265.32098286484 500.29985035345,268.71528000067 485.83181131399,272.07182055832 492.07357190985,258.55311909126 498.29539371173,245.02505476871 504.67032958497,231.56841027006 490.97525624146,237.33171932488 477.30294735592,243.14886573153 463.61573240918,248.93074636853 467.49978872869,234.58378576919 471.38747279016,220.23780608151 475.29320362469,205.89672837028 462.68564966768,213.96086763205 450.17237465599,222.171041491 437.61186154972,230.3080045504 439.0745141317,215.37771256052 440.54699732375,200.44840253848 441.97106401025,185.51436649589 430.97676840259,195.73598064827 419.94891263248,205.92152782268 408.98279417166,216.17341374229 407.82517197636,201.24573540227 406.66040202739,186.3186090101 405.47085367172,171.39343660909 396.39245217373,183.40525292486 387.36107564718,195.45244362412 378.30859916934,207.48377758279 374.46051492178,193.2860746059 371.16276477129,178.30482917784 367.08388919918,164.61171560082 z"
 id="path3755"
 inkscape:connector-curvature="0" />
<path
 style="fill:none;stroke:#000000;stroke-width:0.2912606001px;stroke-linecap:butt;stroke-linejoin:miter;stroke-opacity:1"
 d="M 318.72697277472,351.50201186312 C 320.39131902054,354.41461779329 373.25789831866,416.07891552369 373.25789831866,416.07891552369 333.42891125909,361.71686275641 238.85525494716,466.2230512504 287.93656722717,418.49194825712 344.20147493287,363.77486797029 332.77488621076,498.19312339958 304.42733593827,452.19495973484 264.6963562305,387.72546979333 293.76177908752,364.81678182963 332.04174274124,378.13155179613 370.32170639494,391.44632176264 318.72697277472,351.50201186312 318.72697277472,351.50201186312 z"
 id="path4015"
 inkscape:connector-curvature="0"
 sodipodi:nodetypes="ccsssc" />
<use
 x="0"
 y="0"
 xlink:href="#path4015"
 id="use4031"
 transform="matrix(-1,0,0,1,701.49974734794,0)"
 width="744.09448242188"
 height="1052.3621826172" />
<path
 style="fill:none;stroke:#000000;stroke-width:0.5638894439px;stroke-linecap:butt;stroke-linejoin:miter;stroke-opacity:1"
 d="M 346.45273949581,337.86743047286 C 346.45273949581,337.86743047286 186.43514309906,474.83224694415 308.86598933417,472.99953203744 430.566762816,471.17774587344 297.4519960019,169.89075158042 319.06382413768,351.56188815193 323.51068070928,388.94259849524 199.97455732508,476.92596723419 339.20273248924,470.78422559316 476.20939057785,464.74048124265 435.50424018096,523.28816377331 443.57585267841,407.62938196779 444.25131716681,397.95059722612 436.92653580362,368.62135530045 421.26004883142,362.04964286466 391.42584348901,349.53491517818 346.54441761978,342.06980805049 346.45273949581,337.86743047286 z"
 id="path4035"
 inkscape:connector-curvature="0"
 sodipodi:nodetypes="csssssc" />
<use
 x="0"
 y="0"
 xlink:href="#path4035"
 id="use4037"
 transform="matrix(-1,0,0,1,702.20366622112,0)"
 width="744.09448242188"
 height="1052.3621826172" />
<path
 style="fill:none;stroke:#000000;stroke-width:1.2653040886px;stroke-linecap:butt;stroke-linejoin:miter;stroke-opacity:1"
 d="M 311.18563622388,351.98442567251 C 311.18563622388,341.33413440745 302.65419105916,305.01758685125 311.18563622388,284.27900263029 344.90963644039,202.30133000222 349.13327233269,257.09848818511 347.6928951822,284.27900263029 346.68646637766,303.27073174138 358.4303242876,345.13780985926 347.6928951822,345.13780985926 336.95546607681,345.13780985926 311.18563622388,351.98442567251 311.18563622388,351.98442567251 z"
 id="path4039"
 inkscape:connector-curvature="0"
 sodipodi:nodetypes="csssc" />
<use
 x="0"
 y="0"
 xlink:href="#path4039"
 id="use4043"
 transform="matrix(-0.98375377273929,-0.17952301975296,-0.17952301975296,0.98375377273929,760.22840075538,64.870085138173)"
 width="744.09448242188"
 height="1052.3621826172" />
<path
 style="fill:none;stroke:#1a1a1a;stroke-width:1;stroke-miterlimit:4;stroke-opacity:1"
 d="M 345.2192560987,372.65945506358 C 348.2757544359,374.96705963447 348.83014539751,378.88276081857 347.17379652406,380.57358536693 345.5174476506,382.26440991529 341.57592595277,381.80272914333 339.22108622723,378.78247239796 320.55112100185,354.8368561438 318.77189870585,356.06419895469 320.4282475793,354.37337440633 322.08459645276,352.68254985796 321.61208807892,354.83644231555 345.2192560987,372.65945506358 z"
 id="path4045"
 inkscape:connector-curvature="0"
 sodipodi:nodetypes="sssss" />
<path
 sodipodi:nodetypes="sssss"
 inkscape:connector-curvature="0"
 id="path4048"
 d="M 357.16188039495,372.65945506358 C 354.10538205775,374.96705963447 353.55099109614,378.88276081857 355.20733996959,380.57358536693 356.86368884305,382.26440991529 360.80521054088,381.80272914333 363.16005026642,378.78247239796 381.8300154918,354.8368561438 383.6092377878,356.06419895469 381.95288891435,354.37337440633 380.29654004089,352.68254985796 380.76904841473,354.83644231555 357.16188039495,372.65945506358 z"
 style="fill:none;stroke:#1a1a1a;stroke-width:1;stroke-miterlimit:4;stroke-opacity:1" />
<path
 style="fill:none;stroke:#000000;stroke-width:0.8139276505px;stroke-linecap:butt;stroke-linejoin:miter;stroke-opacity:1"
 d="M 350.77304363081,389.9477163724 327.04982164807,421.20521737272 C 327.04982164807,421.20521737272 349.57490125638,381.53454299183 374.73589411842,420.676275052 z"
 id="path4052"
 inkscape:connector-curvature="0"
 sodipodi:nodetypes="cccc" />
<path
 style="fill:none;stroke:#000000;stroke-width:1px;stroke-linecap:butt;stroke-linejoin:miter;stroke-opacity:1"
 d="M 350.01785714905,390.46460993925 344.46201814668,400.56613539809 357.08892497024,400.56613539809 z"
 id="path4058"
 inkscape:connector-curvature="0" />
<path
 style="fill:none;stroke:#000000;stroke-width:1px;stroke-linecap:butt;stroke-linejoin:miter;stroke-opacity:1"
 d="M 354.56354360553,394.50522012279 412.6473149939,375.31232175098"
 id="path4060"
 inkscape:connector-curvature="0" />
<path
 style="fill:none;stroke:#000000;stroke-width:1px;stroke-linecap:butt;stroke-linejoin:miter;stroke-opacity:1"
 d="M 356.07877242436,398.04075403338 415.67777263155,394.00014384984"
 id="path4062"
 inkscape:connector-curvature="0" />
<path
 style="fill:none;stroke:#000000;stroke-width:1px;stroke-linecap:butt;stroke-linejoin:miter;stroke-opacity:1"
 d="M 357.08892497024,400.56613539809 412.14223872096,410.162584584"
 id="path4064"
 inkscape:connector-curvature="0" />
<path
 inkscape:connector-curvature="0"
 id="path4066"
 d="M 346.98739951139,394.50522012279 288.90362812302,375.31232175098"
 style="fill:none;stroke:#000000;stroke-width:1px;stroke-linecap:butt;stroke-linejoin:miter;stroke-opacity:1" />
<path
 inkscape:connector-curvature="0"
 id="path4068"
 d="M 345.47217069256,398.04075403338 285.87317048537,394.00014384984"
 style="fill:none;stroke:#000000;stroke-width:1px;stroke-linecap:butt;stroke-linejoin:miter;stroke-opacity:1" />
<path
 inkscape:connector-curvature="0"
 id="path4070"
 d="M 344.46201814668,400.56613539809 289.40870439596,410.162584584"
 style="fill:none;stroke:#000000;stroke-width:1px;stroke-linecap:butt;stroke-linejoin:miter;stroke-opacity:1" />
</g>
</svg>
