<?xml version="1.0" encoding="UTF-8" standalone="no"?>
<!-- Created with Inkscape (http://www.inkscape.org/) -->

<svg
   xmlns:osb="http://www.openswatchbook.org/uri/2009/osb"
   xmlns:dc="http://purl.org/dc/elements/1.1/"
   xmlns:cc="http://creativecommons.org/ns#"
   xmlns:rdf="http://www.w3.org/1999/02/22-rdf-syntax-ns#"
   xmlns:svg="http://www.w3.org/2000/svg"
   xmlns="http://www.w3.org/2000/svg"
   xmlns:sodipodi="http://sodipodi.sourceforge.net/DTD/sodipodi-0.dtd"
   xmlns:inkscape="http://www.inkscape.org/namespaces/inkscape"
   width="744.09448819"
   height="1052.3622047"
   id="svg3783"
   version="1.1"
   inkscape:version="0.48.2 r9819"
   sodipodi:docname="circles002.svg">
  <defs
     id="defs3785">
    <marker
       inkscape:stockid="Tail"
       orient="auto"
       refY="0.0"
       refX="0.0"
       id="Tail"
       style="overflow:visible">
      <g
         id="g8475"
         transform="scale(-1.2)">
        <path
           id="path8477"
           d="M -3.8048674,-3.9585227 L 0.54352094,0"
           style="fill:none;fill-rule:evenodd;stroke:#000000;stroke-width:0.8;marker-start:none;marker-end:none;stroke-linecap:round" />
        <path
           id="path8479"
           d="M -1.2866832,-3.9585227 L 3.0617053,0"
           style="fill:none;fill-rule:evenodd;stroke:#000000;stroke-width:0.8;marker-start:none;marker-end:none;stroke-linecap:round" />
        <path
           id="path8481"
           d="M 1.3053582,-3.9585227 L 5.6537466,0"
           style="fill:none;fill-rule:evenodd;stroke:#000000;stroke-width:0.8;marker-start:none;marker-end:none;stroke-linecap:round" />
        <path
           id="path8483"
           d="M -3.8048674,4.1775838 L 0.54352094,0.21974226"
           style="fill:none;fill-rule:evenodd;stroke:#000000;stroke-width:0.8;marker-start:none;marker-end:none;stroke-linecap:round" />
        <path
           id="path8485"
           d="M -1.2866832,4.1775838 L 3.0617053,0.21974226"
           style="fill:none;fill-rule:evenodd;stroke:#000000;stroke-width:0.8;marker-start:none;marker-end:none;stroke-linecap:round" />
        <path
           id="path8487"
           d="M 1.3053582,4.1775838 L 5.6537466,0.21974226"
           style="fill:none;fill-rule:evenodd;stroke:#000000;stroke-width:0.8;marker-start:none;marker-end:none;stroke-linecap:round" />
      </g>
    </marker>
    <linearGradient
       id="linearGradient5695"
       osb:paint="solid">
      <stop
         style="stop-color:#000000;stop-opacity:1;"
         offset="0"
         id="stop5697" />
    </linearGradient>
  </defs>
  <sodipodi:namedview
     id="base"
     pagecolor="#ffffff"
     bordercolor="#666666"
     borderopacity="1.0"
     inkscape:pageopacity="0.0"
     inkscape:pageshadow="2"
     inkscape:zoom="1.4"
     inkscape:cx="229.62794"
     inkscape:cy="735.65891"
     inkscape:document-units="px"
     inkscape:current-layer="layer1"
     showgrid="false"
     inkscape:window-width="1280"
     inkscape:window-height="749"
     inkscape:window-x="-4"
     inkscape:window-y="-4"
     inkscape:window-maximized="1" />
  <metadata
     id="metadata3788">
    <rdf:RDF>
      <cc:Work
         rdf:about="">
        <dc:format>image/svg+xml</dc:format>
        <dc:type
           rdf:resource="http://purl.org/dc/dcmitype/StillImage" />
        <dc:title></dc:title>
      </cc:Work>
    </rdf:RDF>
  </metadata>
  <g
     inkscape:label="Layer 1"
     inkscape:groupmode="layer"
     id="layer1">
    <rect
       style="fill:none;stroke:#000000;stroke-width:0.91452992;stroke-opacity:1"
       id="rect4319"
       width="516.12524"
       height="776.81982"
       x="7.8454075"
       y="12.284647" />
    <flowRoot
       xml:space="preserve"
       id="flowRoot3475"
       style="fill:black;stroke:none;stroke-opacity:1;stroke-width:1px;stroke-linejoin:miter;stroke-linecap:butt;fill-opacity:1;font-family:Sans;font-style:normal;font-weight:normal;font-size:40px;line-height:125%;letter-spacing:0px;word-spacing:0px"><flowRegion
         id="flowRegion3477"><rect
           id="rect3479"
           width="474.7717"
           height="76.771591"
           x="40.406101"
           y="840.23016" /></flowRegion><flowPara
         id="flowPara3481" /></flowRoot>    <path
       sodipodi:type="arc"
       style="fill:none;stroke:#000000;stroke-width:1;stroke-miterlimit:4;stroke-opacity:1;stroke-dasharray:none;stroke-dashoffset:0;marker-mid:none"
       id="path5973-0892-32"
       sodipodi:cx="117.85714"
       sodipodi:cy="178.79076"
       sodipodi:rx="13.571428"
       sodipodi:ry="13.571428"
       d="m 104.86484,174.86855 a 13.571428,13.571428 0 1 1 -0.0224,0.075"
       sodipodi:start="3.4347795"
       sodipodi:end="9.7121958"
       sodipodi:open="true"
       transform="translate(21.28566,35.571424)" />
    <path
       style="fill:none;stroke:#000000;stroke-width:1;stroke-miterlimit:4;stroke-opacity:1;stroke-dasharray:none;stroke-dashoffset:0;marker-mid:none"
       d="m 138.25441,198.82142 c -11.58859,0.0898 -18.99147,14.96269 -12,24.25 6.16587,10.25457 23.29613,8.42158 27.28125,-2.75 4.547,-10.27373 -4.09307,-22.41477 -15.28125,-21.5 z"
       id="path11595"
       inkscape:connector-curvature="0" />
    <path
       style="fill:none;stroke:#000000;stroke-width:1;stroke-miterlimit:4;stroke-opacity:1;stroke-dasharray:none;stroke-dashoffset:0;marker-mid:none"
       d="m 138.125,196.8125 c -13.49406,-0.0461 -21.77865,18.2289 -12.875,28.34375 7.70019,11.15802 27.60233,7.55605 30.75,-5.6875 3.72388,-11.10049 -6.08498,-23.79517 -17.875,-22.65625 z"
       id="path11599"
       inkscape:connector-curvature="0" />
    <path
       style="fill:none;stroke:#000000;stroke-width:1;stroke-miterlimit:4;stroke-opacity:1;stroke-dasharray:none;stroke-dashoffset:0;marker-mid:none"
       d="m 138.5625,194.78125 c -15.88268,-0.55532 -25.32467,21.55392 -14.0625,32.6875 9.61685,11.83511 31.82948,6.06288 33.90625,-9.21875 2.62693,-11.71166 -7.73927,-24.35391 -19.84375,-23.46875 z"
       id="path11603"
       inkscape:connector-curvature="0" />
    <path
       style="fill:none;stroke:#000000;stroke-width:1;stroke-miterlimit:4;stroke-opacity:1;stroke-dasharray:none;stroke-dashoffset:0;marker-mid:none"
       d="m 138.5625,192.78125 c -17.47311,-0.81203 -28.01896,23.94129 -15.53125,36.0625 10.69437,13.26564 35.74697,6.27345 37.46875,-10.8125 2.41988,-12.77892 -8.90704,-26.17642 -21.9375,-25.25 z"
       id="path11607"
       inkscape:connector-curvature="0" />
    <path
       style="fill:none;stroke:#000000;stroke-width:1;stroke-miterlimit:4;stroke-opacity:1;stroke-dasharray:none;stroke-dashoffset:0;marker-mid:none"
       d="m 136.875,190.78125 c -18.55233,0.67748 -28.65294,27.33626 -14.84375,40 12.05167,14.01087 39.30055,5.55532 40.53125,-13.03125 2.33819,-14.43261 -10.96592,-28.785 -25.6875,-26.96875 z"
       id="path11611"
       inkscape:connector-curvature="0" />
    <path
       style="fill:none;stroke:#000000;stroke-width:1;stroke-miterlimit:4;stroke-opacity:1;stroke-dasharray:none;stroke-dashoffset:0;marker-mid:none"
       d="m 138.15625,188.65625 c -20.21081,-0.45777 -32.40157,27.59864 -18.78125,42.28125 11.95445,15.84413 40.94675,8.95382 44.8125,-10.28125 4.0531,-15.92712 -9.51682,-32.93285 -26.03125,-32 z"
       id="path11615"
       inkscape:connector-curvature="0" />
    <path
       style="fill:none;stroke:#000000;stroke-width:1;stroke-miterlimit:4;stroke-opacity:1;stroke-dasharray:none;stroke-dashoffset:0;marker-mid:none"
       d="m 138.15625,186.65625 c -21.81171,-0.64211 -35.10509,29.8874 -20.25,45.625 12.9232,17.26605 45.01268,9.32069 48.4375,-11.96875 3.78277,-16.79564 -10.81456,-34.71511 -28.1875,-33.65625 z"
       id="path11619"
       inkscape:connector-curvature="0" />
    <path
       style="fill:none;stroke:#000000;stroke-width:1;stroke-miterlimit:4;stroke-opacity:1;stroke-dasharray:none;stroke-dashoffset:0;marker-mid:none"
       d="m 138.15625,184.65625 c -23.04911,-0.76316 -37.40141,31.07786 -22.40625,48.21875 13.15563,18.66121 46.75269,11.68058 52.125,-10.15625 5.53044,-18.49156 -10.36464,-39.24201 -29.71875,-38.0625 z"
       id="path11623"
       inkscape:connector-curvature="0" />
    <path
       style="fill:none;stroke:#000000;stroke-width:1;stroke-miterlimit:4;stroke-opacity:1;stroke-dasharray:none;stroke-dashoffset:0;marker-mid:none"
       d="m 139,182.625 c -23.04168,-1.27188 -38.70817,27.55504 -27.96875,47.03125 6.09037,11.85273 20.08227,18.154 33.0625,15.46875 14.42112,-1.94889 26.98472,-14.40165 26.875,-29.34375 C 171.44573,198.53955 156.55075,182.08421 139,182.625 z"
       id="path11627"
       inkscape:connector-curvature="0" />
    <path
       style="fill:none;stroke:#000000;stroke-width:1;stroke-miterlimit:4;stroke-opacity:1;stroke-dasharray:none;stroke-dashoffset:0;marker-mid:none"
       d="m 135.75,180.625 c -23.856,1.55098 -38.41735,32.68541 -25.15625,52.3125 9.63563,15.71772 32.31669,19.01433 47.28125,9.1875 13.34872,-7.82996 18.82215,-25.67236 12.625,-39.65625 -5.50697,-13.81859 -19.67535,-23.38877 -34.75,-21.84375 z"
       id="path11631"
       inkscape:connector-curvature="0" />
    <path
       style="fill:none;stroke:#000000;stroke-width:1;stroke-miterlimit:4;stroke-opacity:1;stroke-dasharray:none;stroke-dashoffset:0;marker-mid:none"
       d="m 137.0625,178.5 c -25.57826,0.47179 -42.16981,33.23938 -28.75,54.5625 10.77073,19.28972 39.86484,21.80214 55.5,7.1875 13.49241,-11.6262 14.82184,-33.74717 3.5,-47.375 -7.01948,-9.26975 -18.52506,-15.05957 -30.25,-14.375 z"
       id="path11635"
       inkscape:connector-curvature="0" />
    <path
       style="fill:none;stroke:#000000;stroke-width:1;stroke-miterlimit:4;stroke-opacity:1;stroke-dasharray:none;stroke-dashoffset:0;marker-mid:none"
       d="m 138.09375,176.46875 c -26.56747,-0.47983 -44.9781,32.61052 -32.6875,55.53125 10.29744,21.94602 42.79052,25.88061 59.75,9.75 15.55208,-13.19509 15.52909,-39.72399 0.75,-53.5625 -7.1587,-7.46807 -17.39095,-12.01352 -27.8125,-11.71875 z"
       id="path11639"
       inkscape:connector-curvature="0" />
    <path
       style="fill:none;stroke:#000000;stroke-width:1;stroke-miterlimit:4;stroke-opacity:1;stroke-dasharray:none;stroke-dashoffset:0;marker-mid:none"
       d="m 135.53125,174.53125 c -27.62419,1.62034 -45.35907,37.05006 -30.8125,60.46875 12.59942,22.56161 48.03721,24.82867 64.625,5.46875 15.22375,-16.32889 11.63264,-45.17415 -6.5625,-57.75 -7.64604,-5.95607 -17.49062,-8.94919 -27.25,-8.1875 z"
       id="path11643"
       inkscape:connector-curvature="0" />
    <path
       style="fill:none;stroke:#000000;stroke-width:1;stroke-miterlimit:4;stroke-opacity:1;stroke-dasharray:none;stroke-dashoffset:0;marker-mid:none"
       d="m 137.3125,172.4375 c -28.89533,0.16569 -48.73167,35.7214 -35.81253,60.96174 10.7879,23.30099 44.32377,29.01473 63.96878,13.50701 16.84373,-12.34755 19.9863,-37.87312 8.8125,-54.96875 -7.84049,-12.12783 -22.39845,-20.05372 -36.96875,-19.5 z"
       id="path11647"
       inkscape:connector-curvature="0" />
    <path
       style="fill:none;stroke:#000000;stroke-width:1;stroke-miterlimit:4;stroke-opacity:1;stroke-dasharray:none;stroke-dashoffset:0;marker-mid:none"
       d="m 137.28125,170.4375 c -30.13117,0.13796 -51.11986,37.1658 -37.70904,63.58193 11.71716,25.98493 50.39668,31.23347 70.27154,11.85557 18.69199,-16.95522 16.86018,-50.4504 -3.4375,-65.5 -8.13522,-6.52531 -18.58877,-10.32628 -29.125,-9.9375 z"
       id="path11651"
       inkscape:connector-curvature="0" />
    <path
       style="fill:none;stroke:#000000;stroke-width:1;stroke-miterlimit:4;stroke-opacity:1;stroke-dasharray:none;stroke-dashoffset:0;marker-mid:none"
       d="m 137.25,168.4375 c -31.51598,0.0972 -53.61833,38.89839 -39.46875,66.5 12.59567,27.90842 55.00497,32.8997 75.21875,10.6875 18.82093,-19.27924 14.49728,-55.29006 -8.65625,-69.25 -7.95478,-5.31299 -17.48245,-8.27562 -27.09375,-7.9375 z"
       id="path11655"
       inkscape:connector-curvature="0" />
    <path
       style="fill:none;stroke:#000000;stroke-width:1;stroke-miterlimit:4;stroke-opacity:1;stroke-dasharray:none;stroke-dashoffset:0;marker-mid:none"
       d="m 137.21875,166.4375 c -32.86989,0.0684 -56.07409,40.50096 -41.25,69.375 13.08451,29.12916 57.60757,34.39573 78.46875,11.1875 20.50594,-20.76841 14.5796,-60.28855 -11.40625,-73.8125 -7.77868,-4.56607 -16.75513,-7.06992 -25.8125,-6.75 z"
       id="path11659"
       inkscape:connector-curvature="0" />
    <path
       style="fill:none;stroke:#000000;stroke-width:1;stroke-miterlimit:4;stroke-opacity:1;stroke-dasharray:none;stroke-dashoffset:0;marker-mid:none"
       d="M 137.1875,164.4375 C 103.5293,164.5004 79.35047,205.22538 93.5,235.25 c 12.33937,30.23531 56.84023,37.47982 79.92646,15.6075 24.08021,-20.86659 18.85006,-64.85867 -9.45771,-79.42 -8.04905,-4.74064 -17.38291,-7.34065 -26.78125,-7 z"
       id="path11663"
       inkscape:connector-curvature="0" />
    <path
       style="fill:none;stroke:#000000;stroke-width:1;stroke-miterlimit:4;stroke-opacity:1;stroke-dasharray:none;stroke-dashoffset:0;marker-mid:none"
       d="m 137.15625,162.4375 c -34.25717,0.10265 -59.2451,40.51896 -46.33699,71.64301 9.58072,26.95187 43.94583,38.10072 69.36354,27.55909 19.34232,-7.47614 31.87249,-27.9818 30.5047,-48.60835 -0.45145,-19.8215 -12.59804,-39.06766 -31.47409,-46.25486 -6.92448,-3.03383 -14.39243,-4.60756 -22.05716,-4.33889 z"
       id="path11667"
       inkscape:connector-curvature="0" />
    <path
       style="fill:none;stroke:#000000;stroke-width:1;stroke-miterlimit:4;stroke-opacity:1;stroke-dasharray:none;stroke-dashoffset:0;marker-mid:none"
       d="m 137.125,160.4375 c -33.25491,0.12942 -58.45796,36.87378 -50.21875,68.25 4.57825,20.47427 23.25293,35.43658 43.6875,38.15625 22.32674,4.0154 47.02552,-7.02576 56.75,-27.875 13.36961,-25.97934 1.4743,-62.04446 -25.59375,-73.3125 -7.72861,-3.50808 -16.08026,-5.55568 -24.625,-5.21875 z"
       id="path11671"
       inkscape:connector-curvature="0" />
    <path
       style="fill:none;stroke:#000000;stroke-width:1;stroke-miterlimit:4;stroke-opacity:1;stroke-dasharray:none;stroke-dashoffset:0;marker-mid:none"
       d="m 137.09375,158.4375 c -35.92867,0.15208 -62.64552,41.20233 -51.0625,74.625 8.36076,26.74192 39.41728,41.40732 66.0625,35.25 21.62302,-4.26232 39.2742,-22.59987 42.1875,-44.5625 4.02333,-26.05765 -11.42321,-54.47225 -37.22388,-62.1151 -6.31623,-2.28216 -13.19152,-3.4514 -19.96362,-3.1974 z"
       id="path11675"
       inkscape:connector-curvature="0" />
    <path
       style="fill:none;stroke:#000000;stroke-width:1;stroke-miterlimit:4;stroke-opacity:1;stroke-dasharray:none;stroke-dashoffset:0;marker-mid:none"
       d="m 137.0625,156.4375 c -37.15849,0.12314 -65.04151,42.66897 -52.9375,77.25 9.30639,29.85826 45.80888,44.99674 74.5625,34.96875 23.86948,-7.52945 40.5018,-32.34382 38.09375,-57.375 -1.44516,-24.23306 -18.84046,-47.25 -42.8125,-52.75 -5.49388,-1.50435 -11.18653,-2.3398 -16.90625,-2.09375 z"
       id="path11679"
       inkscape:connector-curvature="0" />
    <path
       style="fill:none;stroke:#000000;stroke-width:1;stroke-miterlimit:4;stroke-opacity:1;stroke-dasharray:none;stroke-dashoffset:0;marker-mid:none"
       d="m 137.0625,154.4375 c -38.44005,0.0844 -67.44478,44.1077 -54.84375,79.90625 10.4273,33.3241 53.26722,48.706 83.84375,33.5625 23.42987,-10.88209 37.29824,-38.4378 31.875,-63.8125 -4.2359,-24.22093 -24.19306,-45.3046 -48.84375,-48.71875 -3.95577,-0.79674 -7.9901,-1.10763 -12.03125,-0.9375 z"
       id="path11683"
       inkscape:connector-curvature="0" />
    <path
       style="fill:none;stroke:#000000;stroke-width:1;stroke-miterlimit:4;stroke-opacity:1;stroke-dasharray:none;stroke-dashoffset:0;marker-mid:none"
       d="m 137.0625,152.4375 c -33.81806,0.1032 -60.86053,33.07129 -59.79465,65.74984 0.2587,22.80077 15.56151,43.8257 36.49297,52.14889 24.26659,10.86029 55.64618,5.21309 72.73918,-15.67998 15.4342,-17.66932 18.89979,-44.47737 8.8125,-65.625 -9.94344,-22.62411 -33.36636,-37.68077 -58.25,-36.59375 z"
       id="path11687"
       inkscape:connector-curvature="0" />
    <path
       style="fill:none;stroke:#000000;stroke-width:1;stroke-miterlimit:4;stroke-opacity:1;stroke-dasharray:none;stroke-dashoffset:0;marker-mid:none"
       d="m 138.15625,150.40625 c -39.08069,-0.58999 -69.86657,41.19325 -61.67335,78.63571 5.16338,25.41544 28.21267,44.85963 53.7046,48.02054 25.04106,3.96157 52.09372,-7.99322 64.40625,-30.3125 14.11247,-23.79621 9.99031,-56.29452 -9.125,-76.15625 -11.99821,-12.91459 -29.51474,-20.69849 -47.3125,-20.1875 z"
       id="path11691"
       inkscape:connector-curvature="0" />
    <path
       style="fill:none;stroke:#000000;stroke-width:1;stroke-miterlimit:4;stroke-opacity:1;stroke-dasharray:none;stroke-dashoffset:0;marker-mid:none"
       d="m 138.15625,148.40625 c -43.78996,-0.71858 -77.10405,50.07152 -60.87911,90.37805 11.21241,29.24333 45.15843,46.13693 75.48756,39.75329 24.80646,-4.48364 45.77859,-24.43395 50.76655,-49.28759 6.39112,-28.3052 -7.69504,-59.76485 -33.52681,-73.08581 -9.67406,-5.24906 -20.75837,-8.08111 -31.84819,-7.75794 z"
       id="path11695"
       inkscape:connector-curvature="0" />
    <path
       style="fill:none;stroke:#000000;stroke-width:1;stroke-miterlimit:4;stroke-opacity:1;stroke-dasharray:none;stroke-dashoffset:0;marker-mid:none"
       d="m 138.15625,146.40625 c -41.71555,-0.73313 -74.73967,44.3309 -65.53125,84.1875 7.50953,34.92114 46.15662,57.3806 80.53125,49.90625 29.41864,-5.08872 53.00475,-31.92391 53.84375,-61.9375 1.65659,-30.05888 -18.00634,-59.89174 -46.8125,-68.84375 -7.06745,-2.34565 -14.55418,-3.54031 -22.03125,-3.3125 z"
       id="path11699"
       inkscape:connector-curvature="0" />
    <path
       style="fill:none;stroke:#000000;stroke-width:1;stroke-miterlimit:4;stroke-opacity:1;stroke-dasharray:none;stroke-dashoffset:0;marker-mid:none"
       d="M 138.15625,144.40625 C 92.69562,143.62967 57.61577,195.32476 72.5,237.6875 c 11.70829,34.67978 53.43716,54.34184 88.03125,43.125 30.46668,-8.69248 52.09824,-40.54836 48.25,-72.25 -2.68968,-31.09351 -27.49519,-59.0638 -58.73812,-63.37246 -3.91382,-0.63189 -7.90896,-0.91533 -11.88688,-0.78379 z"
       id="path11703"
       inkscape:connector-curvature="0" />
    <path
       style="fill:none;stroke:#000000;stroke-width:1;stroke-miterlimit:4;stroke-opacity:1;stroke-dasharray:none;stroke-dashoffset:0;marker-mid:none"
       d="m 138.15625,142.40625 c -32.60898,-0.67581 -60.7656,25.6876 -68.6875,56.15625 -7.38958,25.46307 2.01685,54.46962 23,70.46875 23.60138,19.57576 60.06215,22.87788 86.06675,5.75125 24.84199,-15.64209 38.23571,-47.59711 30.6333,-76.3164 -7.44445,-32.12716 -37.40724,-57.41224 -71.01255,-56.05985 z"
       id="path11707"
       inkscape:connector-curvature="0" />
    <path
       style="fill:none;stroke:#000000;stroke-width:1;stroke-miterlimit:4;stroke-opacity:1;stroke-dasharray:none;stroke-dashoffset:0;marker-mid:none"
       d="m 139.6875,140.375 c -40.72643,-1.50579 -74.87551,37.00048 -74.71875,76.53125 -0.0582,25.14556 14.74564,49.08077 36.77316,60.90472 27.24043,15.8286 64.82863,13.02404 87.94559,-9.06097 21.07552,-19.2302 29.43973,-51.38873 19.25,-78.28125 -9.95052,-28.7255 -38.23711,-50.75259 -69.25,-50.09375 z"
       id="path11711"
       inkscape:connector-curvature="0" />
    <path
       style="fill:none;stroke:#000000;stroke-width:1;stroke-miterlimit:4;stroke-opacity:1;stroke-dasharray:none;stroke-dashoffset:0;marker-mid:none"
       d="m 133.90625,138.4375 c -45.23162,2.41553 -80.02381,51.74478 -68.875,95.21875 7.30403,30.12326 35.20345,52.61781 65.75,55.65625 27.65046,3.64964 56.85309,-9.12233 71.78125,-32.625 15.5645,-22.97701 16.9932,-54.81191 2.875,-78.875 -13.91162,-25.31182 -42.24514,-41.94269 -71.53125,-39.375 z"
       id="path11715"
       inkscape:connector-curvature="0" />
    <path
       style="fill:none;stroke:#000000;stroke-width:1;stroke-miterlimit:4;stroke-opacity:1;stroke-dasharray:none;stroke-dashoffset:0;marker-mid:none"
       d="m 136.5625,136.25 c -46.77883,0.7524 -84.07848,50.50437 -74,95.78125 7.22034,34.52608 40.80779,59.67135 75.65597,59.86755 30.02119,1.10187 59.8368,-16.96011 71.87528,-44.55505 12.42672,-26.26844 8.2002,-59.42083 -10.40313,-81.68936 C 184.73579,146.8683 160.82702,135.04175 136.5625,136.25 z"
       id="path11719"
       inkscape:connector-curvature="0" />
    <path
       style="fill:none;stroke:#000000;stroke-width:1;stroke-miterlimit:4;stroke-opacity:1;stroke-dasharray:none;stroke-dashoffset:0;marker-mid:none"
       d="m 138.84375,134.1875 c -46.95922,-0.72233 -85.71894,46.94629 -79.26145,92.64978 4.85404,38.72566 42.57432,68.20783 81.0427,67.10022 33.9621,0.33621 66.21406,-23.57712 75.28125,-56.15625 9.1764,-29.9213 -1.22325,-64.36789 -25.0625,-84.1875 -14.33837,-12.31352 -32.94945,-19.75177 -52,-19.40625 z"
       id="path11723"
       inkscape:connector-curvature="0" />
    <path
       style="fill:none;stroke:#000000;stroke-width:1;stroke-miterlimit:4;stroke-opacity:1;stroke-dasharray:none;stroke-dashoffset:0;marker-mid:none"
       d="m 135.5,132.21875 c -47.57769,1.53473 -85.9796,51.15544 -77.46904,97.73776 6.7712,40.66606 48.55264,69.98942 89.09404,65.76224 35.9575,-2.57577 68.07875,-31.78058 73.0625,-67.59375 5.79654,-34.21647 -12.23711,-70.47186 -43,-86.34375 -12.70163,-6.88953 -27.17656,-10.2777 -41.6875,-9.5625 z"
       id="path11727"
       inkscape:connector-curvature="0" />
    <path
       style="fill:none;stroke:#000000;stroke-width:1;stroke-miterlimit:4;stroke-opacity:1;stroke-dasharray:none;stroke-dashoffset:0;marker-mid:none"
       d="m 136.84375,130.15625 c -49.72904,0.68945 -90.1978,52.6631 -80.60092,101.17111 7.79932,43.35671 54.38542,73.40239 97.21472,65.67964 37.25017,-5.59823 68.25173,-38.9792 69.66745,-76.85075 2.46965,-36.7771 -21.41373,-73.33425 -56.375,-85.25 -9.54088,-3.39823 -19.73771,-5.06122 -29.90625,-4.75 z"
       id="path11731"
       inkscape:connector-curvature="0" />
    <path
       inkscape:connector-curvature="0"
       id="path11735"
       d="m 136.84375,130.15625 c -49.72904,0.68945 -90.1978,52.6631 -80.60092,101.17111 7.79932,43.35671 54.38542,73.40239 97.21472,65.67964 37.25017,-5.59823 68.25173,-38.9792 69.66745,-76.85075 2.46965,-36.7771 -21.41373,-73.33425 -56.375,-85.25 -9.54088,-3.39823 -19.73771,-5.06122 -29.90625,-4.75 z"
       style="fill:none;stroke:#000000;stroke-width:1;stroke-miterlimit:4;stroke-opacity:1;stroke-dasharray:none;stroke-dashoffset:0;marker-mid:none" />
    <path
       style="fill:none;stroke:#000000;stroke-width:1;stroke-miterlimit:4;stroke-opacity:1;stroke-dasharray:none;stroke-dashoffset:0;marker-mid:none"
       d="m 136.75,126.15625 c -46.69195,0.71264 -85.68395,44.26894 -85.9375,90.0625 -0.60856,30.48342 17.78075,59.26399 44.17893,73.78055 27.14572,16.1668 63.08798,16.40968 89.95684,-0.29997 29.51494,-17.6379 47.47642,-53.43118 41.39548,-87.66808 -5.75166,-39.84273 -40.82416,-73.9238 -81.59121,-75.7275 -2.66078,-0.23151 -5.335,-0.20966 -8.00254,-0.1475 z"
       id="path11737"
       inkscape:connector-curvature="0" />
    <path
       style="fill:none;stroke:#000000;stroke-width:1;stroke-miterlimit:4;stroke-opacity:1;stroke-dasharray:none;stroke-dashoffset:0;marker-mid:none"
       d="m 136.71875,124.15625 c -51.08978,0.78711 -93.065,51.55288 -87.48332,101.80638 4.17319,40.11109 39.50666,72.69339 78.82707,77.41237 32.99268,4.93077 67.60153,-10.81074 85.88069,-38.5104 16.70773,-23.77775 20.1572,-55.7576 9.15991,-82.6391 -13.51786,-34.50096 -48.68509,-59.95062 -86.38435,-58.06925 z"
       id="path11743"
       inkscape:connector-curvature="0" />
    <path
       style="fill:none;stroke:#000000;stroke-width:1;stroke-miterlimit:4;stroke-opacity:1;stroke-dasharray:none;stroke-dashoffset:0;marker-mid:none"
       d="m 138.4375,122.09375 c -50.3523,-0.22903 -92.95729,47.25053 -91.6875,96.8125 0.52735,44.37853 39.31585,82.36058 82.625,86.6875 39.09984,5.21306 78.91911,-18.12879 94.40625,-54.09375 14.10187,-31.01129 8.17821,-69.45347 -13.67143,-95.20572 -17.1866,-21.13917 -44.00725,-35.03765 -71.67232,-34.20053 z"
       id="path11747"
       inkscape:connector-curvature="0" />
    <path
       style="fill:none;stroke:#000000;stroke-width:1;stroke-miterlimit:4;stroke-opacity:1;stroke-dasharray:none;stroke-dashoffset:0;marker-mid:none"
       d="M 138.4375,120.09375 C 86.07075,119.7799 41.56958,170.40281 44.85723,222.0615 47.22149,267.49628 88.2094,305.28022 132.90625,308 c 43.11511,4.01278 85.98511,-26.22911 97.15625,-67.875 9.96398,-34.71238 -2.53961,-73.97649 -30.01314,-97.08767 -16.81143,-14.58864 -39.03062,-23.65209 -61.61186,-22.94358 z"
       id="path11751"
       inkscape:connector-curvature="0" />
    <path
       style="fill:none;stroke:#000000;stroke-width:1;stroke-miterlimit:4;stroke-opacity:1;stroke-dasharray:none;stroke-dashoffset:0;marker-mid:none"
       d="m 138.4375,118.09375 c -51.41772,-0.24527 -95.45079,47.37435 -95.75,97.875 -0.93817,42.1595 31.49953,79.95526 71.15625,90.8125 30.01266,8.72772 63.6705,1.21427 87.28125,-18.9375 27.34264,-21.85059 40.30896,-59.83439 31.83764,-93.94314 -9.19949,-42.90466 -50.14337,-77.02765 -94.52514,-75.80686 z"
       id="path11755"
       inkscape:connector-curvature="0" />
    <path
       style="fill:none;stroke:#000000;stroke-width:1;stroke-miterlimit:4;stroke-opacity:1;stroke-dasharray:none;stroke-dashoffset:0;marker-mid:none"
       d="m 138.4375,116.09375 c -52.01501,-0.1853 -96.78484,47.40734 -97.75,98.65625 -1.65256,46.81123 37.0374,88.76268 82.32896,96.20259 43.10738,8.00647 89.23252,-16.77776 106.32729,-57.04634 16.08741,-35.18154 7.56801,-79.33326 -19.25407,-106.78481 -18.29723,-19.46993 -44.62485,-31.80326 -71.65218,-31.02769 z"
       id="path11759"
       inkscape:connector-curvature="0" />
    <path
       inkscape:connector-curvature="0"
       id="path11763"
       d="m 138.4375,116.09375 c -52.01501,-0.1853 -96.78484,47.40734 -97.75,98.65625 -1.65256,46.81123 37.0374,88.76268 82.32896,96.20259 43.10738,8.00647 89.23252,-16.77776 106.32729,-57.04634 16.08741,-35.18154 7.56801,-79.33326 -19.25407,-106.78481 -18.29723,-19.46993 -44.62485,-31.80326 -71.65218,-31.02769 z"
       style="fill:none;stroke:#000000;stroke-width:1;stroke-miterlimit:4;stroke-opacity:1;stroke-dasharray:none;stroke-dashoffset:0;marker-mid:none" />
    <path
       sodipodi:type="arc"
       style="fill:none;stroke:#000000;stroke-width:1;stroke-miterlimit:4;stroke-opacity:1;stroke-dasharray:none;stroke-dashoffset:0;marker-mid:none"
       id="path5973-0892-32-6"
       sodipodi:cx="117.85714"
       sodipodi:cy="178.79076"
       sodipodi:rx="13.571428"
       sodipodi:ry="13.571428"
       d="m 104.86484,174.86855 a 13.571428,13.571428 0 1 1 -0.0224,0.075"
       sodipodi:start="3.4347795"
       sodipodi:end="9.7121958"
       sodipodi:open="true"
       transform="translate(249.94809,42.249496)" />
    <path
       style="fill:none;stroke:#000000;stroke-width:1;stroke-miterlimit:4;stroke-opacity:1;stroke-dasharray:none;stroke-dashoffset:0;marker-mid:none"
       d="m 366.91684,205.4995 c -11.58859,0.0898 -18.99147,14.96269 -12,24.25 6.16587,10.25457 23.29612,8.42158 27.28124,-2.75 4.547,-10.27373 -4.09307,-22.41477 -15.28124,-21.5 z"
       id="path11595-5"
       inkscape:connector-curvature="0" />
    <path
       style="fill:none;stroke:#000000;stroke-width:1;stroke-miterlimit:4;stroke-opacity:1;stroke-dasharray:none;stroke-dashoffset:0;marker-mid:none"
       d="m 366.78743,203.49058 c -13.49406,-0.0461 -21.77865,18.2289 -12.875,28.34375 7.70019,11.15802 27.60232,7.55605 30.74999,-5.6875 3.72388,-11.10049 -6.08498,-23.79517 -17.87499,-22.65625 z"
       id="path11599-8"
       inkscape:connector-curvature="0" />
    <path
       style="fill:none;stroke:#000000;stroke-width:1;stroke-miterlimit:4;stroke-opacity:1;stroke-dasharray:none;stroke-dashoffset:0;marker-mid:none"
       d="m 367.22493,201.45933 c -15.88268,-0.55532 -25.32467,21.55392 -14.0625,32.6875 9.61685,11.83511 31.82947,6.06288 33.90624,-9.21875 2.62693,-11.71166 -7.73927,-24.35391 -19.84374,-23.46875 z"
       id="path11603-4"
       inkscape:connector-curvature="0" />
    <path
       style="fill:none;stroke:#000000;stroke-width:1;stroke-miterlimit:4;stroke-opacity:1;stroke-dasharray:none;stroke-dashoffset:0;marker-mid:none"
       d="m 367.22493,199.45933 c -17.47311,-0.81203 -28.01896,23.94129 -15.53125,36.0625 10.69437,13.26564 35.74696,6.27345 37.46874,-10.8125 2.41988,-12.77892 -8.90704,-26.17642 -21.93749,-25.25 z"
       id="path11607-0"
       inkscape:connector-curvature="0" />
    <path
       style="fill:none;stroke:#000000;stroke-width:1;stroke-miterlimit:4;stroke-opacity:1;stroke-dasharray:none;stroke-dashoffset:0;marker-mid:none"
       d="m 365.53743,197.45933 c -18.55233,0.67748 -28.65294,27.33626 -14.84375,40 12.05167,14.01087 39.30054,5.55532 40.53124,-13.03125 2.33819,-14.43261 -10.96592,-28.785 -25.68749,-26.96875 z"
       id="path11611-3"
       inkscape:connector-curvature="0" />
    <path
       style="fill:none;stroke:#000000;stroke-width:1;stroke-miterlimit:4;stroke-opacity:1;stroke-dasharray:none;stroke-dashoffset:0;marker-mid:none"
       d="m 366.81868,195.33433 c -20.21081,-0.45777 -32.40157,27.59864 -18.78125,42.28125 11.95445,15.84413 40.94674,8.95382 44.81249,-10.28125 4.0531,-15.92712 -9.51682,-32.93285 -26.03124,-32 z"
       id="path11615-7"
       inkscape:connector-curvature="0" />
    <path
       style="fill:none;stroke:#000000;stroke-width:1;stroke-miterlimit:4;stroke-opacity:1;stroke-dasharray:none;stroke-dashoffset:0;marker-mid:none"
       d="m 366.81868,193.33433 c -21.81171,-0.64211 -35.10509,29.8874 -20.25,45.625 12.9232,17.26605 45.01267,9.32069 48.43749,-11.96875 3.78277,-16.79564 -10.81456,-34.71511 -28.18749,-33.65625 z"
       id="path11619-8"
       inkscape:connector-curvature="0" />
    <path
       style="fill:none;stroke:#000000;stroke-width:1;stroke-miterlimit:4;stroke-opacity:1;stroke-dasharray:none;stroke-dashoffset:0;marker-mid:none"
       d="m 366.81868,191.33433 c -23.04911,-0.76316 -37.40141,31.07786 -22.40625,48.21875 13.15563,18.66121 46.75268,11.68058 52.12499,-10.15625 5.53044,-18.49156 -10.36464,-39.24201 -29.71874,-38.0625 z"
       id="path11623-3"
       inkscape:connector-curvature="0" />
    <path
       style="fill:none;stroke:#000000;stroke-width:1;stroke-miterlimit:4;stroke-opacity:1;stroke-dasharray:none;stroke-dashoffset:0;marker-mid:none"
       d="m 367.66243,189.30308 c -23.04168,-1.27188 -38.70817,27.55504 -27.96875,47.03125 6.09037,11.85273 20.08227,18.154 33.06249,15.46875 14.42112,-1.94889 26.98472,-14.40165 26.875,-29.34375 0.47698,-17.2417 -14.418,-33.69704 -31.96874,-33.15625 z"
       id="path11627-1"
       inkscape:connector-curvature="0" />
    <path
       style="fill:none;stroke:#000000;stroke-width:1;stroke-miterlimit:4;stroke-opacity:1;stroke-dasharray:none;stroke-dashoffset:0;marker-mid:none"
       d="m 364.41243,187.30308 c -23.856,1.55098 -38.41735,32.68541 -25.15625,52.3125 9.63563,15.71772 32.31668,19.01433 47.28124,9.1875 13.34872,-7.82996 18.82215,-25.67236 12.625,-39.65625 -5.50697,-13.81859 -19.67535,-23.38877 -34.74999,-21.84375 z"
       id="path11631-1"
       inkscape:connector-curvature="0" />
    <path
       style="fill:none;stroke:#000000;stroke-width:1;stroke-miterlimit:4;stroke-opacity:1;stroke-dasharray:none;stroke-dashoffset:0;marker-mid:none"
       d="m 365.72493,185.17808 c -25.57826,0.47179 -42.16981,33.23938 -28.75,54.5625 10.77073,19.28972 39.86483,21.80214 55.49999,7.1875 13.49241,-11.6262 14.82184,-33.74717 3.5,-47.375 -7.01948,-9.26975 -18.52506,-15.05957 -30.24999,-14.375 z"
       id="path11635-2"
       inkscape:connector-curvature="0" />
    <path
       style="fill:none;stroke:#000000;stroke-width:1;stroke-miterlimit:4;stroke-opacity:1;stroke-dasharray:none;stroke-dashoffset:0;marker-mid:none"
       d="m 366.75618,183.14683 c -26.56747,-0.47983 -44.9781,32.61052 -32.6875,55.53125 10.29744,21.94602 42.79051,25.88061 59.74999,9.75 15.55208,-13.19509 15.52909,-39.72399 0.75,-53.5625 -7.1587,-7.46807 -17.39095,-12.01352 -27.81249,-11.71875 z"
       id="path11639-5"
       inkscape:connector-curvature="0" />
    <path
       style="fill:none;stroke:#000000;stroke-width:1;stroke-miterlimit:4;stroke-opacity:1;stroke-dasharray:none;stroke-dashoffset:0;marker-mid:none"
       d="m 364.19368,181.20933 c -27.62419,1.62034 -45.35907,37.05006 -30.8125,60.46875 12.59942,22.56161 48.0372,24.82867 64.62499,5.46875 15.22375,-16.32889 11.63264,-45.17415 -6.5625,-57.75 -7.64604,-5.95607 -17.49062,-8.94919 -27.24999,-8.1875 z"
       id="path11643-7"
       inkscape:connector-curvature="0" />
    <path
       style="fill:none;stroke:#000000;stroke-width:1;stroke-miterlimit:4;stroke-opacity:1;stroke-dasharray:none;stroke-dashoffset:0;marker-mid:none"
       d="m 365.97493,179.11558 c -28.89533,0.16569 -48.73167,35.7214 -35.81253,60.96174 10.7879,23.30099 44.32376,29.01473 63.96877,13.50701 16.84373,-12.34755 19.9863,-37.87312 8.8125,-54.96875 -7.84049,-12.12783 -22.39845,-20.05372 -36.96874,-19.5 z"
       id="path11647-6"
       inkscape:connector-curvature="0" />
    <path
       style="fill:none;stroke:#000000;stroke-width:1;stroke-miterlimit:4;stroke-opacity:1;stroke-dasharray:none;stroke-dashoffset:0;marker-mid:none"
       d="m 365.94368,177.11558 c -30.13117,0.13796 -51.11986,37.1658 -37.70904,63.58193 11.71716,25.98493 50.39667,31.23347 70.27153,11.85557 18.69199,-16.95522 16.86018,-50.4504 -3.4375,-65.5 -8.13522,-6.52531 -18.58877,-10.32628 -29.12499,-9.9375 z"
       id="path11651-2"
       inkscape:connector-curvature="0" />
    <path
       style="fill:none;stroke:#000000;stroke-width:1;stroke-miterlimit:4;stroke-opacity:1;stroke-dasharray:none;stroke-dashoffset:0;marker-mid:none"
       d="m 365.91243,175.11558 c -31.51598,0.0972 -53.61833,38.89839 -39.46875,66.5 12.59567,27.90842 55.00496,32.8997 75.21874,10.6875 18.82093,-19.27924 14.49728,-55.29006 -8.65625,-69.25 -7.95478,-5.31299 -17.48245,-8.27562 -27.09374,-7.9375 z"
       id="path11655-1"
       inkscape:connector-curvature="0" />
    <path
       style="fill:none;stroke:#000000;stroke-width:1;stroke-miterlimit:4;stroke-opacity:1;stroke-dasharray:none;stroke-dashoffset:0;marker-mid:none"
       d="m 365.88118,173.11558 c -32.86989,0.0684 -56.07409,40.50096 -41.25,69.375 13.08451,29.12916 57.60756,34.39573 78.46874,11.1875 20.50594,-20.76841 14.5796,-60.28855 -11.40625,-73.8125 -7.77868,-4.56607 -16.75513,-7.06992 -25.81249,-6.75 z"
       id="path11659-6"
       inkscape:connector-curvature="0" />
    <path
       style="fill:none;stroke:#000000;stroke-width:1;stroke-miterlimit:4;stroke-opacity:1;stroke-dasharray:none;stroke-dashoffset:0;marker-mid:none"
       d="m 365.81868,169.11558 c -34.25717,0.10265 -59.2451,40.51896 -46.33699,71.64301 9.58072,26.95187 43.94583,38.10072 69.36353,27.55909 19.34232,-7.47614 31.87249,-27.9818 30.5047,-48.60835 -0.45145,-19.8215 -12.59804,-39.06766 -31.47409,-46.25486 -6.92448,-3.03383 -14.39243,-4.60756 -22.05715,-4.33889 z"
       id="path11667-1"
       inkscape:connector-curvature="0" />
    <path
       style="fill:none;stroke:#000000;stroke-width:1;stroke-miterlimit:4;stroke-opacity:1;stroke-dasharray:none;stroke-dashoffset:0;marker-mid:none"
       d="m 365.78743,167.11558 c -33.25491,0.12942 -58.45796,36.87378 -50.21875,68.25 4.57825,20.47427 23.25293,35.43658 43.6875,38.15625 22.32673,4.0154 47.02551,-7.02576 56.74999,-27.875 13.36961,-25.97934 1.4743,-62.04446 -25.59375,-73.3125 -7.72861,-3.50808 -16.08026,-5.55568 -24.62499,-5.21875 z"
       id="path11671-5"
       inkscape:connector-curvature="0" />
    <path
       style="fill:none;stroke:#000000;stroke-width:1;stroke-miterlimit:4;stroke-opacity:1;stroke-dasharray:none;stroke-dashoffset:0;marker-mid:none"
       d="m 365.75618,165.11558 c -35.92867,0.15208 -62.64552,41.20233 -51.0625,74.625 8.36076,26.74192 39.41728,41.40732 66.06249,35.25 21.62302,-4.26232 39.2742,-22.59987 42.1875,-44.5625 4.02333,-26.05765 -11.42321,-54.47225 -37.22388,-62.1151 -6.31623,-2.28216 -13.19152,-3.4514 -19.96361,-3.1974 z"
       id="path11675-7"
       inkscape:connector-curvature="0" />
    <path
       style="fill:none;stroke:#000000;stroke-width:1;stroke-miterlimit:4;stroke-opacity:1;stroke-dasharray:none;stroke-dashoffset:0;marker-mid:none"
       d="m 365.72493,163.11558 c -37.15849,0.12314 -65.04151,42.66897 -52.9375,77.25 9.30639,29.85826 45.80888,44.99674 74.56249,34.96875 23.86948,-7.52945 40.5018,-32.34382 38.09375,-57.375 -1.44516,-24.23306 -18.84046,-47.25 -42.8125,-52.75 -5.49388,-1.50435 -11.18653,-2.3398 -16.90624,-2.09375 z"
       id="path11679-4"
       inkscape:connector-curvature="0" />
    <path
       style="fill:none;stroke:#000000;stroke-width:1;stroke-miterlimit:4;stroke-opacity:1;stroke-dasharray:none;stroke-dashoffset:0;marker-mid:none"
       d="m 365.72493,159.11558 c -33.81806,0.1032 -60.86053,33.07129 -59.79465,65.74984 0.2587,22.80077 15.56151,43.8257 36.49297,52.14889 24.26659,10.86029 55.64617,5.21309 72.73917,-15.67998 15.4342,-17.66932 18.89979,-44.47737 8.8125,-65.625 -9.94344,-22.62411 -33.36636,-37.68077 -58.24999,-36.59375 z"
       id="path11687-5"
       inkscape:connector-curvature="0" />
    <path
       style="fill:none;stroke:#000000;stroke-width:1;stroke-miterlimit:4;stroke-opacity:1;stroke-dasharray:none;stroke-dashoffset:0;marker-mid:none"
       d="m 366.81868,157.08433 c -39.08069,-0.58999 -69.86657,41.19325 -61.67335,78.63571 5.16338,25.41544 28.21267,44.85963 53.7046,48.02054 25.04105,3.96157 52.09371,-7.99322 64.40624,-30.3125 14.11247,-23.79621 9.99031,-56.29452 -9.125,-76.15625 -11.99821,-12.91459 -29.51474,-20.69849 -47.31249,-20.1875 z"
       id="path11691-6"
       inkscape:connector-curvature="0" />
    <path
       style="fill:none;stroke:#000000;stroke-width:1;stroke-miterlimit:4;stroke-opacity:1;stroke-dasharray:none;stroke-dashoffset:0;marker-mid:none"
       d="m 366.81868,153.08433 c -41.71555,-0.73313 -74.73967,44.3309 -65.53125,84.1875 7.50953,34.92114 46.15662,57.3806 80.53124,49.90625 29.41864,-5.08872 53.00475,-31.92391 53.84375,-61.9375 1.65659,-30.05888 -18.00634,-59.89174 -46.8125,-68.84375 -7.06745,-2.34565 -14.55418,-3.54031 -22.03124,-3.3125 z"
       id="path11699-9"
       inkscape:connector-curvature="0" />
    <path
       style="fill:none;stroke:#000000;stroke-width:1;stroke-miterlimit:4;stroke-opacity:1;stroke-dasharray:none;stroke-dashoffset:0;marker-mid:none"
       d="m 362.56868,145.11558 c -45.23162,2.41553 -80.02381,51.74478 -68.875,95.21875 7.30403,30.12326 35.20345,52.61781 65.75,55.65625 27.65045,3.64964 56.85308,-9.12233 71.78124,-32.625 15.5645,-22.97701 16.9932,-54.81191 2.875,-78.875 -13.91162,-25.31182 -42.24514,-41.94269 -71.53124,-39.375 z"
       id="path11715-2"
       inkscape:connector-curvature="0" />
    <path
       style="fill:none;stroke:#000000;stroke-width:1;stroke-miterlimit:4;stroke-opacity:1;stroke-dasharray:none;stroke-dashoffset:0;marker-mid:none"
       d="m 365.22493,142.92808 c -46.77883,0.7524 -84.07848,50.50437 -74,95.78125 7.22034,34.52608 40.80779,59.67135 75.65597,59.86755 30.02118,1.10187 59.83679,-16.96011 71.87527,-44.55505 12.42672,-26.26844 8.2002,-59.42083 -10.40313,-81.68936 -14.95483,-18.78609 -38.8636,-30.61264 -63.12811,-29.40439 z"
       id="path11719-5"
       inkscape:connector-curvature="0" />
    <path
       style="fill:none;stroke:#000000;stroke-width:1;stroke-miterlimit:4;stroke-opacity:1;stroke-dasharray:none;stroke-dashoffset:0;marker-mid:none"
       d="m 367.50618,140.86558 c -46.95922,-0.72233 -85.71894,46.94629 -79.26145,92.64978 4.85404,38.72566 42.57432,68.20783 81.04269,67.10022 33.9621,0.33621 66.21406,-23.57712 75.28125,-56.15625 9.1764,-29.9213 -1.22325,-64.36789 -25.0625,-84.1875 -14.33837,-12.31352 -32.94945,-19.75177 -51.99999,-19.40625 z"
       id="path11723-3"
       inkscape:connector-curvature="0" />
    <path
       style="fill:none;stroke:#000000;stroke-width:1;stroke-miterlimit:4;stroke-opacity:1;stroke-dasharray:none;stroke-dashoffset:0;marker-mid:none"
       d="m 364.16243,138.89683 c -47.57769,1.53473 -85.9796,51.15544 -77.46904,97.73776 6.7712,40.66606 48.55264,69.98942 89.09403,65.76224 35.9575,-2.57577 68.07875,-31.78058 73.0625,-67.59375 5.79654,-34.21647 -12.23711,-70.47186 -43,-86.34375 -12.70163,-6.88953 -27.17656,-10.2777 -41.68749,-9.5625 z"
       id="path11727-8"
       inkscape:connector-curvature="0" />
    <path
       style="fill:none;stroke:#000000;stroke-width:1;stroke-miterlimit:4;stroke-opacity:1;stroke-dasharray:none;stroke-dashoffset:0;marker-mid:none"
       d="m 365.50618,136.83433 c -49.72904,0.68945 -90.1978,52.6631 -80.60092,101.17111 7.79932,43.35671 54.38542,73.40239 97.21471,65.67964 37.25017,-5.59823 68.25173,-38.9792 69.66745,-76.85075 2.46965,-36.7771 -21.41373,-73.33425 -56.375,-85.25 -9.54088,-3.39823 -19.73771,-5.06122 -29.90624,-4.75 z"
       id="path11731-3"
       inkscape:connector-curvature="0" />
    <path
       style="fill:none;stroke:#000000;stroke-width:1;stroke-miterlimit:4;stroke-opacity:1;stroke-dasharray:none;stroke-dashoffset:0;marker-mid:none"
       d="m 365.41243,132.83433 c -46.69195,0.71264 -85.68395,44.26894 -85.9375,90.0625 -0.60856,30.48342 17.78075,59.26399 44.17893,73.78055 27.14572,16.1668 63.08797,16.40968 89.95683,-0.29997 29.51494,-17.6379 47.47642,-53.43118 41.39548,-87.66808 -5.75166,-39.84273 -40.82416,-73.9238 -81.59121,-75.7275 -2.66078,-0.23151 -5.33499,-0.20966 -8.00253,-0.1475 z"
       id="path11737-7"
       inkscape:connector-curvature="0" />
    <path
       style="fill:none;stroke:#000000;stroke-width:1;stroke-miterlimit:4;stroke-opacity:1;stroke-dasharray:none;stroke-dashoffset:0;marker-mid:none"
       d="m 365.38118,130.83433 c -51.08978,0.78711 -93.065,51.55288 -87.48332,101.80638 4.17319,40.11109 39.50666,72.69339 78.82707,77.41237 32.99267,4.93077 67.60152,-10.81074 85.88068,-38.5104 16.70773,-23.77775 20.1572,-55.7576 9.15991,-82.6391 -13.51786,-34.50096 -48.68509,-59.95062 -86.38434,-58.06925 z"
       id="path11743-0"
       inkscape:connector-curvature="0" />
    <path
       style="fill:none;stroke:#000000;stroke-width:1;stroke-miterlimit:4;stroke-opacity:1;stroke-dasharray:none;stroke-dashoffset:0;marker-mid:none"
       d="m 367.09993,128.77183 c -50.3523,-0.22903 -92.95729,47.25053 -91.6875,96.8125 0.52735,44.37853 39.31585,82.36058 82.625,86.6875 39.09983,5.21306 78.9191,-18.12879 94.40624,-54.09375 14.10187,-31.01129 8.17821,-69.45347 -13.67143,-95.20572 -17.1866,-21.13917 -44.00725,-35.03765 -71.67231,-34.20053 z"
       id="path11747-6"
       inkscape:connector-curvature="0" />
    <path
       style="fill:none;stroke:#000000;stroke-width:1;stroke-miterlimit:4;stroke-opacity:1;stroke-dasharray:none;stroke-dashoffset:0;marker-mid:none"
       d="m 367.09993,124.77183 c -51.41772,-0.24527 -95.45079,47.37435 -95.75,97.875 -0.93817,42.1595 31.49953,79.95526 71.15625,90.8125 30.01265,8.72772 63.67049,1.21427 87.28124,-18.9375 27.34264,-21.85059 40.30896,-59.83439 31.83764,-93.94314 -9.19949,-42.90466 -50.14337,-77.02765 -94.52513,-75.80686 z"
       id="path11755-0"
       inkscape:connector-curvature="0" />
    <path
       style="fill:none;stroke:#000000;stroke-width:1;stroke-miterlimit:4;stroke-opacity:1;stroke-dasharray:none;stroke-dashoffset:0;marker-mid:none"
       d="m 367.09993,122.77183 c -52.01501,-0.1853 -96.78484,47.40734 -97.75,98.65625 -1.65256,46.81123 37.0374,88.76268 82.32896,96.20259 43.10737,8.00647 89.23251,-16.77776 106.32728,-57.04634 16.08741,-35.18154 7.56801,-79.33326 -19.25407,-106.78481 -18.29723,-19.46993 -44.62485,-31.80326 -71.65217,-31.02769 z"
       id="path11759-1"
       inkscape:connector-curvature="0" />
  </g>
</svg>
