<?xml version="1.0" encoding="UTF-8" standalone="no"?>
<!-- Created with Inkscape (http://www.inkscape.org/) -->

<svg
   xmlns:dc="http://purl.org/dc/elements/1.1/"
   xmlns:cc="http://creativecommons.org/ns#"
   xmlns:rdf="http://www.w3.org/1999/02/22-rdf-syntax-ns#"
   xmlns:svg="http://www.w3.org/2000/svg"
   xmlns="http://www.w3.org/2000/svg"
   xmlns:sodipodi="http://sodipodi.sourceforge.net/DTD/sodipodi-0.dtd"
   xmlns:inkscape="http://www.inkscape.org/namespaces/inkscape"
   width="744.09448819"
   height="1052.3622047"
   id="svg3783"
   version="1.1"
   inkscape:version="0.48.2 r9819"
   sodipodi:docname="cricles005.svg">
  <defs
     id="defs3785" />
  <sodipodi:namedview
     id="base"
     pagecolor="#ffffff"
     bordercolor="#666666"
     borderopacity="1.0"
     inkscape:pageopacity="0.0"
     inkscape:pageshadow="2"
     inkscape:zoom="0.7"
     inkscape:cx="-134.49234"
     inkscape:cy="687.9836"
     inkscape:document-units="px"
     inkscape:current-layer="layer1"
     showgrid="false"
     inkscape:window-width="475"
     inkscape:window-height="458"
     inkscape:window-x="154"
     inkscape:window-y="154"
     inkscape:window-maximized="0" />
  <metadata
     id="metadata3788">
    <rdf:RDF>
      <cc:Work
         rdf:about="">
        <dc:format>image/svg+xml</dc:format>
        <dc:type
           rdf:resource="http://purl.org/dc/dcmitype/StillImage" />
        <dc:title></dc:title>
      </cc:Work>
    </rdf:RDF>
  </metadata>
  <g
     inkscape:label="Layer 1"
     inkscape:groupmode="layer"
     id="layer1">
    <rect
       style="fill:none;stroke:#000000;stroke-width:0.91452992;stroke-opacity:1"
       id="rect4319"
       width="516.12524"
       height="776.81982"
       x="7.8454075"
       y="12.284647" />
    <flowRoot
       xml:space="preserve"
       id="flowRoot3475"
       style="fill:black;stroke:none;stroke-opacity:1;stroke-width:1px;stroke-linejoin:miter;stroke-linecap:butt;fill-opacity:1;font-family:Sans;font-style:normal;font-weight:normal;font-size:40px;line-height:125%;letter-spacing:0px;word-spacing:0px"><flowRegion
         id="flowRegion3477"><rect
           id="rect3479"
           width="474.7717"
           height="76.771591"
           x="40.406101"
           y="840.23016" /></flowRegion><flowPara
         id="flowPara3481" /></flowRoot>    <path
       sodipodi:type="arc"
       style="fill:none;stroke:#000000;stroke-opacity:1"
       id="path5362"
       sodipodi:cx="213.14218"
       sodipodi:cy="288.68686"
       sodipodi:rx="13.131983"
       sodipodi:ry="13.131983"
       d="m 200.57057,284.89166 a 13.131983,13.131983 0 1 1 -0.0217,0.0726"
       sodipodi:start="3.4347795"
       sodipodi:end="9.7121958"
       sodipodi:open="true"
       transform="translate(72.548237,-4.0406102)" />
    <path
       style="fill:none;stroke:#000000;stroke-opacity:1"
       d="m 284.11074,269.58439 c -11.30492,0.6631 -17.71054,15.39013 -10.53125,24.125 6.54046,9.67659 23.03497,7.07114 26.375,-4 3.92375,-10.14297 -5.09939,-21.5489 -15.84375,-20.125 z"
       id="path5384"
       inkscape:connector-curvature="0" />
    <path
       style="fill:none;stroke:#000000;stroke-opacity:1"
       d="m 285,267.5 c -13.41545,-0.26069 -21.67284,17.88224 -12.71875,27.8125 7.80122,11.15998 27.72521,6.76064 30.125,-6.65625 C 305.24763,278.16954 295.96061,266.67688 285,267.5 z"
       id="path5388"
       inkscape:connector-curvature="0" />
    <path
       style="fill:none;stroke:#000000;stroke-opacity:1"
       d="m 285,265.5 c -15.20262,-0.49755 -24.51584,20.65607 -13.90625,31.5625 9.09997,12.25283 31.87432,6.29733 33.5,-9.03125 C 306.92414,276.61392 296.69995,264.62185 285,265.5 z"
       id="path5392"
       inkscape:connector-curvature="0" />
    <path
       style="fill:none;stroke:#000000;stroke-opacity:1"
       d="m 285,263.5 c -17.17374,-0.64562 -27.32696,23.56052 -14.96875,35.4375 10.66839,13.26257 35.89628,5.49872 36.75,-11.75 C 308.4232,274.94154 297.45982,262.60123 285,263.5 z"
       id="path5396"
       inkscape:connector-curvature="0" />
    <path
       style="fill:none;stroke:#000000;stroke-opacity:1"
       d="m 285,261.5 c -18.77307,-0.92218 -30.0689,26.07815 -16.375,38.84375 11.66668,14.57995 39.41988,5.72595 40.15625,-13 C 310.53147,273.99536 298.58809,260.55347 285,261.5 z"
       id="path5400"
       inkscape:connector-curvature="0" />
    <path
       style="fill:none;stroke:#000000;stroke-opacity:1"
       d="m 285.53125,259.46875 c -20.37458,-1.41486 -33.11851,27.28813 -18.96875,41.6875 12.25693,16.16875 42.53164,7.50703 44.15625,-12.78125 2.28547,-14.62619 -10.31639,-29.4844 -25.1875,-28.90625 z"
       id="path5404"
       inkscape:connector-curvature="0" />
    <path
       style="fill:none;stroke:#000000;stroke-opacity:1"
       d="m 282.65625,257.46875 c -20.86926,1.25643 -32.34195,31.11992 -17,45.75 13.64975,16.55188 45.53526,6.85313 47.03125,-14.65625 2.69042,-16.91597 -12.96368,-33.24439 -30.03125,-31.09375 z"
       id="path5408"
       inkscape:connector-curvature="0" />
    <path
       style="fill:none;stroke:#000000;stroke-opacity:1"
       d="m 284.15625,255.3125 c -22.98698,-0.0739 -36.63563,32.16663 -20.59375,48.625 13.94832,17.94791 47.36187,9.14935 50.875,-13.15625 4.03734,-18.10855 -11.88255,-36.62107 -30.28125,-35.46875 z"
       id="path5412"
       inkscape:connector-curvature="0" />
    <path
       style="fill:none;stroke:#000000;stroke-opacity:1"
       d="m 284.96875,253.28125 c -23.25233,-0.81075 -38.6347,29.77333 -25.6875,48.5625 6.76297,11.01996 20.74204,16.02753 33.0625,12.8125 13.91846,-2.71288 25.38057,-15.32995 24.71875,-29.8125 -0.0382,-16.81166 -15.08483,-32.15248 -32.09375,-31.5625 z"
       id="path5416"
       inkscape:connector-curvature="0" />
    <path
       style="fill:none;stroke:#000000;stroke-opacity:1"
       d="m 284.96875,251.28125 c -24.73307,-0.89694 -41.26901,31.70323 -27.34375,51.6875 9.67274,16.15913 33.28945,18.89382 47.9375,8.125 13.00061,-8.54566 17.33829,-27.09414 9.96875,-40.65625 -5.58229,-11.30189 -17.67822,-19.62471 -30.5625,-19.15625 z"
       id="path5420"
       inkscape:connector-curvature="0" />
    <path
       style="fill:none;stroke:#000000;stroke-opacity:1"
       d="m 282.625,249.28125 c -25.50038,1.24333 -41.24796,35.04239 -26.21875,55.53125 12.38745,19.50031 43.9116,19.20385 57.5625,1.1875 10.9941,-13.53979 8.81694,-34.91063 -4.03125,-46.53125 -7.07764,-7.12586 -17.24843,-10.96051 -27.3125,-10.1875 z"
       id="path5424"
       inkscape:connector-curvature="0" />
    <path
       style="fill:none;stroke:#000000;stroke-opacity:1"
       d="m 283.5,247.21875 c -26.98738,0.38058 -44.47759,35.71104 -29.40625,57.78125 12.73618,21.64466 47.71815,21.63859 61.96875,1.59375 12.68726,-16.3151 7.29177,-42.14054 -10.0625,-52.96875 -6.52144,-4.45403 -14.54996,-6.79118 -22.5,-6.40625 z"
       id="path5428"
       inkscape:connector-curvature="0" />
    <path
       style="fill:none;stroke:#000000;stroke-opacity:1"
       d="m 283.4375,245.21875 c -28.03131,0.37726 -46.45839,36.48601 -31.6875,59.875 12.90869,23.61479 50.76927,24.26656 65.9375,2.6875 14.48968,-18.45964 6.40616,-48.5006 -14.625,-58.25 -6.06816,-3.09496 -12.82404,-4.64639 -19.625,-4.3125 z"
       id="path5432"
       inkscape:connector-curvature="0" />
    <path
       style="fill:none;stroke:#000000;stroke-opacity:1"
       d="m 283.375,243.21875 c -29.02745,0.41162 -48.38748,37.07277 -34,61.8125 12.53837,24.87006 51.37127,27.05362 68.375,5.96875 17.1339,-18.97825 9.17526,-52.84183 -13.8125,-63.28125 -6.33866,-3.19538 -13.44391,-4.8557 -20.5625,-4.5 z"
       id="path5436"
       inkscape:connector-curvature="0" />
    <path
       style="fill:none;stroke:#000000;stroke-opacity:1"
       d="m 283.34375,241.21875 c -29.97497,0.38807 -50.31639,37.67123 -36.375,63.65625 11.98545,25.58081 50.44699,29.81923 69.6875,10.3125 17.72648,-16.26192 15.44231,-46.87456 -1.75,-62.46875 -8.36312,-7.68806 -20.18783,-11.98482 -31.5625,-11.5 z"
       id="path5440"
       inkscape:connector-curvature="0" />
    <path
       style="fill:none;stroke:#000000;stroke-opacity:1"
       d="m 283.3125,239.21875 c -30.85943,0.32483 -52.20651,38.22434 -38.75,65.34375 11.82694,27.59751 53.11939,32.99646 73.5,12.03125 20.7995,-18.91144 15.22755,-57.10623 -9,-70.6875 -7.62947,-4.59856 -16.72427,-7.064 -25.75,-6.6875 z"
       id="path5444"
       inkscape:connector-curvature="0" />
    <path
       style="fill:none;stroke:#000000;stroke-opacity:1"
       d="m 283.28125,237.21875 c -32.2117,0.28172 -54.65842,39.81891 -40.53125,68.1875 12.26653,28.72366 55.45418,34.60826 76.6875,12.65625 22.54038,-20.47085 15.37621,-62.24431 -11.65625,-75.1875 -7.47757,-3.92838 -15.98621,-6.00308 -24.5,-5.65625 z"
       id="path5448"
       inkscape:connector-curvature="0" />
    <path
       style="fill:none;stroke:#000000;stroke-opacity:1"
       d="m 283.25,235.21875 c -32.98715,0.23377 -56.47205,40.19485 -42.9375,69.6875 11.32818,28.94668 52.44414,37.10931 76.09375,18.53125 15.99432,-11.398 21.97334,-33.20976 16.5625,-51.75 -4.37782,-17.91059 -19.57062,-32.01649 -37.60072,-35.40654 -3.96141,-0.85749 -8.03122,-1.22937 -12.11803,-1.06221 z"
       id="path5452"
       inkscape:connector-curvature="0" />
    <path
       style="fill:none;stroke:#000000;stroke-opacity:1"
       d="m 283.21875,233.21875 c -33.64412,0.27025 -57.94332,40.04153 -45.53486,70.58473 8.33641,24.46772 37.63443,36.26234 61.69111,29.97777 21.3761,-4.84128 37.54834,-24.96301 37.53125,-46.875 0.97411,-22.97964 -14.44186,-45.53601 -36.84375,-51.5625 -5.45689,-1.54033 -11.14657,-2.36715 -16.84375,-2.125 z"
       id="path5456"
       inkscape:connector-curvature="0" />
    <path
       style="fill:none;stroke:#000000;stroke-opacity:1"
       d="m 283.1875,231.21875 c -34.92866,0.25868 -60.35525,41.52032 -47.375,73.3125 9.04921,26.37407 41.57982,38.71588 67.15625,30.375 22.91023,-6.64671 38.70566,-30.84815 35.78125,-54.625 -1.90334,-24.50202 -22.05968,-46.35095 -46.8125,-48.65625 -2.89659,-0.4253 -5.82673,-0.51355 -8.75,-0.40625 z"
       id="path5460"
       inkscape:connector-curvature="0" />
    <path
       style="fill:none;stroke:#000000;stroke-opacity:1"
       d="m 283.1875,229.21875 c -36.23315,0.18838 -62.84295,43.06943 -49.21875,76.0625 11.28694,32.72395 56.63242,44.16685 84.0625,24.5625 18.58263,-12.73504 27.35885,-37.49395 21.125,-59.15625 -6.09484,-23.69403 -28.97053,-42.21699 -53.78125,-41.5 -0.72955,0.003 -1.45859,-0.0139 -2.1875,0.0312 z"
       id="path5464"
       inkscape:connector-curvature="0" />
    <path
       style="fill:none;stroke:#000000;stroke-opacity:1"
       d="m 285.375,227.1875 c -31.63789,-1.14467 -57.46386,29.32701 -57.03125,59.84375 0.0209,21.84953 14.26846,42.69899 34.90625,50 23.05151,9.57155 52.51293,3.59365 67.71875,-16.6875 16.07347,-19.84709 16.07554,-50.30879 0.28125,-70.28125 -10.71015,-14.05938 -27.92457,-23.42718 -45.875,-22.875 z"
       id="path5468"
       inkscape:connector-curvature="0" />
    <path
       style="fill:none;stroke:#000000;stroke-opacity:1"
       d="m 280.875,225.21875 c -37.46817,2.1972 -64.38877,45.55787 -51.1875,80.40625 6.73955,19.67269 25.23541,33.76699 45.59375,36.9375 23.89155,4.4996 50.49966,-6.45171 62.09375,-28.09375 13.97085,-23.72091 8.38659,-56.78532 -12.71875,-74.40625 -11.88673,-10.73721 -27.80872,-16.08356 -43.78125,-14.84375 z"
       id="path5472"
       inkscape:connector-curvature="0" />
    <path
       style="fill:none;stroke:#000000;stroke-opacity:1"
       d="m 283.84375,223.0625 c -38.15628,0.0482 -67.51405,41.95105 -57.6875,78.15625 6.25995,25.91295 31.84445,44.03588 58.125,44.3125 25.17932,1.02637 50.36391,-14.42354 58.84375,-38.4375 10.35632,-26.53855 -0.17938,-59.28176 -24.5,-74.1875 -10.26545,-6.74109 -22.46544,-10.15817 -34.78125,-9.84375 z"
       id="path5476"
       inkscape:connector-curvature="0" />
    <path
       style="fill:none;stroke:#000000;stroke-opacity:1"
       d="m 283.84375,221.0625 c -40.27415,-0.0258 -71.14605,45.26852 -58.9375,83.125 8.34674,29.09182 40.66082,47.48661 70.21875,42.78125 25.3886,-3.1689 47.89362,-23.00136 52.625,-48.40625 6.38223,-29.12727 -9.68413,-61.24911 -37.46875,-72.375 -8.24939,-3.63854 -17.36496,-5.337 -26.4375,-5.125 z"
       id="path5480"
       inkscape:connector-curvature="0" />
    <path
       style="fill:none;stroke:#000000;stroke-opacity:1"
       d="m 283.84375,219.0625 c -34.20373,-0.0265 -62.32588,31.85013 -63.59375,65.09375 -1.39944,25.13548 14.31061,49.19361 37.1875,59.21875 26.34084,12.77185 60.5776,5.64552 79.0625,-16.96875 20.38414,-23.42388 18.81114,-61.23672 -1.26071,-84.33443 -12.382,-14.99745 -31.93471,-23.48723 -51.39554,-23.00932 z"
       id="path5484"
       inkscape:connector-curvature="0" />
    <path
       style="fill:none;stroke:#000000;stroke-opacity:1"
       d="m 283.8125,217.0625 c -40.78155,0.044 -72.71899,43.46074 -64.34375,82.59375 5.87853,29.09203 33.37701,50.90346 62.8125,51.9375 30.01457,1.9382 60.274,-17.83298 68.21875,-47.1875 8.82659,-30.10299 -5.18184,-65.13783 -33.3875,-79.46082 -10.1936,-5.40884 -21.72522,-8.16257 -33.3,-7.88293 z"
       id="path5488"
       inkscape:connector-curvature="0" />
    <path
       style="fill:none;stroke:#000000;stroke-opacity:1"
       d="m 283.8125,215.0625 c -42.40609,-0.0379 -75.80161,45.81083 -66,86.4375 7.43845,33.12932 42.08135,55.99484 75.49388,51.85832 29.99858,-2.80536 57.34153,-26.867 61.03737,-57.23332 5.14821,-32.19902 -14.21097,-66.66574 -45.4375,-76.96875 -8.00007,-2.90917 -16.56507,-4.30018 -25.09375,-4.09375 z"
       id="path5492"
       inkscape:connector-curvature="0" />
    <path
       style="fill:none;stroke:#000000;stroke-opacity:1"
       d="m 283.8125,213.0625 c -46.01165,-0.0962 -81.405,52.17886 -66.1875,95.1875 11.43883,34.17781 51.12758,54.806 85.90625,45.375 28.86806,-6.95982 52.5185,-33.25133 53.5,-63.46875 2.39088,-32.90054 -19.96269,-66.28785 -52.125,-74.40625 -6.82162,-1.94191 -13.95955,-2.8539 -21.09375,-2.6875 z"
       id="path5496"
       inkscape:connector-curvature="0" />
    <path
       style="fill:none;stroke:#000000;stroke-opacity:1"
       d="m 283.8125,211.0625 c -44.17327,-0.0869 -79.22369,46.85316 -70.4375,89.4375 7.23505,37.44422 47.72856,63.27025 84.92339,56.33259 33.29074,-5.18255 61.3002,-35.52044 60.88911,-69.73884 1.12434,-35.0266 -25.2599,-69.44196 -60.40625,-74.84375 -4.93008,-0.9122 -9.95112,-1.3049 -14.96875,-1.1875 z"
       id="path5500"
       inkscape:connector-curvature="0" />
    <path
       style="fill:none;stroke:#000000;stroke-opacity:1"
       d="m 283.8125,209.0625 c -39.61246,-0.0557 -72.37233,36.70872 -73.75,75.25 -1.62882,29.27969 17.53051,56.79684 43.77982,68.39455 28.97601,14.25422 66.55264,6.76721 87.93893,-17.3633 19.21892,-19.64919 24.51077,-50.67964 14.71875,-76.1875 -9.93205,-27.52078 -36.29498,-48.85436 -66.02904,-49.94152 -2.21538,-0.15946 -4.43788,-0.22452 -6.65846,-0.15223 z"
       id="path5504"
       inkscape:connector-curvature="0" />
    <path
       style="fill:none;stroke:#000000;stroke-opacity:1"
       d="m 283.78125,207.0625 c -46.47057,-0.0251 -83.49799,49.00766 -74.5,93.84375 7.57936,38.7221 48.37762,66.3964 87.21875,60.21875 34.18275,-4.14018 63.38381,-33.00038 66.4023,-67.4614 4.58783,-38.43011 -23.14773,-77.48499 -61.0898,-85.1011 -5.92909,-1.19089 -11.98183,-1.57168 -18.03125,-1.5 z"
       id="path5508"
       inkscape:connector-curvature="0" />
    <path
       style="fill:none;stroke:#000000;stroke-opacity:1"
       d="m 281.5625,205.09375 c -46.67664,1.53186 -83.3805,50.88818 -74.25,96.1875 7.98056,41.47668 53.30003,70.27893 94.375,61.0625 35.34673,-6.48843 64.07548,-39.52097 63.6875,-75.84375 0.97733,-40.41558 -32.5896,-79.29368 -73.40385,-81.22553 -3.462,-0.24972 -6.94007,-0.25012 -10.40865,-0.18072 z"
       id="path5512"
       inkscape:connector-curvature="0" />
    <path
       inkscape:connector-curvature="0"
       id="path5516"
       d="m 281.5625,205.09375 c -46.67664,1.53186 -83.3805,50.88818 -74.25,96.1875 7.98056,41.47668 53.30003,70.27893 94.375,61.0625 35.34673,-6.48843 64.07548,-39.52097 63.6875,-75.84375 0.97733,-40.41558 -32.5896,-79.29368 -73.40385,-81.22553 -3.462,-0.24972 -6.94007,-0.25012 -10.40865,-0.18072 z"
       style="fill:none;stroke:#000000;stroke-opacity:1" />
    <path
       style="fill:none;stroke:#000000;stroke-opacity:1"
       d="m 281.53125,203.09375 c -47.12191,1.5441 -84.41753,50.48721 -76.59375,96.40625 7.01968,44.43677 56.39291,75.69123 99.81814,64.24389 37.39395,-8.08554 66.20658,-45.49391 62.46018,-84.023 -2.54313,-40.68644 -38.81803,-77.5698 -80.43457,-76.65839 -1.75015,-0.008 -3.50007,0.003 -5.25,0.0312 z"
       id="path5530"
       inkscape:connector-curvature="0" />
    <path
       style="fill:none;stroke:#000000;stroke-opacity:1"
       d="m 281.5,201.09375 c -48.96272,1.53446 -87.76711,53.18611 -78.15625,100.8125 8.41797,45.15474 59.54522,76.06243 103.65625,63.375 39.88587,-9.48487 69.01944,-51.74804 61.44541,-92.52019 -6.15277,-40.99183 -44.7524,-75.12735 -86.94541,-71.66731 z"
       id="path5534"
       inkscape:connector-curvature="0" />
    <path
       style="fill:none;stroke:#000000;stroke-opacity:1"
       d="m 285.40625,198.875 c -32.91129,-0.45971 -63.00912,21.52708 -76.71172,50.62135 -13.70959,27.08439 -11.50314,62.18505 7.89922,86.0349 21.63627,28.22434 61.46294,42.18618 95.67381,30.3911 39.73813,-12.05201 67.17766,-56.40771 57.48244,-97.3911 -7.7918,-38.79374 -44.03368,-70.77543 -84.34375,-69.65625 z"
       id="path5538"
       inkscape:connector-curvature="0" />
    <path
       style="fill:none;stroke:#000000;stroke-opacity:1"
       d="m 285.40625,196.875 c -43.27282,-0.53034 -80.96238,36.20945 -86.65625,78.09375 -4.0072,26.35782 5.73155,54.06629 25.40625,71.96875 24.60563,23.5747 63.54558,32.40757 95.32789,18.54944 38.09424,-15.21878 62.6037,-60.09005 51.59372,-100.20902 -9.02603,-38.35197 -45.53075,-69.55539 -85.67161,-68.40292 z"
       id="path5542"
       inkscape:connector-curvature="0" />
    <path
       style="fill:none;stroke:#000000;stroke-opacity:1"
       d="m 285.40625,194.875 c -48.92377,-0.59942 -90.73344,45.2857 -89.53125,93.5 0.28511,30.02471 18.03336,58.14671 43.84375,72.75 27.55218,16.52235 64.33952,17.6367 91.98106,0.54563 33.71261,-19.8453 52.74768,-63.57828 40.07688,-101.47267 -10.86595,-37.06381 -47.00764,-66.4468 -86.37044,-65.32296 z"
       id="path5546"
       inkscape:connector-curvature="0" />
    <path
       style="fill:none;stroke:#000000;stroke-opacity:1"
       d="m 285.40625,192.875 c -50.91913,-0.65866 -94.5115,48.2045 -91.46875,98.4375 1.46795,33.86197 24.78313,64.43856 55.71875,77.125 31.07495,13.59329 69.75844,8.77985 95.28125,-13.78125 28.17582,-23.62401 41.08971,-65.4627 27.03125,-100.28125 -12.81163,-35.36061 -48.2432,-62.60053 -86.5625,-61.5 z"
       id="path5550"
       inkscape:connector-curvature="0" />
    <path
       style="fill:none;stroke:#000000;stroke-opacity:1"
       d="m 285.40625,190.875 c -50.74377,-0.6321 -94.62067,46.90452 -93.59375,96.96875 -0.0225,39.84047 29.88041,75.77466 67.71875,86.3125 33.18721,10.07248 71.98862,0.23917 95.05476,-25.95218 24.51312,-26.25508 32.80769,-67.60732 16.88448,-100.46236 -14.67133,-33.08277 -49.10086,-57.96236 -86.06424,-56.86671 z"
       id="path5554"
       inkscape:connector-curvature="0" />
    <path
       style="fill:none;stroke:#000000;stroke-opacity:1"
       d="m 285.40625,188.875 c -51.77767,-0.60803 -96.69434,47.78149 -95.59375,99 -0.12381,43.95978 35.70819,82.97288 78.20006,90.44241 35.79546,7.20674 75.06336,-7.83966 95.67494,-38.09866 20.55231,-28.44944 24.26735,-68.82497 6.5625,-99.5625 -16.3614,-30.58556 -49.46859,-52.81468 -84.84375,-51.78125 z"
       id="path5558"
       inkscape:connector-curvature="0" />
    <path
       style="fill:none;stroke:#000000;stroke-opacity:1"
       d="m 285.40625,186.875 c -52.73633,-0.67259 -98.88265,48.83518 -97.59375,101.0625 -0.12492,47.20798 40.35452,88.73495 86.6875,93.4375 38.36664,5.0265 78.72295,-15.06773 96.75876,-49.37862 17.18785,-30.33903 16.57305,-70.57522 -3.47751,-99.43388 -17.6333,-27.35829 -49.14567,-46.69892 -82.375,-45.6875 z"
       id="path5562"
       inkscape:connector-curvature="0" />
    <path
       style="fill:none;stroke:#000000;stroke-opacity:1"
       d="m 285.40625,184.875 c -55.0816,-0.64985 -102.74415,51.92784 -99.53394,106.34334 1.74705,48.84372 45.52819,90.48248 93.90894,92.68791 40.34661,3.04397 81.17308,-21.14321 97.03125,-58.375 C 391.59668,293.23578 387.4571,252.79964 365,225.125 346.56201,200.6487 316.54124,183.90212 285.40625,184.875 z"
       id="path5566"
       inkscape:connector-curvature="0" />
    <path
       style="fill:none;stroke:#000000;stroke-opacity:1"
       d="m 285.40625,182.875 c -56.51307,-0.66239 -105.46524,53.55878 -101.5,109.625 2.55773,51.09859 49.88953,93.80346 100.62487,93.64139 43.07704,1.18403 85.06196,-28.09972 97.84388,-69.26639 C 393.7324,283.4358 386.04556,244.21542 362,218.21875 343.06468,196.47394 314.78374,181.97434 285.40625,182.875 z"
       id="path5570"
       inkscape:connector-curvature="0" />
    <path
       style="fill:none;stroke:#000000;stroke-opacity:1"
       d="m 285.40625,180.875 c -58.47691,-0.69017 -108.84309,56.15787 -103.3588,113.96565 3.90222,52.56601 54.1743,95.64298 106.57755,93.3156 46.12446,-0.62928 89.12886,-35.16319 98.40625,-80.40625 8.19203,-35.065 -3.73851,-73.694 -30.1875,-97.875 -18.99919,-18.18584 -44.837,-29.84037 -71.4375,-29 z"
       id="path5574"
       inkscape:connector-curvature="0" />
    <path
       style="fill:none;stroke:#000000;stroke-opacity:1"
       d="m 285.40625,178.875 c -59.18195,-0.63003 -110.16432,56.22676 -105.46875,114.75 3.21659,54.8928 56.34739,100.13827 110.9375,96.46875 48.17523,-1.52794 92.46689,-39.96516 99.32065,-87.92389 6.52565,-37.77729 -9.74526,-78.1198 -40.32396,-100.97741 -18.2225,-14.31326 -41.1246,-23.04848 -64.46544,-22.31745 z"
       id="path5578"
       inkscape:connector-curvature="0" />
    <path
       style="fill:none;stroke:#000000;stroke-opacity:1"
       d="m 285.40625,176.875 c -61.21517,-0.66521 -113.74204,58.98679 -107.28125,119.5 4.91008,56.02239 60.28687,101.01708 116.1226,95.55572 49.77425,-3.14469 94.20598,-44.94064 98.72115,-94.86822 C 397.8525,255.98063 376.56442,213.70116 341.21531,192.68746 324.64295,182.32664 305.1128,176.24997 285.40625,176.875 z"
       id="path5582"
       inkscape:connector-curvature="0" />
    <path
       style="fill:none;stroke:#000000;stroke-opacity:1"
       d="m 285.40625,174.875 c -63.18742,-0.69522 -117.21063,61.63991 -109.03804,124.05549 6.33385,56.62304 63.34862,101.51274 120.06257,94.84318 51.96086,-4.24895 97.2441,-49.87573 99.03797,-102.36742 2.90152,-44.79172 -24.6149,-89.10028 -65.59193,-107.11412 -13.88221,-6.40014 -29.11925,-9.89987 -44.47057,-9.41713 z"
       id="path5586"
       inkscape:connector-curvature="0" />
    <path
       style="fill:none;stroke:#000000;stroke-opacity:1"
       d="m 285.40625,172.875 c -64.35105,-0.6956 -119.46481,62.80198 -111,126.3125 6.4843,58.58501 66.24214,104.58118 124.6875,96.34375 52.89772,-5.4888 98.30185,-53.50207 98.52984,-107.1558 1.78495,-48.45837 -31.4859,-95.20809 -77.3201,-110.07312 -11.09703,-3.79218 -23.06288,-5.80208 -34.89724,-5.42733 z"
       id="path5590"
       inkscape:connector-curvature="0" />
    <path
       style="fill:none;stroke:#000000;stroke-opacity:1"
       d="m 285.40625,170.875 c -65.90223,-0.79883 -122.40017,64.83704 -112.84375,129.9375 7.49596,59.4257 68.36356,105.42126 127.71379,96.61925 54.31214,-6.06156 100.36616,-56.39172 99.41121,-111.338 0.90193,-53.40825 -40.15832,-103.83412 -92.79569,-113.43259 -7.06804,-1.37325 -14.28049,-2.00812 -21.48556,-1.78616 z"
       id="path5594"
       inkscape:connector-curvature="0" />
    <path
       style="fill:none;stroke:#000000;stroke-opacity:1"
       d="m 285.40625,168.875 c -57.30718,-0.62982 -107.88943,47.94085 -115.01931,103.83328 -5.06173,36.26014 10.46878,73.6828 37.76931,97.38547 26.26561,23.61991 63.71547,35.54074 98.78125,28.40625 53.84928,-9.46285 97.44931,-60.99531 94.75,-116.21875 -0.98913,-56.32397 -47.65282,-107.92744 -103.96875,-113 -4.08974,-0.40334 -8.20512,-0.50854 -12.3125,-0.40625 z"
       id="path5598"
       inkscape:connector-curvature="0" />
    <path
       style="fill:none;stroke:#000000;stroke-opacity:1"
       d="m 285.40625,166.875 c -57.3045,-0.602 -108.25372,47.17189 -116.625,102.9375 -7.35126,43.72744 15.36103,89.15948 52.20996,112.67531 30.20457,20.47259 70.4305,25.97727 104.82358,12.98295 46.78478,-16.98538 81.40901,-65.39529 77.77896,-115.90826 -2.34436,-60.3647 -56.87873,-114.76059 -118.1875,-112.6875 z"
       id="path5602"
       inkscape:connector-curvature="0" />
    <path
       style="fill:none;stroke:#000000;stroke-opacity:1"
       d="m 286.8125,164.84375 c -58.93457,-1.36312 -112.2374,48.09492 -120.14981,105.64497 -7.46375,46.54322 18.71484,94.66818 59.11856,117.38628 36.67297,22.11183 85.74608,22.26918 122.03125,-0.875 38.04275,-23.11444 62.8148,-68.2985 57.40625,-113.25 C 399.79152,215.10387 346.64843,163.65221 286.8125,164.84375 z"
       id="path5606"
       inkscape:connector-curvature="0" />
    <path
       style="fill:none;stroke:#000000;stroke-opacity:1"
       d="m 282.65625,162.84375 c -61.81742,1.04571 -115.82552,56.10854 -119.05705,117.24837 -2.98115,48.63662 28.0166,95.56227 71.9633,115.22038 39.60252,18.65408 89.44998,13.55581 123.78125,-13.78125 34.63803,-26.1714 54.79975,-71.5854 47,-114.9375 -9.07857,-58.24218 -63.7401,-106.98785 -123.6875,-103.75 z"
       id="path5610"
       inkscape:connector-curvature="0" />
    <path
       style="fill:none;stroke:#000000;stroke-opacity:1"
       d="m 285.4375,160.71875 c -64.84646,-0.27398 -121.91502,57.49236 -123.96875,121.59375 -2.09969,52.93258 35.09381,102.98408 84.8125,119.5 41.29297,14.45034 90.31663,4.77911 122.25,-25.28125 32.08799,-28.54467 48.73209,-74.85125 38.5,-117.125 -12.01074,-55.15067 -64.21496,-100.27719 -121.59375,-98.6875 z"
       id="path5614"
       inkscape:connector-curvature="0" />
    <path
       style="fill:none;stroke:#000000;stroke-opacity:1"
       d="m 285.4375,158.71875 c -66.17473,-0.27393 -124.53568,58.93354 -125.99406,124.53093 -1.82406,57.40346 41.85102,110.90144 97.12045,123.68036 42.89384,10.67665 90.97319,-3.3782 120.62361,-36.02379 29.60094,-30.8126 42.67097,-77.77124 30.01299,-119.08794 -14.91448,-52.69242 -66.11066,-94.7018 -121.76299,-93.09956 z"
       id="path5618"
       inkscape:connector-curvature="0" />
    <path
       style="fill:none;stroke:#000000;stroke-opacity:1"
       d="m 285.4375,156.71875 c -68.11995,-0.28403 -128.14263,61.44636 -128.03125,129.1875 -0.54824,60.88443 49.08798,116.51009 108.96875,125.03125 44.95699,7.32394 92.94094,-11.63113 120.25,-47.875 26.67666,-33.50968 35.3412,-81.44675 19.25,-121.6875 -18.35048,-48.6589 -67.38402,-86.19072 -120.4375,-84.65625 z"
       id="path5622"
       inkscape:connector-curvature="0" />
    <path
       style="fill:none;stroke:#000000;stroke-opacity:1"
       d="m 285.4375,154.71875 c -70.4365,-0.40491 -132.52418,64.95728 -130.00952,135.06226 1.57529,62.63217 54.88205,118.45757 117.07202,124.00024 46.85556,5.25406 95.54109,-17.57951 121.12438,-56.85847 C 418.50998,320.78344 423.45167,271.12792 403.90625,231.5 382.85008,186.70795 335.96327,153.23953 285.4375,154.71875 z"
       id="path5626"
       inkscape:connector-curvature="0" />
    <path
       style="fill:none;stroke:#000000;stroke-opacity:1"
       d="m 285.4375,152.71875 c -73.5559,-0.48029 -138.0041,69.74799 -131.71875,143.0625 4.87424,63.93941 62.02651,118.76347 126.28036,120.60472 49.39122,2.53332 98.76772,-25.27781 121.84464,-69.01097 21.50999,-38.67972 21.7,-88.85447 -1.4269,-126.86313 C 377.21491,180.35468 332.8391,151.29864 285.4375,152.71875 z"
       id="path5630"
       inkscape:connector-curvature="0" />
    <path
       style="fill:none;stroke:#000000;stroke-opacity:1"
       d="m 285.4375,150.71875 c -75.17767,-0.55973 -141.04192,71.88615 -133.59375,146.71875 5.78797,66.26796 67.01736,122.2398 133.78125,121.09375 51.88377,0.4434 102.20515,-32.10348 122.6875,-79.59375 18.5643,-40.65255 14.71025,-91.24304 -11.40175,-127.76734 -24.46752,-36.29252 -66.8115,-61.81855 -111.47325,-60.45141 z"
       id="path5634"
       inkscape:connector-curvature="0" />
    <path
       style="fill:none;stroke:#000000;stroke-opacity:1"
       d="m 287.5,148.6875 c -66.89928,-1.41697 -127.14462,53.72154 -136.875,118.9375 -7.21812,45.59117 13.47115,92.54357 48.65625,121.25 27.99063,23.70176 65.46029,35.45483 102.08699,30.82141 51.61297,-5.87247 98.18543,-43.26182 113.79174,-92.77009 14.00512,-41.69421 5.8296,-90.38463 -22.09163,-124.46159 C 368.16521,170.2902 328.83563,148.14099 287.5,148.6875 z"
       id="path5638"
       inkscape:connector-curvature="0" />
    <path
       style="fill:none;stroke:#000000;stroke-opacity:1"
       d="m 282.78125,146.6875 c -71.5694,1.26456 -134.12098,65.63487 -135.56022,136.84333 -1.34998,60.67544 43.10816,117.34615 100.93522,133.78167 47.03581,14.24537 100.31029,-0.52617 134.77606,-34.91934 35.56216,-33.86163 49.65339,-87.9663 35.59894,-135.14316 -12.94853,-44.79508 -50.05864,-81.57671 -94.46875,-95.28125 -13.34732,-4.14479 -27.31353,-5.70047 -41.28125,-5.28125 z"
       id="path5642"
       inkscape:connector-curvature="0" />
    <path
       style="fill:none;stroke:#000000;stroke-opacity:1"
       d="m 282.75,144.6875 c -74.98199,1.19844 -140.44147,71.23224 -137.46875,146.03125 2.24919,65.19242 55.95482,123.53026 120.46875,132.5625 56.9409,8.70394 117.00865,-21.91948 143.6875,-72.71875 22.50455,-41.38323 22.03624,-94.76039 -2.56637,-135.14503 C 381.66763,172.60409 333.30303,142.39871 282.75,144.6875 z"
       id="path5646"
       inkscape:connector-curvature="0" />
    <path
       style="fill:none;stroke:#000000;stroke-opacity:1"
       d="m 285.09375,142.59375 c -65.76525,0.12216 -124.61378,51.63033 -138.75,114.90625 -10.19437,43.18405 4.52814,89.83941 34.34375,121.90625 29.87648,33.3769 76.06729,52.24526 121.05565,46.35191 52.42785,-6.20646 100.15542,-42.63985 117.69435,-92.60191 16.24721,-44.14893 8.73197,-96.40126 -20.67737,-133.31988 -26.55744,-34.83417 -69.22848,-58.36611 -113.66638,-57.24262 z"
       id="path5650"
       inkscape:connector-curvature="0" />
    <path
       style="fill:none;stroke:#000000;stroke-opacity:1"
       d="m 285.09375,140.59375 c -69.3595,0.0264 -131.47,56.92586 -142.33372,124.62821 -8.12591,48.76963 14.15116,99.55718 51.77122,130.24679 34.46466,28.94594 83.00529,40.77238 126.6529,28.61601 C 371.53359,411.22911 414.21919,369.96605 425.84375,318.875 436.93562,274.22036 424.8371,224.46725 393.75,190.53125 366.72898,159.85148 326.64268,139.49504 285.09375,140.59375 z"
       id="path5654"
       inkscape:connector-curvature="0" />
    <path
       style="fill:none;stroke:#000000;stroke-opacity:1"
       d="m 285.09375,138.59375 c -72.27872,0.009 -136.8565,61.04468 -145.12236,131.96124 -7.18258,60.56964 30.19975,121.33398 84.71299,146.46812 35.93961,17.20499 79.04835,18.36003 115.75312,2.78939 46.76077,-18.89951 83.18669,-62.78431 89.875,-113.34375 7.10487,-46.06651 -9.7163,-94.83662 -43.80894,-126.41768 -26.85022,-25.84376 -63.6088,-42.47849 -101.40981,-41.45732 z"
       id="path5658"
       inkscape:connector-curvature="0" />
    <path
       style="fill:none;stroke:#000000;stroke-opacity:1"
       d="m 285.09375,136.59375 c -75.11461,0.0717 -141.96497,64.83711 -147.62902,139.09154 -4.87932,64.25843 38.55768,126.92237 98.56652,148.28346 42.03087,15.74531 91.04173,9.88825 128.5625,-14.34375 39.69494,-24.72659 67.00214,-68.79377 69.08205,-115.83852 2.99229,-47.31055 -18.64024,-95.0493 -55.85761,-124.074 -25.94062,-21.00289 -58.91822,-34.03428 -92.72444,-33.11873 z"
       id="path5662"
       inkscape:connector-curvature="0" />
    <path
       style="fill:none;stroke:#000000;stroke-opacity:1"
       d="m 285.09375,134.59375 c -78.46321,0.009 -148.30547,70.01174 -149.95833,148.09353 -1.52928,67.08826 47.93545,130.26763 112.39583,147.09397 48.43246,13.3137 102.66034,-0.62762 139.34375,-34.53125 33.36088,-29.88328 52.42613,-75.31206 48.711,-120.31003 -3.17521,-46.94885 -29.70356,-90.95756 -69.336,-116.15872 -23.86449,-15.63994 -52.30083,-24.99613 -81.15625,-24.1875 z"
       id="path5666"
       inkscape:connector-curvature="0" />
    <path
       style="fill:none;stroke:#000000;stroke-opacity:1"
       d="m 285.09375,132.59375 c -82.17153,-0.0861 -155.12037,75.95874 -151.90625,158.03125 2.53734,70.86982 60.00247,134.63656 130.09375,144.53125 52.54359,8.13891 108.12634,-14.08502 141.0625,-55.375 29.09951,-35.39734 40.70593,-84.589 29.53125,-129.21875 -11.15343,-47.52929 -46.33792,-88.04991 -91.35604,-106.70782 -18.08507,-7.66651 -37.71964,-11.81268 -57.42521,-11.26093 z"
       id="path5670"
       inkscape:connector-curvature="0" />
    <path
       style="fill:none;stroke:#000000;stroke-opacity:1"
       d="M 286.90625,130.5625 C 202.39584,129.36637 126.88605,207.93905 131.25,292.375 c 3.385,73.61683 65.63018,139.26799 139.25,145.71875 59.08468,6.10565 119.72362,-25.19132 149,-76.6875 23.72401,-40.35034 27.24179,-92.10405 8.51006,-135.18909 -23.20968,-55.38793 -80.18503,-96.13237 -141.10381,-95.65466 z"
       id="path5674"
       inkscape:connector-curvature="0" />
    <path
       style="fill:none;stroke:#000000;stroke-opacity:1"
       d="m 280.9375,128.59375 c -81.22917,2.45965 -152.46449,76.55122 -151.875,157.875 0.20988,77.56982 65.8963,148.20353 143.24197,153.80405 64.07413,5.87493 129.25776,-31.95647 155.55746,-90.55326 21.12179,-45.03034 18.4179,-100.52483 -7.43729,-143.01552 C 392.0311,158.56197 337.50935,125.94634 280.9375,128.59375 z"
       id="path5678"
       inkscape:connector-curvature="0" />
    <path
       style="fill:none;stroke:#000000;stroke-opacity:1"
       d="m 283.53125,126.5 c -82.04291,1.02248 -154.79685,74.24434 -156.4375,156.125 -2.09419,80.98143 67.13892,155.69759 148.0625,159.90625 67.14934,4.86037 134.65005,-37.78409 158.25,-100.65625 C 452.95451,292.67285 444.96629,233.48581 412.76931,191.5793 382.96344,151.47534 334.12839,125.06411 283.53125,126.5 z"
       id="path5682"
       inkscape:connector-curvature="0" />
    <path
       style="fill:none;stroke:#000000;stroke-opacity:1"
       d="m 283.5,124.5 c -86.44797,1.00216 -162.38255,81.23258 -158.34375,167.6875 3.24519,75.86897 66.88963,143.68106 142.25,151.75 71.53683,8.69706 145.488,-36.72191 169.11997,-104.62839 C 456.54931,285.66124 444.12947,221.4581 405.40625,179.34375 375.0146,145.07556 329.82507,123.14925 283.5,124.5 z"
       id="path5686"
       inkscape:connector-curvature="0" />
    <path
       style="fill:none;stroke:#000000;stroke-opacity:1"
       d="m 285.625,122.46875 c -59.14544,-0.19865 -114.25145,36.64917 -142.32807,87.37489 -21.87897,38.09524 -26.66267,85.89569 -11.24072,127.12895 21.91504,61.08172 81.30206,107.98812 147.03754,109.90241 71.14373,2.96012 141.40417,-45.31034 161.72949,-113.93771 18.24731,-57.10142 0.95335,-123.64998 -42.97949,-164.34354 -29.76071,-28.74302 -70.504,-46.72652 -112.21875,-46.125 z"
       id="path5690"
       inkscape:connector-curvature="0" />
    <path
       style="fill:none;stroke:#000000;stroke-opacity:1"
       d="m 282.8125,120.5 c -79.24119,1.379 -150.21437,67.35838 -160.4375,145.34375 -6.89792,47.91991 11.79108,97.06063 44.90625,131.4375 33.32577,35.31427 82.43311,55.91342 131.27683,51.15608 C 365.42445,442.84319 427.47687,393.70061 444.375,328.0625 461.03518,268.62849 440.08129,200.5443 392.6983,161.17026 362.59238,134.93074 323.03307,119.22122 282.8125,120.5 z"
       id="path5694"
       inkscape:connector-curvature="0" />
    <path
       style="fill:none;stroke:#000000;stroke-opacity:1"
       d="m 282.78125,118.5 c -81.01272,1.43385 -153.40021,69.40059 -162.71875,149.375 -7.65206,60.7145 24.5947,121.93479 74.64874,155.20461 36.61482,24.92071 83.7656,34.37464 126.98323,23.70135 61.50191,-14.11188 114.23918,-64.24564 126.71178,-126.68721 13.54398,-61.29567 -11.31958,-129.03786 -61.6875,-166.4375 C 357.37717,130.76218 320.3155,117.31064 282.78125,118.5 z"
       id="path5698"
       inkscape:connector-curvature="0" />
    <path
       style="fill:none;stroke:#000000;stroke-opacity:1"
       d="m 284.5,116.46875 c -85.56043,0.43776 -162.17479,74.75683 -167.25,159.78125 -4.6461,71.171 43.14415,140.25679 108.80557,165.55362 39.66805,15.90382 85.4512,14.76732 124.50693,-2.33487 51.8351,-21.9576 92.90478,-70.33468 101.30785,-126.75229 C 462.60366,249.85316 433.8824,182.16482 380.875,146.84375 352.97808,127.26611 318.89914,115.73742 284.5,116.46875 z"
       id="path5702"
       inkscape:connector-curvature="0" />
    <path
       style="fill:none;stroke:#000000;stroke-opacity:1"
       d="m 284.46875,114.46875 c -86.61215,0.47702 -164.12277,75.65006 -169.21851,161.65236 -4.90816,75.95126 48.77714,148.96568 120.54374,171.31544 49.06309,15.94334 104.85851,6.23774 146.78075,-23.37708 41.12019,-28.1766 69.76825,-74.76631 73.00974,-125.02281 5.13751,-62.88948 -27.36826,-127.10373 -81.67822,-159.19291 -26.69927,-16.55769 -57.83863,-26.04374 -89.4375,-25.375 z"
       id="path5706"
       inkscape:connector-curvature="0" />
    <path
       style="fill:none;stroke:#000000;stroke-opacity:1"
       d="m 284.4375,112.46875 c -88.18758,0.47423 -167.1775,77.56889 -171.28125,165.34375 -4.24357,80.39661 56.03565,156.81498 133.78125,174.84375 53.27914,12.89299 111.74644,-3.06093 152.50832,-39.12064 37.48382,-32.32946 60.4206,-81.40878 58.62665,-131.2855 -1.23439,-61.74391 -37.50342,-121.41761 -92.58068,-149.57836 -24.76695,-13.33562 -52.79254,-20.82321 -81.05429,-20.203 z"
       id="path5710"
       inkscape:connector-curvature="0" />
    <path
       style="fill:none;stroke:#000000;stroke-opacity:1"
       d="m 284.40625,110.46875 c -92.44355,0.4217 -174.76366,84.2794 -173.46875,176.75 0.73211,83.93033 69.52747,160.55465 152.79431,170.55038 65.68487,8.61333 133.95788,-24.28895 169.23694,-79.83163 25.1822,-38.18234 33.43648,-87.00461 22.52277,-131.44259 C 443.15128,193.12073 404.95299,146.43399 354.4375,125 332.45427,115.26131 308.50073,109.9186 284.40625,110.46875 z"
       id="path5714"
       inkscape:connector-curvature="0" />
    <path
       style="fill:none;stroke:#000000;stroke-opacity:1"
       d="m 284.375,108.46875 c -84.59852,0.41736 -161.07654,69.89039 -173.625,152.75 -8.48155,53.15178 12.21687,108.29049 49.53125,146.09375 34.52509,36.05993 85.10307,57.21408 135.43501,53.46072 C 358.0457,456.82965 416.88188,418.18659 444.375,362.125 467.99856,315.41614 467.8346,257.90129 445.19744,210.87726 423.99625,165.06143 382.5187,129.2357 333.90625,115.3125 317.89742,110.51124 301.11706,108.08401 284.375,108.46875 z"
       id="path5718"
       inkscape:connector-curvature="0" />
    <path
       style="fill:none;stroke:#000000;stroke-opacity:1"
       d="m 284.34375,106.46875 c -88.14693,0.59178 -167.02769,74.44205 -176.53609,161.51871 -8.80804,79.12693 44.10084,157.81514 117.97359,184.54379 54.13643,20.83107 117.70857,10.00385 164.09643,-23.79796 45.37943,-31.74172 74.57783,-85.87331 74.24171,-141.63938 0.95087,-65.24957 -37.06723,-128.51801 -94.33814,-159.15641 -26.01217,-14.088 -55.73253,-22.11443 -85.4375,-21.46875 z"
       id="path5722"
       inkscape:connector-curvature="0" />
    <path
       style="fill:none;stroke:#000000;stroke-opacity:1"
       d="M 284.3125,104.46875 C 220.54514,104.82996 160.7477,143.66077 129.25,198 c -24.52163,40.92236 -31.477327,92.31251 -16.5,137.875 20.24813,64.97618 78.13993,117.22199 145.97701,127.36487 72.372,11.20239 148.72272,-26.62687 184.34323,-90.24868 28.9262,-49.2261 30.52323,-112.89852 5.62001,-164.17299 -21.91612,-46.81062 -64.46506,-83.56838 -114.3465,-97.59945 -16.20777,-4.6993 -33.11088,-7.1375 -50.03125,-6.75 z"
       id="path5726"
       inkscape:connector-curvature="0" />
    <path
       style="fill:none;stroke:#000000;stroke-opacity:1"
       d="m 284.28125,102.46875 c -88.99276,0.54551 -169.5235,74.69702 -180.09375,162.5 -8.560325,64.75368 24.32527,130.47147 76.52709,167.95294 39.78805,29.52867 92.48939,41.22617 141.09791,30.26581 57.30993,-12.04955 108.3068,-52.14819 131.625,-106.0625 24.15153,-54.43843 18.01585,-120.60285 -14.56701,-170.1916 -32.9672,-51.74023 -92.68388,-85.71527 -154.58924,-84.46465 z"
       id="path5730"
       inkscape:connector-curvature="0" />
    <path
       style="fill:none;stroke:#000000;stroke-opacity:1"
       d="m 284.25,100.46875 c -93.12295,0.52237 -176.88721,80.84223 -183,173.46875 -5.523591,76.99051 44.70623,152.03264 114.9375,181.40625 42.07111,17.93844 91.06112,18.31199 133.59164,1.70888 C 408.26204,435.2301 455.20679,383.03111 466.7856,321.16131 478.0935,264.58871 460.71911,203.4956 421.72576,161.23109 387.1019,123.11682 336.21667,99.362311 284.25,100.46875 z"
       id="path5734"
       inkscape:connector-curvature="0" />
    <path
       style="fill:none;stroke:#000000;stroke-opacity:1"
       d="m 284.21875,98.46875 c -97.20244,0.492846 -184.2061,87.1216 -185.375,184.40625 -1.355167,85.81724 64.07028,166.27884 147.5,184.15625 58.57691,13.21358 122.19511,-5.62075 165.92409,-46.08793 35.73035,-32.27563 58.382,-79.02704 59.77862,-127.44224 2.61445,-61.09981 -26.58792,-122.19741 -75.95271,-158.15733 -32.00417,-23.85886 -71.7265,-37.743804 -111.875,-36.875 z"
       id="path5738"
       inkscape:connector-curvature="0" />
    <path
       style="fill:none;stroke:#000000;stroke-opacity:1"
       d="m 284.1875,96.46875 c -87.88352,0.576311 -167.3934,70.28017 -184.13096,155.57486 -11.491423,55.94608 7.92959,115.47832 45.69346,157.33139 36.16112,41.25172 90.81355,66.44219 146.18649,63.67385 70.17598,-2.56726 136.86486,-46.83863 165.75753,-110.73411 26.64371,-56.49406 20.18705,-126.25953 -13.50652,-178.34599 -33.90845,-53.64942 -96.19178,-88.811966 -160,-87.5 z"
       id="path5742"
       inkscape:connector-curvature="0" />
    <path
       style="fill:none;stroke:#000000;stroke-opacity:1"
       d="m 284.15625,94.46875 c -62.2239,0.270898 -121.13409,35.65672 -155.6875,86 -28.55044,40.82813 -40.896767,93.53767 -29.51362,142.48582 15.72738,72.60322 75.87148,133.66874 148.95112,148.57668 67.19978,14.27569 139.77252,-12.94206 183.7414,-64.79319 34.19398,-39.37686 50.27268,-93.50377 42.84801,-145.19841 -7.41747,-61.05394 -46.38808,-116.74615 -100.77691,-145.1334 -27.4291,-14.55742 -58.40635,-22.598092 -89.5625,-21.9375 z"
       id="path5746"
       inkscape:connector-curvature="0" />
    <path
       style="fill:none;stroke:#000000;stroke-opacity:1"
       d="m 284.125,92.46875 c -88.37014,0.63556 -169.00734,69.74859 -187.271942,155.42238 -12.817242,56.094 5.164632,116.22734 41.834442,159.51512 36.22427,43.62274 92.09097,71.44968 149.40615,69.85539 C 364.75517,475.89362 438.48673,425.75399 465.67589,353.7663 489.73287,293.10506 478.3452,220.59831 438.76525,169.24638 403.04845,121.46606 344.17773,91.307481 284.125,92.46875 z"
       id="path5750"
       inkscape:connector-curvature="0" />
    <path
       style="fill:none;stroke:#000000;stroke-opacity:1"
       d="m 284.09375,90.46875 c -94.82049,0.64365 -180.59791,79.37933 -192,173.03125 -9.147313,72.07198 28.92932,145.44159 89.0625,184.40625 40.13143,26.73602 90.9718,37.6012 138.54693,28.07421 68.803,-12.83978 130.0729,-63.91141 151.3318,-131.14789 21.44184,-64.71641 4.47001,-139.9221 -41.44123,-189.89507 -36.42482,-40.57778 -90.55353,-65.557647 -145.5,-64.46875 z"
       id="path5754"
       inkscape:connector-curvature="0" />
    <path
       style="fill:none;stroke:#000000;stroke-opacity:1"
       d="M 284.0625,88.46875 C 185.89696,89.109994 97.394411,172.71052 89.375,270.0625 c -6.531919,76.05671 37.80376,151.73287 104.12331,187.65879 44.83797,24.99581 100.09901,30.57596 149.03294,14.62246 64.89226,-20.12291 119.09323,-74.4205 134.48968,-141.18913 C 493.55666,263.11381 470.06971,187.50535 418.375,140.6875 382.26249,107.40576 333.52061,87.480539 284.0625,88.46875 z"
       id="path5758"
       inkscape:connector-curvature="0" />
    <path
       style="fill:none;stroke:#000000;stroke-opacity:1"
       d="M 284.03125,86.46875 C 180.64769,87.027266 87.817545,179.14427 86.75,282.5 c -1.141681,83.49458 56.24001,162.62345 134.5625,189.9375 46.75963,16.67516 99.7442,13.91124 144.7363,-6.8693 59.46797,-26.65834 105.92307,-82.80089 115.7297,-147.93135 11.82821,-71.47141 -18.85594,-148.08614 -77.10644,-190.99124 -34.3553,-25.96305 -77.3011,-41.057939 -120.64081,-40.17686 z"
       id="path5762"
       inkscape:connector-curvature="0" />
    <path
       style="fill:none;stroke:#000000;stroke-opacity:1"
       d="M 284,84.46875 C 189.11222,85.08413 102.97806,161.66384 87.268896,254.42318 75.861847,319.53583 102.96797,387.88306 150.9375,431.9375 c 40.86304,38.70386 98.88492,58.73395 155.15625,52.21875 81.91518,-8.49806 156.03209,-71.35351 174.89156,-151.94067 C 499.67135,255.66027 468.10527,169.70285 404.25,123.8125 369.77483,98.336202 327.07481,83.585065 284,84.46875 z"
       id="path5766"
       inkscape:connector-curvature="0" />
    <path
       style="fill:none;stroke:#000000;stroke-opacity:1"
       d="m 283.96875,82.46875 c -100.10708,0.599684 -190.470252,85.09823 -200.40625,184 -7.998133,80.14551 38.68177,160.73619 109.1875,197.78125 50.74219,27.40471 113.89352,30.56594 167.14833,8.38137 C 424.65604,446.65728 476.30491,386.32605 486.15625,316.25 497.82033,239.97139 462.12244,158.20554 397.125,116.34375 363.92545,94.299682 324.1046,81.625336 283.96875,82.46875 z"
       id="path5770"
       inkscape:connector-curvature="0" />
    <path
       style="fill:none;stroke:#000000;stroke-opacity:1"
       d="M 283.9375,80.46875 C 179.40396,81.078008 85.267451,172.32661 80.825062,276.78 77.205204,364.42441 136.42958,449.19848 218.57306,477.85434 271.82189,497.03222 333.18609,491.76863 382.47237,464.17874 440.77687,432.60339 483.96632,372.38871 489.5,305.65625 496.83414,228.76016 457.65081,149.0883 390.98923,110.07433 358.94752,90.649667 321.62103,79.684228 283.9375,80.46875 z"
       id="path5774"
       inkscape:connector-curvature="0" />
    <path
       style="fill:none;stroke:#000000;stroke-opacity:1"
       d="M 283.90625,78.46875 C 189.13994,79.083528 102.78296,153.24813 82.90625,245 69.11917,306.79436 89.756286,373.10714 131,420.03125 c 37.10144,43.43269 93.21126,70.81853 150.78097,71.21102 69.36118,1.74107 136.92291,-35.15622 175.65653,-91.99227 27.63098,-39.4555 39.63281,-89.21211 33.40625,-137.09375 C 482.74106,195.29938 441.47262,132.6917 381.01803,102.1498 351.29862,86.412041 317.70058,77.766033 283.90625,78.46875 z"
       id="path5778"
       inkscape:connector-curvature="0" />
    <path
       style="fill:none;stroke:#000000;stroke-opacity:1"
       d="M 283.875,76.46875 C 182.50127,77.117385 90.573575,161.22263 78.087807,261.29606 68.492069,338.0945 108.29329,416.64495 171.9375,458.90625 c 46.34486,31.3025 105.94599,42.2036 160.38227,28.90825 C 410.45863,469.44379 476.32767,404.02653 490.9301,324.45385 507.85798,237.67289 462.98646,142.83621 384.75,101.8125 353.98503,85.132922 319.03769,75.673786 283.875,76.46875 z"
       id="path5782"
       inkscape:connector-curvature="0" />
    <path
       style="fill:none;stroke:#000000;stroke-opacity:1"
       d="m 283.84375,74.46875 c -104.83888,0.646307 -199.689433,89.81072 -208.5,193.875 C 67.384792,361.53818 129.93972,454.33441 218.0625,484.0625 271.55147,502.84306 332.544,497.86368 382.375,471.125 441.96575,439.94562 486.88771,379.98519 494.90625,312.46875 506.10647,225.30404 457.65454,133.60385 378.0549,96.105573 348.9444,81.741067 316.46696,73.731412 283.84375,74.46875 z"
       id="path5786"
       inkscape:connector-curvature="0" />
    <path
       style="fill:none;stroke:#000000;stroke-opacity:1"
       d="m 283.8125,72.46875 c -108.77892,0.612631 -206.967325,95.87118 -211,204.5 -3.668169,93.71678 61.95492,184.60057 151.56055,211.29876 60.06111,18.78643 128.24282,7.82104 179.79105,-27.84566 53.37792,-35.86013 90.7456,-96.2544 93.99015,-161.10752 C 503.28936,214.8065 454.3473,128.9351 377.13254,93.419791 348.19995,79.484825 316.08925,71.752367 283.8125,72.46875 z"
       id="path5790"
       inkscape:connector-curvature="0" />
    <path
       style="fill:none;stroke:#000000;stroke-opacity:1"
       d="M 283.78125,70.46875 C 185.614,71.165189 96.185179,147.57436 75.227126,242.47762 c -14.348732,63.29807 5.922397,131.34389 47.473584,180.17197 36.06985,43.57142 89.99393,72.38538 146.76252,76.12393 60.78591,4.70496 122.36129,-18.40888 165.73161,-60.93768 42.7354,-40.80694 68.37872,-99.92952 65.13259,-159.42846 C 497.09627,198.16097 446.77338,120.66298 372.46875,89.03125 344.71084,76.611785 314.29543,69.780949 283.78125,70.46875 z"
       id="path5794"
       inkscape:connector-curvature="0" />
    <path
       style="fill:none;stroke:#000000;stroke-opacity:1"
       d="M 283.75,68.46875 C 180.29378,69.145312 86.192014,153.47875 70.822956,255.11432 58.3089,337.33677 100.84217,422.627 169.77675,467.13749 219.32791,499.93736 283.10059,509.81979 340.46875,494 415.88511,474.1828 478.3325,411.78234 496.77908,335.74995 517.90696,250.84328 480.02321,156.39426 408.83466,106.96117 372.4731,82.072481 328.07483,67.579599 283.75,68.46875 z"
       id="path5798"
       inkscape:connector-curvature="0" />
    <path
       style="fill:none;stroke:#000000;stroke-opacity:1"
       d="m 283.71875,66.46875 c -109.08333,0.717018 -207.765183,93.5448 -216.46875,202 -6.822551,87.95954 45.5129,174.98694 124.24263,213.3757 57.5583,28.48576 127.9954,28.47286 185.75737,0.90555 C 447.23641,450.22919 499.24848,379.35813 504.125,301.65625 510.18101,213.80115 459.36551,124.45814 379.15625,87.625 349.53721,73.546503 316.63522,65.802357 283.71875,66.46875 z"
       id="path5802"
       inkscape:connector-curvature="0" />
    <path
       style="fill:none;stroke:#000000;stroke-opacity:1"
       d="M 283.6875,64.46875 C 183.324,65.204963 91.574973,142.95705 69.618191,239.95002 c -16.434945,70.67374 9.025077,146.86885 58.854629,198.17854 40.17921,42.43154 98.03186,67.79254 156.80843,67.18394 68.40608,0.53561 135.02871,-33.74726 176.12817,-87.83333 C 494.76719,374.85318 511.5346,319.5685 505.48668,265.4745 497.61859,187.45734 446.95229,113.95195 374.34375,83.21875 345.90777,70.659635 314.85071,63.840196 283.6875,64.46875 z"
       id="path5806"
       inkscape:connector-curvature="0" />
    <path
       style="fill:none;stroke:#000000;stroke-opacity:1"
       d="M 283.65625,62.46875 C 177.94354,63.304608 81.883752,148.52186 65.163247,252.27005 51.346022,337.6501 95.489097,426.97898 167.4375,472.875 220.22055,507.2623 288.49492,516.62189 348.75,497.96875 426.31279,474.84531 489.07274,407.76626 504.66487,328.01942 524.2461,231.55323 470.80297,125.9456 381.9375,84.40625 351.32746,69.977481 317.64729,61.729158 283.65625,62.46875 z"
       id="path5810"
       inkscape:connector-curvature="0" />
    <path
       style="fill:none;stroke:#000000;stroke-opacity:1"
       d="m 283.625,60.46875 c -111.38479,0.756372 -212.411328,94.9558 -222.21875,205.6875 -8.076166,93.12813 48.88329,186.32342 133.6875,224.0625 58.77835,26.55114 129.32158,25.40742 187.15407,-3.14613 C 448.97841,454.96624 499.4652,388.9477 508.9375,314.65625 521.61444,218.14765 464.92973,116.78687 375.1387,79.130704 346.35839,66.76313 315.07216,59.774804 283.625,60.46875 z"
       id="path5814"
       inkscape:connector-curvature="0" />
    <path
       style="fill:none;stroke:#000000;stroke-opacity:1"
       d="M 283.59375,58.46875 C 181.11259,59.243188 87.255779,138.15594 64.105761,236.9784 c -17.951314,74.46668 9.592612,155.31605 63.101349,208.54121 41.86565,42.77374 101.80583,67.24885 161.85539,65.79289 69.51713,-0.54632 136.68676,-36.25164 178.10144,-91.45517 35.51531,-45.95384 52.19269,-106.33337 43.21717,-164.05706 C 499.08328,176.89658 445.44113,104.04066 370.46875,75.03125 342.94211,63.969119 313.35312,57.810686 283.59375,58.46875 z"
       id="path5818"
       inkscape:connector-curvature="0" />
    <path
       style="fill:none;stroke:#000000;stroke-opacity:1"
       d="M 283.5625,56.46875 C 176.522,57.272164 78.844391,142.57437 59.90625,247.15625 c -16.245753,89.28125 29.571247,183.87702 105.4375,231.625 59.25199,37.93268 136.90926,45.30303 202.26845,19.05173 C 443.8542,468.3454 502.75866,396.45233 512.90812,314.82058 525.84792,217.32717 468.4644,114.87827 378.21875,76.03125 348.44851,63.212995 316.17325,55.697134 283.5625,56.46875 z"
       id="path5822"
       inkscape:connector-curvature="0" />
    <path
       style="fill:none;stroke:#000000;stroke-opacity:1"
       d="M 283.53125,54.46875 C 170.54737,55.297812 67.905629,149.54997 55.790587,261.51672 45.494641,358.6044 104.70107,457.36499 193.53125,496.15625 254.73063,523.29569 328.17046,521.7028 387.75,491.09375 459.99587,455.21875 512.5573,380.17612 516.40625,298.875 521.74228,202.37072 461.12113,105.08847 370.5,70.6875 342.86573,59.937698 313.28349,53.748207 283.53125,54.46875 z"
       id="path5826"
       inkscape:connector-curvature="0" />
    <path
       inkscape:connector-curvature="0"
       id="path5830"
       d="M 283.53125,54.46875 C 170.54737,55.297812 67.905629,149.54997 55.790587,261.51672 45.494641,358.6044 104.70107,457.36499 193.53125,496.15625 254.73063,523.29569 328.17046,521.7028 387.75,491.09375 459.99587,455.21875 512.5573,380.17612 516.40625,298.875 521.74228,202.37072 461.12113,105.08847 370.5,70.6875 342.86573,59.937698 313.28349,53.748207 283.53125,54.46875 z"
       style="fill:none;stroke:#000000;stroke-opacity:1" />
  </g>
</svg>
