<?xml version="1.0" encoding="UTF-8" standalone="no"?>
<!-- Created with Inkscape (http://www.inkscape.org/) -->

<svg
   xmlns:dc="http://purl.org/dc/elements/1.1/"
   xmlns:cc="http://creativecommons.org/ns#"
   xmlns:rdf="http://www.w3.org/1999/02/22-rdf-syntax-ns#"
   xmlns:svg="http://www.w3.org/2000/svg"
   xmlns="http://www.w3.org/2000/svg"
   xmlns:sodipodi="http://sodipodi.sourceforge.net/DTD/sodipodi-0.dtd"
   xmlns:inkscape="http://www.inkscape.org/namespaces/inkscape"
   sodipodi:docname="letter sized frame blank.svg"
   inkscape:version="0.48.2 r9819"
   version="1.1"
   id="svg3783"
   height="1052.3622047"
   width="744.09448819">
  <sodipodi:namedview
     id="base"
     pagecolor="#ffffff"
     bordercolor="#666666"
     borderopacity="1.0"
     inkscape:pageopacity="0.0"
     inkscape:pageshadow="2"
     inkscape:zoom="0.35"
     inkscape:cx="190.70394"
     inkscape:cy="753.54305"
     inkscape:document-units="px"
     inkscape:current-layer="layer1"
     showgrid="false"
     inkscape:window-width="1024"
     inkscape:window-height="748"
     inkscape:window-x="10"
     inkscape:window-y="-16"
     inkscape:window-maximized="0" />
  <defs
     id="defs3785">
    <inkscape:perspective
       sodipodi:type="inkscape:persp3d"
       inkscape:vp_x="-314.90439 : 155.3937 : 0"
       inkscape:vp_y="0 : 1000 : 0"
       inkscape:vp_z="372.04724 : 175.3937 : 0"
       inkscape:persp3d-origin="334.90438 : 296.50168 : 1"
       id="perspective3823" />
  </defs>
  <metadata
     id="metadata3788">
    <rdf:RDF>
      <cc:Work
         rdf:about="">
        <dc:format>image/svg+xml</dc:format>
        <dc:type
           rdf:resource="http://purl.org/dc/dcmitype/StillImage" />
        <dc:title></dc:title>
      </cc:Work>
    </rdf:RDF>
  </metadata>
  <g
     inkscape:label="Layer 1"
     inkscape:groupmode="layer"
     id="layer1">
    <flowRoot
       xml:space="preserve"
       id="flowRoot3475"
       style="fill:black;stroke:none;stroke-opacity:1;stroke-width:1px;stroke-linejoin:miter;stroke-linecap:butt;fill-opacity:1;font-family:Sans;font-style:normal;font-weight:normal;font-size:40px;line-height:125%;letter-spacing:0px;word-spacing:0px"><flowRegion
         id="flowRegion3477"><rect
           id="rect3479"
           width="474.7717"
           height="76.771591"
           x="40.406101"
           y="840.23016" /></flowRegion><flowPara
         id="flowPara3481" /></flowRoot>    <rect
       style="fill:none;stroke:#000000;stroke-width:0.91610378;stroke-opacity:1"
       id="rect4319"
       width="516.12524"
       height="779.49591"
       x="7.8454075"
       y="12.284647" />
    <g
       id="g6222"
       transform="matrix(0.67758326,0,0,0.67758326,29.433526,177.87254)">
      <path
         sodipodi:nodetypes="cccccccccccsscccccccccccccccccccccccscccccccccccccccccccccccccccccccccccccccccscccccccsscccccccccssccccccccccccccsccsscsc"
         inkscape:connector-curvature="0"
         id="path5726"
         d="m 57.0625,69.09375 0,33.9375 c -1.760314,-0.0437 -3.571743,-0.0625 -5.5,-0.0625 l -46.53125,0 0,135 6.46875,0 0,12.84375 33.3125,0 0,52.53125 29,0 0,32.96875 48.71875,0 c 8.16481,0 15.39492,-0.74649 21.6875,-2.28125 6.29238,-1.53475 11.67411,-3.80382 16.125,-6.78125 4.45065,-2.97743 8.5363,-7.06248 12.28125,-12.25 3.74466,-5.18744 6.82445,-11.73684 9.21875,-19.65625 2.39412,-7.91927 3.59365,-16.99776 3.59375,-27.25 -1e-5,-1.21997 -0.0262,-2.43248 -0.0625,-3.625 1.13998,-5.95989 1.71868,-12.45907 1.71875,-19.53125 -1e-4,-12.03239 -1.75144,-22.73163 -5.28125,-32.09375 -3.5301,-9.3619 -8.8788,-17.04612 -16,-23.0625 -3.07847,-2.62869 -6.51774,-4.7907 -10.3125,-6.5 0.1246,-0.16911 0.25117,-0.32847 0.375,-0.5 3.74466,-5.18743 6.7932,-11.73684 9.1875,-19.65625 2.39412,-7.91927 3.59365,-17.02901 3.59375,-27.28125 -1e-4,-12.03239 -1.75144,-22.73163 -5.28125,-32.09375 -3.5301,-9.361896 -8.84755,-17.04612 -15.96875,-23.0625 -5.46381,-4.66551 -12.07744,-7.87581 -19.8125,-9.65625 -5.52525,-1.28906 -13.53357,-1.93736 -24.03125,-1.9375 z m 17.875,15.9375 28.34375,0 c 10.62041,1.4e-4 18.33649,0.90841 23.125,2.75 6.63006,2.57851 12.2712,7.668414 16.90625,15.25 4.63486,7.58178 6.9374,18.44278 6.9375,32.5625 -1e-4,10.19084 -1.16783,18.84806 -3.53125,26 -2.36361,7.15198 -5.6704,12.85785 -9.90625,17.09375 -0.0259,0.0259 -0.0677,0.0367 -0.0937,0.0625 -1.09108,-0.096 -2.22106,-0.17847 -3.40625,-0.25 -3.19415,-2.43443 -6.74948,-4.40876 -10.65625,-5.9375 -0.72285,-8.02841 -2.32814,-15.39034 -4.84375,-22.0625 -1.67348,-4.43812 -3.73824,-8.50124 -6.21875,-12.1875 -0.0834,-0.22831 -0.16451,-0.46076 -0.25,-0.6875 -3.5301,-9.3619 -8.84755,-17.04612 -15.96875,-23.0625 -5.46381,-4.66551 -12.04619,-7.87581 -19.78125,-9.65625 -0.208208,-0.0486 -0.44099,-0.10949 -0.65625,-0.15625 z M 29.375,131.75 l 27.6875,0 0,36.59375 -12.25,0 0,53.6875 -15.4375,0 z m 45.5625,1.21875 c 2.291848,0.4156 4.282222,0.93792 5.90625,1.5625 5.509263,2.14262 10.337006,5.9966 14.46875,11.59375 1.884159,6.17413 2.869359,13.61428 2.9375,22.34375 -2.181784,-0.0704 -4.484122,-0.12497 -6.9375,-0.125 l -16.375,0 z m 0,51.3125 0.5625,0 0,3.875 -0.5625,0 z m 74.625,15 c 4.04982,2.52358 7.66301,6.11412 10.84375,10.8125 -2.56924,-1.74032 -5.35227,-3.22779 -8.34375,-4.4375 -0.29569,-0.88673 -0.61175,-1.76101 -0.9375,-2.625 -0.48335,-1.28184 -1.01183,-2.53088 -1.5625,-3.75 z m -19.3125,1.75 c 0.11606,0.17813 0.22894,0.35003 0.34375,0.53125 -0.6144,-0.0326 -1.2963,-0.0672 -1.9375,-0.0937 0.53896,-0.14207 1.06882,-0.28443 1.59375,-0.4375 z m -67.5625,3.0625 11.125,0 0,15.03125 c -0.370355,0.13833 -0.738136,0.27964 -1.125,0.40625 -2.757806,0.90256 -6.099404,1.55395 -10,1.96875 z m 54.25,13.15625 3.125,0 c 6.72092,9e-5 12.24538,0.38197 16.625,1.125 0.86529,4.88019 1.31246,10.36802 1.3125,16.46875 -1e-4,10.19084 -1.16783,18.84806 -3.53125,26 -2.36361,7.15198 -5.6704,12.85786 -9.90625,17.09375 -3.00821,3.00817 -7.06039,5.34248 -12.125,7 -4.70557,1.54003 -11.0763,2.32833 -19.09375,2.4375 l 0,-42.9375 c 1.655186,-0.82038 3.229834,-1.71239 4.6875,-2.6875 4.45065,-2.97743 8.5363,-7.06248 12.28125,-12.25 2.50627,-3.47191 4.7236,-7.5543 6.625,-12.25 z m 39.375,12.65625 c 1.32079,1.61324 2.56127,3.39934 3.75,5.34375 4.18426,6.84468 6.46812,16.35808 6.875,28.53125 -0.50001,2.4355 -1.09972,4.74932 -1.8125,6.90625 -2.36361,7.15198 -5.6704,12.8266 -9.90625,17.0625 -3.00821,3.00817 -7.02914,5.34247 -12.09375,7 -4.27661,1.39963 -9.92795,2.21669 -16.9375,2.4375 1.83136,-0.88167 3.5301,-1.83934 5.125,-2.90625 4.45065,-2.97743 8.56755,-7.06247 12.3125,-12.25 3.74466,-5.18743 6.7932,-11.73684 9.1875,-19.65625 2.39412,-7.91927 3.59365,-16.99776 3.59375,-27.25 -1e-5,-1.76538 -0.0178,-3.51085 -0.0937,-5.21875 z M 73.8125,250 l 0,37.40625 -11.125,0 0,-36.625 c 3.936905,-0.0771 7.644433,-0.33002 11.125,-0.78125 z m 83.09375,57 c -1.0411,1.41808 -2.15526,2.71774 -3.34375,3.90625 -3.00821,3.00816 -7.02914,5.34248 -12.09375,7 -5.06475,1.65758 -12.06721,2.50005 -20.96875,2.5 l -28.8125,0 0,-7.21875 32.5,0 c 8.16481,0 15.39492,-0.77775 21.6875,-2.3125 4.06125,-0.99057 7.73413,-2.27962 11.03125,-3.875 z"
         style="font-size:40px;font-style:normal;font-weight:normal;line-height:125%;letter-spacing:0px;word-spacing:0px;fill:none;stroke:#000000;stroke-width:4.71477556;stroke-opacity:1;font-family:Sans" />
      <path
         sodipodi:nodetypes="csccssscsscssssccssccccccsscccccccccssccccscccssccscssscccccsscccsscscccccccscscssccccsscscccscscscsscc"
         inkscape:connector-curvature="0"
         id="path5746"
         d="m 315.11602,31.71875 c -19.03105,1.4e-4 -34.56132,6.35426 -46.59375,19.03125 -3.63676,3.8316 -6.71243,8.123283 -9.25,12.84375 -6.2203,-1.879802 -12.81331,-2.843671 -19.8125,-2.84375 -19.03105,1.4e-4 -34.56132,6.32301 -46.59375,19 -12.03254,12.67718 -18.0625,30.21761 -18.0625,52.625 0,11.84837 2.59322,23.0983 7.75,33.71875 4.62607,9.5276 11.22005,17.23762 19.75,23.15625 -3.78284,9.5048 -5.6875,20.52991 -5.6875,33.09375 0,11.84837 2.59322,23.0983 7.75,33.71875 0.37725,0.77697 0.78412,1.52836 1.1875,2.28125 -0.64813,4.67638 -1,9.612 -1,14.8125 0,11.84837 2.59322,23.06704 7.75,33.6875 5.15674,10.62055 12.74336,18.98594 22.75,25.125 10.00654,6.13901 21.35462,9.21875 34.0625,9.21875 3.6428,0 7.19873,-0.27626 10.6875,-0.8125 0.0205,0.002 0.042,-0.002 0.0625,0 2.6972,0.30271 5.45184,0.46875 8.28125,0.46875 11.72545,0 22.65175,-2.75666 32.78125,-8.3125 10.12927,-5.5558 17.94351,-13.75779 23.46875,-24.5625 5.52501,-10.80461 8.28111,-23.02869 8.28125,-36.71875 -1.4e-4,-13.5058 -2.62623,-25.59871 -7.875,-36.25 -4.63351,-9.40223 -11.09671,-16.97596 -19.4375,-22.71875 -0.88665,-10.11443 -3.38019,-19.35845 -7.5,-27.71875 -2.45702,-4.98574 -5.43725,-9.44788 -8.9375,-13.40625 1.99997,0.16317 4.02198,0.25 6.09375,0.25 11.72545,0 22.65175,-2.75665 32.78125,-8.3125 10.12927,-5.5558 17.97476,-13.75779 23.5,-24.5625 5.52501,-10.80461 8.28111,-23.02869 8.28125,-36.71875 -1.4e-4,-13.505802 -2.62623,-25.59871 -7.875,-36.25 -5.24896,-10.6511 -12.8685,-18.9513 -22.875,-24.90625 -10.00673,-5.95476 -21.25661,-8.93736 -33.71875,-8.9375 z m 0.0937,15.375 c 8.90155,1.5e-4 16.94172,2.26916 24.09375,6.78125 7.15189,4.51228 12.567,10.86699 16.28125,19.0625 3.71397,8.19569 5.56236,17.792478 5.5625,28.78125 -1.4e-4,17.37353 -4.34461,30.79593 -13.03125,40.25 -8.68679,9.45411 -19.74313,14.1563 -33.1875,14.15625 -5.01141,2e-5 -9.69273,-0.68164 -14.0625,-2.03125 2.03175,-7.2353 3.06241,-14.99395 3.0625,-23.28125 -1.4e-4,-13.5058 -2.62623,-25.56746 -7.875,-36.21875 -4.92739,-9.998583 -11.97139,-17.921348 -21.09375,-23.78125 2.02951,-4.207934 4.54398,-7.78147 7.59375,-10.6875 9.11644,-8.6866 20.00981,-13.0311 32.65625,-13.03125 z M 239.55357,76.125 c 4.9368,8.3e-5 9.60622,0.67966 14,2.0625 -2.0385,7.574463 -3.09375,15.964582 -3.09375,25.1875 0,11.84837 2.59322,23.06705 7.75,33.6875 2.50793,5.16521 5.59492,9.80105 9.25,13.90625 -2.03139,-0.16881 -4.0869,-0.24998 -6.1875,-0.25 -19.03105,1.4e-4 -34.56132,6.32301 -46.59375,19 -1.55027,1.63332 -3.02447,3.36141 -4.375,5.15625 -1.37104,-1.1669 -2.69299,-2.41595 -3.96875,-3.78125 -8.74817,-9.36199 -13.09375,-22.16903 -13.09375,-38.4375 0,-20.32012 4.53976,-34.81317 13.65625,-43.5 9.11644,-8.6866 20.00981,-13.0311 32.65625,-13.03125 z m 30.4375,11.6875 c 4.10614,3.865096 7.41759,8.564807 9.9375,14.125 3.71397,8.19569 5.56236,17.79248 5.5625,28.78125 -4e-5,4.91495 -0.36673,9.50054 -1.0625,13.78125 -0.82524,-0.76825 -1.61722,-1.56184 -2.40625,-2.40625 -8.74817,-9.36199 -13.125,-22.16903 -13.125,-38.4375 0,-5.75149 0.3634,-11.024252 1.09375,-15.84375 z m -8.625,78.28125 c 4.76411,8e-5 9.26828,0.64504 13.53125,1.9375 -0.77641,1.01617 -1.57559,1.99945 -2.4375,2.9375 -8.68679,9.45411 -19.74313,14.18754 -33.1875,14.1875 -5.02135,2e-5 -9.71355,-0.67279 -14.09375,-2.03125 1.09699,-1.44301 2.25582,-2.78468 3.53125,-4 9.11644,-8.6866 20.00981,-13.0311 32.65625,-13.03125 z m 28.8125,10.25 c 4.86094,4.11626 8.71789,9.28585 11.5625,15.5625 1.5981,3.52657 2.84135,7.33032 3.75,11.375 -3.7063,-0.94989 -7.53382,-1.59343 -11.5,-1.90625 -5.301,-1.30785 -10.84722,-1.96868 -16.6875,-1.96875 -7.91982,6e-5 -15.22972,1.11703 -21.9375,3.3125 -12.86532,2.3992 -23.77664,8.3272 -32.75,17.78125 -2.72981,2.87606 -5.1395,6.02939 -7.25,9.40625 -0.20776,-2.3407 -0.3125,-4.77602 -0.3125,-7.28125 0,-9.83416 1.05225,-18.29683 3.1875,-25.40625 6.56773,2.14984 13.60996,3.21875 21.125,3.21875 11.72545,0 22.65175,-2.7879 32.78125,-8.34375 7.16876,-3.93198 13.17236,-9.19174 18.03125,-15.75 z m -12.3125,41.28125 c 5.56186,1.00014 10.71971,3.01545 15.5,6.03125 5.06515,3.19571 9.28413,7.30059 12.625,12.34375 -1.88028,10.15949 -5.78343,18.47781 -11.71875,24.9375 -8.68679,9.45411 -19.74313,14.18755 -33.1875,14.1875 -6.98097,3e-5 -13.33039,-1.3447 -19.0625,-3.96875 0.28488,-19.30043 4.83414,-33.18743 13.65625,-41.59375 6.49546,-6.1892 13.89653,-10.1577 22.1875,-11.9375 z m 36.875,44.625 c 0.31532,2.96464 0.49996,6.01699 0.5,9.21875 -1.4e-4,17.37353 -4.34461,30.79593 -13.03125,40.25 -4.88747,5.31919 -10.54281,9.14012 -16.9375,11.46875 -2.61741,0.41828 -5.32835,0.62501 -8.15625,0.625 -0.74141,0 -1.49138,-0.002 -2.21875,-0.0312 -7.52531,-2.13134 -14.12286,-6.19448 -19.78125,-12.25 -5.83258,-6.24182 -9.71238,-14.03188 -11.65625,-23.34375 5.58308,1.4807 11.48298,2.21875 17.71875,2.21875 11.72545,0 22.65175,-2.7879 32.78125,-8.34375 8.59658,-4.71513 15.50365,-11.31881 20.78125,-19.8125 z"
         style="font-size:40px;font-style:normal;font-weight:normal;line-height:125%;letter-spacing:0px;word-spacing:0px;fill:none;stroke:#000000;stroke-width:4.71477556;stroke-opacity:1;font-family:Sans" />
      <path
         sodipodi:nodetypes="ccccccccccccccccccccccccccccccccccccccccccccc"
         inkscape:connector-curvature="0"
         id="path5855"
         d="m 453.62054,-4.2410715 0,135.0000015 17.125,0 0,-106.093751 70.90625,106.093751 18.3125,0 0,-135.0000015 -17.125,0 0,106.0000015 -70.90625,-106.0000015 z m -65.0625,115.5000015 0,36 -3.3125,0 0,53.34375 -15.03125,0 0,135 17.125,0 0,-53.34375 15.03125,0 0,-30.25 55.875,83.59375 18.3125,0 0,-53.34375 15.03125,0 0,-36 3.34375,0 0,-135 -17.125,0 0,36 -3.34375,0 0,53.34375 -7.8125,0 -59.75,-89.34375 z m 17.15625,28.9375 53.71875,80.34375 0,10.25 -53.71875,-80.3125 z m 0,40.96875 53.71875,80.375 0,45.03125 -53.71875,-80.28125 z"
         style="font-size:40px;font-style:normal;font-weight:normal;line-height:125%;letter-spacing:0px;word-spacing:0px;fill:none;stroke:#000000;stroke-width:4.71477556;stroke-opacity:1;font-family:Sans" />
      <path
         sodipodi:nodetypes="cccccccccccccccccccccccccccccccccccccccccccccccccccccccccccccccccccccccccc"
         inkscape:connector-curvature="0"
         id="path5903"
         d="m 603.41965,36.90625 0,6.15625 -22.375,0 0,15.9375 44.46875,0 0,74.9375 -37.96875,0 0,15.90625 37.96875,0 0,5.4375 -80.75,0 0,15.9375 44.5,0 0,28.28125 -83.875,0 0,15.90625 26.65625,0 0,11.625 17.84375,0 0,37.84375 -56.34375,0 0,15.9375 44.46875,0 0,119.0625 17.875,0 0,-65.40625 11.84375,0 0,-53.65625 8.78125,0 0,65.28125 17.875,0 0,-55.8125 12.71875,0 0,-63.25 8.0625,0 0,118.09375 17.84375,0 0,-76.1875 16.875,0 0,-42.875 27.78125,0 0,-15.9375 -27.78125,0 0,-38.21875 15.875,0 0,-22.0625 28.78125,0 0,-15.90625 -28.78125,0 0,-74.9375 22.28125,0 0,-6.15625 22.375,0 0,-15.9375 z M 643.3884,59 l 4.53125,0 0,74.9375 -4.53125,0 z m -36.28125,112.21875 18.40625,0 0,6.84375 6.5,0 0,32.0625 -19.625,0 0,-10.625 -5.28125,0 z m -39.375,55.8125 8.78125,0 0,37.84375 -8.78125,0 z"
         style="font-size:40px;font-style:normal;font-weight:normal;line-height:125%;letter-spacing:0px;word-spacing:0px;fill:none;stroke:#000000;stroke-width:4.71477556;stroke-opacity:1;font-family:Sans" />
      <path
         sodipodi:nodetypes="ccccccssccccccccccccccccccccccccscccccccsccccccccccccscccccccccsscccccssccssc"
         inkscape:connector-curvature="0"
         id="path5929"
         d="m 146.34375,342.33482 0,135 38.125,0 0,1.8125 -10.65625,0 0,135 48.71875,0 c 8.16486,0 15.39492,-0.77774 21.6875,-2.3125 6.29243,-1.53475 11.64286,-3.80382 16.09375,-6.78125 4.4507,-2.97743 8.5676,-7.03122 12.3125,-12.21875 3.74471,-5.18743 6.79314,-11.76809 9.1875,-19.6875 2.39406,-7.91927 3.59361,-16.99776 3.59375,-27.25 -10e-6,-0.68849 -0.0197,-1.35151 -0.0312,-2.03125 2.79513,-4.59601 5.17152,-10.04842 7.09375,-16.40625 2.39406,-7.91927 3.59361,-16.99776 3.59375,-27.25 -1.4e-4,-12.03239 -1.75144,-22.73163 -5.28125,-32.09375 -3.53005,-9.3619 -8.87885,-17.04612 -16,-23.0625 -5.46386,-4.66551 -12.04614,-7.90706 -19.78125,-9.6875 -0.10815,-0.0252 -0.23369,-0.0378 -0.34375,-0.0625 2.18825,-7.67093 3.28112,-16.41754 3.28125,-26.21875 -1.4e-4,-12.03239 -1.75144,-22.73163 -5.28125,-32.09375 -3.53005,-9.3619 -8.87885,-17.04612 -16,-23.0625 -5.46386,-4.66551 -12.04614,-7.87581 -19.78125,-9.65625 -5.5252,-1.28906 -13.53357,-1.93736 -24.03125,-1.9375 l -46.5,0 z m 17.84375,15.9375 28.375,0 c 10.62045,1.4e-4 18.33649,0.90841 23.125,2.75 6.63006,2.57851 12.2399,7.66841 16.875,15.25 4.63486,7.58178 6.96861,18.44278 6.96875,32.5625 -1.3e-4,9.5824 -1.0648,17.79345 -3.15625,24.6875 -1.73228,-0.042 -3.51208,-0.0625 -5.40625,-0.0625 l -46.5,0 0,27.9375 -20.28125,0 z m 38.125,91.09375 26.0625,0 c -0.73121,0.90379 -1.48199,1.76323 -2.28125,2.5625 -3.00826,3.00817 -7.06039,5.34248 -12.125,7 -3.1439,1.02892 -7.03751,1.73991 -11.65625,2.125 z m 46.15625,1.34375 c 2.04543,0.39397 3.82776,0.86649 5.3125,1.4375 6.63006,2.57851 12.27115,7.63716 16.90625,15.21875 4.63486,7.58178 6.96861,18.44278 6.96875,32.5625 -4e-5,2.68545 -0.0841,5.27383 -0.25,7.75 -3.35725,-6.6382 -7.75268,-12.29303 -13.25,-16.9375 -5.46386,-4.66551 -12.07739,-7.87581 -19.8125,-9.65625 -5.5252,-1.28906 -13.53357,-1.93736 -24.03125,-1.9375 l -18,0 0,-2.03125 c 5.24515,-0.32997 10.0497,-1.03119 14.40625,-2.09375 6.29243,-1.53475 11.67411,-3.77258 16.125,-6.75 4.4507,-2.97743 8.5676,-7.06247 12.3125,-12.25 1.17661,-1.62992 2.27206,-3.41341 3.3125,-5.3125 z m -46.15625,44.375 17.71875,0 c 10.62045,1.4e-4 18.33649,0.90841 23.125,2.75 6.63006,2.57851 12.27115,7.66841 16.90625,15.25 3.99318,6.53212 6.25957,15.48993 6.8125,26.875 -0.85398,1.09128 -1.7405,2.11548 -2.6875,3.0625 -3.00826,3.00817 -7.02914,5.34247 -12.09375,7 -5.0648,1.65757 -12.036,2.50004 -20.9375,2.5 l -28.84375,0 z m 63.40625,67.25 c -0.56699,3.34205 -1.30585,6.45541 -2.25,9.3125 -2.36361,7.15198 -5.67045,12.82661 -9.90625,17.0625 -3.00826,3.00817 -7.06039,5.34248 -12.125,7 -5.0648,1.65758 -12.036,2.50005 -20.9375,2.5 l -28.8125,0 0,-29.75 41.46875,0 c 8.16486,0 15.39492,-0.77775 21.6875,-2.3125 3.99963,-0.97553 7.61644,-2.25028 10.875,-3.8125 z"
         style="font-size:40px;font-style:normal;font-weight:normal;line-height:125%;letter-spacing:0px;word-spacing:0px;fill:none;stroke:#000000;stroke-width:4.71477556;stroke-opacity:1;font-family:Sans" />
      <path
         sodipodi:nodetypes="ccccccccccccccccccccccccccc"
         inkscape:connector-curvature="0"
         id="path6103"
         d="m 359.95089,348.50447 0,9.5625 -8.3125,0 0,135 17.875,0 0,-9.5625 8.3125,0 0,-135 z m -54.375,2.53125 0,135 17.1875,0 0,81.25 8.25,0 0,73.8125 17.875,0 0,-135 -8.25,0 0,-73.8125 -17.1875,0 0,-81.25 z m 55.5,164.5625 0,135 17.875,0 0,-135 z"
         style="font-size:40px;font-style:normal;font-weight:normal;line-height:125%;letter-spacing:0px;word-spacing:0px;fill:none;stroke:#000000;stroke-width:4.71477556;stroke-opacity:1;font-family:Sans" />
      <path
         sodipodi:nodetypes="ccccccccccccccccccccccccccccccccccccccccccccccccccccccccccccccccc"
         inkscape:connector-curvature="0"
         id="path6188"
         d="m 428.37054,368.14733 0,47.65625 -33.90625,0 0,135 46.03125,0 0,78.21875 32.75,0 0,49.40625 100.75,0 0,-15.90625 -82.875,0 0,-33.5 50.125,0 0,-12.46875 24.5625,0 0,-15.84375 -74.6875,0 0,-33.5625 41.90625,0 0,-7.78125 37.84375,0 0,-15.9375 -75.6875,0 0,-8.5625 -36.84375,0 0,-24.90625 79.75,0 0,-15.9375 -8.96875,0 0,-6.8125 -42.125,0 0,-14.125 -40.75,0 0,-31.8125 74.6875,0 0,-15.84375 -28.875,0 0,-9.625 -45.8125,0 0,-31.71875 79.75,0 0,-15.9375 z m -16.0625,63.5625 16.0625,0 0,41.375 -16.0625,0 z m 0,57.1875 16.0625,0 0,14.25 12.125,0 0,31.71875 -28.1875,0 z m 46.03125,61.90625 14.90625,0 0,0.5 -14.90625,0 z m 0,16.34375 14.90625,0 0,45.9375 -14.90625,0 z"
         style="font-size:40px;font-style:normal;font-weight:normal;line-height:125%;letter-spacing:0px;word-spacing:0px;fill:none;stroke:#000000;stroke-width:4.71477556;stroke-opacity:1;font-family:Sans" />
    </g>
  </g>
</svg>
