<?xml version="1.0" encoding="UTF-8" standalone="no"?>
<!-- Created with Inkscape (http://www.inkscape.org/) -->

<svg
   xmlns:dc="http://purl.org/dc/elements/1.1/"
   xmlns:cc="http://creativecommons.org/ns#"
   xmlns:rdf="http://www.w3.org/1999/02/22-rdf-syntax-ns#"
   xmlns:svg="http://www.w3.org/2000/svg"
   xmlns="http://www.w3.org/2000/svg"
   xmlns:sodipodi="http://sodipodi.sourceforge.net/DTD/sodipodi-0.dtd"
   xmlns:inkscape="http://www.inkscape.org/namespaces/inkscape"
   width="744.09448819"
   height="1052.3622047"
   id="svg3783"
   version="1.1"
   inkscape:version="0.48.2 r9819"
   sodipodi:docname="dontdie004.svg">
  <sodipodi:namedview
     id="base"
     pagecolor="#ffffff"
     bordercolor="#666666"
     borderopacity="1.0"
     inkscape:pageopacity="0.0"
     inkscape:pageshadow="2"
     inkscape:zoom="0.24748737"
     inkscape:cx="586.65014"
     inkscape:cy="420.27232"
     inkscape:document-units="px"
     inkscape:current-layer="layer2"
     showgrid="false"
     inkscape:window-width="1024"
     inkscape:window-height="748"
     inkscape:window-x="12"
     inkscape:window-y="-1"
     inkscape:window-maximized="0" />
  <defs
     id="defs3785">
    <inkscape:perspective
       id="perspective3823"
       inkscape:persp3d-origin="334.90438 : 296.50168 : 1"
       inkscape:vp_z="372.04724 : 175.3937 : 0"
       inkscape:vp_y="0 : 1000 : 0"
       inkscape:vp_x="-314.90439 : 155.3937 : 0"
       sodipodi:type="inkscape:persp3d" />
  </defs>
  <metadata
     id="metadata3788">
    <rdf:RDF>
      <cc:Work
         rdf:about="">
        <dc:format>image/svg+xml</dc:format>
        <dc:type
           rdf:resource="http://purl.org/dc/dcmitype/StillImage" />
        <dc:title></dc:title>
      </cc:Work>
    </rdf:RDF>
  </metadata>
  <g
     style="display:inline"
     id="layer1"
     inkscape:groupmode="layer"
     inkscape:label="Layer 1">
    <flowRoot
       style="font-size:40px;font-style:normal;font-weight:normal;line-height:125%;letter-spacing:0px;word-spacing:0px;fill:#000000;fill-opacity:1;stroke:none;font-family:Sans"
       id="flowRoot3475"
       xml:space="preserve"><flowRegion
         id="flowRegion3477"><rect
           y="840.23016"
           x="40.406101"
           height="76.771591"
           width="474.7717"
           id="rect3479" /></flowRegion><flowPara
         id="flowPara3481" /></flowRoot>    <path
       id="path7166"
       d="m 437.14023,177.71132 -11.60362,0 m -60.45313,0 14.22268,0 m 57.83407,4 -11.60362,0 m -60.45313,0 16.89839,0 m 55.15836,4 -11.60362,0 m -60.45313,0 19.57409,0 m 52.48266,4 -11.60362,0 m -60.45313,0 22.2498,0 m 49.80695,4 -11.60362,0 m -60.45313,0 24.92551,0 m 47.13124,4 -11.60362,0 m -46.76026,0 13.90835,0 m -15.99761,0 -11.60361,0 m 60.45313,4 11.60362,0 m -41.77982,0 -13.91071,0 m -16.36622,0 11.60361,0 m 60.45314,4 -11.60362,0 m -41.41357,0 13.91308,0 m -21.34903,0 -11.60361,0 m 60.45313,4 11.60362,0 m -36.42841,0 -13.91543,0 m -21.71291,0 11.60361,0 m 60.45314,4 -11.60362,0 m -36.06688,0 13.9178,0 m -26.70044,0 -11.60361,0 m 60.45313,4 11.60362,0 m -31.077,0 -13.92016,0 m -27.05959,0 11.60361,0 m 60.45314,4 -11.60362,0 m -30.72019,0 13.92252,0 m -32.05185,0 -11.60361,0 m 60.45313,4 11.60362,0 m -25.72558,0 -13.92489,0 m -32.40628,0 11.60361,0 m 60.45314,4 -11.60362,0 m -25.37351,0 13.92726,0 m -37.40327,0 -11.60361,0 m 60.45313,4 11.60362,0 m -20.37416,0 -13.92962,0 m -37.75297,0 11.60361,0 m 60.45314,4 -11.60362,0 m -20.02682,0 13.93198,0 m -42.75468,0 -11.60361,0 m 60.45313,4 11.60362,0 m -15.02275,0 -13.93435,0 m -43.09965,0 11.60361,0 m 60.45314,4 -11.60362,0 m -14.68014,0 13.93672,0 m -48.1061,0 -11.60361,0 m 48.44634,4 23.61041,0 m -60.45314,0 -11.60361,0 m 51.11968,4 20.93707,0 m -44.06409,0 -11.60361,0 m -16.38905,0 11.60361,0 m -42.95745,0 -12.73142,0 m 97.87828,4 18.26373,0 m -44.06409,0 -11.60361,0 m -16.38905,0 11.60361,0 m -40.28238,0 -15.40649,0 m 100.55163,4 15.59038,0 m -44.06409,0 -11.60361,0 m -16.38905,0 11.60361,0 m -37.60732,0 -18.08155,0 m 103.22497,4 12.91704,0 m -44.06409,0 -11.60361,0 m -16.38905,0 11.60361,0 m -34.93226,0 -20.75661,0 m 60.47431,4 11.60361,0 m -48.64625,0 -23.43167,0 m 60.47431,4 11.60361,0 m -45.97119,0 -13.91762,0 m -12.18911,0 11.62479,0 m 60.45313,4 -13.86928,0 m -43.34508,0 13.91823,0 m -17.157,0 -13.86929,0 m 60.45314,4 13.86928,0 m -40.62106,0 -13.91886,0 m -19.7825,0 15.12517,0 m 59.19725,4 -13.86928,0 m -37.99619,0 13.91946,0 m -18.57575,0 -17.80066,0 m 60.45314,4 13.86928,0 m -35.27094,0 -13.92008,0 m -25.1314,0 20.47615,0 m 53.84627,4 -13.86928,0 m -32.6473,0 13.9207,0 m -18.5749,0 -23.15164,0 m 60.45314,4 13.86928,0 m -29.92082,0 -13.92131,0 m -30.48029,0 25.82712,0 m 48.4953,4 -13.86928,0 m -27.2984,0 13.92192,0 m -18.57405,0 -13.90864,0 m -14.59397,0 13.86929,0 m 60.45313,4 -13.86928,0 m -24.62396,0 13.92255,0 m -18.57363,0 -13.91072,0 m -17.26738,0 13.86929,0 m 60.45313,4 -13.86928,0 m -21.94951,0 13.92315,0 m -18.5732,0 -13.91279,0 m -19.94079,0 13.86929,0 m 60.45313,4 -13.86928,0 m -19.27507,0 13.92377,0 m -18.57277,0 -13.91488,0 m -22.61419,0 13.86929,0 m 60.45313,4 -30.4699,0 m -18.56492,0 13.91695,0 m -25.33526,0 -24.05421,0 m 56.71188,4 27.79546,0 m -32.44238,0 -13.91904,0 m -38.14592,0 24.05421,0 m 60.45313,4 -25.12101,0 m -18.56701,0 13.92113,0 m -30.68624,0 -24.05421,0 m 60.45313,4 24.05421,0 m -27.09141,0 -13.92319,0 m -43.49274,0 24.05421,0 m 60.45313,4 -24.05421,0 m -14.28699,0 13.92528,0 m -34.3588,0 -25.73262,0 m 48.83955,4 35.66779,0 m -56.09819,0 -28.40915,0 m 51.51295,4 32.99439,0 m -53.42167,0 -31.08567,0 m 54.18636,4 28.05531,0 m -48.47947,0 -33.7622,0 m 56.85976,4 25.38191,0 m -45.80294,0 -13.92714,0 m -22.51159,0 21.78854,0 m 60.45313,4 -22.7085,0 m -34.34793,0 13.93002,0 m -17.32672,0 -21.78854,0 m 60.45313,4 21.78854,0 m -40.44988,0 -13.93291,0 m -27.85888,0 21.78854,0 m 60.45313,4 -21.78854,0 m -29.9206,0 13.93578,0 m -22.67977,0 -21.78854,0 m 60.45313,4 21.78854,0 m -35.09683,0 -13.93867,0 m -33.20617,0 21.78854,0 m 50.26821,4 -11.60362,0 m -24.57331,0 13.94155,0 m -38.21776,0 -11.60361,0 m 60.45313,4 11.60362,0 m -19.55885,0 -13.94444,0 m -38.55346,0 11.60361,0 m 60.45314,4 -11.60362,0 m -19.22602,0 13.94732,0 m -43.57082,0 -11.60361,0 m 60.45313,4 11.60362,0 m -14.20579,0 -13.95021,0 m -43.90075,0 11.60361,0 m 60.45314,4 -25.48236,0 m -46.57439,0 11.60361,0 m 60.45314,4 -22.80871,0 m -49.24804,0 11.60361,0 m 60.45314,4 -20.13507,0 m -51.92168,0 11.60361,0 m 60.45314,4 -17.46142,0 m -54.59533,0 11.60361,0 m 60.45314,4 -14.78778,0 m -57.26897,0 11.60361,0"
       style="fill:none;stroke:#000000;stroke-width:0.99999976"
       inkscape:connector-curvature="0" />
    <path
       id="path7171"
       d="m 539.08626,205.71132 -72.50141,0 m -15.16093,4 87.66234,0 m -15.16093,4 -72.50141,0 m 0,4 72.50141,0 m -15.0974,4 -12.09063,0 m -15.1821,0 12.11181,0 m 15.16092,4 -12.09063,0 m -15.1821,0 12.11181,0 m 15.16092,4 -12.09063,0 m -15.1821,0 12.11181,0 m 15.16092,4 -12.09063,0 m -15.1821,0 12.11181,0 m 15.16092,4 -12.09063,0 m -15.1821,0 12.11181,0 m 15.16092,4 -12.09063,0 m -15.1821,0 12.11181,0 m 15.16092,4 -12.09063,0 m -15.1821,0 12.11181,0 m 15.16092,4 -12.09063,0 m -15.1821,0 12.11181,0 m 15.16092,4 -12.09063,0 m -15.1821,0 12.11181,0 m 15.16092,4 -12.09063,0 m -15.1821,0 12.11181,0 m 15.16092,4 -12.09063,0 m -15.1821,0 12.11181,0 m 15.16092,4 -12.09063,0 m -15.1821,0 12.11181,0 m 34.66261,4 -72.5014,0 m 0,4 72.5014,0 m 0,4 -72.5014,0 m 25.72698,4 27.27273,0 m 0,4 -81.98757,0 m 0,4 81.98757,0 m 0,4 -81.98757,0 m 54.71484,4 16.5161,0 m -28.98786,0 -12.09063,0 m 28.96669,4 12.1118,0 m -28.98786,0 -12.09063,0 m 28.96669,4 12.1118,0 m -28.98786,0 -12.09063,0 m 28.96669,4 12.1118,0 m -28.98786,0 -12.09063,0 m 28.96669,4 12.1118,0 m -25.40938,0 -72.5014,0 m 85.79898,4 12.1118,0 m -25.40938,0 -72.5014,0 m 0,4 116.73489,0 m 0,4 -98.67307,0 m 0,4 98.67307,0 m -18.82411,4 -23.52485,0 m -26.19282,0 20.72981,0 m -26.67984,0 -12.09063,0 m 44.23348,4 23.52485,0 m -28.98786,0 -20.72981,0 m -18.04066,0 12.09063,0 m 55.6677,4 -23.52485,0 m -26.19282,0 20.72981,0 m -26.67984,0 -12.09063,0 m 44.23348,4 23.52485,0 m -28.98786,0 -20.72981,0 m -18.04066,0 12.09063,0 m 55.6677,4 -23.52485,0 m -26.19282,0 20.72981,0 m -26.67984,0 -12.09063,0 m 44.23348,4 23.52485,0 m -28.98786,0 -20.72981,0 m -18.04066,0 12.09063,0 m 55.6677,4 -23.52485,0 m -82.41106,0 76.94805,0 m 17.55364,4 -12.09063,0 m -82.41106,0 76.94805,0 m 17.55364,4 -12.09063,0 m -82.41106,0 76.94805,0 m 17.55364,4 -12.09063,0 m -26.19282,0 20.72981,0 m -26.67984,0 -20.13693,0 m 52.27978,4 12.09063,0 m -17.55364,0 -20.72981,0 m -26.08696,0 20.13693,0 m 44.23348,4 -12.09063,0 m -26.19282,0 12.1118,0 m -18.06183,0 -20.13693,0 m 52.27978,4 12.09063,0 m -26.17165,0 -12.1118,0 m -26.08696,0 20.13693,0 m 44.23348,4 -12.09063,0 m -26.19282,0 12.1118,0 m -18.06183,0 -20.13693,0 m 52.27978,4 12.09063,0 m -26.17165,0 -12.1118,0 m -26.08696,0 20.13693,0 m 44.23348,4 -12.09063,0 m -26.19282,0 12.1118,0 m -18.06183,0 -20.13693,0 m 52.27978,4 12.09063,0 m -26.17165,0 -12.1118,0 m -26.08696,0 20.13693,0 m 44.23348,4 -12.09063,0 m -26.19282,0 12.1118,0 m -18.06183,0 -20.13693,0 m 52.27978,4 12.09063,0 m -26.17165,0 -12.1118,0 m -26.08696,0 12.1118,0 m 52.25861,4 -12.09063,0 m -26.19282,0 12.1118,0 m -26.08696,0 -12.1118,0 m 0,4 12.1118,0 m 0,4 -12.1118,0 m 0,4 12.1118,0 m 0,4 -12.1118,0 m 0,4 12.1118,0 m 0,4 -12.1118,0 m 0,4 12.1118,0 m 0,4 -12.1118,0 m 0,4 12.1118,0"
       style="fill:none;stroke:#000000;stroke-width:0.99999976"
       inkscape:connector-curvature="0" />
    <path
       id="path7176"
       d="m 211.99556,413.71132 -55.11769,0 m 0,4 61.21784,0 m 3.96917,4 -20.89048,0 m -44.29653,0 12.09063,0 m 56.0756,4 -15.8504,0 m -52.31583,0 12.09063,0 m 58.33945,4 -14.19563,0 m -56.23445,0 12.09063,0 m 60.07098,4 -13.31464,0 m -58.84697,0 12.09063,0 m 61.34394,4 -12.77397,0 m -60.6606,0 12.09063,0 m 62.24931,4 -12.52205,0 m -61.81789,0 12.09063,0 m 62.89398,4 -12.50037,0 m -62.48424,0 12.09063,0 m 63.32292,4 -12.49823,0 m -62.91532,0 12.09063,0 m 63.47285,4 -12.47292,0 m -63.09056,0 12.09063,0 m 63.36722,4 -12.48318,0 m -62.97467,0 12.09063,0 m 63.13136,4 -12.48515,0 m -62.73684,0 12.09063,0 m 62.77005,4 -12.55187,0 m -62.30881,0 12.09063,0 m 62.05143,4 -12.65386,0 m -61.4882,0 12.09063,0 m 64.4567,4 -50.71447,0 m -25.83286,0 12.09063,0 m 72.64074,4 -58.89851,0 m -25.83286,0 12.09063,0 m 77.30067,4 -63.55844,0 m -25.83286,0 12.09063,0 m 80.72416,4 -17.08183,0 m -23.83463,0 15.77511,0 m -29.74995,0 -12.09063,0 m -25.83286,0 12.09063,0 m 83.26836,4 -14.82589,0 m -38.25726,0 22.26685,0 m -26.6192,0 -12.09063,0 m -25.83286,0 12.09063,0 m 85.17696,4 -13.60522,0 m -83.66237,0 60.37458,0 m 38.33759,4 -12.93253,0 m -85.77964,0 53.8194,0 m 45.98306,4 -12.65039,0 m -61.31921,0 12.09063,0 m 62.68561,4 -12.54975,0 m -69.44698,0 53.45306,0 m 29.02137,4 -12.42927,0 m -70.04516,0 60.3076,0 m 22.41097,4 -12.48303,0 m -31.33331,0 25.68929,0 m -45.2804,0 -19.31112,0 m 70.32744,4 12.47989,0 m -15.09056,0 -16.31895,0 m -51.39782,0 19.31112,0 m 63.37576,4 -12.48847,0 m -14.5068,0 14.41363,0 m -50.79412,0 -19.31112,0 m 58.53191,4 23.78164,0 m -63.00243,0 -19.31112,0 m 60.43049,4 21.27016,0 m -62.38953,0 -19.31112,0 m 61.68319,4 19.11428,0 m -61.48635,0 -19.31112,0 m 62.45266,4 17.06029,0 m -60.20183,0 -19.31112,0 m 62.87281,4 15.12183,0 m -58.68352,0 -19.31112,0 m 61.32789,4 14.61214,0 m -56.62891,0 -19.31112,0 m 54.97149,4 20.5839,0 m -56.24427,0 -19.31112,0 m 0,4 75.37661,0 m -0.39277,4 -74.98384,0 m 61.59517,4 12.7073,0 m -20.72544,0 -53.57703,0 m 60.55794,4 12.75281,0 m -61.19895,0 -12.1118,0 m 58.89461,4 12.9742,0 m -59.75701,0 -12.1118,0 m 56.55384,4 13.79357,0 m -58.23561,0 -12.1118,0 m 52.79731,4 15.35418,0 m -56.03969,0 -12.1118,0 m 45.07496,4 20.05829,0 m -53.02145,0 -12.1118,0 m 0,4 61.20747,0 m -6.08531,4 -55.12216,0 m 0,4 38.91923,0"
       style="fill:none;stroke:#000000;stroke-width:0.99999976"
       inkscape:connector-curvature="0" />
    <path
       id="path7181"
       d="m 313.72629,417.71132 -12.1118,0 m -36.84359,0 12.1118,0 m 36.84359,4 -17.74421,0 m -31.21118,0 12.1118,0 m 36.84359,4 -17.74421,0 m -31.21118,0 12.1118,0 m 36.84359,4 -17.74421,0 m -31.21118,0 12.1118,0 m 36.84359,4 -17.74421,0 m -31.21118,0 12.1118,0 m 36.84359,4 -17.74421,0 m -31.21118,0 12.1118,0 m 36.84359,4 -17.74421,0 m -31.21118,0 12.1118,0 m 36.84359,4 -17.74421,0 m -31.21118,0 12.1118,0 m 36.84359,4 -17.74421,0 m -31.21118,0 12.1118,0 m 36.84359,4 -17.74421,0 m -31.21118,0 12.1118,0 m 36.84359,4 -17.74421,0 m -31.21118,0 12.1118,0 m 36.84359,4 -17.74421,0 m -31.21118,0 12.1118,0 m 36.84359,4 -17.74421,0 m -31.21118,0 12.1118,0 m 36.84359,4 -17.74421,0 m -31.21118,0 12.1118,0 m 36.84359,4 -17.74421,0 m -31.21118,0 23.75777,0 m 25.19762,4 -17.74421,0 m -31.21118,0 23.75777,0 m 25.19762,4 -17.74421,0 m -31.21118,0 23.75777,0 m 25.19762,4 -17.74421,0 m -31.21118,0 23.75777,0 m 25.19762,4 -17.74421,0 m -31.21118,0 23.75777,0 m 25.19762,4 -17.74421,0 m -31.21118,0 23.75777,0 m 25.19762,4 -17.74421,0 m -31.21118,0 23.75777,0 m 25.19762,4 -17.74421,0 m -31.21118,0 23.75777,0 m 19.56521,4 -12.1118,0 m -31.21118,0 23.75777,0 m 19.56521,4 -12.1118,0 m -19.56521,0 12.1118,0 m 0,4 -12.1118,0 m 0,4 12.1118,0 m 5.59006,4 -17.70186,0 m 0,4 17.70186,0 m 20.36985,4 -12.11181,0 m -25.9599,0 17.70186,0 m 20.36985,4 -12.11181,0 m -25.9599,0 17.70186,0 m 20.36985,4 -12.11181,0 m -25.9599,0 17.70186,0 m 20.36985,4 -12.11181,0 m -25.9599,0 17.70186,0 m 20.36985,4 -12.11181,0 m -25.9599,0 17.70186,0 m 20.36985,4 -12.11181,0 m -25.9599,0 17.70186,0 m 20.36985,4 -12.11181,0 m -25.9599,0 17.70186,0 m 20.36985,4 -12.11181,0 m -25.9599,0 17.70186,0 m 20.36985,4 -12.11181,0 m -25.9599,0 17.70186,0 m 20.36985,4 -12.11181,0 m -20.36984,0 12.1118,0 m 20.36985,4 -12.11181,0 m -20.36984,0 12.1118,0 m 20.36985,4 -12.11181,0 m -20.36984,0 12.1118,0 m 20.36985,4 -12.11181,0 m -20.36984,0 12.1118,0 m 20.36985,4 -12.11181,0 m -20.36984,0 12.1118,0 m 20.36985,4 -12.11181,0 m -20.36984,0 12.1118,0 m 20.36985,4 -12.11181,0 m -20.36984,0 12.1118,0 m 20.36985,4 -12.11181,0 m -20.36984,0 12.1118,0 m 20.36985,4 -12.11181,0 m -20.36984,0 12.1118,0 m 20.36985,4 -12.11181,0 m -20.36984,0 12.1118,0 m 20.36985,4 -12.11181,0 m -20.36984,0 12.1118,0 m 20.36985,4 -12.11181,0 m -20.36984,0 12.1118,0 m 20.36985,4 -12.11181,0 m 0,4 12.11181,0"
       style="fill:none;stroke:#000000;stroke-width:0.99999976"
       inkscape:connector-curvature="0" />
    <path
       id="path7186"
       d="m 414.12357,429.71132 -66.14907,0 m 0,4 66.14907,0 m 0,4 -66.14907,0 m 0,4 12.1118,0 m 0,4 -12.1118,0 m 0,4 12.1118,0 m 0,4 -12.1118,0 m 0,4 12.1118,0 m 31.04179,4 -66.12789,0 m 0,4 66.12789,0 m 19.56521,4 -85.6931,0 m 22.9743,4 62.7188,0 m -73.60248,0 -12.09062,0 m 22.9743,4 12.1118,0 m -22.99548,0 -12.09062,0 m 22.9743,4 12.1118,0 m -22.99548,0 -12.09062,0 m 22.9743,4 12.1118,0 m -22.99548,0 -12.09062,0 m 22.9743,4 12.1118,0 m -22.99548,0 -12.09062,0 m 22.9743,4 12.1118,0 m -22.99548,0 -12.09062,0 m 22.9743,4 12.1118,0 m -22.99548,0 -12.09062,0 m 0,4 62.69762,0 m 0,4 -62.69762,0 m 22.9743,4 68.26652,0 m -79.1502,0 -12.09062,0 m 22.9743,4 74.34359,0 m -85.22727,0 -12.09062,0 m 22.9743,4 74.34359,0 m -85.22727,0 -12.09062,0 m 31.19,4 66.12789,0 m -85.22727,0 -12.09062,0 m 31.19,4 12.09063,0 m -31.19001,0 -12.09062,0 m 31.19,4 12.09063,0 m -31.19001,0 -12.09062,0 m 31.19,4 12.09063,0 m -31.19001,0 -12.09062,0 m 31.19,4 12.09063,0 m -31.19001,0 -12.09062,0 m 0,4 68.24533,0 m 0,4 -68.24533,0 m 0,4 119.52992,0 m 0,4 -88.33992,0 m 0,4 62.69763,0 m 0,4 -62.69763,0 m 22.19085,4 12.1118,0 m -22.21202,0 -12.09063,0 m 22.19085,4 12.1118,0 m -22.21202,0 -12.09063,0 m 22.19085,4 12.1118,0 m -22.21202,0 -12.09063,0 m 22.19085,4 12.1118,0 m -22.21202,0 -12.09063,0 m 22.19085,4 12.1118,0 m -22.21202,0 -12.09063,0 m 22.19085,4 62.7188,0 m -72.81902,0 -12.09063,0 m 22.19085,4 62.7188,0 m -72.81902,0 -12.09063,0 m 0,4 84.90965,0 m -16.64314,4 -68.26651,0 m 0,4 68.26651,0 m -33.96386,4 -12.1118,0 m 0,4 12.1118,0 m 0,4 -12.1118,0 m 0,4 12.1118,0 m 0,4 -12.1118,0 m 0,4 12.1118,0 m 56.15472,4 -68.26652,0 m 0,4 68.26652,0"
       style="fill:none;stroke:#000000;stroke-width:0.99999976"
       inkscape:connector-curvature="0" />
    <path
       id="path7191"
       d="m 285.72485,201.71132 -29.5239,0 m -8.49446,4 46.79422,0 m 5.39346,4 -57.55656,0 m 44.04352,4 17.48719,0 m -47.84144,0 -17.56369,0 m 53.37664,4 15.08049,0 m -56.6159,0 -14.88045,0 m 59.91755,4 13.90084,0 m -62.73865,0 -42.538,0 m 93.84335,4 13.19743,0 m -66.89712,0 -48.2302,0 m 103.6957,4 12.85028,0 m -63.39814,0 -25.37028,0 m -32.9491,0 26.43075,0 m 96.40587,4 -12.71762,0 m -71.85721,0 23.92571,0 m -48.76435,0 -17.26009,0 m 114.8058,4 12.51797,0 m -58.32535,0 -14.91685,0 m -12.75485,0 12.42512,0 m -41.99514,0 -14.72969,0 m 118.30639,4 12.45701,0 m -56.48997,0 -13.75615,0 m -16.62225,0 12.39625,0 m -45.1581,0 -13.426,0 m 120.7731,4 12.48281,0 m -54.97962,0 -13.18866,0 m -19.13667,0 12.44139,0 m -47.2975,0 -12.85381,0 m 122.3859,4 12.53868,0 m -53.51511,0 -12.8108,0 m -20.92005,0 12.50744,0 m -48.93569,0 -12.5826,0 m 123.45297,4 12.58778,0 m -52.20271,0 -12.70069,0 m -21.90491,0 12.56997,0 m -50.30429,0 -12.48388,0 m 123.87349,4 12.49606,0 m -50.91196,0 -12.52347,0 m -22.05089,0 12.40713,0 m -51.50799,0 -12.48298,0 m 123.59029,4 12.61086,0 m -49.61345,0 -12.45905,0 m -21.61214,0 12.45861,0 m -52.90309,0 -12.51128,0 m 122.59386,4 12.88446,0 m -48.25159,0 -12.48494,0 m -20.56312,0 12.69873,0 m -54.55145,0 -12.48811,0 m 120.61836,4 13.34066,0 m -46.73502,0 -12.41201,0 m -18.79429,0 13.18053,0 m -56.63153,0 -12.51218,0 m 117.60701,4 14.23355,0 m -44.92678,0 -12.50566,0 m -16.31861,0 14.07163,0 m -59.36653,0 -12.55029,0 m 113.05132,4 15.9616,0 m -43.02577,0 -25.461,0 m -59.84495,0 12.41149,0 m 112.54371,4 -19.82585,0 m -60.6884,0 40.04939,0 m -71.06568,0 -12.45211,0 m 34.05004,4 85.26138,0 m -105.35938,0 -12.68817,0 m 27.08852,4 84.0261,0 m -96.18153,0 -13.25722,0 m 61.2194,4 33.89866,0 m -55.47635,0 -18.29244,0 m -19.19539,0 14.17811,0 m 72.56638,4 -15.3091,0 m -16.82783,0 16.16833,0 m -39.43174,0 -28.5982,0 m 72.43835,4 13.94161,0 m -21.88839,0 -20.36477,0 m -40.56561,0 20.93086,0 m 63.7925,4 -13.26244,0 m -66.74257,0 51.51511,0 m 29.95224,4 -12.8909,0 m -69.28728,0 44.96713,0 m 38.31384,4 -12.67681,0 m -27.1469,0 16.5122,0 m -48.51454,0 -12.50484,0 m 30.08681,4 55.03587,0 m -73.40865,0 -12.48993,0 m 23.4605,4 62.95962,0 m -74.34165,0 -12.5778,0 m 56.08511,4 35.66281,0 m -38.33057,0 -34.3899,0 m -19.23753,0 12.55676,0 m 83.02287,4 -29.71805,0 m -50.43168,0 29.23476,0 m -32.23915,0 -12.47008,0 m 70.74001,4 27.67229,0 m -58.72333,0 -39.4675,0 m 73.77131,4 26.60421,0 m -64.11618,0 -35.66576,0 m 72.26351,4 29.18693,0 m -67.93789,0 -32.65632,0 m 69.99937,4 31.84978,0 m -70.62915,0 -30.05485,0 m 66.84117,4 34.83425,0 m -72.60992,0 -27.41365,0 m 62.37539,4 38.28124,0 m -73.84961,0 -25.38622,0 m 74.18122,4 25.39211,0 m -27.02715,0 -15.60465,0 m -57.35378,0 25.49731,0 m 74.68345,4 -25.37034,0 m -23.87927,0 18.75603,0 m -44.20724,0 -25.62176,0 m 74.69961,4 25.41601,0 m -34.64984,0 -65.35544,0 m 74.32411,4 25.331,0 m -40.75207,0 -58.58807,0 m 73.33028,4 25.3529,0 m -51.82561,0 -18.02478,0 m -28.15073,0 25.36709,0 m 71.6145,4 -25.43235,0 m -70.50038,0 25.40999,0 m 69.24152,4 -25.78167,0 m -67.5246,0 25.72921,0 m 65.84485,4 -26.33083,0 m -63.56636,0 26.41953,0 m 61.21526,4 -27.32528,0 m -58.02835,0 27.55419,0 m 54.95907,4 -29.1713,0 m -50.46396,0 29.55556,0 m 46.35759,4 -72.18076,0 m 5.01311,4 62.0007,0 m -7.68506,4 -47.02711,0"
       style="fill:none;stroke:#000000;stroke-width:0.99999976"
       inkscape:connector-curvature="0" />
    <path
       id="path7196"
       d="m 142.14029,225.71132 -45.757898,0 m 0,4 57.149068,0 m 5.2756,4 -62.424668,0 m 47.702208,4 18.40906,0 m -53.99946,0 -12.111808,0 m 53.658878,4 15.20358,0 m -56.75064,0 -12.111818,0 m 57.055748,4 13.88552,0 m -58.82944,0 -12.111828,0 m 59.419078,4 13.10642,0 m -57.33583,0 -50.445172,0 m 96.262322,4 12.72679,0 m -50.15939,0 -58.829722,0 m 97.322362,4 12.51579,0 m -46.32801,0 -63.510142,0 m 97.915642,4 12.46102,0 m -43.43423,0 -66.942432,0 m 98.222902,4 12.48899,0 m -41.21999,0 -69.491902,0 m 98.396182,4 12.46563,0 m -39.45492,0 -18.62017,0 m -17.531218,0 12.111798,0 m -30.872385,0 -16.494917,0 m 98.279572,4 12.47585,0 m -37.30549,0 -15.06037,0 m -23.134058,0 12.111798,0 m -30.872385,0 -16.494917,0 m 97.959352,4 12.49652,0 m -34.97813,0 -14.13063,0 m -26.091608,0 12.111798,0 m -30.872385,0 -16.494917,0 m 97.379092,4 12.54827,0 m -32.96098,0 -14.77735,0 m -26.933528,0 12.111798,0 m -30.872385,0 -16.494917,0 m 96.458872,4 12.66218,0 m -30.97848,0 -15.38907,0 m -27.497998,0 12.111798,0 m -30.872385,0 -16.494917,0 m 95.107222,4 12.83464,0 m -29.0123,0 -15.91629,0 m -27.757768,0 12.111798,0 m -30.872385,0 -16.494917,0 m 93.219092,4 13.21627,0 m -26.89935,0 -52.580903,0 m -26.955109,0 16.494917,0 m 88.153905,4 -14.2803,0 m -63.413413,0 58.268423,0 m -68.728615,0 -16.494917,0 m 26.955109,4 75.261023,0 m -85.721215,0 -16.494917,0 m 26.955109,4 80.962643,0 m -91.422835,0 -16.494917,0 m 26.955109,4 85.356653,0 m -95.816845,0 -16.494917,0 m 98.945032,4 16.50137,0 m -17.1773,0 -71.313993,0 m -26.955109,0 16.494917,0 m 101.337635,4 -14.61479,0 m -56.61274,0 54.07044,0 m -61.60855,0 -12.111803,0 m -26.955109,0 16.494917,0 m 103.119555,4 -73.00945,0 m -19.649913,0 12.111803,0 m -22.571995,0 -16.494917,0 m 88.072572,4 32.86329,0 m -45.40711,0 -28.92373,0 m -19.649913,0 12.111803,0 m -22.571995,0 -16.494917,0 m 89.696312,4 32.22722,0 m -48.29639,0 -73.627142,0 m 102.546452,4 20.09384,0 m -20.13357,0 -12.53481,0 m -89.971912,0 71.055062,0 m 52.06294,4 -17.85545,0 m -15.18641,0 12.4773,0 m -34.8784,0 -67.675042,0 m 107.125402,4 16.15739,0 m -20.84978,0 -12.4762,0 m -85.573696,0 58.574516,0 m 60.32542,4 -14.92512,0 m -18.77193,0 12.49888,0 m -42.24581,0 -55.455956,0 m 104.689366,4 14.0409,0 m -21.61289,0 -12.5549,0 m -42.34057,0 13.23405,0 m -20.77216,0 -12.111803,0 m 82.529333,4 13.17608,0 m -22.03071,0 -12.67701,0 m -41.34778,0 13.23405,0 m -20.77216,0 -12.111803,0 m 82.459853,4 12.79396,0 m -22.84987,0 -12.83926,0 m -39.91477,0 13.23405,0 m -20.77216,0 -12.111803,0 m 81.358713,4 13.86071,0 m -24.32198,0 -13.40173,0 m -37.8458,0 13.23405,0 m -20.77216,0 -12.111803,0 m 79.704663,4 15.32051,0 m -26.02171,0 -14.54262,0 m -34.81093,0 13.23405,0 m -20.77216,0 -12.111803,0 m 77.375653,4 17.23927,0 m -28.28746,0 -17.69779,0 m -28.97976,0 13.23405,0 m -20.77216,0 -12.111803,0 m 73.671453,4 20.26209,0 m -31.00507,0 -62.928473,0 m 66.072053,4 26.8498,0 m -35.08458,0 -57.837273,0 m 0,4 91.444133,0 m -1.56491,4 -70.22931,0 m 52.49147,4 15.49778,0 m -26.46335,0 -41.5259,0 m 44.19786,4 20.72778,0 m -52.81384,0 -12.1118,0 m 0,4 60.93041,0 m -6.23522,4 -54.69519,0 m 0,4 33.84747,0"
       style="fill:none;stroke:#000000;stroke-width:0.99999976"
       inkscape:connector-curvature="0" />
  </g>
  <g
     style="display:inline"
     inkscape:label="Layer"
     id="layer2"
     inkscape:groupmode="layer">
    <path
       id="path6944"
       d="m 54.726629,114.94062 0,600.03064 m 4,0 0,-600.03064 m 4,0 0,600.03064 m 4,0 0,-600.03064 m 4,0 0,600.03064 m 4,0 0,-600.03064 m 4,0 0,600.03064 m 4,0 0,-600.03064 m 4,0 0,600.03064 m 4,0 0,-600.03064 m 4,0 0,600.03064 m 4,0 0,-600.03064 m 4.000001,0 0,600.03064 m 4,0 0,-600.03064 m 4,0 0,600.03064 m 4,0 0,-600.03064 m 4,0 0,600.03064 m 4,0 0,-600.03064 m 4,0 0,600.03064 m 4,0 0,-600.03064 m 4,0 0,600.03064 m 4,0 0,-600.03064 m 4,0 0,600.03064 m 4,0 0,-600.03064 m 4,0 0,600.03064 m 4,0 0,-600.03064 m 4,0 0,600.03064 m 4,0 0,-600.03064 m 4,0 0,600.03064 m 4,0 0,-600.03064 m 4,0 0,600.03064 m 4,0 0,-600.03064 m 4,0 0,600.03064 m 4,0 0,-600.03064 m 4,0 0,600.03064 m 4,0 0,-600.03064 m 4,0 0,600.03064 m 4,0 0,-600.03064 m 4,0 0,600.03064 m 4,0 0,-600.03064 m 4,0 0,600.03064 m 4,0 0,-600.03064 m 4,0 0,600.03064 m 4,0 0,-600.03064 m 4,0 0,600.03064 m 4,0 0,-600.03064 m 4,0 0,600.03064 m 4,0 0,-600.03064 m 4,0 0,600.03064 m 4,0 0,-600.03064 m 4,0 0,600.03064 m 4,0 0,-600.03064 m 4,0 0,600.03064 m 4,0 0,-600.03064 m 4,0 0,600.03064 m 4,0 0,-600.03064 m 4,0 0,600.03064 m 4,0 0,-600.03064 m 4,0 0,600.03064 m 4,0 0,-600.03064 m 4,0 0,600.03064 m 4,0 0,-600.03064 m 4,0 0,600.03064 m 4,0 0,-600.03064 m 4,0 0,600.03064 m 4,0 0,-600.03064 m 4,0 0,600.03064 m 4,0 0,-600.03064 m 4,0 0,600.03064 m 4,0 0,-600.03064 m 4,0 0,600.03064 m 4,0 0,-600.03064 m 4,0 0,600.03064 m 4,0 0,-600.03064 m 4,0 0,600.03064 m 4,0 0,-600.03064 m 4,0 0,600.03064 m 4,0 0,-600.03064 m 4,0 0,600.03064 m 4,0 0,-600.03064 m 4,0 0,600.03064 m 4,0 0,-600.03064 m 4,0 0,600.03064 m 4,0 0,-600.03064 m 4,0 0,600.03064 m 4,0 0,-600.03064 m 4,0 0,600.03064 m 4,0 0,-600.03064 m 4,0 0,600.03064 m 4,0 0,-600.03064 m 4,0 0,600.03064 m 4,0 0,-600.03064 m 4,0 0,600.03064 m 4,0 0,-600.03064 m 4,0 0,600.03064 m 4,0 0,-600.03064 m 4,0 0,600.03064 m 4,0 0,-600.03064 m 4,0 0,600.03064 m 4,0 0,-600.03064 m 4,0 0,600.03064 m 4,0 0,-600.03064 m 4,0 0,600.03064 m 4,0 0,-600.03064 m 4,0 0,600.03064 m 4,0 0,-600.03064 m 4,0 0,600.03064 m 4,0 0,-600.03064 m 4,0 0,600.03064 m 4,0 0,-600.03064 m 4,0 0,600.03064 m 4,0 0,-600.03064 m 4,0 0,600.03064 m 4,0 0,-600.03064 m 4,0 0,600.03064 m 4,0 0,-600.03064 m 4,0 0,600.03064 m 4,0 0,-600.03064 m 4,0 0,600.03064 m 4,0 0,-600.03064 m 4,0 0,600.03064 m 4,0 0,-600.03064 m 4,0 0,600.03064"
       style="fill:none;stroke:#000000;stroke-width:1"
       inkscape:connector-curvature="0" />
  </g>
</svg>
