<?xml version="1.0" encoding="UTF-8" standalone="no"?>
<!-- Created with Inkscape (http://www.inkscape.org/) -->

<svg
   xmlns:dc="http://purl.org/dc/elements/1.1/"
   xmlns:cc="http://creativecommons.org/ns#"
   xmlns:rdf="http://www.w3.org/1999/02/22-rdf-syntax-ns#"
   xmlns:svg="http://www.w3.org/2000/svg"
   xmlns="http://www.w3.org/2000/svg"
   xmlns:sodipodi="http://sodipodi.sourceforge.net/DTD/sodipodi-0.dtd"
   xmlns:inkscape="http://www.inkscape.org/namespaces/inkscape"
   sodipodi:docname="dontdie005(ch).svg"
   inkscape:version="0.48.2 r9819"
   version="1.1"
   id="svg3783"
   height="1052.3622047"
   width="744.09448819">
  <sodipodi:namedview
     id="base"
     pagecolor="#ffffff"
     bordercolor="#666666"
     borderopacity="1.0"
     inkscape:pageopacity="0.0"
     inkscape:pageshadow="2"
     inkscape:zoom="0.49497475"
     inkscape:cx="4.2796683"
     inkscape:cy="721.05151"
     inkscape:document-units="px"
     inkscape:current-layer="layer1"
     showgrid="false"
     inkscape:window-width="1024"
     inkscape:window-height="748"
     inkscape:window-x="12"
     inkscape:window-y="-1"
     inkscape:window-maximized="0" />
  <defs
     id="defs3785">
    <inkscape:perspective
       sodipodi:type="inkscape:persp3d"
       inkscape:vp_x="-314.90439 : 155.3937 : 0"
       inkscape:vp_y="0 : 1000 : 0"
       inkscape:vp_z="372.04724 : 175.3937 : 0"
       inkscape:persp3d-origin="334.90438 : 296.50168 : 1"
       id="perspective3823" />
  </defs>
  <metadata
     id="metadata3788">
    <rdf:RDF>
      <cc:Work
         rdf:about="">
        <dc:format>image/svg+xml</dc:format>
        <dc:type
           rdf:resource="http://purl.org/dc/dcmitype/StillImage" />
        <dc:title></dc:title>
      </cc:Work>
    </rdf:RDF>
  </metadata>
  <g
     inkscape:label="Layer 1"
     inkscape:groupmode="layer"
     id="layer1"
     style="display:inline">
    <path
       id="path7395"
       d="m 81.44764,402.58124 6.80039,3.17107 m 18.92961,0 -25.73,-11.9981 m -19.649914,-17.98993 16.403239,7.64896 m 15.358476,7.16177 -12.111801,-5.64782 m 21.54642,10.04726 21.49215,10.02195 M 73.909527,372.58509 61.797726,366.93726 m 12.174236,5.67694 37.462288,17.46895 m 24.81504,11.57144 -15.22341,-7.09879 m -81.800147,-46.97106 0.502235,0.2342 m 34.181559,15.93912 -12.111801,-5.64782 m 19.649914,9.1629 46.43309,21.65211 m 16.06395,7.49074 -11.66907,-5.44138 m -97.432993,-54.26077 23.814964,11.1051 m 15.251946,7.1121 -12.111801,-5.64783 m 19.649914,9.16291 13.234048,6.17114 m 26.237112,12.23456 -12.97745,-6.05148 m 16.47364,7.68178 24.80381,11.56621 M 77.066281,347.57603 34.842617,327.88682 m 46.605023,21.73228 13.234048,6.17113 m 32.426932,15.12093 -10.93692,-5.09997 m 18.40133,8.58068 18.22339,8.49771 M 51.337534,326.7515 34.842617,319.05979 m 19.852573,9.25741 39.986498,18.64601 m 36.916792,17.21458 -10.89399,-5.07995 m 19.48448,9.08576 15.15833,7.06845 M 51.337534,317.92448 34.842617,310.23277 m 26.955109,12.56937 37.653926,17.55832 m 35.117368,16.3755 -11.17404,-5.21054 m 20.03426,9.34213 13.26499,6.18556 M 51.337534,309.09745 34.842617,301.40575 m 26.955109,12.56937 12.111801,5.64783 m 31.486293,14.68229 -23.94818,-11.16721 m 43.21652,20.15219 11.83283,5.51774 m 20.56637,9.59025 -12.83519,-5.98514 M 34.842617,292.57872 51.337534,300.27043 M 109.56867,327.42405 61.797726,305.1481 m 63.048754,29.40011 12.46975,5.81474 m 20.62824,9.61911 -15.67641,-7.31003 M 34.842617,283.7517 51.337534,291.44341 M 158.10735,341.23099 61.797726,296.32107 m -26.955109,-21.39639 16.494917,7.6917 M 119.14732,314.2366 70.098121,291.36459 m 49.465199,23.066 37.68975,17.57502 M 51.337534,273.78936 34.842617,266.09765 m 35.255504,16.43991 12.111801,5.64783 m 72.338998,33.73223 -64.288412,-29.97818 m -55.417891,-34.66881 21.173789,9.8735 m 26.193516,12.21424 -12.111801,-5.64783 m 27.553031,12.84819 16.833118,7.84941 m 32.53143,15.16966 -22.85576,-10.65782 m -89.317323,-50.47637 47.367305,22.08773 m 30.492698,14.21898 -16.667176,-7.77203 m 32.762866,15.27758 10.88944,5.07783 m -31.26943,-23.40821 -56.36409,-26.283 m 79.51846,37.08007 11.13508,5.19237 M 102.15573,262.17818 70.098121,247.22947 m 62.819479,29.29321 11.79905,5.50198 M 82.209937,244.05028 70.098121,238.40245 m 63.058179,29.40451 12.44474,5.80308 M 82.778302,235.48829 70.098121,229.57542 m 62.195349,29.00217 13.22475,6.1668 M 101.7429,235.5046 78.549456,224.68932 m 50.186484,23.40235 15.43015,7.19519 m -3.52491,-10.47071 -43.162047,-20.1268 m 23.879827,2.30833 6.20948,2.89552"
       style="fill:none;stroke:#000000;stroke-width:1"
       inkscape:connector-curvature="0" />
    <flowRoot
       xml:space="preserve"
       id="flowRoot3475"
       style="font-size:40px;font-style:normal;font-weight:normal;line-height:125%;letter-spacing:0px;word-spacing:0px;fill:#000000;fill-opacity:1;stroke:none;font-family:Sans"><flowRegion
         id="flowRegion3477"><rect
           id="rect3479"
           width="474.7717"
           height="76.771591"
           x="40.406101"
           y="840.23016" /></flowRegion><flowPara
         id="flowPara3481" /></flowRoot>    <rect
       style="fill:none;stroke:#000000;stroke-width:0.91610378;stroke-opacity:1"
       id="rect4319"
       width="516.12524"
       height="779.49591"
       x="13.845407"
       y="12.284647" />
    <path
       style="fill:none;stroke:#000000;stroke-width:1"
       d="m 171.13096,373.39383 5.97452,15.56418 m 13.95824,14.03902 -25.89688,-67.46367 m -14.73839,-60.71825 8.24245,21.47231 m 42.65701,111.12532 -35.40321,-92.22852 m -14.79773,-60.87284 26.35549,68.6584 M 196.77,373.21556 180.10964,329.81381 m 21.30248,55.49487 9.03592,23.53937 m -47.84836,-146.97267 -7.54584,-19.65757 m 20.19103,52.59944 6.63956,17.29665 m 14.63991,38.13826 -10.22029,-26.62476 m 15.35531,40.00194 4.16913,10.86095 m 13.11763,34.1726 -4.8763,-12.70319 m -53.64095,-162.06288 5.21332,13.58116 m 20.14105,52.46923 -4.29647,-11.19268 m 5.3065,13.82389 4.18906,10.91287 m 9.64065,25.11477 -7.47812,-19.48117 m 17.30189,45.07295 3.87109,10.08454 m 13.23853,34.48755 -4.52232,-11.78105 m -56.36712,-169.1648 4.29483,11.18843 m 21.4156,55.78954 -3.99239,-10.40054 m 7.23096,18.83731 3.87367,10.09125 m 7.09731,18.48913 -5.97529,-15.56617 m 17.84459,46.48674 3.74336,9.75179 m 13.57943,35.37562 -5.33358,-13.89443 m -56.8842,-170.51183 3.99307,10.4023 m 22.20367,57.84254 -3.8827,-10.1148 m 7.75562,20.20408 3.74271,9.7501 m 6.11278,15.92433 -5.10517,-13.29941 m 17.27572,45.00478 3.95115,10.2931 m 13.90765,36.23066 -6.67431,-17.38716 m -55.79356,-167.67063 3.88358,10.11708 m 22.92326,59.71715 -3.94768,-10.28408 m 6.92844,18.04921 3.94884,10.28709 m 6.63481,17.28426 -4.84576,-12.62364 m 15.37717,40.05892 4.49529,11.71061 m 14.22986,37.07004 -8.63248,-22.48837 m -52.96704,-160.30727 3.94858,10.28638 m 19.25065,50.14968 -10.95681,-28.54346 m 11.14515,29.03411 4.36735,11.37732 m 4.80806,12.52542 -4.48307,-11.6788 m 8.04325,20.9534 6.60399,17.20398 m 10.76196,28.03586 -5.55229,-14.46422 m 7.84199,20.42909 12.41034,32.33005 m -55.26833,-166.30235 -4.31924,-11.25202 m 5.18085,13.49658 24.90997,64.89269 m 35.2415,91.80726 -28.69082,-74.74215 m -27.46201,-93.86441 7.25423,18.89792 M 267.68518,379.36851 224.829,267.72435 M 212.51061,213.3104 236.576,276.00289 m 6.89167,17.95342 -4.13316,-10.76726 m 8.34491,21.73925 1.62078,4.22228 m 20.99031,54.68163 -15.20443,-39.6089 m -36.2478,-116.75217 4.22337,11.00226 m 11.68906,30.45102 -2.14517,-5.58836 m 15.42395,40.18079 3.8163,9.94178 m -22.05298,-79.7734 -3.97393,-10.35244 m 30.10449,78.42489 3.75899,9.79249 m -22.43414,-80.76635 -3.86217,-10.06131 m 29.63617,77.20486 4.02297,10.48021 M 245.44376,209.8105 241.4907,199.51243 m 27.72569,72.22789 4.55235,11.85928 m -19.1922,-72.32082 -4.45163,-11.59688 m 23.92629,62.33011 5.76373,15.01504 m -14.16263,-59.21836 -6.17431,-16.08461 m 16.58133,43.19582 8.72935,22.74074 m 3.40146,-13.46231 -18.11695,-47.19628"
       id="path7441"
       inkscape:connector-curvature="0" />
    <path
       id="path7491"
       d="m 282.28453,398.10637 11.60361,1.63078 m 0,-8.07862 -11.60361,-1.63078 m 54.58744,7.67177 17.46931,2.45515 m -60.45314,-16.57476 -11.60361,-1.63078 m 48.62775,6.83419 23.429,3.29273 m -60.45314,-16.57476 -11.60361,-1.63078 m 42.66806,5.99661 15.39679,2.16388 m 13.9919,1.96643 -11.60362,-1.63079 m -60.45313,-16.57475 21.78854,3.06218 m 30.30953,4.25973 -15.38969,-2.16288 m 23.74475,3.3371 11.60362,1.63079 m -50.26821,-15.14336 -21.78854,-3.06218 m 30.74869,4.32145 15.3826,2.16188 m 35.07785,4.92987 -20.75601,-2.91707 m -60.45313,-16.57475 21.78854,3.06218 m 18.37597,2.58257 -15.37551,-2.16088 m 35.66413,5.01226 21.78854,3.06218 m -48.04394,-14.83075 -34.19773,-4.80618 m 56.73866,7.9741 25.50301,3.58421 m -54.01072,-15.66933 -28.23095,-3.9676 m 50.77956,7.1366 31.46211,4.42171 m -58.18746,-16.25633 -24.05421,-3.3806 m 44.82046,6.2991 15.36897,2.15997 m 24.31791,3.41766 -24.05421,-3.3806 m -60.45313,-16.57475 24.05421,3.3806 m 30.17101,4.24026 -15.36386,-2.15925 m 20.4918,2.87993 25.15418,3.53519 m -60.45313,-16.57475 -13.86929,-1.94921 m 22.71735,3.19272 15.35873,2.15853 m 36.24634,5.09409 -31.11584,-4.37305 m -43.20658,-14.15091 13.86929,1.9492 m 18.24257,2.56383 -15.35361,-2.15781 m 20.48667,2.87922 15.36722,2.15972 m 21.71028,3.05118 -13.86928,-1.9492 m -60.45314,-16.57476 26.14764,3.67481 m 20.50133,2.88128 -15.3657,-2.15951 m 29.16987,4.09956 13.86928,1.9492 m -54.139,-15.68736 -20.18342,-2.8366 m 25.32161,3.55872 15.36418,2.1593 m 33.63663,4.72732 -13.86928,-1.9492 m -60.45314,-16.57476 14.2192,1.99838 m 20.50342,2.88157 -15.36267,-2.15908 m 41.09319,5.77527 13.86928,1.9492 m -45.56297,-14.48208 -26.51495,-3.72644 m 58.20864,8.1807 13.86928,1.9492 m -51.52615,-15.32015 -20.55177,-2.88837 m 60.47431,8.49911 11.60361,1.63079 m -57.48932,-16.15822 -14.5886,-2.0503 m 44.08526,6.19578 11.60361,1.63078 m 16.38905,2.30333 -11.60361,-1.63078 m -16.38905,-10.38195 11.60361,1.63078 m 16.38905,2.30333 -11.60361,-1.63078 m 39.17721,5.506 16.49049,2.31759 m -60.45314,-16.57476 -11.60361,-1.63078 m 49.60731,6.97185 22.44944,3.15507 m -60.45314,-16.57476 -11.60361,-1.63078 m 43.64837,6.13438 15.3808,2.16163 m 13.02758,1.83091 -11.60362,-1.63079 m -60.45313,-16.57475 11.60361,1.63078 m 41.4608,5.82694 -15.37499,-2.16082 m 22.76371,3.19923 11.60362,1.63079 m -60.45314,-16.57476 -11.60361,-1.63078 m 31.73047,4.45943 15.36918,2.15999 m 24.9571,3.5075 -11.60362,-1.63079 m -60.45313,-16.57475 11.60361,1.63078 m 29.53127,4.15035 -15.36335,-2.15918 m 34.6816,4.87418 11.60362,1.63078 m -60.45314,-16.57475 -11.60361,-1.63078 m 19.81258,2.78448 15.35754,2.15836 m 36.88663,5.18407 -11.60362,-1.63078 m -60.45313,-16.57475 11.60361,1.63078 m 17.60175,2.47376 -15.35172,-2.15754 m 46.59949,6.54913 11.60362,1.63078 m -48.81616,-14.93928 -23.24059,-3.26625 m 60.45313,8.49613 11.60362,1.63078 m -54.78092,-15.77757 -17.27583,-2.42796 m 60.45313,8.49613 11.60362,1.63078 m 0,-8.07862 -11.60362,-1.63078"
       style="fill:none;stroke:#000000;stroke-width:1"
       inkscape:connector-curvature="0" />
    <path
       id="path7659"
       d="m 133.78359,409.83293 -1.59668,91.47369 m 8.00122,0 1.59668,-91.47369 m 8.00122,0 -0.1885,10.79894 m -1.40818,80.67475 0.18849,-10.79893 m 9.40941,-80.67476 -0.1885,10.79894 m -1.17229,67.16037 0.28303,-16.21453 m -0.33043,18.92998 -0.18849,10.79893 m -1.61812,92.70186 1.59668,-91.47374 m 9.61708,-92.57294 -0.18945,10.85356 m -2.48274,142.23604 1.59668,-91.47369 m -1.94854,111.63179 -0.18849,10.79898 m 11.01266,-172.52578 0.19194,-10.99587 m -1.06635,61.09088 -0.18812,10.77776 m -0.32162,18.42537 0.19209,-11.00499 m -0.2227,12.75889 -0.1885,10.79899 m -0.86783,49.71767 0.1885,-10.79899 m -0.54036,30.95709 -0.18849,10.79898 m 10.95711,-169.34326 0.21911,-12.55281 m -1.03797,59.4653 -0.18813,10.77776 m -0.2924,16.75156 0.2101,-12.03646 m -0.26993,15.46417 -0.18849,10.79899 m -0.86783,49.71767 0.1885,-10.79899 m -0.54036,30.95709 -0.1885,10.79898 m 10.8015,-160.4275 0.30492,-17.4692 m -0.96832,55.47494 -0.42002,24.0629 m -0.31515,18.05527 0.19042,-10.90941 m -0.86327,49.45693 -0.1885,10.79899 m -0.53653,30.73758 0.19013,-10.89246 m 10.77597,-158.9655 -1.12163,64.25852 m -0.47022,26.93855 0.19901,-11.40103 m -0.84033,48.14259 -0.19017,10.89468 m -0.52491,30.07222 0.19654,-11.26018 m 10.41944,-138.53928 -0.46454,26.61311 m -0.26424,15.13858 0.20567,-11.78281 m -0.58138,33.30713 -0.2496,14.29941 m -0.7163,41.03707 0.20201,-11.57346 m -0.47084,26.97458 -0.23604,13.52286 m 9.73858,-99.53363 0.26131,-14.97049 m -0.62514,35.81448 -0.44292,25.37473 m -0.37985,21.7614 0.25037,-14.34367 m -0.27059,15.50215 -0.44112,25.27216 m 8.18464,-10.50866 1.61813,-92.70251 m 7.78315,12.49327 -0.80839,46.31278"
       style="fill:none;stroke:#000000;stroke-width:1"
       inkscape:connector-curvature="0" />
    <path
       style="fill:none;stroke:#000000;stroke-width:1"
       d="m 255.72266,605.51717 6.08023,6.75279 m 6.03157,-5.25708 -12.1118,-13.45152 m 20.36984,22.623 2.27139,2.52264 m -10.52943,-23.64993 -12.1118,-13.45152 m 20.36984,22.623 12.11181,13.45153 m -20.36985,-34.57883 -12.1118,-13.45151 m 20.36984,22.623 12.11181,13.45153 m -20.36985,-34.57883 -17.70186,-19.6599 m 25.9599,28.83138 12.11181,13.45153 M 267.83446,559.18963 250.1326,539.52972 m 25.9599,28.83139 12.11181,13.45153 M 267.83446,547.23382 250.1326,527.57391 m 25.9599,28.83139 12.11181,13.45153 m -45.64941,-62.65462 -4.06827,-4.51827 m 11.64597,12.93416 17.70186,19.6599 m 20.36985,22.62302 -12.11181,-13.45153 m -37.60587,-53.72137 23.75777,26.38568 m 5.59006,6.20839 -2.2744,-2.52597 m 10.53244,11.69746 12.11181,13.45152 M 262.2444,505.15799 238.48663,478.77231 m 43.63443,48.46095 6.08325,6.75613 M 262.2444,493.20218 238.48663,466.8165 m 31.21118,34.66353 9.44203,10.48643 m -28.54141,-43.65426 -12.1118,-13.45151 m 14.33571,15.92142 9.42206,10.46425 m 21.82644,24.24072 -14.37303,-15.96287 m -31.21118,-46.61934 12.1118,13.45152 m 36.84359,40.91895 -17.74421,-19.70694 m -31.21118,-46.61934 12.1118,13.45152 m 36.84359,40.91895 -17.74421,-19.70694 m -31.21118,-46.61934 12.1118,13.45152 m 36.84359,40.91895 -17.74421,-19.70694 m -23.38574,-37.92831 4.28636,4.76049 m 36.84359,40.91895 -17.74421,-19.70695 m 0,-11.95581 17.74421,19.70695 m 0,-11.95582 -15.31008,-17.00356 m 4.931,-6.47939 10.37908,11.52714"
       id="path7721"
       inkscape:connector-curvature="0" />
    <path
       id="path7787"
       d="m 298.71593,525.96278 6.26438,25.12505 m 8.24491,0 -14.50929,-58.19358 m 0,-33.06852 12.29573,49.31546 m 10.45847,41.94664 -2.69249,-10.79899 m 11.12829,44.63315 4.77851,19.16555 m -23.87789,-128.83751 -3.89848,-15.63594 m 9.67712,38.81281 2.67138,10.71429 m 10.45847,41.94664 -2.6925,-10.79899 m 2.88339,11.56462 13.02342,52.23408 m -25.08916,-133.69565 -2.68721,-10.7778 m 6.53725,26.21948 20.30633,81.44424 m 9.1777,36.80973 -2.69249,-10.79898 m 3.61501,14.49902 7.42419,29.77681 M 341.99656,534.20928 321.69023,452.76504 m 21.82213,87.5238 2.69249,10.79899 m 2.76113,11.07425 -2.67666,-10.73546 m 5.80746,23.29243 12.1118,48.57778 m 3.5573,14.26756 -2.68721,-10.77781 m -41.48694,-199.46357 12.35377,49.54827 m 11.6041,46.5415 -6.22968,-24.98588 m 10.43735,41.86194 15.90681,63.7987 m 8.34671,33.47685 -2.68721,-10.77781 m -41.48694,-199.46357 2.69249,10.79898 m 9.66128,38.74929 -4.3027,-17.25719 m 9.67712,38.81281 6.22968,24.98588 m 9.66128,38.7493 -5.45361,-21.87324 m 11.12368,44.61462 4.78312,19.18408 m 8.34672,33.47685 -2.68721,-10.77781 m -41.48694,-199.46357 2.69248,10.79898 m 9.66129,38.74929 -4.3027,-17.25719 m 9.67712,38.81281 6.22968,24.98588 m 9.66128,38.7493 -4.00706,-16.07143 m 9.67712,38.81281 4.78313,19.18408 m 8.34672,33.47685 -2.68721,-10.77781 m -41.48695,-199.46357 2.69249,10.79898 m 9.66129,38.74929 -4.30271,-17.25719 m 12.06341,48.38367 3.84339,15.41502 m 9.66129,38.7493 -4.00706,-16.07143 m 9.67712,38.81281 4.78313,19.18408 m 8.34672,33.47685 -2.68721,-10.77781 m -41.48695,-199.46357 2.69249,10.79898 m 5.57997,22.38003 -0.22139,-0.88793 m 1.62606,6.52173 2.67665,10.73546 m 11.6041,46.5415 -3.8434,-15.41502 m 9.49762,38.09289 4.00706,16.07143 m 8.34671,33.47684 -2.67665,-10.73546 m 10.44264,41.88312 2.68721,10.77781 m -41.48167,-199.4424 -2.69249,-10.79898 m 9.67712,38.81281 2.67666,10.73546 m 11.60409,46.5415 -3.84339,-15.41502 m 9.49762,38.09289 2.69249,10.79898 m 9.66128,38.74929 -2.67665,-10.73546 m 10.44264,41.88312 2.68721,10.77781 m -41.48167,-199.4424 -2.69249,-10.79898 m 9.67712,38.81281 1.67073,6.70092 m 11.62479,46.62449 -1.70725,-6.84743 m 8.34671,33.47685 2.69249,10.79898 m 9.44981,37.90112 -2.46518,-9.88729 m -31.04431,-157.58045 2.69249,10.79898 m 29.6121,118.76764 -2.69249,-10.79898"
       style="fill:none;stroke:#000000;stroke-width:1"
       inkscape:connector-curvature="0" />
    <path
       inkscape:connector-curvature="0"
       style="fill:none;stroke:#000000;stroke-width:1"
       d="m 395.9824,440.45539 12.1118,8.16952 m 0,-9.64975 -12.1118,-8.16951 m 0,-9.64974 12.1118,8.16951 m 0,-9.64974 -12.1118,-8.16952 m 0,-9.64974 12.1118,8.16951 m 6.1182,-5.52296 -18.23,-12.29629 m 26.08696,17.59587 3.82103,2.57732 m -51.2725,-44.23348 -8.76677,-5.91326 m 30.13128,20.3238 20.13693,13.58253 m 18.06183,12.18286 -12.1118,-8.16951 m -49.15528,-42.8054 16.01014,10.79898 m 27.19511,18.34333 -20.13693,-13.58253 m 26.08696,17.59588 12.1118,8.16951 m 19.34873,13.05088 -5.26771,-3.55311 m -61.04177,-50.82294 28.89892,19.49257 m 18.06183,12.18285 -12.1118,-8.16951 m 26.19282,17.66728 12.09063,8.15524 m -42.81592,-38.52945 -16.01015,-10.79898 m 20.54262,13.85617 12.1118,8.16951 m 26.17165,17.653 -12.09063,-8.15523 m -44.23348,-39.4856 37.32644,25.177 m 18.99767,12.81409 -12.09063,-8.15524 m -74.38593,-59.82368 6.5689,4.43078 m 11.67799,7.8769 -0.18507,-0.12483 m 12.09063,8.15523 12.09063,8.15524 m 26.67984,17.99577 -20.72981,-13.98243 m 26.19282,17.66728 12.09063,8.15523 m -44.23348,-39.4856 -37.3466,-25.1906 m 43.29663,29.20395 20.72981,13.98243 m 17.55364,11.84008 -12.09063,-8.15523 m -55.18312,-46.87123 27.65675,18.65471 m 22.06336,14.88193 -20.72981,-13.98244 m 26.19282,17.66728 14.57091,9.82821 m -20.03392,-23.1628 -35.41378,-23.88689 m 40.87679,27.57174 23.52485,15.86771 m 0,-9.64974 -50.0953,-33.78971 m -21.13564,-23.90591 7.0318,4.74301 m 38.78976,26.16402 -15.66911,-10.56895 m 15.96295,10.76715 25.11554,16.94065 M 421.89422,293.8875 405.88408,283.08852 m 24.82446,16.74431 12.09063,8.15523 m 34.18881,23.06065 -17.31275,-11.6776 m -39.48482,-36.28259 22.60876,15.2498 m 28.98786,19.55256 -12.1118,-8.16951 m 15.60893,10.52835 15.32698,10.33818 m -40.10425,-36.7004 -16.01015,-10.79898 m 20.77419,14.01236 2.11091,1.42383 m 14.40519,9.71642 -12.1118,-8.16951 m 29.91526,20.1781 1.02065,0.68844 m -47.27035,-41.534 -13.79684,-9.30609 m 19.25913,12.99045 22.98395,15.50287 m 8.02316,-4.23805 -38.14183,-25.72699 m 13.60257,-0.4747 27.27273,18.39569 m -15.16092,-19.87591 -12.11181,-8.16952 m 15.0101,10.12444 15.97876,10.77781 m -18.87705,-22.38247 -12.11181,-8.16952 m 15.1821,10.24045 12.09063,8.15524 m 18.02246,12.1563 -15.97876,-10.77781 m -29.31643,-29.42393 12.11181,8.16952 m 15.16092,10.22617 -12.09063,-8.15523 m 28.44066,19.18347 3.15166,2.12582 m -64.12443,-52.90222 -12.78127,-8.62107 m 30.13128,20.3238 12.11181,8.16952 m 15.16092,10.22617 -12.09063,-8.15524 m -34.23592,-32.74216 16.01014,10.79898 m 15.15549,10.2225 -12.11181,-8.16951 m 15.1821,10.24045 12.09063,8.15524 M 467.38274,218.42271 444.33913,202.8796 m 26.1139,17.61405 12.09063,8.15523 m 0,-9.64974 -23.8982,-16.11954 m 14.30634,0 22.19445,14.97035 m 8.12203,-4.17137 -16.01015,-10.79898 m 14.30633,0 11.23753,7.57981"
       id="path7862" />
  </g>
  <g
     inkscape:groupmode="layer"
     id="layer2"
     inkscape:label="Layer"
     style="display:inline">
    <path
       inkscape:connector-curvature="0"
       style="fill:none;stroke:#000000;stroke-width:1"
       d="m 26.73852,114.94062 -0.494858,0.21005 m 0,8.69089 20.969295,-8.90094 m 20.474438,0 -41.443733,17.59182 m 0,8.69088 61.91817,-26.2827 m 20.474438,0 -82.392608,34.97359 m 0,8.69088 102.867048,-43.66447 m 20.47443,0 -123.341478,52.35535 m 0,8.69089 143.815918,-61.04624 m 20.47444,0 -164.290358,69.73712 m 0,8.69088 184.764798,-78.428 m 20.47443,0 -205.239228,87.11888 m 0,8.69089 225.713668,-95.80977 m 20.47444,0 -246.188108,104.50065 m 0,8.69088 L 292.9062,114.94062 m 20.47444,0 -287.136978,121.88242 m 0,8.69088 307.611418,-130.5733 m 20.47444,0 L 26.243662,254.2048 m 0,8.69089 348.560288,-147.95507 m 20.47444,0 -369.034728,156.64595 m 0,8.69088 389.509168,-165.33683 m 20.47444,0 -409.983608,174.02772 m 0,8.69088 430.458038,-182.7186 m 20.47444,0 L 26.243662,306.3501 m 0,8.69088 471.406918,-200.10036 m 20.47444,0 -491.881358,208.79125 m 0,8.69088 L 519.1981,123.17601 m 0,8.69088 -492.954438,209.24674 m 0,8.69089 L 519.1981,140.55777 m 0,8.69088 L 26.243662,358.4954 m 0,8.69088 L 519.1981,157.93954 m 0,8.69088 -492.954438,209.24674 m 0,8.69089 L 519.1981,175.3213 m 0,8.69089 -492.954438,209.24674 m 0,8.69088 L 519.1981,192.70307 m 0,8.69088 L 26.243662,410.6407 m 0,8.69088 L 519.1981,210.08483 m 0,8.69089 -492.954438,209.24674 m 0,8.69089 L 519.1981,227.4666 m 0,8.69088 -492.954438,209.24675 m 0,8.69088 L 519.1981,244.84837 m 0,8.69088 L 26.243662,462.786 m 0,8.69088 L 519.1981,262.23013 m 0,8.69089 -492.954438,209.24674 m 0,8.69089 L 519.1981,279.6119 m 0,8.69088 -492.954438,209.24675 m 0,8.69088 L 519.1981,296.99367 m 0,8.69088 -492.954438,209.24674 m 0,8.69089 L 519.1981,314.37543 m 0,8.69088 -492.954438,209.24675 m 0,8.69088 L 519.1981,331.7572 m 0,8.69088 -492.954438,209.24675 m 0,8.69088 L 519.1981,349.13896 m 0,8.69089 -492.954438,209.24674 m 0,8.69088 L 519.1981,366.52073 m 0,8.69088 -492.954438,209.24675 m 0,8.69088 L 519.1981,383.9025 m 0,8.69088 -492.954438,209.24674 m 0,8.69089 L 519.1981,401.28426 m 0,8.69088 -492.954438,209.24675 m 0,8.69088 L 519.1981,418.66603 m 0,8.69088 -492.954438,209.24675 m 0,8.69088 L 519.1981,436.04779 m 0,8.69089 -492.954438,209.24674 m 0,8.69088 L 519.1981,453.42956 m 0,8.69088 -492.954438,209.24675 m 0,8.69088 L 519.1981,470.81133 m 0,8.69088 -492.954438,209.24674 m 0,8.69089 L 519.1981,488.19309 m 0,8.69089 -492.954438,209.24674 m 0,8.69088 L 519.1981,505.57486 m 0,8.69088 -472.83257,200.70552 m 20.474437,0 L 519.1981,522.95662 m 0,8.69089 -431.883696,183.32375 m 20.474436,0 411.40926,-174.63287 m 0,8.69088 -390.93482,165.94199 m 20.47444,0 370.46038,-157.2511 m 0,8.69088 -349.98595,148.56022 m 20.47444,0 329.51151,-139.86934 m 0,8.69089 -309.03707,131.17845 m 20.47444,0 288.56263,-122.48757 m 0,8.69088 -268.0882,113.79669 m 20.47444,0 247.61376,-105.10581 m 0,8.69089 -227.13932,96.41492 m 20.47443,0 206.66489,-87.72404 m 0,8.69088 -186.19045,79.03316 m 20.47444,0 165.71601,-70.34227 m 0,8.69088 -145.24157,61.65139 m 20.47443,0 124.76714,-52.96051 m 0,8.69088 -104.2927,44.26963 m 20.47444,0 83.81826,-35.57874 m 0,8.69088 -63.34382,26.88786 m 20.47443,0 42.86939,-18.19698 m 0,8.69089 -22.39495,9.50609 m 20.47444,0 1.92051,-0.81521"
       id="path7343" />
  </g>
</svg>
