<?xml version="1.0" encoding="UTF-8" standalone="no"?>
<!-- Created for Inkscape (http://www.inkscape.org/) -->

<svg
   xmlns:dc="http://purl.org/dc/elements/1.1/"
   xmlns:cc="http://creativecommons.org/ns#"
   xmlns:rdf="http://www.w3.org/1999/02/22-rdf-syntax-ns#"
   xmlns:svg="http://www.w3.org/2000/svg"
   xmlns="http://www.w3.org/2000/svg"
   xmlns:sodipodi="http://sodipodi.sourceforge.net/DTD/sodipodi-0.dtd"
   xmlns:inkscape="http://www.inkscape.org/namespaces/inkscape"
   width="3200"
   height="800"
   id="svg2985"
   version="1.1"
   inkscape:version="0.48.1 r9760">
  <defs
     id="defs2987" />
  <sodipodi:namedview
     id="base"
     pagecolor="#ffffff"
     bordercolor="#666666"
     borderopacity="1.0"
     inkscape:pageopacity="0.0"
     inkscape:pageshadow="2"
     inkscape:zoom="0.35"
     inkscape:cx="1600"
     inkscape:cy="400"
     inkscape:document-units="px"
     inkscape:current-layer="layer1"
     showgrid="false"  />
  <metadata
     id="metadata2990">
    <rdf:RDF>
      <cc:Work
         rdf:about="">
        <dc:format>image/svg+xml</dc:format>
        <dc:type
           rdf:resource="http://purl.org/dc/dcmitype/StillImage" />
        <dc:title />
      </cc:Work>
    </rdf:RDF>
  </metadata>
  <g
     inkscape:label="Layer 1"
     inkscape:groupmode="layer"
     id="layer1"> 
     <g>
<circle cx="1446.0145" cy="97.9538" r="11.798981" style="fill:none;stroke:black;stroke-width:2;"/>
<circle cx="1427.2924" cy="112.121635" r="13.2503605" style="fill:none;stroke:black;stroke-width:2;"/>
<circle cx="1462.3436" cy="117.59888" r="13.29874" style="fill:none;stroke:black;stroke-width:2;"/>
<circle cx="1473.8103" cy="96.4551" r="8.944599" style="fill:none;stroke:black;stroke-width:2;"/>
<circle cx="1477.3926" cy="137.07878" r="12.718188" style="fill:none;stroke:black;stroke-width:2;"/>
<circle cx="1499.1372" cy="151.60262" r="13.105223" style="fill:none;stroke:black;stroke-width:2;"/>
<circle cx="1508.8206" cy="128.43358" r="12.960085" style="fill:none;stroke:black;stroke-width:2;"/>
<circle cx="1486.409" cy="117.99985" r="13.2503605" style="fill:none;stroke:black;stroke-width:2;"/>
<circle cx="1501.1118" cy="103.04253" r="12.911705" style="fill:none;stroke:black;stroke-width:2;"/>
<circle cx="1522.5912" cy="108.8441" r="13.2503605" style="fill:none;stroke:black;stroke-width:2;"/>
<circle cx="1534.8442" cy="128.80124" r="12.476292" style="fill:none;stroke:black;stroke-width:2;"/>
<circle cx="1525.6809" cy="150.08012" r="13.2503605" style="fill:none;stroke:black;stroke-width:2;"/>
<circle cx="1515.5718" cy="173.28465" r="13.2503605" style="fill:none;stroke:black;stroke-width:2;"/>
<circle cx="1488.4348" cy="174.82684" r="13.2503605" style="fill:none;stroke:black;stroke-width:2;"/>
<circle cx="1467.8741" cy="160.54558" r="13.201982" style="fill:none;stroke:black;stroke-width:2;"/>
<circle cx="1452.6718" cy="144.7707" r="13.2503605" style="fill:none;stroke:black;stroke-width:2;"/>
<circle cx="1442.9159" cy="124.81149" r="10.879772" style="fill:none;stroke:black;stroke-width:2;"/>
<circle cx="1425.8336" cy="139.92667" r="4.3969393" style="fill:none;stroke:black;stroke-width:2;"/>
<circle cx="1413.7406" cy="169.03468" r="13.201982" style="fill:none;stroke:black;stroke-width:2;"/>
<circle cx="1447.0594" cy="170.3579" r="1.8328333" style="fill:none;stroke:black;stroke-width:2;"/>
<circle cx="1433.2365" cy="185.07812" r="13.2503605" style="fill:none;stroke:black;stroke-width:2;"/>
<circle cx="1448.0535" cy="202.09988" r="12.911705" style="fill:none;stroke:black;stroke-width:2;"/>
<circle cx="1473.9248" cy="194.84662" r="11.895739" style="fill:none;stroke:black;stroke-width:2;"/>
<circle cx="1468.7947" cy="219.31688" r="13.008464" style="fill:none;stroke:black;stroke-width:2;"/>
<circle cx="1483.75" cy="234.85197" r="12.718188" style="fill:none;stroke:black;stroke-width:2;"/>
<circle cx="1492.0944" cy="213.97842" r="13.201982" style="fill:none;stroke:black;stroke-width:2;"/>
<circle cx="1502.8381" cy="193.72588" r="13.2503605" style="fill:none;stroke:black;stroke-width:2;"/>
<circle cx="1534.2662" cy="188.85893" r="13.2503605" style="fill:none;stroke:black;stroke-width:2;"/>
<circle cx="1543.2303" cy="169.17383" r="13.29874" style="fill:none;stroke:black;stroke-width:2;"/>
<circle cx="1558.2329" cy="196.56964" r="13.29874" style="fill:none;stroke:black;stroke-width:2;"/>
<circle cx="1567.1885" cy="173.25139" r="13.2503605" style="fill:none;stroke:black;stroke-width:2;"/>
<circle cx="1590.7086" cy="184.3331" r="13.29874" style="fill:none;stroke:black;stroke-width:2;"/>
<circle cx="1596.4436" cy="161.29071" r="13.153602" style="fill:none;stroke:black;stroke-width:2;"/>
<circle cx="1574.605" cy="149.16977" r="13.29874" style="fill:none;stroke:black;stroke-width:2;"/>
<circle cx="1601.6072" cy="137.42836" r="12.960085" style="fill:none;stroke:black;stroke-width:2;"/>
<circle cx="1624.4069" cy="134.70459" r="13.2503605" style="fill:none;stroke:black;stroke-width:2;"/>
<circle cx="1616.4631" cy="116.85652" r="9.52515" style="fill:none;stroke:black;stroke-width:2;"/>
<circle cx="1594.0128" cy="115.35115" r="8.460806" style="fill:none;stroke:black;stroke-width:2;"/>
<circle cx="1578.8799" cy="126.9669" r="13.2503605" style="fill:none;stroke:black;stroke-width:2;"/>
<circle cx="1550.8" cy="147.59236" r="13.2503605" style="fill:none;stroke:black;stroke-width:2;"/>
<circle cx="1558.1355" cy="125.2409" r="13.201982" style="fill:none;stroke:black;stroke-width:2;"/>
<circle cx="1544.193" cy="107.248955" r="4.3001804" style="fill:none;stroke:black;stroke-width:2;"/>
<circle cx="1567.844" cy="101.792786" r="3.0906963" style="fill:none;stroke:black;stroke-width:2;"/>
<circle cx="1593.4456" cy="91.75277" r="1.4457989" style="fill:none;stroke:black;stroke-width:2;"/>
<circle cx="1617.3383" cy="89.14096" r="8.025391" style="fill:none;stroke:black;stroke-width:2;"/>
<circle cx="1640.1036" cy="77.3706" r="5.799941" style="fill:none;stroke:black;stroke-width:2;"/>
<circle cx="1667.5972" cy="75.46248" r="13.2503605" style="fill:none;stroke:black;stroke-width:2;"/>
<circle cx="1661.7039" cy="94.735214" r="13.2503605" style="fill:none;stroke:black;stroke-width:2;"/>
<circle cx="1639.2795" cy="105.12781" r="2.2682476" style="fill:none;stroke:black;stroke-width:2;"/>
<circle cx="1644.406" cy="128.76752" r="13.153602" style="fill:none;stroke:black;stroke-width:2;"/>
<circle cx="1662.0237" cy="118.91164" r="13.29874" style="fill:none;stroke:black;stroke-width:2;"/>
<circle cx="1679.8237" cy="107.217705" r="13.29874" style="fill:none;stroke:black;stroke-width:2;"/>
<circle cx="1701.4188" cy="105.73366" r="13.29874" style="fill:none;stroke:black;stroke-width:2;"/>
<circle cx="1686.2131" cy="85.26497" r="13.201982" style="fill:none;stroke:black;stroke-width:2;"/>
<circle cx="1706.5219" cy="86.91259" r="13.2503605" style="fill:none;stroke:black;stroke-width:2;"/>
<circle cx="1722.7623" cy="103.94542" r="13.29874" style="fill:none;stroke:black;stroke-width:2;"/>
<circle cx="1693.9673" cy="124.356285" r="13.29874" style="fill:none;stroke:black;stroke-width:2;"/>
<circle cx="1714.4026" cy="126.27757" r="13.29874" style="fill:none;stroke:black;stroke-width:2;"/>
<circle cx="1734.5669" cy="121.213036" r="13.29874" style="fill:none;stroke:black;stroke-width:2;"/>
<circle cx="1730.8167" cy="142.311" r="13.29874" style="fill:none;stroke:black;stroke-width:2;"/>
<circle cx="1744.3528" cy="158.71735" r="12.089256" style="fill:none;stroke:black;stroke-width:2;"/>
<circle cx="1760.4745" cy="140.77582" r="13.2503605" style="fill:none;stroke:black;stroke-width:2;"/>
<circle cx="1782.2733" cy="134.1329" r="13.201982" style="fill:none;stroke:black;stroke-width:2;"/>
<circle cx="1790.181" cy="113.45336" r="13.29874" style="fill:none;stroke:black;stroke-width:2;"/>
<circle cx="1809.7825" cy="121.78009" r="13.056844" style="fill:none;stroke:black;stroke-width:2;"/>
<circle cx="1837.9327" cy="119.88121" r="13.201982" style="fill:none;stroke:black;stroke-width:2;"/>
<circle cx="1864.7881" cy="86.94095" r="13.29874" style="fill:none;stroke:black;stroke-width:2;"/>
<circle cx="1886.29" cy="76.41652" r="13.29874" style="fill:none;stroke:black;stroke-width:2;"/>
<circle cx="1903.7441" cy="92.610214" r="13.2503605" style="fill:none;stroke:black;stroke-width:2;"/>
<circle cx="1910.9456" cy="67.311935" r="13.29874" style="fill:none;stroke:black;stroke-width:2;"/>
<circle cx="1930.4218" cy="75.31621" r="13.29874" style="fill:none;stroke:black;stroke-width:2;"/>
<circle cx="1945.1226" cy="93.72069" r="13.29874" style="fill:none;stroke:black;stroke-width:2;"/>
<circle cx="1957.8682" cy="111.75445" r="13.29874" style="fill:none;stroke:black;stroke-width:2;"/>
<circle cx="1959.8275" cy="132.6636" r="13.29874" style="fill:none;stroke:black;stroke-width:2;"/>
<circle cx="1966.2708" cy="152.68983" r="12.137636" style="fill:none;stroke:black;stroke-width:2;"/>
<circle cx="1955.9946" cy="171.98352" r="13.2503605" style="fill:none;stroke:black;stroke-width:2;"/>
<circle cx="1952.6469" cy="194.56369" r="11.798981" style="fill:none;stroke:black;stroke-width:2;"/>
<circle cx="1933.9495" cy="203.23755" r="12.186015" style="fill:none;stroke:black;stroke-width:2;"/>
<circle cx="1940.0161" cy="229.79779" r="13.153602" style="fill:none;stroke:black;stroke-width:2;"/>
<circle cx="1958.052" cy="220.86261" r="13.29874" style="fill:none;stroke:black;stroke-width:2;"/>
<circle cx="1968.052" cy="247.41447" r="13.2503605" style="fill:none;stroke:black;stroke-width:2;"/>
<circle cx="1974.5558" cy="295.33582" r="12.718188" style="fill:none;stroke:black;stroke-width:2;"/>
<circle cx="2009.8855" cy="329.3474" r="12.960085" style="fill:none;stroke:black;stroke-width:2;"/>
<circle cx="2047.3068" cy="343.52267" r="9.57353" style="fill:none;stroke:black;stroke-width:2;"/>
<circle cx="2075.9292" cy="371.86862" r="11.798981" style="fill:none;stroke:black;stroke-width:2;"/>
<circle cx="2102.6812" cy="379.36655" r="12.524671" style="fill:none;stroke:black;stroke-width:2;"/>
<circle cx="2052.5867" cy="361.549" r="11.460325" style="fill:none;stroke:black;stroke-width:2;"/>
<circle cx="2028.5903" cy="342.903" r="12.234394" style="fill:none;stroke:black;stroke-width:2;"/>
<circle cx="1992.4514" cy="313.29684" r="13.153602" style="fill:none;stroke:black;stroke-width:2;"/>
<circle cx="1964.1289" cy="274.88525" r="12.960085" style="fill:none;stroke:black;stroke-width:2;"/>
<circle cx="1944.6217" cy="255.54312" r="9.670289" style="fill:none;stroke:black;stroke-width:2;"/>
<circle cx="1909.4213" cy="243.68045" r="9.089737" style="fill:none;stroke:black;stroke-width:2;"/>
<circle cx="1885.4556" cy="234.36743" r="10.928152" style="fill:none;stroke:black;stroke-width:2;"/>
<circle cx="1864.5233" cy="224.48596" r="11.9441185" style="fill:none;stroke:black;stroke-width:2;"/>
<circle cx="1843.1785" cy="216.77232" r="10.783014" style="fill:none;stroke:black;stroke-width:2;"/>
<circle cx="1835.5465" cy="194.4033" r="10.928152" style="fill:none;stroke:black;stroke-width:2;"/>
<circle cx="1860.8718" cy="193.43059" r="13.105223" style="fill:none;stroke:black;stroke-width:2;"/>
<circle cx="1882.376" cy="202.16177" r="12.331153" style="fill:none;stroke:black;stroke-width:2;"/>
<circle cx="1901.515" cy="216.2548" r="8.557564" style="fill:none;stroke:black;stroke-width:2;"/>
<circle cx="1909.9985" cy="186.02353" r="11.460325" style="fill:none;stroke:black;stroke-width:2;"/>
<circle cx="1888.9048" cy="177.86455" r="13.2503605" style="fill:none;stroke:black;stroke-width:2;"/>
<circle cx="1871.0067" cy="166.42084" r="12.282774" style="fill:none;stroke:black;stroke-width:2;"/>
<circle cx="1845.7493" cy="170.47633" r="13.105223" style="fill:none;stroke:black;stroke-width:2;"/>
<circle cx="1856.9124" cy="142.9333" r="8.170528" style="fill:none;stroke:black;stroke-width:2;"/>
<circle cx="1877.9026" cy="139.70955" r="13.2503605" style="fill:none;stroke:black;stroke-width:2;"/>
<circle cx="1901.8236" cy="156.44125" r="12.621429" style="fill:none;stroke:black;stroke-width:2;"/>
<circle cx="1929.2015" cy="171.42343" r="13.2503605" style="fill:none;stroke:black;stroke-width:2;"/>
<circle cx="1941.344" cy="150.03372" r="11.653842" style="fill:none;stroke:black;stroke-width:2;"/>
<circle cx="1919.0139" cy="141.48956" r="13.2503605" style="fill:none;stroke:black;stroke-width:2;"/>
<circle cx="1936.0515" cy="123.83655" r="13.29874" style="fill:none;stroke:black;stroke-width:2;"/>
<circle cx="1926.3442" cy="100.93619" r="13.29874" style="fill:none;stroke:black;stroke-width:2;"/>
<circle cx="1910.5448" cy="116.02324" r="13.2503605" style="fill:none;stroke:black;stroke-width:2;"/>
<circle cx="1895.2881" cy="129.51175" r="13.29874" style="fill:none;stroke:black;stroke-width:2;"/>
<circle cx="1880.507" cy="108.17485" r="13.29874" style="fill:none;stroke:black;stroke-width:2;"/>
<circle cx="1855.6384" cy="109.50198" r="13.29874" style="fill:none;stroke:black;stroke-width:2;"/>
<circle cx="1823.655" cy="137.71959" r="13.153602" style="fill:none;stroke:black;stroke-width:2;"/>
<circle cx="1802.4866" cy="149.86244" r="12.234394" style="fill:none;stroke:black;stroke-width:2;"/>
<circle cx="1780.7617" cy="161.54074" r="12.427912" style="fill:none;stroke:black;stroke-width:2;"/>
<circle cx="1761.5214" cy="174.37631" r="10.395979" style="fill:none;stroke:black;stroke-width:2;"/>
<circle cx="1744.1655" cy="197.10759" r="12.911705" style="fill:none;stroke:black;stroke-width:2;"/>
<circle cx="1742.7512" cy="217.74908" r="13.2503605" style="fill:none;stroke:black;stroke-width:2;"/>
<circle cx="1734.046" cy="178.60895" r="11.508704" style="fill:none;stroke:black;stroke-width:2;"/>
<circle cx="1718.6287" cy="162.38467" r="13.29874" style="fill:none;stroke:black;stroke-width:2;"/>
<circle cx="1702.8062" cy="146.42213" r="13.29874" style="fill:none;stroke:black;stroke-width:2;"/>
<circle cx="1682.6565" cy="158.75586" r="13.29874" style="fill:none;stroke:black;stroke-width:2;"/>
<circle cx="1699.1835" cy="173.48405" r="13.29874" style="fill:none;stroke:black;stroke-width:2;"/>
<circle cx="1712.8688" cy="189.2415" r="13.29874" style="fill:none;stroke:black;stroke-width:2;"/>
<circle cx="1724.3279" cy="206.09912" r="13.2503605" style="fill:none;stroke:black;stroke-width:2;"/>
<circle cx="1721.8838" cy="229.51578" r="13.2503605" style="fill:none;stroke:black;stroke-width:2;"/>
<circle cx="1705.2574" cy="216.15439" r="13.29874" style="fill:none;stroke:black;stroke-width:2;"/>
<circle cx="1691.7019" cy="200.5048" r="13.29874" style="fill:none;stroke:black;stroke-width:2;"/>
<circle cx="1679.2947" cy="183.2487" r="13.29874" style="fill:none;stroke:black;stroke-width:2;"/>
<circle cx="1658.9944" cy="190.28893" r="13.29874" style="fill:none;stroke:black;stroke-width:2;"/>
<circle cx="1637.7947" cy="171.05612" r="13.29874" style="fill:none;stroke:black;stroke-width:2;"/>
<circle cx="1660.6344" cy="168.49005" r="13.29874" style="fill:none;stroke:black;stroke-width:2;"/>
<circle cx="1679.3192" cy="135.33891" r="13.29874" style="fill:none;stroke:black;stroke-width:2;"/>
<circle cx="1662.5006" cy="145.58124" r="13.29874" style="fill:none;stroke:black;stroke-width:2;"/>
<circle cx="1642.2726" cy="150.93369" r="13.29874" style="fill:none;stroke:black;stroke-width:2;"/>
<circle cx="1618.1304" cy="156.45383" r="13.201982" style="fill:none;stroke:black;stroke-width:2;"/>
<circle cx="1614.7439" cy="178.98624" r="13.2503605" style="fill:none;stroke:black;stroke-width:2;"/>
<circle cx="1634.4574" cy="191.44394" r="13.2503605" style="fill:none;stroke:black;stroke-width:2;"/>
<circle cx="1625.3777" cy="217.12997" r="13.2503605" style="fill:none;stroke:black;stroke-width:2;"/>
<circle cx="1608.1221" cy="200.4007" r="13.29874" style="fill:none;stroke:black;stroke-width:2;"/>
<circle cx="1601.2723" cy="222.49673" r="13.2503605" style="fill:none;stroke:black;stroke-width:2;"/>
<circle cx="1583.2198" cy="205.30504" r="13.2503605" style="fill:none;stroke:black;stroke-width:2;"/>
<circle cx="1575.6149" cy="225.49565" r="13.201982" style="fill:none;stroke:black;stroke-width:2;"/>
<circle cx="1568.3516" cy="245.30984" r="13.2503605" style="fill:none;stroke:black;stroke-width:2;"/>
<circle cx="1548.753" cy="219.37498" r="13.2503605" style="fill:none;stroke:black;stroke-width:2;"/>
<circle cx="1524.2466" cy="205.91197" r="13.2503605" style="fill:none;stroke:black;stroke-width:2;"/>
<circle cx="1515.3463" cy="222.79144" r="13.2503605" style="fill:none;stroke:black;stroke-width:2;"/>
<circle cx="1507.2825" cy="239.81863" r="13.2503605" style="fill:none;stroke:black;stroke-width:2;"/>
<circle cx="1501.551" cy="257.41833" r="12.814947" style="fill:none;stroke:black;stroke-width:2;"/>
<circle cx="1318.0701" cy="377.84604" r="12.476292" style="fill:none;stroke:black;stroke-width:2;"/>
<circle cx="1327.5524" cy="397.77057" r="12.379533" style="fill:none;stroke:black;stroke-width:2;"/>
<circle cx="1307.72" cy="355.447" r="13.153602" style="fill:none;stroke:black;stroke-width:2;"/>
<circle cx="1295.7911" cy="331.86185" r="13.2503605" style="fill:none;stroke:black;stroke-width:2;"/>
<circle cx="1277.7506" cy="322.66586" r="12.814947" style="fill:none;stroke:black;stroke-width:2;"/>
<circle cx="1281.5272" cy="303.73914" r="13.29874" style="fill:none;stroke:black;stroke-width:2;"/>
<circle cx="1262.9822" cy="296.74295" r="13.105223" style="fill:none;stroke:black;stroke-width:2;"/>
<circle cx="1271.0519" cy="275.0912" r="13.2503605" style="fill:none;stroke:black;stroke-width:2;"/>
<circle cx="1265.5004" cy="250.50584" r="12.379533" style="fill:none;stroke:black;stroke-width:2;"/>
<circle cx="1277.9395" cy="227.90222" r="9.331634" style="fill:none;stroke:black;stroke-width:2;"/>
<circle cx="1298.2091" cy="213.40683" r="11.750601" style="fill:none;stroke:black;stroke-width:2;"/>
<circle cx="1307.5403" cy="235.26633" r="11.84736" style="fill:none;stroke:black;stroke-width:2;"/>
<circle cx="1333.8204" cy="236.5512" r="9.138116" style="fill:none;stroke:black;stroke-width:2;"/>
<circle cx="1327.2092" cy="211.0087" r="9.089737" style="fill:none;stroke:black;stroke-width:2;"/>
<circle cx="1304.0612" cy="192.43637" r="13.008464" style="fill:none;stroke:black;stroke-width:2;"/>
<circle cx="1327.1375" cy="182.87408" r="9.62191" style="fill:none;stroke:black;stroke-width:2;"/>
<circle cx="1331.6813" cy="153.31824" r="7.9770117" style="fill:none;stroke:black;stroke-width:2;"/>
<circle cx="1330.0304" cy="126.112045" r="11.266808" style="fill:none;stroke:black;stroke-width:2;"/>
<circle cx="1310.7122" cy="118.28624" r="13.29874" style="fill:none;stroke:black;stroke-width:2;"/>
<circle cx="1336.0776" cy="105.04852" r="13.2503605" style="fill:none;stroke:black;stroke-width:2;"/>
<circle cx="1353.83" cy="129.4516" r="10.0089445" style="fill:none;stroke:black;stroke-width:2;"/>
<circle cx="1372.0977" cy="148.47806" r="13.201982" style="fill:none;stroke:black;stroke-width:2;"/>
<circle cx="1392.128" cy="158.0088" r="7.735115" style="fill:none;stroke:black;stroke-width:2;"/>
<circle cx="1400.1636" cy="138.9426" r="7.6867356" style="fill:none;stroke:black;stroke-width:2;"/>
<circle cx="1378.4324" cy="123.951164" r="10.879772" style="fill:none;stroke:black;stroke-width:2;"/>
<circle cx="1405.3495" cy="119.5791" r="7.34808" style="fill:none;stroke:black;stroke-width:2;"/>
<circle cx="1410.8569" cy="97.035416" r="11.798981" style="fill:none;stroke:black;stroke-width:2;"/>
<circle cx="1396.1921" cy="78.8597" r="11.411945" style="fill:none;stroke:black;stroke-width:2;"/>
<circle cx="1386.1182" cy="102.4845" r="13.2503605" style="fill:none;stroke:black;stroke-width:2;"/>
<circle cx="1359.3759" cy="103.65569" r="13.105223" style="fill:none;stroke:black;stroke-width:2;"/>
<circle cx="1368.507" cy="82.189644" r="13.2503605" style="fill:none;stroke:black;stroke-width:2;"/>
<circle cx="1339.8704" cy="82.380875" r="1.6393166" style="fill:none;stroke:black;stroke-width:2;"/>
<circle cx="1315.837" cy="96.47024" r="13.2503605" style="fill:none;stroke:black;stroke-width:2;"/>
<circle cx="1292.9731" cy="105.811966" r="13.201982" style="fill:none;stroke:black;stroke-width:2;"/>
<circle cx="1270.8049" cy="118.57787" r="10.589497" style="fill:none;stroke:black;stroke-width:2;"/>
<circle cx="1287.8119" cy="129.63272" r="13.29874" style="fill:none;stroke:black;stroke-width:2;"/>
<circle cx="1289.4509" cy="150.5187" r="13.153602" style="fill:none;stroke:black;stroke-width:2;"/>
<circle cx="1308.556" cy="141.00769" r="13.29874" style="fill:none;stroke:black;stroke-width:2;"/>
<circle cx="1306.5234" cy="166.70328" r="13.201982" style="fill:none;stroke:black;stroke-width:2;"/>
<circle cx="1286.4109" cy="176.27939" r="13.29874" style="fill:none;stroke:black;stroke-width:2;"/>
<circle cx="1277.1644" cy="196.68277" r="13.2503605" style="fill:none;stroke:black;stroke-width:2;"/>
<circle cx="1259.3756" cy="208.69809" r="13.29874" style="fill:none;stroke:black;stroke-width:2;"/>
<circle cx="1259.9727" cy="139.79808" r="13.2503605" style="fill:none;stroke:black;stroke-width:2;"/>
<circle cx="1240.7356" cy="154.44388" r="13.201982" style="fill:none;stroke:black;stroke-width:2;"/>
<circle cx="1219.031" cy="170.52121" r="11.9441185" style="fill:none;stroke:black;stroke-width:2;"/>
<circle cx="1195.8904" cy="188.49474" r="12.911705" style="fill:none;stroke:black;stroke-width:2;"/>
<circle cx="1167.9635" cy="209.91739" r="12.960085" style="fill:none;stroke:black;stroke-width:2;"/>
<circle cx="1201.9331" cy="234.53061" r="11.12167" style="fill:none;stroke:black;stroke-width:2;"/>
<circle cx="1223.5156" cy="232.974" r="11.266808" style="fill:none;stroke:black;stroke-width:2;"/>
<circle cx="1247.262" cy="226.87592" r="11.798981" style="fill:none;stroke:black;stroke-width:2;"/>
<circle cx="1239.2007" cy="252.20573" r="12.427912" style="fill:none;stroke:black;stroke-width:2;"/>
<circle cx="1247.5192" cy="275.69263" r="12.427912" style="fill:none;stroke:black;stroke-width:2;"/>
<circle cx="1219.7506" cy="269.46094" r="7.638356" style="fill:none;stroke:black;stroke-width:2;"/>
<circle cx="1204.0527" cy="256.3109" r="8.944599" style="fill:none;stroke:black;stroke-width:2;"/>
<circle cx="1138.9222" cy="246.0933" r="11.170049" style="fill:none;stroke:black;stroke-width:2;"/>
<circle cx="1116.4529" cy="301.4842" r="10.202461" style="fill:none;stroke:black;stroke-width:2;"/>
<circle cx="1100.8876" cy="371.8512" r="8.315667" style="fill:none;stroke:black;stroke-width:2;"/>
<circle cx="1285.005" cy="349.49677" r="9.670289" style="fill:none;stroke:black;stroke-width:2;"/>
<circle cx="1292.3416" cy="372.7817" r="9.863806" style="fill:none;stroke:black;stroke-width:2;"/>
<circle cx="1295.0913" cy="396.05585" r="9.767048" style="fill:none;stroke:black;stroke-width:2;"/>
<circle cx="1298.2388" cy="420.10532" r="9.186495" style="fill:none;stroke:black;stroke-width:2;"/>
<circle cx="1342.2217" cy="412.07098" r="12.766567" style="fill:none;stroke:black;stroke-width:2;"/>
<circle cx="1364.132" cy="431.1222" r="13.056844" style="fill:none;stroke:black;stroke-width:2;"/>
<circle cx="1342.1934" cy="431.20697" r="13.056844" style="fill:none;stroke:black;stroke-width:2;"/>
<circle cx="1322.6969" cy="457.39026" r="8.557564" style="fill:none;stroke:black;stroke-width:2;"/>
<circle cx="1310.5863" cy="438.79965" r="9.52515" style="fill:none;stroke:black;stroke-width:2;"/>
<circle cx="1293.7029" cy="446.67963" r="10.105703" style="fill:none;stroke:black;stroke-width:2;"/>
<circle cx="1293.3771" cy="471.62457" r="9.234875" style="fill:none;stroke:black;stroke-width:2;"/>
<circle cx="1289.3983" cy="498.60443" r="5.8967" style="fill:none;stroke:black;stroke-width:2;"/>
<circle cx="1282.3433" cy="522.80646" r="6.4288716" style="fill:none;stroke:black;stroke-width:2;"/>
<circle cx="1274.9719" cy="549.04785" r="6.1385956" style="fill:none;stroke:black;stroke-width:2;"/>
<circle cx="1263.6632" cy="576.0824" r="5.8483195" style="fill:none;stroke:black;stroke-width:2;"/>
<circle cx="1254.9546" cy="597.7761" r="8.025391" style="fill:none;stroke:black;stroke-width:2;"/>
<circle cx="1235.3094" cy="615.8209" r="5.4612846" style="fill:none;stroke:black;stroke-width:2;"/>
<circle cx="1255.1858" cy="635.21716" r="5.4612846" style="fill:none;stroke:black;stroke-width:2;"/>
<circle cx="1268.2762" cy="622.86224" r="7.7834945" style="fill:none;stroke:black;stroke-width:2;"/>
<circle cx="1286.7903" cy="642.53143" r="5.799941" style="fill:none;stroke:black;stroke-width:2;"/>
<circle cx="1322.2982" cy="630.36926" r="8.992978" style="fill:none;stroke:black;stroke-width:2;"/>
<circle cx="1345.1035" cy="652.5246" r="8.896219" style="fill:none;stroke:black;stroke-width:2;"/>
<circle cx="1368.7087" cy="672.8319" r="8.025391" style="fill:none;stroke:black;stroke-width:2;"/>
<circle cx="1344.4736" cy="616.64" r="9.283255" style="fill:none;stroke:black;stroke-width:2;"/>
<circle cx="1345.1798" cy="587.4241" r="11.170049" style="fill:none;stroke:black;stroke-width:2;"/>
<circle cx="1348.2601" cy="557.95605" r="7.154563" style="fill:none;stroke:black;stroke-width:2;"/>
<circle cx="1360.2996" cy="533.178" r="10.928152" style="fill:none;stroke:black;stroke-width:2;"/>
<circle cx="1341.9084" cy="523.6513" r="10.686255" style="fill:none;stroke:black;stroke-width:2;"/>
<circle cx="1362.4758" cy="503.90573" r="10.541117" style="fill:none;stroke:black;stroke-width:2;"/>
<circle cx="1345.2563" cy="482.4653" r="10.734634" style="fill:none;stroke:black;stroke-width:2;"/>
<circle cx="1366.8557" cy="476.37195" r="10.976531" style="fill:none;stroke:black;stroke-width:2;"/>
<circle cx="1353.6946" cy="454.67722" r="10.541117" style="fill:none;stroke:black;stroke-width:2;"/>
<circle cx="1382.7107" cy="446.2971" r="10.395979" style="fill:none;stroke:black;stroke-width:2;"/>
<circle cx="1573.8226" cy="444.37714" r="13.2503605" style="fill:none;stroke:black;stroke-width:2;"/>
<circle cx="1576.3079" cy="462.55576" r="12.331153" style="fill:none;stroke:black;stroke-width:2;"/>
<circle cx="1597.5581" cy="473.12427" r="12.040877" style="fill:none;stroke:black;stroke-width:2;"/>
<circle cx="1613.2039" cy="487.39368" r="11.992497" style="fill:none;stroke:black;stroke-width:2;"/>
<circle cx="1635.0233" cy="485.45758" r="10.783014" style="fill:none;stroke:black;stroke-width:2;"/>
<circle cx="1625.6511" cy="511.2602" r="11.07329" style="fill:none;stroke:black;stroke-width:2;"/>
<circle cx="1645.1035" cy="513.9663" r="10.879772" style="fill:none;stroke:black;stroke-width:2;"/>
<circle cx="1643.7974" cy="537.82275" r="11.992497" style="fill:none;stroke:black;stroke-width:2;"/>
<circle cx="1649.5955" cy="561.34064" r="12.331153" style="fill:none;stroke:black;stroke-width:2;"/>
<circle cx="1649.0516" cy="584.0913" r="12.718188" style="fill:none;stroke:black;stroke-width:2;"/>
<circle cx="1651.0698" cy="609.80695" r="10.831393" style="fill:none;stroke:black;stroke-width:2;"/>
<circle cx="1630.1565" cy="624.33826" r="9.767048" style="fill:none;stroke:black;stroke-width:2;"/>
<circle cx="1616.8662" cy="641.4369" r="11.9441185" style="fill:none;stroke:black;stroke-width:2;"/>
<circle cx="1599.7074" cy="650.7876" r="12.621429" style="fill:none;stroke:black;stroke-width:2;"/>
<circle cx="1585.2546" cy="669.5659" r="9.476771" style="fill:none;stroke:black;stroke-width:2;"/>
<circle cx="1608.891" cy="671.1561" r="10.057323" style="fill:none;stroke:black;stroke-width:2;"/>
<circle cx="1628.83" cy="652.62366" r="10.6378765" style="fill:none;stroke:black;stroke-width:2;"/>
<circle cx="1646.0669" cy="635.89246" r="10.831393" style="fill:none;stroke:black;stroke-width:2;"/>
<circle cx="1666.2981" cy="595.84424" r="11.605463" style="fill:none;stroke:black;stroke-width:2;"/>
<circle cx="1715.1697" cy="600.0094" r="3.913146" style="fill:none;stroke:black;stroke-width:2;"/>
<circle cx="1737.6929" cy="638.79065" r="5.364526" style="fill:none;stroke:black;stroke-width:2;"/>
<circle cx="1733.5977" cy="665.1426" r="4.3969393" style="fill:none;stroke:black;stroke-width:2;"/>
<circle cx="1762.6997" cy="650.1461" r="8.364046" style="fill:none;stroke:black;stroke-width:2;"/>
<circle cx="1727.7627" cy="618.30347" r="7.589977" style="fill:none;stroke:black;stroke-width:2;"/>
<circle cx="1721.9386" cy="574.6232" r="9.767048" style="fill:none;stroke:black;stroke-width:2;"/>
<circle cx="1716.0316" cy="546.27246" r="8.799461" style="fill:none;stroke:black;stroke-width:2;"/>
<circle cx="1710.9038" cy="518.78345" r="8.944599" style="fill:none;stroke:black;stroke-width:2;"/>
<circle cx="1701.924" cy="493.97467" r="8.702702" style="fill:none;stroke:black;stroke-width:2;"/>
<circle cx="1693.8978" cy="470.89838" r="8.509184" style="fill:none;stroke:black;stroke-width:2;"/>
<circle cx="1692.4995" cy="447.13818" r="8.267288" style="fill:none;stroke:black;stroke-width:2;"/>
<circle cx="1666.2268" cy="453.3381" r="7.638356" style="fill:none;stroke:black;stroke-width:2;"/>
<circle cx="1669.9622" cy="427.24866" r="7.735115" style="fill:none;stroke:black;stroke-width:2;"/>
<circle cx="1637.9005" cy="432.95786" r="11.895739" style="fill:none;stroke:black;stroke-width:2;"/>
<circle cx="1623.5004" cy="457.73813" r="11.798981" style="fill:none;stroke:black;stroke-width:2;"/>
<circle cx="1598.2767" cy="449.1983" r="11.024911" style="fill:none;stroke:black;stroke-width:2;"/>
<circle cx="1610.7648" cy="430.39532" r="13.105223" style="fill:none;stroke:black;stroke-width:2;"/>
<circle cx="1613.4939" cy="408.54965" r="13.008464" style="fill:none;stroke:black;stroke-width:2;"/>
<circle cx="1631.4791" cy="412.1783" r="13.105223" style="fill:none;stroke:black;stroke-width:2;"/>
<circle cx="1638.1799" cy="391.05334" r="11.411945" style="fill:none;stroke:black;stroke-width:2;"/>
<circle cx="1656.0994" cy="376.98373" r="12.766567" style="fill:none;stroke:black;stroke-width:2;"/>
<circle cx="1669.6212" cy="360.92114" r="12.766567" style="fill:none;stroke:black;stroke-width:2;"/>
<circle cx="1683.6095" cy="401.74017" r="8.944599" style="fill:none;stroke:black;stroke-width:2;"/>
<circle cx="1691.7792" cy="421.40106" r="9.960566" style="fill:none;stroke:black;stroke-width:2;"/>
<circle cx="1691.8395" cy="380.20374" r="9.52515" style="fill:none;stroke:black;stroke-width:2;"/>
<circle cx="1691.2891" cy="356.30237" r="13.201982" style="fill:none;stroke:black;stroke-width:2;"/>
<circle cx="1711.4747" cy="362.84885" r="10.492738" style="fill:none;stroke:black;stroke-width:2;"/>
<circle cx="1727.8384" cy="347.46616" r="9.863806" style="fill:none;stroke:black;stroke-width:2;"/>
<circle cx="1744.8359" cy="332.75732" r="10.686255" style="fill:none;stroke:black;stroke-width:2;"/>
<circle cx="1755.6499" cy="316.8841" r="9.863806" style="fill:none;stroke:black;stroke-width:2;"/>
<circle cx="1749.6667" cy="296.92242" r="10.928152" style="fill:none;stroke:black;stroke-width:2;"/>
<circle cx="1737.1641" cy="283.8709" r="11.9441185" style="fill:none;stroke:black;stroke-width:2;"/>
<circle cx="1738.6272" cy="263.51013" r="12.911705" style="fill:none;stroke:black;stroke-width:2;"/>
<circle cx="1757.4807" cy="276.44702" r="12.234394" style="fill:none;stroke:black;stroke-width:2;"/>
<circle cx="1757.6094" cy="255.9375" r="9.863806" style="fill:none;stroke:black;stroke-width:2;"/>
<circle cx="1739.623" cy="241.94467" r="12.089256" style="fill:none;stroke:black;stroke-width:2;"/>
<circle cx="1721.623" cy="251.42082" r="11.653842" style="fill:none;stroke:black;stroke-width:2;"/>
<circle cx="1718.0753" cy="273.3151" r="11.84736" style="fill:none;stroke:black;stroke-width:2;"/>
<circle cx="1704.5344" cy="290.05505" r="13.2503605" style="fill:none;stroke:black;stroke-width:2;"/>
<circle cx="1722.0258" cy="296.5005" r="12.57305" style="fill:none;stroke:black;stroke-width:2;"/>
<circle cx="1733.2598" cy="311.3659" r="12.040877" style="fill:none;stroke:black;stroke-width:2;"/>
<circle cx="1718.6106" cy="325.11395" r="12.137636" style="fill:none;stroke:black;stroke-width:2;"/>
<circle cx="1702.019" cy="336.54962" r="13.2503605" style="fill:none;stroke:black;stroke-width:2;"/>
<circle cx="1679.8406" cy="340.81628" r="13.2503605" style="fill:none;stroke:black;stroke-width:2;"/>
<circle cx="1664.1411" cy="329.88504" r="9.718668" style="fill:none;stroke:black;stroke-width:2;"/>
<circle cx="1686.7257" cy="319.7765" r="13.29874" style="fill:none;stroke:black;stroke-width:2;"/>
<circle cx="1705.4829" cy="311.0846" r="13.105223" style="fill:none;stroke:black;stroke-width:2;"/>
<circle cx="1685.042" cy="297.6933" r="9.57353" style="fill:none;stroke:black;stroke-width:2;"/>
<circle cx="1691.6384" cy="276.0487" r="10.976531" style="fill:none;stroke:black;stroke-width:2;"/>
<circle cx="1681.3052" cy="255.52173" r="10.0089445" style="fill:none;stroke:black;stroke-width:2;"/>
<circle cx="1703.2147" cy="259.444" r="13.2503605" style="fill:none;stroke:black;stroke-width:2;"/>
<circle cx="1701.1825" cy="239.41039" r="13.29874" style="fill:none;stroke:black;stroke-width:2;"/>
<circle cx="1685.3593" cy="226.52127" r="13.29874" style="fill:none;stroke:black;stroke-width:2;"/>
<circle cx="1670.5217" cy="210.69064" r="13.2503605" style="fill:none;stroke:black;stroke-width:2;"/>
<circle cx="1647.9382" cy="208.04004" r="10.783014" style="fill:none;stroke:black;stroke-width:2;"/>
<circle cx="1663.9866" cy="240.06729" r="11.460325" style="fill:none;stroke:black;stroke-width:2;"/>
<circle cx="1643.4604" cy="234.01831" r="12.960085" style="fill:none;stroke:black;stroke-width:2;"/>
<circle cx="1620.4294" cy="243.80026" r="13.2503605" style="fill:none;stroke:black;stroke-width:2;"/>
<circle cx="1596.0828" cy="244.58379" r="13.29874" style="fill:none;stroke:black;stroke-width:2;"/>
<circle cx="1588.3353" cy="265.60367" r="13.2503605" style="fill:none;stroke:black;stroke-width:2;"/>
<circle cx="1586.7123" cy="287.3564" r="13.105223" style="fill:none;stroke:black;stroke-width:2;"/>
<circle cx="1579.9703" cy="308.87518" r="12.234394" style="fill:none;stroke:black;stroke-width:2;"/>
<circle cx="1604.6322" cy="321.90143" r="12.621429" style="fill:none;stroke:black;stroke-width:2;"/>
<circle cx="1609.3816" cy="296.9428" r="13.153602" style="fill:none;stroke:black;stroke-width:2;"/>
<circle cx="1614.5243" cy="270.7815" r="13.2503605" style="fill:none;stroke:black;stroke-width:2;"/>
<circle cx="1639.4473" cy="284.68765" r="13.008464" style="fill:none;stroke:black;stroke-width:2;"/>
<circle cx="1645.8782" cy="259.09372" r="12.427912" style="fill:none;stroke:black;stroke-width:2;"/>
<circle cx="1664.0078" cy="276.79053" r="10.105703" style="fill:none;stroke:black;stroke-width:2;"/>
<circle cx="1661.214" cy="304.0782" r="11.992497" style="fill:none;stroke:black;stroke-width:2;"/>
<circle cx="1637.4858" cy="309.45654" r="12.57305" style="fill:none;stroke:black;stroke-width:2;"/>
<circle cx="1636.9434" cy="332.75775" r="11.460325" style="fill:none;stroke:black;stroke-width:2;"/>
<circle cx="1641.1326" cy="357.1582" r="2.3650064" style="fill:none;stroke:black;stroke-width:2;"/>
<circle cx="1614.8584" cy="354.29016" r="8.170528" style="fill:none;stroke:black;stroke-width:2;"/>
<circle cx="1592.0333" cy="347.17383" r="8.267288" style="fill:none;stroke:black;stroke-width:2;"/>
<circle cx="1569.7653" cy="336.6213" r="6.8159065" style="fill:none;stroke:black;stroke-width:2;"/>
<circle cx="1553.923" cy="320.01453" r="4.7839737" style="fill:none;stroke:black;stroke-width:2;"/>
<circle cx="1549.9624" cy="298.84705" r="11.460325" style="fill:none;stroke:black;stroke-width:2;"/>
<circle cx="1561.9609" cy="281.87" r="6.186976" style="fill:none;stroke:black;stroke-width:2;"/>
<circle cx="1535.6521" cy="279.70792" r="2.8971796" style="fill:none;stroke:black;stroke-width:2;"/>
<circle cx="1529.9763" cy="261.61075" r="12.814947" style="fill:none;stroke:black;stroke-width:2;"/>
<circle cx="1539.1373" cy="240.83179" r="13.2503605" style="fill:none;stroke:black;stroke-width:2;"/>
<circle cx="1558.0624" cy="262.59998" r="13.105223" style="fill:none;stroke:black;stroke-width:2;"/>
</g></g></svg>
