<?xml version="1.0" encoding="UTF-8" standalone="no"?>
<!-- Created with Inkscape (http://www.inkscape.org/) -->

<svg
   xmlns:dc="http://purl.org/dc/elements/1.1/"
   xmlns:cc="http://creativecommons.org/ns#"
   xmlns:rdf="http://www.w3.org/1999/02/22-rdf-syntax-ns#"
   xmlns:svg="http://www.w3.org/2000/svg"
   xmlns="http://www.w3.org/2000/svg"
   xmlns:sodipodi="http://sodipodi.sourceforge.net/DTD/sodipodi-0.dtd"
   xmlns:inkscape="http://www.inkscape.org/namespaces/inkscape"
   sodipodi:docname="flower001.svg"
   inkscape:version="0.48.2 r9819"
   version="1.1"
   id="svg3783"
   height="1052.3622047"
   width="744.09448819">
  <sodipodi:namedview
     id="base"
     pagecolor="#ffffff"
     bordercolor="#666666"
     borderopacity="1.0"
     inkscape:pageopacity="0.0"
     inkscape:pageshadow="2"
     inkscape:zoom="0.7"
     inkscape:cx="266.10578"
     inkscape:cy="683.69306"
     inkscape:document-units="px"
     inkscape:current-layer="layer1"
     showgrid="false"
     inkscape:window-width="1024"
     inkscape:window-height="748"
     inkscape:window-x="10"
     inkscape:window-y="-16"
     inkscape:window-maximized="0" />
  <defs
     id="defs3785">
    <inkscape:perspective
       id="perspective3823"
       inkscape:persp3d-origin="334.90438 : 296.50168 : 1"
       inkscape:vp_z="372.04724 : 175.3937 : 0"
       inkscape:vp_y="0 : 1000 : 0"
       inkscape:vp_x="-314.90439 : 155.3937 : 0"
       sodipodi:type="inkscape:persp3d" />
  </defs>
  <metadata
     id="metadata3788">
    <rdf:RDF>
      <cc:Work
         rdf:about="">
        <dc:format>image/svg+xml</dc:format>
        <dc:type
           rdf:resource="http://purl.org/dc/dcmitype/StillImage" />
        <dc:title></dc:title>
      </cc:Work>
    </rdf:RDF>
  </metadata>
  <g
     id="layer1"
     inkscape:groupmode="layer"
     inkscape:label="Layer 1">
    <rect
       y="12.284647"
       x="7.8454075"
       height="779.49591"
       width="516.12524"
       id="rect4319"
       style="fill:none;stroke:#000000;stroke-width:0.91610378;stroke-opacity:1" />
    <flowRoot
       style="fill:black;stroke:none;stroke-opacity:1;stroke-width:1px;stroke-linejoin:miter;stroke-linecap:butt;fill-opacity:1;font-family:Sans;font-style:normal;font-weight:normal;font-size:40px;line-height:125%;letter-spacing:0px;word-spacing:0px"
       id="flowRoot3475"
       xml:space="preserve"><flowRegion
         id="flowRegion3477"><rect
           y="840.23016"
           x="40.406101"
           height="76.771591"
           width="474.7717"
           id="rect3479" /></flowRegion><flowPara
         id="flowPara3481" /></flowRoot>    <path
       inkscape:connector-curvature="0"
       style="fill:none;stroke:#000000;stroke-width:1"
       d="m 104.58559,632.78867 0.0291,-0.99958 1.02867,-0.97049 0.99958,0.0291 0.97049,1.02867 0.94139,2.02824 1.85368,5.05608 1.91188,3.05691 1.94096,2.05734 1.97006,1.05776 3.99831,0.11638 2.02825,-0.94139 1.02867,-0.97049 1.05776,-1.97006 0.0582,-1.99915 -0.94138,-2.02825 -0.97049,-1.02866 -6.88067,-4.20196 -0.97048,-1.02867 -0.94139,-2.02826 0.0582,-1.99915 1.05777,-1.97005 2.02824,-0.94139 1.97006,1.05776 0.94139,2.02824 -0.0582,1.99916 -1.08685,2.96963 -2.08643,2.94055 -5.20155,6.85156 -2.05733,1.94098 -2.02825,0.94138 -1.99915,-0.0582 -0.97049,-1.02867 0.0291,-0.99958"
       id="path6016" />
    <path
       inkscape:connector-curvature="0"
       style="fill:none;stroke:#000000"
       d=""
       id="path6018" />
    <path
       inkscape:connector-curvature="0"
       style="fill:none;stroke:#000000"
       d=""
       id="path6022" />
    <path
       inkscape:connector-curvature="0"
       style="fill:none;stroke:#000000;stroke-width:1"
       d="m 133.82941,641.92795 -8.60831,-13.63441 m 8.60831,13.63441 7.37619,-14.33848"
       id="path6024" />
    <path
       inkscape:connector-curvature="0"
       style="fill:none;stroke:#000000"
       d=""
       id="path6026" />
    <path
       id="path6078"
       d="m 86.929122,647.1789 13.999998,-21 m 0,21 -13.999998,-21"
       style="fill:none;stroke:#000000"
       inkscape:connector-curvature="0" />
    <path
       id="path6292"
       d="m 64.393231,632.37851 -0.282066,1.98 0.56689,3.11105 1.838975,1.27207 1.980013,0.28208 2.121042,-0.70794 4.383126,-2.40587 2.121042,-0.70794 1.980013,0.28208 1.838975,1.27207 0.707928,2.12105 m -17.538004,-4.51865 0.707933,2.12104 1.83897,1.27208 1.980013,0.28208 2.121042,-0.70794 4.383126,-2.40587 2.121042,-0.70794 1.980004,0.28207 1.838975,1.27207 0.566899,3.11106 -0.282066,1.98"
       style="fill:none;stroke:#000000;stroke-width:1"
       inkscape:connector-curvature="0" />
    <path
       style="fill:none;stroke:#000000;stroke-width:1px;stroke-linecap:butt;stroke-linejoin:miter;stroke-opacity:1"
       d="M 227.78504,689.44074 400.43559,250.46702 402.13797,99.49346 331.69146,211.49083 z"
       id="path6450"
       inkscape:connector-curvature="0" />
    <path
       inkscape:connector-curvature="0"
       id="path6452"
       d="M 227.57272,694.25191 314.27816,230.58362 287.45834,82.0016 239.41374,205.28112 z"
       style="fill:none;stroke:#000000;stroke-width:1px;stroke-linecap:butt;stroke-linejoin:miter;stroke-opacity:1" />
    <path
       style="fill:none;stroke:#000000;stroke-width:1px;stroke-linecap:butt;stroke-linejoin:miter;stroke-opacity:1"
       d="M 222.9993,691.6816 226.89546,219.99215 174.38879,78.43309 148.75014,208.23594 z"
       id="path6454"
       inkscape:connector-curvature="0" />
    <path
       inkscape:connector-curvature="0"
       id="path6458"
       d="M 287.92549,691.62341 147.55054,241.28908 156.79678,90.5893 218.93921,207.39872 z"
       style="fill:none;stroke:#000000;stroke-width:1px;stroke-linecap:butt;stroke-linejoin:miter;stroke-opacity:1" />
    <path
       style="fill:none;stroke:#000000;stroke-width:1px;stroke-linecap:butt;stroke-linejoin:miter;stroke-opacity:1"
       d="M 287.78849,696.43732 234.92266,227.70358 272.44269,81.45664 311.42431,207.8946 z"
       id="path6460"
       inkscape:connector-curvature="0" />
    <path
       inkscape:connector-curvature="0"
       id="path6462"
       d="m 292.5362,694.2053 30.30705,-470.73093 62.63019,-137.3804 16.16175,131.31991 z"
       style="fill:none;stroke:#000000;stroke-width:1px;stroke-linecap:butt;stroke-linejoin:miter;stroke-opacity:1" />
    <path
       style="fill:none;stroke:#000000;stroke-width:1px;stroke-linecap:butt;stroke-linejoin:miter;stroke-opacity:1"
       d="M 230.31478,194.58305 258.59905,87.50688 220.21325,55.182 187.88837,83.46627 z"
       id="path6464"
       inkscape:connector-curvature="0" />
    <path
       inkscape:connector-curvature="0"
       id="path6466"
       d="M 325.26911,200.64397 296.98484,93.5678 l 38.3858,-32.32488 32.32488,28.28427 z"
       style="fill:none;stroke:#000000;stroke-width:1px;stroke-linecap:butt;stroke-linejoin:miter;stroke-opacity:1" />
    <path
       style="fill:none;stroke:#000000;stroke-width:1px;stroke-linecap:butt;stroke-linejoin:miter;stroke-opacity:1"
       d="m 313.14729,637.02986 58.58885,-248.49752 46.46701,-46.46702 z"
       id="path6470"
       inkscape:connector-curvature="0" />
    <path
       inkscape:connector-curvature="0"
       id="path6474"
       d="M 211.70121,643.18653 164.03904,392.3639 119.64923,343.90865 z"
       style="fill:none;stroke:#000000;stroke-width:1px;stroke-linecap:butt;stroke-linejoin:miter;stroke-opacity:1" />
    <path
       inkscape:connector-curvature="0"
       id="path7380"
       d="M 318.57654,636.80336 431.24695,407.69847 424.89574,342.29182 z"
       style="fill:none;stroke:#000000;stroke-width:1px;stroke-linecap:butt;stroke-linejoin:miter;stroke-opacity:1" />
    <path
       inkscape:connector-curvature="0"
       id="path7382"
       d="M 202.88317,642.96932 99.315411,409.60826 108.23548,344.5022 z"
       style="fill:none;stroke:#000000;stroke-width:1px;stroke-linecap:butt;stroke-linejoin:miter;stroke-opacity:1" />
    <path
       style="fill:none;stroke:#000000;stroke-width:1px;stroke-linecap:butt;stroke-linejoin:miter;stroke-opacity:1"
       d="M 113.25964,337.06214 137.38075,240.19954 52.527932,60.392385 68.690373,250.30106 z"
       id="path7388"
       inkscape:connector-curvature="0"
       sodipodi:nodetypes="ccccc" />
    <path
       sodipodi:nodetypes="ccccc"
       inkscape:connector-curvature="0"
       id="path7390"
       d="M 113.25964,337.06214 137.38075,240.19954 52.527932,60.392385 68.690373,250.30106 z"
       style="fill:none;stroke:#000000;stroke-width:1px;stroke-linecap:butt;stroke-linejoin:miter;stroke-opacity:1" />
    <path
       style="fill:none;stroke:#000000;stroke-width:1px;stroke-linecap:butt;stroke-linejoin:miter;stroke-opacity:1"
       d="M 422.36333,337.77643 412.52793,240.19954 497.38075,60.392385 481.21831,250.30106 z"
       id="path7392"
       inkscape:connector-curvature="0"
       sodipodi:nodetypes="ccccc" />
    <path
       style="fill:none;stroke:#000000;stroke-width:1px;stroke-linecap:butt;stroke-linejoin:miter;stroke-opacity:1"
       d="M 108.57143,55.933611 138.92857,232.71933 152.14286,88.433611 z"
       id="path7398"
       inkscape:connector-curvature="0" />
    <path
       style="fill:none;stroke:#000000;stroke-width:1px;stroke-linecap:butt;stroke-linejoin:miter;stroke-opacity:1"
       d="m 201.42857,648.07647 20,134.28571 35.71429,-155.71428 35.71428,150 24.28572,-137.14286 -42.85715,121.42857 -17.14285,-130 -14.28572,127.14286 z"
       id="path7400"
       inkscape:connector-curvature="0" />
    <path
       style="fill:none;stroke:#000000;stroke-width:1px;stroke-linecap:butt;stroke-linejoin:miter;stroke-opacity:1"
       d="m 258.57143,679.50504 7.14286,75.71429 -7.14286,12.85714 L 250,752.36218 z"
       id="path7402"
       inkscape:connector-curvature="0" />
    <path
       style="fill:none;stroke:#000000;stroke-width:1px;stroke-linecap:butt;stroke-linejoin:miter;stroke-opacity:1"
       d="M 60,258.07647 104.28571,342.36218 81.428571,473.79075 80,369.50504 z"
       id="path7406"
       inkscape:connector-curvature="0" />
    <path
       inkscape:connector-curvature="0"
       id="path7408"
       d="m 484.28571,262.36218 -51.42857,84.28571 22.85714,131.42857 1.42857,-104.28571 z"
       style="fill:none;stroke:#000000;stroke-width:1px;stroke-linecap:butt;stroke-linejoin:miter;stroke-opacity:1"
       sodipodi:nodetypes="ccccc" />
    <rect
       style="fill:none;stroke:#000000;stroke-width:0.91610378;stroke-opacity:1"
       id="rect7410"
       width="516.12524"
       height="779.49591"
       x="-523.97064"
       y="12.284647"
       transform="scale(-1,1)" />
    <path
       id="path7412"
       d="m 427.23047,632.78867 -0.0291,-0.99958 -1.02867,-0.97049 -0.99958,0.0291 -0.97049,1.02867 -0.94139,2.02824 -1.85368,5.05608 -1.91188,3.05691 -1.94096,2.05734 -1.97006,1.05776 -3.99831,0.11638 -2.02825,-0.94139 -1.02867,-0.97049 -1.05776,-1.97006 -0.0582,-1.99915 0.94138,-2.02825 0.97049,-1.02866 6.88067,-4.20196 0.97048,-1.02867 0.94139,-2.02826 -0.0582,-1.99915 -1.05777,-1.97005 -2.02824,-0.94139 -1.97006,1.05776 -0.94139,2.02824 0.0582,1.99916 1.08685,2.96963 2.08643,2.94055 5.20155,6.85156 2.05733,1.94098 2.02825,0.94138 1.99915,-0.0582 0.97049,-1.02867 -0.0291,-0.99958"
       style="fill:none;stroke:#000000;stroke-width:1"
       inkscape:connector-curvature="0" />
    <path
       id="path7414"
       d="m 397.98665,641.92795 8.60831,-13.63441 m -8.60831,13.63441 -7.37619,-14.33848"
       style="fill:none;stroke:#000000;stroke-width:1"
       inkscape:connector-curvature="0" />
    <path
       inkscape:connector-curvature="0"
       style="fill:none;stroke:#000000"
       d="m 444.88694,647.1789 -14,-21 m 0,21 14,-21"
       id="path7416" />
    <path
       inkscape:connector-curvature="0"
       style="fill:none;stroke:#000000;stroke-width:1"
       d="m 467.42283,632.37851 0.28206,1.98 -0.56689,3.11105 -1.83897,1.27207 -1.98001,0.28208 -2.12105,-0.70794 -4.38312,-2.40587 -2.12104,-0.70794 -1.98002,0.28208 -1.83897,1.27207 -0.70793,2.12105 m 17.538,-4.51865 -0.70793,2.12104 -1.83897,1.27208 -1.98001,0.28208 -2.12104,-0.70794 -4.38313,-2.40587 -2.12104,-0.70794 -1.98001,0.28207 -1.83897,1.27207 -0.5669,3.11106 0.28207,1.98"
       id="path7418" />
    <path
       inkscape:connector-curvature="0"
       id="path7420"
       d="M 304.03102,689.44074 131.38047,250.46702 129.67809,99.49346 200.1246,211.49083 z"
       style="fill:none;stroke:#000000;stroke-width:1px;stroke-linecap:butt;stroke-linejoin:miter;stroke-opacity:1" />
    <path
       style="fill:none;stroke:#000000;stroke-width:1px;stroke-linecap:butt;stroke-linejoin:miter;stroke-opacity:1"
       d="M 304.24334,694.25191 217.5379,230.58362 244.35772,82.0016 l 48.0446,123.27952 z"
       id="path7422"
       inkscape:connector-curvature="0" />
    <path
       inkscape:connector-curvature="0"
       id="path7424"
       d="M 308.81676,691.6816 304.9206,219.99215 357.42727,78.43309 383.06592,208.23594 z"
       style="fill:none;stroke:#000000;stroke-width:1px;stroke-linecap:butt;stroke-linejoin:miter;stroke-opacity:1" />
    <path
       style="fill:none;stroke:#000000;stroke-width:1px;stroke-linecap:butt;stroke-linejoin:miter;stroke-opacity:1"
       d="M 243.89057,691.62341 384.26552,241.28908 375.01928,90.5893 312.87685,207.39872 z"
       id="path7426"
       inkscape:connector-curvature="0" />
    <path
       inkscape:connector-curvature="0"
       id="path7428"
       d="M 244.02757,696.43732 296.8934,227.70358 259.37337,81.45664 220.39175,207.8946 z"
       style="fill:none;stroke:#000000;stroke-width:1px;stroke-linecap:butt;stroke-linejoin:miter;stroke-opacity:1" />
    <path
       style="fill:none;stroke:#000000;stroke-width:1px;stroke-linecap:butt;stroke-linejoin:miter;stroke-opacity:1"
       d="M 239.27986,694.2053 208.97281,223.47437 146.34262,86.09397 130.18087,217.41388 z"
       id="path7430"
       inkscape:connector-curvature="0" />
    <path
       inkscape:connector-curvature="0"
       id="path7432"
       d="M 301.50128,194.58305 273.21701,87.50688 311.60281,55.182 343.92769,83.46627 z"
       style="fill:none;stroke:#000000;stroke-width:1px;stroke-linecap:butt;stroke-linejoin:miter;stroke-opacity:1" />
    <path
       style="fill:none;stroke:#000000;stroke-width:1px;stroke-linecap:butt;stroke-linejoin:miter;stroke-opacity:1"
       d="M 206.54695,200.64397 234.83122,93.5678 196.44542,61.24292 164.12054,89.52719 z"
       id="path7434"
       inkscape:connector-curvature="0" />
    <path
       inkscape:connector-curvature="0"
       id="path7436"
       d="M 218.66877,637.02986 160.07992,388.53234 113.61291,342.06532 z"
       style="fill:none;stroke:#000000;stroke-width:1px;stroke-linecap:butt;stroke-linejoin:miter;stroke-opacity:1" />
    <path
       style="fill:none;stroke:#000000;stroke-width:1px;stroke-linecap:butt;stroke-linejoin:miter;stroke-opacity:1"
       d="M 320.11485,643.18653 367.77702,392.3639 412.16683,343.90865 z"
       id="path7438"
       inkscape:connector-curvature="0" />
    <path
       style="fill:none;stroke:#000000;stroke-width:1px;stroke-linecap:butt;stroke-linejoin:miter;stroke-opacity:1"
       d="M 213.23952,636.80336 100.56911,407.69847 106.92032,342.29182 z"
       id="path7440"
       inkscape:connector-curvature="0" />
    <path
       style="fill:none;stroke:#000000;stroke-width:1px;stroke-linecap:butt;stroke-linejoin:miter;stroke-opacity:1"
       d="M 328.93289,642.96932 432.50065,409.60826 423.58058,344.5022 z"
       id="path7442"
       inkscape:connector-curvature="0" />
    <path
       sodipodi:nodetypes="ccccc"
       inkscape:connector-curvature="0"
       id="path7444"
       d="M 418.55642,337.06214 394.43531,240.19954 479.28813,60.392385 463.12569,250.30106 z"
       style="fill:none;stroke:#000000;stroke-width:1px;stroke-linecap:butt;stroke-linejoin:miter;stroke-opacity:1" />
    <path
       style="fill:none;stroke:#000000;stroke-width:1px;stroke-linecap:butt;stroke-linejoin:miter;stroke-opacity:1"
       d="M 418.55642,337.06214 394.43531,240.19954 479.28813,60.392385 463.12569,250.30106 z"
       id="path7446"
       inkscape:connector-curvature="0"
       sodipodi:nodetypes="ccccc" />
    <path
       sodipodi:nodetypes="ccccc"
       inkscape:connector-curvature="0"
       id="path7448"
       d="m 109.45273,337.77643 9.8354,-97.57689 L 34.435309,60.392385 50.597749,250.30106 z"
       style="fill:none;stroke:#000000;stroke-width:1px;stroke-linecap:butt;stroke-linejoin:miter;stroke-opacity:1" />
    <path
       inkscape:connector-curvature="0"
       id="path7450"
       d="M 423.24463,55.933611 392.88749,232.71933 379.6732,88.433611 z"
       style="fill:none;stroke:#000000;stroke-width:1px;stroke-linecap:butt;stroke-linejoin:miter;stroke-opacity:1" />
    <path
       inkscape:connector-curvature="0"
       id="path7452"
       d="m 330.38749,648.07647 -20,134.28571 -35.71429,-155.71428 -35.71428,150 -24.28572,-137.14286 42.85715,121.42857 17.14285,-130 14.28572,127.14286 z"
       style="fill:none;stroke:#000000;stroke-width:1px;stroke-linecap:butt;stroke-linejoin:miter;stroke-opacity:1" />
    <path
       inkscape:connector-curvature="0"
       id="path7454"
       d="m 273.24463,679.50504 -7.14286,75.71429 7.14286,12.85714 8.57143,-15.71429 z"
       style="fill:none;stroke:#000000;stroke-width:1px;stroke-linecap:butt;stroke-linejoin:miter;stroke-opacity:1" />
    <path
       inkscape:connector-curvature="0"
       id="path7456"
       d="m 471.81606,258.07647 -44.28571,84.28571 22.85714,131.42857 1.42857,-104.28571 z"
       style="fill:none;stroke:#000000;stroke-width:1px;stroke-linecap:butt;stroke-linejoin:miter;stroke-opacity:1" />
    <path
       sodipodi:nodetypes="ccccc"
       style="fill:none;stroke:#000000;stroke-width:1px;stroke-linecap:butt;stroke-linejoin:miter;stroke-opacity:1"
       d="m 47.530349,262.36218 51.42857,84.28571 -22.85714,131.42857 -1.42857,-104.28571 z"
       id="path7458"
       inkscape:connector-curvature="0" />
  </g>
</svg>
