<?xml version="1.0" encoding="UTF-8" standalone="no"?>
<!-- Created with Inkscape (http://www.inkscape.org/) -->

<svg
 xmlns:dc="http://purl.org/dc/elements/1.1/"
 xmlns:cc="http://creativecommons.org/ns#"
 xmlns:rdf="http://www.w3.org/1999/02/22-rdf-syntax-ns#"
 xmlns:svg="http://www.w3.org/2000/svg"
 xmlns="http://www.w3.org/2000/svg"
 xmlns:sodipodi="http://sodipodi.sourceforge.net/DTD/sodipodi-0.dtd"
 xmlns:inkscape="http://www.inkscape.org/namespaces/inkscape"
 sodipodi:docname="C:\Documents and Settings\Owner\My Documents\Plotter\flower017(g).svg"
 inkscape:version="0.48.2 r9819"
 version="1.1"
 id="svg4064"
 height="2834.6455"
 width="1559.0551">
<sodipodi:namedview
 id="base"
 pagecolor="#ffffff"
 bordercolor="#666666"
 borderopacity="1.0"
 inkscape:pageopacity="0.0"
 inkscape:pageshadow="2"
 inkscape:zoom="0.16"
 inkscape:cx="345.76866"
 inkscape:cy="2155.1356"
 inkscape:document-units="px"
 inkscape:current-layer="layer1"
 showgrid="false"
 units="cm"
 inkscape:window-width="1024"
 inkscape:window-height="749"
 inkscape:window-x="-4"
 inkscape:window-y="-4"
 inkscape:window-maximized="1" />
<defs
 id="defs4066" />
<metadata
 id="metadata4069">
<rdf:RDF>
<cc:Work
 rdf:about="">
<dc:format>image/svg+xml</dc:format>
<dc:type
 rdf:resource="http://purl.org/dc/dcmitype/StillImage" />
<dc:title />
</cc:Work>
</rdf:RDF>
</metadata>
<g
 transform="translate(0,1782.2847)"
 id="layer1"
 inkscape:groupmode="layer"
 inkscape:label="Layer 1">
<path
 inkscape:connector-curvature="0"
 style="fill:none;stroke:#000000;stroke-width:21.10269737"
 d=""
 id="path4314" />
<path
 inkscape:connector-curvature="0"
 style="fill:none;stroke:#000000;stroke-width:21.10269737"
 d=""
 id="path4340" />
<rect
 y="-1770.4963"
 x="13.5445"
 height="1935.918"
 width="1440.5031"
 id="rect4573"
 style="fill:none;stroke:#000000;stroke-width:0.95641029;stroke-miterlimit:4;stroke-opacity:1;stroke-dasharray:none" />
<path
 sodipodi:type="arc"
 style="fill:none;stroke:#000000;stroke-width:2;stroke-linecap:round;stroke-linejoin:round;stroke-miterlimit:4;stroke-opacity:1;stroke-dasharray:none;stroke-dashoffset:0"
 id="path14537"
 sodipodi:cx="797.70483398438"
 sodipodi:cy="1166.3154296875"
 sodipodi:rx="351.34368896484"
 sodipodi:ry="351.34368896484"
 d="M 1149.0485229492,1166.3154296875 A 351.34368896484,351.34368896484 0 1 1 446.36114501953,1166.3154296875 351.34368896484,351.34368896484 0 1 1 1149.0485229492,1166.3154296875 z"
 transform="translate(0,-1782.2847)" />
<path
 style="fill:none;stroke:#000000;stroke-width:2;stroke-linecap:round;stroke-linejoin:round;stroke-miterlimit:4;stroke-opacity:1;stroke-dasharray:none;stroke-dashoffset:0"
 d="M 796.0625,-977.3125 C 670.32279255524,-978.01965386153 547.41136094452,-906.7852641206 485.14752068787,-797.57657347179 432.7240464061,-707.73314782138 421.29338787003,-594.54041811619 456.59340328897,-496.45621825096 489.32901179369,-402.83200170937 561.77865258763,-283.16505226027 653.08939288193,-244.10359751562 745.90514087898,-203.30171510446 856.27958433214,-244.31936668557 948.22088093615,-287.38689360553 1035.2531874125,-327.163105045 1105.5806977346,-402.47354508516 1137.5371160765,-492.90877935045 1168.670218247,-578.73739187583 1166.2538866947,-676.56316180136 1129.1264072086,-760.19563630472 1091.0588659206,-847.86086901023 1017.0101266885,-919.62807616577 927.31632514642,-953.29562186165 885.53819402687,-969.33715262741 840.88485485142,-977.78667358435 796.0625,-977.3125 z"
 id="path14539"
 inkscape:connector-curvature="0"
 sodipodi:nodetypes="ccccccccc" />
<path
 style="fill:none;stroke:#000000;stroke-width:2;stroke-linecap:round;stroke-linejoin:round;stroke-miterlimit:4;stroke-opacity:1;stroke-dasharray:none;stroke-dashoffset:0"
 d="M 796.0625,-987.3125 C 654.91262533603,-988.42067714999 517.82009061576,-900.22146322643 460.3125,-771.53125 409.97082232965,-663.36008574838 433.72449116135,-538.57545314793 466.90339088414,-423.74640552612 495.23966297496,-320.87595661303 626.11994896257,-227.88230065922 731.5463699101,-209.78986454036 835.12188193174,-190.90302471479 946.6223253342,-258.60905061157 1028.5,-324.9375 1107.4233540073,-387.25487097895 1159.8360072544,-483.00176766334 1167.75,-583.5 1176.9997190379,-686.4630991416 1141.4239136663,-792.76660249031 1070.4375,-868.0625 1000.8630586253,-943.67584345188 899.09900593185,-988.76699595861 796.0625,-987.3125 z"
 id="path14551"
 inkscape:connector-curvature="0"
 sodipodi:nodetypes="cccccccc" />
<path
 style="fill:none;stroke:#000000;stroke-width:2;stroke-linecap:round;stroke-linejoin:round;stroke-miterlimit:4;stroke-opacity:1;stroke-dasharray:none;stroke-dashoffset:0"
 d="M 796.0625,-997.3125 C 649.76551672031,-998.60758962411 507.71462355695,-905.9202076642 449.4375,-772.0625 395.28023024577,-652.66820789833 420.08851256103,-516.08939534706 466.02636705888,-393.04855043466 505.63142874225,-283.1612648619 663.75306902185,-198.05691276342 781.09375,-194.12499997856 895.57709357916,-188.95965817655 1011.6618772942,-278.53877316915 1085.7799305384,-365.84943908279 1156.4101047725,-446.99922741477 1191.0915086874,-558.89250611583 1175.966585684,-665.74188166469 1162.3765237987,-770.46554024839 1103.6336884394,-868.69860960138 1016.392038838,-928.39585634627 952.36230504479,-973.23413434538 874.37881689834,-998.39295718714 796.0625,-997.3125 z"
 id="path14563"
 inkscape:connector-curvature="0"
 sodipodi:nodetypes="cccccccc" />
<path
 style="fill:none;stroke:#000000;stroke-width:2;stroke-linecap:round;stroke-linejoin:round;stroke-miterlimit:4;stroke-opacity:1;stroke-dasharray:none;stroke-dashoffset:0"
 d="M 796.0625,-1007.3125 C 645.02808714869,-1008.6334242808 498.69516412253,-912.50012522778 439.24665959717,-773.96273046642 380.12011142645,-641.75575589272 406.65997415262,-490.38053999272 469.04051218714,-359.27781383917 521.93569929334,-243.69524933716 707.599338689,-171.92151491649 834.52284770474,-185.46438539969 952.2837498515,-196.46071261462 1064.0688046742,-303.77115884102 1127.0437413024,-404.18300287972 1188.8044358422,-499.86637324482 1206.7518437248,-623.43850799576 1171.6357911086,-732.20340009693 1139.2972849296,-836.90607251083 1061.2610285807,-926.74992073942 961.09268939347,-971.60796101278 909.63788918594,-995.44372087398 852.86353140156,-1008.0395664541 796.0625,-1007.3125 z"
 id="path14575"
 inkscape:connector-curvature="0"
 sodipodi:nodetypes="cccccccc" />
<path
 style="fill:none;stroke:#000000;stroke-width:2;stroke-linecap:round;stroke-linejoin:round;stroke-miterlimit:4;stroke-opacity:1;stroke-dasharray:none;stroke-dashoffset:0"
 d="M 796.0625,-1017.3125 C 639.94812181966,-1018.7520702169 488.55919111098,-918.3241778163 428.46875,-774.4375 369.2429723747,-638.4409754776 396.51876420726,-485.79007033702 461.2858961035,-352.07052371334 518.48254486751,-229.26535785839 719.82326747627,-156.84365140965 854.27162096907,-177.66968893123 981.46574500786,-195.5394371981 1098.3026171067,-318.09744247285 1155.4742517396,-433.49883672972 1210.8034220935,-541.27101866005 1214.4599400129,-675.19670301143 1162.1517196804,-784.74869311487 1111.998612434,-893.61391087337 1011.0193449567,-977.88160208005 894.15590282608,-1005.7466792806 862.11885270068,-1013.757904865 829.11344501371,-1017.7561563606 796.0625,-1017.3125 z"
 id="path14587"
 inkscape:connector-curvature="0"
 sodipodi:nodetypes="cccccccc" />
<path
 style="fill:none;stroke:#000000;stroke-width:2;stroke-linecap:round;stroke-linejoin:round;stroke-miterlimit:4;stroke-opacity:1;stroke-dasharray:none;stroke-dashoffset:0"
 d="M 796.0625,-1027.3125 C 633.38352249231,-1028.7897118247 475.95521957756,-922.47177423436 416.3125,-771.28125 357.62480332488,-629.51832641867 386.43679359628,-442.16097762674 457.38093264095,-305.88477946804 520.21457179278,-180.68802058691 732.8057623744,-143.4169910509 870.93989969495,-170.24473022921 1007.2821277127,-194.29885054159 1128.9926894996,-332.37409640953 1179.4062296566,-461.70828303994 1228.4581163102,-582.20455817928 1216.7682648033,-726.63343169212 1145.6804048133,-835.93996039498 1077.0431665521,-944.84762407356 955.13066855844,-1019.118492486 826.03548978807,-1026.5364082747 816.06058028681,-1027.1824951394 806.05776704169,-1027.4465885922 796.0625,-1027.3125 z"
 id="path14599"
 inkscape:connector-curvature="0"
 sodipodi:nodetypes="cccccccc" />
<path
 style="fill:none;stroke:#000000;stroke-width:2;stroke-linecap:round;stroke-linejoin:round;stroke-miterlimit:4;stroke-opacity:1;stroke-dasharray:none;stroke-dashoffset:0"
 d="M 796.0625,-1037.3125 C 633.26564818884,-1038.7308704655 475.60015060324,-934.97744615439 411.375,-785.625 347.53534009803,-642.19921997711 374.74768820077,-453.62572077472 443.09815692148,-312.10591385494 498.96146296017,-192.76024527029 694.10842404253,-144.98730422994 825.83666392272,-154.30048822561 927.76225289546,-160.97392819611 1026.0960515028,-247.2546659805 1097.7775703436,-319.87132034356 1150.4071447858,-372.4342421734 1188.4647107941,-439.34740101066 1206.34375,-511.65625 1238.0672738465,-635.93122553552 1210.755756989,-774.89459418834 1130.2589640798,-875.19396806189 1051.5133432948,-976.16901640102 924.83257456152,-1039.8972761976 796.0625,-1037.3125 z"
 id="path14611"
 inkscape:connector-curvature="0"
 sodipodi:nodetypes="cccccccc" />
<path
 style="fill:none;stroke:#000000;stroke-width:2;stroke-linecap:round;stroke-linejoin:round;stroke-miterlimit:4;stroke-opacity:1;stroke-dasharray:none;stroke-dashoffset:0"
 d="M 795.21875,-1047.46875 C 636.42741735972,-1048.1102454397 482.64558055769,-951.87562203676 411.70590547975,-810.30161939431 341.56044103686,-672.74728230753 365.93100975393,-523.08471666328 417.73959775175,-377.90906190942 466.89436938584,-237.90024388206 676.0931785754,-134.63402501551 824.2753023095,-143.97006408817 972.12016281489,-152.76514632763 1112.407441445,-283.8277797353 1180.4297398282,-415.54365541934 1238.9531895011,-526.39277247247 1245.0947061741,-663.40808768123 1197.5458329283,-779.53692912123 1153.8880241175,-888.20197049165 1062.9732470796,-975.76349298266 954.125,-1018.25 903.73312028813,-1038.0888174161 849.46133094601,-1048.4106854743 795.21875,-1047.46875 z"
 id="path14623"
 inkscape:connector-curvature="0"
 sodipodi:nodetypes="cccccccc" />
<path
 style="fill:none;stroke:#000000;stroke-width:2;stroke-linecap:round;stroke-linejoin:round;stroke-miterlimit:4;stroke-opacity:1;stroke-dasharray:none;stroke-dashoffset:0"
 d="M 798.625,-1059.625 C 632.45274463197,-1061.4128140097 470.72076929982,-959.88741352061 398.3125,-810.6875 322.6889654983,-657.04323336839 348.80248128875,-457.02204699319 422.86200415787,-302.38726050737 487.62081442614,-165.72633412189 715.23097110549,-112.21326840554 865.23733037128,-136.28367807394 1014.4536006275,-159.58240055233 1149.258647607,-303.37766826893 1206.9130154844,-443.51539237414 1267.8310196925,-586.95938614874 1246.776144853,-763.08777797366 1150.147118773,-885.92245443475 1067.594857539,-992.98501982036 934.60111089989,-1060.8756106557 798.625,-1059.625 z"
 id="path14635"
 inkscape:connector-curvature="0"
 sodipodi:nodetypes="ccccccc" />
<path
 style="fill:none;stroke:#000000;stroke-width:2;stroke-linecap:round;stroke-linejoin:round;stroke-miterlimit:4;stroke-opacity:1;stroke-dasharray:none;stroke-dashoffset:0"
 d="M 797.0625,-1069.71875 C 626.60016070649,-1070.7186728579 461.29883660082,-965.91819116923 387.98029345417,-812.47724257389 311.43501124011,-654.12360609149 338.20019657342,-451.62537925337 415.86621844217,-293.69027587059 484.00047774359,-153.83637364252 720.66702766169,-100.15647043188 874.48546011574,-127.63865689507 1028.2987027096,-154.27718977119 1165.7080866583,-305.21579727947 1221.0503441805,-451.6505998273 1280.3691825491,-603.39145780282 1251.1192089549,-787.52040718371 1143.1633807293,-910.29193664535 1058.010572805,-1009.6143776132 928.62129290896,-1071.1785606508 797.0625,-1069.71875 z"
 id="path14649"
 inkscape:connector-curvature="0"
 sodipodi:nodetypes="ccccccc" />
<path
 style="fill:none;stroke:#000000;stroke-width:2;stroke-linecap:round;stroke-linejoin:round;stroke-miterlimit:4;stroke-opacity:1;stroke-dasharray:none;stroke-dashoffset:0"
 d="M 797.0625,-1079.71875 C 618.80788781211,-1080.8144418196 446.04632837383,-968.50653244701 373.8125,-805.8125 329.14246688086,-705.52108662579 323.37992958761,-591.28828926801 342.87991701084,-484.15413597283 356.98251630649,-407.98150317855 338.04879785877,-337.2757248652 422.77238743133,-252.89050186796 495.72064510896,-188.70645433952 510.05269697699,-177.626915776 567.58114078227,-153.93226712284 665.44051692253,-114.22523922207 774.68593752667,-100.85003519899 879.13726695936,-118.22517195708 954.57665602115,-132.3536794542 1022.126881764,-173.46296167838 1078.1904309154,-224.76596971954 1140.944716146,-282.39030868048 1190.6111122004,-353.99010353995 1224.2055702443,-432.15913697025 1256.4339474849,-508.95248292429 1268.6967176434,-594.30920492307 1257.2479770893,-676.93712158002 1243.6153563289,-782.4163604721 1193.1967421045,-883.43696922712 1114.1562465837,-954.79498421805 1028.9651334661,-1033.7005430754 913.77978993457,-1081.037429311 797.0625,-1079.71875 z"
 id="path14663"
 inkscape:connector-curvature="0"
 sodipodi:nodetypes="ccccccccccc" />
<path
 style="fill:none;stroke:#000000;stroke-width:2;stroke-linecap:round;stroke-linejoin:round;stroke-miterlimit:4;stroke-opacity:1;stroke-dasharray:none;stroke-dashoffset:0"
 d="M 797.0625,-1089.71875 C 620.48140573721,-1090.7813373437 449.1090003592,-982.95527389975 371.60490138521,-824.78096635323 323.56641696887,-726.43042477298 313.22368898427,-562.69833534381 329.25,-455.24999997362 343.42108532771,-366.83972806619 322.083675205,-326.31474658026 423.7707894689,-231.887475869 511.88879432312,-160.83427591139 527.34828558774,-155.60995326364 595.9375,-132.75 695.92102564364,-99.127625223263 805.54245784794,-89.823517622789 908.5625,-114.84375 995.87419369817,-139.36420696906 1071.0442744403,-196.21297815885 1129.9997861448,-263.79506656649 1201.4728156759,-345.95359173038 1253.9165998096,-447.11326701341 1267.75,-555.96875 1284.2488483611,-686.87898445188 1244.7922915691,-824.68407577742 1157.8249258516,-924.33230499036 1068.577556777,-1027.2895761066 934.01831261499,-1091.1979604584 797.0625,-1089.71875 z"
 id="path14675"
 inkscape:connector-curvature="0"
 sodipodi:nodetypes="cccccccccc" />
<path
 style="fill:none;stroke:#000000;stroke-width:2;stroke-linecap:round;stroke-linejoin:round;stroke-miterlimit:4;stroke-opacity:1;stroke-dasharray:none;stroke-dashoffset:0"
 d="M 797.0625,-1101.71875 C 615.82794799331,-1102.6919765953 439.89060456343,-992.19500160821 360.67575446989,-829.58934105355 311.40147027185,-728.18296119312 300.61869863308,-561.02954571597 317.88779060026,-450.42125383859 332.95323464655,-359.92663987861 310.88503450711,-307.97412321924 417.57094081524,-213.77457547522 488.45889040477,-157.36930726294 495.84563199942,-161.16712629747 549.23071121287,-137.76015888857 616.27338772069,-109.21806728415 688.57137901439,-92.780512291267 761.43570260952,-89.165227768081 819.14773017491,-86.731795439288 877.74265908317,-92.307061156246 932.85055361337,-109.98532550163 1020.1034857867,-140.09112852988 1094.0572621046,-200.47724661787 1151.96875,-271.21875 1229.6728019421,-365.47324129723 1281.7762900942,-484.17391935841 1283.4623149733,-607.43697607404 1285.8395870129,-746.45225266267 1227.161511211,-886.52695477629 1121.6251621446,-977.84912163709 1033.0537277967,-1056.2700012267 915.85421684353,-1103.0084304985 797.0625,-1101.71875 z"
 id="path14687"
 inkscape:connector-curvature="0"
 sodipodi:nodetypes="ccccccccccc" />
<path
 style="fill:none;stroke:#000000;stroke-width:2;stroke-linecap:round;stroke-linejoin:round;stroke-miterlimit:4;stroke-opacity:1;stroke-dasharray:none;stroke-dashoffset:0"
 d="M 797.0625,-1111.71875 C 614.56179877166,-1112.6040828799 437.01383763696,-1002.9686924424 354.86077485663,-840.26409284184 298.85849279526,-728.96392963072 288.41462803888,-548.55122427797 311.88776983545,-427.20598855831 328.01861091325,-341.01277365498 310.24564815562,-285.08409894941 414.19505113779,-197.170049318 500.5735955334,-130.86747635331 511.80103677318,-139.31167382279 577.57396711744,-115.88503468457 686.09557327078,-77.273807538518 806.45403787042,-65.612983840782 918.58597258344,-95.339143622506 1004.8130688981,-119.77411448005 1079.465030729,-175.03700956271 1139.0081130759,-240.85378484252 1223.7027408239,-334.09349321526 1282.8344739331,-453.47202084512 1292.3570612086,-579.99101113262 1303.8808664316,-734.61100925836 1239.1856593996,-894.23210560233 1119.2815274584,-993.19315445524 1029.9782902154,-1068.2931196653 914.30336930157,-1113.0517072833 797.0625,-1111.71875 z"
 id="path14701"
 inkscape:connector-curvature="0"
 sodipodi:nodetypes="cccccccccc" />
<path
 style="fill:none;stroke:#000000;stroke-width:2;stroke-linecap:round;stroke-linejoin:round;stroke-miterlimit:4;stroke-opacity:1;stroke-dasharray:none;stroke-dashoffset:0"
 d="M 797.0625,-1123.71875 C 613.64357158252,-1124.6642386544 435.2366053066,-1016.4682106587 349.03125,-855.1875 287.27909837474,-738.64944542054 275.22958121221,-550.17546566956 300.5945774219,-421.80336422828 317.84724170994,-333.15900197397 300.63481159421,-265.43836220958 410.14231674947,-177.48979216005 500.11684565755,-110.54026148081 510.35240979592,-126.48647138418 578.28125,-103 688.01444189217,-64.629233411303 809.4898895531,-53.757933644801 922.58202644336,-84.10230097276 1017.5385994667,-111.1713674279 1098.4469520604,-174.14846057516 1161.6875,-248.4375 1237.7323622115,-337.66413192269 1290.940083399,-448.27102965292 1303.21875,-565.5625 1319.9830932045,-728.2294875403 1253.1095849437,-898.00655971874 1127,-1002.5 1035.5451788917,-1079.0964307415 917.10367063257,-1125.12134258 797.0625,-1123.71875 z"
 id="path14713"
 inkscape:connector-curvature="0"
 sodipodi:nodetypes="cccccccccc" />
<path
 style="fill:none;stroke:#000000;stroke-width:2;stroke-linecap:round;stroke-linejoin:round;stroke-miterlimit:4;stroke-opacity:1;stroke-dasharray:none;stroke-dashoffset:0"
 d="M 797.0625,-1137.71875 C 600.7879907532,-1138.6411896082 409.67831175464,-1018.1579520454 326.14740459835,-840.56583414771 272.86552544677,-727.2161387264 262.46135950096,-546.35011820566 285.98016601224,-424.03178832246 302.29722277088,-336.19340816338 274.93008774764,-265.29395601215 379.72644251021,-174.70288887556 456.7282077404,-109.94756408721 472.85049873611,-132.09034236321 532.125,-106.09375 593.87601457971,-79.046176134019 660.02669019096,-62.606535737214 727.05782701263,-55.559688424148 806.93566052588,-47.77996351071 889.39169393861,-54.766486416647 964.61645760948,-83.745186115058 1054.4938035083,-119.33831717392 1129.752228997,-184.64157968702 1189.1089328657,-259.7921482966 1266.178041192,-357.55281667821 1316.5274229023,-478.74643021741 1319.6897008857,-604.12346517864 1323.7781363887,-770.93186097305 1243.4058614121,-938.81077637943 1107.0617250207,-1035.8318183181 1017.7805241779,-1100.7658051285 908.00610260654,-1139.0395134815 797.0625,-1137.71875 z"
 id="path14727"
 inkscape:connector-curvature="0"
 sodipodi:nodetypes="ccccccccccc" />
<path
 style="fill:none;stroke:#000000;stroke-width:2;stroke-linecap:round;stroke-linejoin:round;stroke-miterlimit:4;stroke-opacity:1;stroke-dasharray:none;stroke-dashoffset:0"
 d="M 797.0625,-1151.71875 C 595.47234462026,-1152.7194120332 399.07209272127,-1028.8104795312 313.4375,-846.40625 257.43756181765,-727.06827371753 247.6581228934,-539.19997937106 274.13086093219,-410.89387228066 292.26895101055,-320.55798310788 270.03843024112,-234.57927402954 382.29390629241,-145.41048060671 474.90576913942,-73.979771884006 490.7230484794,-104.7088010077 561.44026584996,-79.315808916395 676.1413611921,-37.680345634425 803.57846475015,-24.987600581145 922.56045522786,-55.412142560316 1016.0316907341,-79.689521359096 1097.7494965977,-137.29125966776 1162.71875,-207.4375 1250.047150171,-301.36047748356 1312.5471746332,-420.69619330552 1329.25,-548.59375 1339.4684460046,-624.60648010011 1332.519331154,-702.79169253821 1309.2156071837,-775.83734986652 1270.5436692211,-899.39425791758 1186.563557129,-1009.1350596555 1074.25,-1074.3125 991.10024923722,-1124.1914508983 894.38589031581,-1152.9093978285 797.0625,-1151.71875 z"
 id="path14743"
 inkscape:connector-curvature="0"
 sodipodi:nodetypes="ccccccccccc" />
<path
 style="fill:none;stroke:#000000;stroke-width:2;stroke-linecap:round;stroke-linejoin:round;stroke-miterlimit:4;stroke-opacity:1;stroke-dasharray:none;stroke-dashoffset:0"
 d="M 797.0625,-1163.71875 C 593.23836638879,-1164.6413910022 394.79909257016,-1041.0634149496 305.71259140806,-857.99284983386 246.31027392927,-735.58130378929 234.73734908951,-542.89477854285 262.125,-410.28124997362 280.04587634925,-318.10755378315 254.88933660916,-224.25105937982 368.5424589565,-132.80364119108 461.81494894613,-59.748366753732 480.10562179147,-96.648935836189 551.48762371467,-70.168910020375 653.29395878766,-32.361932844995 764.63646586662,-16.845905956997 872.46875,-33 934.18087215582,-42.11653667118 994.16638865979,-63.263312088845 1047.2220950232,-96.241990050522 1128.688993772,-146.19056526232 1195.7446936151,-217.31587195215 1247.59375,-297.1875 1315.4113778158,-402.6677962963 1353.9732553934,-529.19348654783 1344.570542263,-655.20714635522 1332.6893384661,-818.81788844377 1244.491506041,-976.3921286411 1107.4717478128,-1067.5590963752 1016.4749681463,-1128.8833498127 907.32154016807,-1164.9022361485 797.0625,-1163.71875 z"
 id="path14759"
 inkscape:connector-curvature="0"
 sodipodi:nodetypes="ccccccccccc" />
<path
 style="fill:none;stroke:#000000;stroke-width:2;stroke-linecap:round;stroke-linejoin:round;stroke-miterlimit:4;stroke-opacity:1;stroke-dasharray:none;stroke-dashoffset:0"
 d="M 797.0625,-1177.71875 C 589.54596297047,-1178.6756759615 387.26382661906,-1053.6936831734 295.029539868,-867.94536563908 238.8463737897,-754.51317173504 222.99145284653,-572.95115706752 241.22102726886,-448.1460111287 255.78316347086,-356.16542193145 195.38613623691,-268.88954377413 297.82200576382,-167.25730164078 347.49847216585,-117.17833161743 389.87462824424,-116.52825313839 432.08135440948,-98.574409014437 511.48460476246,-63.945077257706 567.02934570996,-45.03287982431 650.98758361137,-26.850113379818 751.31977517317,-5.9941151820974 857.66770243765,-6.7398885727191 955.61734584571,-38.222505767086 1054.3639363932,-70.838571873889 1138.9794817194,-137.168463484 1205.1750191396,-216.12281098739 1289.3815413313,-316.00572454593 1346.6881897633,-440.42608008318 1358.006203424,-571.27028994713 1375.1557929883,-763.69121257581 1283.3322221715,-961.46229790954 1125.34375,-1072.375 1030.0362914854,-1139.3515946375 914.07791996969,-1178.8168825672 797.0625,-1177.71875 z"
 id="path14773"
 inkscape:connector-curvature="0"
 sodipodi:nodetypes="ccccccccccc" />
</g>
<path
 inkscape:connector-curvature="0"
 style="fill:none;stroke:#000000"
 d=""
 id="path5251" />
<path
 inkscape:connector-curvature="0"
 style="fill:none;stroke:#000000"
 d=""
 id="path5267" />
<path
 inkscape:connector-curvature="0"
 style="fill:none;stroke:#000000"
 d=""
 id="path5279" />
<path
 inkscape:connector-curvature="0"
 style="fill:none;stroke:#000000"
 d=""
 id="path5289" />
<path
 inkscape:connector-curvature="0"
 style="fill:none;stroke:#000000"
 d=""
 id="path5297" />
<path
 inkscape:connector-curvature="0"
 style="fill:none;stroke:#000000"
 d=""
 id="path5317" />
<path
 inkscape:connector-curvature="0"
 style="fill:none;stroke:#000000"
 d=""
 id="path5325" />
<path
 inkscape:connector-curvature="0"
 style="fill:none;stroke:#000000"
 d=""
 id="path5345" />
<path
 inkscape:connector-curvature="0"
 style="fill:none;stroke:#000000"
 d=""
 id="path5353" />
<path
 inkscape:connector-curvature="0"
 style="fill:none;stroke:#000000"
 d=""
 id="path5361" />
<path
 inkscape:connector-curvature="0"
 style="fill:none;stroke:#000000"
 d=""
 id="path5373" />
<path
 id="path6133"
 d=""
 style="fill:none;stroke:#000000"
 inkscape:connector-curvature="0" />
<path
 id="path6141"
 d=""
 style="fill:none;stroke:#000000"
 inkscape:connector-curvature="0" />
<path
 id="path6149"
 d=""
 style="fill:none;stroke:#000000"
 inkscape:connector-curvature="0" />
<path
 id="path6155"
 d=""
 style="fill:none;stroke:#000000"
 inkscape:connector-curvature="0" />
<path
 id="path6163"
 d=""
 style="fill:none;stroke:#000000"
 inkscape:connector-curvature="0" />
<path
 id="path6169"
 d=""
 style="fill:none;stroke:#000000"
 inkscape:connector-curvature="0" />
<path
 id="path6185"
 d=""
 style="fill:none;stroke:#000000"
 inkscape:connector-curvature="0" />
<path
 id="path6197"
 d=""
 style="fill:none;stroke:#000000"
 inkscape:connector-curvature="0" />
<path
 id="path6203"
 d=""
 style="fill:none;stroke:#000000"
 inkscape:connector-curvature="0" />
<path
 id="path6211"
 d=""
 style="fill:none;stroke:#000000"
 inkscape:connector-curvature="0" />
<path
 id="path6227"
 d=""
 style="fill:none;stroke:#000000"
 inkscape:connector-curvature="0" />
<path
 id="path6233"
 d=""
 style="fill:none;stroke:#000000"
 inkscape:connector-curvature="0" />
<path
 id="path6243"
 d=""
 style="fill:none;stroke:#000000"
 inkscape:connector-curvature="0" />
<path
 id="path6253"
 d=""
 style="fill:none;stroke:#000000"
 inkscape:connector-curvature="0" />
<path
 id="path6263"
 d=""
 style="fill:none;stroke:#000000"
 inkscape:connector-curvature="0" />
<path
 id="path6279"
 d=""
 style="fill:none;stroke:#000000"
 inkscape:connector-curvature="0" />
<path
 id="path6297"
 d=""
 style="fill:none;stroke:#000000"
 inkscape:connector-curvature="0" />
<path
 id="path6305"
 d=""
 style="fill:none;stroke:#000000"
 inkscape:connector-curvature="0" />
<path
 id="path6313"
 d=""
 style="fill:none;stroke:#000000"
 inkscape:connector-curvature="0" />
<path
 id="path6319"
 d=""
 style="fill:none;stroke:#000000"
 inkscape:connector-curvature="0" />
<path
 id="path6331"
 d=""
 style="fill:none;stroke:#000000"
 inkscape:connector-curvature="0" />
<path
 id="path6345"
 d=""
 style="fill:none;stroke:#000000"
 inkscape:connector-curvature="0" />
<path
 id="path6355"
 d=""
 style="fill:none;stroke:#000000"
 inkscape:connector-curvature="0" />
<path
 id="path6361"
 d=""
 style="fill:none;stroke:#000000"
 inkscape:connector-curvature="0" />
<path
 id="path6377"
 d=""
 style="fill:none;stroke:#000000"
 inkscape:connector-curvature="0" />
<path
 id="path6387"
 d=""
 style="fill:none;stroke:#000000"
 inkscape:connector-curvature="0" />
<path
 id="path6403"
 d=""
 style="fill:none;stroke:#000000"
 inkscape:connector-curvature="0" />
<path
 id="path20420"
 d=""
 style="fill:none;stroke:#000000"
 inkscape:connector-curvature="0" />
<path
 id="path20430"
 d=""
 style="fill:none;stroke:#000000"
 inkscape:connector-curvature="0" />
<path
 id="path20452"
 d=""
 style="fill:none;stroke:#000000"
 inkscape:connector-curvature="0" />
<path
 id="path20460"
 d=""
 style="fill:none;stroke:#000000"
 inkscape:connector-curvature="0" />
<path
 inkscape:connector-curvature="0"
 style="fill:none;stroke:#000000"
 d=""
 id="path21091" />
<path
 inkscape:connector-curvature="0"
 style="fill:none;stroke:#000000"
 d=""
 id="path21099" />
<path
 inkscape:connector-curvature="0"
 style="fill:none;stroke:#000000"
 d=""
 id="path21113" />
<path
 inkscape:connector-curvature="0"
 style="fill:none;stroke:#000000"
 d=""
 id="path21119" />
<path
 inkscape:connector-curvature="0"
 style="fill:none;stroke:#000000"
 d=""
 id="path21123" />
<path
 inkscape:connector-curvature="0"
 style="fill:none;stroke:#000000"
 d=""
 id="path21139" />
<path
 inkscape:connector-curvature="0"
 style="fill:none;stroke:#000000"
 d=""
 id="path21151" />
<path
 inkscape:connector-curvature="0"
 style="fill:none;stroke:#000000"
 d=""
 id="path21159" />
<path
 inkscape:connector-curvature="0"
 style="fill:none;stroke:#000000"
 d=""
 id="path21169" />
<path
 inkscape:connector-curvature="0"
 style="fill:none;stroke:#000000"
 d=""
 id="path21177" />
<path
 inkscape:connector-curvature="0"
 style="fill:none;stroke:#000000"
 d=""
 id="path21185" />
<path
 inkscape:connector-curvature="0"
 style="fill:none;stroke:#000000"
 d=""
 id="path21193" />
<path
 inkscape:connector-curvature="0"
 style="fill:none;stroke:#000000"
 d=""
 id="path21205" />
<path
 inkscape:connector-curvature="0"
 style="fill:none;stroke:#000000"
 d=""
 id="path21213" />
<path
 inkscape:connector-curvature="0"
 style="fill:none;stroke:#000000"
 d=""
 id="path21227" />
<path
 inkscape:connector-curvature="0"
 style="fill:none;stroke:#000000"
 d=""
 id="path21235" />
<path
 inkscape:connector-curvature="0"
 style="fill:none;stroke:#000000"
 d=""
 id="path21251" />
<path
 inkscape:connector-curvature="0"
 style="fill:none;stroke:#000000"
 d=""
 id="path21257" />
<path
 inkscape:connector-curvature="0"
 style="fill:none;stroke:#000000"
 d=""
 id="path21265" />
<path
 inkscape:connector-curvature="0"
 style="fill:none;stroke:#000000"
 d=""
 id="path21277" />
<path
 inkscape:connector-curvature="0"
 style="fill:none;stroke:#000000"
 d=""
 id="path21285" />
<path
 inkscape:connector-curvature="0"
 style="fill:none;stroke:#000000"
 d=""
 id="path21295" />
<path
 inkscape:connector-curvature="0"
 style="fill:none;stroke:#000000"
 d=""
 id="path21303" />
<path
 inkscape:connector-curvature="0"
 style="fill:none;stroke:#000000"
 d=""
 id="path21317" />
<path
 inkscape:connector-curvature="0"
 style="fill:none;stroke:#000000"
 d=""
 id="path21339" />
<path
 inkscape:connector-curvature="0"
 style="fill:none;stroke:#000000"
 d=""
 id="path21345" />
<path
 inkscape:connector-curvature="0"
 style="fill:none;stroke:#000000"
 d=""
 id="path21349" />
<path
 inkscape:connector-curvature="0"
 style="fill:none;stroke:#000000"
 d=""
 id="path21359" />
<path
 inkscape:connector-curvature="0"
 style="fill:none;stroke:#000000"
 d=""
 id="path21371" />
<path
 inkscape:connector-curvature="0"
 style="fill:none;stroke:#000000"
 d=""
 id="path21381" />
<path
 inkscape:connector-curvature="0"
 style="fill:none;stroke:#000000"
 d=""
 id="path21391" />
<path
 inkscape:connector-curvature="0"
 style="fill:none;stroke:#000000"
 d=""
 id="path21411" />
<path
 inkscape:connector-curvature="0"
 style="fill:none;stroke:#000000"
 d=""
 id="path21419" />
<path
 inkscape:connector-curvature="0"
 style="fill:none;stroke:#000000"
 d=""
 id="path21437" />
<path
 inkscape:connector-curvature="0"
 style="fill:none;stroke:#000000"
 d=""
 id="path21445" />
<path
 inkscape:connector-curvature="0"
 style="fill:none;stroke:#000000"
 d=""
 id="path21457" />
<path
 inkscape:connector-curvature="0"
 style="fill:none;stroke:#000000"
 d=""
 id="path21465" />
<path
 inkscape:connector-curvature="0"
 style="fill:none;stroke:#000000"
 d=""
 id="path21485" />
<path
 inkscape:connector-curvature="0"
 style="fill:none;stroke:#000000"
 d=""
 id="path21493" />
<path
 inkscape:connector-curvature="0"
 style="fill:none;stroke:#000000"
 d=""
 id="path21509" />
<path
 inkscape:connector-curvature="0"
 style="fill:none;stroke:#000000"
 d=""
 id="path21515" />
<path
 inkscape:connector-curvature="0"
 style="fill:none;stroke:#000000"
 d=""
 id="path21523" />
<path
 inkscape:connector-curvature="0"
 style="fill:none;stroke:#000000"
 d=""
 id="path21533" />
<path
 inkscape:connector-curvature="0"
 style="fill:none;stroke:#000000"
 d=""
 id="path21539" />
<path
 inkscape:connector-curvature="0"
 style="fill:none;stroke:#000000"
 d=""
 id="path21543" />
<path
 inkscape:connector-curvature="0"
 style="fill:none;stroke:#000000"
 d=""
 id="path21563" />
<path
 inkscape:connector-curvature="0"
 style="fill:none;stroke:#000000"
 d=""
 id="path21579" />
<path
 inkscape:connector-curvature="0"
 style="fill:none;stroke:#000000"
 d=""
 id="path21605" />
<path
 inkscape:connector-curvature="0"
 style="fill:none;stroke:#000000"
 d=""
 id="path21615" />
<path
 inkscape:connector-curvature="0"
 style="fill:none;stroke:#000000"
 d=""
 id="path21623" />
<path
 inkscape:connector-curvature="0"
 style="fill:none;stroke:#000000"
 d=""
 id="path21635" />
<path
 inkscape:connector-curvature="0"
 style="fill:none;stroke:#000000"
 d=""
 id="path21643" />
<path
 inkscape:connector-curvature="0"
 style="fill:none;stroke:#000000"
 d=""
 id="path21651" />
<path
 inkscape:connector-curvature="0"
 style="fill:none;stroke:#000000"
 d=""
 id="path21665" />
<path
 inkscape:connector-curvature="0"
 style="fill:none;stroke:#000000"
 d=""
 id="path21679" />
<path
 inkscape:connector-curvature="0"
 style="fill:none;stroke:#000000"
 d=""
 id="path21691" />
<path
 inkscape:connector-curvature="0"
 style="fill:none;stroke:#000000"
 d=""
 id="path21699" />
<path
 inkscape:connector-curvature="0"
 style="fill:none;stroke:#000000"
 d=""
 id="path21711" />
<path
 inkscape:connector-curvature="0"
 style="fill:none;stroke:#000000"
 d=""
 id="path21717" />
<path
 inkscape:connector-curvature="0"
 style="fill:none;stroke:#000000"
 d=""
 id="path21725" />
<path
 inkscape:connector-curvature="0"
 style="fill:none;stroke:#000000"
 d=""
 id="path21741" />
<path
 inkscape:connector-curvature="0"
 style="fill:none;stroke:#000000"
 d=""
 id="path21753" />
<path
 inkscape:connector-curvature="0"
 style="fill:none;stroke:#000000"
 d=""
 id="path21769" />
<path
 inkscape:connector-curvature="0"
 style="fill:none;stroke:#000000"
 d=""
 id="path21783" />
<path
 inkscape:connector-curvature="0"
 style="fill:none;stroke:#000000"
 d=""
 id="path21799" />
<path
 inkscape:connector-curvature="0"
 style="fill:none;stroke:#000000"
 d=""
 id="path21815" />
<path
 inkscape:connector-curvature="0"
 style="fill:none;stroke:#000000"
 d=""
 id="path21823" />
<path
 inkscape:connector-curvature="0"
 style="fill:none;stroke:#000000"
 d=""
 id="path21833" />
<path
 inkscape:connector-curvature="0"
 style="fill:none;stroke:#000000"
 d=""
 id="path21843" />
<path
 inkscape:connector-curvature="0"
 style="fill:none;stroke:#000000"
 d=""
 id="path21857" />
<path
 inkscape:connector-curvature="0"
 style="fill:none;stroke:#000000"
 d=""
 id="path21871" />
<path
 inkscape:connector-curvature="0"
 style="fill:none;stroke:#000000"
 d=""
 id="path21877" />
<path
 inkscape:connector-curvature="0"
 style="fill:none;stroke:#000000"
 d=""
 id="path21885" />
<path
 inkscape:connector-curvature="0"
 style="fill:none;stroke:#000000"
 d=""
 id="path21897" />
<path
 inkscape:connector-curvature="0"
 style="fill:none;stroke:#000000"
 d=""
 id="path21907" />
<path
 inkscape:connector-curvature="0"
 style="fill:none;stroke:#000000"
 d=""
 id="path21915" />
<path
 inkscape:connector-curvature="0"
 style="fill:none;stroke:#000000"
 d=""
 id="path21923" />
<path
 inkscape:connector-curvature="0"
 style="fill:none;stroke:#000000"
 d=""
 id="path21939" />
<path
 inkscape:connector-curvature="0"
 style="fill:none;stroke:#000000"
 d=""
 id="path21947" />
<path
 inkscape:connector-curvature="0"
 style="fill:none;stroke:#000000"
 d=""
 id="path21957" />
<path
 inkscape:connector-curvature="0"
 style="fill:none;stroke:#000000"
 d=""
 id="path21967" />
<path
 inkscape:connector-curvature="0"
 style="fill:none;stroke:#000000"
 d=""
 id="path21975" />
<path
 inkscape:connector-curvature="0"
 style="fill:none;stroke:#000000"
 d=""
 id="path21985" />
<path
 inkscape:connector-curvature="0"
 style="fill:none;stroke:#000000"
 d=""
 id="path21995" />
<path
 inkscape:connector-curvature="0"
 style="fill:none;stroke:#000000"
 d=""
 id="path22007" />
<path
 inkscape:connector-curvature="0"
 style="fill:none;stroke:#000000"
 d=""
 id="path22023" />
<path
 inkscape:connector-curvature="0"
 style="fill:none;stroke:#000000"
 d=""
 id="path22033" />
<path
 inkscape:connector-curvature="0"
 style="fill:none;stroke:#000000"
 d=""
 id="path22051" />
<path
 inkscape:connector-curvature="0"
 style="fill:none;stroke:#000000"
 d=""
 id="path22061" />
<path
 inkscape:connector-curvature="0"
 style="fill:none;stroke:#000000"
 d=""
 id="path22077" />
<path
 inkscape:connector-curvature="0"
 style="fill:none;stroke:#000000"
 d=""
 id="path22091" />
<path
 inkscape:connector-curvature="0"
 style="fill:none;stroke:#000000"
 d=""
 id="path22097" />
<path
 inkscape:connector-curvature="0"
 style="fill:none;stroke:#000000"
 d=""
 id="path22105" />
<path
 inkscape:connector-curvature="0"
 style="fill:none;stroke:#000000"
 d=""
 id="path22123" />
<path
 inkscape:connector-curvature="0"
 style="fill:none;stroke:#000000"
 d=""
 id="path22141" />
<path
 inkscape:connector-curvature="0"
 style="fill:none;stroke:#000000"
 d=""
 id="path22149" />
<path
 inkscape:connector-curvature="0"
 style="fill:none;stroke:#000000"
 d=""
 id="path22155" />
<path
 inkscape:connector-curvature="0"
 style="fill:none;stroke:#000000"
 d=""
 id="path22163" />
<path
 inkscape:connector-curvature="0"
 style="fill:none;stroke:#000000"
 d=""
 id="path22177" />
<path
 inkscape:connector-curvature="0"
 style="fill:none;stroke:#000000"
 d=""
 id="path22183" />
<path
 inkscape:connector-curvature="0"
 style="fill:none;stroke:#000000"
 d=""
 id="path22199" />
<path
 inkscape:connector-curvature="0"
 style="fill:none;stroke:#000000"
 d=""
 id="path22209" />
<path
 inkscape:connector-curvature="0"
 style="fill:none;stroke:#000000"
 d=""
 id="path22213" />
<path
 inkscape:connector-curvature="0"
 style="fill:none;stroke:#000000"
 d=""
 id="path22221" />
<path
 inkscape:connector-curvature="0"
 style="fill:none;stroke:#000000"
 d=""
 id="path22231" />
<path
 inkscape:connector-curvature="0"
 style="fill:none;stroke:#000000"
 d=""
 id="path22237" />
<path
 inkscape:connector-curvature="0"
 style="fill:none;stroke:#000000"
 d=""
 id="path22251" />
<path
 inkscape:connector-curvature="0"
 style="fill:none;stroke:#000000"
 d=""
 id="path22261" />
<path
 inkscape:connector-curvature="0"
 style="fill:none;stroke:#000000"
 d=""
 id="path22269" />
<path
 inkscape:connector-curvature="0"
 style="fill:none;stroke:#000000"
 d=""
 id="path22279" />
<path
 inkscape:connector-curvature="0"
 style="fill:none;stroke:#000000"
 d=""
 id="path22303" />
<path
 inkscape:connector-curvature="0"
 style="fill:none;stroke:#000000"
 d=""
 id="path22313" />
<path
 inkscape:connector-curvature="0"
 style="fill:none;stroke:#000000"
 d=""
 id="path22333" />
<path
 inkscape:connector-curvature="0"
 style="fill:none;stroke:#000000"
 d=""
 id="path22341" />
<path
 inkscape:connector-curvature="0"
 style="fill:none;stroke:#000000"
 d=""
 id="path22351" />
<path
 inkscape:connector-curvature="0"
 style="fill:none;stroke:#000000"
 d=""
 id="path22367" />
<path
 inkscape:connector-curvature="0"
 style="fill:none;stroke:#000000"
 d=""
 id="path22377" />
<path
 inkscape:connector-curvature="0"
 style="fill:none;stroke:#000000"
 d=""
 id="path22389" />
<path
 inkscape:connector-curvature="0"
 style="fill:none;stroke:#000000"
 d=""
 id="path22397" />
<path
 inkscape:connector-curvature="0"
 style="fill:none;stroke:#000000"
 d=""
 id="path22407" />
<path
 inkscape:connector-curvature="0"
 style="fill:none;stroke:#000000"
 d=""
 id="path22415" />
</svg>
