<?xml version="1.0" encoding="UTF-8" standalone="no"?>
<!-- Created with Inkscape (http://www.inkscape.org/) -->

<svg
   xmlns:dc="http://purl.org/dc/elements/1.1/"
   xmlns:cc="http://creativecommons.org/ns#"
   xmlns:rdf="http://www.w3.org/1999/02/22-rdf-syntax-ns#"
   xmlns:svg="http://www.w3.org/2000/svg"
   xmlns="http://www.w3.org/2000/svg"
   xmlns:sodipodi="http://sodipodi.sourceforge.net/DTD/sodipodi-0.dtd"
   xmlns:inkscape="http://www.inkscape.org/namespaces/inkscape"
   sodipodi:docname="flower003.svg"
   inkscape:version="0.48.2 r9819"
   version="1.1"
   id="svg3783"
   height="1052.3622047"
   width="744.09448819">
  <sodipodi:namedview
     id="base"
     pagecolor="#ffffff"
     bordercolor="#666666"
     borderopacity="1.0"
     inkscape:pageopacity="0.0"
     inkscape:pageshadow="2"
     inkscape:zoom="0.7"
     inkscape:cx="332.95445"
     inkscape:cy="673.38152"
     inkscape:document-units="px"
     inkscape:current-layer="layer1"
     showgrid="false"
     inkscape:window-width="1024"
     inkscape:window-height="748"
     inkscape:window-x="10"
     inkscape:window-y="-16"
     inkscape:window-maximized="0" />
  <defs
     id="defs3785">
    <inkscape:perspective
       sodipodi:type="inkscape:persp3d"
       inkscape:vp_x="-314.90439 : 155.3937 : 0"
       inkscape:vp_y="0 : 1000 : 0"
       inkscape:vp_z="372.04724 : 175.3937 : 0"
       inkscape:persp3d-origin="334.90438 : 296.50168 : 1"
       id="perspective3823" />
  </defs>
  <metadata
     id="metadata3788">
    <rdf:RDF>
      <cc:Work
         rdf:about="">
        <dc:format>image/svg+xml</dc:format>
        <dc:type
           rdf:resource="http://purl.org/dc/dcmitype/StillImage" />
        <dc:title></dc:title>
      </cc:Work>
    </rdf:RDF>
  </metadata>
  <g
     inkscape:label="Layer 1"
     inkscape:groupmode="layer"
     id="layer1">
    <rect
       style="fill:none;stroke:#000000;stroke-width:0.91610378;stroke-opacity:1"
       id="rect4319"
       width="516.12524"
       height="779.49591"
       x="7.8454075"
       y="12.284647" />
    <flowRoot
       xml:space="preserve"
       id="flowRoot3475"
       style="fill:black;stroke:none;stroke-opacity:1;stroke-width:1px;stroke-linejoin:miter;stroke-linecap:butt;fill-opacity:1;font-family:Sans;font-style:normal;font-weight:normal;font-size:40px;line-height:125%;letter-spacing:0px;word-spacing:0px"><flowRegion
         id="flowRegion3477"><rect
           id="rect3479"
           width="474.7717"
           height="76.771591"
           x="40.406101"
           y="840.23016" /></flowRegion><flowPara
         id="flowPara3481" /></flowRoot>    <path
       sodipodi:type="star"
       style="fill:none;stroke:#ff0000;stroke-width:1;stroke-miterlimit:4;stroke-opacity:1;stroke-dasharray:none"
       id="path3172"
       sodipodi:sides="9"
       sodipodi:cx="224.25386"
       sodipodi:cy="292.72748"
       sodipodi:r1="60.233109"
       sodipodi:r2="91.370903"
       sodipodi:arg1="1.1135002"
       sodipodi:arg2="1.4625661"
       inkscape:flatsided="false"
       inkscape:rounded="0"
       inkscape:randomized="0"
       d="m 250.8482,346.77161 -16.72454,36.79214 -24.23625,-32.34155 -36.46128,17.43409 2.22271,-40.35383 -39.13738,-10.08157 27.64164,-29.4841 -23.50066,-32.87995 40.12673,-4.81843 3.13228,-40.29344 33.83608,22.10183 28.29959,-28.85317 11.71316,38.6804 40.2252,-3.91219 -15.89048,37.15999 33.329,22.85935 -36.05879,18.25199 10.83779,38.93475 z"
       inkscape:transform-center-x="0.60258932"
       inkscape:transform-center-y="-0.60258391"
       transform="matrix(0.43615331,0,0,0.43615331,154.7544,154.03329)" />
    <path
       inkscape:transform-center-y="-0.6025839"
       inkscape:transform-center-x="0.60258933"
       d="m 250.8482,346.77161 -13.03039,70.79108 -27.9304,-66.34049 -55.48549,45.85334 21.24692,-68.77308 -71.97831,-0.53969 60.48257,-39.02598 -54.79168,-46.68019 71.41775,8.98181 -11.96741,-70.97852 48.93577,52.78691 36.45654,-62.0652 3.55621,71.89243 67.82207,-24.11089 -43.48735,57.35869 67.4529,25.12517 -70.18269,15.98617 35.52177,62.60489 z"
       inkscape:randomized="0"
       inkscape:rounded="0"
       inkscape:flatsided="false"
       sodipodi:arg2="1.4625661"
       sodipodi:arg1="1.1135002"
       sodipodi:r2="125.56995"
       sodipodi:r1="60.233109"
       sodipodi:cy="292.72748"
       sodipodi:cx="224.25386"
       sodipodi:sides="9"
       id="path3174"
       style="fill:none;stroke:#ff0000;stroke-width:1;stroke-miterlimit:4;stroke-opacity:1;stroke-dasharray:none"
       sodipodi:type="star"
       transform="matrix(0.43615331,0,0,0.43615331,154.7544,154.03329)" />
    <path
       sodipodi:type="star"
       style="fill:none;stroke:#ff0000;stroke-width:1;stroke-miterlimit:4;stroke-opacity:1;stroke-dasharray:none"
       id="path3176"
       sodipodi:sides="9"
       sodipodi:cx="224.25386"
       sodipodi:cy="292.72748"
       sodipodi:r1="60.233109"
       sodipodi:r2="169.82446"
       sodipodi:arg1="1.1135002"
       sodipodi:arg2="1.4625661"
       inkscape:flatsided="false"
       inkscape:rounded="0"
       inkscape:randomized="0"
       d="M 250.8482,346.77161 242.59815,461.55827 209.88741,351.2222 129.78406,433.85085 175.64884,328.30246 61.173442,340.11023 164.1531,288.73679 68.869965,224.1987 180.77917,251.03841 149.27234,140.35255 l 68.47519,92.49425 47.01187,-105.04248 -6.99912,114.86971 103.53319,-50.24856 -79.19847,83.49636 111.61018,28.05721 -114.33997,13.05413 67.46353,93.23472 z"
       inkscape:transform-center-x="0.60258932"
       inkscape:transform-center-y="-0.6025839"
       transform="matrix(0.43615331,0,0,0.43615331,154.7544,154.03329)" />
    <path
       inkscape:transform-center-y="-0.6025839"
       inkscape:transform-center-x="0.60258932"
       d="m 265.86301,377.2842 -23.26487,84.27407 -40.82183,-77.31074 -71.99226,49.60331 18.42305,-85.46323 -87.03366,-8.27739 69.04758,-53.62652 -61.351051,-62.28501 87.363981,3.30263 -6.9616,-87.14878 64.8018,58.68645 50.68526,-71.23467 11.91814,86.61022 84.61592,-21.98907 -46.54214,74.00811 78.95385,37.54547 -83.22485,26.77679 36.3484,79.51205 z"
       inkscape:randomized="0"
       inkscape:rounded="0"
       inkscape:flatsided="false"
       sodipodi:arg2="1.4625661"
       sodipodi:arg1="1.1135002"
       sodipodi:r2="169.82446"
       sodipodi:r1="94.239906"
       sodipodi:cy="292.72748"
       sodipodi:cx="224.25386"
       sodipodi:sides="9"
       id="path3178"
       style="fill:none;stroke:#ff0000;stroke-width:1;stroke-miterlimit:4;stroke-opacity:1;stroke-dasharray:none"
       sodipodi:type="star"
       transform="matrix(0.43615331,0,0,0.43615331,154.7544,154.03329)" />
    <path
       sodipodi:type="star"
       style="fill:none;stroke:#ff0000;stroke-width:1;stroke-miterlimit:4;stroke-opacity:1;stroke-dasharray:none"
       id="path3180"
       sodipodi:sides="9"
       sodipodi:cx="224.25386"
       sodipodi:cy="292.72748"
       sodipodi:r1="129.25201"
       sodipodi:r2="169.82446"
       sodipodi:arg1="1.1135002"
       sodipodi:arg2="1.4625661"
       inkscape:flatsided="false"
       inkscape:rounded="0"
       inkscape:randomized="0"
       d="m 281.32168,408.6988 -38.72354,52.85947 -49.17272,-43.30912 -63.64137,15.60169 -9.82992,-64.78432 -58.78069,-28.9563 34.112401,-55.94622 -26.415872,-59.96531 62.093151,-20.93026 18.30923,-62.91589 61.01982,23.8792 54.46724,-36.42742 31.39465,57.51531 65.13941,7.10584 -12.92043,64.23938 45.33214,47.3142 -51.1899,40.90512 4.31345,65.38372 z"
       inkscape:transform-center-x="0.60258932"
       inkscape:transform-center-y="-0.6025839"
       transform="matrix(0.43615331,0,0,0.43615331,154.7544,154.03329)" />
    <path
       inkscape:transform-center-y="-0.6025839"
       inkscape:transform-center-x="0.60258932"
       d="m 294.24738,434.96596 -51.64924,26.59231 -56.15527,-14.87882 -56.65882,-12.82861 -33.453506,-47.49375 -35.157104,-46.24687 4.901517,-57.88582 2.795012,-58.02571 40.963071,-41.19247 39.43931,-42.65368 57.85754,-5.22471 57.62952,-7.32351 47.67983,33.18775 48.85423,31.4334 15.1922,56.0713 17.21951,55.48228 -24.40403,52.71846 -22.47242,53.57038 z"
       inkscape:randomized="0"
       inkscape:rounded="0"
       inkscape:flatsided="false"
       sodipodi:arg2="1.4625661"
       sodipodi:arg1="1.1135002"
       sodipodi:r2="169.82446"
       sodipodi:r1="158.52722"
       sodipodi:cy="292.72748"
       sodipodi:cx="224.25386"
       sodipodi:sides="9"
       id="path3182"
       style="fill:none;stroke:#ff0000;stroke-width:1;stroke-miterlimit:4;stroke-opacity:1;stroke-dasharray:none"
       sodipodi:type="star"
       transform="matrix(0.43615331,0,0,0.43615331,154.7544,154.03329)" />
    <path
       sodipodi:type="star"
       style="fill:none;stroke:#ff0000;stroke-width:1;stroke-miterlimit:4;stroke-opacity:1;stroke-dasharray:none"
       id="path3184"
       sodipodi:sides="9"
       sodipodi:cx="224.25386"
       sodipodi:cy="292.72748"
       sodipodi:r1="158.52722"
       sodipodi:r2="193.60356"
       sodipodi:arg1="1.1135002"
       sodipodi:arg2="1.4625661"
       inkscape:flatsided="false"
       inkscape:rounded="0"
       inkscape:randomized="0"
       d="m 294.24738,434.96596 -49.08064,50.23227 -58.72387,-38.51878 -69.88663,6.93172 -20.225696,-67.25408 -57.991888,-39.61225 27.736301,-64.52044 -18.962099,-67.62121 62.720182,-31.59697 28.94026,-63.98946 68.35659,16.11107 63.30116,-30.41632 42.00819,56.28056 68.04274,17.38894 -3.99631,70.11576 40.94636,57.05773 -48.13088,51.14301 -5.30928,70.02858 z"
       inkscape:transform-center-x="0.60258932"
       inkscape:transform-center-y="-0.6025839"
       transform="matrix(0.43615331,0,0,0.43615331,154.7544,154.03329)" />
    <path
       inkscape:transform-center-y="-0.6025839"
       inkscape:transform-center-x="0.60258932"
       d="M 294.24738,434.96596 248.42365,515.17302 186.44287,446.67945 99.783753,478.66669 96.330544,386.35709 9.3848019,355.15734 66.074957,282.2244 19.525471,202.43636 l 90.307569,-19.43014 15.62779,-91.042625 81.66906,43.164235 70.49265,-59.697345 34.8167,85.561585 92.37322,-0.41902 -28.32679,87.92372 71.03133,59.05538 -78.21585,49.14536 16.45308,90.8971 z"
       inkscape:randomized="0"
       inkscape:rounded="0"
       inkscape:flatsided="false"
       sodipodi:arg2="1.4625661"
       sodipodi:arg1="1.1135002"
       sodipodi:r2="223.75478"
       sodipodi:r1="158.52722"
       sodipodi:cy="292.72748"
       sodipodi:cx="224.25386"
       sodipodi:sides="9"
       id="path3186"
       style="fill:none;stroke:#ff0000;stroke-width:1;stroke-miterlimit:4;stroke-opacity:1;stroke-dasharray:none"
       sodipodi:type="star"
       transform="matrix(0.43615331,0,0,0.43615331,154.7544,154.03329)" />
    <path
       sodipodi:type="star"
       style="fill:none;stroke:#ff0000;stroke-width:1;stroke-miterlimit:4;stroke-opacity:1;stroke-dasharray:none"
       id="path3188"
       sodipodi:sides="9"
       sodipodi:cx="224.25386"
       sodipodi:cy="292.72748"
       sodipodi:r1="180.23018"
       sodipodi:r2="251.89207"
       sodipodi:arg1="1.1135002"
       sodipodi:arg2="1.4625661"
       inkscape:flatsided="false"
       inkscape:rounded="0"
       inkscape:randomized="0"
       d="M 303.82975,454.43893 251.46302,543.14569 181.26641,467.75604 84.131561,502.04866 78.817373,399.17533 -17.635112,363.00793 44.419686,280.78649 -6.2192474,191.08219 94.168408,167.98497 113.03755,66.717415 l 91.74801,46.834445 79.54813,-65.446604 40.17845,94.851754 103.00567,0.99754 -30.19105,98.48687 78.26571,66.97494 -86.43382,56.03888 16.90435,101.61401 z"
       inkscape:transform-center-x="0.60258932"
       inkscape:transform-center-y="-0.6025839"
       transform="matrix(0.43615331,0,0,0.43615331,154.7544,154.03329)" />
    <path
       inkscape:transform-center-y="-0.6025839"
       inkscape:transform-center-x="0.60258932"
       d="M 320.49128,488.29794 251.463,543.14569 172.26573,504.40336 84.131551,502.04866 48.366011,421.46329 -17.635116,363.00792 6.7661663,278.2863 -6.2192424,191.08218 66.931231,141.8665 113.03756,66.717409 l 87.67174,9.318817 83.6244,-27.930967 61.17043,63.492941 82.01369,32.35636 6.0468,87.95801 42.02785,77.5038 -51.9062,71.26655 -17.62327,86.38634 z"
       inkscape:randomized="0"
       inkscape:rounded="0"
       inkscape:flatsided="false"
       sodipodi:arg2="1.4625661"
       sodipodi:arg1="1.1135002"
       sodipodi:r2="251.89207"
       sodipodi:r1="217.96661"
       sodipodi:cy="292.72748"
       sodipodi:cx="224.25386"
       sodipodi:sides="9"
       id="path3190"
       style="fill:none;stroke:#ff0000;stroke-width:1;stroke-miterlimit:4;stroke-opacity:1;stroke-dasharray:none"
       sodipodi:type="star"
       transform="matrix(0.43615331,0,0,0.43615331,154.7544,154.03329)" />
    <path
       sodipodi:type="star"
       style="fill:none;stroke:#ff0000;stroke-width:1;stroke-miterlimit:4;stroke-opacity:1;stroke-dasharray:none"
       id="path3192"
       sodipodi:sides="9"
       sodipodi:cx="224.25386"
       sodipodi:cy="292.72748"
       sodipodi:r1="266.75494"
       sodipodi:r2="251.89207"
       sodipodi:arg1="1.1135002"
       sodipodi:arg2="1.4625661"
       inkscape:flatsided="false"
       inkscape:rounded="0"
       inkscape:randomized="0"
       d="M 342.03248,532.07324 251.463,543.14569 160.62903,551.78361 84.131551,502.04866 8.9963371,450.27874 -17.635116,363.00792 -41.914965,275.05387 -6.2192424,191.08218 31.717084,108.09869 113.03756,66.717409 l 82.40167,-39.184043 88.89447,20.571893 88.31036,22.950056 54.87376,72.899245 52.89765,74.34557 -4.823,91.11624 -7.26646,90.95396 -62.26301,66.69893 z"
       inkscape:transform-center-x="0.60258934"
       inkscape:transform-center-y="-0.60258391"
       transform="matrix(0.43615331,0,0,0.43615331,154.7544,154.03329)" />
    <path
       inkscape:transform-center-y="-0.60258392"
       inkscape:transform-center-x="0.60258934"
       d="M 355.59416,559.63284 251.463,543.14569 153.30291,581.61277 84.131551,502.04866 -15.789603,468.42006 -17.635116,363.00792 -72.563114,273.01884 -6.2192424,191.08218 9.5473365,86.839511 113.03756,66.717409 l 79.0838,-69.7199577 92.21234,51.1078077 105.39683,-2.574501 37.78729,98.423802 82.39351,65.7756 -34.31886,99.68621 20.83736,103.34856 -90.36683,54.30433 z"
       inkscape:randomized="0"
       inkscape:rounded="0"
       inkscape:flatsided="false"
       sodipodi:arg2="1.4625661"
       sodipodi:arg1="1.1135002"
       sodipodi:r2="251.89207"
       sodipodi:r1="297.47058"
       sodipodi:cy="292.72748"
       sodipodi:cx="224.25386"
       sodipodi:sides="9"
       id="path3194"
       style="fill:none;stroke:#ff0000;stroke-width:1;stroke-miterlimit:4;stroke-opacity:1;stroke-dasharray:none"
       sodipodi:type="star"
       transform="matrix(0.43615331,0,0,0.43615331,154.7544,154.03329)" />
    <path
       sodipodi:type="star"
       style="fill:none;stroke:#ff0000;stroke-width:1;stroke-miterlimit:4;stroke-opacity:1;stroke-dasharray:none"
       id="path3196"
       sodipodi:sides="9"
       sodipodi:cx="224.25386"
       sodipodi:cy="292.72748"
       sodipodi:r1="331.84351"
       sodipodi:r2="251.89207"
       sodipodi:arg1="1.1135002"
       sodipodi:arg2="1.4625661"
       inkscape:flatsided="false"
       inkscape:rounded="0"
       inkscape:randomized="0"
       d="M 370.77062,590.47393 251.463,543.14569 145.10448,614.99365 84.131551,502.04866 -43.526786,488.72145 -17.635116,363.00792 -106.86051,270.74149 -6.2192424,191.08218 -15.262146,63.049018 l 128.299706,3.668391 75.37086,-103.89176 95.92528,85.27961 124.51777,-31.138247 18.66635,126.987548 115.40142,56.1852 -67.32677,109.27661 52.28747,117.21896 -121.81694,40.43393 z"
       inkscape:transform-center-x="0.60258935"
       inkscape:transform-center-y="-0.60258392"
       transform="matrix(0.43615331,0,0,0.43615331,154.7544,154.03329)" />
    <path
       inkscape:transform-center-y="-0.60258392"
       inkscape:transform-center-x="0.60258935"
       d="M 370.77062,590.47393 254.35612,569.77219 145.10448,614.99365 69.232617,524.3054 -43.526786,488.72145 -43.354719,370.48072 -106.86051,270.74149 -30.725027,180.27444 -15.262146,63.049018 101.21212,42.686183 l 87.1963,-79.860534 102.31345,59.269379 118.1296,-5.128016 40.27902,111.168788 93.78875,72.00396 -40.6024,111.05109 25.5631,115.44448 -102.48551,58.97135 z"
       inkscape:randomized="0"
       inkscape:rounded="0"
       inkscape:flatsided="false"
       sodipodi:arg2="1.4625661"
       sodipodi:arg1="1.1135002"
       sodipodi:r2="278.67529"
       sodipodi:r1="331.84351"
       sodipodi:cy="292.72748"
       sodipodi:cx="224.25386"
       sodipodi:sides="9"
       id="path3198"
       style="fill:none;stroke:#ff0000;stroke-width:1;stroke-miterlimit:4;stroke-opacity:1;stroke-dasharray:none"
       sodipodi:type="star"
       transform="matrix(0.43615331,0,0,0.43615331,154.7544,154.03329)" />
    <path
       sodipodi:type="star"
       style="fill:none;stroke:#ff0000;stroke-width:1;stroke-miterlimit:4;stroke-opacity:1;stroke-dasharray:none"
       id="path3200"
       sodipodi:sides="9"
       sodipodi:cx="224.25386"
       sodipodi:cy="292.72748"
       sodipodi:r1="331.84351"
       sodipodi:r2="308.81989"
       sodipodi:arg1="1.1135002"
       sodipodi:arg2="1.4625661"
       inkscape:flatsided="false"
       inkscape:rounded="0"
       inkscape:randomized="0"
       d="M 370.77062,590.47393 257.61231,599.7404 145.10448,614.99365 52.46381,549.35542 -43.526786,488.72145 -72.302214,378.89137 -106.86051,270.74149 -58.306354,168.11028 -15.262146,63.049018 87.90257,15.63896 l 100.50585,-52.813311 109.50336,29.994789 110.93969,24.146574 64.60416,93.364738 69.46361,89.80801 -10.52404,113.0483 -4.51526,113.44727 -80.72792,79.8353 z"
       inkscape:transform-center-x="0.60258935"
       inkscape:transform-center-y="-0.60258392"
       transform="matrix(0.43615331,0,0,0.43615331,154.7544,154.03329)" />
    <path
       inkscape:transform-center-y="-0.60258389"
       inkscape:transform-center-x="0.60258932"
       d="M 370.77062,590.47393 262.6061,645.70052 145.10448,614.99365 26.746681,587.77286 l -70.273467,-99.05141 -73.170144,-96.93127 9.83642,-121.04869 6.25463,-121.28652 85.343734,-86.405952 82.752802,-88.890465 120.917764,-11.332904 120.53002,-14.901571 99.91303,69.042934 101.90989,66.059934 32.15788,117.112814 35.605,116.11126 -50.6443,110.38431 -47.35986,111.83284 z"
       inkscape:randomized="0"
       inkscape:rounded="0"
       inkscape:flatsided="false"
       sodipodi:arg2="1.4625661"
       sodipodi:arg1="1.1135002"
       sodipodi:r2="355.05051"
       sodipodi:r1="331.84351"
       sodipodi:cy="292.72748"
       sodipodi:cx="224.25386"
       sodipodi:sides="9"
       id="path3202"
       style="fill:none;stroke:#ff0000;stroke-width:1;stroke-miterlimit:4;stroke-opacity:1;stroke-dasharray:none"
       sodipodi:type="star"
       transform="matrix(0.43615331,0,0,0.43615331,154.7544,154.03329)" />
    <path
       sodipodi:type="star"
       style="fill:none;stroke:#ff0000;stroke-width:1;stroke-miterlimit:4;stroke-opacity:1;stroke-dasharray:none"
       id="path3204"
       sodipodi:sides="9"
       sodipodi:cx="224.25386"
       sodipodi:cy="292.72748"
       sodipodi:r1="374.31381"
       sodipodi:r2="355.05051"
       sodipodi:arg1="1.1135002"
       sodipodi:arg2="1.4625661"
       inkscape:flatsided="false"
       inkscape:rounded="0"
       inkscape:randomized="0"
       d="M 389.52227,628.5804 262.60608,645.70052 134.97471,656.23823 26.746666,587.77285 -77.798139,513.80534 -116.69694,391.79017 -149.2375,267.92766 -100.60587,149.45495 -45.916108,33.654094 67.490672,-25.841455 183.82082,-79.396156 l 125.11763,27.320238 123.53836,33.750295 78.28456,101.352583 72.94161,105.26315 -5.17874,127.96093 -11.78534,127.52221 -86.21884,94.69494 z"
       inkscape:transform-center-x="0.60258934"
       inkscape:transform-center-y="-0.60258391"
       transform="matrix(0.43615331,0,0,0.43615331,154.7544,154.03329)" />
    <path
       inkscape:transform-center-y="-0.60258391"
       inkscape:transform-center-x="0.60258934"
       d="M 405.87484,661.81154 262.60608,645.70052 126.14094,692.20599 26.746666,587.77285 -107.68484,535.68 -116.69694,391.79017 -186.19281,265.47383 -100.60587,149.45495 -72.648221,8.0199385 67.490672,-25.841455 179.82015,-116.21613 l 129.1183,64.140212 144.1411,2.972979 57.68182,132.129899 108.50749,94.92954 -40.74462,138.29454 22.10203,142.46752 -120.10621,79.74963 z"
       inkscape:randomized="0"
       inkscape:rounded="0"
       inkscape:flatsided="false"
       sodipodi:arg2="1.4625661"
       sodipodi:arg1="1.1135002"
       sodipodi:r2="355.05051"
       sodipodi:r1="411.35049"
       sodipodi:cy="292.72748"
       sodipodi:cx="224.25386"
       sodipodi:sides="9"
       id="path3206"
       style="fill:none;stroke:#ff0000;stroke-width:1;stroke-miterlimit:4;stroke-opacity:1;stroke-dasharray:none"
       sodipodi:type="star"
       transform="matrix(0.43615331,0,0,0.43615331,154.7544,154.03329)" />
    <path
       sodipodi:type="star"
       style="fill:none;stroke:#ff0000;stroke-width:1;stroke-miterlimit:4;stroke-opacity:1;stroke-dasharray:none"
       id="path3208"
       sodipodi:sides="9"
       sodipodi:cx="224.25386"
       sodipodi:cy="292.72748"
       sodipodi:r1="411.35049"
       sodipodi:r2="395.24429"
       sodipodi:arg1="1.1135002"
       sodipodi:arg2="1.4625661"
       inkscape:flatsided="false"
       inkscape:rounded="0"
       inkscape:randomized="0"
       d="M 405.87484,661.81154 266.94779,685.65913 126.14094,692.20599 4.3877169,621.17371 -107.68484,535.68 -155.29455,403.00466 -186.19281,265.47383 -137.38189,133.23569 -72.648221,8.0199385 49.744148,-61.905306 179.82015,-116.21613 l 138.70507,25.106453 134.55433,42.006738 90.11613,108.390562 76.07318,118.668877 -0.63914,140.95753 -18.00345,139.80453 -91.09536,107.56889 z"
       inkscape:transform-center-x="0.60258934"
       inkscape:transform-center-y="-0.60258391"
       transform="matrix(0.43615331,0,0,0.43615331,154.7544,154.03329)" />
    <path
       inkscape:transform-center-y="-0.6025839"
       inkscape:transform-center-x="0.60258931"
       d="M 405.87484,661.81154 270.03242,714.04837 126.14094,692.20599 -11.497576,644.9039 -107.68484,535.68 -182.71686,410.97217 -186.19281,265.47383 -163.51002,121.71243 -72.648221,8.0199385 37.13585,-87.527467 l 142.6843,-28.688663 145.51616,-2.62572 127.74324,69.738911 113.15963,91.524571 53.02968,135.534868 27.85445,142.8495 -46.49704,137.91256 -70.48414,127.33355 z"
       inkscape:randomized="0"
       inkscape:rounded="0"
       inkscape:flatsided="false"
       sodipodi:arg2="1.4625661"
       sodipodi:arg1="1.1135002"
       sodipodi:r2="423.80063"
       sodipodi:r1="411.35049"
       sodipodi:cy="292.72748"
       sodipodi:cx="224.25386"
       sodipodi:sides="9"
       id="path3210"
       style="fill:none;stroke:#ff0000;stroke-width:1;stroke-miterlimit:4;stroke-opacity:1;stroke-dasharray:none"
       sodipodi:type="star"
       transform="matrix(0.43615331,0,0,0.43615331,154.7544,154.03329)" />
    <path
       sodipodi:type="star"
       style="fill:none;stroke:#ff0000;stroke-width:1;stroke-miterlimit:4;stroke-opacity:1;stroke-dasharray:none"
       id="path3212"
       sodipodi:sides="9"
       sodipodi:cx="224.25386"
       sodipodi:cy="292.72748"
       sodipodi:r1="411.35049"
       sodipodi:r2="454.14789"
       sodipodi:arg1="1.1135002"
       sodipodi:arg2="1.4625661"
       inkscape:flatsided="false"
       inkscape:rounded="0"
       inkscape:randomized="0"
       d="M 405.87484,661.81154 273.31051,744.21806 126.14094,692.20599 -28.379122,670.12234 -107.68484,535.68 -211.85897,419.43936 -186.19281,265.47383 -191.27678,109.46649 -72.648221,8.0199385 23.736816,-114.75653 l 156.083334,-1.4596 152.75442,-32.09713 120.50498,99.210321 137.6483,73.600821 28.54101,153.458618 58.13503,144.86013 -76.77762,135.90193 -48.58028,148.33777 z"
       inkscape:transform-center-x="0.60258931"
       inkscape:transform-center-y="-0.6025839"
       transform="matrix(0.43615331,0,0,0.43615331,154.7544,154.03329)" />
    <path
       inkscape:transform-center-y="-0.6025839"
       inkscape:transform-center-x="0.60258931"
       d="M 405.87484,661.81154 276.58858,774.38764 126.14094,692.20599 -45.260601,695.34067 -107.68484,535.68 -241.00097,427.90652 -186.19281,265.47383 -219.04343,97.220594 -72.648221,8.0199385 10.337836,-141.98549 179.82015,-116.21613 339.81279,-177.78455 453.07955,-49.102939 615.21643,6.5742043 619.26886,177.9565 707.68435,324.82725 600.62627,458.71856 573.94976,628.06046 z"
       inkscape:randomized="0"
       inkscape:rounded="0"
       inkscape:flatsided="false"
       sodipodi:arg2="1.4625661"
       sodipodi:arg1="1.1135002"
       sodipodi:r2="484.49503"
       sodipodi:r1="411.35049"
       sodipodi:cy="292.72748"
       sodipodi:cx="224.25386"
       sodipodi:sides="9"
       id="path3214"
       style="fill:none;stroke:#ff0000;stroke-width:1;stroke-miterlimit:4;stroke-opacity:1;stroke-dasharray:none"
       sodipodi:type="star"
       transform="matrix(0.43615331,0,0,0.43615331,154.7544,154.03329)" />
    <path
       sodipodi:type="star"
       style="fill:none;stroke:#ff0000;stroke-width:1;stroke-miterlimit:4;stroke-opacity:1;stroke-dasharray:none"
       id="path3216"
       sodipodi:sides="9"
       sodipodi:cx="224.25386"
       sodipodi:cy="292.72748"
       sodipodi:r1="411.35049"
       sodipodi:r2="484.49503"
       sodipodi:arg1="1.1135002"
       sodipodi:arg2="1.4625661"
       inkscape:flatsided="false"
       inkscape:rounded="0"
       inkscape:randomized="0"
       d="M 405.87484,661.81154 276.58855,774.38764 126.14094,692.20599 -45.260621,695.34066 -107.68484,535.68 -241.00098,427.9065 -186.19281,265.47383 -219.04342,97.220572 -72.648221,8.0199385 10.337858,-141.9855 179.82015,-116.21613 339.81281,-177.78454 453.07955,-49.102939 615.21645,6.5742237 619.26886,177.9565 707.68434,324.82727 600.62627,458.71856 573.94974,628.06047 z"
       inkscape:transform-center-x="0.60258931"
       inkscape:transform-center-y="-0.6025839"
       transform="matrix(0.43615331,0,0,0.43615331,154.7544,154.03329)" />
  </g>
</svg>
