<?xml version="1.0" encoding="UTF-8" standalone="no"?>
<!-- Created with Inkscape (http://www.inkscape.org/) -->

<svg
   xmlns:dc="http://purl.org/dc/elements/1.1/"
   xmlns:cc="http://creativecommons.org/ns#"
   xmlns:rdf="http://www.w3.org/1999/02/22-rdf-syntax-ns#"
   xmlns:svg="http://www.w3.org/2000/svg"
   xmlns="http://www.w3.org/2000/svg"
   xmlns:sodipodi="http://sodipodi.sourceforge.net/DTD/sodipodi-0.dtd"
   xmlns:inkscape="http://www.inkscape.org/namespaces/inkscape"
   sodipodi:docname="flower007(g).svg"
   inkscape:version="0.48.2 r9819"
   version="1.1"
   id="svg4064"
   height="2834.6455"
   width="1559.0551">
  <sodipodi:namedview
     id="base"
     pagecolor="#ffffff"
     bordercolor="#666666"
     borderopacity="1.0"
     inkscape:pageopacity="0.0"
     inkscape:pageshadow="2"
     inkscape:zoom="0.16"
     inkscape:cx="-62.680702"
     inkscape:cy="2010.2379"
     inkscape:document-units="px"
     inkscape:current-layer="layer1"
     showgrid="false"
     units="cm"
     inkscape:window-width="933"
     inkscape:window-height="657"
     inkscape:window-x="66"
     inkscape:window-y="66"
     inkscape:window-maximized="0" />
  <defs
     id="defs4066" />
  <metadata
     id="metadata4069">
    <rdf:RDF>
      <cc:Work
         rdf:about="">
        <dc:format>image/svg+xml</dc:format>
        <dc:type
           rdf:resource="http://purl.org/dc/dcmitype/StillImage" />
        <dc:title></dc:title>
      </cc:Work>
    </rdf:RDF>
  </metadata>
  <g
     transform="translate(0,1782.2847)"
     id="layer1"
     inkscape:groupmode="layer"
     inkscape:label="Layer 1">
    <path
       sodipodi:type="star"
       style="fill:none;stroke:#000000;stroke-width:1;stroke-miterlimit:4;stroke-opacity:1;stroke-dasharray:none"
       id="path4505"
       sodipodi:sides="40"
       sodipodi:cx="262.5"
       sodipodi:cy="584.64551"
       sodipodi:r1="555.57013"
       sodipodi:r2="636.72638"
       sodipodi:arg1="0.52359878"
       sodipodi:arg2="0.6021386"
       inkscape:flatsided="false"
       inkscape:rounded="0"
       inkscape:randomized="0"
       d="m 743.63784,862.43057 43.60504,82.86073 -92.9838,-11.01418 30.10592,88.66188 -90.11602,-25.42442 15.86548,92.27992 -85.02928,-39.2087 1.23439,93.6257 -77.84884,-52.0274 -13.4271,92.6661 -68.7515,-63.5652 -27.75797,89.4248 -57.96127,-73.5376 -41.40534,83.9815 -45.74385,-81.6995 -54.03317,76.4704 -32.40006,-87.8495 -65.330535,67.0762 -18.258465,-91.8364 -75.019244,56.0305 -3.667293,-93.562 -82.860728,43.605 11.014182,-92.9838 -88.661907,30.1059 25.42445,-90.11602 -92.27993,15.86549 39.20868,-85.02929 -93.62572,1.2344 52.02747,-77.84884 -92.66613,-13.4271 63.56516,-68.7515 -89.4248,-27.75797 73.53768,-57.96127 -83.98153,-41.40534 81.69945,-45.74385 -76.47036,-54.03317 87.84951,-32.40006 -67.07623,-65.33054 91.83642,-18.25846 -56.03046,-75.01925 93.56202,-3.66729 -43.60504,-82.86073 92.9838,11.01418 -30.10592,-88.6619 90.11602,25.42445 -15.86548,-92.279934 85.029283,39.208684 -1.23439,-93.625722 77.84884,52.027471 13.427097,-92.666136 68.7515,63.565168 27.75797,-89.424801 57.96127,73.537679 41.40534,-83.98153 45.74385,81.699449 54.03317,-76.470357 32.40006,87.849508 65.33053,-67.076229 18.25847,91.83642 75.01924,-56.0304612 3.6673,93.5620112 82.86072,-43.605035 -11.01418,92.983805 88.66191,-30.10592 -25.42445,90.11602 92.27993,-15.86548 -39.20868,85.02928 93.62572,-1.23439 -52.02747,77.84884 92.66613,13.4271 -63.56516,68.7515 89.4248,27.75796 -73.53768,57.96128 83.98153,41.40534 -81.69945,45.74384 76.47036,54.03318 -87.84951,32.40006 67.07623,65.33053 -91.83642,18.25847 56.03046,75.01924 z"
       transform="matrix(0.98045995,-0.19671882,0.19671882,0.98045995,346.20275,-1537.9555)"
       inkscape:transform-center-y="-0.82602467"
       inkscape:transform-center-x="0.16573871" />
    <path
       inkscape:transform-center-y="-0.82602467"
       transform="matrix(0.98045995,-0.19671882,0.19671882,0.98045995,346.20275,-1537.9555)"
       d="m 706.66056,841.08173 80.58232,104.20957 -126.16614,-37.88471 63.28825,115.53241 -118.68635,-57.15499 44.43582,124.01049 -108.28411,-75.018 24.48922,129.435 -95.21556,-91.0337 3.93962,131.6724 -79.80248,-104.808 -16.70699,130.6676 -62.42439,-116.0014 -36.94222,126.4453 -43.50922,-124.3386 -56.2678,119.1095 -23.52271,-129.6141 -74.207887,108.8408 -2.956979,-131.6981 -90.320731,95.8922 17.6815568,-130.5393 -104.2095768,80.5823 37.884713,-126.16615 -115.532436,63.28825 57.15502,-118.68635 -124.0105,44.43581 75.01798,-108.28411 -129.43502,24.48922 91.03375,-95.21555 -131.67242,3.93962 104.80798,-79.80248 -130.66761,-16.70699 116.00147,-62.4244 -126.44532,-36.94221 124.33863,-43.50922 -119.10954,-56.26781 129.61416,-23.5227 -108.84088,-74.20789 131.69815,-2.95698 -95.89219,-90.32073 130.5393,17.68156 -80.58232,-104.20958 126.16614,37.88471 -63.28825,-115.53243 118.686347,57.15502 L -125.11446,79.496505 -16.830347,154.51449 -41.319565,25.079467 53.895989,116.11322 49.956372,-15.559198 129.75885,89.248775 146.46584,-41.41883 208.89023,74.58264 245.83245,-51.862681 289.34167,72.475945 345.60947,-46.633588 369.13218,82.980565 443.34007,-25.860309 446.29705,105.83784 536.61778,9.9456498 518.93622,140.48495 623.1458,59.902626 585.26108,186.06877 700.79352,122.78051 643.6385,241.46687 767.649,197.03105 l -75.01798,108.28411 129.43502,-24.48922 -91.03375,95.21556 131.67242,-3.93962 -104.80798,79.80248 130.66761,16.70699 -116.00147,62.42439 126.44532,36.94222 -124.33863,43.50922 119.10954,56.2678 -129.61416,23.52271 108.84088,74.20788 -131.69815,2.95698 95.89219,90.32073 z"
       inkscape:randomized="0"
       inkscape:rounded="0"
       inkscape:flatsided="false"
       sodipodi:arg2="0.6021386"
       sodipodi:arg1="0.52359878"
       sodipodi:r2="636.72638"
       sodipodi:r1="512.87244"
       sodipodi:cy="584.64551"
       sodipodi:cx="262.5"
       sodipodi:sides="40"
       id="path4507"
       style="fill:none;stroke:#000000;stroke-width:1;stroke-miterlimit:4;stroke-opacity:1;stroke-dasharray:none"
       sodipodi:type="star"
       inkscape:transform-center-x="0.16573871" />
    <path
       sodipodi:type="star"
       style="fill:none;stroke:#000000;stroke-width:1;stroke-miterlimit:4;stroke-opacity:1;stroke-dasharray:none"
       id="path4509"
       sodipodi:sides="20"
       sodipodi:cx="262.5"
       sodipodi:cy="584.64551"
       sodipodi:r1="507.42789"
       sodipodi:r2="528.24194"
       sodipodi:arg1="0.52359878"
       sodipodi:arg2="0.68067841"
       inkscape:flatsided="false"
       inkscape:rounded="0"
       inkscape:randomized="0"
       d="m 701.94544,838.35945 -28.92435,78.71949 -70.98556,44.65898 -51.83435,65.92858 -81.31167,20.5374 -69.67044,46.6841 -83.67841,-5.5943 -80.68671,22.8698 -77.85414,-31.1786 -83.804794,-3.1831 -64.4089614,-53.7109 -78.7194826,-28.9243 -44.658982,-70.98556 -65.92856,-51.83435 -20.53747,-81.31167 -46.6841,-69.67044 5.5944,-83.67842 -22.86987,-80.6867 31.17864,-77.85414 3.18303,-83.8048 53.7109,-64.40896 28.92435,-78.71948 70.985562,-44.65898 51.834348,-65.92856 81.311667,-20.53747 69.670443,-46.684098 83.67841,5.594392 80.68671,-22.869862 77.85414,31.178636 83.80479,3.183032 64.40897,53.7109 78.71948,28.92435 44.65898,70.98556 65.92856,51.83435 20.53747,81.31166 46.6841,69.67044 -5.5944,83.67842 22.86987,80.68671 -31.17864,77.85414 -3.18303,83.80479 z"
       transform="matrix(0.98045995,-0.19671882,0.19671882,0.98045995,346.20275,-1537.9555)"
       inkscape:transform-center-y="-0.82602467"
       inkscape:transform-center-x="0.16573871" />
    <path
       inkscape:transform-center-y="-0.82602467"
       transform="matrix(0.98045995,-0.19671882,0.19671882,0.98045995,346.20275,-1537.9555)"
       d="m 671.11393,820.55887 1.90716,96.52006 -94.80739,18.20217 -28.01252,92.3854 -95.79197,-11.9858 -55.19014,79.2073 -87.39975,-41.0005 -76.96537,58.276 -70.45224,-66.0018 -91.206693,31.6401 -46.608379,-84.54237 -96.520065,1.90717 -18.202161,-94.80739 -92.385382,-28.01252 11.98581,-95.79197 -79.20738,-55.19014 41.00053,-87.39975 -58.276,-76.96537 66.00184,-70.45225 -31.64017,-91.20669 84.54241,-46.60837 -1.90716,-96.52007 94.807391,-18.20216 28.012517,-92.38538 95.791967,11.98581 55.190145,-79.207378 87.39975,41.000528 76.96537,-58.275998 70.45224,66.001828 91.20669,-31.640161 46.60838,84.542411 96.52007,-1.90716 18.20216,94.80739 92.38538,28.01252 -11.98581,95.79196 79.20738,55.19014 -41.00053,87.39976 58.276,76.96537 -66.00184,70.45224 31.64017,91.20669 z"
       inkscape:randomized="0"
       inkscape:rounded="0"
       inkscape:flatsided="false"
       sodipodi:arg2="0.68067841"
       sodipodi:arg1="0.52359878"
       sodipodi:r2="528.24194"
       sodipodi:r1="471.82672"
       sodipodi:cy="584.64551"
       sodipodi:cx="262.5"
       sodipodi:sides="20"
       id="path4511"
       style="fill:none;stroke:#000000;stroke-width:1;stroke-miterlimit:4;stroke-opacity:1;stroke-dasharray:none"
       sodipodi:type="star"
       inkscape:transform-center-x="0.16573871" />
    <path
       sodipodi:type="star"
       style="fill:none;stroke:#000000;stroke-width:1;stroke-miterlimit:4;stroke-opacity:1;stroke-dasharray:none"
       id="path4513"
       sodipodi:sides="20"
       sodipodi:cx="262.5"
       sodipodi:cy="584.64551"
       sodipodi:r1="402.36655"
       sodipodi:r2="528.24194"
       sodipodi:arg1="0.52359878"
       sodipodi:arg2="0.68067841"
       inkscape:flatsided="false"
       inkscape:rounded="0"
       inkscape:randomized="0"
       d="M 610.95965,785.82878 673.02109,917.07893 531.73577,883.66213 550.20118,1027.6665 426.15722,952.22564 399.21907,1094.888 304.55876,984.80785 234.85395,1112.1635 178.84329,978.21938 73.195017,1077.8018 61.316725,933.10516 -69.933427,995.1666 -36.516618,853.88128 -180.52097,872.34669 -105.08013,748.30272 -247.74254,721.36458 -137.66234,626.70426 -265.01801,556.99946 -131.07387,500.9888 -230.65634,395.34052 -85.95965,383.46223 -148.02109,252.21208 -6.73577,285.62889 -25.201182,141.62454 98.842783,217.06538 125.78093,74.402972 220.44124,184.48317 290.14605,57.127502 346.15671,191.07164 451.80498,91.489169 l 11.87829,144.696691 131.25016,-62.06144 -33.41681,141.28532 144.00435,-18.46541 -75.44084,124.04396 142.66241,26.93814 -110.0802,94.66032 127.35567,69.70481 -133.94414,56.01066 99.58247,105.64827 z"
       transform="matrix(0.98045995,-0.19671882,0.19671882,0.98045995,346.20275,-1537.9555)"
       inkscape:transform-center-y="-0.82602467"
       inkscape:transform-center-x="0.16573871" />
    <path
       inkscape:transform-center-y="-0.82602467"
       transform="matrix(0.98045995,-0.19671882,0.19671882,0.98045995,346.20275,-1537.9555)"
       d="M 545.3827,747.96791 673.02109,917.07893 481.06804,827.38991 550.20118,1027.6665 395.35841,883.05039 399.21907,1094.888 296.64368,909.50092 234.85395,1112.1635 194.58672,904.15234 73.195017,1077.8018 99.177596,867.52821 -69.933427,995.1666 19.755602,803.21354 -180.52097,872.34669 -35.904879,717.50392 -247.74254,721.36458 -62.355412,618.78919 -265.01801,556.99946 -57.006833,516.73223 -230.65634,395.34052 -20.382699,421.3231 -148.02109,252.21208 43.931964,341.90111 -25.201182,141.62454 129.64159,286.24063 125.78093,74.402972 228.35632,259.7901 290.14605,57.127502 330.41328,265.13867 451.80498,91.489169 425.8224,301.76281 594.93343,174.12442 505.2444,366.07747 705.52097,296.94433 560.90488,451.7871 l 211.83766,-3.86067 -185.38713,102.5754 202.6626,61.78973 -208.01118,40.26722 173.64951,121.39171 z"
       inkscape:randomized="0"
       inkscape:rounded="0"
       inkscape:flatsided="false"
       sodipodi:arg2="0.68067841"
       sodipodi:arg1="0.52359878"
       sodipodi:r2="528.24194"
       sodipodi:r1="326.64481"
       sodipodi:cy="584.64551"
       sodipodi:cx="262.5"
       sodipodi:sides="20"
       id="path4515"
       style="fill:none;stroke:#000000;stroke-width:1;stroke-miterlimit:4;stroke-opacity:1;stroke-dasharray:none"
       sodipodi:type="star"
       inkscape:transform-center-x="0.16573871" />
    <path
       sodipodi:type="star"
       style="fill:none;stroke:#000000;stroke-width:1;stroke-miterlimit:4;stroke-opacity:1;stroke-dasharray:none"
       id="path4517"
       sodipodi:sides="10"
       sodipodi:cx="262.5"
       sodipodi:cy="584.64551"
       sodipodi:r1="326.64481"
       sodipodi:r2="425.50708"
       sodipodi:arg1="0.52359878"
       sodipodi:arg2="0.83775805"
       inkscape:flatsided="false"
       inkscape:rounded="0"
       inkscape:randomized="0"
       d="m 545.3827,747.96791 1.83711,152.89098 -151.8614,-17.8085 L 306.9776,1007.8216 194.58672,904.15234 49.746458,953.14545 19.755602,803.21354 -126.22006,757.71483 -62.355412,618.78919 -153.70873,496.17761 -20.382699,421.3231 -22.219809,268.43212 129.64159,286.24063 218.0224,161.4694 l 112.39088,103.66927 144.84026,-48.9931 29.99086,149.9319 145.97566,45.49872 -63.86465,138.92564 91.35332,122.61158 z"
       transform="matrix(0.98045995,-0.19671882,0.19671882,0.98045995,346.20275,-1537.9555)"
       inkscape:transform-center-y="-0.82602467"
       inkscape:transform-center-x="0.16573871" />
    <path
       inkscape:transform-center-y="-0.82602467"
       transform="matrix(0.98045995,-0.19671882,0.19671882,0.98045995,346.20275,-1537.9555)"
       d="m 545.3827,747.96791 -63.36249,80.47949 -86.6618,54.60299 -98.56599,27.86574 -102.2057,-6.76379 -96.120626,-35.39178 -78.710492,-65.54702 -56.96046,-85.13083 -25.150554,-99.29352 3.956671,-102.35282 38.016042,-95.11327 63.362487,-80.47949 86.661802,-54.60298 98.56599,-27.86574 102.2057,6.76378 96.12063,35.39178 78.71049,65.54702 56.96046,85.13084 25.15055,99.29352 -3.95667,102.35281 z"
       inkscape:randomized="0"
       inkscape:rounded="0"
       inkscape:flatsided="false"
       sodipodi:arg2="0.83775805"
       sodipodi:arg1="0.52359878"
       sodipodi:r2="328.06781"
       sodipodi:r1="326.64481"
       sodipodi:cy="584.64551"
       sodipodi:cx="262.5"
       sodipodi:sides="10"
       id="path4519"
       style="fill:none;stroke:#000000;stroke-width:1;stroke-miterlimit:4;stroke-opacity:1;stroke-dasharray:none"
       sodipodi:type="star"
       inkscape:transform-center-x="0.16573871" />
    <path
       sodipodi:type="star"
       style="fill:none;stroke:#000000;stroke-width:1;stroke-miterlimit:4;stroke-opacity:1;stroke-dasharray:none"
       id="path4521"
       sodipodi:sides="10"
       sodipodi:cx="262.5"
       sodipodi:cy="584.64551"
       sodipodi:r1="326.64481"
       sodipodi:r2="238.57594"
       sodipodi:arg1="0.52359878"
       sodipodi:arg2="0.83775805"
       inkscape:flatsided="false"
       inkscape:rounded="0"
       inkscape:randomized="0"
       d="M 545.3827,747.96791 422.13846,761.94199 395.35841,883.05039 287.43798,821.91451 194.58672,904.15234 143.21203,791.25833 19.755602,803.21354 44.550031,681.68309 -62.355412,618.78919 29.137514,535.04278 -20.382699,421.3231 102.86154,407.34903 l 26.78005,-121.1084 107.92043,61.13588 92.85126,-82.23784 51.37469,112.89401 123.45643,-11.95521 -24.79443,121.53046 106.90544,62.8939 -91.49292,83.74641 z"
       transform="matrix(0.98045995,-0.19671882,0.19671882,0.98045995,346.20275,-1537.9555)"
       inkscape:transform-center-y="-0.82602467"
       inkscape:transform-center-x="0.16573871" />
    <path
       inkscape:transform-center-y="-0.82602467"
       transform="matrix(0.98045995,-0.19671882,0.19671882,0.98045995,346.20275,-1537.9555)"
       d="M 545.3827,747.96791 385.61538,721.37899 395.35841,883.05039 281.73251,767.63062 194.58672,904.15234 170.50348,743.98816 19.755602,803.21354 94.413992,659.48222 -62.355412,618.78919 82.527648,546.3912 -20.382699,421.3231 l 159.767319,26.58893 -9.74303,-161.6714 113.6259,115.41977 87.14579,-136.52173 24.08324,160.16419 150.74788,-59.22539 -74.65839,143.73133 156.7694,40.69303 -144.88306,72.39798 z"
       inkscape:randomized="0"
       inkscape:rounded="0"
       inkscape:flatsided="false"
       sodipodi:arg2="0.83775805"
       sodipodi:arg1="0.52359878"
       sodipodi:r2="183.99304"
       sodipodi:r1="326.64481"
       sodipodi:cy="584.64551"
       sodipodi:cx="262.5"
       sodipodi:sides="10"
       id="path4523"
       style="fill:none;stroke:#000000;stroke-width:1;stroke-miterlimit:4;stroke-opacity:1;stroke-dasharray:none"
       sodipodi:type="star"
       inkscape:transform-center-x="0.16573871" />
    <path
       sodipodi:type="star"
       style="fill:none;stroke:#000000;stroke-width:1;stroke-miterlimit:4;stroke-opacity:1;stroke-dasharray:none"
       id="path4525"
       sodipodi:sides="10"
       sodipodi:cx="262.5"
       sodipodi:cy="584.64551"
       sodipodi:r1="326.64481"
       sodipodi:r2="89.696617"
       sodipodi:arg1="0.52359878"
       sodipodi:arg2="0.83775805"
       inkscape:flatsided="false"
       inkscape:rounded="0"
       inkscape:randomized="0"
       d="M 545.3827,747.96791 322.51875,651.30308 395.35841,883.05039 271.87585,673.85076 194.58672,904.15234 217.65169,662.32506 19.755602,803.21354 180.55806,621.12841 -62.355412,618.78919 174.76347,565.99653 -20.382699,421.3231 202.48125,517.98793 129.64159,286.24063 253.12415,495.44026 330.41328,265.13867 307.34831,506.96596 505.2444,366.07747 344.44194,548.16261 l 242.91347,2.33922 -237.11888,52.79265 z"
       transform="matrix(0.98045995,-0.19671882,0.19671882,0.98045995,346.20275,-1537.9555)"
       inkscape:transform-center-y="-0.82602467"
       inkscape:transform-center-x="0.16573871" />
    <path
       inkscape:transform-center-y="-0.82602467"
       transform="matrix(0.98045995,-0.19671882,0.19671882,0.98045995,346.20275,-1537.9555)"
       d="m 392.57991,659.74718 -70.06116,-8.44409 1.07445,70.56 -51.71735,-48.01233 -40.60488,57.71578 -13.61928,-69.24148 -66.77452,22.8261 29.68089,-64.02275 -67.43857,-20.78238 61.64398,-34.3495 -42.34338,-56.45269 70.06116,8.44409 -1.07445,-70.56 51.71735,48.01233 40.60488,-57.71579 13.61928,69.24149 66.77452,-22.8261 -29.68089,64.02275 67.43857,20.78237 -61.64398,34.3495 z"
       inkscape:randomized="0"
       inkscape:rounded="0"
       inkscape:flatsided="false"
       sodipodi:arg2="0.83775805"
       sodipodi:arg1="0.52359878"
       sodipodi:r2="89.696617"
       sodipodi:r1="150.20334"
       sodipodi:cy="584.64551"
       sodipodi:cx="262.5"
       sodipodi:sides="10"
       id="path4527"
       style="fill:none;stroke:#000000;stroke-width:1;stroke-miterlimit:4;stroke-opacity:1;stroke-dasharray:none"
       sodipodi:type="star"
       inkscape:transform-center-x="0.16573871" />
    <path
       inkscape:transform-center-y="-4.4965051"
       transform="matrix(0.98045995,-0.19671882,0.19671882,0.98045995,346.20275,-1537.9555)"
       d="m 295.74651,603.84039 -2.0254,50.92888 -39.20279,-32.57291 -49.06213,13.81162 18.86435,-47.34965 -28.29666,-42.39283 50.8616,3.30922 31.57383,-40.01184 12.56984,49.39487 47.81037,17.66415 z"
       inkscape:randomized="0"
       inkscape:rounded="0"
       inkscape:flatsided="false"
       sodipodi:arg2="1.1519173"
       sodipodi:arg1="0.52359878"
       sodipodi:r2="76.760017"
       sodipodi:r1="38.389759"
       sodipodi:cy="584.64551"
       sodipodi:cx="262.5"
       sodipodi:sides="5"
       id="path4531"
       style="fill:none;stroke:#000000;stroke-width:1;stroke-miterlimit:4;stroke-opacity:1;stroke-dasharray:none"
       sodipodi:type="star"
       inkscape:transform-center-x="4.2422202" />
    <path
       inkscape:transform-center-x="4.2422202"
       sodipodi:type="star"
       style="fill:none;stroke:#000000;stroke-width:1;stroke-miterlimit:4;stroke-opacity:1;stroke-dasharray:none"
       id="path4587"
       sodipodi:sides="5"
       sodipodi:cx="262.5"
       sodipodi:cy="584.64551"
       sodipodi:r1="39.105167"
       sodipodi:r2="18.165314"
       sodipodi:arg1="0.52359878"
       sodipodi:arg2="1.1519173"
       inkscape:flatsided="false"
       inkscape:rounded="0"
       inkscape:randomized="0"
       d="m 296.36607,604.19809 -26.47757,-2.95774 -15.51892,21.65578 -5.36904,-26.09565 -25.39149,-8.06737 23.15933,-13.17026 -0.17388,-26.64169 19.68228,17.95599 25.28402,-8.39811 -10.995,24.26768 z"
       transform="matrix(0.98045995,-0.19671882,0.19671882,0.98045995,346.20275,-1537.9555)"
       inkscape:transform-center-y="-4.4965051" />
    <path
       inkscape:transform-center-x="0.16573871"
       sodipodi:type="star"
       style="fill:none;stroke:#000000;stroke-width:1;stroke-miterlimit:4;stroke-opacity:1;stroke-dasharray:none"
       id="path4595"
       sodipodi:sides="10"
       sodipodi:cx="262.5"
       sodipodi:cy="584.64551"
       sodipodi:r1="150.20334"
       sodipodi:r2="65.678177"
       sodipodi:arg1="0.52359878"
       sodipodi:arg2="0.83775805"
       inkscape:flatsided="false"
       inkscape:rounded="0"
       inkscape:randomized="0"
       d="m 392.57991,659.74718 -86.13263,-26.29327 17.14592,88.40918 -54.22796,-71.8992 -38.09427,81.60265 -1.61006,-90.04206 -78.78374,43.62668 51.62283,-73.79193 -89.38051,-11.0132 85.13756,-29.35578 -65.83696,-61.44641 86.13263,26.29327 -17.14592,-88.40918 54.22796,71.89919 38.09427,-81.60265 1.61006,90.04207 78.78374,-43.62668 -51.62283,73.79193 89.38051,11.01319 -85.13756,29.35579 z"
       transform="matrix(0.98045995,-0.19671882,0.19671882,0.98045995,346.20275,-1537.9555)"
       inkscape:transform-center-y="-0.82602467" />
    <path
       inkscape:transform-center-y="-0.82602467"
       transform="matrix(0.98045995,-0.19671882,0.19671882,0.98045995,346.20275,-1537.9555)"
       d="m 344.42897,631.94722 -37.98169,1.50669 -5.4686,37.61613 -31.61344,-21.10615 -26.5344,27.21773 -13.16993,-35.65714 -37.46496,6.42307 10.30405,-36.58832 -34.08518,-16.82497 29.84223,-23.54401 -17.68602,-33.64645 37.98169,-1.50669 5.4686,-37.61613 31.61344,21.10614 26.5344,-27.21772 13.16993,35.65714 37.46496,-6.42308 -10.30405,36.58833 34.08518,16.82497 -29.84223,23.54401 z"
       inkscape:randomized="0"
       inkscape:rounded="0"
       inkscape:flatsided="false"
       sodipodi:arg2="0.83775805"
       sodipodi:arg1="0.52359878"
       sodipodi:r2="65.678177"
       sodipodi:r1="94.603424"
       sodipodi:cy="584.64551"
       sodipodi:cx="262.5"
       sodipodi:sides="10"
       id="path4597"
       style="fill:none;stroke:#000000;stroke-width:1;stroke-miterlimit:4;stroke-opacity:1;stroke-dasharray:none"
       sodipodi:type="star"
       inkscape:transform-center-x="0.16573871" />
  </g>
  <path
     inkscape:connector-curvature="0"
     style="fill:none;stroke:#000000"
     d=""
     id="path5251" />
  <path
     inkscape:connector-curvature="0"
     style="fill:none;stroke:#000000"
     d=""
     id="path5267" />
  <path
     inkscape:connector-curvature="0"
     style="fill:none;stroke:#000000"
     d=""
     id="path5279" />
  <path
     inkscape:connector-curvature="0"
     style="fill:none;stroke:#000000"
     d=""
     id="path5289" />
  <path
     inkscape:connector-curvature="0"
     style="fill:none;stroke:#000000"
     d=""
     id="path5297" />
  <path
     inkscape:connector-curvature="0"
     style="fill:none;stroke:#000000"
     d=""
     id="path5317" />
  <path
     inkscape:connector-curvature="0"
     style="fill:none;stroke:#000000"
     d=""
     id="path5325" />
  <path
     inkscape:connector-curvature="0"
     style="fill:none;stroke:#000000"
     d=""
     id="path5345" />
  <path
     inkscape:connector-curvature="0"
     style="fill:none;stroke:#000000"
     d=""
     id="path5353" />
  <path
     inkscape:connector-curvature="0"
     style="fill:none;stroke:#000000"
     d=""
     id="path5361" />
  <path
     inkscape:connector-curvature="0"
     style="fill:none;stroke:#000000"
     d=""
     id="path5373" />
  <path
     id="path6133"
     d=""
     style="fill:none;stroke:#000000"
     inkscape:connector-curvature="0" />
  <path
     id="path6141"
     d=""
     style="fill:none;stroke:#000000"
     inkscape:connector-curvature="0" />
  <path
     id="path6149"
     d=""
     style="fill:none;stroke:#000000"
     inkscape:connector-curvature="0" />
  <path
     id="path6155"
     d=""
     style="fill:none;stroke:#000000"
     inkscape:connector-curvature="0" />
  <path
     id="path6163"
     d=""
     style="fill:none;stroke:#000000"
     inkscape:connector-curvature="0" />
  <path
     id="path6169"
     d=""
     style="fill:none;stroke:#000000"
     inkscape:connector-curvature="0" />
  <path
     id="path6185"
     d=""
     style="fill:none;stroke:#000000"
     inkscape:connector-curvature="0" />
  <path
     id="path6197"
     d=""
     style="fill:none;stroke:#000000"
     inkscape:connector-curvature="0" />
  <path
     id="path6203"
     d=""
     style="fill:none;stroke:#000000"
     inkscape:connector-curvature="0" />
  <path
     id="path6211"
     d=""
     style="fill:none;stroke:#000000"
     inkscape:connector-curvature="0" />
  <path
     id="path6227"
     d=""
     style="fill:none;stroke:#000000"
     inkscape:connector-curvature="0" />
  <path
     id="path6233"
     d=""
     style="fill:none;stroke:#000000"
     inkscape:connector-curvature="0" />
  <path
     id="path6243"
     d=""
     style="fill:none;stroke:#000000"
     inkscape:connector-curvature="0" />
  <path
     id="path6253"
     d=""
     style="fill:none;stroke:#000000"
     inkscape:connector-curvature="0" />
  <path
     id="path6263"
     d=""
     style="fill:none;stroke:#000000"
     inkscape:connector-curvature="0" />
  <path
     id="path6279"
     d=""
     style="fill:none;stroke:#000000"
     inkscape:connector-curvature="0" />
  <path
     id="path6297"
     d=""
     style="fill:none;stroke:#000000"
     inkscape:connector-curvature="0" />
  <path
     id="path6305"
     d=""
     style="fill:none;stroke:#000000"
     inkscape:connector-curvature="0" />
  <path
     id="path6313"
     d=""
     style="fill:none;stroke:#000000"
     inkscape:connector-curvature="0" />
  <path
     id="path6319"
     d=""
     style="fill:none;stroke:#000000"
     inkscape:connector-curvature="0" />
  <path
     id="path6331"
     d=""
     style="fill:none;stroke:#000000"
     inkscape:connector-curvature="0" />
  <path
     id="path6345"
     d=""
     style="fill:none;stroke:#000000"
     inkscape:connector-curvature="0" />
  <path
     id="path6355"
     d=""
     style="fill:none;stroke:#000000"
     inkscape:connector-curvature="0" />
  <path
     id="path6361"
     d=""
     style="fill:none;stroke:#000000"
     inkscape:connector-curvature="0" />
  <path
     id="path6377"
     d=""
     style="fill:none;stroke:#000000"
     inkscape:connector-curvature="0" />
  <path
     id="path6387"
     d=""
     style="fill:none;stroke:#000000"
     inkscape:connector-curvature="0" />
  <path
     id="path6403"
     d=""
     style="fill:none;stroke:#000000"
     inkscape:connector-curvature="0" />
  <path
     id="path20420"
     d=""
     style="fill:none;stroke:#000000"
     inkscape:connector-curvature="0" />
  <path
     id="path20430"
     d=""
     style="fill:none;stroke:#000000"
     inkscape:connector-curvature="0" />
  <path
     id="path20452"
     d=""
     style="fill:none;stroke:#000000"
     inkscape:connector-curvature="0" />
  <path
     id="path20460"
     d=""
     style="fill:none;stroke:#000000"
     inkscape:connector-curvature="0" />
  <path
     inkscape:connector-curvature="0"
     style="fill:none;stroke:#000000"
     d=""
     id="path21091" />
  <path
     inkscape:connector-curvature="0"
     style="fill:none;stroke:#000000"
     d=""
     id="path21099" />
  <path
     inkscape:connector-curvature="0"
     style="fill:none;stroke:#000000"
     d=""
     id="path21113" />
  <path
     inkscape:connector-curvature="0"
     style="fill:none;stroke:#000000"
     d=""
     id="path21119" />
  <path
     inkscape:connector-curvature="0"
     style="fill:none;stroke:#000000"
     d=""
     id="path21123" />
  <path
     inkscape:connector-curvature="0"
     style="fill:none;stroke:#000000"
     d=""
     id="path21139" />
  <path
     inkscape:connector-curvature="0"
     style="fill:none;stroke:#000000"
     d=""
     id="path21151" />
  <path
     inkscape:connector-curvature="0"
     style="fill:none;stroke:#000000"
     d=""
     id="path21159" />
  <path
     inkscape:connector-curvature="0"
     style="fill:none;stroke:#000000"
     d=""
     id="path21169" />
  <path
     inkscape:connector-curvature="0"
     style="fill:none;stroke:#000000"
     d=""
     id="path21177" />
  <path
     inkscape:connector-curvature="0"
     style="fill:none;stroke:#000000"
     d=""
     id="path21185" />
  <path
     inkscape:connector-curvature="0"
     style="fill:none;stroke:#000000"
     d=""
     id="path21193" />
  <path
     inkscape:connector-curvature="0"
     style="fill:none;stroke:#000000"
     d=""
     id="path21205" />
  <path
     inkscape:connector-curvature="0"
     style="fill:none;stroke:#000000"
     d=""
     id="path21213" />
  <path
     inkscape:connector-curvature="0"
     style="fill:none;stroke:#000000"
     d=""
     id="path21227" />
  <path
     inkscape:connector-curvature="0"
     style="fill:none;stroke:#000000"
     d=""
     id="path21235" />
  <path
     inkscape:connector-curvature="0"
     style="fill:none;stroke:#000000"
     d=""
     id="path21251" />
  <path
     inkscape:connector-curvature="0"
     style="fill:none;stroke:#000000"
     d=""
     id="path21257" />
  <path
     inkscape:connector-curvature="0"
     style="fill:none;stroke:#000000"
     d=""
     id="path21265" />
  <path
     inkscape:connector-curvature="0"
     style="fill:none;stroke:#000000"
     d=""
     id="path21277" />
  <path
     inkscape:connector-curvature="0"
     style="fill:none;stroke:#000000"
     d=""
     id="path21285" />
  <path
     inkscape:connector-curvature="0"
     style="fill:none;stroke:#000000"
     d=""
     id="path21295" />
  <path
     inkscape:connector-curvature="0"
     style="fill:none;stroke:#000000"
     d=""
     id="path21303" />
  <path
     inkscape:connector-curvature="0"
     style="fill:none;stroke:#000000"
     d=""
     id="path21317" />
  <path
     inkscape:connector-curvature="0"
     style="fill:none;stroke:#000000"
     d=""
     id="path21339" />
  <path
     inkscape:connector-curvature="0"
     style="fill:none;stroke:#000000"
     d=""
     id="path21345" />
  <path
     inkscape:connector-curvature="0"
     style="fill:none;stroke:#000000"
     d=""
     id="path21349" />
  <path
     inkscape:connector-curvature="0"
     style="fill:none;stroke:#000000"
     d=""
     id="path21359" />
  <path
     inkscape:connector-curvature="0"
     style="fill:none;stroke:#000000"
     d=""
     id="path21371" />
  <path
     inkscape:connector-curvature="0"
     style="fill:none;stroke:#000000"
     d=""
     id="path21381" />
  <path
     inkscape:connector-curvature="0"
     style="fill:none;stroke:#000000"
     d=""
     id="path21391" />
  <path
     inkscape:connector-curvature="0"
     style="fill:none;stroke:#000000"
     d=""
     id="path21411" />
  <path
     inkscape:connector-curvature="0"
     style="fill:none;stroke:#000000"
     d=""
     id="path21419" />
  <path
     inkscape:connector-curvature="0"
     style="fill:none;stroke:#000000"
     d=""
     id="path21437" />
  <path
     inkscape:connector-curvature="0"
     style="fill:none;stroke:#000000"
     d=""
     id="path21445" />
  <path
     inkscape:connector-curvature="0"
     style="fill:none;stroke:#000000"
     d=""
     id="path21457" />
  <path
     inkscape:connector-curvature="0"
     style="fill:none;stroke:#000000"
     d=""
     id="path21465" />
  <path
     inkscape:connector-curvature="0"
     style="fill:none;stroke:#000000"
     d=""
     id="path21485" />
  <path
     inkscape:connector-curvature="0"
     style="fill:none;stroke:#000000"
     d=""
     id="path21493" />
  <path
     inkscape:connector-curvature="0"
     style="fill:none;stroke:#000000"
     d=""
     id="path21509" />
  <path
     inkscape:connector-curvature="0"
     style="fill:none;stroke:#000000"
     d=""
     id="path21515" />
  <path
     inkscape:connector-curvature="0"
     style="fill:none;stroke:#000000"
     d=""
     id="path21523" />
  <path
     inkscape:connector-curvature="0"
     style="fill:none;stroke:#000000"
     d=""
     id="path21533" />
  <path
     inkscape:connector-curvature="0"
     style="fill:none;stroke:#000000"
     d=""
     id="path21539" />
  <path
     inkscape:connector-curvature="0"
     style="fill:none;stroke:#000000"
     d=""
     id="path21543" />
  <path
     inkscape:connector-curvature="0"
     style="fill:none;stroke:#000000"
     d=""
     id="path21563" />
  <path
     inkscape:connector-curvature="0"
     style="fill:none;stroke:#000000"
     d=""
     id="path21579" />
  <path
     inkscape:connector-curvature="0"
     style="fill:none;stroke:#000000"
     d=""
     id="path21605" />
  <path
     inkscape:connector-curvature="0"
     style="fill:none;stroke:#000000"
     d=""
     id="path21615" />
  <path
     inkscape:connector-curvature="0"
     style="fill:none;stroke:#000000"
     d=""
     id="path21623" />
  <path
     inkscape:connector-curvature="0"
     style="fill:none;stroke:#000000"
     d=""
     id="path21635" />
  <path
     inkscape:connector-curvature="0"
     style="fill:none;stroke:#000000"
     d=""
     id="path21643" />
  <path
     inkscape:connector-curvature="0"
     style="fill:none;stroke:#000000"
     d=""
     id="path21651" />
  <path
     inkscape:connector-curvature="0"
     style="fill:none;stroke:#000000"
     d=""
     id="path21665" />
  <path
     inkscape:connector-curvature="0"
     style="fill:none;stroke:#000000"
     d=""
     id="path21679" />
  <path
     inkscape:connector-curvature="0"
     style="fill:none;stroke:#000000"
     d=""
     id="path21691" />
  <path
     inkscape:connector-curvature="0"
     style="fill:none;stroke:#000000"
     d=""
     id="path21699" />
  <path
     inkscape:connector-curvature="0"
     style="fill:none;stroke:#000000"
     d=""
     id="path21711" />
  <path
     inkscape:connector-curvature="0"
     style="fill:none;stroke:#000000"
     d=""
     id="path21717" />
  <path
     inkscape:connector-curvature="0"
     style="fill:none;stroke:#000000"
     d=""
     id="path21725" />
  <path
     inkscape:connector-curvature="0"
     style="fill:none;stroke:#000000"
     d=""
     id="path21741" />
  <path
     inkscape:connector-curvature="0"
     style="fill:none;stroke:#000000"
     d=""
     id="path21753" />
  <path
     inkscape:connector-curvature="0"
     style="fill:none;stroke:#000000"
     d=""
     id="path21769" />
  <path
     inkscape:connector-curvature="0"
     style="fill:none;stroke:#000000"
     d=""
     id="path21783" />
  <path
     inkscape:connector-curvature="0"
     style="fill:none;stroke:#000000"
     d=""
     id="path21799" />
  <path
     inkscape:connector-curvature="0"
     style="fill:none;stroke:#000000"
     d=""
     id="path21815" />
  <path
     inkscape:connector-curvature="0"
     style="fill:none;stroke:#000000"
     d=""
     id="path21823" />
  <path
     inkscape:connector-curvature="0"
     style="fill:none;stroke:#000000"
     d=""
     id="path21833" />
  <path
     inkscape:connector-curvature="0"
     style="fill:none;stroke:#000000"
     d=""
     id="path21843" />
  <path
     inkscape:connector-curvature="0"
     style="fill:none;stroke:#000000"
     d=""
     id="path21857" />
  <path
     inkscape:connector-curvature="0"
     style="fill:none;stroke:#000000"
     d=""
     id="path21871" />
  <path
     inkscape:connector-curvature="0"
     style="fill:none;stroke:#000000"
     d=""
     id="path21877" />
  <path
     inkscape:connector-curvature="0"
     style="fill:none;stroke:#000000"
     d=""
     id="path21885" />
  <path
     inkscape:connector-curvature="0"
     style="fill:none;stroke:#000000"
     d=""
     id="path21897" />
  <path
     inkscape:connector-curvature="0"
     style="fill:none;stroke:#000000"
     d=""
     id="path21907" />
  <path
     inkscape:connector-curvature="0"
     style="fill:none;stroke:#000000"
     d=""
     id="path21915" />
  <path
     inkscape:connector-curvature="0"
     style="fill:none;stroke:#000000"
     d=""
     id="path21923" />
  <path
     inkscape:connector-curvature="0"
     style="fill:none;stroke:#000000"
     d=""
     id="path21939" />
  <path
     inkscape:connector-curvature="0"
     style="fill:none;stroke:#000000"
     d=""
     id="path21947" />
  <path
     inkscape:connector-curvature="0"
     style="fill:none;stroke:#000000"
     d=""
     id="path21957" />
  <path
     inkscape:connector-curvature="0"
     style="fill:none;stroke:#000000"
     d=""
     id="path21967" />
  <path
     inkscape:connector-curvature="0"
     style="fill:none;stroke:#000000"
     d=""
     id="path21975" />
  <path
     inkscape:connector-curvature="0"
     style="fill:none;stroke:#000000"
     d=""
     id="path21985" />
  <path
     inkscape:connector-curvature="0"
     style="fill:none;stroke:#000000"
     d=""
     id="path21995" />
  <path
     inkscape:connector-curvature="0"
     style="fill:none;stroke:#000000"
     d=""
     id="path22007" />
  <path
     inkscape:connector-curvature="0"
     style="fill:none;stroke:#000000"
     d=""
     id="path22023" />
  <path
     inkscape:connector-curvature="0"
     style="fill:none;stroke:#000000"
     d=""
     id="path22033" />
  <path
     inkscape:connector-curvature="0"
     style="fill:none;stroke:#000000"
     d=""
     id="path22051" />
  <path
     inkscape:connector-curvature="0"
     style="fill:none;stroke:#000000"
     d=""
     id="path22061" />
  <path
     inkscape:connector-curvature="0"
     style="fill:none;stroke:#000000"
     d=""
     id="path22077" />
  <path
     inkscape:connector-curvature="0"
     style="fill:none;stroke:#000000"
     d=""
     id="path22091" />
  <path
     inkscape:connector-curvature="0"
     style="fill:none;stroke:#000000"
     d=""
     id="path22097" />
  <path
     inkscape:connector-curvature="0"
     style="fill:none;stroke:#000000"
     d=""
     id="path22105" />
  <path
     inkscape:connector-curvature="0"
     style="fill:none;stroke:#000000"
     d=""
     id="path22123" />
  <path
     inkscape:connector-curvature="0"
     style="fill:none;stroke:#000000"
     d=""
     id="path22141" />
  <path
     inkscape:connector-curvature="0"
     style="fill:none;stroke:#000000"
     d=""
     id="path22149" />
  <path
     inkscape:connector-curvature="0"
     style="fill:none;stroke:#000000"
     d=""
     id="path22155" />
  <path
     inkscape:connector-curvature="0"
     style="fill:none;stroke:#000000"
     d=""
     id="path22163" />
  <path
     inkscape:connector-curvature="0"
     style="fill:none;stroke:#000000"
     d=""
     id="path22177" />
  <path
     inkscape:connector-curvature="0"
     style="fill:none;stroke:#000000"
     d=""
     id="path22183" />
  <path
     inkscape:connector-curvature="0"
     style="fill:none;stroke:#000000"
     d=""
     id="path22199" />
  <path
     inkscape:connector-curvature="0"
     style="fill:none;stroke:#000000"
     d=""
     id="path22209" />
  <path
     inkscape:connector-curvature="0"
     style="fill:none;stroke:#000000"
     d=""
     id="path22213" />
  <path
     inkscape:connector-curvature="0"
     style="fill:none;stroke:#000000"
     d=""
     id="path22221" />
  <path
     inkscape:connector-curvature="0"
     style="fill:none;stroke:#000000"
     d=""
     id="path22231" />
  <path
     inkscape:connector-curvature="0"
     style="fill:none;stroke:#000000"
     d=""
     id="path22237" />
  <path
     inkscape:connector-curvature="0"
     style="fill:none;stroke:#000000"
     d=""
     id="path22251" />
  <path
     inkscape:connector-curvature="0"
     style="fill:none;stroke:#000000"
     d=""
     id="path22261" />
  <path
     inkscape:connector-curvature="0"
     style="fill:none;stroke:#000000"
     d=""
     id="path22269" />
  <path
     inkscape:connector-curvature="0"
     style="fill:none;stroke:#000000"
     d=""
     id="path22279" />
  <path
     inkscape:connector-curvature="0"
     style="fill:none;stroke:#000000"
     d=""
     id="path22303" />
  <path
     inkscape:connector-curvature="0"
     style="fill:none;stroke:#000000"
     d=""
     id="path22313" />
  <path
     inkscape:connector-curvature="0"
     style="fill:none;stroke:#000000"
     d=""
     id="path22333" />
  <path
     inkscape:connector-curvature="0"
     style="fill:none;stroke:#000000"
     d=""
     id="path22341" />
  <path
     inkscape:connector-curvature="0"
     style="fill:none;stroke:#000000"
     d=""
     id="path22351" />
  <path
     inkscape:connector-curvature="0"
     style="fill:none;stroke:#000000"
     d=""
     id="path22367" />
  <path
     inkscape:connector-curvature="0"
     style="fill:none;stroke:#000000"
     d=""
     id="path22377" />
  <path
     inkscape:connector-curvature="0"
     style="fill:none;stroke:#000000"
     d=""
     id="path22389" />
  <path
     inkscape:connector-curvature="0"
     style="fill:none;stroke:#000000"
     d=""
     id="path22397" />
  <path
     inkscape:connector-curvature="0"
     style="fill:none;stroke:#000000"
     d=""
     id="path22407" />
  <path
     inkscape:connector-curvature="0"
     style="fill:none;stroke:#000000"
     d=""
     id="path22415" />
</svg>
