<?xml version="1.0" encoding="UTF-8" standalone="no"?>
<!-- Created with Inkscape (http://www.inkscape.org/) -->

<svg
   xmlns:dc="http://purl.org/dc/elements/1.1/"
   xmlns:cc="http://creativecommons.org/ns#"
   xmlns:rdf="http://www.w3.org/1999/02/22-rdf-syntax-ns#"
   xmlns:svg="http://www.w3.org/2000/svg"
   xmlns="http://www.w3.org/2000/svg"
   xmlns:sodipodi="http://sodipodi.sourceforge.net/DTD/sodipodi-0.dtd"
   xmlns:inkscape="http://www.inkscape.org/namespaces/inkscape"
   sodipodi:docname="C:\DOCUME~1\Owner\LOCALS~1\Temp\ink_ext_XXXXXX.svg7MH3HW"
   inkscape:version="0.48.2 r9819"
   version="1.1"
   id="svg3783"
   height="1052.3622047"
   width="744.09448819">
  <sodipodi:namedview
     id="base"
     pagecolor="#ffffff"
     bordercolor="#666666"
     borderopacity="1.0"
     inkscape:pageopacity="0.0"
     inkscape:pageshadow="2"
     inkscape:zoom="0.49497475"
     inkscape:cx="158.29721"
     inkscape:cy="634.00898"
     inkscape:document-units="px"
     inkscape:current-layer="layer1"
     showgrid="false"
     inkscape:window-width="1084"
     inkscape:window-height="748"
     inkscape:window-x="123"
     inkscape:window-y="28"
     inkscape:window-maximized="0" />
  <defs
     id="defs3785" />
  <metadata
     id="metadata3788">
    <rdf:RDF>
      <cc:Work
         rdf:about="">
        <dc:format>image/svg+xml</dc:format>
        <dc:type
           rdf:resource="http://purl.org/dc/dcmitype/StillImage" />
        <dc:title />
      </cc:Work>
    </rdf:RDF>
  </metadata>
  <g
     id="layer1"
     inkscape:groupmode="layer"
     inkscape:label="Layer 1">
    <rect
       y="12.284647"
       x="7.8454075"
       height="779.49591"
       width="516.12524"
       id="rect4319"
       style="fill:none;stroke:#000000;stroke-width:0.91610378;stroke-opacity:1" />
    <flowRoot
       style="fill:black;stroke:none;stroke-opacity:1;stroke-width:1px;stroke-linejoin:miter;stroke-linecap:butt;fill-opacity:1;font-family:Sans;font-style:normal;font-weight:normal;font-size:40px;line-height:125%;letter-spacing:0px;word-spacing:0px"
       id="flowRoot3475"
       xml:space="preserve"><flowRegion
         id="flowRegion3477"><rect
           y="840.23016"
           x="40.406101"
           height="76.771591"
           width="474.7717"
           id="rect3479" /></flowRegion><flowPara
         id="flowPara3481" /></flowRoot>    <path
       id="path3950"
       d="M98.1625098017 370.308390509C98.1030484676 370.340839649 98.1920461438 370.287424071 98.2209962314 370.270677305C98.3847564767 370.17697242 98.496299512 370.123200758 98.4947429547 370.129396395C98.4909599695 370.144645063 98.1424378961 370.346524625 97.8627402603 370.502999606C97.3688076231 370.78317099 97.1234329524 370.903269454 97.2274638895 370.823710004C97.3867130584 370.702496343 98.1639677417 370.245904423 98.8167598032 369.890804035C99.7385718299 369.403922126 100.165967408 369.221528983 99.8924782548 369.400746182C99.5321463567 369.639832055 98.2073841459 370.388062267 97.0985804295 371.008043179C95.6874154035 371.834266833 95.0445725434 372.165231322 95.5230069344 371.810155844C96.1257737337 371.371461924 98.1026369699 370.186646233 99.7515404485 369.310677487C101.757691344 368.317020756 102.643449232 367.984220604 101.892758373 368.424682564C101.018025352 368.953925871 98.3183986179 370.433981457 96.0834204091 371.700296237C93.494295673 373.30079364 92.3392985013 373.950876059 93.3343382591 373.168291218C94.5156573843 372.273961399 98.0344224555 370.106175817 100.945112103 368.597429164C104.291913082 367.063873544 105.730928537 366.603639948 104.357264501 367.326272162C102.847942666 368.165996257 98.4774859564 370.47675693 94.8864958783 372.548336316C90.9241315318 375.1639229 89.1714599428 376.262070968 90.7741675819 374.894298902C92.6391486179 373.395543408 97.9742789175 370.000922349 102.366131738 367.787246542C107.268341 365.74364639 109.330137692 365.210474563 107.213652457 366.192218196C104.973573438 367.328189731 98.6895728566 370.510801914 93.5503206184 373.537340192C88.0671101585 377.432119243 85.6544946965 379.133454149 87.919094973 377.005892661C90.5498096954 374.735943784 97.9349529937 369.866607945 103.999086661 366.906905607C110.639502782 364.437693799 113.370524484 363.912459441 110.411293993 365.093788045C107.363248337 366.483642363 98.9607914706 370.53135374 92.1069825637 374.658102709C84.9976433754 380.123377771 81.8874501548 382.611723969 84.8328128657 379.529748735C88.2898302248 376.299872948 97.9283286604 369.698564678 105.835056909 365.979575662C114.36699084 363.218451404 117.789894362 362.803625196 113.907566666 364.093536229C109.991969694 365.671188401 99.2978106818 370.534327698 90.5832004248 375.903596396C81.783975739 383.258892954 77.9677867583 386.747663002 81.5749735667 382.496411178C85.8963033843 378.093309359 97.9657061643 369.49202232 107.868896297 365.026759972C118.414451836 362.152534701 122.526163775 361.967241502 117.661930206 363.247561337C112.836993053 364.927193169 99.7074723867 370.516331564 89.0022931307 377.267530261C78.4928478674 386.859419546 73.9974626102 391.591548285 78.2055118612 385.937412805C83.4034538817 380.122004635 98.0582405092 369.242168647 110.096706556 364.069672554C122.743895936 361.301759749 127.513655806 361.476348511 121.633211272 362.60621879C115.875611769 364.286043205 100.19641507 370.474891787 87.3853399776 378.743396973C75.1916354843 390.94286078 70.0866272273 397.18922998 74.7869954263 389.883299202C80.844251542 382.390116357 98.2170180052 368.944264415 112.515431715 363.129531064C127.313833176 360.723172416 132.681540777 361.39328451 125.778049784 362.214118599C119.083278993 363.780399523 100.771220334 370.408339712 85.7518208657 380.323884326C71.949274067 395.522507609 66.355283281 403.579171911 71.3858457475 394.362117054C78.2507091057 384.89962371 98.4530838744 368.593838431 115.12161726 362.228017566C132.077783798 360.468565082 137.953022889 361.768752773 130.050033362 362.109846133C122.433170554 363.440786948 101.437768213 370.31619594 84.1197336559 382.000649697C68.8365835312 400.605403733 62.9345124023 410.788780998 68.0733803533 399.397720624C75.6542838469 387.649471997 98.7774520629 368.186874038 117.910974749 361.387393316C136.983940191 360.583586765 143.245869712 362.640664349 134.399456399 362.325368223C125.895439509 363.295149042 102.201582031 370.199058634 82.5058337763 383.764024518C65.9258744165 406.191026604 59.9664341825 418.831189901 64.9259466103 405.008510575C73.0857056103 390.635220686 99.2011161224 367.71998441 120.877795768 360.63046735C141.975111193 361.106743529 148.473338477 364.03299656 138.773322187 362.885398088C129.436523558 363.368256754 103.067190885 370.058969166 80.9254694348 385.603094119C63.2901987372 412.270198728 57.6035205538 427.702030308 62.0249785852 411.206067571C70.5745588859 393.848869835 99.7351211147 367.190546396 124.014600996 359.980545012C146.988697355 362.068231222 153.545632193 365.954738883 143.116283092 363.806764528C133.019633175 363.680881655 104.038292647 369.899265999 79.3931023534 387.505030936C61.0024242126 418.823470565 56.0072346153 437.375348975 59.456748181 417.993548882C68.1492264068 397.278130416 100.390442855 366.596923453 127.311967375 359.461096022C151.958000532 363.48882896 158.372194363 368.399309989 147.370710106 365.097794192C136.604321312 364.24901931 105.11732634 369.724836137 77.9215296223 389.455914005C59.1334534319 425.821020582 55.3455797421 447.799896075 57.3117017275 425.36455498C65.8360826841 400.906876679 101.178096032 365.938676473 130.757649446 359.095683957C156.812685587 365.378786285 162.863377892 371.344019776 151.477912813 366.757803245C140.146994485 365.083029987 106.305231734 369.542151856 76.522303184 391.440289557C57.7505523902 433.221778406 55.7895339933 458.895448984 55.6835443072 433.302135137C63.659078905 404.714901801 102.108790073 365.216814001 134.336970996 358.907439707C161.480690564 367.737035133 166.933238431 374.750240959 155.379183963 368.776678682C143.601567056 366.186726717 107.601090817 369.359244759 75.2055979217 393.441273925C56.915289935 440.972959239 57.5079330491 470.548109897 54.668232477 441.777217305C61.6393049539 408.677917936 103.193124305 364.433911525 138.03203301 358.918718496C165.88963641 370.550453347 170.501761312 378.563852331 159.017084298 371.134733574C146.920048112 367.556644217 109.002003118 369.185583961 73.9799422467 395.441078144C56.6811066264 449.010550833 60.660572396 482.607501397 54.36254552 450.747263588C59.7943188582 412.768039562 104.441314699 363.594367701 141.822017374 359.150499894C169.969027793 373.793719012 173.497009241 382.716149092 162.336693125 373.802622144C150.053696948 369.181342433 110.502594225 369.032016271 72.8526450643 397.420563227C57.0908698489 457.259661116 65.3892779991 494.884473471 54.8622238493 460.15550048C58.1377674638 416.953900928 105.863187496 362.704441592 145.682985101 359.621865782C173.652171882 377.429554009 175.857593105 387.12539558 165.286883933 376.7415225C152.953970148 371.040876647 112.094584679 368.910548648 71.8292564174 399.360264781C58.1743158841 465.636114023 71.8078760485 507.15244106 56.2597735028 469.929076501C56.6789095541 421.201281433 107.467696248 361.7726371 149.587971253 360.349314639C176.878230352 381.409372245 177.533683933 391.698081989 167.821773434 379.903432972C155.573866405 373.106516107 113.766760325 368.833923336 70.914090736 401.239975518C59.9456369992 474.047938039 79.9914041557 519.151228554 58.6415526516 479.978431669C55.4224114587 425.473310002 109.262972195 360.809578154 153.507227358 361.346161776C179.594111671 385.674969082 178.488577303 396.330603326 169.902026113 383.231841942C157.86936271 375.340784828 115.504272058 368.815351224 70.1100350186 403.039494022C62.4014655339 482.398295803 89.9672393862 530.596023112 62.0842481924 490.196510295C54.3680597686 429.731204641 111.255905123 359.828174273 157.408546629 362.621785129C181.755580111 390.160285002 178.699415146 400.910378344 171.496009467 386.66229164C159.800545008 377.69767549 117.288659529 368.867879116 69.4187360852 404.738893915C65.5192861422 490.588258849 101.708251212 541.188345711 66.650666282 500.4588206C53.5106979375 433.934948537 113.45201244 358.843562864 161.257801796 364.180984262C183.327776191 394.793973385 178.158174085 405.316350845 172.580975638 390.123122306C161.332959358 380.123479603 119.097570722 369.003874543 68.8407662547 406.318868244C69.2567444613 498.520614449 115.130260317 550.6296892 72.3854549765 510.625184465C52.840390315 438.043454322 115.85470225 357.873111279 165.019760741 366.023452905C184.284799484 399.501747432 176.873164421 409.419066248 173.144236126 393.536535765C162.438674073 382.558028803 120.904795601 369.23432317 68.3759320979 407.761022185C73.5518543367 506.103616742 130.0931026 558.634899851 79.3110641711 520.54288545C52.3425743907 442.015567553 118.465392987 356.936144845 168.658815945 368.143258239C184.606942947 404.208172107 174.871982301 413.079882085 173.183990166 396.819394216C163.096657606 384.936407325 122.680365182 369.568227685 68.0232699685 409.048632052C78.323861511 513.254141308 146.405109832 564.944407548 87.4247250854 530.051317839C51.9984729477 445.810585314 121.282559363 356.053768322 172.140114086 370.528635428C184.280668482 408.837098101 172.206289371 416.150777178 172.710339638 399.884359962C163.292778126 387.191691058 124.390730186 370.011978433 67.7814041917 410.166935899C83.4755162113 519.901365744 163.831152129 569.334569293 96.6971497412 538.987836235C51.7856585969 449.388182406 124.301854622 355.24838635 175.430697627 373.161990059C183.294759857 413.309731054 168.959168244 418.475252105 171.745913056 402.641486408C163.018951191 389.258742957 125.999503198 370.568865992 67.6486914582 411.103739181C88.8956017329 525.988844807 182.101997968 571.624807742 107.071709402 547.192974174C51.6787182193 452.709583884 127.515321159 354.543246445 178.500717494 376.020368895C181.641983284 417.540465833 165.254631564 419.892746443 170.325598887 405.00013632C162.270886213 391.079495208 127.467879353 371.238830318 67.6233835758 411.849937381C94.4625183745 531.4763334 200.92549924 571.681761405 118.466633338 554.516858078C51.6501050216 455.73736037 130.91128603 353.961757332 181.324515803 379.076442482C179.323663194 421.432408964 161.269841893 420.248329032 168.494335497 406.87273808C161.044989505 392.61046957 128.755732405 372.01849003 67.7036947668 412.400305003C100.04795887 536.34024517 219.996960936 569.420109391 130.776550223 560.823453041C51.6710738434 458.435820301 134.473901408 353.526663311 183.881606837 382.300315304C176.359848358 424.875048079 157.283288766 419.492957972 166.299786344 408.181967232C159.334703552 393.832847091 129.822494983 372.901551798 67.8877911511 412.753915213C105.520800933 540.573078506 239.009532492 564.800434469 143.876007914 565.994967388C51.7127589407 460.771392677 138.183240669 353.259128013 186.156919218 385.661892589C172.805322994 427.750169625 153.314463789 418.736169573 163.773670115 408.878721237C157.128134089 394.764630762 130.628309466 373.879765083 68.1736336068 412.914957091C110.75118153 544.182084418 257.662093491 557.824744162 157.623100058 569.934973105C51.7473254829 462.712542276 142.015030045 353.17764784 188.140186321 389.134132841C168.76875869 429.954252976 149.048886581 418.701823377 160.899162299 408.987396373C154.410178442 395.472322482 131.13530632 374.944279959 68.5585025114 412.893646808C115.614040659 547.186610309 275.664984064 548.530424301 171.863225371 572.570664121C51.7491134292 464.229698891 145.940924005 353.296878593 189.824349936 392.696669052C164.424534426 431.448229356 144.552828072 419.5504704 157.597567525 408.688303752C151.171332503 396.076343118 131.308789977 376.087571127 69.0386369457 412.706445557C119.99318942 549.615394479 292.742969816 536.983708416 186.433626401 573.854511408C51.695975677 465.29601995 149.928981189 353.62638602 191.202238281 396.338832585C159.992427815 432.333385037 139.965989446 421.444174556 153.807840239 408.336314319C147.421864568 396.74414605 131.118456927 377.305710128 69.6082863497 412.377178481C123.785201452 551.503218818 308.635415681 523.273764948 201.167429448 573.764902028C51.5703348137 465.886346434 153.944215218 354.169407639 192.262548548 400.06084089C155.663273331 432.902371739 135.490407291 424.53343856 149.574320373 408.306232006C143.205344567 397.670357779 130.539602857 378.600995246 70.2589538398 411.936879946C126.906280839 552.889056056 323.094311445 507.508363675 215.897483069 572.306267529C51.3605222734 465.978612291 157.949720351 354.921748299 192.985295322 403.872180344C151.525210886 433.580543735 131.393967145 428.935691387 145.012682493 408.865339125C138.60468825 399.051047681 129.554782895 379.984265059 70.9783095766 411.424126719C129.309309858 553.819363574 335.880713658 489.812181377 230.461365833 569.508368847C51.0616834911 465.553144079 161.907633335 355.870758321 193.338483993 407.785631969C147.593590579 434.791701452 128.007755195 434.710278123 140.259768189 410.187010384C133.740029788 401.061926876 128.155064396 381.477111819 71.7493593817 410.884399685C131.044397176 554.372760941 346.761596814 470.326861751 244.703662388 565.425295969C50.6767484241 464.593261414 165.780975627 356.994973993 193.277068357 411.808856057C143.915373312 436.882873789 125.71442984 441.831932829 135.464687175 412.391453199C128.762296565 403.844672328 126.342028012 383.112991536 72.5497959694 410.36911976C132.425733965 554.734777825 355.506448371 449.215166865 258.480719282 560.133522904C50.2171469713 463.085903934 169.535479283 358.264366183 192.745141699 415.93476443C140.643198271 440.120944948 124.925808894 450.165903209 130.794223659 415.563316692C123.845429908 407.499968892 124.129446463 384.937244529 73.3521262804 409.933777541C134.099085463 555.219273227 361.886908072 426.665372784 271.662702874 553.729959646C49.7031698007 461.02123592 173.142087454 359.642286861 191.681600504 420.133055167C138.060571247 444.694654085 126.049638499 459.449713818 126.43560478 419.75377985C119.179102598 412.083985309 121.545138964 387.005587002 74.1242969509 409.635950612C136.613310985 556.053519662 365.678147411 402.899049924 284.136893813 546.329107412C49.1642035924 458.393260663 176.580614815 361.090269277 190.029218323 424.345173885C136.58105502 450.693029 129.44705684 469.286171371 122.595000514 424.975653073C114.960596144 417.606496012 118.632419873 389.381072313 74.8314327165 409.532871243C140.226350317 557.285348413 366.664351623 378.177193303 295.808993763 538.060542115C48.6386113081 455.198353653 179.845884406 362.57900343 187.747037693 428.483771C136.730998422 458.063052868 135.385260588 479.15189903 119.491367769 431.196981435C111.386058254 424.030053806 115.450892559 392.129587914 75.4382384629 409.679234702C145.075808391 558.862876909 364.647100904 352.805636159 306.604774627 529.065875272C48.1736569014 451.434779679 182.957176173 364.108704804 184.825281359 432.438980182C139.112462732 466.556902575 143.991227456 488.42426971 117.346752258 438.335386017C108.640623858 431.270495877 112.076023118 395.314640217 75.911992211 410.125459591C151.277811011 560.676573875 359.457088641 327.139334325 316.471419886 519.495216243C47.8254814091 447.102974676 185.967834514 365.737185234 181.301111756 436.09359322C144.339764932 475.680647289 155.214600766 496.426816632 116.373596788 446.25460462C106.887641191 439.200080533 108.597675491 398.991729121 76.2256395671 410.91686019C158.95083548 562.564992904 350.967967938 301.580799936 325.377100464 509.504601638C47.6589991694 442.209703972 188.960212753 367.595612659 177.271338446 439.349092227C152.946888615 484.659377784 168.807028474 502.489211554 116.760094847 454.765397997C106.258152778 447.653043898 105.117293297 403.203168911 76.3607377761 412.093381181C168.216149098 564.309557259 339.111601378 276.576007245 333.311132717 499.252547308C47.7470300281 436.771731799 192.012341101 369.865915118 172.896119214 442.161496247C165.268724222 492.435545454 184.325062742 506.015247739 118.655078818 463.630295261C106.841506602 456.434272468 101.743954516 407.973805988 76.3096733825 413.690228326C179.189851144 565.62601205 323.892808724 252.604138103 340.283050937 488.897133261C48.1683544427 430.820780305 195.154796302 372.73519214 168.387559514 444.578854673C181.308324133 497.717402902 201.157485006 506.548316441 122.154017482 472.573678015C108.678231476 465.330487367 98.5896139336 413.308259132 76.0773734612 415.738491242C191.967337536 566.154707916 305.402357242 230.162764543 346.321093368 478.593373742C49.0048379573 424.405039797 198.348107624 376.367255206 163.983563972 446.763730223C200.613132287 499.090135864 218.577398133 503.82474565 127.287873811 481.296184938C111.756176628 474.123478038 95.7639233451 419.189600025 75.6822193138 418.266058809C206.601491272 565.452031496 283.826237662 209.748257487 351.470245357 468.491026808C50.3377919127 417.590069711 201.479348422 380.893328021 159.921277678 448.982440161C222.191512838 495.190218925 235.810371217 497.805383471 134.01641628 489.492658462C116.010447955 482.603715624 93.3690737115 425.58016969 75.1563125634 421.298124007C223.072733393 562.985327729 259.449685633 191.832659946 355.789935618 458.732467981C52.2436725912 410.459202599 204.365847007 386.40450666 156.431029273 451.557730195C244.501703703 484.927862727 252.11045997 488.680426073 142.227138469 496.871889345C121.327164395 490.583522146 91.4952989064 432.423541781 74.5452309431 424.857710006C241.251787672 558.134539964 232.655267733 176.838978803 359.351186345 449.451408589C54.7895883033 403.112271224 206.762045528 392.935835083 153.760932405 454.801687464C265.542227895 467.723644436 266.831766366 476.846590063 151.739870141 503.176140813C127.551173998 497.908581927 90.2171501933 439.648297662 73.9075887702 428.965433229C260.853225091 550.20548187 203.912732968 165.115912786 362.233744365 440.771358059C58.02868828 395.663810016 208.374948558 400.44271893 152.217182474 458.949321497C283.052563753 443.709031465 279.485062564 462.861221858 162.317686335 508.198884941C134.496175448 504.466125352 89.5913463306 447.173156109 73.3143761354 433.639443636C281.38498149 538.459727929 173.764062361 156.916068233 364.522700978 432.805115991C61.995326793 388.240707193 208.895156669 408.774853729 152.195114759 464.099776234C294.806621994 413.835610285 289.772078521 447.382129602 173.682074257 511.79817857C141.956907609 510.189736096 89.656311037 454.912226068 72.8484745008 438.895073066C302.096592971 522.167449408 142.79961945 152.377543087 366.304926092 425.655192258C66.7012146578 380.977593411 208.050028734 417.658163406 154.18087473 470.160121566C298.951685078 379.849410904 297.595424528 431.102188049 185.531412382 513.904918747C149.722024647 515.060268434 90.4337686908 462.781281135 72.6045491823 444.743960393C321.936295511 500.687774658 111.632406566 151.512924104 367.665911757 419.412774732C72.1322243738 374.011786114 205.680975266 426.701637105 158.714481422 476.79082547C294.325087567 344.110527963 303.044630815 414.68980607 197.56049143 514.524952987C157.586331385 519.102807344 91.9323914321 470.703129321 72.6893456225 451.193451108C339.529825989 473.577648593 80.8678640331 154.205455492 368.68603984 414.1588787C78.2462166143 367.477394653 201.835628756 435.448673158 166.311038041 483.359649713C280.672595234 309.27963104 306.364472803 398.74109661 209.479642837 513.735339642C165.362251535 522.380712786 94.1540178056 478.613155939 73.2229019906 458.24620959C353.194539623 440.728930274 51.0758686805 160.213364545 369.437345839 409.965119612C84.9731055083 361.497947365 196.849265161 443.48634694 177.34327991 488.921042352C258.713196888 277.932142184 307.911829589 383.750653231 221.029866563 511.675439819C172.888910844 524.986774991 97.1017381453 486.462202221 74.3405699847 465.89770967C361.009496533 402.513922739 22.7633864598 169.182219257 369.980225598 406.89313244C92.215975735 356.179450763 191.374371358 450.594665662 191.894878856 492.242225473C230.032520348 252.179590237 308.10989899 370.101350955 231.992622449 508.535304935C180.037080116 527.032774912 100.789029964 494.216639155 76.1952931936 474.132066118C360.949351306 359.935631897 -3.64675211711 180.663403706 370.360518941 404.997095547C99.8545135581 351.604276765 186.323881744 456.864022393 209.606782003 491.897538157C196.81975218 233.373767422 307.404619677 358.060198816 242.201956871 504.53977582C186.721008499 528.639683322 105.25514216 501.862298136 78.96294703 482.922873949C351.093681286 314.726210831 -27.8312466806 194.138245919 370.606581223 404.32205223C107.750342899 347.824647152 182.765651802 462.662981644 229.552300815 486.439619678C161.525840135 221.96781077 306.227357666 347.796868377 251.542898961 499.934005248C192.899165394 529.925689279 110.577945015 509.39589812 82.8463610984 492.222607519C329.897795199 269.386883205 -49.5725492493 209.043306995 370.727042589 404.9044482C115.753203682 344.85868514 181.838481675 468.397170109 250.181434829 474.642006677C126.512102497 217.535712796 304.966917537 339.402713564 259.950418424 494.969028945C198.580664209 530.996118493 116.891493487 516.816563607 88.0808180682 501.953812023C296.502823892 227.115249123 -68.7592204265 224.797045216 370.708706283 406.772088804C123.708941964 342.687867883 184.722015857 474.113014695 269.376443139 455.781036741C93.768892889 218.933431195 303.950020059 332.912341573 267.404063756 489.889232625C203.830765129 531.93380303 124.404512864 524.108320065 94.9385957614 511.994173372C251.03750452 191.601573895 -85.3776557952 240.823609656 370.515092947 409.942673135C131.466827566 341.257141305 192.553929559 479.082145497 284.643454632 429.901268606C64.7501873283 224.546126985 303.429436528 328.32396135 273.92054525 484.921879579C208.778480969 532.789897217 133.419376088 531.211165654 103.731369131 522.155686181C194.854070996 166.691563319 -99.4990110759 256.574032586 370.085578647 414.422142866C138.88720478 340.477573337 206.129396452 481.503720935 293.433172202 397.994625777C40.3366912504 232.558936169 303.577690979 325.614185392 279.544614216 480.269545116C213.625723306 533.57408954 144.347480345 537.974717249 114.80710139 532.15573882C130.632953313 155.938342884 -111.260808446 271.541951533 369.335297681 420.202185074C145.867902204 340.239525401 225.307535446 478.477857875 293.545966119 362.02656889C20.9073587099 241.198515399 304.48500347 324.746522604 284.340339712 476.104219993C218.65719841 534.242097702 157.714462186 544.087724587 128.537310921 541.579878072C62.3080101169 162.101727993 -120.846439271 285.27484876 368.156046074 427.256836999C152.786348195 340.580380667 248.236413868 466.441717604 283.540315507 324.770636209C6.48197237168 248.913390118 306.160483275 325.672015686 288.383086781 472.563131668C224.250415574 534.676287076 174.139684292 548.975346579 145.287836048 549.836546455C-5.21957105845 186.675474391 -128.463833073 297.380929003 366.41826383 435.538792292C160.406939201 341.836830446 270.725863709 442.214928224 263.046434544 289.458312898C-3.11109026709 254.486088517 308.535983673 328.319642466 291.753055283 469.745688287C230.881517574 534.652893694 194.263617013 551.660628328 165.364995852 556.107808C-66.5523659003 229.535048793 -134.323680821 307.530371333 363.974216773 444.975842428C168.697689843 344.29880892 286.258832837 404.577622115 232.899790932 259.307084743C-8.07990940621 257.088372321 311.474861828 332.578995854 294.531168924 467.710608884C239.117584528 533.787285027 218.579291683 550.600832005 188.925694474 559.304648655C-116.404462734 288.787503276 -138.620413983 315.455353539 360.662820936 455.466200575C177.375308742 348.214165482 287.087837527 355.923094942 195.049186618 237.024748441C-8.55213174723 256.29805806 314.786808344 338.272903024 296.797998667 466.472674321C249.582263639 531.446730683 247.110476603 543.543823146 215.842801872 558.045237703C-150.243431888 360.871839412 -141.514883303 320.947073329 356.315983978 466.874654833C186.050518858 353.7760624 266.490378198 303.170828125 152.254809709 224.404777482C-4.51297354809 252.098626391 318.252421519 345.125249937 298.635552866 465.999463635C262.863768441 526.625754056 278.883123394 527.512986281 245.523692681 550.684743337C-164.857957492 440.910536971 -143.120357816 323.852995858 350.766532739 479.029560692C194.248852597 361.083130625 221.595947733 257.103344709 107.647100039 222.100133911C4.19509298721 244.875229817 321.657217036 352.72261925 300.133256238 466.206141652C279.320026333 517.795320638 311.19512173 499.122462864 276.693368284 535.43570474C-158.747600786 523.264213071 -143.490178409 324.071072095 343.856426177 491.723129791C201.438657239 370.095048348 155.600560263 229.835378045 64.2523280703 229.613336604C17.8182788558 235.404145184 324.835572406 360.482158673 301.397369143 466.950744035C298.725232542 502.773178805 338.880369105 455.473563155 307.182640168 510.622134371C-132.270121398 602.174078452 -142.61446672 321.5585112 335.452537579 504.702803435C207.087004956 380.60396306 78.0719577309 231.052968741 24.5829216501 245.483963796C36.5701814316 224.838640194 327.709925482 367.613745955 302.562536672 468.026843762C319.676489449 478.760465845 354.003358752 395.842013335 333.800337343 475.092475691C-87.52065779 672.436282216 -140.410141394 316.319499492 325.450857936 517.687335852C210.726698144 392.216734723 2.80835678434 264.561545056 -9.62247528258 267.607178678C60.4746905962 214.6539097 330.312165594 373.09601496 303.806038688 469.154384659C338.813673205 442.773078527 346.760401659 323.900331543 352.393122627 428.775800796C-27.9831631254 729.922618438 -136.724242992 308.417695251 313.792845561 530.36349035C212.042838151 404.374282714 -56.1115614633 326.732330408 -37.4888696199 293.596271391C89.1792055254 206.532969617 332.747871012 375.647581645 305.358628131 469.96777025C350.078601305 392.802581623 308.169031596 249.581847298 358.20851289 373.292304742C41.972223585 771.930437602 -131.336510482 297.980817817 300.475328558 542.397201086C210.9580596 416.411782616 -88.4456383317 407.619521612 -58.9388562071 321.110111426C121.784707912 202.159150934 335.054793659 373.694971778 307.508465074 469.995362354C344.657769146 329.890244399 234.357359678 189.060272085 346.628022898 312.441489062C117.649090593 797.304493606 -123.967198798 285.20989038 285.55869046 553.446675694C207.696333078 427.665047406 -90.3597121921 494.19864527 -74.5185785916 348.092867084C156.755574512 202.904214571 336.888802874 365.356093466 310.587136638 468.62801075C312.571044854 260.714360065 130.917978286 161.559940151 314.229974387 252.348041239C194.548389431 806.347755047 -114.290312974 270.391264217 269.173532049 563.177102878C202.797890026 437.610737921 -64.5987587633 574.222243368 -85.1736293168 372.906581196C191.985101106 209.442856989 336.9690869 348.52247184 314.92359223 465.069710593C246.593315974 199.275483436 14.8295987004 183.116511409 259.999473092 201.044684152C268.779844758 800.56918137 -101.951352842 253.907773283 251.521182563 571.279168776C197.062828865 446.002721469 -18.6066160394 639.140178245 -92.0258753532 394.365434843C225.073368288 221.387483476 332.273757536 321.274106794 320.742052821 458.270756386C147.833685269 165.544119168 -88.1448366861 259.432491479 186.363534838 167.394399712C337.327918855 782.337282131 -86.5920154471 236.250790296 232.870040289 577.487524296C191.427455748 452.941638517 38.2620094067 685.256357256 -96.1861291031 411.698751938C253.78522708 237.086821968 317.202107309 283.030751514 327.970842118 446.856790216C30.308390909 179.669378762 -150.650391392 381.278378647 99.6691059903 159.447240973C398.158572536 754.507944509 -67.8805566141 218.028455297 213.545014657 581.598886765C186.820938189 458.817936985 97.2410123522 713.225182585 -98.6186744829 424.474531079C276.534177117 253.72024754 283.44996205 236.861701258 335.921551123 429.10305105C-79.1462731928 252.904369527 -152.955131229 525.292227291 9.79257692416 182.559643716C450.191347388 720.086165429 -45.5486055858 199.969061269 193.91175884 583.486783666C184.075045606 464.123504518 151.656766869 726.577434239 -100.058956244 432.512512151C292.618605025 267.710079233 222.06060092 192.685132978 342.81290401 403.06559034C-147.723784568 379.38337947 -90.0745275575 660.518010515 -71.2223583085 237.777450431C493.176637099 681.956447133 -19.4331155141 182.915994373 174.355367943 583.111218944C183.920033558 469.201637231 197.350261038 730.060908175 -100.976690152 435.806653109C301.953867406 275.332177582 129.125161519 169.294344044 345.189130728 367.063229754C-148.563867519 533.857656463 26.5369943924 758.01360825 -131.283177351 321.005995774C527.513226195 642.702018018 10.4788176213 167.811095518 155.256720326 580.521130267C187.018221746 474.024916514 232.330722201 728.317924651 -101.57320138 434.467711986C304.234075107 273.382326144 14.2715099736 191.145053668 337.470901552 320.756810594C-72.3530691363 678.057598078 173.3350919 799.299752271 -160.632766725 423.321005757C554.050042695 604.507704943 44.0046400847 155.664224167 136.96895055 575.849079023C193.951246098 478.043591703 256.090591825 725.085590204 -101.802329116 428.690080142C297.778249657 259.942458444 -93.6277521166 276.899740106 312.192880164 266.936039077C67.5141736408 773.604863219 322.717748237 780.268510343 -153.847784946 532.436791385C573.896387012 569.134777103 80.7267464471 147.506119407 119.797631091 569.299035326C205.102126205 480.10594489 268.920190095 722.861754659 -101.406423243 418.740325813C278.701834087 235.537681808 -151.756815408 423.287923273 261.746183178 213.608838234C239.181163389 795.440960626 451.002566781 709.735832084 -110.887940345 634.984722534C588.258337964 537.94769382 119.962890195 144.324952818 103.988665093 561.130693905C220.417320339 478.456559543 271.406968422 722.881606562 -99.961880366 404.961553789C241.391146296 204.810725563 -122.440670163 595.780404034 182.186255285 175.07766667C403.811992167 739.391447338 543.391221016 604.340704839 -36.9162313168 718.981537228C598.307773624 511.972142668 160.755494302 146.987558662 89.7234382948 551.644483197C239.064515357 470.849264071 264.170313433 725.256017007 -96.9314384997 387.789608517C181.151407421 177.913310615 3.37221966835 737.253017386 78.3886020075 169.99625696C528.469961798 620.965820916 594.976199194 482.58574818 59.0023317413 775.839502733C605.08256 491.966455893 201.886202405 156.150818336 77.117210087 541.168585488C259.028608511 454.845094326 247.801703125 729.174821713 -91.7214239167 367.770583334C98.6855980772 169.727469654 195.113807262 793.554926704 -32.1498089476 215.101153484C594.622032899 467.285534991 608.72226793 360.285613046 165.883390559 801.444889676C609.412213625 478.491752118 241.921542645 172.171224856 66.2187631673 530.04732737"
       style="fill:none;stroke:#000000;stroke-width:0.83730102px;stroke-linecap:butt;stroke-linejoin:miter;stroke-opacity:1"
       inkscape:connector-curvature="0" />
  </g>
</svg>
