<?xml version="1.0" encoding="UTF-8" standalone="no"?>
<!-- Created with Inkscape (http://www.inkscape.org/) -->

<svg
 xmlns:dc="http://purl.org/dc/elements/1.1/"
 xmlns:cc="http://creativecommons.org/ns#"
 xmlns:rdf="http://www.w3.org/1999/02/22-rdf-syntax-ns#"
 xmlns:svg="http://www.w3.org/2000/svg"
 xmlns="http://www.w3.org/2000/svg"
 xmlns:sodipodi="http://sodipodi.sourceforge.net/DTD/sodipodi-0.dtd"
 xmlns:inkscape="http://www.inkscape.org/namespaces/inkscape"
 sodipodi:docname="letter sized frame blank.svg"
 inkscape:version="0.48.2 r9819"
 version="1.1"
 id="svg3783"
 height="1052.3622047"
 width="744.09448819">
<sodipodi:namedview
 id="base"
 pagecolor="#ffffff"
 bordercolor="#666666"
 borderopacity="1.0"
 inkscape:pageopacity="0.0"
 inkscape:pageshadow="2"
 inkscape:zoom="0.98994949287766"
 inkscape:cx="-128.90314036862"
 inkscape:cy="536.06299496032"
 inkscape:document-units="px"
 inkscape:current-layer="layer1"
 showgrid="false"
 inkscape:window-width="1024"
 inkscape:window-height="748"
 inkscape:window-x="10"
 inkscape:window-y="-16"
 inkscape:window-maximized="0" />
<defs
 id="defs3785">
<marker
 inkscape:stockid="Arrow1Lstart"
 orient="auto"
 refY="0.0"
 refX="0.0"
 id="Arrow1Lstart"
 style="overflow:visible">
<path
 id="path4607"
 d="M 0.0,0.0 L 5.0,-5.0 L -12.5,0.0 L 5.0,5.0 L 0.0,0.0 z "
 style="fill-rule:evenodd;stroke:#000000;stroke-width:1.0pt;marker-start:none"
 transform="scale(0.8) translate(12.5,0)" />
</marker>
<inkscape:perspective
 sodipodi:type="inkscape:persp3d"
 inkscape:vp_x="-314.90439 : 155.3937 : 0"
 inkscape:vp_y="0 : 1000 : 0"
 inkscape:vp_z="372.04724 : 175.3937 : 0"
 inkscape:persp3d-origin="334.90438 : 296.50168 : 1"
 id="perspective3823" />
</defs>
<metadata
 id="metadata3788">
<rdf:RDF>
<cc:Work
 rdf:about="">
<dc:format>image/svg+xml</dc:format>
<dc:type
 rdf:resource="http://purl.org/dc/dcmitype/StillImage" />
<dc:title />
</cc:Work>
</rdf:RDF>
</metadata>
<g
 inkscape:label="Layer 1"
 inkscape:groupmode="layer"
 id="layer1">
<flowRoot
 xml:space="preserve"
 id="flowRoot3475"
 style="fill:black;stroke:none;stroke-opacity:1;stroke-width:1px;stroke-linejoin:miter;stroke-linecap:butt;fill-opacity:1;font-family:Sans;font-style:normal;font-weight:normal;font-size:40px;line-height:125%;letter-spacing:0px;word-spacing:0px"><flowRegion
 id="flowRegion3477"><rect
 id="rect3479"
 width="474.7717"
 height="76.771591"
 x="40.406101"
 y="840.23016" /></flowRegion><flowPara
 id="flowPara3481" /></flowRoot><path
 sodipodi:type="arc"
 style="fill:none;stroke:#1a1a1a;stroke-width:1;stroke-miterlimit:4;stroke-opacity:1;stroke-dasharray:none"
 id="path3640"
 sodipodi:cx="-991.42858886719"
 sodipodi:cy="-70.494956970215"
 sodipodi:rx="42.8571434021"
 sodipodi:ry="42.8571434021"
 d="M -948.57144546509,-70.494956970215 A 42.8571434021,42.8571434021 0 1 1 -1034.2857322693,-70.494956970215 42.8571434021,42.8571434021 0 1 1 -948.57144546509,-70.494956970215 z"
 transform="translate(1107.1271883282,581.84786550857)" />
<path
 d="M -948.57144546509,-70.494956970215 A 42.8571434021,42.8571434021 0 1 1 -1034.2857322693,-70.494956970215 42.8571434021,42.8571434021 0 1 1 -948.57144546509,-70.494956970215 z"
 sodipodi:ry="42.8571434021"
 sodipodi:rx="42.8571434021"
 sodipodi:cy="-70.494956970215"
 sodipodi:cx="-991.42858886719"
 id="path3642"
 style="fill:none;stroke:#1a1a1a;stroke-width:1;stroke-miterlimit:4;stroke-opacity:1;stroke-dasharray:none"
 sodipodi:type="arc"
 transform="translate(-197.98989878447,0)" />
<path
 style="fill:none;stroke:#1a1a1a;stroke-width:1;stroke-miterlimit:4;stroke-opacity:1;stroke-dasharray:none"
 d="M -804.625,-640.53125 C -833.19507747527,-640.53125 -856.35522461151,-617.40186550593 -856.40625,-588.84375 -861.76438646371,-606.07069595185 -877.85365481899,-618.5625 -896.84375,-618.5625 -920.21617483817,-618.5625 -939.15625,-599.62242483817 -939.15625,-576.25 -939.15625,-552.87757516183 -920.21617483817,-533.9375 -896.84375,-533.9375 -873.89918574966,-533.9375 -855.23872266335,-552.18801924784 -854.5625,-574.96875 -848.52919448166,-553.05971949937 -828.45364646935,-536.96875 -804.625,-536.96875 -776.02339409105,-536.96875 -752.84375,-560.14839409105 -752.84375,-588.75 -752.84375,-617.35160590895 -776.02339409105,-640.53125 -804.625,-640.53125 z"
 id="path3834" />
<path
 style="fill:none;stroke:#1a1a1a;stroke-width:4.1;stroke-miterlimit:4;stroke-opacity:1;stroke-dasharray:none;stroke-linejoin:round;stroke-linecap:round;marker-start:none;stroke-dashoffset:0"
 d="M 92.290178571431,48.821428571431 C 80.194971551941,48.821428571431 70.415178571431,58.632471551941 70.415178571431,70.727678571431 70.415178571431,74.729198526471 71.482133662401,78.467473246801 73.352678571431,81.696428571431 50.354464243591,95.917521123151 35.008928571431,121.35747492087 35.008928571431,150.38392857143 35.008928571431,194.95828441045 71.153322732411,231.10267857143 115.72767857143,231.10267857143 119.77546654107,231.10267857143 123.74607472824,230.80290200986 127.63392857143,230.22767857143 101.45342694293,236.75595395028 82.040178571431,260.40163451403 82.040178571431,288.60267857143 82.040178571431,300.6422807485 85.578866652941,311.85530745117 91.665178571431,321.25892857143 86.396277113511,318.00134770227 80.189862559751,316.10267857143 73.540178571431,316.10267857143 54.473842738971,316.10267857143 39.008928571431,331.56759273897 39.008928571431,350.63392857143 39.008928571431,369.70026440389 54.473842738971,385.16517857143 73.540178571431,385.16517857143 92.606514403891,385.16517857143 108.07142857143,369.70026440389 108.07142857143,350.63392857143 108.07142857143,345.24690755834 106.83447166454,340.14613439689 104.63392857143,335.60267857143 112.41777326066,341.83071749043 121.7894035653,346.17044725788 132.04017857143,347.91517857143 133.01967412181,381.96532456288 160.90880482538,409.25892857143 195.19642857143,409.25892857143 217.11900445671,409.25892857143 236.42739142993,398.11048096867 247.75892857143,381.16517857143 246.92453955681,384.82724460591 246.44642857143,388.62538643523 246.44642857143,392.54017857143 246.44642857143,411.57371905031 256.87845925227,428.16779779478 272.32142857143,436.94642857143 272.02988862249,436.93347057408 271.7411292104,436.91517857143 271.44642857143,436.91517857143 260.67030710183,436.91517857143 251.94642857143,445.67030710183 251.94642857143,456.44642857143 251.94642857143,467.22255004103 260.67030710183,475.94642857143 271.44642857143,475.94642857143 282.22255004103,475.94642857143 290.97767857143,467.22255004103 290.97767857143,456.44642857143 290.97767857143,450.67005587333 288.44050856997,445.49296136518 284.44642857143,441.91517857143 288.04765967463,442.86642388789 291.79856322279,443.43382202791 295.66517857143,443.57142857143 303.61473273809,467.98200804444 326.54345888976,485.63392857143 353.60267857143,485.63392857143 387.25144916004,485.63392857143 414.50892857143,458.34519916004 414.50892857143,424.69642857143 414.50892857143,391.04765798282 387.25144916004,363.75892857143 353.60267857143,363.75892857143 349.13962363069,363.75892857143 344.79312124404,364.25386292448 340.60267857143,365.16517857143 331.54201480045,350.93650622228 315.62748925795,341.50892857143 297.50892857143,341.50892857143 280.50433855758,341.50892857143 265.44318761078,349.8180887517 256.16517857143,362.60267857143 257.59235397367,357.32751742158 258.38392857143,351.79902480124 258.38392857143,346.07142857143 258.38392857143,342.99291154451 258.15299611255,339.96975518798 257.72767857143,337.00892857143 260.40777955993,337.28015302315 263.13242585688,337.41517857143 265.88392857143,337.41517857143 310.07650741988,337.41517857143 345.88392857143,301.57650741988 345.88392857143,257.38392857143 345.88392857143,213.19134972298 310.07650741988,177.38392857143 265.88392857143,177.38392857143 224.93939803618,177.38392857143 191.18978966063,208.12487926378 186.44642857143,247.79017857143 175.45004848609,235.87592011194 159.71932305992,228.41517857143 142.22767857143,228.41517857143 139.54431687431,228.41517857143 136.91192714958,228.60604058305 134.32142857143,228.94642857143 169.93010947651,220.54797896191 196.44642857143,188.5574794442 196.44642857143,150.38392857143 196.44642857143,105.80957273241 160.30203441045,69.665178571431 115.72767857143,69.665178571431 115.20788226569,69.665178571431 114.68263558588,69.686644829441 114.16517857143,69.696428571431 113.62515232605,58.080846971601 104.03888402128,48.821428571431 92.290178571431,48.821428571431 z"
 id="path3832"
 inkscape:connector-curvature="0" />
<path
 style="fill:none;stroke:#1a1a1a;stroke-width:1;stroke-miterlimit:4;stroke-opacity:1;stroke-dasharray:none"
 d="M -918.40625,-412.03125 C -953.2327997753,-412.03125 -981.46875,-383.7952997753 -981.46875,-348.96875 -981.46875,-314.1422002247 -953.2327997753,-285.90625 -918.40625,-285.90625 -883.5797002247,-285.90625 -855.34375,-314.1422002247 -855.34375,-348.96875 -855.34375,-383.7952997753 -883.5797002247,-412.03125 -918.40625,-412.03125 z"
 id="path3830" />
<path
 style="fill:none;stroke:#1a1a1a;stroke-width:9.6999998093;stroke-miterlimit:4;stroke-opacity:1;stroke-dasharray:none"
 d="M 215.81696435204,350.91964280665 C 211.73277102662,350.91964280665 208.41071435204,354.24169948123 208.41071435204,358.32589280665 208.41071435204,362.41008613207 211.73277102662,365.70089280665 215.81696435204,365.70089280665 219.90115767746,365.70089280665 223.19196435204,362.41008613207 223.19196435204,358.32589280665 223.19196435204,354.24169948123 219.90115767746,350.91964280665 215.81696435204,350.91964280665 z"
 id="path3828"
 inkscape:connector-curvature="0" />
<path
 style="fill:none;stroke:#1a1a1a;stroke-width:1;stroke-miterlimit:4;stroke-opacity:1;stroke-dasharray:none"
 d="M -816.125,-196.96875 C -857.85381243528,-196.96875 -891.6875,-163.16631243528 -891.6875,-121.4375 -891.6875,-85.683435599893 -866.83005050759,-55.752048556636 -833.46875,-47.90625 -825.27885014085,-42.6980227389 -815.58081872311,-39.65625 -805.15625,-39.65625 -780.97532410074,-39.65625 -760.60880230416,-55.899973378745 -754.3125,-78.0625 -745.68975399759,-90.342115414969 -740.59375,-105.29109121838 -740.59375,-121.4375 -740.59375,-163.16631243528 -774.39618756472,-196.96875 -816.125,-196.96875 z"
 id="path3826" />
<path
 style="fill:none;stroke:#1a1a1a;stroke-width:9.6999998093;stroke-miterlimit:4;stroke-opacity:1;stroke-dasharray:none"
 d="M 180.73660720015,318.36607135622 C 177.27599943661,318.36607135622 174.48660720015,321.15546359268 174.48660720015,324.61607135622 174.48660720015,328.07667911976 177.27599943661,330.89732135622 180.73660720015,330.89732135622 184.19721496369,330.89732135622 187.01785720015,328.07667911976 187.01785720015,324.61607135622 187.01785720015,321.15546359268 184.19721496369,318.36607135622 180.73660720015,318.36607135622 z"
 id="path3824"
 inkscape:connector-curvature="0" />
<path
 style="fill:none;stroke:#1a1a1a;stroke-width:1;stroke-miterlimit:4;stroke-opacity:1;stroke-dasharray:none"
 d="M 153.84593832825,451.00411550857 C 140.35540616005,451.00411550857 128.54960041695,458.19973277854 122.06468832825,468.97286550857 119.98573038255,468.66327573238 117.85461231205,468.50411550857 115.68968832825,468.50411550857 92.020341605949,468.50411550857 72.845938328249,487.67851878628 72.845938328249,511.34786550857 72.845938328249,533.98807660205 90.387404065349,552.52702775082 112.62718832825,554.09786550857 120.46430962465,574.15156617332 139.92268474895,588.34786550857 162.75218832825,588.34786550857 192.49509765445,588.34786550857 216.62718832825,564.24702483481 216.62718832825,534.50411550857 216.62718832825,515.07525792952 206.33434954915,498.03849370518 190.90843832825,488.56661550857 190.91062413735,488.4007233985 190.90843832825,488.23302506773 190.90843832825,488.06661550857 190.90843832825,467.59336182983 174.31919200695,451.00411550857 153.84593832825,451.00411550857 z"
 id="path3822"
 inkscape:connector-curvature="0" />
<path
 style="fill:none;stroke:#1a1a1a;stroke-width:9.6999998093;stroke-miterlimit:4;stroke-opacity:1;stroke-dasharray:none"
 d="M 277.96428573916,389.37499993217 C 269.40459718736,389.37499993217 262.46428573916,396.31531138037 262.46428573916,404.87499993217 262.46428573916,413.43468848397 269.40459718736,420.37499993217 277.96428573916,420.37499993217 286.52397429096,420.37499993217 293.46428573916,413.43468848397 293.46428573916,404.87499993217 293.46428573916,396.31531138037 286.52397429096,389.37499993217 277.96428573916,389.37499993217 z"
 id="path3820"
 inkscape:connector-curvature="0" />
<path
 style="fill:none;stroke:#1a1a1a;stroke-width:9.6999998093;stroke-miterlimit:4;stroke-opacity:1;stroke-dasharray:none"
 d="M 310.59374999548,361.47321419376 C 303.23185617506,361.47321419376 297.28124999548,367.42382037334 297.28124999548,374.78571419376 297.28124999548,382.14760801418 303.23185617506,388.12946419376 310.59374999548,388.12946419376 317.9556438159,388.12946419376 323.93749999548,382.14760801418 323.93749999548,374.78571419376 323.93749999548,367.42382037334 317.9556438159,361.47321419376 310.59374999548,361.47321419376 z"
 id="path3818"
 inkscape:connector-curvature="0" />
<path
 style="fill:none;stroke:#1a1a1a;stroke-width:1;stroke-miterlimit:4;stroke-opacity:1;stroke-dasharray:none"
 d="M -716.59375,-26.875 C -728.90530523441,-26.875 -740.35555814976,-23.229258103999 -749.96875,-17 -751.53542016844,-17.244455204333 -753.14600239319,-17.375 -754.78125,-17.375 -763.1749876946,-17.375 -770.77419049485,-14.023592979079 -776.34375,-8.59375 -781.58893117296,-9.7423095966356 -787.03512524344,-10.375 -792.625,-10.375 -809.93800929519,-10.375 -825.86506454105,-4.5525094698365 -838.625,5.21875 -845.34752835529,3.4680617938405 -852.38516755758,2.53125 -859.65625,2.53125 -905.71269105155,2.53125 -943.0625,39.849808948452 -943.0625,85.90625 -943.0625,98.286860194074 -940.34147538608,110.02782391798 -935.5,120.59375 -941.79188941336,118.03382642009 -948.66352502942,116.625 -955.875,116.625 -962.58341114931,116.625 -969.00910909728,117.86278155535 -974.9375,120.09375 -971.92842926641,111.8535132551 -970.28125,102.96838444684 -970.28125,93.6875 -970.28125,51.148830960685 -1004.7738309607,16.65625 -1047.3125,16.65625 -1089.8511690393,16.65625 -1124.34375,51.148830960685 -1124.34375,93.6875 -1124.34375,136.22616903931 -1089.8511690393,170.71875 -1047.3125,170.71875 -1033.3718588629,170.71875 -1020.3127998962,166.97807640925 -1009.03125,160.5 -1009.6677050713,163.81961328031 -1010,167.24479468996 -1010,170.75 -1010,188.45863041584 -1001.4913212205,204.18795273328 -988.34375,214.0625 -999.9635563472,221.02241993566 -1007.75,233.71992254619 -1007.75,248.25 -1007.75,270.25349644169 -989.90974644169,288.09375 -967.90625,288.09375 -945.90275355831,288.09375 -928.0625,270.25349644169 -928.0625,248.25 -928.0625,238.12582736314 -931.87286812365,228.90345595783 -938.09375,221.875 -916.93406176143,214.51977004339 -901.75,194.41478562622 -901.75,170.75 -901.75,165.93017622931 -902.41160424706,161.26017935947 -903.59375,156.8125 -890.83329469774,164.73853108151 -875.77975806253,169.3125 -859.65625,169.3125 -834.73853216525,169.3125 -812.37843336551,158.36046653914 -797.09375,141.03125 -795.60694486026,141.11820301559 -794.13361659605,141.1875 -792.625,141.1875 -761.56544757535,141.1875 -734.85767972147,122.49386810085 -723.15625,95.75 -721.00053948179,95.981158422465 -718.81315358353,96.09375 -716.59375,96.09375 -714.60949661198,96.09375 -712.6549928121,95.996391263901 -710.71875,95.8125 -708.80909965598,98.720468097837 -705.52015034849,100.65625 -701.78125,100.65625 -696.07950811518,100.65625 -691.43449103106,96.186928416567 -691.125,90.5625 -669.87752761551,80.874066411686 -655.09375,59.46315047214 -655.09375,34.59375 -655.09375,0.63747340587253 -682.63747340587,-26.875 -716.59375,-26.875 z"
 id="path3816" />
<path
 style="fill:none;stroke:#1a1a1a;stroke-width:1;stroke-miterlimit:4;stroke-opacity:1;stroke-dasharray:none"
 d="M -493.9375,-9.21875 C -526.3951721997,-9.21875 -552.6875,17.073577800297 -552.6875,49.53125 -552.6875,51.711209192143 -552.57502243662,53.881594181425 -552.34375,56 -567.99358567732,59.676491029144 -579.65625,73.698864867649 -579.65625,90.46875 -579.65625,110.03711789042 -563.78711789042,125.875 -544.21875,125.875 -530.00963737141,125.875 -517.773860621,117.50345239204 -512.125,105.4375 -506.39316073979,107.30304544612 -500.29171020249,108.3125 -493.9375,108.3125 -461.4798278003,108.3125 -435.15625,81.988922199703 -435.15625,49.53125 -435.15625,17.073577800297 -461.4798278003,-9.21875 -493.9375,-9.21875 z"
 id="path3814" />
<path
 style="fill:none;stroke:#1a1a1a;stroke-width:1;stroke-miterlimit:4;stroke-opacity:1;stroke-dasharray:none"
 d="M -861.84375,282.9375 C -876.67796151509,282.9375 -888.6875,294.94703848491 -888.6875,309.78125 -888.6875,318.25365720173 -884.75330714086,325.79589197203 -878.625,330.71875 -878.95252611017,332.88244952459 -879.125,335.08871977432 -879.125,337.34375 -879.125,361.62489420941 -859.43739420941,381.3125 -835.15625,381.3125 -810.87510579059,381.3125 -791.1875,361.62489420941 -791.1875,337.34375 -791.1875,313.06260579059 -810.87510579059,293.375 -835.15625,293.375 -836.9125320693,293.375 -838.64124469397,293.48720910647 -840.34375,293.6875 -845.24363019243,287.15815312165 -853.05196082999,282.9375 -861.84375,282.9375 z"
 id="path3810" />
<path
 style="fill:none;stroke:#1a1a1a;stroke-width:1;stroke-miterlimit:4;stroke-opacity:1;stroke-dasharray:none"
 d="M -989.59375,356.28125 C -1004.553834431,356.28125 -1016.6875,368.41491556904 -1016.6875,383.375 -1016.6875,398.33508443096 -1004.553834431,410.46875 -989.59375,410.46875 -974.63366556904,410.46875 -962.53125,398.33508443096 -962.53125,383.375 -962.53125,368.41491556904 -974.63366556904,356.28125 -989.59375,356.28125 z"
 id="path3808" />
<path
 style="fill:none;stroke:#1a1a1a;stroke-width:1;stroke-miterlimit:4;stroke-opacity:1;stroke-dasharray:none"
 d="M -715.9375,453.46875 C -716.5505280398,453.46875 -717.0625,453.9807219602 -717.0625,454.59375 -717.0625,455.2067780398 -716.5505280398,455.71875 -715.9375,455.71875 -715.3244719602,455.71875 -714.84375,455.2067780398 -714.84375,454.59375 -714.84375,453.9807219602 -715.3244719602,453.46875 -715.9375,453.46875 z"
 id="path3806" />
<path
 style="fill:none;stroke:#1a1a1a;stroke-width:1;stroke-miterlimit:4;stroke-opacity:1;stroke-dasharray:none"
 d="M -621.4375,471.09375 C -652.62668127824,471.09375 -677.90625,496.37331872176 -677.90625,527.5625 -677.90625,558.75168127824 -652.62668127824,584.03125 -621.4375,584.03125 -590.24831872176,584.03125 -564.96875,558.75168127824 -564.96875,527.5625 -564.96875,496.37331872176 -590.24831872176,471.09375 -621.4375,471.09375 z"
 id="path3804" />
<path
 style="fill:none;stroke:#1a1a1a;stroke-width:1;stroke-miterlimit:4;stroke-opacity:1;stroke-dasharray:none"
 d="M -829.0625,484.96875 C -859.80099493862,484.96875 -884.71875,509.88650506138 -884.71875,540.625 -884.71875,571.36349493862 -859.80099493862,596.28125 -829.0625,596.28125 -798.32400506138,596.28125 -773.40625,571.36349493862 -773.40625,540.625 -773.40625,509.88650506138 -798.32400506138,484.96875 -829.0625,484.96875 z"
 id="path3802" />
<path
 style="fill:none;stroke:#1a1a1a;stroke-width:1;stroke-miterlimit:4;stroke-opacity:1;stroke-dasharray:none"
 d="M -1085.78125,511.9375 C -1102.1177266972,511.9375 -1115.375,525.19477330276 -1115.375,541.53125 -1115.375,557.86772669724 -1102.1177266972,571.09375 -1085.78125,571.09375 -1069.4447733028,571.09375 -1056.21875,557.86772669724 -1056.21875,541.53125 -1056.21875,525.19477330276 -1069.4447733028,511.9375 -1085.78125,511.9375 z"
 id="path3800" />
<path
 style="fill:none;stroke:#1a1a1a;stroke-width:1;stroke-miterlimit:4;stroke-opacity:1;stroke-dasharray:none"
 d="M -735.34375,555.65625 C -773.4317327445,555.65625 -804.3125,586.5370172555 -804.3125,624.625 -804.3125,662.7129827445 -773.4317327445,693.59375 -735.34375,693.59375 -697.2557672555,693.59375 -666.40625,662.7129827445 -666.40625,624.625 -666.40625,586.5370172555 -697.2557672555,555.65625 -735.34375,555.65625 z"
 id="path3798" />
<path
 style="fill:none;stroke:#1a1a1a;stroke-width:1;stroke-miterlimit:4;stroke-opacity:1;stroke-dasharray:none"
 d="M -1043.46875,607.21875 C -1062.3370929534,607.21875 -1077.625,622.53790704664 -1077.625,641.40625 -1077.625,660.27459295336 -1062.3370929534,675.5625 -1043.46875,675.5625 -1024.6004070466,675.5625 -1009.3125,660.27459295336 -1009.3125,641.40625 -1009.3125,622.53790704664 -1024.6004070466,607.21875 -1043.46875,607.21875 z"
 id="path3644" />
<g
 id="g5355">
<path
 inkscape:connector-curvature="0"
 id="path5321"
 d="M -169.46585777142,105.6038507004 C -166.76177892516,106.21309418255 -163.94661129264,106.52110942405 -161.05875079557,106.52110942405 -158.56625630892,106.52110942405 -156.14028707719,106.27704540702 -153.78370933913,105.81707315407 -153.739743438,108.11970089385 -153.47056681021,110.38298060158 -152.87432915707,112.52008514115 -152.59917170944,113.50633655842 -152.14082110034,114.43884259405 -151.77427248523,115.39489991023 -151.60605951482,115.93168666875 -145.02088894473,113.93399048201 -143.38450693465,112.98944265447 -137.23355938257,115.38923323044 -130.60823999947,116.63223533297 -124.06751177712,117.30166480809 -121.65841982,117.54823019187 -119.23792033754,117.62165919591 -116.82180516526,117.7856897437 -110.32249783186,118.11622598073 -103.70167995806,117.87135722362 -97.592814541472,115.36556506565 -96.179013154522,114.78563864941 -94.773317326992,114.10131811393 -93.588608255972,113.13611687738 -91.900235322142,111.76057271778 -90.132789043302,110.32929971323 -89.071042190272,108.4278743219 -88.349963033252,107.13653240325 -88.691832895912,105.49405122212 -88.499012720912,104.02764763454 -89.111243067002,98.805961835212 -92.075733342592,94.706913300312 -94.923343684472,90.489616859742 -96.213016386012,88.579618144782 -97.633758150012,86.328904876922 -98.898215125392,84.343966919722 -88.282146706622,79.934176241132 -80.813283440312,69.463082220162 -80.813283440312,57.253237947842 -80.813283440312,41.063043611262 -93.943266263882,27.947728209992 -110.13346060046,27.947728209992 -120.36318640008,27.947728209992 -129.35412187233,33.191624325542 -134.59872098221,41.133740849792 -141.44633592199,34.501649316762 -150.77072396188,30.411855154912 -161.05875079557,30.411855154912 -182.07507447288,30.411855154912 -199.12071164128,47.442824901032 -199.12071164128,68.459148578332 -199.12071164128,84.327967793322 -189.40206429549,97.933751864252 -175.59416628617,103.64629465497 -176.52990720175,104.34777170668 -177.14891304904,105.45230277476 -177.14891304904,106.71178591383 -177.14891304904,108.83570351766 -175.41529859027,110.56931797642 -173.29138098645,110.56931797642 -171.16746338262,110.56931797642 -169.44851634615,108.83570351766 -169.44851634615,106.71178591383 -169.44851634615,106.48197618032 -169.46971101262,106.25671882322 -169.50923172882,106.0378651637"
 style="fill:none;stroke:#1a1a1a;stroke-width:0.4693575203;stroke-miterlimit:4;stroke-opacity:1;stroke-dasharray:none" />
<path
 transform="matrix(0.4746744013048,-0.31653745495313,0.31653745495313,0.4746744013048,-428.9310223633,-185.47099803898)"
 d="M 256.578748703,683.65649414063 A 22.223356246948,16.162441253662 0 1 1 212.13203620911,683.65649414063 22.223356246948,16.162441253662 0 1 1 256.578748703,683.65649414063 z"
 sodipodi:ry="16.162441253662"
 sodipodi:rx="22.223356246948"
 sodipodi:cy="683.65649414062"
 sodipodi:cx="234.35539245605"
 id="path5230"
 style="fill:none;stroke:#1a1a1a;stroke-width:1;stroke-linecap:round;stroke-linejoin:round;stroke-miterlimit:4;stroke-opacity:1;stroke-dasharray:none;stroke-dashoffset:0"
 sodipodi:type="arc" />
<path
 transform="matrix(0.46935751331898,0,0,0.46935751331898,-227.59765156635,-257.44070058171)"
 d="M 186.87822341919,704.36462402344 A 41.921329498291,41.921329498291 0 1 1 103.03556442261,704.36462402344 41.921329498291,41.921329498291 0 1 1 186.87822341919,704.36462402344 z"
 sodipodi:ry="41.921329498291"
 sodipodi:rx="41.921329498291"
 sodipodi:cy="704.36462402344"
 sodipodi:cx="144.9568939209"
 id="path5236"
 style="fill:none;stroke:#1a1a1a;stroke-width:1;stroke-linecap:round;stroke-linejoin:round;stroke-miterlimit:4;stroke-opacity:1;stroke-dasharray:none;stroke-dashoffset:0"
 sodipodi:type="arc" />
<path
 sodipodi:type="arc"
 style="fill:none;stroke:#1a1a1a;stroke-width:1;stroke-linecap:round;stroke-linejoin:round;stroke-miterlimit:4;stroke-opacity:1;stroke-dasharray:none;stroke-dashoffset:0"
 id="path5238"
 sodipodi:cx="144.9568939209"
 sodipodi:cy="704.36462402344"
 sodipodi:rx="41.921329498291"
 sodipodi:ry="41.921329498291"
 d="M 186.87822341919,704.36462402344 A 41.921329498291,41.921329498291 0 1 1 103.03556442261,704.36462402344 41.921329498291,41.921329498291 0 1 1 186.87822341919,704.36462402344 z"
 transform="matrix(0.39271957985433,0,0,0.39271957985433,-219.73953780237,-203.45965139095)" />
<path
 transform="matrix(0.46935751331898,0,0,0.46935751331898,-217.67939411115,-253.17359640088)"
 d="M 103.03555774689,762.95349121094 A 6.5659914016724,6.5659914016724 0 1 1 89.903574943542,762.95349121094 6.5659914016724,6.5659914016724 0 1 1 103.03555774689,762.95349121094 z"
 sodipodi:ry="6.5659914016724"
 sodipodi:rx="6.5659914016724"
 sodipodi:cy="762.95349121094"
 sodipodi:cx="96.469566345215"
 id="path5240"
 style="fill:none;stroke:#1a1a1a;stroke-width:1;stroke-linecap:round;stroke-linejoin:round;stroke-miterlimit:4;stroke-opacity:1;stroke-dasharray:none;stroke-dashoffset:0"
 sodipodi:type="arc" />
<path
 inkscape:connector-curvature="0"
 id="path5245"
 d="M -92.258707553082,39.825945608622 C -95.903549405542,39.783761835172 -99.439888055152,40.656703468482 -102.9219235588,41.644705972732 -104.32864193194,42.175187115572 -105.76635366579,42.631750526442 -107.14614117867,43.228787580182 -108.50519493648,43.816853093082 -109.82327370152,44.508337510832 -111.13568004188,45.194222167212 -115.37797980896,47.411316239742 -119.40658159188,50.024222360842 -122.88428529715,53.334641538832 -123.79937161159,54.248516375642 -124.77529786251,55.089645521352 -125.62709326561,56.062782085002 -126.95178623819,57.576182089922 -127.88193131317,60.106637120652 -127.24050971764,62.091092646692 -127.19612381183,62.442443269642 -122.2238676551,61.811744111122 -122.26825356092,61.460393488172 -122.11607481325,60.913126625842 -121.9826194278,60.308515742082 -121.50554760177,59.934981569882 -121.33605187461,59.802271058212 -121.11222862674,59.761647459272 -120.93351813242,59.641633124062 -120.60833797342,59.423256017812 -120.37259639038,59.026384400002 -119.99480310578,58.922929431792 -119.8505655816,58.883431407112 -119.96792146554,59.229054919102 -119.9508008389,59.377619522822 -117.46410648047,57.964742543282 -114.81798180145,56.878847792932 -112.22106929143,55.696096527722 -111.03025806967,55.153747305812 -109.8481238984,54.580088502012 -108.65688567467,54.038677808812 -105.02685384192,52.388849913982 -104.84092435887,52.353275326872 -101.17650030614,50.870514593912 -98.187246083502,49.657769042352 -95.108483109802,48.685012539122 -92.068031063302,47.614346845262 -91.465064446292,47.402018000232 -90.875190439622,47.183962013092 -90.278605543772,46.954312842152 -89.943511457412,46.825321847492 -89.577392180532,46.746625641982 -89.281220827972,46.543625018002 -89.191637343092,46.482223051972 -89.220158335262,46.326153554972 -89.193216294222,46.220941727592 -88.831605156352,46.353690021692 -86.954175103082,41.249427064342 -87.315786240942,41.116678770252 -87.704523970342,40.896762377822 -88.074281425572,40.621991054482 -88.489180024242,40.456644767142 -89.623296205512,40.004674332492 -91.074054066832,39.839656259542 -92.258707553082,39.825945608622 z"
 style="fill:none;stroke:#1a1a1a;stroke-width:0.4693575203;stroke-linecap:round;stroke-linejoin:round;stroke-miterlimit:4;stroke-opacity:1;stroke-dasharray:none;stroke-dashoffset:0" />
<path
 style="fill:none;stroke:#1a1a1a;stroke-width:0.4693575203;stroke-linecap:round;stroke-linejoin:round;stroke-miterlimit:4;stroke-opacity:1;stroke-dasharray:none;stroke-dashoffset:0"
 d="M -164.18208047231,39.825945608622 C -160.53723861986,39.783761835172 -157.00089997024,40.656703468482 -153.51886446659,41.644705972732 -152.11214609345,42.175187115572 -150.67443435961,42.631750526442 -149.29464684672,43.228787580182 -147.93559308891,43.816853093082 -146.61751432388,44.508337510832 -145.30510798351,45.194222167212 -141.06280821644,47.411316239742 -137.03420643352,50.024222360842 -133.55650272824,53.334641538832 -132.6414164138,54.248516375642 -131.66549016288,55.089645521352 -130.81369475979,56.062782085002 -129.4890017872,57.576182089922 -128.55885671222,60.106637120652 -129.20027830775,62.091092646692 -129.24466421356,62.442443269642 -134.21692037029,61.811744111122 -134.17253446448,61.460393488172 -134.32471321214,60.913126625842 -134.45816859759,60.308515742082 -134.93524042362,59.934981569882 -135.10473615079,59.802271058212 -135.32855939866,59.761647459272 -135.50726989298,59.641633124062 -135.83245005197,59.423256017812 -136.06819163502,59.026384400002 -136.44598491962,58.922929431792 -136.59022244379,58.883431407112 -136.47286655985,59.229054919102 -136.48998718649,59.377619522822 -138.97668154493,57.964742543282 -141.62280622394,56.878847792932 -144.21971873396,55.696096527722 -145.41052995573,55.153747305812 -146.592664127,54.580088502012 -147.78390235073,54.038677808812 -151.41393418348,52.388849913982 -151.59986366652,52.353275326872 -155.26428771925,50.870514593912 -158.2535419419,49.657769042352 -161.33230491559,48.685012539122 -164.3727569621,47.614346845262 -164.97572357911,47.402018000232 -165.56559758578,47.183962013092 -166.16218248162,46.954312842152 -166.49727656798,46.825321847492 -166.86339584486,46.746625641982 -167.15956719743,46.543625018002 -167.24915068231,46.482223051972 -167.22062969013,46.326153554972 -167.24757173117,46.220941727592 -167.60918286905,46.353690021692 -169.48661292232,41.249427064342 -169.12500178445,41.116678770252 -168.73626405505,40.896762377822 -168.36650659982,40.621991054482 -167.95160800115,40.456644767142 -166.81749181989,40.004674332492 -165.36673395857,39.839656259542 -164.18208047231,39.825945608622 z"
 id="path5250"
 inkscape:connector-curvature="0" />
<path
 transform="matrix(0.46935751331898,0,0,0.46935751331898,-217.12392483144,-264.26084937234)"
 d="M 205.00000667572,744.86218261719 A 13.214285850525,13.214285850525 0 1 1 178.57143497467,744.86218261719 13.214285850525,13.214285850525 0 1 1 205.00000667572,744.86218261719 z"
 sodipodi:ry="13.214285850525"
 sodipodi:rx="13.214285850525"
 sodipodi:cy="744.86218261719"
 sodipodi:cx="191.7857208252"
 id="path5252"
 style="fill:none;stroke:#1a1a1a;stroke-width:1;stroke-linecap:round;stroke-linejoin:round;stroke-miterlimit:4;stroke-opacity:1;stroke-dasharray:none;stroke-dashoffset:0"
 sodipodi:type="arc" />
<path
 inkscape:connector-curvature="0"
 id="path5309"
 d="M -91.541278371812,79.891262461662 C -90.119048010902,80.210237758402 -89.056376878872,81.480525100102 -89.056376878872,82.999012583612 L -89.056376878872,82.999012583612 C -89.056376878872,84.757998598182 -90.482316783592,86.183938502912 -92.241302798162,86.183938502912 -94.000288812722,86.183938502912 -95.426228717452,84.757998598182 -95.426228717452,82.999012583612 -95.426228717452,82.837003861232 -95.414132398092,82.677820385622 -95.390793657372,82.522316054762"
 style="fill:none;stroke:#1a1a1a;stroke-width:0.4693575203;stroke-linecap:round;stroke-linejoin:round;stroke-miterlimit:4;stroke-opacity:1;stroke-dasharray:none;stroke-dashoffset:0" />
<path
 inkscape:connector-curvature="0"
 id="path5316"
 d="M -89.534710280482,78.015776948762 C -88.053272619582,78.805010866532 -87.044846660512,80.365189544362 -87.044846660512,82.160898724992 L -87.044846660512,82.160898724992 C -87.044846660512,84.753088693242 -89.146231825462,86.854473858182 -91.738421793702,86.854473858182 -94.029518952852,86.854473858182 -95.937207232322,85.212905302972 -96.349467029512,83.041787795152"
 style="fill:none;stroke:#1a1a1a;stroke-width:0.4693575203;stroke-linecap:round;stroke-linejoin:round;stroke-miterlimit:4;stroke-opacity:1;stroke-dasharray:none;stroke-dashoffset:0" />
<path
 sodipodi:type="arc"
 style="fill:none;stroke:#1a1a1a;stroke-width:1;stroke-linecap:round;stroke-linejoin:round;stroke-miterlimit:4;stroke-opacity:1;stroke-dasharray:none;stroke-dashoffset:0"
 id="path5325"
 sodipodi:cx="234.35539245605"
 sodipodi:cy="683.65649414062"
 sodipodi:rx="22.223356246948"
 sodipodi:ry="16.162441253662"
 d="M 256.578748703,683.65649414063 A 22.223356246948,16.162441253662 0 1 1 212.13203620911,683.65649414063 22.223356246948,16.162441253662 0 1 1 256.578748703,683.65649414063 z"
 transform="matrix(0.38099513398696,-0.25406727165032,0.25406727165032,0.38099513398696,-366.28365582052,-134.89496575871)" />
<path
 inkscape:connector-curvature="0"
 d="M -128.02895809992,103.81382561335 C -127.42713579925,103.26501992514 -126.89422061529,102.63144494907 -126.29711721704,102.07993219156 -125.88399021703,101.69834868083 -125.43110509229,101.36193774635 -125.00903410976,100.99027125674 -124.73911680813,100.75258797564 -122.0692259709,98.306134013312 -121.89004250666,98.142116309682 -117.171503566,93.847538352332 -121.41041501472,97.957200269792 -119.69158684904,95.908620471692 -119.21982074973,95.346347569862 -118.71088172288,94.816341327022 -118.2205291598,94.270201754682 -118.0380951997,93.890482028272 -112.66804732972,96.470487834462 -112.85048128983,96.850207560882 L -112.85048128983,96.850207560882 C -113.36348673347,97.537774268772 -113.81408077813,98.276654574362 -114.38949762076,98.912907684552 -116.76622585508,101.54091684089 -117.04485513074,101.62310880866 -119.4242525391,103.44546637677 -120.07400823762,103.88849949259 -120.70638351318,104.35816422941 -121.37351963466,104.77456572422 -122.26912810317,105.33357114014 -123.63239642365,106.04696504286 -124.62914688927,106.49897877467 -125.33878112109,106.82078892517 -126.10261856425,107.1556143809 -126.88056946289,107.29707392488 -127.08959356791,107.33508204933 -127.30495904364,107.31796075709 -127.51715383402,107.32840417319 -127.76567206729,107.3645941999 -128.27747633319,103.85001564005 -128.02895809992,103.81382561335 z"
 id="path5333"
 style="fill:none;stroke:#1a1a1a;stroke-width:0.4693575203;stroke-linecap:round;stroke-linejoin:round;stroke-miterlimit:4;stroke-opacity:1;stroke-dasharray:none;stroke-dashoffset:0" />
<path
 inkscape:connector-curvature="0"
 d="M -119.32839412636,107.85812149131 C -119.08725185213,107.57149818729 -118.48963900028,106.85856318589 -118.327574192,106.68401825958 -117.98502481389,106.3150901956 -117.62310747873,105.96463058854 -117.2708741221,105.60493675302 -116.80176040199,105.12329853741 -116.32026850713,104.65341413564 -115.86353296177,104.16002210617 -114.42837742304,102.60968447411 -113.56191898592,101.53678370573 -112.17762018516,99.891909859102 -111.10372284732,98.118018247272 -109.68518319575,96.590587265322 -108.45716091506,94.924043286632 -108.20246846163,94.578401207192 -107.98699871181,94.203794319402 -107.71756397866,93.869516564402 -107.64057979931,93.774005127012 -107.52716658953,93.575315321342 -107.42608951373,93.644830954762 -107.2099921145,93.793451672862 -107.17142633652,94.103406446222 -107.04409474791,94.332694191942 -107.2676887339,94.153719165032 -104.73659962996,90.991622690422 -104.51300564396,91.170597717342 L -104.51300564396,91.170597717342 C -104.04761962501,91.659009380912 -103.46615776098,92.058673715932 -103.11684758712,92.635832708042 -102.45042053711,93.736958278602 -102.45272514469,95.310562121322 -102.70324522072,96.501259000572 -103.51694743479,100.36870428605 -106.11281969738,103.04993462164 -108.81902062091,105.75524824621 -109.66125715641,106.42630792815 -110.47218417964,107.1386648123 -111.34573022742,107.76842729203 -113.3495378799,109.21302529502 -115.71130934775,110.55314899093 -118.10834676472,111.22338956568 -118.34630715231,111.30965994196 -119.56635451394,107.94439186759 -119.32839412636,107.85812149131 z"
 id="path5335"
 style="fill:none;stroke:#1a1a1a;stroke-width:0.4693575203;stroke-linecap:round;stroke-linejoin:round;stroke-miterlimit:4;stroke-opacity:1;stroke-dasharray:none;stroke-dashoffset:0" />
<path
 inkscape:connector-curvature="0"
 d="M -107.83849447487,110.02535076316 C -106.86885210376,108.08225405924 -105.52783990013,106.34789296561 -104.43165703975,104.47721823194 -104.04631831713,103.81962410383 -103.70341148825,103.13806839319 -103.3392887125,102.46849347381 -102.35813933351,100.51566885259 -101.41379728032,98.542958735742 -100.62670704948,96.502730155452 -100.18816337783,95.904961312922 -100.23099606961,95.150630961012 -99.978034143172,94.494078476952 -99.957360710452,94.440421415612 -99.890304637472,94.419718420202 -99.846439884622,94.382538391822 -98.827843516332,95.534244359142 -98.829545053112,95.245883068352 -97.538144036062,94.590791810532 -97.676081275332,94.828736634082 -101.04112924097,92.878009488772 -100.9031920017,92.640064665222 L -100.9031920017,92.640064665222 C -100.29537420856,92.213905373022 -99.783912063702,91.596520771652 -99.079738622282,91.361586788622 -97.789345091272,90.931071699472 -97.128040096702,91.724166226462 -96.234229668102,92.365287188192 -95.979108344842,92.758038559012 -95.655055702442,93.113804391342 -95.468865698312,93.543541300662 -94.327053086792,96.178908462342 -95.181209758692,99.480532209802 -96.258653271742,101.96849243146 -96.642358233142,102.85451816669 -97.153913785522,103.67951347635 -97.601544042412,104.53502399879 -98.129425658532,105.28459414209 -98.624857882802,106.05810121427 -99.185188890772,106.78373442869 -100.71014905019,108.75857024288 -102.5668082699,110.55207902534 -104.71018974922,111.84173954233 -104.83862783152,112.06294409084 -107.96693255717,110.24655531167 -107.83849447487,110.02535076316 z"
 id="path5337"
 style="fill:none;stroke:#1a1a1a;stroke-width:0.4693575203;stroke-linecap:round;stroke-linejoin:round;stroke-miterlimit:4;stroke-opacity:1;stroke-dasharray:none;stroke-dashoffset:0" />
</g>
<path
 id="path5377"
 style="fill:none;stroke:#000000;stroke-width:1px;stroke-linecap:butt;stroke-linejoin:miter;stroke-opacity:1"
 d="M -230.31477357426,429.09805180188 C -299.47694858734,430.60501783127 -347.35369630534,498.60521046623 -348.24547816429,536.58261783718 -348.24547816429,536.58261783719 -340.29950615917,607.49550476756 -337.65006498646,582.64124927382 -335.00062381375,557.78699378009 -353.75955912446,641.73417850321 -343.80166707067,652.75528061991 -331.31379484762,666.57649039471 -297.86953913768,648.62322148772 -290.33121641192,661.14671450295 -281.95550307668,675.89721084212 -302.61790010608,686.04924791142 -288.90362781176,696.78848683886 -267.88597878476,708.65000164486 -251.88461187822,691.91691972432 -231.32493288554,694.76818174974 -208.76485934284,695.33016650255 -185.19463325478,706.93160529313 -162.63455971208,700.82909702347 -150.06570454192,687.04279551028 -163.3628828221,670.74641885426 -168.21694495716,659.44910552753 -154.75695575356,653.14108163861 -117.31774111691,665.93991788646 -112.00887700206,653.89968215899 -100.27952814572,627.29811125699 -111.11677993006,579.35005565216 -111.11677993006,599.8138425448 -111.11677993006,639.76490372959 -105.0558597366,539.2046861208 -105.0558597366,539.2046861208 -115.83873719318,456.07648036843 -162.36988522957,427.6176090803 -230.31477357426,429.09805180188 z"
 inkscape:connector-curvature="0"
 sodipodi:nodetypes="sczscccccsscs" />
</g>
</svg>
