<?xml version="1.0" encoding="UTF-8" standalone="no"?>
<!-- Created with Inkscape (http://www.inkscape.org/) -->

<svg
   xmlns:dc="http://purl.org/dc/elements/1.1/"
   xmlns:cc="http://creativecommons.org/ns#"
   xmlns:rdf="http://www.w3.org/1999/02/22-rdf-syntax-ns#"
   xmlns:svg="http://www.w3.org/2000/svg"
   xmlns="http://www.w3.org/2000/svg"
   xmlns:sodipodi="http://sodipodi.sourceforge.net/DTD/sodipodi-0.dtd"
   xmlns:inkscape="http://www.inkscape.org/namespaces/inkscape"
   sodipodi:docname="letter sized frame blank.svg"
   inkscape:version="0.48.2 r9819"
   version="1.1"
   id="svg3783"
   height="1052.3622047"
   width="744.09448819">
  <sodipodi:namedview
     id="base"
     pagecolor="#ffffff"
     bordercolor="#666666"
     borderopacity="1.0"
     inkscape:pageopacity="0.0"
     inkscape:pageshadow="2"
     inkscape:zoom="0.35"
     inkscape:cx="337.37353"
     inkscape:cy="795.54504"
     inkscape:document-units="px"
     inkscape:current-layer="layer1"
     showgrid="false"
     inkscape:window-width="1024"
     inkscape:window-height="748"
     inkscape:window-x="10"
     inkscape:window-y="-16"
     inkscape:window-maximized="0"
     inkscape:object-nodes="true" />
  <defs
     id="defs3785">
    <inkscape:perspective
       sodipodi:type="inkscape:persp3d"
       inkscape:vp_x="-314.90439 : 155.3937 : 0"
       inkscape:vp_y="0 : 1000 : 0"
       inkscape:vp_z="372.04724 : 175.3937 : 0"
       inkscape:persp3d-origin="334.90438 : 296.50168 : 1"
       id="perspective3823" />
  </defs>
  <metadata
     id="metadata3788">
    <rdf:RDF>
      <cc:Work
         rdf:about="">
        <dc:format>image/svg+xml</dc:format>
        <dc:type
           rdf:resource="http://purl.org/dc/dcmitype/StillImage" />
        <dc:title></dc:title>
      </cc:Work>
    </rdf:RDF>
  </metadata>
  <g
     inkscape:label="Layer 1"
     inkscape:groupmode="layer"
     id="layer1">
    <flowRoot
       xml:space="preserve"
       id="flowRoot3475"
       style="fill:black;stroke:none;stroke-opacity:1;stroke-width:1px;stroke-linejoin:miter;stroke-linecap:butt;fill-opacity:1;font-family:Sans;font-style:normal;font-weight:normal;font-size:40px;line-height:125%;letter-spacing:0px;word-spacing:0px"><flowRegion
         id="flowRegion3477"><rect
           id="rect3479"
           width="474.7717"
           height="76.771591"
           x="40.406101"
           y="840.23016" /></flowRegion><flowPara
         id="flowPara3481" /></flowRoot>    <path
       style="fill:none;stroke:#000000;stroke-width:1;stroke-miterlimit:4;stroke-opacity:1;stroke-dasharray:none"
       d="M 761.78125 -84.09375 C 734.18371 -84.093749 706.55959 -81.936734 700.625 -77.625 C 692.48521 -71.711095 675.62055 -25.777026 667.28125 7 C 655.29916 5.102192 637.02636 4.1562495 618.71875 4.15625 C 591.12121 4.1562507 563.52834 6.3132659 557.59375 10.625 C 545.72456 19.248468 515.27887 112.95319 519.8125 126.90625 C 520.52633 129.10319 523.10628 132.39624 527 136.375 C 525.66441 136.36486 524.33808 136.34375 523 136.34375 C 495.40246 136.34375 467.80959 138.50077 461.875 142.8125 C 458.42729 145.31741 453.41983 155.07983 448.15625 167.90625 C 431.11595 168.85402 417.24843 170.75122 413.25 173.65625 C 410.35461 175.75987 406.35999 182.94497 402.03125 192.78125 C 399.76201 193.40608 398.013 194.08506 396.96875 194.84375 C 389.08299 200.57309 373.01645 243.84471 364.4375 276.34375 C 359.1191 245.5714 337.06248 181.88212 327.375 174.84375 C 319.21237 168.91325 270.07133 167.086 236.3125 169.3125 C 227.55392 141.4112 215.99818 112.80373 209.6875 108.21875 C 203.75291 103.90702 176.16004 101.75 148.5625 101.75 C 120.96496 101.75 93.372093 103.90702 87.4375 108.21875 C 83.152518 111.33197 76.44838 125.56145 69.84375 143.09375 C 61.520417 141.9506 50.759083 141.22116 39.21875 140.875 C 38.388581 139.78658 37.615531 138.92157 36.90625 138.40625 C 25.037064 129.78278 -73.474565 129.78278 -85.34375 138.40625 C -97.212935 147.02972 -127.65863 240.73444 -123.125 254.6875 C -118.83696 267.8847 -47.307388 320.40983 -27.15625 326.0625 C -31.505743 342.5218 -33.961996 356.24558 -32.4375 360.9375 C -31.772017 362.98565 -29.461316 366.00549 -26 369.625 C -37.088033 400.04662 -47.29211 438.0967 -44.53125 446.59375 C -39.997624 460.54681 39.70388 518.46875 54.375 518.46875 C 67.13429 518.46875 129.02674 474.6561 147.9375 454.0625 C 168.18471 468.30477 188.09097 480.15625 194.71875 480.15625 C 201.03749 480.15625 219.41243 469.40425 238.65625 456.0625 C 242.3793 459.83143 247.28647 464.20505 252.84375 468.84375 C 240.43387 500.25337 227.39036 546.4632 230.46875 555.9375 C 232.74293 562.9367 253.93714 580.98416 276.34375 597.25 C 265.58405 619.01612 251.25151 663.24006 247.21875 687.0625 C 242.02265 674.45346 237.06611 664.91491 233.65625 662.4375 C 227.72166 658.12577 200.09754 655.96875 172.5 655.96875 C 144.90246 655.96875 117.30959 658.12577 111.375 662.4375 C 99.505815 671.06097 69.060124 764.76569 73.59375 778.71875 C 74.573828 781.73512 79.097822 786.7793 85.6875 792.875 C 83.48301 803.14281 82.536174 811.11769 83.625 814.46875 C 84.214791 816.28394 86.081581 818.85958 88.90625 821.9375 C 88.402579 826.20626 88.398979 829.494 89 831.34375 C 93.533626 845.29681 173.23513 903.21875 187.90625 903.21875 C 189.07244 903.21875 190.67615 902.80563 192.59375 902.125 C 218.34348 924.0893 261.93445 953.59375 272.40625 953.59375 C 287.07737 953.59375 366.77887 895.70306 371.3125 881.75 C 375.35601 869.30538 351.60472 793.47393 338 771.09375 C 341.19651 772.47192 343.78066 773.25 345.46875 773.25 C 354.25301 773.25 386.33794 752.49899 411.65625 732.84375 C 417.70394 736.00988 422.48096 737.90625 425.125 737.90625 C 439.79612 737.90625 519.49762 679.98431 524.03125 666.03125 C 528.56488 652.07819 498.11919 558.37347 486.25 549.75 C 480.51428 545.58275 454.55548 543.45214 427.90625 543.3125 C 425.66178 528.727 419.06479 505.38242 411.71875 484.4375 C 429.62686 496.63172 446.16662 506.09375 452.09375 506.09375 C 457.72335 506.09375 472.92249 497.5502 489.78125 486.25 C 508.65768 499.27156 526.5101 509.65625 532.71875 509.65625 C 547.38987 509.65625 627.09137 451.73431 631.625 437.78125 C 632.41843 435.33934 632.12471 430.41242 631.0625 423.96875 C 640.32641 415.91195 646.94541 409.03907 648.15625 405.3125 C 652.68988 391.35944 622.24419 297.65472 610.375 289.03125 C 608.18348 287.43902 603.00886 286.1605 596 285.15625 C 609.75371 274.03105 620.33767 263.92134 621.90625 259.09375 C 624.28592 251.76988 617.02487 222.46306 607.875 195.03125 C 612.6709 197.38306 616.47124 198.78125 618.71875 198.78125 C 633.38987 198.78125 713.09137 140.85931 717.625 126.90625 C 719.5031 121.12606 715.38272 101.65327 709.0625 80.21875 C 731.22276 96.275002 754.50693 110.53125 761.78125 110.53125 C 776.45237 110.53125 856.15387 52.609314 860.6875 38.65625 C 865.22113 24.703186 834.77544 -69.001532 822.90625 -77.625 C 816.97166 -81.936734 789.37879 -84.093751 761.78125 -84.09375 z M -369.6875 164.53125 C -371.52023 164.52994 -373.36047 164.5446 -375.1875 164.5625 C -400.98086 164.81514 -425.56132 166.989 -431.125 171.03125 C -442.07666 178.9881 -468.83238 259.31446 -469.34375 282.65625 C -479.1314 311.20448 -487.28027 343.12131 -484.78125 350.8125 C -480.24762 364.76556 -400.54612 422.6875 -385.875 422.6875 C -371.20388 422.6875 -291.50238 364.76556 -286.96875 350.8125 C -285.28278 345.62363 -288.45287 329.39515 -293.6875 310.625 C -281.57741 300.59136 -272.53338 291.71197 -271.09375 287.28125 C -266.56012 273.32819 -297.00581 179.65472 -308.875 171.03125 C -314.78641 166.73636 -342.1966 164.55093 -369.6875 164.53125 z M 366.84375 321.0625 C 368.1982 322.42983 369.7461 323.9034 371.375 325.40625 C 370.1127 325.26747 368.80938 325.15481 367.46875 325.03125 C 367.28892 323.77566 367.09051 322.4544 366.84375 321.0625 z M 651.84375 601.5625 C 624.24621 601.5625 596.65334 603.71952 590.71875 608.03125 C 578.84956 616.65472 548.40387 710.35944 552.9375 724.3125 C 555.15835 731.14756 575.43416 748.51661 597.25 764.46875 C 565.49297 760.36409 500.84866 761.77323 491.375 768.65625 C 479.50581 777.27972 449.06012 870.95319 453.59375 884.90625 C 458.12738 898.85931 537.82888 956.78125 552.5 956.78125 C 567.17112 956.78125 646.87262 898.85931 651.40625 884.90625 C 655.0872 873.57746 635.70939 809.68824 621.9375 781.4375 C 635.53847 790.09914 647.10029 796.15625 651.84375 796.15625 C 666.51487 796.15625 746.21637 738.26556 750.75 724.3125 C 755.28363 710.35944 724.83794 616.65472 712.96875 608.03125 C 707.03416 603.71952 679.44129 601.5625 651.84375 601.5625 z M -118.25 621.34375 C -145.84754 621.34375 -173.44041 623.50077 -179.375 627.8125 C -185.79844 632.4794 -197.65265 662.05964 -206.46875 690.4375 C -239.38238 686.94088 -299.13866 688.49668 -308.21875 695.09375 C -320.08794 703.71722 -350.53363 797.42194 -346 811.375 C -341.46637 825.32806 -261.76487 883.21875 -247.09375 883.21875 C -239.58945 883.21875 -215.08383 868.07601 -192.3125 851.40625 C -166.4397 873.25873 -123.92053 901.9375 -113.59375 901.9375 C -98.92263 901.9375 -19.221125 844.04681 -14.6875 830.09375 C -14.049868 828.13132 -14.121562 824.53379 -14.71875 819.875 C -9.2097188 814.60622 -5.4728021 810.23669 -4.59375 807.53125 C -2.1833452 800.11279 -9.6837477 770.13954 -19 742.40625 C -16.84699 723.89459 -45.65733 636.14425 -57.125 627.8125 C -63.059593 623.50077 -90.652463 621.34375 -118.25 621.34375 z M 257.21875 714.25 C 272.28304 728.51779 300.02968 749.13075 320.875 761.84375 C 308.41026 759.88178 289.21232 758.92253 270.25 759 C 269.72275 757.32438 269.20187 755.6435 268.65625 753.96875 C 268.63582 753.90604 268.6142 753.84395 268.59375 753.78125 C 265.90383 742.07711 261.7844 727.92342 257.21875 714.25 z "
       id="path11082" />
    <path
       style="fill:none;stroke:#000000;stroke-width:1;stroke-miterlimit:4;stroke-opacity:1;stroke-dasharray:none"
       d="m 753.65625,-77.9375 c -16.76647,1.23035 -34.60406,-1.184509 -50.125,6.46875 -13.3659,19.43827 -18.52589,43.026328 -26.31342,65.0218655 C 675.22893,0.1995808 673.47915,6.897594 671.75,13.65625 635.19895,9.5788876 597.29237,6.9597607 561.40625,15.8125 552.1425,25.831684 549.88521,39.899178 544.125,51.84375 c -8.57564,23.764274 -17.05069,48.129463 -18.34375,73.4375 2.53534,6.33125 11.07886,8.78063 11.34375,16.4375 -6.56421,2.53776 -13.53651,-0.41114 -20.28125,0.90625 -17.83251,0.41916 -36.99315,-1.15227 -53.28125,7.15625 -6.33517,7.09609 -5.48323,20.20471 -15.34375,24.15625 -11.3277,2.16905 -25.64282,-1.6089 -34.15625,8.125 -3.87869,6.65131 -6.12133,15.18531 -13.625,18.71875 -9.01285,9.27304 -11.10906,22.97457 -16.65675,34.40763 -7.65023,20.97211 -13.67318,42.62784 -20.21825,64.02987 -9.16908,-40.78895 -17.91158,-82.80377 -39.46875,-118.96875 -12.25703,-5.74947 -26.27171,-3.72961 -39.37435,-5.56726 -17.56362,-0.68248 -35.14386,-0.0279 -52.68815,0.84851 -7.94544,-21.24364 -12.42387,-44.59782 -26.875,-62.75 -21.70714,-5.99729 -44.56768,-4.08584 -66.87493,-4.98291 -16.1376,0.34286 -33.19551,0.47331 -48.06257,6.57666 -8.639548,9.7887 -9.982259,23.8192 -16.75,34.4375 -4.491475,2.28605 -9.16372,-1.72429 -13.90625,-0.875 -8.17338,-1.0703 -17.387372,0.65434 -24.84375,-2.90625 -8.552289,-7.26245 -20.645211,-4.01115 -30.8414863,-6.06388 -28.6222947,-1.2508 -58.3619887,-3.32966 -85.9710137,5.09513 -8.93872,10.68158 -11.547292,24.9003 -17.34375,37.3125 -8.27108,22.76302 -16.09345,46.11753 -17.6875,70.46875 7.69074,14.53705 23.15202,22.14708 34.90625,32.96875 18.342863,14.58303 38.595668,26.86649 59.28125,37.5 4.123063,7.1433 -1.746103,14.99025 -2.75,22.25 -2.190053,7.83285 -1.358078,17.17818 4.90625,22.84375 2.200661,7.73132 -4.548814,14.07374 -5.391887,21.51069 -5.919487,18.18922 -12.242888,36.60897 -12.295613,55.95806 11.324343,15.98889 28.7718358,25.87203 43.4823881,38.31509 C 20.558698,494.3384 36.635571,506.38433 55.03125,511.96875 68.45503,508.51146 79.040891,498.80036 91,492.3125 c 19.88151,-13.28858 37.93816,-29.1057 56.1875,-44.59375 7.57431,0.76116 11.54707,8.23002 18.3125,10.78125 9.84709,6.25421 20.00451,15.05056 32.28125,14.5 15.72039,-4.8924 27.29272,-17.59087 42.40625,-23.84375 6.01936,4.56721 10.00777,11.49283 16.90625,14.9375 5.37071,4.53084 -1.24781,11.42416 -2.09129,16.62746 -8.6349,23.68768 -17.54489,47.85872 -18.37746,73.31004 7.94458,13.22917 22.07545,20.92303 33.375,31 4.5445,3.51711 9.19427,6.88456 13.8125,10.3125 -15.25554,31.51826 -24.91552,65.44178 -32.59375,99.5625 -3.50871,2.40465 -1.33417,6.7976 2.16361,8.28882 26.74465,23.19764 54.2316,45.82284 85.77389,62.08618 12.00883,4.99784 22.07792,-6.29876 31.96875,-11.25 13.90145,-8.58553 26.99172,-18.48495 40.0625,-28.3125 6.51509,5.02737 16.54313,8.55778 23.37862,2.11624 30.41398,-16.55115 58.93943,-36.88596 82.55888,-62.08499 3.53742,-12.26038 -3.13884,-24.23445 -5.18942,-36.19076 -7.05119,-24.92099 -14.57867,-50.55444 -27.96683,-72.80924 -9.75399,-7.95214 -23.35989,-4.84051 -34.9643,-6.81964 -8.74505,-0.42557 -17.50056,-0.59457 -26.25445,-0.71161 -3.96257,-27.29186 -13.4513,-53.25004 -22.34375,-79.25 17.54827,9.81852 32.77322,25.03261 52.6875,29.71875 13.535,-3.20142 23.29175,-14.38629 36.03125,-18.96875 10.25144,1.31065 16.71687,10.63588 25.70946,14.70731 7.6387,5.23895 18.52668,10.25646 27.19567,4.2738 24.49884,-12.29559 45.77571,-29.76756 67.29281,-46.60456 6.29959,-5.531 13.34626,-11.46416 16.58331,-19.3453 -1.08121,-6.49707 -1.62451,-15.62999 5.875,-18.40625 7.14622,-4.73438 13.37217,-13.97716 9.5856,-22.73639 -5.568,-32.47557 -16.95097,-64.03219 -30.99185,-93.70111 -3.96944,-6.57794 -11.81743,-8.15786 -18.875,-8.28125 -2.86826,0.3804 -7.99979,-1.89336 -5.3125,-5.28125 10.17958,-9.50536 24.06332,-16.50497 29.84375,-29.78125 -0.94925,-25.06849 -11.50538,-48.24107 -18.15625,-72.1875 9.0016,4.11684 20.05053,13.65306 29.8125,5.84375 30.34556,-17.117 59.46532,-37.13918 83,-62.5625 3.74131,-12.07917 -2.98925,-23.94881 -4.89575,-35.775151 -2.35662,-8.504232 -4.90888,-16.892156 -7.10425,-25.474849 20.66141,13.742436 39.49408,30.939527 63.40625,38.875 18.59412,-6.07466 33.70658,-19.436311 50.0662,-29.806215 15.34022,-11.152247 31.25361,-22.766628 42.4338,-38.100035 1.4295,-13.263981 -4.88322,-25.734138 -7.09375,-38.5625 -6.81346,-23.684058 -14.46329,-47.79144 -27.15625,-69.03125 -10.23636,-6.953286 -23.31831,-4.440788 -34.93587,-6.3383 -10.5736,-0.522395 -21.16877,-0.405637 -31.75163,-0.38045 z M -376.5,170.6875 c -17.25965,1.08664 -35.50458,-1.11059 -51.59375,6.25 -13.72851,20.09553 -19.09433,44.41143 -27.1137,67.18123 -6.77324,26.41616 -11.53864,53.39225 -20.04255,79.28752 -2.3173,10.21615 -7.09173,23.43648 1.28125,31.9375 11.84975,12.54693 26.39475,21.95987 39.82042,32.76027 14.95401,10.96702 30.56569,22.15618 48.27333,27.92723 11.13298,-0.82209 19.00449,-10.33694 28.80137,-14.81508 23.22221,-15.08505 47.06048,-30.83571 64.13613,-52.99742 1.17085,-11.31697 -3.49667,-22.19618 -5.83641,-33.02371 -2.03515,-3.6313 -1.57345,-8.92488 2.68016,-10.63254 7.04839,-6.70698 18.31726,-12.13204 18.97196,-22.93339 -3.394,-33.14733 -16.38547,-64.24505 -28.62821,-94.97286 -3.20329,-7.15232 -9.13092,-13.62345 -17.5,-13.375 -17.53082,-2.76739 -35.50806,-2.56424 -53.25,-2.59375 z m 740.59375,140.90625 c 6.56854,3.14944 11.32888,9.22777 15.71875,14.40625 0.56455,6.77685 -8.53495,7.60988 -12.9375,4.90625 -6.7672,-3.14215 -9.84097,-14.16775 -4.46875,-19.34375 0.56875,-0.10107 1.18045,-0.52426 1.6875,0.0312 z M 649.6875,607.625 c -18.82193,1.44641 -39.05775,-1.80703 -56.4375,6.875 -13.69413,21.22127 -19.29672,46.15808 -27.48283,69.72758 -3.43199,12.61806 -7.62711,26.09486 -6.14217,39.20992 9.35041,13.48262 24.39741,22.21328 36.82708,32.91802 17.04331,12.57561 34.34531,26.0719 54.57917,33.08198 10.9767,-0.68603 19.16102,-9.02122 28.59788,-13.8765 22.14796,-14.79879 44.69099,-30.14314 62.71462,-49.811 6.19991,-9.43179 -0.49109,-20.64112 -1.87532,-30.54476 C 733.49095,667.80135 725.3696,640.05264 711,615.5 c -5.20533,-6.8658 -15.16614,-5.06177 -22.68488,-6.44727 -12.86691,-0.82938 -25.72342,-1.71099 -38.62762,-1.42773 z M -124.75,627.46875 c -17.4103,1.3616 -36.3317,-1.57179 -52.1875,6.96875 C -189.58292,652.62959 -193.60032,674.978 -202,695 c -4.48793,4.46187 -10.63541,-0.41514 -15.93439,0.76344 -28.97043,-1.51478 -59.07889,-3.44417 -87.03436,5.04906 -8.896,10.45724 -11.35999,24.43781 -17.125,36.59375 -8.12428,23.01019 -16.55814,46.77501 -17.78125,71.09375 6.69098,13.99149 21.61901,20.78806 32.43715,31.0827 18.55894,14.14287 37.75566,28.84503 59.8441,37.07355 11.34309,-0.76697 19.35506,-10.02564 29.2855,-14.5925 8.95587,-5.79451 17.66738,-11.98722 26.277,-18.2825 24.3242,19.57919 48.79154,39.88974 77.84375,51.90625 18.155295,-4.57266 32.201091,-18.26505 48.007791,-27.63445 16.377453,-11.70095 33.288555,-24.17374 45.617209,-40.0843 -0.994163,-7.25165 1.687099,-15.05744 8.125,-18.84375 5.6440797,-8.5045 -0.286556,-18.85724 -1.53125,-27.84375 -5.538719,-20.95063 -12.064871,-41.75141 -14.75,-63.25 -6.881054,-28.5189 -16.162151,-56.90033 -30.0625,-82.71875 -8.229912,-8.02929 -20.81878,-5.28866 -31.247785,-7.12902 -11.555925,-0.7197 -23.146165,-0.80518 -34.720965,-0.71473 z M 169.28125,662.125 c -18.37911,0.91203 -37.67058,-1.05563 -54.96875,6.09375 -14.736361,23.49186 -21.402228,50.81183 -29.693713,76.99787 -2.726333,10.83421 -5.789901,22.21068 -4.337537,33.37713 4.177274,5.54615 13.143986,10.32636 10.8125,18.5625 -2.209808,7.07281 -3.613448,16.62969 2.96875,21.90625 0.403325,6.15986 0.01919,14.01659 6.49309,17.2336 24.91397,24.08688 53.65822,44.89578 84.88191,60.04765 6.04651,0.0781 13.21694,0.11747 16.90012,5.78807 21.35843,17.00302 43.15941,34.53179 68.66238,44.61818 10.03382,0.56591 17.68485,-7.60041 26.08276,-11.97899 24.2528,-16.02014 49.96582,-31.96406 68.10474,-55.05226 1.56782,-13.40989 -4.93009,-26.13972 -7.19059,-39.16757 -6.96467,-25.34298 -15.87235,-50.85219 -29.43441,-73.33243 -15.30325,1.80849 -30.23061,-3.32427 -45.56122,-2.10123 -5.77035,-0.11869 -11.54239,-0.12253 -17.31378,-0.11752 -7.40498,-27.09412 -14.4975,-54.47558 -25.88063,-80.15573 -3.24952,-8.35126 -7.5364,-19.13315 -17.96312,-19.81302 -17.31482,-2.6293 -34.98413,-3.15922 -52.5625,-2.90625 z m 376.6875,106 c -16.52257,0.75169 -33.57027,0.47381 -49.5,5.34375 -6.45054,3.36665 -7.63118,11.75106 -11.08142,17.5754 -11.63944,29.21232 -23.19905,59.05941 -25.88733,90.64335 5.58909,12.38973 18.39643,18.69434 27.90741,27.73701 19.93266,15.31647 40.36564,31.33906 63.87384,40.63799 11.80254,-0.18838 20.0863,-10.11949 30.21923,-14.89071 23.18829,-14.89403 46.69232,-30.88622 63.84327,-52.54679 1.44054,-11.90254 -4.28168,-23.12679 -6.00913,-34.77834 C 632.48873,821.76295 622.6022,796.46707 611,772.125 c -21.56317,-2.69816 -43.28839,-4.3138 -65.03125,-4 z m 73.375,5.03125 c 0.21019,-0.20495 -0.51023,-0.14977 0,0 z"
       id="path11183"
       inkscape:connector-curvature="0" />
    <path
       style="fill:none;stroke:#000000;stroke-width:1;stroke-miterlimit:4;stroke-opacity:1;stroke-dasharray:none"
       d="m 751.90625,-63.75 c -12.9751,0.764532 -26.40865,-0.803658 -38.84375,3.46875 -14.55151,24.83393 -20.12777,53.5016442 -28.65625,80.6875 -3.60877,7.138687 -12.68964,8.941275 -19.83061,6.646147 -31.44371,-3.497115 -63.65556,-5.25875 -94.79439,1.197603 -12.25044,22.04823 -18.54713,47.016115 -26.06288,70.905647 -1.71936,7.177273 -3.19318,14.734833 -3.12462,22.063103 8.14819,7.35095 13.96653,19.63708 9,30.40625 -17.47524,9.39183 -37.85741,2.75933 -56.625,5.5 -6.72442,0.25697 -13.66729,0.81349 -19.71875,4.03125 -4.08952,12.12457 -12.0214,26.16574 -26.1875,27.25 -7.13082,1.44399 -15.41979,-1.65192 -21.75,2.84375 -5.21344,13.61116 -19.48452,21.46994 -23.37361,35.89634 -9.65129,24.72263 -17.51921,50.29369 -24.53264,75.85366 -0.11095,2.63226 4.0411,2.54591 5.15625,4.8125 7.90844,6.78456 14.5983,18.94656 8.34375,28.875 -9.07369,14.09308 -32.64964,12.16591 -40.53125,-2.1875 -5.95004,-8.8328 -6.48524,-21.53061 0.0625,-30.21875 -8.75976,-38.3742 -16.60866,-77.70394 -35.78125,-112.3125 -29.1918,-5.73496 -59.27399,-2.87636 -88.83571,-2.14139 -5.23786,1.47702 -4.77556,-6.10366 -6.94554,-9.26486 -6.88636,-18.56376 -10.84898,-38.51007 -21.90625,-55.1875 -31.49148,-5.25194 -63.9853,-4.47847 -95.5625,-0.28125 -8.126214,4.71644 -7.390818,15.97001 -11.78125,23.375 -3.481076,8.99322 -12.382845,16.5409 -22.53125,14.65625 C 58.849309,161.88789 50.597362,160.98938 42.3125,161.3125 30.340104,159.35246 19.562921,152.11491 7.0351681,153.46862 -19.68074,151.78968 -47.070825,149.83154 -73.25,156.15625 c -12.552673,23.49952 -19.837623,49.4912 -26.8125,75.03125 -0.78365,5.8105 -3.27496,12.27904 -1.90625,17.78125 14.219658,16.39727 33.210407,27.4203 50.22189,40.75052 13.870575,9.13884 30.114946,15.38007 41.87186,27.31198 6.2140445,11.66082 -2.149949,24.37963 -2.65625,36.25 3.0665345,8.02885 9.5780979,16.98396 4.6092899,25.72585 -6.6424689,19.92151 -15.2803909,40.00747 -15.9217899,61.27415 10.394259,12.3535 24.38098123,21.29885 37.053557,31.37648 12.924923,9.15279 25.864181,19.03968 40.633943,24.87352 7.303487,-0.3515 12.686221,-6.50099 19.232257,-9.33319 24.712207,-14.81838 45.785793,-34.78891 68.486493,-52.26056 11.79823,-4.61832 22.22678,5.62846 31.13341,11.69606 7.35856,4.50012 14.78428,12.05408 23.83534,11.64769 9.93337,-3.10246 17.34464,-11.20737 26.5,-15.9375 6.31598,-3.88513 12.94863,-7.17513 20.15625,-9.09375 9.66906,10.14091 23.01507,17.41513 29.15625,30.34375 2.7795,14.2989 -7.86638,26.19184 -10.54582,39.64677 -5.15219,15.12577 -9.78612,30.60654 -10.89168,46.63448 12.54953,15.96962 32.4174,23.62535 45.15625,39.1875 4.95241,11.04722 -4.73724,20.98785 -7.875,31 -9.90976,24.33687 -16.81613,49.65075 -22.71875,75.21875 25.55515,20.52663 50.31066,44.29508 80.875,56.59375 12.10755,-4.38916 21.6298,-13.84279 32.82137,-19.97665 11.89297,-8.27479 23.28602,-17.20036 34.86613,-25.89835 0.64367,6.62553 9.08131,14.0101 15.15625,9.28125 21.34664,-12.79124 42.75137,-26.1868 61.23896,-43.08 4.33064,-4.35386 10.1115,-8.36025 13.29229,-13.4825 -0.98533,-18.00391 -9.25907,-34.39525 -13.35319,-51.81312 -4.44463,-14.24705 -8.8692,-29.01731 -18.58431,-40.53063 -15.82446,-3.56419 -32.31648,-1.93121 -48.40625,-3.09375 -5.37882,0.95123 -13.55811,-0.30005 -13.75,-7.15625 -4.93984,-38.47109 -21.19103,-74.19873 -32.21875,-111.15625 28.98409,5.54412 48.74003,30.22652 75.8125,40 13.52012,-5.9196 24.90259,-19.79542 41,-17.46875 15.09073,2.60404 23.90599,18.7479 39.125,20.5625 16.38067,-6.74768 30.02075,-18.46539 44.71875,-28.28125 11.85943,-8.73568 23.81948,-17.80117 33.15625,-29.28125 -0.89074,-10.40302 2.89993,-22.04422 12.71875,-26.90625 3.6347,-2.13991 5.76634,-6.53601 3.446,-10.3839 -6.39815,-30.23886 -15.04385,-60.28633 -30.1335,-87.4286 -9.28501,-1.24235 -21.8395,-2.89244 -24.9375,-13.40625 -3.6189,-11.12615 6.07426,-20.86344 14.75,-26.1875 6.37143,-4.74336 16.80149,-10.29793 14.03916,-19.77019 -4.14482,-27.49977 -17.29926,-52.79734 -21.66416,-80.32356 13.0813,-4.08214 24.42632,5.58064 35.71875,10.375 6.99945,3.23543 12.60806,-4.87321 18.71875,-7.125 23.02654,-13.88546 45.2808,-29.67152 63.5,-49.40625 -1.00757,-19.34134 -10.10381,-36.924112 -13.51298,-55.900359 -2.4449,-9.336791 -4.95447,-18.653435 -7.45577,-27.974641 30.8954,13.554716 54.36576,39.843952 85.4375,53.15625 28.08637,-13.595987 52.5088,-33.178277 75.75,-53.8125 3.89026,-3.526756 2.95045,-8.785718 1.38774,-13.1348 -5.60428,-26.239759 -14.09453,-52.102846 -25.24643,-76.584192 -2.2612,-5.5825 -7.76539,-8.54649 -13.54756,-8.124758 -16.01938,-1.870929 -32.19794,-1.127135 -48.28125,-1.3125 z M -369.5625,184.75 c -16.32981,0.98889 -33.32366,-1.33022 -49.03125,3.5625 -25.00808,45.87993 -29.93427,99.10546 -45.34375,148.3125 -1.97683,5.97562 0.83193,12.4047 6.50059,15.18363 22.87065,18.13082 45.01127,38.05061 72.18691,49.34762 8.79267,-2.06755 14.81789,-9.63888 22.815,-13.49829 20.07633,-13.15374 41.32192,-25.7804 55.59125,-45.56421 -1.28883,-13.64843 -10.67125,-27.47625 -4.53125,-41.25 4.09535,-9.2247 16.43611,-11.27297 20.03125,-20.34375 -4.74248,-32.23228 -15.56307,-63.32819 -30.375,-92.28125 -7.50573,-3.73774 -16.30992,-1.28302 -24.34375,-2.96875 -7.82251,-0.46068 -15.66459,-0.68339 -23.5,-0.5 z M 653.03125,621.59375 C 636.38717,623.07305 619.10553,620.0564 603,625.625 c -14.94337,28.38645 -23.93382,59.75775 -29.75,91.03125 2.62083,7.80714 11.44923,10.74972 16.60893,16.61135 18.50509,14.90426 37.57563,29.46782 58.82857,40.2949 8.05104,2.71281 14.05934,-5.06002 20.62381,-8.14332 18.88745,-12.52726 37.75353,-25.2246 54.40744,-40.63793 3.67702,-3.89456 8.59025,-8.37539 6.0625,-14.25 -3.1408,-14.42758 -8.04216,-28.54649 -11.70117,-42.90611 -4.62239,-15.12851 -9.75806,-30.4913 -19.39258,-43.15639 -15.00914,-2.67689 -30.4413,-2.08359 -45.65625,-2.875 z m -778,20.03125 c -14.31037,1.5739 -30.36653,-2.30109 -43.125,4.875 -12.04638,18.77589 -12.24607,43.43783 -26.84375,60.71875 -11.15852,7.31056 -24.52753,0.66835 -36.68612,1.88494 -21.57466,-1.05134 -43.54655,-1.5324 -64.59513,3.86506 -12.48817,23.34328 -19.45732,49.15716 -26.6875,74.5 -0.9797,6.04336 -3.58192,13.16699 -1.40625,18.96875 14.61066,16.34769 34.16889,27.06831 51.1072,40.84499 8.51874,5.91307 17.64847,11.64335 27.67405,14.28001 18.72323,-8.67774 34.32579,-22.79235 52,-33.3125 7.73553,-1.7791 11.47794,7.11685 17.38855,10.30085 19.63306,15.88725 39.435,31.52125 62.5177,42.0429 24.013382,-10.52749 43.924457,-28.10224 64.817533,-43.53069 4.796497,-4.58996 11.292108,-8.91852 13.963717,-15.12556 0.328274,-8.76372 6.588994,-15.83761 10.25,-23.0625 -2.228272,-16.76692 -9.525469,-32.28125 -11.975971,-48.98118 -8.230672,-35.66694 -14.17725,-73.24199 -33.774029,-104.83132 -5.786859,-3.36615 -13.150766,-1.75058 -19.5625,-2.71875 -11.67805,-0.30749 -23.38832,-1.19105 -35.0625,-0.71875 z m 298.25,34.46875 c -16.46766,0.94536 -33.36936,-1.01223 -49.375,3.625 -15.17395,28.81274 -24.904978,60.70548 -29.875,92.71875 3.654748,4.81095 9.1492,8.50542 10.25,14.875 2.58437,7.03603 -0.3967,14.81636 -0.65625,21.625 2.42131,1.43327 7.13528,-0.8843 4.65625,3.6875 -1.86765,6.79179 -0.0663,15.1515 6.92891,18.20231 22.62315,20.36524 46.90286,39.78213 75.44609,51.39144 17.85282,0.98251 28.7595,17.3965 42.75,26.3125 12.37482,9.40274 25.43971,18.65331 40.4375,23.34375 16.78173,-7.69891 30.96084,-20.03471 46.5625,-29.75 11.02537,-7.94968 21.72649,-16.99787 30.65625,-27.25 -2.90507,-24.45981 -12.02197,-47.83389 -19.9375,-71.09375 -3.1618,-7.68087 -6.59454,-15.25462 -10.78125,-22.4375 -19.43869,-1.13378 -38.96219,-2.86121 -58.375,-2.96875 -11.41547,-3.82562 -11.97013,-17.75331 -14.83169,-27.49434 -7.00279,-24.40844 -12.8144,-50.1992 -26.79331,-71.53691 -12.89793,-3.51506 -26.69264,-2.05433 -39.99949,-3.2743 -2.35422,-0.0239 -4.70886,-0.001 -7.06301,0.0243 z M 547,782.125 c -14.58895,1.36064 -29.75181,-0.64901 -43.6875,4.46875 -11.29315,22.20853 -18.87387,46.13961 -25.625,70.09375 -1.65956,7.15613 -2.94175,14.50166 -3.5625,21.84375 14.71974,17.12928 34.74342,28.39784 52.41298,42.19846 8.65365,5.99772 17.68866,12.66007 28.39952,13.92654 17.74721,-9.34339 33.95549,-21.54029 50.38598,-32.86023 9.5588,-7.198 18.69453,-15.20963 25.83277,-24.67102 -5.06989,-31.78521 -16.09025,-62.55449 -29.625,-91.5625 -6.82551,-1.96205 -14.59897,-1.18945 -21.77865,-2.41585 C 568.85404,782.38607 557.92496,782.02092 547,782.125 z"
       id="path11199"
       inkscape:connector-curvature="0" />
    <path
       style="fill:none;stroke:#000000;stroke-width:1;stroke-miterlimit:4;stroke-opacity:1;stroke-dasharray:none"
       d="m 748.65625,-11.46875 c -2.53259,3.5174777 -2.06775,8.6134331 -4.34836,12.5357333 -1.39281,4.282548 -2.76,8.5655608 -3.90164,12.8705167 7.21464,5.056831 14.01512,10.451281 21.28125,15.375 7.4291,-4.871714 14.47112,-10.047263 21.34375,-15.6875 C 780.61574,5.270839 778.70741,-3.9145943 775,-11.46875 c -8.77374,-0.06295 -17.60316,0.176519 -26.34375,0 z m -141,87.34375 c -3.8005,0.148035 -2.91111,6.239427 -5.06808,8.505486 -3.88383,9.289191 -8.34335,19.890724 -4.86942,29.932014 6.72687,-0.23472 13.18124,4.52923 19.46782,3.89931 C 625.10302,113.15862 633.073,107.91026 640.375,102.125 638.12442,93.607903 635.58747,85.083784 633.25,76.65625 624.69797,75.448921 616.18421,76.381573 607.65625,75.875 z M 148.8125,173.5625 c -4.30044,1.44825 -9.21522,-1.28235 -13.25,0.90625 -15.37109,30.78517 -52.881749,47.38205 -86.267551,39.54757 -28.76278,-3.57434 -57.2193558,-13.14745 -86.513699,-10.36007 -2.091886,8.87328 -8.326297,17.48367 -8.125,26.59375 26.323755,20.78118 60.39748,32.8914 80,61.28125 12.239124,17.62525 9.463102,40.41869 8.71875,60.65625 6.279722,23.30186 -1.526599,47.82726 -10.5625,68.90625 7.675928,4.95163 13.908712,13.36971 22.65625,15.9375 5.649431,-3.64698 10.515314,-8.63456 16.133622,-12.61938 21.476499,-17.60526 43.544898,-38.19337 72.116378,-42.19312 18.43128,-1.36524 36.39389,5.80377 51.4375,15.8125 19.75969,-13.19809 46.46147,-21.0429 69.24888,-10.82486 22.39028,10.83644 39.77823,29.77978 53.12612,50.41861 12.30699,26.1405 6.65715,57.11089 -6.25,81.8125 -0.82946,3.5266 -3.45966,6.56676 -3.5,10.28125 21.2557,14.91391 40.85846,37.19734 41.40625,64.53125 0.3719,28.17996 -18.77941,51.47979 -24,78.375 -0.53878,1.34979 -2.92193,4.42522 0.0937,4.46875 6.49987,5.36609 13.06279,10.51105 20.03125,15.1875 24.90945,-17.17662 47.17334,-40.8811 77.46875,-47.90625 5.61227,-0.59239 11.49313,1.49178 16.5,2.28125 3.04182,-2.44129 9.59685,-4.51676 6.11972,-9.48932 -2.08407,-7.06673 -4.35678,-14.07275 -6.99472,-20.94818 C 414.42713,616.9619 387.13107,612.64667 371.21875,593 354.12206,571.43871 357.08022,541.62786 346.66991,517.19979 334.22296,479.83396 319.55065,442.71049 314.65625,403.375 c 9.18346,-5.06918 19.24003,-8.56938 29.59375,-10.4375 -26.08068,-9.69276 -46.94444,-33.78312 -49.71875,-62 -1.9137,-10.72607 -0.46451,-21.82834 1.3597,-32.28472 -4.77963,-19.58601 -8.51821,-39.551 -16.39095,-58.12153 -28.38456,-0.4033 -59.07136,5.61265 -85.34375,-7.875 -19.13733,-13.49769 -25.43301,-37.46598 -32.75,-58.40625 -4.21051,0.0367 -8.38532,-0.82393 -12.59375,-0.6875 z m 386.875,34.84375 c -9.45835,0.60433 -18.93811,0.12732 -28.40625,0.21875 -13.02842,16.86633 -32.67594,27.73786 -53.34375,32.15625 -9.62911,14.87221 -13.40766,32.56074 -18.3125,49.21875 21.22764,35.10117 4.96651,87.7977 -33.53125,102.875 -1.56688,1.20275 -10.63965,2.34881 -5,3.1875 20.04983,5.61572 37.99994,16.88823 55.03125,28.40625 4.47571,-1.671 8.7119,-4.32587 13.5625,-5.28125 22.14067,-6.83602 47.77835,-4.7779 67.1875,8.53125 12.80073,-8.09828 28.5926,-16.40069 32.40625,-32.34375 2.85172,-5.38583 8.62773,-11.5199 4.6024,-17.80588 -2.66963,-9.09533 -4.40219,-18.70585 -9.2274,-27.06912 C 525.94802,335.87712 508.21,289.02303 527.5,255.8125 c 4.33829,-8.31875 10.19486,-15.83256 16.9375,-22.21875 -2.7856,-8.38934 -4.90251,-17.01479 -8.21875,-25.21875 l -0.53125,0.0312 z M -373.9375,237 c -4.26121,0.55956 -10.90617,-1.84846 -11,4.53125 -9.28847,27.36943 -15.61115,55.60153 -21.96875,83.875 6.69767,5.33179 13.25895,10.89894 20.3125,15.78125 7.50162,-4.75622 15.22271,-9.4856 22.15625,-14.90625 -3.51465,-22.12848 1.58136,-46.173 16.15625,-63.40625 -2.26343,-8.68888 -5.09143,-17.35863 -8.28125,-25.8125 -5.79178,0.0204 -11.5834,-0.14943 -17.375,-0.0625 z m 1015.375,436.9375 c -5.44686,-0.57636 -4.74726,7.07364 -6.82711,10.41374 -1.61536,4.7423 -3.00512,9.56588 -4.20414,14.43001 6.75459,5.46414 13.52409,10.92124 20.75,15.71875 7.22704,-4.81595 14.81073,-9.24531 21.53125,-14.625 -2.36611,-8.62025 -4.30107,-17.38066 -7.1875,-25.84375 -8.04437,-0.34729 -16.02867,0.3118 -24.0625,-0.0937 z m -759.1875,20 c -4.436,0.22319 -8.87486,-0.0265 -13.3125,0 -7.68708,26.48225 -23.1174,53.76674 -50.09375,63.9375 -25.51099,9.3681 -52.86583,1.2662 -79.1875,2.40625 -1.9753,8.43774 -6.75683,16.37097 -7.9375,24.8125 2.46332,5.0435 8.96364,6.74252 12.70757,10.8479 3.42309,1.35189 7.1317,7.99063 10.54243,3.7771 18.91219,-14.23275 42.75204,-27.20182 67.21875,-21.65625 24.84503,5.95001 40.73055,28.00504 61.625,40.90625 2.90869,4.30983 7.03467,-3.15653 10.58542,-3.95587 9.788645,-6.42286 19.465749,-13.22727 25.63333,-23.38788 -10.001676,-32.08275 -12.832598,-66.07565 -24.53125,-97.65625 -4.41633,-0.0689 -8.83341,-0.0865 -13.25,-0.0312 z m 304.15625,34.21875 c -9.02188,0.66177 -18.10989,0.14638 -27.15625,0.3125 -3.85218,11.38522 -11.48185,23.50687 -8.03054,35.83299 4.89483,11.61891 5.50068,24.99968 8.53054,36.97951 22.94929,21.12201 52.09677,33.04378 80,45.9375 11.30682,7.44006 20.90035,17.25816 31.78125,25.34375 7.71935,-4.8996 15.26186,-10.24874 22.40625,-15.8125 -2.27538,-8.46446 -5.02697,-16.83251 -8.15625,-25.0625 -24.32647,-0.001 -51.71733,-4.11734 -68.65625,-23 -19.49604,-21.77866 -21.14385,-52.6482 -30.25,-79.1875 -0.2009,-0.3058 0.39454,-1.70588 -0.46875,-1.34375 z m 370.0625,106.125 c -5.72202,0.36344 -11.4589,0.14812 -17.1875,0.25 -3.28625,8.14221 -6.13463,16.45611 -8.4375,24.875 6.83953,5.61291 13.9998,10.82452 21.375,15.6875 7.35573,-4.74082 14.96778,-9.26378 21.75,-14.71875 -2.57833,-8.7156 -4.35453,-17.9564 -8.53125,-25.90625 -2.98604,-0.15752 -5.97845,-0.26494 -8.96875,-0.1875 z"
       id="path11215"
       inkscape:connector-curvature="0" />
    <path
       style="fill:none;stroke:#000000;stroke-width:1;stroke-miterlimit:4;stroke-opacity:1;stroke-dasharray:none"
       d="m 755.9375,-1.21875 c -1.10231,3.6493067 -3.45198,7.9876222 -3.5,11.34375 3.21845,2.262661 5.91397,5.415977 9.5625,6.84375 3.03005,-2.614755 7.12481,-4.090114 9.5,-7.375 -1.34107,-3.5177628 -1.41445,-8.5251656 -3.6875,-11.0625 -3.85901,0.2739123 -8.32075,-0.1176402 -11.875,0.25 z M 612.75,85.9375 c -1.90962,6.531287 -6.09642,12.664804 -6.1875,19.65625 3.97407,1.72332 9.29905,3.97571 12.39055,-0.46691 2.55303,-2.94752 9.82342,-4.22362 9.42439,-8.337186 C 627.05193,93.447015 627.62316,87.885791 624.46875,86 620.57972,85.964562 616.56434,86.134513 612.75,85.9375 z m -462.84375,97.84375 c -3.49221,0.66957 -8.55461,-1.55732 -9.75,3.03125 -20.02097,30.65456 -59.957218,45.03152 -95.453313,37.07497 C 19.9879,219.82326 -4.5130264,212.36311 -29.75,213.5 c -1.484133,4.12848 -4.405584,7.81362 -4.78125,12.3125 28.2944647,20.30702 63.679356,34.65454 81.21875,66.40625 10.841268,19.95507 5.738767,43.597 7.995807,65.23837 3.259473,20.59029 -2.244776,41.30885 -9.589557,60.35538 3.174621,2.08706 6.323901,7.48663 9.976852,7.01106 25.929393,-20.32058 50.839168,-46.19217 84.554398,-51.97981 19.47003,-3.08049 39.07939,3.76553 55.625,13.3125 24.07248,-14.82209 57.19947,-19.54669 81.875,-3.46875 10.16617,5.88893 19.75807,14.39816 27.53125,22.15625 -1.56715,-4.48884 0.71221,-9.03334 5.28125,-10.34375 2.79454,-1.56841 5.70808,-2.90456 8.65625,-4.15625 -26.94528,-19.63376 -40.22004,-55.52778 -33.46875,-88.15625 -0.18565,-15.16542 -6.43011,-29.45116 -9.78125,-44 -1.20186,-4.1953 -1.93941,-9.51377 -7.59333,-7.43969 -27.19607,0.8471 -57.22163,3.71003 -81.28167,-11.31031 -17.64826,-13.42123 -25.48917,-35.25833 -32.5625,-55.625 -1.33437,-0.0199 -2.66494,-0.10992 -4,-0.0312 z m 364.125,34.6875 c -5.81854,1.5249 -8.27965,8.38054 -13.5,11.21875 -11.6768,9.78269 -26.22691,15.90147 -40.4375,20.28125 C 453.41425,262.15797 449.89664,275.63502 446.5,289 c 18.21948,35.09413 6.17563,82.48583 -25.90625,105.1875 11.65905,5.10547 22.10501,13.0882 33.34375,18.59375 24.9533,-10.57198 55.08065,-10.23169 78.90625,3.21875 10.41765,-6.01405 21.11054,-13.97093 24.1875,-26.21875 3.95473,-3.83866 4.9626,-10.08383 1.65625,-14.53125 -2.10932,-7.23538 -2.25315,-17.346 -10.86725,-20.02912 -35.89527,-21.09378 -50.07277,-73.46364 -26.63275,-108.62713 3.39287,-5.68332 7.43424,-10.90434 11.90625,-15.78125 -2.05329,-3.48168 -1.38962,-10.73487 -5.09375,-12 -4.65583,-0.0454 -9.32839,-0.26198 -13.96875,-0.34375 z M -376.1875,246.9375 c -3.17631,11.94054 -7.98975,23.96611 -10.6151,36.28178 -3.24525,12.70205 -5.99249,25.5242 -9.0099,38.28072 3.89429,1.64237 7.6313,9.51614 11.78125,6.1875 3.3256,-2.98042 10.61458,-4.22027 8.59483,-9.93561 -1.25639,-20.29414 4.94686,-40.80123 15.90517,-57.53314 -1.78587,-4.19502 -1.54092,-10.80968 -5.12487,-13.20389 -3.80539,-0.10658 -7.81813,0.14682 -11.53138,-0.0774 z m 705.96875,253.15625 c -2.67462,8.91571 -6.334,17.57228 -10.15625,26 10.18278,7.53277 19.0538,16.78963 26.0625,27.3125 -2.90486,-17.16987 -7.80093,-33.69875 -14.28814,-49.87799 -0.43754,-0.54186 -1.30315,-5.6549 -1.61811,-3.43451 z M 359.25,594.25 c 0.49609,28.06703 -17.23665,51.88865 -23.75,78.21875 3.26712,2.57476 6.3657,5.39677 9.9375,7.53125 24.37677,-18.34336 48.22287,-41.26645 79.5625,-45.8125 3.018,-0.36002 7.13271,1.29861 9.28125,1 -1.8313,-3.34634 -0.79126,-10.36052 -6.25,-8.875 -26.03663,-0.49491 -54.54352,-9.89094 -68.8125,-33 l 0.0312,0.9375 z m 296.46875,89.78125 c -2.94485,1.34132 -9.13706,-1.93561 -10.5625,1.25 -0.43799,3.67092 -6.01352,9.09089 -1.375,11.46875 3.91475,2.79627 7.79216,8.24525 12.01181,2.76588 5.6906,-1.77983 5.95823,-5.78882 3.66188,-10.66795 -1.04636,-2.07126 -0.13262,-6.10211 -3.73619,-4.81668 z M -114,703.9375 c -3.04798,0.80648 -8.02787,-1.02775 -10.125,0.8125 -8.53915,27.07206 -27.14469,52.74235 -54.53125,62.90625 26.14201,4.67357 44.10156,25.73618 64.4375,40.875 5.3652,-2.33374 9.45871,-7.21872 14.625,-10.0625 3.215348,-2.57935 6.267443,-5.23609 8.71875,-8.5625 -8.4464,-28.26331 -11.50079,-58.00035 -20.8125,-86 -0.77098,-0.006 -1.54164,0.024 -2.3125,0.0312 z m 279.34375,36.125 c -4.35593,9.11463 -7.14864,20.32343 -1.59375,29.53125 3.55917,10.52652 0.41376,24.53357 11.125,31.5 24.31552,19.66083 55.88254,27.50632 81.06303,45.68606 5.57276,4.02393 10.91438,10.17019 16.46822,13.12644 2.98488,-2.6537 9.02877,-4.19593 9.75,-8.15625 C 279.96106,848.10157 281.00359,840.01771 275,841.46875 247.36563,840.5599 217.48541,830.37403 202.375,805.875 189.11596,785.76752 186.29134,760.98529 178.9375,738.5 c -4.05182,1.01225 -11.40299,-2.05945 -13.59375,1.5625 z M -253,770.8125 c -0.89551,3.75231 -5.30742,8.2733 -3.46875,11.8125 3.73041,2.2049 8.14776,9.228 12.22539,4.21839 8.32097,-5.90405 17.16282,-10.92114 26.64961,-14.56214 -11.7593,-0.46295 -23.47126,-1.92106 -35.25,-1.90625 L -253,770.8125 z M 547.84375,844.25 c -4.07371,0.35128 -2.89523,7.0284 -4.90625,9.59375 -0.72545,4.34233 6.51836,6.24447 9.4375,9.21875 3.0285,-2.45691 8.35169,-3.97554 9.875,-7.21875 -1.1705,-3.82463 -1.66148,-8.55244 -3.78125,-11.59375 -3.56877,0.64494 -7.01685,0.14276 -10.625,0 z"
       id="path11277"
       inkscape:connector-curvature="0" />
    <path
       style="fill:none;stroke:#000000;stroke-width:1;stroke-miterlimit:4;stroke-opacity:1;stroke-dasharray:none"
       d="m 761.5625,6.375 c -1.92832,1.3296668 2.3502,1.5649504 0.5,0 L 761.78125,6.34375 761.5625,6.375 z M 618.34375,94.21875 c -3.88695,4.696748 4.26766,-0.516747 0,0 z m -472.21875,98 c -23.65371,35.74566 -72.097447,49.52301 -112.451527,37.8152 -19.295541,-3.61777 -38.4691755,-8.68339 -58.204723,-8.59645 -1.612566,2.99979 6.076567,4.11944 7.670244,6.54327 27.511151,17.39773 58.722845,34.26207 72.798506,65.11298 10.140653,23.97219 3.78938,50.8054 7.75,75.84375 0.365678,15.65023 -4.168724,30.83156 -8.46875,45.625 24.151259,-20.13938 49.21396,-43.02292 81,-49.15625 20.47999,-4.53131 41.04067,2.75114 59.40625,11.25 27.96495,-15.94474 65.8785,-16.85076 92.09375,3.125 4.96268,3.08549 8.7615,7.83656 13.6875,10.5625 4.13184,-1.53308 0.9605,-3.45782 -1.0625,-5.59375 -20.91568,-22.97482 -28.69746,-55.84524 -23.49165,-86.1526 -1.50242,-13.64884 -5.80324,-26.81973 -10.19585,-39.9099 -25.82871,1.14664 -53.55987,3.0188 -77.34375,-8.59375 -22.25997,-10.81882 -32.66901,-35.00986 -40.77403,-56.91945 0.1439,-1.50319 -1.74984,-1.93657 -2.41347,-0.95555 z m 369.125,34.9375 c -9.56283,9.89397 -20.96772,18.2342 -33.94808,23.39927 -5.27611,2.88257 -12.42807,3.73503 -16.48942,7.88198 -4.5384,9.42881 -7.25372,19.60116 -9.8125,29.71875 16.2423,34.34524 6.9344,78.07845 -19.8125,104.40625 6.80786,3.5297 12.94302,9.84871 20.625,10.875 24.57884,-8.93833 53.20527,-8.29896 76.875,3.40625 9.58184,-5.46972 16.78351,-15.20187 19.78125,-25.5625 -0.95207,-4.85445 -3.30131,-9.39889 -3.90625,-14.375 -3.06835,-6.65937 -11.54356,-7.47256 -16.10194,-12.77704 -31.8192,-26.8815 -41.30943,-78.88162 -16.89806,-113.62921 1.76537,-5.11901 8.56195,-7.98578 8.21875,-13.8125 -2.7702,0.46811 -6.15664,-1.00869 -8.53125,0.46875 z M -369.34375,254.75 c -3.08651,2.69492 -3.01849,8.92573 -4.84659,12.92755 -0.59161,2.27596 -3.54531,11.65417 -1.30966,5.63495 1.59125,-5.40827 5.93,-10.26118 6.875,-15.5625 -0.43439,-0.4936 0.26956,-3.01832 -0.71875,-3 z m -13.5625,45.9375 c -0.70838,6.12054 -3.78027,12.21556 -3.46875,18.3125 0.87077,0.78299 4.78443,-1.00263 2.84375,-2.9375 -0.23841,-5.11755 -0.007,-10.20115 0.625,-15.375 z m 712.59375,221.75 c -1.65741,1.43517 2.09428,3.22946 0.3125,0.5 l -0.25,-0.65625 -0.0625,0.15625 z m 35.53125,91.28125 c -4.17689,19.54603 -16.18775,37.38906 -19.9375,56.59375 18.23329,-14.75336 36.7721,-30.28342 58.96875,-38.84375 -14.16015,-3.11615 -27.80943,-9.12854 -38.84375,-18.6875 l -0.1875,0.9375 z m 285.46875,78.6875 c 0.90581,1.6332 3.44375,-0.52102 0.59375,-0.34375 -0.24199,0.0148 -0.53811,-0.0919 -0.59375,0.34375 z m -769.4375,21.5 c -7.64186,20.61147 -21.7093,39.77898 -39.21875,52.21875 16.58169,8.05746 29.70247,21.36837 44.28125,32.5 4.77125,-3.38172 9.71423,-6.63332 13.90625,-10.71875 -7.17254,-24.97979 -10.0312,-51.06407 -17.90625,-75.78125 -0.99005,-0.50567 -0.49608,1.55448 -1.0625,1.78125 z m 290.25,32.5 c -2.43458,2.13309 -1.73922,6.87414 -2.71875,9.96875 0.14711,9.66343 6.32255,18.38892 5.375,28.15625 1.03488,9.25189 10.13933,14.03365 17.1875,18.40625 -9.49918,-17.54021 -12.4552,-38.19968 -18.9375,-56.5 -0.29186,-0.0436 -0.62298,-0.12518 -0.90625,-0.0312 z m -419.3125,32.28125 c -1.351,2.66975 3.29871,-1.06592 0,0 z m 519.46875,71 c 1.95652,1.52403 1.717,-0.84114 -0.4375,-0.28125 l 0.4375,0.28125 z m 279.8125,2.8125 c -0.35939,1.9099 3.18959,1.14499 1.6875,0.0625 0.15377,0.73906 -1.79571,-0.75299 -1.6875,-0.0625 z"
       id="path11289"
       inkscape:connector-curvature="0" />
    <path
       style="fill:none;stroke:#000000;stroke-width:1;stroke-miterlimit:4;stroke-opacity:1;stroke-dasharray:none"
       d="m 135.6875,245.5625 c -17.68597,10.91105 -37.959066,17.53022 -58.625,19.8125 15.063922,24.03229 19.017038,53.28033 17.53125,81.21875 29.14298,-15.57541 66.0659,-19.99098 96.59375,-5.71875 8.57278,1.30825 15.79754,-5.04348 24.25,-5.6875 9.50362,-1.94027 19.23907,-2.59283 28.9375,-2.28125 -1.21539,-13.68857 -0.24281,-27.49888 -1.9375,-41.15625 -38.45231,1.48001 -80.60136,-10.95467 -102.85191,-44.07119 -1.3998,-1.35313 -1.58114,-4.74896 -3.89809,-2.11631 z M 491,356.5 c -0.26798,2.7054 -3.30945,7.22882 -1.75,8.59375 2.23958,-0.74398 11.0439,2.11062 8.0625,-1.03125 -2.09384,-2.15521 -4.85158,-7.28313 -6.3125,-7.5625 z"
       id="path11369"
       inkscape:connector-curvature="0" />
  </g>
</svg>
