<?xml version="1.0" encoding="UTF-8" standalone="no"?>
<!-- Created with Inkscape (http://www.inkscape.org/) -->

<svg
 xmlns:dc="http://purl.org/dc/elements/1.1/"
 xmlns:cc="http://creativecommons.org/ns#"
 xmlns:rdf="http://www.w3.org/1999/02/22-rdf-syntax-ns#"
 xmlns:svg="http://www.w3.org/2000/svg"
 xmlns="http://www.w3.org/2000/svg"
 xmlns:sodipodi="http://sodipodi.sourceforge.net/DTD/sodipodi-0.dtd"
 xmlns:inkscape="http://www.inkscape.org/namespaces/inkscape"
 sodipodi:docname="olo000.svg"
 inkscape:version="0.48.2 r9819"
 version="1.1"
 id="svg3783"
 height="1052.3622047"
 width="744.09448819">
<sodipodi:namedview
 id="base"
 pagecolor="#ffffff"
 bordercolor="#666666"
 borderopacity="1.0"
 inkscape:pageopacity="0.0"
 inkscape:pageshadow="2"
 inkscape:zoom="0.4949747467"
 inkscape:cx="610.77258408509"
 inkscape:cy="671.67921758079"
 inkscape:document-units="px"
 inkscape:current-layer="layer1"
 showgrid="false"
 inkscape:window-width="1024"
 inkscape:window-height="748"
 inkscape:window-x="7"
 inkscape:window-y="-7"
 inkscape:window-maximized="0" />
<defs
 id="defs3785">
<inkscape:perspective
 sodipodi:type="inkscape:persp3d"
 inkscape:vp_x="-314.90439 : 155.3937 : 0"
 inkscape:vp_y="0 : 1000 : 0"
 inkscape:vp_z="372.04724 : 175.3937 : 0"
 inkscape:persp3d-origin="334.90438 : 296.50168 : 1"
 id="perspective3823" />
<clipPath
 clipPathUnits="userSpaceOnUse"
 id="clipPath18">
<path
 inkscape:connector-curvature="0"
 d="M 0,500 0,0 500,0 500,500 0,500 z"
 id="path20" />
</clipPath>
<clipPath
 clipPathUnits="userSpaceOnUse"
 id="clipPath18-4">
<path
 inkscape:connector-curvature="0"
 d="M 0,500 0,0 500,0 500,500 0,500 z"
 id="path20-0" />
</clipPath>
<clipPath
 clipPathUnits="userSpaceOnUse"
 id="clipPath18-2">
<path
 inkscape:connector-curvature="0"
 d="M 0,500 0,0 500,0 500,500 0,500 z"
 id="path20-4" />
</clipPath>
<clipPath
 clipPathUnits="userSpaceOnUse"
 id="clipPath18-27">
<path
 inkscape:connector-curvature="0"
 d="M 0,500 0,0 500,0 500,500 0,500 z"
 id="path20-6" />
</clipPath>
<clipPath
 clipPathUnits="userSpaceOnUse"
 id="clipPath18-7">
<path
 inkscape:connector-curvature="0"
 d="M 0,500 0,0 500,0 500,500 0,500 z"
 id="path20-61" />
</clipPath>
</defs>
<metadata
 id="metadata3788">
<rdf:RDF>
<cc:Work
 rdf:about="">
<dc:format>image/svg+xml</dc:format>
<dc:type
 rdf:resource="http://purl.org/dc/dcmitype/StillImage" />
<dc:title></dc:title>
</cc:Work>
</rdf:RDF>
</metadata>
<g
 inkscape:label="Layer 1"
 inkscape:groupmode="layer"
 id="layer1">
<flowRoot
 xml:space="preserve"
 id="flowRoot3475"
 style="fill:black;stroke:none;stroke-opacity:1;stroke-width:1px;stroke-linejoin:miter;stroke-linecap:butt;fill-opacity:1;font-family:Sans;font-style:normal;font-weight:normal;font-size:40px;line-height:125%;letter-spacing:0px;word-spacing:0px"><flowRegion
 id="flowRegion3477"><rect
 id="rect3479"
 width="474.7717"
 height="76.771591"
 x="40.406101"
 y="840.23016" /></flowRegion><flowPara
 id="flowPara3481" /></flowRoot><flowRoot
 xml:space="preserve"
 id="flowRoot3372"
 style="font-size:40px;font-style:normal;font-weight:normal;line-height:125%;letter-spacing:0px;word-spacing:0px;fill:#000000;fill-opacity:1;stroke:none;font-family:Sans"><flowRegion
 id="flowRegion3374"><rect
 id="rect3376"
 width="151.52289"
 height="177.78685"
 x="195.96959"
 y="506.87982" /></flowRegion><flowPara
 id="flowPara3378" /></flowRoot><g
 transform="matrix(1.7391189960814,0,0,-1.7391189960814,-136.77376048826,837.40397623087)"
 id="g14">
<g
 id="g16"
 clip-path="url(#clipPath18-7)">
<g
 id="g22">
<path
 inkscape:connector-curvature="0"
 d="M 120.4,248.5 C 120.4,245.74 118.16,243.5 115.4,243.5 112.64,243.5 110.4,245.74 110.4,248.5 110.4,251.26 112.64,253.5 115.4,253.5 118.16,253.5 120.4,251.26 120.4,248.5 z"
 style="fill:#ffffff;fill-opacity:1;fill-rule:nonzero;stroke:none"
 id="path24" />
<path
 inkscape:connector-curvature="0"
 d="M 120.4,248.5 C 120.4,245.74 118.16,243.5 115.4,243.5 112.64,243.5 110.4,245.74 110.4,248.5 110.4,251.26 112.64,253.5 115.4,253.5 118.16,253.5 120.4,251.26 120.4,248.5 z"
 style="fill:none;stroke:#ff0000;stroke-width:1;stroke-linecap:round;stroke-linejoin:miter;stroke-miterlimit:10;stroke-opacity:1;stroke-dasharray:none"
 id="path26" />
<path
 inkscape:connector-curvature="0"
 d="M 115.4,248.5 C 161,318 81.2,318 121.1,248.5 166.7,179 86.9,179 126.8,248.5 166.7,329 86.9,329 126.8,248.5 172.4,168 92.6,168 132.5,248.5 172.4,340 92.6,340 132.5,248.5 178.1,157 98.3,157 138.2,248.5 178.1,351 98.3,351 138.2,248.5 183.8,146 104,146 143.9,248.5 183.8,362 104,362 143.9,248.5 189.5,135 109.7,135 149.6,248.5 189.5,373 109.7,373 149.6,248.5 195.2,124 115.4,124 155.3,248.5 195.2,384 115.4,384 155.3,248.5 200.9,113 121.1,113 161,248.5 200.9,395 121.1,395 161,248.5 206.6,102 126.8,102 166.7,248.5 206.6,406 126.8,406 166.7,248.5 212.3,91 132.5,91 172.4,248.5 212.3,417 132.5,417 172.4,248.5 218,80 138.2,80 178.1,248.5 218,428 138.2,428 178.1,248.5 223.7,69 143.9,69 183.8,248.5 223.7,439 143.9,439 183.8,248.5 229.4,58 149.6,58 189.5,248.5 229.4,450 149.6,450 189.5,248.5 235.1,47 155.3,47 195.2,248.5 235.1,461 155.3,461 195.2,248.5 240.8,36 161,36 200.9,248.5 240.8,472 161,472 200.9,248.5 246.5,25 166.7,25 206.6,248.5 246.5,483 166.7,483 206.6,248.5 252.2,14 172.4,14 212.3,248.5 252.2,494 172.4,494 212.3,248.5 257.9,3 178.1,3 218,248.5 257.9,505 178.1,505 218,248.5 263.6,-8 183.8,-8 223.7,248.5 263.6,516 183.8,516 223.7,248.5 269.3,-19 189.5,-19 229.4,248.5 269.3,527 189.5,527 229.4,248.5 275,-30 195.2,-30 235.1,248.5 275,538 195.2,538 235.1,248.5 280.7,-41 200.9,-41 240.8,248.5 280.7,527 200.9,527 240.8,248.5 286.4,-30 206.6,-30 246.5,248.5 286.4,516 206.6,516 246.5,248.5 292.1,-19 212.3,-19 252.2,248.5 292.1,505 212.3,505 252.2,248.5 297.8,-8 218,-8 257.9,248.5 297.8,494 218,494 257.9,248.5 303.5,3 223.7,3 263.6,248.5 303.5,483 223.7,483 263.6,248.5 309.2,14 229.4,14 269.3,248.5 309.2,472 229.4,472 269.3,248.5 314.9,25 235.1,25 275,248.5 314.9,461 235.1,461 275,248.5 320.6,36 240.8,36 280.7,248.5 320.6,450 240.8,450 280.7,248.5 326.3,47 246.5,47 286.4,248.5 326.3,439 246.5,439 286.4,248.5 332,58 252.2,58 292.1,248.5 332,428 252.2,428 292.1,248.5 337.7,69 257.9,69 297.8,248.5 337.7,417 257.9,417 297.8,248.5 343.4,80 263.6,80 303.5,248.5 343.4,406 263.6,406 303.5,248.5 349.1,91 269.3,91 309.2,248.5 349.1,395 269.3,395 309.2,248.5 354.8,102 275,102 314.9,248.5 354.8,384 275,384 314.9,248.5 360.5,113 280.7,113 320.6,248.5 360.5,373 280.7,373 320.6,248.5 366.2,124 286.4,124 326.3,248.5 366.2,362 286.4,362 326.3,248.5 371.9,135 292.1,135 332,248.5 371.9,351 292.1,351 332,248.5 377.6,146 297.8,146 337.7,248.5 377.6,340 297.8,340 337.7,248.5 383.3,157 303.5,157 343.4,248.5 383.3,329 303.5,329 343.4,248.5 389,168 309.2,168 349.1,248.5 389,318 309.2,318 349.1,248.5 394.7,179 314.9,179 354.8,248.5 394.7,307 314.9,307 354.8,248.5 400.4,190 320.6,190 360.5,248.5"
 style="fill:none;stroke:#000000;stroke-width:1;stroke-linecap:round;stroke-linejoin:miter;stroke-miterlimit:10;stroke-opacity:1;stroke-dasharray:none"
 id="path30" />
</g>
</g>
</g>
</g>
</svg>
