<?xml version="1.0" encoding="UTF-8" standalone="no"?>
<!-- Created with Inkscape (http://www.inkscape.org/) -->

<svg
 xmlns:dc="http://purl.org/dc/elements/1.1/"
 xmlns:cc="http://creativecommons.org/ns#"
 xmlns:rdf="http://www.w3.org/1999/02/22-rdf-syntax-ns#"
 xmlns:svg="http://www.w3.org/2000/svg"
 xmlns="http://www.w3.org/2000/svg"
 xmlns:sodipodi="http://sodipodi.sourceforge.net/DTD/sodipodi-0.dtd"
 xmlns:inkscape="http://www.inkscape.org/namespaces/inkscape"
 sodipodi:docname="flower017(g).svg"
 inkscape:version="0.48.2 r9819"
 version="1.1"
 id="svg4064"
 height="2834.6455"
 width="1559.0551">
<sodipodi:namedview
 id="base"
 pagecolor="#ffffff"
 bordercolor="#666666"
 borderopacity="1.0"
 inkscape:pageopacity="0.0"
 inkscape:pageshadow="2"
 inkscape:zoom="0.1131370850197"
 inkscape:cx="-517.78662119629"
 inkscape:cy="1802.5940938813"
 inkscape:document-units="px"
 inkscape:current-layer="layer1"
 showgrid="false"
 units="cm"
 inkscape:window-width="1024"
 inkscape:window-height="749"
 inkscape:window-x="-4"
 inkscape:window-y="-4"
 inkscape:window-maximized="1" />
<defs
 id="defs4066" />
<metadata
 id="metadata4069">
<rdf:RDF>
<cc:Work
 rdf:about="">
<dc:format>image/svg+xml</dc:format>
<dc:type
 rdf:resource="http://purl.org/dc/dcmitype/StillImage" />
<dc:title></dc:title>
</cc:Work>
</rdf:RDF>
</metadata>
<g
 inkscape:label="Layer 1"
 inkscape:groupmode="layer"
 id="layer1"
 transform="translate(0,1782.2847)">
<path
 id="path4314"
 d=""
 style="fill:none;stroke:#000000;stroke-width:21.10269737"
 inkscape:connector-curvature="0" />
<path
 id="path4332"
 d=""
 style="fill:none;stroke:#000000;stroke-width:21.10269737"
 inkscape:connector-curvature="0" />
<path
 id="path4340"
 d=""
 style="fill:none;stroke:#000000;stroke-width:21.10269737"
 inkscape:connector-curvature="0" />
<rect
 style="fill:none;stroke:#000000;stroke-width:4;stroke-miterlimit:4;stroke-opacity:1;stroke-dasharray:none"
 id="rect4573"
 width="1440.5031"
 height="1935.918"
 x="13.5445"
 y="-1770.4963" />
<flowRoot
 style="fill:black;stroke:none;stroke-opacity:1;stroke-width:1px;stroke-linejoin:miter;stroke-linecap:butt;fill-opacity:1;font-family:Sans;font-style:normal;font-weight:normal;font-size:40px;line-height:125%;letter-spacing:0px;word-spacing:0px"
 id="flowRoot3734"
 xml:space="preserve"><flowRegion
 id="flowRegion3736"><rect
 y="390.8955078125"
 x="-1037.5"
 height="912.5"
 width="812.5"
 id="rect3738" /></flowRegion><flowPara
 id="flowPara3740" /></flowRoot><g
 id="g4533"
 style="stroke:#000000;stroke-opacity:1;stroke-width:4;stroke-miterlimit:4;stroke-dasharray:none;fill:none">
<path
 d="M 43.164062499983,-1491.7470637073 125.91911764704,-1707.2335838593 156.63991076558,-1707.2335838593 244.8335752207,-1491.7470637073 212.34890881306,-1491.7470637073 187.21371444335,-1557.0103754041 97.109187258367,-1557.0103754041 73.443887296242,-1491.7470637073 z M 105.34059594085,-1580.2347070439 178.39434799784,-1580.2347070439 155.90496356178,-1639.9124199919 C 149.04535088596,-1658.0409513914 143.9497220353,-1672.9358664933 140.6180617229,-1684.5972099825 137.87416455947,-1670.7800235181 134.00344649025,-1657.0610227663 129.00589590297,-1643.4401665701 z"
 style="font-size:400px;font-style:normal;font-weight:normal;line-height:125%;letter-spacing:0px;word-spacing:0px;fill:none;fill-opacity:1;stroke:#000000;font-family:Sans;stroke-opacity:1;stroke-width:4;stroke-miterlimit:4;stroke-dasharray:none"
 id="path4440"
 inkscape:connector-curvature="0" />
<path
 d="M 350.51898312609,-1491.7470637073 350.51898312609,-1707.2335838593 393.43989982759,-1707.2335838593 444.4452357708,-1554.658544352 C 449.14877690276,-1540.4495163761 452.57852709071,-1529.8172907935 454.7344966239,-1522.7618357074 457.18419162881,-1530.6012336936 461.00591326681,-1542.1153950389 466.19967300306,-1557.3043542856 L 517.79296670931,-1707.2335838593 556.15721074729,-1707.2335838593 556.15721074729,-1491.7470637073 528.67018532544,-1491.7470637073 528.67018532544,-1672.103107518 466.0526835623,-1491.7470637073 440.32953142956,-1491.7470637073 378.00600854794,-1675.189885774 378.00600854794,-1491.7470637073 z"
 style="font-size:400px;font-style:normal;font-weight:normal;line-height:125%;letter-spacing:0px;word-spacing:0px;fill:none;fill-opacity:1;stroke:#000000;font-family:Sans;stroke-opacity:1;stroke-width:4;stroke-miterlimit:4;stroke-dasharray:none"
 id="path4442"
 inkscape:connector-curvature="0" />
<path
 d="M 593.78650758148,-1596.6975244089 C 593.78649302952,-1632.4648142756 603.38979355577,-1660.4662747386 622.59643797015,-1680.7019898024 641.80299566076,-1700.9373269564 666.59518987649,-1711.0550900108 696.97309499397,-1711.055309319 716.86552834551,-1711.0550900108 734.79822218535,-1706.3024361789 750.7712303116,-1696.7973335655 766.7438953645,-1687.2918208515 778.91950853171,-1674.0382861966 787.2981063401,-1657.0366898403 795.67628802138,-1640.0347629047 799.8654828938,-1620.7546672053 799.86570352495,-1599.1963449018 799.8654828938,-1577.3438291122 795.45580408073,-1557.7942530409 786.63665385668,-1540.5475580391 777.81708882843,-1523.3007654364 765.32299885807,-1510.2432165066 749.15434646326,-1501.374872077 732.98535422886,-1492.5065083918 715.5426247016,-1488.0723313631 696.82610555321,-1488.0723276883 676.54146542152,-1488.0723313631 658.41278585667,-1492.9719744887 642.44001247255,-1502.7712717642 626.46711267752,-1512.5705469913 614.36499415719,-1525.9465727242 606.13362060519,-1542.8993890913 597.90219325506,-1559.8521031537 593.78649302952,-1577.7847969935 593.78650758148,-1596.6975244089 z M 623.18439573319,-1596.2565560866 C 623.18435178334,-1570.2883430113 630.16634323738,-1549.8323329617 644.13039104128,-1534.8884645699 658.0943090535,-1519.9445098953 675.61053322766,-1512.4725541287 696.67911611246,-1512.4725748543 718.13943555818,-1512.4725541287 735.8026490261,-1520.0180045422 749.66880950591,-1535.1089487311 763.5346291172,-1550.1998061961 770.46762413998,-1571.6112466552 770.46781537324,-1599.3433343426 770.46762413998,-1616.8839491361 767.50334004897,-1632.1953339037 761.57495420735,-1645.2775345796 755.64620368493,-1658.3594281946 746.97383535255,-1668.5016894647 735.55782319309,-1675.7043488166 724.14149838708,-1682.906640254 711.32893161355,-1686.5078779514 697.12008443473,-1686.5080727124 676.93343687157,-1686.5078779514 659.5642019912,-1679.5748829286 645.01232768583,-1665.709066845 630.46032182491,-1651.8429028375 623.18435178334,-1628.6920890688 623.18439573319,-1596.2565560866 z"
 style="font-size:400px;font-style:normal;font-weight:normal;line-height:125%;letter-spacing:0px;word-spacing:0px;fill:none;fill-opacity:1;stroke:#000000;font-family:Sans;stroke-opacity:1;stroke-width:4;stroke-miterlimit:4;stroke-dasharray:none"
 id="path4444"
 inkscape:connector-curvature="0" />
<path
 d="M 836.9070425961,-1491.7470637073 836.9070425961,-1707.2335838593 932.45017908916,-1707.2335838593 C 951.65666093321,-1707.2333683728 966.25759744761,-1705.2980093382 976.2530324352,-1701.4275009494 986.24814140021,-1697.5565731997 994.234559695,-1690.7215710394 1000.2123112788,-1680.9224739635 1006.1896889215,-1671.1229985369 1009.1784712282,-1660.2947872292 1009.1786671651,-1648.4378075559 1009.1784712282,-1633.1507643132 1004.2298316713,-1620.2647028928 994.3327336485,-1609.7795846364 984.43527344373,-1599.294230315 969.14838689173,-1592.6307156642 948.47202813184,-1589.7890206933 956.01734331503,-1586.1631867383 961.74992577203,-1582.5864472566 965.66979270059,-1579.0587915179 973.99903358612,-1571.4152609302 981.88745901839,-1561.8609568352 989.33509266271,-1550.39585057 L 1026.8174000561,-1491.7470637073 990.95197651105,-1491.7470637073 962.4360250039,-1536.5788431387 C 954.10648249604,-1549.5138561586 947.24698212014,-1559.4111352723 941.8575032977,-1566.2707101719 936.46776724374,-1573.1301360241 931.64161876499,-1577.9317862872 927.37904338299,-1580.6756753662 923.11623972638,-1583.419386588 918.78005556019,-1585.330247407 914.37047787586,-1586.4082635558 911.1366122842,-1587.0941189322 905.84499770852,-1587.437093951 898.49561827393,-1587.4371896411 L 865.42299410326,-1587.4371896411 865.42299410326,-1491.7470637073 z M 865.42299410326,-1612.1314156886 926.71759089957,-1612.1314156886 C 939.75052813792,-1612.1312953042 949.94178583924,-1613.4786971637 957.29139457735,-1616.1736253094 964.64071521615,-1618.8683046019 970.22630837938,-1623.1799905525 974.04819082382,-1629.1086960962 977.86975165537,-1635.0371269165 979.78061247437,-1641.4801576268 979.78077901341,-1648.4378075559 979.78061247437,-1658.6289085665 976.08138191451,-1667.0072983113 968.68307623614,-1673.5730019256 961.28445967509,-1680.138341888 949.59881082045,-1683.4211027822 933.62609461522,-1683.4212944564 L 865.42299410326,-1683.4212944564 z"
 style="font-size:400px;font-style:normal;font-weight:normal;line-height:125%;letter-spacing:0px;word-spacing:0px;fill:none;fill-opacity:1;stroke:#000000;font-family:Sans;stroke-opacity:1;stroke-width:4;stroke-miterlimit:4;stroke-dasharray:none"
 id="path4446"
 inkscape:connector-curvature="0" />
<path
 d="M 1054.5984043595,-1491.7470637073 1054.5984043595,-1707.2335838593 1210.4072115636,-1707.2335838593 1210.4072115636,-1681.8044106081 1083.1143558667,-1681.8044106081 1083.1143558667,-1615.8061517075 1202.3227923218,-1615.8061517075 1202.3227923218,-1590.523967897 1083.1143558667,-1590.523967897 1083.1143558667,-1517.1762369585 1215.4048525493,-1517.1762369585 1215.4048525493,-1491.7470637073 z"
 style="font-size:400px;font-style:normal;font-weight:normal;line-height:125%;letter-spacing:0px;word-spacing:0px;fill:none;fill-opacity:1;stroke:#000000;font-family:Sans;stroke-opacity:1;stroke-width:4;stroke-miterlimit:4;stroke-dasharray:none"
 id="path4448"
 inkscape:connector-curvature="0" />
</g>
<g
 id="g4524"
 transform="translate(0,-120)"
 style="stroke:#000000;stroke-opacity:1;stroke-width:4;stroke-miterlimit:4;stroke-dasharray:none;fill:none">
<path
 d="M 66.829362462108,-1115.4540953654 66.829362462108,-1330.9406155175 148.11452320158,-1330.9406155175 C 162.42137661898,-1330.9404000309 173.34758078912,-1330.2544499934 180.89316849074,-1328.8827633468 191.47626035395,-1327.1186783929 200.34461441135,-1323.7624228519 207.49825726803,-1318.8139866549 214.65157233824,-1313.8651437381 220.40865301087,-1306.9321487153 224.76951655716,-1298.0149807875 229.13001777449,-1289.097447738 231.31035896537,-1279.2981614867 231.31054667091,-1268.6170926358 231.31035896537,-1250.292274183 225.47978364589,-1234.7849036903 213.81880322065,-1222.0949346358 202.15748236782,-1209.4047522995 181.08901692764,-1203.0597144518 150.61334369448,-1203.0598020575 L 95.345313969265,-1203.0598020575 95.345313969265,-1115.4540953654 z M 95.345313969265,-1228.4889753088 151.05431201675,-1228.4889753088 C 169.47686271989,-1228.4888622739 182.55890986535,-1231.9186124619 190.30049269928,-1238.7782361619 198.04178214233,-1245.6376132136 201.91250021155,-1255.2899101711 201.91265851921,-1267.7351559913 201.91250021155,-1276.7503470614 199.63416615817,-1284.4672849843 195.07764952393,-1290.8859929108 190.52082994451,-1297.3043499734 184.51876711553,-1301.5425412771 177.07144303101,-1303.6005795364 172.26965930146,-1304.8742986026 163.40130524407,-1305.5112522089 150.46635425372,-1305.5114422662 L 95.345313969265,-1305.5114422662 z"
 style="font-size:400px;font-style:normal;font-weight:normal;line-height:125%;letter-spacing:0px;word-spacing:0px;fill:none;fill-opacity:1;stroke:#000000;font-family:Sans;stroke-opacity:1;stroke-width:4;stroke-miterlimit:4;stroke-dasharray:none"
 id="path4450"
 inkscape:connector-curvature="0" />
<path
 d="M 268.49887518283,-1115.4540953654 268.49887518283,-1330.9406155175 424.30768238688,-1330.9406155175 424.30768238688,-1305.5114422662 297.01482668998,-1305.5114422662 297.01482668998,-1239.5131833656 416.22326314516,-1239.5131833656 416.22326314516,-1214.2309995552 297.01482668998,-1214.2309995552 297.01482668998,-1140.8832686167 429.30532337267,-1140.8832686167 429.30532337267,-1115.4540953654 z"
 style="font-size:400px;font-style:normal;font-weight:normal;line-height:125%;letter-spacing:0px;word-spacing:0px;fill:none;fill-opacity:1;stroke:#000000;font-family:Sans;stroke-opacity:1;stroke-width:4;stroke-miterlimit:4;stroke-dasharray:none"
 id="path4452"
 inkscape:connector-curvature="0" />
<path
 d="M 469.43344069975,-1115.4540953654 469.43344069975,-1330.9406155175 564.9765771928,-1330.9406155175 C 584.18305903686,-1330.9404000309 598.78399555126,-1329.0050409963 608.77943053885,-1325.1345326075 618.77453950386,-1321.2636048578 626.76095779865,-1314.4286026975 632.73870938249,-1304.6295056217 638.71608702519,-1294.830030195 641.70486933184,-1284.0018188873 641.70506526876,-1272.144839214 641.70486933184,-1256.8577959713 636.75622977494,-1243.9717345509 626.85913175215,-1233.4866162945 616.96167154737,-1223.0012619732 601.67478499539,-1216.3377473223 580.99842623548,-1213.4960523514 588.54374141868,-1209.8702183964 594.27632387568,-1206.2934789148 598.19619080423,-1202.765823176 606.52543168976,-1195.1222925883 614.41385712204,-1185.5679884933 621.86149076636,-1174.1028822281 L 659.34379815979,-1115.4540953654 623.4783746147,-1115.4540953654 594.96242310755,-1160.2858747968 C 586.63288059968,-1173.2208878167 579.77338022379,-1183.1181669305 574.38390140135,-1189.97774183 568.99416534739,-1196.8371676823 564.16801686864,-1201.6388179454 559.90544148663,-1204.3827070244 555.64263783003,-1207.1264182461 551.30645366384,-1209.0372790651 546.8968759795,-1210.1152952139 543.66301038784,-1210.8011505903 538.37139581216,-1211.1441256092 531.02201637758,-1211.1442212993 L 497.94939220691,-1211.1442212993 497.94939220691,-1115.4540953654 z M 497.94939220691,-1235.8384473467 559.24398900322,-1235.8384473467 C 572.27692624156,-1235.8383269624 582.46818394289,-1237.1857288219 589.817792681,-1239.8806569675 597.1671133198,-1242.5753362601 602.75270648303,-1246.8870222106 606.57458892747,-1252.8157277543 610.39614975902,-1258.7441585747 612.30701057802,-1265.1871892849 612.30717711705,-1272.144839214 612.30701057802,-1282.3359402246 608.60778001816,-1290.7143299695 601.20947433978,-1297.2800335838 593.81085777874,-1303.8453735462 582.1252089241,-1307.1281344403 566.15249271887,-1307.1283261146 L 497.94939220691,-1307.1283261146 z"
 style="font-size:400px;font-style:normal;font-weight:normal;line-height:125%;letter-spacing:0px;word-spacing:0px;fill:none;fill-opacity:1;stroke:#000000;font-family:Sans;stroke-opacity:1;stroke-width:4;stroke-miterlimit:4;stroke-dasharray:none"
 id="path4454"
 inkscape:connector-curvature="0" />
<path
 d="M 688.0067391077,-1115.4540953654 688.0067391077,-1330.9406155175 833.3792960179,-1330.9406155175 833.3792960179,-1305.5114422662 716.52269061486,-1305.5114422662 716.52269061486,-1238.7782361619 817.65142585674,-1238.7782361619 817.65142585674,-1213.3490629106 716.52269061486,-1213.3490629106 716.52269061486,-1115.4540953654 z"
 style="font-size:400px;font-style:normal;font-weight:normal;line-height:125%;letter-spacing:0px;word-spacing:0px;fill:none;fill-opacity:1;stroke:#000000;font-family:Sans;stroke-opacity:1;stroke-width:4;stroke-miterlimit:4;stroke-dasharray:none"
 id="path4456"
 inkscape:connector-curvature="0" />
<path
 d="M 871.15558229284,-1115.4540953654 871.15558229284,-1330.9406155175 1026.9643894969,-1330.9406155175 1026.9643894969,-1305.5114422662 899.6715338,-1305.5114422662 899.6715338,-1239.5131833656 1018.8799702552,-1239.5131833656 1018.8799702552,-1214.2309995552 899.6715338,-1214.2309995552 899.6715338,-1140.8832686167 1031.9620304827,-1140.8832686167 1031.9620304827,-1115.4540953654 z"
 style="font-size:400px;font-style:normal;font-weight:normal;line-height:125%;letter-spacing:0px;word-spacing:0px;fill:none;fill-opacity:1;stroke:#000000;font-family:Sans;stroke-opacity:1;stroke-width:4;stroke-miterlimit:4;stroke-dasharray:none"
 id="path4458"
 inkscape:connector-curvature="0" />
<path
 d="M 1225.4001345209,-1191.0066679153 1253.9160860281,-1183.8041853182 C 1247.9383159236,-1160.3838228275 1237.1835992628,-1142.5246236346 1221.6519037816,-1130.2265341617 1206.1198618463,-1117.9284151439 1187.1337447344,-1111.7793630212 1164.6934954877,-1111.7793593465 1141.4690708035,-1111.7793630212 1122.5809465542,-1116.5075186375 1108.0290660752,-1125.9638403797 1093.4770663879,-1135.4201411024 1082.4038729239,-1149.1146436385 1074.8094524638,-1167.0473890717 1067.2149792345,-1184.9800313182 1063.4177558121,-1204.2356288019 1063.417770805,-1224.8142392898 1063.4177558121,-1247.254495445 1067.704943547,-1266.828569732 1076.2793468714,-1283.5365208728 1084.8536944868,-1300.2441358488 1097.0538058696,-1312.9342115442 1112.8797176203,-1321.6067860293 1128.7055004612,-1330.278948209 1146.1237317728,-1334.6151323752 1165.1344638099,-1334.6153515364 1186.6927768531,-1334.6151323752 1204.821456418,-1329.1275320745 1219.5205568906,-1318.1525341715 1234.2193151718,-1307.1771308716 1244.4595693044,-1291.7432550258 1250.2413500091,-1271.8508603325 L 1222.1663668242,-1265.2363354984 C 1217.1685570946,-1280.9150437182 1209.9170852686,-1292.3312122009 1200.411929592,-1299.4848751951 1190.9064699412,-1306.6381701278 1178.9513407146,-1310.2149096095 1164.5465060469,-1310.2151043705 1147.9855961606,-1310.2149096095 1134.1441043307,-1306.2461986777 1123.0219890326,-1298.3089596691 1111.8997245403,-1290.3713549507 1104.0847937549,-1279.7146311524 1099.5771732316,-1266.3387563041 1095.0694504037,-1252.9625796865 1092.8156145659,-1239.1700842878 1092.8156589567,-1224.9612287306 1092.8156145659,-1206.6364539335 1095.4859200694,-1190.6391191284 1100.8265834781,-1176.9691763229 1106.1671420833,-1163.2991104873 1114.4720371812,-1153.0833545703 1125.7412936866,-1146.3218779247 1137.0103955592,-1139.5603395435 1149.210506942,-1136.1795857869 1162.3416644355,-1136.1796065124 1178.3143871083,-1136.1795857869 1191.837402135,-1140.785250325 1202.9107500849,-1149.9966139437 1213.9837890629,-1159.2079084774 1221.4802430451,-1172.8779127979 1225.4001345209,-1191.0066679153 z"
 style="font-size:400px;font-style:normal;font-weight:normal;line-height:125%;letter-spacing:0px;word-spacing:0px;fill:none;fill-opacity:1;stroke:#000000;font-family:Sans;stroke-opacity:1;stroke-width:4;stroke-miterlimit:4;stroke-dasharray:none"
 id="path4460"
 inkscape:connector-curvature="0" />
<path
 d="M 1344.0206132131,-1115.4540953654 1344.0206132131,-1305.5114422662 1273.0247133267,-1305.5114422662 1273.0247133267,-1330.9406155175 1443.8264434881,-1330.9406155175 1443.8264434881,-1305.5114422662 1372.5365647202,-1305.5114422662 1372.5365647202,-1115.4540953654 z"
 style="font-size:400px;font-style:normal;font-weight:normal;line-height:125%;letter-spacing:0px;word-spacing:0px;fill:none;fill-opacity:1;stroke:#000000;font-family:Sans;stroke-opacity:1;stroke-width:4;stroke-miterlimit:4;stroke-dasharray:none"
 id="path4462"
 inkscape:connector-curvature="0" />
</g>
<g
 id="g4517"
 transform="translate(0,-240)"
 style="stroke:#000000;stroke-opacity:1;stroke-width:4;stroke-miterlimit:4;stroke-dasharray:none;fill:none">
<path
 d="M 104.45865929629,-739.16112702358 47.279766841222,-954.6476471756 76.530665552171,-954.6476471756 109.30931084133,-813.39079460664 C 112.83698818749,-798.59379813754 115.87476692541,-783.89486876067 118.42265616836,-769.29396237908 123.91018165142,-792.32225493672 127.14394611439,-805.60028780717 128.12395925842,-809.12810082464 L 169.13401323005,-954.6476471756 203.52954236755,-954.6476471756 234.39732492684,-845.58148213276 C 242.13857027302,-818.53534565885 247.7241634363,-793.10619783683 251.15412117332,-769.29396237908 253.89771377455,-782.9149401355 257.47445325629,-798.54480170626 261.88435034869,-816.18359398105 L 295.69192172316,-954.6476471756 324.35486267107,-954.6476471756 265.26510748614,-739.16112702358 237.77808206429,-739.16112702358 192.3583448699,-903.34833235087 C 188.53647447861,-917.06716891542 186.2826386408,-925.49455509155 185.59683059501,-928.63051616134 183.34285276545,-918.73304757819 181.23600622142,-910.30566140206 179.27628464239,-903.34833235087 L 133.56256856649,-739.16112702358 z"
 style="font-size:400px;font-style:normal;font-weight:normal;line-height:125%;letter-spacing:0px;word-spacing:0px;fill:none;fill-opacity:1;stroke:#000000;font-family:Sans;stroke-opacity:1;stroke-width:4;stroke-miterlimit:4;stroke-dasharray:none"
 id="path4464"
 inkscape:connector-curvature="0" />
<path
 d="M 342.14058500285,-844.11158772517 C 342.14057045093,-879.87887759186 351.74387097714,-907.8803380549 370.95051539153,-928.11605311868 390.15707308214,-948.35139027264 414.94926729786,-958.46915332704 445.32717241535,-958.46937263532 465.21960576689,-958.46915332704 483.15229960673,-953.71649949522 499.12530773298,-944.21139688174 515.09797278588,-934.70588416771 527.27358595308,-921.4523495129 535.65218376147,-904.45075315656 544.03036544276,-887.44882622097 548.21956031518,-868.16873052162 548.21978094633,-846.61040821807 548.21956031518,-824.75789242846 543.8098815021,-805.20831635712 534.99073127806,-787.96162135541 526.17116624981,-770.71482875264 513.67707627944,-757.65727982282 497.50842388463,-748.78893539326 481.33943165023,-739.92057170804 463.89670212298,-735.48639467934 445.18018297459,-735.48639100461 424.8955428429,-735.48639467934 406.76686327805,-740.38603780501 390.79408989393,-750.18533508047 374.8211900989,-759.98461030756 362.71907157857,-773.3606360405 354.48769802657,-790.31345240755 346.25627067643,-807.26616646994 342.14057045093,-825.19886030972 342.14058500285,-844.11158772517 z M 371.53847315456,-843.6706194029 C 371.53842920472,-817.70240632754 378.52042065875,-797.24639627797 392.48446846266,-782.30252788621 406.44838647488,-767.3585732116 423.96461064903,-759.88661744499 445.03319353383,-759.88663817053 466.49351297956,-759.88661744499 484.15672644748,-767.43206785853 498.02288692729,-782.52301204735 511.88870653858,-797.61386951245 518.82170156136,-819.02530997147 518.82189279462,-846.75739765883 518.82170156136,-864.29801245232 515.85741747035,-879.60939721995 509.92903162873,-892.69159789587 504.00028110631,-905.77349151087 495.32791277393,-915.91575278091 483.91190061447,-923.11841213289 472.49557580846,-930.3207035703 459.68300903492,-933.92194126761 445.47416185611,-933.92213602864 425.28751429295,-933.92194126761 407.91827941257,-926.98894624483 393.36640510721,-913.12313016131 378.81439924629,-899.25696615378 371.53842920472,-876.10615238513 371.53847315456,-843.6706194029 z"
 style="font-size:400px;font-style:normal;font-weight:normal;line-height:125%;letter-spacing:0px;word-spacing:0px;fill:none;fill-opacity:1;stroke:#000000;font-family:Sans;stroke-opacity:1;stroke-width:4;stroke-miterlimit:4;stroke-dasharray:none"
 id="path4466"
 inkscape:connector-curvature="0" />
<path
 d="M 585.26112001748,-739.16112702358 585.26112001748,-954.6476471756 680.80425651053,-954.6476471756 C 700.01073835459,-954.6474316891 714.61167486899,-952.71207265448 724.60710985658,-948.84156426564 734.60221882159,-944.97063651596 742.58863711638,-938.13563435567 748.56638870022,-928.33653727982 754.54376634293,-918.53706185313 757.53254864957,-907.70885054548 757.53274458649,-895.85187087218 757.53254864957,-880.56482762947 752.58390909267,-867.678766209 742.68681106988,-857.19364795268 732.7893508651,-846.70829363131 717.50246431312,-840.04477898044 696.82610555321,-837.20308400952 704.37142073641,-833.57725005457 710.10400319341,-830.0005105729 714.02387012196,-826.47285483415 722.35311100749,-818.82932424641 730.24153643977,-809.27502015141 737.68917008409,-797.80991388623 L 775.17147747752,-739.16112702358 739.30605393243,-739.16112702358 710.79010242528,-783.99290645493 C 702.46055991741,-796.92791947484 695.60105954152,-806.82519858861 690.21158071908,-813.68477348816 684.82184466512,-820.54419934039 679.99569618637,-825.3458496035 675.73312080436,-828.08973868249 671.47031714776,-830.83344990421 667.13413298157,-832.74431072326 662.72455529723,-833.82232687208 659.49068970557,-834.50818224845 654.19907512989,-834.85115726729 646.84969569531,-834.85125295739 L 613.77707152464,-834.85125295739 613.77707152464,-739.16112702358 z M 613.77707152464,-859.54547900482 675.07166832095,-859.54547900482 C 688.10460555929,-859.5453586205 698.29586326062,-860.89276048 705.64547199873,-863.58768862568 712.99479263753,-866.28236791822 718.58038580076,-870.59405386878 722.4022682452,-876.52275941243 726.22382907675,-882.4511902328 728.13468989575,-888.89422094303 728.13485643478,-895.85187087218 728.13468989575,-906.04297188278 724.43545933589,-914.42136162763 717.03715365751,-920.98706524189 709.63853709647,-927.5524052043 697.95288824183,-930.83516609848 681.9801720366,-930.83535777271 L 613.77707152464,-930.83535777271 z"
 style="font-size:400px;font-style:normal;font-weight:normal;line-height:125%;letter-spacing:0px;word-spacing:0px;fill:none;fill-opacity:1;stroke:#000000;font-family:Sans;stroke-opacity:1;stroke-width:4;stroke-miterlimit:4;stroke-dasharray:none"
 id="path4468"
 inkscape:connector-curvature="0" />
<path
 d="M 801.18860849178,-739.16112702358 801.18860849178,-954.6476471756 829.70455999894,-954.6476471756 829.70455999894,-764.5903002748 935.8309362266,-764.5903002748 935.8309362266,-739.16112702358 z"
 style="font-size:400px;font-style:normal;font-weight:normal;line-height:125%;letter-spacing:0px;word-spacing:0px;fill:none;fill-opacity:1;stroke:#000000;font-family:Sans;stroke-opacity:1;stroke-width:4;stroke-miterlimit:4;stroke-dasharray:none"
 id="path4470"
 inkscape:connector-curvature="0" />
<path
 d="M 969.93248648258,-739.16112702358 969.93248648258,-954.6476471756 1044.1621540656,-954.6476471756 C 1060.9188361013,-954.6474316891 1073.7069046592,-953.61850663272 1082.5263981036,-951.56086891967 1094.873362962,-948.71886350705 1105.4075956821,-943.5742382251 1114.1291278667,-936.12697764002 1125.4961324972,-926.52348014792 1133.9970133202,-914.24987411821 1139.6317958383,-899.30612273001 1145.2661925092,-884.36205105184 1148.0834873064,-867.28679475895 1148.0836886819,-848.08030262566 1148.0834873064,-831.71538566688 1146.1726264874,-817.212442015 1142.3511004924,-804.57142816113 1138.5291832114,-791.93028348667 1133.6295400858,-781.46954541343 1127.6521564165,-773.18918255918 1121.6744108592,-764.9087516488 1115.1333872865,-758.39222629171 1108.0290660752,-753.63958693829 1100.9244222221,-748.886918628 1092.3500467523,-745.28568093061 1082.3059139425,-742.83586304254 1072.2615099372,-740.38603780501 1060.7228503763,-739.16112702358 1047.6899006439,-739.16112702358 z M 998.44843798974,-764.5903002748 1044.4561329472,-764.5903002748 C 1058.6650002635,-764.5902748456 1069.8116883744,-765.91317848953 1077.8962307197,-768.55901517528 1085.980510689,-771.20479306526 1092.4235413992,-774.92852184071 1097.2253421795,-779.73021267293 1103.9866991757,-786.49167961725 1109.2538155357,-795.58051761527 1113.026707061,-806.99675393364 1116.7992659492,-818.41285458072 1118.6856285526,-832.25434641064 1118.6858005302,-848.52127094793 1118.6856285526,-871.05951996568 1114.9863979927,-888.37975841485 1107.588097753,-900.48203825608 1100.1894757533,-912.58399545551 1091.1986306178,-920.69290482844 1080.6155353738,-924.80879070161 1072.9719581904,-927.74839092936 1060.673853945,-929.21828386699 1043.7211857434,-929.21847392437 L 998.44843798974,-929.21847392437 z"
 style="font-size:400px;font-style:normal;font-weight:normal;line-height:125%;letter-spacing:0px;word-spacing:0px;fill:none;fill-opacity:1;stroke:#000000;font-family:Sans;stroke-opacity:1;stroke-width:4;stroke-miterlimit:4;stroke-dasharray:none"
 id="path4472"
 inkscape:connector-curvature="0" />
</g>
<g
 id="g4509"
 transform="translate(0,-360)"
 style="stroke:#000000;stroke-opacity:1;stroke-width:4;stroke-miterlimit:4;stroke-dasharray:none;fill:none">
<path
 d="M 43.164062499983,-362.86815868171 125.91911764704,-578.35467883373 156.63991076558,-578.35467883373 244.8335752207,-362.86815868171 212.34890881306,-362.86815868171 187.21371444335,-428.1314703785 97.109187258367,-428.1314703785 73.443887296242,-362.86815868171 z M 105.34059594085,-451.35580201835 178.39434799784,-451.35580201835 155.90496356178,-511.03351496632 C 149.04535088596,-529.1620463658 143.9497220353,-544.05696146774 140.6180617229,-555.71830495692 137.87416455947,-541.90111849249 134.00344649025,-528.18211774071 129.00589590297,-514.56126154453 z"
 style="font-size:400px;font-style:normal;font-weight:normal;line-height:125%;letter-spacing:0px;word-spacing:0px;fill:none;fill-opacity:1;stroke:#000000;font-family:Sans;stroke-opacity:1;stroke-width:4;stroke-miterlimit:4;stroke-dasharray:none"
 id="path4474"
 inkscape:connector-curvature="0" />
<path
 d="M 305.54021425398,-362.86815868171 248.36132179891,-578.35467883373 277.61222050986,-578.35467883373 310.39086579901,-437.09782626477 C 313.91854314518,-422.30082979567 316.95632188309,-407.6019004188 319.50421112604,-393.00099403721 324.9917366091,-416.02928659486 328.22550107208,-429.30731946531 329.2055142161,-432.83513248278 L 370.21556818774,-578.35467883373 404.61109732523,-578.35467883373 435.47887988453,-469.2885137909 C 443.22012523074,-442.24237731699 448.80571839396,-416.81322949496 452.235676131,-393.00099403721 454.97926873227,-406.62197179364 458.55600821398,-422.25183336439 462.96590530638,-439.89062563919 L 496.77347668084,-578.35467883373 525.43641762876,-578.35467883373 466.34666244382,-362.86815868171 438.85963702197,-362.86815868171 393.43989982759,-527.055364009 C 389.61802943627,-540.77420057355 387.36419359848,-549.20158674968 386.67838555269,-552.33754781947 384.4244077231,-542.44007923632 382.31756117907,-534.01269306019 380.35783960008,-527.055364009 L 334.64412352417,-362.86815868171 z"
 style="font-size:400px;font-style:normal;font-weight:normal;line-height:125%;letter-spacing:0px;word-spacing:0px;fill:none;fill-opacity:1;stroke:#000000;font-family:Sans;stroke-opacity:1;stroke-width:4;stroke-miterlimit:4;stroke-dasharray:none"
 id="path4476"
 inkscape:connector-curvature="0" />
<path
 d="M 528.22921700317,-362.86815868171 610.98427215023,-578.35467883373 641.70506526876,-578.35467883373 729.89872972389,-362.86815868171 697.41406331625,-362.86815868171 672.27886894654,-428.1314703785 582.17434176155,-428.1314703785 558.50904179943,-362.86815868171 z M 590.40575044403,-451.35580201835 663.45950250103,-451.35580201835 640.97011806497,-511.03351496632 C 634.11050538914,-529.1620463658 629.01487653848,-544.05696146774 625.68321622608,-555.71830495692 622.93931906269,-541.90111849249 619.06860099344,-528.18211774071 614.07105040616,-514.56126154453 z"
 style="font-size:400px;font-style:normal;font-weight:normal;line-height:125%;letter-spacing:0px;word-spacing:0px;fill:none;fill-opacity:1;stroke:#000000;font-family:Sans;stroke-opacity:1;stroke-width:4;stroke-miterlimit:4;stroke-dasharray:none"
 id="path4478"
 inkscape:connector-curvature="0" />
<path
 d="M 757.82672346801,-362.86815868171 757.82672346801,-578.35467883373 786.34267497517,-578.35467883373 786.34267497517,-362.86815868171 z"
 style="font-size:400px;font-style:normal;font-weight:normal;line-height:125%;letter-spacing:0px;word-spacing:0px;fill:none;fill-opacity:1;stroke:#000000;font-family:Sans;stroke-opacity:1;stroke-width:4;stroke-miterlimit:4;stroke-dasharray:none"
 id="path4480"
 inkscape:connector-curvature="0" />
<path
 d="M 891.29313567676,-362.86815868171 891.29313567676,-552.9255055825 820.29723579039,-552.9255055825 820.29723579039,-578.35467883373 991.09896595181,-578.35467883373 991.09896595181,-552.9255055825 919.80908718392,-552.9255055825 919.80908718392,-362.86815868171 z"
 style="font-size:400px;font-style:normal;font-weight:normal;line-height:125%;letter-spacing:0px;word-spacing:0px;fill:none;fill-opacity:1;stroke:#000000;font-family:Sans;stroke-opacity:1;stroke-width:4;stroke-miterlimit:4;stroke-dasharray:none"
 id="path4482"
 inkscape:connector-curvature="0" />
<path
 d="M 1010.7955510135,-432.10018527898 1037.6946186723,-434.45201633112 C 1038.9684854628,-423.67272987089 1041.9327695539,-414.82887402906 1046.5874798382,-407.9204222742 1051.2420914926,-401.01188041479 1058.4690651029,-395.42628725158 1068.26842235,-391.16362602773 1078.0676376054,-386.90090821295 1089.0918346381,-384.76956345328 1101.3410465207,-384.76958535473 1112.2181501911,-384.76956345328 1121.8214507174,-386.38644568477 1130.1509769094,-389.62023689977 1138.4802373445,-392.85397461057 1144.6782858985,-397.28815163934 1148.7451411653,-402.92278128841 1152.811693487,-408.55733082825 1154.8450453841,-414.70638295093 1154.8452029568,-421.36995610361 1154.8450453841,-428.13140511515 1152.8851881339,-434.03547508156 1148.9656253265,-439.08218371501 1145.0457591329,-444.12873992039 1138.578230207,-448.3669312241 1129.5630191464,-451.79677034063 1123.7813079676,-454.0505172498 1110.9932394097,-457.55376208462 1091.1987751084,-462.30651535486 1071.4041229546,-467.05906974841 1057.538132909,-471.54224320831 1049.6007633737,-475.75604918427 1039.3114604816,-481.1455437346 1031.64351899,-487.83355660111 1026.596915895,-495.82010784781 1021.5502541512,-503.80639319063 1019.0269379415,-512.74824189495 1019.0269596959,-522.64568078625 1019.0269379415,-533.52272874765 1022.1137131107,-543.68948823333 1028.2872944637,-553.14598974364 1034.4608137873,-562.60211069827 1043.4761571384,-569.78008787732 1055.3333515633,-574.67994281477 1067.1904298665,-579.57937412859 1080.3704698745,-582.02919569147 1094.8735111273,-582.0294148527 1110.8462501159,-582.02919569147 1124.9327241021,-579.45688305046 1137.1329753454,-574.31246921287 1149.3329468678,-569.16763248664 1158.7157634534,-561.59768385753 1165.2814532507,-551.60260061568 1171.8468070301,-541.60713990494 1175.3745500806,-530.28896428474 1175.8646929853,-517.64803980045 L 1148.5246570042,-515.59018762984 C 1147.0546128144,-529.21104279709 1142.0814750419,-539.5002933609 1133.6052287672,-546.45797018913 1125.1287098272,-553.41527983775 1112.6101216412,-556.89402645692 1096.0494266534,-556.89422048299 1078.8025840743,-556.89402645692 1066.234999457,-553.73375664087 1058.3466350988,-547.41340155406 1050.4581485925,-541.09267737675 1046.5139358763,-533.47373231636 1046.5139851178,-524.55654351611 1046.5139358763,-516.81494568923 1049.3067324579,-510.44540962585 1054.892383241,-505.4479162175 1060.3799259219,-500.45013764959 1074.7113820644,-495.33001058328 1097.8867946629,-490.08751965823 1121.0620060329,-484.8447742944 1136.9613479756,-480.26360797193 1145.584868189,-476.3440069473 1158.1278062783,-470.56231458322 1167.3881317858,-463.23734811039 1173.3658724924,-454.3690855539 1179.3432610123,-445.50063999561 1182.332043319,-435.28488407864 1182.3322283787,-423.72178715575 1182.332043319,-412.25656138813 1179.0492824248,-401.45284829612 1172.4839358479,-391.31061546849 1165.9182388481,-381.16832575597 1156.4864258312,-373.27990032367 1144.1884685018,-367.64531550636 1131.8902173405,-362.01072113476 1118.0487255106,-359.19342633747 1102.6639514875,-359.19342266275 1083.1632664561,-359.19342633747 1066.8229566321,-362.03521935032 1053.6429729946,-367.71881022674 1040.4628766162,-373.4023914018 1030.1246296211,-381.95226865607 1022.6282009945,-393.36846763911 1015.1317216566,-404.78460562152 1011.1875089405,-417.69516525756 1010.7955510135,-432.10018527898 z"
 style="font-size:400px;font-style:normal;font-weight:normal;line-height:125%;letter-spacing:0px;word-spacing:0px;fill:none;fill-opacity:1;stroke:#000000;font-family:Sans;stroke-opacity:1;stroke-width:4;stroke-miterlimit:4;stroke-dasharray:none"
 id="path4484"
 inkscape:connector-curvature="0" />
</g>
<path
 inkscape:connector-curvature="0"
 style="fill:none;stroke:#000000"
 d=""
 id="path3784" />
<path
 inkscape:connector-curvature="0"
 style="fill:none;stroke:#000000"
 d=""
 id="path3792" />
<path
 inkscape:connector-curvature="0"
 style="fill:none;stroke:#000000"
 d=""
 id="path3802" />
<path
 inkscape:connector-curvature="0"
 style="fill:none;stroke:#000000"
 d=""
 id="path3812" />
<g
 id="g4569"
 transform="matrix(0.96423053014902,0,0,0.96423053014902,1.1575449141279,-25.135985655475)"
 style="fill:none;stroke:#000000;stroke-width:4.4700250626;stroke-miterlimit:4;stroke-opacity:1;stroke-dasharray:none">
<g
 transform="matrix(3.8910355396474,0,0,3.8910355396474,-418.66024044558,-193.67921942787)"
 id="g4327"
 style="fill:none;stroke:#000000;stroke-width:1.1488009691;stroke-miterlimit:4;stroke-opacity:1;stroke-dasharray:none">
<path
 inkscape:connector-curvature="0"
 style="fill:none;stroke:#000000;stroke-width:1.1488009691;stroke-miterlimit:4;stroke-opacity:1;stroke-dasharray:none"
 d="M 116.26865988788,-130.46875727117 116.26865988788,-109.46875727117 M 116.26865988788,-130.46875727117 125.26865988788,-130.46875727117 128.26865988788,-129.46875727117 129.26865988788,-128.46875727117 130.26865988788,-126.46875727117 130.26865988788,-124.46875727117 129.26865988788,-122.46875727117 128.26865988788,-121.46875727117 125.26865988788,-120.46875727117 M 116.26865988788,-120.46875727117 125.26865988788,-120.46875727117 128.26865988788,-119.46875727117 129.26865988788,-118.46875727117 130.26865988788,-116.46875727117 130.26865988788,-113.46875727117 129.26865988788,-111.46875727117 128.26865988788,-110.46875727117 125.26865988788,-109.46875727117 116.26865988788,-109.46875727117"
 id="path3778" />
<path
 inkscape:connector-curvature="0"
 style="fill:none;stroke:#000000;stroke-width:1.1488009691;stroke-miterlimit:4;stroke-opacity:1;stroke-dasharray:none"
 d="M 137.26865988788,-130.46875727117 137.26865988788,-115.46875727117 138.26865988788,-112.46875727117 140.26865988788,-110.46875727117 143.26865988788,-109.46875727117 145.26865988788,-109.46875727117 148.26865988788,-110.46875727117 150.26865988788,-112.46875727117 151.26865988788,-115.46875727117 151.26865988788,-130.46875727117"
 id="path3780" />
<path
 inkscape:connector-curvature="0"
 style="fill:none;stroke:#000000;stroke-width:1.1488009691;stroke-miterlimit:4;stroke-opacity:1;stroke-dasharray:none"
 d="M 163.26865988788,-130.46875727117 163.26865988788,-109.46875727117 M 156.26865988788,-130.46875727117 170.26865988788,-130.46875727117"
 id="path3782" />
</g>
<g
 transform="matrix(3.8910355396474,0,0,3.8910355396474,-418.66024044558,-193.67921942787)"
 id="g4332"
 style="fill:none;stroke:#000000;stroke-width:1.1488009691;stroke-miterlimit:4;stroke-opacity:1;stroke-dasharray:none">
<path
 inkscape:connector-curvature="0"
 style="fill:none;stroke:#000000;stroke-width:1.1488009691;stroke-miterlimit:4;stroke-opacity:1;stroke-dasharray:none"
 d="M 188.26865988788,-130.46875727117 196.26865988788,-120.46875727117 196.26865988788,-109.46875727117 M 204.26865988788,-130.46875727117 196.26865988788,-120.46875727117"
 id="path3786" />
<path
 inkscape:connector-curvature="0"
 style="fill:none;stroke:#000000;stroke-width:1.1488009691;stroke-miterlimit:4;stroke-opacity:1;stroke-dasharray:none"
 d="M 214.26865988788,-130.46875727117 212.26865988788,-129.46875727117 210.26865988788,-127.46875727117 209.26865988788,-125.46875727117 208.26865988788,-122.46875727117 208.26865988788,-117.46875727117 209.26865988788,-114.46875727117 210.26865988788,-112.46875727117 212.26865988788,-110.46875727117 214.26865988788,-109.46875727117 218.26865988788,-109.46875727117 220.26865988788,-110.46875727117 222.26865988788,-112.46875727117 223.26865988788,-114.46875727117 224.26865988788,-117.46875727117 224.26865988788,-122.46875727117 223.26865988788,-125.46875727117 222.26865988788,-127.46875727117 220.26865988788,-129.46875727117 218.26865988788,-130.46875727117 214.26865988788,-130.46875727117"
 id="path3788" />
<path
 inkscape:connector-curvature="0"
 style="fill:none;stroke:#000000;stroke-width:1.1488009691;stroke-miterlimit:4;stroke-opacity:1;stroke-dasharray:none"
 d="M 231.26865988788,-130.46875727117 231.26865988788,-115.46875727117 232.26865988788,-112.46875727117 234.26865988788,-110.46875727117 237.26865988788,-109.46875727117 239.26865988788,-109.46875727117 242.26865988788,-110.46875727117 244.26865988788,-112.46875727117 245.26865988788,-115.46875727117 245.26865988788,-130.46875727117"
 id="path3790" />
</g>
<g
 transform="matrix(3.8910355396474,0,0,3.8910355396474,-418.66024044558,-193.67921942787)"
 id="g4337"
 style="fill:none;stroke:#000000;stroke-width:1.1488009691;stroke-miterlimit:4;stroke-opacity:1;stroke-dasharray:none">
<path
 inkscape:connector-curvature="0"
 style="fill:none;stroke:#000000;stroke-width:1.1488009691;stroke-miterlimit:4;stroke-opacity:1;stroke-dasharray:none"
 d="M 267.26865988788,-130.46875727117 272.26865988788,-109.46875727117 M 277.26865988788,-130.46875727117 272.26865988788,-109.46875727117 M 277.26865988788,-130.46875727117 282.26865988788,-109.46875727117 M 287.26865988788,-130.46875727117 282.26865988788,-109.46875727117"
 id="path3794" />
<path
 inkscape:connector-curvature="0"
 style="fill:none;stroke:#000000;stroke-width:1.1488009691;stroke-miterlimit:4;stroke-opacity:1;stroke-dasharray:none"
 d="M 293.26865988788,-130.46875727117 293.26865988788,-109.46875727117"
 id="path3796" />
<path
 inkscape:connector-curvature="0"
 style="fill:none;stroke:#000000;stroke-width:1.1488009691;stroke-miterlimit:4;stroke-opacity:1;stroke-dasharray:none"
 d="M 301.26865988788,-130.46875727117 301.26865988788,-109.46875727117 M 301.26865988788,-109.46875727117 313.26865988788,-109.46875727117"
 id="path3798" />
<path
 inkscape:connector-curvature="0"
 style="fill:none;stroke:#000000;stroke-width:1.1488009691;stroke-miterlimit:4;stroke-opacity:1;stroke-dasharray:none"
 d="M 318.26865988788,-130.46875727117 318.26865988788,-109.46875727117 M 318.26865988788,-109.46875727117 330.26865988788,-109.46875727117"
 id="path3800" />
</g>
<g
 transform="matrix(3.8910355396474,0,0,3.8910355396474,-418.66024044558,-193.67921942787)"
 id="g4352"
 style="fill:none;stroke:#000000;stroke-width:1.1488009691;stroke-miterlimit:4;stroke-opacity:1;stroke-dasharray:none">
<g
 id="g4343"
 style="fill:none;stroke:#000000;stroke-width:1.1488009691;stroke-miterlimit:4;stroke-opacity:1;stroke-dasharray:none">
<path
 id="path3804"
 d="M 351.26865988788,-130.46875727117 351.26865988788,-109.46875727117 M 365.26865988788,-130.46875727117 365.26865988788,-109.46875727117 M 351.26865988788,-120.46875727117 365.26865988788,-120.46875727117"
 style="fill:none;stroke:#000000;stroke-width:1.1488009691;stroke-miterlimit:4;stroke-opacity:1;stroke-dasharray:none"
 inkscape:connector-curvature="0" />
<path
 id="path3806"
 d="M 378.26865988788,-130.46875727117 370.26865988788,-109.46875727117 M 378.26865988788,-130.46875727117 386.26865988788,-109.46875727117 M 373.26865988788,-116.46875727117 383.26865988788,-116.46875727117"
 style="fill:none;stroke:#000000;stroke-width:1.1488009691;stroke-miterlimit:4;stroke-opacity:1;stroke-dasharray:none"
 inkscape:connector-curvature="0" />
<path
 id="path3808"
 d="M 388.26865988788,-130.46875727117 396.26865988788,-109.46875727117 M 404.26865988788,-130.46875727117 396.26865988788,-109.46875727117"
 style="fill:none;stroke:#000000;stroke-width:1.1488009691;stroke-miterlimit:4;stroke-opacity:1;stroke-dasharray:none"
 inkscape:connector-curvature="0" />
</g>
<path
 inkscape:connector-curvature="0"
 style="fill:none;stroke:#000000;stroke-width:1.1488009691;stroke-miterlimit:4;stroke-opacity:1;stroke-dasharray:none"
 d="M 409.26865988788,-130.46875727117 409.26865988788,-109.46875727117 M 409.26865988788,-130.46875727117 422.26865988788,-130.46875727117 M 409.26865988788,-120.46875727117 417.26865988788,-120.46875727117 M 409.26865988788,-109.46875727117 422.26865988788,-109.46875727117"
 id="path3810" />
</g>
<g
 transform="matrix(3.8910355396474,0,0,3.8910355396474,-418.66024044558,-193.67921942787)"
 id="g4348"
 style="fill:none;stroke:#000000;stroke-width:1.1488009691;stroke-miterlimit:4;stroke-opacity:1;stroke-dasharray:none">
<path
 inkscape:connector-curvature="0"
 style="fill:none;stroke:#000000;stroke-width:1.1488009691;stroke-miterlimit:4;stroke-opacity:1;stroke-dasharray:none"
 d="M 448.26865988788,-130.46875727117 448.26865988788,-109.46875727117 M 441.26865988788,-130.46875727117 455.26865988788,-130.46875727117"
 id="path3814" />
<path
 inkscape:connector-curvature="0"
 style="fill:none;stroke:#000000;stroke-width:1.1488009691;stroke-miterlimit:4;stroke-opacity:1;stroke-dasharray:none"
 d="M 465.26865988788,-130.46875727117 463.26865988788,-129.46875727117 461.26865988788,-127.46875727117 460.26865988788,-125.46875727117 459.26865988788,-122.46875727117 459.26865988788,-117.46875727117 460.26865988788,-114.46875727117 461.26865988788,-112.46875727117 463.26865988788,-110.46875727117 465.26865988788,-109.46875727117 469.26865988788,-109.46875727117 471.26865988788,-110.46875727117 473.26865988788,-112.46875727117 474.26865988788,-114.46875727117 475.26865988788,-117.46875727117 475.26865988788,-122.46875727117 474.26865988788,-125.46875727117 473.26865988788,-127.46875727117 471.26865988788,-129.46875727117 469.26865988788,-130.46875727117 465.26865988788,-130.46875727117"
 id="path3816" />
</g>
</g>
<path
 inkscape:connector-curvature="0"
 style="fill:none;stroke:#000000"
 d=""
 id="path3818" />
<path
 inkscape:connector-curvature="0"
 style="fill:none;stroke:#000000"
 d=""
 id="path3830" />
<g
 id="g4558"
 transform="matrix(0.57885265451899,0,0,0.57885265451899,16.189453657283,-237.27334964009)"
 style="fill:none;stroke:#000000;stroke-width:5.2919330597;stroke-miterlimit:4;stroke-opacity:1;stroke-dasharray:none">
<g
 transform="matrix(11.636750037448,0,0,11.636750037448,-5760.0505111497,935.57514762826)"
 id="g4359"
 style="fill:none;stroke:#000000;stroke-width:0.4547603726;stroke-miterlimit:4;stroke-opacity:1;stroke-dasharray:none">
<path
 inkscape:connector-curvature="0"
 style="fill:none;stroke:#000000;stroke-width:0.4547603726;stroke-miterlimit:4;stroke-opacity:1;stroke-dasharray:none"
 d="M 498.26865988788,-130.46875727117 498.26865988788,-109.46875727117 M 498.26865988788,-130.46875727117 507.26865988788,-130.46875727117 510.26865988788,-129.46875727117 511.26865988788,-128.46875727117 512.26865988788,-126.46875727117 512.26865988788,-124.46875727117 511.26865988788,-122.46875727117 510.26865988788,-121.46875727117 507.26865988788,-120.46875727117 M 498.26865988788,-120.46875727117 507.26865988788,-120.46875727117 510.26865988788,-119.46875727117 511.26865988788,-118.46875727117 512.26865988788,-116.46875727117 512.26865988788,-113.46875727117 511.26865988788,-111.46875727117 510.26865988788,-110.46875727117 507.26865988788,-109.46875727117 498.26865988788,-109.46875727117"
 id="path3820" />
<path
 inkscape:connector-curvature="0"
 style="fill:none;stroke:#000000;stroke-width:0.4547603726;stroke-miterlimit:4;stroke-opacity:1;stroke-dasharray:none"
 d="M 519.26865988788,-130.46875727117 519.26865988788,-115.46875727117 520.26865988788,-112.46875727117 522.26865988788,-110.46875727117 525.26865988788,-109.46875727117 527.26865988788,-109.46875727117 530.26865988788,-110.46875727117 532.26865988788,-112.46875727117 533.26865988788,-115.46875727117 533.26865988788,-130.46875727117"
 id="path3822" />
<path
 inkscape:connector-curvature="0"
 style="fill:none;stroke:#000000;stroke-width:0.4547603726;stroke-miterlimit:4;stroke-opacity:1;stroke-dasharray:none"
 d="M 541.26865988788,-130.46875727117 541.26865988788,-109.46875727117"
 id="path3824" />
<path
 inkscape:connector-curvature="0"
 style="fill:none;stroke:#000000;stroke-width:0.4547603726;stroke-miterlimit:4;stroke-opacity:1;stroke-dasharray:none"
 d="M 549.26865988788,-130.46875727117 549.26865988788,-109.46875727117 M 549.26865988788,-109.46875727117 561.26865988788,-109.46875727117"
 id="path3826" />
<path
 inkscape:connector-curvature="0"
 style="fill:none;stroke:#000000;stroke-width:0.4547603726;stroke-miterlimit:4;stroke-opacity:1;stroke-dasharray:none"
 d="M 566.26865988788,-130.46875727117 566.26865988788,-109.46875727117 M 566.26865988788,-130.46875727117 573.26865988788,-130.46875727117 576.26865988788,-129.46875727117 578.26865988788,-127.46875727117 579.26865988788,-125.46875727117 580.26865988788,-122.46875727117 580.26865988788,-117.46875727117 579.26865988788,-114.46875727117 578.26865988788,-112.46875727117 576.26865988788,-110.46875727117 573.26865988788,-109.46875727117 566.26865988788,-109.46875727117"
 id="path3828" />
</g>
<g
 transform="matrix(11.636750037448,0,0,11.636750037448,-5809.6093418534,935.57514762826)"
 id="g4366"
 style="fill:none;stroke:#000000;stroke-width:0.4547603726;stroke-miterlimit:4;stroke-opacity:1;stroke-dasharray:none">
<path
 inkscape:connector-curvature="0"
 style="fill:none;stroke:#000000;stroke-width:0.4547603726;stroke-miterlimit:4;stroke-opacity:1;stroke-dasharray:none"
 d="M 603.26865988788,-130.46875727117 603.26865988788,-109.46875727117"
 id="path3832" />
<path
 inkscape:connector-curvature="0"
 style="fill:none;stroke:#000000;stroke-width:0.4547603726;stroke-miterlimit:4;stroke-opacity:1;stroke-dasharray:none"
 d="M 615.26865988788,-130.46875727117 615.26865988788,-109.46875727117 M 608.26865988788,-130.46875727117 622.26865988788,-130.46875727117"
 id="path3834" />
</g>
</g>
<path
 inkscape:connector-curvature="0"
 style="fill:none;stroke:#000000"
 d=""
 id="path3836" />
<path
 inkscape:connector-curvature="0"
 style="fill:none;stroke:#000000"
 d=""
 id="path3842" />
<path
 inkscape:connector-curvature="0"
 style="fill:none;stroke:#000000"
 d=""
 id="path3852" />
<path
 inkscape:connector-curvature="0"
 style="fill:none;stroke:#000000"
 d=""
 id="path3860" />
<g
 id="g4593"
 transform="matrix(0.80370550850089,0,0,0.66524230052334,14.026476777444,-176.01377882536)"
 style="fill:none;stroke:#000000;stroke-width:5.4704318047;stroke-miterlimit:4;stroke-opacity:1;stroke-dasharray:none">
<g
 transform="matrix(5.3269961083815,0,0,5.3269961083815,-3393.3467978735,387.71489898635)"
 id="g4370"
 style="fill:none;stroke:#000000;stroke-width:1.0269261599;stroke-miterlimit:4;stroke-opacity:1;stroke-dasharray:none">
<path
 inkscape:connector-curvature="0"
 style="fill:none;stroke:#000000;stroke-width:1.0269261599;stroke-miterlimit:4;stroke-opacity:1;stroke-dasharray:none"
 d="M 643.26865988788,-130.46875727117 643.26865988788,-109.46875727117"
 id="path3838" />
<path
 inkscape:connector-curvature="0"
 style="fill:none;stroke:#000000;stroke-width:1.0269261599;stroke-miterlimit:4;stroke-opacity:1;stroke-dasharray:none"
 d="M 655.26865988788,-130.46875727117 655.26865988788,-109.46875727117 M 648.26865988788,-130.46875727117 662.26865988788,-130.46875727117"
 id="path3840" />
</g>
<g
 transform="matrix(5.3269961083815,0,0,5.3269961083815,-3393.3467978735,387.71489898635)"
 id="g4397"
 style="fill:none;stroke:#000000;stroke-width:1.0269261599;stroke-miterlimit:4;stroke-opacity:1;stroke-dasharray:none">
<path
 inkscape:connector-curvature="0"
 style="fill:none;stroke:#000000;stroke-width:1.0269261599;stroke-miterlimit:4;stroke-opacity:1;stroke-dasharray:none"
 d="M 683.26865988788,-130.46875727117 683.26865988788,-109.46875727117 M 683.26865988788,-130.46875727117 690.26865988788,-130.46875727117 693.26865988788,-129.46875727117 695.26865988788,-127.46875727117 696.26865988788,-125.46875727117 697.26865988788,-122.46875727117 697.26865988788,-117.46875727117 696.26865988788,-114.46875727117 695.26865988788,-112.46875727117 693.26865988788,-110.46875727117 690.26865988788,-109.46875727117 683.26865988788,-109.46875727117"
 id="path3844" />
<path
 inkscape:connector-curvature="0"
 style="fill:none;stroke:#000000;stroke-width:1.0269261599;stroke-miterlimit:4;stroke-opacity:1;stroke-dasharray:none"
 d="M 709.26865988788,-130.46875727117 707.26865988788,-129.46875727117 705.26865988788,-127.46875727117 704.26865988788,-125.46875727117 703.26865988788,-122.46875727117 703.26865988788,-117.46875727117 704.26865988788,-114.46875727117 705.26865988788,-112.46875727117 707.26865988788,-110.46875727117 709.26865988788,-109.46875727117 713.26865988788,-109.46875727117 715.26865988788,-110.46875727117 717.26865988788,-112.46875727117 718.26865988788,-114.46875727117 719.26865988788,-117.46875727117 719.26865988788,-122.46875727117 718.26865988788,-125.46875727117 717.26865988788,-127.46875727117 715.26865988788,-129.46875727117 713.26865988788,-130.46875727117 709.26865988788,-130.46875727117"
 id="path3846" />
<path
 inkscape:connector-curvature="0"
 style="fill:none;stroke:#000000;stroke-width:1.0269261599;stroke-miterlimit:4;stroke-opacity:1;stroke-dasharray:none"
 d="M 726.26865988788,-130.46875727117 726.26865988788,-109.46875727117 M 726.26865988788,-130.46875727117 739.26865988788,-130.46875727117 M 726.26865988788,-120.46875727117 734.26865988788,-120.46875727117 M 726.26865988788,-109.46875727117 739.26865988788,-109.46875727117"
 id="path3848" />
<path
 inkscape:connector-curvature="0"
 style="fill:none;stroke:#000000;stroke-width:1.0269261599;stroke-miterlimit:4;stroke-opacity:1;stroke-dasharray:none"
 d="M 758.26865988788,-127.46875727117 756.26865988788,-129.46875727117 753.26865988788,-130.46875727117 749.26865988788,-130.46875727117 746.26865988788,-129.46875727117 744.26865988788,-127.46875727117 744.26865988788,-125.46875727117 745.26865988788,-123.46875727117 746.26865988788,-122.46875727117 748.26865988788,-121.46875727117 754.26865988788,-119.46875727117 756.26865988788,-118.46875727117 757.26865988788,-117.46875727117 758.26865988788,-115.46875727117 758.26865988788,-112.46875727117 756.26865988788,-110.46875727117 753.26865988788,-109.46875727117 749.26865988788,-109.46875727117 746.26865988788,-110.46875727117 744.26865988788,-112.46875727117"
 id="path3850" />
</g>
<g
 transform="matrix(5.3269961083815,0,0,5.3269961083815,-3393.3467978735,387.71489898635)"
 id="g4403"
 style="fill:none;stroke:#000000;stroke-width:1.0269261599;stroke-miterlimit:4;stroke-opacity:1;stroke-dasharray:none">
<path
 inkscape:connector-curvature="0"
 style="fill:none;stroke:#000000;stroke-width:1.0269261599;stroke-miterlimit:4;stroke-opacity:1;stroke-dasharray:none"
 d="M 781.26865988788,-130.46875727117 781.26865988788,-109.46875727117 M 781.26865988788,-130.46875727117 795.26865988788,-109.46875727117 M 795.26865988788,-130.46875727117 795.26865988788,-109.46875727117"
 id="path3854" />
<path
 inkscape:connector-curvature="0"
 style="fill:none;stroke:#000000;stroke-width:1.0269261599;stroke-miterlimit:4;stroke-opacity:1;stroke-dasharray:none"
 d="M 808.26865988788,-130.46875727117 806.26865988788,-129.46875727117 804.26865988788,-127.46875727117 803.26865988788,-125.46875727117 802.26865988788,-122.46875727117 802.26865988788,-117.46875727117 803.26865988788,-114.46875727117 804.26865988788,-112.46875727117 806.26865988788,-110.46875727117 808.26865988788,-109.46875727117 812.26865988788,-109.46875727117 814.26865988788,-110.46875727117 816.26865988788,-112.46875727117 817.26865988788,-114.46875727117 818.26865988788,-117.46875727117 818.26865988788,-122.46875727117 817.26865988788,-125.46875727117 816.26865988788,-127.46875727117 814.26865988788,-129.46875727117 812.26865988788,-130.46875727117 808.26865988788,-130.46875727117"
 id="path3856" />
<path
 inkscape:connector-curvature="0"
 style="fill:none;stroke:#000000;stroke-width:1.0269261599;stroke-miterlimit:4;stroke-opacity:1;stroke-dasharray:none"
 d="M 829.26865988788,-130.46875727117 829.26865988788,-109.46875727117 M 822.26865988788,-130.46875727117 836.26865988788,-130.46875727117"
 id="path3858" />
</g>
<g
 transform="matrix(5.3269961083815,0,0,5.3269961083815,-3393.3467978735,387.71489898635)"
 id="g4408"
 style="fill:none;stroke:#000000;stroke-width:1.0269261599;stroke-miterlimit:4;stroke-opacity:1;stroke-dasharray:none">
<path
 inkscape:connector-curvature="0"
 style="fill:none;stroke:#000000;stroke-width:1.0269261599;stroke-miterlimit:4;stroke-opacity:1;stroke-dasharray:none"
 d="M 854.26865988788,-130.46875727117 862.26865988788,-120.46875727117 862.26865988788,-109.46875727117 M 870.26865988788,-130.46875727117 862.26865988788,-120.46875727117"
 id="path3862" />
<path
 inkscape:connector-curvature="0"
 style="fill:none;stroke:#000000;stroke-width:1.0269261599;stroke-miterlimit:4;stroke-opacity:1;stroke-dasharray:none"
 d="M 875.26865988788,-130.46875727117 875.26865988788,-109.46875727117 M 875.26865988788,-130.46875727117 888.26865988788,-130.46875727117 M 875.26865988788,-120.46875727117 883.26865988788,-120.46875727117 M 875.26865988788,-109.46875727117 888.26865988788,-109.46875727117"
 id="path3864" />
<path
 inkscape:connector-curvature="0"
 style="fill:none;stroke:#000000;stroke-width:1.0269261599;stroke-miterlimit:4;stroke-opacity:1;stroke-dasharray:none"
 d="M 898.26865988788,-130.46875727117 898.26865988788,-109.46875727117 M 891.26865988788,-130.46875727117 905.26865988788,-130.46875727117"
 id="path3866" />
</g>
</g>
<path
 inkscape:connector-curvature="0"
 style="fill:none;stroke:#000000"
 d=""
 id="path3868" />
<g
 id="g4413"
 transform="matrix(4.796973923932,0,0,4.796973923932,-3400.223283669,365.32129184849)"
 style="fill:none;stroke:#000000;stroke-width:0.4532254338;stroke-miterlimit:4;stroke-opacity:1;stroke-dasharray:none">
<path
 id="path3870"
 d="M 926.26865988788,-130.46875727117 926.26865988788,-109.46875727117 M 926.26865988788,-130.46875727117 939.26865988788,-130.46875727117 M 926.26865988788,-120.46875727117 934.26865988788,-120.46875727117 M 926.26865988788,-109.46875727117 939.26865988788,-109.46875727117"
 style="fill:none;stroke:#000000;stroke-width:0.4532254338;stroke-miterlimit:4;stroke-opacity:1;stroke-dasharray:none"
 inkscape:connector-curvature="0" />
<path
 id="path3872"
 d="M 944.26865988788,-130.46875727117 958.26865988788,-109.46875727117 M 958.26865988788,-130.46875727117 944.26865988788,-109.46875727117"
 style="fill:none;stroke:#000000;stroke-width:0.4532254338;stroke-miterlimit:4;stroke-opacity:1;stroke-dasharray:none"
 inkscape:connector-curvature="0" />
<path
 id="path3874"
 d="M 965.26865988788,-130.46875727117 965.26865988788,-109.46875727117"
 style="fill:none;stroke:#000000;stroke-width:0.4532254338;stroke-miterlimit:4;stroke-opacity:1;stroke-dasharray:none"
 inkscape:connector-curvature="0" />
<path
 id="path3876"
 d="M 986.26865988788,-127.46875727117 984.26865988788,-129.46875727117 981.26865988788,-130.46875727117 977.26865988788,-130.46875727117 974.26865988788,-129.46875727117 972.26865988788,-127.46875727117 972.26865988788,-125.46875727117 973.26865988788,-123.46875727117 974.26865988788,-122.46875727117 976.26865988788,-121.46875727117 982.26865988788,-119.46875727117 984.26865988788,-118.46875727117 985.26865988788,-117.46875727117 986.26865988788,-115.46875727117 986.26865988788,-112.46875727117 984.26865988788,-110.46875727117 981.26865988788,-109.46875727117 977.26865988788,-109.46875727117 974.26865988788,-110.46875727117 972.26865988788,-112.46875727117"
 style="fill:none;stroke:#000000;stroke-width:0.4532254338;stroke-miterlimit:4;stroke-opacity:1;stroke-dasharray:none"
 inkscape:connector-curvature="0" />
<path
 id="path3878"
 d="M 997.26865988788,-130.46875727117 997.26865988788,-109.46875727117 M 990.26865988788,-130.46875727117 1004.2686598879,-130.46875727117"
 style="fill:none;stroke:#000000;stroke-width:0.4532254338;stroke-miterlimit:4;stroke-opacity:1;stroke-dasharray:none"
 inkscape:connector-curvature="0" />
</g>
<flowRoot
 xml:space="preserve"
 id="flowRoot4611"
 style="font-size:40px;font-style:normal;font-weight:normal;line-height:125%;letter-spacing:0px;word-spacing:0px;fill:none;fill-opacity:1;stroke:#000000;font-family:Sans;stroke-opacity:1;stroke-width:0.3658317546;stroke-miterlimit:4;stroke-dasharray:none"
 transform="matrix(10.93398795819,0,0,10.93398795819,-19925.102559884,-11371.484375043)"><flowRegion
 id="flowRegion4613"><rect
 id="rect4615"
 width="100"
 height="150"
 x="1931.25"
 y="940.8955078125"
 style="stroke:#000000;stroke-opacity:1;stroke-width:0.3658317546;stroke-miterlimit:4;stroke-dasharray:none;fill:none" /></flowRegion><flowPara
 id="flowPara4617">.</flowPara></flowRoot></g>
<path
 id="path5251"
 d=""
 style="fill:none;stroke:#000000"
 inkscape:connector-curvature="0" />
<path
 id="path5267"
 d=""
 style="fill:none;stroke:#000000"
 inkscape:connector-curvature="0" />
<path
 id="path5279"
 d=""
 style="fill:none;stroke:#000000"
 inkscape:connector-curvature="0" />
<path
 id="path5289"
 d=""
 style="fill:none;stroke:#000000"
 inkscape:connector-curvature="0" />
<path
 id="path5297"
 d=""
 style="fill:none;stroke:#000000"
 inkscape:connector-curvature="0" />
<path
 id="path5317"
 d=""
 style="fill:none;stroke:#000000"
 inkscape:connector-curvature="0" />
<path
 id="path5325"
 d=""
 style="fill:none;stroke:#000000"
 inkscape:connector-curvature="0" />
<path
 id="path5345"
 d=""
 style="fill:none;stroke:#000000"
 inkscape:connector-curvature="0" />
<path
 id="path5353"
 d=""
 style="fill:none;stroke:#000000"
 inkscape:connector-curvature="0" />
<path
 id="path5361"
 d=""
 style="fill:none;stroke:#000000"
 inkscape:connector-curvature="0" />
<path
 id="path5373"
 d=""
 style="fill:none;stroke:#000000"
 inkscape:connector-curvature="0" />
<path
 inkscape:connector-curvature="0"
 style="fill:none;stroke:#000000"
 d=""
 id="path6133" />
<path
 inkscape:connector-curvature="0"
 style="fill:none;stroke:#000000"
 d=""
 id="path6141" />
<path
 inkscape:connector-curvature="0"
 style="fill:none;stroke:#000000"
 d=""
 id="path6149" />
<path
 inkscape:connector-curvature="0"
 style="fill:none;stroke:#000000"
 d=""
 id="path6155" />
<path
 inkscape:connector-curvature="0"
 style="fill:none;stroke:#000000"
 d=""
 id="path6163" />
<path
 inkscape:connector-curvature="0"
 style="fill:none;stroke:#000000"
 d=""
 id="path6169" />
<path
 inkscape:connector-curvature="0"
 style="fill:none;stroke:#000000"
 d=""
 id="path6185" />
<path
 inkscape:connector-curvature="0"
 style="fill:none;stroke:#000000"
 d=""
 id="path6197" />
<path
 inkscape:connector-curvature="0"
 style="fill:none;stroke:#000000"
 d=""
 id="path6203" />
<path
 inkscape:connector-curvature="0"
 style="fill:none;stroke:#000000"
 d=""
 id="path6211" />
<path
 inkscape:connector-curvature="0"
 style="fill:none;stroke:#000000"
 d=""
 id="path6227" />
<path
 inkscape:connector-curvature="0"
 style="fill:none;stroke:#000000"
 d=""
 id="path6233" />
<path
 inkscape:connector-curvature="0"
 style="fill:none;stroke:#000000"
 d=""
 id="path6243" />
<path
 inkscape:connector-curvature="0"
 style="fill:none;stroke:#000000"
 d=""
 id="path6253" />
<path
 inkscape:connector-curvature="0"
 style="fill:none;stroke:#000000"
 d=""
 id="path6263" />
<path
 inkscape:connector-curvature="0"
 style="fill:none;stroke:#000000"
 d=""
 id="path6279" />
<path
 inkscape:connector-curvature="0"
 style="fill:none;stroke:#000000"
 d=""
 id="path6297" />
<path
 inkscape:connector-curvature="0"
 style="fill:none;stroke:#000000"
 d=""
 id="path6305" />
<path
 inkscape:connector-curvature="0"
 style="fill:none;stroke:#000000"
 d=""
 id="path6313" />
<path
 inkscape:connector-curvature="0"
 style="fill:none;stroke:#000000"
 d=""
 id="path6319" />
<path
 inkscape:connector-curvature="0"
 style="fill:none;stroke:#000000"
 d=""
 id="path6331" />
<path
 inkscape:connector-curvature="0"
 style="fill:none;stroke:#000000"
 d=""
 id="path6345" />
<path
 inkscape:connector-curvature="0"
 style="fill:none;stroke:#000000"
 d=""
 id="path6355" />
<path
 inkscape:connector-curvature="0"
 style="fill:none;stroke:#000000"
 d=""
 id="path6361" />
<path
 inkscape:connector-curvature="0"
 style="fill:none;stroke:#000000"
 d=""
 id="path6377" />
<path
 inkscape:connector-curvature="0"
 style="fill:none;stroke:#000000"
 d=""
 id="path6387" />
<path
 inkscape:connector-curvature="0"
 style="fill:none;stroke:#000000"
 d=""
 id="path6403" />
<path
 inkscape:connector-curvature="0"
 style="fill:none;stroke:#000000"
 d=""
 id="path20420" />
<path
 inkscape:connector-curvature="0"
 style="fill:none;stroke:#000000"
 d=""
 id="path20430" />
<path
 inkscape:connector-curvature="0"
 style="fill:none;stroke:#000000"
 d=""
 id="path20452" />
<path
 inkscape:connector-curvature="0"
 style="fill:none;stroke:#000000"
 d=""
 id="path20460" />
<path
 id="path21091"
 d=""
 style="fill:none;stroke:#000000"
 inkscape:connector-curvature="0" />
<path
 id="path21099"
 d=""
 style="fill:none;stroke:#000000"
 inkscape:connector-curvature="0" />
<path
 id="path21113"
 d=""
 style="fill:none;stroke:#000000"
 inkscape:connector-curvature="0" />
<path
 id="path21119"
 d=""
 style="fill:none;stroke:#000000"
 inkscape:connector-curvature="0" />
<path
 id="path21123"
 d=""
 style="fill:none;stroke:#000000"
 inkscape:connector-curvature="0" />
<path
 id="path21139"
 d=""
 style="fill:none;stroke:#000000"
 inkscape:connector-curvature="0" />
<path
 id="path21151"
 d=""
 style="fill:none;stroke:#000000"
 inkscape:connector-curvature="0" />
<path
 id="path21159"
 d=""
 style="fill:none;stroke:#000000"
 inkscape:connector-curvature="0" />
<path
 id="path21169"
 d=""
 style="fill:none;stroke:#000000"
 inkscape:connector-curvature="0" />
<path
 id="path21177"
 d=""
 style="fill:none;stroke:#000000"
 inkscape:connector-curvature="0" />
<path
 id="path21185"
 d=""
 style="fill:none;stroke:#000000"
 inkscape:connector-curvature="0" />
<path
 id="path21193"
 d=""
 style="fill:none;stroke:#000000"
 inkscape:connector-curvature="0" />
<path
 id="path21205"
 d=""
 style="fill:none;stroke:#000000"
 inkscape:connector-curvature="0" />
<path
 id="path21213"
 d=""
 style="fill:none;stroke:#000000"
 inkscape:connector-curvature="0" />
<path
 id="path21227"
 d=""
 style="fill:none;stroke:#000000"
 inkscape:connector-curvature="0" />
<path
 id="path21235"
 d=""
 style="fill:none;stroke:#000000"
 inkscape:connector-curvature="0" />
<path
 id="path21251"
 d=""
 style="fill:none;stroke:#000000"
 inkscape:connector-curvature="0" />
<path
 id="path21257"
 d=""
 style="fill:none;stroke:#000000"
 inkscape:connector-curvature="0" />
<path
 id="path21265"
 d=""
 style="fill:none;stroke:#000000"
 inkscape:connector-curvature="0" />
<path
 id="path21277"
 d=""
 style="fill:none;stroke:#000000"
 inkscape:connector-curvature="0" />
<path
 id="path21285"
 d=""
 style="fill:none;stroke:#000000"
 inkscape:connector-curvature="0" />
<path
 id="path21295"
 d=""
 style="fill:none;stroke:#000000"
 inkscape:connector-curvature="0" />
<path
 id="path21303"
 d=""
 style="fill:none;stroke:#000000"
 inkscape:connector-curvature="0" />
<path
 id="path21317"
 d=""
 style="fill:none;stroke:#000000"
 inkscape:connector-curvature="0" />
<path
 id="path21339"
 d=""
 style="fill:none;stroke:#000000"
 inkscape:connector-curvature="0" />
<path
 id="path21345"
 d=""
 style="fill:none;stroke:#000000"
 inkscape:connector-curvature="0" />
<path
 id="path21349"
 d=""
 style="fill:none;stroke:#000000"
 inkscape:connector-curvature="0" />
<path
 id="path21359"
 d=""
 style="fill:none;stroke:#000000"
 inkscape:connector-curvature="0" />
<path
 id="path21371"
 d=""
 style="fill:none;stroke:#000000"
 inkscape:connector-curvature="0" />
<path
 id="path21381"
 d=""
 style="fill:none;stroke:#000000"
 inkscape:connector-curvature="0" />
<path
 id="path21391"
 d=""
 style="fill:none;stroke:#000000"
 inkscape:connector-curvature="0" />
<path
 id="path21411"
 d=""
 style="fill:none;stroke:#000000"
 inkscape:connector-curvature="0" />
<path
 id="path21419"
 d=""
 style="fill:none;stroke:#000000"
 inkscape:connector-curvature="0" />
<path
 id="path21437"
 d=""
 style="fill:none;stroke:#000000"
 inkscape:connector-curvature="0" />
<path
 id="path21445"
 d=""
 style="fill:none;stroke:#000000"
 inkscape:connector-curvature="0" />
<path
 id="path21457"
 d=""
 style="fill:none;stroke:#000000"
 inkscape:connector-curvature="0" />
<path
 id="path21465"
 d=""
 style="fill:none;stroke:#000000"
 inkscape:connector-curvature="0" />
<path
 id="path21485"
 d=""
 style="fill:none;stroke:#000000"
 inkscape:connector-curvature="0" />
<path
 id="path21493"
 d=""
 style="fill:none;stroke:#000000"
 inkscape:connector-curvature="0" />
<path
 id="path21509"
 d=""
 style="fill:none;stroke:#000000"
 inkscape:connector-curvature="0" />
<path
 id="path21515"
 d=""
 style="fill:none;stroke:#000000"
 inkscape:connector-curvature="0" />
<path
 id="path21523"
 d=""
 style="fill:none;stroke:#000000"
 inkscape:connector-curvature="0" />
<path
 id="path21533"
 d=""
 style="fill:none;stroke:#000000"
 inkscape:connector-curvature="0" />
<path
 id="path21539"
 d=""
 style="fill:none;stroke:#000000"
 inkscape:connector-curvature="0" />
<path
 id="path21543"
 d=""
 style="fill:none;stroke:#000000"
 inkscape:connector-curvature="0" />
<path
 id="path21563"
 d=""
 style="fill:none;stroke:#000000"
 inkscape:connector-curvature="0" />
<path
 id="path21579"
 d=""
 style="fill:none;stroke:#000000"
 inkscape:connector-curvature="0" />
<path
 id="path21605"
 d=""
 style="fill:none;stroke:#000000"
 inkscape:connector-curvature="0" />
<path
 id="path21615"
 d=""
 style="fill:none;stroke:#000000"
 inkscape:connector-curvature="0" />
<path
 id="path21623"
 d=""
 style="fill:none;stroke:#000000"
 inkscape:connector-curvature="0" />
<path
 id="path21635"
 d=""
 style="fill:none;stroke:#000000"
 inkscape:connector-curvature="0" />
<path
 id="path21643"
 d=""
 style="fill:none;stroke:#000000"
 inkscape:connector-curvature="0" />
<path
 id="path21651"
 d=""
 style="fill:none;stroke:#000000"
 inkscape:connector-curvature="0" />
<path
 id="path21665"
 d=""
 style="fill:none;stroke:#000000"
 inkscape:connector-curvature="0" />
<path
 id="path21679"
 d=""
 style="fill:none;stroke:#000000"
 inkscape:connector-curvature="0" />
<path
 id="path21691"
 d=""
 style="fill:none;stroke:#000000"
 inkscape:connector-curvature="0" />
<path
 id="path21699"
 d=""
 style="fill:none;stroke:#000000"
 inkscape:connector-curvature="0" />
<path
 id="path21711"
 d=""
 style="fill:none;stroke:#000000"
 inkscape:connector-curvature="0" />
<path
 id="path21717"
 d=""
 style="fill:none;stroke:#000000"
 inkscape:connector-curvature="0" />
<path
 id="path21725"
 d=""
 style="fill:none;stroke:#000000"
 inkscape:connector-curvature="0" />
<path
 id="path21741"
 d=""
 style="fill:none;stroke:#000000"
 inkscape:connector-curvature="0" />
<path
 id="path21753"
 d=""
 style="fill:none;stroke:#000000"
 inkscape:connector-curvature="0" />
<path
 id="path21769"
 d=""
 style="fill:none;stroke:#000000"
 inkscape:connector-curvature="0" />
<path
 id="path21783"
 d=""
 style="fill:none;stroke:#000000"
 inkscape:connector-curvature="0" />
<path
 id="path21799"
 d=""
 style="fill:none;stroke:#000000"
 inkscape:connector-curvature="0" />
<path
 id="path21815"
 d=""
 style="fill:none;stroke:#000000"
 inkscape:connector-curvature="0" />
<path
 id="path21823"
 d=""
 style="fill:none;stroke:#000000"
 inkscape:connector-curvature="0" />
<path
 id="path21833"
 d=""
 style="fill:none;stroke:#000000"
 inkscape:connector-curvature="0" />
<path
 id="path21843"
 d=""
 style="fill:none;stroke:#000000"
 inkscape:connector-curvature="0" />
<path
 id="path21857"
 d=""
 style="fill:none;stroke:#000000"
 inkscape:connector-curvature="0" />
<path
 id="path21871"
 d=""
 style="fill:none;stroke:#000000"
 inkscape:connector-curvature="0" />
<path
 id="path21877"
 d=""
 style="fill:none;stroke:#000000"
 inkscape:connector-curvature="0" />
<path
 id="path21885"
 d=""
 style="fill:none;stroke:#000000"
 inkscape:connector-curvature="0" />
<path
 id="path21897"
 d=""
 style="fill:none;stroke:#000000"
 inkscape:connector-curvature="0" />
<path
 id="path21907"
 d=""
 style="fill:none;stroke:#000000"
 inkscape:connector-curvature="0" />
<path
 id="path21915"
 d=""
 style="fill:none;stroke:#000000"
 inkscape:connector-curvature="0" />
<path
 id="path21923"
 d=""
 style="fill:none;stroke:#000000"
 inkscape:connector-curvature="0" />
<path
 id="path21939"
 d=""
 style="fill:none;stroke:#000000"
 inkscape:connector-curvature="0" />
<path
 id="path21947"
 d=""
 style="fill:none;stroke:#000000"
 inkscape:connector-curvature="0" />
<path
 id="path21957"
 d=""
 style="fill:none;stroke:#000000"
 inkscape:connector-curvature="0" />
<path
 id="path21967"
 d=""
 style="fill:none;stroke:#000000"
 inkscape:connector-curvature="0" />
<path
 id="path21975"
 d=""
 style="fill:none;stroke:#000000"
 inkscape:connector-curvature="0" />
<path
 id="path21985"
 d=""
 style="fill:none;stroke:#000000"
 inkscape:connector-curvature="0" />
<path
 id="path21995"
 d=""
 style="fill:none;stroke:#000000"
 inkscape:connector-curvature="0" />
<path
 id="path22007"
 d=""
 style="fill:none;stroke:#000000"
 inkscape:connector-curvature="0" />
<path
 id="path22023"
 d=""
 style="fill:none;stroke:#000000"
 inkscape:connector-curvature="0" />
<path
 id="path22033"
 d=""
 style="fill:none;stroke:#000000"
 inkscape:connector-curvature="0" />
<path
 id="path22051"
 d=""
 style="fill:none;stroke:#000000"
 inkscape:connector-curvature="0" />
<path
 id="path22061"
 d=""
 style="fill:none;stroke:#000000"
 inkscape:connector-curvature="0" />
<path
 id="path22077"
 d=""
 style="fill:none;stroke:#000000"
 inkscape:connector-curvature="0" />
<path
 id="path22091"
 d=""
 style="fill:none;stroke:#000000"
 inkscape:connector-curvature="0" />
<path
 id="path22097"
 d=""
 style="fill:none;stroke:#000000"
 inkscape:connector-curvature="0" />
<path
 id="path22105"
 d=""
 style="fill:none;stroke:#000000"
 inkscape:connector-curvature="0" />
<path
 id="path22123"
 d=""
 style="fill:none;stroke:#000000"
 inkscape:connector-curvature="0" />
<path
 id="path22141"
 d=""
 style="fill:none;stroke:#000000"
 inkscape:connector-curvature="0" />
<path
 id="path22149"
 d=""
 style="fill:none;stroke:#000000"
 inkscape:connector-curvature="0" />
<path
 id="path22155"
 d=""
 style="fill:none;stroke:#000000"
 inkscape:connector-curvature="0" />
<path
 id="path22163"
 d=""
 style="fill:none;stroke:#000000"
 inkscape:connector-curvature="0" />
<path
 id="path22177"
 d=""
 style="fill:none;stroke:#000000"
 inkscape:connector-curvature="0" />
<path
 id="path22183"
 d=""
 style="fill:none;stroke:#000000"
 inkscape:connector-curvature="0" />
<path
 id="path22199"
 d=""
 style="fill:none;stroke:#000000"
 inkscape:connector-curvature="0" />
<path
 id="path22209"
 d=""
 style="fill:none;stroke:#000000"
 inkscape:connector-curvature="0" />
<path
 id="path22213"
 d=""
 style="fill:none;stroke:#000000"
 inkscape:connector-curvature="0" />
<path
 id="path22221"
 d=""
 style="fill:none;stroke:#000000"
 inkscape:connector-curvature="0" />
<path
 id="path22231"
 d=""
 style="fill:none;stroke:#000000"
 inkscape:connector-curvature="0" />
<path
 id="path22237"
 d=""
 style="fill:none;stroke:#000000"
 inkscape:connector-curvature="0" />
<path
 id="path22251"
 d=""
 style="fill:none;stroke:#000000"
 inkscape:connector-curvature="0" />
<path
 id="path22261"
 d=""
 style="fill:none;stroke:#000000"
 inkscape:connector-curvature="0" />
<path
 id="path22269"
 d=""
 style="fill:none;stroke:#000000"
 inkscape:connector-curvature="0" />
<path
 id="path22279"
 d=""
 style="fill:none;stroke:#000000"
 inkscape:connector-curvature="0" />
<path
 id="path22303"
 d=""
 style="fill:none;stroke:#000000"
 inkscape:connector-curvature="0" />
<path
 id="path22313"
 d=""
 style="fill:none;stroke:#000000"
 inkscape:connector-curvature="0" />
<path
 id="path22333"
 d=""
 style="fill:none;stroke:#000000"
 inkscape:connector-curvature="0" />
<path
 id="path22341"
 d=""
 style="fill:none;stroke:#000000"
 inkscape:connector-curvature="0" />
<path
 id="path22351"
 d=""
 style="fill:none;stroke:#000000"
 inkscape:connector-curvature="0" />
<path
 id="path22367"
 d=""
 style="fill:none;stroke:#000000"
 inkscape:connector-curvature="0" />
<path
 id="path22377"
 d=""
 style="fill:none;stroke:#000000"
 inkscape:connector-curvature="0" />
<path
 id="path22389"
 d=""
 style="fill:none;stroke:#000000"
 inkscape:connector-curvature="0" />
<path
 id="path22397"
 d=""
 style="fill:none;stroke:#000000"
 inkscape:connector-curvature="0" />
<path
 id="path22407"
 d=""
 style="fill:none;stroke:#000000"
 inkscape:connector-curvature="0" />
<path
 id="path22415"
 d=""
 style="fill:none;stroke:#000000"
 inkscape:connector-curvature="0" />
</svg>
