<?xml version="1.0" encoding="UTF-8" standalone="no"?>
<!-- Created with Inkscape (http://www.inkscape.org/) -->

<svg
 xmlns:dc="http://purl.org/dc/elements/1.1/"
 xmlns:cc="http://creativecommons.org/ns#"
 xmlns:rdf="http://www.w3.org/1999/02/22-rdf-syntax-ns#"
 xmlns:svg="http://www.w3.org/2000/svg"
 xmlns="http://www.w3.org/2000/svg"
 xmlns:sodipodi="http://sodipodi.sourceforge.net/DTD/sodipodi-0.dtd"
 xmlns:inkscape="http://www.inkscape.org/namespaces/inkscape"
 sodipodi:docname="poster000.svg"
 inkscape:version="0.48.2 r9819"
 version="1.1"
 id="svg4064"
 height="2834.6455"
 width="1559.0551">
<sodipodi:namedview
 id="base"
 pagecolor="#ffffff"
 bordercolor="#666666"
 borderopacity="1.0"
 inkscape:pageopacity="0.0"
 inkscape:pageshadow="2"
 inkscape:zoom="0.22627416992"
 inkscape:cx="1142.5833091114"
 inkscape:cy="2060.2826441013"
 inkscape:document-units="px"
 inkscape:current-layer="layer1"
 showgrid="false"
 units="cm"
 inkscape:window-width="1024"
 inkscape:window-height="749"
 inkscape:window-x="-4"
 inkscape:window-y="-4"
 inkscape:window-maximized="1" />
<defs
 id="defs4066" />
<metadata
 id="metadata4069">
<rdf:RDF>
<cc:Work
 rdf:about="">
<dc:format>image/svg+xml</dc:format>
<dc:type
 rdf:resource="http://purl.org/dc/dcmitype/StillImage" />
<dc:title></dc:title>
</cc:Work>
</rdf:RDF>
</metadata>
<g
 inkscape:label="Layer 1"
 inkscape:groupmode="layer"
 id="layer1"
 transform="translate(0,1782.2847)">
<path
 id="path4314"
 d=""
 style="fill:none;stroke:#000000;stroke-width:21.10269737"
 inkscape:connector-curvature="0" />
<path
 id="path4332"
 d=""
 style="fill:none;stroke:#000000;stroke-width:21.10269737"
 inkscape:connector-curvature="0" />
<path
 id="path4340"
 d=""
 style="fill:none;stroke:#000000;stroke-width:21.10269737"
 inkscape:connector-curvature="0" />
<rect
 style="fill:none;stroke:#000000;stroke-width:4;stroke-miterlimit:4;stroke-opacity:1;stroke-dasharray:none"
 id="rect4573"
 width="1440.5031"
 height="1935.918"
 x="13.5445"
 y="-1770.4963" />
<flowRoot
 style="fill:black;stroke:none;stroke-opacity:1;stroke-width:1px;stroke-linejoin:miter;stroke-linecap:butt;fill-opacity:1;font-family:Sans;font-style:normal;font-weight:normal;font-size:40px;line-height:125%;letter-spacing:0px;word-spacing:0px"
 id="flowRoot3734"
 xml:space="preserve"><flowRegion
 id="flowRegion3736"><rect
 y="390.8955078125"
 x="-1037.5"
 height="912.5"
 width="812.5"
 id="rect3738" /></flowRegion><flowPara
 id="flowPara3740" /></flowRoot><path
 inkscape:connector-curvature="0"
 style="fill:none;stroke:#000000"
 d=""
 id="path3784" />
<path
 inkscape:connector-curvature="0"
 style="fill:none;stroke:#000000"
 d=""
 id="path3792" />
<path
 inkscape:connector-curvature="0"
 style="fill:none;stroke:#000000"
 d=""
 id="path3802" />
<path
 inkscape:connector-curvature="0"
 style="fill:none;stroke:#000000"
 d=""
 id="path3812" />
<path
 inkscape:connector-curvature="0"
 style="fill:none;stroke:#000000"
 d=""
 id="path3818" />
<path
 inkscape:connector-curvature="0"
 style="fill:none;stroke:#000000"
 d=""
 id="path3830" />
<path
 inkscape:connector-curvature="0"
 style="fill:none;stroke:#000000"
 d=""
 id="path3836" />
<path
 inkscape:connector-curvature="0"
 style="fill:none;stroke:#000000"
 d=""
 id="path3842" />
<path
 inkscape:connector-curvature="0"
 style="fill:none;stroke:#000000"
 d=""
 id="path3852" />
<path
 inkscape:connector-curvature="0"
 style="fill:none;stroke:#000000"
 d=""
 id="path3860" />
<path
 inkscape:connector-curvature="0"
 style="fill:none;stroke:#000000"
 d=""
 id="path3868" />
<flowRoot
 xml:space="preserve"
 id="flowRoot5387"
 style="fill:black;stroke:none;stroke-opacity:1;stroke-width:1px;stroke-linejoin:miter;stroke-linecap:butt;fill-opacity:1;font-family:Sans;font-style:normal;font-weight:normal;font-size:40px;line-height:125%;letter-spacing:0px;word-spacing:0px"><flowRegion
 id="flowRegion5389"><rect
 id="rect5391"
 width="1290.4698486328"
 height="1290.4698486328"
 x="-2395.32421875"
 y="200.67274475098" /></flowRegion><flowPara
 id="flowPara5393"></flowPara></flowRoot><flowRoot
 xml:space="preserve"
 id="flowRoot5395"
 style="fill:black;stroke:none;stroke-opacity:1;stroke-width:1px;stroke-linejoin:miter;stroke-linecap:butt;fill-opacity:1;font-family:Sans;font-style:normal;font-weight:normal;font-size:40px;line-height:125%;letter-spacing:0px;word-spacing:0px"><flowRegion
 id="flowRegion5397"><rect
 id="rect5399"
 width="662.91259765625"
 height="813.17279052734"
 x="-2501.3901367188"
 y="-453.40103149414" /></flowRegion><flowPara
 id="flowPara5401"></flowPara></flowRoot><flowRoot
 xml:space="preserve"
 id="flowRoot5407"
 style="fill:black;stroke:none;stroke-opacity:1;stroke-width:1px;stroke-linejoin:miter;stroke-linecap:butt;fill-opacity:1;font-family:Sans;font-style:normal;font-weight:normal;font-size:40px;line-height:125%;letter-spacing:0px;word-spacing:0px"><flowRegion
 id="flowRegion5409"><rect
 id="rect5411"
 width="1953.3824462891"
 height="2280.4194335938"
 x="-2200.8698730469"
 y="-20.298120498657" /></flowRegion><flowPara
 id="flowPara5413"></flowPara></flowRoot><g
 id="g5587"
 transform="translate(0,240.62500012696)">
<path
 d="M 75.457199403368,-1598.7698646734 75.457199403368,-1738.2034322258 23.371806419764,-1738.2034322258 23.371806419764,-1756.8592769177 148.67869388756,-1756.8592769177 148.67869388756,-1738.2034322258 96.377626398853,-1738.2034322258 96.377626398853,-1598.7698646734 z"
 style="font-size:400px;font-style:normal;font-weight:normal;line-height:125%;letter-spacing:0px;word-spacing:0px;color:#000000;fill:none;stroke:#000000;stroke-width:1;stroke-linecap:butt;stroke-linejoin:miter;stroke-miterlimit:4;stroke-opacity:1;stroke-dasharray:none;stroke-dashoffset:0;marker:none;visibility:visible;display:inline;overflow:visible;enable-background:accumulate;font-family:Sans"
 id="path5432"
 inkscape:connector-curvature="0" />
<path
 d="M 170.8931679137,-1598.7698646734 170.8931679137,-1756.8592769177 191.81359490918,-1756.8592769177 191.81359490918,-1691.9412508801 273.98558135536,-1691.9412508801 273.98558135536,-1756.8592769177 294.90600835085,-1756.8592769177 294.90600835085,-1598.7698646734 273.98558135536,-1598.7698646734 273.98558135536,-1673.2854061883 191.81359490918,-1673.2854061883 191.81359490918,-1598.7698646734 z"
 style="font-size:400px;font-style:normal;font-weight:normal;line-height:125%;letter-spacing:0px;word-spacing:0px;color:#000000;fill:none;stroke:#000000;stroke-width:1;stroke-linecap:butt;stroke-linejoin:miter;stroke-miterlimit:4;stroke-opacity:1;stroke-dasharray:none;stroke-dashoffset:0;marker:none;visibility:visible;display:inline;overflow:visible;enable-background:accumulate;font-family:Sans"
 id="path5434"
 inkscape:connector-curvature="0" />
<path
 d="M 333.40390751264,-1598.7698646734 333.40390751264,-1756.8592769177 354.32433450813,-1756.8592769177 354.32433450813,-1598.7698646734 z"
 style="font-size:400px;font-style:normal;font-weight:normal;line-height:125%;letter-spacing:0px;word-spacing:0px;color:#000000;fill:none;stroke:#000000;stroke-width:1;stroke-linecap:butt;stroke-linejoin:miter;stroke-miterlimit:4;stroke-opacity:1;stroke-dasharray:none;stroke-dashoffset:0;marker:none;visibility:visible;display:inline;overflow:visible;enable-background:accumulate;font-family:Sans"
 id="path5436"
 inkscape:connector-curvature="0" />
<path
 d="M 383.97957896049,-1649.5612106264 403.71379617788,-1651.2866066672 C 404.64835511019,-1643.3784968713 406.82307086196,-1636.8902953308 410.2379499574,-1631.8219825812 413.65275669404,-1626.7536037274 418.95474964263,-1622.6557922282 426.14394470912,-1619.5285357901 433.33303560487,-1616.4012378346 441.42082145859,-1614.8375992362 450.40732653378,-1614.837615304 458.38719889404,-1614.8375992362 465.43255901556,-1616.0238078281 471.54342803438,-1618.3962446383 477.65410208344,-1620.7686421957 482.20123501902,-1624.0217293946 485.18484048246,-1628.1555159944 488.16822369336,-1632.2892438229 489.65997086192,-1636.8004310436 489.66008646345,-1641.6890911899 489.65997086192,-1646.6495569277 488.2221422657,-1650.9810155738 485.34659636129,-1654.6834801227 482.4708278808,-1658.3858328444 477.72599351323,-1661.4951371837 471.11207902416,-1664.0114024686 466.87038761178,-1665.6648401127 457.48855602143,-1668.2349587285 442.96655610755,-1671.7217660262 428.44441837771,-1675.2084274202 418.27178105942,-1678.497460334 412.44861363476,-1681.5888746349 404.89997511451,-1685.5428204555 399.2744707318,-1690.4494105402 395.57208361005,-1696.3086596086 391.86965346123,-1702.1677135994 390.01844914358,-1708.7278065696 390.01846510352,-1715.9889581997 390.01844914358,-1723.9687896896 392.28302918266,-1731.4275255325 396.81221201442,-1738.3651881046 401.34134933885,-1745.3025714861 407.95536088148,-1750.5686187198 416.65426648437,-1754.1633456038 425.35308689581,-1757.7577617009 435.02248420541,-1759.5550474462 445.6624874214,-1759.5552082315 457.38071887671,-1759.5550474462 467.71511191206,-1757.6678974136 476.66569753069,-1753.8937524724 485.61607793503,-1750.1192972834 492.49968233944,-1744.5656843305 497.31653139479,-1737.2328969528 502.13313393417,-1729.8998326491 504.72122540737,-1721.5963725059 505.08081357868,-1712.3224916128 L 485.02308460363,-1710.8127700771 C 483.94460219195,-1720.8055667779 480.29611212903,-1728.3541669081 474.0776034694,-1733.4585931134 467.85889477165,-1738.5627499413 458.67476461328,-1741.1148956996 446.52518544184,-1741.1150380448 433.87222132843,-1741.1148956996 424.65214545514,-1738.7963970882 418.86493016172,-1734.159535255 413.07762525555,-1729.5224026425 410.18399520564,-1723.9328439747 410.18403133112,-1717.3908424829 410.18399520564,-1711.7113009068 412.23290095528,-1707.0383579691 416.3307547267,-1703.3719996509 420.35663252393,-1699.7054321283 430.8707541338,-1695.9491049207 447.87315109876,-1692.103006759 464.87540043453,-1688.2567219309 476.53978492138,-1684.8957975872 482.86633955255,-1682.0202236452 492.0683337606,-1677.7785460359 498.86207387775,-1672.4046616575 503.24758028526,-1665.8985543883 507.63282831475,-1659.3923128617 509.82551692398,-1651.8976313039 509.82565269106,-1643.4144872308 509.82551692398,-1635.0031452983 507.4171540253,-1627.0771151616 502.60055676994,-1619.6363730426 497.78370243057,-1612.1955891907 490.86415231123,-1606.4083290909 481.84188565329,-1602.2745753814 472.81940342866,-1598.1408146626 462.66473896784,-1596.0739360555 451.37786180677,-1596.0739333596 437.07138995505,-1596.0739360555 425.08349403403,-1598.15878752 415.41413807999,-1602.3284940077 405.74469941478,-1606.4981933781 398.16015356975,-1612.7707206292 392.66047779109,-1621.1460945784 387.16076480859,-1629.5214237752 384.26713475874,-1638.9931196528 383.97957896049,-1649.5612106264 z"
 style="font-size:400px;font-style:normal;font-weight:normal;line-height:125%;letter-spacing:0px;word-spacing:0px;color:#000000;fill:none;stroke:#000000;stroke-width:1;stroke-linecap:butt;stroke-linejoin:miter;stroke-miterlimit:4;stroke-opacity:1;stroke-dasharray:none;stroke-dashoffset:0;marker:none;visibility:visible;display:inline;overflow:visible;enable-background:accumulate;font-family:Sans"
 id="path5438"
 inkscape:connector-curvature="0" />
<path
 d="M 603.42838790797,-1598.7698646734 603.42838790797,-1756.8592769177 624.34881490346,-1756.8592769177 624.34881490346,-1598.7698646734 z"
 style="font-size:400px;font-style:normal;font-weight:normal;line-height:125%;letter-spacing:0px;word-spacing:0px;color:#000000;fill:none;stroke:#000000;stroke-width:1;stroke-linecap:butt;stroke-linejoin:miter;stroke-miterlimit:4;stroke-opacity:1;stroke-dasharray:none;stroke-dashoffset:0;marker:none;visibility:visible;display:inline;overflow:visible;enable-background:accumulate;font-family:Sans"
 id="path5440"
 inkscape:connector-curvature="0" />
<path
 d="M 654.00405935582,-1649.5612106264 673.73827657321,-1651.2866066672 C 674.67283550551,-1643.3784968713 676.8475512573,-1636.8902953308 680.26243035273,-1631.8219825812 683.67723708936,-1626.7536037274 688.97923003794,-1622.6557922282 696.16842510445,-1619.5285357901 703.35751600018,-1616.4012378346 711.44530185394,-1614.8375992362 720.43180692911,-1614.837615304 728.41167928938,-1614.8375992362 735.45703941087,-1616.0238078281 741.5679084297,-1618.3962446383 747.67858247878,-1620.7686421957 752.22571541434,-1624.0217293946 755.20932087779,-1628.1555159944 758.19270408867,-1632.2892438229 759.68445125725,-1636.8004310436 759.68456685878,-1641.6890911899 759.68445125725,-1646.6495569277 758.24662266102,-1650.9810155738 755.37107675662,-1654.6834801227 752.49530827613,-1658.3858328444 747.75047390859,-1661.4951371837 741.13655941949,-1664.0114024686 736.8948680071,-1665.6648401127 727.51303641674,-1668.2349587285 712.99103650288,-1671.7217660262 698.46889877301,-1675.2084274202 688.29626145473,-1678.497460334 682.47309403009,-1681.5888746349 674.92445550985,-1685.5428204555 669.29895112712,-1690.4494105402 665.59656400538,-1696.3086596086 661.89413385657,-1702.1677135994 660.04292953893,-1708.7278065696 660.04294549885,-1715.9889581997 660.04292953893,-1723.9687896896 662.30750957799,-1731.4275255325 666.83669240975,-1738.3651881046 671.3658297342,-1745.3025714861 677.97984127683,-1750.5686187198 686.67874687969,-1754.1633456038 695.37756729114,-1757.7577617009 705.04696460074,-1759.5550474462 715.68696781673,-1759.5552082315 727.40519927202,-1759.5550474462 737.73959230738,-1757.6678974136 746.69017792602,-1753.8937524724 755.64055833037,-1750.1192972834 762.52416273479,-1744.5656843305 767.34101179012,-1737.2328969528 772.15761432949,-1729.8998326491 774.7457058027,-1721.5963725059 775.10529397401,-1712.3224916128 L 755.04756499896,-1710.8127700771 C 753.96908258726,-1720.8055667779 750.32059252434,-1728.3541669081 744.10208386472,-1733.4585931134 737.883375167,-1738.5627499413 728.69924500862,-1741.1148956996 716.54966583717,-1741.1150380448 703.89670172376,-1741.1148956996 694.67662585048,-1738.7963970882 688.88941055705,-1734.159535255 683.10210565087,-1729.5224026425 680.20847560097,-1723.9328439747 680.20851172645,-1717.3908424829 680.20847560097,-1711.7113009068 682.25738135059,-1707.0383579691 686.35523512203,-1703.3719996509 690.38111291926,-1699.7054321283 700.89523452914,-1695.9491049207 717.89763149409,-1692.103006759 734.89988082984,-1688.2567219309 746.56426531671,-1684.8957975872 752.89081994788,-1682.0202236452 762.09281415592,-1677.7785460359 768.88655427308,-1672.4046616575 773.27206068059,-1665.8985543883 777.65730871005,-1659.3923128617 779.84999731929,-1651.8976313039 779.85013308639,-1643.4144872308 779.84999731929,-1635.0031452983 777.44163442062,-1627.0771151616 772.62503716527,-1619.6363730426 767.80818282591,-1612.1955891907 760.88863270658,-1606.4083290909 751.86636604861,-1602.2745753814 742.84388382398,-1598.1408146626 732.68921936314,-1596.0739360555 721.4023422021,-1596.0739333596 707.09587035036,-1596.0739360555 695.10797442934,-1598.15878752 685.43861847532,-1602.3284940077 675.76917981013,-1606.4981933781 668.18463396505,-1612.7707206292 662.68495818642,-1621.1460945784 657.18524520394,-1629.5214237752 654.29161515404,-1638.9931196528 654.00405935582,-1649.5612106264 z"
 style="font-size:400px;font-style:normal;font-weight:normal;line-height:125%;letter-spacing:0px;word-spacing:0px;color:#000000;fill:none;stroke:#000000;stroke-width:1;stroke-linecap:butt;stroke-linejoin:miter;stroke-miterlimit:4;stroke-opacity:1;stroke-dasharray:none;stroke-dashoffset:0;marker:none;visibility:visible;display:inline;overflow:visible;enable-background:accumulate;font-family:Sans"
 id="path5442"
 inkscape:connector-curvature="0" />
<path
 d="M 852.53244130782,-1598.7698646734 913.24481449574,-1756.8592769177 935.78280027954,-1756.8592769177 1000.485151812,-1598.7698646734 976.65311899752,-1598.7698646734 958.21294881078,-1646.6496048074 892.10871299515,-1646.6496048074 874.74691533395,-1598.7698646734 z M 898.14759913818,-1663.687890711 951.74271365754,-1663.687890711 935.24361401677,-1707.4698152479 C 930.21113154232,-1720.769621063 926.47277719214,-1731.6971183943 924.02853975115,-1740.2523400243 922.01550854385,-1730.1155069385 919.1757970663,-1720.0507067649 915.50939679938,-1710.0579093092 z"
 style="font-size:400px;font-style:normal;font-weight:normal;line-height:125%;letter-spacing:0px;word-spacing:0px;color:#000000;fill:none;stroke:#000000;stroke-width:1;stroke-linecap:butt;stroke-linejoin:miter;stroke-miterlimit:4;stroke-opacity:1;stroke-dasharray:none;stroke-dashoffset:0;marker:none;visibility:visible;display:inline;overflow:visible;enable-background:accumulate;font-family:Sans"
 id="path5444"
 inkscape:connector-curvature="0" />
</g>
<g
 id="g5578"
 transform="translate(0,147.81723507174)">
<path
 d="M 62.840240854545,-1322.7064981351 20.891549611021,-1480.7959103793 42.351162869276,-1480.7959103793 66.398870188828,-1377.1643106749 C 68.986913458773,-1366.3086503156 71.215547782933,-1355.5249358439 73.084779847179,-1344.8131349087 77.110645027424,-1361.7075988076 79.483062211235,-1371.4488875471 80.202038515746,-1374.0370303508 L 110.28863197832,-1480.7959103793 135.52254907597,-1480.7959103793 158.16837211232,-1400.7806689842 C 163.84765509462,-1380.9385562821 167.9454665939,-1362.2827302461 170.46181890348,-1344.8131349087 172.47462667197,-1354.8060215458 175.0986638601,-1366.2727046007 178.33393833993,-1379.2132184734 L 203.13650642736,-1480.7959103793 224.1647706754,-1480.7959103793 180.81419514867,-1322.7064981351 160.64862892106,-1322.7064981351 127.32691788186,-1443.1607092379 C 124.52304298794,-1453.2253889573 122.86954010227,-1459.4080519211 122.36640426438,-1461.7087166772 120.71279720796,-1454.4475432641 119.16713146701,-1448.2648803003 117.72940240455,-1443.1607092379 L 84.192016860246,-1322.7064981351 z"
 style="font-size:400px;font-style:normal;font-weight:normal;line-height:125%;letter-spacing:0px;word-spacing:0px;color:#000000;fill:none;stroke:#000000;stroke-width:1;stroke-linecap:butt;stroke-linejoin:miter;stroke-miterlimit:4;stroke-opacity:1;stroke-dasharray:none;stroke-dashoffset:0;marker:none;visibility:visible;display:inline;overflow:visible;enable-background:accumulate;font-family:Sans"
 id="path5446"
 inkscape:connector-curvature="0" />
<path
 d="M 226.21367847392,-1322.7064981351 286.92605166185,-1480.7959103793 309.46403744565,-1480.7959103793 374.16638897807,-1322.7064981351 350.33435616363,-1322.7064981351 331.89418597689,-1370.5862382691 265.78995016126,-1370.5862382691 248.42815250006,-1322.7064981351 z M 271.82883630428,-1387.6245241726 325.42395082364,-1387.6245241726 308.92485118288,-1431.4064487096 C 303.89236870843,-1444.7062545247 300.15401435825,-1455.633751856 297.70977691725,-1464.188973486 295.69674570993,-1454.0521404001 292.85703423241,-1443.9873402266 289.19063396549,-1433.9945427709 z"
 style="font-size:400px;font-style:normal;font-weight:normal;line-height:125%;letter-spacing:0px;word-spacing:0px;color:#000000;fill:none;stroke:#000000;stroke-width:1;stroke-linecap:butt;stroke-linejoin:miter;stroke-miterlimit:4;stroke-opacity:1;stroke-dasharray:none;stroke-dashoffset:0;marker:none;visibility:visible;display:inline;overflow:visible;enable-background:accumulate;font-family:Sans"
 id="path5448"
 inkscape:connector-curvature="0" />
<path
 d="M 391.42034938672,-1322.7064981351 391.42034938672,-1480.7959103793 461.51456354685,-1480.7959103793 C 475.60519633385,-1480.7957522899 486.31701937571,-1479.3758965511 493.65006480795,-1476.5363389034 500.98287105719,-1473.696473596 506.84202258681,-1468.6820463667 511.22753697426,-1461.4930421721 515.61277702375,-1454.3037604045 517.80546563298,-1446.3597574103 517.80560938006,-1437.6610093577 517.80546563298,-1426.4458313526 514.17494842752,-1416.9921083325 506.9140468721,-1409.299811936 499.65287960569,-1401.6073423529 488.43781655514,-1396.7187251257 473.26882407524,-1394.6339455886 478.80436496042,-1391.9738907582 483.01001360436,-1389.3498535701 485.88578262406,-1386.7618261522 491.9964423308,-1381.1542305716 497.78370243057,-1374.144816165 503.24758028526,-1365.7335619041 L 530.74607968655,-1322.7064981351 504.43379006336,-1322.7064981351 483.51336306787,-1355.5968601641 C 477.40248207912,-1365.0864960088 472.37008199231,-1372.3475304197 468.41614771031,-1377.37998518 464.4620247131,-1382.4123305933 460.92137179491,-1385.935010654 457.79417833373,-1387.9480359303 454.66681740132,-1389.9609307234 451.48562163216,-1391.3628136048 448.2505814827,-1392.1536887799 445.87809010692,-1392.6568593414 441.99595289708,-1392.9084793457 436.60415820686,-1392.9085495478 L 412.3407763822,-1392.9085495478 412.3407763822,-1322.7064981351 z M 412.3407763822,-1411.0252079768 457.30891069724,-1411.0252079768 C 466.87038761178,-1411.0251196581 474.34709631215,-1412.013626818 479.73905922848,-1413.9907324221 485.1308107838,-1415.9676554576 489.22862228308,-1419.1308783693 492.03250601964,-1423.4804106468 494.83615380833,-1427.8297413765 496.23803668962,-1432.5566028866 496.23815886925,-1437.6610093577 496.23803668962,-1445.1376031035 493.52413521429,-1451.2843203524 488.09644630142,-1456.1011795444 482.66852931278,-1460.9177719471 474.09547630778,-1463.3261348458 462.37726156728,-1463.3262754656 L 412.3407763822,-1463.3262754656 z"
 style="font-size:400px;font-style:normal;font-weight:normal;line-height:125%;letter-spacing:0px;word-spacing:0px;color:#000000;fill:none;stroke:#000000;stroke-width:1;stroke-linecap:butt;stroke-linejoin:miter;stroke-miterlimit:4;stroke-opacity:1;stroke-dasharray:none;stroke-dashoffset:0;marker:none;visibility:visible;display:inline;overflow:visible;enable-background:accumulate;font-family:Sans"
 id="path5450"
 inkscape:connector-curvature="0" />
<path
 d="M 550.48029690394,-1322.7064981351 550.48029690394,-1480.7959103793 571.93991016219,-1480.7959103793 654.97459462881,-1356.6752326896 654.97459462881,-1480.7959103793 675.03232360386,-1480.7959103793 675.03232360386,-1322.7064981351 653.5727103456,-1322.7064981351 570.53802587899,-1446.9350130773 570.53802587899,-1322.7064981351 z"
 style="font-size:400px;font-style:normal;font-weight:normal;line-height:125%;letter-spacing:0px;word-spacing:0px;color:#000000;fill:none;stroke:#000000;stroke-width:1;stroke-linecap:butt;stroke-linejoin:miter;stroke-miterlimit:4;stroke-opacity:1;stroke-dasharray:none;stroke-dashoffset:0;marker:none;visibility:visible;display:inline;overflow:visible;enable-background:accumulate;font-family:Sans"
 id="path5452"
 inkscape:connector-curvature="0" />
<path
 d="M 713.85373452331,-1322.7064981351 713.85373452331,-1480.7959103793 734.7741615188,-1480.7959103793 734.7741615188,-1322.7064981351 z"
 style="font-size:400px;font-style:normal;font-weight:normal;line-height:125%;letter-spacing:0px;word-spacing:0px;color:#000000;fill:none;stroke:#000000;stroke-width:1;stroke-linecap:butt;stroke-linejoin:miter;stroke-miterlimit:4;stroke-opacity:1;stroke-dasharray:none;stroke-dashoffset:0;marker:none;visibility:visible;display:inline;overflow:visible;enable-background:accumulate;font-family:Sans"
 id="path5454"
 inkscape:connector-curvature="0" />
<path
 d="M 771.33099013462,-1322.7064981351 771.33099013462,-1480.7959103793 792.79060339287,-1480.7959103793 875.82528785949,-1356.6752326896 875.82528785949,-1480.7959103793 895.88301683454,-1480.7959103793 895.88301683454,-1322.7064981351 874.42340357629,-1322.7064981351 791.38871910967,-1446.9350130773 791.38871910967,-1322.7064981351 z"
 style="font-size:400px;font-style:normal;font-weight:normal;line-height:125%;letter-spacing:0px;word-spacing:0px;color:#000000;fill:none;stroke:#000000;stroke-width:1;stroke-linecap:butt;stroke-linejoin:miter;stroke-miterlimit:4;stroke-opacity:1;stroke-dasharray:none;stroke-dashoffset:0;marker:none;visibility:visible;display:inline;overflow:visible;enable-background:accumulate;font-family:Sans"
 id="path5456"
 inkscape:connector-curvature="0" />
<path
 d="M 1005.1221536718,-1384.7129183537 1005.1221536718,-1403.2609257929 1072.0890875079,-1403.3687630455 1072.0890875079,-1344.7052976561 C 1061.8084550633,-1336.5096526588 1051.2044691661,-1330.3449625525 1040.2770980044,-1326.2112088431 1029.3494745035,-1322.0774481242 1018.134411453,-1320.0105695172 1006.6318752075,-1320.0105668212 991.10323384396,-1320.0105695172 976.99454074352,-1323.3355481459 964.30575358008,-1329.9855126825 951.61686602017,-1336.635462661 942.03733299782,-1346.2509413982 935.56712577443,-1358.8319777407 929.09687563181,-1371.4129418322 925.86176129031,-1385.4677163602 925.86177304457,-1400.9963434893 925.86176129031,-1416.3810311791 929.07890277436,-1430.7413442838 935.51320714815,-1444.0773258847 941.94746871056,-1457.4130647438 951.20349029875,-1467.3161092003 963.28129968082,-1473.7864889633 975.35901071531,-1480.2565665663 989.27000238378,-1483.4916809078 1005.0143164192,-1483.4918416932 1016.4449628524,-1483.4916809078 1026.7793558878,-1481.6404765902 1036.0175265285,-1477.9382231866 1045.2554533492,-1474.2356593196 1052.4985149027,-1469.0774492307 1057.7467329182,-1462.4635774451 1062.9946636552,-1455.8494261454 1066.9846380097,-1447.2224545681 1069.7166679517,-1436.5826368321 L 1050.8451487547,-1431.4064487096 C 1048.4725948333,-1439.4581801485 1045.525046211,-1445.7846259718 1042.0024940453,-1450.3858051591 1038.4796860895,-1454.9867289877 1033.4472860028,-1458.6711647655 1026.9052786877,-1461.4391235459 1020.3630457771,-1464.206804861 1013.1020113662,-1465.5907148848 1005.1221536718,-1465.5908577692 995.56050249226,-1465.5907148848 987.29298806397,-1464.1349134311 980.31958558436,-1461.2234490407 973.3460506806,-1458.3117076164 967.72054629787,-1454.483488979 963.44305555965,-1449.7387816437 959.16546615034,-1444.9938202439 955.84048752157,-1439.7816915826 953.4681096984,-1434.1023800234 949.44215026838,-1424.3250341732 947.42919023367,-1413.721048276 947.42922355538,-1402.29039052 947.42919023367,-1388.1995906931 949.85552598979,-1376.409396204 954.70823810277,-1366.9197716822 959.5608690143,-1357.4300587339 966.62420199325,-1350.3846986124 975.89825822964,-1345.7836701816 985.17219088454,-1341.1825955966 995.02131676868,-1338.8820698426 1005.4456654295,-1338.8820860182 1014.5038942475,-1338.8820698426 1023.3465401143,-1340.6254370155 1031.9736295577,-1344.1121927671 1040.600483269,-1347.5989057072 1047.1426033818,-1351.3192871999 1051.6000095226,-1355.2733484064 L 1051.6000095226,-1384.7129183537 z"
 style="font-size:400px;font-style:normal;font-weight:normal;line-height:125%;letter-spacing:0px;word-spacing:0px;color:#000000;fill:none;stroke:#000000;stroke-width:1;stroke-linecap:butt;stroke-linejoin:miter;stroke-miterlimit:4;stroke-opacity:1;stroke-dasharray:none;stroke-dashoffset:0;marker:none;visibility:visible;display:inline;overflow:visible;enable-background:accumulate;font-family:Sans"
 id="path5458"
 inkscape:connector-curvature="0" />
</g>
<g
 id="g5596"
 transform="translate(0,57.656021130423)">
<path
 d="M 35.233904200709,-1046.6431315967 35.233904200709,-1204.732543841 89.691716740502,-1204.732543841 C 101.98507974212,-1204.7323857515 111.36691133248,-1203.9775257385 117.83723965711,-1202.4679615373 126.8954601717,-1200.382954248 134.62378887638,-1196.6086541829 141.02224895623,-1191.1450500191 149.36153198772,-1184.0995453957 155.59811352384,-1175.0951438119 159.73201227435,-1164.1318182544 163.86562795209,-1153.1682577195 165.93250655919,-1140.6411760749 165.93265429621,-1126.5505357393 165.93250655919,-1114.5445870534 164.53062367784,-1103.9046554413 161.7270014466,-1094.6307089833 158.92309215259,-1085.35666655 155.328520662,-1077.6822564177 150.9432761912,-1071.607455563 146.55776622507,-1065.5326047796 141.75901328516,-1060.7518246972 136.54700297523,-1057.2651009733 131.33475596256,-1053.7783560055 125.04425585404,-1051.1363459599 117.67548377828,-1049.3390629106 110.30651274276,-1047.5417744694 101.84129688247,-1046.6431315967 92.279810801799,-1046.6431315967 z M 56.154331196194,-1065.2989762886 89.90739124561,-1065.2989762886 C 100.33157685645,-1065.2989576327 108.50922699749,-1066.2694919352 114.44036620166,-1068.2105821075 120.37131291633,-1070.151629145 125.09817442643,-1072.8835034778 128.62096491251,-1076.4062133016 133.58136314412,-1081.3666921955 137.44552749649,-1088.0346223105 140.21346956207,-1096.4100236504 142.98116759194,-1104.7853254565 144.36507761583,-1114.9399899174 144.3652037854,-1126.8740474969 144.36507761583,-1143.4089961226 141.65117614044,-1156.1158063417 136.22349121757,-1164.9945162748 130.79557023894,-1173.8729895051 124.19953155377,-1179.822005322 116.43535537391,-1182.8415815725 110.82772560892,-1184.9981882684 101.8053511676,-1186.0765597155 89.36820498284,-1186.0766991491 L 56.154331196194,-1186.0766991491 z"
 style="font-size:400px;font-style:normal;font-weight:normal;line-height:125%;letter-spacing:0px;word-spacing:0px;color:#000000;fill:none;stroke:#000000;stroke-width:1;stroke-linecap:butt;stroke-linejoin:miter;stroke-miterlimit:4;stroke-opacity:1;stroke-dasharray:none;stroke-dashoffset:0;marker:none;visibility:visible;display:inline;overflow:visible;enable-background:accumulate;font-family:Sans"
 id="path5460"
 inkscape:connector-curvature="0" />
<path
 d="M 188.47064008001,-1123.6389299203 C 188.47062940414,-1149.8792248056 195.51598952561,-1170.4222008741 209.6067415806,-1185.2679197549 223.6974300116,-1200.1133613862 241.88596175382,-1207.5361515142 264.17239137295,-1207.5363124074 278.766265247,-1207.5361515142 291.92239690241,-1204.0494171683 303.64082580773,-1197.0760989096 315.35900302089,-1190.102479785 324.29151317494,-1180.379163903 330.43838306741,-1167.9061220937 336.58494767261,-1155.4328377585 339.65830629704,-1141.2881989432 339.65846816078,-1125.4721632137 339.65830629704,-1109.4402955368 336.42319195555,-1095.0979552895 329.95311543091,-1082.4450994447 323.48273458954,-1069.7921719959 314.31657728863,-1060.2126389736 302.45461602963,-1053.706471639 290.59240545091,-1047.2002901777 277.79573094454,-1043.9472029788 264.06455412039,-1043.9472002829 249.18294187966,-1043.9472029788 235.8830273646,-1047.5417744694 224.1647706754,-1054.7309255383 212.44642124613,-1061.9200604316 203.56782966446,-1071.7332406008 197.52896929455,-1084.1704954855 191.49006945618,-1096.6076753155 188.47062940414,-1109.7638069709 188.47064008001,-1123.6389299203 z M 210.03809059082,-1123.3154181626 C 210.0380583475,-1104.2641125904 215.16032272151,-1089.2567766173 225.40489907977,-1078.2933652213 235.64938021769,-1067.3298905249 248.49997329645,-1061.8481690018 263.95671686784,-1061.8481842068 279.70085383453,-1061.8481690018 292.65928405801,-1067.3838090973 302.83204641357,-1078.4551211002 313.00455869454,-1089.5263694791 318.09087735368,-1105.2346468928 318.09101764997,-1125.5800004663 318.09087735368,-1138.4484874656 315.91616160191,-1149.6815233736 311.56686387045,-1159.2791418894 307.21729859477,-1168.8765351332 300.85490705646,-1176.3172981187 292.47967016838,-1181.6014531681 284.10420391046,-1186.8853383009 274.70439946265,-1189.5273483465 264.2802286255,-1189.5274912308 249.4705075989,-1189.5273483465 236.72775166487,-1184.4410296873 226.05192259509,-1174.2685199944 215.37599701096,-1164.0957550508 210.0380583475,-1147.1114047579 210.03809059082,-1123.3154181626 z"
 style="font-size:400px;font-style:normal;font-weight:normal;line-height:125%;letter-spacing:0px;word-spacing:0px;color:#000000;fill:none;stroke:#000000;stroke-width:1;stroke-linecap:butt;stroke-linejoin:miter;stroke-miterlimit:4;stroke-opacity:1;stroke-dasharray:none;stroke-dashoffset:0;marker:none;visibility:visible;display:inline;overflow:visible;enable-background:accumulate;font-family:Sans"
 id="path5462"
 inkscape:connector-curvature="0" />
<path
 d="M 366.29426954163,-1046.6431315967 366.29426954163,-1204.732543841 387.75388279988,-1204.732543841 470.7885672665,-1080.6118661512 470.7885672665,-1204.732543841 490.84629624155,-1204.732543841 490.84629624155,-1046.6431315967 469.38668298329,-1046.6431315967 386.35199851668,-1170.871646539 386.35199851668,-1046.6431315967 z"
 style="font-size:400px;font-style:normal;font-weight:normal;line-height:125%;letter-spacing:0px;word-spacing:0px;color:#000000;fill:none;stroke:#000000;stroke-width:1;stroke-linecap:butt;stroke-linejoin:miter;stroke-miterlimit:4;stroke-opacity:1;stroke-dasharray:none;stroke-dashoffset:0;marker:none;visibility:visible;display:inline;overflow:visible;enable-background:accumulate;font-family:Sans"
 id="path5464"
 inkscape:connector-curvature="0" />
<path
 d="M 523.73665827053,-1148.7650097654 518.77614465305,-1178.3124169652 518.77614465305,-1204.732543841 540.88278142663,-1204.732543841 540.88278142663,-1178.3124169652 535.70659330403,-1148.7650097654 z"
 style="font-size:400px;font-style:normal;font-weight:normal;line-height:125%;letter-spacing:0px;word-spacing:0px;color:#000000;fill:none;stroke:#000000;stroke-width:1;stroke-linecap:butt;stroke-linejoin:miter;stroke-miterlimit:4;stroke-opacity:1;stroke-dasharray:none;stroke-dashoffset:0;marker:none;visibility:visible;display:inline;overflow:visible;enable-background:accumulate;font-family:Sans"
 id="path5466"
 inkscape:connector-curvature="0" />
<path
 d="M 608.60457603057,-1046.6431315967 608.60457603057,-1186.0766991491 556.51918304696,-1186.0766991491 556.51918304696,-1204.732543841 681.82607051476,-1204.732543841 681.82607051476,-1186.0766991491 629.52500302605,-1186.0766991491 629.52500302605,-1046.6431315967 z"
 style="font-size:400px;font-style:normal;font-weight:normal;line-height:125%;letter-spacing:0px;word-spacing:0px;color:#000000;fill:none;stroke:#000000;stroke-width:1;stroke-linecap:butt;stroke-linejoin:miter;stroke-miterlimit:4;stroke-opacity:1;stroke-dasharray:none;stroke-dashoffset:0;marker:none;visibility:visible;display:inline;overflow:visible;enable-background:accumulate;font-family:Sans"
 id="path5468"
 inkscape:connector-curvature="0" />
<path
 d="M 804.86837567893,-1046.6431315967 804.86837567893,-1186.0766991491 752.78298269532,-1186.0766991491 752.78298269532,-1204.732543841 878.08987016312,-1204.732543841 878.08987016312,-1186.0766991491 825.78880267441,-1186.0766991491 825.78880267441,-1046.6431315967 z"
 style="font-size:400px;font-style:normal;font-weight:normal;line-height:125%;letter-spacing:0px;word-spacing:0px;color:#000000;fill:none;stroke:#000000;stroke-width:1;stroke-linecap:butt;stroke-linejoin:miter;stroke-miterlimit:4;stroke-opacity:1;stroke-dasharray:none;stroke-dashoffset:0;marker:none;visibility:visible;display:inline;overflow:visible;enable-background:accumulate;font-family:Sans"
 id="path5470"
 inkscape:connector-curvature="0" />
<path
 d="M 900.30434418926,-1046.6431315967 900.30434418926,-1204.732543841 921.22477118474,-1204.732543841 921.22477118474,-1139.8145178034 1003.3967576309,-1139.8145178034 1003.3967576309,-1204.732543841 1024.3171846264,-1204.732543841 1024.3171846264,-1046.6431315967 1003.3967576309,-1046.6431315967 1003.3967576309,-1121.1586731116 921.22477118474,-1121.1586731116 921.22477118474,-1046.6431315967 z"
 style="font-size:400px;font-style:normal;font-weight:normal;line-height:125%;letter-spacing:0px;word-spacing:0px;color:#000000;fill:none;stroke:#000000;stroke-width:1;stroke-linecap:butt;stroke-linejoin:miter;stroke-miterlimit:4;stroke-opacity:1;stroke-dasharray:none;stroke-dashoffset:0;marker:none;visibility:visible;display:inline;overflow:visible;enable-background:accumulate;font-family:Sans"
 id="path5472"
 inkscape:connector-curvature="0" />
<path
 d="M 1062.8150837882,-1046.6431315967 1062.8150837882,-1204.732543841 1083.7355107837,-1204.732543841 1083.7355107837,-1046.6431315967 z"
 style="font-size:400px;font-style:normal;font-weight:normal;line-height:125%;letter-spacing:0px;word-spacing:0px;color:#000000;fill:none;stroke:#000000;stroke-width:1;stroke-linecap:butt;stroke-linejoin:miter;stroke-miterlimit:4;stroke-opacity:1;stroke-dasharray:none;stroke-dashoffset:0;marker:none;visibility:visible;display:inline;overflow:visible;enable-background:accumulate;font-family:Sans"
 id="path5474"
 inkscape:connector-curvature="0" />
<path
 d="M 1120.2923393995,-1046.6431315967 1120.2923393995,-1204.732543841 1141.7519526578,-1204.732543841 1224.7866371244,-1080.6118661512 1224.7866371244,-1204.732543841 1244.8443660994,-1204.732543841 1244.8443660994,-1046.6431315967 1223.3847528412,-1046.6431315967 1140.3500683746,-1170.871646539 1140.3500683746,-1046.6431315967 z"
 style="font-size:400px;font-style:normal;font-weight:normal;line-height:125%;letter-spacing:0px;word-spacing:0px;color:#000000;fill:none;stroke:#000000;stroke-width:1;stroke-linecap:butt;stroke-linejoin:miter;stroke-miterlimit:4;stroke-opacity:1;stroke-dasharray:none;stroke-dashoffset:0;marker:none;visibility:visible;display:inline;overflow:visible;enable-background:accumulate;font-family:Sans"
 id="path5476"
 inkscape:connector-curvature="0" />
<path
 d="M 1279.2444496642,-1046.6431315967 1279.2444496642,-1204.732543841 1300.1648766597,-1204.732543841 1300.1648766597,-1126.3348612342 1378.670396519,-1204.732543841 1407.0315939407,-1204.732543841 1340.71168362,-1140.6772158238 1409.9431997597,-1046.6431315967 1382.3368631058,-1046.6431315967 1326.0458172726,-1126.6583729918 1300.1648766597,-1101.4244558942 1300.1648766597,-1046.6431315967 z"
 style="font-size:400px;font-style:normal;font-weight:normal;line-height:125%;letter-spacing:0px;word-spacing:0px;color:#000000;fill:none;stroke:#000000;stroke-width:1;stroke-linecap:butt;stroke-linejoin:miter;stroke-miterlimit:4;stroke-opacity:1;stroke-dasharray:none;stroke-dashoffset:0;marker:none;visibility:visible;display:inline;overflow:visible;enable-background:accumulate;font-family:Sans"
 id="path5478"
 inkscape:connector-curvature="0" />
</g>
<g
 id="g5608"
 transform="translate(0,-18.750000009897)">
<path
 d="M 75.457199403368,-770.57976505837 75.457199403368,-910.01333261075 23.371806419764,-910.01333261075 23.371806419764,-928.6691773026 148.67869388756,-928.6691773026 148.67869388756,-910.01333261075 96.377626398853,-910.01333261075 96.377626398853,-770.57976505837 z"
 style="font-size:400px;font-style:normal;font-weight:normal;line-height:125%;letter-spacing:0px;word-spacing:0px;color:#000000;fill:none;stroke:#000000;stroke-width:1;stroke-linecap:butt;stroke-linejoin:miter;stroke-miterlimit:4;stroke-opacity:1;stroke-dasharray:none;stroke-dashoffset:0;marker:none;visibility:visible;display:inline;overflow:visible;enable-background:accumulate;font-family:Sans"
 id="path5480"
 inkscape:connector-curvature="0" />
<path
 d="M 170.8931679137,-770.57976505837 170.8931679137,-928.6691773026 191.81359490918,-928.6691773026 191.81359490918,-863.75115126506 273.98558135536,-863.75115126506 273.98558135536,-928.6691773026 294.90600835085,-928.6691773026 294.90600835085,-770.57976505837 273.98558135536,-770.57976505837 273.98558135536,-845.09530657321 191.81359490918,-845.09530657321 191.81359490918,-770.57976505837 z"
 style="font-size:400px;font-style:normal;font-weight:normal;line-height:125%;letter-spacing:0px;word-spacing:0px;color:#000000;fill:none;stroke:#000000;stroke-width:1;stroke-linecap:butt;stroke-linejoin:miter;stroke-miterlimit:4;stroke-opacity:1;stroke-dasharray:none;stroke-dashoffset:0;marker:none;visibility:visible;display:inline;overflow:visible;enable-background:accumulate;font-family:Sans"
 id="path5482"
 inkscape:connector-curvature="0" />
<path
 d="M 330.27662718858,-770.57976505837 330.27662718858,-928.6691773026 444.58411489586,-928.6691773026 444.58411489586,-910.01333261075 351.19705418406,-910.01333261075 351.19705418406,-861.59440621398 438.65306600539,-861.59440621398 438.65306600539,-843.04639877468 351.19705418406,-843.04639877468 351.19705418406,-789.23560975022 448.2505814827,-789.23560975022 448.2505814827,-770.57976505837 z"
 style="font-size:400px;font-style:normal;font-weight:normal;line-height:125%;letter-spacing:0px;word-spacing:0px;color:#000000;fill:none;stroke:#000000;stroke-width:1;stroke-linecap:butt;stroke-linejoin:miter;stroke-miterlimit:4;stroke-opacity:1;stroke-dasharray:none;stroke-dashoffset:0;marker:none;visibility:visible;display:inline;overflow:visible;enable-background:accumulate;font-family:Sans"
 id="path5484"
 inkscape:connector-curvature="0" />
<path
 d="M 521.90342497711,-770.57976505837 521.90342497711,-837.54669889443 460.97537728408,-928.6691773026 486.42496888683,-928.6691773026 517.58993487495,-881.00511167371 C 523.34119199829,-872.09046395177 528.69710351921,-863.17592665518 533.6576855055,-854.2614730403 538.40244654374,-862.5289037869 544.15376092864,-871.83884394745 550.91164591415,-882.1913214518 L 581.5374256395,-928.6691773026 605.90864471672,-928.6691773026 542.8238519726,-837.54669889443 542.8238519726,-770.57976505837 z"
 style="font-size:400px;font-style:normal;font-weight:normal;line-height:125%;letter-spacing:0px;word-spacing:0px;color:#000000;fill:none;stroke:#000000;stroke-width:1;stroke-linecap:butt;stroke-linejoin:miter;stroke-miterlimit:4;stroke-opacity:1;stroke-dasharray:none;stroke-dashoffset:0;marker:none;visibility:visible;display:inline;overflow:visible;enable-background:accumulate;font-family:Sans"
 id="path5486"
 inkscape:connector-curvature="0" />
<path
 d="M 713.74589727076,-770.57976505837 671.79720602724,-928.6691773026 693.25681928549,-928.6691773026 717.30452660504,-825.03757759816 C 719.89256987499,-814.18191723885 722.12120419914,-803.3982027672 723.99043626339,-792.68640183194 728.01630144366,-809.58086573093 730.38871862743,-819.32215447033 731.10769493196,-821.91029727409 L 761.19428839454,-928.6691773026 786.42820549219,-928.6691773026 809.07402852854,-848.65393590749 C 814.75331151087,-828.81182320541 818.8511230101,-810.15599716942 821.3674753197,-792.68640183194 823.38028308821,-802.67928846906 826.00432027632,-814.14597152392 829.23959475614,-827.08648539669 L 854.04216284357,-928.6691773026 875.07042709161,-928.6691773026 831.71985156489,-770.57976505837 811.55428533728,-770.57976505837 778.23257429808,-891.03397616123 C 775.42869940414,-901.09865588057 773.77519651849,-907.28131884436 773.27206068059,-909.58198360053 771.61845362415,-902.3208101874 770.07278788321,-896.13814722361 768.63505882077,-891.03397616123 L 735.09767327646,-770.57976505837 z"
 style="font-size:400px;font-style:normal;font-weight:normal;line-height:125%;letter-spacing:0px;word-spacing:0px;color:#000000;fill:none;stroke:#000000;stroke-width:1;stroke-linecap:butt;stroke-linejoin:miter;stroke-miterlimit:4;stroke-opacity:1;stroke-dasharray:none;stroke-dashoffset:0;marker:none;visibility:visible;display:inline;overflow:visible;enable-background:accumulate;font-family:Sans"
 id="path5488"
 inkscape:connector-curvature="0" />
<path
 d="M 888.11873465065,-847.57556338195 C 888.11872397476,-873.81585826724 895.16408409626,-894.35883433581 909.25483615124,-909.20455321659 923.34552458225,-924.04999484782 941.53405632448,-931.47278497579 963.82048594359,-931.472945869 978.41435981762,-931.47278497579 991.57049147307,-927.98605062998 1003.2889203784,-921.01273237126 1015.0070975915,-914.03911324658 1023.9396077456,-904.31579736465 1030.0864776381,-891.84275555539 1036.2330422433,-879.36947122015 1039.3064008677,-865.22483240482 1039.3065627314,-849.40879667537 1039.3064008677,-833.37692899845 1036.0712865262,-819.03458875108 1029.6012100016,-806.38173290631 1023.1308291602,-793.72880545754 1013.9646718593,-784.1492724352 1002.1027106003,-777.64310510066 990.24050002156,-771.13692363939 977.44382551517,-767.88383644044 963.71264869104,-767.88383374451 948.83103645031,-767.88383644044 935.53112193525,-771.47840793103 923.81286524604,-778.66755899992 912.0945158168,-785.85669389327 903.21592423511,-795.66987406246 897.17706386519,-808.10712894717 891.13816402683,-820.54430877716 888.11872397476,-833.70044043257 888.11873465065,-847.57556338195 z M 909.68618516146,-847.25205162429 C 909.68615291812,-828.20074605205 914.80841729217,-813.19341007893 925.05299365041,-802.22999868298 935.29747478836,-791.26652398653 948.14806786711,-785.78480246341 963.60481143848,-785.78481766849 979.34894840517,-785.78480246341 992.30737862864,-791.32044255892 1002.4801409842,-802.39175456181 1012.6526532652,-813.46300294076 1017.7389719243,-829.1712803545 1017.7391122206,-849.51663392793 1017.7389719243,-862.38512092725 1015.5642561726,-873.61815683526 1011.2149584411,-883.21577535107 1006.8653931654,-892.81316859486 1000.5030016271,-900.2539315803 992.12776473903,-905.53808662975 983.7522984811,-910.82197176256 974.35249403329,-913.46398180809 963.92832319614,-913.46412469248 949.11860216956,-913.46398180809 936.37584623553,-908.37766314895 925.70001716574,-898.20515345608 915.0240915816,-888.03238851242 909.68615291812,-871.04803821952 909.68618516146,-847.25205162429 z"
 style="font-size:400px;font-style:normal;font-weight:normal;line-height:125%;letter-spacing:0px;word-spacing:0px;color:#000000;fill:none;stroke:#000000;stroke-width:1;stroke-linecap:butt;stroke-linejoin:miter;stroke-miterlimit:4;stroke-opacity:1;stroke-dasharray:none;stroke-dashoffset:0;marker:none;visibility:visible;display:inline;overflow:visible;enable-background:accumulate;font-family:Sans"
 id="path5490"
 inkscape:connector-curvature="0" />
<path
 d="M 1065.9423641123,-770.57976505837 1065.9423641123,-928.6691773026 1087.4019773705,-928.6691773026 1170.4366618371,-804.54849961289 1170.4366618371,-928.6691773026 1190.4943908122,-928.6691773026 1190.4943908122,-770.57976505837 1169.0347775539,-770.57976505837 1086.0000930873,-894.80828000063 1086.0000930873,-770.57976505837 z"
 style="font-size:400px;font-style:normal;font-weight:normal;line-height:125%;letter-spacing:0px;word-spacing:0px;color:#000000;fill:none;stroke:#000000;stroke-width:1;stroke-linecap:butt;stroke-linejoin:miter;stroke-miterlimit:4;stroke-opacity:1;stroke-dasharray:none;stroke-dashoffset:0;marker:none;visibility:visible;display:inline;overflow:visible;enable-background:accumulate;font-family:Sans"
 id="path5492"
 inkscape:connector-curvature="0" />
<path
 d="M 1223.3847528412,-872.70164322705 1218.4242392237,-902.24905042685 1218.4242392237,-928.6691773026 1240.5308759973,-928.6691773026 1240.5308759973,-902.24905042685 1235.3546878747,-872.70164322705 z"
 style="font-size:400px;font-style:normal;font-weight:normal;line-height:125%;letter-spacing:0px;word-spacing:0px;color:#000000;fill:none;stroke:#000000;stroke-width:1;stroke-linecap:butt;stroke-linejoin:miter;stroke-miterlimit:4;stroke-opacity:1;stroke-dasharray:none;stroke-dashoffset:0;marker:none;visibility:visible;display:inline;overflow:visible;enable-background:accumulate;font-family:Sans"
 id="path5494"
 inkscape:connector-curvature="0" />
<path
 d="M 1308.2526706012,-770.57976505837 1308.2526706012,-910.01333261075 1256.1672776176,-910.01333261075 1256.1672776176,-928.6691773026 1381.4741650854,-928.6691773026 1381.4741650854,-910.01333261075 1329.1730975967,-910.01333261075 1329.1730975967,-770.57976505837 z"
 style="font-size:400px;font-style:normal;font-weight:normal;line-height:125%;letter-spacing:0px;word-spacing:0px;color:#000000;fill:none;stroke:#000000;stroke-width:1;stroke-linecap:butt;stroke-linejoin:miter;stroke-miterlimit:4;stroke-opacity:1;stroke-dasharray:none;stroke-dashoffset:0;marker:none;visibility:visible;display:inline;overflow:visible;enable-background:accumulate;font-family:Sans"
 id="path5496"
 inkscape:connector-curvature="0" />
</g>
<g
 id="g5619"
 transform="translate(0,-100.00000005277)">
<path
 d="M 148.03167037224,-549.94474633279 168.95209736773,-544.66072095764 C 164.56656939276,-527.47861908844 156.67648497097,-514.37640600536 145.28182043211,-505.35404240169 133.88690172083,-496.33165712274 119.9579371949,-491.82046990208 103.49488506742,-491.82046720616 86.456530902907,-491.82046990208 72.599457806768,-495.28923139048 61.923624207835,-502.22676207762 51.247703152857,-509.16427734403 43.123971584205,-519.21110466014 37.552405130621,-532.36727416648 31.980799963457,-545.52336797106 29.195007058269,-559.65003392893 29.195018057683,-574.74731442022 29.195007058269,-591.21037161605 32.340257112499,-605.57068472083 38.630777656162,-617.82829681556 44.921257329472,-630.08566228649 53.871740340986,-639.39560244705 65.482253542119,-645.75814522706 77.092672170016,-652.12038552361 89.871373818918,-655.30158129277 103.81839682508,-655.30174207809 119.63442576078,-655.30158129277 132.93434027584,-651.27566122334 143.71818027008,-643.22396979204 154.5017692192,-635.17198094563 162.01442363449,-623.84908075036 166.25616605387,-609.25523523751 L 145.65925081605,-604.40255887258 C 141.99266043208,-615.90507775623 136.67269462602,-624.2804293292 129.69933743805,-629.52863871767 122.72575724268,-634.77657808167 113.95500280568,-637.40061526974 103.38704781487,-637.40075815412 91.237310985344,-637.40061526974 81.082646524516,-634.48901236242 72.923023968348,-628.66594069724 64.763291957361,-622.84260073298 59.029950429929,-615.02440774104 55.722982185978,-605.21133826674 52.415938887299,-595.39804740259 50.762436001628,-585.27932865664 50.762468568492,-574.85515167277 50.762436001628,-561.41137395932 52.721477464007,-549.67509804267 56.639598832687,-539.64628871388 60.557643313413,-529.61738912534 66.650441989888,-522.12270756751 74.918013140598,-517.16222155636 83.18547084649,-512.20169025354 92.135953858005,-509.72143592506 101.76948902656,-509.72145113013 113.48770851192,-509.72143592506 123.40872582583,-513.1003331262 131.53257073147,-519.85815287021 139.65618896319,-526.6159219307 145.15588334371,-536.64477638934 148.03167037224,-549.94474633279 z"
 style="font-size:400px;font-style:normal;font-weight:normal;line-height:125%;letter-spacing:0px;word-spacing:0px;color:#000000;fill:none;stroke:#000000;stroke-width:1;stroke-linecap:butt;stroke-linejoin:miter;stroke-miterlimit:4;stroke-opacity:1;stroke-dasharray:none;stroke-dashoffset:0;marker:none;visibility:visible;display:inline;overflow:visible;enable-background:accumulate;font-family:Sans"
 id="path5498"
 inkscape:connector-curvature="0" />
<path
 d="M 188.47064008001,-571.5121968436 C 188.47062940414,-597.75249172889 195.51598952561,-618.29546779745 209.6067415806,-633.14118667824 223.6974300116,-647.98662830946 241.88596175382,-655.40941843744 264.17239137295,-655.40957933065 278.766265247,-655.40941843744 291.92239690241,-651.92268409163 303.64082580773,-644.9493658329 315.35900302089,-637.97574670823 324.29151317494,-628.2524308263 330.43838306741,-615.77938901703 336.58494767261,-603.3061046818 339.65830629704,-589.16146586647 339.65846816078,-573.34543013702 339.65830629704,-557.3135624601 336.42319195555,-542.97122221273 329.95311543091,-530.31836636795 323.48273458954,-517.66543891919 314.31657728863,-508.08590589685 302.45461602963,-501.5797385623 290.59240545091,-495.07355710104 277.79573094454,-491.82046990208 264.06455412039,-491.82046720616 249.18294187966,-491.82046990208 235.8830273646,-495.41504139267 224.1647706754,-502.60419246156 212.44642124613,-509.79332735491 203.56782966446,-519.6065075241 197.52896929455,-532.04376240882 191.49006945618,-544.48094223881 188.47062940414,-557.63707389421 188.47064008001,-571.5121968436 z M 210.03809059082,-571.18868508594 C 210.0380583475,-552.13737951369 215.16032272151,-537.13004354057 225.40489907977,-526.16663214462 235.64938021769,-515.20315744817 248.49997329645,-509.72143592506 263.95671686784,-509.72145113013 279.70085383453,-509.72143592506 292.65928405801,-515.25707602056 302.83204641357,-526.32838802345 313.00455869454,-537.39963640241 318.09087735368,-553.10791381615 318.09101764997,-573.45326738957 318.09087735368,-586.32175438889 315.91616160191,-597.5547902969 311.56686387045,-607.15240881271 307.21729859477,-616.74980205651 300.85490705646,-624.19056504194 292.47967016838,-629.4747200914 284.10420391046,-634.7586052242 274.70439946265,-637.40061526974 264.2802286255,-637.40075815412 249.4705075989,-637.40061526974 236.72775166487,-632.31429661059 226.05192259509,-622.14178691772 215.37599701096,-611.96902197407 210.0380583475,-594.98467168116 210.03809059082,-571.18868508594 z"
 style="font-size:400px;font-style:normal;font-weight:normal;line-height:125%;letter-spacing:0px;word-spacing:0px;color:#000000;fill:none;stroke:#000000;stroke-width:1;stroke-linecap:butt;stroke-linejoin:miter;stroke-miterlimit:4;stroke-opacity:1;stroke-dasharray:none;stroke-dashoffset:0;marker:none;visibility:visible;display:inline;overflow:visible;enable-background:accumulate;font-family:Sans"
 id="path5500"
 inkscape:connector-curvature="0" />
<path
 d="M 365.86292053141,-494.51639852001 365.86292053141,-652.60581076424 397.35139827719,-652.60581076424 434.77092491345,-540.67074261314 C 438.22162824511,-530.24643913616 440.73782828852,-522.44621900168 442.31953259223,-517.27005880891 444.11672548965,-523.02135044017 446.92049125225,-531.46859344294 450.73083829144,-542.61181315911 L 488.58171393791,-652.60581076424 516.72723685452,-652.60581076424 516.72723685452,-494.51639852001 496.56167062691,-494.51639852001 496.56167062691,-626.83270740382 450.62300103889,-494.51639852001 431.75148184193,-494.51639852001 386.02848675902,-629.09728970746 386.02848675902,-494.51639852001 z"
 style="font-size:400px;font-style:normal;font-weight:normal;line-height:125%;letter-spacing:0px;word-spacing:0px;color:#000000;fill:none;stroke:#000000;stroke-width:1;stroke-linecap:butt;stroke-linejoin:miter;stroke-miterlimit:4;stroke-opacity:1;stroke-dasharray:none;stroke-dashoffset:0;marker:none;visibility:visible;display:inline;overflow:visible;enable-background:accumulate;font-family:Sans"
 id="path5502"
 inkscape:connector-curvature="0" />
<path
 d="M 551.12732041926,-494.51639852001 551.12732041926,-652.60581076424 665.43480812655,-652.60581076424 665.43480812655,-633.94996607239 572.04774741474,-633.94996607239 572.04774741474,-585.53103967562 659.50375923608,-585.53103967562 659.50375923608,-566.98303223633 572.04774741474,-566.98303223633 572.04774741474,-513.17224321186 669.10127471339,-513.17224321186 669.10127471339,-494.51639852001 z"
 style="font-size:400px;font-style:normal;font-weight:normal;line-height:125%;letter-spacing:0px;word-spacing:0px;color:#000000;fill:none;stroke:#000000;stroke-width:1;stroke-linecap:butt;stroke-linejoin:miter;stroke-miterlimit:4;stroke-opacity:1;stroke-dasharray:none;stroke-dashoffset:0;marker:none;visibility:visible;display:inline;overflow:visible;enable-background:accumulate;font-family:Sans"
 id="path5504"
 inkscape:connector-curvature="0" />
<path
 d="M 760.54726487922,-494.51639852001 760.54726487922,-652.60581076424 867.19830765517,-652.60581076424 867.19830765517,-633.94996607239 781.4676918747,-633.94996607239 781.4676918747,-584.99185341285 855.65972163188,-584.99185341285 855.65972163188,-566.336008721 781.4676918747,-566.336008721 781.4676918747,-494.51639852001 z"
 style="font-size:400px;font-style:normal;font-weight:normal;line-height:125%;letter-spacing:0px;word-spacing:0px;color:#000000;fill:none;stroke:#000000;stroke-width:1;stroke-linecap:butt;stroke-linejoin:miter;stroke-miterlimit:4;stroke-opacity:1;stroke-dasharray:none;stroke-dashoffset:0;marker:none;visibility:visible;display:inline;overflow:visible;enable-background:accumulate;font-family:Sans"
 id="path5506"
 inkscape:connector-curvature="0" />
<path
 d="M 888.11873465065,-571.5121968436 C 888.11872397476,-597.75249172889 895.16408409626,-618.29546779745 909.25483615124,-633.14118667824 923.34552458225,-647.98662830946 941.53405632448,-655.40941843744 963.82048594359,-655.40957933065 978.41435981762,-655.40941843744 991.57049147307,-651.92268409163 1003.2889203784,-644.9493658329 1015.0070975915,-637.97574670823 1023.9396077456,-628.2524308263 1030.0864776381,-615.77938901703 1036.2330422433,-603.3061046818 1039.3064008677,-589.16146586647 1039.3065627314,-573.34543013702 1039.3064008677,-557.3135624601 1036.0712865262,-542.97122221273 1029.6012100016,-530.31836636795 1023.1308291602,-517.66543891919 1013.9646718593,-508.08590589685 1002.1027106003,-501.5797385623 990.24050002156,-495.07355710104 977.44382551517,-491.82046990208 963.71264869104,-491.82046720616 948.83103645031,-491.82046990208 935.53112193525,-495.41504139267 923.81286524604,-502.60419246156 912.0945158168,-509.79332735491 903.21592423511,-519.6065075241 897.17706386519,-532.04376240882 891.13816402683,-544.48094223881 888.11872397476,-557.63707389421 888.11873465065,-571.5121968436 z M 909.68618516146,-571.18868508594 C 909.68615291812,-552.13737951369 914.80841729217,-537.13004354057 925.05299365041,-526.16663214462 935.29747478836,-515.20315744817 948.14806786711,-509.72143592506 963.60481143848,-509.72145113013 979.34894840517,-509.72143592506 992.30737862864,-515.25707602056 1002.4801409842,-526.32838802345 1012.6526532652,-537.39963640241 1017.7389719243,-553.10791381615 1017.7391122206,-573.45326738957 1017.7389719243,-586.32175438889 1015.5642561726,-597.5547902969 1011.2149584411,-607.15240881271 1006.8653931654,-616.74980205651 1000.5030016271,-624.19056504194 992.12776473903,-629.4747200914 983.7522984811,-634.7586052242 974.35249403329,-637.40061526974 963.92832319614,-637.40075815412 949.11860216956,-637.40061526974 936.37584623553,-632.31429661059 925.70001716574,-622.14178691772 915.0240915816,-611.96902197407 909.68615291812,-594.98467168116 909.68618516146,-571.18868508594 z"
 style="font-size:400px;font-style:normal;font-weight:normal;line-height:125%;letter-spacing:0px;word-spacing:0px;color:#000000;fill:none;stroke:#000000;stroke-width:1;stroke-linecap:butt;stroke-linejoin:miter;stroke-miterlimit:4;stroke-opacity:1;stroke-dasharray:none;stroke-dashoffset:0;marker:none;visibility:visible;display:inline;overflow:visible;enable-background:accumulate;font-family:Sans"
 id="path5508"
 inkscape:connector-curvature="0" />
<path
 d="M 1066.481550375,-494.51639852001 1066.481550375,-652.60581076424 1136.5757645352,-652.60581076424 C 1150.6663973222,-652.60565267484 1161.378220364,-651.18579693608 1168.7112657963,-648.34623928836 1176.0440720455,-645.50637398098 1181.9032235751,-640.49194675164 1186.2887379626,-633.30294255707 1190.6739780121,-626.1136607894 1192.8666666213,-618.16965779527 1192.8668103684,-609.47090974262 1192.8666666213,-598.25573173758 1189.2361494159,-588.80200871737 1181.9752478604,-581.10971232091 1174.714080594,-573.4172427378 1163.4990175435,-568.52862551064 1148.3300250636,-566.44384597356 1153.8655659488,-563.78379114308 1158.0712145927,-561.159753955 1160.9469836124,-558.57172653711 1167.0576433191,-552.9641309565 1172.8449034189,-545.9547165499 1178.3087812736,-537.54346228907 L 1205.8072806749,-494.51639852001 1179.4949910517,-494.51639852001 1158.5745640562,-527.40676054899 C 1152.4636830674,-536.89639639372 1147.4312829807,-544.15743080463 1143.4773486986,-549.18988556491 1139.5232257014,-554.2222309782 1135.9825727832,-557.74491103894 1132.8553793221,-559.75793631521 1129.7280183896,-561.77083110836 1126.5468226205,-563.17271398972 1123.311782471,-563.96358916482 1120.9392910952,-564.46675972629 1117.0571538854,-564.71837973066 1111.6653591952,-564.71844993269 L 1087.4019773705,-564.71844993269 1087.4019773705,-494.51639852001 z M 1087.4019773705,-582.83510836177 1132.3701116856,-582.83510836177 C 1141.9315886001,-582.83502004308 1149.4082973005,-583.82352720295 1154.8002602168,-585.80063280701 1160.1920117721,-587.77755584258 1164.2898232714,-590.94077875427 1167.093707008,-595.29031103177 1169.8973547966,-599.63964176141 1171.299237678,-604.36650327152 1171.2993598576,-609.47090974262 1171.299237678,-616.94750348849 1168.5853362026,-623.09422073735 1163.1576472897,-627.91107992936 1157.7297303011,-632.72767233203 1149.1566772961,-635.13603523071 1137.4384625556,-635.13617585049 L 1087.4019773705,-635.13617585049 z"
 style="font-size:400px;font-style:normal;font-weight:normal;line-height:125%;letter-spacing:0px;word-spacing:0px;color:#000000;fill:none;stroke:#000000;stroke-width:1;stroke-linecap:butt;stroke-linejoin:miter;stroke-miterlimit:4;stroke-opacity:1;stroke-dasharray:none;stroke-dashoffset:0;marker:none;visibility:visible;display:inline;overflow:visible;enable-background:accumulate;font-family:Sans"
 id="path5510"
 inkscape:connector-curvature="0" />
</g>
<path
 inkscape:connector-curvature="0"
 id="path5512"
 style="font-size:400px;font-style:normal;font-weight:normal;line-height:125%;letter-spacing:0px;word-spacing:0px;color:#000000;fill:none;stroke:#000000;stroke-width:1;stroke-linecap:butt;stroke-linejoin:miter;stroke-miterlimit:4;stroke-opacity:1;stroke-dasharray:none;stroke-dashoffset:0;marker:none;visibility:visible;display:inline;overflow:visible;enable-background:accumulate;font-family:Sans"
 d="M 79.77068950553,-405.9530320806 79.77068950553,-472.91996591666 18.842641812494,-564.04244432483 44.292233415249,-564.04244432483 75.457199403368,-516.37837869594 C 81.208456526703,-507.463730974 86.56436804763,-498.54919367741 91.524950033921,-489.63474006253 96.269711072155,-497.90217080913 102.02102545705,-507.21211096968 108.77891044257,-517.56458847403 L 139.40469016792,-564.04244432483 163.77590924513,-564.04244432483 100.69111650101,-472.91996591666 100.69111650101,-405.9530320806 z" />
<path
 inkscape:connector-curvature="0"
 id="path5514"
 style="font-size:400px;font-style:normal;font-weight:normal;line-height:125%;letter-spacing:0px;word-spacing:0px;color:#000000;fill:none;stroke:#000000;stroke-width:1;stroke-linecap:butt;stroke-linejoin:miter;stroke-miterlimit:4;stroke-opacity:1;stroke-dasharray:none;stroke-dashoffset:0;marker:none;visibility:visible;display:inline;overflow:visible;enable-background:accumulate;font-family:Sans"
 d="M 176.39286779395,-482.94883040418 C 176.39285711809,-509.18912528947 183.43821723956,-529.73210135804 197.52896929455,-544.57782023882 211.61965772554,-559.42326187005 229.80818946776,-566.84605199802 252.09461908689,-566.84621289123 266.68849296095,-566.84605199802 279.84462461635,-563.35931765221 291.56305352167,-556.38599939349 303.28123073483,-549.41238026881 312.21374088888,-539.68906438688 318.36061078135,-527.21602257762 324.50717538656,-514.74273824238 327.58053401099,-500.59809942705 327.58069587473,-484.7820636976 327.58053401099,-468.75019602068 324.3454196695,-454.40785577331 317.87534314486,-441.75499992854 311.40496230348,-429.10207247977 302.23880500258,-419.52253945743 290.37684374358,-413.01637212289 278.51463316485,-406.51019066162 265.71795865849,-403.25710346267 251.98678183434,-403.25710076674 237.10516959361,-403.25710346267 223.80525507855,-406.85167495326 212.08699838934,-414.04082602215 200.36864896007,-421.2299609155 191.49005737841,-431.04314108469 185.45119700849,-443.4803959694 179.41229717013,-455.91757579939 176.39285711809,-469.0737074548 176.39286779395,-482.94883040418 z M 197.96031830476,-482.62531864652 C 197.96028606145,-463.57401307428 203.08255043546,-448.56667710116 213.32712679371,-437.60326570521 223.57160793164,-426.63979100876 236.42220101039,-421.15806948564 251.87894458179,-421.15808469072 267.62308154848,-421.15806948564 280.58151177196,-426.69370958115 290.75427412752,-437.76502158404 300.92678640848,-448.83626996299 306.01310506763,-464.54454737673 306.01324536392,-484.88990095016 306.01310506763,-497.75838794948 303.83838931586,-508.99142385749 299.4890915844,-518.5890423733 295.13952630872,-528.18643561709 288.77713477041,-535.62719860253 280.40189788233,-540.91135365198 272.02643162441,-546.19523878479 262.62662717659,-548.83724883032 252.20245633945,-548.83739171471 237.39273531285,-548.83724883032 224.64997937882,-543.75093017118 213.97415030904,-533.57842047831 203.29822472491,-523.40565553465 197.96028606145,-506.42130524175 197.96031830476,-482.62531864652 z" />
<path
 inkscape:connector-curvature="0"
 id="path5516"
 style="font-size:400px;font-style:normal;font-weight:normal;line-height:125%;letter-spacing:0px;word-spacing:0px;color:#000000;fill:none;stroke:#000000;stroke-width:1;stroke-linecap:butt;stroke-linejoin:miter;stroke-miterlimit:4;stroke-opacity:1;stroke-dasharray:none;stroke-dashoffset:0;marker:none;visibility:visible;display:inline;overflow:visible;enable-background:accumulate;font-family:Sans"
 d="M 458.17160871767,-564.04244432483 479.09203571316,-564.04244432483 479.09203571316,-472.70429141155 C 479.09189401502,-456.816218672 477.2946082697,-444.19927274015 473.70017308546,-434.85341576508 470.10546528858,-425.50750098924 463.61726374814,-417.90498228669 454.23554899945,-412.0458368499 444.85360056743,-406.18667922751 432.54219321224,-403.25710346267 417.30128999969,-403.25710076674 402.49157555119,-403.25710346267 390.37786962798,-405.80924922095 380.96013588898,-410.91354569808 371.54231501747,-416.01783225416 364.82046633012,-423.40467666727 360.79456966137,-433.07410109794 356.76862619127,-442.74347128646 354.75566615655,-455.95352151426 354.75568351834,-472.70429141155 L 354.75568351834,-564.04244432483 375.67611051383,-564.04244432483 375.67611051383,-472.8121286641 C 375.67607223163,-459.08079871108 376.95214511074,-448.96207996513 379.5043329795,-442.45594207014 382.05643662734,-435.94973116931 386.44181384581,-430.93530393997 392.66047779109,-427.41264533885 398.87903120319,-423.8899438185 406.48154990569,-422.1286037881 415.46805670627,-422.1286199637 430.8527446117,-422.1286037881 441.81618765792,-425.61533813396 448.35841873526,-432.58883346144 454.90042788353,-439.56227551731 458.17148793995,-452.97002717709 458.17160871767,-472.8121286641 z" />
<path
 inkscape:connector-curvature="0"
 id="path5518"
 style="font-size:400px;font-style:normal;font-weight:normal;line-height:125%;letter-spacing:0px;word-spacing:0px;color:#000000;fill:none;stroke:#000000;stroke-width:1;stroke-linecap:butt;stroke-linejoin:miter;stroke-miterlimit:4;stroke-opacity:1;stroke-dasharray:none;stroke-dashoffset:0;marker:none;visibility:visible;display:inline;overflow:visible;enable-background:accumulate;font-family:Sans"
 d="M 503.05074861218,-405.9530320806 503.05074861218,-428.05966885417 525.15738538576,-428.05966885417 525.15738538576,-405.9530320806 z" />
<rect
 style="color:#000000;fill:none;stroke:#000000;stroke-width:0.6536345482;stroke-linecap:butt;stroke-linejoin:miter;stroke-miterlimit:4;stroke-opacity:1;stroke-dasharray:none;stroke-dashoffset:0;marker:none;visibility:visible;display:inline;overflow:visible;enable-background:accumulate"
 id="rect5634"
 width="1229.7054443359"
 height="23.071607589722"
 x="24.826818466187"
 y="-372.81237792969" />
<path
 d="M 1100.8332606286,-1167.770491591 1100.8332606286,-1189.8771283646 1122.9398974021,-1189.8771283646 1122.9398974021,-1167.770491591 z"
 style="font-size:400px;font-style:normal;font-weight:normal;line-height:125%;letter-spacing:0px;word-spacing:0px;color:#000000;fill:none;stroke:#000000;stroke-width:1;stroke-linecap:butt;stroke-linejoin:miter;stroke-miterlimit:4;stroke-opacity:1;stroke-dasharray:none;stroke-dashoffset:0;marker:none;visibility:visible;display:inline;overflow:visible;enable-background:accumulate;font-family:Sans"
 id="path5640"
 inkscape:connector-curvature="0" />
</g>
<path
 id="path5251"
 d=""
 style="fill:none;stroke:#000000"
 inkscape:connector-curvature="0" />
<path
 id="path5267"
 d=""
 style="fill:none;stroke:#000000"
 inkscape:connector-curvature="0" />
<path
 id="path5279"
 d=""
 style="fill:none;stroke:#000000"
 inkscape:connector-curvature="0" />
<path
 id="path5289"
 d=""
 style="fill:none;stroke:#000000"
 inkscape:connector-curvature="0" />
<path
 id="path5297"
 d=""
 style="fill:none;stroke:#000000"
 inkscape:connector-curvature="0" />
<path
 id="path5317"
 d=""
 style="fill:none;stroke:#000000"
 inkscape:connector-curvature="0" />
<path
 id="path5325"
 d=""
 style="fill:none;stroke:#000000"
 inkscape:connector-curvature="0" />
<path
 id="path5345"
 d=""
 style="fill:none;stroke:#000000"
 inkscape:connector-curvature="0" />
<path
 id="path5353"
 d=""
 style="fill:none;stroke:#000000"
 inkscape:connector-curvature="0" />
<path
 id="path5361"
 d=""
 style="fill:none;stroke:#000000"
 inkscape:connector-curvature="0" />
<path
 id="path5373"
 d=""
 style="fill:none;stroke:#000000"
 inkscape:connector-curvature="0" />
<path
 inkscape:connector-curvature="0"
 style="fill:none;stroke:#000000"
 d=""
 id="path6133" />
<path
 inkscape:connector-curvature="0"
 style="fill:none;stroke:#000000"
 d=""
 id="path6141" />
<path
 inkscape:connector-curvature="0"
 style="fill:none;stroke:#000000"
 d=""
 id="path6149" />
<path
 inkscape:connector-curvature="0"
 style="fill:none;stroke:#000000"
 d=""
 id="path6155" />
<path
 inkscape:connector-curvature="0"
 style="fill:none;stroke:#000000"
 d=""
 id="path6163" />
<path
 inkscape:connector-curvature="0"
 style="fill:none;stroke:#000000"
 d=""
 id="path6169" />
<path
 inkscape:connector-curvature="0"
 style="fill:none;stroke:#000000"
 d=""
 id="path6185" />
<path
 inkscape:connector-curvature="0"
 style="fill:none;stroke:#000000"
 d=""
 id="path6197" />
<path
 inkscape:connector-curvature="0"
 style="fill:none;stroke:#000000"
 d=""
 id="path6203" />
<path
 inkscape:connector-curvature="0"
 style="fill:none;stroke:#000000"
 d=""
 id="path6211" />
<path
 inkscape:connector-curvature="0"
 style="fill:none;stroke:#000000"
 d=""
 id="path6227" />
<path
 inkscape:connector-curvature="0"
 style="fill:none;stroke:#000000"
 d=""
 id="path6233" />
<path
 inkscape:connector-curvature="0"
 style="fill:none;stroke:#000000"
 d=""
 id="path6243" />
<path
 inkscape:connector-curvature="0"
 style="fill:none;stroke:#000000"
 d=""
 id="path6253" />
<path
 inkscape:connector-curvature="0"
 style="fill:none;stroke:#000000"
 d=""
 id="path6263" />
<path
 inkscape:connector-curvature="0"
 style="fill:none;stroke:#000000"
 d=""
 id="path6279" />
<path
 inkscape:connector-curvature="0"
 style="fill:none;stroke:#000000"
 d=""
 id="path6297" />
<path
 inkscape:connector-curvature="0"
 style="fill:none;stroke:#000000"
 d=""
 id="path6305" />
<path
 inkscape:connector-curvature="0"
 style="fill:none;stroke:#000000"
 d=""
 id="path6313" />
<path
 inkscape:connector-curvature="0"
 style="fill:none;stroke:#000000"
 d=""
 id="path6319" />
<path
 inkscape:connector-curvature="0"
 style="fill:none;stroke:#000000"
 d=""
 id="path6331" />
<path
 inkscape:connector-curvature="0"
 style="fill:none;stroke:#000000"
 d=""
 id="path6345" />
<path
 inkscape:connector-curvature="0"
 style="fill:none;stroke:#000000"
 d=""
 id="path6355" />
<path
 inkscape:connector-curvature="0"
 style="fill:none;stroke:#000000"
 d=""
 id="path6361" />
<path
 inkscape:connector-curvature="0"
 style="fill:none;stroke:#000000"
 d=""
 id="path6377" />
<path
 inkscape:connector-curvature="0"
 style="fill:none;stroke:#000000"
 d=""
 id="path6387" />
<path
 inkscape:connector-curvature="0"
 style="fill:none;stroke:#000000"
 d=""
 id="path6403" />
<path
 inkscape:connector-curvature="0"
 style="fill:none;stroke:#000000"
 d=""
 id="path20420" />
<path
 inkscape:connector-curvature="0"
 style="fill:none;stroke:#000000"
 d=""
 id="path20430" />
<path
 inkscape:connector-curvature="0"
 style="fill:none;stroke:#000000"
 d=""
 id="path20452" />
<path
 inkscape:connector-curvature="0"
 style="fill:none;stroke:#000000"
 d=""
 id="path20460" />
<path
 id="path21091"
 d=""
 style="fill:none;stroke:#000000"
 inkscape:connector-curvature="0" />
<path
 id="path21099"
 d=""
 style="fill:none;stroke:#000000"
 inkscape:connector-curvature="0" />
<path
 id="path21113"
 d=""
 style="fill:none;stroke:#000000"
 inkscape:connector-curvature="0" />
<path
 id="path21119"
 d=""
 style="fill:none;stroke:#000000"
 inkscape:connector-curvature="0" />
<path
 id="path21123"
 d=""
 style="fill:none;stroke:#000000"
 inkscape:connector-curvature="0" />
<path
 id="path21139"
 d=""
 style="fill:none;stroke:#000000"
 inkscape:connector-curvature="0" />
<path
 id="path21151"
 d=""
 style="fill:none;stroke:#000000"
 inkscape:connector-curvature="0" />
<path
 id="path21159"
 d=""
 style="fill:none;stroke:#000000"
 inkscape:connector-curvature="0" />
<path
 id="path21169"
 d=""
 style="fill:none;stroke:#000000"
 inkscape:connector-curvature="0" />
<path
 id="path21177"
 d=""
 style="fill:none;stroke:#000000"
 inkscape:connector-curvature="0" />
<path
 id="path21185"
 d=""
 style="fill:none;stroke:#000000"
 inkscape:connector-curvature="0" />
<path
 id="path21193"
 d=""
 style="fill:none;stroke:#000000"
 inkscape:connector-curvature="0" />
<path
 id="path21205"
 d=""
 style="fill:none;stroke:#000000"
 inkscape:connector-curvature="0" />
<path
 id="path21213"
 d=""
 style="fill:none;stroke:#000000"
 inkscape:connector-curvature="0" />
<path
 id="path21227"
 d=""
 style="fill:none;stroke:#000000"
 inkscape:connector-curvature="0" />
<path
 id="path21235"
 d=""
 style="fill:none;stroke:#000000"
 inkscape:connector-curvature="0" />
<path
 id="path21251"
 d=""
 style="fill:none;stroke:#000000"
 inkscape:connector-curvature="0" />
<path
 id="path21257"
 d=""
 style="fill:none;stroke:#000000"
 inkscape:connector-curvature="0" />
<path
 id="path21265"
 d=""
 style="fill:none;stroke:#000000"
 inkscape:connector-curvature="0" />
<path
 id="path21277"
 d=""
 style="fill:none;stroke:#000000"
 inkscape:connector-curvature="0" />
<path
 id="path21285"
 d=""
 style="fill:none;stroke:#000000"
 inkscape:connector-curvature="0" />
<path
 id="path21295"
 d=""
 style="fill:none;stroke:#000000"
 inkscape:connector-curvature="0" />
<path
 id="path21303"
 d=""
 style="fill:none;stroke:#000000"
 inkscape:connector-curvature="0" />
<path
 id="path21317"
 d=""
 style="fill:none;stroke:#000000"
 inkscape:connector-curvature="0" />
<path
 id="path21339"
 d=""
 style="fill:none;stroke:#000000"
 inkscape:connector-curvature="0" />
<path
 id="path21345"
 d=""
 style="fill:none;stroke:#000000"
 inkscape:connector-curvature="0" />
<path
 id="path21349"
 d=""
 style="fill:none;stroke:#000000"
 inkscape:connector-curvature="0" />
<path
 id="path21359"
 d=""
 style="fill:none;stroke:#000000"
 inkscape:connector-curvature="0" />
<path
 id="path21371"
 d=""
 style="fill:none;stroke:#000000"
 inkscape:connector-curvature="0" />
<path
 id="path21381"
 d=""
 style="fill:none;stroke:#000000"
 inkscape:connector-curvature="0" />
<path
 id="path21391"
 d=""
 style="fill:none;stroke:#000000"
 inkscape:connector-curvature="0" />
<path
 id="path21411"
 d=""
 style="fill:none;stroke:#000000"
 inkscape:connector-curvature="0" />
<path
 id="path21419"
 d=""
 style="fill:none;stroke:#000000"
 inkscape:connector-curvature="0" />
<path
 id="path21437"
 d=""
 style="fill:none;stroke:#000000"
 inkscape:connector-curvature="0" />
<path
 id="path21445"
 d=""
 style="fill:none;stroke:#000000"
 inkscape:connector-curvature="0" />
<path
 id="path21457"
 d=""
 style="fill:none;stroke:#000000"
 inkscape:connector-curvature="0" />
<path
 id="path21465"
 d=""
 style="fill:none;stroke:#000000"
 inkscape:connector-curvature="0" />
<path
 id="path21485"
 d=""
 style="fill:none;stroke:#000000"
 inkscape:connector-curvature="0" />
<path
 id="path21493"
 d=""
 style="fill:none;stroke:#000000"
 inkscape:connector-curvature="0" />
<path
 id="path21509"
 d=""
 style="fill:none;stroke:#000000"
 inkscape:connector-curvature="0" />
<path
 id="path21515"
 d=""
 style="fill:none;stroke:#000000"
 inkscape:connector-curvature="0" />
<path
 id="path21523"
 d=""
 style="fill:none;stroke:#000000"
 inkscape:connector-curvature="0" />
<path
 id="path21533"
 d=""
 style="fill:none;stroke:#000000"
 inkscape:connector-curvature="0" />
<path
 id="path21539"
 d=""
 style="fill:none;stroke:#000000"
 inkscape:connector-curvature="0" />
<path
 id="path21543"
 d=""
 style="fill:none;stroke:#000000"
 inkscape:connector-curvature="0" />
<path
 id="path21563"
 d=""
 style="fill:none;stroke:#000000"
 inkscape:connector-curvature="0" />
<path
 id="path21579"
 d=""
 style="fill:none;stroke:#000000"
 inkscape:connector-curvature="0" />
<path
 id="path21605"
 d=""
 style="fill:none;stroke:#000000"
 inkscape:connector-curvature="0" />
<path
 id="path21615"
 d=""
 style="fill:none;stroke:#000000"
 inkscape:connector-curvature="0" />
<path
 id="path21623"
 d=""
 style="fill:none;stroke:#000000"
 inkscape:connector-curvature="0" />
<path
 id="path21635"
 d=""
 style="fill:none;stroke:#000000"
 inkscape:connector-curvature="0" />
<path
 id="path21643"
 d=""
 style="fill:none;stroke:#000000"
 inkscape:connector-curvature="0" />
<path
 id="path21651"
 d=""
 style="fill:none;stroke:#000000"
 inkscape:connector-curvature="0" />
<path
 id="path21665"
 d=""
 style="fill:none;stroke:#000000"
 inkscape:connector-curvature="0" />
<path
 id="path21679"
 d=""
 style="fill:none;stroke:#000000"
 inkscape:connector-curvature="0" />
<path
 id="path21691"
 d=""
 style="fill:none;stroke:#000000"
 inkscape:connector-curvature="0" />
<path
 id="path21699"
 d=""
 style="fill:none;stroke:#000000"
 inkscape:connector-curvature="0" />
<path
 id="path21711"
 d=""
 style="fill:none;stroke:#000000"
 inkscape:connector-curvature="0" />
<path
 id="path21717"
 d=""
 style="fill:none;stroke:#000000"
 inkscape:connector-curvature="0" />
<path
 id="path21725"
 d=""
 style="fill:none;stroke:#000000"
 inkscape:connector-curvature="0" />
<path
 id="path21741"
 d=""
 style="fill:none;stroke:#000000"
 inkscape:connector-curvature="0" />
<path
 id="path21753"
 d=""
 style="fill:none;stroke:#000000"
 inkscape:connector-curvature="0" />
<path
 id="path21769"
 d=""
 style="fill:none;stroke:#000000"
 inkscape:connector-curvature="0" />
<path
 id="path21783"
 d=""
 style="fill:none;stroke:#000000"
 inkscape:connector-curvature="0" />
<path
 id="path21799"
 d=""
 style="fill:none;stroke:#000000"
 inkscape:connector-curvature="0" />
<path
 id="path21815"
 d=""
 style="fill:none;stroke:#000000"
 inkscape:connector-curvature="0" />
<path
 id="path21823"
 d=""
 style="fill:none;stroke:#000000"
 inkscape:connector-curvature="0" />
<path
 id="path21833"
 d=""
 style="fill:none;stroke:#000000"
 inkscape:connector-curvature="0" />
<path
 id="path21843"
 d=""
 style="fill:none;stroke:#000000"
 inkscape:connector-curvature="0" />
<path
 id="path21857"
 d=""
 style="fill:none;stroke:#000000"
 inkscape:connector-curvature="0" />
<path
 id="path21871"
 d=""
 style="fill:none;stroke:#000000"
 inkscape:connector-curvature="0" />
<path
 id="path21877"
 d=""
 style="fill:none;stroke:#000000"
 inkscape:connector-curvature="0" />
<path
 id="path21885"
 d=""
 style="fill:none;stroke:#000000"
 inkscape:connector-curvature="0" />
<path
 id="path21897"
 d=""
 style="fill:none;stroke:#000000"
 inkscape:connector-curvature="0" />
<path
 id="path21907"
 d=""
 style="fill:none;stroke:#000000"
 inkscape:connector-curvature="0" />
<path
 id="path21915"
 d=""
 style="fill:none;stroke:#000000"
 inkscape:connector-curvature="0" />
<path
 id="path21923"
 d=""
 style="fill:none;stroke:#000000"
 inkscape:connector-curvature="0" />
<path
 id="path21939"
 d=""
 style="fill:none;stroke:#000000"
 inkscape:connector-curvature="0" />
<path
 id="path21947"
 d=""
 style="fill:none;stroke:#000000"
 inkscape:connector-curvature="0" />
<path
 id="path21957"
 d=""
 style="fill:none;stroke:#000000"
 inkscape:connector-curvature="0" />
<path
 id="path21967"
 d=""
 style="fill:none;stroke:#000000"
 inkscape:connector-curvature="0" />
<path
 id="path21975"
 d=""
 style="fill:none;stroke:#000000"
 inkscape:connector-curvature="0" />
<path
 id="path21985"
 d=""
 style="fill:none;stroke:#000000"
 inkscape:connector-curvature="0" />
<path
 id="path21995"
 d=""
 style="fill:none;stroke:#000000"
 inkscape:connector-curvature="0" />
<path
 id="path22007"
 d=""
 style="fill:none;stroke:#000000"
 inkscape:connector-curvature="0" />
<path
 id="path22023"
 d=""
 style="fill:none;stroke:#000000"
 inkscape:connector-curvature="0" />
<path
 id="path22033"
 d=""
 style="fill:none;stroke:#000000"
 inkscape:connector-curvature="0" />
<path
 id="path22051"
 d=""
 style="fill:none;stroke:#000000"
 inkscape:connector-curvature="0" />
<path
 id="path22061"
 d=""
 style="fill:none;stroke:#000000"
 inkscape:connector-curvature="0" />
<path
 id="path22077"
 d=""
 style="fill:none;stroke:#000000"
 inkscape:connector-curvature="0" />
<path
 id="path22091"
 d=""
 style="fill:none;stroke:#000000"
 inkscape:connector-curvature="0" />
<path
 id="path22097"
 d=""
 style="fill:none;stroke:#000000"
 inkscape:connector-curvature="0" />
<path
 id="path22105"
 d=""
 style="fill:none;stroke:#000000"
 inkscape:connector-curvature="0" />
<path
 id="path22123"
 d=""
 style="fill:none;stroke:#000000"
 inkscape:connector-curvature="0" />
<path
 id="path22141"
 d=""
 style="fill:none;stroke:#000000"
 inkscape:connector-curvature="0" />
<path
 id="path22149"
 d=""
 style="fill:none;stroke:#000000"
 inkscape:connector-curvature="0" />
<path
 id="path22155"
 d=""
 style="fill:none;stroke:#000000"
 inkscape:connector-curvature="0" />
<path
 id="path22163"
 d=""
 style="fill:none;stroke:#000000"
 inkscape:connector-curvature="0" />
<path
 id="path22177"
 d=""
 style="fill:none;stroke:#000000"
 inkscape:connector-curvature="0" />
<path
 id="path22183"
 d=""
 style="fill:none;stroke:#000000"
 inkscape:connector-curvature="0" />
<path
 id="path22199"
 d=""
 style="fill:none;stroke:#000000"
 inkscape:connector-curvature="0" />
<path
 id="path22209"
 d=""
 style="fill:none;stroke:#000000"
 inkscape:connector-curvature="0" />
<path
 id="path22213"
 d=""
 style="fill:none;stroke:#000000"
 inkscape:connector-curvature="0" />
<path
 id="path22221"
 d=""
 style="fill:none;stroke:#000000"
 inkscape:connector-curvature="0" />
<path
 id="path22231"
 d=""
 style="fill:none;stroke:#000000"
 inkscape:connector-curvature="0" />
<path
 id="path22237"
 d=""
 style="fill:none;stroke:#000000"
 inkscape:connector-curvature="0" />
<path
 id="path22251"
 d=""
 style="fill:none;stroke:#000000"
 inkscape:connector-curvature="0" />
<path
 id="path22261"
 d=""
 style="fill:none;stroke:#000000"
 inkscape:connector-curvature="0" />
<path
 id="path22269"
 d=""
 style="fill:none;stroke:#000000"
 inkscape:connector-curvature="0" />
<path
 id="path22279"
 d=""
 style="fill:none;stroke:#000000"
 inkscape:connector-curvature="0" />
<path
 id="path22303"
 d=""
 style="fill:none;stroke:#000000"
 inkscape:connector-curvature="0" />
<path
 id="path22313"
 d=""
 style="fill:none;stroke:#000000"
 inkscape:connector-curvature="0" />
<path
 id="path22333"
 d=""
 style="fill:none;stroke:#000000"
 inkscape:connector-curvature="0" />
<path
 id="path22341"
 d=""
 style="fill:none;stroke:#000000"
 inkscape:connector-curvature="0" />
<path
 id="path22351"
 d=""
 style="fill:none;stroke:#000000"
 inkscape:connector-curvature="0" />
<path
 id="path22367"
 d=""
 style="fill:none;stroke:#000000"
 inkscape:connector-curvature="0" />
<path
 id="path22377"
 d=""
 style="fill:none;stroke:#000000"
 inkscape:connector-curvature="0" />
<path
 id="path22389"
 d=""
 style="fill:none;stroke:#000000"
 inkscape:connector-curvature="0" />
<path
 id="path22397"
 d=""
 style="fill:none;stroke:#000000"
 inkscape:connector-curvature="0" />
<path
 id="path22407"
 d=""
 style="fill:none;stroke:#000000"
 inkscape:connector-curvature="0" />
<path
 id="path22415"
 d=""
 style="fill:none;stroke:#000000"
 inkscape:connector-curvature="0" />
</svg>
