<?xml version="1.0" encoding="UTF-8" standalone="no"?>
<!-- Created for Inkscape (http://www.inkscape.org/) -->

<svg
   xmlns:dc="http://purl.org/dc/elements/1.1/"
   xmlns:cc="http://creativecommons.org/ns#"
   xmlns:rdf="http://www.w3.org/1999/02/22-rdf-syntax-ns#"
   xmlns:svg="http://www.w3.org/2000/svg"
   xmlns="http://www.w3.org/2000/svg"
   xmlns:sodipodi="http://sodipodi.sourceforge.net/DTD/sodipodi-0.dtd"
   xmlns:inkscape="http://www.inkscape.org/namespaces/inkscape"
   width="3200"
   height="800"
   id="svg2985"
   version="1.1"
   inkscape:version="0.48.1 r9760">
  <defs
     id="defs2987" />
  <sodipodi:namedview
     id="base"
     pagecolor="#ffffff"
     bordercolor="#666666"
     borderopacity="1.0"
     inkscape:pageopacity="0.0"
     inkscape:pageshadow="2"
     inkscape:zoom="0.35"
     inkscape:cx="1600"
     inkscape:cy="400"
     inkscape:document-units="px"
     inkscape:current-layer="layer1"
     showgrid="false"  />
  <metadata
     id="metadata2990">
    <rdf:RDF>
      <cc:Work
         rdf:about="">
        <dc:format>image/svg+xml</dc:format>
        <dc:type
           rdf:resource="http://purl.org/dc/dcmitype/StillImage" />
        <dc:title />
      </cc:Work>
    </rdf:RDF>
  </metadata>
  <g
     inkscape:label="Layer 1"
     inkscape:groupmode="layer"
     id="layer1"> 
     <g>
<path style="fill:none;stroke:black;stroke-width:2px;stroke-linejoin:round;stroke-linecap:round;" d="M 
1595.1057 333.0525
1598.0703 335.565
1603.3545 335.1911
1601.7827 338.41107
1603.4475 342.34457
1608.9496 337.85443
1606.7815 333.04926
1603.5348 327.67664
1610.8997 329.9888
1613.5493 335.36987
1617.0396 332.30893
1615.6033 340.09033
1617.947 345.65808
1623.0879 351.04913
1625.3975 346.0318
1625.6147 339.89728
1633.9087 343.14154
1635.9026 338.56778
1640.0367 334.09796
1638.1271 330.81076
1643.3257 327.75113
1648.4747 328.35013
1653.2277 329.7204
1652.3624 333.80786
1649.163 333.97507
1645.5701 334.5683
1641.981 338.70483
1640.2078 345.3331
1646.4467 343.33456
1649.5034 348.26
1651.6843 338.63416
1656.8612 343.90625
1656.1936 339.72745
1655.8057 333.8377
1659.7343 336.06018
1662.3494 340.021
1666.1263 343.84625
1661.3792 346.45837
1666.8223 351.8156
1671.8223 348.39203
1672.2897 343.1566
1676.6243 340.0681
1681.4697 341.5844
1680.6818 335.6043
1675.9526 332.27698
1673.9673 328.02264
1672.2408 336.95386
1666.581 336.39017
1669.1475 330.36765
1669.1337 321.7856
1664.63 324.08304
1663.8887 329.80057
1659.3212 327.8291
1654.1941 324.39282
1659.6808 323.3861
1657.3147 320.4435
1657.5719 316.55414
1663.2954 318.40594
1668.5728 314.94543
1662.4937 310.16537
1659.6708 313.7577
1652.6272 318.86646
1647.6171 318.25336
1641.9827 315.09924
1641.0985 324.09644
1636.9465 324.6595
1633.831 327.87653
1634.1029 332.48877
1630.334 333.43335
1626.8354 335.46774
1623.2954 333.08124
1622.1257 326.90588
1619.937 320.00696
1611.2169 320.8303
1610.4368 313.17523
1602.3965 314.19238
1593.4442 307.55518
1599.2781 304.383
1602.6887 307.7502
1606.1504 310.66782
1613.6993 304.35364
1617.705 310.51404
1623.3147 308.73486
1628.5645 310.72925
1632.6665 317.83203
1628.4342 325.06113
1639.7062 320.7382
1643.9673 310.32385
1637.543 309.59317
1634.7395 303.932
1629.3256 298.9711
1627.4241 303.36066
1621.01 303.4463
1619.5759 299.62128
1620.0764 294.90723
1625.0171 296.5035
1631.2468 292.891
1636.6631 294.477
1637.667 298.7705
1643.6118 301.2635
1648.1265 305.6856
1649.0653 312.3515
1653.9962 311.72125
1656.0874 305.4866
1657.6344 300.20566
1662.3547 296.62146
1658.1616 294.21564
1656.8054 287.2979
1663.0684 287.44946
1668.5903 285.52646
1669.5863 281.53275
1665.6785 282.26544
1656.6387 290.71454
1651.2769 294.58545
1644.7192 291.66327
1647.8308 285.93756
1654.6863 283.20166
1649.2017 279.86435
1641.1248 281.56372
1636.386 287.93805
1633.0887 280.49646
1628.7095 288.10577
1628.2256 283.57904
1625.0706 278.33243
1615.1672 270.40384
1624.9487 260.7268
1628.7135 266.26288
1624.0859 272.62738
1616.6829 261.2817
1612.2949 248.11302
1619.408 250.4069
1626.1852 247.59354
1626.9932 253.1486
1632.4583 254.85022
1635.2291 259.83185
1638.5514 254.89203
1635.7578 250.46165
1632.1826 247.69739
1629.3641 243.10814
1629.0248 238.29071
1621.9323 237.19438
1622.9597 241.93027
1620.7153 245.37419
1615.7142 241.47197
1611.1901 236.39307
1605.86 233.52673
1603.7737 227.73926
1597.5723 223.9657
1591.7639 219.46391
1602.165 216.7992
1604.3356 210.34032
1608.2512 207.83737
1611.4526 211.66864
1602.3472 202.71481
1594.42 198.0492
1592.073 191.12987
1589.0946 198.97794
1584.7058 194.52544
1583.6733 190.3244
1576.6785 191.0404
1581.0931 185.83313
1574.3169 182.66588
1579.7915 180.77765
1584.5583 180.38707
1587.0186 186.30199
1592.2756 185.67961
1601.0156 195.11487
1615.1178 200.93999
1615.9912 214.61064
1607.74 219.45508
1613.6543 223.80048
1617.2401 230.94975
1626.259 231.49466
1633.6675 232.48776
1635.4115 240.42229
1640.6118 241.79794
1638.5918 246.13345
1641.9836 250.16116
1644.7516 256.38318
1646.1597 273.9618
1637.7898 273.85278
1633.2775 269.90942
1641.8408 264.4921
1649.8108 263.33374
1651.1411 271.4147
1655.9607 267.645
1657.5857 271.5719
1657.5352 277.42474
1661.5157 281.81906
1669.0277 275.70734
1663.5161 277.26886
1663.8009 272.18585
1660.7493 265.47076
1664.7157 262.42584
1656.2141 263.74786
1656.8679 258.7387
1659.19 253.74484
1663.3137 245.89792
1663.9753 253.34795
1668.4609 255.61034
1675.242 256.81366
1671.8376 263.45895
1668.7172 268.79166
1676.5167 273.64468
1674.796 278.3432
1674.0244 282.58804
1680.8262 282.78467
1685.5759 279.3199
1687.2922 284.0962
1685.009 288.0255
1687.6095 291.536
1691.3759 295.3739
1687.7627 299.11926
1684.6539 302.51306
1682.2544 297.86438
1681.2671 291.76422
1676.1372 288.20874
1670.0331 288.8169
1667.6936 292.20316
1664.4968 293.4812
1667.1624 303.89465
1668.6952 298.68402
1671.439 296.0624
1673.3217 292.77426
1676.5176 296.599
1675.565 301.46643
1678.5884 304.22964
1681.4375 303.96307
1687.1475 305.49728
1691.192 307.79987
1692.3003 303.52603
1695.0205 300.8172
1699.7173 299.8823
1705.6206 305.55463
1709.4788 304.72275
1710.6814 301.82993
1708.5103 299.04163
1704.4177 296.4266
1707.3535 293.69733
1709.7225 291.83014
1703.7593 286.95145
1698.55 292.1995
1692.7454 289.03833
1695.0116 284.48932
1690.7502 279.7616
1685.5378 275.24234
1684.3547 271.5193
1681.2468 269.369
1677.7917 266.41794
1680.8958 260.61142
1680.675 251.61992
1670.6248 248.0145
1676.6005 241.76231
1665.2201 236.06822
1656.1339 241.47954
1657.0214 247.67424
1651.5148 252.69849
1647.1753 247.46109
1646.6364 243.2453
1649.8447 239.89038
1653.7836 235.03836
1648.7045 233.32628
1644.8165 233.82574
1646.3962 237.0339
1643.839 239.4646
1640.4065 235.27715
1643.7886 229.2647
1637.4314 226.64285
1630.6051 222.91338
1622.9453 224.03056
1623.051 216.62206
1645.5511 204.1138
1674.315 191.99454
1647.585 160.65945
1693.4663 154.13301
1725.6372 137.48718
1754.732 154.55464
1804.7023 155.74878
1805.303 105.1938
1788.4818 67.24774
1740.8868 33.60833
1712.6752 91.169304
1665.9066 113.348076
1614.7394 116.061325
1646.1875 45.705715
1575.9924 66.12856
1518.4479 27.55405
1459.9105 59.60905
1421.2535 95.487885
1379.7465 94.964096
1404.1451 160.47899
1410.6047 151.66405
1417.4727 154.228
1422.5431 156.63092
1424.4768 148.61708
1436.377 149.80698
1445.7703 151.13998
1429.0472 161.95377
1434.8817 167.96501
1449.861 179.01244
1451.8389 170.32045
1451.0486 156.90964
1460.705 154.86552
1464.5923 158.4098
1466.4968 154.82042
1474.2432 157.88632
1470.1814 154.19958
1469.271 141.47137
1477.7983 148.35419
1480.7251 154.58258
1479.8784 162.58777
1480.3586 175.41
1480.6759 168.73824
1486.6902 159.10916
1488.5063 146.73422
1498.8007 151.10837
1504.8823 143.49391
1508.7825 149.32104
1493.0146 109.29329
1522.2347 82.477585
1526.904 125.184044
1561.1211 118.04343
1601.0461 166.21404
1579.0337 154.21909
1576.8389 174.09758
1570.5222 173.9137
1563.987 170.47556
1565.2163 184.18144
1569.4666 189.61432
1568.5793 197.01056
1561.0245 191.21677
1553.9781 187.93594
1554.8528 179.68115
1564.5703 178.95953
1556.3823 167.1848
1555.7228 159.89992
1557.0565 174.87279
1548.3381 172.70813
1546.4392 179.60606
1549.843 182.5903
1544.1642 186.66266
1545.7336 193.72018
1550.8441 198.15161
1558.0056 198.48889
1563.9155 203.87726
1554.2275 205.53265
1555.7227 213.31804
1559.7728 210.86649
1564.7124 209.21677
1564.5143 216.92847
1559.3303 219.0055
1553.8818 228.61267
1554.1633 222.82309
1549.8972 217.00041
1550.2559 210.39658
1546.6432 204.24414
1542.2108 201.84445
1541.4033 212.17719
1537.5718 204.54404
1538.4521 197.02507
1536.353 191.73972
1530.5248 187.51678
1536.4867 183.39049
1541.4521 179.14542
1536.9363 176.49951
1537.0433 169.81842
1541.6768 164.09575
1547.1339 164.75624
1546.9584 156.80525
1541.8677 152.79327
1539.0253 158.05347
1537.8158 162.21028
1534.1748 161.32484
1532.0133 155.21317
1535.4395 152.50897
1532.5222 147.84967
1525.0536 147.69437
1518.4905 147.7713
1516.6265 157.19345
1519.3221 161.91005
1507.0134 156.425
1514.5542 151.94267
1512.5732 164.915
1511.7915 177.32239
1516.9031 173.85759
1524.4763 164.64603
1523.6299 158.60497
1523.1105 153.75542
1528.2217 155.24493
1534.0392 157.93684
1529.6238 160.95078
1535.9944 165.30971
1530.5339 166.80582
1529.4766 176.9512
1524.4661 181.33432
1516.0457 183.05258
1515.688 191.71332
1520.0293 193.41531
1520.73 201.2117
1525.5331 202.60971
1527.6187 208.26038
1521.4385 210.14716
1516.2997 211.32909
1509.9796 210.57507
1508.3137 215.72354
1502.9507 210.8172
1504.9578 207.41922
1511.715 205.30048
1515.9028 201.11516
1509.6382 198.58415
1511.5916 190.42424
1507.2523 186.87924
1505.8403 179.531
1499.4584 176.01897
1505.8508 169.69577
1497.2465 160.7992
1492.3308 155.1373
1492.8958 167.4549
1500.1289 170.0098
1495.3752 171.92828
1487.9071 171.08875
1491.0927 176.26376
1491.0687 180.59369
1490.2797 185.63475
1487.0779 185.67924
1484.1797 182.01721
1479.9172 182.4419
1474.1423 181.73611
1476.1829 185.17587
1479.425 188.60265
1474.8624 191.58281
1478.4281 195.03105
1477.8015 200.1098
1480.3342 203.30527
1482.2124 207.74725
1484.6193 212.99591
1485.3849 219.00603
1491.6836 213.11015
1489.521 209.15685
1489.1757 205.50314
1489.0735 200.06712
1485.0713 201.8186
1483.4176 196.09013
1483.9609 190.27249
1488.3302 193.48552
1492.5374 191.62517
1496.3114 189.68689
1493.5414 186.34329
1498.0068 182.4184
1501.1538 187.21007
1497.9613 194.65251
1501.2235 192.98877
1505.7324 193.76791
1503.7323 202.06851
1500.3159 198.60551
1493.5461 196.2813
1495.0076 201.17184
1496.3604 206.29039
1498.095 210.73395
1500.4473 214.97495
1492.6914 218.5797
1498.1836 219.9342
1497.9551 226.08044
1490.3157 227.17456
1485.7318 232.92776
1482.2229 229.82251
1486.5403 224.14969
1480.0664 225.46404
1477.8318 234.15654
1481.7485 238.33893
1485.3672 241.7882
1488.7607 239.43127
1491.4104 237.17015
1492.178 233.00272
1496.4534 231.35912
1499.3722 235.98839
1505.8728 234.61923
1512.4119 236.8877
1516.8419 234.86345
1521.2327 232.01031
1515.1147 226.19572
1508.2365 227.37364
1504.4071 220.28836
1515.887 218.09837
1523.054 223.34964
1527.9391 228.82523
1532.4502 233.11852
1533.8601 227.89462
1540.5142 230.46751
1539.1031 221.89305
1532.1653 220.71921
1532.4421 214.88922
1545.4692 223.12595
1548.1448 230.4216
1537.7407 236.14835
1542.5157 238.17015
1549.0342 239.07639
1554.6443 234.32217
1558.3074 238.42444
1563.3774 232.85455
1559.803 228.17651
1566.2528 228.32083
1565.6047 223.8114
1569.4526 219.01329
1568.7173 211.10294
1573.5487 203.91714
1576.3722 197.103
1581.5469 199.4578
1584.4509 204.23035
1590.1772 208.03433
1594.7227 213.27184
1598.3296 208.28479
1585.2585 215.89127
1582.479 210.48302
1577.5627 209.37863
1574.3514 214.17381
1577.139 219.47137
1584.2065 221.65416
1580.1765 226.42809
1582.4211 233.67693
1589.1173 228.42581
1591.2765 236.73499
1598.0314 233.29175
1602.5845 238.66705
1605.3243 244.6012
1597.0654 242.9255
1590.5873 247.17245
1585.7926 256.66888
1586.7466 262.0785
1589.5739 267.3368
1592.8453 261.5028
1590.9845 254.06248
1595.895 254.28485
1599.5226 257.432
1605.3198 253.68372
1609.4106 259.49707
1605.4719 263.1408
1606.9363 274.50262
1614.6642 278.2226
1619.3279 288.8388
1625.4048 292.50128
1623.41 289.42963
1621.5071 283.45685
1613.1616 283.57254
1610.2708 289.30286
1609.1123 293.8576
1615.1215 289.24817
1615.528 293.6115
1614.1948 297.75342
1607.7205 303.27634
1603.5209 299.7126
1599.1624 298.16495
1595.8347 301.05927
1595.9285 293.9336
1590.5464 288.2402
1596.842 284.3972
1600.8054 286.38452
1603.6577 290.34497
1607.0754 285.09998
1603.145 280.43652
1598.128 278.19302
1592.5781 280.1893
1597.3381 274.64764
1600.9181 272.94052
1600.3518 267.17444
1593.7709 273.06302
1588.3566 274.06232
1583.3899 269.74957
1581.3086 263.86142
1580.8977 258.6165
1576.739 258.74927
1573.042 255.57773
1574.4783 263.74136
1569.6588 265.03766
1569.7983 260.58844
1563.8071 262.72592
1567.1626 257.35498
1565.4082 254.02177
1568.408 250.74004
1572.6458 247.56082
1577.0481 250.81372
1582.795 251.93729
1579.3577 246.00183
1584.6736 243.02008
1577.4033 240.62334
1574.0822 236.1643
1573.7871 231.7981
1573.2437 227.8638
1573.3608 223.4215
1568.8531 231.97388
1567.3395 235.64018
1563.6001 239.1351
1569.8003 240.26299
1568.4458 244.39929
1564.9706 245.75845
1561.5999 247.0087
1560.3501 252.5329
1555.7411 255.02133
1557.115 261.87363
1548.51 264.55615
1550.8325 269.89752
1543.541 273.6323
1537.094 278.87616
1536.7281 271.00092
1531.2177 269.79865
1525.3508 270.15515
1531.3911 262.57013
1524.6335 260.6696
1521.3837 254.30249
1523.4198 248.10014
1525.6592 245.67503
1529.0676 245.44162
1531.2599 249.81543
1531.3236 254.38536
1536.3523 255.76927
1538.4763 259.71918
1540.6052 265.17004
1544.3839 259.66412
1548.9999 258.3286
1548.6276 253.41765
1549.7676 246.85112
1556.0896 245.26633
1541.3816 251.04578
1540.9647 244.71715
1534.0449 244.39679
1531.0616 237.68094
1534.8816 239.3425
1526.6606 236.38858
1525.4507 241.0647
1519.5759 239.80638
1518.6017 247.0894
1513.0728 245.9376
1506.3025 242.67621
1502.1941 250.69632
1508.4838 252.44463
1513.424 256.041
1514.5824 262.51364
1519.9536 265.51382
1518.4918 271.1861
1520.1216 277.424
1528.421 277.58472
1532.9036 283.84348
1531.7865 289.00555
1530.1213 303.83716
1537.6829 300.19882
1534.2877 294.11264
1542.2866 289.27618
1543.8762 296.53583
1548.019 304.48602
1555.4976 309.32153
1550.4778 314.6902
1547.3162 319.96582
1544.6122 311.92664
1538.44 307.5741
1537.0032 317.5325
1527.6948 313.37323
1526.0435 322.96027
1519.4374 329.11786
1517.3918 339.36957
1526.4049 336.7086
1528.1582 342.14417
1533.46 330.02466
1540.0698 330.75446
1546.9508 328.34332
1550.4795 323.49115
1555.5962 327.1189
1563.2072 326.75494
1568.7844 338.21326
1572.3629 333.17065
1568.9917 328.88687
1566.0276 319.45636
1557.7584 318.47314
1562.1102 312.53787
1558.361 302.4903
1553.8735 298.4934
1544.1609 282.76373
1550.8044 281.25153
1554.3745 276.2029
1558.9585 269.71686
1566.9862 269.45316
1572.3751 269.94922
1577.7086 269.3202
1579.351 276.21143
1584.4237 279.46793
1580.8337 284.36835
1574.1682 274.70978
1573.7982 280.90558
1567.5502 284.30765
1569.5999 278.01
1566.7449 275.71356
1562.5792 274.2364
1561.7722 280.78732
1557.7225 286.9757
1551.2969 290.75793
1563.2935 290.88806
1567.3479 296.19427
1562.5576 299.5896
1563.8872 306.42126
1567.7526 302.38965
1571.1968 301.52252
1575.0767 302.63843
1575.83 307.36737
1570.3845 308.37033
1566.9465 311.26584
1570.6727 315.0512
1575.192 313.09167
1577.113 316.00214
1584.0162 317.1853
1589.4111 315.2655
1592.1565 300.3327
1587.1957 302.31625
1588.7822 295.6427
1585.9629 290.47638
1581.4116 291.42413
1577.763 289.16202
1575.6702 285.5277
1571.558 287.22363
1571.2762 291.91177
1573.8357 297.72684
1576.4435 294.47366
1580.7285 297.07162
1582.3735 301.13022
1581.2217 305.1548
1584.064 309.89438
1579.3505 318.43414
1575.0349 327.01212
1573.2944 321.6717
1580.5212 323.51672
1587.216 322.14374
1595.4677 317.3136
1598.4624 322.13623
1594.4736 326.2257
1586.439 327.2971
1580.2229 329.5287
1578.4004 335.84912
1583.6786 338.97858
1591.1462 335.07114
1587.5444 331.8977
1589.0118 341.0691
1592.2941 345.22028
1595.8727 340.79108
1596.3304 345.60886
1599.1545 348.29706
1602.9717 350.0383
1606.5348 347.8983
1609.6653 344.9325
1612.7632 350.2358
1614.734 354.17307
1616.676 356.50616
1618.1545 359.7092
1612.9025 360.5437
1608.2982 357.58383
1606.7219 353.0085
1602.304 356.47882
1592.4388 350.82935
1596.5348 354.93063
1600.0183 360.15704
1607.105 362.89252
1607.1389 368.45944
1607.8564 374.38965
1606.3164 381.3947
1608.4991 385.51437
1601.6777 380.04974
1601.8611 386.2352
1605.339 389.71594
1609.5518 392.58957
1613.0643 390.66724
1618.0209 392.09714
1624.392 387.48044
1619.509 385.93195
1615.4895 386.77866
1614.648 379.9138
1616.3784 373.6941
1620.121 369.17456
1613.9663 367.03296
1623.2673 363.05188
1630.1145 364.14563
1635.7646 365.8093
1632.5549 372.4159
1627.8549 378.0219
1623.0911 379.78427
1626.0433 370.73373
1631.0277 355.18597
1632.4084 350.17432
1643.8264 349.75656
1640.8163 353.31198
1648.8496 355.37646
1654.8296 351.29156
1654.6354 356.6413
1659.784 357.32602
1665.0139 361.35034
1672.0687 358.29855
1676.8264 364.15915
1678.1125 359.0168
1681.9907 362.09894
1681.6436 356.71652
1679.1417 353.84344
1674.785 352.76282
1669.8821 367.49078
1681.658 371.5262
1685.8533 379.7658
1683.2067 390.49158
1683.9131 385.15436
1676.635 382.08948
1673.5403 375.46164
1665.303 377.22656
1662.0935 380.30518
1659.3247 385.19162
1654.3635 390.39032
1651.0167 386.79584
1644.1373 383.84607
1641.1455 378.4083
1641.4204 373.466
1636.5 373.09717
1639.5044 368.14667
1637.2627 357.58798
1642.9989 360.11578
1645.4753 364.23602
1645.5184 369.49548
1650.675 365.2297
1656.2043 363.31274
1657.9583 370.58875
1653.7142 376.9685
1647.7592 375.11682
1647.7762 380.83908
1646.4233 387.92795
1638.9601 388.05432
1633.3931 389.1987
1631.4012 383.73276
1627.9409 392.02924
1630.6753 397.66513
1622.5446 394.00317
1624.2778 399.71103
1615.7798 398.71912
1614.8865 407.56757
1608.1719 410.43042
1602.422 404.63583
1607.5575 399.10263
1600.6997 396.97894
1599.3759 391.68774
1597.3186 386.77216
1593.1183 385.9697
1588.4233 386.77618
1584.2051 391.7735
1593.185 392.6087
1589.6064 398.64075
1590.0004 404.65662
1582.5737 406.11154
1576.8816 408.60422
1571.0312 408.53732
1569.7141 400.2916
1576.7583 396.27612
1578.5758 385.56006
1582.3234 380.5515
1578.853 372.4458
1585.0223 371.08575
1590.1427 376.09857
1595.3018 380.31378
1597.4941 374.79486
1600.1481 369.59677
1596.8148 365.44836
1592.1157 369.5875
1591.6327 364.08093
1591.654 359.84665
1583.8718 360.42175
1577.1077 361.29266
1571.4979 370.04648
1570.5372 364.67004
1561.9386 367.53378
1555.248 370.80634
1548.8845 371.01144
1543.8329 375.22656
1544.3416 381.8593
1544.2654 389.62534
1539.7965 392.36444
1543.428 398.4536
1541.4397 407.28754
1538.2468 412.55124
1546.1389 406.23456
1550.2704 406.81317
1556.6631 407.42664
1559.6865 402.14166
1562.0546 395.7026
1565.1221 406.43628
1553.2245 398.42172
1548.1113 395.14
1550.5527 391.2127
1557.3623 389.5881
1549.7393 385.94504
1555.5028 377.8442
1553.9695 383.8585
1560.1306 382.973
1564.3021 387.2505
1571.2661 386.46295
1573.7743 378.63562
1568.1713 381.13312
1564.75 380.89645
1566.1392 374.89145
1561.3284 376.93243
1561.11 372.7461
1560.3196 361.87192
1563.9354 356.11523
1567.1372 361.4023
1572.3293 353.26364
1578.9658 351.6046
1585.322 351.06674
1588.1564 355.70786
1591.5533 354.90805
1585.8774 346.16968
1574.2356 344.91772
1565.4019 344.34973
1566.0449 350.40546
1559.0903 347.67932
1558.803 336.82855
1551.839 334.68976
1544.6091 336.4148
1538.3535 340.7079
1540.5907 348.25385
1543.175 355.405
1547.4341 359.11456
1553.0823 361.5179
1558.3 358.22226
1557.2262 354.01367
1552.123 353.94745
1548.3867 349.48486
1552.4349 344.54672
1545.6777 342.7729
1534.948 345.62778
1531.8556 348.08698
1533.8713 351.5057
1536.6399 355.33813
1530.0656 357.5149
1532.0242 364.71295
1537.997 360.97076
1543.9055 363.18515
1540.6069 367.66513
1535.9496 370.638
1537.7345 379.40796
1535.1105 385.6695
1528.8748 391.0373
1535.0933 395.08627
1532.7568 399.94757
1533.3585 407.6529
1526.6921 400.52502
1518.3693 397.19623
1515.031 402.42163
1521.227 402.76117
1518.261 407.86768
1525.105 408.3481
1526.0657 416.65952
1531.556 419.46716
1526.2192 430.27917
1518.8892 425.05014
1520.2069 418.46918
1512.9567 423.09705
1512.6294 416.92685
1516.2839 412.35577
1512.3014 412.88913
1509.1976 409.2008
1513.0667 406.92963
1507.7546 402.9992
1504.4316 412.67462
1502.4614 407.97565
1505.5974 418.11017
1500.0898 421.56573
1498.7275 424.93408
1491.7373 427.6103
1488.0481 430.36035
1484.1318 426.86908
1478.7039 424.87012
1479.7448 419.3275
1479.784 412.50546
1484.342 414.31854
1487.783 417.3172
1488.009 423.49908
1494.6218 424.5725
1494.0902 419.64252
1496.9612 415.0807
1493.714 412.19235
1495.4219 408.3972
1497.4124 405.79074
1497.4797 401.7666
1491.621 403.4986
1489.6201 407.58527
1485.9122 406.69064
1482.6235 408.01013
1478.2305 408.32104
1475.8707 404.94785
1470.2751 399.05978
1464.1392 398.0088
1454.688 401.13776
1459.3402 408.502
1461.0709 403.3741
1466.8746 404.21005
1466.072 408.71002
1464.4834 413.00342
1459.1774 414.35895
1462.9167 419.44244
1458.5837 424.4304
1463.5028 428.38925
1468.583 432.97473
1465.8939 437.04602
1460.9233 437.06628
1463.3708 440.87244
1465.2809 443.94626
1467.2042 441.1036
1468.4113 446.52472
1473.2101 446.57272
1476.7256 449.162
1475.5364 453.43552
1483.2416 461.70834
1485.6055 457.8509
1481.3531 455.50555
1481.4819 451.58594
1481.3584 448.22943
1485.04 445.40668
1488.397 448.73642
1492.8739 448.44904
1493.6836 445.3166
1498.4856 444.51373
1502.0571 448.49475
1501.74 438.15277
1505.0194 442.2135
1508.4739 450.52365
1499.3752 451.6925
1494.6039 453.97043
1488.8944 453.79083
1491.051 458.6518
1488.5247 462.50836
1492.6165 464.75574
1496.6094 464.78156
1498.2056 460.59628
1500.4207 456.1423
1505.8784 455.52524
1504.5343 463.53452
1510.1016 463.07672
1511.5105 454.58368
1514.5391 459.29846
1516.1859 463.32745
1519.5952 463.75848
1522.6721 463.61444
1516.7551 455.29404
1516.0125 450.36606
1509.1819 445.27728
1515.892 443.51645
1523.2825 446.56345
1521.9509 452.84863
1528.3345 454.5918
1532.2969 448.4688
1540.8259 444.39594
1535.5181 443.43927
1533.0276 436.4742
1528.9716 442.19916
1523.9204 436.62604
1517.6389 433.6163
1510.2786 437.12497
1510.3489 429.6698
1508.8989 422.48154
1504.7976 424.64862
1500.7244 427.70197
1502.3582 433.07312
1496.7117 429.03235
1496.0281 433.17438
1495.371 440.0676
1489.4866 440.4807
1491.4198 436.89825
1492.3613 433.62732
1487.0497 435.04147
1482.8562 434.07874
1485.116 439.89304
1481.1174 440.23862
1477.7913 443.9205
1471.1335 439.78778
1475.9738 438.67072
1475.9114 433.90784
1479.6011 430.547
1474.1348 428.5265
1470.2845 424.21405
1472.1245 415.68427
1471.5862 408.9055
1471.7993 403.62115
1475.8062 398.7022
1480.4102 398.40817
1483.8025 401.97675
1486.9596 397.88486
1487.9763 393.36975
1484.1956 390.6225
1477.874 391.13934
1475.0688 385.95312
1472.206 387.8408
1470.4114 390.15085
1467.1101 392.35602
1461.2219 393.15015
1457.6422 389.36264
1454.3125 393.80267
1450.8378 388.87866
1447.4146 394.29108
1441.9141 389.35052
1434.1401 390.58942
1432.6528 386.19543
1426.3562 393.94992
1430.885 395.53607
1433.7882 399.2652
1438.3717 402.69476
1435.255 403.9659
1441.7947 408.84106
1441.3591 398.75647
1446.7894 403.01184
1450.9602 405.98016
1450.1166 410.89227
1453.581 414.20053
1454.4523 419.59418
1447.1582 418.00937
1441.9971 423.5377
1445.2272 430.75977
1455.3658 429.43097
1453.1395 434.88275
1447.906 441.0932
1441.5378 444.35654
1437.5122 448.72852
1442.0244 452.87973
1437.6458 458.46933
1452.8702 460.3438
1446.564 465.82172
1452.262 467.77533
1456.2048 463.5055
1457.7865 456.71222
1459.4172 462.45764
1463.2443 466.3446
1460.0814 468.2752
1464.8281 471.13452
1460.1465 474.26376
1454.7549 476.8386
1454.0706 484.5592
1455.5956 491.27588
1459.531 492.53497
1463.8049 493.95947
1464.0105 485.86838
1470.1161 483.04333
1478.3745 475.9199
1478.7947 481.1211
1481.6367 484.80164
1476.6704 486.6643
1469.1313 494.0946
1475.399 491.63644
1484.2153 481.55823
1486.7642 485.13986
1489.3654 488.76035
1494.2976 487.4758
1501.1106 487.02036
1502.7958 490.91452
1506.02 488.85812
1509.5367 488.01892
1513.2754 485.67172
1511.0625 481.2026
1518.4452 484.23398
1520.0199 480.26306
1520.5581 475.62817
1526.5793 479.06927
1525.9991 485.21127
1522.2373 490.40073
1515.9133 490.0981
1511.0887 493.0765
1518.354 497.1013
1524.6796 499.94626
1530.9988 502.84534
1537.1229 504.82758
1534.2708 512.22766
1534.7623 519.45575
1540.6349 518.3767
1545.5767 514.54565
1545.0996 506.603
1544.8741 500.1367
1538.6586 498.2568
1540.844 493.54187
1534.3259 493.36725
1529.6102 491.07468
1532.4315 486.51718
1534.7307 483.96466
1538.6665 484.34094
1540.1962 487.5689
1544.2397 488.45197
1547.9225 489.48828
1551.1505 485.45337
1546.0376 481.25153
1541.2545 479.8612
1536.7634 480.4173
1531.8029 480.65643
1535.842 476.67383
1539.0984 475.08636
1542.2423 472.0754
1541.6757 465.94003
1554.1531 464.2297
1550.738 462.25595
1548.1311 459.327
1546.8702 464.11694
1549.2803 468.9874
1556.1399 481.57602
1551.6105 475.31012
1556.794 469.44797
1560.2236 472.63705
1560.0055 476.30914
1562.8037 478.31305
1564.8398 480.87766
1566.3217 483.86298
1566.9648 488.27316
1561.1395 487.26547
1555.9121 489.3736
1552.786 495.7607
1552.7795 503.24423
1555.2794 509.67285
1555.4902 515.05145
1560.6079 515.1472
1565.0098 514.8343
1561.0535 505.81406
1569.9146 510.75412
1572.8762 505.1895
1575.3533 500.1418
1569.7302 498.14368
1566.2847 504.34753
1562.565 499.19666
1558.7454 495.78854
1566.0444 492.81537
1571.8591 493.32404
1573.3142 488.89362
1571.0422 485.53064
1572.2456 482.4923
1575.1262 480.63947
1578.3124 478.94296
1579.5865 474.71445
1570.4114 475.15817
1568.2325 467.53052
1558.9164 464.58798
1562.7177 462.30573
1567.9182 460.53598
1572.2251 461.83344
1572.8163 465.65594
1575.6222 471.43317
1584.641 472.73642
1583.7537 479.9237
1589.9598 479.39624
1593.3607 474.58984
1594.6586 467.32794
1589.5658 469.08978
1587.8325 463.95358
1583.3113 458.19012
1582.4851 463.43796
1584.4159 467.46832
1580.2117 468.06567
1576.2611 467.18317
1577.1326 462.2738
1575.9902 456.09152
1579.3518 448.56
1584.2853 444.06732
1589.3392 452.01205
1591.8788 459.71127
1598.9525 455.72784
1601.0675 463.0252
1600.0256 473.3092
1613.0659 477.1336
1608.1222 472.42163
1610.8323 467.25006
1607.5023 462.33087
1603.2385 450.8186
1597.5173 446.88168
1593.0107 448.4128
1592.2258 440.88373
1599.0674 431.00262
1604.4863 429.02036
1605.4171 433.75415
1601.9272 436.80542
1598.5955 440.14682
1602.6611 441.73254
1606.0541 440.41687
1611.4574 445.2442
1606.309 445.33502
1611.6436 449.90338
1607.2495 455.86798
1613.3844 457.30005
1618.2341 463.71432
1626.9572 467.1019
1621.0359 474.5901
1622.5474 483.05316
1614.6663 483.76324
1618.6042 490.58643
1625.0884 489.96802
1623.6223 496.59604
1627.312 500.90546
1624.2921 505.70752
1618.9918 506.12006
1617.8152 499.66406
1615.6876 495.79047
1612.209 493.97925
1608.5735 491.8142
1602.8958 490.68903
1608.0579 479.59167
1602.5288 481.27634
1594.9646 484.40256
1588.0024 485.81247
1584.3395 489.7633
1579.2968 486.38474
1578.052 493.6582
1581.6038 500.57617
1585.2144 505.11215
1589.0894 510.38803
1592.8555 503.9377
1588.6246 495.2409
1595.057 491.71417
1596.7202 497.68164
1599.8386 502.06165
1606.4172 499.1788
1609.223 504.7921
1613.6312 508.1225
1618.3105 513.6291
1613.2908 519.2572
1612.1753 514.28204
1609.086 511.65573
1605.2197 510.25937
1602.9205 506.19208
1597.466 508.2398
1599.1245 512.2634
1593.28 513.8951
1596.8097 518.1603
1601.4542 515.6764
1602.8218 520.48206
1607.35 516.96533
1608.2379 523.6151
1615.1434 526.9454
1612.159 533.88135
1607.1847 533.8644
1602.9795 533.4476
1599.3307 529.69446
1596.6016 524.0493
1593.0156 529.0285
1591.8502 534.9107
1597.2207 536.83026
1594.4016 542.40955
1588.1829 541.9471
1585.3423 538.5432
1581.5554 543.54297
1575.5769 545.11194
1570.5309 549.46136
1564.8757 548.10474
1559.5332 549.77106
1552.9429 555.0843
1554.1062 546.34406
1559.4532 544.2694
1561.9756 542.06287
1566.0199 541.1658
1568.2556 536.65125
1574.0862 535.45435
1579.3354 536.98413
1585.2335 535.49023
1587.0271 531.7957
1586.9541 526.46765
1589.5364 518.2573
1583.4639 520.43115
1577.916 524.69995
1581.8854 528.19214
1580.6371 531.854
1576.6035 529.70764
1576.004 518.7016
1579.169 511.30646
1566.7637 520.8446
1571.2009 523.7344
1571.8909 528.8844
1565.6409 529.3456
1560.4648 532.504
1558.0164 536.3139
1556.5024 540.0751
1550.3195 537.35156
1548.3792 543.06305
1545.591 549.1078
1538.0427 547.6509
1540.3962 541.3685
1534.6191 541.7145
1532.294 545.93787
1534.445 559.87317
1534.7416 584.1038
1543.685 584.71924
1556.501 582.6931
1553.9607 576.4492
1561.6215 573.26514
1566.8518 577.6721
1575.9755 580.7484
1582.6204 580.711
1583.308 586.4833
1578.1414 587.6372
1572.7585 586.31586
1569.3799 582.2869
1563.5153 583.5016
1561.0609 588.46643
1566.0697 588.343
1570.0787 590.60175
1567.2024 593.5325
1561.9154 593.8942
1558.9799 596.80035
1554.6409 598.5172
1554.594 593.92126
1556.6251 589.9313
1551.2805 587.59155
1547.8464 591.18933
1544.7574 591.86615
1541.2455 594.1426
1539.1746 590.4313
1535.5444 594.3759
1532.0344 590.50195
1526.0891 590.49554
1523.9786 585.41235
1515.9146 590.152
1519.7206 595.09534
1524.3992 595.8524
1526.9429 598.60425
1530.6328 597.2365
1534.7323 602.26324
1540.6208 605.7004
1538.4661 599.3563
1543.6263 597.6161
1544.2776 603.65594
1550.0422 595.8867
1547.7673 600.62286
1551.7188 601.681
1554.4191 603.90247
1555.1183 607.05994
1553.6045 610.6733
1558.3688 612.40625
1559.874 602.7877
1565.1072 599.0713
1569.6675 601.0744
1574.8281 597.9655
1574.2355 592.8287
1579.7025 593.83606
1581.3221 600.2756
1577.7943 601.5964
1576.8647 604.3026
1572.6753 604.77966
1580.9215 606.0593
1574.9836 609.12976
1568.6887 609.5604
1563.1157 610.53217
1565.2169 617.71704
1567.6985 622.718
1572.6665 625.0217
1577.4818 623.402
1580.217 627.74243
1584.1002 630.0484
1589.3229 629.39026
1590.9781 625.6008
1594.2394 625.1207
1591.3828 620.51807
1592.5516 616.1732
1586.9854 616.8204
1587.2228 623.7212
1582.6885 620.9547
1575.1252 616.8553
1579.5381 612.4963
1585.1431 611.27893
1586.2217 606.1481
1589.0604 602.5028
1595.7566 602.2551
1599.409 609.43054
1592.654 609.87756
1597.8643 615.54596
1597.9153 619.516
1596.3724 621.9947
1599.9319 625.38
1606.9742 630.19885
1604.0096 635.20166
1606.1843 638.4128
1606.5164 643.307
1612.245 644.1013
1615.5797 645.8557
1616.8167 649.0448
1621.7726 648.2108
1626.4396 650.2197
1630.6984 647.25183
1632.7378 652.9686
1630.1053 655.8048
1630.8322 659.7566
1628.2529 664.2682
1635.0924 663.2941
1636.809 658.653
1644.0911 657.52673
1644.0874 652.824
1646.5344 651.15216
1640.8329 650.9009
1642.8641 647.051
1644.8729 643.5024
1643.0891 638.1481
1639.138 641.33105
1626.4343 642.91455
1620.5491 642.82587
1616.8677 640.5299
1612.621 639.672
1611.1436 635.1416
1616.1816 634.2164
1623.7357 637.5555
1624.8204 631.9469
1619.4944 630.40845
1620.4694 618.96594
1619.0042 607.6093
1614.76 613.02026
1613.4749 619.7783
1614.7579 627.1081
1609.1794 625.4681
1606.7703 621.94006
1604.3651 618.39026
1604.1357 613.42346
1607.7537 610.9153
1611.6119 605.7767
1615.4371 602.0321
1618.8762 596.5918
1612.5123 594.69507
1606.9915 593.89136
1605.4598 589.8721
1601.7114 588.77496
1605.0754 602.99976
1601.492 598.05383
1597.9991 593.45544
1591.8405 595.56433
1585.3824 597.6625
1585.2891 592.72986
1589.5168 589.5574
1588.8784 583.1589
1594.7844 588.23535
1599.0604 586.3741
1603.7959 585.08527
1608.9496 584.9087
1609.125 578.5403
1613.4069 573.7988
1620.6859 575.59045
1619.6029 587.077
1615.0565 582.5495
1605.1147 576.38806
1603.7897 580.3707
1600.1514 582.43604
1600.127 576.8358
1597.6565 579.38574
1594.689 582.8777
1593.4281 579.172
1594.8923 575.33264
1590.5682 575.27545
1586.2631 576.8141
1586.6085 571.9219
1582.5134 573.7583
1578.4862 575.5761
1575.7117 571.8047
1569.5789 570.7608
1578.7378 563.2228
1573.6517 565.6509
1568.1836 557.1208
1561.883 556.9292
1572.8241 559.0478
1579.8262 554.39105
1588.9485 548.3242
1599.6489 548.6942
1598.3124 555.23206
1591.343 554.9792
1589.3492 560.97986
1584.089 562.628
1582.0149 568.25183
1587.6743 567.12164
1598.959 563.3033
1611.8228 566.0676
1621.988 568.82874
1619.9946 564.1896
1624.1298 560.384
1627.5193 555.40576
1624.5005 551.3599
1634.0063 560.74396
1649.5621 561.16864
1649.0775 556.5551
1649.1893 550.6085
1644.0452 552.42883
1638.8469 550.4501
1632.9878 551.1194
1628.021 546.95685
1622.9753 546.8989
1618.7832 548.9612
1616.3367 554.3706
1619.5923 553.7218
1621.4478 556.24536
1617.9064 559.20856
1613.7091 560.62915
1611.5521 555.7897
1605.8914 557.53784
1605.8029 550.4356
1614.4397 550.8396
1610.5082 548.3669
1603.0864 541.8547
1609.5654 541.4009
1614.8677 541.45416
1618.2502 544.78516
1621.2405 539.38794
1620.239 533.5356
1625.4237 541.56573
1630.47 542.7893
1634.6333 541.77924
1632.095 535.5189
1627.4004 532.71484
1639.6647 527.6499
1647.3007 528.7365
1650.7478 519.2272
1654.7026 523.7988
1661.4567 521.302
1663.7924 513.77264
1671.8743 512.5707
1673.3997 516.55286
1666.9889 517.4833
1666.9497 521.2792
1668.2952 527.0906
1671.666 520.5036
1672.2145 524.0274
1663.9761 531.7787
1656.2388 530.3923
1658.9331 538.7308
1662.3298 547.0714
1669.655 538.52246
1670.0708 545.305
1676.7723 546.6239
1677.5061 542.04114
1679.1388 537.44995
1674.9897 528.96783
1681.3505 532.1216
1687.3193 528.7267
1693.5653 528.2095
1696.5066 523.98535
1693.5398 519.2566
1682.7805 524.3562
1677.4576 520.4116
1683.0212 517.1784
1688.7571 514.345
1693.0403 512.5695
1691.2253 507.5619
1687.1938 504.65625
1683.5762 510.36362
1677.5703 511.83203
1682.8 505.04877
1680.3552 502.63254
1678.9255 505.3354
1675.3389 506.2309
1676.1543 499.56317
1683.7179 499.40378
1680.0605 494.71002
1675.2782 489.3618
1677.0146 485.44543
1676.8333 479.74268
1680.4414 482.10767
1681.2261 486.6524
1684.8777 489.74957
1689.8904 487.99713
1696.4216 485.34787
1700.0706 492.38452
1705.5225 490.4315
1713.9624 483.27722
1720.2853 484.25998
1718.0388 490.83884
1720.4384 497.91443
1720.6394 503.07016
1715.804 501.83124
1711.834 501.1587
1706.8469 501.3805
1706.5122 505.54816
1709.8403 506.92273
1715.0924 507.11215
1713.3969 510.68674
1711.3887 513.33057
1710.6859 516.98376
1713.3936 524.5182
1719.1069 530.8633
1713.0872 535.51166
1719.0588 538.6244
1725.6304 540.4219
1731.0215 542.24054
1735.4247 539.218
1738.5132 546.509
1750.8588 551.6922
1748.1882 555.3028
1743.5729 553.25653
1745.208 560.8497
1752.0208 559.01776
1758.4316 556.7425
1758.2286 549.1763
1752.0408 546.8025
1746.2487 543.19574
1740.8448 551.4102
1745.0557 548.6513
1736.6426 552.67004
1730.8506 553.9434
1726.6462 550.2418
1722.5775 550.9442
1718.5706 546.25385
1717.261 551.03064
1715.342 555.97473
1718.5186 555.21277
1721.4297 554.7174
1723.6353 556.82275
1724.5598 562.01764
1728.6609 559.571
1736.2163 559.7452
1741.3887 559.0701
1744.4174 555.7458
1749.1129 564.07117
1744.2952 567.6832
1740.7114 568.3883
1736.9443 565.3779
1730.6547 566.51996
1733.8665 572.0659
1742.3917 574.47
1744.861 577.81824
1746.4265 581.15985
1742.9673 583.77563
1740.8687 586.57104
1738.0669 588.26953
1736.3452 590.3568
1732.16 590.92224
1728.4111 593.79004
1730.755 599.05634
1733.0492 603.23975
1734.8315 595.83276
1739.112 596.5568
1739.2003 601.6802
1752.7883 601.30786
1746.9861 600.16113
1744.2417 595.8068
1741.8077 595.1108
1739.7622 592.78217
1742.5176 589.8395
1747.4562 591.5586
1752.3154 594.1396
1757.5652 595.73206
1758.905 600.62445
1758.2755 604.0755
1760.23 606.5519
1763.7573 609.1132
1769.0837 606.405
1765.9806 601.82623
1763.3657 597.8763
1774.0371 599.96814
1776.7516 607.1814
1787.326 609.26154
1776.7654 614.0208
1773.5153 618.7816
1768.6372 613.19885
1767.304 617.8524
1765.6055 621.3683
1761.8344 620.78894
1759.8649 626.518
1755.6965 620.629
1750.0044 620.3112
1747.2761 614.6124
1760.158 614.4448
1753.5262 610.1874
1746.9661 607.61743
1740.0232 607.9377
1733.4878 608.61957
1735.5239 614.7997
1736.9313 619.9531
1740.6814 621.67334
1740.4257 629.0423
1743.6267 625.7776
1753.1006 629.00195
1747.3031 633.7723
1737.1906 640.3606
1731.1384 641.3548
1725.4329 647.1997
1735.148 646.6134
1737.4678 651.62634
1740.5251 656.626
1745.8823 670.7484
1743.8407 679.7798
1725.1428 676.4049
1726.873 667.4724
1729.2484 660.9772
1733.1726 666.34015
1733.8419 673.4455
1740.6523 667.3724
1739.5494 661.3628
1728.5273 654.9723
1714.182 652.379
1722.8552 651.3988
1721.7516 657.197
1720.1108 662.80634
1717.0383 668.91016
1713.6921 660.176
1706.3584 660.0779
1703.1519 651.7548
1707.7656 647.34326
1712.8776 645.0919
1718.3942 646.47107
1722.7637 641.9584
1719.4718 635.77527
1715.7578 639.8961
1710.8575 638.0578
1706.2122 640.31366
1699.2266 641.85205
1696.6306 635.4886
1704.731 632.8522
1711.1099 629.96436
1715.3105 633.1632
1721.3495 638.3834
1729.6196 632.02673
1721.1167 630.88196
1719.9141 625.4229
1726.021 621.84863
1727.4949 616.2652
1728.8572 611.20996
1726.7057 606.3788
1725.5206 600.7124
1721.2896 599.7048
1720.1389 594.672
1724.0687 594.2345
1713.909 592.8352
1715.7739 594.75116
1716.896 597.5165
1717.445 601.40234
1713.4248 601.90735
1710.4747 603.6178
1707.9049 604.05835
1706.0544 606.03076
1703.205 607.45447
1699.385 606.1162
1706.2529 614.1997
1702.5854 625.9997
1707.943 624.26544
1705.9056 618.65247
1710.3755 615.24744
1713.4402 619.7707
1720.1426 616.7787
1715.6368 614.49194
1717.3839 611.7301
1720.3015 609.88
1721.6769 606.13763
1715.6757 605.32214
1715.7026 608.4263
1713.2844 611.03516
1710.7732 608.4237
1708.373 611.42804
1702.5916 612.83154
1700.4479 619.4934
1694.6497 621.78894
1695.6416 626.23627
1699.24 629.32495
1694.4376 630.77057
1689.6453 628.3722
1685.1674 618.86523
1692.6011 617.0032
1695.8561 613.7241
1698.6287 611.2671
1695.4442 609.0669
1693.7625 604.2711
1688.5476 596.09204
1686.1328 603.67847
1686.9138 610.6574
1679.7493 599.8844
1678.7262 591.6131
1681.9811 586.7447
1688.0769 586.7302
1690.5074 588.5631
1692.7161 592.0971
1696.1799 588.27386
1700.8479 589.12024
1701.4028 594.4741
1696.2041 597.0873
1701.8457 601.0265
1703.9844 597.6053
1706.8805 597.4099
1710.0623 599.9798
1710.962 596.67706
1705.7626 592.3446
1708.9921 587.92365
1710.5391 591.9951
1714.9028 588.0056
1716.0688 582.6204
1713.501 578.0929
1712.0302 573.83795
1708.1831 570.2251
1705.5106 566.0606
1699.6648 558.754
1705.7136 559.1224
1710.6868 559.58984
1714.4906 561.89453
1715.106 567.9824
1719.5801 562.5823
1723.7438 568.2162
1720.4733 575.9982
1728.1182 575.4869
1725.4655 581.05334
1721.1439 588.28455
1726.4067 586.563
1731.6294 582.24
1733.1589 586.66394
1737.6589 583.41876
1736.4905 578.1904
1738.7195 572.8285
1746.9487 572.97974
1749.06 569.6329
1752.0808 575.5398
1753.5487 581.7348
1748.4688 584.845
1752.2262 587.8068
1757.0056 589.1039
1760.478 582.43567
1762.9579 586.8537
1762.3453 592.15894
1769.5447 593.9271
1771.4666 585.97614
1766.163 577.3903
1762.3284 572.5156
1758.9546 569.57355
1758.4783 577.18964
1752.9519 568.0644
1758.1849 563.85406
1776.7131 568.7676
1786.4885 555.22797
1801.5084 527.50116
1762.0247 540.91614
1754.0812 541.7995
1744.9644 536.8301
1741.0155 540.9917
1737.9424 532.53687
1744.2428 530.90436
1756.252 532.2813
1756.7676 537.0407
1751.9006 535.32306
1751.7076 528.88544
1756.9562 525.56396
1752.0432 522.604
1748.0394 515.67456
1742.6942 525.95593
1746.3282 521.70935
1741.8894 519.67993
1736.9397 524.2988
1728.5922 532.3113
1725.2455 524.86365
1731.6307 525.5447
1738.3044 520.9076
1730.4116 517.85516
1733.6594 510.92004
1739.0834 514.8655
1736.2256 517.82446
1744.5759 513.23627
1740.3514 509.91608
1738.1694 504.20953
1732.883 501.9072
1728.6567 506.85663
1721.2218 513.8993
1719.7123 519.1208
1723.9778 509.69867
1724.3336 505.02924
1726.6254 500.415
1726.8054 495.45294
1722.353 493.65076
1724.0668 490.22128
1725.8317 486.95776
1731.3813 487.93463
1734.7207 487.3604
1737.6302 489.10468
1740.3599 484.19528
1742.2008 491.95346
1736.5348 495.3067
1741.469 498.64636
1748.2051 496.2674
1744.7289 505.9963
1758.6782 504.69662
1755.0618 510.23132
1750.4861 511.58783
1751.66 518.2121
1758.0227 514.7748
1746.3264 500.5273
1750.9025 504.67236
1756.9619 487.56317
1761.3494 484.18488
1768.2839 476.2496
1779.5045 479.98373
1770.2858 483.80505
1757.9823 481.78577
1755.1045 476.5891
1751.1389 470.8777
1743.475 469.337
1740.0284 462.5501
1742.8147 456.54962
1747.6968 461.44482
1750.788 454.67365
1746.8718 452.70966
1738.5396 451.46295
1742.1606 450.17664
1744.5088 446.70724
1739.9172 443.9609
1734.1656 445.63934
1728.6405 449.30856
1734.6364 453.98154
1731.8994 459.03842
1735.9208 465.92282
1733.4578 471.03632
1724.618 472.06137
1725.0367 465.71432
1722.0952 460.96057
1716.1321 460.8106
1716.5852 469.7944
1712.5527 476.76718
1719.2797 474.24524
1720.77 478.23846
1725.9253 480.55698
1732.7717 480.55914
1738.3215 476.38568
1745.5317 477.41785
1751.0814 482.81116
1745.5969 485.9941
1748.7952 490.63327
1753.878 491.0252
1755.1293 497.78558
1760.4736 493.77805
1785.6687 494.7231
1852.6896 489.6241
1823.2407 478.03387
1819.7797 414.84967
1767.5088 409.45212
1758.1626 403.68738
1751.0498 401.20615
1750.4261 395.19263
1747.4768 390.6727
1749.799 388.55835
1759.456 394.4637
1757.3547 386.96985
1780.3574 367.95807
1755.7257 379.72778
1752.3783 384.35397
1747.9282 383.79395
1745.043 377.35938
1739.1013 378.66577
1735.3184 381.39716
1738.8064 384.9654
1741.2197 387.68207
1744.1211 390.91855
1739.6923 393.1412
1735.6282 389.8128
1731.5356 384.7412
1728.5552 391.9029
1717.9763 393.0218
1721.2292 390.7058
1722.8767 386.77548
1725.2383 382.7068
1727.2046 378.4166
1729.4764 375.86386
1731.253 372.64023
1736.2827 373.1458
1742.4086 367.90393
1755.4913 370.3147
1751.206 375.10043
1749.9489 365.56088
1744.8268 356.69296
1736.0522 353.44507
1736.2191 361.10852
1735.8888 367.21777
1731.9487 369.13617
1722.5654 366.51962
1719.9266 364.60156
1722.9321 369.81308
1722.4415 373.49396
1727.1504 370.4804
1725.5764 364.91595
1730.7483 364.92078
1727.3667 359.5671
1720.6554 356.69836
1713.1183 359.5905
1715.146 365.45068
1714.959 369.4067
1707.1172 368.56934
1712.4678 373.03998
1718.3943 371.76038
1717.7532 376.5739
1721.776 378.16547
1718.1727 383.66208
1714.7955 381.02634
1710.0703 378.4779
1703.8475 388.76746
1711.6146 388.51385
1714.3125 396.66455
1708.3046 396.82794
1710.8295 402.1308
1712.9655 412.01596
1716.2875 407.10974
1706.7388 407.1305
1703.1752 411.92676
1706.4703 419.0381
1698.9988 417.58313
1698.6517 423.20142
1702.9657 424.5324
1701.8816 428.80872
1706.309 433.76913
1708.7632 428.00372
1708.1041 423.66
1713.7252 421.97507
1714.6135 429.58115
1721.5223 427.27585
1727.501 424.2755
1722.1229 416.61908
1726.9344 403.67664
1733.4149 403.6812
1739.75 405.4206
1735.7725 410.90576
1740.025 412.2752
1742.6572 420.87704
1748.1106 419.0915
1752.0743 422.62518
1756.9207 422.71417
1751.0695 429.62347
1746.9237 427.29233
1741.2769 426.79218
1736.3884 439.16913
1737.7869 432.72717
1743.99 435.71323
1746.4487 441.904
1751.8367 442.2491
1750.0576 447.5218
1756.054 447.55182
1756.5083 453.21127
1753.6919 461.4272
1758.0684 466.64465
1761.5065 476.22092
1764.3384 470.8066
1765.4054 463.07452
1761.1226 457.40475
1773.3271 454.94824
1767.2244 439.43396
1764.6461 448.3465
1758.6604 441.82874
1752.0807 436.49347
1755.7887 430.6621
1759.0643 434.95264
1764.1976 432.07208
1763.6401 425.86325
1763.9448 419.25888
1758.55 416.31723
1757.9114 411.29474
1751.2701 410.7777
1744.6428 413.70837
1745.9807 405.3556
1744.3306 400.1589
1743.2585 396.43408
1737.8137 398.45724
1731.627 397.5268
1722.6329 398.04346
1722.6248 406.92868
1730.1683 410.64386
1733.7478 417.73486
1735.1798 424.05453
1732.9103 429.68134
1728.4993 432.42102
1730.6271 438.6701
1723.1123 438.0101
1718.6179 434.94604
1702.8423 439.06564
1712.0112 436.84164
1717.2983 441.77206
1723.2212 443.60614
1719.7732 447.7324
1724.1622 449.91354
1721.0925 455.02112
1716.6188 452.63544
1712.9731 449.40167
1711.2943 443.44928
1706.4076 444.51132
1695.3009 450.83215
1701.4784 449.8098
1708.2606 457.06686
1699.879 456.73578
1698.4321 463.48572
1694.4026 466.60938
1691.5618 455.35187
1684.2041 454.37634
1687.9839 445.3833
1688.1774 439.7795
1695.3851 435.20074
1690.266 434.03168
1691.6401 438.06268
1694.1843 440.56894
1694.1985 445.64413
1698.8877 442.69797
1697.949 437.5476
1694.646 430.74777
1690.6255 428.9387
1689.8296 424.12952
1684.1371 421.55087
1693.3022 417.07794
1693.1179 409.7009
1686.0667 410.2307
1687.1151 415.63525
1679.9183 415.32587
1674.3287 415.3973
1674.4277 421.00998
1679.4436 422.89594
1680.7637 430.2314
1683.1648 427.22925
1686.624 427.21326
1685.3955 432.33234
1683.2458 437.16425
1677.3575 434.8221
1675.4977 429.54987
1667.9794 434.59747
1663.9485 423.234
1667.6171 428.29514
1665.7773 442.97726
1662.1509 437.21848
1670.5845 441.7022
1675.9304 441.97858
1676.6898 446.91425
1672.9062 446.90002
1668.2964 449.55475
1662.1235 447.73853
1657.9042 443.78476
1653.1351 440.72894
1645.6062 450.09174
1641.0598 445.33115
1640.1653 454.29626
1635.5344 453.9131
1631.9625 452.29364
1628.1375 448.7882
1635.6663 441.59497
1633.7595 434.06598
1635.8396 429.4596
1632.251 427.94846
1643.7491 435.38657
1648.3936 437.15564
1640.084 432.3084
1646.7394 424.07562
1649.6259 428.78452
1654.2686 434.17062
1659.3381 429.6672
1654.1636 426.21808
1650.1731 419.42822
1650.2908 409.32922
1654.2638 413.9145
1657.9265 419.92883
1667.0647 415.0802
1664.9287 408.92673
1659.3647 409.56454
1656.0498 404.7739
1650.8558 403.7517
1651.6448 398.67978
1645.2002 392.50812
1652.5991 394.39136
1658.7019 398.18414
1662.6215 403.34323
1670.6968 402.1258
1671.5225 407.64438
1670.5797 411.78278
1676.1357 410.3191
1678.1024 405.47754
1678.8116 398.69727
1667.0359 390.44067
1674.1255 392.4085
1680.5748 394.96637
1685.3501 398.624
1682.3529 403.6063
1686.6957 403.93393
1690.425 402.383
1699.2317 402.0333
1703.8239 397.7627
1699.4291 393.64194
1695.0283 395.9314
1689.912 393.80368
1690.4071 388.94116
1695.135 387.38904
1702.176 382.3814
1697.0059 378.32675
1691.2716 373.46567
1687.7112 369.3326
1689.9761 365.0578
1684.4475 365.72568
1685.847 360.91998
1688.3492 358.95554
1684.9006 354.6523
1688.7491 355.58844
1689.7053 353.45956
1692.4248 352.21628
1688.4465 349.65027
1684.1118 347.16766
1681.1759 350.20956
1678.292 345.76654
1687.5237 343.8955
1686.0532 338.4466
1691.4612 333.28244
1693.3077 335.87527
1697.6462 335.6846
1700.4954 339.03802
1704.8022 337.44244
1703.7971 330.70096
1709.699 328.24823
1703.6003 324.09592
1701.0336 318.98608
1704.7483 314.49628
1701.8838 308.30252
1696.8599 308.63428
1694.6877 316.25415
1690.4556 313.55133
1686.4641 311.08252
1685.9915 317.86606
1680.7295 322.4527
1680.4579 311.31747
1682.8389 307.2356
1673.3649 309.00034
1675.5328 317.61176
1674.4543 323.98767
1681.6511 328.84976
1687.5963 330.11792
1690.8615 323.49982
1696.4344 322.7937
1695.2856 327.89606
1698.444 331.2013
1694.459 340.08005
1699.1503 344.8729
1693.9983 346.98962
1697.8694 352.29175
1694.7732 356.68903
1692.7579 361.14697
1694.3921 367.96436
1700.5708 369.50183
1699.6409 362.623
1703.1133 356.98938
1707.309 350.63373
1706.3126 344.0097
1709.3915 338.13757
1713.1534 337.24164
1715.4181 332.75192
1716.3433 324.2017
1711.3346 319.5207
1718.469 316.1079
1723.5815 314.12888
1720.9149 309.4166
1710.1418 309.8556
1714.2979 312.4525
1719.1335 304.1698
1714.4283 305.74576
1714.3391 298.77554
1723.8633 282.60913
1703.1014 277.09064
1695.8503 278.96503
1693.5421 274.4274
1691.891 269.54218
1686.5687 265.56873
1691.364 257.8753
1707.9856 224.48929
1719.3934 192.12212
1747.2416 241.16168
1781.6631 203.72906
1812.1565 245.22885
1853.1396 232.29263
1891.5071 192.60129
1850.3528 180.08948
1848.8115 112.8006
1882.4978 120.28311
1906.638 84.52771
1910.3175 138.52625
1947.479 132.81773
1936.28 172.92035
1984.9358 160.76389
2028.0762 137.20473
1988.2339 126.28167
1959.9968 93.21033
1901.1733 32.890182
2021.2456 57.07537
2092.6433 100.42391
2087.9553 234.77695
2096.2495 337.02576
2031.3933 347.01678
2015.6277 303.0807
1994.5702 265.9859
1998.7922 224.68939
2020.4253 192.8139
1972.2893 190.45708
1917.1827 220.60136
1946.7471 244.8333
1939.9396 306.99026
1972.5978 352.53174
1942.6781 396.61823
1889.6627 346.7131
1890.6069 278.69965
1853.9338 310.56274
1825.2357 291.7436
1789.0532 277.30743
1759.6484 280.12592
1744.0098 305.8729
1728.2604 318.53815
1723.3799 320.3925
1722.7213 325.4558
1728.9382 327.32507
1720.6843 330.56424
1718.6892 339.1919
1714.2423 343.98663
1712.5916 347.8647
1713.9519 353.1401
1718.4528 348.83652
1722.7911 350.75128
1727.8286 353.3497
1730.0791 348.94943
1723.285 344.5224
1724.6625 337.17365
1730.3599 337.95724
1733.3804 344.58398
1741.2239 346.35178
1736.9534 325.4735
1735.9518 335.3796
1754.7231 336.03943
1790.7 324.5103
1821.025 339.40588
1834.2377 369.24704
1881.4883 403.42456
1870.8926 443.59723
1910.6096 446.56943
1889.3473 474.55734
1878.5503 499.58032
1917.6033 480.80365
1954.2854 448.58823
1950.1123 487.27924
1983.9259 505.63995
2018.2148 504.9842
2036.5725 475.49042
2010.9314 476.45984
1997.3308 454.65317
2000.664 415.71185
2016.7909 381.2291
2060.668 412.36728
2104.5007 428.5321
2085.977 478.27948
2086.5508 536.68866
2009.4832 545.5239
1991.791 582.824
1955.719 553.7785
1934.9288 522.937
1876.6962 530.78186
1887.9119 578.7938
1926.6173 592.0766
1957.0039 602.9387
1971.5135 618.57556
2003.2532 616.5861
2047.5626 588.71533
2086.3396 644.886
2088.6729 704.661
2107.2637 734.83264
2090.248 770.50726
2019.5398 743.01245
1930.9973 740.44275
1831.196 717.3686
1859.1216 766.74426
1798.9694 767.16895
1819.8354 682.7074
1846.0074 665.24774
1883.1178 699.4741
1933.4932 685.42377
1988.7405 691.7726
2017.9281 650.305
1983.2198 642.4266
1955.0387 647.86804
1918.0422 639.359
1885.014 653.59644
1867.1155 622.1997
1831.3068 580.91345
1823.9674 638.2968
1793.4995 643.79565
1789.3622 639.04865
1785.5276 633.0395
1792.4453 629.0719
1782.5012 636.7318
1782.1973 641.0565
1784.9136 644.4467
1781.8212 648.0965
1786.6743 653.2568
1787.7449 648.449
1792.8704 650.7466
1797.582 656.1886
1788.5083 658.3373
1783.2266 660.8241
1781.2963 663.66315
1789.7561 671.96545
1793.7463 678.8702
1792.7175 661.2153
1790.8298 665.7914
1783.2185 668.4112
1776.9866 665.45776
1782.3069 655.95123
1777.0171 654.6454
1776.7527 658.93945
1778.9796 651.5784
1776.9769 647.20044
1776.7861 641.5722
1772.1084 645.1258
1772.4077 650.30426
1770.8718 653.3777
1767.3624 647.5325
1763.1255 646.6217
1764.4425 642.74365
1764.3376 637.45496
1769.9321 639.53815
1772.1945 634.5178
1775.9023 636.4588
1778.8298 632.45996
1785.2788 628.2874
1782.7876 623.23413
1786.9963 619.9381
1781.8308 617.8438
1777.9885 620.84753
1781.5118 626.92194
1771.9133 628.33777
1769.5225 632.176
1776.1149 626.5376
1770.482 622.41406
1766.2227 625.9429
1765.6289 630.77026
1760.1782 632.6039
1756.171 636.2937
1754.1375 641.49225
1759.9404 642.08435
1759.2523 650.4623
1764.8242 654.76764
1771.3289 656.82074
1769.7754 661.9936
1771.1521 670.63403
1781.3485 676.0474
1785.8594 688.50854
1782.9985 683.5112
1790.4681 694.2765
1781.479 702.3986
1749.07 762.36365
1751.04 695.3601
1737.9478 693.2064
1707.4102 697.3065
1679.0884 710.6283
1677.4103 704.5287
1672.4066 699.6903
1666.6442 696.2676
1670.8171 691.56384
1663.7505 689.7914
1658.9102 687.02136
1662.8687 683.0691
1660.4735 676.07965
1676.095 676.4607
1674.996 646.4652
1656.7402 645.9695
1648.937 643.8982
1648.228 640.48
1647.8298 646.806
1649.4807 649.603
1651.8582 653.47217
1649.2675 656.06604
1648.7117 660.47095
1646.5905 664.1479
1643.364 667.1252
1639.1367 666.71606
1636.6135 670.7178
1632.2432 672.187
1630.4082 668.2114
1627.0122 671.8769
1627.0435 677.8458
1634.0974 677.812
1640.9825 676.98413
1645.635 671.32104
1654.139 661.6344
1654.792 667.8099
1651.7576 671.51196
1654.4446 675.978
1657.368 679.199
1655.782 682.2969
1653.5272 685.0314
1657.0326 692.34784
1654.0614 689.5845
1649.2723 688.54846
1649.4868 683.5017
1648.1843 677.8965
1644.9921 684.4314
1639.7269 684.5083
1634.7249 687.28577
1629.678 683.9453
1621.797 680.7378
1615.9956 682.97046
1616.3595 679.66125
1618.049 675.5802
1621.7389 672.7695
1621.9497 666.2854
1621.0085 659.8824
1624.8418 656.249
1616.2122 654.0404
1609.8628 649.24426
1607.3014 657.07074
1602.5018 663.9629
1601.4131 669.95325
1594.212 667.2753
1590.0977 668.51965
1586.3164 667.5898
1588.7035 662.3548
1594.4705 660.0983
1597.8796 654.84265
1602.0219 649.8937
1598.8405 643.5886
1594.551 638.7448
1599.4952 636.93524
1599.7904 631.00665
1593.4718 632.6791
1586.5139 634.50244
1588.3145 639.545
1582.3118 641.4445
1575.2635 637.8534
1579.6389 634.6706
1575.46 632.2461
1572.8512 630.9675
1570.5123 631.9296
1570.3132 634.9147
1571.3287 636.706
1571.2273 639.6957
1572.981 643.4366
1576.9972 642.9755
1579.8022 647.18384
1587.9252 655.2626
1591.5481 647.38403
1585.3448 647.43506
1582.734 651.31085
1582.2808 655.0316
1577.7024 654.34033
1572.1182 657.0436
1565.0176 658.31824
1567.175 665.77155
1571.4556 664.3011
1575.1803 663.7639
1577.8191 661.70996
1579.5449 657.9073
1583.2612 659.98224
1583.2748 663.78235
1581.4167 668.1638
1581.5239 672.954
1586.2284 674.27484
1583.3828 677.958
1584.898 682.3527
1590.9128 684.2854
1596.2603 682.5608
1590.6255 678.34686
1587.889 671.4245
1592.081 673.42444
1596.8219 674.88245
1606.6772 674.3745
1608.9993 671.2603
1610.7383 665.3089
1613.096 660.27234
1615.9331 664.54504
1616.9463 668.32715
1613.5226 670.9847
1612.73 676.82153
1612.0916 681.8366
1607.2861 680.22644
1602.1481 676.3557
1602.219 681.75244
1600.8964 686.5754
1606.9916 686.2292
1611.8796 687.27844
1617.8223 686.81665
1623.1418 688.3571
1628.7319 690.7584
1632.7701 693.9502
1637.1659 692.319
1641.3395 691.40295
1644.2664 696.84607
1647.9406 693.80383
1651.8542 695.2355
1656.3254 697.7251
1661.1156 697.8559
1662.5964 705.7524
1666.2473 702.215
1670.863 707.08344
1672.3279 711.41565
1663.8298 710.78925
1666.352 716.1107
1671.2068 716.182
1675.65 715.76807
1677.7604 718.20593
1681.3387 717.4988
1685.8213 714.921
1705.675 750.5424
1677.8009 753.0736
1651.5059 766.2607
1628.0789 743.5622
1601.3353 757.88025
1551.2645 778.4828
1526.0305 751.0513
1455.9441 748.34955
1365.6233 745.56586
1412.3452 700.444
1396.3795 643.13385
1381.8545 678.1987
1349.8226 667.4033
1345.0662 703.76624
1275.4003 762.66766
1224.6814 733.2206
1224.9374 693.06244
1252.0505 673.1467
1275.8232 708.9352
1302.5208 700.7392
1322.6038 681.57837
1311.5139 646.7418
1291.845 661.11804
1269.7255 637.3452
1235.1907 613.7413
1192.8931 614.8772
1178.2534 593.12476
1185.8909 554.93475
1169.3654 504.95587
1189.7444 441.78223
1236.5876 414.9914
1304.4316 383.172
1238.3854 363.7848
1210.9161 316.64294
1183.335 351.05524
1277.7971 306.403
1341.8838 296.4155
1395.4885 298.23923
1404.8363 286.0094
1416.1296 288.21332
1417.6619 283.0674
1422.706 282.088
1428.1597 281.8067
1440.0099 280.74512
1438.3112 270.82263
1438.5737 263.82175
1435.0215 258.85892
1442.6047 256.90137
1446.9839 262.2931
1451.6099 260.2267
1449.7798 255.36679
1449.6526 250.68741
1455.5364 247.71246
1453.0884 240.89633
1449.3804 235.35641
1442.3628 236.27234
1439.6765 244.63531
1445.7278 246.65141
1437.9971 250.63351
1434.6731 254.79565
1431.8547 248.28458
1434.456 240.22787
1424.7681 240.58594
1421.0884 256.25543
1425.7947 258.51047
1425.7898 263.55283
1430.7751 261.4494
1430.4089 266.7998
1432.9604 271.45703
1434.7477 277.3468
1432.8239 281.67987
1428.831 292.1677
1425.2413 288.12213
1420.173 295.37415
1416.831 303.43256
1422.4801 306.46503
1426.489 302.6598
1427.6819 297.58472
1432.0887 298.62897
1435.5958 302.57104
1435.7957 295.77338
1436.4246 289.092
1442.8357 288.3794
1445.8501 281.6065
1451.3049 280.585
1449.8213 275.31885
1444.2864 275.03375
1446.5164 268.26093
1454.0831 272.2426
1457.1804 277.72284
1461.2356 277.29675
1464.4323 281.37787
1464.4521 286.91733
1457.7915 285.97003
1452.8844 285.4723
1447.1836 285.72232
1449.4797 289.89368
1453.5073 291.07587
1457.9668 292.81866
1464.147 295.2973
1469.3296 301.04306
1472.8418 297.29297
1472.4288 290.7285
1472.6748 283.40665
1480.1711 287.23367
1479.364 293.30676
1485.5508 289.75568
1486.802 296.5534
1481.1538 299.60376
1481.9275 308.42926
1478.016 304.34073
1472.8005 308.72455
1475.7638 312.87738
1479.73 313.34543
1481.7986 315.9884
1484.0947 320.63422
1476.734 319.07486
1476.4377 324.90973
1472.6151 322.48566
1469.8181 316.57184
1470.1049 305.1772
1465.0997 304.4343
1467.1838 308.03693
1464.9796 311.50098
1459.6052 314.69116
1461.4783 318.60953
1465.3917 318.07227
1463.2268 323.80737
1468.6787 325.49515
1470.0382 331.7609
1465.82 332.72287
1462.2446 330.69537
1457.7062 329.2871
1457.5461 322.93884
1457.2102 317.76755
1451.6451 313.63995
1452.9043 316.6076
1454.0647 320.00012
1452.0972 323.24774
1451.3689 327.84915
1445.8303 325.3462
1439.7118 326.61337
1443.9109 319.0363
1446.089 314.00412
1448.9602 311.98947
1452.3298 308.10037
1457.0366 310.05396
1460.9185 307.58447
1461.4915 301.97528
1455.8448 303.91718
1449.1565 303.18954
1449.9143 298.8108
1457.2684 299.11234
1453.9719 297.40405
1451.5916 294.49228
1446.9839 294.3472
1442.0275 295.64636
1443.3442 300.94077
1447.6368 308.39908
1443.409 307.66962
1440.0723 304.50388
1431.1139 307.93164
1437.6643 308.57672
1439.6729 314.15448
1433.7728 313.38074
1433.6947 320.86832
1427.8611 314.9329
1424.546 311.9827
1419.7639 312.09818
1416.7297 315.69977
1414.3167 312.4779
1411.719 310.8418
1410.8243 306.4998
1409.3455 301.6818
1411.3684 296.1905
1409.709 289.63885
1403.3704 299.00543
1404.9451 306.6657
1407.3029 311.55017
1408.8151 316.33643
1412.2191 319.9687
1408.2119 327.26947
1405.2892 321.8204
1399.5312 319.12787
1402.8672 313.63763
1399.4014 308.05084
1393.4277 313.82428
1396.26 327.4439
1382.5411 337.00916
1395.4324 345.22382
1398.804 353.78574
1410.8259 350.65985
1413.9634 353.56702
1420.4672 354.13165
1426.6749 348.3412
1428.6179 342.69196
1435.5566 342.2335
1440.3477 341.96674
1443.7733 342.2773
1447.7236 342.47357
1451.7112 344.71625
1450.8698 349.98633
1455.9089 352.667
1457.0635 346.34735
1461.8588 344.42538
1466.3864 344.5461
1462.983 349.4205
1462.1085 354.6496
1458.3689 359.8283
1452.4626 358.3543
1447.7644 355.21222
1446.7112 359.85876
1440.2031 361.65527
1442.7854 355.28107
1439.3157 353.6424
1436.3289 352.3647
1444.2803 350.3951
1439.2561 347.17697
1435.046 349.24152
1429.5568 353.01425
1433.4056 354.3723
1435.0803 358.6443
1428.1018 360.2328
1422.7046 359.71786
1417.4401 360.16156
1413.1904 359.51425
1408.4546 365.21136
1417.9955 372.5112
1411.1913 374.18463
1408.4332 381.43298
1401.7137 374.85583
1398.8373 363.8015
1407.7173 356.61667
1406.3752 348.62244
1404.3922 336.85397
1413.5499 340.43207
1418.8898 346.02887
1424.677 335.73596
1417.031 332.06
1418.8085 324.11377
1416.8477 319.3958
1422.7312 319.14386
1426.4475 324.55096
1432.5927 327.49713
1435.1039 336.30276
1443.4852 334.7042
1448.1719 332.31714
1453.2853 334.46503
1455.9636 339.8708
1460.9302 340.22064
1464.515 337.39307
1468.1525 338.6355
1477.3842 346.0715
1480.8387 340.49344
1483.1499 333.726
1487.5577 328.8838
1480.8928 325.70074
1474.9952 329.04596
1477.0521 333.6746
1473.5204 336.8701
1471.3173 339.8374
1472.8911 343.14056
1470.9222 348.6003
1468.783 352.80084
1467.1804 359.52893
1471.2622 365.65988
1473.1211 372.38303
1463.7448 365.68353
1461.9286 369.59033
1457.6401 372.7793
1452.127 368.08246
1445.3004 371.03632
1445.7527 364.9587
1440.0725 367.1329
1435.5442 370.16284
1431.7871 365.90244
1425.096 366.13452
1426.1646 371.2491
1425.9946 376.73373
1421.4536 382.70404
1414.9313 386.57846
1403.7087 392.43564
1357.6692 392.4549
1388.8646 435.89108
1353.3228 469.99048
1293.9004 460.50262
1252.6755 452.4975
1289.9469 515.9761
1320.3263 498.57483
1328.5872 538.0242
1324.2695 573.06006
1364.0243 629.0294
1337.3721 644.89105
1322.28 625.2193
1308.6543 606.0637
1298.79 573.6393
1288.0536 590.1544
1272.0205 610.9167
1259.8611 581.45886
1274.3892 558.4762
1302.2563 550.4189
1284.3528 538.4071
1257.7529 498.36874
1235.2668 474.8359
1211.8427 488.38132
1225.7007 526.68945
1256.8406 536.81226
1231.6472 566.32776
1206.889 579.0666
1210.6409 601.83075
1200.7141 636.8501
1182.6904 632.44824
1168.6672 628.86523
1176.5598 657.7889
1194.0886 659.49243
1231.9806 646.2461
1213.5054 662.4462
1202.1857 708.87054
1199.8319 684.15283
1186.7074 689.8247
1183.7323 675.0374
1162.9816 679.8793
1178.5797 692.30634
1174.5354 701.4851
1182.5013 714.6909
1154.6453 736.7484
1143.8805 774.5075
1089.8357 773.61005
1100.6833 734.5947
1083.7361 700.98944
1112.5375 686.748
1085.7291 639.10547
1119.3806 631.20483
1107.5278 551.26044
1122.5156 449.51923
1095.7754 395.58258
1167.0161 387.66672
1125.7646 334.4018
1102.5497 294.6787
1113.8258 223.5245
1191.8446 224.11969
1184.5193 280.9874
1250.9202 248.33948
1263.6604 188.91089
1207.5232 165.68985
1202.2299 82.4654
1163.7437 118.75888
1104.833 140.73291
1125.2115 44.862907
1240.6792 67.22901
1271.6267 94.389755
1292.472 160.93059
1335.5958 157.153
1316.5366 118.44909
1307.1726 63.101143
1366.1011 33.82537
1352.3071 107.57501
1376.1011 154.53047
1352.3649 190.28778
1321.0181 234.18045
1379.3708 237.43613
1412.7732 263.89377
1420.9519 264.32578
1402.8352 273.98236
1414.1196 277.47836
1418.8745 271.3964
1427.0693 273.13733
1428.5442 252.89566
1420.6508 249.93604
1383.6436 203.96414
1405.1334 191.67313
1424.0731 185.11417
1409.4949 179.51532
1403.3499 176.39854
1413.6014 166.61836
1415.0394 162.86877
1419.1355 167.33975
1420.5466 171.65204
1415.3264 170.07225
1414.3495 174.56525
1411.029 169.59889
1406.9141 171.61264
1407.0759 166.02843
1411.0616 161.20247
1418.0789 160.48685
1419.9133 163.97849
1422.4792 161.56567
1424.3655 165.85954
1425.9768 158.98708
1430.5303 155.52469
1437.9028 157.1539
1455.7654 159.97284
1459.9395 163.31981
1470.5283 166.85776
1464.3362 171.05356
1458.5635 172.55017
1471.3904 176.57884
1464.9114 179.89932
1460.1305 180.82726
1455.8224 179.99315
1463.4545 187.04529
1466.3114 184.5725
1469.5536 185.18045
1471.6155 188.72092
1467.4183 191.17035
1465.9507 195.03014
1471.4619 195.99498
1473.1875 202.34369
1475.8252 209.51793
1477.0984 213.78879
1478.8967 216.9508
1477.8179 221.38443
1473.161 225.49779
1472.5638 218.8565
1469.9897 213.87627
1469.3856 207.85545
1462.1211 208.76501
1464.139 213.68059
1466.8857 218.65231
1462.9495 221.42955
1452.0123 219.19229
1452.7987 211.12286
1445.1888 205.90746
1453.4216 201.42325
1450.332 196.23111
1454.6019 187.06036
1460.1028 189.53824
1456.7013 194.30884
1462.4167 195.98587
1466.2002 202.28366
1459.9792 199.57793
1458.6692 204.13525
1455.4548 207.66899
1457.5005 214.37846
1459.3193 218.4807
1458.5547 233.46344
1456.5854 224.5788
1451.3738 228.59833
1462.0504 239.80563
1466.7579 232.35466
1462.9379 226.90929
1468.096 225.09276
1472.7244 233.51926
1469.945 240.61577
1465.2433 245.1312
1460.7651 248.37653
1464.8136 253.21579
1468.7208 249.0745
1476.9231 243.08574
1474.6115 249.01878
1473.9076 255.33884
1470.3391 258.0903
1466.0168 259.04904
1459.0848 259.80695
1454.8085 263.72363
1455.9084 255.46025
1461.5215 256.58234
1459.4393 268.44287
1462.7384 263.90964
1468.9194 263.22403
1472.0588 266.33438
1481.1749 263.99738
1480.2031 256.7438
1483.2948 248.26202
1490.9641 245.49937
1498.0345 244.63774
1491.8181 253.72195
1487.8044 262.23328
1495.6982 260.53107
1493.9949 269.36414
1501.6427 272.53668
1501.5287 265.64417
1505.1669 259.5305
1509.249 268.90393
1513.3203 276.72104
1506.9901 277.57703
1502.6011 281.89294
1501.034 286.04868
1497.7024 283.97018
1495.7325 280.02872
1499.721 277.50586
1493.2959 275.20312
1487.8096 274.09772
1483.6199 270.55017
1477.1486 269.97485
1471.9224 274.67444
1464.8009 271.05573
1467.0905 276.8443
1477.2909 277.9403
1482.5994 277.60138
1484.5234 283.37817
1488.6456 279.568
1491.775 280.95602
1491.1255 284.20624
1494.2952 285.231
1490.0778 288.5635
1492.823 293.88898
1496.5544 289.10022
1500.0775 293.54947
1507.058 298.50967
1502.6404 298.83643
1496.5956 299.05258
1492.7712 303.06268
1488.0737 305.15692
1486.4539 309.39868
1486.1274 314.33405
1490.6255 320.18323
1493.2949 313.75504
1493.8901 308.9013
1499.7964 305.64746
1505.8698 305.9434
1511.8953 307.47443
1513.1272 301.40384
1512.0916 297.16583
1511.368 291.1671
1506.084 292.97925
1504.6307 288.33118
1510.5382 284.34708
1517.7155 285.36752
1524.455 283.3849
1523.8918 290.32416
1517.4973 293.99158
1525.1937 297.10168
1519.8693 303.66446
1520.3496 312.05762
1513.6508 315.25577
1510.9663 323.58386
1504.5302 330.32452
1503.3712 314.7256
1499.051 322.6297
1494.6636 329.82285
1497.1295 338.22873
1492.0089 345.87805
1488.604 339.62753
1483.717 349.16614
1479.5442 351.66318
1487.6306 347.59485
1493.0577 351.01474
1498.041 354.68158
1498.5068 345.70526
1502.1707 349.46204
1503.2815 353.82245
1508.7393 353.5724
1507.6156 345.47437
1508.2621 337.35443
1516.5472 346.02838
1526.5658 347.55612
1528.5024 352.16364
1524.4834 354.9205
1519.5432 354.54944
1513.6643 355.5494
1515.3943 358.85498
1520.5487 362.44653
1526.6344 362.43842
1525.3367 367.571
1519.9639 369.55035
1512.9917 366.13037
1515.6006 362.8591
1509.7451 360.7613
1504.3712 359.79462
1497.5083 364.7701
1503.8115 366.04504
1512.8805 372.37628
1515.2947 377.7531
1519.0195 375.88464
1524.6967 375.75644
1531.5814 374.6947
1531.1713 380.23145
1526.2423 383.5992
1521.7457 388.3678
1516.2169 390.88388
1511.7905 387.8978
1512.7878 382.0509
1506.2197 384.94153
1504.265 389.47943
1508.0771 392.51144
1510.8705 395.45667
1509.9746 399.05463
1504.2455 398.35834
1500.2373 396.77133
1494.2366 395.9024
1494.6394 390.52875
1492.5979 385.14
1488.3905 382.80225
1495.6434 379.74472
1499.1279 387.02728
1500.9985 382.32968
1505.7458 379.5448
1510.0807 376.87753
1505.9072 373.63754
1499.3346 373.59564
1493.928 371.518
1488.6777 375.4168
1487.2253 367.39584
1488.8677 361.529
1492.3927 363.98056
1493.6776 359.002
1488.0112 356.50278
1484.3986 360.64023
1481.468 355.99323
1475.1721 354.76852
1476.922 359.87085
1480.4813 367.78918
1481.0854 377.0437
1484.9916 378.02292
1483.8845 382.9845
1481.2479 385.27887
1478.2778 383.53015
1476.3939 379.85486
1471.7799 381.83493
1467.0105 383.989
1463.932 380.04367
1459.1177 378.66974
1452.4254 378.325
1447.3613 381.1949
1441.034 378.52512
1433.7106 378.15955
1430.8013 381.2833
1426.7775 382.58066
1426.4304 388.3393
1421.4456 390.76318
1417.137 396.9945
1410.9856 398.32883
1413.0078 407.68005
1419.005 408.06528
1423.9661 409.2138
1424.3875 402.67883
1424.3394 398.5
1432.3015 406.37888
1429.179 413.63727
1418.5476 416.52582
1412.2864 422.5096
1419.5609 429.01877
1421.2838 437.12976
1421.5306 443.8031
1427.803 432.31647
1425.4531 426.89877
1423.3395 423.1876
1424.7218 419.5997
1431.1934 420.95825
1437.7532 415.88672
1436.0358 427.13385
1437.0549 434.71652
1431.1636 439.68408
1430.2139 446.1004
1429.0757 452.36346
1430.6644 458.83447
1409.5242 460.9826
1404.9316 495.726
1393.8512 530.77185
1372.7944 560.1483
1350.7201 600.80994
1401.5394 598.4822
1436.4963 563.8751
1454.6964 600.33264
1474.7861 638.80615
1448.9275 649.0708
1467.094 636.5915
1477.6589 626.3096
1485.8616 634.1132
1479.7744 635.2346
1483.454 640.94
1492.856 637.1326
1495.5282 632.33514
1499.2717 629.1809
1490.0476 629.444
1495.5546 643.3993
1500.1499 641.64435
1504.203 640.6832
1499.0232 649.00806
1488.4653 668.4388
1478.3678 697.10864
1517.9406 683.9524
1522.8231 710.7114
1557.2969 717.3347
1568.0466 718.1748
1563.5985 713.548
1561.8667 708.5942
1555.5593 709.247
1557.7902 703.17993
1550.7073 701.5956
1553.3958 696.3578
1559.0376 696.2245
1564.5325 704.4992
1567.847 701.0676
1567.239 693.71387
1570.8513 689.7265
1575.8406 689.28845
1571.6089 695.73096
1577.8958 697.1864
1574.2872 699.32886
1574.4182 703.3428
1572.2493 706.8562
1569.6537 710.7241
1574.6113 714.88464
1580.3519 717.739
1579.9781 709.3041
1581.0531 703.796
1586.7847 705.5149
1585.622 713.8783
1591.4795 715.0671
1597.6576 715.5334
1597.0502 708.9723
1592.376 706.3302
1599.2339 701.914
1603.2974 708.0325
1604.4762 713.57904
1602.1362 717.97876
1607.4336 717.32983
1609.0581 711.5714
1611.0911 707.4536
1608.5115 703.5957
1604.1946 700.55945
1609.9011 698.5736
1614.2312 702.5763
1618.5114 706.0316
1623.4395 698.3713
1624.0348 703.52435
1624.3146 709.2563
1630.6189 710.24677
1612.567 718.1926
1614.7042 712.35004
1619.594 716.1813
1625.8933 715.06946
1632.9718 717.67645
1632.7985 712.9408
1637.0513 713.05756
1639.7512 717.416
1642.0496 710.24774
1648.2374 712.50476
1644.9121 713.6547
1644.3378 717.9658
1649.6653 718.68427
1651.2612 715.062
1654.7614 715.9475
1660.3306 717.3986
1658.533 712.5752
1655.321 709.1101
1651.6357 702.1147
1649.0222 706.87445
1640.9353 701.8551
1636.9263 706.53796
1630.2876 703.83
1634.7439 698.38306
1626.9319 695.6659
1619.4209 696.31903
1615.2639 694.27216
1609.3997 693.6598
1605.5399 691.0188
1601.3186 693.9159
1596.3325 691.6587
1591.1935 690.0952
1586.4099 689.4955
1591.0171 695.6157
1595.8842 698.75854
1592.0581 700.5879
1588.8159 701.042
1584.3868 698.46875
1582.9928 694.2807
1579.0232 692.1725
1581.9187 687.5194
1578.2195 683.6335
1575.0845 680.3374
1571.1826 684.3108
1568.6704 679.93604
1571.6897 676.729
1576.887 675.7362
1579.4382 676.6699
1574.8579 673.7677
1576.4214 668.9402
1571.81 671.0928
1566.606 673.38153
1562.029 680.0743
1564.6064 686.5143
1563.6184 696.9574
1561.221 689.7932
1556.5524 689.6923
1553.4436 687.0481
1552.1608 681.94995
1548.5701 677.6625
1545.1711 672.2447
1546.5579 668.9744
1545.5522 665.55237
1540.9773 661.2911
1541.2882 655.29944
1543.9897 658.3331
1547.3293 656.5265
1547.5038 660.1725
1549.1902 663.89777
1551.8636 670.0969
1556.5051 675.76514
1560.8755 670.59204
1561.0607 665.12463
1557.0747 662.7987
1555.8286 658.89575
1551.6981 658.081
1553.9369 651.70355
1557.9832 654.7451
1561.4371 654.2663
1564.2336 650.42017
1568.2544 652.161
1575.6722 650.36
1571.4254 648.53546
1568.8307 644.51733
1564.1804 645.61127
1559.6218 648.51685
1558.8501 643.4787
1558.3516 635.8514
1562.4061 636.7808
1562.5908 641.02966
1566.9346 640.6293
1567.1235 636.11
1567.7291 630.62103
1564.6562 627.82495
1562.8073 632.3685
1553.7761 633.6582
1556.2358 630.73254
1559.3154 629.8523
1560.6138 626.0807
1558.9451 622.60205
1557.0016 618.40186
1553.9993 625.82263
1548.7141 625.55676
1549.9391 620.8721
1551.0386 615.1531
1549.0966 606.8861
1546.8552 610.94617
1542.5853 611.69543
1538.6204 611.5753
1536.4717 607.0552
1534.916 611.78394
1539.3348 617.36633
1544.5599 618.15735
1538.9244 623.9435
1544.1185 625.478
1550.3877 629.70123
1547.3678 631.9107
1544.2502 634.79114
1540.8892 639.4863
1541.9766 645.3831
1546.6971 652.49036
1548.3441 647.26447
1553.992 645.59705
1555.5511 640.41833
1552.166 637.30853
1548.6941 638.6748
1547.4762 641.6903
1544.4401 642.9246
1537.8267 634.7325
1540.5227 629.8164
1533.8904 625.36633
1531.6956 629.44104
1529.7134 634.4586
1532.6261 639.44653
1533.5697 644.1
1536.712 645.7101
1539.9312 648.3485
1539.0139 651.4944
1536.7855 655.47876
1536.8579 659.39453
1533.8964 657.6872
1530.699 658.1107
1533.5264 661.29626
1536.0259 664.73694
1538.3555 667.37756
1542.2473 666.81555
1539.2041 672.16724
1541.9724 676.4507
1543.5027 680.8819
1544.6061 685.1374
1547.7635 687.57495
1547.3484 693.0973
1544.3755 697.911
1540.979 692.4186
1540.2323 686.8624
1539.1914 681.9944
1535.914 678.2931
1533.491 672.78015
1530.3931 668.2606
1530.2322 663.4738
1523.1337 664.84485
1527.2968 658.5047
1524.1041 657.6655
1527.3959 652.9173
1532.4465 652.18164
1529.5544 647.99347
1526.5106 646.02704
1525.415 639.3127
1522.0828 642.0593
1519.3663 644.6979
1522.0784 647.1019
1523.8623 649.80707
1520.5679 652.16626
1523.7377 653.8672
1519.8749 658.18835
1514.858 653.5315
1516.4253 647.95447
1511.0845 648.1134
1505.6985 648.1293
1509.2915 642.5782
1513.0978 640.3421
1516.6694 641.15955
1518.687 634.7179
1523.1987 630.3618
1523.7264 624.45996
1529.1213 624.36206
1528.7632 621.3528
1527.448 618.5628
1533.703 620.09656
1536.001 615.76324
1532.4246 615.1522
1528.8436 613.7384
1531.907 609.097
1529.1846 605.5995
1530.3916 602.10785
1523.007 602.29504
1525.6866 608.3655
1520.4337 609.0907
1523.785 613.741
1521.2599 618.8775
1517.4286 620.4721
1514.4388 622.0868
1509.7811 623.1656
1514.5133 628.07764
1512.4691 633.8832
1509.2139 637.3771
1504.5094 634.53577
1504.6392 629.6598
1504.6029 624.3414
1511.7 616.04675
1515.6138 613.02124
1513.7783 605.7248
1513.5187 599.12213
1506.0447 600.65216
1506.9982 608.05347
1505.6116 614.4487
1499.0737 618.6679
1494.971 624.35004
1499.5433 612.0889
1495.2605 603.2313
1490.0056 569.7739
1511.0387 554.4694
1521.0273 539.7776
1512.5764 535.8415
1510.7145 530.52716
1514.7385 527.5205
1508.6061 526.2981
1505.9774 531.8287
1500.1364 527.9399
1503.3604 522.3835
1503.7898 516.09094
1510.7979 522.03613
1512.9587 518.6007
1517.8638 515.69165
1518.0209 521.16125
1521.4827 523.5923
1521.6283 527.963
1520.6138 533.01825
1527.2844 534.22046
1527.4578 542.95703
1532.241 535.67114
1536.6787 535.1475
1542.3772 535.8655
1548.1663 532.4516
1554.0643 532.5547
1556.0865 526.8417
1561.0724 524.5394
1555.359 520.5875
1547.7933 521.0776
1549.7692 527.202
1542.6188 528.39685
1536.6578 527.6695
1529.6125 524.9935
1526.8789 518.72864
1523.7244 514.0141
1527.4692 511.20004
1525.7264 506.32574
1520.5061 509.05
1516.332 506.94806
1511.833 510.5477
1507.2391 509.9421
1502.7311 509.22705
1497.6349 512.342
1498.301 505.25122
1504.0813 498.0407
1505.3188 503.53394
1511.3097 504.52386
1513.335 497.6987
1507.4867 494.42807
1503.9609 493.7529
1498.783 493.20847
1492.1609 494.14752
1496.7449 498.6062
1490.6575 502.74802
1490.5667 510.5036
1484.6671 509.87164
1478.6311 513.5311
1492.1519 521.1576
1485.8181 530.9474
1453.4878 526.5664
1469.7053 509.71118
1477.0809 505.89398
1479.9465 502.31342
1481.0747 497.08594
1482.6841 490.83676
1474.1975 499.7999
1469.2649 504.2761
1461.0245 502.45456
1448.4004 494.51794
1447.4614 482.41064
1447.1898 473.43854
1438.5254 478.02597
1435.9734 469.05185
1440.372 463.35492
1445.9861 458.79968
1450.6976 454.26862
1453.7605 447.77643
1457.2031 442.6439
1460.8003 446.421
1461.1113 451.1051
1468.4252 451.7458
1472.4844 455.69006
1463.8502 457.64865
1469.5408 458.3663
1468.9602 462.3285
1463.1038 462.3132
1466.6035 465.51447
1469.6862 475.2621
1471.8926 468.71603
1476.3234 462.36023
1481.0836 466.59875
1487.9102 468.06763
1494.1704 473.0208
1481.145 471.72946
1486.1367 476.2613
1488.5657 480.34897
1494.432 479.50156
1498.2319 482.60797
1502.8761 478.5747
1502.8779 469.53784
1508.4849 472.31674
1514.1321 473.63522
1513.331 467.37305
1518.4978 470.42615
1522.7606 468.1046
1526.1471 465.11407
1530.3286 464.08798
1525.138 471.94308
1531.7194 471.6881
1536.2339 468.83838
1535.9602 461.75745
1542.1351 460.3523
1536.9316 453.78418
1545.9377 452.5534
1552.136 455.3762
1557.5261 457.62335
1564.2101 455.86084
1567.4801 452.08008
1573.1954 449.76776
1571.4684 444.12924
1575.5492 440.27014
1570.9412 437.09543
1567.5825 440.16888
1565.4146 447.1764
1564.6233 440.25897
1561.5156 440.86035
1560.2092 443.4613
1557.4944 448.7291
1550.5688 448.7811
1546.1562 444.6463
1553.4832 445.677
1552.8075 440.85638
1558.7212 436.16168
1562.2572 437.6377
1560.786 432.2303
1563.3491 421.74203
1566.8022 421.24268
1570.5902 423.32172
1574.6743 418.89056
1571.6793 415.03326
1567.4795 416.93732
1563.7856 413.36215
1561.3683 417.9199
1557.8156 418.22595
1555.7393 415.36667
1552.326 412.20386
1545.8418 414.33347
1544.1978 421.54526
1540.3923 427.6172
1536.7761 424.33508
1533.0569 429.35352
1538.7456 432.32483
1544.3889 431.93744
1548.1206 436.3509
1552.8303 432.44812
1555.6792 428.4597
1549.7915 426.78723
1552.3685 421.97748
1557.7662 420.63486
1558.2651 423.64264
1562.0444 426.90656
1566.681 430.79425
1571.1035 428.54248
1582.0603 420.60297
1592.6052 412.04828
1599.537 413.33313
1584.9989 414.50793
1578.5836 415.38168
1578.0941 425.77573
1574.5906 431.84848
1578.4271 433.8492
1580.2341 438.00995
1586.105 436.21274
1593.0319 432.67407
1587.2848 427.0581
1593.0006 423.14047
1601.7274 423.53204
1609.227 421.84775
1607.277 418.79077
1605.4763 415.27155
1615.3005 415.76743
1621.9917 411.7865
1622.0787 405.14227
1628.2084 410.42172
1631.2737 408.03027
1631.6306 403.6394
1639.7222 404.08075
1635.9775 398.41693
1643.3694 397.315
1645.1096 403.94623
1644.5823 409.27817
1643.8105 414.45618
1643.5485 419.51147
1637.3939 409.06012
1635.5638 414.10846
1636.3906 419.70203
1638.7563 426.36395
1631.7129 424.2365
1627.4897 421.58224
1627.1127 416.80624
1620.7981 417.956
1615.971 426.02197
1608.8062 425.11737
1609.9163 429.19064
1613.0552 432.41675
1611.8678 436.55408
1607.1594 436.957
1609.7108 439.84595
1613.1123 441.8321
1618.6825 441.0288
1619.2798 434.3552
1622.979 428.19983
1627.1805 432.3475
1629.9106 438.26584
1624.7468 439.1867
1620.5317 446.05087
1620.683 451.714
1625.236 456.53064
1631.0815 459.0305
1636.0205 460.79846
1637.2828 466.54285
1636.8564 474.10785
1630.9069 479.12012
1633.2521 485.54358
1636.4873 491.71957
1640.8711 487.57785
1642.5541 481.3853
1647.2451 475.68808
1644.918 467.76776
1649.9553 464.03845
1642.4263 459.97424
1651.5319 454.97263
1662.5095 455.3154
1658.7595 461.7219
1658.1545 467.59143
1664.7509 465.9212
1667.7896 471.5752
1673.7461 466.13934
1678.5757 465.43893
1680.6469 459.94907
1674.6742 459.1717
1668.9875 460.64316
1672.2476 453.25705
1676.3793 451.5739
1678.917 449.9931
1680.7926 451.63885
1681.7574 447.37372
1679.097 455.67856
1684.5186 462.90643
1688.5049 467.17963
1682.1924 470.7641
1676.6357 473.16528
1670.7437 477.88837
1671.6083 484.12997
1666.0092 486.72055
1660.7131 487.0448
1660.2238 482.59552
1660.8501 477.1496
1653.3729 472.72827
1652.2319 478.3331
1652.7004 482.19418
1655.2129 487.37946
1648.179 488.4574
1649.3309 493.18408
1652.3712 496.5095
1660.7488 492.08325
1667.1233 492.17365
1667.3323 496.07248
1670.1837 498.4074
1671.5767 502.44086
1669.6829 506.1952
1667.6339 509.44495
1662.8495 505.8576
1661.5853 499.41476
1658.4034 508.28036
1656.1793 512.9036
1650.5917 511.43243
1645.7081 513.21265
1640.0955 507.19574
1644.8783 504.2436
1652.0458 504.74487
1656.0311 499.2655
1646.8843 499.12372
1643.2354 493.56564
1638.8174 499.27316
1632.133 495.98972
1630.9984 505.48474
1633.191 512.7805
1627.0857 514.99
1623.2703 518.55194
1617.125 521.3541
1622.3348 528.2533
1623.4387 523.5824
1631.1954 522.49164
1636.6997 522.72534
1641.4333 519.35364
1641.0221 532.917
1641.3083 538.7827
1645.6616 542.7196
1649.3969 536.64984
1652.0796 543.9434
1655.4225 549.67615
1656.7783 557.1475
1661.46 555.70276
1667.0721 554.8734
1668.7523 550.58264
1673.596 552.27246
1678.0034 554.06146
1683.1892 557.69617
1686.3392 563.0166
1688.5461 569.26935
1688.5935 572.94073
1685.4773 574.6114
1681.8257 574.04956
1678.8629 575.6548
1674.4457 575.38007
1669.3486 573.07367
1673.5697 568.85583
1674.5873 564.69806
1680.7773 568.7527
1679.319 562.3715
1672.865 559.6184
1666.8386 560.09985
1667.4661 566.28564
1662.6406 563.3402
1657.3187 563.872
1648.0183 578.7754
1639.8041 602.3349
1652.0588 625.59753
1669.9016 595.19354
1672.3715 583.7635
1676.97 581.1953
1682.3965 579.73413
1686.829 582.7189
1687.0968 578.13513
1691.188 578.30237
1694.4106 580.9946
1699.014 582.3491
1703.1176 581.8911
1704.9829 586.0768
1708.0642 581.1776
1703.4045 575.55927
1697.251 572.9024
1698.8076 565.59094
1692.6116 564.82733
1692.89 555.73645
1686.0321 551.10364
1689.0696 542.18805
1684.3081 543.43604
1691.5928 534.2644
1695.2025 539.982
1695.0938 546.29517
1696.0381 551.57446
1699.9788 549.38
1704.4585 551.2362
1710.7999 551.0996
1708.7921 543.0348
1702.4915 544.3934
1704.025 534.7258
1699.7534 530.44934
1703.2805 524.3368
1705.0616 528.04364
1708.2576 524.2525
1710.0378 531.66565
1709.1244 528.34576
1718.9094 524.7372
1710.189 520.43713
1702.3335 519.5366
1705.2468 512.83154
1697.5366 512.57434
1702.0192 504.45517
1694.0007 494.2805
1696.6338 500.03027
1701.3029 498.6545
1704.353 495.5724
1706.873 496.81174
1709.5337 497.68344
1714.2162 496.0019
1710.7959 490.63022
1704.6687 484.64178
1700.7993 478.43762
1692.7859 478.6413
1685.0328 479.90552
1688.2784 474.2929
1693.3025 471.91513
1697.436 471.61328
1702.1385 471.62143
1702.5441 464.02826
1707.3909 464.01862
1708.349 471.39557
" />
</g></g></svg>
