<?xml version="1.0" encoding="UTF-8" standalone="no"?>
<!-- Created with Inkscape (http://www.inkscape.org/) -->

<svg
   xmlns:dc="http://purl.org/dc/elements/1.1/"
   xmlns:cc="http://creativecommons.org/ns#"
   xmlns:rdf="http://www.w3.org/1999/02/22-rdf-syntax-ns#"
   xmlns:svg="http://www.w3.org/2000/svg"
   xmlns="http://www.w3.org/2000/svg"
   xmlns:sodipodi="http://sodipodi.sourceforge.net/DTD/sodipodi-0.dtd"
   xmlns:inkscape="http://www.inkscape.org/namespaces/inkscape"
   sodipodi:docname="rdc003.svg"
   inkscape:version="0.48.2 r9819"
   version="1.1"
   id="svg3783"
   height="1052.3622047"
   width="744.09448819">
  <sodipodi:namedview
     id="base"
     pagecolor="#ffffff"
     bordercolor="#666666"
     borderopacity="1.0"
     inkscape:pageopacity="0.0"
     inkscape:pageshadow="2"
     inkscape:zoom="0.49497475"
     inkscape:cx="35.402381"
     inkscape:cy="780.45238"
     inkscape:document-units="px"
     inkscape:current-layer="layer1"
     showgrid="false"
     inkscape:window-width="1024"
     inkscape:window-height="748"
     inkscape:window-x="45"
     inkscape:window-y="-16"
     inkscape:window-maximized="0" />
  <defs
     id="defs3785">
    <inkscape:perspective
       sodipodi:type="inkscape:persp3d"
       inkscape:vp_x="-314.90439 : 155.3937 : 0"
       inkscape:vp_y="0 : 1000 : 0"
       inkscape:vp_z="372.04724 : 175.3937 : 0"
       inkscape:persp3d-origin="334.90438 : 296.50168 : 1"
       id="perspective3823" />
  </defs>
  <metadata
     id="metadata3788">
    <rdf:RDF>
      <cc:Work
         rdf:about="">
        <dc:format>image/svg+xml</dc:format>
        <dc:type
           rdf:resource="http://purl.org/dc/dcmitype/StillImage" />
        <dc:title></dc:title>
      </cc:Work>
    </rdf:RDF>
  </metadata>
  <g
     inkscape:label="Layer 1"
     inkscape:groupmode="layer"
     id="layer1">
    <rect
       style="fill:none;stroke:#000000;stroke-width:0.91610378;stroke-opacity:1"
       id="rect4319"
       width="516.12524"
       height="779.49591"
       x="7.8454075"
       y="12.284647" />
    <flowRoot
       xml:space="preserve"
       id="flowRoot3475"
       style="fill:black;stroke:none;stroke-opacity:1;stroke-width:1px;stroke-linejoin:miter;stroke-linecap:butt;fill-opacity:1;font-family:Sans;font-style:normal;font-weight:normal;font-size:40px;line-height:125%;letter-spacing:0px;word-spacing:0px"><flowRegion
         id="flowRegion3477"><rect
           id="rect3479"
           width="474.7717"
           height="76.771591"
           x="40.406101"
           y="840.23016" /></flowRegion><flowPara
         id="flowPara3481" /></flowRoot>    <path
       style="font-size:40px;font-style:normal;font-weight:normal;line-height:125%;letter-spacing:0px;word-spacing:0px;fill:none;stroke:#000000;stroke-width:2.10565042;stroke-opacity:1;font-family:Sans"
       d="m 500.55118,203.50632 -29.03045,0 0,-15.2809 -10.63798,0 c 0.011,-0.51155 0.0326,-1.02651 0.0326,-1.56392 l 0,-26.73343 -60.29275,0 0,7.98256 26.7823,0 0,9.25325 c -3e-5,2.05627 -0.1014,3.52633 -0.29324,4.43114 -0.30164,1.23373 -0.82886,2.45646 -1.59652,3.64916 -0.58479,0.90845 -1.51386,1.8928 -2.76946,2.98124 l -2.99752,0 0,-8.12917 -60.29276,0 0,7.98256 26.76601,0 0,9.25325 c -2e-5,2.05627 -0.0851,3.52633 -0.27695,4.43114 -0.30164,1.23374 -0.84515,2.45646 -1.61281,3.64916 -0.76772,1.19262 -2.10466,2.53217 -4.02385,4.04015 -1.91923,1.50792 -4.68932,3.43648 -8.30838,5.767 l -12.54402,7.98255 0,10.03523 16.40497,-10.49137 c 3.20781,-2.08377 5.89287,-4.29999 8.03143,-6.63042 0.98701,-1.09674 1.98308,-2.69471 2.99754,-4.80581 0.79509,5.78501 2.65411,10.06804 5.58779,12.83725 2.93364,2.76909 6.54003,4.15413 10.81718,4.15419 3.31745,-6e-5 6.34855,-0.83639 9.09034,-2.5088 2.74168,-1.67251 4.65137,-3.91535 5.7344,-6.71187 1.08292,-2.79662 1.62904,-6.87702 1.62911,-12.25079 l 0,-6.14168 c 1.93053,-1.44422 3.62785,-2.94392 5.08277,-4.4963 l 4.3008,0 c 1.0045,3.30017 2.5088,5.89562 4.51259,7.78707 1.31111,1.23757 2.75371,2.19891 4.33339,2.8835 -0.0357,1.33378 -0.11625,2.34894 -0.26066,3.03011 -0.30163,1.23375 -0.84514,2.44017 -1.6128,3.63288 -0.76772,1.19262 -2.10467,2.54846 -4.02386,4.05644 -0.87412,0.6868 -1.94977,1.47007 -3.17673,2.3296 l -3.76321,0 0,2.54139 c -0.45344,0.29713 -0.88465,0.58446 -1.36843,0.89601 l -12.54403,7.96627 0,10.03521 16.40498,-10.47507 c 1.48416,-0.96411 2.8473,-1.96225 4.10532,-2.98124 l 9.3347,0 c 0.86133,1.7287 1.92485,3.18427 3.17673,4.36596 2.17985,2.0576 4.7348,3.3484 7.65674,3.87725 l 0,1.01004 c -10e-6,0.79205 -0.0203,1.46404 -0.0488,2.08524 l -11.59915,7.37979 0,6.72816 c -0.80432,0.53524 -1.66162,1.10674 -2.57397,1.69426 l -12.54402,7.96627 0,10.03521 16.40498,-10.47507 c 3.20781,-2.08377 5.87657,-4.29998 8.01514,-6.6304 0.987,-1.09676 1.99936,-2.69473 3.01382,-4.80583 0.7951,5.78502 2.65411,10.06804 5.58779,12.83725 2.93363,2.7691 6.54004,4.13783 10.81718,4.13791 3.31745,-8e-5 6.34856,-0.8364 9.09034,-2.50882 2.74169,-1.67249 4.65138,-3.89905 5.73441,-6.69557 0.71293,-1.84114 1.19001,-4.25877 1.43361,-7.21689 2.8771,-0.17044 5.52387,-0.99637 7.94997,-2.47621 2.74169,-1.67251 4.65137,-3.89907 5.73442,-6.69559 1.08291,-2.79662 1.62903,-6.8933 1.62909,-12.26707 z m -6.66299,7.98257 0,19.09297 c -4e-5,4.46899 -0.93254,7.73708 -2.76946,9.80714 -1.53944,1.73466 -3.43629,2.71872 -5.68554,2.99753 l 0,-23.47524 -11.5014,0 0,-8.4224 z m -15.11799,16.40497 0,14.04278 c -0.0267,-0.0169 -0.0547,-0.0317 -0.0815,-0.0488 -1.65877,-1.06933 -2.86264,-2.63554 -3.61659,-4.69179 -0.75401,-2.05636 -1.14039,-4.90627 -1.14037,-8.55274 l 0,-0.74938 z m -0.27694,22.88877 c -0.3941,2.56147 -1.22812,4.57018 -2.49251,5.99506 -1.83701,2.06996 -4.17003,3.11151 -7.0214,3.11157 -1.94667,-6e-5 -3.74987,-0.54357 -5.40859,-1.61281 -1.65877,-1.06932 -2.86264,-2.63554 -3.61659,-4.69178 -0.75401,-2.05637 -1.14038,-4.90628 -1.14036,-8.55275 l 0,-0.3584 c 2.2642,-1.63836 4.22665,-3.3466 5.86473,-5.13164 0.987,-1.09675 1.98307,-2.71101 2.99753,-4.82213 0.79511,5.78503 2.67041,10.06806 5.60408,12.83727 1.55006,1.46312 3.2877,2.53542 5.21311,3.22561 z m -13.63552,-54.59094 0,7.31463 -8.56903,0 c 1.32402,-1.31119 2.32063,-2.84622 2.99754,-4.59404 0.30876,-0.7974 0.57697,-1.71422 0.79825,-2.72059 z m 0,15.2972 0,3.79578 c -10e-6,1.71749 -0.13636,3.2637 -0.40727,4.62662 l -18.96264,0 c -0.37994,-1.78936 -0.57021,-3.96997 -0.5702,-6.56524 l 0,-1.85716 z m -10.60539,-43.57826 0,19.07668 c -10e-6,0.42879 -0.0157,0.83144 -0.0326,1.23811 l -19.79348,0 c -0.0727,-0.98403 -0.11405,-2.03721 -0.11404,-3.17672 l 0,-17.13807 z m -2.28073,28.28106 c -0.15204,0.20841 -0.30515,0.41424 -0.47244,0.60277 -1.7366,1.95682 -3.93794,2.98762 -6.58155,3.09528 l 0,-3.69805 z m -13.24454,23.7196 -0.30953,0 c 0.0806,-0.16173 0.16352,-0.30419 0.24437,-0.47243 0.0221,0.16093 0.0414,0.31386 0.0652,0.47243 z m -0.7168,-23.7196 0,1.30328 c -0.43851,-0.38932 -0.83302,-0.82416 -1.18923,-1.30328 z m -24.92513,-8.11288 0,0.14661 -1.85717,0 0,7.96627 0.14662,0 -10.75201,6.8422 0,10.03521 12.46256,-7.96626 0,2.05266 c -4e-5,4.46898 -0.91626,7.73707 -2.75317,9.80714 -1.83701,2.06995 -4.18632,3.11151 -7.03768,3.11157 -1.94668,-6e-5 -3.74987,-0.54357 -5.40859,-1.61281 -1.65877,-1.06932 -2.86265,-2.61925 -3.6166,-4.6755 -0.754,-2.05636 -1.12408,-4.92257 -1.12406,-8.56903 l 0,-17.13806 z"
       id="path4140"
       inkscape:connector-curvature="0"
       sodipodi:nodetypes="ccccccccccccccccccccccccccccscccccccscccccccccccccscscccccccccscccccccccsccccccccccscccccccscccsccccccccsccscccsccscccccccccccccccccccccccsccccscc" />
    <path
       style="font-size:40px;font-style:normal;font-weight:normal;line-height:125%;letter-spacing:0px;word-spacing:0px;fill:none;stroke:#000000;stroke-width:2.10565042;stroke-opacity:1;font-family:Sans"
       d="m 466.22426,326.73152 c -6e-5,-8.49939 -2.84224,-15.42976 -8.50387,-20.80353 -5.66171,-5.3738 -13.48424,-8.06401 -23.49153,-8.06401 -1.24032,0 -2.47156,0.069 -3.68175,0.1955 -1.31984,-4.59944 -3.75415,-8.58827 -7.29834,-11.95755 0.24632,-1.59224 0.37468,-3.24236 0.37469,-4.93616 -6e-5,-8.49938 -2.82594,-15.42976 -8.48757,-20.80353 -5.66172,-5.3738 -13.50053,-8.06401 -23.50782,-8.06401 -5.29157,0 -10.30966,1.15064 -15.05283,3.45368 -4.74321,2.30304 -8.4827,5.69652 -11.22445,10.16554 -2.74173,4.469 -4.10532,9.54032 -4.10532,15.21574 0,5.23666 1.23305,10.10535 3.71434,14.62926 1.27278,2.32055 2.85102,4.37847 4.74065,6.15798 -0.24686,1.59086 -0.37469,3.23705 -0.37469,4.93615 0,5.23667 1.24935,10.12165 3.73063,14.64555 2.48125,4.5238 6.13834,8.02376 10.9638,10.49136 4.82542,2.46751 10.2909,3.69798 16.40497,3.69804 1.59952,-10e-6 3.14998,-0.0955 4.6592,-0.26064 0.60469,2.02894 1.43255,4.01075 2.47623,5.9136 2.48125,4.5238 6.12205,8.00747 10.94751,10.47507 4.82542,2.46751 10.30719,3.69798 16.42126,3.69804 6.03179,-6e-5 11.41996,-1.15841 16.17691,-3.50255 4.75685,-2.34422 8.46718,-5.76173 11.1267,-10.2307 2.65944,-4.46908 3.99122,-9.48715 3.99128,-15.05283 z m -6.87477,0.0488 c -7e-5,3.97548 -0.9987,7.55787 -3.01383,10.75201 -2.01521,3.19409 -4.86,5.62324 -8.52016,7.28206 -3.66025,1.65867 -7.94588,2.49245 -12.85354,2.49251 -7.75914,-6e-5 -13.74666,-1.95265 -17.96891,-5.83216 -2.34215,-2.15206 -4.02355,-4.62279 -5.06648,-7.42866 1.62242,-0.5059 3.1785,-1.13577 4.6755,-1.87346 4.75686,-2.3442 8.46719,-5.74542 11.12671,-10.21439 2.65944,-4.46907 3.99122,-9.48715 3.99128,-15.05283 0,-0.24621 -0.0116,-0.4895 -0.0163,-0.73309 0.77936,-0.0496 1.57628,-0.0815 2.39477,-0.0815 9.07511,0 15.55549,2.03762 19.43509,6.10911 3.8795,4.07146 5.8158,8.93239 5.81587,14.58038 z m -34.5205,-19.3699 c -0.0773,3.78498 -1.06356,7.21409 -2.99753,10.27958 -2.01521,3.19408 -4.86,5.62324 -8.52016,7.28205 -0.84361,0.38229 -1.72911,0.71549 -2.63913,1.01004 0.15376,-5.59623 2.23446,-10.26896 6.25572,-14.0265 2.20358,-2.05909 4.84079,-3.57128 7.9011,-4.54517 z m -1.27069,-7.86852 c -1.48565,0.48604 -2.94683,1.07873 -4.38227,1.77571 -4.7432,2.30304 -8.499,5.69652 -11.24073,10.16554 -2.74173,4.469 -4.10532,9.54032 -4.10532,15.21574 0,0.20732 0.0124,0.41286 0.0163,0.61905 -1.09429,0.0938 -2.22415,0.1466 -3.38851,0.14662 -7.75914,-6e-5 -13.74665,-1.93635 -17.96891,-5.81586 -4.22226,-3.87958 -6.33719,-8.82041 -6.33716,-14.82475 0,-0.154 0.0134,-0.3035 0.0162,-0.45614 4.76664,2.38666 10.14753,3.58393 16.16061,3.58399 6.03178,-6e-5 11.41996,-1.1747 16.17689,-3.51884 4.75691,-2.34421 8.46724,-5.74544 11.12677,-10.21441 0.37212,-0.62535 0.72255,-1.25922 1.04262,-1.90604 1.23759,1.62875 2.19573,3.3783 2.88349,5.22939 z m -6.79332,-18.3273 c 0,0.12152 -0.0144,0.2376 -0.0163,0.35839 -4.72329,-2.35387 -10.39542,-3.53513 -17.02403,-3.53513 -5.29157,0 -10.30966,1.15064 -15.05283,3.45368 -4.7432,2.30304 -8.48271,5.68022 -11.22445,10.14925 -0.41101,0.66995 -0.79063,1.35565 -1.14036,2.05266 -2.8305,-3.49175 -4.23566,-7.69304 -4.23565,-12.60918 -2e-5,-5.89475 2.09086,-10.78748 6.27201,-14.69443 4.18113,-3.90698 9.90504,-5.86474 17.17064,-5.86474 9.07511,0 15.53921,2.03762 19.4188,6.10911 3.8795,4.07147 5.83209,8.93239 5.83216,14.58039 z m -1.67797,8.17805 c -0.38699,0.88062 -0.8297,1.74586 -1.35214,2.57396 -2.01522,3.19409 -4.84371,5.62324 -8.50387,7.28205 -3.66026,1.65868 -7.94589,2.47616 -12.85355,2.47622 -5.83564,-5e-5 -10.68024,-1.0963 -14.51523,-3.29077 1.04363,-2.33316 2.55604,-4.44697 4.56147,-6.32088 4.18113,-3.90699 9.90503,-5.86473 17.17064,-5.86473 6.50105,0 11.65694,1.05423 15.49268,3.14415 z"
       id="path4177"
       inkscape:connector-curvature="0"
       sodipodi:nodetypes="csscccsssssscsscccscccccccccscccccsscccccscccssccssccccccccssscssssccccccsscc" />
    <path
       style="font-size:40px;font-style:normal;font-weight:normal;line-height:125%;letter-spacing:0px;word-spacing:0px;fill:none;stroke:#000000;stroke-width:2.10565042;stroke-opacity:1;font-family:Sans"
       d="m 498.27914,360.61401 -60.29276,0 0,15.55784 -4.04015,0 0,-9.5302 -60.29275,0 0,23.00281 c 0,3.83839 0.33831,7.07987 1.01004,9.72568 0.67172,2.64573 1.66521,4.84308 2.98124,6.59783 1.31603,1.75466 3.19393,3.22214 5.62037,4.41485 2.42643,1.1926 5.04453,1.79195 7.86852,1.79199 3.50941,-4e-5 6.56197,-0.97208 9.13922,-2.93237 2.57719,-1.96036 4.38814,-4.77594 5.45746,-8.42241 1.39824,2.82394 3.24696,4.93884 5.52263,6.33718 2.27559,1.39824 4.70479,2.10149 7.28205,2.10153 0.38473,0 0.76039,-0.0185 1.14036,-0.0488 0.66955,2.50377 1.62083,4.6047 2.8835,6.28829 1.31603,1.75466 3.19393,3.22215 5.62037,4.41485 2.42643,1.1926 5.04453,1.79196 7.86852,1.792 3.50941,-4e-5 6.56197,-0.98839 9.13922,-2.94866 2.57719,-1.96037 4.40444,-4.75966 5.47375,-8.40612 1.39824,2.82393 3.23067,4.93883 5.50634,6.33718 2.27559,1.39823 4.70479,2.10148 7.28205,2.10153 2.76911,-5e-5 5.41382,-0.78575 7.94998,-2.36219 2.53604,-1.57654 4.41654,-3.76616 5.63665,-6.54896 0.86413,-1.97113 1.40958,-4.41258 1.66168,-7.29834 1.33997,0.43305 2.7218,0.65161 4.15419,0.65164 2.76911,-5e-5 5.43012,-0.80204 7.96627,-2.37848 2.53604,-1.57654 4.40025,-3.74986 5.62037,-6.53266 1.22002,-2.78292 1.84081,-6.47178 1.84088,-11.07783 z m -7.11914,7.98255 0,12.05529 c -7e-5,4.33191 -0.28513,7.38963 -0.84713,9.1718 -0.56213,1.78208 -1.60626,3.14567 -3.12786,4.10532 -1.52171,0.95957 -3.27687,1.43355 -5.27826,1.4336 -1.11601,-3e-5 -2.1302,-0.13913 -3.04641,-0.42356 l 0,-18.76716 -5.91361,0 0,-7.57529 z m -19.4188,28.96529 c -0.0542,3.61795 -0.32958,6.23008 -0.83084,7.81964 -0.56212,1.78209 -1.60625,3.14568 -3.12786,4.10532 -1.52171,0.95957 -3.27686,1.43356 -5.27826,1.43361 -2.11119,-5e-5 -3.88003,-0.50325 -5.27826,-1.53135 -1.07436,-0.78998 -1.90385,-1.87752 -2.50881,-3.25819 0.25058,0.009 0.49575,0.0162 0.74939,0.0162 3.5094,-5e-5 6.54567,-0.98839 9.12292,-2.94867 2.57719,-1.96037 4.40444,-4.75966 5.47375,-8.40612 0.50204,1.01393 1.06356,1.93869 1.67797,2.76946 z m -5.91361,-28.96529 0,7.57529 -20.72207,0 0,-7.57529 z m -0.0163,15.55784 c -0.084,3.05603 -0.41963,5.45473 -0.99375,7.2006 -0.67174,2.04255 -1.82755,3.63795 -3.48626,4.78953 -1.65878,1.15148 -3.61653,1.7268 -5.86474,1.72685 -0.66711,-2e-5 -1.30928,-0.0511 -1.92232,-0.14663 -10e-4,-0.1861 -0.0163,-0.34559 -0.0163,-0.53759 l 0,-13.03276 z m -19.38621,0 0,8.35726 c -0.46024,-1.00221 -0.80718,-2.15535 -1.04263,-3.46997 -0.17704,-0.9614 -0.26471,-2.61703 -0.27694,-4.88729 z m -0.30953,19.40252 c -0.16663,1.30416 -0.39434,2.42486 -0.70051,3.35592 -0.67174,2.04255 -1.84385,3.63795 -3.50255,4.78954 -1.65879,1.15148 -3.61654,1.72679 -5.86474,1.72684 -1.91922,-5e-5 -3.59966,-0.39417 -5.06648,-1.18924 -1.46683,-0.79514 -2.58828,-1.81266 -3.35594,-3.04641 -0.42623,-0.68501 -0.78419,-1.45866 -1.07519,-2.3296 2.50462,-1.57359 4.36136,-3.75635 5.57149,-6.51637 1.22002,-2.78291 1.82453,-6.47178 1.82459,-11.07784 l 0,-5.11536 4.04015,0 c 0.0314,3.59545 0.37112,6.65522 1.01004,9.17181 0.67172,2.64573 1.66521,4.85937 2.98124,6.61412 1.03565,1.38083 2.4171,2.5854 4.1379,3.61659 z m -19.27218,-28.93271 0,1.54764 -8.27579,0 0,22.98651 c 0,0.75732 0.0227,1.48838 0.0488,2.19927 -0.34328,0.0313 -0.68452,0.0488 -1.04263,0.0488 -2.11119,-5e-5 -3.86374,-0.51954 -5.26197,-1.54764 -1.39832,-1.02818 -2.39437,-2.54892 -2.99753,-4.57775 -0.46613,-1.53539 -0.70053,-4.08736 -0.70051,-7.62416 l 0,-13.03275 z m 0,9.53019 0,2.5251 c -7e-5,4.3319 -0.28513,7.38963 -0.84713,9.1718 -0.0911,0.28886 -0.1931,0.56391 -0.30953,0.83084 l 0,-12.52774 z m -25.34869,-9.53019 0,13.94504 c -5e-5,3.83841 -0.32205,6.78706 -0.99375,8.82969 -0.67174,2.04254 -1.84385,3.63795 -3.50255,4.78953 -1.65879,1.15147 -3.61654,1.7268 -5.86474,1.72685 -1.91922,-5e-5 -3.61596,-0.41047 -5.08277,-1.20554 -1.46684,-0.79514 -2.57199,-1.79636 -3.33965,-3.03011 -0.76769,-1.23381 -1.31639,-2.77341 -1.64538,-4.61033 -0.19187,-1.04191 -0.29326,-2.84769 -0.29324,-5.42488 l 0,-15.02025 z"
       id="path4188"
       inkscape:connector-curvature="0"
       sodipodi:nodetypes="ccccccsscccccccccccccccccccccccccccccccccccccscccccccccccccccsccccccccccccscccccscccccsccscsccccccccccccccscsccc" />
    <path
       style="font-size:40px;font-style:normal;font-weight:normal;line-height:125%;letter-spacing:0px;word-spacing:0px;fill:none;stroke:#000000;stroke-width:2.10565042;stroke-opacity:1;font-family:Sans"
       d="m 488.1475,462.88264 c -6e-5,-8.49939 -2.82594,-15.44605 -8.48758,-20.81982 -3.34459,-3.17452 -7.45363,-5.40008 -12.31594,-6.69558 -0.24658,-0.25174 -0.49102,-0.50416 -0.74938,-0.74938 -5.66172,-5.37382 -13.50053,-8.06401 -23.50782,-8.06401 -5.29157,0 -10.30966,1.15062 -15.05283,3.45368 -1.57636,0.76538 -3.04371,1.6497 -4.39856,2.65541 -4.42952,-1.92055 -9.62412,-2.88348 -15.60672,-2.88348 -5.29155,0 -10.30966,1.15062 -15.05282,3.45368 -4.74321,2.30303 -8.499,5.6965 -11.24075,10.16554 -2.74173,4.46898 -4.10531,9.5403 -4.10531,15.21573 0,5.23667 1.23305,10.10535 3.71432,14.62926 2.48127,4.5238 6.13835,8.02375 10.96381,10.49136 4.82541,2.46751 10.2909,3.69799 16.40498,3.69805 6.03177,-6e-5 11.43624,-1.17471 16.19319,-3.51885 1.51943,-0.74879 2.93019,-1.60837 4.23564,-2.57396 1.39407,0.61165 2.83774,1.13277 4.33339,1.54763 1.96036,2.01108 4.28727,3.70961 6.97252,5.08278 4.82542,2.46751 10.29091,3.69797 16.40497,3.69804 6.03179,-7e-5 11.41997,-1.17471 16.17691,-3.51885 4.75685,-2.34421 8.46718,-5.74544 11.1267,-10.21441 2.65944,-4.46907 3.99122,-9.48714 3.99128,-15.05282 z m -6.85848,0.0325 c -7e-5,3.97549 -1.01498,7.55788 -3.03012,10.75202 -2.01521,3.19408 -4.85999,5.62324 -8.52016,7.28206 -3.66025,1.65867 -7.94588,2.49244 -12.85354,2.4925 -1.42548,-10e-6 -2.78309,-0.0811 -4.08903,-0.21177 2.53331,-0.5843 4.91953,-1.41709 7.16801,-2.5251 4.75686,-2.34422 8.46719,-5.76174 11.12671,-10.23071 2.65945,-4.46907 3.99122,-9.48715 3.99129,-15.05283 -2e-5,-2.99357 -0.35657,-5.784 -1.05892,-8.38982 0.50779,0.4096 0.99292,0.84079 1.4336,1.30326 3.8795,4.07147 5.83209,8.9324 5.83216,14.58039 z m -13.06533,-7.44496 c -7e-5,3.9755 -1.01499,7.55788 -3.03011,10.75202 -2.01522,3.19408 -4.86,5.62324 -8.52017,7.28205 -3.66025,1.65869 -7.92959,2.49245 -12.83725,2.49251 -2.53515,-2e-5 -4.88011,-0.22118 -7.03769,-0.63534 -0.3504,-0.43533 -0.6709,-0.87863 -0.97745,-1.33586 0.0671,-0.10934 0.14593,-0.21517 0.21177,-0.32581 2.65945,-4.46908 3.99122,-9.48715 3.99129,-15.05283 -3e-5,-3.66874 -0.54162,-7.04659 -1.59652,-10.13297 0.14364,-0.1417 0.29093,-0.28438 0.43986,-0.42356 4.18113,-3.90699 9.88875,-5.84845 17.15436,-5.84845 2.96623,0 5.65239,0.21874 8.06401,0.65164 2.74758,3.6366 4.13784,7.82347 4.1379,12.5766 z M 447.8926,435.00879 c -2.32367,0.57272 -4.58834,1.3893 -6.79332,2.45993 -2.32513,1.12895 -4.41227,2.52322 -6.25572,4.17048 -0.97514,-1.34119 -2.07136,-2.60744 -3.32335,-3.79578 -0.2247,-0.21328 -0.45268,-0.41426 -0.68422,-0.61906 3.40421,-1.62813 7.44832,-2.44364 12.13675,-2.44364 1.73918,0 3.3715,0.0786 4.91986,0.22807 z m -14.74329,23.68702 c -4e-5,1.66809 -0.18281,3.25901 -0.53761,4.78954 -0.006,-0.22635 -0.0163,-0.45474 -0.0163,-0.68422 0,-1.71504 0.18364,-3.33953 0.5376,-4.88729 0.008,0.25735 0.0163,0.52128 0.0163,0.78197 z m -3.17674,-11.22445 c -0.0311,0.0499 -0.067,0.0964 -0.0978,0.14662 -2.74174,4.46899 -4.12162,9.54031 -4.12162,15.21573 0,2.8337 0.3626,5.56809 1.09149,8.19434 -0.34068,-0.272 -0.6734,-0.5528 -0.99375,-0.84713 -4.22227,-3.87957 -6.32089,-8.83669 -6.32087,-14.84104 -2e-5,-5.30108 1.70134,-9.78042 5.08277,-13.4726 1.0123,0.663 1.92614,1.41441 2.72058,2.24814 1.01619,1.06647 1.88913,2.18131 2.63914,3.35594 z m -8.25951,29.20965 c -0.0334,0.0153 -0.0642,0.0337 -0.0978,0.0488 -3.66025,1.65869 -7.94588,2.47616 -12.85354,2.47623 -7.75914,-7e-5 -13.74666,-1.93636 -17.96891,-5.81587 -4.22228,-3.87958 -6.3372,-8.82041 -6.33718,-14.82475 -2e-5,-5.89475 2.09087,-10.78747 6.27202,-14.69443 4.18112,-3.90698 9.90503,-5.86474 17.17064,-5.86474 3.64792,0 6.86839,0.33588 9.67682,0.99375 -0.26151,0.38292 -0.52017,0.77279 -0.76568,1.17295 -2.74172,4.46899 -4.10531,9.54031 -4.10531,15.21573 0,5.23668 1.23305,10.12165 3.71434,14.64556 1.3957,2.54463 3.15609,4.75599 5.29455,6.6467 z"
       id="path4248"
       inkscape:connector-curvature="0"
       sodipodi:nodetypes="cscssscssssscccccccccccccccccccscccccccccccscccscscscccscccsscsscsccscsssscssscc" />
    <path
       style="font-size:40px;font-style:normal;font-weight:normal;line-height:125%;letter-spacing:0px;word-spacing:0px;fill:none;stroke:#000000;stroke-width:2.10565042;stroke-opacity:1;font-family:Sans"
       d="m 468.47392,516.5177 -2.41106,0 0,-12.25078 -7.11913,0 0,19.85865 -27.5154,0 0,-33.34755 -7.11914,0 0,19.85866 -0.43985,0 0,-20.05414 -7.10285,0 0,19.85864 -53.1899,0 0,7.98257 7.55899,0 0,0.19548 45.63091,0 0,5.50634 -10.99638,0 0,7.98256 10.99638,0 0,4.26823 -8.58532,0 0,7.98255 50.76256,0 0,7.68933 2.42734,0 0,12.25078 7.10285,0 z m -9.53019,15.59043 0,4.26823 -27.5154,0 0,-4.26823 z m -34.63454,-13.4889 0,5.50634 -0.43985,0 0,-5.50634 z m 0,13.4889 0,4.26823 -0.43985,0 0,-4.26823 z"
       id="path4259"
       inkscape:connector-curvature="0"
       sodipodi:nodetypes="cccccccccccccccccccccccccccccccccccccccccccccc" />
    <path
       style="font-size:40px;font-style:normal;font-weight:normal;line-height:125%;letter-spacing:0px;word-spacing:0px;fill:none;stroke:#000000;stroke-width:2.10565042;stroke-opacity:1;font-family:Sans"
       d="m 450.09775,573.71821 -60.29276,0 0,7.46126 -3.27448,0 0,7.98255 60.29276,0 0,-7.46124 3.27448,0 z m -5.45746,-18.21326 -23.99655,0 0,-1.88975 -60.29276,0 0,7.98255 23.99654,0 0,1.87346 60.29277,0 z"
       id="path4275"
       inkscape:connector-curvature="0"
       sodipodi:nodetypes="cccccccccccccccccc" />
    <path
       style="font-size:40px;font-style:normal;font-weight:normal;line-height:125%;letter-spacing:0px;word-spacing:0px;fill:none;stroke:#000000;stroke-width:2.10565042;stroke-opacity:1;font-family:Sans"
       d="m 484.0348,623.90641 c -4e-5,-5.319 -1.22281,-10.1851 -3.64917,-14.61297 -2.42649,-4.4279 -5.97969,-7.848 -10.65428,-10.24699 -4.6747,-2.39903 -10.14273,-3.6003 -16.42126,-3.6003 -4.11375,0 -8.04307,0.54271 -11.77834,1.62909 -4.23056,-1.79458 -9.05236,-2.70429 -14.48265,-2.70429 -5.75766,0 -11.14326,1.06819 -16.1606,3.19302 -3.38987,1.43559 -6.22718,3.32652 -8.53646,5.65295 -0.003,0.003 -0.0135,-0.003 -0.0163,0 -5.75152,0.002 -11.13172,1.05392 -16.14432,3.17674 -5.01738,2.12483 -8.85565,5.23064 -11.5014,9.30212 -2.64579,4.07144 -3.95869,9.35315 -3.95869,15.85108 0,6.27854 1.70707,11.58686 5.14793,15.93253 0.68535,0.86556 1.43935,1.68414 2.24815,2.44365 -0.65386,2.63373 -0.99375,5.5607 -0.99375,8.7971 0,6.27854 1.72336,11.58685 5.16423,15.93254 3.44086,4.34561 8.43492,7.36897 14.98766,9.04147 l 2.02005,-7.98256 c -5.07221,-1.09675 -8.90788,-3.1902 -11.48511,-6.2883 -2.57723,-3.09819 -3.86098,-6.88579 -3.86095,-11.35479 -1e-5,-1.34367 0.12217,-2.65099 0.37469,-3.92611 1.97366,0.96361 4.16259,1.7531 6.54896,2.36219 l 2.00378,-7.98256 c -1.99938,-0.43232 -3.79688,-1.01613 -5.40859,-1.75942 1.86976,-2.62011 4.50146,-4.59183 7.88481,-5.91361 1.76686,-0.6903 3.68962,-1.20883 5.73441,-1.58022 3.20371,3.75998 7.63132,6.46269 13.30969,8.09659 -0.24923,0.0864 -0.49192,0.17859 -0.74938,0.26066 l 1.85717,7.85223 c 5.56568,-1.61766 9.88052,-4.47278 12.95129,-8.58533 0.12048,-0.16136 0.22636,-0.34069 0.34211,-0.50501 0.17203,0.21929 0.34125,0.43845 0.50502,0.66793 2.22075,3.11185 3.33958,6.99817 3.33964,11.63173 -6e-5,4.03031 -0.99612,7.37569 -2.99752,10.03521 -2.00153,2.65944 -5.20863,4.6782 -9.59536,6.07652 l 1.85716,7.85223 c 5.56568,-1.61766 9.88051,-4.47278 12.95129,-8.58532 3.0707,-4.11265 4.6103,-9.18398 4.61034,-15.21574 -3e-5,-4.1216 -0.74237,-7.98004 -2.19928,-11.56656 1.42027,0.57116 2.93727,1.05579 4.54518,1.46619 l 0.73308,-2.8998 c 4.44239,-1.69255 7.9828,-4.29103 10.60541,-7.80335 3.07069,-4.11265 4.61029,-9.18398 4.61033,-15.21574 -4e-5,-5.319 -1.22281,-10.18511 -3.64917,-14.61297 -0.89283,-1.62925 -1.94696,-3.12544 -3.14415,-4.48001 0.77313,-0.0372 1.55675,-0.0652 2.36219,-0.0652 3.97548,0 7.84035,0.62855 11.58285,1.88975 3.74242,1.26118 6.72287,3.45337 8.94373,6.56525 2.22074,3.11185 3.32327,6.98189 3.32335,11.61543 -8e-5,4.03033 -0.99614,7.37571 -2.99754,10.03522 -2.00153,2.65945 -5.19232,4.69449 -9.57907,6.09281 l 1.85717,7.85223 c 5.56568,-1.61766 9.88051,-4.48907 12.9513,-8.60161 3.07069,-4.11265 4.61029,-9.18397 4.61033,-15.21574 z m -33.10318,-2.08524 c 0.008,0.28366 -1e-5,0.55753 0,0.84714 -7e-5,4.03031 -0.99613,7.37569 -2.99754,10.03521 -2.00152,2.65944 -5.19232,4.69449 -9.57907,6.09281 l 0.0488,0.1792 c -2.19332,-1.01512 -4.03248,-2.30224 -5.50633,-3.89354 0.11599,-1.09978 0.17919,-2.24881 0.1792,-3.42109 -4e-5,-5.30612 -1.21825,-10.16109 -3.63288,-14.58039 0.46252,-1.44317 1.0962,-2.83703 1.90604,-4.18677 1.8918,-3.15299 4.7443,-5.4783 8.56903,-6.97252 0.38314,-0.14969 0.77681,-0.28875 1.17295,-0.42357 2.62384,1.29952 4.80065,3.15113 6.51638,5.55521 2.08194,2.91737 3.19316,6.51352 3.32335,10.76831 z m -20.65691,-19.07669 c -1.81882,1.50801 -3.35623,3.24182 -4.62663,5.19681 -0.52407,0.80648 -0.99665,1.6562 -1.41731,2.55769 -1.6064,-1.42497 -3.42685,-2.65595 -5.45746,-3.69805 -1.57298,-0.80724 -3.23046,-1.46817 -4.98502,-2.00379 3.79625,-1.46119 8.22364,-2.19927 13.2934,-2.19927 1.07095,0 2.13897,0.055 3.19302,0.14661 z m -7.11913,30.30115 c -4.20833,-1.76844 -9.01063,-2.65542 -14.4012,-2.65542 -1.53016,0 -3.03471,0.078 -4.51259,0.22807 -1.32879,-2.50429 -1.98751,-5.35838 -1.98749,-8.56904 -2e-5,-3.67393 0.94282,-7.07772 2.83463,-10.2307 0.0529,-0.0881 0.10853,-0.17382 0.1629,-0.26065 2.9719,0.23116 5.87773,0.81934 8.71566,1.7757 3.23942,1.09168 5.91575,2.8651 8.01514,5.34343 -0.20381,1.61375 -0.30953,3.31501 -0.30953,5.11535 0,3.36433 0.49372,6.44493 1.48248,9.25326 z m -0.0326,8.6342 c -1.66169,2.14116 -4.11183,3.8714 -7.34721,5.18051 l 1.80829,-7.168 c 0.93846,0.23454 1.8615,0.50307 2.78575,0.81454 0.96732,0.32598 1.88762,0.72437 2.75317,1.17295 z m -26.08179,-29.94274 c -1.08687,3.16519 -1.62909,6.81893 -1.62909,10.98009 0,3.38931 0.49527,6.49337 1.49877,9.31841 -1.4697,0.42953 -2.90598,0.93374 -4.31711,1.53135 -4.77747,2.02324 -8.48261,4.94309 -11.11042,8.73194 -0.0198,-0.0235 -0.0454,-0.0415 -0.0652,-0.0652 -2.57723,-3.09819 -3.86097,-6.88579 -3.86095,-11.35479 -2e-5,-3.67393 0.94282,-7.07772 2.83462,-10.23071 1.89181,-3.15299 4.74431,-5.4783 8.56903,-6.97252 2.42996,-0.94936 5.12467,-1.59242 8.08031,-1.93861 z"
       id="path4299"
       inkscape:connector-curvature="0"
       sodipodi:nodetypes="ccsscssccscsscssccsccccccccccccccccccccccccccsscccccccscccccccscccscscscsccsccccscsccccsccscscccscc" />
    <path
       style="font-size:40px;font-style:normal;font-weight:normal;line-height:125%;letter-spacing:0px;word-spacing:0px;fill:none;stroke:#000000;stroke-width:2.10565042;stroke-opacity:1;font-family:Sans"
       d="m 345.57813,194.04735 -35.82376,0 c 0.61652,-1.34744 1.10916,-2.79863 1.46618,-4.34968 0.57571,-2.46761 0.86336,-6.0311 0.86342,-10.71944 l 0,-20.77094 -60.29276,0 0,21.7484 c 0,3.64646 0.3409,6.8828 1.02633,9.69311 0.68543,2.81022 1.70038,5.19651 3.03012,7.1843 1.32973,1.98769 3.14068,3.81752 5.45746,5.49004 2.31674,1.6724 5.24395,3.0523 8.78081,4.12162 0.32505,0.0983 0.65972,0.18782 0.99375,0.27694 l -50.17608,0 0,2.13411 -20.68949,0 0,12.70693 -0.27694,0 0,21.7484 c 0,3.64646 0.3409,6.88281 1.02632,9.69311 0.68544,2.81022 1.70037,5.19651 3.03011,7.18431 1.32975,1.98769 3.14069,3.81752 5.45747,5.49004 2.31675,1.6724 5.24396,3.05229 8.78082,4.1216 3.53679,1.06924 7.6069,1.59648 12.18561,1.59652 5.37375,-4e-5 10.13854,-0.78575 14.31974,-2.36219 4.18109,-1.57656 7.62521,-3.95506 10.31216,-7.13543 1.45503,-1.70399 2.59438,-3.64982 3.4211,-5.84845 2.5792,-0.39151 4.99626,-1.01378 7.23317,-1.85716 4.18109,-1.57656 7.60891,-3.95506 10.29588,-7.13544 1.35921,-1.59177 2.43129,-3.40031 3.2419,-5.42487 0.56976,0.4914 1.17789,0.96674 1.82457,1.43359 2.31675,1.6724 5.24396,3.0523 8.78082,4.12161 3.53679,1.06923 7.59061,1.59648 12.16933,1.59652 5.37375,-4e-5 10.15483,-0.78575 14.33602,-2.36219 2.07098,-0.78091 3.96485,-1.758 5.66925,-2.93237 2.89326,-0.37986 5.586,-1.03692 8.06401,-1.9712 4.18109,-1.57657 7.62521,-3.95506 10.31217,-7.13543 2.08364,-2.44018 3.52194,-5.39146 4.31709,-8.84598 0.57571,-2.46762 0.86336,-6.04739 0.86342,-10.73572 z m -7.11913,7.96626 0,12.67436 c -7e-5,4.74314 -0.41565,8.17358 -1.23812,10.31215 -1.15157,2.96104 -3.40733,5.48895 -6.79332,7.559 -0.0165,0.0103 -0.0323,0.0225 -0.0488,0.0326 0.22889,-0.69218 0.43277,-1.41185 0.60276,-2.1504 0.5757,-2.4676 0.86336,-6.04739 0.86342,-10.73572 l 0,-17.69197 z m -13.73326,4.90357 0,12.67436 c -6e-5,4.74314 -0.41565,8.17358 -1.23812,10.31216 -0.81773,2.10262 -2.20978,3.98332 -4.15418,5.63666 -1.09988,0.0752 -2.24756,0.11403 -3.45368,0.11404 -4.55131,-4e-5 -8.42134,-0.5247 -11.61544,-1.58022 -3.19413,-1.05561 -5.73237,-2.52309 -7.62416,-4.41484 -1.34346,-1.34349 -2.3876,-3.14671 -3.12785,-5.4086 -0.7403,-2.26195 -1.10781,-5.39179 -1.10779,-9.36729 l 0,-7.94997 c 0.022,-0.005 0.0433,-0.0111 0.0652,-0.0163 z m -19.76091,-40.74362 0,12.67434 c -6e-5,4.74315 -0.41564,8.18988 -1.23811,10.32846 -0.69405,1.78457 -1.78889,3.41118 -3.29077,4.87099 l -15.15057,0 0,4.90357 -11.82723,0 c -0.94164,-0.20529 -1.84141,-0.43704 -2.688,-0.7168 -3.19412,-1.05561 -5.73238,-2.52308 -7.62415,-4.41485 -1.34347,-1.34348 -2.3876,-3.14669 -3.12787,-5.40859 -0.74028,-2.26195 -1.10779,-5.3755 -1.10778,-9.35099 l 0,-12.88613 z m -6.23943,74.27037 c -3.10389,-0.20339 -5.83252,-0.68569 -8.19433,-1.46618 -3.19414,-1.05561 -5.73238,-2.52309 -7.62417,-4.41484 -0.69178,-0.69181 -1.30903,-1.50832 -1.84088,-2.44364 0.0752,-1.40474 0.11402,-2.94837 0.11404,-4.64292 l 0,-19.45137 c 0.36209,0.007 0.72281,0.0163 1.0915,0.0163 1.03043,-1e-5 2.02799,-0.04 3.01382,-0.0978 l 0,7.85223 c 0,3.64646 0.3409,6.86651 1.02633,9.67681 0.68544,2.81023 1.70037,5.2128 3.03011,7.2006 1.32974,1.98769 3.14068,3.81752 5.45747,5.49004 1.15837,0.8362 2.46261,1.59305 3.92611,2.28073 z m -25.02288,-6.51637 c -0.20498,1.51248 -0.48872,2.77264 -0.86342,3.74692 -1.15157,2.96103 -3.42362,5.48895 -6.8096,7.55899 -1.63743,1.00098 -3.62459,1.74907 -5.9462,2.26445 0.096,-1.54433 0.14659,-3.2658 0.14662,-5.18053 l 0,-5.84844 c 0.1816,-1.93332 0.2769,-4.20868 0.27695,-6.8422 l 0,-14.93878 11.04525,0 0,6.01135 c 0,3.64646 0.3409,6.88281 1.02633,9.69311 0.30887,1.26635 0.68436,2.43578 1.12407,3.53513 z m -20.31479,-17.08919 0,4.72437 -25.38128,0 0,-4.72437 z m -0.27695,12.69064 0,5.81586 c -0.20188,1.85251 -0.51134,3.35273 -0.94487,4.48001 -1.15158,2.96104 -3.42363,5.47266 -6.80962,7.54271 -0.26754,0.16355 -0.54494,0.32172 -0.83084,0.47244 -1.67968,-0.26042 -3.22911,-0.6243 -4.64291,-1.09151 -3.19413,-1.05559 -5.74867,-2.52308 -7.64045,-4.41483 -1.34347,-1.34349 -2.3876,-3.1467 -3.12786,-5.4086 -0.6125,-1.87151 -0.97011,-4.3489 -1.0752,-7.39608 z m -3.69804,26.99408 c -1.1509,1.30166 -2.59044,2.48586 -4.33339,3.55143 -3.38609,2.06996 -8.24185,3.09523 -14.54781,3.09528 -4.5513,-5e-5 -8.42133,-0.52471 -11.61544,-1.58022 -3.19412,-1.05561 -5.73237,-2.52309 -7.62416,-4.41485 -1.34346,-1.34349 -2.38759,-3.1467 -3.12785,-5.40859 0.49744,0.41749 1.02679,0.82229 1.58022,1.22182 2.31675,1.6724 5.24395,3.036 8.78081,4.10531 3.53679,1.06924 7.59062,1.59647 12.16933,1.59651 5.37374,-4e-5 10.15483,-0.78573 14.33603,-2.36217 0.0991,-0.0374 0.19493,-0.0758 0.29324,-0.11404 1.31237,0.15953 2.6726,0.26144 4.08902,0.30952 z m -19.50025,-6.06022 c -4.16267,-0.0673 -7.73853,-0.59515 -10.71944,-1.58023 -3.19413,-1.0556 -5.73238,-2.52308 -7.62415,-4.41485 -1.34348,-1.34347 -2.38761,-3.1467 -3.12787,-5.40858 -0.74028,-2.26196 -1.10779,-5.37552 -1.10778,-9.351 l 0,-0.1792 13.58664,0 c 0.0602,3.21431 0.3917,6.08271 1.01004,8.6179 0.68544,2.81023 1.68408,5.21281 3.01382,7.20059 1.23103,1.84015 2.89176,3.54534 4.96874,5.11537 z m -9.00889,-33.6245 0,4.72437 -13.57035,0 0,-4.72437 z"
       id="path4351"
       inkscape:connector-curvature="0"
       sodipodi:nodetypes="ccccccsscccccccccsscccccccccccccccccccccccccccccccccccssscccccccccccsssccccscccccssccccccccccccssccccccccccccssccccccscccccccccsssccsccccccc" />
    <path
       style="font-size:40px;font-style:normal;font-weight:normal;line-height:125%;letter-spacing:0px;word-spacing:0px;fill:none;stroke:#000000;stroke-width:2.10565042;stroke-opacity:1;font-family:Sans"
       d="m 355.1517,271.14061 -28.7698,0 0,-11.74577 -60.27646,0 0,7.98256 26.76601,0 0,9.25326 c -2e-5,2.05627 -0.1014,3.54262 -0.29324,4.44742 -0.30163,1.23374 -0.82885,2.44017 -1.59651,3.63288 -0.76771,1.19261 -2.12096,2.54847 -4.04015,4.05644 -1.91922,1.50792 -4.67303,3.42018 -8.29209,5.7507 l -12.54402,7.98256 0,10.03522 16.40497,-10.49137 c 3.20781,-2.08377 5.87658,-4.28368 8.01514,-6.61412 0.98701,-1.09674 1.98308,-2.71101 2.99754,-4.82211 0.79509,5.78502 2.67041,10.06805 5.60408,12.83725 1.98354,1.87229 4.27705,3.10795 6.87478,3.71434 l -11.14301,7.07027 0,10.03521 16.40498,-10.47507 c 3.20781,-2.08377 5.87657,-4.29998 8.01514,-6.63041 0.97084,-1.07879 1.96717,-2.64806 2.96495,-4.70808 0.018,-0.0197 0.031,-0.0453 0.0488,-0.0652 0.79756,5.76876 2.65955,10.0406 5.5878,12.80468 2.93362,2.7691 6.54004,4.13784 10.81718,4.1379 3.31745,-6e-5 6.34855,-0.8201 9.09034,-2.49252 2.74168,-1.67249 4.65137,-3.91535 5.7344,-6.71186 1.08292,-2.79662 1.62904,-6.87702 1.62911,-12.25078 z m -6.663,7.98256 0,19.07668 c -4e-5,4.46899 -0.91626,7.73709 -2.75316,9.80714 -1.83701,2.06997 -4.18632,3.11151 -7.03768,3.11158 -1.94668,-7e-5 -3.74987,-0.54358 -5.4086,-1.6128 -1.65877,-1.06934 -2.86264,-2.63554 -3.61658,-4.6918 -0.75402,-2.05636 -1.1404,-4.90627 -1.14038,-8.55274 l 0,-17.13806 z m -28.76979,-11.74577 0,3.76321 -19.9401,0 0,-3.76321 z m 0,11.74577 0,7.33092 c -4e-5,4.46899 -0.91626,7.73707 -2.75317,9.80714 -1.83701,2.06997 -4.17002,3.11151 -7.02139,3.11157 -1.94668,-6e-5 -3.74987,-0.52729 -5.40859,-1.59651 -1.65877,-1.06933 -2.86264,-2.63554 -3.61659,-4.69179 -0.75401,-2.05636 -1.14038,-4.90628 -1.14036,-8.55274 l 0,-5.40859 z"
       id="path4379"
       inkscape:connector-curvature="0"
       sodipodi:nodetypes="ccccccccccccccccscccccccsccccccscccssccccccccscccsscc" />
    <path
       style="font-size:40px;font-style:normal;font-weight:normal;line-height:125%;letter-spacing:0px;word-spacing:0px;fill:none;stroke:#000000;stroke-width:2.10565042;stroke-opacity:1;font-family:Sans"
       d="m 315.63048,360.03153 -44.47425,-17.0729 16.81224,-6.87478 0,-8.60162 -60.29276,-23.14942 0,8.47129 18.26214,6.61412 0,25.21837 -18.26214,7.03769 0,9.07405 32.94028,-13.47261 12.98387,4.70809 0,25.20208 -18.26214,7.03767 0,9.09035 60.29276,-24.68077 z m -6.33718,4.1216 c -3.2627,0.93215 -7.43927,2.34897 -12.51144,4.26822 l -16.69821,6.3046 0,-20.44513 17.69196,6.61412 c 3.81096,1.39827 7.6518,2.49048 11.51769,3.25819 z m -27.66201,-32.54929 c -3.2627,0.93215 -7.42299,2.34897 -12.49515,4.26823 l -8.29208,3.12786 -5.50634,-2.11782 0,4.18676 -2.89978,1.09149 0,-20.42882 17.67566,6.61412 c 3.81096,1.39825 7.6518,2.49046 11.51769,3.25818 z m -42.04691,-1.05891 -60.29275,-23.14942 0,8.47129 18.26214,6.63041 0,25.20208 -18.26214,7.03768 0,9.09034 60.29275,-24.68076 z m -6.33717,4.12161 c -3.2627,0.93215 -7.42298,2.34896 -12.49515,4.26823 l -16.69821,6.30459 0,-20.44513 17.67567,6.61412 c 3.81096,1.39826 7.65181,2.49047 11.51769,3.25819 z"
       id="path4395"
       inkscape:connector-curvature="0"
       sodipodi:nodetypes="ccccccccccccccccccccccccccccccccccccccccccccccc" />
    <path
       style="font-size:40px;font-style:normal;font-weight:normal;line-height:125%;letter-spacing:0px;word-spacing:0px;fill:none;stroke:#000000;stroke-width:2.10565042;stroke-opacity:1;font-family:Sans"
       d="m 365.79586,395.27455 -50.94176,13.52148 -26.04921,-7.34721 c -0.98704,-0.27421 -4.69994,-1.18526 -11.14299,-2.72059 4.08517,-0.71289 8.1922,-1.55439 12.33223,-2.54138 l 39.52181,-9.1718 0,-8.19434 -60.29275,15.99769 0,8.14547 36.27991,10.10038 0,6.35346 4.82212,1.33587 -41.10203,11.37107 0,7.68932 36.27991,9.95376 0,6.50008 60.29276,16.53531 0,-8.03143 -36.27992,-8.84599 0,-6.74444 c 1.88728,-0.47626 3.80317,-0.99021 5.75071,-1.54764 l 30.52921,-8.65049 0,-9.61165 -36.27992,-10.23071 0,-6.22313 -2.03636,-0.57019 38.31628,-8.89485 z m -7.28205,38.69098 c -0.8774,0.19186 -3.2319,0.83669 -7.07027,1.90603 l -34.21096,9.46504 -26.45649,-6.4675 c -4.93513,-1.23384 -9.30321,-2.22992 -13.11419,-2.99754 6.66238,-0.95966 13.77393,-2.52587 21.34112,-4.69179 l 24.17574,-6.84219 28.26478,7.86853 c 1.94658,0.54831 4.30106,1.12877 7.07027,1.75942 z m -40.77622,19.15813 c -1.32142,-0.2915 -2.60498,-0.5714 -3.81208,-0.81454 0.18246,-0.0262 0.37076,-0.0543 0.5539,-0.0815 z"
       id="path4412"
       inkscape:connector-curvature="0"
       sodipodi:nodetypes="ccccccccccccccccccccccccccccccccccccccccc" />
    <path
       style="font-size:40px;font-style:normal;font-weight:normal;line-height:125%;letter-spacing:0px;word-spacing:0px;fill:none;stroke:#000000;stroke-width:2.10565042;stroke-opacity:1;font-family:Sans"
       d="m 312.43892,468.17334 -22.77472,0 0,-2.21556 1.54763,0 0,-1.20553 5.14794,0 0,-7.98256 -60.29276,0 0,1.20553 -5.14793,0 0,7.72191 -1.54764,0 0,7.98255 22.77473,0 0,2.47623 60.29275,0 z m -58.7614,11.94126 -60.27646,0 0,7.98257 60.27646,0 z"
       id="path4424"
       inkscape:connector-curvature="0"
       sodipodi:nodetypes="cccccccccccccccccccccc" />
    <path
       style="font-size:40px;font-style:normal;font-weight:normal;line-height:125%;letter-spacing:0px;word-spacing:0px;fill:none;stroke:#000000;stroke-width:2.10565042;stroke-opacity:1;font-family:Sans"
       d="m 346.41958,487.57098 -60.29276,0 0,5.29455 -17.31727,0 0,7.64046 47.37405,0 -7.08656,4.74066 -28.62317,0 0,7.65674 17.17064,0 -28.83496,19.27217 0,8.17805 17.95262,0 -6.2883,4.20307 0,8.19433 60.29275,0 0,-7.65673 -47.34146,0 7.08656,-4.74067 28.59059,0 0,-5.27825 17.31727,0 0,-7.64046 -26.6031,0 20.95014,-14.0102 0,-8.17805 -8.52016,0 14.17312,-9.48132 z m -12.91872,7.65674 -4.39855,2.93237 0,-2.93237 z m -5.65295,17.67567 -21.74841,14.53151 -7.02138,0 21.71581,-14.53151 z m -41.72109,16.8937 0,2.91608 -4.36597,0 z"
       id="path4441"
       inkscape:connector-curvature="0"
       sodipodi:nodetypes="cccccccccccccccccccccccccccccccccccccccccc" />
    <path
       style="font-size:40px;font-style:normal;font-weight:normal;line-height:125%;letter-spacing:0px;word-spacing:0px;fill:none;stroke:#000000;stroke-width:2.10565042;stroke-opacity:1;font-family:Sans"
       d="m 356.00167,594.18208 c -4e-5,-6.00442 -1.23053,-11.31017 -3.69805,-15.91624 -2.4676,-4.60613 -6.23633,-8.13526 -11.32219,-10.5891 -5.08595,-2.45388 -10.57029,-3.68176 -16.43756,-3.68176 -5.92216,0 -11.28114,1.2305 -16.07915,3.69804 -4.79804,2.46755 -8.46029,6.12463 -10.99638,10.9638 -0.29286,0.5588 -0.57242,1.12039 -0.83084,1.69426 -2.36645,-0.44885 -4.80527,-0.66793 -7.31463,-0.66793 -5.92216,0 -11.28114,1.23049 -16.07916,3.69804 -4.79803,2.46756 -8.46029,6.12464 -10.99638,10.96381 -2.5361,4.83914 -3.81208,10.22213 -3.81208,16.14432 0,4.38671 0.80198,8.65348 2.37848,12.82096 1.57648,4.16738 3.92839,8.216 7.05397,12.13675 l 13.34228,0 c 1.04617,1.70593 2.22749,3.38944 3.55142,5.05018 l 22.36746,0 -0.0163,-7.31463 c 2.19019,-0.87857 4.06851,-1.95216 5.65295,-3.20931 2.52234,-2.00152 4.50154,-4.769 5.91361,-8.29209 0.25123,-0.6269 0.46139,-1.26895 0.66792,-1.92233 l 6.10911,0 -0.0326,-20.10301 c 1.52907,1.54792 2.79732,3.49613 3.7795,5.84845 1.11036,2.65945 1.66161,5.8022 1.66167,9.44874 -6e-5,3.04327 -0.52469,5.81337 -1.58022,8.30837 -1.05559,2.49495 -2.46469,4.42349 -4.21934,5.767 -1.75474,1.34338 -4.16249,2.4674 -7.23318,3.37222 l 1.97121,7.2006 c 4.05767,-1.04192 7.34983,-2.57636 9.87227,-4.57776 2.52234,-2.00152 4.48526,-4.75271 5.89732,-8.27579 1.1754,-2.93295 1.85572,-6.1644 2.05266,-9.67682 l 0.48873,1.792 c 4.05771,-1.04192 7.34986,-2.56006 9.87231,-4.56146 2.52234,-2.00152 4.48524,-4.769 5.89731,-8.29209 1.41194,-3.52315 2.11779,-7.46791 2.11783,-11.82722 z m -6.8259,0.0488 c -7e-5,3.04327 -0.5247,5.81336 -1.58022,8.30837 -1.0556,2.49495 -2.4647,4.4072 -4.21935,5.7507 -1.48106,1.13386 -3.43105,2.11097 -5.84845,2.93237 -0.40969,-4.51006 -1.58632,-8.58038 -3.53514,-12.2182 -2.4676,-4.60613 -6.25263,-8.13527 -11.33849,-10.58911 -4.4502,-2.14713 -9.19151,-3.34801 -14.23827,-3.61658 -0.005,-2.9e-4 -0.0109,2.7e-4 -0.0163,0 -0.83764,-0.5169 -1.71506,-0.98776 -2.63913,-1.43361 -0.65128,-0.31422 -1.30713,-0.60572 -1.97121,-0.87971 1.75519,-3.24181 4.34364,-5.73337 7.75449,-7.47754 3.61907,-1.85067 8.11509,-2.78575 13.48889,-2.78575 4.35933,0 8.40796,0.77793 12.13676,2.31331 2.16592,0.90476 4.15289,2.16445 5.96248,3.79579 1.80948,1.63131 3.2718,3.77541 4.38226,6.43492 1.11035,2.65946 1.66161,5.81849 1.66167,9.46504 z m -30.83875,0.83083 0,1.51506 c -0.25416,-0.61501 -0.53723,-1.21563 -0.83084,-1.8083 0.27799,0.0989 0.55622,0.18618 0.83084,0.29324 z m -4.36596,14.84105 c -2e-5,0.6992 -0.042,1.38239 -0.0978,2.05265 l -6.76073,0 c -1.50796,-1.69993 -2.93848,-4.20378 -4.26823,-7.49382 -1.32973,-3.29012 -1.98749,-6.66213 -1.98749,-10.11667 0,-0.3222 0.0212,-0.64199 0.0325,-0.96117 1.79694,-0.27402 3.71321,-0.42048 5.76699,-0.42357 0.42954,0.33315 0.84325,0.68826 1.2544,1.05891 1.80949,1.63131 3.27181,3.77542 4.38226,6.43492 1.11036,2.65946 1.6779,5.8022 1.67797,9.44875 z m -2.32961,9.85601 c -0.94432,1.75317 -2.09871,3.16941 -3.46997,4.21936 -0.32794,0.25105 -0.70129,0.48105 -1.0752,0.7168 l 0,-4.93616 z m -11.61544,-4.23564 0,17.15435 -9.79085,0 -0.0488,-22.77472 -7.07026,0 0,10.65427 c -0.37904,-1.80178 -0.57018,-3.62478 -0.57018,-5.47376 0,-3.97553 0.86811,-7.7365 2.62284,-11.27332 1.7547,-3.53686 4.44493,-6.22965 8.06401,-8.08031 0.1457,-0.0746 0.29131,-0.14027 0.43985,-0.21177 0.081,4.13711 0.85525,8.17992 2.3459,12.12044 1.015,2.68315 2.35015,5.30738 4.00757,7.88482 z m -8.84598,-27.58056 c -0.34378,0.16209 -0.68774,0.31459 -1.02632,0.48874 -4.79805,2.46754 -8.47659,6.12463 -11.01268,10.96379 -2.5361,4.83915 -3.79579,10.22214 -3.79579,16.14432 0,4.12957 0.7047,8.15367 2.10153,12.08787 l -5.55521,0 c -1.50796,-1.69993 -2.92219,-4.1875 -4.25193,-7.47754 -1.32973,-3.29011 -2.00379,-6.66211 -2.00379,-10.11667 0,-3.97552 0.88441,-7.7365 2.63914,-11.27332 1.7547,-3.53687 4.44492,-6.22965 8.06401,-8.08031 3.61907,-1.85067 8.11509,-2.76945 13.4889,-2.76945 0.45688,0 0.90219,0.0157 1.35214,0.0326 z"
       id="path4456"
       inkscape:connector-curvature="0"
       sodipodi:nodetypes="ccsssscsssssccccccccccccccccccccccccccccsccscsscscccccccccsscccccccccccsccccssccsccscsccssssscsc" />
    <path
       style="font-size:40px;font-style:normal;font-weight:normal;line-height:125%;letter-spacing:0px;word-spacing:0px;fill:none;stroke:#000000;stroke-width:2.10565042;stroke-opacity:1;font-family:Sans"
       d="m 153.04294,73.482701 c -0.14222,-4.934332 -1.35817,-9.484365 -3.63288,-13.635514 -0.37804,-0.689848 -0.78922,-1.346891 -1.22182,-1.987494 0.0646,-0.833647 0.0978,-1.683708 0.0978,-2.557678 -4e-5,-5.318982 -1.20651,-10.201368 -3.63288,-14.629256 -2.42648,-4.42791 -5.97968,-7.848 -10.65426,-10.247001 -4.67471,-2.399021 -10.15904,-3.584009 -16.43756,-3.584009 -5.75767,0 -11.14326,1.05188 -16.16061,3.176736 -5.01738,2.124835 -8.85564,5.230634 -11.501396,9.302125 -2.206448,3.395384 -3.480577,7.641001 -3.844668,12.723219 -0.391485,-0.0096 -0.775009,-0.01629 -1.172938,-0.01629 -5.757684,0 -11.143264,1.051884 -16.160612,3.176733 -5.017389,2.124839 -8.855646,5.230642 -11.501398,9.302125 -2.093816,3.222065 -3.358342,7.215495 -3.795797,11.957546 -0.02158,0.03294 -0.04368,0.06464 -0.06516,0.09778 -0.463795,0.713696 -0.888209,1.47617 -1.2707,2.264438 -1.121712,1.128455 -2.113394,2.362541 -2.981241,3.698045 -2.645783,4.07146 -3.974988,9.369427 -3.974988,15.867365 0,6.278529 1.723365,11.586859 5.16423,15.932539 3.440865,4.3456 8.434918,7.35265 14.987664,9.02518 l 1.694257,-6.71188 c 0.826999,0.27414 1.674091,0.52386 2.557674,0.7494 l 2.020071,-7.98256 c -5.072218,-1.09675 -8.891579,-3.19018 -11.46882,-6.2883 -2.332307,-2.80377 -3.606735,-6.173982 -3.828364,-10.100388 0.623481,1.144284 1.330165,2.238551 2.150401,3.274478 3.440875,4.3456 8.434918,7.36894 14.987664,9.04148 l 2.020072,-7.982568 C 70.344462,96.252207 66.525102,94.158773 63.94786,91.060656 61.840847,88.527732 60.60165,85.533491 60.217238,82.084345 61.18673,81.4915 62.237826,80.96573 63.37768,80.520418 c 3.824709,-1.49425 8.296669,-2.248175 13.423737,-2.248154 3.975494,-2.1e-5 7.824066,0.62853 11.566563,1.889752 1.137799,0.383431 2.212313,0.845791 3.209313,1.40102 0.831877,3.241839 2.251787,6.148384 4.284517,8.715651 1.28572,1.623795 2.79236,3.066541 4.51259,4.317096 0.006,0.03852 0.0107,0.07538 0.0163,0.114036 -1.25445,0.653436 -2.64942,1.231598 -4.20305,1.726845 l 1.85717,7.852236 c 0.6616,-0.19231 1.29596,-0.39151 1.92233,-0.61906 -0.10698,0.37737 -0.22621,0.74807 -0.35842,1.10778 -1.87983,1.53339 -4.2999,2.78002 -7.28203,3.73062 l 0.87971,3.73063 c -1.480098,0.87053 -3.200716,1.61115 -5.14794,2.23185 l 1.857164,7.85223 c 5.565676,-1.61768 9.880526,-4.48905 12.951286,-8.60161 0.82118,-1.09983 1.53255,-2.26579 2.13412,-3.50255 0.76767,-0.76308 1.47973,-1.58354 2.1341,-2.45993 2.28093,-3.05489 3.71529,-6.63813 4.30082,-10.752016 l 0.79829,-3.176736 c 2.23923,-3.749858 3.37219,-8.193856 3.37222,-13.342278 -4e-5,-5.31898 -1.22281,-10.201366 -3.64916,-14.629258 -1.64767,-3.006683 -3.81509,-5.539531 -6.50009,-7.607867 1.05708,-0.679262 2.21595,-1.279429 3.48626,-1.775712 3.82471,-1.494252 8.29667,-2.24817 13.42373,-2.248149 3.9755,-2.1e-5 7.84035,0.644818 11.58285,1.906039 2.68414,0.904549 4.97334,2.28134 6.87477,4.137898 -0.49614,1.830024 -1.28432,3.454972 -2.36219,4.887281 -2.00153,2.659432 -5.20861,4.694469 -9.59536,6.09281 l 1.85717,7.852232 c 5.56569,-1.617682 9.88053,-4.472772 12.95129,-8.585324 0.631,-0.845108 1.19265,-1.729337 1.69427,-2.655422 0.56773,1.953762 0.8471,4.092133 0.84713,6.434919 -6e-5,4.030301 -0.99614,7.375696 -2.99754,10.035222 -2.00154,2.659433 -5.19233,4.694466 -9.57907,6.092812 l 1.85716,7.852224 c 5.56568,-1.617683 9.88053,-4.489059 12.9513,-8.601616 3.07069,-4.112639 4.59399,-9.183948 4.59404,-15.215732 0,-0.332437 0.009,-0.648501 0,-0.977456 z M 141.13427,50.984918 c -0.75826,-0.48922 -1.54953,-0.959311 -2.37849,-1.38473 -4.6747,-2.399016 -10.14274,-3.584006 -16.42126,-3.584006 -5.75767,0 -11.14325,1.051884 -16.16061,3.176733 -3.10458,1.314777 -5.7697,3.006395 -7.96626,5.066481 -1.69512,-0.636404 -3.48242,-1.13467 -5.35972,-1.498766 0.25552,-3.011424 1.16697,-5.843931 2.75317,-8.487578 1.8918,-3.153029 4.74431,-5.478284 8.56903,-6.972523 3.8247,-1.49425 8.31296,-2.248165 13.44002,-2.248144 3.9755,-2.1e-5 7.82407,0.644814 11.56657,1.906035 3.74241,1.261181 6.72287,3.437076 8.94372,6.548958 1.52392,2.135395 2.53313,4.626358 3.01383,7.47754 z m -32.38639,28.215896 c -0.20853,-0.428502 -0.42122,-0.850211 -0.65163,-1.27069 -0.31863,-0.581425 -0.65266,-1.147805 -1.01004,-1.694257 l 0.70051,-2.785749 c 0.55504,1.753731 0.87646,3.674175 0.96116,5.750696 z m -1.49876,-7.23317 c -3.59219,-0.885102 -6.52639,-2.316289 -8.79711,-4.268225 0.42251,-1.33367 0.99335,-2.624729 1.71055,-3.877243 2.07939,1.241346 3.83824,2.869515 5.27826,4.88728 0.72015,1.009111 1.32167,2.089055 1.8083,3.258188 z M 87.471918,64.555267 c -2.05175,-0.310689 -4.191743,-0.472437 -6.451203,-0.472437 -5.757684,0 -11.159558,1.068174 -16.176906,3.193024 -0.190012,0.08048 -0.367272,0.161099 -0.553887,0.244364 1.808479,-2.18897 4.204372,-3.863341 7.200596,-5.033899 3.824709,-1.494252 8.296658,-2.23188 13.423726,-2.231858 0.486027,-3e-6 0.967355,0.01373 1.449891,0.03258 0.254599,1.49002 0.621365,2.908933 1.107783,4.268225 z"
       id="path4469"
       inkscape:connector-curvature="0"
       sodipodi:nodetypes="sccccsssscssscccsssccccscsccscssscsccccccccccccccccccsssccccccccccccscsssccsssscccccccccccccsscsscc" />
    <path
       style="font-size:40px;font-style:normal;font-weight:normal;line-height:125%;letter-spacing:0px;word-spacing:0px;fill:none;stroke:#000000;stroke-width:2.10565042;stroke-opacity:1;font-family:Sans"
       d="m 201.72518,154.05956 c -7e-5,-8.4994 -2.82596,-15.42976 -8.48758,-20.80353 -5.66172,-5.37382 -13.50053,-8.06402 -23.50782,-8.06402 -5.29157,0 -10.30966,1.15063 -15.05283,3.45368 -0.39084,0.18977 -0.77969,0.38162 -1.15666,0.58647 -1.37579,-2.77911 -3.23061,-5.28908 -5.58778,-7.5264 -5.66172,-5.37381 -13.50053,-8.06402 -23.50783,-8.06402 -5.29156,0 -10.30965,1.15064 -15.05282,3.45368 -4.74322,2.30304 -8.48271,5.68023 -11.22446,10.14925 -2.04236,3.32905 -3.30946,6.99814 -3.82837,10.99638 -1.18001,0.42248 -2.338362,0.89254 -3.48626,1.4499 -4.743213,2.30304 -8.482705,5.69652 -11.224454,10.16555 -2.741728,4.46899 -4.121612,9.5403 -4.121612,15.21573 0,5.23667 1.249347,10.12164 3.730633,14.64555 2.481254,4.52379 6.138337,8.00746 10.963794,10.47507 4.825409,2.46751 10.290909,3.71427 16.404979,3.71433 6.03178,-6e-5 11.41996,-1.1747 16.1769,-3.51883 3.09637,-1.52592 5.74225,-3.52 7.94997,-5.9462 0.22468,0.12229 0.45425,0.2408 0.68422,0.3584 4.82541,2.46751 10.2909,3.69798 16.40498,3.69804 6.03177,-6e-5 11.41997,-1.1747 16.17689,-3.51884 1.33374,-0.65728 2.57806,-1.40755 3.74692,-2.23186 0.88703,0.0552 1.78817,0.0978 2.7043,0.0978 6.03177,-6e-5 11.41997,-1.1747 16.17689,-3.51884 4.75685,-2.34422 8.4672,-5.74545 11.12671,-10.21442 2.65945,-4.46907 3.99122,-9.48714 3.99129,-15.05282 z m -6.87479,0.0488 c -6e-5,3.97548 -0.99868,7.55787 -3.01381,10.75201 -2.01521,3.19409 -4.86,5.60694 -8.52016,7.26576 -2.38418,1.08041 -5.03606,1.78871 -7.94998,2.1667 2.47923,-4.3515 3.73056,-9.2066 3.73063,-14.58039 -7e-5,-8.4994 -2.82596,-15.42976 -8.48758,-20.80353 -2.12817,-2.01994 -4.57247,-3.67548 -7.31463,-4.93615 1.95525,-0.37353 4.05325,-0.55389 6.30459,-0.55389 9.0751,0 15.55549,2.03761 19.43509,6.10909 3.87948,4.07148 5.81579,8.9324 5.81585,14.5804 z m -22.62811,5.63666 c -6e-5,3.97549 -0.99868,7.57417 -3.01381,10.7683 -0.91315,1.44732 -2.0073,2.72888 -3.25819,3.86096 -5.60432,-0.62836 -10.09404,-2.48215 -13.45631,-5.5715 -1.87023,-1.71844 -3.32333,-3.64822 -4.36598,-5.78328 1.65143,-1.59746 3.10287,-3.4171 4.3171,-5.45747 2.65944,-4.46906 3.97492,-9.48714 3.97499,-15.05282 -1e-5,-0.85346 -0.0407,-1.68686 -0.0978,-2.50881 4.33823,0.96391 7.70352,2.68219 10.0841,5.18053 3.87948,4.07146 5.81579,8.9161 5.81585,14.56409 z m -17.28467,19.85865 c -2.20313,0.44302 -4.56656,0.6679 -7.10286,0.66793 -4.97539,-4e-5 -9.21933,-0.80061 -12.73951,-2.39476 1.27289,-2.67366 2.13051,-5.53323 2.5251,-8.56904 1.26929,-0.44045 2.50961,-0.94571 3.69804,-1.53135 0.344,-0.16953 0.67701,-0.34067 1.01003,-0.52131 0.22891,0.47242 0.47816,0.93622 0.7331,1.40102 2.48126,4.5238 6.13834,8.02375 10.9638,10.49137 0.30159,0.15421 0.6057,0.31158 0.9123,0.45614 z M 149.5616,142.5907 c -0.005,3.9623 -1.02058,7.53416 -3.03011,10.71944 -0.1195,0.1894 -0.24942,0.3699 -0.3747,0.55389 0.0197,-4.28748 1.16266,-8.04048 3.40481,-11.27333 z m -3.48627,-11.72948 c -4.91678,0.13904 -9.58963,1.28309 -14.02649,3.4374 -3.15483,1.5318 -5.86066,3.54024 -8.12918,6.02765 -4.91689,-2.71357 -10.92281,-4.08903 -18.03406,-4.08903 -1.42371,0 -2.83535,0.094 -4.21935,0.26065 0.96007,-3.33532 2.78598,-6.26932 5.47375,-8.78081 4.18112,-3.90698 9.90503,-5.84845 17.17065,-5.84845 9.07509,0 15.55548,2.03762 19.43508,6.10911 0.87963,0.92315 1.64942,1.87929 2.3296,2.88348 z m -2.89978,8.38984 c -2.56,4.35723 -3.84466,9.27609 -3.84466,14.75959 0,1.92935 0.16671,3.80326 0.50502,5.63666 -0.58124,0.33099 -1.17833,0.65937 -1.8083,0.94488 -0.13401,0.0607 -0.27158,0.12072 -0.40727,0.1792 -0.78927,-6.29848 -3.36224,-11.6125 -7.70561,-15.94883 3.4093,-3.13758 7.82696,-4.99837 13.26082,-5.5715 z m -12.29966,23.39379 c -1.79825,0.27491 -3.6954,0.42353 -5.70182,0.42356 -0.46843,-1e-5 -0.92921,-0.002 -1.38474,-0.0163 -0.16464,-1.10203 -0.26066,-2.23625 -0.26065,-3.42109 -10e-6,-3.23037 0.63402,-6.16149 1.88975,-8.79711 3.14497,3.3981 4.97172,7.33217 5.45746,11.81093 z m -0.66792,8.35725 c -0.27579,0.94595 -0.64179,1.86202 -1.05892,2.75316 -0.78654,-0.79145 -1.49674,-1.61771 -2.11782,-2.4925 1.08028,-0.0458 2.1385,-0.13551 3.17674,-0.26066 z m -5.60408,8.89485 c -1.47929,1.31293 -3.18898,2.41033 -5.13166,3.29077 -3.66025,1.65868 -7.94587,2.49245 -12.85354,2.49251 -7.75914,-6e-5 -13.74665,-1.95265 -17.968909,-5.83215 -4.222265,-3.87958 -6.337188,-8.82041 -6.337167,-14.82476 -2.1e-5,-5.89475 2.090864,-10.78748 6.272003,-14.69442 1.660048,-1.55119 3.571863,-2.79531 5.718123,-3.73063 0.48489,3.69327 1.63805,7.19737 3.45368,10.50766 2.48126,4.5238 6.13834,8.02375 10.9638,10.49136 3.08979,1.57999 6.44963,2.641 10.0678,3.20931 0.4702,1.19236 1.01674,2.35641 1.64538,3.50256 1.1416,2.08133 2.53181,3.94073 4.17049,5.58779 z m -5.06649,-33.11948 c -1.89035,3.87886 -2.83462,8.1762 -2.83462,12.88614 0,0.83755 0.0339,1.67298 0.0978,2.4925 -3.84424,-0.92758 -7.04328,-2.55865 -9.59536,-4.90357 -3.654,-3.35743 -5.7306,-7.51404 -6.22314,-12.46256 1.51284,-0.20819 3.09605,-0.32582 4.77325,-0.32582 5.57292,0 10.16847,0.77794 13.78213,2.31331 z"
       id="path4490"
       inkscape:connector-curvature="0"
       sodipodi:nodetypes="cssscsssscssssccccsccccccccccccscssccccsccccscccccccscccccccscscsssccsccccccccscccccccccssscsccsccscscsc" />
    <path
       style="font-size:40px;font-style:normal;font-weight:normal;line-height:125%;letter-spacing:0px;word-spacing:0px;fill:none;stroke:#000000;stroke-width:2.10565042;stroke-opacity:1;font-family:Sans"
       d="m 172.30488,233.90919 -60.29276,0 0,37.66464 7.11915,0 0,-29.68207 53.17361,0 z m -11.3222,-25.62564 -60.29275,0 0,12.05529 -8.813395,0 0,37.68094 7.119135,0 0,-29.69838 1.69426,0 0,17.64309 7.11913,0 0,-17.64309 44.36023,0 0,-7.98256 -44.36023,0 0,-4.07273 53.17362,0 z m -24.48527,-10.57282 -60.292756,0 0,37.68094 7.102843,0 0,-29.69837 53.189913,0 z"
       id="path4510"
       inkscape:connector-curvature="0"
       sodipodi:nodetypes="ccccccccccccccccccccccccccccccc" />
    <path
       style="font-size:40px;font-style:normal;font-weight:normal;line-height:125%;letter-spacing:0px;word-spacing:0px;fill:none;stroke:#000000;stroke-width:2.10565042;stroke-opacity:1;font-family:Sans"
       d="m 188.24917,273.66381 -3.61659,0 0,-0.0978 -60.29275,0 0,4.90357 -49.882847,0 0,12.23449 -6.500085,0 0,37.66465 7.119146,0 0,-12.2345 6.500075,0 0,-17.4476 31.620711,0 0,24.04543 7.11914,0 0,-24.04543 4.02386,0 0,12.56031 3.61659,0 0,0.0815 7.11914,0 0,-18.27842 38.41403,0 0,-7.98257 -38.41403,0 0,-3.42109 53.17361,0 z m -75.05234,12.78838 0,4.25194 -31.620711,0 0,-4.25194 z"
       id="path4528"
       inkscape:connector-curvature="0"
       sodipodi:nodetypes="cccccccccccccccccccccccccccccccccc" />
    <path
       style="font-size:40px;font-style:normal;font-weight:normal;line-height:125%;letter-spacing:0px;word-spacing:0px;fill:none;stroke:#000000;stroke-width:2.10565042;stroke-opacity:1;font-family:Sans"
       d="m 162.44129,325.40116 -60.29276,0 0,7.83594 -11.599146,0 0,44.99557 7.102856,0 0,-37.01301 4.49629,0 0,13.52148 -2.88349,0 0,44.97927 7.11913,0 0,-29.33998 2.8835,0 0,-7.67302 8.91115,0 0,11.87609 7.07026,0 0,-11.87609 1.64539,0 0,33.36383 7.08656,0 0,-29.33997 2.88349,0 0,-4.02386 6.85848,0 0,14.12424 7.11914,0 0,-14.12424 1.59651,0 0,35.62827 7.11914,0 0,-29.33997 2.8835,0 z m -7.11914,7.96627 0,21.37371 -4.48001,0 0,-21.37371 z m -11.59915,7.85223 0,13.52148 -6.85848,0 0,-13.52148 z m -13.92875,0 0,13.52148 -4.54517,0 0,-13.52148 z m -11.61543,0 0,13.52148 -8.91115,0 0,-13.52148 z"
       id="path4589"
       inkscape:connector-curvature="0"
       sodipodi:nodetypes="ccccccccccccccccccccccccccccccccccccccccccccccccccccccc" />
    <path
       style="font-size:40px;font-style:normal;font-weight:normal;line-height:125%;letter-spacing:0px;word-spacing:0px;fill:none;stroke:#000000;stroke-width:2.10565042;stroke-opacity:1;font-family:Sans"
       d="m 199.64167,462.21899 c -4e-5,-5.31897 -1.22281,-10.20136 -3.64917,-14.62926 -2.42649,-4.4279 -5.97968,-7.8317 -10.65426,-10.23071 -3.82757,-1.96426 -8.18094,-3.12987 -13.08163,-3.48626 0.0193,-0.46618 0.0326,-0.93907 0.0326,-1.41731 -6e-5,-5.31897 -1.22281,-10.18508 -3.64918,-14.61297 -2.42649,-4.42791 -5.96339,-7.84799 -10.63798,-10.247 -4.67471,-2.399 -10.15904,-3.60029 -16.43755,-3.60029 -5.75768,0 -11.14326,1.06816 -16.16062,3.19302 -5.01737,2.12483 -8.85563,5.21435 -11.50139,9.28583 -2.64579,4.07147 -3.9587,9.36944 -3.9587,15.86737 0,6.27853 1.72337,11.58685 5.16423,15.93254 3.44087,4.3456 8.43491,7.35266 14.98766,9.02517 l 2.00378,-7.98255 c -5.07222,-1.09674 -8.89159,-3.19017 -11.46882,-6.28831 -2.57723,-3.09818 -3.86097,-6.88578 -3.86095,-11.35477 -2e-5,-3.67397 0.94283,-7.07775 2.83463,-10.23071 1.89181,-3.15303 4.74431,-5.47829 8.56903,-6.97252 3.82471,-1.49426 8.31295,-2.24817 13.44002,-2.24815 3.97549,-2e-5 7.82406,0.62853 11.56657,1.88975 3.74241,1.26117 6.72287,3.45337 8.94372,6.56525 2.22075,3.11183 3.33958,6.98187 3.33965,11.61543 -1e-5,0.55022 -0.0279,1.08813 -0.0652,1.6128 -4.44543,0.34573 -8.6617,1.34455 -12.64177,3.03012 -5.01739,2.12483 -8.85564,5.23064 -11.5014,9.30213 -2.64579,4.07146 -3.97499,9.35314 -3.97499,15.85108 0,6.27852 1.72337,11.58684 5.16423,15.93253 3.44087,4.34559 8.43492,7.35266 14.98766,9.02518 l 2.02007,-7.96627 c -5.07222,-1.09674 -8.89159,-3.20646 -11.46882,-6.30459 -2.57723,-3.0982 -3.87725,-6.8695 -3.87723,-11.33849 -2e-5,-3.67397 0.95911,-7.09405 2.85091,-10.247 1.89181,-3.15303 4.74431,-5.47829 8.56903,-6.97252 2.08511,-0.81462 4.37109,-1.39148 6.84219,-1.75943 -2.00713,2.59603 -5.18221,4.58689 -9.49761,5.96249 l 1.85716,7.85223 c 5.56568,-1.61769 9.88053,-4.48907 12.9513,-8.60162 1.27846,-1.71226 2.28392,-3.59174 3.03012,-5.63666 3.35752,0.1589 6.63615,0.76677 9.82343,1.84088 3.74241,1.26117 6.72287,3.43707 8.94372,6.54895 2.22075,3.11184 3.3233,6.99817 3.32335,11.63173 -5e-5,4.0303 -0.99614,7.37571 -2.99753,10.03521 -2.00153,2.65945 -5.19233,4.67819 -9.57907,6.07653 l 1.85716,7.85223 c 5.56569,-1.61769 9.88053,-4.47278 12.9513,-8.58533 3.07069,-4.11265 4.61029,-9.18394 4.61034,-15.21573 z"
       id="path4602"
       inkscape:connector-curvature="0"
       sodipodi:nodetypes="ccscsccsssssccscsssscccssssccscsscccccsccccccc" />
    <path
       style="font-size:40px;font-style:normal;font-weight:normal;line-height:125%;letter-spacing:0px;word-spacing:0px;fill:none;stroke:#000000;stroke-width:2.10565042;stroke-opacity:1;font-family:Sans"
       d="m 177.42157,494.46593 -7.11914,0 0,19.87494 -23.32862,0 0,-7.52641 -7.11914,0 0,7.52641 -4.51259,0 0,-32.1746 -7.11914,0 0,19.85865 -4.3171,0 0,-28.63947 -7.11913,0 0,19.87494 -53.173621,0 0,7.96627 53.173621,0 0,0.79826 -41.737388,0 0,7.98256 41.737388,0 0,11.17558 0.34211,0 0,1.12408 11.09412,0 0,4.36596 -41.541881,0 0,7.98257 53.173611,0 0,19.9401 7.11914,0 0,-32.28863 23.32862,0 0,19.9564 7.11914,0 z m -37.5669,27.84121 0,4.36596 -4.51259,0 0,-4.36596 z m -11.63173,-12.29966 0,4.33339 -4.3171,0 0,-4.33339 z"
       id="path4622"
       inkscape:connector-curvature="0"
       sodipodi:nodetypes="ccccccccccccccccccccccccccccccccccccccccccccccc" />
    <path
       style="font-size:40px;font-style:normal;font-weight:normal;line-height:125%;letter-spacing:0px;word-spacing:0px;fill:none;stroke:#000000;stroke-width:2.10565042;stroke-opacity:1;font-family:Sans"
       d="m 216.11158,565.44846 -17.56162,0 0,-3.73062 -21.03161,0 0,-5.27826 -60.29275,0 0,7.98256 21.0316,0 0,5.26197 17.56162,0 0,3.73062 60.29276,0 z"
       id="path4640"
       inkscape:connector-curvature="0"
       sodipodi:nodetypes="ccccccccccccc" />
    <path
       style="font-size:40px;font-style:normal;font-weight:normal;line-height:125%;letter-spacing:0px;word-spacing:0px;fill:none;stroke:#000000;stroke-width:2.10565042;stroke-opacity:1;font-family:Sans"
       d="m 172.01297,592.18813 -51.9355,20.1193 -14.22198,-5.27825 c -3.29008,-1.23381 -6.58223,-2.32602 -9.87232,-3.2582 3.07075,-0.84995 6.36289,-1.89928 9.87232,-3.16044 l 43.79003,-15.67188 0,-8.63419 -34.91147,13.53777 0,-5.7507 -60.292756,23.3612 0,8.17805 46.282546,18.11552 -2.23185,0.86342 0,8.19434 60.29275,23.60557 0,-8.14547 -43.80633,-16.29094 c -3.29008,-1.2338 -6.58222,-2.30972 -9.87231,-3.24189 1.5198,-0.42067 3.0966,-0.89343 4.72438,-1.41731 l 4.90357,1.92233 0,-3.60031 c 0.0821,-0.0293 0.16208,-0.0518 0.24436,-0.0815 l 14.09166,-5.0339 42.9429,16.81224 0,-8.14546 -22.36745,-8.32468 0,-7.55899 -0.19549,-0.0652 9.33471,-3.33963 0,-8.6505 -20.36367,7.88482 -8.61791,-3.20931 42.20981,-15.1017 z m -47.9768,29.22595 c -1.89473,-0.63687 -3.79082,-1.2226 -5.68554,-1.75943 0.22397,-0.0619 0.45792,-0.13131 0.68422,-0.19549 z m -4.93615,5.2131 -8.04772,3.11156 -40.12458,-14.9225 c -3.29008,-1.2338 -6.582225,-2.32601 -9.872305,-3.25819 3.070733,-0.84995 6.362878,-1.89928 9.872305,-3.16044 l 18.441343,-6.59783 0,6.04395 22.351157,8.74822 0,7.13543 z"
       id="path4664"
       inkscape:connector-curvature="0"
       sodipodi:nodetypes="cccccccccccccccccccccccccccccccccccccccccccccccc" />
    <path
       style="font-size:40px;font-style:normal;font-weight:normal;line-height:125%;letter-spacing:0px;word-spacing:0px;fill:none;stroke:#000000;stroke-width:2.10565042;stroke-opacity:1;font-family:Sans"
       d="m 234.01702,659.96336 -60.29275,0 0,10.21441 -38.75614,0 0,44.99557 7.11914,0 0,-37.01301 20.52658,0 0,23.67073 -19.89123,0 0,44.99556 7.11913,0 0,-37.013 12.7721,0 0,1.69425 4.21935,0 0,34.12952 7.11914,0 0,-2.47623 3.46997,0 0,-33.34754 10.71943,0 0,3.9587 6.32089,0 0,28.2159 1.4336,0 0,3.43738 7.11914,0 0,-36.80122 16.99145,0 0,35.62827 7.11914,0 0,-40.69475 6.89106,0 z m -7.11913,7.98255 0,32.7122 -18.45764,0 0,-32.7122 z m -25.54419,0 0,32.7122 -6.09281,0 0,-30.48034 -14.41749,0 0,-2.23186 z m -13.21196,10.21442 0,22.49778 -7.29834,0 0,-22.49778 z m -14.41747,0 0,22.49778 -4.04015,0 0,-22.49778 z"
       id="path4680"
       inkscape:connector-curvature="0"
       sodipodi:nodetypes="ccccccccccccccccccccccccccccccccccccccccccccccccccccccccc" />
  </g>
</svg>
