<?xml version="1.0" encoding="UTF-8" standalone="no"?>
<!-- Created with Inkscape (http://www.inkscape.org/) -->

<svg
   xmlns:dc="http://purl.org/dc/elements/1.1/"
   xmlns:cc="http://creativecommons.org/ns#"
   xmlns:rdf="http://www.w3.org/1999/02/22-rdf-syntax-ns#"
   xmlns:svg="http://www.w3.org/2000/svg"
   xmlns="http://www.w3.org/2000/svg"
   xmlns:sodipodi="http://sodipodi.sourceforge.net/DTD/sodipodi-0.dtd"
   xmlns:inkscape="http://www.inkscape.org/namespaces/inkscape"
   sodipodi:docname="rdc003.svg"
   inkscape:version="0.48.2 r9819"
   version="1.1"
   id="svg3783"
   height="1052.3622047"
   width="744.09448819">
  <sodipodi:namedview
     id="base"
     pagecolor="#ffffff"
     bordercolor="#666666"
     borderopacity="1.0"
     inkscape:pageopacity="0.0"
     inkscape:pageshadow="2"
     inkscape:zoom="0.4949747467"
     inkscape:cx="40.877122141588"
     inkscape:cy="642.12404863961"
     inkscape:document-units="px"
     inkscape:current-layer="layer1"
     showgrid="false"
     inkscape:window-width="1024"
     inkscape:window-height="748"
     inkscape:window-x="45"
     inkscape:window-y="-16"
     inkscape:window-maximized="0" />
  <defs
     id="defs3785" />
  <metadata
     id="metadata3788">
    <rdf:RDF>
      <cc:Work
         rdf:about="">
        <dc:format>image/svg+xml</dc:format>
        <dc:type
           rdf:resource="http://purl.org/dc/dcmitype/StillImage" />
        <dc:title />
      </cc:Work>
    </rdf:RDF>
  </metadata>
  <g
     id="layer1"
     inkscape:groupmode="layer"
     inkscape:label="Layer 1">
    <rect
       y="12.284647"
       x="7.8454075"
       height="779.49591"
       width="516.12524"
       id="rect4319"
       style="fill:none;stroke:#000000;stroke-width:0.91610378;stroke-opacity:1" />
    <flowRoot
       style="fill:black;stroke:none;stroke-opacity:1;stroke-width:1px;stroke-linejoin:miter;stroke-linecap:butt;fill-opacity:1;font-family:Sans;font-style:normal;font-weight:normal;font-size:40px;line-height:125%;letter-spacing:0px;word-spacing:0px"
       id="flowRoot3475"
       xml:space="preserve"><flowRegion
         id="flowRegion3477"><rect
           y="840.23016"
           x="40.406101"
           height="76.771591"
           width="474.7717"
           id="rect3479" /></flowRegion><flowPara
         id="flowPara3481" /></flowRoot>    <path
       transform="matrix(1.8014153,0,0,1.8014153,309.84496,-435.18903)"
       d="m 107.07617,349.80109 a 18.687822,18.687822 0 1 1 -37.375641,0 18.687822,18.687822 0 1 1 37.375641,0 z"
       sodipodi:ry="18.687822"
       sodipodi:rx="18.687822"
       sodipodi:cy="349.80109"
       sodipodi:cx="88.388351"
       id="path68835"
       style="fill:none;stroke:#1a1a1a;stroke-width:6;stroke-miterlimit:4;stroke-opacity:1;stroke-dasharray:none"
       sodipodi:type="arc" />
    <path
       sodipodi:type="arc"
       style="fill:none;stroke:#1a1a1a;stroke-width:6;stroke-miterlimit:4;stroke-opacity:1;stroke-dasharray:none"
       id="path68837"
       sodipodi:cx="88.388351"
       sodipodi:cy="349.80109"
       sodipodi:rx="18.687822"
       sodipodi:ry="18.687822"
       d="m 107.07617,349.80109 a 18.687822,18.687822 0 1 1 -37.375641,0 18.687822,18.687822 0 1 1 37.375641,0 z"
       transform="matrix(1.8014153,0,0,1.8014153,231.70742,-435.18903)" />
    <path
       transform="matrix(1.8014153,0,0,1.8014153,153.56986,-435.18903)"
       d="m 107.07617,349.80109 a 18.687822,18.687822 0 1 1 -37.375641,0 18.687822,18.687822 0 1 1 37.375641,0 z"
       sodipodi:ry="18.687822"
       sodipodi:rx="18.687822"
       sodipodi:cy="349.80109"
       sodipodi:cx="88.388351"
       id="path68839"
       style="fill:none;stroke:#1a1a1a;stroke-width:6;stroke-miterlimit:4;stroke-opacity:1;stroke-dasharray:none"
       sodipodi:type="arc" />
    <path
       sodipodi:type="arc"
       style="fill:none;stroke:#1a1a1a;stroke-width:6;stroke-miterlimit:4;stroke-opacity:1;stroke-dasharray:none"
       id="path68841"
       sodipodi:cx="88.388351"
       sodipodi:cy="349.80109"
       sodipodi:rx="18.687822"
       sodipodi:ry="18.687822"
       d="m 107.07617,349.80109 a 18.687822,18.687822 0 1 1 -37.375641,0 18.687822,18.687822 0 1 1 37.375641,0 z"
       transform="matrix(1.8014153,0,0,1.8014153,75.432314,-435.18903)" />
    <path
       transform="matrix(1.8014153,0,0,1.8014153,-2.7052349,-435.18903)"
       d="m 107.07617,349.80109 a 18.687822,18.687822 0 1 1 -37.375641,0 18.687822,18.687822 0 1 1 37.375641,0 z"
       sodipodi:ry="18.687822"
       sodipodi:rx="18.687822"
       sodipodi:cy="349.80109"
       sodipodi:cx="88.388351"
       id="path68843"
       style="fill:none;stroke:#1a1a1a;stroke-width:6;stroke-miterlimit:4;stroke-opacity:1;stroke-dasharray:none"
       sodipodi:type="arc" />
    <path
       sodipodi:type="arc"
       style="fill:none;stroke:#1a1a1a;stroke-width:6;stroke-miterlimit:4;stroke-opacity:1;stroke-dasharray:none"
       id="path68845"
       sodipodi:cx="88.388351"
       sodipodi:cy="349.80109"
       sodipodi:rx="18.687822"
       sodipodi:ry="18.687822"
       d="m 107.07617,349.80109 a 18.687822,18.687822 0 1 1 -37.375641,0 18.687822,18.687822 0 1 1 37.375641,0 z"
       transform="matrix(1.8014153,0,0,1.8014153,-80.842785,-435.18903)" />
    <path
       transform="matrix(1.8014153,0,0,1.8014153,309.84496,-514.04714)"
       d="m 107.07617,349.80109 a 18.687822,18.687822 0 1 1 -37.375641,0 18.687822,18.687822 0 1 1 37.375641,0 z"
       sodipodi:ry="18.687822"
       sodipodi:rx="18.687822"
       sodipodi:cy="349.80109"
       sodipodi:cx="88.388351"
       id="path68847"
       style="fill:none;stroke:#1a1a1a;stroke-width:6;stroke-miterlimit:4;stroke-opacity:1;stroke-dasharray:none"
       sodipodi:type="arc" />
    <path
       sodipodi:type="arc"
       style="fill:none;stroke:#1a1a1a;stroke-width:6;stroke-miterlimit:4;stroke-opacity:1;stroke-dasharray:none"
       id="path68849"
       sodipodi:cx="88.388351"
       sodipodi:cy="349.80109"
       sodipodi:rx="18.687822"
       sodipodi:ry="18.687822"
       d="m 107.07617,349.80109 a 18.687822,18.687822 0 1 1 -37.375641,0 18.687822,18.687822 0 1 1 37.375641,0 z"
       transform="matrix(1.8014153,0,0,1.8014153,231.70742,-514.04714)" />
    <path
       transform="matrix(1.8014153,0,0,1.8014153,153.56986,-514.04714)"
       d="m 107.07617,349.80109 a 18.687822,18.687822 0 1 1 -37.375641,0 18.687822,18.687822 0 1 1 37.375641,0 z"
       sodipodi:ry="18.687822"
       sodipodi:rx="18.687822"
       sodipodi:cy="349.80109"
       sodipodi:cx="88.388351"
       id="path68851"
       style="fill:none;stroke:#1a1a1a;stroke-width:6;stroke-miterlimit:4;stroke-opacity:1;stroke-dasharray:none"
       sodipodi:type="arc" />
    <path
       sodipodi:type="arc"
       style="fill:none;stroke:#1a1a1a;stroke-width:6;stroke-miterlimit:4;stroke-opacity:1;stroke-dasharray:none"
       id="path68853"
       sodipodi:cx="88.388351"
       sodipodi:cy="349.80109"
       sodipodi:rx="18.687822"
       sodipodi:ry="18.687822"
       d="m 107.07617,349.80109 a 18.687822,18.687822 0 1 1 -37.375641,0 18.687822,18.687822 0 1 1 37.375641,0 z"
       transform="matrix(1.8014153,0,0,1.8014153,75.432314,-514.04714)" />
    <path
       transform="matrix(1.8014153,0,0,1.8014153,-2.7052349,-514.04714)"
       d="m 107.07617,349.80109 a 18.687822,18.687822 0 1 1 -37.375641,0 18.687822,18.687822 0 1 1 37.375641,0 z"
       sodipodi:ry="18.687822"
       sodipodi:rx="18.687822"
       sodipodi:cy="349.80109"
       sodipodi:cx="88.388351"
       id="path68855"
       style="fill:none;stroke:#1a1a1a;stroke-width:6;stroke-miterlimit:4;stroke-opacity:1;stroke-dasharray:none"
       sodipodi:type="arc" />
    <path
       sodipodi:type="arc"
       style="fill:none;stroke:#1a1a1a;stroke-width:6;stroke-miterlimit:4;stroke-opacity:1;stroke-dasharray:none"
       id="path68857"
       sodipodi:cx="88.388351"
       sodipodi:cy="349.80109"
       sodipodi:rx="18.687822"
       sodipodi:ry="18.687822"
       d="m 107.07617,349.80109 a 18.687822,18.687822 0 1 1 -37.375641,0 18.687822,18.687822 0 1 1 37.375641,0 z"
       transform="matrix(1.8014153,0,0,1.8014153,-80.842785,-514.04714)" />
    <path
       style="fill:none;stroke:#1a1a1a;stroke-width:10.8084917068;stroke-miterlimit:4;stroke-opacity:1;stroke-dasharray:none"
       d="M 465.94885459062,165.07632449687 C 443.57258922403,166.20934065441 430.75350466505,195.71866082022 445.00740172812,213.03900685937 458.03500176078,232.05426749246 490.59098151954,227.05469559017 497.36103388437,205.15781492187 505.17980154819,184.71491747714 487.35956357231,162.28234821287 465.94885459062,165.07632449687 z"
       id="path68879"
       inkscape:connector-curvature="0" />
    <path
       style="fill:none;stroke:#1a1a1a;stroke-width:10.8084917068;stroke-miterlimit:4;stroke-opacity:1;stroke-dasharray:none"
       d="M 387.81131459062,165.07632449687 C 365.43504922403,166.20934065441 352.61596466505,195.71866082022 366.86986172812,213.03900685937 379.89746176078,232.05426749246 412.45344151954,227.05469559017 419.22349388437,205.15781492187 427.04226154819,184.71491747714 409.22202357231,162.28234821287 387.81131459062,165.07632449687 z"
       id="path68883"
       inkscape:connector-curvature="0" />
    <path
       style="fill:none;stroke:#1a1a1a;stroke-width:10.8084917068;stroke-miterlimit:4;stroke-opacity:1;stroke-dasharray:none"
       d="M 75.261109590625,86.218214496875 C 52.884844224028,87.351230654412 40.065759665054,116.86055082022 54.319656728125,134.18089685937 67.347256760782,153.19615749246 99.903236519538,148.19658559017 106.67328888437,126.29970492187 114.49205654819,105.85680747714 96.671818572313,83.424238212874 75.261109590625,86.218214496875 z"
       id="path68887"
       inkscape:connector-curvature="0" />
    <path
       style="fill:none;stroke:#1a1a1a;stroke-width:10.8084917068;stroke-miterlimit:4;stroke-opacity:1;stroke-dasharray:none"
       d="M 231.53620859062,86.218214496875 C 209.15994322403,87.351230654412 196.34085866505,116.86055082022 210.59475572812,134.18089685937 223.62235576078,153.19615749246 256.17833551954,148.19658559017 262.94838788437,126.29970492187 270.76715554819,105.85680747714 252.94691757231,83.424238212874 231.53620859062,86.218214496875 z"
       id="path68891"
       inkscape:connector-curvature="0" />
    <path
       style="fill:none;stroke:#1a1a1a;stroke-width:10.8084917068;stroke-miterlimit:4;stroke-opacity:1;stroke-dasharray:none"
       d="M 231.53620859062,165.07632449687 C 209.15994322403,166.20934065441 196.34085866505,195.71866082022 210.59475572812,213.03900685937 223.62235576078,232.05426749246 256.17833551954,227.05469559017 262.94838788437,205.15781492187 270.76715554819,184.71491747714 252.94691757231,162.28234821287 231.53620859062,165.07632449687 z"
       id="path68895"
       inkscape:connector-curvature="0" />
    <path
       style="fill:none;stroke:#1a1a1a;stroke-width:10.8084917068;stroke-miterlimit:4;stroke-opacity:1;stroke-dasharray:none"
       d="M 390.0625,168.875 C 369.93620479695,168.17114484909 357.21140778565,195.57858140888 369.96875,210.78125 381.09456649919,226.95933423294 410.11681758194,222.58088488781 415.71875,203.625 421.70937592536,187.39189408282 407.87110108676,167.4266506698 390.0625,168.875 z"
       id="path68899"
       inkscape:connector-curvature="0" />
    <path
       transform="matrix(1.8014153,0,0,1.8014153,-80.842785,-435.18903)"
       d="m 107.07617,349.80109 a 18.687822,18.687822 0 1 1 -37.375641,0 18.687822,18.687822 0 1 1 37.375641,0 z"
       sodipodi:ry="18.687822"
       sodipodi:rx="18.687822"
       sodipodi:cy="349.80109"
       sodipodi:cx="88.388351"
       id="path68905"
       style="fill:none;stroke:#1a1a1a;stroke-width:6;stroke-miterlimit:4;stroke-opacity:1;stroke-dasharray:none"
       sodipodi:type="arc" />
  </g>
</svg>
