<?xml version="1.0" encoding="UTF-8" standalone="no"?>
<!-- Created with Inkscape (http://www.inkscape.org/) -->

<svg
   xmlns:dc="http://purl.org/dc/elements/1.1/"
   xmlns:cc="http://creativecommons.org/ns#"
   xmlns:rdf="http://www.w3.org/1999/02/22-rdf-syntax-ns#"
   xmlns:svg="http://www.w3.org/2000/svg"
   xmlns="http://www.w3.org/2000/svg"
   xmlns:sodipodi="http://sodipodi.sourceforge.net/DTD/sodipodi-0.dtd"
   xmlns:inkscape="http://www.inkscape.org/namespaces/inkscape"
   sodipodi:docname="letter sized frame blank.svg"
   inkscape:version="0.48.2 r9819"
   version="1.1"
   id="svg3783"
   height="1052.3622047"
   width="744.09448819">
  <sodipodi:namedview
     id="base"
     pagecolor="#ffffff"
     bordercolor="#666666"
     borderopacity="1.0"
     inkscape:pageopacity="0.0"
     inkscape:pageshadow="2"
     inkscape:zoom="0.24748737"
     inkscape:cx="-162.153"
     inkscape:cy="376.86643"
     inkscape:document-units="px"
     inkscape:current-layer="layer1"
     showgrid="false"
     inkscape:window-width="1024"
     inkscape:window-height="748"
     inkscape:window-x="13"
     inkscape:window-y="16"
     inkscape:window-maximized="0" />
  <defs
     id="defs3785">
    <inkscape:perspective
       sodipodi:type="inkscape:persp3d"
       inkscape:vp_x="-314.90439 : 155.3937 : 0"
       inkscape:vp_y="0 : 1000 : 0"
       inkscape:vp_z="372.04724 : 175.3937 : 0"
       inkscape:persp3d-origin="334.90438 : 296.50168 : 1"
       id="perspective3823" />
  </defs>
  <metadata
     id="metadata3788">
    <rdf:RDF>
      <cc:Work
         rdf:about="">
        <dc:format>image/svg+xml</dc:format>
        <dc:type
           rdf:resource="http://purl.org/dc/dcmitype/StillImage" />
        <dc:title></dc:title>
      </cc:Work>
    </rdf:RDF>
  </metadata>
  <g
     inkscape:label="Layer 1"
     inkscape:groupmode="layer"
     id="layer1">
    <flowRoot
       xml:space="preserve"
       id="flowRoot3475"
       style="fill:black;stroke:none;stroke-opacity:1;stroke-width:1px;stroke-linejoin:miter;stroke-linecap:butt;fill-opacity:1;font-family:Sans;font-style:normal;font-weight:normal;font-size:40px;line-height:125%;letter-spacing:0px;word-spacing:0px"><flowRegion
         id="flowRegion3477"><rect
           id="rect3479"
           width="474.7717"
           height="76.771591"
           x="40.406101"
           y="840.23016" /></flowRegion><flowPara
         id="flowPara3481" /></flowRoot>    <path
       style="fill:none;stroke:#000000;stroke-width:0.4276959px;stroke-linecap:butt;stroke-linejoin:miter;stroke-opacity:1"
       d="m 64.985668,242.64897 c -1.744274,3.75673 -4.939765,12.51503 -6.628283,18.08322 -2.223932,7.97825 -1.679381,7.95023 0.569442,1.77971 3.192972,-8.17176 8.657923,-22.61166 11.951801,-31.2632 4.577372,-10.87707 3.708173,-10.81208 -1.138712,-1.49059 -5.345646,11.21727 -12.846666,32.04698 -16.242506,45.16292 -3.16828,15.11817 -1.849126,14.10023 2.447024,-0.24047 5.879264,-16.60309 15.974374,-42.72748 22.170703,-57.49329 8.307121,-16.95595 6.626188,-16.55871 -2.859378,-0.49716 -9.260805,18.05552 -21.227746,51.35828 -25.903902,72.36606 -3.345735,22.48411 -1.33369,20.22963 4.216242,-2.57792 8.225915,-25.28972 23.170077,-62.89096 32.609618,-83.21282 12.814655,-22.55813 10.306666,-21.98114 -4.606894,0.24341 -13.542996,24.38224 -30.124134,70.29385 -35.680521,99.58401 -2.741608,29.93939 -0.155363,26.22036 5.860215,-5.23225 10.275589,-34.23862 30.325089,-83.00161 43.342659,-108.32732 18.072644,-27.58555 14.729984,-26.96511 -6.373795,0.74897 -18.19373,30.1741 -39.595147,88.75508 -45.638839,126.70567 -1.369296,37.39196 1.645752,31.98997 7.362982,-8.20051 12.06484,-43.42498 37.530297,-102.97902 54.445646,-132.74452 24.05951,-31.95406 19.87167,-31.40632 -8.157248,1.03918 -23.204314,35.39589 -49.697058,106.6491 -55.843408,153.61818 0.745876,44.75929 4.020967,37.46828 8.709997,-11.4779 13.63334,-52.81998 44.88095,-122.7477 65.996049,-156.37318 30.75456,-35.57788 25.70004,-35.2017 -9.95951,1.13466 -28.559606,40.01028 -60.480323,123.88301 -66.356834,180.20714 3.568934,51.96524 6.915219,42.59411 9.888847,-15.05802 15.024691,-62.3948 52.475267,-142.23367 78.072857,-179.12148 38.13566,-38.36361 32.17527,-38.24722 -11.78896,1.05502 -34.23853,43.9805 -71.988578,140.36264 -77.238943,206.35767 7.056174,58.94004 10.268321,47.31445 10.88915,-18.93398 C 65.387658,266.3688 109.51503,177.12738 139.85706,137.59507 186.0337,97.390257 179.10649,97.159212 126.19742,138.41243 85.982549,185.6836 41.939357,294.40462 37.650791,370.36689 48.807296,435.98863 51.667153,421.9513 49.353681,347.26824 66.823951,265.29597 118.15294,167.20902 153.47881,125.67345 208.32088,84.696262 200.34343,84.017297 137.88743,126.10718 91.429743,175.95622 40.570142,296.78119 37.554263,382.98969 53.367009,454.94682 55.647033,438.35636 49.878677,355.44419 68.509661,263.52372 127.61414,157.20083 168.13773,114.33067 232.21745,73.796529 223.08871,72.540615 150.52919,114.2395 97.597274,165.92283 39.34245,298.54785 37.881339,395.26665 58.844618,473.16929 60.310505,453.89754 50.631911,362.99778 70.458726,261.05872 137.95868,147.16763 183.86425,103.66409 257.67414,64.960135 247.28653,62.952581 164.12587,102.90142 104.52696,155.64716 38.247416,299.69472 38.590652,407.17557 65.134161,490.60044 65.546849,468.5287 51.570887,369.91094 72.689701,257.91018 149.2479,137.18481 200.68359,93.787041 284.59529,58.497779 272.85442,55.502069 178.67528,92.188406 112.25835,145.19888 37.279514,300.21272 39.64078,418.69799 72.128655,507.19885 71.244894,482.2128 52.655467,376.16765 75.225957,254.09035 161.54277,127.34068 218.61182,84.831399 312.81764,54.7601 299.67106,50.465665 194.16972,82.199674 120.82809,134.65363 36.43674,300.09356 40.990702,429.81903 79.722185,522.93716 77.29394,494.9209 53.847895,381.75351 78.095347,249.61457 174.90131,117.73927 237.6505,76.949724 342.08535,54.129105 327.56118,48.147383 210.59525,73.038631 130.26893,124.09289 35.720855,299.32977 42.600261,440.52742 87.811958,537.8016 83.584268,506.63104 55.113351,386.65563 81.33011,244.50168 189.37538,108.50315 257.77985,70.316313 372.02322,56.999743 356.27672,48.87371 227.93109,64.8135 140.60922,113.60397 35.137186,297.91458 44.430356,450.81514 96.300067,551.79136 90.007569,517.3269 56.420083,390.86231 84.966628,238.77444 205.00553,99.775953 278.95052,65.126853 402.11052,63.748585 385.47584,52.982232 246.14855,57.638064 151.87194,103.27968 34.694985,295.84217 46.443312,460.67723 105.09518,564.91735 96.457226,526.9965 57.739843,394.36296 89.04503,232.46 221.8149,91.724134 301.07426,61.595818 431.66133,74.687341 414.70026,60.800991 265.20928,51.632248 164.07411,93.21814 34.407316,293.10762 48.603164,470.11157 114.11382,577.2009 102.82836,535.63079 59.048109,397.14798 93.608914,225.59065 239.80111,84.537545 324.01365,59.950877 459.81765,90.000219 443.35509,72.616667 285.06338,46.922889 177.22608,83.522424 34.291072,289.70707 50.875703,479.11836 123.28128,588.6726 109.01798,543.22248 60.324561,399.20878 98.704523,218.20442 258.92692,78.427826 347.57159,60.423585 485.56523,109.66734 470.69458,88.629242 305.64677,43.644211 191.33081,74.300283 34.367331,285.63814 53.228709,487.70002 132.53247,599.37039 114.92528,549.76485 61.553346,400.53788 104.3801,210.34629 279.10969,73.623932 371.48219,63.235502 507.7821,133.38095 495.82074,108.89277 326.87745,41.937846 206.38344,65.663824 34.66094,280.90006 55.632037,495.86063 141.81195,609.33818 120.45195,555.25048 62.723457,401.12912 110.68469,202.06907 300.21017,70.363553 395.40394,68.579252 525.32893,160.46758 517.70257,133.24386 348.65155,41.95243 222.37039,57.72921 35.200869,275.49401 58.057511,503.60577 151.07417,618.62406 125.50288,559.67076 63.82918,400.97821 117.66672,193.43491 322.02247,68.879841 418.9178,76.594675 537.18577,189.8364 535.22572,161.22421 370.83822,43.841945 239.26889,50.616463 36.020035,269.4236 60.479139,510.94204 160.28275,627.27862 129.98772,563.01526 64.870281,400.08302 125.3718,184.51653 344.2663,69.382855 441.53247,87.340726 542.63006,219.97997 547.28013,192.00736 393.27385,47.76305 257.04617,44.449283 37.15518,262.69528 62.872816,517.87691 169.41007,635.35343 133.82295,565.27259 65.852348,398.44453 133.84021,175.3986 366.584,72.035383 462.69956,100.76503 541.43575,249.05543 552.89232,224.34897 415.7559,53.87054 275.6585,39.35496 38.646905,255.31899 65.21646,524.4181 178.43606,642.89982 136.93613,566.43336 66.786864,396.06768 143.10342,166.17899 388.54512,76.924718 481.84068,116.67441 534.05471,275.06616 551.39899,256.58283 438.03638,62.31026 295.04994,35.464324 40.53932,247.30841 67.489712,530.57375 187.34722,649.96724 139.27365,566.49781 67.691245,392.96247 153.17985,156.96935 409.66104,84.032324 498.38799,134.71087 521.72438,296.14521 542.64798,286.69168 459.81568,73.209637 315.15103,32.911759 42.879804,238.68179 69.67394,536.35184 196.13519,656.6026 140.81635,565.49641 68.588466,389.14531 164.06977,147.89509 429.411,93.205451 511.83761,154.33945 506.43685,310.90467 527.19479,312.47627 480.73767,86.664707 335.87666,31.835014 45.718797,229.46265 71.75207,541.76009 204.79564,662.84944 141.61281,563.53615 69.506515,384.64 175.74931,139.09408 447.2802,104.13596 521.81206,174.85384 490.71558,318.76971 506.44525,331.83625 500.38704,102.72353 357.1235,32.374861 49.109139,219.67994 73.70843,546.80567 213.32696,668.74736 141.83532,560.88101 70.477505,379.4792 188.16433,130.71367 462.80699,116.3525 528.12514,195.40599 477.18304,320.16288 482.68002,343.14845 518.29037,121.36598 378.7669,34.67439 53.10564,209.36913 75.528585,551.49514 221.72929,674.33187 141.80853,557.99235 71.53621,373.70508 201.22389,122.9061 475.63296,129.23185 530.83799,215.06222 467.96545,316.37255 458.89652,345.69314 533.92288,142.48035 400.65697,38.877537 57.764381,198.57255 77.199191,555.83412 230.00362,679.63437 141.90446,555.38431 72.718518,367.36991 214.7942,115.82132 485.54615,142.03264 530.29251,232.88382 464.06842,308.98668 438.42502,340.03502 546.72281,165.83747 422.61388,45.126608 63.141968,187.33992 78.70788,559.82725 238.15125,684.68229 142.3884,553.42092 74.059557,360.53617 228.69459,109.5981 492.50471,153.95095 527.10725,248.02239 464.98705,299.05976 424.32213,328.23346 556.11551,191.06484 444.42257,53.558403 69.294529,175.72885 80.043041,563.47815 246.17326,689.4996 143.40088,552.29912 75.591655,353.2761 242.69493,104.35342 496.62896,164.19138 522.12368,259.81227 468.89535,286.65808 418.60161,313.73979 561.54925,217.6234 465.82706,64.298321 76.276872,163.80524 81.193841,566.78899 254.07071,694.10699 145.01831,552.12676 77.342213,345.67101 256.51673,100.17108 498.15392,172.04261 516.29832,267.83631 473.33847,271.22703 421.31749,300.6901 562.5439,244.79179 486.52469,77.451987 84.141115,151.64337 82.149952,569.76071 261.84449,698.52257 147.29682,552.97339 79.332031,337.81059 269.83806,97.091601 497.3435,176.94474 510.54921,271.94162 475.7513,252.27852 429.50665,291.17457 558.75195,271.66325 506.16104,93.093785 92.935804,139.32624 82.901561,572.3927 269.49558,702.76227 150.29169,554.88809 81.57327,329.79179 282.30202,95.10478 494.3803,178.53991 505.58089,272.19391 473.53124,229.8894 438.9816,282.49248 550.02966,297.16249 524.32661,111.25179 102.70431,126.94522 83.439206,574.68297 277.02573,706.84005 154.06475,557.90369 84.068124,321.71844 293.52893,94.147986 489.25556,176.7063 501.72743,268.78471 464.02475,205.071 447.65904,271.85088 536.51236,320.08865 540.55647,131.88878 113.48382,114.60009 83.753859,576.62766 284.43752,710.76857 158.68694,562.0351 86.807258,313.7005 303.13022,94.111774 481.69035,171.58603 498.85708,261.93413 444.75091,180.10811 454.21441,258.04692 518.68485,339.19064 554.33493,154.87937 125.30372,102.39829 83.836808,578.22151 291.73511,714.55924 164.23838,567.27618 89.768688,305.85367 310.72313,94.855237 471.11441,163.62211 496.36577,251.84237 413.96221,158.77451 456.97258,240.61619 497.43339,353.27706 565.10733,179.98407 138.18455,90.454668 83.679748,579.45721 298.92448,718.22241 170.80659,573.59586 92.917008,298.29927 315.94326,96.231277 456.71871,153.61411 493.2507,238.72061 371.48726,146.21845 453.73911,219.84437 474.06305,361.35852 572.3015,206.82156 152.13659,78.890223 83.27467,580.32595 306.01382,721.76776 178.4834,580.93452 96.20251,291.16346 318.45509,98.121372 437.58608,142.7881 488.22689,222.89245 319.64438,148.30692 441.97873,197.14563 450.2626,362.81209 575.36149,234.84254 167.15879,67.831369 82.614145,580.8169 313.01363,725.20365 187.36007,589.20115 99.561525,284.57713 317.96013,100.47746 412.89558,132.85786 479.85517,204.93398 263.85474,170.34133 419.32844,175.47471 428.00128,357.54871 573.7956,263.30917 183.23774,57.408533 81.691284,580.91741 319.93673,728.53775 197.52115,598.27198 102.91696,278.67499 314.20558,103.36698 382.18928,126.03838 466.68118,185.8199 212.50824,215.31973 384.47613,159.51287 409.34935,346.15572 567.23912,291.28645 200.34685,47.755027 80.499885,580.61298 326.7979,731.77648 209.03701,607.99043 106.1802,273.59523 306.99847,107.01608 345.67751,124.96337 447.40865,167.04568 175.76544,282.24635 338.29433,155.33136 396.22326,329.98095 555.53064,317.65357 218.44571,39.005394 79.034802,579.88701 333.61365,734.92509 221.95546,618.16993 109.25389,269.47869 296.23087,111.84448 304.53574,132.46216 421.1288,150.691 163.35296,365.19879 284.89032,169.29292 390.06837,311.12893 538.79652,341.14377 237.47953,31.293994 77.291936,578.72132 340.40144,737.9873 236.29342,628.59891 112.03653,266.46877 281.92164,118.48446 261.11863,151.17427 387.60458,139.38079 181.91536,453.76941 232.02969,206.19561 391.47014,292.37278 517.53325,360.42116 257.37905,24.753512 75.268624,577.09552 347.17888,740.96544 252.02919,639.04859 114.42818,264.71129 264.27671,127.77525 218.99633,183.02474 347.57381,136.09983 232.85403,535.03116 190.38123,267.08011 399.39289,277.1345 492.67254,374.2001 278.06032,19.51344 72.963981,574.98753 353.96285,743.86017 269.09629,649.28314 116.33807,264.35487 243.76505,140.72373 182.72682,228.64527 303.00024,143.83469 311.54881,596.52053 171.36379,347.52932 409.07775,268.68835 465.60746,381.4067 299.4249,15.698768 70.379118,572.37346 360.76818,746.67048 287.38014,659.07181 117.6933,265.55145 221.19882,158.42255 157.32237,286.88469 257.17538,165.05652 408.35847,629.22626 184.01045,437.4024 416.80999,263.93086 438.15471,381.37237 321.35984,13.428598 67.517609,569.22749 367.60678,749.39391 306.71786,668.20179 118.44917,268.4568 c 79.35041,-86.53516 29.00898,86.12261 96.12705,-67.34065 296.48602,428.41429 17.33666,321.41953 208.92268,57.81618 C 412.42794,374.035 343.73796,12.815168 64.38582,565.52241 374.48635,752.0266 326.90228,676.49097 118.60023,273.23023 175.22551,212.05646 156.57071,426.72471 180.42017,251.6815 607.83212,599.50716 311.53754,588.10788 429.29508,252.58715 390.60308,360.10796 366.4179,13.962706 60.993401,561.22941 381.40918,754.56343 347.68939,683.79875 118.19153,280.03287 c 37.34091,-30.78451 67.88125,217.05704 41.74523,34.35001 529.77263,231.29466 252.82401,308.13595 273.81728,-70.00774 -59.18181,96.782 -44.51006,-227.408583 -376.400352,311.94312 331.017622,200.68051 311.456172,133.71625 59.976162,-267.29461 23.71844,4.28461 117.58801,270.16039 40.14097,95.79301 594.4267,92.05669 364.04496,235.49102 278.60776,-150.83899 C 365.5132,319.50762 412.04577,21.912218 53.484283,550.75805 352.29506,755.69375 419.78515,714.65816 129.52547,480.42104"
       id="path3524"
       inkscape:connector-curvature="0" />
  </g>
  <path
     inkscape:connector-curvature="0"
     id="path3524-7"
     d="m -2429.1886,691.40668 c 0.1346,-0.98695 -0.079,-3.28118 -0.3786,-4.72665 -0.4393,-2.0444 -0.8875,-2.06167 -0.9945,-0.50537 -0.1369,2.09426 0.265,5.91881 0.7878,8.28361 0.6387,3.04606 1.2625,3.04964 1.4197,0.46647 0.2012,-3.01963 -0.3184,-8.46524 -1.1032,-11.80647 -0.961,-3.76076 -1.8761,-3.56829 -2.0095,-0.0517 -0.1466,4.19884 0.6371,11.16546 1.6116,15.32135 1.0687,4.98862 2.0765,4.89115 2.3104,0.21851 0.2947,-4.98049 -0.5123,-13.68168 -1.8002,-18.94028 -1.5283,-5.44908 -2.937,-5.00797 -3.0559,0.44804 -0.1291,6.31872 1.0626,16.43041 2.4812,22.33755 1.4848,7.01784 2.8495,6.83606 3.1601,0.004 0.4044,-6.91159 -0.6632,-18.91718 -2.4731,-26.13478 -2.1525,-7.09679 -4.0761,-6.37085 -4.1317,0.99577 -0.079,8.46577 1.5443,21.713 3.4009,29.34357 1.8899,9.14392 3.581,8.88906 3.9661,-0.18365 0.5265,-8.82012 -0.773,-24.1742 -3.1252,-33.39671 -2.8437,-8.70138 -5.3007,-7.65403 -5.2346,1.59299 0.01,10.64292 2.0851,27.0182 4.3745,36.35267 2.2823,11.38554 4.2664,11.06045 4.725,-0.35063 0.6583,-10.71064 -0.8428,-29.45791 -3.7587,-40.73325 -3.6113,-10.2611 -6.6178,-8.85534 -6.3622,2.241 0.1275,12.85142 2.6875,32.35301 5.4044,43.38033 2.6547,13.76713 4.8963,13.36429 5.4335,-0.50574 0.7985,-12.58764 -0.8732,-34.77485 -4.3744,-48.15217 -4.4642,-11.77399 -8.0343,-9.97238 -7.5124,2.94088 0.2879,15.09205 3.354,37.72599 6.4919,50.4446 2.992,16.31874 5.4542,15.81822 6.088,-0.65907 0.9465,-14.45618 -0.8635,-40.13274 -4.9718,-55.66221 -5.4097,-13.23766 -9.5553,-11.00235 -8.6829,3.69366 0.4874,17.36544 4.0871,43.14745 7.6359,57.5665 3.2681,19.07573 5.9142,18.44318 6.6851,-0.82254 1.1038,-16.32215 -0.8118,-45.54062 -5.548,-63.27327 -6.4541,-14.64954 -11.1851,-11.94203 -9.8715,4.50038 0.7262,19.67206 4.8891,48.62959 8.8329,64.77024 3.4404,22.07798 6.2376,21.26303 7.2214,-1.00993 1.2734,-18.19239 -0.714,-51.0089 -6.0977,-70.99672 -7.602,-16.00691 -12.9267,-12.78779 -11.076,5.3622 1.0037,22.01239 5.7615,54.18668 10.0747,72.08346 3.4448,25.36747 6.3698,24.30287 7.6951,-1.23699 1.4606,-20.07485 -0.5642,-56.54948 -6.613,-78.84554 -8.856,-17.30716 -14.7806,-13.53556 -12.2942,6.28034 1.3193,24.38694 6.7054,59.83545 11.3483,79.53738 3.1873,28.98339 6.2346,27.58608 8.1055,-1.52146 1.6741,-21.97849 -0.3526,-62.17586 -7.0815,-86.83446 -10.2167,-18.54792 -16.7467,-14.18088 -13.524,7.25628 1.6716,26.79627 7.7203,65.59514 12.6322,87.1665 2.5363,32.95301 5.73,31.12873 8.456,-1.88278 1.9254,-23.91333 -0.066,-67.90311 -7.4872,-94.98007 -11.6828,-19.72722 -18.822,-14.71889 -14.763,8.29165 2.059,29.24105 8.8035,71.48774 13.8954,95.0081 1.3137,37.27645 4.7223,34.93045 8.7536,-2.34164 2.2308,-25.89025 0.3133,-73.74774 -7.8077,-103.30066 -13.2511,-20.84373 -21.0025,-15.14436 -16.0094,9.38831 2.4799,31.72209 9.9489,77.53797 15.0928,103.10083 -0.706,41.90348 3.0444,38.96056 9.0133,-2.91888 2.6112,-27.92056 0.8103,-79.72747 -8.0148,-111.81603 -14.9163,-21.89679 -23.2815,-15.45166 -17.2611,10.54832 2.9326,34.24042 11.1457,83.77316 16.1622,111.4824 -3.788,46.70275 0.4976,43.13884 9.2591,-3.6337 3.0938,-30.01547 1.4568,-85.86052 -8.072,-120.54685 -16.6713,-22.8867 -25.6507,-15.63479 -18.516,11.77398 3.4155,36.79727 12.3758,90.22267 17.0196,120.18537 -8.2096,51.42669 -3.1362,47.31222 9.527,-4.50053 3.713,-32.18495 2.2939,-92.16471 -7.9332,-129.51364 -18.5077,-23.81475 -28.0994,-15.68746 -19.7725,13.06771 3.9277,39.39415 13.6113,96.917 17.5556,129.23098 -14.2047,55.68365 -8.0673,51.23077 9.8678,-5.52419 4.5114,-34.4363 3.3736,-98.65595 -7.5414,-138.73538 -20.4157,-24.68329 -30.6149,-15.60301 -21.0287,14.43214 4.4681,42.03282 14.8113,103.88577 17.6325,138.62001 -21.8837,58.93353 -14.4535,54.53158 10.3477,-6.69311 5.5409,-36.77192 4.7606,-105.34587 -6.8267,-148.22713 -22.3848,-25.49582 -33.1825,-15.37454 -22.2836,15.86994 5.0372,44.71539 15.918,111.15471 17.0858,148.3207 -31.1372,60.52712 -22.3385,56.74153 11.0458,-7.97029 6.8632,-39.1863 6.5338,-112.23876 -5.7051,-157.99686 -24.4034,-26.25698 -35.7851,-14.99494 -23.5358,17.38385 5.6354,47.44411 16.8531,118.74056 15.7299,158.2544 -41.5537,59.80111 -31.5821,57.31154 12.0471,-9.2832 8.5507,-41.66208 8.7872,-119.32731 -4.0772,-168.04125 -26.46,-26.97248 -38.4038,-14.457 -24.7845,18.97651 6.2642,50.22148 17.5152,126.64388 13.3727,168.28123 -52.386,56.22219 -41.8008,55.69019 13.4279,-10.51477 10.6846,-44.16506 11.6308,-126.58708 -1.828,-178.34016 -28.5432,-27.64901 -41.0178,-13.75356 -26.0297,20.65042 6.9259,53.04996 17.7802,134.83905 9.8401,178.18939 -62.5989,49.54975 -52.342,51.43342 15.2336,-11.49913 13.3531,-46.63848 15.1879,-133.9701 1.1706,-188.85016 -30.6415,-28.29403 -43.6043,-12.87775 -27.2712,22.40777 7.6229,55.93182 17.5058,143.26213 5.0082,187.69378 -71.0079,39.96731 -62.3151,44.33147 17.4498,-12.0276 16.6456,-48.99653 19.5922,-141.39732 5.057,-199.49698 -32.7443,-28.91566 -46.1396,-11.82356 -28.5101,24.25028 8.3583,58.86882 16.5446,151.79857 -1.1595,196.44927 -76.4861,28.13044 -70.6901,34.51993 19.9723,-11.86921 20.6453,-51.11854 24.9805,-148.75129 9.9724,-210.16816 -34.8415,-29.5224 -48.5988,-10.58669 -29.7476,26.17906 9.1344,61.86169 14.7651,160.27394 -8.5783,204.08124 -78.1898,15.09971 -76.4539,22.5357 22.5846,-10.80756 25.4167,-52.84454 31.4819,-155.86955 16.0499,-220.70648 -36.9243,-30.1229 -50.9577,-9.16675 -30.986,28.19426 9.9526,64.90964 12.0811,168.45339 -17.0223,210.23223 -75.7372,2.16481 -78.7922,9.28591 24.952,-8.6912 30.9908,-53.97389 39.2034,-162.5407 23.4002,-230.90599 -38.9844,-30.72581 -53.1938,-7.57217 -32.2279,30.29493 10.812,68.00943 8.4842,176.05404 -26.1266,214.61704 -69.294,-9.39303 -77.2464,-4.0788 26.6422,-5.48802 37.3463,-54.26931 48.2115,-168.50499 32.0929,-240.51253 -41.0143,-31.33947 -55.292,-5.83074 -33.4763,32.47874 11.7089,71.1543 4.0723,182.77305 -35.4152,217.07451 -59.5504,-18.52926 -71.8039,-16.36322 27.1736,-1.32973 44.3897,-53.46805 58.5117,-173.4612 42.1365,-249.23073 -43.0076,-31.97187 -57.2578,-4.00707 -34.7349,34.74161 12.635,74.33263 -0.9375,188.32794 -44.3532,217.60312 -47.6005,-24.59118 -62.8935,-26.54729 26.0879,3.46776 51.9366,-51.30156 70.0282,-177.08161 53.4578,-256.73894 -44.9587,-32.6304 -59.1339,-2.20904 -36.0072,37.07763 13.5767,77.52599 -6.2179,192.49986 -52.4122,216.36974 -34.7425,-27.37558 -51.3063,-33.96202 23.0315,8.4194 59.6986,-47.52457 82.587,-179.03567 65.8854,-262.71285 -46.8628,-33.32195 -60.9928,-0.55239 -37.2972,39.47874 14.5144,80.70693 -11.3628,195.16734 -59.1361,213.68821 -22.1783,-27.12578 -38.0889,-38.36508 17.8313,12.92417 67.2792,-41.95179 95.9066,-179.02143 79.1397,-266.857 -48.7153,-34.05274 -62.9003,0.88361 -38.6079,41.93466 15.4222,83.83634 -15.9373,196.3186 -64.1928,209.97158 -10.6425,-24.52745 -24.4873,-39.88356 10.5442,16.3495 74.1826,-34.49925 109.5985,-176.80215 92.835,-268.94141 -50.5129,-34.82844 -64.8972,2.057 -39.9428,44.43286 16.2692,86.86056 -19.5307,196.03636 -67.3997,205.66883 -0.1986,-20.66753 -12.0081,-38.82601 1.4673,18.13189 79.8408,-25.22468 123.1835,-172.2435 106.4943,-268.83874 -52.2522,-35.65419 -67.0054,2.94414 -41.3041,46.95843 17.0219,89.70885 -21.8038,194.45666 -68.7202,201.1992 9.5602,-16.88256 -2.475,-35.50411 -8.8962,17.87374 83.6564,-14.35906 136.1208,-165.34466 119.5802,-266.55548 -53.931,-36.5347 -69.2379,3.52843 -42.6941,49.49412 17.6478,92.29152 -22.5193,191.71076 -68.2316,196.89471 19.0966,-14.61496 3.0716,-30.67831 -19.9115,15.41975 85.061,-2.32184 147.8511,-156.25732 131.5372,-262.25085 -55.5474,-37.47432 -71.604,3.79642 -44.1148,52.02022 18.1197,94.49988 -21.5581,187.86317 -66.0718,192.9565 28.5408,-15.37043 6.1178,-25.83623 -30.9147,10.90073 83.5808,10.28807 157.8447,-145.28556 141.841,-256.23678 -57.1003,-38.47718 -74.1118,3.73696 -45.5683,54.51447 18.4203,96.20837 -18.9293,182.85967 -62.3804,189.42503 37.2987,-20.62352 8.3071,-21.91058 -41.3213,4.74183 78.9019,22.72949 165.6518,-132.86447 150.0489,-248.95636 -58.5895,-39.54733 -76.7694,3.34149 -47.057,56.95183 18.5441,97.27964 -14.7888,176.49981 -57.2544,186.1627 43.6858,-31.43235 10.3981,-19.41395 -50.7097,-2.36232 70.9215,34.18387 170.9407,-119.51756 155.8382,-240.9413 -60.0157,-40.68866 -79.5849,2.60465 -48.5842,59.30436 18.4964,97.57228 -9.4757,168.44776 -50.7402,182.84867 44.9453,-47.62759 12.6751,-18.88825 -58.8526,-9.5004 59.778,43.84197 173.5212,-105.79902 159.0313,-232.75383 -61.3802,-41.90523 -82.567,1.52503 -50.1547,61.54087 18.2873,96.95068 -3.5671,158.29862 -42.8779,178.98732 38.3496,-66.95085 14.9031,-21.00133 -65.6756,-15.61634 45.8494,51.00016 173.3478,-92.22998 159.5986,-224.92294 -62.6858,-43.20115 -85.7248,0.10581 -51.7746,63.62681 17.9204,95.2961 2.0777,145.71587 -33.7946,173.93278 23.4756,-85.62729 16.0725,-26.37823 -71.1512,-19.59221 29.7248,55.15174 170.5056,-79.24052 157.6455,-217.88584 -63.9359,-44.58066 -89.0675,-1.64464 -53.4522,65.52414 17.3799,92.5183 6.3504,130.63673 -23.8294,166.94281 3.013,-101.07009 14.2533,-35.03527 -75.1497,-20.3435 12.1517,56.05578 165.1865,-67.12863 153.3896,-211.94649 -65.1352,-46.04819 -92.6038,-3.71241 -55.1977,67.19144 16.6174,88.56724 8.0971,113.48145 -13.668,157.29064 -19.5885,-112.93159 7.1764,-45.47516 -77.2853,-16.94658 -6.0236,53.76865 157.6687,-56.04545 147.1407,-207.26008 -66.2891,-47.60829 -96.3417,-6.0779 -57.0237,68.58409 15.5473,83.44472 6.5349,95.19007 -4.4269,144.47176 -41.6766,-121.44524 -5.7739,-54.54413 -76.8321,-8.82826 -23.9034,48.62503 148.3168,-46.0136 139.3019,-203.85039 -67.4036,-49.26567 -100.2878,-8.71603 -58.9448,69.65479 14.0529,77.21376 1.6838,76.88198 2.419,128.50718 -61.3532,-126.5647 -21.8034,-59.84604 -72.8471,3.98933 -40.535,41.15644 137.6311,-36.98737 130.4195,-201.66879 -68.4856,-51.02506 -104.4459,-11.59679 -60.9773,70.35431 12.0092,70.0014 -5.6264,59.27425 5.4182,110.22251 -77.6433,-128.16243 -36.7481,-62.06624 -64.7225,20.73542 -54.7793,31.92112 126.4177,-28.98072 121.353,-200.72066 -69.542,-52.89122 -108.8158,-14.68625 -63.1387,70.63246 9.3179,61.98879 -14.2751,42.44016 3.859,91.16456 -90.9877,-126.1677 -48.0712,-63.46882 -53.3346,40.14216 -64.9012,21.27476 116.2205,-22.23829 113.7079,-201.23459 -70.5799,-54.86881 -113.392,-17.94787 -65.4473,70.43938 5.9447,53.38464 -23.3595,26.11979 -1.6712,72.84522 -103.2866,-120.06917 -55.6322,-65.58791 -41.4588,60.40926 -68.718,10.0935 109.1763,-16.44734 109.6902,-202.87216 -71.6059,-56.96229 -118.1619,-21.34431 -67.9211,69.72692 1.9403,44.38821 -32.3657,10.13535 -9.6696,55.85951 -116.7579,-108.30828 -61.1813,-68.0473 -29.2499,79.62778 -67.7218,0.16775 103.8791,-10.28327 107.9693,-204.27113 -72.6257,-59.17585 -123.1042,-24.83952 -70.577,68.45017 -2.5641,35.15777 -41.166,-5.40276 -18.7002,39.94155 -132.2774,-88.73361 -67.2697,-68.762 -15.9903,97.85337 -64.3268,-7.97478 98.1119,-3.54301 106.4084,-205.1763 -73.6442,-61.51325 -128.1882,-28.40096 -73.4295,66.56906 -7.3892,25.80237 -49.9929,-20.06932 -27.8724,24.6658 -148.7016,-59.89045 -76.2779,-64.89311 -1.9683,115.42232 -59.4939,-14.10802 91.2037,3.83392 104.4195,-205.45822 -74.6645,-63.97778 -133.3729,-32.00183 -76.4904,64.0497 -12.3523,16.40123 -59.3743,-33.18162 -36.807,9.89487 -163.4076,-22.06275 -89.5256,-53.60189 12.6949,132.21902 -53.9321,-18.01422 82.8264,12.04642 101.7556,-204.82998 -75.6877,-66.57213 -138.6069,-35.62313 -79.7671,60.8657 -17.3128,7.04071 -69.9904,-43.88475 -45.5461,-4.12773 -173.4314,22.43053 -106.3911,-32.62773 28.1649,147.59039 -48.3214,-19.4549 72.7876,21.42172 98.3008,-202.85562 -62.8964,-64.76561 -135.5667,-50.70073 -98.4254,15.52247"
     style="fill:none;stroke:#000000;stroke-width:0.19621582px;stroke-linecap:butt;stroke-linejoin:miter;stroke-opacity:1" />
</svg>
