<?xml version="1.0" encoding="UTF-8" standalone="no"?>
<!-- Created with Inkscape (http://www.inkscape.org/) -->

<svg
   xmlns:dc="http://purl.org/dc/elements/1.1/"
   xmlns:cc="http://creativecommons.org/ns#"
   xmlns:rdf="http://www.w3.org/1999/02/22-rdf-syntax-ns#"
   xmlns:svg="http://www.w3.org/2000/svg"
   xmlns="http://www.w3.org/2000/svg"
   xmlns:sodipodi="http://sodipodi.sourceforge.net/DTD/sodipodi-0.dtd"
   xmlns:inkscape="http://www.inkscape.org/namespaces/inkscape"
   width="744.09448819"
   height="1052.3622047"
   id="svg2"
   version="1.1"
   inkscape:version="0.48.2 r9819"
   sodipodi:docname="Spiral058.svg">
  <sodipodi:namedview
     id="base"
     pagecolor="#ffffff"
     bordercolor="#666666"
     borderopacity="1.0"
     inkscape:pageopacity="0.0"
     inkscape:pageshadow="2"
     inkscape:zoom="0.45254834"
     inkscape:cx="-154.04824"
     inkscape:cy="682.09117"
     inkscape:document-units="px"
     inkscape:current-layer="layer1"
     showgrid="false"
     inkscape:window-width="1024"
     inkscape:window-height="753"
     inkscape:window-x="25"
     inkscape:window-y="8"
     inkscape:window-maximized="0"
     inkscape:snap-center="false" />
  <title
     id="title6810">(UniballDeluxeFine)</title>
  <defs
     id="defs4" />
  <metadata
     id="metadata7">
    <rdf:RDF>
      <cc:Work
         rdf:about="">
        <dc:format>image/svg+xml</dc:format>
        <dc:type
           rdf:resource="http://purl.org/dc/dcmitype/StillImage" />
        <dc:title>(UniballDeluxeFine)</dc:title>
      </cc:Work>
    </rdf:RDF>
  </metadata>
  <g
     style="display:inline"
     inkscape:label="Pen"
     inkscape:groupmode="layer"
     id="layer1">
    <rect
       style="fill:none;stroke:#000000;stroke-width:1.12594795;stroke-miterlimit:4;stroke-opacity:1;stroke-dasharray:none"
       id="rect3021"
       width="586.06732"
       height="786.08429"
       x="10.092996"
       y="0.21038114" />
    <path
       id="path11911"
       d=""
       style="fill:none;stroke:#000000"
       inkscape:connector-curvature="0" />
    <path
       inkscape:connector-curvature="0"
       style="fill:none;stroke:#000000"
       d=""
       id="path13427" />
    <path
       inkscape:connector-curvature="0"
       style="fill:none;stroke:#000000"
       d=""
       id="path13431" />
  </g>
  <g
     style="display:inline"
     id="g3923"
     inkscape:groupmode="layer"
     inkscape:label="Sharpie">
    <flowRoot
       style="font-size:40px;font-style:normal;font-weight:normal;line-height:125%;letter-spacing:0px;word-spacing:0px;fill:#000000;fill-opacity:1;stroke:none;font-family:Sans"
       id="flowRoot6771"
       xml:space="preserve"><flowRegion
         id="flowRegion6773"><rect
           y="200.16124"
           x="89.70536"
           height="162.1597"
           width="104.65626"
           id="rect6775" /></flowRegion><flowPara
         id="flowPara6777" /></flowRoot>    <path
       sodipodi:nodetypes="cssssssssssssssssssssssssssssssssssssssssssssssssssssssssssssssssssssssssssssssssssssssssssssssssssssssssssssssssssssssssssssssssssssssssssssssssssssssssssssssc"
       inkscape:connector-curvature="0"
       id="path6458"
       d="m 326.94548,226.81964 c -4.80156,0.3797 -10.79086,0.89892 -12.89126,0.96957 -3.10799,0.20587 1.81994,-1.43416 9.17645,-2.41904 10.58437,0.0979 21.29947,2.59615 24.05267,4.04067 3.86753,2.1873 -4.25162,0.40252 -16.32647,-1.26934 -14.03772,1.06207 -28.43167,4.768 -32.63117,5.6668 -4.1106,0.93973 6.2491,-5.58962 23.25154,-9.51545 21.67984,1.68826 40.9423,10.64003 44.119,14.00129 4.56689,5.00347 -8.69392,-2.10312 -29.78976,-8.44843 -22.27395,1.51595 -43.82952,10.72733 -49.85483,13.56764 -4.77336,2.07731 8.87075,-11.98238 34.95399,-20.25071 32.99485,5.2648 58.34311,24.50719 60.82901,29.72004 4.09473,8.51583 -11.5932,-6.66354 -40.13364,-20.72631 -29.61995,1.20503 -56.56104,17.19152 -63.78746,23.07796 -4.98717,3.30944 9.05717,-19.91034 43.6325,-33.27372 44.05285,11.39253 71.50435,44.02475 72.3997,50.5635 2.03482,12.25648 -12.285,-12.58148 -45.74521,-37.20242 -36.02991,-0.29087 -66.70799,22.67078 -74.07571,32.49752 -4.90624,4.40949 89.98099,324.71166 242.42845,232.7715 72.58796,-163.53979 -114.8285,-211.5562 -116.07021,-204.55544 -1.82016,15.58257 -10.3676,-18.96683 -45.2772,-56.43898 -41.38076,-3.25673 -74.6377,25.90841 -80.76415,40.18385 -4.8123,5.30419 89.02782,312.58138 265.13315,190.85201 47.56529,-205.25856 -135.84068,-155.30081 -139.31061,-148.86121 -7.42138,17.74821 -5.7563,-24.83283 -37.81496,-76.55135 -45.46159,-7.81925 -80.83993,25.97171 -84.23245,44.70788 -5.02547,6.12452 83.25389,302.59995 279.87217,148.97836 9.51416,-240.99756 -160.17583,-96.07032 -165.48347,-91.16691 -14.42495,18.00167 1.29818,-29.20396 -23.01448,-95.34779 -47.98346,-13.92609 -85.75099,22.28742 -85.10144,44.98683 -5.801,7.2174 73.6143,295.62416 287.61709,108.71265 -39.57311,-267.33516 -188.3555,-36.98158 -194.68743,-34.3372 -22.18685,15.69729 10.22687,-31.22394 -1.19599,-110.50966 -48.61728,-21.33257 -89.57246,14.62689 -84.11981,40.38639 -7.22471,9.09679 61.25697,292.11005 289.62983,71.19078 -96.89547,-281.541766 -220.2116,18.71152 -226.46886,18.79312 -29.79952,10.40995 20.19286,-30.2529 26.61769,-119.79611 -47.05356,-29.60397 -92.10189,3.07276 -82.04346,30.78139 -9.14228,12.31624 47.39098,292.07766 287.31687,37.07746 -159.06991,-281.750894 -254.81666,67.88487 -259.81219,65.62026 -36.16999,2.03582 30.17015,-25.94517 58.72517,-121.258 -43.07369,-38.1399 -92.62985,-11.96503 -79.52057,16.57502 -11.17229,17.26756 33.1515,295.11461 282.08003,6.56073 C 366.24013,40.115191 298.12946,415.0003 295.44212,411.14243 255.30796,402.00586 334.48579,392.84271 388.27668,297.7006 351.65854,251.47715 298.24706,268.06376 311.28923,296.39128 298.44799,320.33575 330.75862,596.79221 586.45911,275.76374 303.37683,38.205364 261.51679,412.25946 261.81764,408.02009 221.22006,385.62544 307.53823,400.34348 388.02868,312.4549 360.19185,259.3634 304.89787,263.90984 313.58874,291.14615 299.64177,322.75979 320.39885,597.7452 580.99782,245.82106 243.41267,51.532171 225.62167,398.57728 229.03711,395.4607 c -36.68496,-36.62152 49.24393,5.22003 155.87582,-67.64614 -17.11103,-58.02007 -71.21419,-66.83663 -69.76665,-41.09059 -16.37081,38.5717 -6.52845,311.72198 257.4742,-69.07126 C 189.86222,78.513421 193.7953,374.17129 199.78359,373.73772 c -27.88618,-50.36699 48.89527,19.39439 178.83993,-30.57355 -5.04188,-60.411 -54.32288,-82.50516 -60.18298,-59.43988 -22.72091,44.01417 -23.01856,315.00983 243.27843,-92.22987 -416.08268,-74.68668 -392.41215,148.80829 -385.07926,152.39694 -14.17536,-61.96992 44.27958,33.64082 192.35758,13.8924 7.5938,-59.86871 -33.29281,-93.73531 -45.604,-75.15274 -32.958,46.96249 -42.56295,315.80045 225.29649,-115.11616 -435.79601,-4.00135 -393.67447,131.72705 -386.82134,140.17581 3.9111,-69.72185 35.38159,46.64818 194.17701,63.19232 19.91477,-56.257 -9.60095,-99.17101 -26.81159,-86.86816 -46.18275,46.15267 -64.3556,313.32779 204.6908,-138.19496 -440.971009,69.57118 -380.86816,108.3082 -376.71622,121.71193 25.25194,-72.05577 22.58925,57.11968 182.76816,114.11267 31.02419,-49.72697 14.866,-98.08569 -5.00574,-93.46278 -61.03327,40.49861 -87.34931,307.07574 182.83156,-161.72354 -431.533758,142.63374 -353.22305,82.27526 -354.10055,99.82286 48.18255,-67.74581 6.67991,63.89396 157.50695,162.99297 40.10485,-40.71255 38.06948,-90.45879 18.31727,-94.19073 C 263.75052,324.39123 229.14087,591.9528 500.68246,109.42741 92.457491,321.37823 189.56094,167.14762 181.56997,187.0693 c 70.60276,-56.09003 -11.22927,66.061 118.7984,205.98568 46.50949,-29.89381 58.07537,-76.96667 41.49279,-88.75997 C 253.42962,316.72879 209.54592,587.19638 482.89957,94.680842 110.39012,369.31925 226.72232,133.41009 210.14883,153.05671 c 90.14644,-37.06021 -29.76396,63.05763 68.1255,239.34647 49.83525,-18.13074 73.28499,-58.89306 62.82769,-77.36323 -96.95388,-9.62727 -152.12233,265.71043 123.65815,-232.90587 -326.44476,328.31753 -191.1977,28.98644 -216.8666,45.0468 104.39995,-11.39402 -47.40178,54.73795 8.01536,259.73715 49.97269,-6.37496 82.61906,-37.97247 80.74201,-60.66637 C 237.21669,290.55193 167.62263,572.3765 446.53976,71.671829 174.01917,442.89636 326.51232,103.068 292.45426,111.91149 c 111.15017,19.38368 -62.59988,41.4079 -58.08029,264.51557 47.12408,4.43089 85.63689,-16.1832 93.90081,-39.75629 C 233.95058,272.70514 145.69594,561.84209 428.48186,63.154595 214.99972,465.42864 381.19995,110.9146 340.81828,109.03091 c 108.64216,53.02015 -73.92799,23.8221 -125.98237,251.98857 41.787,13.45665 82.57817,4.48533 101.32399,-16.0524 -80.64482,-92.07479 -192.69541,203.9602 94.6376,-288.542375 -152.15054,421.073185 22.01406,78.541685 -21.28355,63.033275 95.81425,86.67762 -80.19826,3.14119 -191.05256,221.60825 34.70482,20.07797 74.3237,22.26494 102.46635,8.80932 -58.16194,-117.32384 -199.68892,183.55716 92.73812,-298.5635 -91.25287,427.89082 82.849,122.74913 41.19321,91.82029 72.48927,117.15208 -80.5791,-19.14703 -248.51133,174.09114 26.78765,23.94998 62.27922,35.81413 97.25934,33.11012 C 256.10407,213.44094 79.375695,515.18879 377.23577,47.639245 343.96254,471.22605 507.90859,225.58828 473.23866,178.97131 512.7326,320.12387 398.55515,137.63216 179.45169,290.41914 c 19.01212,25.05209 48.196,44.37178 86.11294,55.18777 C 275.36549,197.48884 58.277233,494.0651 361.62751,45.226183 381.29597,454.73693 523.4581,285.6471 501.38819,224.90393 c -1.30935,155.61781 -62.62107,-61.64859 -322.86694,36.91687 12.30968,23.69826 33.94864,47.84118 69.87676,73.57005 C 299.75868,186.60971 38.388548,469.98124 346.93521,43.893893 412.83785,431.27247 515.64048,429.55753 511.43197,358.20585 464.33942,516.24935 471.65171,199.63355 184.03523,232.78754 c 7.45494,20.5088 21.29556,46.79225 49.76461,87.08998 C 327.86572,182.49794 20.19292,442.91704 333.22948,43.467814 437.48899,402.60624 473.22542,494.86064 491.11624,418.29034 396.88212,565.07397 494.31658,244.64971 196.15448,204.80509 c 4.96697,16.34775 11.65091,42.38241 27.2493,94.97448 C 357.71034,186.42293 4.2052097,412.92363 320.56034,43.780551 454.64237,370.61576 404.09928,589.28144 446.65643,514.44122 308.0699,635.74245 504.48809,295.4057 214.68899,179.41004 c 5.03407,12.2276 5.89509,36.2011 3.9374,96.89687 168.26646,-77.25926 -227.6638201,103.82641 90.33367,-231.63295 155.2049,292.48374 96.06642,462.34758 163.63947,397.21323 -175.81955,82.3303 28.12277,-93.48167 -233.51597,-283.78215 7.47213,9.19257 4.24784,30.05572 -18.56527,92.99119 C 412.7833,220.29145 -18.987538,344.76921 298.44621,46.000748 466.35101,303.9586 310.96526,632.62105 401.3128,585.47857 199.50032,617.41017 482.56138,399.79423 268.42439,142.27033 c 11.72237,8.19049 6.22136,25.72301 -38.78513,83.82633 203.1185,23.15963 -254.740752,81.05641 59.38499,-178.470886 C 461.85307,272.52649 266.77831,673.55958 374.92926,652.1595 161.86417,625.58723 450.62054,445.63847 301.46712,133.07716 c 16.89182,9.94655 10.66229,24.69332 -55.49782,70.34361 198.48718,80.80826 -272.825596,64.29 34.72134,-153.994059 170.90747,194.661509 -85.79076,664.510169 32.60102,675.172359 -207.08115,-88.79136 93.30353,-242.37276 23.39464,-593.19149 21.83407,14.85299 15.881,27.93962 -67.82078,53.76228 177.17406,137.5957 -292.63419,41.80612 4.56946,-133.875222 C 436.69648,219.55208 129.64964,667.07933 248.55899,713.83755 65.865244,564.26068 353.18297,506.36518 372.34399,137.78662 c 25.26569,22.88672 19.85778,35.73884 -75.2729,35.46434 C 436.41371,361.85608 -15.415732,185.58928 267.24245,53.134227 418.35086,199.49679 77.14369,610.41526 185.39656,694.29771 45.104924,490.86768 293.92528,515.65234 406.57518,152.33101 c 25.90721,33.5663 20.50441,47.57066 -77.79684,16.86692 C 415.40484,398.15959 -1.4574235,144.29483 262.09592,54.863833 397.77174,184.1828 42.626571,539.44424 128.54315,657.98011 46.623179,413.00368 232.97461,508.6973 437.48523,174.7187 460.12212,220.67397 453.43959,236.82867 361.7429,174.01409 383.85554,428.29014 18.340754,103.93121 257.97754,56.415363 376.10454,173.58315 29.955543,459.86011 82.455372,606.88714 71.222087,337.42001 174.80352,485.27525 463.2544,204.18191 c 14.64219,58.71512 4.84849,77.31998 -69.81184,-16.13125 C 343.63178,449.1313 44.084745,65.418578 254.87047,57.73417 354.37149,167.42786 41.190048,378.37928 50.962792,544.20264 117.66326,270.93989 123.87735,446.39673 482.24417,239.52557 483.79662,309.7323 468.82668,330.16717 421.26874,210.93281 297.53207,458.14809 75.731062,29.739595 252.75989,58.778836 188.63648,443.33518 534.28059,307.95669 472.95529,460.64329"
       style="fill:none;stroke:#000000;stroke-width:0.3809981px;stroke-linecap:butt;stroke-linejoin:miter;stroke-opacity:1" />
  </g>
  <g
     style="display:inline"
     inkscape:label="Silver"
     id="layer4"
     inkscape:groupmode="layer" />
  <g
     inkscape:groupmode="layer"
     id="layer3"
     inkscape:label="Gel"
     style="display:inline" />
  <g
     inkscape:groupmode="layer"
     id="layer5"
     inkscape:label="Pencil"
     style="display:inline" />
  <g
     style="display:inline"
     inkscape:label="Gold"
     id="layer2"
     inkscape:groupmode="layer">
    <path
       inkscape:connector-curvature="0"
       style="fill:none;stroke:#000000"
       d=""
       id="path7370" />
    <path
       inkscape:connector-curvature="0"
       style="fill:none;stroke:#000000"
       d=""
       id="path7382" />
  </g>
  <path
     id="path3389"
     d=""
     style="fill:none;stroke:#000000"
     inkscape:connector-curvature="0" />
  <path
     id="path3403"
     d=""
     style="fill:none;stroke:#000000"
     inkscape:connector-curvature="0" />
  <path
     inkscape:connector-curvature="0"
     style="fill:none;stroke:#000000"
     d=""
     id="path3499" />
  <path
     inkscape:connector-curvature="0"
     style="fill:none;stroke:#000000"
     d=""
     id="path3513" />
  <path
     id="path3692"
     d=""
     style="fill:none;stroke:#000000;stroke-width:1.19536245"
     inkscape:connector-curvature="0" />
  <path
     id="path3706"
     d=""
     style="fill:none;stroke:#000000;stroke-width:1.19536245"
     inkscape:connector-curvature="0" />
</svg>
