<?xml version="1.0" encoding="UTF-8" standalone="no"?>
<!-- Created with Inkscape (http://www.inkscape.org/) -->

<svg
   xmlns:dc="http://purl.org/dc/elements/1.1/"
   xmlns:cc="http://creativecommons.org/ns#"
   xmlns:rdf="http://www.w3.org/1999/02/22-rdf-syntax-ns#"
   xmlns:svg="http://www.w3.org/2000/svg"
   xmlns="http://www.w3.org/2000/svg"
   xmlns:sodipodi="http://sodipodi.sourceforge.net/DTD/sodipodi-0.dtd"
   xmlns:inkscape="http://www.inkscape.org/namespaces/inkscape"
   width="744.09448819"
   height="1052.3622047"
   id="svg3783"
   version="1.1"
   inkscape:version="0.48.2 r9819"
   sodipodi:docname="spiral025.svg">
  <sodipodi:namedview
     id="base"
     pagecolor="#ffffff"
     bordercolor="#666666"
     borderopacity="1.0"
     inkscape:pageopacity="0.0"
     inkscape:pageshadow="2"
     inkscape:zoom="0.98994949"
     inkscape:cx="198.2576"
     inkscape:cy="805.16436"
     inkscape:document-units="px"
     inkscape:current-layer="layer2"
     showgrid="false"
     inkscape:window-width="1084"
     inkscape:window-height="748"
     inkscape:window-x="82"
     inkscape:window-y="0"
     inkscape:window-maximized="0" />
  <defs
     id="defs3785">
    <inkscape:perspective
       sodipodi:type="inkscape:persp3d"
       inkscape:vp_x="0 : 658.18109 : 1"
       inkscape:vp_y="0 : 1000 : 0"
       inkscape:vp_z="744.09448 : 658.18109 : 1"
       inkscape:persp3d-origin="372.04724 : 482.78739 : 1"
       id="perspective3025" />
    <inkscape:perspective
       sodipodi:type="inkscape:persp3d"
       inkscape:vp_x="0 : 526.18109 : 1"
       inkscape:vp_y="0 : 1000 : 0"
       inkscape:vp_z="744.09448 : 526.18109 : 1"
       inkscape:persp3d-origin="372.04724 : 350.78739 : 1"
       id="perspective2995" />
  </defs>
  <metadata
     id="metadata3788">
    <rdf:RDF>
      <cc:Work
         rdf:about="">
        <dc:format>image/svg+xml</dc:format>
        <dc:type
           rdf:resource="http://purl.org/dc/dcmitype/StillImage" />
        <dc:title></dc:title>
      </cc:Work>
    </rdf:RDF>
  </metadata>
  <g
     inkscape:label="Layer 1"
     inkscape:groupmode="layer"
     id="layer1"
     sodipodi:insensitive="true"
     style="opacity:0.44217687">
    <rect
       style="fill:none;stroke:#000000;stroke-width:0.91610378000000003;stroke-opacity:1"
       id="rect4319"
       width="516.12524"
       height="779.49591"
       x="7.8454075"
       y="12.284647" />
    <flowRoot
       xml:space="preserve"
       id="flowRoot3475"
       style="font-size:40px;font-style:normal;font-weight:normal;line-height:125%;letter-spacing:0px;word-spacing:0px;fill:#000000;fill-opacity:1;stroke:none;font-family:Sans"><flowRegion
         id="flowRegion3477"><rect
           id="rect3479"
           width="474.7717"
           height="76.771591"
           x="40.406101"
           y="840.23016" /></flowRegion><flowPara
         id="flowPara3481" /></flowRoot>    <path
       style="fill:none;stroke:#000000;stroke-width:1.11260140000000000px;stroke-linecap:butt;stroke-linejoin:miter;stroke-opacity:1"
       d="m 116.57469,206.22681 c -0.0126,0.091 -1.71597,1.20763 -1.94088,-0.78273 -0.49945,-5.33871 -3.04978,-8.92871 -2.54863,-1.02784 1.73979,14.30487 10.35034,1.21122 10.93451,4.40977 1.00883,4.89392 10.43731,21.22858 4.32786,1.74538 -4.72737,-25.93915 -19.4824,-4.67033 -19.48992,-7.86007 0.0704,-3.4968 -0.4959,-29.63644 -3.08667,-1.24482 2.74905,36.47671 27.21116,7.15629 28.34939,11.433 1.78972,5.91591 29.46352,43.56444 7.52106,3.03316 -11.75479,-48.89535 -38.42438,-12.36786 -38.07876,-15.35675 0.34966,-1.90806 7.44885,-46.36705 -3.084782,-1.24406 1.949792,57.61606 43.588322,13.07512 45.530022,18.36177 3.32236,7.82993 58.88037,60.21743 11.53074,4.65022 -21.79813,-71.44677 -58.539788,-21.03218 -57.93252,-23.36356 0.295707,0.37575 18.57305,-58.65218 -2.655433,-1.07091 -0.268766,77.7032 59.651383,18.93331 62.758043,25.30964 5.84119,10.18566 96.72416,66.30742 16.3046,6.57547 -35.07744,-93.01692 -79.876591,-30.60201 -79.175158,-31.93048 -0.202243,3.35539 31.050458,-66.67798 -1.909062,-0.76991 -3.55631,96.6644 75.55491,24.89438 80.26449,32.3698 9.56979,12.60003 138.27805,57.61443 21.70813,8.75466 C 144.21284,125.30878 93.533407,197.20446 94.108234,197.16634 c -1.221798,6.96726 43.523626,-71.01057 -0.948173,-0.38239 -7.592209,114.47458 91.403149,31.14478 98.204299,39.60473 14.65153,14.60206 176.33994,32.23271 27.51144,11.09507 C 147.30926,117.13319 93.08,195.33891 93.269329,196.82801 c -2.808026,11.14284 55.080671,-72.3716 0.136404,0.055 -12.089607,131.1496 107.239177,37.86312 116.638227,47.03894 21.09455,15.63127 202.6846,-7.89892 33.38257,13.46283 C 148.97911,112.85666 93.662427,193.58616 93.181548,196.79261 c -4.978048,15.82049 65.178302,-71.49132 1.267312,0.5111 -16.796608,146.73437 123.04159,45.20333 135.52102,54.65416 28.7136,15.07055 210.65965,-56.52555 38.88741,15.68287 C 149.01507,112.99317 95.164651,191.93884 93.714374,197.0075 c -7.727082,20.95368 73.550566,-69.02578 2.381152,0.96029 -21.495139,161.29534 138.724714,53.28006 154.692494,62.38581 37.08809,12.31665 198.05109,-104.54752 43.51182,17.54785 C 147.27425,117.90102 97.472431,190.38982 94.748108,197.42439 c -11.032996,26.51288 80.125632,-65.52161 3.427967,1.38246 -25.999333,174.90946 154.146265,62.15377 173.879975,70.12391 45.53897,6.87495 168.54987,-143.42017 46.69349,18.83098 -175.0455,-160.04487 -218.27395,-98.82947 -222.574939,-89.76206 -14.86044,32.48735 84.954559,-61.40731 4.370129,1.76243 -30.152072,187.65957 169.11819,71.8168 192.70703,77.71665 53.153,-1.5221 130.38096,-168.74947 47.87868,19.30896 C 138.36499,142.30038 104.06974,187.55929 97.897445,198.69448 c -19.163733,38.88589 88.160085,-57.00276 5.180835,2.08938 -33.82191,199.62812 183.42059,82.18005 210.7115,84.97767 58.86204,-12.79599 92.66917,-181.22515 46.59572,18.79154 C 131.44537,161.19826 108.15769,186.26339 99.831723,199.47456 c -23.888182,45.73598 89.899967,-52.53512 5.842497,2.35621 -36.899513,210.89322 196.81742,93.06399 227.37394,91.69745 61.58749,-26.42998 62.40418,-183.96733 42.53701,17.15472 C 123.26302,183.63808 112.65028,185.03629 101.90354,200.3101 c -28.970824,53.08428 90.34286,-48.15683 6.34508,2.5589 -39.294173,221.52623 209.07552,104.19611 242.15496,97.65848 60.44433,-41.44191 43.75679,-179.01518 35.64259,14.37427 -271.79644,-106.33259 -268.5791,-131.03318 -281.9969,-113.7263 -34.339199,60.9953 89.6542,-43.96238 6.68473,2.69588 -40.930706,231.59038 219.98098,115.21602 254.53929,102.65294 54.97079,-56.45722 38.42983,-165.84662 26.1649,10.55202 -286.52253,-82.3285 -268.90217,-134.32602 -285.22346,-115.02754 -39.909044,69.55035 87.98913,-40.00348 6.86235,2.76752 -41.747536,241.13727 229.35445,125.69173 264.08508,106.50265 45.33058,-69.90264 45.62785,-142.05479 14.69612,5.92679 C 95.79576,260.87288 127.79387,181.67035 108.3543,202.91162 c -45.580753,78.84651 85.48951,-36.30129 6.88239,2.77559 -41.69292,250.20869 237.06314,135.1485 270.47367,109.07911 32.41426,-80.30414 61.89663,-105.0148 2.13958,0.86287 C 87.382383,285.75055 133.18581,180.61706 110.43006,203.74875 c -51.234392,88.9947 82.28452,-32.85638 6.75186,2.72295 -40.724653,258.83354 243.02723,143.1094 273.55275,110.32087 17.77692,-86.62142 81.56005,-53.56702 -10.38426,-4.18786 C 80.058208,308.46236 138.66466,179.57844 112.41094,204.54762 c -56.722721,100.11476 78.49267,-29.65686 6.47954,2.61313 -38.807916,267.02884 247.22183,149.14617 273.3679,110.24631 3.3905,-88.5109 97.93281,10.93826 -21.69131,-8.74787 C 74.043189,328.49607 144.19095,178.54179 114.27175,205.29806 52.408247,317.62943 188.49564,178.61348 120.34713,207.7482 84.432898,482.54756 370.02104,360.68206 390.52252,316.70701 381.78828,230.31523 495.44906,401.26429 359.80526,304.31907 69.372716,345.79688 149.7317,177.4945 115.99259,205.99206 c -66.430681,125.76535 69.58272,-23.92079 5.54982,2.23818 -32.020199,282.13835 250.45367,154.3062 264.43116,106.64223 -16.92846,-81.26192 98.44907,161.56668 -36.68079,-14.79297 -283.374893,60.64255 -194.03213,-123.65601 -231.73484,-93.45615 -70.144597,140.52132 64.66971,-21.35014 4.91356,1.98158 -27.108733,289.02552 249.66724,153.29365 256.75471,103.5464 -20.11336,-74.32586 77.12791,235.76543 -39.17397,-15.79844 -276.610554,77.54359 -179.29529,-121.03701 -221.09601,-89.16563 -72.663737,156.67038 59.58214,-18.96377 4.17723,1.68464 -21.1674,295.42978 247.44888,150.13926 247.87028,99.9634 -17.86254,-66.58943 42.2273,301.76151 -38.15106,-15.38591 -271.17685,92.57549 -166.64799,-119.29042 -212.67356,-85.76895 -73.578541,174.22791 54.41336,-16.76179 3.35105,1.35144 -14.1893,301.30759 243.95689,145.28591 238.53541,96.19876 C 351.73846,246.65176 359.00797,661.07683 328.23394,291.5867 60.392498,397.71165 171.59282,172.94004 121.22107,208.10065 c -72.410762,193.12283 49.25033,-14.75364 2.4447,0.98592 -6.1737,306.60366 239.37628,139.32106 229.47021,92.54285 1.88776,-50.25123 -54.58022,396.30381 -26.57133,-10.71593 C 59.454366,409.33814 176.91369,171.64666 122.07882,208.44657 c -68.621966,213.16077 44.16972,-12.95672 1.46749,0.59182 2.87396,311.25184 233.92311,132.8985 221.30157,89.24853 17.83333,-41.08117 -108.15862,423.21939 -16.75499,-6.7571 C 58.836859,421.00491 182.16387,170.26621 122.75098,208.71764 c -61.635426,233.98435 39.23125,-11.39163 0.42841,0.17278 12.94027,315.17534 227.84992,126.64433 214.53462,86.51949 C 374.0146,265.1446 177.48985,733.38674 332.96453,293.4945 58.627586,432.53391 187.34215,168.78658 123.23787,208.914 c -50.878833,255.02793 34.47184,-10.077 -0.66433,-0.26791 24.00396,318.2864 221.44732,121.07082 209.55204,84.51006 55.89414,-16.96945 -208.1456,442.66165 9.08745,3.66488 C 59.00942,443.51014 192.45052,167.19524 123.54097,209.03624 c -35.848594,275.48437 29.89759,-9.01814 -1.80244,-0.7269 36.03389,320.48784 215.03771,116.51534 206.63123,83.33213 75.11497,-0.56033 -250.271979,439.53305 24.35992,9.8241 C 60.233622,453.34633 197.49292,165.47974 123.66292,209.08542 c -16.20404,294.28478 25.47636,-8.19431 -2.97757,-1.20082 48.98873,321.67374 208.96429,113.11234 205.97015,83.06553 92.46324,19.22485 -285.803569,430.65278 40.58085,16.36582 -304.649336,154.04664 -164.76066,-143.6888 -243.62921,-98.25303 8.11409,310.114 21.13338,-7.54311 -4.18058,-1.68598 62.81353,321.72989 203.5778,110.80104 207.70682,83.76592 106.56049,42.19607 -314.58259,417.6826 57.13842,23.0433 C 66.358766,466.87292 207.40623,161.62435 123.37787,208.97046 c 36.75296,321.48008 16.75001,-6.94384 -5.40134,-2.1783 C 195.41769,527.3273 317.20064,316.1478 329.9054,292.26078 446.17596,359.97503 -6.9752471,694.07792 403.19878,321.81921 71.805387,469.26344 212.29407,159.45701 122.97973,208.8099 c 68.81792,326.84788 12.1704,-6.19841 -6.62693,-2.67257 92.78874,317.96328 196.23441,108.42999 218.67017,88.18731 C 455.82789,389.09517 -18.219929,678.119 423.2362,329.90008 79.12381,468.06455 217.14979,157.11036 122.41818,208.58343 c 102.79127,324.85695 7.21853,-5.01467 -7.84122,-3.16228 108.75687,313.88404 194.91833,107.60838 227.90024,91.9097 C 462.26561,419.44384 11.19269,674.62826 476.63161,351.43387 121.552,476.35902 221.98518,154.56814 121.699,208.29339 c 136.5412,314.60483 1.73296,-2.99171 -9.0228,-3.63879 125.22787,308.16484 195.55651,106.453 239.51046,96.59197 113.27815,148.39587 -340.232677,354.7451 142.01749,57.27412 -363.3679,108.03821 -267.3907,-206.70828 -373.37554,-150.57831 167.47239,295.96256 -4.37896,0.39047 -10.1427,-4.09045 142.06394,300.67366 198.3905,104.54746 253.30063,102.15341 101.73411,172.32285 -362.2526682,323.46242 130.21761,52.51535 -368.18362,88.02425 -262.55549,-209.69701 -374.3899,-150.9874 192.86303,269.84279 -11.06067,5.76746 -11.16222,-4.5016 159.1055,291.28075 203.61024,101.53276 268.97074,108.47299 C 463.57278,504.2753 -3.1831671,601.66134 494.20415,358.52069 125.28437,424.09013 236.50608,145.57991 118.66394,207.06938 329.04276,445.37822 100.66277,220.93427 106.63479,202.21816 282.80409,482.08005 317.97185,299.35487 392.75476,317.60725 459.70971,526.48198 -5.0235082,571.71176 494.20415,358.52069 129.0097,399.98223 241.4022,142.05677 117.38709,206.55444 c 218.69669,204.38925 -24.511078,25.42889 -12.6743,-5.1114 193.04562,266.30195 221.60548,91.19366 304.25169,122.70141 45.90354,220.0826 -415.9775848,214.16724 85.23967,34.37624 -356.86273,16.5272 -247.8497,-220.29373 -378.20943,-152.52777 218.05485,171.50674 -29.40205,41.09172 -13.00696,-5.24557 209.49653,250.4985 270.11682,98.08251 358.55866,144.60283 23.96395,226.17008 -474.634488,154.05027 32.65773,13.17051"
       id="path3160"
       inkscape:connector-curvature="0"
       sodipodi:nodetypes="cccsssssssssssssssssssssssssssssssssssssssssssssssssssssssssssssssssssssssssssssssssssssssssssssssssssssssssssssssssssssssssssssssssssssssssssssssssssssssssssssc" />
  </g>
  <g
     inkscape:groupmode="layer"
     id="layer2"
     inkscape:label="feath"
     style="display:none">
    <path
       style="fill:none;stroke:#ff0000;stroke-width:1px;stroke-linecap:butt;stroke-linejoin:miter;stroke-opacity:1"
       d="m 142.97969,214.69322 -4.89847,12.19978 c 22.86192,24.07826 19.05866,38.42124 31.87238,51.55113 13.48895,20.93218 36.16559,35.73924 57.37309,51.52573 55.03688,23.01212 98.92418,35.64178 146.70649,33.05277 7.04887,-1.03568 14.51117,1.3201 14.9059,-1.61676 13.83704,-8.13767 5.32029,-10.06595 3.27248,-13.79115 -11.15203,-2.52198 -3.31686,-3.78425 -23.91805,-8.1889 10.64384,-5.90351 22.56681,-21.84435 26.11475,-29.68311 3.11671,5.30337 -28.83187,-0.79735 -52.30002,-14.44288 L 188.57143,188.79075 c -10.71899,-5.2475 -21.29132,-10.20169 -31.34191,-14.11239 -21.11979,-2.5717 -30.92997,-1.22457 -39.40828,2.85714 -10.4951,4.28068 -16.31166,14.82017 -20.844263,20.42585 25.796023,10.99406 26.249023,18.82024 31.594453,27.25797 z"
       id="path3356"
       inkscape:connector-curvature="0"
       sodipodi:nodetypes="cccccccccccccccc" />
    <path
       style="fill:none;stroke:#ff0000;stroke-width:1px;stroke-linecap:butt;stroke-linejoin:miter;stroke-opacity:1"
       d="m 136.5,175.40625 c -13.7454,-0.23987 -27.09663,6.95783 -34.25,18.8125 -4.959999,3.64565 1.77669,4.18759 4.25,5.96875 9.74737,4.63977 18.26841,12.02842 22.65625,22.09375 6.08214,-4.43914 12.15874,-8.88587 18.25,-13.3125 -2.16877,5.87521 -5.14469,11.90549 -6.8125,17.6875 11.29546,11.3212 17.98002,26.06652 24,40.71875 4.25192,7.63475 10.05699,14.06749 15.375,20.9375 14.09222,15.81786 32.07289,28.02716 49.2373,40.28671 46.95897,19.65185 97.14231,36.3684 148.79395,32.15079 4.32444,-0.0939 9.05093,1.4107 11.93332,-2.3245 2.2109,-1.33152 7.00848,-4.38862 3.19168,-6.8005 -2.96701,-3.71543 -8.41034,-3.29448 -12,-6.53125 -5.85839,-2.41358 -12.12126,-3.35561 -18.25,-4.78125 11.60753,-5.84623 20.31235,-15.94915 27.125,-26.6875 -18.5136,-2.23894 -36.69323,-8.86637 -52.31744,-18.93682 C 287.32329,259.88599 237.20391,224.6649 186.69505,190.12393 175.62964,185.28222 165.0263,178.49769 153.1875,176.25 147.64769,175.65259 142.07582,175.23535 136.5,175.40625 z"
       id="path4126"
       inkscape:connector-curvature="0" />
    <path
       style="fill:none;stroke:#ff0000;stroke-width:1px;stroke-linecap:butt;stroke-linejoin:miter;stroke-opacity:1"
       d="m 136.53125,177.40625 c -13.593,-0.45683 -26.41264,7.46624 -33.46875,18.71875 5.0423,2.68896 11.90412,5.79516 16.625,10.25 4.15289,3.62358 7.76107,7.93119 10.21875,12.875 7.24625,-5.2968 14.50084,-10.58219 21.75,-15.875 -2.36095,7.72689 -6.88354,15.41205 -8.5625,22.96875 11.74149,11.97169 17.78889,27.95511 24.875,42.8125 14.08199,22.41128 35.25732,38.95951 56.75288,53.79767 11.72788,8.26856 26.08825,11.61411 39.25628,17.06501 36.9031,13.33099 76.20108,21.96694 115.77209,18.76232 3.90908,0.72153 7.8568,0.2018 10.5,-2.9375 2.56551,-1.09063 2.72726,-2.70808 0.3125,-3.9375 -4.41066,-2.11942 -8.9962,-4.01084 -13.40625,-6.125 -6.61477,-2.05367 -13.33142,-3.02004 -20.0625,-4.75 12.06389,-5.14527 23.18279,-15.25703 29.125,-25.90625 -23.78062,-3.28704 -45.56252,-14.49485 -64.45747,-29.02448 -45.75096,-31.4935 -91.02025,-63.76196 -137.11192,-94.72692 -13.73862,-6.40754 -27.19994,-14.8224 -42.96137,-13.96733 -1.71792,-0.0724 -3.43832,-0.0209 -5.15674,-2e-5 z m 255.875,176.1875 c 0.10364,-0.0325 -0.0429,-0.0577 0,0 z"
       id="path4130"
       inkscape:connector-curvature="0" />
    <path
       style="fill:none;stroke:#ff0000;stroke-width:1px;stroke-linecap:butt;stroke-linejoin:miter;stroke-opacity:1"
       d="m 141.78125,179.40625 c -13.73703,-1.53454 -27.96072,4.42684 -35.8125,15.96875 9.92095,4.58331 19.07794,11.32695 24.59375,20.90625 8.30287,-6.05101 16.58499,-12.13053 24.90625,-18.15625 -2.42232,9.57144 -7.44012,18.15055 -10.15625,27.59375 12.69255,13.00952 17.87913,31.064 27.03125,46.4375 15.49353,22.08117 37.54799,39.03286 60.15625,53.1875 16.54581,7.8123 34.15213,13.46656 51.47957,19.25744 31.15906,9.64542 64.03581,14.64685 96.73918,12.30506 3.252,1.00329 7.55437,-1.03693 8.84375,-3.25 -9.9221,-5.53261 -20.69071,-8.3569 -31.71875,-10.375 -8.54718,-0.96327 -5.71932,-2.78075 0.65625,-5.09375 9.89765,-4.86589 18.42661,-12.28276 24.46875,-21.5625 -25.53501,-3.95435 -47.95846,-17.60128 -68.19896,-32.91312 -44.34593,-30.37449 -87.89369,-62.08911 -132.92054,-91.44405 -12.65159,-6.05501 -25.51603,-13.68992 -40.068,-12.86158 z"
       id="path4134"
       inkscape:connector-curvature="0" />
    <path
       style="fill:none;stroke:#ff0000;stroke-width:1px;stroke-linecap:butt;stroke-linejoin:miter;stroke-opacity:1"
       d="m 136.6875,181.1875 c -10.59093,0.21332 -21.11879,5.05845 -27.6875,13.4375 8.73749,4.29973 16.76622,10.52795 22.125,18.75 9.24308,-6.76337 18.49214,-13.51866 27.78125,-20.21875 -2.32325,11.16815 -7.77275,21.31883 -11.34375,32.03125 16.22681,17.2045 19.84799,42.53177 36.99134,59.05164 14.9221,16.17484 32.69913,30.00501 51.91491,40.72961 44.42684,18.95479 92.22499,33.16483 141.09375,30.125 2.26441,-0.48927 7.58427,0.85211 8.25,-1.1875 -10.497,-5.50391 -22.33167,-7.21053 -33.65625,-9.875 -3.98881,-2.35876 0.38958,-6.43131 3.40625,-6.875 9.66248,-3.9063 17.83012,-10.79174 24,-19.09375 -28.50212,-5.04357 -52.05062,-22.40719 -75.04161,-38.97449 -41.46257,-28.49541 -82.28852,-58.37155 -124.67302,-85.55072 -12.61434,-6.50357 -26.06883,-13.25115 -40.75412,-12.31854 -0.80144,-0.0812 -1.60307,-0.0721 -2.40625,-0.0312 z"
       id="path4138"
       inkscape:connector-curvature="0" />
    <path
       style="fill:none;stroke:#ff0000;stroke-width:1px;stroke-linecap:butt;stroke-linejoin:miter;stroke-opacity:1"
       d="m 140.5625,183.15625 c -10.53099,-0.54983 -21.22054,2.99142 -28.40625,10.84375 7.60577,4.10076 14.40627,9.55697 19.4375,16.53125 10.09898,-7.37591 20.19874,-14.72567 30.34375,-22.03125 -1.92464,12.72136 -7.82187,24.20816 -12.09375,36.21875 16.32762,18.19579 20.29787,44.709 39,61.15625 15.32264,15.50926 32.73304,29.64695 52.59375,39 43.28646,18.1266 89.95675,31.43612 137.40625,28.09375 -9.1924,-3.95325 -19.59203,-4.26124 -28.6875,-7.90625 -4.34001,-4.05615 1.25164,-9.59438 5.5625,-10.125 7.854,-3.41696 14.8186,-8.85243 20.21875,-15.53125 -36.31407,-7.87668 -64.30829,-34.20977 -94.65505,-54.01454 -35.00011,-24.1851 -69.40617,-49.5924 -105.60965,-71.75451 -10.93646,-5.51714 -22.61848,-10.88992 -35.1103,-10.48095 z"
       id="path4142"
       inkscape:connector-curvature="0" />
    <path
       style="fill:none;stroke:#ff0000;stroke-width:1px;stroke-linecap:butt;stroke-linejoin:miter;stroke-opacity:1"
       d="m 137.65625,185.125 c -8.03593,0.0903 -16.23956,2.9196 -22.21875,8.4375 6.32637,3.69131 12.01477,8.42476 16.5625,14.1875 8.90472,-6.48519 17.8051,-12.97649 26.75,-19.40625 -6.73182,-2.56361 -13.89286,-3.49775 -21.09375,-3.21875 z M 163.5,191.25 c -2.18346,11.49554 -7.36743,22.07338 -11.375,33 16.20947,18.97745 20.59496,46.07392 40.24632,62.34007 18.83115,18.90752 41.36756,35.02447 67.09742,43.32044 34.25846,12.88858 70.41204,22.0515 107.28126,21.52699 -6.27068,-2.05302 -14.42512,-1.50868 -19.21875,-6.4375 -3.39472,-6.00991 3.41402,-11.58557 8.84375,-12.53125 5.85394,-2.85165 11.96092,-7.21243 15.6875,-11.90625 -37.653,-9.75083 -66.43075,-37.57642 -98.5,-58.09375 C 239.85289,239.2472 207.11659,214.57672 171.81362,193.94986 169.4847,193.56131 164.55226,189.06475 163.5,191.25 z"
       id="path4146"
       inkscape:connector-curvature="0" />
    <path
       style="fill:none;stroke:#ff0000;stroke-width:1px;stroke-linecap:butt;stroke-linejoin:miter;stroke-opacity:1"
       d="m 139.03125,187.09375 c -7.23935,-0.0677 -14.41799,1.86881 -20.15625,6.21875 5.0054,3.21748 9.62093,7.15335 13.46875,11.71875 7.24785,-5.35733 14.99699,-10.7767 21.96875,-16.0625 -4.91191,-1.35835 -10.12814,-1.99717 -15.28125,-1.875 z m 26,6.71875 c -2.34533,10.3972 -6.91018,20.10792 -10.625,30.0625 15.95803,19.39926 20.78969,46.98888 41.15625,63.03125 19.78805,19.89716 44.04574,35.26494 71.03125,43.5 26.73817,9.59333 54.55363,16.75375 83,18.59375 -7.1073,-2.64974 -5.84781,-12.53518 0.0312,-15.75 6.17621,-3.21968 12.96945,-5.48121 17.90625,-10.75 1.97155,-2.23295 -5.84719,-2.05697 -7.469,-3.59731 C 325.06438,305.78333 297.36232,279.44848 266.0937,259.75 232.87458,236.87265 200.6633,212.05261 165.2187,192.875 l -0.1875,0.9375 z"
       id="path4150"
       inkscape:connector-curvature="0" />
    <path
       style="fill:none;stroke:#ff0000;stroke-width:1px;stroke-linecap:butt;stroke-linejoin:miter;stroke-opacity:1"
       d="m 136.5,189.15625 c -4.49336,0.28487 -11.26305,1.70536 -13.65625,4.40625 3.59422,2.60258 6.83944,5.52856 9.8125,8.75 5.22055,-4.0624 12.65691,-8.63189 16.625,-12.4375 -4.17977,-0.77486 -8.49312,-0.91299 -12.78125,-0.71875 z m 30,7.0625 c -2.30114,9.40895 -6.49351,18.31937 -9.75,27.34375 15.62142,19.92844 20.88651,47.41622 41.6448,63.30853 20.97264,21.17183 47.79632,35.96898 76.38645,44.25397 22.45895,7.60793 45.42136,13.29103 69.0625,15.40625 -3.65634,-7.07379 1.88623,-15.26413 9.07486,-17.13485 4.14763,-1.95392 8.4375,-3.8807 11.83139,-6.99015 -15.35449,-4.21752 -29.20355,-12.72819 -42.6875,-21.125 -22.432,-15.19208 -43.94425,-31.671 -66.61757,-46.51704 C 226.2983,234.35926 197.69546,213.0035 166.5625,195.90625 l -0.0625,0.3125 z"
       id="path4154"
       inkscape:connector-curvature="0" />
    <path
       style="fill:none;stroke:#ff0000;stroke-width:1px;stroke-linecap:butt;stroke-linejoin:miter;stroke-opacity:1"
       d="m 138.1875,191.09375 c -4.15781,0.11011 -8.22561,0.77788 -12,2.5 3.39423,1.60742 6.00755,8.52376 9.5625,3.96875 1.22654,-1.72856 10.8227,-5.95193 7.125,-6.40625 -1.56145,-0.0646 -3.12475,-0.13161 -4.6875,-0.0625 z m 29.3125,9.1875 c -2.293,7.7817 -5.81025,15.38411 -8.4375,23 15.18881,20.031 20.76352,47.21692 41.45711,62.89461 22.6907,22.96633 52.51399,37.22638 83.29289,45.79289 18.53332,5.7671 37.8842,10.46932 57.09375,12.15625 -1.67211,-8.62387 5.9242,-15.6035 13.58902,-17.71398 1.36675,-1.04233 8.56828,-3.07116 3.91098,-3.91102 -33.99319,-12.80618 -61.42081,-37.74926 -91.4375,-57.5625 -33.03572,-22.05888 -64.344,-46.71347 -99.09375,-66 l -0.2688,0.9632 -0.1062,0.38055 z"
       id="path4158"
       inkscape:connector-curvature="0" />
    <path
       style="fill:none;stroke:#ff0000;stroke-width:1px;stroke-linecap:butt;stroke-linejoin:miter;stroke-opacity:1"
       d="m 136.78125,193.15625 c -3.18511,0.17647 -9.33161,0.55958 -4,3.6875 1.74774,0.51876 2.93719,-3.00552 4.91416,-3.18035 1.94036,-0.81809 0.0776,-0.53298 -0.91416,-0.50715 z m 32.1875,9.15625 c -2.06799,7.00142 -5.5116,13.87945 -7.5625,20.75 14.69267,20.14798 20.72354,47.04032 41.23836,62.42586 25.69693,25.95408 60.95612,39.69073 95.73039,48.63664 13.18234,3.47952 26.99249,6.64798 40.3125,7.625 -0.0699,-9.5492 8.92102,-15.51653 16.9375,-18.15625 -36.90949,-14.84631 -66.67329,-42.81149 -100.08651,-63.99246 -28.57039,-19.66787 -56.24622,-40.6475 -86.44474,-57.69504 l -0.125,0.40625 z"
       id="path4162"
       inkscape:connector-curvature="0" />
    <path
       style="fill:none;stroke:#ff0000;stroke-width:1px;stroke-linecap:butt;stroke-linejoin:miter;stroke-opacity:1"
       d="m 170.03125,205.5625 c -1.82973,5.81776 -4.94084,11.53936 -6.28125,17.3125 14.20528,20.19583 20.55926,46.60835 41.01961,61.92586 30.62432,30.13702 73.12783,43.23227 114.10539,52.10539 5.9662,1.20383 11.93418,2.14696 17.96875,2.65625 0.85398,-7.46852 7.02881,-12.97715 13.53125,-16 C 313.14991,307.03594 282.58461,278.59389 248.21202,256.95779 222.52307,239.05802 197.40734,220.4034 170.25,204.875 l -0.21875,0.6875 z"
       id="path4166"
       inkscape:connector-curvature="0" />
    <path
       style="fill:none;stroke:#ff0000;stroke-width:1px;stroke-linecap:butt;stroke-linejoin:miter;stroke-opacity:1"
       d="m 171.15625,208.4375 c -1.69429,4.70599 -3.98675,9.30395 -5.25,14.0625 13.92098,20.24166 20.56384,46.46083 40.97264,61.56622 31.18429,30.0843 74.23656,42.91215 115.6043,51.49137 4.10208,0.50751 9.29515,2.14088 12.79806,1.37991 1.5247,-5.6137 5.7198,-10.27906 10.65625,-13.21875 -37.56341,-17.8472 -68.62783,-46.42044 -103.6875,-68.5 -23.323,-16.32037 -46.25398,-33.1421 -70.875,-47.375 l -0.21875,0.59375 z"
       id="path4170"
       inkscape:connector-curvature="0" />
    <path
       style="fill:none;stroke:#ff0000;stroke-width:1px;stroke-linecap:butt;stroke-linejoin:miter;stroke-opacity:1"
       d="m 172.375,210.875 c -1.29398,5.06714 -6.83611,10.76502 -1.72365,15.28777 11.87948,19.44649 19.34131,43.22262 38.32129,57.15345 32.19172,30.31577 76.28205,42.98952 118.80861,51.12128 2.42675,0.1865 6.43912,2.19756 6.84375,-1.46875 C 336.29787,329.42772 338.9376,326.41259 342,324 304.23887,305.17676 272.59777,276.42272 237.00242,253.96955 215.7776,239.17534 194.58944,223.54273 172.375,210.875 z"
       id="path4174"
       inkscape:connector-curvature="0" />
    <path
       style="fill:none;stroke:#ff0000;stroke-width:1px;stroke-linecap:butt;stroke-linejoin:miter;stroke-opacity:1"
       d="m 173.15625,214.5625 c -2.00558,3.51386 -4.30544,8.3914 -0.27105,11.42255 11.65793,19.71993 19.61317,43.40053 38.95855,57.2337 33.05652,30.07503 77.63317,42.25253 120.5625,49.9375 1.17216,-3.23727 3.52123,-6.24627 6,-8.71875 -38.32071,-20.01656 -70.98234,-49.16471 -107.47336,-72.29098 -18.91517,-13.22148 -37.52188,-26.77437 -57.46414,-38.33402 l -0.3125,0.75 z"
       id="path4178"
       inkscape:connector-curvature="0" />
    <path
       style="fill:none;stroke:#ff0000;stroke-width:1px;stroke-linecap:butt;stroke-linejoin:miter;stroke-opacity:1"
       d="m 174.1875,216.875 c -2.17627,2.9154 -1.97387,6.74867 0.91645,8.9538 11.36603,19.61635 19.58293,42.9852 38.82008,56.56635 32.36477,28.99693 75.46872,40.92097 117.26347,48.5111 0.97946,-2.18273 2.42616,-4.12063 3.96875,-5.9375 -39.1171,-21.15018 -72.90229,-50.86399 -110.28937,-74.62973 -16.66237,-11.45984 -32.9263,-23.7891 -50.67938,-33.46402 z"
       id="path4182"
       inkscape:connector-curvature="0" />
    <path
       style="fill:none;stroke:#ff0000;stroke-width:1px;stroke-linecap:butt;stroke-linejoin:miter;stroke-opacity:1"
       d="m 174.9375,219.6875 c -1.16818,4.37914 4.28253,6.73686 5.03125,10.8125 9.88702,18.60873 18.9166,39.40804 36.8125,51.75 31.45353,27.33563 72.89362,39.0197 113.28125,46.40625 3.66701,-3.26308 -0.0187,-4.37572 -3.1875,-6 C 288.9438,300.46532 255.05747,271.67348 218.13605,248.09211 204.00802,238.30784 189.908,227.77279 174.9375,219.6875 z"
       id="path4186"
       inkscape:connector-curvature="0" />
    <path
       style="fill:none;stroke:#ff0000;stroke-width:1px;stroke-linecap:butt;stroke-linejoin:miter;stroke-opacity:1"
       d="m 178.25,223.9375 c 5.84662,7.55156 8.63995,17.08228 13.75,25.125 7.14515,13.78482 17.09014,25.88245 29.8153,34.8082 30.63421,24.66452 69.82922,35.89031 107.6222,42.4418 C 288.48386,303.0988 252.50958,272.15311 212.86917,246.85632 201.54603,239.00153 189.88246,230.34892 178.25,223.9375 z"
       id="path4190"
       inkscape:connector-curvature="0" />
    <path
       style="fill:none;stroke:#ff0000;stroke-width:1px;stroke-linecap:butt;stroke-linejoin:miter;stroke-opacity:1"
       d="m 184.78125,230.5625 c 9.14096,19.90526 20.41894,39.91372 39.06212,52.3747 27.19309,21.57405 61.03572,32.60408 94.71913,39.3128 -38.95138,-23.8892 -74.40742,-53.2518 -112.7629,-77.89773 -7.07866,-4.93158 -14.01014,-9.94818 -21.39335,-14.47727 l 0.375,0.6875 z"
       id="path4194"
       inkscape:connector-curvature="0" />
    <path
       style="fill:none;stroke:#ff0000;stroke-width:1px;stroke-linecap:butt;stroke-linejoin:miter;stroke-opacity:1"
       d="m 190.09375,237.125 c 8.7864,18.44956 21.00474,35.63608 38.33828,46.84051 23.36733,17.42983 51.29941,27.45721 79.53672,34.00324 -37.52994,-24.49442 -72.71874,-52.43857 -110.26439,-76.8331 -1.67922,-0.68639 -10.25699,-8.28995 -7.61061,-4.01065 z"
       id="path4198"
       inkscape:connector-curvature="0" />
    <path
       style="fill:none;stroke:#ff0000;stroke-width:1px;stroke-linecap:butt;stroke-linejoin:miter;stroke-opacity:1"
       d="m 195.3125,243.03125 c 9.17458,18.09002 23.52036,33.37107 40.9375,44 18.46983,12.23346 39.48754,20.43263 60.875,26.15625 -34.63913,-23.4277 -67.64573,-49.11297 -102.6875,-71.8125 l 0.46712,0.88419 0.40788,0.77206 z"
       id="path4202"
       inkscape:connector-curvature="0" />
    <path
       style="fill:none;stroke:#ff0000;stroke-width:1px;stroke-linecap:butt;stroke-linejoin:miter;stroke-opacity:1"
       d="m 200.71875,248.65625 c 17.4005,29.39967 48.84404,46.62063 80.10796,57.52575 7.26162,2.91864 2.01729,-0.45426 -1.86224,-3.10914 -26.35152,-18.56353 -52.18835,-37.86444 -79.02697,-55.72911 l 0.51148,0.85929 0.26977,0.45321 z"
       id="path4206"
       inkscape:connector-curvature="0" />
    <path
       style="fill:none;stroke:#ff0000;stroke-width:1px;stroke-linecap:butt;stroke-linejoin:miter;stroke-opacity:1"
       d="m 207.59375,255.40625 c 15.88365,21.76444 40.16588,35.87027 65,45.625 -21.87104,-15.59094 -43.53557,-31.47838 -65.71875,-46.625 l 0.58364,0.81202 0.13511,0.18798 z"
       id="path4210"
       inkscape:connector-curvature="0" />
    <path
       style="fill:none;stroke:#ff0000;stroke-width:1px;stroke-linecap:butt;stroke-linejoin:miter;stroke-opacity:1"
       d="m 218.78125,265.4375 c 10.55926,10.73228 23.38504,19.14442 36.84375,25.90625 -12.61444,-9.09793 -25.34003,-18.20839 -38,-27.09375 l 0.69762,0.71647 0.45863,0.47103 z"
       id="path4214"
       inkscape:connector-curvature="0" />
    <path
       inkscape:connector-curvature="0"
       id="path4218"
       d="m 218.78125,265.4375 c 10.55926,10.73228 23.38504,19.14442 36.84375,25.90625 -12.61444,-9.09793 -25.34003,-18.20839 -38,-27.09375 l 0.69762,0.71647 0.45863,0.47103 z"
       style="fill:none;stroke:#ff0000;stroke-width:1px;stroke-linecap:butt;stroke-linejoin:miter;stroke-opacity:1" />
    <path
       style="fill:none;stroke:#aa0000;stroke-width:1px;stroke-linecap:butt;stroke-linejoin:miter;stroke-opacity:1"
       d="m 396.8125,310.46875 c -30.66967,-1.76201 -57.91452,-17.86544 -81.71801,-36.23299 -12.17931,-8.30119 -24.27309,-16.76223 -36.35196,-25.25581 l -2.33954,-1.96188 c 18.33959,1.35856 27.54858,-1.04463 44.57297,-6.31346 19.51363,-7.35433 34.95326,-16.56617 46.46702,-25.25381 3.65344,-2.62656 15.79097,-13.78535 17.42513,-10.35407 0.7902,7.11198 5.28172,6.4226 7.64945,11.93676 18.79625,43.77414 9.53653,67.05491 1.947,90.84627"
       id="path4222"
       inkscape:connector-curvature="0"
       sodipodi:nodetypes="cccccccsc" />
    <path
       sodipodi:nodetypes="cccccccsc"
       inkscape:connector-curvature="0"
       id="path4234"
       d="m 396.8125,310.46875 c -30.66967,-1.76201 -57.91452,-17.86544 -81.71801,-36.23299 -12.17931,-8.30119 -24.27309,-16.76223 -36.35196,-25.25581 l -2.33954,-1.96188 c 18.33959,1.35856 27.54858,-1.04463 44.57297,-6.31346 19.51363,-7.35433 34.95326,-16.56617 46.46702,-25.25381 3.65344,-2.62656 15.79097,-13.78535 17.42513,-10.35407 0.7902,7.11198 5.28172,6.4226 7.64945,11.93676 18.79625,43.77414 9.53653,67.05491 1.947,90.84627"
       style="fill:none;stroke:#aa0000;stroke-width:1px;stroke-linecap:butt;stroke-linejoin:miter;stroke-opacity:1" />
    <path
       style="fill:none;stroke:#aa0000;stroke-width:1px;stroke-linecap:butt;stroke-linejoin:miter;stroke-opacity:1"
       d="m 383,206.625 c -10.73287,6.43429 -19.67259,15.61927 -30.86952,21.4381 -21.06144,12.0985 -44.63621,21.97898 -69.38048,21.28065 19.07315,12.92817 37.4492,26.82569 56.71875,39.40625 16.14271,9.7655 33.95338,17.41739 52.84375,19.3125 7.20486,-20.00364 12.29635,-41.80774 7.21875,-62.96875 -2.54866,-10.19826 -5.06863,-20.91578 -10.59375,-29.90625 -2.78436,-2.27753 -5.33161,-5.05915 -5.9375,-8.5625 z"
       id="path4238"
       inkscape:connector-curvature="0" />
    <path
       style="fill:none;stroke:#aa0000;stroke-width:1px;stroke-linecap:butt;stroke-linejoin:miter;stroke-opacity:1"
       d="m 381.15625,210.15625 c -12.62128,9.20063 -24.75224,19.12876 -39.04522,25.61421 -16.46407,8.37636 -34.32982,14.69333 -52.95478,15.54204 28.86655,19.02757 55.42652,43.91878 89.65625,52.375 3.91173,0.66443 8.8403,2.4268 12.25,1.84375 8.20612,-22.03055 11.9981,-46.75586 4.0625,-69.5625 -2.46475,-8.48054 -4.93456,-17.50247 -11.625,-23.46875 -0.9267,-0.5269 -1.15573,-3.55839 -2.34375,-2.34375 z"
       id="path4242"
       inkscape:connector-curvature="0" />
    <path
       style="fill:none;stroke:#aa0000;stroke-width:1px;stroke-linecap:butt;stroke-linejoin:miter;stroke-opacity:1"
       d="m 379.96875,213.5 c -24.52498,19.48559 -53.31106,35.63877 -84.90625,39.375 28.90081,19.8927 56.89612,44.86937 92.6875,50.65625 3.85808,0.31844 3.20267,-6.33473 4.90625,-9.09375 6.26158,-20.31634 6.73203,-42.709 -0.84375,-62.6875 -1.91593,-7.137 -5.30426,-13.9389 -10.6875,-19.0625 l -0.81819,0.57495 -0.33806,0.23755 z"
       id="path4246"
       inkscape:connector-curvature="0" />
    <path
       style="fill:none;stroke:#aa0000;stroke-width:1px;stroke-linecap:butt;stroke-linejoin:miter;stroke-opacity:1"
       d="m 378.875,216.875 c -22.96949,17.89897 -49.42236,32.56546 -78.46875,37.28125 27.11328,19.03205 54.37707,42.36812 87.875,47.25 8.00688,-21.75377 10.2389,-46.91315 1.59375,-69.125 -1.63778,-6.2413 -4.5329,-12.24062 -8.96875,-17 -0.67708,0.53125 -1.35417,1.0625 -2.03125,1.59375 z"
       id="path4250"
       inkscape:connector-curvature="0" />
    <path
       style="fill:none;stroke:#aa0000;stroke-width:1px;stroke-linecap:butt;stroke-linejoin:miter;stroke-opacity:1"
       d="m 380.125,218.4375 c -22.01281,17.16421 -47.07396,31.27367 -74.6875,36.84375 25.14886,17.87885 50.45529,38.70053 81.53125,43.90625 8.09344,-22.27543 8.92954,-47.64053 -0.0625,-69.75 -1.41463,-4.14922 -3.45534,-8.00451 -6.25,-11.40625 l -0.53125,0.40625 z"
       id="path4254"
       inkscape:connector-curvature="0" />
    <path
       style="fill:none;stroke:#aa0000;stroke-width:1px;stroke-linecap:butt;stroke-linejoin:miter;stroke-opacity:1"
       d="m 379.28125,221.625 c -20.57715,15.68467 -43.69239,28.69576 -69.0625,34.625 23.21684,16.65531 46.85982,35.33073 75.4375,40.65625 8.41031,-24.48994 8.1499,-53.136 -5.125,-75.75 -0.29982,-0.84285 -0.82482,0.23969 -1.25,0.46875 z"
       id="path4258"
       inkscape:connector-curvature="0" />
    <path
       style="fill:none;stroke:#aa0000;stroke-width:1px;stroke-linecap:butt;stroke-linejoin:miter;stroke-opacity:1"
       d="m 378.5625,224.6875 c -19.14809,14.3158 -40.42885,26.23286 -63.6875,32.46875 21.25861,15.31659 43.29133,32.01335 69.40625,37.4375 7.52742,-22.97779 7.21445,-49.33735 -4.53125,-70.8125 l -0.79495,0.60667 -0.39255,0.29958 z"
       id="path4262"
       inkscape:connector-curvature="0" />
    <path
       style="fill:none;stroke:#aa0000;stroke-width:1px;stroke-linecap:butt;stroke-linejoin:miter;stroke-opacity:1"
       d="m 377.9375,227.625 c -17.74238,13.06838 -37.36619,24.02415 -58.5625,30.3125 19.51355,14.11126 39.77016,28.81525 63.5625,34.34375 6.4969,-21.23509 6.32383,-45.41167 -3.875,-65.46875 l -0.81068,0.58549 -0.31432,0.22701 z"
       id="path4266"
       inkscape:connector-curvature="0" />
    <path
       style="fill:none;stroke:#aa0000;stroke-width:1px;stroke-linecap:butt;stroke-linejoin:miter;stroke-opacity:1"
       d="m 377.46875,230.46875 c -16.50871,11.90409 -34.30773,21.86365 -53.65625,28.1875 17.70671,12.7343 36.61817,26.14104 57.8125,31.0625 5.49128,-19.5545 5.32355,-41.30067 -3.3125,-59.875 l -0.80356,0.59523 -0.0402,0.0298 z"
       id="path4270"
       inkscape:connector-curvature="0" />
    <path
       style="fill:none;stroke:#aa0000;stroke-width:1px;stroke-linecap:butt;stroke-linejoin:miter;stroke-opacity:1"
       d="m 375.5,234.3125 c -14.45904,10.36438 -31.118,18.98128 -47.1875,25.125 16.13814,11.41677 32.6074,22.88618 51.90625,27.84375 4.60117,-17.84355 4.4731,-37.36243 -2.75,-54.375 -0.65625,0.46875 -1.3125,0.9375 -1.96875,1.40625 z"
       id="path4274"
       inkscape:connector-curvature="0" />
    <path
       style="fill:none;stroke:#aa0000;stroke-width:1px;stroke-linecap:butt;stroke-linejoin:miter;stroke-opacity:1"
       d="m 375.28125,236.90625 c -13.29715,9.32216 -27.72208,16.94723 -42.78125,23.03125 14.34718,10.15463 29.29939,20.03815 46.25,24.90625 3.8328,-16.04601 3.65974,-33.46534 -2.1875,-48.84375 l -0.81642,0.57746 -0.46483,0.32879 z"
       id="path4278"
       inkscape:connector-curvature="0" />
    <path
       style="fill:none;stroke:#aa0000;stroke-width:1px;stroke-linecap:butt;stroke-linejoin:miter;stroke-opacity:1"
       d="m 373.90625,240.28125 c -11.72884,7.95891 -24.24844,14.60701 -37.28125,20.125 12.63917,8.81285 25.86947,17.25214 40.625,21.90625 3.11557,-14.21968 2.90924,-29.503 -1.6875,-43.15625 -0.55208,0.375 -1.10417,0.75 -1.65625,1.125 z"
       id="path4282"
       inkscape:connector-curvature="0" />
    <path
       style="fill:none;stroke:#aa0000;stroke-width:1px;stroke-linecap:butt;stroke-linejoin:miter;stroke-opacity:1"
       d="m 372.78125,243.40625 c -10.14193,6.75165 -20.93627,12.50708 -32.0625,17.40625 10.95172,7.49006 22.47059,14.58995 35,18.875 2.43799,-12.30269 2.23847,-25.28548 -1.25,-37.375 -0.5625,0.36458 -1.125,0.72917 -1.6875,1.09375 z"
       id="path4286"
       inkscape:connector-curvature="0" />
    <path
       style="fill:none;stroke:#aa0000;stroke-width:1px;stroke-linecap:butt;stroke-linejoin:miter;stroke-opacity:1"
       d="m 371.96875,246.34375 c -8.70422,5.59366 -17.77731,10.57545 -27.1875,14.8125 9.22074,6.13229 18.91761,11.97943 29.40625,15.84375 1.75684,-10.36963 1.57007,-21.2934 -0.9375,-31.5 l -0.83517,0.54999 -0.44608,0.29376 z"
       id="path4290"
       inkscape:connector-curvature="0" />
    <path
       style="fill:none;stroke:#aa0000;stroke-width:1px;stroke-linecap:butt;stroke-linejoin:miter;stroke-opacity:1"
       d="m 371.40625,249.0625 c -7.25935,4.60986 -14.72899,8.71985 -22.53125,12.40625 7.55594,4.90483 15.35574,9.40119 23.71875,12.78125 1.10219,-8.42047 1.0675,-17.15102 -0.6875,-25.5 l -0.5,0.3125 z"
       id="path4294"
       inkscape:connector-curvature="0" />
    <path
       style="fill:none;stroke:#aa0000;stroke-width:1px;stroke-linecap:butt;stroke-linejoin:miter;stroke-opacity:1"
       d="m 369.75,252.46875 c -5.47611,3.33109 -11.0366,6.40939 -16.78125,9.25 5.77866,3.6211 11.77718,6.96843 17.9375,9.65625 0.68128,-6.4365 0.55213,-13.03062 -0.40625,-19.375 l -0.75,0.46875 z"
       id="path4298"
       inkscape:connector-curvature="0" />
    <path
       style="fill:none;stroke:#aa0000;stroke-width:1px;stroke-linecap:butt;stroke-linejoin:miter;stroke-opacity:1"
       d="m 368.71875,255.4375 c -3.82251,2.24317 -7.67756,4.43426 -11.625,6.4375 3.88728,2.39892 7.92825,4.55447 12.0625,6.5 0.21153,-4.20825 0.42754,-9.21827 -0.4375,-12.9375 z"
       id="path4302"
       inkscape:connector-curvature="0" />
    <path
       style="fill:none;stroke:#aa0000;stroke-width:1px;stroke-linecap:butt;stroke-linejoin:miter;stroke-opacity:1"
       d="m 366.84375,258.8125 c -5.22948,2.09257 -6.55658,4.07854 -0.45717,5.96257 1.84789,2.18648 0.89114,-6.42828 0.45717,-5.96257 z"
       id="path4306"
       inkscape:connector-curvature="0" />
    <path
       style="fill:none;stroke:#aa0000;stroke-width:1px;stroke-linecap:butt;stroke-linejoin:miter;stroke-opacity:1"
       d="m 365.34375,261.71875 c -1.44289,0.19654 0.95051,1.18522 0,0 z"
       id="path4310"
       inkscape:connector-curvature="0" />
    <path
       style="fill:none;stroke:#ff00ff;stroke-width:1px;stroke-linecap:butt;stroke-linejoin:miter;stroke-opacity:1"
       d="m 95.078521,199.56932 c 0.119434,2.6751 17.244579,4.01864 14.546479,6.77443 8.22059,5.08612 14.86479,13.03119 17.90625,22.125 3.30272,-2.12382 6.23927,-4.75927 9.34375,-7.15625 -1.65221,6.32911 2.76887,11.12611 7,14.9375 12.86261,17.90883 17.67783,40.92964 34.59205,56.10279 16.19811,16.83464 34.60594,31.90179 55.65795,42.45971 28.99714,12.34826 59.57999,22.56418 90.8679,27.51271 l -25.70719,12.89411 c -25.89276,6.49408 -51.00208,14.22291 -81.42857,13.57143 -13.09524,-1.12766 -26.19047,-4.82541 -39.28571,-10.71428 -15.06246,-10.96443 -31.21772,-28.6152 -44.28572,-47.85715 -11.48386,-21.66667 -11.36648,-16.91258 -33.1889,-65 -2.621327,-12.81267 -6.654882,-26.18192 -7.9438,-39.6608 0.08995,-5.9988 -1.720103,-10.5726 0.757614,-18.36222 z"
       id="path4314"
       inkscape:connector-curvature="0"
       sodipodi:nodetypes="cccccccccccccccc" />
    <path
       style="fill:none;stroke:#ff00ff;stroke-width:1px;stroke-linecap:butt;stroke-linejoin:miter;stroke-opacity:1"
       d="m 98.15625,205.90625 c -4.102052,17.77002 2.00598,35.75217 5.67141,53.05796 4.15827,15.29676 12.68508,29.09092 19.54734,43.44204 14.09129,27.78349 32.49796,54.24739 58.125,72.59375 20.8596,9.99887 44.91313,12.01857 67.4375,7.59375 18.34764,-3.22471 36.9112,-6.92075 54.25998,-13.79928 4.856,-2.48382 13.5678,-5.38164 3.33377,-5.98197 -29.40508,-6.77979 -58.59349,-16.02406 -85.1281,-30.45496 -21.60595,-13.26798 -41.26979,-30.10667 -56.78149,-50.0883 -10.73844,-16.11092 -15.799,-35.63848 -29.46541,-49.83174 -1.20381,-2.97009 -2.15849,-3.59761 -4.46875,-1.125 -2.75347,2.6179 -7.43712,1.6369 -7.375,-2.8125 -3.44193,-9.00735 -10.63098,-16.27119 -19.0625,-20.78125 -0.20761,-1.50902 -4.933792,-1.22066 -6.09375,-1.8125 z"
       id="path4324"
       inkscape:connector-curvature="0" />
    <path
       style="fill:none;stroke:#ff00ff;stroke-width:1px;stroke-linecap:butt;stroke-linejoin:miter;stroke-opacity:1"
       d="m 101.21875,211.46875 c -1.602053,18.6933 3.98261,37.16948 9.34375,54.875 11.2109,25.79073 24.08658,51.30499 41,73.84375 10.3876,12.96276 21.8795,25.83076 36.8125,33.5 25.42385,10.7243 54.22333,7.51712 80.32198,0.98 10.85095,-2.28908 21.63119,-5.01143 31.92802,-9.26125 -39.72487,-9.32358 -79.56272,-23.4247 -110.53125,-50.8125 -16.84649,-14.19104 -31.8655,-31.1141 -40.48476,-51.68456 -4.87035,-9.74367 -9.91743,-19.99976 -17.26524,-27.94044 -5.11832,4.71159 -13.36179,-0.16215 -13.46875,-6.6875 -3.49366,-7.71817 -9.94534,-13.78032 -17.5625,-17.59375 l -0.0937,0.78125 z"
       id="path4330"
       inkscape:connector-curvature="0" />
    <path
       style="fill:none;stroke:#ff00ff;stroke-width:1px;stroke-linecap:butt;stroke-linejoin:miter;stroke-opacity:1"
       d="m 105,218.71875 c 1.01296,36.79529 19.30785,70.13615 37.47149,101.22049 11.98558,18.59142 25.87373,37.18912 45.12226,48.59201 24.23982,12.46313 53.05493,8.42124 78.63244,2.68932 6.7834,-1.44505 13.71598,-3.20509 20.36756,-5.15807 C 244.11562,355.2938 202.84307,336.02402 172.5625,303.84375 158.84108,290.06704 149.26278,272.98904 141.32487,255.60183 138.40291,250.38764 135.65081,243.99962 131,240.3125 c -7.91428,2.63937 -15.7475,-4.46296 -16.625,-12.09375 -2.22911,-4.2259 -5.57211,-7.83476 -9.375,-10.59375 l 0,1 0,0.0937 z"
       id="path4336"
       inkscape:connector-curvature="0" />
    <path
       style="fill:none;stroke:#ff00ff;stroke-width:1px;stroke-linecap:butt;stroke-linejoin:miter;stroke-opacity:1"
       d="m 109.78125,228.78125 c 4.46498,35.94488 23.14375,68.36997 42.39093,98.40948 13.77273,19.96853 31.84728,40.84236 57.29657,44.24677 20.61786,3.45101 41.6328,-0.718 61.6875,-5.5 -48.18586,-14.4355 -95.08469,-41.97666 -121.71875,-85.75 -6.74485,-11.37598 -11.49556,-24.41528 -19.15625,-35.15625 -5.12526,-0.0251 -10.58968,-0.92093 -14.15625,-5.03125 -3.29822,-3.17862 -4.96655,-7.5751 -6.40625,-11.8125 l 0.0625,0.59375 z"
       id="path4342"
       inkscape:connector-curvature="0" />
    <path
       style="fill:none;stroke:#ff00ff;stroke-width:1px;stroke-linecap:butt;stroke-linejoin:miter;stroke-opacity:1"
       d="m 117.5625,247.40625 c 9.40515,33.47476 27.61303,63.69974 48.25,91.4375 12.71468,15.89999 30.88049,29.29119 52.0903,29.58305 12.83161,0.96268 25.62216,-0.6878 38.1597,-3.2393 -49.36766,-17.2713 -96.25326,-49.92377 -118.23403,-98.6519 -3.04394,-5.94532 -5.87936,-12.25389 -9.85972,-17.5356 -3.76022,-0.15418 -7.58657,-1.16208 -10.78125,-3 l 0.25766,0.96623 0.11734,0.44002 z"
       id="path4348"
       inkscape:connector-curvature="0" />
    <path
       style="fill:none;stroke:#ff00ff;stroke-width:1px;stroke-linecap:butt;stroke-linejoin:miter;stroke-opacity:1"
       d="m 123.28125,252.46875 c 11.03814,33.65046 29.68656,64.70888 52.38582,91.55953 13.34205,14.14793 32.47546,22.40096 51.95793,20.65922 4.42092,-0.12065 8.91837,-0.46325 13.25,-1 -45.59396,-18.5987 -87.33409,-51.51759 -107.65625,-97.25 -2.80971,-4.39092 -3.952,-10.67984 -8.34375,-13.6875 -0.50086,-0.0224 -1.30406,-0.27949 -1.59375,-0.28125 z"
       id="path4354"
       inkscape:connector-curvature="0" />
    <path
       style="fill:none;stroke:#ff00ff;stroke-width:1px;stroke-linecap:butt;stroke-linejoin:miter;stroke-opacity:1"
       d="m 153.03125,306.25 c 9.771,15.10738 20.15073,30.82174 33.96875,42.625 10.95628,8.14693 24.33655,12.2723 37.9375,12.125 -27.92542,-13.48978 -53.50785,-32.46956 -73.09375,-56.6875 0.39583,0.64583 0.79167,1.29167 1.1875,1.9375 z"
       id="path4360"
       inkscape:connector-curvature="0" />
  </g>
</svg>
