<?xml version="1.0" encoding="UTF-8" standalone="no"?>
<!-- Created with Inkscape (http://www.inkscape.org/) -->

<svg
   xmlns:dc="http://purl.org/dc/elements/1.1/"
   xmlns:cc="http://creativecommons.org/ns#"
   xmlns:rdf="http://www.w3.org/1999/02/22-rdf-syntax-ns#"
   xmlns:svg="http://www.w3.org/2000/svg"
   xmlns="http://www.w3.org/2000/svg"
   xmlns:sodipodi="http://sodipodi.sourceforge.net/DTD/sodipodi-0.dtd"
   xmlns:inkscape="http://www.inkscape.org/namespaces/inkscape"
   sodipodi:docname="spiral044.svg"
   inkscape:version="0.48.2 r9819"
   version="1.1"
   id="svg3783"
   height="1052.3622047"
   width="744.09448819">
  <sodipodi:namedview
     id="base"
     pagecolor="#ffffff"
     bordercolor="#666666"
     borderopacity="1.0"
     inkscape:pageopacity="0.0"
     inkscape:pageshadow="2"
     inkscape:zoom="0.7"
     inkscape:cx="230.48125"
     inkscape:cy="692.28656"
     inkscape:document-units="px"
     inkscape:current-layer="layer1"
     showgrid="false"
     inkscape:window-width="1024"
     inkscape:window-height="748"
     inkscape:window-x="10"
     inkscape:window-y="-16"
     inkscape:window-maximized="0" />
  <defs
     id="defs3785">
    <inkscape:perspective
       sodipodi:type="inkscape:persp3d"
       inkscape:vp_x="-314.90439 : 155.3937 : 0"
       inkscape:vp_y="0 : 1000 : 0"
       inkscape:vp_z="372.04724 : 175.3937 : 0"
       inkscape:persp3d-origin="334.90438 : 296.50168 : 1"
       id="perspective3823" />
  </defs>
  <metadata
     id="metadata3788">
    <rdf:RDF>
      <cc:Work
         rdf:about="">
        <dc:format>image/svg+xml</dc:format>
        <dc:type
           rdf:resource="http://purl.org/dc/dcmitype/StillImage" />
        <dc:title></dc:title>
      </cc:Work>
    </rdf:RDF>
  </metadata>
  <g
     inkscape:label="Layer 1"
     inkscape:groupmode="layer"
     id="layer1">
    <flowRoot
       xml:space="preserve"
       id="flowRoot3475"
       style="fill:black;stroke:none;stroke-opacity:1;stroke-width:1px;stroke-linejoin:miter;stroke-linecap:butt;fill-opacity:1;font-family:Sans;font-style:normal;font-weight:normal;font-size:40px;line-height:125%;letter-spacing:0px;word-spacing:0px"><flowRegion
         id="flowRegion3477"><rect
           id="rect3479"
           width="474.7717"
           height="76.771591"
           x="40.406101"
           y="840.23016" /></flowRegion><flowPara
         id="flowPara3481" /></flowRoot>    <path
       inkscape:connector-curvature="0"
       style="fill:none;stroke:#000000;stroke-width:0.62192822px;stroke-linecap:butt;stroke-linejoin:miter;stroke-opacity:1"
       d="m 460.70407,378.87922 c 5.3552,-3.627 5.64823,-3.51706 2.27863,-0.87932 -4.92395,3.54761 -15.2947,9.32516 -21.76771,12.02457 -8.16431,2.67556 -7.49999,1.87127 -0.4345,-1.0603 9.1083,-4.63293 24.08523,-13.87293 32.83001,-20.47604 10.72996,-10.09017 10.94907,-9.47097 1.63188,0.32947 -11.29424,9.60753 -33.28934,21.91322 -46.5888,26.01582 -13.19034,1.95535 -10.66006,0.38851 2.91219,-3.27568 16.44536,-7.17449 41.06615,-23.47676 54.36516,-36.01938 14.5549,-19.3129 15.04163,-18.47371 1.64281,1.16584 -16.47905,17.06384 -50.56854,36.76775 -70.83128,41.16039 -16.79526,-0.32743 -11.767,-2.26271 7.14749,-5.09653 23.44014,-8.98959 56.78904,-33.18711 73.25906,-52.80165 15.72451,-30.80511 16.65279,-30.18672 2.15073,1.46554 -20.0563,25.87775 -66.34871,54.22603 -93.6465,57.97362 -18.61576,-3.54521 -10.55388,-5.37223 12.1804,-6.44719 29.97199,-10.38868 70.90794,-43.53747 88.87156,-71.13779 13.35486,-43.78939 14.6628,-43.88007 2.94299,1.09844 -21.54279,35.81476 -79.79129,74.47259 -114.16246,76.81815 -18.53775,-7.07839 -6.99279,-8.33676 17.91068,-7.30355 35.9704,-11.65849 83.11307,-54.98253 100.62784,-91.15728 6.82591,-57.20621 8.20621,-58.4479 3.76424,-0.0124 -20.49966,46.46698 -90.00798,97.48607 -131.50933,97.85643 -16.63341,-10.40269 -1.21481,-10.74544 24.23832,-7.6893 41.41489,-13.05676 93.10114,-67.86479 108.0304,-112.78675 -4.13313,-69.80203 -3.20639,-72.49917 4.33171,-1.87451 -16.59281,57.26547 -96.10152,123.01013 -144.85517,121.01805 -13.10096,-13.13942 6.56048,-12.42144 31.06961,-7.66864 46.32058,-14.80784 100.56105,-82.39245 110.67594,-135.75011 -19.38971,-80.25057 -19.60213,-84.49255 4.35567,-4.41574 -9.6473,67.51038 -97.21924,150.54071 -153.44913,145.98624 -8.20616,-15.07553 16.07466,-13.42174 38.31991,-7.33637 50.72251,-17.10452 105.17079,-98.62479 108.27557,-159.5852 -38.39896,-87.28911 -40.51225,-92.89773 3.56289,-7.47981 0.30791,76.41885 -92.61252,179.32915 -156.6686,172.20369 -2.23511,-16.15672 27.05468,-13.99947 45.91364,-6.80698 54.65985,-20.11398 106.60524,-116.46526 100.675,-183.67554 -60.24192,-89.84963 -64.99665,-96.35878 1.72152,-10.82969 13.01093,83.18935 -81.69671,208.40339 -154.06606,198.89927 4.53613,-16.45925 39.21186,-14.53675 53.78279,-6.20358 58.16104,-23.98557 104.55405,-135.6626 87.87184,-207.29274 -83.70609,-87.169782 -91.72333,-93.839884 -1.33558,-14.15898 27.95933,87.07564 -64.10641,236.60551 -145.40974,225.13281 11.85407,-16.14888 52.23071,-15.4632 61.86512,-5.64862 61.22859,-28.85713 98.74631,-155.82014 70.02606,-229.64654 -107.39745,-78.868991 -119.0919,-84.734009 -5.69119,-17.11042 44.42705,87.46388 -39.74059,262.64429 -130.71391,249.85516 19.48849,-15.43484 65.76241,-17.17623 70.10266,-5.2566 63.82485,-34.85761 88.97902,-176.41393 47.4612,-249.9375 -129.86874,-64.982099 -145.38389,-68.922176 -11.32998,-19.29943 61.50682,83.94223 -8.7944,285.15912 -110.25432,271.97785 27.2287,-14.52804 79.43182,-19.97904 78.44194,-5.13014 65.85847,-42.10316 75.1449,-196.81848 20.65504,-267.40707 C 294.13342,65.253217 274.96175,64.423195 425.74972,90.860605 503.92437,167.21706 453.9755,393.65152 341.18355,381.30824 376.06412,367.69802 434.04067,357.26428 428.01856,375.94827 495.19249,325.26264 485.27404,159.60899 418.23782,94.566437 252.38018,71.997286 230.02886,75.434138 392.36044,74.680738 485.73129,139.52321 462.86428,388.93641 337.93587,378.99911 380.2032,366.18224 443.61244,349.59823 433.17777,372.97064 500.72389,312.31661 468.634,138.72102 390.04752,81.663291 212.75255,85.752294 187.98595,94.496942 355.79599,64.031942 461.88553,113.86356 472.72979,382.44815 334.9889,376.84781 384.22153,364.61372 452.5632,340.90186 438.62217,369.63054 505.30453,297.64079 448.65323,119.80193 360.01263,72.860814 176.51523,105.63915 150.33503,120.54385 317.14342,59.498692 432.61004,91.525891 483.29809,373.84601 332.30072,374.88804 387.94452,362.9823 460.60158,331.42353 444.29258,365.87011 508.52722,281.29075 425.68898,103.47284 328.88614,68.366208 144.62827,130.5512 118.20492,152.22841 277.5912,61.408779 398.44741,73.762134 494.18995,362.80098 329.84077,373.1554 391.23376,361.30915 467.52863,321.48482 450.15216,361.61046 509.97517,263.42214 400.23759,90.261802 297.43426,68.222489 117.72032,159.25201 92.315587,188.04721 238.36206,69.819316 360.24989,61.701698 504.91332,349.02596 327.58964,371.68977 393.98547,359.63469 473.24942,311.40962 456.17952,356.74189 509.25116,244.29894 372.90674,80.569649 266.39845,72.313718 96.092078,190.46764 72.979729,226.45735 200.64644,84.520804 319.14409,56.268768 514.86366,332.31116 325.53894,370.5368 396.12631,358.00675 477.77712,301.40555 462.35451,351.11753 506.01051,224.29173 344.3788,74.645827 236.46136,80.37945 79.743126,222.96753 60.136003,265.97887 165.54063,105.05823 276.4714,58.111726 523.33439,312.56252 323.69182,369.7485 397.60825,356.4708 481.20102,291.47938 468.63576,344.5567 499.99393,203.86438 315.37003,72.57578 208.21948,92.036173 68.416853,255.62744 53.405174,305.27572 133.99439,130.76651 233.70977,67.552152 529.53972,289.83936 322.06374,369.38286 398.40283,355.06261 483.61361,281.51634 474.93436,336.8622 491.05586,183.54942 286.58849,74.280537 182.16252,106.80367 61.655212,287.47398 52.159929,343.21185 106.77159,160.81628 192.38413,84.55795 532.64995,264.38825 320.68427,369.50238 398.49622,353.80316 485.06317,271.44098 481.09223,327.85151 479.18425,163.91473 258.69513,79.527911 158.6608,124.13429 58.857999,317.70884 55.600102,378.88202 84.424275,194.26635 153.9721,108.74336 531.83898,236.66817 319.59952,370.17122 397.88538,352.69522 485.5664,261.28758 486.87567,317.39379 464.5089,145.52471 232.27097,87.953317 137.96106,143.44208 59.340207,345.71627 62.825645,411.62003 67.282169,230.11803 119.81463,139.39544 526.34182,207.36274 318.8751,371.45125 396.57553,351.72141 485.14276,251.18122 491.98892,305.44224 447.29727,128.90065 207.79281,99.087711 120.18896,164.13069 62.383918,371.05642 72.902086,440.98816 55.455888,267.36724 91.039234,175.52358 515.51839,177.37549 318.5993,373.39643 394.57919,350.84335 483.83869,241.29654 496.10378,292.05225 427.93828,114.48452 185.61845,112.38933 105.35775,185.61814 67.28203,393.44791 84.914981,466.7528 48.852039,305.05164 68.500843,215.92754 498.91801,147.80603 318.88598,376.04583 391.91667,350.00154 481.73737,231.82405 498.89667,277.38382 406.91615,102.61007 165.98168,127.27641 93.38201,207.35678 73.372813,412.74429 98.01192,488.85131 47.198062,342.28968 52.745546,259.2764 476.33912,119.90645 319.87612,379.41508 388.61797,349.11619 478.95816,222.94735 500.08404,261.68993 384.77774,93.48397 148.99623,143.15828 84.094192,228.84924 80.065019,428.90702 111.43193,507.35445 50.073511,378.31027 43.997733,304.19132 447.87687,95.018429 321.73762,383.48678 384.72572,348.08892 475.64993,214.82901 499.4505,245.29546 362.09679,87.177837 134.66704,159.46233 77.26311,249.6585 86.85445,441.97827 124.52352,522.42859 56.945111,412.47254 42.169832,349.32562 413.95328,74.495962 324.66204,388.19971 380.29924,346.80562 471.98128,207.60283 496.86736,228.57127 339.43971,83.631536 122.90722,175.656 72.612834,269.41372 93.333294,452.05632 136.75325,534.30036 67.202707,444.27571 46.892096,393.43518 375.32447,59.617994 328.85795,393.43815 375.41916,345.14067 468.12946,201.37115 492.30106,211.90635 317.33456,82.665732 113.55818,191.26271 69.84079,287.81209 99.193459,459.27438 147.70688,543.22623 80.193584,473.35984 57.557436,435.43471 333.06286,51.49934 334.53996,399.02171 370.19227,342.96272 464.26961,196.20569 485.81271,195.68153 296.24774,84.001882 106.41152,205.87239 68.634618,304.61624 104.22537,463.784 157.08526,549.46741 95.253769,499.4998 73.376315,474.43802 288.51317,51.007059 341.91344,404.69703 364.75603,340.14288 460.56487,192.151 477.55006,180.24629 276.56731,87.286816 101.23045,219.14626 68.686674,319.65019 108.31363,465.74407 164.69719,553.27181 111.73449,522.59251 93.436032,509.78023 243.22475,58.690754 351.15514,410.13308 359.28206,336.5651 457.15788,189.2293 467.73395,165.90034 258.5954,92.119127 97.769796,230.81783 69.706284,332.79283 111.43006,465.31473 170.45037,554.86212 129.02345,542.64032 116.75931,541.02325 198.866,74.733584 362.39015,414.92099 353.97724,332.14044 454.16414,187.446 456.64133,152.88097 242.54715,98.075373 95.79316,240.69038 71.429505,343.97065 113.62489,462.65617 174.34171,554.43028 146.56086,559.73237 142.35831,567.94672 157.12645,98.928906 375.66661,418.58047 349.08053,326.82749 451.66688,186.79513 444.58649,141.356 228.55677,104.73373 95.087019,248.63272 73.626337,353.15015 115.01645,457.9314 176.44752,552.13743 163.84982,574.02416 169.28043,590.52705 119.61593,130.68515 390.93011,420.57339 344.84781,320.66742 449.71347,187.26352 431.90262,131.42234 216.68774,111.69436 95.471094,254.57377 76.105731,360.33092 115.77916,451.31244 176.91394,548.11865 180.46254,585.71831 196.64453,608.90799 87.768517,169.05891 407.99934,420.32592 341.49334,313.86161 448.31327,188.83378 418.92471,123.10927 206.94596,118.5955 96.80499,258.49743 78.718411,365.53934 116.12975,442.98822 175.94716,542.49191 196.04218,595.04602 223.6664,623.36627 62.760786,212.81227 426.54666,417.25867 338.94695,306.93314 447.43674,191.48547 405.9751,116.38554 199.29435,125.12537 98.99111,260.43784 81.357875,368.82346 116.31186,433.17371 173.8033,535.36967 210.3018,602.25066 249.67446,634.27554 45.448985,260.49027 446.08541,410.82439 336.31017,300.71629 447.01561,195.1939 393.35195,111.16925 193.66694,131.03016 101.97413,260.47567 83.959801,370.2495 116.57866,422.11773 170.77693,526.87218 223.02121,607.57418 274.11588,642.07099 36.331034,310.51055 465.9671,400.55153 332.23184,295.81499 446.94458,199.92744 381.32102,107.33921 189.98154,136.11867 105.7369,258.73555 86.49989,369.89941 117.17427,410.1094 167.18845,517.1414 234.04191,611.24562 296.55532,647.2167 35.534747,361.25699 485.39091,386.09095 326.13172,292.72033 447.08425,205.64232 370.11087,104.74724 188.14999,140.26416 110.29329,255.38399 88.990443,367.87001 118.31449,397.4807 163.36976,506.35375 243.26195,613.47291 316.6683,650.17751 42.831199,411.17099 503.42645,367.26217 318.18143,292.118 447.26596,212.27617 359.91047,103.22983 188.08531,143.40418 115.67825,250.62814 91.475814,364.27331 120.16815,384.60525 159.64813,494.73062 250.63013,614.4371 334.23013,651.39558 57.670796,458.83186 519.05071,344.09579 309.01205,294.74818 447.29852,219.74031 350.86943,102.61942 189.70561,145.53868 121.9353,244.71351 94.026495,359.23747 122.84074,371.89212 156.32958,482.54514 256.14066,614.28913 349.10364,651.27231 79.236801,503.02161 531.1984,316.86642 299.61355,301.22049 446.97783,227.91199 343.0999,102.75397 192.93436,146.72688 129.10244,237.92108 96.732275,352.90857 126.36257,359.77543 153.68226,470.12422 259.82822,613.14914 361.22591,650.15541 106.51098,542.77132 538.82308,286.11324 291.26955,311.86223 446.0986,236.62701 336.67936,103.48525 197.69741,147.08286 137.19664,230.56205 99.694457,345.45212 c 30.989033,3.24873 52.227813,112.3934 162.069463,265.65541 107.28124,44.45926 -129.98825,-3.06687 279.2018,-358.46335 -255.50333,73.94747 -96.49641,-6.96981 -209.31138,-147.95902 -127.73718,42.08472 -185.45567,118.28495 -228.63731,232.36931 32.65928,2.0561 48.18667,109.07449 159.0345,271.17377 C 376.87592,664.21699 172.513,654.16081 536.82609,217.52066 283.73577,344.82308 441.92913,254.79407 328.0437,106.25053 211.50442,145.99274 156.0389,215.49044 106.79743,327.92337 141.15091,331.4297 151.61537,435.42385 260.82442,604.5534 380.4149,669.19222 208.91803,685.12124 525.83109,182.02279 287.51952,365.41877 438.36648,263.67908 325.84191,108.10603 220.34866,144.98849 166.58599,208.46596 111.117,318.2869 c 35.76324,7.76943 42.06993,107.90587 147.12587,281.82258 123.68718,67.9601 -10.94673,101.5102 249.45148,-452.51431"
       id="path4752"
       sodipodi:nodetypes="ccccccccccccccccccccccccccccccccccccccccccccccccccccccccccccccccccccccccccccccccccccccccccccccccccccccccccccccccccccccccccccccccccccccccccccccccccccccccccccccccccccccccccccccccccccccccccccccccccccccc" />
  </g>
</svg>
