<?xml version="1.0" encoding="UTF-8" standalone="no"?>
<!-- Created with Inkscape (http://www.inkscape.org/) -->

<svg
   xmlns:dc="http://purl.org/dc/elements/1.1/"
   xmlns:cc="http://creativecommons.org/ns#"
   xmlns:rdf="http://www.w3.org/1999/02/22-rdf-syntax-ns#"
   xmlns:svg="http://www.w3.org/2000/svg"
   xmlns="http://www.w3.org/2000/svg"
   xmlns:sodipodi="http://sodipodi.sourceforge.net/DTD/sodipodi-0.dtd"
   xmlns:inkscape="http://www.inkscape.org/namespaces/inkscape"
   width="744.09448819"
   height="1052.3622047"
   id="svg2"
   version="1.1"
   inkscape:version="0.48.2 r9819"
   sodipodi:docname="New document 1">
  <sodipodi:namedview
     id="base"
     pagecolor="#ffffff"
     bordercolor="#666666"
     borderopacity="1.0"
     inkscape:pageopacity="0.0"
     inkscape:pageshadow="2"
     inkscape:zoom="0.49497475"
     inkscape:cx="239.58733"
     inkscape:cy="650.48427"
     inkscape:document-units="px"
     inkscape:current-layer="layer1"
     showgrid="false"
     inkscape:window-width="1280"
     inkscape:window-height="749"
     inkscape:window-x="-4"
     inkscape:window-y="-4"
     inkscape:window-maximized="1" />
  <defs
     id="defs4" />
  <metadata
     id="metadata7">
    <rdf:RDF>
      <cc:Work
         rdf:about="">
        <dc:format>image/svg+xml</dc:format>
        <dc:type
           rdf:resource="http://purl.org/dc/dcmitype/StillImage" />
        <dc:title></dc:title>
      </cc:Work>
    </rdf:RDF>
  </metadata>
  <g
     id="layer1"
     inkscape:groupmode="layer"
     inkscape:label="Layer 1">
    <path
       sodipodi:nodetypes="csssssssssssssssssssssssssssssssssssssssssssssssssssssssssssssssssssssssssssssssssssssssssssssssssssssssssssssssssssssssssssssssc"
       inkscape:connector-curvature="0"
       id="path2985"
       d="M 44.07956,434.89285 C 49.4324,461.90736 156.23223,100.07932 167.03561,82.944986 664.95899,386.64258 207.88266,359.92902 289.143,396.12415 c 29.05484,25.74817 13.13184,45.52252 5.58855,34.9988 -6.45595,-0.57011 -250.91245,-14.65523 -245.7292,22.35598 9.17536,28.77039 91.58368,-359.028474 117.5503,-372.462144 22.17679,1.36063 107.69315,298.526644 127.60011,319.171114 13.46535,35.48006 8.97275,52.42793 2.37275,39.40262 -6.69299,-0.7304 -250.36276,-9.23251 -240.75585,31.50332 13.40626,29.88258 80.03761,-374.661724 110.41472,-391.881424 25.63043,1.7563 113.09363,301.566494 132.78758,325.807894 10.62554,41.03892 3.40711,58.97557 -1.68644,43.47895 -6.95167,-0.83367 -247.80165,-4.9569 -233.05547,39.06145 17.93386,30.29058 67.01698,-388.837304 101.78965,-410.087524 28.99688,2.39779 118.60363,305.245264 137.47228,333.148654 6.70427,46.44546 -3.54265,64.93202 -6.55918,47.10018 -7.27053,-0.89298 -243.26548,-1.76032 -222.71683,45.00186 22.63936,29.95272 52.87151,-401.68499 91.92255,-426.977084 32.15952,3.35541 124.048,309.687694 141.46345,341.231844 1.69083,51.52436 -11.81791,70.0635 -12.19704,50.14068 -7.68268,-0.93161 -236.80796,0.45224 -209.8586,49.33087 27.40012,28.84692 37.90079,-413.36725 81.06318,-442.459264 35.00116,4.69103 129.24928,314.998614 144.58115,350.071214 -4.39859,56.09461 -21.3234,74.14127 -18.53304,52.4795 -8.21414,-0.9818 -228.50018,1.79978 -194.62789,52.08862 32.09248,26.97058 22.34789,-424.02579 69.45897,-456.454294 37.40771,6.4535 134.03021,321.257434 146.65967,359.652704 -11.51973,59.97355 -31.92775,76.94723 -25.48231,54.00303 -8.88207,-1.08283 -218.43064,2.42212 -177.19896,53.34717 36.59499,24.34046 6.42562,-433.75585 57.35212,-468.892294 39.27094,8.67562 138.21567,328.514044 147.54974,369.932974 -19.59965,62.98112 -43.46459,78.27926 -32.94302,54.60762 -9.69352,-1.27921 -206.70488,2.47632 -157.77107,53.20826 40.79114,20.99179 -9.65131,-442.61343 44.97664,-479.713454 40.49085,11.37283 141.63439,336.786274 147.12031,380.839144 -28.53656,64.94425 -55.73464,77.95687 -40.79753,54.20221 -10.64461,-1.61841 -193.44511,2.13301 -136.56645,51.80059 44.5721,16.97708 -25.64879,-450.63184 32.55579,-488.868654 40.97807,14.54333 144.12111,346.058614 145.26031,392.270134 -38.20066,65.70128 -68.50851,75.826 -48.91409,52.71039 -11.72001,-2.14869 -178.78987,1.57237 -113.82782,49.27664 47.83949,12.36462 -41.31129,-457.83221 20.29967,-496.320484 40.65602,18.16948 145.51885,356.282154 141.8801,404.098944 -48.43519,65.10625 -81.53033,71.76375 -57.14886,50.07265 -12.89269,-2.91679 -162.89289,0.98008 -89.8153,45.80899 50.50692,7.23643 -56.36813,-464.226604 8.40241,-502.044624 39.46322,22.22035 145.68181,367.375534 136.9132,416.175574 -59.0585,63.03315 -94.52182,65.68271 -65.34782,46.24808 -14.12444,-3.96564 -145.92272,0.54327 -64.80416,41.58655 52.50261,1.68622 -70.5422,-469.816424 -2.9596,-506.031174 37.35524,26.65492 144.47807,379.226664 130.31765,428.330924 -69.86657,59.37987 -107.18735,57.53439 -73.34949,41.21582 -15.36637,-5.332 -128.06124,0.44663 -39.08104,36.81052 53.77027,-4.18319 -83.56051,-474.590144 -13.63051,-508.285994 34.30666,31.42579 141.79298,391.695194 122.07741,440.380754 -80.63608,54.07181 -119.21919,47.31233 -80.98739,34.97643 -16.56002,-7.04457 -109.50247,0.86822 -12.94088,31.68991 54.27042,-10.26243 -95.16427,-478.521694 -23.47677,-508.831614 30.31262,36.48289 137.53224,404.615444 112.20361,452.130004 -91.12817,47.06514 -130.30358,35.05424 -88.09296,27.55261 -17.63871,-9.12195 -90.45118,1.97588 13.31637,26.43733 C 283.21874,546.11524 124.11841,80.983366 196.84933,54.845516 222.23905,96.623076 328.47387,472.64535 297.5842,518.22303 c -101.09259,38.34936 -140.12671,20.84326 -94.49826,18.9895 -18.5295,-11.57099 -71.12132,3.92368 39.38915,21.2645 C 295.37293,535.88026 129.2496,74.794806 202.19523,53.503716 c 19.57678,47.266044 124.02449,431.042714 87.73785,473.920174 -110.27243,27.9497 -148.38142,4.80865 -100.03931,9.35509 -19.15478,-14.38539 -51.73398,6.84847 64.97807,16.37795 51.0338,-28.6252 -119.32607,-484.795054 -47.09096,-500.702864 12.93477,52.912524 114.71439,444.124244 73.30657,483.557504 -118.40896,15.92837 -154.77362,-12.87475 -104.55863,-1.26032 -19.43509,-17.5448 -32.51566,10.86704 89.78899,11.97464 C 314.7366,512.31034 143.00359,61.883476 213.53162,51.736386 219.07812,110.42809 317.23767,508.55118 271.09332,543.83203 145.84646,546.2175 112.0645,511.84426 163.18473,531.08722 143.89374,510.07328 149.48884,547.16076 276.72141,539.32535 321.81994,499.45856 151.58347,55.564486 219.36733,51.383136 216.88303,115.97357 310.40908,520.26201 260.01635,550.73429 129.47655,538.19338 99.1176,498.46511 150.06223,525.76852 c -18.64604,-24.74253 4.49483,22.53712 135.94802,5.33463 C 327.14322,486.21615 161.20785,49.606356 225.20405,51.418616 214.17,122.02711 301.99883,531.49823 247.94168,556.57295 113.88588,527.89755 87.7743,483.1541 137.3662,518.80145 119.93696,490.13614 159.19373,549.10174 294.13141,522.21099 330.72613,472.8153 171.76199,44.197766 230.95595,51.858536 210.99508,128.61679 292.02533,542.04104 234.97337,561.21063 99.39071,515.4038 78.31668,466.10886 125.30247,510.21762 c -15.57766,-32.70267 38.07739,39.37759 175.74874,2.5846 C 332.61828,459.4767 183.09689,39.506116 236.53714,52.709966 207.4309,135.77362 280.53727,551.66967 221.23374,564.52042 86.30057,500.83002 71.00176,447.56747 114.0749,500.07433 101.03577,463.31259 167.10089,549.82886 306.75511,503.02927 332.89664,446.40572 195.03435,35.670376 241.86365,53.971916 203.56676,143.52973 267.61453,560.16532 206.86226,566.38819 74.91185,484.33746 66.05575,427.80521 103.88208,488.45436 c -9.77451,-40.73771 66.4642,61.38737 207.36489,4.5871 20.41549,-59.2524 -147.77227,-108.1365 -89.06799,-147.37187 122.30593,90.02577 31.18924,221.64616 -30.1648,221.04525 C 65.50197,466.12926 63.66877,407.13036 94.91417,475.46545 c -5.76001,-44.5157 78.19476,74.20321 219.63405,7.51742 C 329.0378,421.79188 165.85479,375.87848 228.98023,342.70621 346.31396,448.44099 237.94032,572.91956 176.85884,565.41844 58.32338,446.4482 63.99015,385.87959 87.34977,461.23946 86.36068,413.26641 175.3844,549.33982 316.69669,472.99036 325.16183,410.55582 169.56015,366.81217 236.40295,340.32427 346.71266,461.793 221.50271,576.79058 161.57768,562.43604 53.59808,425.57338 67.12441,364.41236 81.35297,445.93117 85.87878,394.94931 177.17089,548.88056 317.74531,463.1918 320.18679,400.19724 174.63334,357.90177 244.39482,338.62224 345.55978,475.58345 204.25535,578.76236 146.36227,557.7254 51.5124,403.81656 73.12777,343.10491 77.07042,429.71641 87.82255,376.30464 178.46844,548.31109 317.76062,453.70445 314.27395,390.80632 181.08832,349.3524 252.88974,337.69399 342.75436,489.62386 186.42399,578.69212 131.41167,551.26641 52.21231,381.51725 82.00585,322.34375 74.62866,412.79024 92.26491,357.65716 179.27879,547.64634 316.82103,444.63354 307.5896,382.44675 188.90857,341.37455 261.80823,337.62695 338.21904,503.70792 168.25744,576.46473 116.93006,543.06221 55.7995,359.03747 93.71191,302.51874 74.13174,395.36456 99.2349,339.34452 179.60505,546.89585 315.01504,436.07131 300.30091,375.15589 325.73262,236.40849 358.17964,276.49105 314.1063,376.17893 150.02395,571.99614 103.12381,533.14001 62.3279,336.75612 108.14608,284.01617 75.65896,377.66551 108.71553,321.71123 179.45154,546.06369 312.43936,428.09605 292.57223,368.94578 132.41159,291.80884 85.47439,341.66861 c 52.736,-84.26548 46.53296,223.56784 4.72434,179.8831 C 71.80128,315.06227 125.15584,267.2113 79.26308,359.93033 c 41.3795,-54.82775 99.56036,185.21809 229.93383,60.8414"
       style="fill:none;stroke:#000000;stroke-width:0.41252518px;stroke-linecap:butt;stroke-linejoin:miter;stroke-opacity:1" />
  </g>
</svg>
