<?xml version="1.0" encoding="UTF-8" standalone="no"?>
<!-- Created with Inkscape (http://www.inkscape.org/) -->

<svg
   xmlns:dc="http://purl.org/dc/elements/1.1/"
   xmlns:cc="http://creativecommons.org/ns#"
   xmlns:rdf="http://www.w3.org/1999/02/22-rdf-syntax-ns#"
   xmlns:svg="http://www.w3.org/2000/svg"
   xmlns="http://www.w3.org/2000/svg"
   xmlns:sodipodi="http://sodipodi.sourceforge.net/DTD/sodipodi-0.dtd"
   xmlns:inkscape="http://www.inkscape.org/namespaces/inkscape"
   sodipodi:docname="spiral054.svg"
   inkscape:version="0.48.2 r9819"
   version="1.1"
   id="svg3783"
   height="1052.3622047"
   width="744.09448819">
  <sodipodi:namedview
     id="base"
     pagecolor="#ffffff"
     bordercolor="#666666"
     borderopacity="1.0"
     inkscape:pageopacity="0.0"
     inkscape:pageshadow="2"
     inkscape:zoom="0.24748737"
     inkscape:cx="-701.91844"
     inkscape:cy="376.86643"
     inkscape:document-units="px"
     inkscape:current-layer="svg3783"
     showgrid="false"
     inkscape:window-width="1024"
     inkscape:window-height="748"
     inkscape:window-x="13"
     inkscape:window-y="16"
     inkscape:window-maximized="0" />
  <defs
     id="defs3785">
    <inkscape:perspective
       sodipodi:type="inkscape:persp3d"
       inkscape:vp_x="-314.90439 : 155.3937 : 0"
       inkscape:vp_y="0 : 1000 : 0"
       inkscape:vp_z="372.04724 : 175.3937 : 0"
       inkscape:persp3d-origin="334.90438 : 296.50168 : 1"
       id="perspective3823" />
  </defs>
  <metadata
     id="metadata3788">
    <rdf:RDF>
      <cc:Work
         rdf:about="">
        <dc:format>image/svg+xml</dc:format>
        <dc:type
           rdf:resource="http://purl.org/dc/dcmitype/StillImage" />
        <dc:title></dc:title>
      </cc:Work>
    </rdf:RDF>
  </metadata>
  <g
     inkscape:label="Layer 1"
     inkscape:groupmode="layer"
     id="layer1">
    <flowRoot
       xml:space="preserve"
       id="flowRoot3475"
       style="fill:black;stroke:none;stroke-opacity:1;stroke-width:1px;stroke-linejoin:miter;stroke-linecap:butt;fill-opacity:1;font-family:Sans;font-style:normal;font-weight:normal;font-size:40px;line-height:125%;letter-spacing:0px;word-spacing:0px"><flowRegion
         id="flowRegion3477"><rect
           id="rect3479"
           width="474.7717"
           height="76.771591"
           x="40.406101"
           y="840.23016" /></flowRegion><flowPara
         id="flowPara3481" /></flowRoot>  </g>
  <path
     inkscape:connector-curvature="0"
     id="path3524-7"
     d="m 477.26156,264.29755 c 0.29377,-2.15408 -0.17242,-7.16138 -0.82632,-10.31621 -0.9588,-4.46203 -1.93702,-4.49972 -2.17056,-1.103 -0.29879,4.57085 0.57838,12.91817 1.71943,18.07949 1.394,6.64822 2.75548,6.65603 3.09858,1.0181 0.43913,-6.59053 -0.69493,-18.47591 -2.4078,-25.76835 -2.09744,-8.20809 -4.09471,-7.78801 -4.38586,-0.11284 -0.31996,9.16423 1.39051,24.36931 3.51742,33.4398 2.3325,10.88797 4.53209,10.67524 5.04259,0.47691 0.6432,-10.87023 -1.11813,-29.86112 -3.92905,-41.33834 -3.33561,-11.89295 -6.41018,-10.9302 -6.66969,0.97788 -0.28177,13.791 2.31919,35.86039 5.41537,48.75309 3.24067,15.31687 6.21921,14.92012 6.89712,0.009 0.88262,-15.08498 -1.44748,-41.28792 -5.3977,-57.04078 -4.69796,-15.48919 -8.89634,-13.90478 -9.01769,2.17333 -0.17242,18.47707 3.37053,47.38997 7.42268,64.04416 4.12482,19.95717 7.81575,19.40093 8.65625,-0.40083 1.14912,-19.25046 -1.68712,-52.76169 -6.82094,-72.89039 -6.20655,-18.9913 -11.5691,-16.7054 -11.42484,3.4768 0.0218,23.22883 4.55086,58.9689 9.54762,79.34196 4.98126,24.84965 9.31168,24.14012 10.31261,-0.76527 1.43678,-23.37664 -1.83947,-64.29372 -8.2036,-88.90285 -7.88189,-22.39549 -14.44376,-19.32733 -13.8859,4.89112 0.27828,28.04903 5.86564,70.61246 11.79544,94.68027 5.79405,30.04761 10.68648,29.16839 11.85895,-1.10381 1.74278,-27.47331 -1.90581,-75.89827 -9.5474,-105.0951 -9.74339,-25.69747 -17.53536,-21.76534 -16.39628,6.41865 0.62836,32.93934 7.32032,82.33932 14.16898,110.09847 6.53022,35.61666 11.90413,34.52425 13.28744,-1.43846 2.06579,-31.55151 -1.88465,-87.5922 -10.85127,-121.48623 -11.807,-28.89201 -20.85503,-24.01331 -18.95096,8.06164 1.06378,37.90115 8.92035,94.17199 16.66582,125.64246 7.13283,41.63397 12.90811,40.25339 14.59065,-1.79524 2.40911,-35.62411 -1.77181,-99.39523 -12.10886,-138.09784 -14.08647,-31.97354 -24.41217,-26.06423 -21.54516,9.82236 1.58498,42.93549 10.67077,106.1371 19.27835,141.36507 7.50889,48.18656 13.61395,46.40788 15.76116,-2.20424 2.77927,-39.70602 -1.55835,-111.33009 -13.30861,-154.95475 -16.59184,-34.93608 -28.21333,-27.91015 -24.17406,11.70334 2.19064,48.04341 12.57483,118.26579 21.98866,157.32662 7.51849,55.36608 13.90248,53.04253 16.79503,-2.6998 3.18785,-43.81461 -1.2314,-123.42275 -14.43328,-172.08529 -19.32877,-37.77396 -32.25958,-29.54221 -26.83285,13.70723 2.87945,53.22601 14.63495,130.59459 24.76836,173.59527 6.95649,63.25805 13.60741,60.20833 17.69076,-3.32068 3.65383,-47.96942 -0.76957,-135.70267 -15.45581,-189.5216 -22.29858,-40.48199 -36.55071,-30.95066 -29.51697,15.83728 3.64837,58.48453 16.85003,143.16547 27.57056,190.2463 5.53563,71.92199 12.50608,67.94039 18.45574,-4.10928 4.20231,-52.19233 -0.14404,-148.20276 -16.34127,-207.2999 -25.49844,-43.05589 -41.08019,-32.1249 -32.22117,18.09704 4.4939,63.82041 19.21419,156.02643 30.32757,207.36107 2.86724,81.35817 10.30672,76.23788 19.10528,-5.11077 4.86886,-56.50708 0.6838,-160.95902 -17.04079,-225.46011 -28.92135,-45.49273 -45.83926,-33.05351 -34.94151,20.49058 5.41254,69.23543 21.71409,169.23143 32.94097,225.02396 -1.54088,91.45694 6.6446,85.03384 19.67209,-6.37064 5.69911,-60.93835 1.76853,-174.01015 -17.4928,-244.04543 -32.55575,-47.79111 -50.81332,-33.72421 -37.67342,23.02237 6.40058,74.73184 24.32618,182.84012 35.275,243.31726 -8.26754,101.93165 1.08605,94.15319 20.20857,-7.93078 6.75241,-65.51063 3.17955,-187.39591 -17.61765,-263.10099 -36.38614,-49.95164 -55.98424,-34.1239 -40.41231,25.69745 7.45454,80.31233 27.01095,196.91658 37.14633,262.31203 -17.91796,112.24194 -6.84495,103.26186 20.79327,-9.82269 8.10385,-70.24565 5.00658,-201.1552 -17.3147,-282.67156 -40.39421,-51.97717 -61.32869,-34.23886 -43.15471,28.52109 8.57245,85.98018 29.7075,211.52737 38.31618,282.05464 -31.00264,121.53302 -17.60738,111.81433 21.53709,-12.05689 9.84641,-75.15936 7.36309,-215.32273 -16.45957,-302.79858 -44.55854,-53.872817 -66.81892,-34.05454 -45.89645,31.49904 9.75191,91.73924 32.32658,226.73715 38.48403,302.54678 -47.76253,128.62609 -31.54566,119.01856 22.5845,-14.60813 12.09335,-80.257 10.3903,-229.9239 -14.8997,-323.51492 -48.85622,-55.646207 -72.42287,-33.55589 -48.63534,34.63714 10.994,97.59411 34.74202,242.60205 37.29082,323.71913 -67.95887,132.1042 -48.75516,123.84191 24.10814,-17.39565 14.97936,-85.52653 14.26043,-244.96806 -12.45173,-344.83796 -53.26194,-57.307489 -78.1032,-32.72739 -51.36835,37.94134 12.29961,103.54971 36.78294,259.15864 34.33149,345.40005 -90.69353,130.51963 -68.9299,125.08599 26.29354,-20.26116 18.66243,-90.93008 19.17861,-260.43926 -8.89874,-366.76047 -57.75059,-58.869108 -83.81868,-31.5533 -54.09371,41.41742 13.672,109.6115 38.22801,276.40813 29.18675,367.28423 -114.3357,122.70842 -91.23284,121.5473 29.30722,-22.94914 23.3198,-96.39298 25.38494,-276.28416 -3.98972,-389.23847 -62.29731,-60.345683 -89.5239,-30.018 -56.81144,45.07083 15.11621,115.78483 38.80639,294.29459 21.47663,388.9094 -136.62598,108.14541 -114.23966,112.25663 33.24828,-25.09756 29.14397,-101.79138 33.14853,-292.39806 2.55491,-412.17721 -66.87698,-61.753473 -95.16909,-28.10649 -59.52109,48.90636 16.63745,122.07467 38.20749,312.67849 10.93071,409.65332 -154.97915,87.23114 -136.00658,96.75619 38.08527,-26.25098 36.33005,-106.93797 42.76119,-308.60843 11.03721,-435.41455 -71.46646,-63.110221 -100.70254,-25.80565 -62.22506,52.92775 18.24251,128.48485 36.10962,331.3098 -2.53068,428.76273 -166.93566,61.39643 -154.28553,75.34189 43.59079,-25.90529 45.05964,-111.56939 54.52149,-324.65892 21.76538,-458.70506 -76.04374,-64.434473 -106.0699,-23.10611 -64.92599,57.13743 19.9364,135.01698 32.22575,349.80782 -18.72267,445.41997 -170.65408,32.95605 -166.86538,49.18556 49.29229,-23.58817 55.47353,-115.33649 68.7112,-340.19497 35.02991,-481.7056 C 402.99574,59.239353 372.36697,104.97745 415.95645,186.52018 437.67862,328.1895 442.3242,554.18016 378.80422,645.36507 213.50309,650.0899 206.83536,665.63215 433.26351,626.39599 500.90285,508.59462 518.82736,271.64082 484.3359,122.42933 399.25003,55.368339 368.23713,105.9026 413.99651,188.5499 437.59437,336.9847 432.5138,572.79877 356.97358,656.96491 205.73513,636.46404 188.37852,648.06267 415.12184,644.98696 496.63245,526.54083 520.34643,277.21437 485.16658,120.05343 395.65033,51.653094 364.48836,107.32748 412.10248,190.9403 437.65788,346.23898 420.99053,589.85383 334.80661,664.7189 204.83417,624.27764 178.09014,629.00515 394.11468,661.81668 490.99795,545.11934 521.82009,283.22684 486.0802,117.85513 392.21345,48.074544 361.1115,109.10945 410.26913,193.68086 437.8458,355.91644 408.22298,604.71828 313.46552,668.61318 209.57448,614.9414 176.19655,610.67207 370.40398,676.18178 483.75883,564.21294 523.24487,289.69017 487.07894,115.8331 388.95379,44.615227 358.01554,111.01173 408.49099,196.75733 438.12298,365.96262 394.92004,616.90023 294.09812,668.99772 218.27046,609.24882 182.11894,594.87351 344.36579,687.37359 474.66169,583.64826 524.61705,296.61712 488.16477,113.98648 385.8838,41.259254 355.0442,112.78085 406.76131,200.15128 438.43989,376.29917 381.9613,626.11612 277.69311,666.53907 229.28759,607.33537 194.56172,582.8049 316.61102,694.74687 463.45205,603.18448 525.93313,304.02149 489.33833,112.3149 383.01417,37.992678 352.05452,114.24343 405.07419,203.8399 438.7341,386.81792 370.29005,632.31743 264.96942,662.11591 241.74151,608.58323 211.52438,575.06756 287.98279,697.79971 449.89092,622.50295 527.18832,311.91804 490.60094,110.81838 380.3534,34.803148 348.95878,115.30791 403.4233,207.79586 438.93184,397.37443 360.79634,635.65738 256.31928,656.68085 255.88582,611.57268 230.11085,571.94067 259.52175,696.25482 433.77925,641.20039 528.37738,320.3227 491.95217,109.49758 377.9085,31.680098 345.70872,115.92335 401.80341,211.98727 438.95476,407.78241 354.21526,636.40101 251.8173,651.11702 272.68303,614.26978 246.41546,573.62709 232.4008,690.12756 414.98608,658.78802 529.49289,329.25258 493.392,108.35368 375.68425,28.614428 342.27599,116.05469 400.20948,216.37767 438.7269,417.80965 351.05971,634.79831 251.28978,646.1126 292.96929,614.21454 257.99374,579.15528 207.8317,679.76716 393.48261,674.6996 530.5259,338.72586 494.9198,107.3884 373.68415,25.598367 338.63962,115.67432 398.63651,220.92576 438.18388,427.17762 351.58462,630.94879 254.4307,642.0653 316.72277,608.51838 267.78318,585.67612 186.95746,665.85682 369.37774,688.31117 531.46331,348.76207 496.53424,106.60414 371.90929,22.625303 334.78064,114.76028 397.0786,225.58536 437.28204,435.5661 355.76422,624.68794 260.9295,639.01724 342.33623,594.00513 279.06026,591.19604 170.7432,649.36658 342.95149,698.9751 532.28853,359.38163 498.23424,106.00387 370.35902,19.689364 330.68026,113.29688 395.52941,230.30478 436.00306,442.62363 363.25194,615.52657 270.56813,636.61642 365.9151,568.01337 293.26263,594.24427 159.89107,631.46051 314.68164,706.06893 532.97975,370.60602 500.01761,105.59117 369.02962,16.78564 326.31862,111.27598 393.97958,235.02662 434.34912,447.98418 373.29827,602.67431 283.23594,634.10519 381.33185,530.15502 310.90013,592.88041 154.78649,613.36998 285.25568,709.0578 533.50728,382.45705 501.88217,105.37029 367.91607,13.909525 321.67457,108.69876 392.41643,239.68707 432.32959,451.28794 384.63101,585.18363 298.83275,630.338 382.53313,484.21362 331.35969,584.50129 155.49168,596.25437 255.56084,707.56538 533.83401,394.95671 503.82552,105.34609 367.00987,11.056895 316.72583,105.57702 390.82425,244.21556 429.93663,452.20521 395.35896,562.24949 317.06543,623.83464 368.30239,436.94777 352.14466,566.26252 161.77353,581.07343 226.64975,701.44552 533.91258,408.12608 505.84461,105.52405 366.30054,8.2239945 311.44927,101.93452 389.18187,248.53456 427.11458,450.46149 403.04201,533.65733 337.17272,612.89761 343.74878,392.30586 368.28144,536.43095 173.15384,568.49665 199.67568,690.84187 533.68363,421.98425 507.93616,105.91028 365.77454,5.407245 305.82262,97.807712 387.46376,252.55977 423.73226,445.86327 405.13618,500.24008 357.6325,595.85636 314.87938,349.37615 373.29544,496.604 188.95254,558.8694 175.80566,676.22281 533.07426,436.54672 510.09624,106.5114 365.41617,2.603352 299.8245,93.246005 385.63848,256.20044 419.57143,438.32372 399.9013,463.95868 375.97649,571.51902 285.01473,306.45725 363.3746,452.47307 208.28567,552.2508 156.11502,658.37794 531.99629,451.82326 512.32071,107.33466 365.20817,-0.190721 293.43636,88.311385 383.67003,259.36057 c 30.67132,168.52383 3.67499,167.79969 5.27961,280.4749 C 255.04248,263.60016 341.36237,409.21777 229.95633,548.54243 141.48618,638.36891 530.34474,467.8152 514.60498,108.38777 365.13091,-2.977591 286.64532,83.077055 381.51824,261.94043 407.72906,414.72283 369.23827,391.31016 393.3438,502.50789 223.88248,222.78544 313.13879,367.04447 252.08292,547.76424 132.5237,617.43406 527.9974,484.51202 516.94338,109.67893 365.16365,-5.759441 279.44614,77.625277 379.13925,263.83867 c 20.33689,135.29438 -31.1563,92.62828 8.4225,198.97231 C 188.97545,187.44214 282.64337,324.28634 271.15568,550.42373 129.50479,596.85722 524.81413,501.88728 519.33023,111.21674 365.28521,-8.537842 271.84515,72.044401 376.48743,264.95507 389.46211,381.47036 325.50387,321.96313 372.83993,423.94428 147.41052,161.88586 251.41921,280.7946 282.35353,555.79124 132.37224,577.82093 520.63758,519.8939 521.7592,113.01015 365.47488,-11.313581 263.86352,66.424871 373.51718,265.19349 c 4.23483,96.88002 -70.64015,22.12103 -21.1045,121.91685 C 97.581323,150.72079 218.8807,238.59288 288.57296,560.90291 140.76593,561.26903 515.29554,538.45904 524.22266,115.06848 365.71256,-14.086482 255.5401,60.854689 370.18397,264.46524 364.58767,341.19925 280.33663,252.67338 329.36963,351.64015 40.665997,157.97353 182.54934,201.56281 294.46981,565.2112 154.07258,547.80575 508.60512,557.47836 526.71274,117.40118 365.97971,-16.855302 246.93404,55.414325 366.4483,262.6923 350.32091,319.00757 257.33569,218.88976 305.61506,316.52694 -18.935408,185.81231 139.13381,174.89369 301.31912,568.44331 171.47,537.65168 500.37686,576.81108 529.22116,120.01799 366.26126,-19.617487 238.12653,50.172008 362.27612,259.81044 335.31645,295.60714 232.68802,187.38949 281.94255,281.40661 -74.70467,233.25329 86.54738,164.41715 309.64996,569.98283 191.93981,530.66567 490.42372,596.27489 531.73787,122.92867 366.54477,-22.369131 229.21972,45.178982 357.64123,255.77185 319.85497,271.13864 204.88284,159.99065 258.23404,246.76282 -120.29075,295.71885 26.028863,175.55078 319.70568,568.88801 214.24123,526.42648 478.56913,615.64224 534.25328,126.14302 396.97798,-15.211942 238.37054,15.485531 319.43373,160.02177"
     style="fill:none;stroke:#000000;stroke-width:0.4282532px;stroke-linecap:butt;stroke-linejoin:miter;stroke-opacity:1" />
</svg>
