<?xml version="1.0" encoding="UTF-8" standalone="no"?>
<!-- Created with Inkscape (http://www.inkscape.org/) -->

<svg
   xmlns:dc="http://purl.org/dc/elements/1.1/"
   xmlns:cc="http://creativecommons.org/ns#"
   xmlns:rdf="http://www.w3.org/1999/02/22-rdf-syntax-ns#"
   xmlns:svg="http://www.w3.org/2000/svg"
   xmlns="http://www.w3.org/2000/svg"
   xmlns:sodipodi="http://sodipodi.sourceforge.net/DTD/sodipodi-0.dtd"
   xmlns:inkscape="http://www.inkscape.org/namespaces/inkscape"
   sodipodi:docname="spiral030.svg"
   inkscape:version="0.48.2 r9819"
   version="1.1"
   id="svg2"
   height="1052.3622047"
   width="744.09448819">
  <sodipodi:namedview
     id="base"
     pagecolor="#ffffff"
     bordercolor="#666666"
     borderopacity="1.0"
     inkscape:pageopacity="0.0"
     inkscape:pageshadow="2"
     inkscape:zoom="0.23888136"
     inkscape:cx="-9.5974566"
     inkscape:cy="609.29061"
     inkscape:document-units="px"
     inkscape:current-layer="layer1"
     showgrid="false"
     inkscape:window-width="650"
     inkscape:window-height="587"
     inkscape:window-x="626"
     inkscape:window-y="121"
     inkscape:window-maximized="0" />
  <defs
     id="defs4" />
  <metadata
     id="metadata7">
    <rdf:RDF>
      <cc:Work
         rdf:about="">
        <dc:format>image/svg+xml</dc:format>
        <dc:type
           rdf:resource="http://purl.org/dc/dcmitype/StillImage" />
        <dc:title />
      </cc:Work>
    </rdf:RDF>
  </metadata>
  <g
     id="layer1"
     inkscape:groupmode="layer"
     inkscape:label="Layer 1">
    <path
       inkscape:connector-curvature="0"
       style="fill:none;stroke:#000000;stroke-width:1.12977409px;stroke-linecap:butt;stroke-linejoin:miter;stroke-opacity:1"
       d="m 214.16257,559.04358 c -0.81902,-1.07912 0.47555,0.0504 1.18711,0.78969 1.83131,1.88077 2.94159,3.53128 2.77442,3.76688 -0.23693,0.43956 -3.08335,-2.12689 -5.58072,-4.90226 -3.47745,-3.98303 -5.3171,-7.09585 -4.48253,-7.07062 1.21927,0.17363 6.00868,4.86061 10.12908,9.5448 5.33731,5.77811 8.13699,9.91788 6.66257,9.74088 -1.50579,0.0391 -8.33058,-5.9386 -14.48063,-12.8798 -6.80498,-8.21906 -10.23668,-14.53644 -8.04823,-13.86161 2.93346,1.26473 11.6858,10.18077 19.0108,18.61649 8.89873,9.40861 13.51994,15.91592 10.65433,15.34352 -2.51791,-0.0423 -13.46627,-9.20693 -23.45992,-20.40779 -10.10192,-12.58636 -15.11393,-22.42851 -11.59573,-21.03227 4.73562,2.60274 17.46039,15.98345 27.84352,27.96104 12.51324,12.7842 19.04024,21.44268 14.76996,20.57574 -3.31824,0.1117 -18.46364,-11.91415 -32.52207,-27.43689 -13.37354,-17.05829 -19.95322,-30.74015 -15.15325,-28.59196 6.62299,4.20395 23.32446,22.24175 36.6381,37.53555 16.1711,15.88068 24.69571,26.4759 19.02786,25.43685 -3.90093,0.47057 -23.30194,-14.04868 -41.66657,-33.91622 -16.63128,-21.6044 -24.77554,-39.45483 -18.75046,-36.55045 8.57819,6.06418 29.27324,28.92642 45.40446,47.29776 19.86051,18.67637 30.4847,30.9982 23.44394,29.92396 -4.25584,1.00733 -27.95632,-15.6011 -50.88748,-39.79261 -19.8895,-26.19324 -29.60745,-48.55809 -22.41887,-44.9181 10.58168,8.17252 35.30213,36.00504 54.15039,57.20539 23.5679,21.15226 36.40194,34.99281 28.03225,34.03288 -4.37348,1.69345 -32.39605,-16.56405 -60.17282,-45.01132 -23.16433,-30.79192 -34.4793,-58.03518 -26.19167,-53.7051 12.61321,10.51307 41.40485,43.44094 62.8811,67.21639 27.27677,23.29341 42.43551,38.44171 32.80368,37.75733 -4.24466,2.49914 -36.58181,-16.93127 -69.50271,-49.51592 -26.47347,-35.3662 -39.4248,-67.86972 -30.10438,-62.92121 14.65321,13.06645 47.57208,51.19201 71.59807,77.28817 30.97061,25.08998 48.56634,41.32631 37.7663,41.08964 -3.86076,3.39312 -40.4631,-16.6976 -78.84838,-53.24893 -29.83547,-39.88006 -44.481,-78.0431 -34.19468,-72.57534 16.68344,15.81126 53.78913,59.20974 80.29878,87.37864 34.63302,26.53669 54.76722,43.62743 42.92356,44.01981 -3.2121,4.34386 -43.97315,-15.85825 -88.16949,-56.15186 -33.27031,-44.29638 -49.68848,-88.53339 -38.5033,-82.6755 18.68721,18.72472 60.0337,67.43775 88.97585,97.44607 38.24964,27.63356 61.00478,45.32707 48.27246,46.53516 -2.28415,5.321 -47.02175,-14.40827 -97.4117,-58.16552 -36.79793,-48.5761 -55.09117,-99.31483 -43.07348,-93.22787 20.64951,21.7836 66.27226,75.81033 97.61747,107.45046 41.80827,28.38431 67.2426,46.40951 53.79885,48.61805 -1.03889,6.30194 -49.48573,-12.34335 -106.50142,-59.2293 -40.43921,-52.67907 -60.73726,-110.35673 -47.95232,-104.23696 22.55746,24.96549 72.45814,84.25282 106.20734,117.35443 45.29904,28.79518 73.4461,46.8629 59.47657,50.24407 0.76819,7.30052 -51.2047,-9.66457 -115.34519,-59.28108 -44.21485,-56.56372 -66.67871,-121.62239 -53.19007,-115.70437 24.39968,28.24878 78.53013,92.68362 114.72556,127.12435 48.71245,28.8732 79.58452,46.67937 65.28379,51.38317 3.47621,8.22222 -52.00416,-6.39287 -123.84642,-58.26011 -48.14536,-60.18716 -72.972,-133.06849 -58.84071,-127.62853 26.16506,31.61244 84.41599,101.02066 123.14935,136.7316 52.03735,28.62442 85.62768,45.85466 71.24033,52.00605 6.93865,8.86422 -51.75583,-2.5944 -131.94379,-56.11597 -52.2503,-63.50461 -79.67778,-144.64311 -64.9617,-140.00278 27.83971,35.03177 90.03915,109.189 131.4539,146.15283 55.25711,28.05313 91.53901,44.38784 77.39583,52.08429 10.92646,9.06773 -50.40007,1.6063 -139.60062,-52.81043 -56.54757,-66.46961 -86.86085,-156.28532 -71.61334,-152.81426 29.39978,38.46772 95.32684,117.12771 139.61371,155.3706 58.3464,27.162 97.26843,42.28258 83.7674,51.58256 15.21562,8.70954 -47.91433,6.03569 -146.74422,-48.31203 -61.05281,-69.03312 -94.58954,-167.92304 -78.85864,-166.04151 30.80302,41.84726 100.21687,124.79274 147.60282,164.3726 61.26956,25.95418 102.75091,39.54986 90.31843,50.46119 19.60625,7.70471 -44.30149,10.48707 -153.24648,-42.60043 -65.77756,-71.14327 -102.93454,-179.47196 -86.76174,-179.65259 31.99685,45.06508 104.66055,132.15628 155.39554,173.15144 63.98077,24.43605 107.90839,36.2112 96.97237,48.68427 23.91478,6.00593 -39.60018,14.73569 -158.93945,-35.67637 -70.72817,-72.74433 -111.96744,-190.83357 -95.3869,-193.60215 32.94619,48.02738 108.62273,139.20267 162.96462,181.70258 66.42942,22.62088 112.65644,32.30172 103.63149,46.2275 27.96589,3.60267 -33.89167,18.55313 -163.63507,-27.57061 -75.90295,-73.77625 -121.75772,-201.89362 -104.79589,-207.82922 33.64445,50.68102 112.08058,145.92499 170.27204,190.02112 68.57413,20.53353 116.91957,27.87416 110.1964,43.08506 31.59353,0.52061 -27.30046,21.72094 -167.13748,-18.34926 -81.29034,-74.1743 -132.37011,-212.52101 -115.04595,-222.25484 34.10327,53.00304 115.02118,152.32061 177.22249,198.08239 70.43433,18.22907 120.68384,23.01702 116.61982,39.2902 34.64446,-3.1797 -19.99178,24.04258 -169.25371,-8.11709 -86.86606,-73.86975 -143.86041,-222.56684 -126.18659,-236.78044 34.34258,54.98463 117.43975,158.38853 183.67791,205.83696 72.07979,15.79596 123.98742,17.85726 122.89865,34.92052 36.983,-7.4058 -12.16718,25.35421 -169.80408,2.98096 -92.58966,-72.79031 -156.27073,-231.86404 -138.25556,-251.28676 34.38591,56.62256 119.33775,164.12705 189.59463,213.27706 73.49655,13.28701 126.78741,12.49104 128.94074,30.03088 38.49709,-12.03752 -4.05716,25.53389 -168.62974,14.7609 C 189.35098,574.95579 118.12817,405.58951 136.4774,380.18415 c 34.25851,57.91475 120.72225,169.53215 194.96395,220.41829 74.64805,10.73455 129.02335,6.99752 134.6294,24.66969 39.10274,-16.93318 4.08767,24.50889 -165.60136,27.00246 C 196.24557,584.26039 116.54577,404.81327 135.2186,372.61181 c 33.9867,58.85916 121.60467,174.59648 199.779,227.27602 75.50884,8.17084 130.65159,1.45837 139.85985,18.90023 38.74636,-21.93556 12.00747,22.26027 -160.62667,39.45408 C 204.2784,594.06154 115.09166,404.891 134.06873,365.0446 c 33.59776,59.45295 122.00079,179.30903 204.03542,233.86209 76.06417,5.62899 131.64638,-4.04349 144.54156,12.80132 37.4075,-26.8808 19.44466,18.82463 -153.65604,51.83929 C 213.52718,604.23997 113.77846,405.86767 133.02485,357.49835 c 33.11959,59.69166 121.93006,183.65405 207.73253,240.18373 76.30822,3.1408 131.99861,-9.42812 148.59975,6.46371 35.09735,-31.60532 26.15545,14.29357 -144.68793,63.86588 -120.6068,-53.35772 -232.04366,-260.2263 -212.58649,-318.01946 32.58096,59.56921 121.41595,187.6111 210.8736,246.2431 76.24338,0.73578 131.71541,-14.62228 151.97625,-0.0126 31.85774,-35.95561 31.92099,8.80958 -133.77086,75.23495 C 235.94326,625.13888 111.65981,410.68182 131.23662,342.5486 c 32.01144,59.07794 120.48595,191.1553 213.46616,252.0372 75.87891,-1.56075 130.81851,-19.56339 154.63045,-6.52281 27.75644,-39.79739 36.55659,2.56065 -121.00553,85.6521 -129.115,-38.20749 -267.41144,-259.1249 -247.84878,-338.52145 31.44145,58.20794 119.17142,194.25674 215.52221,257.55724 75.2299,-3.72794 129.34302,-24.20244 156.53913,-12.96161 22.88238,-43.02891 39.91975,-4.22794 -106.54341,94.83848 C 263.89224,645.55168 110.43856,419.53787 129.79953,327.95693 160.70204,384.90427 247.30781,524.83807 346.85795,590.7456 421.17408,584.9953 474.19376,562.2393 504.5538,571.51832 521.89437,525.91798 546.46903,560.21633 413.96997,674.06057 279.97688,655.04354 110.27931,425.54498 129.18584,320.87131 c 30.42714,55.28193 115.53687,198.99004 218.09615,267.71098 73.1609,-7.61755 124.85376,-32.45862 158.10988,-25.22682 11.25206,-47.54494 42.49775,-18.38824 -73.36949,108.55019 -134.59334,-8.16508 -321.52214,-239.28159 -303.40005,-357.93315 30.04888,53.19605 113.30195,200.54156 218.66145,272.29848 71.78986,-9.32452 121.96231,-36.05897 157.80495,-30.88063 4.77148,-49.02088 41.67124,-25.20439 -55.1802,112.69835 -133.73455,3.3014 -338.73641,-227.31068 -321.81793,-360.78997 29.80199,50.67191 110.85286,201.49118 218.78477,276.52042 70.23031,-10.87086 118.73354,-39.32124 156.81818,-36.12783 -1.86758,-50.3259 39.48395,-31.47151 -36.32553,114.8821 -131.27291,15.16261 -354.99356,-212.57439 -339.79836,-361.68392 29.72128,47.69114 108.24299,201.79318 218.50056,280.34226 68.50993,-12.26022 115.24404,-42.26934 155.19926,-40.9315 -8.32599,-51.81125 36.01747,-36.93876 -17.1371,115.06499 C 357.03103,682.527 114.19501,460.26715 127.0364,294.78521 c 29.84133,44.23451 105.52913,201.40131 217.84668,283.72608 66.656,-13.49969 111.57179,-44.93321 153.01091,-45.28226 -14.23795,-53.72359 31.36984,-41.46603 2.03876,113.28436 C 378.77382,685.52539 116.72884,471.5485 126.4663,289.02625 156.66207,329.30881 229.23713,489.29639 343.32951,575.65792 408.02447,561.05874 451.1229,528.31377 493.65974,526.4578 474.32081,470.3194 519.3917,481.13706 514.50712,636.11164 401.0686,686.51751 120.07702,483.79418 125.83437,283.65267 156.65079,319.46821 225.86347,482.0084 341.42613,572.66958 404.07737,557.09892 445.40651,523.1385 488.67598,519.93911 465.16476,460.93053 508.49406,470.58315 527.60892,624.2969 423.61687,685.32402 124.34518,496.93841 125.11598,278.70429 c 31.73253,30.81279 97.36558,195.61578 214.07407,290.83773 60.54751,-16.42756 100.19639,-51.5182 143.87764,-55.93499 -26.7536,-62.22974 14.53061,-54.02749 55.94648,97.63955 -92.93334,70.56369 -409.37281,-100.34931 -414.72645,-337.02589 32.97013,25.25232 94.84122,192.00983 212.35135,292.04847 58.40388,-17.18446 96.49502,-53.3241 140.33108,-58.8779 -29.13703,-65.68239 10.18434,-59.26715 71.55794,89.7836 -80.43737,78.72094 -412.45431,-71.60732 -425.20002,-326.93301 34.5515,19.10885 92.51561,187.49913 210.46345,292.60117 56.23775,-17.85674 92.91865,-54.96217 136.72818,-61.61251 -30.76924,-69.25603 6.77903,-64.93726 85.47161,81.09636 -66.73712,85.23577 -412.24335,-41.50098 -433.77334,-315.51836 36.49494,12.35265 90.4462,182.04693 208.44853,292.44569 54.06387,-18.46065 89.49776,-56.44227 133.17556,-64.17399 -31.76892,-72.86105 4.23515,-70.92102 97.44247,71.89178 -52.11586,89.8892 -408.52108,-10.44422 -440.3431,-303.00944 38.81384,4.94032 88.68697,175.61734 206.34166,291.52911 51.8946,-19.01272 86.25304,-57.77129 129.76198,-66.57673 -32.24965,-76.43148 2.46063,-77.124 107.28645,62.48247 -36.89806,92.51664 -401.12108,21.11012 -444.84577,-289.65051 41.50962,-3.20811 87.28826,168.17651 204.17556,289.79634 49.74,-19.5304 83.19501,-58.95586 126.55324,-68.81899 -32.31145,-79.92262 1.36927,-83.46988 114.88688,53.17585 C 543.66421,628.91668 175.16572,588.579 117.8421,260.2056 c 44.52054,-12.20208 86.29535,159.69223 201.97936,287.19002 47.60825,-20.03161 80.32646,-60.003 123.59356,-70.8869 -32.03862,-83.30721 0.88538,-89.89507 120.19407,44.27078 -6.10197,91.35561 -374.92035,83.75635 -447.60327,-261.39574 47.70683,-21.98908 85.74789,150.13433 199.77852,283.65096 45.5061,-20.53518 77.64366,-60.92194 120.9082,-72.75996 -31.50018,-86.5707 0.94334,-96.34428 123.22169,36.0547 8.73801,87.57113 -356.09714,113.82406 -445.93712,-247.00249 50.97511,-32.46263 85.67842,139.47528 197.59437,279.11878 43.43914,-21.06076 75.1377,-61.7251 118.50677,-74.41433 -30.75212,-89.70915 1.48525,-102.76862 124.04116,28.80039 22.72664,81.76953 -333.55685,142.35992 -442.35809,-232.75095 54.26503,-43.57083 86.11136,127.69028 195.4437,273.53253 41.41254,-21.62894 72.79602,-62.42864 116.3869,-75.82568 -29.83934,-92.7268 2.45895,-109.12292 122.77464,22.7617 35.53549,74.12244 -307.46026,168.84789 -436.99681,-218.85896 57.51563,-55.27423 87.06101,114.75793 193.33804,266.83161 39.43153,-22.26118 70.60378,-63.05345 114.53675,-76.97093 -28.79718,-95.63506 3.81638,-115.36609 119.5864,18.16646 46.87832,64.86315 -278.03505,192.7914 -430.01101,-205.51786 60.65847,-67.52811 88.53025,100.65986 191.28361,258.95643 37.50151,-22.98002 68.54479,-63.62552 112.9374,-77.82955 -27.65302,-98.45225 5.51226,-121.4603 115.21362,14.35503 55.98439,55.13585 -246.11349,214.58031 -422.11826,-192.03087 63.61541,-80.27693 90.50799,85.38023 189.2804,249.84937 35.62929,-23.80879 66.60287,-64.17631 111.56461,-78.38444 -26.42669,-101.20276 7.50387,-127.37143 111.13555,10.06202 61.43538,46.70214 -213.30544,235.21621 -414.76615,-177.09496 66.29837,-93.4537 92.96708,68.90486 187.32213,239.45605 33.82245,-24.77187 64.76254,-64.74313 110.38994,-78.62267 C 373.93168,328.999 408.81354,299.847 506.52887,438.22017 569.81976,478.26494 326.63461,692.65198 98.502656,277.53137 167.1121,170.55156 194.36465,328.74884 283.89838,505.25751 315.98895,479.36303 346.90865,439.88818 393.28036,426.72142 369.50801,320.08923 405.49552,288.19413 497.5177,426.84764 559.42593,462.45801 351.39542,698.79976 95.639804,284.02794 166.08177,163.26198 194.76721,316.32389 279.12064,498.64222 309.5657,471.43946 340.45584,432.53774 387.62797,420.52068 365.27819,311.13026 402.4902,276.79598 489.10464,415.10189 547.47417,448.66065 376.8367,702.62545 92.81802,291.59829 164.50043,156.88571 195.49641,303.7052 274.36812,491.67998 303.2674,462.95561 334.09819,424.67524 382.09913,414.29818 361.24332,302.05849 399.7599,265.6536 481.3053,403.02747 535.75055,435.76596 402.6614,703.94987 90.101519,300.26181 162.3144,151.55079 196.51486,290.86357 269.67028,484.35889 297.13895,453.87052 327.86222,416.22584 376.68761,408.03347 357.41203,292.79977 397.27143,254.75782 474.12948,390.6711 524.86617,422.58274 428.53631,702.63444 87.562609,310.03058 159.477,147.38622 197.78214,277.74871 265.05753,476.66833 c 26.17068,-32.52658 56.72321,-69.5593 106.33043,-74.96748 -17.5865,-118.42992 23.6093,-157.61174 96.19322,-23.61962 47.2736,30.75129 -13.4837,320.50761 -382.299667,-57.17298 70.670547,-176.38758 113.979237,-56.6108 175.279597,147.69075 25.02444,-34.87446 55.3325,-71.36047 105.63513,-73.32917 -15.75811,-121.89049 26.72048,-161.65242 95.46233,-29.96251 44.08086,29.19603 17.29865,326.47063 -378.312812,-32.41845 68.371512,-189.80839 117.574432,-82.4408 172.867582,127.25452 24.05004,-37.57397 54.03509,-73.62147 104.89692,-71.43884 -13.75119,-125.67996 29.90661,-165.40244 95.24376,-36.30534 41.19475,27.23989 46.35909,329.82838 -374.504508,-6.44311 64.918418,-202.76764 120.887558,-109.79744 170.197598,105.33937 23.26805,-40.67658 52.8544,-76.4344 104.08322,-69.33141 -11.51751,-129.864 33.16326,-168.87238 95.52411,-42.5572 38.65348,24.8954 73.30311,330.62209 -370.761912,20.67516 60.227392,-215.11971 123.799022,-138.65983 167.203572,81.9691 22.69808,-44.24852 51.82269,-79.89865 103.1636,-67.04889 -8.99931,-134.50747 36.49254,-172.07759 96.2816,-48.62291 36.49275,22.18481 97.74807,328.96165 -366.962246,48.84707 54.233836,-226.71357 126.182006,-168.95016 163.815456,57.18149 22.35723,-48.37667 50.98223,-84.11902 102.11054,-64.63999 -6.12923,-139.6713 39.90346,-175.03862 97.48606,-54.40362 34.74361,19.13702 119.33458,325.02678 -362.974713,77.97129 C 127.91245,153.94182 208.9129,190.8069 240.97702,422.36535 263.23579,369.19148 291.36349,333.1628 341.8772,360.20491 339.04642,214.79568 385.28894,182.42479 440.97574,300.40764 474.40709,316.19397 578.71428,619.4734 82.313254,408.34192 120.51202,161.34005 211.09757,175.14621 237.87862,411.92483 c 22.41159,-58.77709 50.10093,-95.25223 99.51287,-59.67236 0.98082,-151.76235 47.0399,-180.33011 101.07149,-64.7001 32.57446,12.17177 152.68345,311.39282 -353.884982,138.6114 28.155912,-255.37974 128.665152,-266.69812 150.556532,-25.0743 22.82304,-65.32983 50.20323,-102.35695 97.93409,-57.24424 5.396,-158.75405 50.81666,-182.71864 103.34854,-69.00643 32.18362,8.33548 163.95242,302.3823 -348.500534,169.86547 C 104.72903,182.33365 215.25206,143.96707 232.78006,389.86426 256.28597,316.92056 283.56147,279.28562 328.9352,334.91389 339.44179,168.53175 383.71163,149.93765 434.79982,262.3032 467.06121,266.626 606.20068,554.76518 92.430597,463.85166 96.676477,196.0282 217.00041,128.87266 230.85057,378.25576 255.33709,296.60223 282.77982,258.31981 325.02439,325.38589 341.4238,150.77377 383.98265,138.25402 433.57041,249.97805 466.37219,250.15871 608.54106,532.08196 98.214639,483.47936 88.781215,211.88341 218.34041,114.41537 229.38142,366.27239 255.18739,274.87594 283.11902,235.88176 321.37669,315.18592 344.52307,131.81778 384.78076,125.97597 432.68724,237.89093 466.47718,233.84817 607.39675,509.70502 105.35439,503.44668 81.271508,229.88726 219.10502,100.83123 228.40773,353.92396 255.91794,251.90015 284.68929,212.08704 318.04042,304.23766 348.83222,111.71038 386.19661,113.01002 432.10818,226.06473 467.31066,217.76523 602.91314,488.18157 113.9241,523.59931 74.394654,249.99706 219.11533,88.353745 227.96458,341.22163 257.59691,227.89154 287.5685,187.12167 315.07226,292.465 354.40776,90.551296 388.32609,99.273968 431.79165,214.51714 468.79938,201.97475 595.44249,468.03693 123.98413,543.77022 68.412148,272.13595 218.1891,77.210374 228.03361,328.08109 260.26123,203.10193 291.78391,161.23551 312.53757,279.79467 361.25091,68.496041 391.2653,84.703229 431.69755,203.26011 470.8637,186.5346 585.65679,449.67253 135.57886,563.78141 63.593817,296.19032 216.15077,67.621238 228.27484,314.13085 263.90097,177.80519 297.29451,134.73089 310.51028,266.15908 369.28622,45.754717 395.1037,69.256867 431.78804,192.30028 473.41963,171.49449 574.60711,433.12811 148.73463,583.44568 60.21112,322.00785 212.84165,59.798812 228.66594,299.36865 268.44686,152.29123 303.9751,107.94721 309.07207,251.5007 378.33921,22.58656 399.91414,52.924717 432.02844,181.63818 476.3804,156.89564 563.43753,417.88878 163.45746,602.56831 58.529922,349.39687 208.13015,53.949128 229.26839,283.82943 273.7616,126.86099 311.6047,81.244758 308.31086,235.77617 388.11607,-0.71103446 405.74021,35.732973 432.38794,171.26877 479.65886,142.76997 552.89634,403.17702 179.73159,620.94975 58.802836,378.1258 201.92181,50.272521 230.13916,267.56092 279.63411,101.82224 319.85881,54.991245 308.31802,218.96226 398.18677,-23.814631 412.57999,17.749381 432.84063,161.18085 483.16928,129.14005 543.28673,388.41501 197.51829,638.3886 61.261443,407.92531 194.16788,48.964544 231.32794,250.62614 285.77796,77.484227 328.30763,29.549841 309.18394,201.06173 407.97456,-46.387567 420.36716,-0.91470199 433.36583,151.35742 c 36.91579,-9.82588 58.64114,152.21142 134.6252,489.79556"
       id="path3092" />
  </g>
</svg>
