<?xml version="1.0" encoding="UTF-8" standalone="no"?>
<!-- Created with Inkscape (http://www.inkscape.org/) -->

<svg
   xmlns:dc="http://purl.org/dc/elements/1.1/"
   xmlns:cc="http://creativecommons.org/ns#"
   xmlns:rdf="http://www.w3.org/1999/02/22-rdf-syntax-ns#"
   xmlns:svg="http://www.w3.org/2000/svg"
   xmlns="http://www.w3.org/2000/svg"
   xmlns:sodipodi="http://sodipodi.sourceforge.net/DTD/sodipodi-0.dtd"
   xmlns:inkscape="http://www.inkscape.org/namespaces/inkscape"
   width="744.09448819"
   height="1052.3622047"
   id="svg3783"
   version="1.1"
   inkscape:version="0.48.2 r9819"
   sodipodi:docname="spiral014.svg">
  <sodipodi:namedview
     id="base"
     pagecolor="#ffffff"
     bordercolor="#666666"
     borderopacity="1.0"
     inkscape:pageopacity="0.0"
     inkscape:pageshadow="2"
     inkscape:zoom="0.49497475"
     inkscape:cx="-28.706925"
     inkscape:cy="773.09613"
     inkscape:document-units="px"
     inkscape:current-layer="layer1"
     showgrid="false"
     inkscape:window-width="1084"
     inkscape:window-height="748"
     inkscape:window-x="82"
     inkscape:window-y="-16"
     inkscape:window-maximized="0" />
  <defs
     id="defs3785" />
  <metadata
     id="metadata3788">
    <rdf:RDF>
      <cc:Work
         rdf:about="">
        <dc:format>image/svg+xml</dc:format>
        <dc:type
           rdf:resource="http://purl.org/dc/dcmitype/StillImage" />
        <dc:title></dc:title>
      </cc:Work>
    </rdf:RDF>
  </metadata>
  <g
     id="layer1"
     inkscape:groupmode="layer"
     inkscape:label="Layer 1">
    <rect
       y="12.284647"
       x="7.8454075"
       height="779.49591"
       width="516.12524"
       id="rect4319"
       style="fill:none;stroke:#000000;stroke-width:0.91610378;stroke-opacity:1" />
    <flowRoot
       style="fill:black;stroke:none;stroke-opacity:1;stroke-width:1px;stroke-linejoin:miter;stroke-linecap:butt;fill-opacity:1;font-family:Sans;font-style:normal;font-weight:normal;font-size:40px;line-height:125%;letter-spacing:0px;word-spacing:0px"
       id="flowRoot3475"
       xml:space="preserve"><flowRegion
         id="flowRegion3477"><rect
           y="840.23016"
           x="40.406101"
           height="76.771591"
           width="474.7717"
           id="rect3479" /></flowRegion><flowPara
         id="flowPara3481" /></flowRoot>    <path
       inkscape:connector-curvature="0"
       style="fill:none;stroke:#000000;stroke-width:1.76913238px;stroke-linecap:butt;stroke-linejoin:miter;stroke-opacity:1"
       d="m 366.18805,223.51595 c 1.03731,-0.25391 3.76886,0.96451 5.73269,2.43903 2.56943,1.99973 3.32648,3.76562 2.05292,3.95383 -1.56346,0.24354 -5.68856,-1.81014 -8.89533,-4.15115 -3.87732,-2.66453 -4.87231,-4.83234 -2.57117,-5.01736 2.71009,-0.20267 8.23852,2.23675 12.03173,5.30005 4.34475,3.72578 5.5786,7.00805 3.1226,7.18116 -2.72358,0.21782 -9.63598,-3.42652 -15.16723,-7.48032 -6.21901,-4.11493 -7.67819,-7.37542 -3.62014,-7.6081 4.47575,-0.21708 12.75892,3.34315 18.24624,7.96937 6.00083,5.48336 7.70341,10.41565 4.18834,10.6002 -3.72103,0.23738 -13.33451,-5.10081 -21.3336,-10.9189 -8.72059,-5.45895 -10.62765,-9.73702 -4.66417,-10.0969 6.32529,-0.30091 17.26616,4.26673 24.33809,10.43553 7.54406,7.25962 9.70281,13.97282 5.24759,14.22317 -4.56995,0.31604 -16.74859,-6.80451 -27.3483,-14.44493 -11.37675,-6.68405 -13.71288,-11.91939 -5.70968,-12.50923 8.22531,-0.46725 21.70157,4.99302 30.27213,12.69044 8.98515,9.04046 11.58309,17.66539 6.29759,18.05952 -5.28336,0.47031 -19.8527,-8.50758 -33.16617,-18.03586 -14.17763,-7.77874 -16.92529,-13.93108 -6.7664,-14.87196 10.13357,-0.72769 26.01069,5.51227 36.01713,14.72911 10.33611,10.81235 13.35433,21.47957 7.33599,22.11657 -5.87638,0.71607 -22.6307,-10.17972 -38.74377,-21.66905 -17.10627,-8.73349 -20.2536,-15.78616 -7.84785,-17.21256 12.00269,-1.09044 30.14414,5.81894 41.54702,16.54985 11.60905,12.562 15.0285,25.40088 8.36092,26.39909 -6.36634,1.06759 -25.075,-11.78967 -44.04051,-25.32196 -20.13722,-9.54172 -23.68272,-17.50503 -8.97204,-19.55877 13.78365,-1.55927 34.0593,5.91169 46.84211,18.1538 12.81612,14.27656 16.61919,29.41427 9.3716,30.90968 -6.77221,1.53725 -27.18627,-13.30607 -49.01969,-28.9726 -23.23657,-10.20042 -27.19311,-19.11486 -10.16284,-21.9378 15.43003,-2.13309 37.72273,5.79295 51.89105,19.54439 13.96928,15.94365 18.14164,33.50429 10.36861,35.64878 -7.11398,2.13529 -28.97296,-14.69753 -53.64934,-32.59947 -26.36337,-10.71089 -30.76075,-20.65059 -11.45119,-24.37537 16.90244,-2.80605 41.1123,5.46831 56.69283,20.72658 15.08007,17.55126 19.6126,37.65505 11.35408,40.61471 -7.41233,2.8697 -30.45046,-15.93303 -57.90308,-36.18149 -29.47337,-11.0796 -34.35702,-22.15551 -12.87632,-26.89462 18.17285,-3.56839 44.21895,4.94505 61.25842,21.70505 16.15956,19.08794 21.05011,41.8504 12.33196,45.80402 -7.68782,3.74633 -31.64055,-16.98241 -61.76058,-39.69787 -32.52378,-11.31801 -37.94906,-23.68134 -14.48619,-29.51418 19.22744,-4.40821 47.04757,4.23023 65.6116,22.4824 17.218,20.54251 22.47345,46.07392 13.30817,51.21148 -7.96072,4.76857 -32.57041,-17.81702 -65.20791,-43.12801 -35.47758,-11.44255 -41.50102,-25.28757 -16.33574,-32.24631 20.06653,-5.31373 49.61548,3.32851 69.7873,23.05682 18.26493,21.90426 23.90296,50.30893 14.29071,56.83 -8.25036,5.93805 -33.27189,-18.40977 -68.23749,-46.45066 -38.30486,-11.47481 -45.09222,-26.98238 -18.48299,-35.09534 20.70191,-6.27559 51.94828,2.24008 73.82763,23.41982 19.30903,23.16302 25.35991,54.53866 15.28982,62.65097 -8.57513,7.25419 -33.78061,-18.73577 -70.84812,-49.64407 -40.98174,-11.44141 -49.07305,-28.4922 -20.98333,-38.05689 21.15166,-7.28814 54.07434,0.95974 77.7762,23.55546 20.35777,24.30883 26.86598,58.74576 16.3178,68.66432 -8.95186,8.71456 -34.13514,-18.77305 -73.04478,-52.68574 -43.48709,-11.37421 -53.43103,-29.74502 -23.88297,-41.11878 21.43393,-8.34924 56.0181,-0.52253 81.67136,23.4407 21.4174,25.3321 28.44333,62.91263 17.3892,74.85828 -9.39576,10.31545 -34.37635,-18.50237 -74.83813,-55.55175 -45.80028,-11.31015 -58.11401,-30.72325 -27.21512,-44.26308 21.56257,-9.45913 57.79576,-2.21983 85.54176,23.04708 22.49304,26.22394 30.11425,67.0213 18.5207,81.21993 -9.92021,12.05141 -34.54641,-17.90794 -76.24452,-58.21753 -47.89899,-11.28986 -63.06075,-31.41485 -30.99796,-47.46837 21.54574,-10.61819 59.41378,-4.14581 89.40461,22.34335 23.58826,26.97559 31.90086,71.05311 19.73099,87.73471 -10.53657,13.91613 -34.68819,-16.97724 -77.28527,-60.65732 -49.75956,-11.35616 -68.20129,-31.81467 -35.23496,-50.71171 21.38546,-11.82568 60.86862,-6.31297 93.26541,21.2973 24.70518,27.57887 33.82476,74.98879 21.04059,94.38651 -11.25408,15.90234 -34.84461,-15.70128 -77.98632,-62.84454 -51.35742,-11.55128 -73.45788,-31.92531 -39.91661,-53.97026 21.0793,-13.0782 62.14863,-8.7307 97.11935,19.87752 25.84435,28.02618 35.90678,78.80829 22.47178,101.15797 -12.07979,18.00227 -35.05796,-14.07479 -78.37793,-64.75244 -52.66843,-11.91331 -78.74573,-31.75784 -45.02189,-57.22172 20.62192,-14.36958 63.23571,-11.40455 100.95276,18.0544 27.00469,28.31044 38.16676,82.49072 24.04837,108.03011 -13.01857,20.20757 -35.3692,-12.09568 -78.49387,-66.35398 -53.67055,-12.47252 -83.97461,-31.33277 -50.52019,-60.44497 20.00681,-15.69039 64.10699,-14.33558 104.74439,15.80086 28.18358,28.42532 40.6232,86.01434 25.79552,114.9824 -14.07305,22.50985 -35.81767,-9.76533 -78.37124,-67.62274 -54.34558,-13.24682 -89.05005,-30.68021 -56.37241,-63.61966 19.22717,-17.0283 64.73643,-17.52012 108.46679,13.09307 29.37657,28.36516 43.29264,89.35613 27.73916,121.99258 -15.24356,24.90078 -36.44028,-7.08822 -78.04958,-68.53318 -54.68174,-14.23895 -93.87538,-29.84064 -62.53216,-66.72643 18.27717,-18.36848 65.09568,-20.94968 112.08678,9.91053 30.57765,28.12535 46.18976,92.49238 29.90613,129.03684 -16.52843,27.37222 -37.27143,-4.07157 -77.57055,-69.06091 -54.67549,-15.43517 -98.35377,-28.86504 -68.94652,-69.74702 17.1524,-19.69368 65.1554,-24.61061 115.56605,6.23688 31.7794,27.70219 49.32688,95.39805 32.32358,136.08954 -17.92377,29.91658 -38.34219,-0.72526 -76.97724,-69.18348 -54.33328,-16.80643 -102.39033,-27.81473 -75.5569,-72.6638 15.85077,-20.98509 64.88595,-28.48457 118.86217,2.06009 32.97269,27.09331 52.71345,98.04735 35.0186,143.12304 -19.42376,32.52682 -39.68036,2.9389 -76.31371,-68.88018 -53.67171,-18.31263 -105.89471,-26.7615 -82.29942,-75.46049 14.37238,-22.22247 64.25809,-32.54798 121.9284,-2.62665 34.14706,26.29731 56.35599,100.41317 38.01798,150.10799 -21.0207,35.19643 -41.31,6.90711 -75.62441,-68.13286 -52.71578,-19.90819 -108.78391,-25.78694 -89.10582,-78.12206 12.72029,-23.38487 63.24387,-36.77259 124.71466,-7.82486 35.29094,25.31467 60.25764,102.46795 41.3477,157.01307 -22.70501,37.9199 -43.25111,11.16431 -74.95361,-66.92567 -51.49613,-21.54699 -110.98521,-24.98176 -95.90401,-80.63512 10.9003,-24.45132 61.81745,-41.12543 127.16806,-13.52983 36.39161,24.14715 64.41785,104.18331 45.03247,163.80487 -24.46555,40.69237 -45.51971,15.69446 -74.34513,-65.24543 -50.04559,-23.18616 -112.43932,-24.44438 -102.61868,-82.98849 8.92117,-25.40108 59.9556,-45.569 129.2334,-19.73022 37.43563,22.79832 68.83222,105.53053 49.09541,170.44812 -26.28963,43.51016 -48.12736,20.48089 -73.84173,-63.08167 -48.39699,-24.7877 -113.10444,-24.279 -109.1722,-85.17344 6.79465,-26.21464 57.63861,-50.06183 130.85415,-26.40757 38.40902,21.27351 73.49215,106.48086 53.55749,176.90562 -28.16314,46.37007 -51.0814,25.50692 -73.48478,-60.42668 -46.58155,-26.31884 -112.9608,-24.59255 -115.4854,-87.18442 4.53498,-26.87394 54.85104,-54.55872 131.97327,-33.53581 39.29744,19.57989 78.38469,107.00558 58.43718,183.13844 -30.07079,49.26987 -54.38481,30.75589 -73.31392,-57.27545 -44.62848,-27.75149 -112.01722,-25.48931 -121.47849,-89.01957 2.15883,-27.36324 51.58205,-59.0114 132.53411,-41.08082 40.08674,17.72654 83.4924,107.07674 63.74991,189.10582 -31.99603,52.20816 -58.0361,36.21214 -73.36649,-53.62553 -42.56544,-29.06187 -110.31977,-27.06087 -127.07232,-90.68105 -0.3152,-27.66946 47.82653,-63.36918 132.48197,-49.00039 40.76308,15.72451 88.79318,106.66768 69.50755,194.76559 -33.92148,55.18426 -62.02945,41.86051 -73.67756,-49.47721 -40.41868,-30.22957 -107.96234,-29.36546 -132.18925,-92.17558 -2.86709,-27.78259 43.58518,-67.57965 131.76495,-57.24374 41.31338,13.58649 94.26041,105.75298 75.71823,200.07418 -35.82875,58.19796 -66.35484,47.68741 -74.27928,-44.83294 -38.21386,-31.23763 -105.08896,-32.39285 -136.75484,-93.51476 -5.47614,-27.69618 38.86522,-71.58976 130.3357,-65.75215 41.72568,11.32705 99.86276,104.30981 82.38566,204.9873 -37.69889,61.24957 -70.99818,53.68071 -75.20081,-39.69786 -35.97643,-32.07193 -101.86453,-36.02778 -140.69888,-94.71516 -8.12167,-27.40724 33.68085,-75.34658 128.15259,-74.45872 41.98944,8.96223 105.56471,102.31775 89.50909,209.45982 -39.51212,64.33958 -75.94133,59.82983 -76.46798,-34.07892 -33.73202,-32.72152 -98.41335,-40.06611 -143.95724,-95.79857 -10.78363,-26.9165 28.05312,-78.79838 125.18161,-83.28925 42.09592,6.50943 111.32635,99.76007 97.08259,213.4466 -41.24837,67.4688 -81.16236,66.12633 -78.103,-27.98533 -31.50639,-33.17831 -94.78512,-44.2929 -146.47327,-96.79114 -13.44333,-26.22824 22.01074,-81.89638 121.39779,-92.16323 42.03844,3.98694 117.10415,96.62366 105.09521,216.90271 -42.88706,70.6377 -86.63579,72.56354 -80.12435,-21.42821 -29.32577,-33.43724 -90.98219,-48.54305 -148.19944,-97.72343 -16.08416,-25.34995 15.58936,-84.59506 116.78699,-100.99459 41.81246,1.41384 122.85094,92.90025 113.53035,219.78394 -44.40755,73.84682 -92.33272,79.13704 -82.54648,-14.42003 -27.21663,-33.49671 -86.99666,-52.70512 -149.09892,-98.62962 -18.69215,-24.2918 8.83199,-86.85421 111.34694,-109.69372 41.41631,-1.19047 128.51699,88.58651 122.36614,222.04776 -45.78887,77.09605 -98.22107,85.84422 -85.37972,-6.97517 -25.20536,-33.35792 -82.82755,-56.70235 -149.14701,-99.54562 -21.25617,-23.06653 1.78827,-88.64031 105.08919,-118.16932 40.85063,-3.80691 134.05022,83.68485 131.5749,223.6534 -47.01021,80.38457 -104.26592,92.68467 -88.63005,0.89082 -23.31836,-33.02567 -78.48399,-60.47789 -148.33255,-100.50826 -23.76805,-21.68861 -5.4856,-89.92776 98.03978,-126.33058 40.11887,-6.41684 139.39724,78.20355 141.12363,224.5628 -48.05084,83.71092 -110.42958,99.65982 -92.29915,9.16136 -21.58137,-32.5079 -73.9843,-63.98687 -146.6586,-101.55304 -26.22277,-20.17402 -12.92833,-90.70062 90.23992,-134.09018 39.22722,-9.00277 144.5042,72.15768 150.97387,224.74131 -48.89028,87.07238 -116.67191,106.7728 -96.3841,17.8186 C 349.60357,334.1774 300.26858,298.8012 225.47978,263.28116 196.86194,244.7413 205.00589,172.32729 307.22619,121.91429 345.41053,110.36548 456.54365,187.48274 468.30837,346.07252 418.79975,436.53766 345.35775,460.10057 367.43085,372.91644 348.77469,341.95272 302.80447,302.8535 226.61187,268.9047 195.65866,252.10019 198.55836,178.20961 299.24272,120.81576 336.24419,106.77477 453.02777,179.27996 470.64312,343.6032 420.75676,437.4871 341.42177,465.03477 364.87554,379.82134 347.36163,349.85236 305.03779,307.24636 228.14292,274.35104 194.912,259.36333 192.54538,184.4057 291.1214,120.15382 326.81301,103.68594 448.97888,171.03375 472.99763,340.76195 422.9927,438.08381 337.55944,469.75204 361.95965,386.68319 345.34674,357.83157 306.92953,311.97411 230.01667,279.58725 194.56175,266.47639 186.97916,190.8473 282.90273,119.93965 317.1724,101.11895 444.39139,162.79662 475.35639,337.545 425.50975,438.31535 333.8027,474.25593 358.68842,393.47778 342.71713,365.8437 308.43972,317.02542 232.16927,284.59246 194.53847,273.3951 181.86047,197.46415 274.62834,120.17925 307.38038,99.085459 439.26558,154.62207 477.70221,333.94959 428.30728,438.16871 330.18315,478.55126 355.06952,400.18163 339.4651,373.84044 309.52825,322.38357 234.53233,289.35871 194.76591,280.08582 177.17878,204.18549 266.34042,120.8731 297.49611,97.588366 433.60796,146.56376 480.01622,329.97431 431.38159,437.63011 326.73143,482.64408 351.11315,406.77207 335.58801,381.77279 310.1556,328.02651 237.03569,293.89073 195.16391,286.52535 172.91275,210.94187 258.08101,122.01598 287.57924,96.621612 427.43142,138.67439 482.27801,325.61916 434.72592,436.68528 323.47762,486.54107 346.83165,413.2278 331.0887,389.59139 310.28343,333.92687 239.61056,298.20486 195.65079,292.70011 169.03117,217.66634 249.89105,123.59701 277.68823,96.170088 420.75527,131.00498 484.46585,320.88572 438.33017,435.31965 320.4508,490.24949 342.23973,419.52867 325.97523,397.24736 309.87542,340.05198 242.19174,302.32665 196.14601,298.60484 165.49398,224.29615 241.8098,125.59967 267.87934,96.209871 413.60542,123.60389 486.55668,315.77711 442.18109,433.51832 317.67883,493.77699 337.3539,425.65621 320.26103,404.69278 308.89783,346.36432 244.71946,306.28841 196.57178,304.24057 162.25405,230.77307 233.87422,128.00189 258.2057,96.708543 406.01379,116.51574 488.52647,310.29861 446.26208,431.26649 315.18882,497.13097 332.1926,431.59361 313.96467,411.88141 307.32023,352.82158 247.14032,310.12606 196.85481,309.61247 159.25862,237.04427 226.11778,130.77659 248.71584,97.625918 398.01828,109.78055 490.35028,304.4574 450.55307,428.5497 313.00617,500.31876 326.7761,437.32581 c -19.66635,-18.5566 -21.66,-77.94867 -77.36886,-123.44937 -52.47991,0.85152 -92.95606,-70.81389 -30.83676,-179.98465 20.88279,-34.97706 171.09178,-30.45883 273.43221,164.371 C 455.03074,425.35402 311.15533,503.34694 321.12592,442.83991 299.72455,425.31503 302.26354,365.98049 251.47914,317.57486 196.72759,319.59431 153.77338,248.78584 211.25772,137.31145 230.45576,100.52157 380.99373,97.501349 493.45785,291.72636 459.6684,421.66653 309.6593,506.22135 315.26498,448.12493 291.84159,431.48115 298.74552,372.57791 253.32005,321.25318 196.20048,324.21717 151.16652,254.17712 204.20039,140.99574 221.75467,102.38804 372.06456,92.007092 494.68997,284.86206 464.43622,417.47554 308.53963,508.94667 309.21735,453.17203 283.49748,437.23363 294.55075,379.11283 254.8981,324.93868 195.29726,328.59882 148.5734,259.20347 197.41412,144.90199 213.37508,104.45177 362.92984,86.964247 495.67346,277.68626 469.30112,412.77128 307.81649,511.52626 303.00784,457.9747 274.73226,442.54291 289.67382,385.52672 256.1848,328.65326 193.97594,332.73726 145.93963,263.83544 190.90933,148.98518 205.33562,106.64765 353.64688,82.379086 496.38345,270.21789 474.22733,407.54578 307.50839,513.96191 296.66209,462.52847 265.58891,447.38403 284.11545,391.75976 257.154,332.41299 192.20088,336.62535 143.21489,268.04605 184.69128,153.19878 197.64898,108.90878 344.27412,78.249862 496.79589,262.47797 479.17638,401.79376 307.63216,516.2537 290.20607,466.83118 256.11285,451.73707 277.8829,397.7517 257.78149,336.22802 189.94293,340.2504 140.35401,271.80995 178.75997,157.49539 190.32212,111.16795 334.87013,74.566834 496.88815,254.49032 484.1075,395.51268 308.20322,518.39966 283.66615,470.88289 246.35147,455.58724 270.98991,403.44258 258.04471,340.10275 c -70.86536,3.49135 -120.72685,-65.0001 -84.93417,-178.27528 10.24688,-48.46938 152.38235,-90.514927 323.52865,84.4534 -7.66127,142.42257 -187.40432,274.11492 -219.57043,228.4048 -40.71549,-15.76056 -13.61187,-65.91211 -19.14654,-130.64969 -74.02841,2.59643 -123.84831,-66.13625 -90.18854,-177.88817 9.01938,-50.73408 148.46516,-97.685723 328.29637,71.72968 -2.28664,143.49306 -185.2912,284.35832 -225.58985,240.3663 -44.27251,-16.49714 -15.12967,-64.55585 -13.04621,-130.22252 -77.31758,1.31499 -126.79715,-67.84484 -94.77789,-177.611 7.88826,-53.1389 144.42589,-104.42657 332.42798,58.90019 3.31472,144.21191 -182.31953,294.60072 -231.23742,252.25295 -47.96241,-17.51022 -17.2229,-63.43163 -7.36535,-129.51629 -80.71735,-0.37528 -129.57244,-70.13992 -98.70018,-177.47717 6.8636,-55.69967 140.33232,-110.730547 335.92626,46.04163 9.11093,144.56007 -178.4678,304.79937 -236.4735,264.04102 -51.76197,-18.80119 -19.87861,-62.59778 -2.14683,-128.55517 -84.20718,-2.49606 -132.16696,-73.03172 -101.95765,-177.51357 5.95728,-58.43078 136.25125,-116.598011 338.79962,33.23012 15.06747,144.52154 -173.71999,314.90783 -241.26191,275.70721 -55.64821,-20.36806 -23.07777,-62.11004 2.56872,-127.36932 -87.7613,-5.06793 -134.5673,-76.5271 -104.55628,-177.74093 5.1836,-61.34492 132.24785,-122.035695 341.06177,20.54131 21.1473,144.0834 -168.06562,324.87577 -245.57039,287.2283 -59.59888,-22.20546 -26.79605,-62.02065 6.74338,-125.99441 -91.34908,-8.1098 -136.75405,-80.62957 -106.5053,-178.17382 4.55916,-64.45282 128.38431,-127.055979 342.7312,8.0492 27.3114,143.23685 -161.50032,334.65003 -249.371,298.58209 C 174.13628,468.33873 206.72529,430.26589 248.07154,368.1725 153.1362,356.53412 109.36935,282.83304 140.25476,189.35126 144.35808,121.58838 264.97431,57.675383 484.0852,185.17745 517.60442,327.15481 330.05884,529.35221 231.4451,494.92447 163.83429,468.26983 195.77716,431.70013 244.77923,372.08009 146.2987,356.41261 104.39773,281.42652 136.27397,192.39339 140.11231,121.11191 257.5823,56.477261 480.65981,176.33568 520.38913,316.64019 335.00716,529.72777 225.30076,497.03848 153.66628,467.79811 184.55004,432.44019 240.992,375.87535 139.05064,355.66789 99.235021,279.31039 132.40479,195.10646 136.19404,120.09432 250.60574,55.306395 476.83141,167.57129 522.73141,305.79426 340.43631,529.81411 219.31734,499.00184 143.66953,466.9569 173.10545,432.47055 236.70777,379.52257 131.43675,354.25795 93.918173,276.45965 128.627,197.46034 132.61083,118.50469 244.0701,54.107857 472.61138,158.91857 524.60133,294.66052 346.33432,529.58557 213.51544,500.8316 133.87844,465.78272 161.50595,431.78282 231.92787,382.98419 123.50789,352.14376 88.490953,272.85172 124.92258,199.42689 129.37492,116.31746 237.99826,52.82823 468.0151,150.41043 525.97398,283.28604 352.68584,529.01527 207.91427,502.54523 124.32427,464.31469 149.81446,430.37575 226.65738,386.22145 115.32068,349.29012 83.003655,268.46756 121.27622,200.97971 126.50358,113.51244 232.41122,51.416503 463.0617,142.07771 526.83006,271.72046 359.47212,528.07531 202.53229,504.16077 115.03497,462.59426 138.09327,428.25533 220.90512,389.19478 106.93696,345.66673 77.51222,263.29216 117.67579,202.09438 124.01904,110.07509 227.32867,49.824834 457.77407,133.94917 527.1564,260.01595 366.67044,526.73737 197.38713,505.69637 106.03526,460.66466 126.40338,425.43454 214.68405,391.86436 98.423011,341.24894 72.077663,257.31544 114.11266,202.74793 121.94862,105.9969 222.76957,48.009367 452.17855,126.0508 526.94636,248.22595 374.25464,524.97298 192.49532,507.1702 97.346784,458.57045 114.80361,421.93319 208.01094,394.19064 89.848871,336.01859 66.765202,250.5332 110.58216,202.9191 120.32418,101.27554 218.75304,45.930706 446.30472,118.40558 526.20022,236.40505 382.19453,522.75415 187.87262,508.60031 88.987959,456.35707 103.34976,417.77753 200.90671,396.13485 81.287331,329.96465 61.643247,242.94726 107.08356,202.58821 119.18182,95.915317 215.29831,43.55474 440.18509,111.03317 524.9252,224.6073 390.45619,520.0538 183.53401,510.00433 80.974509,454.07048 92.094391,413.00001 193.39614,397.65953 109.64028,355.0233 82.679154,295.35312 101.83936,253.53274"
       id="path3201" />
  </g>
</svg>
