<?xml version="1.0" encoding="UTF-8" standalone="no"?>
<!-- Created with Inkscape (http://www.inkscape.org/) -->

<svg
   xmlns:dc="http://purl.org/dc/elements/1.1/"
   xmlns:cc="http://creativecommons.org/ns#"
   xmlns:rdf="http://www.w3.org/1999/02/22-rdf-syntax-ns#"
   xmlns:svg="http://www.w3.org/2000/svg"
   xmlns="http://www.w3.org/2000/svg"
   xmlns:sodipodi="http://sodipodi.sourceforge.net/DTD/sodipodi-0.dtd"
   xmlns:inkscape="http://www.inkscape.org/namespaces/inkscape"
   width="744.09448819"
   height="1052.3622047"
   id="svg2"
   version="1.1"
   inkscape:version="0.48.2 r9819"
   sodipodi:docname="spiral033(featherpen).svg">
  <sodipodi:namedview
     id="base"
     pagecolor="#ffffff"
     bordercolor="#666666"
     borderopacity="1.0"
     inkscape:pageopacity="0.0"
     inkscape:pageshadow="2"
     inkscape:zoom="0.35"
     inkscape:cx="315.09857"
     inkscape:cy="656.221"
     inkscape:document-units="px"
     inkscape:current-layer="layer1"
     showgrid="false"
     inkscape:window-width="694"
     inkscape:window-height="711"
     inkscape:window-x="676"
     inkscape:window-y="34"
     inkscape:window-maximized="0" />
  <defs
     id="defs4" />
  <metadata
     id="metadata7">
    <rdf:RDF>
      <cc:Work
         rdf:about="">
        <dc:format>image/svg+xml</dc:format>
        <dc:type
           rdf:resource="http://purl.org/dc/dcmitype/StillImage" />
        <dc:title></dc:title>
      </cc:Work>
    </rdf:RDF>
  </metadata>
  <g
     inkscape:label="Layer 1"
     inkscape:groupmode="layer"
     id="layer1">
    <path
       style="fill:none;stroke:#000000;stroke-width:0.63698018px;stroke-linecap:butt;stroke-linejoin:miter;stroke-opacity:1"
       d="m 449.2112,742.67096 c -1.56711,-3.25882 -2.94408,-4.14254 -3.39975,-3.03044 -1.18288,1.33566 -0.6942,5.85658 0.87507,9.43428 1.91667,4.63784 6.1584,7.03216 8.32914,5.27512 0.14186,-3.88195 -4.64729,-13.52535 -7.97287,-19.75045 -4.0644,-8.03611 -6.05666,-8.8411 -6.22279,-3.90391 -2.33389,3.80267 -2.41611,12.70559 0.67256,20.28618 2.72414,7.74935 11.21523,12.86009 18.32852,10.58471 -3.02376,-8.8527 -12.24082,-26.58279 -16.86376,-36.95119 -5.5889,-12.87387 -7.40709,-12.8261 -6.98184,-3.3763 -3.77786,5.74567 -5.14237,18.13518 -0.98832,29.56386 2.94653,10.3604 14.79589,18.51599 26.2653,16.10603 -5.94588,-13.71266 -17.77274,-39.25238 -23.02156,-53.62958 -6.57518,-17.91156 -7.95623,-16.45743 -6.93214,-1.98298 -5.40003,7.2415 -8.43288,22.26993 -3.48045,37.50946 2.92263,12.6251 17.73947,24.3316 31.2414,21.547 -6.49865,-17.66651 -20.07745,-51.0858 -25.66578,-69.52205 -7.21962,-23.21749 -8.10785,-19.87805 -6.59086,0.0619 -7.1469,8.30325 -12.06767,25.18994 -6.51214,44.25196 2.75559,14.61903 20.39092,30.4443 36.00883,27.94333 -6.90292,-21.56786 -21.8665,-63.08973 -27.6287,-85.70086 -7.59591,-28.80771 -8.02521,-23.13206 -6.17454,2.66682 -8.98399,8.93624 -15.90587,26.96596 -9.90824,49.88506 2.49085,16.39587 22.81895,36.87608 40.75679,35.32496 -7.27792,-25.45468 -23.36147,-75.30683 -29.17223,-102.23868 -7.73492,-34.68047 -7.78667,-26.22956 -5.78995,5.78097 -10.88751,9.14642 -19.85029,27.6743 -13.54005,54.49573 2.16319,18.00307 25.01937,43.61257 45.41782,43.61241 -7.59151,-29.30696 -24.54978,-87.68966 -30.30014,-119.10686 -7.64932,-40.82895 -7.43588,-29.16951 -5.49789,9.36834 -12.84389,8.94187 -23.84092,27.40023 -17.30662,58.17226 1.80904,19.48498 26.97911,50.62619 49.91653,52.71142 -7.82044,-33.10997 -25.41366,-100.18821 -31.00125,-136.2691 -7.33867,-47.24951 -6.99914,-31.94784 -5.33771,13.39833 -14.8483,8.33224 -27.8573,26.23605 -21.13313,61.00734 1.46709,20.88289 28.69924,57.88299 54.19835,62.52189 -7.95224,-36.85416 -25.94548,-112.75626 -31.26955,-153.69108 -6.78876,-53.94616 -6.49111,-34.56155 -5.33785,17.8429 -16.90409,7.32744 -31.91839,24.27559 -24.97443,63.09879 1.17719,22.23428 30.2068,65.34487 58.2383,72.94012 -7.98077,-40.53396 -26.14659,-125.35161 -31.10241,-171.34228 -5.96831,-60.93334 -5.91769,-37.01062 -5.52186,22.67555 -19.0216,5.93504 -36.07731,21.60232 -28.82035,64.54727 0.97787,23.57494 31.55878,72.97241 62.0468,83.86264 -7.90429,-44.14721 -26.0249,-137.93686 -30.49921,-189.19773 -4.82535,-68.23797 -5.27651,-39.298 -5.91164,27.87155 -21.21355,4.15598 -40.40477,18.27296 -32.69576,65.45337 0.90115,24.93983 32.84382,80.72856 65.67069,95.18937 -7.72518,-47.69383 -25.59356,-150.47922 -29.45751,-207.23846 -3.28519,-75.8969 -4.5588,-41.42941 -6.53047,33.40794 -23.4909,1.97929 -44.96637,14.29515 -36.65762,65.911 0.96896,26.36749 34.17404,88.58445 69.18771,106.83129 -7.4479,-51.17604 -24.86784,-162.95072 -27.97012,-225.4524 -1.25069,-83.95124 -3.75037,-43.41177 -7.40477,39.26353 -25.85515,-0.62423 -49.78801,9.60531 -40.78488,65.99669 1.18789,27.90422 35.67342,96.53043 72.69639,118.72197 -7.07952,-54.59805 -23.86397,-175.32914 -26.02338,-243.83486 1.39228,-92.4338 -2.83345,-45.25093 -8.56471,45.41876 -28.28979,-3.7085 -54.81971,4.04875 -45.16209,65.75748 1.54574,29.60886 37.45886,104.58871 76.29755,130.82927 -6.62875,-57.9653 -22.59787,-187.5975 -23.59451,-262.38684 4.75995,-101.34796 -1.79034,-46.94844 -10.04582,51.85355 -30.7491,-7.35802 -59.89625,-2.62881 -49.85769,65.19948 2.00738,31.55445 39.61694,112.82493 80.07198,143.16842 -6.10516,-61.28416 -21.08332,-199.7438 -20.65186,-281.11336 8.94253,-110.63604 -0.60656,-48.49813 -11.88681,58.5459 -33.14688,-11.69318 -64.70278,-10.78082 -54.90283,64.27621 2.5149,33.83041 42.18015,121.35956 84.05719,155.81297 -5.51944,-64.56248 -19.3318,-211.76135 -17.15514,-300.01996 13.95281,-120.13243 0.72356,-49.88169 -14.12841,65.46762 -35.343,-16.87215 -68.74337,-20.84329 -60.27034,62.8858 2.98577,36.54138 45.10651,130.37097 88.22552,168.89828 -4.88269,-67.80839 -17.35178,-223.64803 -13.05825,-319.10783 19.64402,-129.50167 2.19053,-51.06454 -16.8093,72.57962 -37.13036,-23.08917 -71.31769,-33.30405 -65.86006,60.87352 3.31144,39.8056 48.26429,140.0928 92.46789,182.6187 -4.2054,-71.03075 -15.14766,-235.40511 -8.31373,-338.36655 25.58861,-138.16298 3.76206,-51.992 -19.95994,79.82565 -38.22353,-30.56787 -71.51423,-48.65339 -71.48926,58.04099 3.35275,43.75443 51.4238,150.80373 96.58345,197.21818 -3.49803,-74.23873 -12.72111,-247.03747 -2.88107,-357.76637 30.9196,-145.21277 5.37442,-52.58591 -23.59409,87.12423 -38.25138,-39.54447 -68.23859,-67.30158 -76.88799,54.16052 2.9317,48.52981 54.25403,162.81251 100.27365,212.97526 -2.77028,-77.4422 -10.07009,-258.55164 3.2626,-377.24728 34.15881,-149.3718 6.92442,-52.74397 -27.6966,94.35943 -36.76127,-50.23797 -60.32142,-89.43886 -81.69872,48.99107 1.82301,54.28238 56.32414,176.4401 103.14145,230.18608 -2.03052,-80.65088 -7.19021,-269.95546 10.10684,-396.70746 33.09452,-149.00149 8.26269,-52.34123 -32.20796,101.37084 -33.24614,-62.79936 -46.79108,-114.78383 -85.47954,42.29422 -0.25373,61.16662 57.10974,192.00228 104.69389,249.14682 -1.28572,-83.87476 -4.07477,-281.25707 17.58936,-415.99148 24.81279,-142.24369 9.19154,-51.23656 -37.00557,107.94399 -27.21595,-77.22668 -27.47894,-142.12919 -87.71237,33.853 -3.63684,69.33063 56.00336,209.78756 104.35144,270.1327 -0.54203,-87.12435 -0.71647,-292.46328 25.57297,-434.87868 5.99665,-127.32863 9.46967,-49.28397 -41.88264,113.80134 -18.34735,-93.23099 -4.20519,-168.58959 -87.82051,23.49426 -8.71525,78.89813 52.33505,230.03273 101.46542,293.37231 0.19681,-90.40982 2.89274,-303.57877 33.82345,-453.07403 -26.45348,-103.05784 8.82712,-46.3498 -46.52725,118.59862 -6.75826,-110.03939 17.55769,-188.82913 -85.20135,11.11811 -15.90426,89.93994 45.40948,252.88864 95.3544,319.01406 0.92855,-93.74169 6.75945,-314.60509 41.9878,-470.20599 -74.55049,-69.43377 6.99157,-42.33437 -50.50604,121.92742 6.55982,-126.14486 28.65335,-195.93478 -79.2868,-3.25379 -25.59235,102.42354 34.57035,278.3675 85.36863,347.07194 1.65228,-97.13053 10.88759,-325.53947 49.58165,-485.83224 -138.26728,-28.39579 3.72525,-37.19477 -53.25825,123.32913 19.22277,-139.10241 21.15596,-185.53979 -69.65278,-19.39817 -38.03669,116.12887 19.31712,306.25573 71.00629,377.33789 2.36893,-100.58674 15.27727,-336.37364 55.99123,-499.4572 -214.55009,15.40076 -1.1334,-30.96507 -54.10806,122.32237 27.19609,-145.63357 -6.60224,-158.54004 -56.22324,-36.74649 -53.1614,130.49776 -0.4818,335.96158 52.12824,409.22783 3.08114,-104.1209 19.92294,-347.09273 60.49554,-510.5627 -295.59265,54.00824 -7.63227,-23.76725 -52.30211,118.44622 25.41078,-142.35229 -51.79988,-118.6767 -39.6556,-54.12409 -70.17036,144.36394 -24.18898,366.24311 29.35884,441.50884 3.79286,-107.74337 24.81163,-357.67467 62.31259,-518.65108 -362.45822,76.78186 -15.68387,-15.80943 -47.07694,111.31812 9.38685,-126.95128 -110.59495,-70.00191 -22.01837,-69.32633 -86.86395,155.51971 -49.70161,394.77034 4.78475,471.86006 4.50903,-111.4647 29.92079,-368.08877 60.66728,-523.29553 -359.788286,76.70983 -25.06761,-7.37059 -37.7548,100.70197 -23.21613,-99.01161 -179.36501,-16.4396 -7.54386,-78.78717 -98.87522,160.37286 -72.67183,417.77702 -17.26508,496.52354 5.23625,-115.29499 35.21704,-378.29525 54.87384,-524.19149 -169.19036,79.29806 -35.4581,1.22455 -23.85935,86.57757 -72.23727,-59.96318 -254.82078,37.92681 -1.91427,-78.53838 -100.37091,154.89836 -87.1886,431.00269 -30.89922,511.24524 5.982,-119.24411 40.65381,-388.24377 44.41675,-521.20087 223.49437,161.62879 -46.47194,9.63269 -5.23495,69.2013 -135.5792,-12.6846 -333.912477,88.64181 -8.60651,-67.11121 -87.69473,137.53774 -89.39611,432.57822 -32.28041,514.16106 6.75431,-123.32175 46.16893,-397.87369 29.01648,-514.38368 665.68701,368.39691 -57.71947,17.51305 17.85121,49.14665 C 210.20851,271.67821 6.5936447,363.86442 393.51303,186.33051 331.84354,296.6389 313.75324,610.4441 371.62091,693.21388 c 7.56236,-127.53724 51.6841,-407.11338 8.66982,-504.01144 1018.23917,663.54078 -68.84504,24.53585 44.64635,27.31403 -291.03467,88.90002 -488.922758,159.86558 -52.53156,-20.54021 -25.42233,76.55175 -60.8438,408.41539 -2.31376,492.21941 8.41583,-131.89948 57.10193,-415.87993 -16.34409,-490.56314 1216.59703,954.86077 -79.54105,30.37599 73.90697,4.90251 -374.004638,131.34114 -546.19515,171.65713 -83.03413,8.13934 17.8062,39.26752 -35.06483,387.7912 24.02498,472.47508 C 377.97042,546.7324 430.9511,259.0698 323.16101,208.4447 1606.8985,1370.519 233.63902,243.13814 427.12311,191.78494 -24.006269,350.48877 -96.974616,360.92822 311.95736,228.78674 c 65.1139,0.94931 -4.21514,363.88513 55.32182,449.29129 C 377.5796,536.98045 434.43684,246.46963 289.29078,220.82281 1573.7797,1491.4112 190.85077,257.93001 422.13031,185.00126 -78.595202,349.55205 83.493839,363.93804 275.74539,249.0868 389.62093,212.82116 306.12609,587.01777 365.9901,672.9833 377.34353,527.0345 437.49037,234.63014 253.07758,233.84077 1518.3716,1542.3337 147.37611,271.01567 411.50968,182.80157 -27.081181,336.51368 341.54704,408.18065 237.0171,270.56209 352.7606,206.77516 389.00734,213.74292 285.2494,400.02046"
       id="path4129"
       inkscape:connector-curvature="0" />
  </g>
</svg>
