<?xml version="1.0" encoding="UTF-8" standalone="no"?>
<!-- Created with Inkscape (http://www.inkscape.org/) -->

<svg
   xmlns:dc="http://purl.org/dc/elements/1.1/"
   xmlns:cc="http://creativecommons.org/ns#"
   xmlns:rdf="http://www.w3.org/1999/02/22-rdf-syntax-ns#"
   xmlns:svg="http://www.w3.org/2000/svg"
   xmlns="http://www.w3.org/2000/svg"
   xmlns:sodipodi="http://sodipodi.sourceforge.net/DTD/sodipodi-0.dtd"
   xmlns:inkscape="http://www.inkscape.org/namespaces/inkscape"
   width="744.09448819"
   height="1052.3622047"
   id="svg3783"
   version="1.1"
   inkscape:version="0.48.2 r9819"
   sodipodi:docname="letter sized frame blank.svg">
  <sodipodi:namedview
     id="base"
     pagecolor="#ffffff"
     bordercolor="#666666"
     borderopacity="1.0"
     inkscape:pageopacity="0.0"
     inkscape:pageshadow="2"
     inkscape:zoom="0.24748737"
     inkscape:cx="-419.88953"
     inkscape:cy="1087.5204"
     inkscape:document-units="px"
     inkscape:current-layer="layer1"
     showgrid="false"
     inkscape:window-width="1084"
     inkscape:window-height="748"
     inkscape:window-x="64"
     inkscape:window-y="23"
     inkscape:window-maximized="0" />
  <defs
     id="defs3785" />
  <metadata
     id="metadata3788">
    <rdf:RDF>
      <cc:Work
         rdf:about="">
        <dc:format>image/svg+xml</dc:format>
        <dc:type
           rdf:resource="http://purl.org/dc/dcmitype/StillImage" />
        <dc:title></dc:title>
      </cc:Work>
    </rdf:RDF>
  </metadata>
  <g
     id="layer1"
     inkscape:groupmode="layer"
     inkscape:label="Layer 1">
    <rect
       y="12.284647"
       x="7.8454075"
       height="779.49591"
       width="516.12524"
       id="rect4319"
       style="fill:none;stroke:#000000;stroke-width:0.91610378;stroke-opacity:1" />
    <flowRoot
       style="fill:black;stroke:none;stroke-opacity:1;stroke-width:1px;stroke-linejoin:miter;stroke-linecap:butt;fill-opacity:1;font-family:Sans;font-style:normal;font-weight:normal;font-size:40px;line-height:125%;letter-spacing:0px;word-spacing:0px"
       id="flowRoot3475"
       xml:space="preserve"><flowRegion
         id="flowRegion3477"><rect
           y="840.23016"
           x="40.406101"
           height="76.771591"
           width="474.7717"
           id="rect3479" /></flowRegion><flowPara
         id="flowPara3481" /></flowRoot>    <path
       sodipodi:nodetypes="csssssssssssssssssssscssssssssssssssssssssssssssssssssssssssssssssssssssssssssssssssssssssssssssssssc"
       inkscape:connector-curvature="0"
       id="path12693"
       d="m 195.85932,317.9002 c 1.21024,-0.35014 2.42729,0.66492 3.25487,1.08838 2.1812,1.11091 8.2926,1.26377 2.5373,0.79564 -10.10478,-1.40236 -14.10183,-3.80497 -14.38089,-5.14769 -0.85751,-2.09368 -14.76073,-4.72938 -2.32454,-0.98853 16.75228,3.07489 26.55576,6.35506 25.24693,8.49713 -3.14201,2.48429 22.18024,0.15959 1.92754,0.47018 -24.88081,-3.5388 -38.09906,-10.56368 -36.32457,-13.34378 -0.006,-4.13859 -26.17242,-12.73882 -1.77432,-0.94495 30.12148,6.95395 51.26707,11.8187 46.69204,16.12566 -10.2131,4.25205 34.92935,-3.87506 1.33797,0.25077 -39.70377,-5.18716 -61.27755,-18.05906 -57.52042,-22.05035 -0.27576,-6.9079 -34.31168,-24.22003 -1.19975,-0.79808 42.65216,11.82797 75.42881,17.09862 67.15173,24.23999 -19.99247,6.38409 45.7535,-10.04903 0.79287,0.1157 -54.40757,-6.60248 -83.09992,-26.40508 -77.51327,-31.49508 -0.92648,-10.68304 -38.03992,-38.61607 -0.64429,-0.53564 54.1156,17.78147 98.52982,22.32225 86.20473,33.09458 -32.75881,8.66631 54.21088,-17.3189 0.31812,0.0395 -68.81389,-8.02093 -103.17643,-35.72748 -95.86337,-41.88303 -1.25277,-15.67926 -36.43495,-55.12385 -0.14409,-0.15094 64.28073,24.85264 120.10656,27.61568 103.45323,42.91926 -48.64686,10.60706 60.32369,-24.53288 -0.0632,-0.006 -82.75966,-9.682 -121.17103,-46.13626 -112.15614,-53.38387 -0.50659,-21.98961 -28.86004,-72.73674 0.26265,0.35663 72.92098,33.03861 139.72896,33.08976 118.52759,53.90465 -67.61839,11.4409 64.52681,-30.60874 -0.32926,-0.0498 -96.09148,-11.81643 -136.79043,-57.71111 -126.00805,-66.11917 2.08273,-29.55067 -14.99741,-90.29418 0.53706,0.97933 79.81863,42.29633 156.99325,38.84111 131.08728,66.18919 -89.38656,10.17926 67.444,-34.70417 -0.47751,-0.11246 -108.66341,-14.64655 -149.77664,-70.5081 -137.06174,-80.16524 7.27276,-38.11128 5.15018,-106.53183 0.643,1.70444 84.76786,52.54892 171.5389,44.95343 140.81154,79.85726 -113.33024,5.69103 69.57381,-36.28115 -0.49281,-0.21369 -120.33041,-18.36704 -159.90604,-84.53978 -144.9926,-95.53476 15.7518,-47.21579 31.25991,-120.12338 0.54917,2.51187 87.57999,63.68191 183.05157,51.48889 147.40287,94.91923 -138.41466,-3.17589 71.04118,-35.0799 -0.36539,-0.36389 C 134.02104,309.5344 97.979894,232.89927 115.45744,220.49857 c 28.08044,-56.1911 62.70351,-129.730249 0.22839,3.3762 88.08765,75.54637 191.27015,58.48743 150.581,111.30977 -163.15583,-17.45812 71.52219,-31.07446 -0.0842,-0.56443 C 125.85148,305.5427 95.352394,218.49499 115.85301,204.66217 c 44.62723,-64.14507 98.55332,-134.055878 -0.34092,4.26672 86.14817,87.96135 195.99406,65.96732 150.08179,128.88456 -185.640215,-37.93578 70.31255,-24.47266 0.36354,-0.80736 C 117.63385,300.7514 94.661594,203.54656 118.72929,188.31832 c 65.4999,-69.98403 137.58111,-131.919494 -1.17411,5.14702 81.64784,100.71565 197.09006,73.92436 145.66086,147.41872 -203.609487,-64.99314 66.4767,-15.75141 0.99412,-1.0758 C 109.48536,295.12263 95.966684,188.22342 124.21762,171.7192 c 90.47485,-72.453652 178.24474,-122.334785 -2.27933,5.97643 74.50642,113.56851 194.5051,82.32989 137.10226,166.60619 -214.609211,-98.49854 59.04158,-5.69686 1.8161,-1.34079 C 101.52783,288.62416 99.303114,172.69848 132.40989,155.14204 c 118.92424,-70.210681 218.68444,-104.589395 -3.65698,6.71022 64.67773,126.25562 188.28888,91.13537 124.22452,186.06782 -216.186227,-137.7293 47.21147,4.58282 2.84053,-1.567 C 93.891116,281.23491 104.68275,157.15088 143.3554,138.88929 c 149.74304,-61.934226 256.73798,-78.318421 -5.29959,7.3004 52.15557,138.48885 178.62045,100.24582 106.89873,205.35143 -206.114284,-181.31708 30.57462,13.69075 4.06921,-1.71059 C 86.709978,272.94388 112.0957,141.7627 157.05861,123.28441 c 181.29283,-46.466293 289.99827,-43.563851 -7.19056,7.69571 36.97448,149.96117 165.80009,109.47943 85.06259,223.94066 -182.620169,-227.2465 9.2857,20.02884 5.49403,-1.72121 -160.301656,-89.44706 -118.9141,-226.48149 -66.94805,-244.53168 211.38049,-22.968665 315.90688,-0.82086 -9.30434,7.84448 19.2141,160.34955 150.18466,118.54951 58.73688,241.26291 C 78.327513,84.889397 207.10593,379.7103 230.00257,356.23088 74.270208,253.67333 132.87642,112.19981 192.51581,95.391733 429.82141,104.31067 524.39967,144.3204 180.91093,103.08639 179.91186,272.4069 313.04315,230.19068 208.95247,359.78812 117.27578,44.718721 165.86403,377.64834 217.78261,358.6643 69.290731,242.73302 146.12231,98.390224 214.02814,83.814156 470.01831,132.75273 549.51173,188.01484 199.98285,91.010548 176.49454,267.54644 311.9793,225.78118 193.1937,360.62197 168.70732,10.36115 122.94378,367.18509 203.8419,360.21753 65.321241,230.97122 161.15941,85.467072 237.80729,74.290937 502.00526,170.39801 562.38028,237.30675 221.24129,80.594875 173.21565,262.25442 311.37218,221.77214 175.84625,359.92986 231.24831,-14.911335 81.464526,347.2323 188.31973,360.59382 62.49363,218.44144 177.88138,73.602562 263.58486,67.166604 522.41159,215.82524 561.10373,290.10239 244.48966,72.145431 170.16329,256.5104 311.38237,218.11746 157.21044,357.36905 302.48085,-28.143234 44.994628,317.37133 171.42442,359.49233 60.933035,205.21077 196.16534,62.960761 291.02559,62.764798 528.27653,266.81762 544.40281,343.899 269.47933,65.956258 167.43034,250.30077 312.1245,214.79502 137.67558,352.61635 378.87575,-27.087317 17.261086,277.98771 153.43648,356.61936 60.755632,191.36046 215.87151,53.696022 319.72507,61.377659 517.40092,320.4407 511.78914,395.88622 295.9049,62.302247 165.11468,243.62014 313.673,211.81102 117.71813,345.38385 455.92902,-10.494521 1.811077,230.34982 134.7098,351.70036 62.067046,176.98498 236.84397,45.950475 349.20908,63.255145 488.66869,373.20391 463.69931,443.08513 323.40499,61.429795 163.31707,236.47245 316.06639,209.19985 97.893344,335.43411 528.54128,21.73648 1.661692,176.63052 115.66955,344.49228 64.960379,162.19153 258.9115,39.851845 378.93487,68.594735 482.50391,382.59958 482.12167,390.01295 496.72976,202.37253"
       style="fill:none;stroke:#000000;stroke-width:1.48797345;stroke-linecap:butt;stroke-linejoin:miter;stroke-miterlimit:4;stroke-opacity:1;stroke-dasharray:none;display:inline" />
    <path
       style="fill:none;stroke:#000000;stroke-width:1.44810939;stroke-linecap:butt;stroke-linejoin:miter;stroke-miterlimit:4;stroke-opacity:1;stroke-dasharray:none;display:inline"
       d="m 353.70573,376.60563 c -0.7844,0.75247 -2.28818,0.19775 -3.17133,0.0768 -2.32527,-0.31234 -7.29108,1.65417 -2.44484,0.11254 8.81141,-2.13405 13.26266,-1.19663 14.18701,-10e-4 1.77763,1.7202 14.26355,-0.4751 2.374,0.15576 -14.99754,2.79756 -24.5509,3.04579 -24.62637,0.54102 1.20824,-3.46769 -17.81992,7.58817 -1.78754,0.21934 21.7429,-5.19335 35.97794,-2.94514 36.00792,0.33673 2.15443,3.98902 27.51996,3.50494 1.90973,0.30873 -27.70308,3.61886 -47.15412,6.30489 -45.75164,0.59109 5.92909,-7.62258 -25.90936,15.99173 -1.2014,0.22776 34.45726,-8.75453 58.41489,-3.67203 57.48375,1.45076 3.79018,6.58928 39.87295,12.10978 1.37234,0.36759 -40.24483,3.15015 -69.20986,9.52913 -66.32853,-0.1936 12.61987,-13.0843 -31.35307,25.79361 -0.69478,0.16804 46.95425,-12.50685 80.19538,-3.07087 78.35978,3.72889 6.2239,10.06035 50.04496,25.17648 0.79096,0.30412 -52.476,1.22628 -90.3704,12.40611 -86.14455,-2.21468 21.61458,-19.74327 -34.35096,35.81363 -0.27516,0.0746 59.21451,-16.15375 101.06391,-0.87782 98.37974,7.52937 8.98157,14.86118 56.79916,42.19585 0.19273,0.0986 -64.22196,-2.27203 -110.32466,14.64369 -104.99184,-5.83898 33.27911,-27.16713 -35.52042,44.9443 0.0535,-0.0166 71.23274,-19.40125 120.79819,3.13399 117.2871,13.16409 11.4824,21.3396 59.0378,62.33526 -0.39128,-0.26163 -75.28814,-7.42052 -128.77877,15.9793 -122.66262,-11.38264 47.98757,-34.59143 -35.76071,52.30123 0.28948,-0.0697 83.00695,-21.96767 139.19327,9.14356 134.82348,20.88345 13.04016,29.68849 55.87901,84.48947 -0.92276,-0.78383 -85.46461,-14.25018 -145.45111,16.17752 -138.94386,-19.09801 66.03555,-40.93856 -35.99079,57.3023 0.44103,-0.0635 94.53648,-23.58236 156.05937,17.29168 150.72676,30.88102 12.8823,39.90115 46.70741,107.34951 -1.36486,-1.46606 -94.53252,-22.75213 -160.08631,15.03468 -153.60958,-29.17287 87.5263,-44.86164 -36.87351,59.61405 0.50656,0.0267 105.80661,-24.00196 171.21161,27.66201 164.72789,43.27334 10.19754,51.737 31.2132,129.46611 -1.67928,-2.29866 -102.26708,-32.87229 -172.45355,12.3884 -166.41358,-41.71546 112.23622,-44.83378 -38.63825,59.03559 0.48379,0.21442 116.77889,-23.01396 184.46388,40.28254 176.54746,58.09955 4.19194,64.69516 9.40953,149.32096 -1.82956,-3.2642 -108.44357,-44.5129 -182.35265,8.12067 -177.08546,-56.74978 139.50197,-39.2719 -41.04755,55.42742 0.36497,0.50492 127.38319,-20.44372 195.624,55.122 185.89567,75.31659 -5.84169,78.00211 -18.36147,165.38939 -1.78136,-4.33792 -112.84302,-57.53421 -189.62112,2.15907 -185.32918,-74.21622 168.14654,-26.69258 -43.45195,48.73393 0.13588,0.89535 137.51185,-16.15673 204.4899,72.09153 192.47057,94.79975 -20.44356,90.61988 -51.43303,176.20534 -1.50374,-5.4873 -115.25736,-71.75566 -194.14029,-5.52112 -190.82611,-93.96922 196.46019,-5.89719 -44.88625,39.06926 -0.22519,1.37541 147.01562,-10.06598 210.84967,91.04067 195.96405,116.33944 -39.90465,101.27537 -88.82491,180.41699 -0.97083,-6.67351 -115.4956,-86.95562 -195.84631,-14.8915 -193.24324,-115.77403 222.25197,23.83352 -44.19366,26.82596 -0.73995,1.92026 155.70959,-2.12912 214.4846,111.76707 196.06704,139.64904 -64.18737,108.51273 -129.26286,176.84089 -0.16286,-7.85169 C 371.05719,404.46106 289.69362,481.47082 292.20273,368.02582 c 242.98132,62.57506 -40.178,12.76924 -1.43612,2.4996 163.3738,7.64474 215.17466,134.0126 192.48008,164.36294 -92.8537,110.77349 -171.19738,164.51554 0.93318,-8.97216 C 375.38521,406.68246 293.22322,487.63462 296.68126,361.73247 c 255.94892,109.61848 -31.77267,-1.91089 -2.33789,3.0717 C 464.10628,383.99329 507.0495,522.26608 479.2685,554.83989 354.25545,661.33924 266.43517,697.59562 481.59077,544.85963 379.98572,409.15827 296.96947,493.02357 302.87981,354.96398 561.42409,518.37371 284.65354,339.35924 299.41322,358.54802 474.0287,390.92949 506.29464,540.29655 472.57246,574.69879 313.2806,668.95238 220.40868,685.90633 476.57299,563.87959 384.82482,411.9447 300.66292,497.75636 310.94741,347.99932 c 248.51414,221.56689 0.7148,-26.3555 -4.83457,3.97506 177.6671,47.0381 197.52996,206.45402 156.98978,242.12008 -193.83482,72.86047 -287.01622,69.90747 5.95457,-11.42985 -79.19449,-167.5668 -164.96562,-80.6772 -148.05215,-241.49363 224.22488,280.99072 24.64707,-32.00404 -6.44299,4.17499 178.66271,62.91636 184.51974,231.11331 136.28966,267.29435 -226.34169,41.55326 -315.11316,19.34111 8.16085,-11.75261 -63.96038,-182.21329 -151.92521,-95.01947 -125.88312,-266.02532 184.88193,338.05969 52.39869,-30.39934 -8.27742,4.10776 177.3707,79.71378 167.76883,255.2185 111.01283,290.96854 C 181.717,630.06309 101.71096,590.43844 446.44982,618.2101 400.3388,422.72761 309.51612,509.52869 347.33829,329.49644 478.01852,718.38415 429.3261,309.83642 337.03244,333.19112 510.62962,430.26395 484.28959,611.41724 418.24188,645.58577 143.88898,594.65098 76.322956,540.51248 431.42365,634.28368 405.65972,427.30839 311.27326,513.069 363.57648,325.52798 c 62.86466,429.62315 110.67767,1.53567 -12.47643,2.85823 167.20009,114.5873 123.03744,299.56634 47.04034,330.7946 C 114.13964,548.86225 61.740267,483.92697 414.03479,648.75993 410.94424,432.46206 312.27889,516.54976 381.70425,323.4272 c -16.30333,456.74851 135.13533,33.66854 -14.71561,1.52673 158.10086,131.81097 95.24438,318.65396 8.7885,345.37799 C 95.468316,494.49408 59.822465,422.99125 394.43248,661.29215 416.1131,438.22711 312.47169,519.99032 401.4878,323.66291 297.82129,791.01731 553.18696,399.80596 384.56002,323.30274 530.85605,471.57281 448.6624,658.20495 351.42858,678.66473 90.494194,434.24833 71.955155,360.56448 372.81411,671.54373 421.07978,444.63363 311.80539,523.37064 422.59557,326.68283 227.22537,786.04392 579.33126,453.82574 403.59734,323.83716 535.46371,487.31441 433.5281,671.57548 325.4317,683.83048 90.341238,423.15153 86.628872,416.22215 170.76648,597.33128"
       id="path15724"
       inkscape:connector-curvature="0"
       sodipodi:nodetypes="csssssssssssssssssssscssssssssssssssssssssssssssssssssssssssssssssssssssssssssssssssssssssssssssssssc" />
  </g>
</svg>
