<?xml version="1.0" encoding="UTF-8" standalone="no"?>
<!-- Created with Inkscape (http://www.inkscape.org/) -->

<svg
   xmlns:dc="http://purl.org/dc/elements/1.1/"
   xmlns:cc="http://creativecommons.org/ns#"
   xmlns:rdf="http://www.w3.org/1999/02/22-rdf-syntax-ns#"
   xmlns:svg="http://www.w3.org/2000/svg"
   xmlns="http://www.w3.org/2000/svg"
   xmlns:sodipodi="http://sodipodi.sourceforge.net/DTD/sodipodi-0.dtd"
   xmlns:inkscape="http://www.inkscape.org/namespaces/inkscape"
   width="744.09448819"
   height="1052.3622047"
   id="svg2"
   version="1.1"
   inkscape:version="0.48.2 r9819"
   sodipodi:docname="C:\DOCUME~1\Owner\LOCALS~1\Temp\ink_ext_XXXXXX.svgXGXUIW">
  <sodipodi:namedview
     id="base"
     pagecolor="#ffffff"
     bordercolor="#666666"
     borderopacity="1.0"
     inkscape:pageopacity="0.0"
     inkscape:pageshadow="2"
     inkscape:zoom="0.35"
     inkscape:cx="277.5886"
     inkscape:cy="738.9448"
     inkscape:document-units="px"
     inkscape:current-layer="layer1"
     showgrid="false"
     inkscape:window-width="1015"
     inkscape:window-height="711"
     inkscape:window-x="257"
     inkscape:window-y="32"
     inkscape:window-maximized="0" />
  <defs
     id="defs4" />
  <metadata
     id="metadata7">
    <rdf:RDF>
      <cc:Work
         rdf:about="">
        <dc:format>image/svg+xml</dc:format>
        <dc:type
           rdf:resource="http://purl.org/dc/dcmitype/StillImage" />
        <dc:title />
      </cc:Work>
    </rdf:RDF>
  </metadata>
  <g
     id="layer1"
     inkscape:groupmode="layer"
     inkscape:label="Layer 1">
    <path
       style="fill:none;stroke:#000000;stroke-width:1px;stroke-linecap:butt;stroke-linejoin:miter;stroke-opacity:1"
       d="m 175.58705,449.25633 c -3.24749,0.43896 -4.83949,-3.4838 -4.31319,-6.109 1.00805,-5.02818 6.82493,-7.08808 11.3143,-5.62899 6.77353,2.20147 9.40239,10.2173 6.94479,16.51961 -3.32559,8.5282 -13.62597,11.74166 -21.72491,8.26059 -10.28972,-4.42271 -14.09323,-17.04184 -9.57639,-26.93022 5.50672,-12.05545 20.4616,-16.45172 32.13552,-10.89219 13.82387,6.58342 18.81451,23.88374 12.20799,37.34083 -7.65562,15.59406 -27.30744,21.18011 -42.54613,13.52379 -17.36549,-8.72489 -23.54768,-30.73224 -14.83959,-47.75144 9.79211,-19.13781 34.15783,-25.91666 52.95675,-16.15538 20.91078,10.85785 28.2867,37.584 17.47118,58.16204 -11.92252,22.68427 -41.01065,30.65755 -63.36736,18.78699 -24.45814,-12.98635 -33.02902,-44.43765 -20.10278,-68.57266 14.04953,-26.23234 47.86494,-35.401 73.77797,-21.41858 28.00677,15.11218 37.77338,51.29246 22.73438,78.98327 -16.17443,29.78142 -54.72018,40.1461 -84.18858,24.05017 -31.55624,-17.23632 -42.51909,-58.14805 -25.36597,-89.39388 18.29792,-33.33119 61.57606,-44.89232 94.59918,-26.68177 35.10628,19.3593 47.26575,65.0042 27.99757,99.80449 -20.42046,36.88146 -68.43242,49.63934 -105.00979,29.31337 -38.656729,-21.48146 -52.013078,-71.86074 -30.62917,-110.2151 22.5423,-40.43207 75.28912,-54.38694 115.4204,-31.94497 42.20749,23.60302 56.76092,78.71758 33.26077,120.62571 C 230.08038,536.91597 172.5979,552.068 128.91298,527.50958 83.154489,501.78546 67.403832,441.93493 93.020608,396.47326 119.80514,348.9392 182.02387,332.58988 229.26224,359.26509 278.57191,387.10995 295.51991,451.697 267.7862,500.71202 238.88107,551.79734 171.92561,569.34406 121.13396,540.55179 68.272965,510.58646 50.127509,441.26248 79.9784,388.69425 c 31.02548,-54.63671 102.71806,-73.38092 157.06285,-42.47137 56.41244,32.08557 75.75543,106.14683 43.78716,162.26816 C 247.68279,566.67924 171.25278,586.62102 113.35495,553.594 53.390961,519.38837 32.850386,440.58955 66.936191,380.91523 102.20179,319.17544 183.36948,298.03605 244.82026,333.18067 308.33588,369.50621 330.0741,453.04282 293.87062,516.27005 256.48518,581.5615 170.5796,603.89856 105.57594,566.63621 38.508631,528.19089 15.572719,439.91629 53.893983,373.13622 93.399145,304.29304 184.0428,280.75827 252.59927,320.13847 323.21833,360.70345 347.35197,453.7162 306.91283,524.04906 265.28804,596.44401 169.90616,621.17653 97.796927,579.67841 23.626069,536.99385 -1.7053371,439.2428 40.851774,365.35721 84.596099,289.41044 184.71634,263.48014 260.37828,307.09626 c 77.7227,44.80406 104.2519,147.29353 59.57676,224.73181 C 274.09124,611.32671 169.23253,638.45481 90.017915,592.72062 8.7433366,545.79712 -18.983679,438.56913 27.809566,357.5782 75.792759,274.52767 185.39004,246.20173 268.1573,294.05405 352.98379,343.09692 381.90864,455.06353 332.99724,539.60709 282.8947,626.20954 168.55876,655.73332 82.238903,605.76283 -6.1395246,554.60064 -36.262238,437.89534 14.767357,349.79919 66.989195,259.64478 186.06387,228.92313 275.93631,281.01184 367.8667,334.29331 399.18729,455.73738 346.03945,547.3861 291.69836,641.09248 167.88488,673.01201 74.45989,618.80504 -21.022486,563.40434 -53.540965,437.22143 1.7251488,342.02017 58.185457,244.7618 186.7378,211.64437 283.71532,267.96963 382.7497,325.48954 416.46609,456.41133 359.08166,555.16511 300.50217,655.9755 167.21092,690.29084 66.680878,631.84725 -35.905526,572.20818 -70.819826,436.54745 -11.31706,334.24116 49.381583,229.87874 187.4118,194.36548 291.49433,254.92742 397.63278,316.68563 433.745,457.08535 372.12387,562.94412 309.3061,670.85859 166.53688,707.56978 58.901866,644.88946 -50.788629,581.01214 -88.098795,435.8734 -24.359268,326.46215 40.577597,214.99562 188.08586,177.08648 299.27335,241.88522 412.51591,307.88162 451.02402,457.75942 385.16608,570.72313 318.11014,685.74173 165.86279,724.84882 51.122854,657.93167 -65.671785,589.81619 -105.37785,435.19929 -37.401477,318.68314 31.773521,200.11245 188.75998,159.80741 307.05236,228.84301 427.39908,299.07753 468.30311,458.43355 398.20829,578.50215 326.91425,700.62492 165.18865,742.12793 43.343841,670.97387 -80.554983,598.62033 -122.65698,434.52514 -50.443685,310.90412 22.969371,185.22925 189.43414,142.52826 314.83137,215.8008 442.2823,290.27336 485.58227,459.10772 411.25049,586.28116 335.71843,715.50815 164.51447,759.40711 35.564829,684.01608 -95.438217,607.42453 -139.93617,433.85096 -63.485894,303.12511 14.165157,170.346 190.10834,125.24906 322.61038,202.75859 457.16555,281.46913 502.86149,459.78192 424.2927,594.06017 344.52268,730.3914 163.84026,776.68634 27.785817,697.05829 -110.32148,616.22878 -157.21541,433.17674 -76.528102,295.3461 5.3608907,155.46273 190.78256,107.96981 330.3894,189.71638 c 141.65943,82.94847 189.75135,270.73978 106.94551,412.1228 -16.0586,27.41852 -36.44592,52.26617 -60.19146,73.3796"
       id="path4474" />
    <path
       id="path4759"
       d="M339.832623141 505.44944544C340.737570908 508.04641742 334.545502995 507.713999241 330.325441192 506.184555819C322.386009152 503.010674881 319.099591917 497.369978183 321.437018615 494.68659734C325.269704069 490.732443324 337.887764306 492.691551526 347.662890097 496.991747901C361.418379369 501.92094628 367.101564862 509.867539565 362.105671069 514.955759703C356.508561579 521.446468478 336.408999623 520.672713191 319.672201395 512.914981242C300.663864481 501.610033336 294.113218707 485.995150998 303.083690197 480.554635746C315.128704124 474.632253317 341.833175189 480.648638362 361.600947999 490.17058153C386.525501725 498.001903477 396.730975969 511.243721074 386.008310046 521.617338484C375.961353351 533.124093475 340.793206205 533.961458573 310.568607768 520.071872797C280.588095178 499.539186145 271.447123028 471.74881278 287.155117295 464.455662401C307.976878911 457.956610586 348.191518161 468.971906008 376.634051976 482.750589523C412.222459704 491.140258091 427.058137256 508.308014953 411.197749622 525.197241836C398.020842832 542.400606266 347.939095703 547.254370698 303.087869038 527.846156016C262.298164881 497.352857755 251.513763024 455.369336202 273.84658058 446.744953069C303.952437598 441.219086836 356.729424844 457.491907988 392.531480718 474.382860939C437.959020324 481.001128777 457.412964216 500.849951886 437.302306505 525.498311831C422.32547232 548.831371805 357.887347674 560.238641863 297.294410584 536.365611947C245.786725707 495.681283526 234.460607584 437.641731173 263.308740245 427.797969731C303.022877779 424.840299215 367.176042636 445.895179254 409.012213571 464.735512434C463.155747295 467.344668595 487.134613073 488.775314388 463.92594191 522.366362219C448.490722362 552.025866968 370.630313349 572.565870902 293.251132869 545.695938345C230.974204384 495.085008094 220.222690108 419.433658544 255.645489045 408.006944563C305.094002027 409.152829785 379.173437792 433.765758886 425.749515707 453.514219533C487.20786025 450.046597854 515.556981207 472.09020879 490.65292921 515.692872568C476.084334606 551.643712982 386.115248964 583.860295049 291.023193835 555.844683483C217.754498868 496.021356323 208.489361789 401.653448688 250.911776055 387.779523974C310.012141359 394.340850078 392.258876859 420.636498002 442.379282308 440.478648282C509.500677913 429.097753211 542.016552287 450.897078699 517.053005817 505.417181044C504.627259901 547.39997753 404.241354826 593.729947589 290.67893891 566.766861488C206.034584023 498.832802421 198.693756043 385.160556586 249.109852893 367.543618415C317.514681298 380.335843973 405.86753471 406.053802718 458.510861505 425.45364002C529.425159821 404.599562906 565.863267782 425.391793063 542.68663834 491.528126352C533.599043014 539.071312284 424.856957505 601.777404798 292.288364576 578.371023213C195.763808888 503.750232781 190.071538936 370.649802417 250.178092866 347.773110183C327.100504351 366.70606968 419.355622271 389.64094794 473.738594973 408.335378148C546.39241419 376.757717545 586.471660396 395.860364135 567.11053384 474.065153329C562.445046041 526.501507886 447.757583173 607.60993594 295.92003867 590.525209532C186.949985464 510.90448777 181.800319304 358.572528961 253.939228525 329.097480009C337.881705412 352.689899098 432.036780705 371.144853383 487.653190827 389.093240175C559.846736449 345.874766156 603.252029685 362.674588875 589.883201467 453.118814188C590.584641615 509.606178378 472.685422555 610.849065663 301.637000999 603.062535443C179.663024575 520.340237024 173.16384828 349.151121786 259.788343579 312.69079278C348.637364343 337.49417403 443.221291981 350.459742188 499.851997811 367.768499992C569.277435618 312.341943964 615.660883974 326.286916138 610.570651837 428.830603872C617.420070097 488.376490466 499.330028806 611.139614974 309.492427433 615.786371127C174.029367746 532.028254213 163.660186131 342.469158582 265.740603751 299.738528499C358.115307912 320.636198801 452.249804451 327.630086893 509.948142446 344.470834805C574.229404511 276.630378266 623.210952123 287.224086494 628.751956152 401.392354853C642.34596219 462.881638444 527.330418251 608.15816035 319.525270572 628.475171416C170.221111867 545.874907741 153.025353116 338.567132162 269.698394245 288.43321236C365.28767794 302.036090012 458.518556192 302.839676178 517.57838359 319.373441693C574.312575882 239.281540951 625.480383567 246.079757461 644.024861621 371.044865071C664.759055451 433.2703359 556.278178393 601.621010361 331.756162368 640.887040417C168.442563373 561.728822582 141.201841931 337.497496682 271.136946137 277.186393741C369.405924235 281.917342715 461.496378777 276.393794955 522.409913672 292.707362344C569.210136458 200.897244195 622.12104982 203.506163249 656.011199202 338.076012146C684.068263575 399.770904213 585.721965818 591.291391253 346.183830263 652.76414973C168.916311783 579.385625468 128.291505008 339.338411362 269.955376851 265.807731944C369.952706123 260.687770167 460.735503738 248.69925596 524.146088359 264.755312362C558.685550837 162.128908784 612.865868917 160.204828113 664.362111231 302.818269461C699.704716708 362.690200949 615.172725532 576.986115035 362.781896065 663.837070856C171.869878862 598.591644962 114.513652792 344.184334153 266.112737854 254.506174152C366.586396487 238.860732708 455.878305446 220.244594893 522.531322732 235.845268247C542.588312096 123.666451965 597.534960716 116.916420449 668.763013174 265.645665771C711.131695414 322.411365048 644.110055021 558.58130917 381.496381897 673.829081022C177.523372793 619.047266183 100.173354131 352.128842921 259.608896909 243.5929707C359.103943418 217.009292841 446.661405248 191.581675935 517.355202584 206.343895321C520.858408546 86.2266759578 576.040681918 74.4100574107 668.938243082 226.970237953C717.854339127 279.390189393 671.989304228 536.017313545 402.243709038 682.460460617C186.078418778 640.410497367 85.6381637723 363.247528859 250.486287971 233.409991793C347.41935884 195.738325397 432.917954476 163.308448601 508.455884044 176.649973412C493.529370381 50.541337007 548.391249052 33.4718030352 664.655322101 187.237857551C719.428926882 234.15051695 698.249312701 509.302691345 424.909375717 689.452781689C197.708339991 662.301056641 71.3206798719 377.58349331 238.830783039 224.305622554C331.551414212 175.665334036 414.578686405 136.053114485 495.722797382 147.187570067C460.729995644 17.345047382 514.693127263 -5.10699671996 655.728812267 146.923854452C715.471627384 187.278247384 722.320776042 478.517195355 449.347094485 694.533214457C212.549617519 684.305040991 57.6643269043 395.136352257 224.771499774 216.623055271C311.615826947 157.405242944 391.671821142 110.459236641 479.098747889 118.399468964C482.773479427 102.993058468 488.241090605 91.09754263 496.104300281 83.4059685148"
       style="fill:none;stroke:#000000;stroke-width:1px;stroke-linecap:butt;stroke-linejoin:miter;stroke-opacity:1" />
  </g>
</svg>
