<?xml version="1.0" encoding="UTF-8" standalone="no"?>
<!-- Created with Inkscape (http://www.inkscape.org/) -->

<svg
   xmlns:dc="http://purl.org/dc/elements/1.1/"
   xmlns:cc="http://creativecommons.org/ns#"
   xmlns:rdf="http://www.w3.org/1999/02/22-rdf-syntax-ns#"
   xmlns:svg="http://www.w3.org/2000/svg"
   xmlns="http://www.w3.org/2000/svg"
   xmlns:sodipodi="http://sodipodi.sourceforge.net/DTD/sodipodi-0.dtd"
   xmlns:inkscape="http://www.inkscape.org/namespaces/inkscape"
   width="744.09448819"
   height="1052.3622047"
   id="svg2"
   version="1.1"
   inkscape:version="0.48.2 r9819"
   sodipodi:docname="spiral040.svg">
  <sodipodi:namedview
     id="base"
     pagecolor="#ffffff"
     bordercolor="#666666"
     borderopacity="1.0"
     inkscape:pageopacity="0.0"
     inkscape:pageshadow="2"
     inkscape:zoom="0.47776272"
     inkscape:cx="402.9305"
     inkscape:cy="640.03732"
     inkscape:document-units="px"
     inkscape:current-layer="layer1"
     showgrid="false"
     inkscape:window-width="834"
     inkscape:window-height="646"
     inkscape:window-x="323"
     inkscape:window-y="74"
     inkscape:window-maximized="0"
     inkscape:snap-center="false" />
  <defs
     id="defs4" />
  <metadata
     id="metadata7">
    <rdf:RDF>
      <cc:Work
         rdf:about="">
        <dc:format>image/svg+xml</dc:format>
        <dc:type
           rdf:resource="http://purl.org/dc/dcmitype/StillImage" />
        <dc:title></dc:title>
      </cc:Work>
    </rdf:RDF>
  </metadata>
  <g
     inkscape:label="Layer 1"
     inkscape:groupmode="layer"
     id="layer1">
    <path
       inkscape:connector-curvature="0"
       id="path3289"
       d="m 201.10834,705.90225 c -0.8724,-0.9585 0.89028,-1.21476 3.0764,-0.97164 3.13376,0.52339 5.8102,1.54412 5.74879,1.87682 -0.0563,0.50282 -4.06465,-0.23922 -8.47881,-1.63821 -5.22278,-1.53456 -9.53253,-3.64767 -10.19562,-5.03374 -0.83752,-1.59944 3.40434,-1.69863 8.8341,-0.47845 6.50888,1.70131 12.01549,4.2669 11.82629,5.15372 -0.40423,1.00246 -7.46342,-0.3607 -14.99063,-2.81942 -8.19692,-2.44198 -14.73677,-5.72142 -15.3874,-7.82692 -0.94545,-2.34678 5.69141,-2.31541 14.44768,0.0642 10.01492,3.13525 18.59539,7.57188 18.2547,9.02779 -0.85413,1.47679 -11.18278,-0.74635 -21.82284,-4.43084 -11.10202,-3.41604 -19.76409,-7.91112 -20.43386,-10.82863 -1.14246,-3.19315 7.76015,-3.07751 19.88614,0.63107 13.60905,4.81296 25.47429,11.43783 24.9915,13.49657 -1.41364,1.92049 -15.20358,-1.39464 -28.93919,-6.4599 -13.92337,-4.44974 -24.58271,-10.19799 -25.29938,-14.02268 -1.40304,-4.13555 9.62416,-3.99887 25.12412,1.19673 17.2473,6.71786 32.58625,15.84279 31.99482,18.55587 -2.08109,2.33103 -19.50915,-2.30241 -36.3068,-8.89315 -16.64611,-5.53446 -29.16726,-12.56386 -29.95151,-17.3922 -1.70573,-5.17074 11.30162,-5.09236 30.14231,1.73612 20.88661,8.83221 39.86717,20.76288 39.22282,24.19998 -2.85251,2.70725 -24.08517,-3.4658 -43.89568,-11.71651 -19.25599,-6.66114 -33.49629,-14.99087 -34.36096,-20.91972 -2.03077,-6.29452 12.81454,-6.36942 34.92703,2.22454 24.48553,11.13755 47.25313,26.17214 46.63378,30.42167 -3.72311,3.04895 -28.91957,-4.88079 -51.67843,-14.91538 -21.73957,-7.82043 -37.55149,-17.46147 -38.5017,-24.58736 -2.35944,-7.50167 14.18845,-7.83965 39.47049,2.63796 28.00407,13.61511 54.67975,32.04277 54.1853,37.21251 -4.68742,3.35666 -34.00217,-6.54321 -59.6298,-18.47481 -24.08437,-9.00298 -41.31774,-19.95884 -42.35098,-28.37711 -2.67446,-8.78583 15.45185,-9.51049 43.77043,2.95333 31.40408,16.24587 62.08182,38.34527 61.83473,44.56244 -5.73969,3.63154 -39.32422,-8.44902 -67.72618,-22.37952 -26.27921,-10.19962 -44.78281,-22.46714 -45.88935,-32.2709 -2.95988,-10.13963 16.63573,-11.3871 47.83007,3.14871 34.64937,19.01064 69.39304,45.04846 69.53834,52.46002 -6.8738,3.8754 -44.87828,-10.59409 -75.9454,-26.61389 -28.31404,-11.40161 -47.93738,-24.9717 -49.10038,-36.25096 -3.20148,-11.55458 17.77277,-13.47183 51.6577,3.2037 37.70588,21.89029 76.54643,52.1198 77.25127,60.89235 -8.08346,4.09033 -50.65753,-12.97449 -84.26605,-31.16205 -30.18033,-12.6007 -50.77465,-27.45927 -51.97094,-40.29973 -3.38658,-13.02143 18.89699,-15.76454 55.26667,3.09951 40.54187,24.86562 83.47364,59.52539 84.92726,69.84463 -9.36227,4.27884 -56.65528,-15.58603 -92.66732,-36.00759 -31.87081,-13.7894 -53.29016,-29.91836 -54.49062,-44.40039 -3.50452,-14.53003 20.04278,-18.26184 58.67485,2.81941 43.12807,27.91748 90.1059,67.23019 92.51828,79.30026 -10.70394,4.44349 -62.86443,-18.42428 -101.12822,-41.13366 -33.37973,-14.96111 -55.48166,-32.33927 -56.65191,-48.53674 -3.54655,-16.0696 21.24447,-20.95734 61.90432,2.34888 45.43801,31.02676 96.37399,75.19802 99.97429,89.24031 -12.10244,4.58683 -69.27646,-21.48413 -109.62748,-46.52265 -34.70248,-16.11023 -57.34855,-34.71425 -58.44964,-52.69343 -3.505891,-17.62887 22.5354,-23.84141 64.981,1.67585 47.44804,34.17437 102.20908,83.39181 107.24274,99.64334 -13.5525,4.71109 -75.88078,-24.75949 -118.14252,-52.15606 -35.83585,-17.2323 -58.891702,-37.03765 -59.881046,-56.85607 -3.377738,-19.19626 23.947386,-26.9011 67.934076,0.79108 49.13761,37.34116 107.54312,91.77373 114.26824,110.48482 -15.05004,4.81781 -82.66359,-28.24277 -126.64913,-58.01414 -36.77765,-18.32423 -60.113135,-39.30595 -60.945271,-61.01145 -3.159273,-20.76 25.509791,-30.12023 70.795611,-0.31181 50.48944,40.50801 112.30961,100.30527 120.99189,121.73682 -16.59346,4.90718 -89.60695,-31.92434 -135.12052,-64.07561 C 92.83417,632.67596 69.34534,610.54234 68.717766,586.91266 65.868215,564.60418 95.9665,553.43331 142.31767,585.27668 193.8073,628.93246 258.7621,694.22407 269.66827,718.64401 251.48345,723.62125 172.98084,682.8521 126.14181,648.32678 88.05945,627.91582 64.53999,604.65363 64.165319,579.07427 61.715936,555.24406 93.35181,542.11827 140.54825,575.89296 192.67617,622.65827 260.43488,693.55372 273.8246,721.23261 253.99233,726.25518 169.94973,681.40272 121.99242,644.51933 83.547549,623.11344 60.117212,598.74425 60.043641,571.20201 58.082557,545.88791 91.38443,530.67737 139.22543,566.25794 191.62317,616.07533 261.80465,692.66359 277.92059,723.86951 256.36723,728.90178 166.7895,679.85102 117.92354,640.63457 79.308855,618.26379 56.085138,592.80707 56.359811,563.30166 54.971412,536.55186 90.08368,519.14447 138.39382,556.38461 190.69027,609.17755 262.86373,691.52663 281.92002,726.51943 258.54015,731.5067 163.51149,678.18616 113.94653,636.6696 75.354137,613.36083 52.453126,586.83341 53.120961,555.37797 52.384845,527.25045 89.4629,507.55481 138.09793,546.28867 189.92322,601.96163 263.60973,690.11834 285.77861,729.14274 260.41584,734.00005 160.12969,676.39855 110.07321,632.62158 71.694701,608.39743 49.231855,580.81342 50.334607,547.43483 50.324724,517.99636 89.52912,495.94471 138.38161,535.9886 189.37137,594.42732 264.04577,688.41663 289.44289,731.6952 261.86674,736.29328 156.66032,674.47985 106.31573,628.4877 68.342455,603.36553 46.433571,574.73628 48.008787,539.47522 48.792494,508.80048 90.2827,484.3511 139.28775,525.50578 189.08734,586.57752 264.18053,686.40187 292.84996,734.12748 262.73585,738.27972 153.12186,672.42265 102.68665,624.2651 65.310244,598.25622 44.072566,568.59036 46.152458,531.50132 47.790647,499.67178 91.71694,472.81108 140.85781,514.86447 189.12647,578.41855 264.02832,684.0568 295.9281,736.38586 262.85636,739.84411 149.53434,670.22058 99.19889,619.95086 62.611901,593.05993 42.164956,562.36369 44.775447,523.5147 47.322203,490.61752 93.81795,461.36137 143.13108,504.09181 189.54644,569.96026 263.60889,681.36648 298.5994,738.41335 262.09317,740.88404 145.91913,667.86793 95.8657,615.54198 60.262491,587.76659 40.729256,556.04418 43.888845,515.5164 47.391529,481.64334 96.56451,450.03785 146.14426,493.21795 190.4068,561.21627 262.94744,678.31823 300.78507,740.15252 260.39217,741.33686 142.29858,665.35949 92.70062,611.03534 58.278419,582.36583 39.786341,549.62009 43.505042,507.50712 48.004858,472.75334 99.92798,438.87482 149.93077,482.27595 191.76834,552.20417 262.0743,674.90148 302.41264,741.54892 257.80353,741.19451 138.69555,662.69034 89.71771,606.42768 56.677774,576.84719 39.359568,543.08031 43.637971,499.48741 49.170295,463.95046 103.87256,427.90442 154.51991,471.30177 193.69258,542.94569 261.02486,671.10772 303.42454,742.55559 254.46002,740.49501 135.13328,659.85569 86.93073,601.71603 55.480033,571.20072 39.474777,536.41511 44.302818,491.45811 50.898101,455.23685 108.35528,417.15609 159.93594,460.33443 196.24079,533.46704 259.83898,666.93065 303.78543,743.13697 250.52937,739.2992 131.63481,656.85082 84.35608,596.89591 54.707496,565.4163 40.161464,529.61574 45.517307,483.41979 53.201756,446.61345 113.32767,406.65501 166.19782,449.41518 199.47441,523.79831 258.56199,662.36557 303.48753,743.27034 246.17445,737.66847 128.22398,653.67025 82.00803,591.96455 54.383789,559.48518 41.451161,522.67606 47.300144,475.37409 56.09667,438.0815 118.73517,396.42262 173.31642,438.58839 203.4528,513.97468 257.24288,657.41028 302.54878,742.9467 241.53204,735.65436 124.92384,650.30865 79.903084,586.91809 54.534584,553.39998 43.378032,515.59263 49.671555,467.32372 c 9.929047,-37.6812 74.847195,-80.84824 131.621375,-39.4226 26.94005,76.13494 74.6416,224.1638 119.71599,314.26723 C 236.70933,733.29521 121.75717,646.76052 78.057635,581.75319 55.188285,547.15454 45.979606,508.36488 52.653799,459.2722 63.734306,421.2983 130.617,376.82435 190.11661,417.40226 213.86941,494.02681 254.69429,646.33171 298.92332,740.94482 231.78881,730.61667 118.74723,643.01965 76.489373,576.46632 56.375583,540.74478 49.29583,500.99603 56.27063,451.22468 68.520723,413.05191 136.96735,367.47432 199.75998,407.1422 220.41263,483.9961 253.58299,640.21552 296.35557,739.28995 226.8332,727.6347 115.91714,639.07963 75.216685,571.05428 58.129481,534.16912 53.36914,493.49367 60.547171,443.18824 73.984773,404.90796 143.50799,358.4246 210.17203,397.17138 227.9085,473.9977 252.66489,633.72392 293.37189,737.21887 221.89131,724.35784 113.2904,634.93379 74.258848,565.51419 60.485451,527.42885 58.244179,485.87029 65.509668,435.17213 80.153023,396.87314 150.17999,349.66866 221.26862,387.5367 236.39737,464.08993 252.00734,626.86757 290.03769,734.74601 217.00234,720.78925 110.89099,630.57548 73.636181,559.84366 63.481244,520.52866 63.96733,478.14395 71.185304,427.18814 87.05309,388.95671 156.92921,341.19488 232.91908,378.2748 245.91324,454.33545 251.68053,619.66036 286.41526,731.88404 212.1993,716.92828 108.7435,625.99797 73.370108,554.0409 67.15678,513.47711 70.586253,470.33888 77.601791,419.25109 94.713,381.17092 163.70772,332.98709 244.93272,369.39869 256.4832,444.8008 251.75706,612.11967 282.56343,728.64346 207.51137,712.77164 106.87362,621.19494 73.483171,548.10489 c -1.929306,-41.8177 4.665947,-85.61864 11.303709,-136.7259 18.37335,-37.84744 85.68832,-86.35334 172.26895,-50.50086 11.07106,74.67776 -4.7443,243.38854 21.48154,364.15446 C 202.96589,708.31435 105.30814,616.16049 73.999126,542.03564 76.715943,498.97686 86.70389,454.62465 92.76787,403.59351 c 19.65293,-37.5355 84.43155,-86.30515 176.22805,-50.97146 11.86102,74.0506 -15.57573,243.50449 5.39343,368.43578 C 198.58964,703.55047 104.07537,610.88955 74.942947,535.83424 82.687579,491.56956 96.29725,446.80073 101.57094,395.92023 c 20.94691,-37.1465 82.28567,-86.16876 178.90405,-51.43763 14.20712,73.73879 -25.3146,243.24594 -10.30538,372.24141 C 194.41019,698.47363 103.20532,605.3781 76.340983,529.50324 89.51377,484.09497 106.9732,439.07008 111.21993,388.38903 133.46991,351.70626 190.43052,302.3907 291.27921,336.29022 309.62094,410.25365 257.60998,579.10629 265.9267,712.03515 190.45617,693.07782 102.72973,599.6237 78.220548,523.04685 97.23953,476.58925 118.77187,431.49738 121.73586,381.03408 145.28947,344.8868 196.91234,295.18162 301.27015,327.89639 325.74226,402.67101 260.84704,570.2974 261.70883,706.9944 186.75863,687.35748 102.68257,593.62554 80.610372,516.47112 105.9087,469.09584 131.72786,424.15711 133.1352,373.89406 c 24.84517,-35.54448 70.16407,-85.79371 177.22721,-54.69693 32.41723,75.52466 -45.41307,242.14631 -52.7984,382.40775 -74.21275,-20.29662 -154.464,-114.21984 -174.023761,-191.82066 32.022841,-48.11831 62.327831,-92.65028 61.888181,-142.7722 26.10701,-34.8812 64.16463,-85.88825 173.06859,-56.87856 41.1258,75.52579 -48.50306,242.15575 -64.95605,385.73649 C 180.27071,674.9273 104.02035,580.90621 87.04101,502.9968 c 39.20011,-48.63798 74.16882,-92.47377 71.57707,-142.56186 27.31529,-34.16841 57.18088,-86.20546 167.00704,-59.75348 50.03538,74.72714 -49.56797,242.50037 -75.9358,389.11226 -72.1322,-21.57993 -144.20497,-115.59756 -158.54504,-193.67157 46.83223,-48.8795 86.61393,-91.69207 81.55174,-141.90914 28.43987,-33.42369 49.2282,-86.81711 159.00505,-63.37125 58.92857,73.16144 -48.48687,243.22721 -85.64105,392.53958 -70.8058,-22.21198 -138.52508,-116.11591 -150.17766,-194.20466 54.91418,-48.78224 99.62125,-90.20527 91.7582,-140.77874 29.44404,-32.6741 40.33613,-87.79604 149.03999,-67.76632 67.64609,70.85588 -45.14062,244.36447 -93.97493,396.0078 -69.29624,-22.84091 -132.48849,-116.5108 -141.41774,-194.45937 63.4324,-48.27944 113.13086,-87.90644 102.12458,-139.13975 30.28666,-31.96008 30.5513,-89.21374 137.10834,-72.96062 76.04067,67.83745 -39.41178,245.92254 -100.84044,399.4968 C 172.07384,646.10915 113.57789,552.80476 107.39357,475.15559 179.75672,427.85694 234.45554,390.47304 219.95027,338.18484 250.87659,306.84587 239.89085,247.0489 343.18151,259.22247 427.15122,323.35983 311.99667,507.11327 237.04023,662.20313 171.30248,638.1131 117.66571,545.31794 114.2317,468.13059 c 81.67087,-45.76191 141.31016,-80.41557 122.93387,-134.26748 31.32947,-30.88723 8.59507,-93.6156 107.46018,-85.76095 91.29392,59.7937 -20.34785,250.22985 -109.78272,406.43046 -63.6893,-24.70612 -112.31287,-116.83493 -113.00934,-193.39606 91.30665,-43.58638 155.74398,-74.98402 133.1055,-131.05483 31.48111,-30.69759 -3.36739,-96.68156 89.88132,-93.31681 97.87843,54.8528 -6.79632,252.85903 -111.67232,409.81616 C 171.68919,621.27039 128.22142,529.9796 130.22962,454.20966 231.43681,413.52451 300.42886,385.94412 273.12193,326.80624 304.5177,295.93786 257.31799,226.48358 343.73748,225.25991 447.33116,274.62973 353.29279,480.89897 232.0166,638.36771 172.9734,612.47115 134.78963,522.20573 139.44749,447.3908 250.74362,410.42207 323.81872,387.12868 291.54482,323.94232 322.66384,292.45838 262.98703,219.47309 341.35334,213.63828 449.67072,257.04745 370.10363,471.99291 231.51047,629.91537 175.07321,603.46102 142.28398,514.42507 149.51233,440.72609 271.00568,408.37726 347.82215,387.66665 310.04229,321.32202 340.75489,288.73039 268.55975,212.34237 337.65,201.95255 449.58613,238.99665 388.40057,462.65865 231.693,621.25046 178.05738,594.2784 150.75205,506.69389 160.44567,434.26698 292.20936,407.50937 372.97828,386.30298 328.48296,318.70688 358.70565,284.51646 274.00924,205.0634 332.6148,190.25598 446.96197,220.61239 408.00627,452.58024 232.62805,612.40342 181.99581,584.96835 160.23891,499.07611 172.26431,428.07043 314.63419,407.73805 399.08046,382.80379 346.78938,315.81391 376.4389,279.5736 279.29976,197.60626 326.24047,178.6021 441.70056,202.03777 428.59456,441.41665 234.37977,603.40859 186.95896,575.58267 170.78631,491.64321 184.97941,422.19914 338.96709,407.93185 425.8295,376.94638 364.93077,312.35375 393.86849,273.66625 284.38583,189.93917 318.52504,167.04422 433.72346,183.42242 449.7047,428.8584 237.01238,594.30434 193.01724,566.17994 182.43213,484.47428 198.59524,416.7216 364.94429,406.6018 452.85377,368.52128 382.8925,308.06151 410.88174,266.57498 289.21106,182.02864 309.47168,155.63513 422.97304,164.92136 470.79132,414.6709 240.58974,585.1329 200.24049,556.82531 195.21048,477.65522 213.10801,411.71205 392.02097,403.21569 479.70704,357.34012 400.64247,302.70955 427.32437,258.10105 293.70733,173.83977 299.08852,144.42667 409.41311,146.69306 491.28075,398.70901 245.17519,575.93986 208.69786,547.58973 209.1528,471.27742 228.50446,407.25048 419.81652,397.52119 505.86597,343.24412 418.10776,296.10693 442.98966,248.06903 297.79346,165.33669 287.38823,133.46951 393.02998,128.89804 510.60999,380.9102 250.83144,566.7736 218.458,538.54863 224.29129,465.43464 244.76045,403.42243 447.94933,389.31176 530.72979,326.11369 435.16443,288.09358 457.61194,236.32922 301.37414,156.48321 274.38775,122.81291 373.83287,111.69717 528.24339,361.28071 257.62074,557.68399 229.59023,529.7793 240.66614,460.21675 261.83954,400.3186 475.98647,378.40625 553.62216,305.87855 451.63437,278.53546 470.86262,222.76084 304.33869,147.24372 260.10788,112.50449 351.85394,95.249856 543.6766,339.88246 265.60533,548.72055 242.16689,521.3567 258.34008,455.69609 279.69213,398.03447 503.43052,364.65227 573.79521,282.52861 467.28623,267.32202 482.34909,207.27638 306.5598,137.58435 244.57285,102.59018 327.14814,79.71249 556.43562,316.82439 274.84819,539.92957 256.26703,513.34637 277.42234,451.89835 298.25745,396.66902 529.71568,347.93366 590.43683,256.12489 481.83715,254.36633 491.61487,189.82751 307.89224,127.47446 227.80975,93.114047 299.79271,65.236772 566.07515,292.25654 285.41427,531.34981 271.98204,505.79251 298.09636,448.74262 317.54472,396.28503 554.20852,328.17913 602.68131,226.81058 494.95484,239.607 498.14243,170.4118 308.17175,116.88837 209.84818,84.118342 269.88658,51.968218 572.17865,266.36693 297.3718,523.00609 289.42147,498.69913 320.60982,445.94457 337.98058,395.83989 576.21091,305.37175 609.62351,194.8216 506.26034,223.01162 501.3575,149.08073 307.21377,105.80753 190.71983,75.643443 237.54894,40.044659 574.36017,239.37891 310.79296,514.89989 308.71506,492.0014 345.14888,442.944 359.25441,394.13113 594.96643,279.55841 610.3369,160.49613 515.33089,204.58108 500.63604,125.94806 304.81267,94.222981 170.45773,67.728026 202.91817,29.595001 572.2674,211.54904 325.75249,506.9968 330.00058,485.52824 371.63338,438.99911 381.15127,390.98495 609.66909,250.85952 603.89552,124.28314 521.70363,184.35456 495.31376,101.19875 300.74087,82.138331 149.09602,60.40909 c 6.9129,-6.801399 32.89678,-11.77545 80.29661,-12.029354"
       style="fill:none;stroke:#000000;stroke-width:0.74966592px;stroke-linecap:butt;stroke-linejoin:miter;stroke-opacity:1" />
  </g>
</svg>
