<?xml version="1.0" encoding="UTF-8" standalone="no"?>
<!-- Created with Inkscape (http://www.inkscape.org/) -->

<svg
   xmlns:dc="http://purl.org/dc/elements/1.1/"
   xmlns:cc="http://creativecommons.org/ns#"
   xmlns:rdf="http://www.w3.org/1999/02/22-rdf-syntax-ns#"
   xmlns:svg="http://www.w3.org/2000/svg"
   xmlns="http://www.w3.org/2000/svg"
   xmlns:sodipodi="http://sodipodi.sourceforge.net/DTD/sodipodi-0.dtd"
   xmlns:inkscape="http://www.inkscape.org/namespaces/inkscape"
   width="744.09448819"
   height="1052.3622047"
   id="svg2"
   version="1.1"
   inkscape:version="0.48.2 r9819"
   sodipodi:docname="spiral027.svg">
  <sodipodi:namedview
     id="base"
     pagecolor="#ffffff"
     bordercolor="#666666"
     borderopacity="1.0"
     inkscape:pageopacity="0.0"
     inkscape:pageshadow="2"
     inkscape:zoom="0.7"
     inkscape:cx="86.172282"
     inkscape:cy="787.53534"
     inkscape:document-units="px"
     inkscape:current-layer="layer1"
     showgrid="false"
     inkscape:window-width="650"
     inkscape:window-height="587"
     inkscape:window-x="380"
     inkscape:window-y="114"
     inkscape:window-maximized="0" />
  <defs
     id="defs4" />
  <metadata
     id="metadata7">
    <rdf:RDF>
      <cc:Work
         rdf:about="">
        <dc:format>image/svg+xml</dc:format>
        <dc:type
           rdf:resource="http://purl.org/dc/dcmitype/StillImage" />
        <dc:title></dc:title>
      </cc:Work>
    </rdf:RDF>
  </metadata>
  <g
     id="layer1"
     inkscape:groupmode="layer"
     inkscape:label="Layer 1">
    <rect
       y="0.21038114"
       x="10.092996"
       height="786.08429"
       width="586.06732"
       id="rect3021"
       style="fill:none;stroke:#000000;stroke-width:1.12594795;stroke-miterlimit:4;stroke-opacity:1;stroke-dasharray:none" />
    <path
       inkscape:connector-curvature="0"
       id="path3023"
       d="m 249.27632,163.0664 c 1.8299,-0.61272 -0.71941,0.57089 -2.15746,1.17788 -3.68949,1.61818 -6.09674,2.38304 -5.84169,2.00564 0.51248,-0.67393 6.26564,-3.40439 11.3271,-5.3415 7.35167,-2.5457 11.61607,-3.34338 10.32304,-2.40356 -1.47072,1.17141 -11.12902,5.04034 -20.16119,8.65769 -10.90921,5.08118 -16.90675,7.37812 -14.1023,4.94262 3.84768,-3.08571 17.48761,-9.95899 29.35517,-14.21014 14.444,-4.12442 22.62877,-4.94883 19.05738,-3.04253 -3.38869,2.07594 -21.04927,8.30134 -37.97383,15.04223 -18.05059,9.34447 -27.73616,13.9297 -22.26913,8.72613 7.32667,-6.15904 28.69661,-17.53454 46.89518,-23.6654 21.33606,-4.97538 33.53576,-5.28676 27.87785,-2.79417 -4.78915,2.60835 -30.26222,10.31845 -55.38379,20.18754 -25.02324,14.29829 -38.34935,21.9811 -30.34427,13.30464 10.95278,-9.9533 39.59005,-25.90413 63.71288,-33.5091 27.97368,-5.17105 44.26089,-4.45531 36.80893,-1.68254 -5.70915,2.89732 -38.64258,11.15639 -72.20068,23.9807 -31.71743,19.77869 -48.60916,31.45471 -38.3243,18.58922 14.57292,-14.40347 49.87059,-34.80541 79.59069,-43.53369 34.32198,-4.80424 54.77123,-2.57078 45.87668,0.26708 -6.17045,3.05555 -46.09964,10.92508 -88.25964,26.3464 -38.04086,25.56199 -58.38159,42.19506 -46.20337,24.44639 17.97373,-19.33729 59.24665,-43.94253 94.33457,-53.52255 40.35917,-3.97664 65.05233,0.24467 55.10815,3.02919 -6.20006,3.18569 -52.56873,9.76581 -103.42066,27.25048 -43.93291,31.38132 -67.53763,53.94005 -53.98407,30.70081 20.89944,-24.46921 67.45219,-53.00193 107.7852,-63.25623 46.07246,-2.79406 75.10343,3.86602 64.53103,6.57783 -5.83348,3.38027 -58.00857,7.84111 -117.56843,26.70172 -49.3741,36.95513 -75.96624,66.28952 -61.69059,37.15075 23.08407,-29.42112 74.26768,-61.67503 119.82957,-72.52841 51.45689,-1.36387 84.93591,8.16632 74.17385,10.88534 -5.11269,3.7211 -62.39865,5.32619 -130.60919,24.74998 -54.38646,42.02021 -83.60786,78.71654 -69.39619,43.61924 24.31309,-33.79598 79.55104,-69.70894 130.42461,-81.19362 56.513,0.20662 94.57283,13.01657 84.06777,15.92095 -4.0858,4.27838 -65.73825,2.40186 -142.46856,21.48186 -59.02362,46.35886 -90.51497,90.76386 -77.26732,50.06855 24.50797,-37.32403 83.28329,-77.01472 139.63733,-89.27566 61.24467,1.81113 104.04766,18.28511 94.24598,21.64854 -2.80367,5.11147 -68.04465,-0.75066 -153.08831,17.01563 -63.35409,49.81504 -96.85959,102.33047 -85.58823,56.7604 23.78287,-40.04928 85.59416,-83.81772 147.66572,-97.12036 65.65813,3.34509 113.40375,23.8365 104.74671,28.02483 -1.32049,6.26842 -69.35254,-3.95439 -162.42572,11.49447 -67.44841,52.30229 -102.80799,113.47135 -94.62798,64.19209 22.32851,-42.27859 86.62925,-90.58152 154.70239,-105.32313 69.75917,4.70617 122.69341,29.5301 115.61274,34.9967 0.30997,7.78722 -69.71172,-7.0395 -170.45095,5.08083 -71.36739,53.79729 -108.46692,124.05551 -104.43276,72.72294 20.20905,-44.20992 86.34565,-97.62292 160.72561,-114.34715 73.55071,5.79511 131.9755,35.21868 126.89251,42.49927 2.03412,9.69584 -69.18644,-9.84613 -177.14706,-2.04966 -75.15454,54.32333 -113.94345,133.76932 -114.84702,82.43807 17.3826,-45.79476 84.53673,-104.96498 165.5181,-124.37877 77.0309,6.51644 141.31361,40.74606 138.64047,50.45302 3.80096,12.01351 -67.8533,-12.22615 -182.50965,-9.71272 -78.83004,53.92912 -119.38834,142.23173 -125.62889,93.2599 13.81658,-46.85194 80.95516,-112.44059 168.78291,-135.4319 80.19011,6.7798 150.77363,45.94544 150.91688,58.76105 5.56258,14.75147 -65.799,-14.04427 -186.54632,-17.71932 -82.38966,52.67263 -124.996,149.08245 -136.5075,105.02597 9.54298,-47.15356 75.38085,-119.7663 170.20177,-147.41899 83.00788,6.5018 160.4186,50.63701 163.78586,67.30629 7.27568,17.91408 -63.11855,-15.1789 -189.27709,-25.87892 -85.80714,50.6138 -130.97235,154.03779 -147.20488,117.50965 4.6779,-46.4623 67.65365,-126.56231 169.45772,-160.16564 85.4511,5.60819 170.30599,54.62604 177.31532,75.94856 8.90189,21.49941 -59.9135,-15.52292 -190.73396,-34.00233 -89.04068,47.81393 -137.48959,156.91853 -157.45361,130.42388 -0.57051,-44.55706 57.7062,-132.36252 166.25627,-173.409 87.47099,4.03752 180.4798,57.70106 191.57224,84.52151 10.40929,25.50108 -56.2887,-14.98293 -190.96068,-41.90344 -92.0379,44.33626 -144.64289,157.65563 -167.01532,143.42173 -5.90062,-41.26039 45.59551,-136.62706 160.34714,-186.79344 89.00234,1.74504 190.96499,59.63295 206.61956,92.82989 11.77234,29.90831 -52.35125,-13.47975 -190.01196,-49.40125 -94.74261,40.2481 -152.42691,156.27946 -175.70273,156.10219 -10.92556,-36.47105 31.5376,-138.76842 151.55154,-199.87261 89.96199,-1.29206 201.75802,60.17512 222.50989,100.64732 12.97282,34.70732 -48.20766,-10.94753 -187.95316,-56.32098 -97.0977,35.62061 -160.73963,152.9026 -183.40106,168.02228 -15.19466,-30.19776 15.93664,-138.19223 139.78963,-212.11882 90.25077,-5.06884 212.81788,59.06517 239.27874,107.71452 14.00093,39.88296 -43.96126,-7.33255 -184.85814,-62.49506 -99.04957,30.52923 -169.41361,147.69169 -190.08842,178.71733 -18.23112,-22.58879 -0.59606,-134.35371 125.10849,-222.94239 89.75623,-9.54608 224.05441,56.02913 256.93574,113.74016 14.85399,45.41742 -39.71152,-2.59359 -180.80899,-67.76469 -100.5499,25.053 -178.25489,140.82739 -195.84881,187.72903 -19.58503,-13.94795 -17.24235,-126.82754 107.70349,-231.72085 88.35884,-14.64415 235.3178,50.78906 275.45423,118.40184 15.53881,51.29331 -35.55021,3.30089 -175.89411,-71.97949 -101.55712,19.27404 -187.06867,132.47026 -200.87491,194.63757 -18.89834,-4.72982 -33.00345,-115.38408 87.9324,-237.83542 85.93968,-20.23762 246.38578,43.07414 294.75969,121.352 16.07071,57.49264 -31.56097,10.37206 -170.20575,-74.99894 -102.03915,13.27653 -195.6696,122.75201 -205.45987,199.0953 -15.97145,4.49519 -46.75891,-100.06084 66.3146,-240.71237 82.39356,-26.15232 256.95427,32.63628 314.71818,122.22514 16.47442,63.99768 -27.81612,18.63331 -163.83906,-76.69213 -101.97251,7.14598 -203.88056,111.78339 -209.97112,200.85543 -10.81902,13.10723 -57.3591,-81.21558 43.51673,-239.8636 77.64362,-32.16565 266.63005,19.27201 335.12469,120.65106 16.78412,70.79082 -24.37535,28.09063 -156.88883,-76.93826 -101.34434,0.9678 -211.5337,99.66679 -214.81367,199.78867 -3.69777,20.53202 -63.74657,-59.54399 20.32221,-234.9206 71.65618,-38.01223 274.92711,2.84802 355.69261,116.27139 17.04395,77.85488 -21.28364,38.74398 -149.44826,-75.6269 -100.1514,-5.17327 -218.47019,86.50684 -220.37933,195.88503 4.90612,26.3476 -65.09413,-36.04951 -2.41526,-225.65655 64.45959,-43.39623 281.2723,-16.66876 376.04878,108.76125 17.30817,85.17261 -18.56925,50.58839 -141.60576,-72.65812 -98.4006,-11.1946 -224.54273,72.41518 -226.99099,189.23858 14.33445,30.37723 -60.94166,-11.95959 -23.82871,-211.99751 56.15557,-48.00975 285.01907,-39.17703 395.73104,97.85549 17.64135,92.72531 -16.24193,63.61467 -133.44266,-67.94301 -96.10881,-17.01638 -229.61767,57.5142 -234.8369,180.0297 23.8431,32.72759 -51.31472,11.39682 -43.11346,-194.03177 46.92771,-51.55841 285.47491,-64.40906 414.19582,83.37649 18.11871,100.4924 -14.29112,77.80967 -125.0304,-61.40387 -93.30275,-22.5628 -233.57726,41.93751 -243.87857,168.53821 32.66741,33.71895 -36.82724,32.70213 -59.637,-172.05174 37.04033,-53.7909 281.94009,-91.90238 430.8331,65.26345 18.82626,108.45003 -12.684,93.15736 -116.42828,-52.97524 -90.01723,-27.76245 -236.3211,25.82963 -253.73702,155.18156 40.02662,33.71604 -18.74892,50.74374 -73.08113,-146.61658 26.82408,-54.52804 273.76272,-120.98101 444.99257,43.59868 19.86032,116.56799 -11.36431,109.63728 -107.68021,-42.60479 -86.29624,-32.54972 -237.76812,9.34407 -263.82808,140.35957 45.2945,33.10986 1.22819,64.67341 -83.34619,-118.41481 16.65263,-53.68948 260.4037,-150.75425 456.01953,18.62566 21.32773,124.80878 -10.25019,127.22496 -98.81247,-30.25469 -82.19077,-36.86474 -237.8574,-7.35739 -273.71382,124.2611 48.29616,32.35387 21.48245,74.2588 -90.24475,-88.07718 6.90527,-51.30665 241.5074,-180.135652 463.29874,-9.24125 23.3444,133.12356 -9.23372,145.88965 -89.83091,-15.90364 -77.75972,-40.65506 -236.54953,-24.10773 -283.12098,106.96211 49.21427,31.77272 40.63304,79.77626 -93.534903,-56.26684 -2.073043,-47.523 216.972933,-207.888351 466.302853,-39.42364 26.03425,141.44955 -8.17979,165.59225 -80.71949,0.45047 -73.06742,-43.87506 -233.82575,-40.73614 -291.83487,88.52808 48.38659,31.44733 57.56613,81.83754 -93.074596,-23.75301 -10.01169,-42.5762 187.011216,-232.699509 464.639966,-71.20362 29.52687,149.70628 -6.92583,186.28251 -71.43771,18.78811 -68.18439,-46.48773 -229.68973,-57.07048 -299.66204,69.03775 46.22711,31.24495 71.48102,81.24953 -88.90022,8.60719 -16.744121,-36.76363 152.1807,-253.27569 458.09354,-103.76219 33.95378,157.79119 -5.28294,207.89427 -61.92084,39.06319 -63.18576,-48.46472 -224.16636,-72.93929 -306.42319,48.58882 43.21628,30.9281 81.90658,78.88063 -81.25825,39.92312 C 88.75618,349.6299 224.36604,111.57302 557.6243,243.79306 c 39.44467,165.57764 -3.03653,230.34206 -52.07902,61.20046 -58.1503,-49.78682 -217.30212,-88.17361 -311.95487,27.29779 39.86746,30.29693 88.67423,75.55075 -70.60786,69.33669 -26.506075,-23.76656 71.84989,-277.32496 430.48911,-167.77689 46.12036,172.90998 0.0497,253.51445 -41.79946,85.08968 -53.15961,-50.44511 -209.16459,-102.60984 -316.11265,5.29844 36.64312,29.28083 91.86366,71.96291 -57.59798,96.09079 -29.74836,-17.08263 29.00909,-279.31263 409.99886,-197.61584 54.08581,179.60233 4.22996,277.26894 -30.94926,110.58127 C 468.71446,282.85461 317.169,217.20461 198.23816,316.03596 c 33.88466,27.93641 91.7568,68.68442 -43.02162,119.58858 -32.15029,-10.47406 -13.57723,-274.26311 385.70464,-225.11513 63.4207,185.43727 9.76983,301.42637 -19.38033,137.48214 C 477.89622,298.20547 332.0975,219.52277 201.7052,307.77841 c 31.80227,26.39592 88.85177,66.16397 -27.75394,139.43386 -33.92679,-3.97377 -54.37569,-262.45706 358.23287,-249.80262 74.16868,190.1678 16.93772,325.76467 -6.9369,165.55125 -39.28501,-48.50399 -178.0965,-139.60692 -319.22431,-63.38858 30.50218,24.82327 83.97932,64.71872 -12.6809,155.44968 -35.27309,2.46603 -92.01307,-244.587 328.24596,-271.38622 86.3266,193.52182 25.99502,350.01603 6.53608,194.49861 -35.29627,-46.6285 -165.94857,-149.38228 -316.88752,-86.60434 30.01759,23.39052 78.32537,64.36881 1.37133,167.67228 C 176.26261,468.15097 87.211403,237.51845 508.9924,169.45894 608.82465,364.6679 546.17509,543.32242 530.17269,393.44223 498.42065,349.23778 377.00812,235.75435 217.37397,283.76927 c 30.33091,22.26745 72.94176,64.78963 13.69504,176.32222 -37.25409,15.60306 -153.794317,-195.01066 263.22101,-304.89404 114.5546,194.93314 50.70824,396.94248 37.11233,253.61783 -28.71904,-41.28593 -139.92561,-164.43537 -306.95578,-132.40472 31.38607,21.61806 68.32159,65.68702 23.74415,181.76256 -38.07462,22.55475 -176.875233,-165.93811 229.23,-316.96107 130.28582,192.40902 66.73012,418.84465 54.40915,282.97333 -26.25578,-37.93619 -126.42733,-169.55745 -299.38111,-154.60869 33.09588,21.59744 64.5687,67.00131 31.15841,184.44835 -38.86656,29.90126 -194.699428,-135.8243 194.77816,-326.12888 146.73718,187.38 85.34315,439.12535 73.09423,311.59079 -24.41069,-34.22625 -112.8773,-173.0111 -290.12032,-176.09662 35.34456,22.35036 61.62189,68.82769 35.76726,184.87863 -39.69956,37.69516 -207.671043,-105.91485 160.13033,-332.6076 163.5423,179.64295 106.56508,457.31787 93.12603,338.99548 -23.22094,-30.2322 -99.49228,-174.77919 -279.24248,-196.6835 37.98975,24.00769 59.34212,71.32182 37.58113,183.55233 -40.68176,45.93467 -216.4657,-77.27135 125.46804,-336.606 180.26569,169.06881 130.3261,472.94891 114.38835,364.71636 -22.71136,-26.03447 -86.49405,-174.87322 -266.8387,-216.19082 40.86292,26.68301 57.53662,74.64983 36.76734,180.93454 C 256.52522,488.94061 76.563133,383.64324 389.42311,96.061826 585.84407,251.68846 545.88546,581.62134 526.10897,484.36921 503.21505,462.65474 452.00334,311.03508 273.08728,249.92174 c 43.7704,30.46813 55.96708,78.96161 33.61986,177.42976 C 262.86748,490.81368 81.645876,400.42648 363.2806,89.433928 574.77638,228.83319 547.99535,584.162 523.02599,498.80612 499.25845,481.45318 460.47989,328.57239 285.10118,247.51365 c 46.49441,35.42783 54.35459,84.37387 28.51803,173.36698 C 267.05214,493.36066 86.829763,414.63618 336.15911,85.313903 561.1441,205.90804 550.89475,585.4065 519.3836,512.90212 494.06523,499.87447 467.35825,347.22752 297.68218,246.32524 c 48.79638,41.59382 52.38569,90.95681 21.88271,168.99261 -50.52175,81.41448 -228.037663,11.07049 -11.0503,-331.42731 236.42564,99.54223 246.09983,501.37281 206.72611,442.72701 -27.5208,-8.81038 -42.73883,-159.78833 -204.52383,-280.16481 50.42047,48.95867 49.71894,98.72269 14.12976,164.47579 C 268.77241,500.95201 95.252558,435.83797 280.83874,85.247163 526.27401,161.93436 559.16238,583.63449 510.65953,539.91883 480.32104,535.15296 475.79756,387.18526 324.07745,247.98244 375.17674,305.45247 370.07287,355.59903 329.70892,407.9043 266.14254,505.92112 97.626435,443.13822 253.63342,89.352163 505.37648,141.91362 564.51979,580.41714 505.70489,552.7782 471.97866,551.82872 477.15979,408.08512 337.62201,250.98883 388.18394,318.01409 378.47295,368.49692 334.3128,406.37981 261.04002,511.42643 98.374266,448.40823 227.38055,96.057831 482.59572,123.81039 570.63617,575.50802 500.44352,565.17346 462.8116,567.76763 476.53445,429.30558 351.19535,255.53255 399.73864,332.99982 385.12696,383.71884 338.72545,406.44776 253.35543,517.14905 97.321252,451.70975 202.51548,105.10744 458.38293,107.97247 577.42617,568.80757 494.9434,577.08783 452.94477,582.91959 473.90161,450.61534 364.62969,261.6578 409.42557,350.241 389.54078,401.01522 342.92276,408.16886 243.00895,522.676 94.388516,453.03539 179.40043,116.15138 433.26624,94.628636 584.76634,560.22697 489.27297,588.5098 442.50597,597.25189 469.2773,471.78156 377.74703,269.39054 416.84822,369.49453 391.25592,420.03772 346.7996,411.5752 229.97541,527.51562 89.590057,452.30508 158.30857,128.76798 407.81989,83.873026 592.49438,549.69535 483.501,599.43217 431.62327,610.74832 462.71404,492.57573 390.35987,278.73548 421.64409,390.44455 389.87053,440.34231 350.18402,416.6683 214.31096,531.11682 83.033586,449.3734 139.41163,142.49005 382.62825,75.66013 600.4097,537.16989 477.69555,609.85229 420.42232,623.40839 454.29973,512.7808 402.27483,289.67449 423.50008,412.70712 385.06096,461.39954 352.85275,423.41345 196.17283,532.89365 74.922208,444.04355 122.77858,156.83164 358.25184,69.812616 608.2779,522.64504 471.92443,619.77034 409.02395,635.2459 444.15543,532.19731 413.29499,302.16408 422.16723,435.83826 376.60131,482.60883 354.54674,431.73401 175.83688,532.25394 65.556197,436.08769 108.38265,171.3125 335.19924,66.040046 615.83809,506.16208 466.25403,629.18997 397.54252,646.28712 432.43181,550.64866 423.22396,316.13418 417.47399,459.3472 364.38016,503.3184 354.98622,441.50444 153.70497,528.63173 55.334468,425.27367 96.113528,185.48026 313.90575,63.965747 622.81388,487.81816 460.7503,638.11615 386.08398,656.5691 419.30457,567.98582 431.86988,331.48721 409.33687,482.71081 348.41288,522.84957 353.88591,452.54605 130.30539,521.52128 44.751768,411.39418 85.796702,198.92503 294.72379,63.158626 628.92774,467.77269 455.47779,646.55552 374.74538,666.13717 404.96868,584.09121 439.04988,348.09728 397.76745,505.39263 328.84801,540.52431 350.96974,464.62378 106.28263,510.51088 34.389996,394.29654 77.213516,211.29035 277.92246,63.166217 633.91844,446.2493 450.50031,654.51501 363.61417,675.0429 389.63215,598.88094 444.59522,365.81157 382.87496,526.86253 305.96732,555.69432 345.98576,477.44614 82.379467,495.31449 24.904544,373.91354 70.123969,222.27544 263.69527,63.545807 637.55968,423.53435 445.88062,662.00135 352.76826,683.34201 373.51035,612.30506 448.35596,384.4513 364.8646,546.61701 280.17872,567.77023 338.72004,490.66828 59.408028,475.79696 17.002592,350.28955 64.286605,231.63577 252.17549,63.891533 639.67864,399.9705 441.68085,669.02021 342.27628,691.09244 356.81881,624.34777 450.20586,403.81443 344.03085,564.19932 252.00144,576.24918 329.01073,503.89678 38.216221,451.9933 11.415323,323.60245 59.477541,239.17718 243.45385,63.856182 640.17276,375.94331 437.9624,675.57532 332.19871,698.35241 339.76793,635.02526 450.04676,423.67943 320.74585,579.21741 222.04552,580.73784 316.75985,516.69917 19.647108,424.11687 8.8641678,294.17655 55.505374,244.75008 237.59595,63.167902 639.02219,351.86493 434.78604,681.66802 322.58914,705.17883 322.55761,644.38272 447.81248,443.80965 295.44446,591.35873 190.98614,580.9704 301.94367,528.61502 83.800322,501.96206 29.452905,411.64768 49.465409,392.09921"
       style="fill:none;stroke:#000000;stroke-width:2.54118514px;stroke-linecap:butt;stroke-linejoin:miter;stroke-opacity:1" />
  </g>
</svg>
