<?xml version="1.0" encoding="UTF-8" standalone="no"?>
<!-- Created with Inkscape (http://www.inkscape.org/) -->

<svg
   xmlns:dc="http://purl.org/dc/elements/1.1/"
   xmlns:cc="http://creativecommons.org/ns#"
   xmlns:rdf="http://www.w3.org/1999/02/22-rdf-syntax-ns#"
   xmlns:svg="http://www.w3.org/2000/svg"
   xmlns="http://www.w3.org/2000/svg"
   xmlns:sodipodi="http://sodipodi.sourceforge.net/DTD/sodipodi-0.dtd"
   xmlns:inkscape="http://www.inkscape.org/namespaces/inkscape"
   sodipodi:docname="Spiral059.svg"
   inkscape:version="0.48.2 r9819"
   version="1.1"
   id="svg2"
   height="1052.3622047"
   width="744.09448819">
  <sodipodi:namedview
     id="base"
     pagecolor="#ffffff"
     bordercolor="#666666"
     borderopacity="1.0"
     inkscape:pageopacity="0.0"
     inkscape:pageshadow="2"
     inkscape:zoom="0.45254834"
     inkscape:cx="145.33838"
     inkscape:cy="727.7967"
     inkscape:document-units="px"
     inkscape:current-layer="layer1"
     showgrid="false"
     inkscape:window-width="1024"
     inkscape:window-height="753"
     inkscape:window-x="25"
     inkscape:window-y="8"
     inkscape:window-maximized="0"
     inkscape:snap-center="false" />
  <title
     id="title6810">(UniballDeluxeFine)</title>
  <defs
     id="defs4" />
  <metadata
     id="metadata7">
    <rdf:RDF>
      <cc:Work
         rdf:about="">
        <dc:format>image/svg+xml</dc:format>
        <dc:type
           rdf:resource="http://purl.org/dc/dcmitype/StillImage" />
        <dc:title>(UniballDeluxeFine)</dc:title>
      </cc:Work>
    </rdf:RDF>
  </metadata>
  <g
     style="display:inline"
     inkscape:label="Pen"
     inkscape:groupmode="layer"
     id="layer1">
    <path
       id="path11911"
       d=""
       style="fill:none;stroke:#000000"
       inkscape:connector-curvature="0" />
    <path
       inkscape:connector-curvature="0"
       style="fill:none;stroke:#000000"
       d=""
       id="path13427" />
    <path
       inkscape:connector-curvature="0"
       style="fill:none;stroke:#000000"
       d=""
       id="path13431" />
  </g>
  <g
     style="display:inline"
     id="g3923"
     inkscape:groupmode="layer"
     inkscape:label="Sharpie">
    <flowRoot
       style="font-size:40px;font-style:normal;font-weight:normal;line-height:125%;letter-spacing:0px;word-spacing:0px;fill:#000000;fill-opacity:1;stroke:none;font-family:Sans"
       id="flowRoot6771"
       xml:space="preserve"><flowRegion
         id="flowRegion6773"><rect
           y="200.16124"
           x="89.70536"
           height="162.1597"
           width="104.65626"
           id="rect6775" /></flowRegion><flowPara
         id="flowPara6777" /></flowRoot>    <path
       style="fill:none;stroke:#000000;stroke-width:0.39312771px;stroke-linecap:butt;stroke-linejoin:miter;stroke-opacity:1"
       d="m 301.6795,719.83786 c 0.008,0.97572 -1.16569,1.92406 -2.34344,2.22447 -1.6554,0.47437 -2.76434,-0.83326 -2.52755,-2.55397 0.46591,-2.24849 2.63187,-3.62108 4.51932,-3.34688 2.36075,0.36331 3.58275,2.32705 3.10161,4.01394 -0.43686,1.9669 -2.85891,3.68903 -5.5248,4.47849 -3.22055,1.2209 -5.32197,-2.17333 -4.59512,-6.12313 1.38718,-4.3699 5.26774,-6.12344 8.38735,-4.90319 3.64206,1.36894 5.09956,4.9144 4.04104,7.35393 -1.00445,2.71094 -4.24245,4.6679 -8.02091,5.98722 -4.63608,2.58354 -7.71355,-4.52942 -6.4503,-10.50308 2.58911,-6.31014 8.04271,-7.73909 12.0564,-5.1754 4.63161,2.77251 5.7786,8.06906 4.05274,11.00333 -1.82058,3.26258 -5.39305,4.99569 -9.73259,6.5486 -5.75571,3.10156 -9.93292,-8.04545 -7.93861,-15.48334 4.13501,-7.86005 10.93826,-8.33215 15.46706,-4.15352 5.25249,4.5196 5.45223,11.63351 2.992,14.82373 -2.92627,3.58859 -6.34203,4.82495 -10.68121,6.21171 -6.96005,1.33786 -11.86368,-12.36482 -8.81682,-20.82769 6.0478,-8.93829 13.89198,-7.9392 18.53528,-1.99405 5.43592,6.5435 3.9952,15.40336 0.76748,18.61643 -4.31151,3.61632 -7.07442,4.26909 -10.9092,5.22969 -8.29266,-0.60774 -13.26075,-17.30783 -8.83233,-26.43139 8.28862,-9.47033 16.78187,-6.61396 21.1364,1.13526 5.12278,8.76688 1.32796,19.14183 -2.6594,22.14893 -5.92749,3.26206 -7.55362,3.4172 -10.42268,3.89296 -9.59156,-2.74167 -13.89258,-22.79227 -7.80681,-32.19775 10.76816,-9.37505 19.45258,-4.41207 23.13182,5.07155 4.26562,11.10275 -2.57926,22.59133 -7.27405,25.17221 -7.69329,2.4474 -7.73916,2.35049 -9.21436,2.45447 -10.73973,-5.13901 -13.57515,-28.7025 -5.63597,-37.96983 13.35904,-8.57941 21.73782,-1.40426 24.39142,9.64566 2.83034,13.45567 -7.70334,25.48417 -13.00853,27.43417 -9.50132,1.11019 -7.59723,1.15037 -7.29365,1.13403 -11.64318,-7.82778 -12.16776,-34.87103 -2.27355,-43.54194 15.90535,-7.03216 23.47528,2.31458 24.80738,14.67563 0.7978,15.72365 -13.96667,27.55347 -19.74258,28.69147 -11.22309,-0.78766 -7.10628,-0.0995 -4.70087,0.12969 -12.21944,-10.80053 -9.57191,-41.08995 2.27552,-48.68286 18.2309,-4.71336 24.51701,6.62259 24.30286,19.96684 -1.83498,17.80014 -21.23745,28.54379 -27.30607,28.72028 -12.71571,-3.25435 -6.26028,-1.31398 -1.51195,-0.37968 -12.39433,-14.02479 -5.73393,-47.12332 7.95694,-53.15274 20.14799,-1.64119 24.73738,11.37178 22.8371,25.31558 -5.05381,19.57652 -29.33183,28.22178 -35.4831,27.32599 -13.82925,-6.26403 -5.07,-2.40909 2.16182,-0.23678 -12.10198,-17.44916 -0.64824,-52.71836 14.66806,-56.71635 21.46651,2.12435 24.03921,16.39177 20.40853,30.51506 -8.82685,20.94457 -38.01794,26.38621 -44.01759,24.35221 -14.41505,-9.75461 -3.5635,-3.30482 6.1766,0.68898 -11.28615,-21.00686 5.64009,-57.61576 22.25956,-59.15362 22.00379,6.47958 22.3586,21.49474 17.0557,35.3622 -13.10437,21.79933 -47.02185,22.87729 -52.62049,19.68853 -14.33394,-13.62744 -1.78526,-3.92873 10.36075,2.4962 -9.90177,-24.61846 7.98923,3.88595 30.53889,-60.26938 -5.86586,-165.30663 19.66815,26.48183 12.85637,39.6651 -17.81909,22.04173 -56.03508,17.58481 -60.97812,13.27669 -13.46517,-17.74872 0.20531,-4.21891 14.52093,5.24659 -7.91663,-28.19428 -54.87,-17.93217 42.79768,-61.68847 28.69111,-162.0687 12.456,32.93658 4.40235,45.03693 -22.88686,21.58141 -64.72374,10.45489 -68.7618,5.11551 -11.71439,-21.9531 2.33618,-4.127 18.44936,8.96083 -5.31284,-31.63659 -100.83249,-80.49674 55.91892,-59.24749 59.70292,-144.6598 3.62537,36.61659 -5.30543,47.28705 -28.20773,20.33941 -72.73883,1.49502 -75.6382,-4.73611 -9.02142,-26.04898 4.52564,-3.62062 21.93191,13.61592 -2.08812,-34.8421 -105.40665,-167.22836 68.43459,-52.38948 81.09732,-114.80537 -5.55657,36.8491 -14.91231,45.81546 -33.66751,18.25073 -79.72746,-9.22271 -81.2802,-16.15812 -5.36655,-29.82548 6.68566,-2.68503 24.75684,19.14404 1.74309,-37.70439 -58.46833,-248.03061 78.6627,-41.12145 87.60968,-76.96853 -13.5896,33.49082 -22.84488,40.57056 -39.13969,15.26661 -85.34467,-21.56049 -85.37794,-28.96999 -0.77563,-33.06101 8.72556,-1.32437 26.72345,25.43281 6.14919,-40.11663 29.23027,-290.68653 84.91877,-26.09206 76.0513,-37.93725 -18.94598,27.00876 -27.52018,32.12739 -44.48773,11.35657 -89.26549,-35.31596 -87.64978,-42.93358 4.67678,-35.53294 10.55601,0.43804 27.65108,32.3274 11.08094,-41.97433 127.93647,-274.58335 85.75465,-8.58625 46.35221,-5.82529 -20.30424,18.47917 -27.58265,21.68295 -49.56767,6.51029 -91.19673,-50.22512 -87.85269,-57.75781 10.86626,-37.02795 12.09286,2.56017 27.38734,39.6343 16.47175,-43.17797 199.23762,-201.01989 80.19166,9.56986 2.10935,11.3887 -16.77771,9.49746 -22.13522,10.9623 -54.23101,0.73893 -90.88833,-65.96787 -85.79183,-73.10527 17.61952,-37.35284 13.26103,4.98253 25.81591,47.12658 22.23802,-43.63592 211.27806,-95.28758 67.91409,26.18806 -49.56036,7.53615 -8.10451,2.00493 -10.93123,2.04085 -58.32782,-5.924 -88.14365,-82.17541 -81.32894,-88.60036 24.71765,-36.34535 13.99799,7.63003 22.86311,54.5505 28.28033,-43.26711 152.84377,1.19547 49.3935,38.96449 -98.93455,-20.18491 5.23079,-1.95132 5.50301,-2.90059 -61.71009,-13.422 -82.82847,-98.43931 -74.38933,-103.83911 31.90192,-33.88425 14.25683,10.41474 18.50348,61.63371 34.48458,-42.00357 40.23882,46.33341 25.92124,45.76566 -135.28615,-70.12223 21.9662,-0.49769 25.83712,-1.86015 -64.23518,-21.67552 -74.87856,-114.32236 -64.96726,-118.40007 38.88126,-29.89827 14.00886,13.23924 12.76366,68.0941 40.72383,-39.79284 -86.6095,14.62215 -0.46293,44.92075 -148.92486,-135.84847 40.13428,7.78063 48.00897,6.69512 -65.76916,-30.58263 -64.30498,-129.3709 -53.12912,-131.85628 45.34226,-24.37396 13.24545,16.00014 5.72465,73.64966 46.86049,-36.6002 -178.177706,-90.78993 -27.14412,35.48196 -133.313661,-206.778 57.23445,23.58644 69.39909,23.57062 -66.19016,-40.01963 -51.19747,-143.12778 -39.01483,-143.78755 50.96042,-17.36129 11.97911,18.5923 -2.47761,78.02864 52.74865,-32.41054 -194.59883,-236.69241 -51.19557,17.41806 -86.8277,-269.71545 70.49446,46.72361 87.09442,48.65309 -65.39184,-49.84295 -35.72552,-155.14619 -22.83695,-153.79332 55.41295,-8.97697 10.24387,20.91311 -11.65367,80.9799 58.23697,-27.22977 -122.67783,-370.53917 -69.7037,-8.28813 -13.75143,-311.13617 77.19272,76.00644 98.21386,80.81543 -63.2864,-59.89062 -18.13695,-165.00367 -4.87768,-161.50512 58.39231,0.5945 8.09464,22.86681 -21.5639,82.28307 63.17165,-21.0861 16.46202,-439.93646 -80.12127,-39.659 75.78422,-319.82197 75.0073,109.28478 100.26139,117.93824 -59.80741,-69.98503 1.2459,-172.31565 14.51645,-166.59854 59.62018,11.1028 5.60586,24.3686 -31.92351,81.75808 67.39961,-14.03065 172.953,-413.66734 -80.60644,-73.86288 167.03399,-289.36068 62.34969,143.59007 91.46511,157.05303 -54.91261,-79.93571 22.03228,-176.74863 34.94156,-168.80444 58.86118,22.23636 2.86933,25.34862 -42.40956,79.27385 70.77194,-6.13776 285.7491,-295.88442 -70.30598,-107.47006 242.92484,-219.99514 38.64271,175.39605 71.05974,194.60054 -48.58578,-89.54245 43.77178,-178.03225 55.94601,-167.91882 55.93571,33.62998 -0.008,25.75542 -52.66944,74.75574 73.14721,2.49532 306.00688,-127.24386 -49.54475,-136.80068 287.06119,-119.38454 4.50315,200.97016 39.47534,226.78096 -40.83857,-98.59909 65.96473,-175.96952 77.04103,-163.811 50.73165,44.87479 -2.91208,25.55871 -62.33078,68.19158 74.39498,11.74904 217.34419,28.41592 -19.89201,-158.33009 286.92893,-2.0116 -38.19898,216.78129 -1.59741,249.96146 -31.7118,-106.89702 88.07456,-170.44577 97.71295,-156.43023 43.2142,55.53102 -5.71694,24.75159 -71.01229,59.63577 74.39909,21.48302 44.66603,107.55311 15.91226,-169.10836 236.69287,112.78193 -86.42161,219.9208 -49.28227,261.09789 -21.27617,-114.22973 109.54195,-161.43508 117.4366,-145.80997 33.43304,65.14247 -8.29837,23.35189 -78.33588,49.21183 73.06099,31.53741 -152.72449,71.90871 54.17124,-167.14568 139.00989,203.88615 -136.17198,208.48782 -99.73295,258.12182 -9.6322,-120.39665 129.79956,-149.00433 135.68954,-132.06989 21.52703,73.25287 -10.53423,21.40248 -83.93866,37.11222 70.30255,41.73557 -302.0463763,-74.7966 90.57136,-151.71699 5.41332,252.14967 -182.85469,181.89296 -148.47494,240.24754 3.08969,-125.20762 148.28771,-133.31514 151.96602,-115.41601 7.72571,79.42331 -12.31029,18.97092 -87.4855,23.59683 66.06896,51.8863 -344.613895,-285.58867 120.61652,-123.54566 -144.93124,244.08825 -221.71298,141.03983 -190.8421,208.15646 16.73095,-128.48706 164.47082,-114.6223 165.79199,-96.13741 -7.65278,83.24981 -13.52511,16.14783 -88.68111,8.98848 60.33097,61.78711 -259.625949,-485.85528 140.11512,-84.83657 -287.9991,174.86673 -248.32308,88.35412 -222.46571,164.03193 31.10613,-130.07817 177.85276,-93.27015 176.73853,-74.6014 -24.20699,84.38129 -14.09461,13.04458 -87.2815,-6.33327 53.08694,71.22772 -74.58056,-600.7285706 145.66573,-39.14679 -398.815112,49.93796 -259.08617,27.64992 -239.76269,111.43084 46.00508,-129.8467 187.9922,-69.68589 184.43497,-51.24609 -41.46111,82.53618 -13.95611,9.79003 -83.10443,-21.94032 44.36433,79.99366 142.55385,-584.203916 135.08914,8.90351 C 0.70087326,500.29817 204.88249,579.20963 216.17859,670.36952 277.37444,542.68469 410.695,625.99881 404.75923,643.79882 c -58.87717,77.51773 -13.07196,6.52633 -76.03837,-37.36647 34.22051,87.87031 307.39137,-438.69153 107.75343,54.0557 -445.1116269,-296.36882 -225.31952,-97.51964 -223.47301,0.0276 76.42835,-123.51443 197.13384,-17.88787 188.95493,-1.12377 -75.87033,69.22709 -11.43208,3.40429 -66.04991,-52.11907 22.74349,94.64709 350.93515,-216.83809 64.75112,90.93496 C 37.465918,232.65027 219.58131,547.49646 210.67318,650.17768 c 91.43741,-117.29012 195.64436,9.15005 185.42534,24.50941 -91.82696,57.67364 -9.05593,0.578 -53.18906,-65.69225 10.05154,100.12193 247.15253,-3.94162 8.89877,114.61815 C 133.24488,129.25111 230.06703,533.13386 209.26145,639.4471 c 105.94806,-109.00135 189.94758,36.09753 177.95359,49.72219 -106.12465,42.98186 -5.99333,-1.8007 -37.59237,-77.58101 -3.70745,104.10515 25.37968,113.24224 -55.44925,121.18608 C 263.3126,73.216915 242.4629,520.20862 208.82322,628.4243 c 119.6793,-98.67435 180.04823,62.29193 166.59884,73.90154 -118.15387,25.3946 -2.32412,-3.58814 -19.48347,-87.29594 -18.35731,106.424 -238.05058,79.88562 -122.76478,108.20132 171.89709,-647.311463 23.39358,-214.20296 -23.7694,-106.01387 132.34937,-86.37342 166.05883,87.07143 151.51869,96.44426 -127.34038,5.27219 1.84313,-4.65468 0.82854,-94.37832 C 328.05601,726.21015 -85.023852,515.13341 174.89657,694.33693 532.61986,138.2571 272.12957,499.87141 211.03875,605.94077 354.71999,533.73934 359.23828,715.73349 344.00609,722.71382 210.83808,705.80093 350.37958,717.8237 366.95972,624.2992 317.4636,729.78598 -153.47312,242.77775 125.48697,647.42837 621.49136,249.96704 288.85365,492.9793 213.74699,594.7141 367.15411,538.41443 340.54164,724.56313 325.03807,729.06637 189.83806,688.48124 336.14732,724.85744 371.46574,630.0157 305.95388,732.02098 -54.817819,-26.613388 90.503023,585.7927 653.34384,391.03288 306.40387,488.54956 217.53622,583.66029 c 161.27427,-38.84685 102.26625,146.68742 86.92112,148.7031 -133.0996,-65.07991 15.87433,-2.55487 70.72174,-96.00458 -81.47883,96.41545 -194.00535,-830.4591 -300.880764,-121.93522 545.417574,20.58653 250.113764,-27.69451 148.100844,58.48105 167.0502,-20.05807 75.12547,159.82428 60.36427,159.41672 -126.64745,-89.66101 20.47976,0.0955 95.25374,-89.07822 -97.11997,88.6847 92.82441,-838.37396 -298.514542,-203.65819 444.574342,214.1462 262.981982,48.02389 148.811522,122.98742 170.52739,-0.18182 45.96002,168.86067 32.19099,166.16715 -115.75666,-113.5416 24.72949,3.72985 119.40169,-78.16668 C 267.75708,729.38972 706.22711,-25.819179 106.65912,368.21675 381.704,722.55146 360.2116,491.2196 235.24481,552.78744 c 171.52854,20.5029 15.42036,173.49423 3.02154,168.72086 -100.48322,-135.9079 28.42723,8.29874 142.51922,-63.26566 -126.27877,66.85387 414.5245,-405.37602 -226.72032,-351.00059 63.2442,417.91849 223.11044,190.28737 89.07492,236.42869 169.91041,41.68978 -15.79671,173.52924 -26.48915,166.9446 -81.03293,-155.94636 31.38331,13.71493 163.95177,-44.4763 C 241.38358,719.01556 697.8837,535.60087 217.84295,262.84323 60.774446,657.01918 392.962,506.44203 251.93493,535.33833 c 165.56824,63.04985 -46.96591,168.88394 -55.66814,160.81069 -57.76274,-172.86943 33.42164,19.85431 183.05397,-22.00734 -150.68965,37.005 63.79891,36.89797 -87.07903,-434.36048 -350.523693,286.92682 114.92659,278.01557 -30.69169,288.11847 158.43877,84.2364 -77.35279,159.59462 -83.84202,150.39938 -31.17722,-185.94635 34.3869,26.5582 199.20754,3.82573 -160.42072,19.39831 -255.59076,21.95337 -6.7642,-441.28915 -486.25983,114.00674 49.26328,290.53522 -98.25848,280.62067 148.50364,104.88993 -106.23249,145.81643 -110.35397,135.89807 -1.92031,-194.52778 34.15101,33.6367 211.83884,32.6045 C 205.21748,690.21189 -148.00211,505.9723 443.78109,266.4268 -99.543036,170.65908 429.35314,546.88182 282.85883,516.09988 418.64957,640.74418 149.94846,643.92125 148.27703,633.69864 177.5159,435.62378 180.8959,674.57158 368.71294,697.51224 195.03427,677.31383 -260.54903,180.33067 505.43803,314.4686 -8.9144912,6.8312165 436.67744,563.99284 294.33184,511.91071 414.70785,655.04358 137.59112,617.90326 138.37699,607.80136 199.80211,411.62035 168.11138,655.83141 362.94201,704.65292 186.16835,662.96245 -167.51222,-158.27133 548.32953,380.47766 141.50264,-106.57078 441.13116,582.3189 306.18584,508.95684 408.56965,668.951 129.04092,589.77193 132.21667,580.20876 225.89659,391.61477 157.70047,635.06543 356.10141,711.2503 178.82618,647.32262 103.68577,-385.9306 567.30406,457.93699 325.65866,-147.85672 442.51535,601.43397 318.28599,507.29227 400.27285,682.17121 124.65805,560.15708 130.08409,551.53029 255.07326,376.29837 149.98323,612.62552 348.24288,717.17703 278.69263,731.67294 176.84779,635.22435 209.0209,501.77955"
       id="path7283"
       inkscape:connector-curvature="0"
       sodipodi:nodetypes="csssssssssssssssssssssssssssssssssssssssssssssssssssssssssssssssssssssssssssssssssssssssssssssssssssssssssssssssssssssssssssssssssssssssssssssssssssssssssssssssssssssssssssssssssssssssssssssssssssssssssssssssssssssssssssssssssssssssssssssc" />
  </g>
  <g
     style="display:inline"
     inkscape:label="Silver"
     id="layer4"
     inkscape:groupmode="layer" />
  <g
     inkscape:groupmode="layer"
     id="layer3"
     inkscape:label="Gel"
     style="display:inline" />
  <g
     inkscape:groupmode="layer"
     id="layer5"
     inkscape:label="Pencil"
     style="display:inline" />
  <g
     style="display:inline"
     inkscape:label="Gold"
     id="layer2"
     inkscape:groupmode="layer">
    <path
       inkscape:connector-curvature="0"
       style="fill:none;stroke:#000000"
       d=""
       id="path7370" />
    <path
       inkscape:connector-curvature="0"
       style="fill:none;stroke:#000000"
       d=""
       id="path7382" />
  </g>
  <path
     id="path3389"
     d=""
     style="fill:none;stroke:#000000"
     inkscape:connector-curvature="0" />
  <path
     id="path3403"
     d=""
     style="fill:none;stroke:#000000"
     inkscape:connector-curvature="0" />
  <path
     inkscape:connector-curvature="0"
     style="fill:none;stroke:#000000"
     d=""
     id="path3499" />
  <path
     inkscape:connector-curvature="0"
     style="fill:none;stroke:#000000"
     d=""
     id="path3513" />
  <path
     id="path3692"
     d=""
     style="fill:none;stroke:#000000;stroke-width:1.19536245"
     inkscape:connector-curvature="0" />
  <path
     id="path3706"
     d=""
     style="fill:none;stroke:#000000;stroke-width:1.19536245"
     inkscape:connector-curvature="0" />
</svg>
