<?xml version="1.0" encoding="UTF-8" standalone="no"?>
<!-- Created with Inkscape (http://www.inkscape.org/) -->

<svg
   xmlns:dc="http://purl.org/dc/elements/1.1/"
   xmlns:cc="http://creativecommons.org/ns#"
   xmlns:rdf="http://www.w3.org/1999/02/22-rdf-syntax-ns#"
   xmlns:svg="http://www.w3.org/2000/svg"
   xmlns="http://www.w3.org/2000/svg"
   xmlns:sodipodi="http://sodipodi.sourceforge.net/DTD/sodipodi-0.dtd"
   xmlns:inkscape="http://www.inkscape.org/namespaces/inkscape"
   width="744.09448819"
   height="1052.3622047"
   id="svg2"
   version="1.1"
   inkscape:version="0.48.2 r9819"
   sodipodi:docname="spiral035.svg">
  <sodipodi:namedview
     id="base"
     pagecolor="#ffffff"
     bordercolor="#666666"
     borderopacity="1.0"
     inkscape:pageopacity="0.0"
     inkscape:pageshadow="2"
     inkscape:zoom="0.24748737"
     inkscape:cx="174.60265"
     inkscape:cy="684.75299"
     inkscape:document-units="px"
     inkscape:current-layer="layer1"
     showgrid="false"
     inkscape:window-width="694"
     inkscape:window-height="711"
     inkscape:window-x="186"
     inkscape:window-y="9"
     inkscape:window-maximized="0" />
  <defs
     id="defs4" />
  <metadata
     id="metadata7">
    <rdf:RDF>
      <cc:Work
         rdf:about="">
        <dc:format>image/svg+xml</dc:format>
        <dc:type
           rdf:resource="http://purl.org/dc/dcmitype/StillImage" />
        <dc:title />
      </cc:Work>
    </rdf:RDF>
  </metadata>
  <g
     inkscape:label="Layer 1"
     inkscape:groupmode="layer"
     id="layer1">
    <path
       inkscape:connector-curvature="0"
       style="fill:none;stroke:#000000;stroke-width:0.49997038px;stroke-linecap:butt;stroke-linejoin:miter;stroke-opacity:1"
       d="m 456.86984,271.12006 c 0.0658,0.30621 3.26196,18.04259 4.55056,33.11785 -0.58628,23.36627 -2.27554,36.24302 -1.54493,31.63658 0.85836,-6.9738 0.90844,-41.19708 -4.40932,-70.40485 -13.77014,-35.80351 -22.76387,-51.54714 -16.8412,-41.54841 5.8241,11.47758 20.22162,56.98902 22.56887,98.83447 -10.18091,47.8088 -21.70414,72.23649 -15.26563,59.99535 7.0033,-17.42649 15.15351,-84.79379 1.32539,-141.15996 -36.42159,-55.92433 -57.35198,-75.30639 -38.8797,-58.46407 15.74793,18.47819 48.46156,88.13122 50.96994,155.79066 -27.23434,67.49783 -55.46746,97.85758 -39.90381,83.30385 18.01163,-23.73814 41.73394,-123.09175 15.13368,-205.33808 -67.66041,-66.56358 -100.99605,-82.56338 -65.79809,-65.39383 28.2953,20.9134 85.07029,108.72511 87.70247,201.24196 -49.10082,81.00895 -97.33972,108.5578 -72.89305,97.8658 31.86194,-24.17892 77.5117,-152.48292 33.19649,-258.26865 C 312.87537,127.73327 270.12871,121.05227 322.9477,130.68487 364.59823,149.0813 449.62949,247.95385 453.10297,364.29219 379.95118,452.37652 313.10029,467.67571 342.80791,465.57822 388.55428,447.7134 460.80009,294.79053 393.43703,169.16898 252.984,120.76342 206.06812,126.84567 274.08099,121.34536 c 54.09129,11.15166 169.86057,113.35523 175.54251,252.40038 -97.16246,89.36418 -176.89045,84.85669 -147.44678,93.02115 56.57663,-5.26433 157.95842,-177.73689 62.23144,-317.90113 -172.16089,-18.26434 -217.33614,1.0069 -139.27217,-25.66305 64.19411,-0.0861 211.41682,97.52075 221.21409,258.0592 -119.51827,86.05736 -203.72577,58.00741 -179.85173,74.59658 61.68801,11.69494 192.33807,-175.14592 63.46729,-322.84146 -194.25525,23.62644 -232.579003,53.79291 -151.32864,2.27373 70.94914,-14.2443 248.62569,71.04307 264.87237,251.72117 -139.25912,79.62032 -219.25787,28.79663 -204.12801,49.37036 59.56086,29.91467 217.12312,-166.6317 51.47168,-313.14858 -203.0721,73.43385 -231.242868,110.35554 -154.29158,32.93408 73.79609,-30.09124 279.35075,35.71446 304.69446,234.98734 -156.00049,71.49663 -225.00139,2.49923 -218.75647,21.83363 50.33509,45.79027 230.09233,-156.86317 25.81571,-292.00479 C 51.718657,247.25568 34.777374,286.05463 100.30855,184.12676 172.90781,137.73346 402.39646,177.75297 439.68405,393.8295 269.89321,456.77769 215.51218,376.45354 215.31291,390.43254 251.20708,446.5305 446.39817,239.94123 204.0665,127.42085 29.364914,304.35185 22.638426,340.44386 70.727924,217.37428 138.30868,155.33889 386.67547,164.3545 438.83799,395.14774 257.8876,450.12049 218.53338,365.8119 215.409,372.56102 234.8005,431.36896 437.08375,221.4912 160.19567,143.21852 21.12616,363.83223 22.023637,393.675 48.186704,254.16951 107.41836,178.06898 368.78254,152.10726 438.72033,395.19662 248.79243,443.487 222.63285,361.76105 219.43636,361.69195 223.70874,415.16181 423.71024,201.33971 119.00592,168.44386 26.167812,421.9825 31.209961,443.45886 32.657257,292.92138 80.875715,205.00985 348.82978,141.42897 439.29926,394.03792 242.10728,437.4123 226.55282,363.49931 224.40972,358.65366 217.43804,399.59379 405.32162,180.40303 82.809183,202.48988 42.740587,475.82267 48.23561,488.28332 23.81085,332.24809 59.104658,235.20867 327.00966,132.71804 440.51346,391.71216 237.35375,432.2134 230.45557,369.9104 229.0388,363.36713 215.05839,385.98198 381.07398,160.01522 53.700828,244.08741 68.5552,523.25923 71.138029,527.31521 21.10729,371.00473 42.3291,267.71608 303.59246,126.33635 442.27619,388.24319 234.11744,428.04729 235.40108,379.66921 234.65058,375.23969 215.41767,375.17406 350.413,141.94899 33.347471,291.40009 101.13359,563.08684 98.11232,560.26449 23.873936,408.28761 30.592945,301.62211 278.91957,122.59235 444.47854,383.64313 232.0654,424.96321 242.56462,391.17629 245.04324,392.50111 217.37179,367.54266 313.2881,128.36297 22.820962,342.19333 138.08998,594.87989 127.60003,587.24055 31.371389,443.4213 23.784732,336.08313 253.39177,121.72562 446.99198,377.91864 230.94718,422.94377 252.56015,402.67014 264.65417,410.84055 219.97926,363.05868 270.36797,121.64451 22.505761,394.04959 177.32193,618.82323 158.32377,608.62042 42.844792,475.93526 21.66389,370.34206 227.4549,123.89422 449.67116,371.07651 230.58764,421.93459 265.15929,412.57071 295.558,423.10008 222.61796,361.40262 223.20512,124.13606 32.090405,444.60093 217.11212,635.5235 189.28465,624.93958 57.561571,505.53501 23.887377,403.74056 201.58128,129.16556 452.35677,363.1297 230.87605,421.86339 279.43091,419.83574 334.9971,421.10718 224.9999,362.06706 174.28001,137.76185 50.641378,491.74066 256.15714,645.83448 219.73687,636.80823 74.837312,532.07167 30.035253,435.7267 176.25035,137.51174 454.8789,354.10322 231.75468,422.65073 294.10905,424.1266 374.91686,398.96521 227.08692,364.42243 126.86861,163.61354 76.742099,533.78773 293.54341,650.71335 249.15076,644.85116 94.051602,555.51202 39.634517,465.85644 151.92752,148.80959 457.06138,344.03865 233.20838,424.2145 307.96456,425.74278 403.93104,356.20944 228.94031,367.75633 84.703274,201.5887 108.67112,569.58455 c 220.02134,81.53008 168.50134,80.08447 5.98519,6.32693 C 52.180474,493.79163 129.04412,162.84569 458.72658,332.99849 235.255,426.47011 320.0461,425.40563 411.11229,299.27231 230.56751,371.31946 51.456217,250.19355 144.58938,598.52284 c 216.7028,49.40013 158.99595,53.29222 -8.41155,-5.1326 C 67.155311,519.29459 107.97934,179.32566 459.70102,321.0692 237.937,429.32789 329.76149,424.00153 390.19095,240.33432 231.83664,374.40142 30.138845,306.60034 182.71068,620.5062 391.22684,641.91634 328.27538,651.78434 158.21532,608.11305 84.043811,542.22054 89.044407,197.88782 459.82166,308.36224 241.31319,432.68919 336.83886,422.36569 342.39668,193.69807 232.50247,376.43086 22.557624,366.98789 221.43673,635.86524 418.51463,633.75494 351.20267,650.01067 180.43614,620.2729 102.34622,562.50843 72.471437,218.1191 458.94223,295.01471 245.45056,436.44216 341.23102,421.14128 276.56753,170.96608 232.32754,377.08536 28.969942,427.11341 259.44496,645.2436 443.25545,623.98612 372.37807,646.86912 202.5696,630.07781 121.58813,580.17043 58.405985,239.57347 456.93971,281.18678 250.41565,440.4584 343.01762,420.7134 206.25409,176.9862 231.21817,376.41485 48.037874,482.98295 295.73241,649.47873 465.5913,613.05943 391.84572,642.68107 224.40012,637.74127 141.32798,595.28151 46.904603,261.79073 453.72026,267.05878 256.26521,444.5912 342.33717,421.20081 144.92251,208.32276 229.27115,374.99056 77.08991,531.45655 329.6174,649.48834 485.67751,601.34767 409.66955,637.7212 245.75987,643.47427 161.16216,607.96819 37.93713,284.31425 449.22431,252.82606 263.0372,448.67641 339.35925,422.48644 101.32509,254.88835 226.70049,374.04442 112.6114,570.64407 360.71278,646.1776 503.66468,589.16851 425.92399,632.22419 266.52195,647.48067 180.72776,618.39842 31.392857,306.70739 443.43039,238.69243 270.74147,452.53577 334.2908,424.27326 77.105967,303.83564 223.81602,375.4904 150.82554,600.01664 388.8805,640.37087 519.68818,576.8051 440.68741,626.39116 286.59374,649.95321 199.7039,626.77071 27.090104,328.56779 436.35741,224.86294 279.35232,455.98388 327.4007,426.15696 67.657918,343.6942 221.40453,381.69018 188.21826,620.24322 414.17719,632.76669 533.86386,564.52391 454.0378,620.39595 305.91098,651.07153 217.81113,633.3053 24.788883,349.53689 428.06528,211.53627 288.80272,458.8375 319.04295,427.70922 65.667339,366.81028 221.63362,394.76265 221.90356,632.83471 436.80035,623.91637 546.28771,552.58867 466.05018,614.38933 324.43258,651.00109 234.80973,638.23462 24.204742,369.30766 418.65335,198.8965 298.98207,460.92723 309.6628,428.56262 65.531348,369.53434 228.82441,415.13761 249.79298,639.70584 457.03849,614.22023 557.03771,541.27011 476.79496,608.50334 342.1359,649.8929 250.49704,641.79562 25.023726,387.62757 408.25745,187.10603 309.73735,462.11018 299.77546,428.48486 66.52909,351.38767 248.74364,439.4795 270.59398,642.75947 475.2287,603.93565 566.17586,530.85136 486.33698,602.85419 359.01306,647.88333 264.70388,644.22247 26.917072,404.29792 397.04506,176.29924 320.87876,462.28234 289.91919,427.42817 73.290291,314.95886 285.53884,459.3718 283.70589,643.56574 491.72198,593.19458 c 82.02717,-71.56511 3.01356,4.34935 -116.65452,51.9007 C 277.29072,645.73972 29.55517,419.17142 385.20907,166.57724 332.18882,461.38898 280.59409,425.54223 93.293701,266.81217 337.42626,462.90077 289.08728,643.17061 506.8562,582.02455 579.78805,513.91321 502.04383,592.6629 390.31105,641.63856 288.1431,646.55629 32.62012,432.14607 372.96122,158.0051 c -29.52646,301.42685 -100.7557,265.14202 -240.50835,59.82191 261.80752,221.93058 154.69822,424.21533 388.4816,352.54569 63.36701,-62.35522 -12.62525,17.91689 -116.17234,67.23851 -107.59444,9.2496 -368.945497,-194.45317 -44.23774,-487.00112 -6.1421,305.86277 -95.49313,270.063 -169.63355,30.66762 248.87729,206.09643 87.8202,458.8686 343.31876,376.85099 53.05865,-53.87405 -20.63641,26.36318 -115.76598,74.97168 C 304.28789,646.81624 38.881022,452.1734 348.12538,144.38244 c 16.6845,308.24888 -88.90264,274.20041 -86.96875,24.28896 196.90474,145.26615 3.80555,468.4578 285.71549,376.47642 41.7522,-42.22462 -29.00059,36.17896 -115.49082,83.03552 -121.94089,18.37234 -389.792945,-169.00363 -95.39277,-488.90549 38.53267,308.80099 -81.15018,278.01709 -5.94603,45.96704 110.65854,50.65293 -82.58918,447.33332 229.00011,346.02822 29.20408,-26.98022 -37.80848,47.56751 -115.43972,91.6557 -131.03089,23.25 -399.845099,-158.75089 -119.27338,-487.70742 59.02533,307.80725 -72.43646,281.90138 58.97216,92.36312 -9.54635,176.04889 -143.92335,200.42904 -33.69924,-83.34454"
       id="path4254" />
  </g>
</svg>
