<?xml version="1.0" encoding="UTF-8" standalone="no"?>
<!-- Created with Inkscape (http://www.inkscape.org/) -->

<svg
   xmlns:dc="http://purl.org/dc/elements/1.1/"
   xmlns:cc="http://creativecommons.org/ns#"
   xmlns:rdf="http://www.w3.org/1999/02/22-rdf-syntax-ns#"
   xmlns:svg="http://www.w3.org/2000/svg"
   xmlns="http://www.w3.org/2000/svg"
   xmlns:sodipodi="http://sodipodi.sourceforge.net/DTD/sodipodi-0.dtd"
   xmlns:inkscape="http://www.inkscape.org/namespaces/inkscape"
   sodipodi:docname="letter sized frame blank.svg"
   inkscape:version="0.48.2 r9819"
   version="1.1"
   id="svg3783"
   height="1052.3622047"
   width="744.09448819">
  <title
     id="title3277">baker</title>
  <sodipodi:namedview
     id="base"
     pagecolor="#ffffff"
     bordercolor="#666666"
     borderopacity="1.0"
     inkscape:pageopacity="0.0"
     inkscape:pageshadow="2"
     inkscape:zoom="0.35"
     inkscape:cx="-281.17607"
     inkscape:cy="622.60178"
     inkscape:document-units="px"
     inkscape:current-layer="layer1"
     showgrid="false"
     inkscape:window-width="1024"
     inkscape:window-height="748"
     inkscape:window-x="10"
     inkscape:window-y="-16"
     inkscape:window-maximized="0" />
  <defs
     id="defs3785">
    <inkscape:perspective
       sodipodi:type="inkscape:persp3d"
       inkscape:vp_x="-314.90439 : 155.3937 : 0"
       inkscape:vp_y="0 : 1000 : 0"
       inkscape:vp_z="372.04724 : 175.3937 : 0"
       inkscape:persp3d-origin="334.90438 : 296.50168 : 1"
       id="perspective3823" />
  </defs>
  <metadata
     id="metadata3788">
    <rdf:RDF>
      <cc:Work
         rdf:about="">
        <dc:format>image/svg+xml</dc:format>
        <dc:type
           rdf:resource="http://purl.org/dc/dcmitype/StillImage" />
        <dc:title>baker</dc:title>
      </cc:Work>
    </rdf:RDF>
  </metadata>
  <g
     inkscape:label="Layer 1"
     inkscape:groupmode="layer"
     id="layer1">
    <flowRoot
       xml:space="preserve"
       id="flowRoot3475"
       style="fill:black;stroke:none;stroke-opacity:1;stroke-width:1px;stroke-linejoin:miter;stroke-linecap:butt;fill-opacity:1;font-family:Sans;font-style:normal;font-weight:normal;font-size:40px;line-height:125%;letter-spacing:0px;word-spacing:0px"><flowRegion
         id="flowRegion3477"><rect
           id="rect3479"
           width="474.7717"
           height="76.771591"
           x="40.406101"
           y="840.23016" /></flowRegion><flowPara
         id="flowPara3481" /></flowRoot>    <path
       style="fill:none;stroke:#000000;stroke-width:1.78587782px;stroke-linecap:butt;stroke-linejoin:miter;stroke-opacity:1"
       d="m 498.27361,444.84741 c -0.24953,2.8352 -11.81944,8.1181 -14.04019,5.15044 -3.65376,-4.87492 -1.03185,-2.93767 0.0357,-5.65943 1.40752,-3.93564 2.48014,-8.38986 7.00522,-2.14892 5.70443,7.85429 -424.841509,84.82476 -421.596879,93.45591 4.290931,10.89043 416.623719,-68.59561 410.298459,-78.87731 -7.98546,-12.56844 -20.27915,-20.43562 -16.97337,-25.43248 3.5025,-6.36436 13.92766,-11.91068 23.12292,0.94883 9.9634,13.89089 -421.356369,66.56736 -416.34519,83.7844 6.586537,20.01173 399.95224,-46.06809 389.82873,-63.8979 -12.42713,-20.31362 -17.9124,-41.8468 -12.31904,-48.81505 5.36791,-8.82003 22.4546,0.6655 36.57,19.86346 14.27823,19.16919 -377.96421,82.26097 -372.16748,108.25806 8.29456,29.3877 348.85519,-53.57606 335.19418,-79.09415 -16.98321,-27.90693 -24.75307,-56.31215 -16.86258,-65.21427 7.03893,-11.32976 30.21121,0.88626 49.50256,26.1059 18.64451,23.65355 -412.129055,30.44156 -406.574325,65.31963 9.411944,39.01389 368.754465,-6.17033 351.801735,-39.43671 -21.64152,-35.06684 -31.89674,-69.78057 -21.73983,-80.78953 8.50872,-13.9517 37.94432,0.59258 62.6629,31.49181 23.04765,27.31986 -393.984127,27.18843 -389.739083,70.95444 9.93822,48.85221 363.089183,21.41293 343.079233,-19.55628 -26.3563,-41.51874 -39.2696,-81.99486 -26.93469,-95.46499 9.75602,-16.74235 45.61709,-0.32667 76.006,35.88715 27.46169,30.1611 -390.131009,9.52676 -388.294266,62.07377 9.879147,58.85391 356.082286,47.74474 333.244976,-0.73752 -31.05224,-47.03684 -46.77712,-92.77892 -32.42115,-109.21378 10.75126,-19.75407 53.1776,-1.9752 89.46931,39.16581 31.852,32.18505 -383.931873,-6.57862 -385.619213,54.50645 9.248099,68.96453 347.805333,72.7404 322.381323,17.12481 -35.64085,-51.47991 -54.32511,-102.04699 -38.17435,-122.06265 11.46015,-23.03547 60.56075,-4.45433 102.97487,41.20424 C 507.82844,397.1528 96.228037,342.8137 89.901888,412.03804 97.9685,491.16422 428.23902,508.39156 400.50213,446.22543 360.46014,391.41712 338.66179,336.42185 356.31873,312.13868 368.169,285.50983 424.00985,304.27109 472.75106,354.01558 513.14885,387.88479 108.08873,320.70798 96.032371,397.50101 102.3972,486.781 423.92732,516.41505 394.08022,448.14247 349.88028,391.06877 324.79775,332.01561 343.619,302.75404 c 11.90013,-30.55965 74.4871,-12.32456 129.74388,41.0532 44.46695,33.59724 -351.74192,-43.49755 -370.5708,40.11103 4.18141,99.36783 317.13376,141.2398 284.89816,66.68005 -48.08647,-58.38486 -76.64119,-121.13565 -57.04631,-156.06405 11.6083,-34.80892 80.86664,-17.94129 142.81144,38.59868 48.34409,32.64077 -336.78002,-51.27861 -363.34611,38.20596 1.56334,109.33398 306.47105,163.43969 271.33713,82.46463 -51.69087,-58.86696 -83.91874,-124.95469 -63.99524,-166.17461 10.97724,-39.2677 86.75019,-24.83788 155.54388,34.38019 51.99091,31.05202 -319.92611,-56.44154 -355.08631,37.79644 -1.43479,119.12709 296.28157,185.42546 257.5464,98.10927 -55.00666,-58.63525 -91.11112,-127.69542 -71.37087,-175.73742 9.93217,-43.71887 92.05263,-33.13465 167.86016,28.27528 55.37385,28.88877 -301.35923,-58.79671 -345.83166,38.9008 -4.75155,128.70145 287.03748,207.1994 243.69347,113.68258 -58.02373,-57.78644 -98.19564,-129.45318 -79.22895,-184.73648 8.25873,-47.92091 96.64914,-42.95053 179.6839,20.18216 58.46558,26.21346 -281.28469,-58.18448 -335.61893,41.52768 -8.31982,138.01885 279.10932,228.71117 229.92926,129.22123 -60.72652,-56.40112 -105.12908,-130.31499 -87.60515,-193.14088 5.73827,-51.69537 100.29663,-54.39336 190.93093,10.0268 61.24627,23.09206 -259.92976,-54.48499 -324.47917,45.67464 -12.0682,147.04933 272.77517,249.75799 216.39017,144.74456 -63.0965,-54.54951 -111.85253,-130.36851 -96.50633,-200.92089 2.30057,-54.9058 102.54628,-67.47844 201.49637,-2.23385 C 528.50265,292.97373 227.26145,225.75285 152.36248,324.7072 136.44003,480.47956 420.63623,594.74244 355.56557,484.97538 290.4484,432.67888 237.26466,355.26576 249.65574,276.91498 247.66705,219.48816 352.51237,194.97404 460.90265,260.30474 526.74022,276.0883 246.54913,222.70219 161.40019,318.75605 141.59312,482.93358 427.21184,607.93213 351.89232,494.56936 285.11253,444.86476 227.47775,366.12327 236.12076,280.00488 229.12782,220.85826 337.02805,182.7705 456.1414,246.92556 523.7949,258.65645 265.52328,222.46402 170.46033,313.92692 146.81335,486.19186 436.01618,620.69578 348.84757,505.33897 280.75727,458.50515 218.69482,378.64165 222.80736,284.8756 c -12.54788,-59.97711 96.6446,-112.77179 227.63139,-51.58278 69.16914,7.49593 -166.53579,-8.32672 -270.96126,76.90709 -27.36908,180.0451 267.6241,322.36722 167.03499,207.10641 C 277.43584,473.56881 211.00475,392.71803 209.83637,291.49621 191.35433,231.63546 299.9801,163.45409 443.71291,219.47093 c 70.41042,3.13211 -142.2319,10.61361 -255.32012,88.0757 -30.90325,187.539 272.07582,335.49955 156.6097,222.93987 C 275.20836,490.0343 204.48457,408.25004 197.33302,299.81555 172.70591,241.04297 278.86936,157.20903 435.8788,205.54325 507.28891,204.22469 318.20906,237.64212 197.15499,305.93101 162.97132,500.7086 476.05883,651.61046 344.47571,544.87068 274.15045,507.88911 199.19989,425.14057 185.42106,309.76502 154.59784,253.04501 256.41316,153.67944 426.85111,191.6155 499.05633,185.78757 334.25004,247.35553 205.72094,305.31039 168.57174,507.11146 493.74915,657.72785 345.13218,560.4035 274.36395,527.12508 195.20653,443.30179 174.21857,321.26103 137.29601,267.52106 232.93116,153.10536 416.54902,177.81842 489.38207,167.43418 349.78504,258.77373 214.05555,305.6368 174.31219,514.29469 513.34783,660.87096 347.20154,576.96291 275.9891,547.72822 192.55352,462.65839 163.83463,334.20867 121.04284,284.313 208.7612,155.65732 404.90146,164.30896 478.22852,149.31662 364.7926,271.42547 222.13156,306.85815 180.21793,522.26213 534.59243,660.53271 350.92298,594.34885 279.21635,569.66087 191.28753,483.14936 154.3672,348.50482 106.05337,303.23298 184.25131,161.43688 391.85261,151.26937 465.56499,131.59664 379.15728,284.98578 229.92881,308.91965 186.31855,531.02082 557.15039,656.24283 356.52457,612.28441 284.29438,592.83536 191.45843,504.72838 145.90202,364.04179 92.512956,324.07157 159.75138,170.47763 377.36761,138.90472 451.36919,114.44597 392.78744,299.24762 237.43322,311.76509 192.64883,540.58114 580.62174,647.58431 364.20642,630.42377 291.52994,617.08047 193.12629,527.36209 138.512,380.71071 80.576262,346.60635 135.60518,182.74818 361.43667,127.43781 435.62863,98.046011 405.62805,314.05446 244.63548,315.33821 199.25011,550.9564 604.54451,634.20961 374.12952,648.3629 301.27536,642.10579 196.36947,551.02558 132.2577,398.40472 70.367628,370.6099 112.14318,198.15608 344.07839,117.10295 418.34282,82.587853 417.65075,329.26456 251.53002,319.58398 206.17205,562.16202 628.40219,615.85609 386.40793,665.65003 313.9016,667.4715 201.2938,575.69437 127.18802,417.02185 61.982558,395.85751 89.67542,216.55386 325.34222,108.13932 399.52421,68.270594 428.84724,344.73559 258.11403,324.44964 213.47502,574.21423 651.63434,592.35896 401.10286,681.7956 329.75987,692.5725 208.04211,601.33169 123.34164,436.46768 55.490161,422.13359 68.486237,237.74597 305.30784,100.7827 379.20098,55.30077 439.22755,360.31766 264.38659,329.88581 221.2332,587.1273 673.64819,563.66287 418.21764,696.28191 349.13825,716.64151 216.8028,627.87009 120.74878,456.65701 50.936439,449.23795 48.829544,261.497 284.08525,95.258773 357.41832,43.889874 448.82079,375.85046 270.34823,335.84718 229.53821,600.91001 693.83285,529.83002 437.69333,708.57365 372.22085,738.77064 227.81549,655.18672 119.43339,477.51572 48.348244,476.99005 30.92601,287.53998 261.81182,91.776037 334.24034,34.252141 457.6774,391.16318 276.0009,342.29334 238.50326,615.55966 711.57409,491.04541 459.4053,718.12967 399.05431,757.94626 241.37114,683.0727 119.41576,498.98138 47.737863,505.23273 14.960653,315.58611 238.6498,90.52001 309.75124,26.601302 465.87144,406.07703 281.34801,349.18922 248.26717,631.05364 726.27036,447.6183 483.16089,724.4155 429.52459,773.09214 257.80311,711.19865 120.71532,521.00358 49.108069,533.834 1.0828092,345.33309 214.78326,91.6483 284.05732,21.147303 473.50159,420.41095 286.39467,356.50561 258.99742,647.3381 737.34873,399.98004 508.69806,726.91712 463.34256,783.11666 277.46667,739.08145 123.354,543.543 c -46.827272,-16.74429 8.80973,225.31969 16.43757,81.86451"
       id="path3032"
       inkscape:connector-curvature="0"
       sodipodi:nodetypes="cssssssssssssssssssssssssssssssssssssssssssssssssssssssssssssssssssssssssssssssssssssssssssssssssssssssssssssssssssssssssssssssssssssssssssc" />
  </g>
</svg>
