<?xml version="1.0" encoding="UTF-8" standalone="no"?>
<!-- Created with Inkscape (http://www.inkscape.org/) -->

<svg
   xmlns:dc="http://purl.org/dc/elements/1.1/"
   xmlns:cc="http://creativecommons.org/ns#"
   xmlns:rdf="http://www.w3.org/1999/02/22-rdf-syntax-ns#"
   xmlns:svg="http://www.w3.org/2000/svg"
   xmlns="http://www.w3.org/2000/svg"
   xmlns:sodipodi="http://sodipodi.sourceforge.net/DTD/sodipodi-0.dtd"
   xmlns:inkscape="http://www.inkscape.org/namespaces/inkscape"
   sodipodi:docname="spiral032.svg"
   inkscape:version="0.48.2 r9819"
   version="1.1"
   id="svg2"
   height="1052.3622047"
   width="744.09448819">
  <sodipodi:namedview
     id="base"
     pagecolor="#ffffff"
     bordercolor="#666666"
     borderopacity="1.0"
     inkscape:pageopacity="0.0"
     inkscape:pageshadow="2"
     inkscape:zoom="5.4052681"
     inkscape:cx="397.35184"
     inkscape:cy="503.9876"
     inkscape:document-units="px"
     inkscape:current-layer="layer1"
     showgrid="false"
     inkscape:window-width="834"
     inkscape:window-height="646"
     inkscape:window-x="494"
     inkscape:window-y="51"
     inkscape:window-maximized="0"
     inkscape:snap-center="false" />
  <defs
     id="defs4" />
  <metadata
     id="metadata7">
    <rdf:RDF>
      <cc:Work
         rdf:about="">
        <dc:format>image/svg+xml</dc:format>
        <dc:type
           rdf:resource="http://purl.org/dc/dcmitype/StillImage" />
        <dc:title></dc:title>
      </cc:Work>
    </rdf:RDF>
  </metadata>
  <g
     inkscape:label="Layer 1"
     inkscape:groupmode="layer"
     id="layer1">
    <path
       id="path3031"
       d="m 142.72537,761.33339 c 3.38075,-1.74969 5.01474,-2.84789 4.21726,-3.19973 -1.15149,-0.20933 -5.66308,0.66186 -9.30169,1.24232 -4.63905,1.02187 -6.55931,0.95183 -4.65973,-0.58457 2.25456,-1.6738 9.12112,-4.83257 14.89553,-7.30155 6.83592,-2.59222 9.87405,-3.89386 7.31306,-3.72985 -3.04075,0.36573 -11.82998,2.51523 -18.77239,4.20627 -7.84861,2.30272 -11.04198,2.68345 -7.55374,0.31121 3.85098,-2.46155 14.85677,-7.14282 24.12349,-10.51828 10.34157,-3.21066 14.81327,-4.591 10.42687,-4.04582 -4.95716,0.82335 -18.07063,4.10081 -28.22579,6.86224 -10.94247,3.64948 -15.34616,4.51233 -10.34735,1.21958 5.34142,-3.2864 20.42774,-9.49515 33.21334,-13.65759 13.8764,-3.59986 19.79074,-4.92883 13.55046,-4.14574 -6.91742,1.16823 -24.36708,5.4155 -37.64737,9.21191 -13.90463,5.05841 -19.44464,6.43159 -13.03284,2.1403 6.73006,-4.14954 25.8202,-11.89035 42.1513,-16.72296 17.42713,-3.75876 24.7824,-4.90377 16.67548,-4.02802 -8.91962,1.39896 -30.70624,6.45869 -47.02256,11.25738 -16.72241,6.52668 -23.3168,8.43559 -15.60263,3.07269 8.01482,-5.0495 31.02223,-14.32937 50.92371,-19.71736 20.98211,-3.68749 29.76729,-4.51413 19.79387,-3.69139 -10.95901,1.51337 -37.07643,7.23055 -56.33709,13.00098 -19.38397,8.05113 -26.94398,10.51828 -18.04913,4.01578 9.19217,-5.9841 36.02239,-16.81301 59.51683,-22.64351 24.53051,-3.38679 34.72548,-3.75933 22.89765,-3.13486 -13.02987,1.50927 -43.46612,7.73173 -65.57672,14.44536 -21.87775,9.62828 -30.308405,12.67286 -20.3649,4.96819 10.25844,-6.95072 40.80946,-19.3415 67.91715,-25.50373 28.06185,-2.85782 39.63763,-2.63966 25.97897,-2.35771 -15.12625,1.3846 -49.8644,7.96335 -74.7274,15.59339 -24.19245,11.25416 -33.392994,14.8918 -22.54257,5.9282 11.20998,-7.94639 45.37232,-21.91459 76.11123,-28.29987 31.5661,-2.10231 44.48494,-1.15632 29.03021,-1.35951 -17.24214,1.13743 -56.2605,7.9269 -83.77526,16.44818 -26.31713,12.92422 -36.181424,17.16672 -24.57507,6.89377 12.04327,-8.96792 49.70004,-24.53156 84.08584,-31.03352 35.03371,-1.12227 49.24915,0.68876 32.04391,-0.14009 -19.37133,0.7661 -62.64397,7.62432 -92.70667,17.01311 -28.240996,14.63346 -38.658026,19.48835 -26.45528,7.8625 12.75514,-10.01191 53.7817,-27.19114 91.82789,-33.70582 38.45533,0.0797 53.91234,2.89284 35.01277,1.30047 -21.50774,0.26914 -69.00459,7.0578 -101.50811,17.29173 -29.953679,16.37632 -40.808009,21.84674 -28.176533,8.83161 13.342603,-11.07467 57.606753,-29.89152 99.324553,-36.31747 41.82221,1.50095 58.4574,5.45246 37.92984,2.96182 -23.64542,-0.3547 -75.33257,6.22996 -110.16647,17.28774 -31.444943,18.14676 -42.617269,24.2311 -29.732193,9.79806 13.803053,-12.15239 61.164643,-32.6304 106.563223,-38.86879 45.12594,3.13811 62.8677,8.36342 40.78823,4.84335 -25.77836,-1.10646 -81.61826,5.1437 -118.66868,17.00506 -32.705163,19.9382 -44.072702,26.62994 -31.116,10.7584 14.13414,-13.24098 64.44508,-35.40489 113.53147,-41.35971 48.3586,4.98772 67.12734,11.62093 43.58158,6.94432 -27.90082,-1.987 -87.85242,3.80219 -127.00214,16.44766 -33.725057,21.74363 -45.16208,29.03107 -32.321938,11.70894 14.333878,-14.33631 67.438068,-38.21163 120.217248,-43.78974 51.51272,7.04595 71.22113,15.21956 46.30355,9.2637 -30.00705,-2.99696 -94.02604,2.20897 -135.15441,15.61974 -34.495768,23.55547 -45.874203,31.42158 -33.344308,12.64561 14.400698,-15.43402 70.133858,-41.04673 126.608848,-46.15793 54.58135,9.3087 75.13459,19.15318 48.94819,11.80022 -32.09152,-4.1368 -100.13045,0.36782 -143.11339,14.52553 -35.008969,25.36569 -46.198864,33.7879 -34.177659,13.56402 14.333319,-16.52961 72.522959,-43.90572 132.694759,-48.46294 57.55797,11.7716 78.8541,23.41523 51.50985,14.55249 -34.14886,-5.40674 -106.15728,-1.71725 -150.8673,13.16934 -35.256901,27.16584 -46.127061,36.116 -34.816998,14.45961 14.130912,-17.61852 74.596258,-46.78373 138.463948,-50.70304 60.4366,14.43 82.36687,27.99854 53.9832,17.51887 -36.1739,-6.80687 -112.09855,-4.04196 -158.40465,11.55554 -35.232433,28.94701 -45.650847,38.39118 -35.257645,15.32742 13.792981,-18.69605 76.345045,-49.6753 143.905705,-52.87604 63.21176,17.27909 85.66094,32.89546 56.36324,20.69763 -38.16172,-8.33715 -117.94657,-6.60185 -165.7144,9.68852 -34.928939,30.69983 -44.763549,40.59828 -35.495317,16.16227 13.319513,-19.75747 77.760977,-52.57452 149.009817,-54.97938 65.87847,20.31385 88.72533,38.09793 58.64523,24.08682 -40.10753,-9.99733 -123.69391,-9.39225 -172.78577,7.57269 -34.340593,32.41458 -43.459635,42.7217 -35.526103,16.9587 12.710769,-20.79789 78.836083,-55.47495 153.766333,-57.01007 68.43234,23.52904 91.54992,43.59747 60.82489,27.68436 -42.00685,-11.78702 -129.33354,-12.40826 -179.60834,5.21246 -33.462246,34.08116 -41.73507,44.74545 -35.346594,17.71104 11.967552,-21.81247 79.562924,-58.36974 158.165874,-58.96472 70.86945,26.91935 94.12562,49.38523 62.89818,31.48802 -43.85542,-13.70567 -134.85875,-15.64485 -186.17212,2.6122 -32.289404,35.68909 -39.586897,46.65316 -34.953775,18.4134 11.091035,-22.79632 79.934545,-61.25154 162.199545,-60.83955 73.18634,30.47922 96.4443,55.45209 64.86147,35.49548 -45.64928,-15.75267 -140.26312,-19.09691 -192.46751,-0.22379 -30.818479,37.2276 -37.013635,48.42817 -34.345135,19.05965 10.082813,-23.74453 79.944505,-64.11261 165.858895,-62.63041 75.38024,34.20309 98.49882,61.78857 66.71151,39.70432 -47.3847,-17.92725 -145.54062,-22.75911 -198.48529,-3.29128 -29.046589,38.68561 -34.015229,50.05362 -33.518596,19.64351 8.944853,-24.65221 79.586896,-66.94472 169.135976,-64.33278 77.44873,38.08523 100.2831,68.38506 68.44534,44.11195 -49.05822,-20.2285 -150.6854,-26.62602 -204.21661,-6.58606 -26.971758,40.05176 -30.592944,51.51245 -32.47263,20.15848 7.679649,-25.51452 78.85643,-69.73929 172.02344,-65.94175 79.39004,42.11989 101.79204,75.2317 70.06047,48.71581 -50.6668,-22.65554 -155.69208,-30.69222 -209.65313,-10.10418 -24.592855,41.31451 -26.749531,52.78746 -31.206193,20.59796 6.289994,-26.32663 77.748373,-72.4873 174.514453,-67.45205 81.20279,46.30118 103.02158,82.31846 71.55468,53.51315 -52.20755,-25.20726 -160.55549,-34.95212 -214.78685,-13.84167 -21.90963,42.46205 -22.489163,53.86144 -29.718793,20.95514 4.779224,-27.0838 76.258703,-75.1794 176.602813,-68.8581 82.88616,50.62328 103.96875,89.63534 72.92613,58.50126 -53.67797,-27.88258 -165.27075,-39.40013 -219.61024,-17.79479 -18.922767,43.48246 -17.817437,54.71714 -28.010398,21.22317 3.150925,-27.7814 74.383988,-77.80588 178.282798,-70.15398 84.43985,55.08028 104.63156,97.17215 74.17343,63.6773 -55.07588,-30.68032 -169.8333,-44.03062 -224.11619,-21.95995 -15.63387,44.36369 -12.74149,55.33741 -26.081626,21.39508 1.409235,-28.41491 72.121516,-80.3567 179.549416,-71.33349 85.86396,59.66628 105.0091,104.91877 75.29546,69.03847 -56.39938,-33.59925 -174.23888,-48.83795 -228.29803,-26.33374 -12.04553,45.09357 -7.26988,55.70523 -23.933597,21.46381 -0.44137,-28.97986 69.469307,-82.82153 180.398227,-72.39007 87.15915,64.37539 105.1015,112.86511 76.29157,74.58192 -57.64696,-36.63816 -178.48349,-53.81652 -232.14959,-30.91299 -8.16129,45.65993 -1.41262,55.80375 -21.567968,21.42226 -2.396054,-29.47202 66.426048,-85.18973 180.825468,-73.31691 88.32642,69.20174 104.90981,121.00108 77.16134,80.30469 -58.81737,-39.79569 -182.56331,-58.96066 -235.66508,-35.6946 -3.98566,46.05051 4.81884,55.61638 -18.987031,21.26327 -4.449563,-29.88727 62.991291,-87.45044 180.828041,-74.10696 89.36729,74.13953 104.43617,129.3168 77.90481,86.204 -59.90969,-43.07062 -186.47488,-64.26489 -238.83918,-40.6759 0.4758,46.25317 11.41152,55.12685 -16.19363,20.97971 -6.596301,-30.22166 59.1653,-89.59257 180.40348,-74.75291 90.2837,79.18298 103.68372,137.80251 78.52234,92.2769 -60.92341,-46.46158 -190.2149,-69.72365 -241.66706,-45.85428 5.21656,46.25578 18.35108,54.31928 -13.19116,20.56446 -8.830321,-30.47148 54.9491,-91.60483 179.55003,-75.24725 91.07792,84.32639 102.65648,146.44865 79.01461,98.52058 -61.85826,-49.9673 -193.78033,-75.33158 -244.14434,-51.22752 10.22911,46.04636 25.6218,53.17825 -9.98361,20.01042 -11.1453,-30.63319 50.34462,-93.47575 178.26663,-75.58222 91.75268,89.56414 101.35949,155.24588 79.3827,104.93218 -62.71438,-53.58648 -197.1684,-81.08335 -246.26712,-56.79357 15.50489,45.61305 33.20656,51.68883 -6.57556,19.31053 -13.53465,-30.7035 45.35455,-95.19373 176.55291,-75.7499 92.31104,94.89067 99.79863,164.18514 79.62794,111.50891 -63.49216,-57.31786 -200.37641,-86.97375 -248.03191,-62.5507 21.03435,44.9442 41.08682,49.83663 -2.97218,18.45784 -15.99144,-30.67936 39.98247,-96.74703 174.40921,-75.74221 92.75642,100.30055 97.98073,173.25767 79.75205,118.24798 -64.19232,-61.16015 -203.40194,-92.99774 -249.43574,-68.49744 26.80694,44.02846 49.24289,47.60796 0.82082,17.44551 -18.50848,-30.55795 34.23281,-98.12388 171.83659,-75.55097 93.09254,105.78843 95.91338,182.45508 79.75701,125.14671 -64.81592,-65.11218 -206.24275,-99.15038 -250.47607,-74.63264 32.81112,42.85469 57.65366,44.98978 4.79711,16.26681 -21.07828,-30.33674 28.11084,-99.31242 168.83685,-75.16779 93.32347,111.34907 93.60505,191.76926 79.64513,132.20238 -65.36433,-69.17273 -208.8967,-105.4269 -251.15086,-80.95537 39.03439,41.41209 66.29686,41.96977 8.94986,14.91515 -23.69316,-30.01351 21.6227,-100.30081 165.41251,-74.58427 93.45348,116.97732 91.06493,201.19257 79.41901,139.41243 -65.83921,-73.3407 -211.36189,-111.82277 -251.45855,-87.46509 45.46329,39.69027 75.14909,38.53644 13.27165,13.38413 -26.34516,-29.58627 14.77544,-101.07717 161.56676,-73.79192 93.48723,122.6682 88.30303,210.71779 79.08152,146.77429 -66.24249,-77.61498 -213.63645,-118.33355 -251.39793,-94.1615 52.08333,37.67924 84.18574,34.67918 17.75445,11.66756 -29.02612,-29.05341 7.57704,-101.62975 157.30361,-72.78221 93.42953,128.41684 85.32994,220.33813 78.63581,154.28549 -66.57644,-81.99454 -215.71872,-124.95507 -250.9684,-101.04463 58.87923,35.36945 93.38121,30.38825 22.38978,9.75944 -31.72774,-28.41356 0.0363,-101.94681 152.6278,-71.54655 93.2854,134.21846 82.1569,230.04723 78.08521,161.9436 -66.84351,-86.47837 -217.60709,-131.68337 -250.16973,-108.1148 65.83474,32.75188 102.70895,25.65489 27.16861,7.65401 -34.4415,-27.66574 -7.83701,-102.01676 147.54474,-70.07639 93.06009,140.06842 78.79577,239.83925 77.43342,169.74634 -67.04654,-91.0656 -219.30013,-138.51475 -249.0022,-115.37268 72.93276,29.81802 112.14133,20.47132 32.08139,5.3458 -37.15887,-26.80927 -16.03236,-101.82818 142.0606,-68.36321 92.75903,145.96223 75.25893,249.70885 76.68423,177.69136 -67.18848,-95.75527 -220.79641,-145.44564 -247.46647,-122.81916 80.15533,26.55996 121.64999,14.83085 37.11806,2.82962 C 144.56937,404.74964 159.90222,329.22363 320.62268,364.19488 413.0105,516.0904 392.182,623.84613 396.46444,549.97142 329.19181,449.42481 174.36983,397.49859 150.90071,419.51593 c 87.48378,22.97041 131.20578,8.72786 42.26808,0.10055 -42.56936,-24.76936 -33.34218,-100.63062 129.9173,-64.17402 91.95213,157.86405 67.71026,269.66211 74.91027,193.99976 C 330.69392,444.00339 174.80284,389.84888 154.70072,411.15899 c 94.89861,19.04275 140.77879,2.15787 47.52054,-2.84596 -45.24488,-23.5863 -42.43102,-99.59983 123.27409,-61.6813 91.45781,163.86365 63.72538,279.73766 73.89416,202.35893 C 332.10793,438.55947 175.29759,382.18624 158.72534,402.68651 c 102.37957,14.77104 150.33853,-4.88244 52.86394,-6.01414 -47.88874,-22.29534 -51.79062,-98.26698 116.26162,-58.91225 90.91076,169.89035 59.61876,289.87466 72.79809,210.8521 C 333.43501,433.08922 175.86033,374.50858 162.97711,394.09185 272.88295,404.24191 322.83106,381.69669 221.26355,384.684 170.77147,363.78647 159.85759,288.0621 330.1532,328.82512 420.47019,504.76538 385.5579,628.89559 401.77998,548.3025 334.67634,427.58887 176.49734,366.81368 167.45831,385.36826 c 117.45591,5.17538 169.29359,-20.38119 63.77586,-13.03058 -53.04609,-19.3943 -71.26133,-94.65477 101.16851,-52.51333 89.68251,182.0096 51.09766,310.32286 70.38516,228.23291 -66.95481,-126.00245 -225.5728,-188.95808 -230.61695,-171.54839 125.00772,-0.15666 178.6256,-28.84014 69.31955,-16.8854 -55.54196,-17.78744 -81.34001,-92.35623 93.10927,-48.86801 89.01346,188.09473 46.71238,320.63025 69.07824,237.11688 C 336.90612,416.48349 178.0199,351.36254 177.11649,367.50668 c 132.53869,-5.84884 187.81784,-37.77033 74.90457,-20.97495 -57.97104,-16.0791 -91.62465,-89.7173 84.72365,-44.91555 88.31588,194.19209 42.26357,330.99156 67.71114,246.12759 C 337.89667,410.87153 178.91848,343.60108 182.29642,358.35462 322.32218,346.45146 379.13444,311.1858 262.81406,333.05313 202.48932,318.78137 160.71702,246.32367 338.83804,292.40433 426.43391,492.70259 376.60408,633.8105 405.12713,547.6677 338.80566,405.21562 179.91738,335.81196 187.7116,349.04549 335.15712,330.72483 393.36539,292.0142 273.85678,319.17874 211.2622,306.81044 161.11859,235.79401 340.87996,283.11785 427.73958,489.52766 374.11468,634.99183 405.69738,547.64033 339.634,399.5126 181.02324,327.99214 193.36262,339.57203 348.13682,314.4705 407.59544,272.2199 285.13603,304.89997 220.3637,294.52811 161.60755,225.22437 342.87086,273.7547 428.98395,486.27819 371.55501,636.15004 406.1723,547.65804 340.38266,393.75944 182.24274,320.1384 199.2497,329.92692 c 161.98761,-32.24495 222.54288,-78.12443 97.38825,-39.71828 -66.84987,-8.286 -134.4475,-75.59513 48.17312,-25.89573 85.36226,218.63618 24.12899,372.97115 61.74648,283.40433 C 341.05244,387.95322 183.58258,312.24737 205.3727,320.10277 c 169.06168,-39.74933 230.552,-89.33989 102.97545,-45.00575 -68.81941,-6.11458 -145.47424,-71.13701 38.35262,-20.30637 84.61315,224.74473 19.58369,383.60261 60.15804,293.02388 C 341.64429,382.09118 185.04946,304.31543 211.73105,310.09211 387.70288,262.48021 449.95954,209.10325 320.25165,259.55782 249.57833,255.69603 163.66464,193.26229 348.54022,245.18615 432.41188,476.03223 363.60264,639.47748 407.0818,547.9465 342.15896,376.17067 186.65006,296.33879 218.3238,299.88749 401.01755,244.05841 463.86487,186.8271 332.33294,243.58421 259.92869,242.05205 164.56939,182.5186 350.32971,235.49769 433.47319,472.43497 360.90869,640.53704 407.23215,548.10977 342.5973,370.1892 188.39103,288.31346 225.14966,289.48137 c 189.20272,-64.39615 252.459,-125.54217 119.42631,-62.31149 -74.0051,0.8695 -178.98092,-55.44288 7.49338,-1.44621 82.43445,243.0154 6.14702,415.84893 55.24615,322.57747 C 342.96013,364.14444 190.27903,280.23522 232.20683,278.86625 427.68129,205.55873 491.15915,140.44556 356.96442,210.30896 c -75.46932,3.33815 -190.21595,-49.42363 -3.20511,5.55365 81.75013,249.07749 1.77967,426.72259 53.57812,332.6547 C 343.24825,358.03417 192.32059,272.09965 239.49318,268.0346 440.97788,185.47803 504.48469,116.35367 369.48126,192.9962 292.69087,198.8645 168.03656,149.9913 355.39985,205.91299 436.49576,461.03382 352.88936,643.57613 407.3034,548.7551 343.46246,351.85636 194.5222,263.9021 247.0061,256.97891 454.21539,164.84333 517.55416,91.672105 382.10922,175.22685 c -77.96244,8.45436 -212.64293,-36.18452 -25.11819,20.64661 80.47721,261.14257 -6.71114,448.67351 50.2279,353.13782 C 343.60361,345.60911 196.89025,255.63771 254.74259,245.69171 467.36718,143.65572 530.33697,66.410865 394.83058,156.99671 315.85078,168.08712 171.04462,128.03567 358.53297,185.7428 438.43225,452.88267 347.72229,645.49941 407.08928,549.28261 343.67255,339.29069 199.43103,247.30139 262.69923,234.16553 480.40626,121.91751 542.80317,40.581055 407.62729,138.3022 327.79,152.0725 172.77842,116.96839 360.02581,175.51975 439.39295,448.62982 345.22777,646.43526 406.91977,549.56583 343.67014,332.89951 202.15068,238.88782 270.87218,222.39298 493.3059,99.631925 554.92332,14.195175 420.48095,119.14033 339.95085,135.62795 174.67475,105.83726 361.46961,165.20325 440.35538,444.2536 342.80686,647.35636 406.71554,549.85763 343.59734,326.43417 205.05519,230.39147 279.25707,210.36679 506.0394,76.803285 566.66893,-12.733145 433.37301,99.508675 352.31907,118.7445 176.74038,94.638885 362.86437,154.79231 441.32438,439.75024 340.46939,648.26448 406.48163,550.15465 343.45511,319.89342 208.1504,221.80658 287.8492,198.07968 518.58008,53.437005 578.01234,-40.189105 446.28448,79.405485 c -81.40498,22.008165 -267.30225,3.96413 -82.07425,64.880445 78.09439,290.83016 -25.9857,504.87526 42.0127,406.16745 6.7511,-43.8014 5.58284,-96.21835 -5.83279,-151.04594"
       style="fill:none;stroke:#000000;stroke-width:0.29183009px;stroke-linecap:butt;stroke-linejoin:miter;stroke-opacity:1"
       inkscape:connector-curvature="0" />
  </g>
</svg>
