<?xml version="1.0" encoding="UTF-8" standalone="no"?>
<!-- Created with Inkscape (http://www.inkscape.org/) -->

<svg
   xmlns:dc="http://purl.org/dc/elements/1.1/"
   xmlns:cc="http://creativecommons.org/ns#"
   xmlns:rdf="http://www.w3.org/1999/02/22-rdf-syntax-ns#"
   xmlns:svg="http://www.w3.org/2000/svg"
   xmlns="http://www.w3.org/2000/svg"
   xmlns:sodipodi="http://sodipodi.sourceforge.net/DTD/sodipodi-0.dtd"
   xmlns:inkscape="http://www.inkscape.org/namespaces/inkscape"
   sodipodi:docname="spiral022.svg"
   inkscape:version="0.48.2 r9819"
   version="1.1"
   id="svg3783"
   height="1052.3622047"
   width="744.09448819">
  <sodipodi:namedview
     id="base"
     pagecolor="#ffffff"
     bordercolor="#666666"
     borderopacity="1.0"
     inkscape:pageopacity="0.0"
     inkscape:pageshadow="2"
     inkscape:zoom="0.35"
     inkscape:cx="189.82443"
     inkscape:cy="930.37985"
     inkscape:document-units="px"
     showgrid="false"
     inkscape:window-width="1084"
     inkscape:window-height="748"
     inkscape:window-x="82"
     inkscape:window-y="6"
     inkscape:window-maximized="0"
     inkscape:current-layer="layer1" />
  <defs
     id="defs3785" />
  <metadata
     id="metadata3788">
    <rdf:RDF>
      <cc:Work
         rdf:about="">
        <dc:format>image/svg+xml</dc:format>
        <dc:type
           rdf:resource="http://purl.org/dc/dcmitype/StillImage" />
        <dc:title></dc:title>
      </cc:Work>
    </rdf:RDF>
  </metadata>
  <g
     id="layer1"
     inkscape:groupmode="layer"
     inkscape:label="Layer 1">
    <rect
       y="12.284647"
       x="7.8454075"
       height="779.49591"
       width="516.12524"
       id="rect4319"
       style="fill:none;stroke:#000000;stroke-width:0.91610378;stroke-opacity:1" />
    <flowRoot
       style="fill:black;stroke:none;stroke-opacity:1;stroke-width:1px;stroke-linejoin:miter;stroke-linecap:butt;fill-opacity:1;font-family:Sans;font-style:normal;font-weight:normal;font-size:40px;line-height:125%;letter-spacing:0px;word-spacing:0px"
       id="flowRoot3475"
       xml:space="preserve"><flowRegion
         id="flowRegion3477"><rect
           y="840.23016"
           x="40.406101"
           height="76.771591"
           width="474.7717"
           id="rect3479" /></flowRegion><flowPara
         id="flowPara3481" /></flowRoot>    <path
       style="fill:none;stroke:#000000;stroke-width:2.26467109px;stroke-linecap:butt;stroke-linejoin:miter;stroke-opacity:1"
       d="m 268.09543,87.571376 c -2e-4,-9e-5 0.004,0.001 0.004,0.001 0.005,0.002 0.002,8.4e-4 -0.003,-7.9e-4 -0.0151,-0.004 -0.0288,-0.009 -0.0392,-0.0134 -0.006,-0.003 -0.002,-0.001 0.0401,0.0114 0.0429,0.0128 0.0999,0.0321 0.11521,0.038 0.0189,0.006 -0.0215,-0.005 -0.0915,-0.0276 -0.11211,-0.0353 -0.2005,-0.065 -0.22093,-0.0727 -0.0353,-0.0128 0.0594,0.0156 0.19416,0.0584 0.18168,0.0578 0.34163,0.11125 0.38075,0.12612 0.0395,0.0152 -0.11418,-0.0313 -0.33148,-0.10077 -0.27221,-0.0864 -0.53811,-0.17409 -0.59714,-0.19621 -0.0654,-0.0251 0.18216,0.0497 0.50943,0.15372 0.39881,0.12747 0.77092,0.25205 0.84413,0.28093 0.0827,0.033 -0.26348,-0.0745 -0.72778,-0.22319 -0.5441,-0.17299 -1.05044,-0.3387 -1.13631,-0.37255 -0.10178,-0.0401 0.364,0.0998 0.97302,0.29258 0.71271,0.2286 1.37218,0.45111 1.47457,0.49386 0.12357,0.0511 -0.48193,-0.13803 -1.27577,-0.39418 -0.90778,-0.28815 -1.74323,-0.55917 -1.87425,-0.61133 -0.14736,-0.0587 0.61417,0.16702 1.61165,0.48196 1.12396,0.36174 2.15658,0.7135 2.30949,0.77875 0.17035,0.073 -0.76562,-0.22352 -1.99006,-0.62049 -1.36779,-0.43293 -2.62174,-0.83538 -2.80055,-0.90737 -0.19925,-0.0798 0.93063,0.25041 2.4113,0.71509 1.6336,0.52781 3.12701,1.04265 3.33362,1.13347 0.22517,0.0996 -1.11837,-0.33265 -2.87328,-0.9054 -1.92971,-0.60862 -3.6896,-1.16589 -3.92582,-1.26108 -0.2605,-0.10444 1.31711,0.34854 3.38055,0.99185 2.24315,0.72789 4.28822,1.44281 4.55549,1.56383 0.2857,0.13033 -1.54222,-0.46825 -3.92675,-1.25238 -2.59085,-0.81363 -4.95089,-1.54883 -5.25029,-1.66922 -0.33045,-0.13153 1.77408,0.45994 4.52205,1.3096 2.95369,0.96314 5.64071,1.91764 5.9777,2.07456 0.35462,0.16675 -2.03715,-0.63259 -5.15257,-1.66594 -3.35712,-1.04887 -6.40775,-1.98114 -6.77963,-2.12936 -0.40875,-0.16076 2.30254,0.58158 5.83831,1.66489 3.76758,1.23524 7.18779,2.47225 7.60149,2.67053 0.42891,0.20824 -2.60532,-0.82911 -6.55441,-2.15168 -4.2273,-1.31284 -8.06284,-2.45903 -8.51464,-2.63673 -0.49639,-0.19198 2.90057,0.71181 7.33288,2.05383 4.68472,1.54511 8.93102,3.11173 9.43083,3.35821 0.5098,0.25554 -3.24672,-1.0611 -8.13091,-2.71434 -5.2036,-1.60501 -9.91858,-2.97829 -10.45675,-3.18643 -0.59347,-0.2245 3.57159,0.84632 9.00632,2.47114 5.70623,1.89442 10.87151,3.84194 11.4644,4.14318 0.59641,0.30897 -3.96177,-1.33233 -9.88588,-3.36108 -6.28706,-1.92426 -11.97662,-3.53357 -12.60857,-3.77283 -0.70044,-0.25796 4.31448,0.98176 10.86016,2.91085 6.83275,2.28454 13.01015,4.66896 13.70478,5.03283 0.68807,0.36893 -4.75169,-1.64743 -11.81873,-4.09831 -7.47885,-2.26926 -14.23905,-4.1189 -14.97201,-4.38939 -0.81794,-0.29167 5.12942,1.1139 12.89407,3.36573 8.06522,2.71713 15.348,5.59962 16.15269,6.03456 0.78447,0.4358 -5.61627,-2.01091 -13.93019,-4.93343 -8.78018,-2.63847 -16.70746,-4.72737 -17.54825,-5.02844 -0.9463,-0.32489 6.01591,1.23791 15.11209,3.82904 9.40392,3.19384 17.88469,6.64102 18.80804,7.15647 0.88495,0.51004 -6.5559,-2.42813 -16.22018,-5.87454 -10.19186,-3.03007 -19.3828,-5.35123 -20.33804,-5.68159 -1.08585,-0.35675 6.9737,1.34869 17.51349,4.29197 10.84907,3.71625 20.62035,7.80098 21.67061,8.40716 0.98907,0.5921 -7.56989,-2.90453 -18.68825,-6.93027 -11.71483,-3.44199 -22.26597,-5.98189 -23.34214,-6.3395 -1.23716,-0.38637 8.00168,1.44044 20.09827,4.74501 12.40161,4.28641 23.55428,9.08764 24.74,9.79594 1.09545,0.68225 -8.65823,-3.44632 -21.33361,-8.10983 -13.35013,-3.87195 -25.35745,-6.60983 -26.56054,-6.99184 -1.40042,-0.41261 9.09899,1.50701 22.86699,5.17807 14.06068,4.90572 26.68497,10.50951 28.01431,11.33228 1.20382,0.78075 -9.81976,-4.05982 -24.15508,-9.42305 -15.09872,-4.31731 -28.65742,-7.22457 -29.99297,-7.62728 -1.57618,-0.43426 10.26376,1.54158 25.81868,5.57976 15.82733,5.57633 30.01149,12.07582 31.4925,13.02663 1.31231,0.887984 -11.05378,-4.75211 -27.15049,-10.88013 -16.96112,-4.7751 -32.16572,-7.81468 -33.63868,-8.23355 -1.76471,-0.45 11.49467,1.53707 28.95217,5.93783 17.70097,6.29988 33.53104,13.795644 35.1714,14.889264 1.42019,1.00392 -12.35804,-5.530164 -30.31742,-12.491774 -18.93829,-5.24203 -35.88145,-8.36758 -37.4963,-8.79716 -1.96645,-0.45827 12.78893,1.4856 32.26669,6.23912 19.68184,7.07831 37.24145,15.678984 39.04874,16.931604 1.52632,1.12895 -13.73062,-6.401674 -33.65207,-14.269094 -21.03046,-5.71455 -39.8032,-8.87006 -41.56405,-9.30403 -2.18152,-0.45741 14.1438,1.379 35.75869,6.46935 21.76958,7.91334 41.13876,17.735434 43.11958,19.164434 1.6292,1.26268 -15.16909,-7.374634 -37.15106,-16.223694 -23.23844,-6.1885 -43.92876,-9.30712 -45.83854,-9.73819 -2.41018,-0.44548 15.55624,1.20858 39.42578,6.6131 23.96394,8.80671 45.21901,19.975024 47.3794,21.599204 1.72704,1.40512 -16.66976,-8.456844 -40.80924,-18.367004 -25.56271,-6.65951 -48.25587,-9.66314 -50.31686,-10.0831 -2.65227,-0.42039 17.02204,0.96496 43.26447,6.65398 26.26455,9.76006 49.47733,22.407874 51.82252,24.247534 1.81895,1.55589 -18.22816,-9.65674 -44.62021,-20.710994 -28.00354,-7.1227 -52.78057,-9.92106 -54.9942,-10.32081 -2.90792,-0.3798 18.53659,0.63843 47.26952,6.57441 28.67111,10.77496 53.90813,25.044004 56.44226,27.120834 1.90254,1.71443 -19.8401,-10.98273 -48.57732,-23.267364 -30.56129,-7.57281 -57.49869,-10.06281 -59.86562,-10.43232 -3.17678,-0.32115 20.09473,0.21873 51.43577,6.35574 31.18278,11.85279 58.50433,27.893134 61.23038,30.230334 1.97607,1.87983 -21.49933,-12.443 -52.67272,-26.048004 -33.2354,-8.00382 -62.40425,-10.06878 -64.92393,-10.39709 -3.45872,-0.24155 21.68986,-0.30494 55.75613,5.97804 33.79907,12.99488 63.25866,30.965054 66.17808,33.587234 2.03749,2.05099 -23.19971,-14.0462 -56.89718,-29.064524 -36.02616,-8.40953 -67.49052,-9.91824 -70.1615,-10.19362 -3.75279,-0.13787 23.31512,-0.94381 60.2225,5.42026 36.5194,14.20238 68.16242,34.268794 71.27491,37.201844 2.085,2.22654 -24.93286,-15.79991 -61.24002,-32.327854 -38.93308,-8.78302 -72.74972,-9.58907 -75.56944,-9.79871 -4.05789,-0.007 24.96255,-1.70961 64.82544,4.65998 39.343,15.47615 73.20625,37.813034 76.50936,41.084034 2.11641,2.40479 -26.69036,-17.71204 -65.68975,-35.848654 -41.95535,-9.1167 -78.17172,-9.05753 -81.13575,-9.18807 -4.37339,0.15601 26.62189,-2.61454 69.55301,3.67361 42.26909,16.816874 78.37957,41.605614 81.86832,45.242454 2.12979,2.58373 -28.46216,-19.78943 -70.23279,-39.636224 -45.09222,-9.40257 -83.74511,-8.29879 -86.84811,-8.33603 -4.69679,0.35415 28.28299,-3.67119 74.39265,2.43634 45.29616,18.224664 83.67033,45.653294 87.33712,49.684714 2.12273,2.76052 -30.23715,-22.03846 -74.85463,-43.699204 -48.34281,-9.63184 -89.45641,-7.28627 -92.69134,-7.21535 -5.0261,0.59236 29.93314,-4.89261 79.32843,0.92185 48.42421,19.700024 89.06616,49.961884 92.90037,54.417014 2.09356,2.93252 -32.00303,-24.46432 -79.5396,-48.044784 -51.70499,-9.79493 -95.28908,-5.992 -98.64715,-5.79749 -5.3585,0.87562 31.55789,-6.29199 84.34256,-0.89708 51.65134,21.242284 94.55293,54.535654 98.54056,59.443674 2.04026,3.09621 -33.74621,-27.071 -84.27011,-52.678414 -55.17717,-9.88174 -101.22487,-4.38659 -104.69585,-4.05251 -5.68935,1.20889 33.1413,-7.88305 89.41448,-3.04935 54.97684,22.850974 100.11605,59.377464 104.23915,64.766794 1.96131,3.24788 -35.45227,-29.8611 -89.02767,-57.603574 -58.75627,-9.88111 -107.24118,-2.43911 -110.81245,-1.94927 -6.01487,1.59813 34.66425,-9.67916 94.51929,-5.56451 58.39957,24.524894 105.73989,64.488214 109.97664,70.386344 1.85494,3.38287 -37.10539,-32.83539 -93.79224,-62.821494 -62.44039,-9.78107 -113.31305,-0.11718 -116.97001,0.54479 -6.32829,2.04887 36.10489,-11.69384 99.62905,-8.47351 61.91838,26.262484 111.40798,69.866664 115.73215,76.299134 1.7205,3.49701 -38.68896,-35.99244 -98.54294,-68.330644 -66.22411,-9.56968 -119.40903,2.61153 -123.13481,3.46194 -6.62219,2.56706 37.43868,-13.93997 104.71123,-11.80745 65.53218,28.061894 117.10296,75.509524 121.48402,82.499554 1.55679,3.58456 -40.18571,-39.32907 -103.25808,-74.127134 -70.10463,-9.23261 -125.49547,5.78196 -129.27065,6.83674 -6.88697,3.158374 38.63697,-16.42976 109.72811,-15.59837 69.23977,29.920454 122.8074,81.410924 127.20977,88.977814 1.36415,3.64074 -41.57731,-42.83872 -107.91508,-80.203034 -74.07587,-8.75557 -131.53077,9.42816 -135.33357,10.702704 -7.11161,3.82852 39.66682,-19.173884 114.636,-19.877864 73.03996,31.834934 128.50316,87.561964 132.88683,95.720894 1.1425,3.65938 -42.84565,-46.5127 -112.49125,-86.547494 -78.13187,-8.12302 -137.46806,13.584714 -141.27342,15.093064 -7.2822,4.58215 40.49073,-22.181074 119.3846,-24.676824 76.93139,33.801544 134.17233,93.951304 138.49224,102.711464 0.89305,3.63505 -43.97228,-50.33895 -116.96358,-93.145394 -82.26543,-7.31842 -143.25256,18.284904 -147.0327,20.039644 -7.38216,5.42279 41.06587,-25.457074 123.91592,-30.024644 80.9135,35.816064 139.79736,100.564394 144.00393,109.928354 0.61709,3.56146 -44.93897,-54.3023 -121.30985,-99.978034 -86.46812,-6.32358 -148.82135,23.561294 -152.54517,25.572554 -7.39209,6.35217 41.34324,-29.003654 128.16371,-35.948144 C 330.09956,117.57315 390.47586,187.0838 394.5151,197.04602 394.8321,200.47915 348.78678,138.66161 269.00654,90.023436 178.27706,84.901986 114.90485,119.46323 111.27106,121.73856 103.98191,129.10753 152.5401,88.921486 243.32374,79.269586 332.46841,119.23659 394.1703,193.65714 397.98436,204.2031 397.98036,207.44756 351.66081,141.6402 268.44586,89.952026 173.40743,86.261106 109.43425,125.89749 105.92757,128.44028 98.87995,136.90883 146.70879,91.554136 241.42489,78.836756 334.81656,120.92789 397.66322,200.38897 401.19049,211.49306 400.84697,214.48375 354.48104,144.6807 267.80911,89.860996 168.42817,87.849476 104.3518,132.95511 101.01175,135.76425 94.37323,145.40559 140.8241,94.573426 239.41339,78.404346 337.13835,122.64223 400.93592,207.25432 404.11212,218.87963 403.41562,221.5465 357.23954,147.77544 267.09187,89.749786 163.35022,89.688286 99.75757,140.64205 96.62571,143.71095 90.59575,154.58179 134.9149,98.011156 237.28464,77.975576 339.42868,124.37479 403.97156,214.22603 406.73014,226.32225 405.67146,228.592 359.92836,150.91568 266.28897,89.617826 158.18696,91.799946 95.76287,148.95212 92.88226,152.26723 87.69379,164.39997 129.01507,101.9002 235.03399,77.554066 341.68193,126.11989 406.75518,221.27404 409.02817,233.77656 407.60301,235.57342 362.54047,154.09261 265.39553,89.464836 152.95447,94.207866 92.49034,157.86263 89.90408,161.40285 85.82379,174.79605 123.16526,106.2734 232.65673,77.143976 343.89269,127.87148 409.27398,228.36612 410.993,241.19515 409.2021,242.44159 365.06855,157.29601 264.40657,89.290756 147.67198,96.936536 90.07227,167.33104 87.82199,171.06704 85.14846,185.67289 117.41344,111.16309 230.14822,76.750006 346.05601,129.62347 411.51774,235.46823 412.6147,248.5274 410.46396,249.14605 367.50641,160.51582 263.31676,89.095686 142.3627,100.01101 88.64852,177.29069 86.7725,181.18386 85.83022,196.8953 111.81547,116.60041 227.50391,76.377466 348.1663,131.36874 413.47879,242.54451 413.88691,255.72067 411.38726,255.63547 369.84799,163.74091 262.12083,88.880046 137.05357,103.45749 88.36317,187.64605 86.89357,191.64841 88.01891,208.28048 106.43667,122.61408 224.71903,76.032586 350.21834,133.10038 415.15201,249.55809 414.80654,262.72027 411.97366,261.85823 372.08757,166.95985 260.81287,88.644776 131.77676,107.30097 89.35842,198.2665 88.31756,202.3201 91.80467,219.5793 101.35321,129.22652 221.7896,75.721336 352.20778,134.81046 416.53563,256.47077 415.37449,269.46955 412.22826,267.76257 374.221,170.16064 259.38823,88.390436 126.56958,111.56771 91.7669,208.98403 91.15823,213.01843 96.96787,230.53282 96.65161,136.45609 218.71097,75.451666 354.12918,136.49123 417.63017,263.24475 415.59452,275.91305 412.15923,273.2998 376.24461,173.33167 257.84145,88.119066 121.47633,116.28233 95.67888,219.57525 95.42967,223.50155 102.96236,241.25662 92.4313,144.31088 215.48001,75.231866 355.97867,138.13461 418.43976,269.84241 415.47425,281.99449 411.77475,278.42183 378.15338,176.46002 256.1655,87.832186 116.54587,121.46724 100.84656,229.81721 100.72225,233.65025 109.65368,251.89171 88.80107,152.78741 212.09129,75.070766 357.74975,139.73131 418.9689,276.22584 415.02159,287.65876 411.08695,283.08414 379.94537,179.53355 254.35524,87.532316 111.83676,127.14256 106.71503,239.90896 106.65041,243.68101 117.07903,262.36833 85.88426,161.86571 208.54159,74.978636 359.43886,141.27292 419.22665,282.35924 414.24873,292.85309 410.10835,287.24624 381.61825,182.5394 252.40515,87.222516 107.41499,133.32405 113.22736,249.93095 113.20627,253.61812 125.2791,272.5482 83.81356,171.50717 204.82831,74.966666 361.04089,142.74964 419.22353,288.20836 413.16845,297.5274 408.85199,290.87199 383.17076,185.46549 250.30943,86.906326 103.35536,140.02145 120.42309,259.78791 120.42509,263.3675 134.28738,282.25917 82.73036,181.64762 200.94826,75.047166 362.55178,144.15247 418.97182,293.74091 411.79413,301.63551 407.33073,293.93069 384.60197,188.29928 248.06202,86.587906 99.74173,147.23665 128.33798,269.34534 128.33821,272.80018 144.12567,291.30109 82.7801,192.19235 196.89925,75.233696 363.96637,145.47105 418.48528,298.92727 410.13906,305.13567 405.55676,296.39771 385.91178,191.02883 245.65768,86.272326 96.66704,154.96139 137.00055,278.44301 136.97004,281.76385 154.79924,299.44986 84.10424,203.01035 192.67987,75.541066 365.28034,146.6957 417.77877,303.74104 408.2155,307.99178 403.54104,298.25516 387.10028,193.64194 243.09047,85.965276 94.23318,163.17436 146.42969,286.89801 146.3348,290.08547 166.2943,306.46673 86.81817,213.92148 188.28931,75.985576 366.4889,147.81608 416.86788,308.15909 406.03395,310.1741 401.29289,299.49218 388.1685,196.12743 240.355,85.673376 92.54995,171.83813 156.6306,294.50808 156.43352,297.57527 178.58695,312.12863 90.91893,224.69037 183.72751,76.585046 367.58715,148.82175 415.76848,312.16236 403.60258,311.6601 398.81964,300.10573 389.11765,198.47405 237.44616,85.404246 91.73358,180.89569 167.59556,301.06324 167.25332,304.03573 191.70149,316.43865 96.08142,235.18282 178.9959,77.358866 368.57007,149.70226 414.49648,315.73563 400.92637,312.43513 396.12658,300.10074 389.94946,200.67128 234.35889,85.166396 91.90396,190.26694 179.31697,306.38533 178.77894,309.29349 205.55841,320.49635 101.95785,245.54675 174.09703,78.328216 369.43217,150.44673 413.06743,318.86813 398.00691,312.49349 393.21689,299.49012 390.66586,202.7089 231.08877,84.969576 93.18109,199.8453 191.83057,310.52668 191.03671,313.37301 219.56552,325.68918 108.50061,255.85089 169.03519,79.516066 370.1681,151.04479 411.4962,321.55361 394.84194,311.83859 390.09204,298.29527 391.26899,204.57723 227.63112,84.824556 95.67961,209.4935 205.09927,314.33341 203.99435,317.09676 233.3197,332.35777 115.74737,266.029 163.81664,80.947306 370.77168,151.48552 409.79681,323.7904 391.4255,310.48376 386.7521,296.5453 391.76114,206.26708 223.98284,84.743516 99.49495,219.03561 218.68941,318.98978 217.21144,321.65884 246.60745,340.55986 123.7397,275.95795 158.44953,82.648946 371.23628,151.75807 407.98229,325.58156 387.7482,308.45257 383.1964,294.27705 392.14451,207.76962 220.14089,84.739876 104.41116,228.31686 232.18663,324.94595 230.29502,327.47205 259.24775,350.31518 132.51452,285.48233 152.94494,84.650076 371.55505,151.8521 406.06441,326.93463 383.79776,305.7789 379.42418,291.53436 392.42132,209.07671 216.10274,84.828566 109.9159,237.57017 245.35446,332.29978 243.03631,334.61508 271.06306,361.64098 142.09817,294.41792 147.31752,86.981656 371.72005,151.75685 404.05408,327.86188 379.55984,302.50677 375.43576,288.36744 392.59351,210.1804 211.86732,85.025966 116.0082,246.80038 258.01447,341.08117 255.27705,343.10947 281.87183,374.56348 152.50282,302.55615 141.58558,89.676856 371.72298,151.46233 401.96075,328.37967 375.01937,298.69028 371.2331,284.83156 392.66254,211.07283 207.43469,85.350126 122.72674,255.91114 270.00223,351.31108 266.86958,352.9681 291.48368,389.11534 163.72107,309.66865 135.77148,92.771006 371.55434,150.95839 399.7933,328.50873 370.16159,294.39257 366.82096,280.98609 392.62962,211.74693 202.80596,85.820756 130.10736,264.78364 281.1546,363.01816 277.66731,364.20936 299.69709,405.32039 175.72795,315.52313 129.90406,96.300666 371.20396,150.23566 397.55955,328.27324 364.9739,289.68498 362.20762,276.89292 392.49506,212.19521 197.9837,86.459346 138.1807,273.27773 291.30414,376.24187 287.5196,376.86061 306.30209,423.16825 188.52154,319.99117 124.01672,100.30498 370.6597,149.28484 395.26665,327.70103 359.44695,284.64569 357.40576,272.61544 392.25804,212.41037 192.97191,87.289626 146.97059,281.23126 300.275,391.01758 296.26939,390.94837 311.09326,442.58428 202.0864,323.91301 118.15287,104.8217 369.91068,148.09834 392.92242,326.82291 353.57736,279.35717 352.43342,268.21577 391.91834,212.38586 187.77911,88.336036 156.49114,288.46546 307.88218,407.35882 303.75137,406.4861 313.88839,463.411 215.83715,328.89289 112.36249,109.89045 368.9424,146.66846 390.53367,325.67199 347.36761,273.90525 347.31321,263.75447 391.47303,212.11416 182.41394,89.626066 166.74777,294.79353 313.9393,425.2283 309.79697,423.45063 c 4.76076,61.94506 -80.44337,-88.1184 -203.09109,-307.90125 261.03421,29.43974 281.40206,208.73401 234.12226,152.82624 1.24547,-9.08703 50.09019,-56.78791 -163.93977,-177.186724 0.85938,208.866794 141.38548,353.327664 137.35677,350.574324 -1.19018,66.42889 -71.80753,-98.46733 -212.99062,-319.92921 265.03284,21.22124 284.39891,200.85973 232.7236,141.0178 2.76982,-7.98185 56.27083,-52.05307 -162.75981,-169.796264 C 189.52807,304.25279 320.7494,465.02629 316.95885,461.27507 309.44707,531.37856 254.91512,352.81277 96.09242,128.77535 364.56656,140.86353 383.17905,320.9405 326.84539,257.41174 331.37421,250.54428 389.4579,209.73938 165.42386,95.258736 202.10937,307.90398 321.29318,486.47197 317.84646,481.76311 303.93826,554.48105 266.60942,363.90556 91.31727,136.39731 362.5588,138.4127 380.69487,319.06144 319.46691,252.12552 325.99456,246.35041 388.53623,208.40131 159.52947,97.833026 215.24169,312.00996 319.92338,508.48703 316.88412,502.93302 296.88351,577.00582 277.33646,376.60266 87.04122,144.71377 360.24351,135.7033 378.21219,317.09423 311.88739,247.05225 320.6546,242.32 387.4728,206.77596 153.56519,100.81435 228.52218,317.20055 316.7732,530.64426 314.13684,524.43243 288.78917,598.47145 286.90104,390.939 83.39144,153.72462 357.59901,132.73867 375.74346,315.07561 304.15854,242.23796 315.40147,238.47666 386.2539,204.8545 147.56751,104.23948 241.66792,323.67688 312.10728,552.47939 309.77494,545.86876 280.29995,618.43526 295.0942,406.9452 80.51,163.41038 354.60269,129.52533 373.30269,313.04169 296.33696,237.71323 310.28402,234.83722 384.86313,202.62804 141.58008,108.14587 254.48002,331.5048 306.32709,573.52111 304.08326,566.833 272.17142,636.51233 301.69474,424.62463 78.55197,173.72788 351.2306,126.07283 370.90503,311.02671 288.48158,233.49099 305.35094,231.41177 383.28111,200.08804 135.65541,112.57018 266.78823,340.72121 299.96484,593.31455 297.46149,586.92183 265.23186,652.37859 306.47901,443.92779 77.68229,184.60215 347.45813,122.39455 368.56685,309.06333 280.64862,229.56257 300.65004,228.2048 381.48531,197.22661 129.85516,117.5478 278.4303,351.36573 293.66399,611.44213 290.41523,605.7572 260.33348,665.7623 309.23878,464.7252 78.06826,195.91939 c 265.19198,-77.41126 288.23731,111.26276 194.81745,29.96997 23.34146,-0.673 106.56374,-31.85301 -148.63373,-102.77845 164.99072,240.37811 163.89606,504.42207 159.28537,499.88957 -25.23923,53.4193 26.27133,-136.20601 -203.67481,-415.48504 258.74909,-93.07973 284.27715,97.89644 185.36783,14.87081 26.89522,0.0573 111.9135,-31.87425 -146.29996,-93.09947 180.12408,247.86021 165.24902,511.97406 158.55072,509.0707 -17.62367,45.74681 30.61704,-128.542 -194.32798,-419.192 250.33426,-108.96105 278.9349,84.61342 174.58984,-0.23491 30.64257,0.95161 116.79179,-32.28044 -143.75502,-82.8354 193.69648,256.2864 168.52244,516.23507 158.93876,515.47938 -7.33551,36.95784 31.19795,-118.19192 -185.09957,-420.949 240.03634,-124.77873 272.34296,71.68192 162.71003,-15.19752 34.50605,2.09948 121.04745,-32.9774 -141.00083,-71.88327 205.40798,265.64999 174.29204,516.90984 161.00595,518.88082 5.32382,26.93231 27.50031,-105.39843 -177.02016,-420.58324 228.19444,-140.44171 264.88336,59.1778 150.21877,-30.00602 38.39041,3.53996 124.5112,-33.91868 -138.03979,-60.20626 214.94879,275.89065 182.99704,513.70037 165.24097,519.06193 19.83575,15.47161 19.22121,-90.44288 -170.9445,-417.74863 215.0281,-156.033464 256.81608,46.99403 137.46839,-44.8074 42.21226,5.29115 127.02617,-35.07543 -134.84411,-47.80978 222.01968,286.88099 194.88169,506.28981 172.02001,515.81466 35.46344,2.33738 6.32095,-73.59013 -167.4085,-412.18483 C 307.77159,92.424266 355.41384,299.0784 231.80767,204.31682 277.709,211.68155 360.25663,167.89544 100.45061,169.58383 326.81076,468.00622 310.39282,663.92145 282.01447,678.50461 333.28466,665.82302 271.07463,623.47003 115.27221,274.79349 299.93818,87.999936 354.22435,298.46071 226.84785,200.37881 276.24481,210.14398 355.49494,162.4467 99.34909,179.32301 327.12983,489.57606 327.23269,656.81969 293.24794,677.47012 359.41617,647.78243 261.26796,642.60313 124.16217,285.30681 291.51209,83.699076 353.26282,298.10115 222.65566,196.33522 275.30288,208.8213 350.15495,156.74812 99.48401,189.42763 325.68025,511.4975 347.58016,644.87996 308.3071,672.68146 387.30821,624.08923 252.41193,659.6156 133.94487,295.3057 c 148.53918,-215.714974 218.60077,2.71011 85.3417,-103.09142 55.60976,15.50847 124.89796,-41.3695 -118.26621,7.52445 221.65404,333.55712 269.65966,427.98531 225.88805,464.02188 88.65388,-69.0558 -81.48036,10.47687 -182.26094,-359.19625 128.20072,-228.813924 207.4403,-6.34401 72.13272,-116.50538 58.2541,18.80025 120.75271,-43.26502 -112.66817,21.99181 214.35557,344.41724 291.38277,395.04618 244.39769,440.29542 94.17767,-90.46607 -107.2746,35.89352 -192.23425,-337.51926 106.32768,-240.565794 195.62694,-14.09666 58.88218,-128.90239 60.5659,22.31819 114.99592,-45.25737 -106.29163,36.24652 204.6908,354.34017 311.90507,356.7667 263.45724,411.97511 94.90765,-111.9589 -131.63677,63.25466 -203.5183,-312.331 82.94684,-250.601524 183.19557,-20.25412 45.61352,-139.94022 62.55113,26.01032 107.58751,-47.32485 -99.68813,50.43088 C 308.56509,592.94578 445.13365,543.43961 397.35463,608.99601 487.91014,476.5237 244.50366,701.46498 182.18432,325.24944 240.30208,66.707746 352.39108,300.72869 214.53809,175.97828 278.77707,205.7977 313.05865,126.54335 121.33252,240.40878 304.21187,609.32912 467.19977,505.088 422.46652,580.9118 503.73963,430.0839 253.20732,704.10449 196.40611,329.35553 228.26838,64.853606 353.08005,302.24911 215.46662,172.30154 281.14915,205.9888 303.29204,120.7622 128.71468,250.33106 301.26786,623.25962 485.7015,462.67482 446.46102,548.12901 514.14394,382.29347 267.04857,702.89807 210.87496,334.36114 c 4.79798,-270.587514 143.19552,-30.22269 6.25444,-165.45536 66.95655,37.55856 75.57276,-53.56957 -80.20692,90.9939 163.58261,374.46476 362.6865,157.38517 331.24723,251.22586 50.86727,-176.4451 -182.22233,186.21014 -243.14256,-170.11736"
       id="path5457"
       inkscape:connector-curvature="0" />
  </g>
</svg>
