<?xml version="1.0" encoding="UTF-8" standalone="no"?>
<!-- Created with Inkscape (http://www.inkscape.org/) -->

<svg
   xmlns:dc="http://purl.org/dc/elements/1.1/"
   xmlns:cc="http://creativecommons.org/ns#"
   xmlns:rdf="http://www.w3.org/1999/02/22-rdf-syntax-ns#"
   xmlns:svg="http://www.w3.org/2000/svg"
   xmlns="http://www.w3.org/2000/svg"
   xmlns:sodipodi="http://sodipodi.sourceforge.net/DTD/sodipodi-0.dtd"
   xmlns:inkscape="http://www.inkscape.org/namespaces/inkscape"
   width="744.09448819"
   height="1052.3622047"
   id="svg3783"
   version="1.1"
   inkscape:version="0.48.2 r9819"
   sodipodi:docname="spiral024.svg">
  <sodipodi:namedview
     id="base"
     pagecolor="#ffffff"
     bordercolor="#666666"
     borderopacity="1.0"
     inkscape:pageopacity="0.0"
     inkscape:pageshadow="2"
     inkscape:zoom="0.49497475"
     inkscape:cx="195.64158"
     inkscape:cy="673.5447"
     inkscape:document-units="px"
     inkscape:current-layer="layer1"
     showgrid="false"
     inkscape:window-width="1084"
     inkscape:window-height="748"
     inkscape:window-x="104"
     inkscape:window-y="31"
     inkscape:window-maximized="0" />
  <defs
     id="defs3785" />
  <metadata
     id="metadata3788">
    <rdf:RDF>
      <cc:Work
         rdf:about="">
        <dc:format>image/svg+xml</dc:format>
        <dc:type
           rdf:resource="http://purl.org/dc/dcmitype/StillImage" />
        <dc:title></dc:title>
      </cc:Work>
    </rdf:RDF>
  </metadata>
  <g
     inkscape:label="Layer 1"
     inkscape:groupmode="layer"
     id="layer1">
    <flowRoot
       xml:space="preserve"
       id="flowRoot3475"
       style="fill:black;stroke:none;stroke-opacity:1;stroke-width:1px;stroke-linejoin:miter;stroke-linecap:butt;fill-opacity:1;font-family:Sans;font-style:normal;font-weight:normal;font-size:40px;line-height:125%;letter-spacing:0px;word-spacing:0px"><flowRegion
         id="flowRegion3477"><rect
           id="rect3479"
           width="474.7717"
           height="76.771591"
           x="40.406101"
           y="840.23016" /></flowRegion><flowPara
         id="flowPara3481" /></flowRoot>    <rect
       style="fill:none;stroke:#000000;stroke-width:0.91610378;stroke-opacity:1"
       id="rect4319"
       width="516.12524"
       height="779.49591"
       x="7.8454075"
       y="12.284647" />
    <g
       id="g3839"
       transform="matrix(0.59227635,0,0,0.59227635,110.21758,88.688071)">
      <path
         style="fill:none;stroke:#000000;stroke-opacity:1"
         d="m 252.53814,454.35188 170.30784,-106.06483 39.68952,-46.30622 9.53399,-42.68486 -20.50601,-39.71058 -50.43044,-37.38337 -190.172,-70.37343 -104.39172,-11.094 -77.41689,24.53455 -49.45603,49.72324 -20.50913,64.47207 9.42379,68.78103 40.34275,62.65013 72.247737,46.07937 105.138753,19.06876 200.09089,-14.76974 56.6629,-22.55749 28.27857,-33.3649 0.29726,-44.69158 L 444.3889,264.1225 308.70412,113.43258 221.42548,55.096082 141.47446,40.842927 74.575777,61.887307 26.45418,109.44341 2.83439,174.72544 l 6.60676,74.22215 42.55804,74.37646 84.23406,65.74496 184.03552,79.90891 60.6555,6.35891 40.54487,-16.40145 21.03243,-39.43429 2.11815,-62.73961 L 394.50591,160.27631 344.33483,68.061506 280.16549,18.285871 211.14984,5.830378 146.43985,25.576 95.187499,72.403707 66.54474,141.19447 l 3.11881,85.63479 44.03235,97.35979 125.81984,156.2814 50.75264,33.81854 43.52283,4.31938 36.94932,-25.14307 31.03209,-54.56881 L 448.71025,241.62847 447.14033,136.66065 413.45308,62.765529 358.13112,19.663566 291.65702,7.075217 224.5134,24.720935 167.18284,72.321178 130.14793,149.5964 l -6.25664,106.67066 38.78035,196.85171 29.22297,53.53075 36.53024,24.0507 44.40156,-5.09188 52.83694,-33.89696 133.23623,-152.85915 47.39088,-93.67397 4.5122,-81.08612 -28.95469,-63.87429 -53.00979,-42.03848 -67.6531,-15.578691 -72.88463,15.505082 -68.70436,51.212839 -55.11231,91.54457 -57.14326,192.32566 0.99867,60.97972 21.16901,38.27228 41.68195,16.1258 62.53749,-5.45972 189.01201,-73.43209 85.495,-60.92054 41.67796,-69.70127 4.04576,-70.01379 -27.40158,-61.85811 -52.66407,-45.2342 -71.74171,-20.14211 -84.63448,13.4182 -91.34242,55.44672 -139.976024,143.74012 -27.454406,54.45897 0.95821,43.72615 29.413496,33.64925 57.911454,24.22828 201.48742,22.81737 104.01325,-14.21095 69.29579,-42.34869 36.11938,-60.11398 4.48399,-67.50678 -25.61033,-64.52711 -54.16362,-51.17498 -81.17586,-27.45038 -106.64707,6.6467 -190.74198,62.22545 -49.61802,35.46232 -19.4721,39.16288 10.40677,43.46407 40.0186,48.36587 167.80449,113.83965 98.70332,35.7542 81.0388,-5.29455 59.91847,-36.44277 35.34235,-57.69047 7.31042,-69.03763 -24.1773,-70.48429 -59.12084,-62.03041 -97.52016,-43.676 -197.81124,-33.54432 -60.414736,8.34168 -35.441584,25.62788 -10.98402,43.32179 12.95796,61.42342 95.67958,178.78264 70.78164,77.52849 74.21679,32.97252 69.99097,-4.42297 58.10419,-34.65796 38.55645,-57.73247 11.34774,-73.64649 -23.52193,-82.40002 -66.05256,-83.99306 -159.56433,-121.62949 -57.37117,-20.68993 -43.29184,6.22182 -29.8585,33.25501 -17.071179,60.40961 1.635619,202.76868 26.64475,101.54194 50.39261,63.68597 64.02938,28.61009 67.55507,-3.68574 60.96966,-33.20149 44.27315,-59.93716 17.46557,-83.89278 L 398.48753,332.21135 313.72437,150.36054 272.53981,105.37881 231.31537,90.769242 189.4226,106.33915 146.23308,151.89583 53.45004,332.19869 29.8539,434.49204 l 15.0241,79.80975 43.399434,55.08891 61.529886,28.13085 69.41545,-1.06445 67.05612,-32.49696 54.45191,-66.16672 31.6028,-102.07369 9.45623,-200.4123 -15.56305,-58.96877 -29.71303,-32.09408 -44.3299,-5.682065 -59.41367,20.267265 -165.94621,116.53183 -68.43144,79.61059 -23.78626,77.65006 12.8272,68.94753 41.40895,53.50299 61.959001,31.31645 74.477339,2.3879 78.96398,-33.28265 75.4189,-75.69521 101.50931,-173.06174 13.62376,-59.44677 -11.39472,-42.22623 -36.61159,-25.63235 -62.02686,-9.66514 -201.09312,26.06476 -97.58991,38.69 -57.14747,57.70169 -20.6836,67.0111 11.80173,66.61825 40.30849,56.52312 64.8367,36.72573 85.38634,7.22606 101.95744,-31.97587 0,0"
         id="path3604"
         inkscape:connector-curvature="0" />
      <path
         inkscape:connector-curvature="0"
         id="path3767"
         d="m 207.5625,-5.59375 c -22.82974,7.6489695 -46.53857,12.9379331 -68.8125,22 -10.61822,9.293473 -20.28658,21.799459 -35.125,23.90625 -15.506416,5.49484 -34.133065,7.048073 -45.09375,20.65625 -14.594583,14.461405 -29.973736,28.292176 -43.1875,43.96875 -5.216066,12.96942 -7.5507747,28.61822 -19.7456571,37.26152 -11.0115239,12.20701 -27.1761409,22.04832 -30.5043429,39.48848 -6.203544,19.61278 -13.387734,39.02828 -17.875,59.09375 1.994764,14.16218 6.38734,29.59651 -0.5,43.15625 -4.327495,15.88934 -13.596309,32.15148 -8.107465,48.98478 3.619462,19.87551 5.99464,40.0959 11.451215,59.54647 7.94655,11.7717 19.555882,23.08089 19.495657,38.25799 3.614726,16.08793 3.021003,34.76491 15.535593,47.30451 12.7535287,16.07213 24.3150092,33.55296 38.780407,47.98564 12.088271,6.37529 26.99691,10.95527 33.875843,23.82686 10.863594,12.7929 18.958348,29.94402 36.280632,35.23657 18.390918,8.41908 36.483818,17.64988 55.500618,24.45093 14.07919,0.10702 29.64437,-2.94529 42.0625,5.3125 15.18464,6.03991 30.10846,17.48407 47.46875,14.46875 20.53823,-1.25946 41.3516,-1.21502 61.65625,-4.3125 12.62405,-6.74131 25.46831,-16.61366 40.53125,-14.75 16.36254,-1.64912 34.81125,1.26251 48.61064,-9.75921 17.28563,-10.46739 35.32845,-19.96318 51.63936,-31.83454 8.04262,-11.57397 14.34531,-26.02448 28.25,-31.5625 13.75564,-9.07448 31.47617,-14.89811 38.90625,-30.90625 10.59555,-17.57903 22.40797,-34.56278 31.40625,-52.9375 2.00836,-13.96438 0.54051,-29.77725 10.40625,-41.1875 8.19658,-14.76571 21.28519,-28.3136 20.16602,-46.37238 1.29843,-20.16773 3.55895,-40.39617 3.11523,-60.59637 -4.88226,-13.28268 -13.35932,-26.69604 -9.875,-41.3125 0.35156,-16.39669 5.42256,-34.35004 -3.34375,-49.40625 -8.3469,-18.79106 -15.86307,-38.0761 -25.8125,-56 -10.39826,-9.43267 -24.24092,-17.53899 -28,-31.96875 C 499.29981,111.41974 495.45866,92.868337 480.06218,83.59493 464.17324,71.057045 448.86979,57.713473 432,46.59375 418.37278,42.931047 402.70084,42.650893 392.66001,31.505578 379.12122,21.985913 367.40958,7.1361047 349.6875,5.9375 329.20991,2.1702819 308.83355,-3.1385727 288.03125,-4.40625 274.83529,-1.1629403 260.85742,5.3071477 247.2952,0.23977476 234.11268,-1.941526 220.98557,-5.7029824 207.5625,-5.59375 z"
         style="fill:none;stroke:#000000;stroke-opacity:1" />
      <path
         inkscape:connector-curvature="0"
         id="path3781"
         d="m 206.5625,-19.5 c -25.83029,8.347747 -53.38857,13.223916 -77.59375,25.90625 -10.75186,11.940028 -24.49752,22.239496 -40.90625,23.65625 -18.95025,4.655642 -36.943404,14.629288 -48.75,30.34375 -16.620926,16.030519 -36.636509,31.514871 -42.25,55.125 -3.9558091,11.51521 -13.335414,19.88159 -22.475464,27.25076 -13.118449,12.06241 -23.32439,27.86762 -26.327677,45.65213 C -57.503021,206.53092 -64.962179,224.4562 -66.5,243.5 c 4.129825,15.7712 3.944226,33.35898 -4.1875,47.8125 -6.808667,17.78857 -8.373881,37.9791 -2.1875,56.1875 3.737698,22.24329 4.646221,47.01793 20.34375,64.65625 7.736581,10.41516 9.964365,23.15466 10.5625,35.875 2.564613,18.11224 10.484207,35.59145 23.75,48.28125 13.5684535,18.12776 26.4338795,39.81442 48.6875,48.1875 11.394977,5.4027 18.876025,15.75444 25.28125,26.28125 10.64004,14.78379 25.576651,26.76581 43.1875,31.78125 20.6407,9.68401 42.1918,23.27142 66.1875,20.25 12.69494,-0.31308 24.40836,5.34158 34.96875,11.8125 16.2517,8.06953 35.08935,11.44988 53.03125,7.78125 22.75057,-0.82418 47.8263,0.86118 67.34375,-12.78125 11.36611,-6.52713 24.61495,-6.35298 37.31102,-5.83571 17.96821,-0.55244 35.88348,-6.32877 49.81398,-17.75804 19.63918,-11.33098 42.56178,-21.31367 53.53125,-42.46875 6.83456,-10.72112 18.3024,-17.01027 29.59375,-22.125 16.06234,-8.84792 29.41979,-22.44441 36.71875,-39.40625 12.1252,-19.19089 27.76701,-38.51468 27.75,-62.375 0.93936,-12.24561 7.60824,-23.23289 15.21875,-32.53125 10.35414,-15.43967 16.46338,-34.1038 14.875,-52.875 1.85906,-22.50986 6.5552,-47.06322 -4.4375,-68.03125 -4.98578,-11.46945 -3.85157,-24.23413 -1.5625,-36.15625 1.81085,-18.76246 -1.63287,-38.20021 -11.78125,-54.15625 -8.83173,-20.38613 -15.62462,-43.91302 -34.78125,-57.09375 -9.40733,-7.75336 -15.2746,-19.16195 -18.43696,-30.89599 C 507.38978,90.292899 495.45232,74.461791 478.84375,64.96875 461.25509,50.852392 444.12894,32.783043 420.65625,30.0625 408.69173,27.71374 398.80629,20.148823 390.53125,11.5 376.43605,-0.73513074 358.8192,-9.2928181 339.90625,-10.0625 317.38138,-14.713884 293.02633,-22.376248 270.5625,-13.75 c -12.37294,3.709828 -24.6758,-0.151505 -36.78882,-2.852682 -8.97802,-1.763246 -18.02436,-3.215107 -27.21118,-2.897318 z"
         style="fill:none;stroke:#000000;stroke-opacity:1" />
      <path
         inkscape:connector-curvature="0"
         id="path3797"
         d="M 211.59375,-31.5625 C 194.77473,-30.482943 179.24246,-22.953214 163,-19.40625 145.25536,-14.038638 125.83703,-8.7804623 113.1875,5.5625 102.07268,15.492961 87.440893,18.938761 73.28125,21.875 50.962417,29.296391 34.572525,46.820714 18.614677,63.121936 3.1232132,77.430721 -10.428756,94.962821 -16.1875,115.5 c -11.651962,18.02011 -33.599522,28.25439 -40.375,49.5 -8.228766,19.91595 -12.951526,41.0584 -19.6875,61.4375 -2.985214,12.64469 -0.941722,25.66782 0.5,38.3125 -1.317791,19.23806 -14.515069,36.08472 -12.891947,55.84361 0.08585,20.91405 6.154316,41.26324 9.298485,61.78836 3.289296,15.42056 10.549865,29.73783 20.218462,42.08678 8.034582,19.48822 4.120934,42.89737 17.201996,60.41999 10.827891,17.12654 24.631246,32.40791 36.954254,48.54876 10.2216063,11.5651 23.809368,19.18258 37,26.625 14.78518,14.61403 23.462873,36.09047 43.403756,44.9886 17.558782,9.28735 36.165304,16.64953 54.189994,24.91765 14.02686,5.06271 29.11159,5.50255 43.8125,5.875 19.62238,5.68465 36.56728,20.54853 57.90568,19.59638 20.27002,0.5753 40.53756,-1.77282 60.71932,-2.90888 14.82666,-1.9854 28.42138,-8.67481 41.59375,-15.15625 19.78972,-4.18254 41.81177,1.20787 60.09497,-9.35762 18.038,-8.5706 34.42805,-20.57929 51.90503,-30.29863 12.75552,-8.79675 21.97422,-21.43889 31,-33.75 15.78208,-12.63636 37.36592,-18.25079 48.65625,-36 12.06652,-15.84059 20.90611,-34.15437 31.875,-50.8125 7.51578,-13.84082 9.60941,-29.82405 12.0625,-45.09375 8.34755,-18.38135 24.67039,-33.56173 26.35741,-54.54796 3.06975,-20.11232 3.09362,-40.65125 4.36134,-60.95204 -0.18372,-14.80937 -5.11956,-29.09947 -10.03125,-42.6875 -1.59271,-19.83401 5.98555,-40.47465 -1.65627,-59.64713 -5.94681,-19.34817 -16.2856,-37.01539 -23.81248,-55.66537 -6.97151,-13.82427 -18.2792,-24.83875 -29.53125,-34.84375 C 523.85729,107.39557 521.60935,85.555501 506.30914,72.183259 491.34796,56.912161 472.93976,45.145972 456.375,31.59375 c -12.03711,-8.239957 -26.28622,-12.319625 -40.3125,-15.75 -17.85556,-9.6272683 -30.42915,-28.5485 -51.17078,-33.024759 -19.33273,-5.769396 -39.74836,-7.858655 -59.44884,-11.922597 -15.34913,-1.748988 -30.5656,1.090047 -45.38038,4.666106 -16.48998,0.105713 -31.89638,-7.820151 -48.46875,-7.125 z"
         style="fill:none;stroke:#000000;stroke-opacity:1" />
      <path
         inkscape:connector-curvature="0"
         id="path3811"
         d="m 212.75,-43.59375 c -27.13769,2.60376 -52.63616,13.368469 -78.5625,20.9375 -13.90081,5.516056 -25.22206,15.6235042 -37,24.625 -18.683991,8.482679 -41.28752,9.356316 -56.53125,24.4375 -21.272061,16.899242 -40.43549327,36.557534 -56.330802,58.636448 -7.68778,12.997811 -11.22759,29.027972 -23.950448,38.551052 -13.346927,12.73804 -27.140987,26.74468 -31.148823,45.39183 -7.730091,23.17788 -16.541701,46.42275 -19.007427,70.85817 0.698407,15.30627 4.085297,31.9821 -4.09375,45.90625 -7.72663,19.46986 -8.92918,41.32046 -3.932364,61.68777 4.263122,26.33113 7.803616,54.20458 23.682364,76.46848 5.805006,8.70199 8.324298,18.76325 9.0625,29.125 2.573903,18.44883 8.813097,36.95368 21.8625,50.7125 16.74142,22.4263 33.088959,46.97621 58.60625,60.31875 9.697703,5.71287 17.673362,13.78227 23.28125,23.5625 11.508878,15.95537 27.350952,28.87184 46.119406,35.1864 24.839124,12.08656 50.734304,25.38524 79.130594,24.53235 12.2338,0.48419 22.83363,7.01183 33.5,12.1875 16.52985,7.46887 34.91014,9.94717 52.87229,7.47786 27.03242,-0.71255 55.42546,-1.29547 79.62771,-14.72786 10.81956,-5.23525 23.02478,-5.098 34.84138,-5.0063 18.98007,-0.88688 37.32566,-7.51768 52.59612,-18.71245 21.93398,-12.79873 45.75459,-24.88143 60.43001,-46.54192 6.95506,-9.06339 15.85157,-16.74086 26.56428,-21.01488 17.77199,-9.66785 32.79002,-24.47428 41.65279,-42.76332 13.71799,-21.82376 29.55579,-43.76297 32.4687,-70.12643 1.83088,-11.15136 6.14684,-21.99418 13.52476,-30.64072 11.03275,-16.65125 17.7796,-36.20023 17.32421,-56.34013 2.45035,-27.34404 5.55378,-56.29404 -5.1835,-82.2601 -3.84073,-11.22366 -1.85748,-22.84457 -0.60459,-34.24866 1.3692,-18.92711 -2.90666,-38.05813 -11.92666,-54.56384 -10.32709,-23.72674 -19.53323,-49.24832 -39.69021,-66.59861 -7.9407,-7.58622 -13.96958,-16.84702 -16.90354,-27.49514 C 528.06624,78.122128 516.47679,61.703742 500.40491,50.903017 482.32031,36.417757 464.6598,20.465419 443.125,11.4375 429.80347,7.2181834 415.32845,3.9782844 405.63408,-6.7660541 390.63204,-19.835795 372.58912,-30.605255 352.40627,-32.453006 c -27.41018,-5.62079 -55.95073,-13.106275 -83.83162,-5.891601 -10.92612,2.11489 -22.34924,1.560567 -32.88715,-2.186643 -7.50649,-1.77979 -15.18168,-3.26086 -22.9375,-3.0625 z"
         style="fill:none;stroke:#000000;stroke-opacity:1" />
    </g>
    <path
       sodipodi:type="star"
       style="fill:none;stroke:#000000;stroke-opacity:1"
       id="path3848"
       sodipodi:sides="13"
       sodipodi:cx="127.27922"
       sodipodi:cy="640.21991"
       sodipodi:r1="54.639248"
       sodipodi:r2="34.071171"
       sodipodi:arg1="2.3938703"
       sodipodi:arg2="0.87127642"
       inkscape:flatsided="false"
       inkscape:rounded="1"
       inkscape:randomized="0"
       d="m 87.215566,677.37298 c -37.059399,50.92635 92.512244,44.01571 62.000394,-11.08347 -36.62507,-66.1386 -6.87981,-45.24542 -74.677239,-11.7907 -56.481122,27.87069 61.460409,81.96656 60.049369,18.9991 -1.69375,-75.58334 14.93483,-43.26004 -60.644001,-45.14439 -62.963701,-1.56982 16.328732,101.13985 44.341751,44.72919 33.62559,-67.71285 33.32808,-31.3643 -32.717946,-68.15604 -55.022055,-30.6507 -32.54366,97.14323 18.475986,60.21238 61.24171,-44.33016 44.08626,-12.28338 2.70338,-75.55397 -34.475519,-52.70987 -73.96069,70.89227 -11.622416,61.90163 74.828096,-10.79197 44.744816,9.61151 37.505406,-65.64339 -6.03106,-62.69385 -98.434217,28.40073 -39.058258,49.40996 71.272268,25.21854 35.152878,29.30453 63.715398,-40.6947 23.79504,-58.31542 -100.357657,-20.59706 -57.54633,25.59907 51.38882,55.45178 17.50783,42.28423 75.32895,-6.42335 48.16999,-40.57763 -79.290357,-64.87632 -62.85122,-4.07626 19.73281,72.98168 -4.14805,45.57712 69.68555,29.31951 61.50978,-13.54399 -40.0586,-94.29319 -53.75766,-32.81777 -16.44374,73.79237 -24.85366,38.42885 48.07804,58.34564 60.7584,16.5924 8.3501,-102.10864 -32.34887,-54.04113 -48.853238,57.69811 -39.8656,22.47698 15.45642,74.00547 46.08802,42.92769 54.84589,-86.53221 -3.52934,-62.8843 -70.071041,28.3859 -45.74481,1.37591 -20.70608,72.71154 20.85943,59.42875 88.77716,-51.13231 26.09872,-57.32145 -75.236412,-7.42916 -41.14443,-20.04036 -52.12506,54.76028 -9.147813,62.31541 102.37064,-4.01861 49.74788,-38.62694 -63.166034,-41.54231 -27.11837,-36.86563 -71.602824,24.26409 z"
       inkscape:transform-center-x="-24.276197"
       inkscape:transform-center-y="-18.133574"
       transform="matrix(1.2291663,0,0,1.2291663,102.37064,-188.91536)" />
    <path
       style="fill:none;stroke:#000000;stroke-width:1.22916627;stroke-opacity:1"
       d="m 243.21875,496.09375 c -12.57044,0.41681 -23.07579,8.23202 -32.84375,15.15625 -17.44917,1.14767 -28.50059,17.45794 -34.34375,32.1875 -12.1185,6.25892 -15.90294,20.6713 -16.10356,33.37416 -0.30483,5.7373 0.86662,11.69226 -2.36519,16.71959 -5.23222,14.23011 1.48662,29.561 9.1875,41.3125 -0.21455,6.89499 0.80603,13.68713 5.15625,19.25 5.62211,8.64743 14.4707,14.408 22.96875,19.84375 6.98043,16.12165 26.42901,20.49639 42.34375,20.9375 4.64622,3.02468 9.28577,6.63306 15.125,6.28125 11.40126,1.36265 22.30738,-3.02307 32.53125,-7.34375 17.22778,3.27663 31.99558,-9.94777 41.21875,-22.96875 5.22456,-1.92629 10.69921,-3.85186 13.8125,-8.78125 7.71948,-8.66129 10.21288,-20.24086 12.65625,-31.15625 11.92297,-11.92148 10.27991,-31.41457 4.5,-46.0625 1.40831,-6.47171 2.8035,-13.25921 -0.15625,-19.53125 -3.1032,-10.17093 -10.85453,-18.1447 -17.8125,-25.78125 -3.05846,-16.72163 -19.91877,-26.10553 -35.15625,-29.84375 -4.97436,-4.30692 -9.28238,-10.04147 -16.25,-11 -10.25089,-3.29572 -21.21426,-1.07053 -31.53125,-0.15625 -4.04634,-1.83774 -8.48137,-2.71254 -12.9375,-2.4375 z"
       id="path3850"
       inkscape:connector-curvature="0" />
    <path
       style="fill:none;stroke:#000000;stroke-width:0.59227633;stroke-opacity:1"
       d="m 259.78995,357.78994 100.8693,-62.81969 23.50717,-27.42608 5.64675,-25.28123 -12.14522,-23.51964 -29.86876,-22.14128 -112.63438,-41.68052 -61.82874,-6.57071 -45.8522,14.53123 -29.291632,29.4499 -12.147073,38.18528 5.581488,40.73738 23.894057,37.10619 42.79063,27.29172 62.27119,11.29398 118.5091,-8.74777 33.5601,-13.36027 16.74873,-19.76124 0.17606,-26.46977 -16.1579,-33.48584 -80.36289,-89.25007 -51.69307,-34.55133 -47.3531,-8.44181 -39.62251,12.46409 -28.50128,28.16635 -13.98945,38.66501 3.91303,43.96002 25.20612,44.05142 49.88984,38.93918 108.99989,47.32816 35.92482,3.76623 24.01376,-9.71419 12.45701,-23.35599 1.25453,-37.15919 -29.68122,-116.37352 -29.71514,-54.61665 -38.00599,-29.48093 -40.87633,-7.377094 -38.3262,11.694864 -30.35556,27.73494 -16.96442,40.74315 1.84719,50.71946 26.07932,57.6639 74.52012,92.56178 30.05959,20.02992 25.77754,2.55826 21.88421,-14.89164 18.37957,-32.31982 27.80005,-116.83718 -0.92983,-62.16996 -19.95216,-43.76633 -32.76589,-25.52827 -39.37103,-7.455785 -39.76758,10.451145 -33.95554,28.19249 -21.9349,45.76829 -3.70566,63.17851 22.96869,116.59061 17.30807,31.705 21.636,14.24466 26.29799,-3.0158 31.29407,-20.07637 78.91267,-90.53486 28.0685,-55.48087 2.67247,-48.0254 -17.14918,-37.83123 -31.39645,-24.89839 -40.06933,-9.22689 -43.16784,9.18329 -40.69197,30.33215 -32.64172,54.21969 -33.8446,113.90994 0.59149,36.11684 12.5379,22.66777 24.68724,9.55093 37.03947,-3.23366 111.94735,-43.49209 50.63666,-36.0818 24.68487,-41.28241 2.39621,-41.46752 -16.22931,-36.63709 -31.19168,-26.79115 -42.49092,-11.92969 -50.127,7.94728 -54.09995,32.83978 -82.90449,85.13387 -16.2606,32.25476 0.56753,25.89797 17.42092,19.92965 34.29958,14.34984 119.33623,13.51419 61.60459,-8.41681 41.04226,-25.08213 21.39265,-35.60409 2.65577,-39.98267 -15.1684,-38.21788 -32.07983,-30.30973 -48.07854,-16.25821 -63.16454,3.93668 -112.97196,36.85467 -29.38758,21.00349 -11.53287,23.19525 6.16369,25.74274 23.70207,28.64596 99.38663,67.42453 58.45964,21.17637 47.99737,-3.13584 35.48829,-21.58419 20.93244,-34.1687 4.32979,-40.88935 -14.31965,-41.74618 -35.01587,-36.73915 -57.75889,-25.86826 -117.15892,-19.86751 -35.78222,4.94058 -20.99121,15.17879 -6.50557,25.65847 7.67469,36.37964 56.66875,105.88873 41.92229,45.91829 43.95685,19.52884 41.454,-2.61962 34.41374,-20.52709 22.83607,-34.19357 6.721,-43.61908 -13.93148,-48.80358 -39.12137,-49.7471 -94.50618,-72.03827 -33.97959,-12.25416 -25.64073,3.68504 -17.68449,19.69615 -10.11085,35.77919 0.96874,120.09509 15.78105,60.14089 29.84635,37.71969 37.92309,16.94508 40.01127,-2.18297 36.11089,-19.66446 26.22194,-35.49936 10.34444,-49.68771 -11.52162,-62.22948 -50.20322,-107.70594 -24.39264,-26.64161 -24.41626,-8.6529 -24.81209,9.22168 -25.58014,26.98215 -54.9532,106.78912 -13.97543,60.58593 8.89842,47.26943 25.70446,32.62786 36.44269,16.66123 41.11313,-0.63044 39.71576,-19.24719 32.25057,-39.18898 18.7176,-60.45583 5.6007,-118.69947 -9.21763,-34.92581 -17.59832,-19.00856 -26.25556,-3.36535 -35.18931,12.00382 -98.28601,69.01905 -40.53033,47.15147 -14.088036,45.99029 7.597246,40.83599 24.52554,31.68856 36.69685,18.54799 44.11117,1.4143 46.7685,-19.71253 44.66883,-44.83248 60.12156,-102.50038 8.06903,-35.20891 -6.74882,-25.0096 -21.68418,-15.18144 -36.73704,-5.72443 -119.1027,15.43754 -57.8002,22.91517 -33.84709,34.17535 -12.250407,39.68909 6.989885,39.45641 23.873762,33.47731 38.40125,21.75178 50.57231,4.27983 60.38698,-18.93856 0,0"
       id="path3862"
       inkscape:connector-curvature="0" />
    <path
       inkscape:connector-curvature="0"
       id="path3864"
       d="m 233.15194,85.375025 c -13.52152,4.530304 -27.56369,7.662832 -40.75602,13.03008 -6.28892,5.504305 -12.01526,12.911305 -20.8037,14.159105 -9.18409,3.25447 -20.21621,4.17441 -26.70796,12.23421 -8.64403,8.56515 -17.75274,16.75679 -25.57894,26.04165 -3.08935,7.68148 -4.47215,16.9499 -11.69489,22.06912 -6.52186,7.22992 -16.095781,13.0587 -18.066996,23.38809 -3.674213,11.61619 -7.929239,23.11553 -10.58694,34.99983 1.181451,8.38793 3.78307,17.52931 -0.296138,25.56043 -2.563073,9.41088 -8.052773,19.04256 -4.80186,29.01252 2.143722,11.7718 3.550483,23.74786 6.782284,35.26797 4.706553,6.9721 11.582486,13.67027 11.546816,22.6593 2.140917,9.5285 1.789269,20.59044 9.201364,28.01734 7.55361,9.51915 14.40121,19.87263 22.96872,28.42076 7.1596,3.77594 15.98963,6.48855 20.06386,14.11209 6.43425,7.57693 11.22858,17.73514 21.48816,20.86979 10.89251,4.98642 21.6085,10.4536 32.8717,14.4817 8.33877,0.0634 17.55766,-1.74442 24.91263,3.14647 8.9935,3.5773 17.83253,10.3554 28.11461,8.5695 12.16431,-0.74595 24.49158,-0.71963 36.51754,-2.55419 7.47693,-3.99272 15.08428,-9.83988 24.0057,-8.73608 9.69115,-0.97673 20.61788,0.74776 28.79094,-5.78015 10.23787,-6.19958 20.9242,-11.82372 30.58477,-18.85484 4.76345,-6.85499 8.49639,-15.41368 16.73181,-18.69372 8.14714,-5.3746 18.64259,-8.8238 23.04325,-18.30504 6.27549,-10.41165 13.27171,-20.47072 18.60118,-31.35363 1.1895,-8.27078 0.32013,-17.63636 6.16337,-24.39439 4.85464,-8.74538 12.60672,-16.76947 11.94386,-27.46526 0.76903,-11.94487 2.10788,-23.9257 1.84508,-35.8898 -2.89165,-7.86701 -7.91241,-15.81143 -5.84873,-24.46841 0.20822,-9.71137 3.21165,-20.34472 -1.98043,-29.26216 -4.94367,-11.1295 -9.39532,-22.55157 -15.28813,-33.16747 -6.15864,-5.58675 -14.35732,-10.38793 -16.58374,-18.93434 -4.39406,-8.87615 -6.66908,-19.86371 -15.78805,-25.35613 -9.41065,-7.42589 -18.47452,-15.32897 -28.4661,-21.91492 -8.07108,-2.16934 -17.3532,-2.33526 -23.30014,-8.93637 -8.01871,-5.63827 -14.95524,-14.433463 -25.4516,-15.143368 -12.1284,-2.231234 -24.19683,-5.375543 -36.51754,-6.126359 -7.81566,1.920936 -16.09442,5.753016 -24.127,2.751731 -7.8077,-1.291933 -15.58257,-3.519755 -23.53274,-3.455059 z"
       style="fill:none;stroke:#000000;stroke-width:0.59227633;stroke-opacity:1" />
    <path
       inkscape:connector-curvature="0"
       id="path3866"
       d="m 232.55966,77.138682 c -15.29867,4.944173 -31.62078,7.832213 -45.95694,15.343659 -6.36807,7.071797 -14.5093,13.171929 -24.2278,14.011039 -11.22379,2.75743 -21.88071,8.66458 -28.87348,17.97188 -9.84418,9.4945 -21.69893,18.66552 -25.02367,32.64924 -2.34293,6.82018 -7.89825,11.77539 -13.311688,16.13998 -7.769747,7.14428 -13.814484,16.50533 -15.59326,27.03868 -3.412921,10.71829 -7.830804,21.33501 -8.741619,32.6142 2.445997,9.34091 2.336072,19.75774 -2.480157,28.31822 -4.032613,10.53574 -4.959652,22.49412 -1.295605,33.27852 2.21375,13.17418 2.751847,27.84761 12.049122,38.29437 4.582194,6.16865 5.901658,13.71396 6.255919,21.24791 1.51896,10.72746 6.209548,21.07998 14.066563,28.59585 8.036275,10.73664 15.656165,23.58114 28.836455,28.54031 6.74898,3.1999 11.17982,9.33099 14.97349,15.56577 6.30184,8.75609 15.14844,15.85275 25.57893,18.82328 12.225,5.73561 24.98921,13.78311 39.20129,11.9936 7.51892,-0.18543 14.4565,3.16369 20.71117,6.99626 9.62549,4.77939 20.78259,6.78149 31.40915,4.60865 13.47463,-0.48814 28.32639,0.51006 39.88611,-7.57003 6.73188,-3.86587 14.57885,-3.76272 22.09844,-3.45636 10.64214,-0.32719 21.25293,-3.74838 29.50364,-10.51766 11.63182,-6.71107 25.20833,-12.62358 31.70529,-25.15324 4.04795,-6.34986 10.84008,-10.07478 17.52768,-13.10411 9.51334,-5.24042 17.42465,-13.2933 21.74765,-23.33939 7.18147,-11.36631 16.44574,-22.81134 16.43567,-36.94324 0.55636,-7.25279 4.50618,-13.76029 9.0137,-19.26749 6.13251,-9.14455 9.75087,-20.19887 8.81011,-31.31661 1.10108,-13.33206 3.88249,-27.87443 -2.62822,-40.2933 -2.95296,-6.79309 -2.2812,-14.3533 -0.92544,-21.41449 1.07253,-11.11257 -0.96711,-22.62509 -6.97775,-32.07547 -5.23083,-12.07422 -9.25409,-26.00864 -20.60011,-33.81528 -5.57174,-4.59213 -9.04679,-11.34917 -10.91978,-18.29896 -4.08197,-10.43805 -11.15225,-19.81444 -20.98911,-25.43694 -10.41735,-8.36079 -20.56076,-19.06284 -34.46308,-20.67415 -7.0863,-1.39112 -12.94122,-5.87164 -17.84233,-10.994131 -8.34825,-7.246579 -18.78229,-12.315094 -29.98399,-12.770959 -13.34094,-2.754905 -27.76586,-7.293141 -41.07066,-2.184019 -7.3282,2.197244 -14.61489,-0.08973 -21.78915,-1.689576 -5.31747,-1.044329 -10.6754,-1.904232 -16.11654,-1.716013 z"
       style="fill:none;stroke:#000000;stroke-width:0.59227633;stroke-opacity:1" />
    <path
       inkscape:connector-curvature="0"
       id="path3868"
       d="m 235.53955,69.994349 c -9.9615,0.639396 -19.1609,5.099076 -28.78092,7.199859 -10.50974,3.17911 -22.01075,6.293403 -29.50277,14.7884 -6.58305,5.881577 -15.24911,7.922443 -23.63553,9.661512 -13.21892,4.39551 -22.92626,14.77475 -32.37772,24.42958 -9.17522,8.47476 -17.20174,18.8586 -20.6125,31.02229 -6.901185,10.67288 -19.900206,16.73441 -23.913161,29.31768 -4.873704,11.79574 -7.670883,24.31792 -11.660441,36.38798 -1.768071,7.48915 -0.557759,15.20244 0.296138,22.69158 -0.780496,11.39425 -8.596932,21.37213 -7.635595,33.07485 0.05085,12.3869 3.645056,24.43925 5.507273,36.59579 1.948172,9.13323 6.248435,17.61301 11.974917,24.927 4.758693,11.54241 2.440732,25.4071 10.188335,35.78533 6.413104,10.14365 14.588505,19.19444 21.887134,28.75429 6.05401,6.84973 14.10172,11.36138 21.91422,15.76935 8.75691,8.65555 13.89651,21.37554 25.70702,26.64569 10.39965,5.50068 21.41985,9.86112 32.09545,14.75813 8.30778,2.99853 17.24211,3.25903 25.94911,3.47963 11.62187,3.36688 21.65793,12.1704 34.29616,11.60647 12.00546,0.34074 24.00944,-1.05 35.96262,-1.72286 8.78148,-1.17591 16.83331,-5.13789 24.635,-8.97669 11.72098,-2.47722 24.76412,0.71539 35.59283,-5.5423 10.68348,-5.07616 20.39092,-12.18862 30.74212,-17.94516 7.55479,-5.21011 13.01481,-12.69775 18.36056,-19.98933 9.34736,-7.48421 22.13095,-10.80951 28.81795,-21.32194 7.14671,-9.38201 12.38219,-20.22883 18.87881,-30.09505 4.45142,-8.19759 5.69143,-17.66408 7.14433,-26.70796 4.94406,-10.88684 14.61169,-19.87782 15.61087,-32.30747 1.81814,-11.91205 1.83228,-24.07677 2.58312,-36.10045 -0.10881,-8.77124 -3.03219,-17.23492 -5.94127,-25.28279 -0.94333,-11.74722 3.5451,-23.97218 -0.98097,-35.32759 -3.52216,-11.45946 -9.64558,-21.92334 -14.10357,-32.96928 -4.12906,-8.18779 -10.82634,-14.7114 -17.49066,-20.63713 -6.56255,-9.66783 -7.89395,-22.60319 -16.9559,-30.52325 -8.86115,-9.04471 -19.7639,-16.01355 -29.57481,-24.04021 -7.1293,-4.88033 -15.56871,-7.29662 -23.87614,-9.328351 C 346.06613,92.369946 338.61909,81.163348 326.33432,78.512166 314.884,75.095089 302.7923,73.85767 291.12417,71.450693 c -9.09092,-1.035884 -18.10328,0.64561 -26.87772,2.763625 -9.76663,0.06261 -18.89147,-4.631691 -28.7069,-4.219969 z"
       style="fill:none;stroke:#000000;stroke-width:0.59227633;stroke-opacity:1" />
    <path
       inkscape:connector-curvature="0"
       id="path3870"
       d="m 236.22437,62.868524 c -16.07301,1.542145 -31.17515,7.917828 -46.53071,12.400786 -8.23312,3.267029 -14.93843,9.253432 -21.91422,14.584805 -11.06609,5.02409 -24.45362,5.541525 -33.48212,14.473755 -12.59894,10.00902 -23.94899,21.65216 -33.36341,34.72898 -4.553287,7.6983 -6.649832,17.19258 -14.18528,22.83288 -7.90507,7.54444 -16.074965,15.84024 -18.448712,26.8845 -4.57835,13.72771 -9.797258,27.4951 -11.257649,41.96762 0.41365,9.06554 2.419625,18.94224 -2.424631,27.18919 -4.576301,11.53154 -5.288542,24.47313 -2.329047,36.53621 2.524947,15.5953 4.621898,32.10409 14.026505,45.29047 3.438167,5.15398 4.930284,11.11303 5.367504,17.25005 1.524462,10.9268 5.219789,21.88679 12.948642,30.03581 9.915547,13.28257 19.597808,27.8229 34.711098,35.72537 5.74372,3.3836 10.46751,8.16291 13.78893,13.95551 6.81644,9.44999 16.19932,17.10011 27.31543,20.84007 14.71163,7.15859 30.04873,15.03508 46.86718,14.52993 7.24579,0.28678 13.52382,4.15295 19.84126,7.21837 9.79024,4.42364 20.67645,5.89148 31.31501,4.42896 16.01066,-0.42202 32.82719,-0.76727 47.16161,-8.72296 6.40817,-3.10072 13.63703,-3.01943 20.63572,-2.96511 11.24145,-0.52528 22.10711,-4.45255 31.15144,-11.08295 12.99098,-7.58038 27.09936,-14.73668 35.79127,-27.56567 4.11931,-5.36804 9.38851,-9.91522 15.73339,-12.44662 10.52593,-5.72604 19.42076,-14.49554 24.66996,-25.3277 8.12485,-12.9257 17.5052,-25.91978 19.23045,-41.53423 1.08438,-6.60469 3.64063,-13.02663 8.01039,-18.14777 6.53444,-9.86215 10.53044,-21.44054 10.26072,-33.36893 1.45129,-16.19523 3.28938,-33.34163 -3.07006,-48.72071 -2.27477,-6.64751 -1.10014,-13.5303 -0.35809,-20.28467 0.81095,-11.21008 -1.72154,-22.54093 -7.06387,-32.31688 -6.1165,-14.05278 -11.56907,-29.16861 -23.50758,-39.44478 -4.70309,-4.49314 -8.27385,-9.97809 -10.01156,-16.28472 -4.12521,-10.57013 -10.98937,-20.29435 -20.50837,-26.69137 C 395.88449,110.25745 385.42459,100.80925 372.67004,95.462232 364.78001,92.96323 356.2068,91.044315 350.46505,84.680697 341.5797,76.939799 330.8933,70.561302 318.93948,69.466923 c -16.2344,-3.329061 -33.13829,-7.762537 -49.65149,-3.489456 -6.47128,1.252599 -13.23692,0.924287 -19.47828,-1.295097 -4.44591,-1.054127 -8.99175,-1.93133 -13.58534,-1.813846 z"
       style="fill:none;stroke:#000000;stroke-width:0.59227633;stroke-opacity:1" />
  </g>
</svg>
