<?xml version="1.0" encoding="UTF-8" standalone="no"?>
<!-- Created with Inkscape (http://www.inkscape.org/) -->

<svg
   xmlns:dc="http://purl.org/dc/elements/1.1/"
   xmlns:cc="http://creativecommons.org/ns#"
   xmlns:rdf="http://www.w3.org/1999/02/22-rdf-syntax-ns#"
   xmlns:svg="http://www.w3.org/2000/svg"
   xmlns="http://www.w3.org/2000/svg"
   xmlns:sodipodi="http://sodipodi.sourceforge.net/DTD/sodipodi-0.dtd"
   xmlns:inkscape="http://www.inkscape.org/namespaces/inkscape"
   width="744.09448819"
   height="1052.3622047"
   id="svg3783"
   version="1.1"
   inkscape:version="0.48.2 r9819"
   sodipodi:docname="spiral047.svg">
  <sodipodi:namedview
     id="base"
     pagecolor="#ffffff"
     bordercolor="#666666"
     borderopacity="1.0"
     inkscape:pageopacity="0.0"
     inkscape:pageshadow="2"
     inkscape:zoom="0.7"
     inkscape:cx="219.07272"
     inkscape:cy="623.2366"
     inkscape:document-units="px"
     inkscape:current-layer="layer1"
     showgrid="false"
     inkscape:window-width="1024"
     inkscape:window-height="748"
     inkscape:window-x="20"
     inkscape:window-y="-4"
     inkscape:window-maximized="0" />
  <title
     id="title3277">baker</title>
  <defs
     id="defs3785">
    <inkscape:perspective
       id="perspective3823"
       inkscape:persp3d-origin="334.90438 : 296.50168 : 1"
       inkscape:vp_z="372.04724 : 175.3937 : 0"
       inkscape:vp_y="0 : 1000 : 0"
       inkscape:vp_x="-314.90439 : 155.3937 : 0"
       sodipodi:type="inkscape:persp3d" />
  </defs>
  <metadata
     id="metadata3788">
    <rdf:RDF>
      <cc:Work
         rdf:about="">
        <dc:format>image/svg+xml</dc:format>
        <dc:type
           rdf:resource="http://purl.org/dc/dcmitype/StillImage" />
        <dc:title>baker</dc:title>
      </cc:Work>
    </rdf:RDF>
  </metadata>
  <g
     id="layer1"
     inkscape:groupmode="layer"
     inkscape:label="Layer 1">
    <flowRoot
       style="fill:black;stroke:none;stroke-opacity:1;stroke-width:1px;stroke-linejoin:miter;stroke-linecap:butt;fill-opacity:1;font-family:Sans;font-style:normal;font-weight:normal;font-size:40px;line-height:125%;letter-spacing:0px;word-spacing:0px"
       id="flowRoot3475"
       xml:space="preserve"><flowRegion
         id="flowRegion3477"><rect
           y="840.23016"
           x="40.406101"
           height="76.771591"
           width="474.7717"
           id="rect3479" /></flowRegion><flowPara
         id="flowPara3481" /></flowRoot>    <path
       sodipodi:nodetypes="cssssssssssssssssssssssssssssssssssssssssssssssssssssssssssssssssssssssssssssssssssssssssssssssssssssssssssssssssssssssssssssssssssssssssssc"
       inkscape:connector-curvature="0"
       id="path3032"
       d="m -1004.5835,-118.00974 c -0.2496,2.8352 -11.8195,8.1181 -14.0402,5.15044 -3.6538,-4.87492 -1.0319,-2.93767 0.036,-5.65943 1.4075,-3.93564 2.4801,-8.38986 7.0052,-2.14892 5.7044,7.85429 -424.8415,84.824763 -421.5969,93.455913 4.2909,10.89043 416.6237,-68.59561 410.2985,-78.877313 -7.9855,-12.56844 -20.2792,-20.43562 -16.9734,-25.43248 3.5025,-6.36436 13.9277,-11.91068 23.1229,0.94883 9.9634,13.89089 -421.3563,66.567363 -416.3452,83.784403 6.5866,20.01173 399.9523,-46.06809 389.8288,-63.897903 -12.4272,-20.31362 -17.9124,-41.8468 -12.3191,-48.81504 5.3679,-8.82003 22.4546,0.6655 36.57,19.86345 14.2783,19.16919 -377.9642,82.260973 -372.1675,108.258063 8.2946,29.3877001 348.8552,-53.57606 335.1942,-79.094153 -16.9832,-27.90693 -24.753,-56.31214 -16.8626,-65.21426 7.039,-11.32976 30.2113,0.88626 49.5026,26.10589 18.6445,23.65355 -412.1291,30.44156 -406.5743,65.319633 9.4119,39.01389 368.7544,-6.17033 351.8017,-39.436713 -21.6415,-35.06683 -31.8967,-69.78056 -21.7398,-80.78952 8.5087,-13.9517 37.9443,0.59258 62.6629,31.49181 23.0476,27.31985 -393.9841,27.18842 -389.7391,70.95443 9.9382,48.852213 363.0892,21.412933 343.0792,-19.55628 -26.3563,-41.51873 -39.2696,-81.99485 -26.9347,-95.46498 9.7561,-16.74235 45.6171,-0.32667 76.006,35.88715 27.4617,30.16109 -390.131,9.52676 -388.2942,62.07376 9.8791,58.853913 356.0823,47.744743 333.245,-0.73752 -31.0523,-47.03683 -46.7772,-92.77891 -32.4212,-109.21377 10.7513,-19.75407 53.1776,-1.9752 89.4693,39.16581 31.852,32.18505 -383.9319,-6.57862 -385.6192,54.50644 9.2481,68.964533 347.8053,72.740403 322.3813,17.12481 -35.6408,-51.4799 -54.3251,-102.04698 -38.1743,-122.06264 11.4601,-23.03547 60.5607,-4.45433 102.9748,41.20424 36.1784,33.41125 -375.422,-20.92785 -381.7482,48.29648 8.0667,79.126183 338.3372,96.353523 310.6003,34.18739 -40.042,-54.8083 -61.8404,-109.80357 -44.1834,-134.08674 11.8503,-26.62885 67.6911,-7.86759 116.4323,41.8769 40.39781,33.86921 -364.6623,-33.3076 -376.7187,43.48543 6.3649,89.279983 327.895,118.914033 298.0479,50.64145 -44.2,-57.07369 -69.2825,-116.12685 -50.4612,-145.38842 11.9001,-30.55965 74.4871,-12.32456 129.7438,41.0532 44.46699,33.59724 -351.7419,-43.49755 -370.5708,40.11103 4.1814,99.367823 317.1338,141.239793 284.8982,66.68004 -48.0865,-58.38485 -76.6412,-121.13564 -57.0463,-156.06404 11.6083,-34.80892 80.8666,-17.94129 142.8114,38.59868 48.34412,32.64077 -336.78,-51.27861 -363.3461,38.20596 1.5634,109.333973 306.4711,163.439683 271.3371,82.46462 -51.6908,-58.86695 -83.9187,-124.95468 -63.9952,-166.1746 10.9772,-39.2677 86.7502,-24.83788 155.5439,34.38019 51.9909,31.05202 -319.9261,-56.44154 -355.0863,37.79644 -1.4348,119.127083 296.2815,185.425453 257.5464,98.10926 -55.0067,-58.63524 -91.1111,-127.69541 -71.3709,-175.73741 9.9322,-43.71887 92.0526,-33.13465 167.8602,28.27528 55.37382,28.88877 -301.3593,-58.79671 -345.8317,38.9008 -4.7515,128.701443 287.0375,207.1993931 243.6935,113.682573 -58.0238,-57.786433 -98.1957,-129.453173 -79.229,-184.736473 8.2588,-47.92091 96.6492,-42.95053 179.6839,20.18216 58.46561,26.21346 -281.2847,-58.18448 -335.6189,41.52768 -8.3198,138.018843 279.1093,228.7111631 229.9293,129.221223 -60.7266,-56.401123 -105.1291,-130.314983 -87.6052,-193.140873 5.7383,-51.69537 100.2966,-54.39336 190.9309,10.0268 61.24631,23.09206 -259.9297,-54.48499 -324.4791,45.67464 -12.0682,147.049323 272.7751,249.757983 216.3901,144.744553 -63.0965,-54.549513 -111.8525,-130.368503 -96.5063,-200.920883 2.3006,-54.9058 102.5463,-67.47844 201.4964,-2.23385 63.70431,19.59269 -237.5369,-47.62819 -312.4359,51.32616 -15.9224,155.772353 268.2738,270.035233 203.2031,160.268173 -65.1171,-52.296503 -118.3009,-129.709613 -105.9098,-208.060393 -1.9887,-57.42682 102.8566,-81.94095 211.2469,-16.61024 65.83758,15.78356 -214.3535,-37.60255 -299.5025,58.45131 -19.807,164.177523 265.8117,289.176073 190.4922,175.813303 -66.7798,-49.704603 -124.4146,-128.446083 -115.7716,-214.564473 -6.9929,-59.14662 100.9073,-97.23439 220.0207,-33.07932 67.65346,11.73089 -190.6182,-24.46154 -285.6811,67.00136 -23.647,172.264933 265.5558,306.768853 178.3872,191.412043 -68.0903,-46.833823 -130.1527,-126.697313 -126.0402,-220.463363 -12.5479,-59.97711 96.6446,-112.7718 227.6314,-51.58278 69.16915,7.49593 -166.5358,-8.32672 -270.9613,76.90709 -27.369,180.045093 267.6241,322.367213 167.035,207.106403 -69.0766,-43.73751 -135.5077,-124.588283 -136.6761,-225.810103 -18.482,-59.86075 90.1438,-128.04213 233.8766,-72.02528 70.41039,3.13211 -142.2319,10.61361 -255.3202,88.0757 -30.9032,187.538993 272.0759,335.499543 156.6097,222.939863 -69.7941,-40.4522 -140.5179,-122.236463 -147.6694,-230.670943 -24.6271,-58.77258 81.5363,-142.60653 238.5458,-94.27231 71.41007,-1.31856 -117.6698,32.09888 -238.7239,100.38777 -34.1836,194.777583 278.9039,345.679443 147.3208,238.939663 -70.3253,-36.98157 -145.2759,-119.730113 -159.0547,-235.105653 -30.8232,-56.72001 70.9921,-156.08559 241.4301,-118.14953 72.2052,-5.82793 -92.6011,55.74004 -221.1302,113.6949 -37.1492,201.801063 288.0282,352.417453 139.4112,255.0931031 -70.7682,-33.2784201 -149.9256,-117.1017131 -170.9136,-239.1424631 -36.9225,-53.73997 58.7126,-168.15568 242.3305,-143.44262 72.833,-10.38424 -66.764,80.95532 -202.4935,127.81839 -39.7434,208.657883 299.29229,355.234153 133.146,271.326103 -71.2124,-29.23469 -154.648,-114.304523 -183.3669,-242.754233 -42.7918,-49.89567 44.9266,-178.55136 241.0668,-169.89972 73.3271,-14.99234 -40.1088,107.11652 -182.7699,142.5492 -41.9136,215.403973 312.46089,353.674553 128.7914,287.490693 -71.7066,-24.6879799 -159.6354,-111.19949 -196.5557,-245.844023 -48.3139,-45.27184 29.8841,-187.06795 237.4854,-197.23546 73.7123,-19.67273 -12.6954,133.71642 -161.9238,157.65029 -43.6103,222.101163 327.22155,347.323173 126.5957,303.364753 -72.2302,-19.44905 -165.0661,-107.55603 -210.6225,-248.242613 -53.3891,-39.97022 13.8493,-193.56417 231.4656,-225.13708 74.0015,-24.45875 15.4198,160.34291 -139.9344,172.86038 -44.7844,228.816043 343.1885,335.819213 126.7732,318.658673 -72.6765,-13.3433 -171.0802,-103.06168 -225.6944,-249.713053 -57.9358,-34.10436 -2.9069,-197.96254 222.9246,-253.27291 74.192,-29.39179 44.1914,186.61666 -116.8012,187.90041 -45.3853,235.618183 359.90907,318.871393 129.4941,333.024683 -72.8542,-6.25711 -177.7601,-97.33732 -241.8718,-249.958173 -61.8901,-27.79482 -20.1146,-200.24865 211.8206,-281.30178 74.2645,-34.51509 73.5724,212.16162 -92.5483,202.48104 -45.358,242.57803313 376.87215,296.272103 134.8779,346.06604 -72.5063,1.82147 -185.1141,-89.955657 -259.2199,-248.62818 -65.2055,-21.16433 -37.5126,-200.46798 198.1542,-308.88253 74.182,-39.86872 103.505,236.59628 -67.2282,216.31033 -44.639,249.764583 393.5203,267.909313 142.9888,357.34595 -71.343,10.7769 -193.0607,-80.463907 -277.7612,-245.32792 -67.8515,-14.33409 -54.8554,-198.7217 181.9662,-335.68498 73.8931,-45.48193 133.9197,259.53497 -40.9213,229.10312 -43.1533,257.241483 409.26165,233.77705313 153.8311,366.39609 -69.0794,20.3596 -201.4148,-68.411817 -297.4689,-239.6249 -69.8123,-7.41906 -71.9192,-195.16 163.3365,-361.39823 73.3331,-51.3689 164.7355,280.59169 -13.737,240.58841 -40.81,265.062823 423.48461,193.982833 167.3451,372.72646 -65.4725,30.19699 -209.8779,-53.386927 -318.26,-231.057927 -71.0851,-0.52567 -88.5073,-189.975733 142.3785,-385.739683 72.4285,-57.52389 195.8656,299.38715 14.1891,250.51731 -37.4977,273.266313 435.57315,148.752063 183.4044,375.83632 -60.351,39.81659 -218.0342,-35.05697 -339.9896,-219.148287 -71.6779,6.25135 -104.4551,-183.395263 119.2341,-408.461373 71.1014,-63.9187 227.2216,315.55702 42.6982,258.66922 -33.0809,281.864413 444.92232,98.42907 201.8128,375.22627 -53.6363,48.67664 -225.3577,-13.21685 -362.4455,-203.411917 -71.6073,12.83042 -119.6325,-175.670483 94.0679,-429.355283 69.2741,-70.50099 258.7183,328.76265 71.6114,264.85732 -27.3972,290.832483 450.95409,43.47443 222.30342,370.4115 -45.35552,56.19954 -231.23142,12.16433 -385.34402,-183.374117 -46.8273,-16.74429 8.8097,225.319687 16.4375,81.86451"
       style="fill:none;stroke:#000000;stroke-width:1.78587782px;stroke-linecap:butt;stroke-linejoin:miter;stroke-opacity:1" />
    <path
       sodipodi:nodetypes="cssssssssssssssssssssssssssssssssssssssssssssssssssssssssssssssssssssssssssssssssssssssssssssssssssssssssssssssssssssssssssssssssssssssssssc"
       inkscape:connector-curvature="0"
       id="path3279"
       d="m 383.42859,530.82232 c 0.81749,-2.11432 3.8033,-5.83282 5.7182,-7.58221 2.95898,-2.73453 3.2139,-0.65987 1.2134,3.32168 -2.85563,5.40837 -8.43853,11.78135 -12.02912,14.24997 -4.91875,3.40876 -2.05457,83.48012 -18.88741,91.97121 -19.33638,7.2471 28.91193,-114.33364 34.47212,-119.40084 5.92375,-5.65227 6.86098,-1.04776 2.15924,9.19321 -5.79504,11.02574 -17.05022,23.59244 -24.40263,28.00522 -8.81678,5.18234 8.27535,75.10483 -23.30123,90.36666 -30.91178,8.2674 39.42513,-127.27082 48.89499,-136.74201 8.81825,-9.85777 11.45276,-3.99164 4.98219,12.81904 -8.04576,16.54066 -25.2245,35.87755 -37.01404,42.61194 -13.20723,6.94002 21.2448,65.30093 -26.42859,88.27022 -41.97105,7.59859 46.82401,-137.05776 60.4479,-151.91042 11.42341,-15.10716 16.53875,-9.60789 9.44626,13.84311 -9.49092,21.8921 -32.5838,48.61871 -49.5241,58.13655 -18.03378,8.62619 36.69466,53.67809 -28.31958,85.9285 -52.5963,5.80436 51.10563,-143.9727 69.09863,-164.87488 13.6082,-21.11602 21.6775,-17.89386 15.2572,11.94463 -10.01787,26.97474 -38.7641,61.79746 -61.56731,74.63943 -23.23719,10.2283 54.34264,39.72778 -29.03099,83.51096 -62.99361,3.37733 52.26761,-148.37431 74.84864,-175.60185 15.33196,-27.53359 26.46721,-28.68145 22.07247,6.89309 -9.5466,31.64388 -43.40482,75.34477 -72.7511,92.15175 -28.75204,11.76431 73.7487,22.83959 -28.62372,81.12447 -73.41472,0.74277 50.30319,-150.67365 77.71021,-184.0765 16.64182,-33.9629 30.5926,-41.61933 29.52293,-1.42052 -8.04357,35.71681 -46.15992,89.12167 -82.66318,110.65827 -34.50569,13.27801 94.26561,2.33131 -27.1585,78.82075 -84.1062,-1.72214 45.20922,-151.29925 77.68883,-190.3163 17.65568,-39.9884 33.86817,-56.17521 37.2375,-12.96118 -5.53511,38.97791 -46.7157,102.90626 -90.88488,130.08341 -40.41622,14.83536 114.9828,-22.50049 -24.69227,76.6012 -95.27818,-3.66656 36.99801,-150.65784 74.7734,-194.37655 18.52532,-45.22135 36.26836,-71.65883 44.86589,-27.53487 -2.11964,41.18672 -44.81268,116.38348 -97.00792,150.27644 -46.3927,16.5213 134.67587,-52.30265 -21.27661,74.42214 -107.08789,-4.749 25.70625,-149.09671 68.93602,-196.34818 19.39299,-49.33612 37.93465,-87.26381 52.0981,-44.78381 2.02202,42.09228 -40.27167,129.14018 -100.65541,170.9998 -52.33743,18.43476 151.78021,-87.55517 -16.95684,72.20013 -119.63176,-4.62796 11.39728,-146.87359 60.139,-196.34597 20.34678,-52.11885 39.15676,-102.1273 58.68008,-64.19445 6.62134,41.45214 -33.02292,140.66632 -101.50619,191.92078 -58.14876,20.68122 164.41439,-128.43638 -11.77194,69.81615 -132.94271,-2.95997 -5.84207,-144.13618 48.34797,-194.48869 21.3953,-53.50381 40.32648,-115.39792 64.42714,-85.11834 11.32392,39.05793 -23.13707,150.36425 -99.32041,212.60821 -63.72536,23.36375 170.47579,-174.68172 -5.75619,67.1196 -146.98854,0.59709 -25.9108,-140.9105 33.54625,-190.87378 22.47198,-53.58504 41.86977,-126.30299 69.23623,-106.80517 15.70291,34.76714 -10.85453,157.56969 -93.96471,232.53737 -68.96935,26.57424 167.81678,-225.47034 1.057,63.93021 -161.67114,6.37847 -48.70464,-137.09588 15.74817,-185.55011 23.4673,-52.58822 44.16292,-134.21113 73.09802,-128.44513 19.28753,28.53966 3.39099,161.58479 -85.43419,251.10428 -73.78543,30.38552 154.48979,-279.37837 8.62916,60.03827 -176.82584,14.70601 -74.12743,-132.46466 -4.98946,-178.49444 24.26895,-50.80908 47.43561,-138.69774 76.10618,-149.21611 21.60848,20.47361 18.96101,161.72482 -73.86668,267.64976 -78.07903,34.84793 129.02222,-334.41746 16.90543,55.20378 -192.21986,25.88224 -102.09801,-126.66518 -28.55679,-169.59244 24.79015,-48.54783 51.6704,-139.64733 78.46097,-168.33326 22.25979,10.83037 35.01834,157.37599 -59.54662,281.49207 -81.75237,39.9884 90.7898,-387.92768 25.79751,49.15391 -207.54868,40.18617 -132.54695,-119.22792 -54.77753,-158.62666 24.97874,-46.06283 56.55574,-137.39132 80.46384,-185.09321 20.9666,0.0316 50.55588,148.05837 -42.89653,291.96241 -84.69909,45.81145 40.46827,-434.81265 35.15909,41.58386 -222.42644,57.86933 -165.39612,-109.58211 -83.39061,-145.27299 24.81217,-43.55088 61.60981,-132.71431 82.50189,-198.91063 17.64291,-11.38436 64.45001,133.48751 -24.4562,298.4384 -86.79923,52.30023 -20.2174,-471.44204 44.75503,32.16343 C 188.15242,716.448 224.00045,540.21612 310.49593,508.18874 c 24.28746,-41.14554 66.43074,-126.54747 85.02334,-209.34173 12.4232,-22.84044 75.53883,113.6274 -4.85212,300.36974 -87.91521,59.41586 -86.16567,-495.65917 54.22432,20.55433 -248.77084,104.20826 -237.73015,-81.00332 -146.1746,-109.63321 23.41012,-38.922 70.81797,-119.64075 88.50553,-216.09458 5.66115,-33.8022 82.72363,88.73317 15.23963,297.29579 -87.88931,67.09358 -152.13245,-507.061227 63.04702,6.44318 -258.86682,133.15491 -276.77974,-60.39244 -179.15599,-86.31465 22.18589,-36.90577 74.73389,-112.50149 93.41923,-219.02739 -2.10508,-43.83811 85.08996,59.38256 35.13246,288.85558 -86.54516,75.23646 -214.18111,-506.779437 70.5226,-10.40873 -265.71082,166.00269 -317.13451,-33.65901 -212.09784,-58.65181 20.61573,-35.08313 78.23992,-105.46817 100.19196,-218.13642 -10.22392,-52.65741 82.0409,26.48787 54.16527,274.79392 -83.69379,83.70604 -270.11266,-496.713504 75.77255,-30.09828 -268.15592,202.60178 -357.1914,1.06446 -243.93032,-26.26587 18.69564,-33.41644 81.45503,-98.77042 109.17464,-213.53486 -18.03849,-60.14261 73.42057,-8.73831 71.73103,254.96587 -79.14682,92.31211 -319.30671,-478.8862 77.78016,-52.50969 -264.86714,242.56875 -394.38384,44.78043 -273.41627,11.003 16.423,-31.86335 84.52833,-92.55658 120.601,-205.43252 -25.01011,-66.39582 59.59977,-44.91216 87.3109,229.34443 C 379.97354,637.16908 90.472193,81.296447 528.18204,459.11281 273.81029,744.32113 102.29078,556.4959 228.95554,512.12989 242.76333,481.73253 316.57762,425.21294 362.31988,316.42863 332.65183,246.18072 404.99236,237.30884 464.01615,516.0328 399.67125,624.90116 64.080778,89.38009 531.85095,412.4098 296.69642,741.85146 82.798129,570.2395 211.78887,511.73349 222.67622,482.71004 302.69507,429.79271 358.45601,325.598 327.05793,254.50238 383.1902,216.73333 473.80482,492.96141 419.87299,609.09162 40.261034,98.282462 527.8632,362.33792 322.06288,736.1016 66.114758,586.7709 193.07833,511.58876 200.80911,483.79871 287.61957,433.74819 353.76557,334.42586 322.69912,264.31009 360.86679,200.91822 481.49775,467.23965 439.92723,589.40998 17.437259,107.31947 515.15731,310.20904 349.9805,726.44733 52.609457,605.46053 172.70854,512.29576 177.10951,485.50979 271.28046,437.19392 348.21804,342.8316 318.56363,274.53674 339.33588,190.06672 486.50934,439.06308 459.03662,565.60987 -5.7135288,116.09156 493.03808,257.49072 380.42731,712.08383 42.470547,625.78596 150.90024,514.69441 151.78113,488.62635 253.60626,440.22993 341.79232,350.75231 313.93537,284.59244 324.84132,187.5789 488.27885,408.74758 471.48882,545.72494 25.936781,128.18557 460.71306,205.32241 564.7996,333.15895 35.801013,647.25534 128.32065,519.55492 125.41576,494.0147 234.53489,442.95024 334.47432,358.14579 308.4282,294.22588 295.21339,178.04831 486.31003,376.74251 476.25457,536.26315 51.232692,139.8596 416.61902,155.74234 500.41535,192.34841 32.62152,669.38459 105.87426,527.28675 98.915799,502.3197 214.02582,445.48427 326.25415,364.99224 301.85308,303.33447 252.57083,165.58021 480.22027,343.648 457.86901,566.56242 89.711271,149.79352 363.38499,113.69475 358.41279,61.987857 32.866103,691.70425 84.413945,537.92862 73.2553,513.80961 192.08341,448.05811 317.12393,371.29385 294.11821,311.8742 231.30263,167.04715 469.80488,310.24468 460.61295,562.68755 94.724188,161.01664 305.60635,81.391235 228.01172,2.8238979 36.385248,713.77135 64.609202,551.29291 49.286447,528.42581 168.80116,451.03746 307.0758,377.07192 285.18006,319.82887 272.5792,198.27097 455.11762,277.53097 506.48027,408.98282 155.02707,191.13293 247.35873,58.938584 -14.164483,-29.91719 42.952906,735.17863 46.949476,567.08951 27.671026,545.90596 144.41708,454.90541 296.1009,382.36075 275.02135,327.19739 259.54133,204.73028 436.52727,246.68632 501.74711,371.73625 -37.826836,191.91685 191.72494,45.302587 56.680133,-27.590633 52.275248,755.5628 31.787438,584.99 8.8885664,565.88876 119.34189,460.16512 284.18946,387.20053 c 2.44426,-38.72014 6.84085,-100.89897 4.19019,-181.69716"
       style="fill:none;stroke:#000000;stroke-width:0.38397619px;stroke-linecap:butt;stroke-linejoin:miter;stroke-opacity:1" />
    <path
       style="fill:none;stroke:#000000;stroke-width:0.23113848px;stroke-linecap:butt;stroke-linejoin:miter;stroke-opacity:1"
       d="m 464.38048,566.92204 c -0.28659,-0.56661 1.48117,-2.34637 2.23634,-2.84592 1.84303,-1.30942 1.97389,0.26049 1.05044,2.2339 -1.47657,3.07564 -5.23923,6.15638 -7.76012,6.79387 -3.50453,0.50524 -2.97955,-2.58204 -0.026,-6.31867 3.76835,-5.54705 9.60762,-10.99191 12.7756,-12.28116 4.29097,-2.47049 3.84023,2.46596 0.3329,9.74644 -3.72793,7.57827 -13.18963,14.2424 -20.07045,14.56628 -7.26305,-1.28883 -4.10701,-6.79457 3.21701,-13.3598 7.96749,-10.19302 19.29755,-20.32733 24.42336,-22.48633 7.12153,-5.33466 4.72225,3.94512 -1.94161,17.77753 -5.16962,12.18871 -21.33077,22.51932 -34.44873,21.38793 -11.26343,-5.12949 -3.04528,-10.99128 9.14092,-19.10172 13.01733,-14.98186 31.32908,-31.53217 37.51627,-35.44946 8.37903,-11.68616 4.58291,5.17759 -6.28075,28.09484 -6.02283,16.94781 -29.21135,31.3315 -50.65752,26.88457 -14.01673,-11.55426 0.8247,-14.3148 17.6292,-22.9763 19.49108,-20.08937 42.83315,-48.54974 47.26282,-54.89592 0.37056,-20.49025 5.57489,6.91136 -7.89383,44.105 -6.68039,21.98525 -36.26373,41.2429 -67.81592,31.04476 -13.47824,-20.23319 7.22316,-15.8912 27.77923,-24.68568 27.89857,-26.4358 40.97549,-72.63536 40.82326,-79.2772 -21.94816,-20.38466 10.91691,6.73402 6.05814,63.70007 -7.5435,27.71293 -41.89035,53.03426 -84.60891,34.7235 -8.04157,-29.42262 15.05972,-15.48509 38.31695,-24.53144 36.19469,-37.05775 11.74506,-90.87597 8.17357,-94.83486 -46.82024,0.96435 17.57688,0.27336 45.08989,72.14471 -8.47913,34.96475 -45.20238,67.6968 -99.45839,39.98404 2.02722,-36.18849 23.04148,-14.05462 48.28589,-23.55177 34.96945,-53.86458 -41.04547,-82.31887 -44.35921,-83.77413 -50.1235,40.22858 17.35272,-10.61157 100.86218,50.35844 -7.81514,44.76374 -44.22681,86.1817 -110.17941,49.72252 7.28109,-37.02516 12.34755,-19.02523 28.08178,-7.04159"
       id="path3755"
       inkscape:connector-curvature="0" />
  </g>
</svg>
