<?xml version="1.0" encoding="UTF-8" standalone="no"?>
<!-- Created with Inkscape (http://www.inkscape.org/) -->

<svg
   xmlns:dc="http://purl.org/dc/elements/1.1/"
   xmlns:cc="http://creativecommons.org/ns#"
   xmlns:rdf="http://www.w3.org/1999/02/22-rdf-syntax-ns#"
   xmlns:svg="http://www.w3.org/2000/svg"
   xmlns="http://www.w3.org/2000/svg"
   xmlns:sodipodi="http://sodipodi.sourceforge.net/DTD/sodipodi-0.dtd"
   xmlns:inkscape="http://www.inkscape.org/namespaces/inkscape"
   width="744.09448819"
   height="1052.3622047"
   id="svg3783"
   version="1.1"
   inkscape:version="0.48.2 r9819"
   sodipodi:docname="spiral046.svg">
  <sodipodi:namedview
     id="base"
     pagecolor="#ffffff"
     bordercolor="#666666"
     borderopacity="1.0"
     inkscape:pageopacity="0.0"
     inkscape:pageshadow="2"
     inkscape:zoom="0.35"
     inkscape:cx="-425.73048"
     inkscape:cy="995.85847"
     inkscape:document-units="px"
     inkscape:current-layer="layer1"
     showgrid="false"
     inkscape:window-width="1024"
     inkscape:window-height="748"
     inkscape:window-x="82"
     inkscape:window-y="-16"
     inkscape:window-maximized="0" />
  <defs
     id="defs3785" />
  <metadata
     id="metadata3788">
    <rdf:RDF>
      <cc:Work
         rdf:about="">
        <dc:format>image/svg+xml</dc:format>
        <dc:type
           rdf:resource="http://purl.org/dc/dcmitype/StillImage" />
        <dc:title></dc:title>
      </cc:Work>
    </rdf:RDF>
  </metadata>
  <g
     inkscape:label="Layer 1"
     inkscape:groupmode="layer"
     id="layer1">
    <rect
       style="fill:none;stroke:#000000;stroke-width:0.91610378;stroke-opacity:1"
       id="rect4319"
       width="516.12524"
       height="779.49591"
       x="7.8454075"
       y="12.284647" />
    <flowRoot
       xml:space="preserve"
       id="flowRoot3475"
       style="fill:black;stroke:none;stroke-opacity:1;stroke-width:1px;stroke-linejoin:miter;stroke-linecap:butt;fill-opacity:1;font-family:Sans;font-style:normal;font-weight:normal;font-size:40px;line-height:125%;letter-spacing:0px;word-spacing:0px"><flowRegion
         id="flowRegion3477"><rect
           id="rect3479"
           width="474.7717"
           height="76.771591"
           x="40.406101"
           y="840.23016" /></flowRegion><flowPara
         id="flowPara3481" /></flowRoot>    <path
       style="fill:none;stroke:#000000;stroke-width:0.33118463px;stroke-linecap:butt;stroke-linejoin:miter;stroke-opacity:1"
       d="m 154.37375,475.58021 c 1.39645,-4.62087 0.0369,2.12362 -1.88652,12.42755 -1.88447,15.42986 -3.01419,32.36412 -3.33049,37.18051 -0.26145,6.46877 -0.64962,-7.01212 0.48876,-25.90885 3.27714,-21.51666 9.37623,-42.01745 12.00846,-47.38052 3.18904,-5.53292 -1.72342,8.38089 -7.86999,32.22518 -3.44204,32.55936 -2.69304,66.38195 -2.44029,73.34013 0.59905,8.53319 -2.91381,-16.98454 -2.84654,-52.16715 5.46982,-35.1389 17.33172,-65.32538 22.40067,-71.84456 5.32324,-5.02805 -4.30686,12.61057 -15.91352,47.733 -4.1551,50.54021 1.64294,100.94728 2.71342,108.77658 1.69856,9.52388 -7.43319,-27.32117 -10.19968,-78.33814 7.42641,-47.90251 25.65631,-84.94087 33.53584,-91.12537 7.20216,-2.56756 -7.2776,14.97917 -25.01389,58.78083 -3.65147,69.26263 10.31794,134.32111 12.01041,141.77383 2.57637,9.25916 -14.26825,-37.16036 -21.36434,-102.98234 9.1058,-59.91241 33.71849,-101.21692 44.39658,-105.38432 8.20513,1.72807 -10.30324,15.86061 -34.22813,65.78513 -1.54784,88.47158 23.30743,164.79582 25.02839,170.87905 2.79568,7.92105 -23.29606,-45.70019 -35.86336,-124.9005 10.53264,-71.27419 41.16732,-114.72358 54.20909,-115.28813 7.88958,7.28535 -13.19206,15.75963 -42.81923,69.65206 2.51308,107.78248 40.2568,190.82569 41.12249,195.007 2.01826,5.92236 -34.24769,-52.30555 -53.03259,-143.23805 11.78616,-82.09409 47.98398,-126.06008 62.54305,-121.81822 6.18334,13.44626 -15.90052,15.21931 -50.35334,71.58885 8.82944,126.67548 60.5374,211.15987 59.51515,213.47709 0.0356,3.78967 -46.76221,-56.56872 -72.11213,-157.52698 12.9851,-92.46717 54.47502,-135.63245 69.32614,-126.01501 3.34957,19.97217 -18.51481,14.71489 -56.71431,72.85095 17.60855,144.50259 83.32876,224.92795 79.38033,225.99762 -3.23441,2.05769 -60.44351,-58.33017 -92.32952,-167.67454 14.27287,-102.46405 61.05765,-143.43587 74.89414,-128.12858 -0.41762,26.48291 -21.33211,13.94202 -62.15563,73.89457 28.93918,160.51121 107.70988,231.66996 99.911,232.61201 -7.77338,1.19009 -74.90912,-57.6664 -112.96536,-173.91377 15.80549,-112.11802 67.94166,-149.08598 79.50719,-127.63933 -4.70871,32.31663 -24.44776,11.92579 -66.81938,74.39824 42.77184,173.88459 132.74393,231.31602 120.36521,233.6252 -13.4992,1.53003 -89.8254,-54.85597 -133.39661,-176.73147 17.74273,-121.41671 75.05444,-152.06764 82.90195,-124.42652 -8.54993,37.02118 -27.38693,8.22942 -70.29143,74.42817 58.90723,183.79323 157.54591,224.13162 140.09054,229.52725 -20.30317,3.27784 -104.92767,-50.33704 -153.11838,-176.7902 20.24156,-130.29522 82.11471,-151.92272 84.86992,-118.47002 -11.23452,39.94424 -29.74727,2.67488 -72.18288,74.13266 76.99686,189.45679 181.32738,210.64549 158.53038,220.92631 -28.0816,6.48796 -120.0258,-44.66353 -171.74749,-174.85431 23.45016,-138.63119 88.68774,-148.35976 85.56553,-109.75382 -12.72179,40.35995 -31.54394,-4.73513 -72.44218,73.63682 96.55446,190.20365 203.42022,191.57262 175.21728,208.49448 -36.75879,11.07665 -134.99745,-38.46644 -189.01223,-171.72666 27.50112,-146.24116 94.22997,-141.3401 85.60668,-98.37511 -13.65302,37.67713 -33.31861,-13.68474 -71.4608,73.1377 116.97872,185.52758 223.28124,167.74776 189.75919,192.93247 -46.29945,16.83322 -149.77388,-32.42443 -204.73403,-168.19964 32.50321,-152.87758 98.15644,-131.12195 85.66105,-84.73155 -14.81583,31.63963 -35.70788,-23.339 -69.66671,73.07576 137.58494,175.13379 240.48582,140.07388 201.82313,174.95086 -56.71095,23.42932 -164.31834,-27.24111 -218.80403,-165.01907 38.53022,-158.22863 100.00064,-118.10557 86.06785,-69.346 -16.66174,22.15244 -39.02407,-32.52341 -67.15633,73.94467 157.6421,158.96782 254.7142,109.4859 211.12042,155.26164 -68.0385,30.42383 -178.60185,-23.62967 -231.15895,-162.86095 45.60841,-161.92145 100.16839,-102.19099 86.86261,-52.69212 -19.2673,9.17328 -43.21925,-39.93987 -63.73198,76.10194 176.41484,137.23036 265.73693,76.9317 217.39643,134.57987 -80.3489,37.26278 -192.57704,-22.29985 -241.75817,-162.31633 53.70165,-163.53165 100.28628,-83.49466 87.88706,-35.18878 -22.48952,-6.90911 -47.9268,-44.26123 -59.02749,79.75263 193.20375,110.37269 273.40318,43.36162 220.42499,113.6266 -93.70942,43.27673 -206.15162,-23.94499 -250.56311,-163.88259 62.69593,-162.60035 101.05465,-62.70789 88.85373,-17.23256 -26.15668,-24.06532 -52.46836,-44.23233 -52.59047,84.97495 207.38464,79.07717 277.63217,9.72669 220.00878,93.13141 -108.15685,47.67913 -219.16277,-29.22357 -257.52029,-167.95734 72.38514,-158.66156 102.48544,-40.27038 89.38907,0.77319 -30.01645,-38.63411 -55.87236,-38.80747 -43.9431,91.75137 218.44082,44.22071 278.40884,-23.02546 215.98355,73.82584 -123.65947,49.57266 -231.3554,-38.73323 -262.54872,-174.83285 82.45976,-151.27953 104.4018,-16.5375 89.08089,18.39249 -33.66743,-47.50824 -56.94678,-27.29857 -32.64655,100.00117 225.98902,6.82968 275.78287,-53.95501 208.22561,56.43155 -140.0749,47.97012 -242.36501,-52.97371 -265.5313,-184.69068 92.50223,-140.09567 106.50917,8.14455 87.54328,35.1387 -36.46879,-48.50427 -54.42315,-9.50774 -18.37971,109.61417 C 432.72587,626.80299 472.79822,576.63691 399.5886,700.4158 242.4854,742.25372 147.88084,628.11817 133.27874,502.82437 235.26976,377.93757 241.69738,536.25458 217.78789,553.3174 180.35648,513.22613 170.61338,567.47711 216.74828,673.76935 446.53864,602.73626 477.59549,567.07378 398.01519,703.8418 223.7693,734.01183 139.23106,606.99071 133.3288,490.3762 243.64676,384.75253 243.008,549.35491 213.2889,554.44112 177.96293,532.77682 178.79417,596.97517 232.41584,686.65495 458.46616,577.44608 481.37164,559.86253 394.50601,708.91221 203.72959,721.00905 131.60887,582.4061 134.07686,476.81455 c 116.82009,-82.53296 109.82627,84.45034 74.25436,76.08634 -28.99574,5.68293 -16.37258,73.27986 41.40077,143.96635 C 468.53616,551.4299 484.22005,555.18219 388.97125,715.4417 183.23504,702.46455 125.68206,554.64602 135.68731,462.32781 c 120.8309,-56.15005 108.44646,109.50664 67.97703,88.03271 -17.54114,38.35282 6.54847,102.4729 64.75538,153.55069 C 476.82574,525.13473 486.19704,553.17164 381.31134,723.13248 163.34469,677.91699 122.11124,524.27251 138.3188,447.16493 c 121.76159,-27.37512 105.25255,133.81966 61.39976,101.88906 -0.17399,71.03933 33.46201,125.59134 88.41879,158.33763 C 483.44936,498.9503 487.3178,553.9334 371.43072,731.56837 145.2437,647.36961 121.48713,492.15029 142.11373,431.63792 c 119.29056,2.44874 100.15274,157.10598 54.48105,118.81871 23.4364,98.42676 63.4237,139.12687 111.90014,156.57809 C 488.54801,473.20656 487.55434,557.53105 359.25625,740.21274 130.13544,611.39855 124.25847,459.42863 147.18598,416.12225 c 113.90729,31.69343 93.29024,179.17809 47.2815,139.21803 52.55709,115.75028 95.03745,140.78077 134.6092,147.36131 C 492.27996,448.17217 486.83448,563.9845 344.76071,748.41303 119.09927,571.18991 130.66057,427.48193 153.60829,401.04961 c 106.95545,59.6616 85.02931,199.98383 40.11917,163.03036 85.26527,119.19859 126.45285,129.32784 155.73417,130.3115 C 494.81218,424.0593 485.0422,573.26157 327.98785,755.41674 112.93497,528.47457 140.6571,397.79793 161.39917,386.89663 c 99.19303,86.39612 75.89207,219.58076 33.56865,189.77163 118.6994,106.51237 155.5489,104.6709 174.27583,105.56852 C 496.31356,401.02952 482.02111,585.26502 309.07872,760.4007 112.02695,485.35455 153.9094,371.82701 170.51064,374.1669 261.3318,485.72984 236.99542,612.20069 198.9117,592.62836 348.43478,670.05455 379.08286,660.517 388.05135,666.48909 496.95001,379.19908 477.58014,599.81895 288.29455,762.51641 116.26202,444.035 169.78563,350.80859 180.81991,363.36416 c 81.96026,134.59574 57.45113,255.27988 25.47211,247.58109 174.48209,33.75892 198.38648,21.17691 199.2702,36.55417 91.31837,-288.85308 65.94153,-30.84686 -139.52959,113.45181 -141.0045,-354.43849 -78.61661,-425.34828 -73.90846,-405.98982 72.76158,154.89787 49.4601,271.0193 25.57387,275.11071 190.92793,-20.87622 208.72403,-32.34232 203.8144,-4.37687 74.74256,-286.2759 42.05388,9.69053 -178.68374,129.307 C 137.30142,374.28818 205.79177,326.56147 204.14204,349.3645 267.56903,521.30016 247.33763,634.03084 233.41888,648.04116 430.621,566.37876 443.78432,559.10609 435.70396,601.55345 495.21214,321.54169 453.55116,655.51951 219.34443,744.15646 151.80479,348.16854 223.89442,323.46521 216.52196,346.87403 270.7333,532.17071 255.84418,642.23636 253.322,662.67827 446.13776,519.35254 456.57462,518.0187 448.0049,575.57595 493.87933,305.0191 441.27469,676.43164 196.33349,728.16626 167.19877,328.20943 240.83397,325.5517 228.85952,347.64837 274.27583,542.38436 267.27659,649.693 276.80027,671.89028 455.21839,471.00591 464.89115,476.08529 458.34753,548.26596 492.37225,289.84444 426.61335,697.38554 174.5896,707.10788 c 7.66883,-393.30837 81.37734,-375.47453 66.13436,-355.43551 37.37479,200.20788 40.88046,303.5685 62.08187,322.29471 C 458.39345,423.70193 469.05048,434.6721 466.72274,520.10755 490.79512,276.00301 409.53166,717.5522 154.87912,681.40967 c 41.11517,-377.55165 114.0864,-341.12103 96.81343,-322.67372 30.42734,201.88454 46.8483,298.8727 78.27533,309.09699 C 456.47613,379.13012 469.51117,394.84197 473.17198,491.55024 489.24132,263.47599 390.10822,736.04839 137.86679,651.84001 207.69632,297.0852 279.81665,350.08398 261.39436,368.42752 286.28169,568.58388 317.52161,655.59489 356.76847,653.19159 450.37379,338.30428 466.80257,357.34822 477.77852,462.99681 487.79397,252.24439 368.55467,751.99152 124.0459,619.45205 216.90657,292.20206 288.75079,359.76873 269.55974,380.14806 290.55714,575.7581 337.72957,648.25617 381.73866,630.53715 440.94534,301.65862 461.46639,322.65732 480.65787,434.7959 486.52663,242.29155 345.22386,764.56693 113.68413,585.48856 223.34403,288.13594 296.12499,368.38924 276.07364,393.15776 294.95204,582.13133 358.16884,635.06378 403.63209,601.0372 428.91329,269.19708 454.01422,290.99494 481.94825,407.23947 485.50386,233.60523 320.60244,773.10238 106.79559,551.26165 226.81616,284.1373 302.30506,375.30436 281.01633,406.66424 299.50292,587.68434 377.77463,615.99468 421.5454,566.32264 414.82607,240.65553 444.90098,262.39867 481.80234,380.56142 484.78179,226.18016 295.28758,777.13915 103.14379,518.02522 227.14408,279.84201 307.5844,380.13067 284.66623,419.95114 304.27079,592.38345 395.53752,591.53582 434.96887,528.23632 399.06016,215.65272 434.51236,236.77239 480.37959,354.94097 484.40835,220.01848 269.94604,776.49009 102.27516,486.86421 224.11872,275.30579 312.14817,382.66163 287.4372,432.50499 c 21.89455,163.66979 123.17676,130.09974 156.33287,56.0871 -61.9214,-294.77995 -20.60697,-274.65682 34.07,-158.08537 6.5834,-115.37514 -232.57791,440.76673 -374.2645,128.10914 113.92005,-187.57987 212.49655,-75.81774 186.1886,-14.55336 25.00083,154.91778 132.63979,86.34118 158.36207,4.9211 C 363.32615,174.84955 411.10287,193.6624 474.3396,307.34247 484.85894,211.5406 221.87944,761.91589 106.33932,433.83796 207.03217,268.03407 319.33667,380.50137 292.00194,454.55479 320.64001,600.69591 430.58041,496.24557 448.42832,410.6632 343.58051,158.62152 398.52679,175.71581 470.02615,285.49303 485.73805,209.27637 200.346,749.12241 109.83797,412.82205 192.57336,267.84331 321.8434,375.76858 294.38565,464.00712 327.00401,601.1928 435.07307,461.38361 445.17856,374.49431 322.70534,145.13483 385.58777,159.86577 465.03737,264.97091 487.07491,208.37934 181.07161,733.81746 113.37938,395.64648 174.1925,272.57613 323.42725,368.62473 297.04379,472.46543 333.87115,600.32209 436.0154,426.87727 438.89934,340.96516 300.84529,134.51777 372.4093,145.90339 459.49928,245.76298 488.87372,208.89929 164.30418,717.06744 116.3508,382.25582 152.38926,284.87093 323.86249,359.12677 300.02912,479.96269 341.21386,597.92391 433.67039,393.50853 430.06327,310.24792 278.22749,126.96018 359.09669,133.64572 453.52555,227.83522 491.12766,210.8939 150.12643,699.99431 118.24573,372.5511 128.33299,307.70752 322.86318,347.37896 303.34702,486.51355 348.95883,593.83989 428.35119,361.75784 419.04805,282.28385 255.17422,122.6345 345.74636,122.93488 447.21758,211.13874 c 46.60006,3.288 -308.739,472.56199 -328.53905,155.338 -14.56932,-22.47511 201.4017,-32.91605 188.29675,125.64121 50.01013,95.81124 113.37351,-160.29037 99.13958,-235.23756 C 232.09289,121.6135 332.4524,113.63327 440.66505,195.61384 496.91106,219.5653 129.19476,669.20701 117.39298,364.09552 82.887302,395.92186 315.09819,317.96979 310.87642,496.76643 365.13011,580.08489 409.8754,303.71123 391.40746,233.80848 209.44507,123.80358 319.31034,105.61645 433.94664,181.19364 500.36067,226.37793 122.05441,657.41349 114.27313,365.64232 68.887721,463.94777 307.43721,301.08603 315.00568,500.4447 373.19438,570.24954 397.02676,277.29088 374.96782,212.89164 187.70274,128.90826 306.41841,98.765408 427.13108,167.80713 504.10328,234.92865 116.83796,649.08266 109.3624,371.55328 67.017119,545.81329 296.56817,283.65518 319.31512,503.13599 380.95588,558.42743 381.76578,252.45709 356.76562,194.0806 167.29991,136.42884 293.87608,92.959485 420.27825,155.38174 508.05935,245.27382 113.3827,644.83661 102.89541,382.46401 82.085217,635.64071 281.95237,266.79162 323.75607,504.82243 388.18297,544.68976 363.93021,229.24033 336.73992,177.5065 148.59204,145.70025 281.78165,88.071541 413.44019,143.8448 512.1327,257.45574 111.63373,645.15899 95.342761,399.1694 117.64159,723.68195 263.12081,252.08598 328.27975,505.48564 394.64902,529.1735 343.2683,207.94152 314.84962,163.5044 131.82968,155.95222 270.22823,83.96532 406.66218,133.12509 516.21124,271.49587 111.68737,650.39044 87.464644,422.53511 174.65243,797.0669 239.80246,241.68513 332.83754,505.1074 400.1459,512.07268 319.50948,189.24314 291.12858,152.59991 117.15014,166.3815 259.29909,80.495657 399.98364,123.15358 520.16863,287.38978 113.82416,660.70603 80.362781,453.3493 250.40868,841.7297 212.11035,238.30033 337.38024,503.66999 404.4949,493.62158 292.47071,174.26975 265.73683,145.45375 104.58502,176.22254 249.0645,77.5111 393.43896,113.86421 523.86721,305.0991 118.52773,676.06535 75.512826,492.10633 338.12564,845.27815 534.90023,455.63983 339.434,30.938551 215.12111,36.119786 262.19125,164.56245 238.99749,142.76715 94.079744,184.80555 406.24132,406.36522 358.96523,480.84744 332.94546,326.15465 520.74119,495.98006 228.57384,771.98053"
       id="path2996"
       inkscape:connector-curvature="0"
       sodipodi:nodetypes="csssssssssssssssssssssssssssssssssssssssssssssssssssssssssssssssssssssssssssssssssssssssssssssssssssssssssssssssssssssssssssssssssssssssssssssssssssssssssssssssssssssssssssssssssssssssssssssssssssssssssssssssssssssssssssssssssssssssssssssc" />
  </g>
</svg>
