<?xml version="1.0" encoding="UTF-8" standalone="no"?>
<!-- Created with Inkscape (http://www.inkscape.org/) -->

<svg
   xmlns:dc="http://purl.org/dc/elements/1.1/"
   xmlns:cc="http://creativecommons.org/ns#"
   xmlns:rdf="http://www.w3.org/1999/02/22-rdf-syntax-ns#"
   xmlns:svg="http://www.w3.org/2000/svg"
   xmlns="http://www.w3.org/2000/svg"
   xmlns:sodipodi="http://sodipodi.sourceforge.net/DTD/sodipodi-0.dtd"
   xmlns:inkscape="http://www.inkscape.org/namespaces/inkscape"
   sodipodi:docname="spiral021.svg"
   inkscape:version="0.48.2 r9819"
   version="1.1"
   id="svg3783"
   height="1052.3622047"
   width="744.09448819">
  <sodipodi:namedview
     id="base"
     pagecolor="#ffffff"
     bordercolor="#666666"
     borderopacity="1.0"
     inkscape:pageopacity="0.0"
     inkscape:pageshadow="2"
     inkscape:zoom="0.35"
     inkscape:cx="189.82443"
     inkscape:cy="930.37985"
     inkscape:document-units="px"
     showgrid="false"
     inkscape:window-width="1084"
     inkscape:window-height="748"
     inkscape:window-x="82"
     inkscape:window-y="6"
     inkscape:window-maximized="0"
     inkscape:current-layer="layer1" />
  <defs
     id="defs3785" />
  <metadata
     id="metadata3788">
    <rdf:RDF>
      <cc:Work
         rdf:about="">
        <dc:format>image/svg+xml</dc:format>
        <dc:type
           rdf:resource="http://purl.org/dc/dcmitype/StillImage" />
        <dc:title></dc:title>
      </cc:Work>
    </rdf:RDF>
  </metadata>
  <g
     id="layer1"
     inkscape:groupmode="layer"
     inkscape:label="Layer 1">
    <rect
       y="12.284647"
       x="7.8454075"
       height="779.49591"
       width="516.12524"
       id="rect4319"
       style="fill:none;stroke:#000000;stroke-width:0.91610378;stroke-opacity:1" />
    <flowRoot
       style="fill:black;stroke:none;stroke-opacity:1;stroke-width:1px;stroke-linejoin:miter;stroke-linecap:butt;fill-opacity:1;font-family:Sans;font-style:normal;font-weight:normal;font-size:40px;line-height:125%;letter-spacing:0px;word-spacing:0px"
       id="flowRoot3475"
       xml:space="preserve"><flowRegion
         id="flowRegion3477"><rect
           y="840.23016"
           x="40.406101"
           height="76.771591"
           width="474.7717"
           id="rect3479" /></flowRegion><flowPara
         id="flowPara3481" /></flowRoot>    <path
       style="fill:none;stroke:#000000;stroke-width:2.70147777px;stroke-linecap:butt;stroke-linejoin:miter;stroke-opacity:1"
       d="m 496.53994,253.50016 c 6e-5,-1.9e-4 -3.8e-4,0.003 -2.6e-4,0.003 -10e-4,0.005 -5.9e-4,0.002 0,-0.002 3.8e-4,-0.0117 0.002,-0.0234 0.005,-0.033 0.002,-0.006 10e-4,-0.002 -0.001,0.0315 -0.002,0.0343 -0.009,0.0822 -0.0123,0.0958 -0.002,0.0155 -0.001,-0.0161 0.005,-0.0735 0.009,-0.0916 0.0194,-0.16567 0.0234,-0.1836 0.006,-0.0305 9.4e-4,0.0455 -0.0106,0.15605 -0.0155,0.14897 -0.0335,0.28242 -0.0412,0.3168 -0.008,0.0348 3e-4,-0.0886 0.0192,-0.26694 0.0231,-0.22317 0.0522,-0.44469 0.0636,-0.49651 0.0138,-0.058 -10e-4,0.1417 -0.0293,0.41033 -0.0347,0.32735 -0.0764,0.63765 -0.0925,0.70288 -0.0189,0.074 0.004,-0.20612 0.0445,-0.58724 0.0471,-0.4466 0.10156,-0.86804 0.12153,-0.94525 0.0236,-0.0915 -0.004,0.28431 -0.0561,0.78398 -0.0629,0.58544 -0.13795,1.13579 -0.16439,1.22906 -0.0309,0.11198 0.009,-0.37779 0.0805,-1.03048 0.0787,-0.74525 0.16719,-1.44017 0.19925,-1.55888 0.0363,-0.13366 -0.007,0.48006 -0.0926,1.29876 -0.10025,0.92373 -0.21983,1.78624 -0.26109,1.92637 -0.0463,0.15628 0.0185,-0.60211 0.12978,-1.60912 0.11809,-1.12279 0.24859,-2.16511 0.29489,-2.3286 0.0512,-0.18203 -0.0106,0.72785 -0.13584,1.94249 -0.1472,1.34321 -0.32394,2.59197 -0.38317,2.78301 -0.0653,0.20856 0.0318,-0.88154 0.19393,-2.32581 0.16565,-1.58379 0.34455,-3.04529 0.40761,-3.26249 0.069,-0.23933 -0.0126,1.02958 -0.18498,2.72172 -0.20422,1.84523 -0.45226,3.55742 -0.53322,3.80662 -0.0877,0.26694 0.0507,-1.21842 0.27484,-3.18223 0.22073,-2.12589 0.45356,-4.08347 0.5356,-4.36021 0.0888,-0.30461 -0.0127,1.38571 -0.23813,3.6379 -0.27186,2.43088 -0.60697,4.68383 -0.71381,5.00023 -0.11454,0.33392 0.0764,-1.61317 0.37493,-4.18091 0.28323,-2.75374 0.57365,-5.28072 0.67682,-5.62558 0.11053,-0.37771 -0.008,1.79578 -0.29296,4.69226 -0.35084,3.10226 -0.79073,5.9748 -0.9278,6.36586 -0.14572,0.40713 0.11065,-2.06812 0.49716,-5.32583 0.35247,-3.46615 0.70236,-6.63836 0.82839,-7.05834 0.13413,-0.45941 -10e-5,2.25952 -0.34674,5.88674 -0.4417,3.85951 -1.00642,7.43263 -1.17866,7.90796 -0.18143,0.48754 0.15541,-2.58405 0.64443,-6.61699 0.42791,-4.26468 0.837,-8.1575 0.98736,-8.65878 0.15893,-0.54951 0.0164,2.77717 -0.39628,7.22083 -0.54532,4.70384 -1.25743,9.05951 -1.46992,9.62684 -0.22212,0.57464 0.21279,-3.16211 0.82066,-8.05889 0.50884,-5.14992 0.97425,-9.83847 1.15012,-10.42788 0.18485,-0.64848 0.0424,3.34791 -0.43786,8.6946 -0.66233,5.63601 -1.54726,10.85754 -1.8058,11.52621 -0.26826,0.66812 0.2854,-3.80432 1.02975,-9.6526 0.59439,-6.1225 1.11046,-11.68182 1.31261,-12.36599 0.2113,-0.75662 0.0805,3.97114 -0.46713,10.30654 -0.79364,6.6571 -1.87991,12.82916 -2.1907,13.60838 -0.32013,0.76778 0.37589,-4.51165 1.27601,-11.40041 0.68358,-7.18309 1.2414,-13.6877 1.47021,-14.47282 0.23776,-0.87409 0.13344,4.64572 -0.47974,12.05865 -0.94014,7.76772 -2.25968,14.97588 -2.62962,15.87538 -0.37815,0.8733 0.48745,-5.28575 1.56439,-13.30427 0.77531,-8.33199 1.36244,-15.85561 1.61789,-16.74765 0.26363,-1.00103 0.20423,5.37073 -0.47048,13.94899 -1.1027,8.96837 -2.69124,17.29978 -3.1278,18.32923 -0.44274,0.98448 0.62338,-6.12758 1.90018,-15.36609 0.86827,-9.56951 1.4684,-18.18495 1.74997,-19.18966 0.2883,-1.13776 0.29619,6.14455 -0.43366,15.97614 -1.28236,10.26024 -3.17956,19.8025 -3.69104,20.97215 -0.51449,1.1005 0.78743,-7.03882 2.2891,-17.58767 0.96113,-10.89613 1.55364,-20.67479 1.86034,-21.79745 0.311,-1.28431 0.41284,6.96573 -0.36315,18.13908 -1.48003,11.64303 -3.73008,22.48528 -4.3255,23.80538 -0.59326,1.22104 0.98364,-8.02047 2.7374,-19.97089 1.05223,-12.3121 1.61196,-23.32388 1.94225,-24.56931 0.33086,-1.44094 0.55807,7.83207 -0.25226,20.43559 -1.69678,13.11804 -4.34853,25.35008 -5.03782,26.83117 -0.68034,1.34525 1.21642,-9.07412 3.25168,-22.51705 1.13986,-13.81738 1.63651,-26.13067 1.98837,-27.50318 0.34699,-1.60776 0.736,8.74188 -0.0937,22.86325 -1.93361,14.68528 -5.04084,28.39753 -5.83492,30.05034 -0.77548,1.47237 1.49049,-10.2004 3.83903,-25.22761 1.22202,-15.41216 1.61986,-29.09305 1.99069,-30.5965 0.3583,-1.78492 0.95106,9.69235 0.12053,25.41997 -2.19158,16.34541 -5.81361,31.62916 -6.72443,33.46474 -0.87954,1.60195 1.81095,-11.40037 4.50699,-28.10316 1.29667,-17.09613 1.55421,-32.20863 1.94079,-33.8465 0.36368,-1.97241 1.20801,10.68075 0.39865,28.10165 -2.47166,18.09861 -6.6734,35.0452 -7.71407,37.07441 -0.99241,1.73269 2.18337,-12.67508 5.26364,-31.1451 1.36129,-18.86926 1.43065,-35.47426 1.82923,-37.24909 0.36177,-2.1703 1.51186,11.70433 0.74999,30.90499 -2.77487,19.94523 -7.62723,38.6462 -8.81207,40.88001 -1.11482,1.86371 2.61346,-14.02458 6.11723,-34.3534 1.41335,-20.73136 1.23987,-38.88699 1.64606,-40.80075 0.35117,-2.37834 1.86805,12.75944 1.18432,33.82605 -3.10216,21.88546 -8.68242,42.43228 -10.02718,44.8817 -1.24698,1.99387 3.10764,-15.44937 7.07676,-37.72819 1.44999,-22.68199 0.97171,-42.44259 1.38057,-44.49663 0.33022,-2.59651 2.28225,13.84243 1.71211,36.85972 -3.45442,23.91957 -9.84652,46.40321 -11.36838,49.07906 -1.38919,2.12191 3.67248,-16.94939 8.15143,-41.26868 1.46809,-24.72075 0.6153,-46.1369 1.02119,-48.33189 0.2972,-2.82454 2.76058,14.94931 2.34469,40.00102 -3.8325,26.04743 -11.12735,50.55788 -12.84512,53.47084 -1.54155,2.24627 4.31504,-18.52391 9.35103,-44.97414 1.46416,-26.84649 0.15884,-49.96451 0.5555,-52.30023 0.25006,-3.06227 3.30946,16.07529 3.0941,43.24384 -4.23719,28.26914 -12.53305,54.89528 -14.46726,58.05565 -1.70414,2.36536 5.04291,-20.17251 10.68572,-48.84294 1.43455,-29.05877 -0.41028,-53.91974 -0.0296,-56.39539 0.18665,-3.30904 3.93572,17.21572 3.9732,46.58158 -4.66916,30.58472 -14.0718,59.41345 -16.24474,62.83097 -1.877,2.47755 5.86372,-21.8931 12.16586,-52.87248 1.37518,-31.35647 -1.10569,-57.99645 -0.74872,-60.61026 0.10451,-3.56411 4.64658,18.36543 4.9958,50.00702 -5.12899,32.99403 -15.75205,64.11008 -18.18804,67.79374 -2.05992,2.58098 6.78588,-23.68394 13.80242,-57.05988 1.28164,-33.73824 -1.94199,-62.1871 -1.61668,-64.93618 8.8e-4,-3.82727 5.44964,19.51798 6.17651,53.51151 -5.6171,35.4969 -17.58227,68.9821 -20.30752,72.93973 -2.25272,2.67374 7.81773,-25.54204 15.60623,-61.40062 1.14921,-36.20284 -2.93474,-66.4838 -2.64979,-69.36467 -0.1271,-4.09702 6.35298,20.66755 7.53104,57.08654 -6.13367,38.09247 -19.57101,74.02532 -22.61397,78.26363 -2.45462,2.75331 8.96828,-27.46385 17.58871,-65.88973 0.97264,-38.74884 -4.10082,-70.87762 -3.86551,-73.88569 -0.28274,-4.37245 7.36513,21.80699 9.07612,60.72171 -6.67898,40.78117 -21.72676,79.23534 -25.11805,83.75949 -2.66508,2.81775 10.24649,-29.44478 19.76122,-70.5212 0.74633,-41.37397 -5.45812,-75.35819 -5.28225,-78.48783 -0.46975,-4.65231 8.49492,22.92866 10.82938,64.40622 -7.25278,43.56173 -24.0579,84.60623 -27.83039,89.41955 -2.88303,2.86446 11.66154,-31.47921 22.13508,-75.28742 0.46426,-44.07641 -7.02591,-79.91481 -6.91982,-83.15969 -0.69178,-4.93428 9.75191,24.02471 12.8099,68.12815 -7.85488,46.43386 -26.57267,90.13167 -30.76137,95.23494 -3.10718,2.89107 13.22278,-33.56067 24.72161,-80.17979 0.11979,-46.85322 -8.82474,-84.53466 -8.79912,-87.88707 -0.95347,-5.21716 11.14575,25.08603 15.0375,71.87369 -8.4846,49.39673 -29.27884,95.8041 -33.92106,101.19557 -3.33574,2.89461 14.93936,-35.68124 27.53173,-85.18802 -0.29416,-49.70219 -10.87644,-89.20436 -10.94233,-92.65566 -1.25925,-5.49803 12.68662,26.10278 17.53345,75.62832 -9.14125,52.44956 -32.18384,101.61489 -37.31892,107.28953 -3.567,2.87293 16.8202,-37.83174 30.57599,-90.30051 -0.7852,-52.61987 -13.20429,-93.9085 -13.37305,-97.44899 -1.61415,-5.77419 14.38516,27.0645 20.3201,79.37578 -9.82366,55.59141 -35.29437,107.55418 -40.96374,113.50353 -3.79815,2.82282 18.87411,-40.00198 33.86434,-95.50424 -1.36164,-55.60289 -15.83304,-98.63024 -16.1161,-102.24916 -2.02337,-6.04204 16.25216,27.95972 23.42106,83.09835 -10.53046,58.82118 -38.61649,113.61132 -44.86315,119.82232 -4.02674,2.74229 21.10892,-42.17968 37.40557,-100.78417 -2.03231,-58.64699 -18.78853,-103.35046 -19.19745,-107.03622 -2.49277,-6.29795 18.29858,28.77565 26.8609,86.77629 -11.25978,62.13763 -42.15516,119.77412 -49.02366,126.22929 -4.24921,2.62844 23.53202,-44.35175 41.20769,-106.12399 -2.80683,-61.74787 -22.09842,-108.04861 -22.64438,-111.78824 -3.02817,-6.53725 20.53551,29.49856 30.66532,90.38796 -12.00951,65.53927 -45.91443,126.02957 -53.45014,132.70577 -4.46204,2.4793 26.14967,-46.50337 45.27702,-111.50534 -3.69554,-64.90061 -25.79134,-112.70149 -26.48522,-116.48123 -3.6357,-6.75448 22.97388,30.11332 34.86101,93.90939 -12.77716,69.02508 -49.8969,132.36363 -58.14573,139.23186 -4.66084,2.29257 28.96683,-48.61815 49.61833,-116.90861 -4.71042,-68.09925 -29.89838,-117.28315 -30.75027,-121.08809 -4.3216,-6.94353 25.62431,30.60326 39.47558,97.31437 -13.55952,72.59313 -54.10356,138.7611 -63.11118,145.78577 -4.84112,2.06677 31.98707,-50.67849 54.23425,-122.31246 -5.8607,-71.33854 -34.44735,-121.7659 -35.46672,-125.5806 -5.09189,-7.09703 28.49696,30.95079 44.53671,100.57389 -14.35342,76.2419 -58.53381,145.20526 -68.34532,152.34393 -4.99783,1.80061 35.21208,-52.66514 59.12543,-127.69368 -7.16169,-74.61069 -39.47271,-126.11733 -40.66743,-129.92525 -5.95269,-7.2069 31.60062,31.1356 50.0727,103.65605 -15.15488,79.96942 -63.18527,151.67924 -73.8436,158.88145 -5.12596,1.49358 38.64138,-54.55765 64.28938,-133.02824 -8.62621,-77.908 -45.00561,-130.30257 -46.38213,-134.08664 -6.90979,-7.26383 34.94311,31.13619 56.11174,106.52575 -15.95927,83.77353 -68.05304,158.165 -79.59892,165.37255 -5.21949,1.14524 42.27263,-56.33467 69.72134,-138.29069 -10.26892,-81.22219 -51.07822,-134.28307 -52.64107,-138.02585 -7.9679,-7.25695 38.53063,30.92933 62.6815,109.14451 -16.76173,87.65241 -73.13036,164.64416 -85.60052,171.79008 -5.27309,0.75639 46.10077,-57.974 75.41298,-143.45484 -12.10545,-84.54341 -57.72232,-138.01599 -59.47345,-141.6996 -9.1309,-7.17422 42.36669,30.48927 69.8085,111.47 -17.55659,91.60355 -78.40777,171.09769 -91.83418,178.10608 -5.28124,0.32848 50.11781,-59.45209 81.35266,-148.49344 -14.15246,-87.86119 -64.96825,-141.45404 -66.90672,-145.06069 -10.40167,-7.00227 46.45182,29.78832 77.51724,113.45576 -18.33755,95.6244 -83.87334,177.50638 -98.28213,184.2923 -5.23809,-0.13654 54.31358,-60.7459 87.52544,-153.37899 -16.42775,-91.16389 -72.84447,-144.54541 -74.96626,-148.0578 -11.78047,-6.72591 50.78313,28.79695 85.82992,115.0513 -19.09784,99.71262 -89.51271,183.85112 -104.92253,190.3201 -5.13871,-0.63551 58.67428,-61.83128 93.91251,-158.08396 -18.95002,-94.4381 -81.3767,-147.23309 -83.67392,-150.63462 -13.26611,-6.328896 55.35277,27.48299 94.76502,116.20157 -19.82979,103.86492 -95.30862,190.11278 -111.7301,196.16112 -4.97813,-1.1646 63.18407,-62.68496 100.49179,-162.58115 C 469.56737,153.92382 400.72031,102.13831 398.2596,98.862853 383.40557,93.069471 458.40697,124.67543 502.59576,215.70985 482.07055,323.78816 401.35451,411.98251 383.92053,417.49706 379.16819,415.77811 451.74424,354.21323 491.1577,250.65321 466.34143,149.8117 390.66844,99.510226 388.06056,96.374091 371.52478,91.273871 453.20803,120.1245 502.61188,213.29716 481.43689,325.64689 395.32363,415.61033 376.88735,420.4686 372.42932,418.17573 449.45844,356.8633 491.00627,249.62241 462.80247,145.686 379.91046,97.398003 377.17617,94.411738 358.87697,90.182249 447.50222,115.67126 502.58752,210.77284 480.81824,327.44825 389.16314,418.98994 369.74597,423.06075 365.65321,420.18096 447.1482,359.43244 490.85062,248.49665 458.92636,141.56253 368.44438,95.875887 365.60961,93.046669 345.48286,89.885833 441.25648,111.34899 502.51718,208.13464 480.21957,329.18617 382.89445,422.10323 362.53123,425.24661 358.87574,421.77434 444.82152,361.91361 490.68934,247.27189 454.6876,137.45947 356.27819,95.023244 353.37259,92.353768 331.37786,90.479755 434.43695,107.19472 502.39442,205.38044 479.64619,330.85409 376.54117,424.93343 355.27963,427.00152 352.13379,422.93924 442.48664,364.30033 490.52068,245.9439 450.05961,133.39737 343.43149,94.923775 340.48973,92.411433 316.61489,92.061608 427.01155,103.25057 502.21226,202.50803 479.10318,332.44606 370.12771,427.46571 348.02998,428.30314 345.46463,423.66223 440.15252,366.58615 490.34239,244.50888 445.0149,129.39952 329.93833,95.664672 326.99804,93.30049 301.26786,94.729223 418.94848,99.562876 501.96306,199.51635 478.59648,333.95503 363.67964,429.68725 340.82237,429.13177 338.90583,423.93301 437.82814,368.76553 490.152,242.96279 439.5254,125.49233 315.84828,97.3353 312.94977,95.102885 285.43208,98.577956 410.2189,96.183588 501.63832,196.40381 478.13158,335.37497 357.22343,431.58729 333.69759,429.47062 332.49425,423.74472 435.52327,370.83293 489.9466,241.30147 433.56268,121.70551 301.22918,100.02532 298.41387,97.899881 269.22603,103.6972 400.79769,93.170126 501.2288,193.16959 477.71474,336.69857 350.78593,433.15737 326.69699,429.30597 326.26565,423.09399 433.24782,372.78357 489.72282,239.52146 427.09825,118.07232 286.16871,103.82222 283.47676,101.76988 252.79209,110.16598 390.6635,90.585422 500.72443,189.81333 477.35191,337.91928 344.39378,434.3915 319.86123,428.62734 320.2541,421.98102 431.01232,374.61269 489.47687,237.61879 420.10417,114.63007 270.77479,108.80855 268.24357,106.78561 236.29484,118.04811 379.80179,88.498468 500.11414,186.33506 477.04945,339.02995 338.07354,435.2861 313.22993,427.42756 314.4916,420.40957 428.82712,376.31651 489.20446,235.58994 412.55367,111.42035 255.1773,115.05771 252.83811,113.01067 219.91881,127.38617 368.20583,86.984031 499.38579,182.73522 476.8137,340.0233 331.85066,435.84018 306.84122,425.70296 c 2.16604,-7.316 119.8619,-47.81161 182.05944,-192.2713 C 404.42189,108.48944 239.52619,122.63001 237.40191,120.49568 203.86321,138.19525 355.87789,86.122481 498.52621,179.01509 476.65101,340.89193 325.74984,436.05524 300.73082,423.45318 303.82708,415.92402 424.65112,379.3342 488.56005,231.1407 395.68679,105.88842 223.99009,131.56725 222.09145,129.27413 188.33312,150.45705 342.83226,85.999331 497.52102,175.17653 476.56785,341.62797 319.79429,435.93531 294.93162,420.68146 298.97361,413.03492 422.68214,380.6423 488.17646,228.71434 386.32984,103.67349 208.75164,141.88725 207.0747,139.35739 173.52787,164.11457 329.09754,86.704388 496.35458,171.22223 476.57035,342.22378 314.00534,435.48688 289.47312,417.39426 294.46583,409.73736 420.80713,381.8133 487.74305,226.1496 376.33785,101.90616 194.00067,153.57816 192.52444,150.73046 159.62568,179.06929 314.71703,88.330583 495.00989,167.15583 476.66482,342.67097 308.40239,434.7188 284.3812,413.60149 290.31865,406.05203 419.03708,382.84521 487.2522,223.44467 365.70423,100.65325 179.92351,166.59398 178.60968,163.34774 146.76597,195.18249 299.75374,90.97194 493.46837,162.98166 476.85729,342.96086 303.00266,433.64228 279.67765,409.31634 286.54327,402.00283 417.38288,383.73615 486.69551,220.59766 354.43004,99.986667 166.69019,180.85104 165.48403,177.13105 135.03281,212.28192 284.28906,94.721694 491.70989,158.70535 477.15339,343.08481 297.82081,432.27052 275.38008,404.55522 283.1468,397.61644 415.85512,384.48461 486.06354,217.60699 342.52672,99.98322 154.43881,196.22805 153.27306,191.96968 c -28.82984,38.20525 115.15408,-92.300988 336.43985,-37.63574 -12.15426,188.69937 -196.84365,276.28509 -218.211,245.00371 8.63102,-6.41503 142.96243,-14.24864 213.84411,-184.8657 -155.32922,-113.74808 -342.0869,-1.90033 -343.2851,-6.74721 -27.11479,40.94088 110.23267,-101.83067 345.39305,-57.84889 -9.37605,192.92108 -199.29662,278.82897 -219.4016,243.8106 9.44917,-5.73297 145.16865,-8.13885 216.47918,-182.49396 C 316.93704,102.2928 133.18084,229.70665 131.88028,224.2376 106.43472,267.57227 236.03653,113.46624 484.90768,145.34064 478.71579,342.36536 283.69221,426.54701 265.03661,387.62733 275.24936,382.74372 412.13493,385.85882 483.60763,207.769 303.33938,104.77612 124.17041,247.45092 122.70854,241.34245 98.769745,286.7407 219.82342,122.43611 482.04717,140.74051 c -2.5711,200.98768 -202.5691,283.42543 -219.59092,240.44866 10.91392,-3.85897 148.75972,4.83126 220.10424,-176.98655 -193.26696,-95.94314 -366.42243,61.43005 -368.08774,54.67679 -22.664458,47.16953 89.36502,-126.04911 364.3699,-122.79099 1.51871,204.78559 -203.32653,285.49476 -218.53367,238.31509 11.54566,-2.65164 150.16382,11.62621 221.06548,-173.90824 -206.48556,-87.66813 -372.41362,83.60852 -374.30791,76.21282 -21.633296,48.69857 81.20682,-132.0612 368.1979,-145.30676 6.11068,208.39078 -203.45761,287.4212 -216.67284,235.90448 12.10124,-1.25579 151.3237,18.57854 221.44271,-170.65484 C 260.23445,118.55659 102.50519,302.7448 100.3677,294.71205 79.570008,344.74587 173.32186,157.84773 471.27931,126.69754 482.51812,338.47021 268.34653,415.90767 257.297,359.93369 269.87136,360.26681 409.55136,385.58025 478.52149,192.67377 245.45995,125.51606 96.655442,321.46488 94.262411,312.80103 74.200773,364.01534 159.16053,172.35684 466.8526,121.99852 483.79064,336.89615 265.13009,412.86358 256.41726,352.32795 269.37564,354.44614 409.38889,385.11271 476.81631,188.56898 230.71456,133.75973 91.333248,340.19647 88.663183,330.90725 69.369888,383.17211 145.93704,188.05851 461.94813,117.32897 485.19181,335.0571 262.15054,409.71604 255.94363,344.53255 269.18984,348.63267 409.43519,384.476 474.89741,184.3438 216.16411,143.32238 86.510882,358.88617 83.521602,348.9788 65.184099,402.17862 133.75234,204.80207 456.52832,112.71729 486.71937,332.94005 259.39896,406.49123 255.86719,336.59392 269.29691,342.87154 409.6966,383.66329 472.74178,180.00708 201.98682,154.21341 82.216763,377.4899 78.835168,366.97494 61.811123,420.99692 122.64785,222.41169 450.55455,108.196 488.36944,330.53191 256.86511,403.21576 256.17952,328.56155 269.6788,337.20814 410.17886,382.66632 470.32429,175.56927 188.364,166.41191 78.537434,395.96601 74.650158,384.86023 59.475541,439.58658 112.59989,240.70125 443.98745,103.80197 490.13677,327.81906 254.53748,399.91658 256.87325,320.48698 270.31633,331.68783 410.88664,381.47534 467.61785,171.04299 175.46968,179.86156 75.615909,414.27299 71.061352,402.60161 58.453366,457.90101 103.52645,259.4909 436.78746,99.577029 492.01424,324.78807 252.4035,396.6205 257.94255,312.42392 271.18929,326.35446 411.82356,380.07888 464.59344,166.44321 163.45526,194.4693 73.648772,432.3651 68.210111,420.16502 59.065151,475.88209 95.305023,278.62142 428.91614,95.568657 493.99264,321.42588 250.44988,393.35467 259.38389,304.42739 272.2762,321.25107 412.99191,378.46372 461.21973,161.78742 152.43403,210.10636 72.881213,450.19088 66.281082,437.51402 61.666814,493.45477 87.798831,297.96174 420.33599,91.829988 496.06096,317.71941 248.66271,390.14579 261.19741,296.55274 273.55415,316.41851 414.39229,376.61486 457.46361,157.09642 142.46607,226.61622 73.601237,467.68742 65.498093,454.60666 66.638317,510.51795 80.88323,317.41159 411.01276,88.420717 498.20599,313.65615 247.02775,387.02039 263.39099,288.85318 274.99871,311.89517 416.02332,374.51555 453.28976,152.39397 133.54936,243.82777 76.131637,484.77613 66.118761,471.39183 74.369631,526.93621 74.469363,336.89477 400.91591,85.407195 500.41219,309.22445 245.53064,384.00458 265.9924,281.37863 276.58381,307.71634 417.8819,372.14679 448.6611,147.70776 125.62267,261.5714 80.819949,501.35592 68.428064,487.80544 85.242923,542.52828 68.518973,356.3549 390.0209,82.862894 502.66174,304.41349 244.15711,381.12425 269.07553,274.18432 c 9.20594,29.7295 150.88632,95.30387 174.4633,-131.11475 C 118.5804,279.69416 88.025967,517.29512 72.729829,503.76435 99.611491,557.0576 63.054017,375.74682 378.31054,80.868489 504.93433,299.2138 242.89297,378.40442 272.75472,267.36705 280.06193,300.51573 422.25445,366.51736 437.88279,138.51584 112.29749,298.0692 98.105849,532.42221 79.337014,519.1604 117.77429,570.22349 58.160066,395.03244 365.77719,79.511742 507.20705,293.61751 241.72468,375.86973 277.08717,261.06733 281.8939,297.54577 424.74748,363.2106 431.65238,134.08847 106.65655,316.59792 111.39328,546.51727 88.559424,533.85315 139.94775,581.65671 53.98668,414.17635 352.42559,78.887349 509.45457,287.61805 240.63908,373.54422 282.02922,255.40863 283.74468,295.02382 427.42486,359.54316 424.80651,129.83479 101.57191,335.20439 128.17669,559.30393 100.68912,547.66252 166.23277,590.92005 50.745311,433.14309 338.27508,79.096053 511.64853,281.21153 239.62386,371.45114 287.48494,250.47544 285.58099,292.96551 430.26641,355.48947 417.305,125.80863 97.005249,353.82906 148.67341,570.44477 115.98332,560.36285 196.58245,597.51836 48.705491,451.8925 323.36207,80.243571 513.75801,274.39574 238.66763,369.61327 293.34053,246.32256 287.36951,291.38319 433.24718,351.02393 409.10943,122.07058 92.974736,372.4211 173.00019,579.54076 134.64427,571.67801 230.77018,600.9191 48.189058,470.37677 307.74333,82.438786 515.74868,267.17161 237.76004,368.05231 299.47665,242.9825 289.07834,290.286 436.33714,346.12155 400.18488,118.68879 89.558695,390.93126 201.14285,586.13872 156.79905,581.28132 268.3669,600.58567 49.562409,488.53262 291.49906,85.791136 517.58314,259.54226 236.892,366.78947 305.77389,240.46841 290.67836,289.67993 439.50107,340.75855 390.50099,115.739 86.895119,409.30957 232.92704,589.74771 182.4738,588.79816 308.7278,596.02311 53.226251,506.27417 274.73336,90.407574 519.22008,251.51443 236.05581,365.84512 312.11673,238.77565 292.14444,289.56815 442.69806,334.91359 380.03463,113.30526 85.179717,427.50116 267.99421,589.86664 211.57343,593.81726 351.00216,586.83492 59.602535,523.48331 257.57755,96.388035 520.61416,243.09761 235.24544,365.23882 318.39654,237.88272 293.45707,289.95151 445.88175,328.56832 368.77218,111.47986 84.661874,445.44243 305.78669,586.02341 243.85997,595.90812 394.16823,572.78477 69.116895,539.99618 240.18994,103.82001 521.71515,234.30509 234.45663,364.98916 324.51435,237.75256 294.60392,290.83043 448.9999,321.70923 356.71194,110.36316 85.638785,463.05771 345.55189,577.8244 278.93838,594.6474 437.10191,553.8537 82.178293,555.59278 222.75429,112.77245 522.46732,225.15363 233.68717,365.1136 330.38293,238.33379 295.58234,292.20643 451.99519,314.32792 343.8673,110.06299 88.447464,480.25334 386.36682,565.0104 316.25177,589.65351 478.67337,530.28025 99.152604,569.98451 205.4751,123.28898 522.80842,215.66405 232.93705,365.62877 335.92846,239.56212 296.40141,294.08276 454.80517,306.4224 330.2708,110.69363 93.45465,496.91093 427.193,547.51122 355.09139,580.6274 517.86599,502.56692 120.33223,582.80592 188.57197,135.37965 522.66878,205.86193 232.20877,366.54969 341.09221,241.36209 297.08358,296.46394 457.36284,297.99806 315.97624,112.374 101.04018,512.87746 466.9596,525.48765 394.62585,567.39544 553.88837,471.4436 145.90075,593.61165 172.26735,149.0144 521.9701,195.77808 231.50767,367.88989 345.83125,243.64883 297.66587,299.35409 459.59674,289.0689 301.06379,115.22505 111.58499,527.958 504.66845,499.34728 433.94856,549.94954 586.25345,437.78339 175.89457,601.8819 156.77151,164.11758"
       id="path5457"
       inkscape:connector-curvature="0" />
  </g>
</svg>
