<?xml version="1.0" encoding="UTF-8" standalone="no"?>
<!-- Created with Inkscape (http://www.inkscape.org/) -->

<svg
   xmlns:dc="http://purl.org/dc/elements/1.1/"
   xmlns:cc="http://creativecommons.org/ns#"
   xmlns:rdf="http://www.w3.org/1999/02/22-rdf-syntax-ns#"
   xmlns:svg="http://www.w3.org/2000/svg"
   xmlns="http://www.w3.org/2000/svg"
   xmlns:sodipodi="http://sodipodi.sourceforge.net/DTD/sodipodi-0.dtd"
   xmlns:inkscape="http://www.inkscape.org/namespaces/inkscape"
   width="744.09448819"
   height="1052.3622047"
   id="svg2"
   version="1.1"
   inkscape:version="0.48.2 r9819"
   sodipodi:docname="spiral031.svg">
  <sodipodi:namedview
     id="base"
     pagecolor="#ffffff"
     bordercolor="#666666"
     borderopacity="1.0"
     inkscape:pageopacity="0.0"
     inkscape:pageshadow="2"
     inkscape:zoom="0.33782926"
     inkscape:cx="6.3397767"
     inkscape:cy="860.53991"
     inkscape:document-units="px"
     inkscape:current-layer="svg2"
     showgrid="false"
     inkscape:window-width="650"
     inkscape:window-height="587"
     inkscape:window-x="199"
     inkscape:window-y="87"
     inkscape:window-maximized="0" />
  <defs
     id="defs4" />
  <metadata
     id="metadata7">
    <rdf:RDF>
      <cc:Work
         rdf:about="">
        <dc:format>image/svg+xml</dc:format>
        <dc:type
           rdf:resource="http://purl.org/dc/dcmitype/StillImage" />
        <dc:title></dc:title>
      </cc:Work>
    </rdf:RDF>
  </metadata>
  <g
     id="layer1"
     inkscape:groupmode="layer"
     inkscape:label="Layer 1">
    <rect
       y="0.21038114"
       x="10.092996"
       height="786.08429"
       width="586.06732"
       id="rect3021"
       style="fill:none;stroke:#000000;stroke-width:1.12594795;stroke-miterlimit:4;stroke-opacity:1;stroke-dasharray:none" />
    <path
       style="fill:none;stroke:#000000;stroke-width:1.38021314px;stroke-linecap:butt;stroke-linejoin:miter;stroke-opacity:1"
       d="m 356.79996,361.45759 c -0.3857,0.49325 -0.91401,-0.008 -0.94103,-0.34952 -0.0218,-0.884 1.06934,-1.66744 1.89247,-1.7564 1.39417,-0.13802 2.096,1.09045 1.89976,2.30971 -0.0694,1.69133 -1.86366,2.98978 -3.76457,3.07455 -2.43295,0.1505 -3.88425,-1.8054 -3.16108,-4.12361 1.39943,-2.99102 4.93211,-5.06976 7.24819,-4.74114 2.92455,0.40646 4.02401,3.43875 3.30451,6.33374 0.0394,3.23643 -3.31187,5.54825 -7.60595,5.60427 -4.66304,0.24 -7.51753,-3.22369 -5.82253,-7.73756 3.35557,-5.33835 9.89866,-8.67351 13.25261,-7.67979 4.16421,1.09001 5.15728,5.97359 3.9952,10.44864 0.72266,4.70652 -3.9138,7.77398 -11.02763,7.8101 -7.15707,0.5897 -11.62949,-4.24197 -8.8317,-11.20192 5.93396,-7.88906 16.00358,-12.22985 19.95595,-10.40511 5.11722,1.90706 5.42283,8.56622 3.87891,14.56495 1.90283,6.26207 -3.74531,9.80707 -14.07938,9.65113 -9.87516,1.18821 -16.10957,-4.87211 -12.10108,-14.54663 9.14801,-10.55445 23.26236,-15.47645 27.39184,-12.73206 5.79999,2.8247 4.78784,11.06809 2.87883,18.56205 3.47478,8.08179 -2.92063,11.87338 -16.80255,11.11611 -12.76275,2.01679 -20.85621,-5.1553 -15.55001,-17.81683 12.99893,-13.22376 31.64944,-18.13259 35.57002,-14.46346 6.23874,3.81061 3.25369,13.31529 0.94248,22.29069 5.29301,10.33583 -1.61322,14.23254 -19.23119,12.22127 -15.74689,3.04013 -25.77661,-5.15695 -19.10405,-21.06864 17.4741,-15.7752 41.08839,-19.91548 44.46974,-15.39604 6.46707,4.83957 0.85899,15.13582 -1.95064,25.57789 7.17953,13.16145 -0.0317,17.12495 -21.39086,13.00698 -18.74146,4.20115 -30.79155,-4.96061 -22.69836,-24.36471 22.54469,-18.08597 51.44971,-20.5588 54.03489,-15.3277 6.52347,5.89758 -2.31749,16.35795 -5.78238,28.23389 8.93725,16.64659 1.63351,20.78982 -23.27342,13.53568 -21.68294,5.41744 -35.86319,-4.66356 -26.30437,-27.77277 28.16387,-20.04035 62.55159,-19.82812 64.1711,-14.06512 6.44671,6.98521 -6.15736,16.82042 -10.49146,30.06126 10.36428,20.81976 3.11877,25.45453 -24.76781,13.88618 -24.61316,6.58621 -41.0665,-4.36983 -30.00128,-31.36148 34.26766,-21.53636 74.1695,-17.53533 74.74481,-11.43177 6.2709,8.11915 -10.49946,16.38109 -15.97108,30.86506 11.27036,25.64808 4.04775,31.23685 -25.77339,14.15338 -27.57511,7.58749 -46.47657,-4.18915 -33.86423,-35.20238 40.77747,-22.49088 86.04347,-13.54814 85.58484,-7.27621 6.01927,9.33189 -15.15085,14.92898 -22.06904,30.46398 11.49235,31.04308 4.00897,38.10769 -26.32009,14.47097 -30.49628,8.26414 -52.04862,-4.2605 -37.84556,-39.39575 47.60348,-22.84251 97.89377,-7.79679 96.48625,-1.47959 5.69791,10.66933 -19.88679,12.39196 -28.5913,28.70107 10.90726,36.87361 2.62105,45.89834 -26.49828,14.99078 -33.25791,8.44273 -57.68729,-4.73226 -41.84537,-44.05288 54.64957,-22.55329 109.43561,-0.27579 107.21596,6.03736 5.2907,12.18607 -24.46175,8.74551 -35.30702,25.45396 9.43859,42.98126 -0.42479,54.32715 -26.43363,15.85351 -35.71856,7.96084 -63.27071,-5.73522 -45.73719,-49.27006 61.81797,-21.6085 120.39215,8.95774 117.52079,15.30889 4.75459,13.9386 -28.62049,4.01874 -41.95706,20.64318 7.05819,49.19641 -5.34024,63.03221 -26.27817,17.16938 -37.72143,6.68344 -68.65819,-7.36511 -49.37616,-55.11205 69.01335,-20.01508 130.50869,19.78988 127.1362,26.32047 4.0178,15.97685 -32.11046,-1.70194 -48.26356,14.23888 3.783,55.35176 -12.22827,71.60609 -26.19879,19.00643 -39.10525,4.51105 -73.7001,-9.67362 -52.60985,-61.60297 76.14739,-17.79933 139.56349,32.05827 135.79634,39.007 2.98012,18.33453 -34.69542,-8.27221 -53.94088,6.26437 -0.33116,61.29359 -21.08247,79.62991 -26.36526,21.38663 -39.71638,1.38118 -78.24876,-12.66645 -55.2888,-68.72447 83.14135,-15.00313 147.37568,45.56276 143.24401,53.25335 1.51653,21.01962 -36.16979,-15.49216 -58.7071,-3.20184 -5.19755,66.88852 -31.7952,86.70248 -26.93927,24.28718 -39.41584,-2.73032 -82.16828,-16.30737 -57.27652,-76.4187 89.92861,-11.68061 153.8107,60.07667 149.24104,68.89696 -0.5162,24.00552 -36.37267,-23.11279 -62.29556,-14.02821 -10.70716,72.02867 -44.17266,92.46472 -28.06578,27.64607 -38.07414,-7.56109 -85.3423,-20.52535 -58.45625,-84.59496 96.45565,-7.89372 158.78225,75.3592 153.57719,85.73292 -3.27017,27.22385 -35.20051,-30.84528 -64.4655,-26.0336 -16.73687,76.6326 -57.95394,96.61582 -29.8672,31.36876 -35.94128,-12.27501 -87.67904,-25.22296 -58.73526,-93.13728 102.68254,-3.70842 162.25121,91.16656 156.07797,103.52062 -6.89466,30.55995 -32.61776,-38.37379 -65.0114,-38.99365 -23.15709,80.64483 -72.83207,98.92282 -32.43983,35.33566 -33.16634,-16.63773 -89.11444,-30.28571 -58.04706,-101.91239 108.58221,0.80901 164.22239,107.26209 156.61085,121.99194 -11.52265,33.85203 -28.66465,-45.37097 -63.77035,-52.64856 -29.83824,84.03362 -88.47354,99.22319 -35.85222,39.40889 -29.79836,-20.52307 -89.61317,-35.58962 -56.3514,-110.77664 114.13952,5.59548 164.73893,123.42496 155.08921,140.86047 -17.25771,36.89459 -23.46163,-51.51534 -60.62783,-66.71225 -36.65529,86.78714 -104.53519,97.42281 -40.1446,43.43898 -25.91852,-23.80817 -89.16875,-41.00921 -53.63374,-119.58263 119.34983,10.59378 163.87599,139.4566 151.47457,159.83177 -24.1608,39.44418 -17.20945,-56.5113 -55.52058,-80.88287 -43.49208,88.90981 -120.67775,93.49101 -45.32985,47.2707 -21.64487,-26.38347 -87.80202,-46.42417 -49.90281,-128.18493 124.21662,15.75502 161.73265,155.1856 145.77606,178.61268 -32.23981,41.2308 -10.18475,-60.10735 -48.43794,-94.85222 -50.24295,90.41759 -136.57552,87.45458 -51.39566,50.74884 -17.12923,-28.16402 -85.55781,-51.72573 -45.18745,-136.44549 128.75009,21.04072 158.4246,170.47026 138.04846,196.92101 -41.44152,41.97085 -2.731,-62.11577 -39.42043,-108.31581 -56.81446,91.33376 -151.9247,79.3917 -58.31749,53.73428 -12.54168,-29.1114 -82.49108,-56.8337 -39.52248,-144.24948 132.96451,26.42397 154.0761,185.19967 128.38778,214.4942 -51.64774,41.38264 4.75539,-62.42965 -28.55681,-120.98221 -63.12537,91.68522 -166.45008,69.4263 -66.17354,56.21404 -7.9505,-29.3497 -78.55005,-61.80696 -32.8329,-151.61442 136.87661,31.89066 148.81301,199.2934 116.92596,231.09627 -62.67556,39.20284 11.84315,-61.03651 -15.97939,-132.58017 -69.10624,91.49859 -179.9116,57.72113 -75.1259,58.15816 -3.33377,-29.02872 -73.59273,-66.70111 -24.95149,-158.54716 140.50294,37.43985 142.75646,212.69888 103.82359,246.52395 -74.28165,35.20201 18.08823,-58.02893 -1.85828,-142.86559 -74.69816,90.79762 -192.10987,44.4707 -85.19977,59.29583 1.20978,-28.10443 -67.60469,-71.34491 -15.83894,-164.81876 143.85871,43.08441 136.01714,225.39011 89.26306,260.61028 -86.17148,29.19942 23.05831,-53.60923 13.60499,-151.62602 -79.85145,89.60108 -202.89074,29.89255 -96.36143,59.31819 5.55099,-26.54468 -60.61718,-75.54321 -5.50448,-170.1668 146.95526,48.85106 128.69119,237.36266 73.43982,273.22745 -98.01067,21.07428 26.35938,-48.08854 30.18448,-158.68403 -84.52366,87.92116 -212.14766,14.21737 -108.51663,57.9058 9.54354,-24.3572 -52.70391,-79.10417 5.99323,-174.32177 149.79871,54.7801 120.85602,248.63157 56.55528,284.28696 -109.44068,10.77438 27.66246,-41.87986 47.63635,-163.89875 -88.67751,85.76268 -219.8219,-2.32122 -121.50209,54.7392 13.03238,-21.5965 -43.98378,-81.84891 18.53933,-177.01672 152.38746,60.92541 112.56809,259.22596 38.80832,293.73905 -120.09377,-1.68 26.72855,-35.48369 65.70539,-167.16641 -92.27923,83.12341 -225.89959,-19.49592 -135.0822,49.51331 15.86804,-18.37001 -34.61752,-83.62342 31.95992,-177.99978 154.71062,67.35331 103.86102,269.1857 20.38965,301.5698 -129.61106,-16.19574 23.43109,-29.46834 84.13023,-168.41947 -95.2962,79.99462 -230.40686,-37.09503 -148.9472,41.95354 17.92338,-14.84051 -24.80203,-84.31096 46.02219,-177.04865 156.74536,74.14247 94.74412,278.55698 1.47414,307.79784 -137.65688,-32.61121 17.77388,-24.4439 102.64901,-167.62519 -97.69546,76.36267 -233.40243,-54.92869 -162.71618,31.83348 19.11308,-11.22379 -14.75952,-83.84396 60.43851,-173.98597 158.45405,81.38251 85.20172,287.38839 -17.78292,312.46924 -143.93388,-50.70313 9.90199,-21.03186 121.00193,-164.78325 -99.44148,72.21125 -234.96874,-72.8335 -175.94437,18.99286 19.4144,-7.77984 -4.7221,-82.21306 74.87462,-168.6941 159.78142,89.17199 75.19329,295.7266 -37.25012,315.6519 -148.19435,-70.19758 0.10589,-19.83173 138.93501,-159.92352 -100.49525,67.52414 -235.20264,-90.67385 -188.1348,3.35518 18.88667,-4.79769 5.08695,-79.4732 88.96284,-161.12959 160.65017,97.61669 64.65368,303.61201 -56.8234,317.42953 C 148.74602,527.00873 287.81228,596.40407 455.19618,464.6867 354.38334,526.97571 220.99032,356.34572 256.44051,449.62974 274.12925,447.05792 270.91679,373.88664 358.76032,298.29608 519.71713,405.12221 412.25405,609.3704 282.3334,616.19079 132.36454,504.07181 258.9328,590.04108 454.89854,471.78245 354.55402,528.28362 222.82243,346.03275 247.63656,435.67215 263.72652,434.30005 270.94752,364.47452 362.20494,296.23308 522.77157,413.1422 403.80595,614.36116 266.191,613.37495 118.89682,479.5152 230.3109,578.92108 453.98748,479.42994 354.95286,529.5984 225.08791,336.59748 240.86578,419.87539 255.33968,418.46943 272.4027,353.82461 366.229,294.20522 525.53712,422.17322 395.07132,618.97212 250.66288,609.46545 108.43718,453.8075 202.79241,562.97881 452.341,487.61962 355.5192,530.93527 227.59619,328.08736 236.49671,402.59556 249.8265,399.81894 275.69875,342.06788 370.91423,292.2608 527.88158,432.35062 385.97976,623.2189 235.8228,604.58717 100.99882,427.40659 177.24814,542.31522 449.82556,496.32095 356.18537,532.3108 230.16697,320.52662 234.81638,384.27412 248.04643,378.8354 281.28512,329.44816 376.34515,290.46681 529.62761,443.80335 376.44784,627.10314 221.72335,598.86395 96.521188,400.74469 154.53724,517.20367 446.29836,505.47849 356.87692,533.74355 232.6345,313.92179 236.00721,365.41483 c 14.79071,-9.15732 53.6139,-49.0675 146.59872,-76.50195 C 530.54585,456.6425 366.38109,630.60937 208.39822,592.41548 94.880098,374.21824 135.46934,488.08675 441.61064,515.00771 357.51274,535.25438 234.85084,308.26648 240.13166,346.5539 258.74564,333.07879 301.1411,303.30947 389.77698,287.71527 530.3493,470.94901 355.67622,633.70174 195.86399,585.35475 95.898768,348.17917 120.7684,455.56483 435.6121,524.79123 358.00509,536.86614 236.68868,303.54577 247.12774,328.22473 c 25.21367,-17.69579 69.07948,-37.166 150.802,-41.20381 C 528.69039,486.7552 344.22454,636.32019 184.12206,577.78559 99.359678,322.92955 111.03961,420.37643 428.15689,534.67515 358.25972,538.60276 238.04223,299.74157 256.81693,310.92318 291.74493,290.03117 335.04641,280.50761 407.11937,287.01095 525.16204,504.02398 331.91526,638.37665 173.16149,569.8015 105.01636,298.71864 106.74131,383.37025 419.1105,544.46678 358.17557,540.48752 238.829,296.83518 268.92247,295.07901 316.72325,273.14725 357.67178,272.74575 417.37639,287.90328 519.30532,522.62403 318.64229,639.75072 162.96091,561.48424 112.60461,275.74286 108.16441,345.4715 408.35814,553.93318 357.64471,542.54056 238.98992,294.81065 283.09492,281.03576 345.87624,261.54492 383.79039,268.99794 428.69516,289.95365 510.62592,542.30288 304.30898,640.28599 153.49101,552.90309 121.85272,254.14744 115.42005,307.64592 395.81404,562.80153 356.55201,544.77544 238.48964,293.65643 298.93957,269.04147 377.66639,256.13367 412.70669,270.5354 441.021,293.45396 498.62147,562.66165 288.83816,639.78667 144.71667,544.11475 132.49062,234.02939 128.43634,270.85933 381.43148,570.7614 354.77499,547.19488 237.3166,293.3659 316.04065,259.24884 c 94.507,-1.88938 127.2073,19.27657 138.19399,39.47807 28.58709,284.40727 -182.05269,339.28866 -317.63611,236.43565 7.65893,-319.72022 10.36516,-299.12137 228.61497,42.30671 -13.02911,-27.6838 -129.73096,-283.53208 -31.23072,-325.74911 108.9494,13.48631 139.77339,42.10237 134.15374,54.39586 -5.29495,296.86074 -213.80211,328.57815 -339.04118,219.96126 27.81235,-327.67555 41.49328,-322.02836 218.12768,56.47865 1.4217,-30.04408 -114.20133,-287.18411 5.14259,-336.11927 120.98276,32.78431 149.82568,70.30287 130.06445,69.53234 -43.98633,305.30688 -247.08437,313.53668 -360.26473,200.90813 48.05066,-333.98667 76.58999,-341.24052 205.42677,68.75932 16.42447,-30.32652 -97.60239,-287.96413 43.22463,-342.32838 129.74479,55.27757 155.54624,103.56446 125.89102,85.30599 -87.102,308.36502 -281.37022,293.4883 -380.94004,178.95401 68.21262,-338.70301 115.02376,-356.13603 190.76302,78.75476 31.62911,-28.2428 -80.06856,-285.48404 82.46889,-344.13942 134.65667,80.03892 155.24692,140.87406 121.44235,102.14486 C 376.58344,648.953 194.51996,612.11862 109.86432,498.1449 198.0246,156.26098 265.9402,131.91808 284.33148,584.23955 330.93932,560.67982 222.53175,304.86567 406.62128,242.8617 542.07778,348.90768 554.29198,423.48531 522.9842,363.29824 339.95422,656.07092 173.20418,599.18956 104.42062,488.59155 212.19915,144.99859 303.39155,117.42418 261.37327,579.04107 322.23252,562.91788 218.30526,309.73739 423.43602,245.10298 555.63205,377.38487 555.64193,465.94532 533.57717,385.5754 300.63269,657.3213 151.81368,582.97717 99.407068,478.88192 226.38129,134.98793 342.31475,108.12404 238.11901,570.43087 311.94024,564.54871 213.89957,315.42417 439.248,248.6396 564.45438,406.46179 548.21363,508.12346 541.38371,411.03019 259.84173,651.92701 130.88832,563.20292 94.800218,468.9808 240.47477,126.13309 381.89099,104.03994 215.11149,558.18157 300.00015,565.26964 209.43641,321.87873 453.91155,253.18732 568.95268,435.08411 532.6504,547.88511 545.53452,439.31097 219.03953,639.45595 111.07755,539.68481 90.583998,458.84499 254.40872,118.33626 421.33852,105.05429 192.96276,542.15469 286.40323,564.7215 205.03675,329.03282 467.3281,258.45554 569.7386,462.38304 510.17601,583.49481 545.19532,469.81812 179.80122,619.90316 93.121998,512.37704 86.750688,448.42402 268.13606,111.50101 459.93922,110.9252 172.3385,522.3184 c 98.87363,40.17497 28.47574,-185.52276 307.10416,-258.16141 88.11202,223.53928 2.95428,349.59102 60.20546,237.54223 C 143.67379,593.72722 77.819418,481.40625 83.302308,437.66166 281.63218,105.5349 497.0547,121.30591 153.93955,498.76408 254.58164,558.13332 196.86852,345.05345 490.2374,270.01558 563.20597,510.56532 451.09457,638.01459 528.37821,533.8767 112.02054,561.82929 65.976401,447.10028 80.251728,426.49706 294.89256,100.35199 532.14085,135.76641 138.4769,471.71723 236.77802,551.16571 193.279,353.66996 499.72485,275.77322 557.50113,530.71647 418.03877,656.20854 511.15334,565.10814 85.884308,525.47761 58.34673,410.00143 77.624018,414.86647 307.93094,95.874518 564.75618,153.81617 126.64484,441.54442 c 91.55261,99.5717 63.45404,-79.05521 381.29533,-160.3496 43.26599,266.83285 -123.0975,387.50976 -19.85933,312.88249 C 65.887511,486.1869 55.562409,370.85965 75.457728,402.70521 320.77814,92.034187 594.56349,174.92575 119.09163,408.75507 199.37872,527.54365 187.35089,371.33893 514.93295,286.07167 545.01084,562.49082 352.8701,676.22364 459.62963,619.50604 52.185713,445.57531 58.064601,330.60222 73.806108,389.94952 333.4783,88.773832 621.33028,198.54874 116.38837,373.99383 c 64.62109,136.0866 68.63621,6.04125 404.37151,-83.76981 C 539.50721,574.17153 323.19023,679.71031 426.61104,640.27027 44.476492,405.21872 66.044183,290.27778 72.738308,376.53937 346.0882,86.047942 644.92133,224.13895 118.99974,338.02991 c 44.9218,150.44613 64.07615,50.35697 406.47774,-44.52785 9.6999,289.67016 -228.90032,386.71405 -135.35914,362.00203 C 42.059252,366.52966 79.401118,250.98257 72.340308,362.42141 358.67493,83.823678 665.29218,251.16785 127.25654,301.73524 149.07467,462.64568 181.42934,396.20081 529.13609,295.7865 532.38886,589.59948 273.53962,678.80012 351.4339,664.67578 43.929784,330.67134 97.730238,213.77278 72.715578,347.55216 371.31397,82.081581 682.47833,279.13776 141.33227,266.06055 c -3.808,166.65562 38.65034,137.22405 390.4428,30.9282 -0.3818,296.5513 -277.4037,379.46231 -219.85777,370.63749 C 48.893368,298.51537 120.33717,179.57672 73.985208,331.90251 384.08451,80.816412 696.5826,307.59045 161.22569,232.0027 130.37504,399.06823 178.61374,409.44872 533.4191,297.05058 532.32829,595.04364 239.21004,674.03155 272.89214,664.56676 55.679187,270.64404 146.283,149.11797 76.287278,315.46182 397.07225,80.037518 707.7639,336.11626 186.74991,200.56992 128.71865,362.3668 177.19077,414.5066 534.07621,295.9442 535.21948,594.11515 228.09522,672.24153 235.5435,656.04017 63.042807,247.3877 174.45127,122.86087 79.775498,298.24222 410.3618,79.769766 716.22407,364.35717 217.52961,172.74383 133.55935,323.57731 175.58324,418.27305 533.73706,293.6719 539.98234,590.71564 221.01949,671.59696 200.84166,642.85456 69.849303,228.88617 203.62896,100.98387 84.616408,280.28433 424.03625,80.053934 722.196,392.00882 253.00611,149.44159 145.73068,283.96002 173.67558,420.56094 532.37611,290.26642 546.42466,584.77122 217.96694,672.41925 169.49472,626.00123 75.135388,215.16079 232.58661,83.386574 90.985468,261.66162 438.17375,80.947209 725.93272,418.82096 292.45202,131.47856 165.80954,245.04195 171.38192,421.17664 529.95388,285.7906 554.24991,576.18999 218.93629,674.83146 141.93223,606.56869 78.151668,206.18767 260.1511,69.724492 99.061358,242.4852 452.84358,82.52321 727.69728,444.59404 334.99136,119.53603 194.03426,208.56256 168.66238,419.91743 526.42097,280.33748 563.06355,564.88482 223.94855,678.75973 118.31764,585.66334 78.391158,201.95888 285.25931,59.468431 109.01874,222.90733 468.10213,84.871687 727.75432,469.17773 379.62959,114.1323 230.23546,176.39372 165.54009,416.56895 521.72344,274.02981 572.38388,550.80122 233.03792,683.93843 98.582288,564.34397 75.607878,202.52739 306.99124,51.978713 121.01937,203.12354 483.99262,88.098571 726.36278,492.46527 425.28571,115.60181 273.78672,150.43831 162.11914,410.90784 515.80872,267.01837 581.65972,533.94619 246.22818,689.92089 82.473928,543.57385 69.831702,208.02638 324.58068,46.586446 135.20146,183.37332 500.53187,92.322232 723.77,514.3901 470.83243,124.08127 323.58279,132.51178 158.60217,402.70913 508.63322,259.48014 590.29553,514.41674 263.49737,696.09764 69.612401,524.19097 61.378989,218.66337 337.41017,42.673294 151.66816,163.9376 517.71521,97.673015 720.20741,534.91928 515.13386,139.5047 311.79422,133.29873 150.59267,434.6037 200.57478,313.30872"
       id="path3005"
       inkscape:connector-curvature="0" />
  </g>
</svg>
