<?xml version="1.0" encoding="UTF-8" standalone="no"?>
<!-- Created with Inkscape (http://www.inkscape.org/) -->

<svg
   xmlns:dc="http://purl.org/dc/elements/1.1/"
   xmlns:cc="http://creativecommons.org/ns#"
   xmlns:rdf="http://www.w3.org/1999/02/22-rdf-syntax-ns#"
   xmlns:svg="http://www.w3.org/2000/svg"
   xmlns="http://www.w3.org/2000/svg"
   xmlns:sodipodi="http://sodipodi.sourceforge.net/DTD/sodipodi-0.dtd"
   xmlns:inkscape="http://www.inkscape.org/namespaces/inkscape"
   sodipodi:docname="spiral020.svg"
   inkscape:version="0.48.2 r9819"
   version="1.1"
   id="svg3783"
   height="1052.3622047"
   width="744.09448819">
  <sodipodi:namedview
     id="base"
     pagecolor="#ffffff"
     bordercolor="#666666"
     borderopacity="1.0"
     inkscape:pageopacity="0.0"
     inkscape:pageshadow="2"
     inkscape:zoom="0.49497475"
     inkscape:cx="415.17978"
     inkscape:cy="767.78257"
     inkscape:document-units="px"
     inkscape:current-layer="layer1"
     showgrid="false"
     inkscape:window-width="1084"
     inkscape:window-height="748"
     inkscape:window-x="82"
     inkscape:window-y="6"
     inkscape:window-maximized="0" />
  <defs
     id="defs3785" />
  <metadata
     id="metadata3788">
    <rdf:RDF>
      <cc:Work
         rdf:about="">
        <dc:format>image/svg+xml</dc:format>
        <dc:type
           rdf:resource="http://purl.org/dc/dcmitype/StillImage" />
        <dc:title></dc:title>
      </cc:Work>
    </rdf:RDF>
  </metadata>
  <g
     inkscape:label="Layer 1"
     inkscape:groupmode="layer"
     id="layer1">
    <rect
       style="fill:none;stroke:#000000;stroke-width:0.91610378;stroke-opacity:1"
       id="rect4319"
       width="516.12524"
       height="779.49591"
       x="7.8454075"
       y="12.284647" />
    <flowRoot
       xml:space="preserve"
       id="flowRoot3475"
       style="fill:black;stroke:none;stroke-opacity:1;stroke-width:1px;stroke-linejoin:miter;stroke-linecap:butt;fill-opacity:1;font-family:Sans;font-style:normal;font-weight:normal;font-size:40px;line-height:125%;letter-spacing:0px;word-spacing:0px"><flowRegion
         id="flowRegion3477"><rect
           id="rect3479"
           width="474.7717"
           height="76.771591"
           x="40.406101"
           y="840.23016" /></flowRegion><flowPara
         id="flowPara3481" /></flowRoot>    <path
       style="fill:none;stroke:#000000;stroke-width:0.82857597px;stroke-linecap:butt;stroke-linejoin:miter;stroke-opacity:1"
       d="m 458.60237,337.79312 c 0.22661,-0.20116 0.38951,0.65258 0.34052,0.92633 -0.13539,0.74653 -0.73724,0.39968 -1.08932,-0.21428 -0.64174,-1.07693 -0.71244,-2.69445 -0.33451,-3.43665 0.55487,-1.0479 1.80539,-0.17558 2.60407,1.50441 1.01006,2.30377 0.92903,4.96577 0.0753,5.93787 -1.07245,1.34786 -2.79306,0.10616 -3.82719,-2.38991 -1.35562,-2.90069 -1.52094,-6.81487 -0.43585,-8.55648 1.30812,-1.82199 4.04543,0.21605 5.7458,4.06348 1.73579,4.65178 1.35579,9.42781 -0.40445,10.80178 -1.99797,1.97422 -4.79718,-0.13943 -6.37788,-4.44488 -2.04645,-4.53172 -2.4078,-10.8522 -0.69723,-13.76782 1.99503,-2.68138 6.39805,0.61887 9.08138,6.75123 2.41847,7.18591 1.57896,13.96286 -1.11262,15.4987 -2.96068,2.55264 -6.74412,-0.34901 -8.74918,-6.38427 -2.68919,-6.00644 -3.32621,-14.77835 -1.0933,-19.04836 2.62062,-3.60742 8.86444,1.02996 12.60411,9.56719 3.02331,9.91397 1.56189,18.5456 -2.05964,20.01032 -3.96137,3.07849 -8.64562,-0.52494 -10.95108,-8.21332 -3.27235,-7.33906 -4.23842,-18.58297 -1.5965,-24.37491 3.18134,-4.59684 11.44774,1.44298 16.30398,12.51083 3.51635,12.83517 1.27357,23.15436 -3.25235,24.3187 -4.99912,3.55242 -10.51533,-0.67117 -12.99567,-9.93872 -3.78939,-8.54212 -5.10812,-22.25921 -2.17745,-29.72314 3.67256,-5.64751 14.14997,1.85104 20.16765,15.5815 3.8628,15.9445 0.68672,27.76607 -4.69394,28.40714 -6.07313,3.97529 -12.36739,-0.79431 -14.89681,-11.56966 -4.23767,-9.62727 -5.90179,-25.80049 -2.80557,-35.06748 4.08968,-6.75684 16.97173,2.24716 24.17877,18.77828 4.02743,19.23286 -0.22196,32.35619 -6.38417,32.2595 -7.18292,4.34852 -14.21554,-0.90407 -16.66918,-13.11675 -4.61775,-10.6056 -6.58927,-29.20015 -3.44987,-40.38131 4.42806,-7.92173 19.91225,2.6252 28.31815,22.10021 3.97529,22.68767 -1.47162,36.89893 -8.31938,35.86099 -8.32854,4.67292 -16.07265,-1.01367 -18.32796,-14.59305 -4.93327,-11.48725 -7.14414,-32.45054 -4.07966,-45.63692 4.68373,-9.13801 22.96944,2.97961 32.5642,25.54642 3.67234,26.29224 -3.07733,41.36722 -10.49275,39.1974 -9.51042,4.94912 -17.94985,-1.13908 -19.88823,-16.01264 -5.18998,-12.28189 -7.54416,-35.54329 -4.66525,-50.80639 4.85327,-10.40056 26.14008,3.30585 36.89323,29.11602 3.08625,30.02612 -5.04984,45.73274 -12.89475,42.25627 -10.72903,5.17651 -19.85598,-1.29925 -21.36399,-17.39175 -5.39561,-12.99808 -7.77204,-38.46908 -5.17857,-55.8613 4.93426,-11.70331 29.41973,3.60028 41.27964,32.80795 2.18692,33.86557 -7.39562,49.96699 -15.51297,45.02596 -11.98513,5.35417 -21.79739,-1.51467 -22.76819,-18.74658 -5.55905,-13.64411 -7.81544,-41.21799 -5.59383,-60.77384 4.92519,-13.03939 32.80302,3.86011 45.69656,36.62107 0.94698,37.78329 -10.11718,54.04089 -18.33289,47.4964 -13.27935,5.47985 -23.77744,-1.80687 -24.112,-20.09426 -5.69008,-14.22768 -7.66749,-43.7799 -5.88786,-65.51659 4.82597,-14.40155 36.28373,4.08358 50.116,40.5537 -0.65765,41.74934 -13.21298,57.92565 -21.33792,49.65901 -14.61192,5.55029 -25.79655,-2.19744 -25.4048,-21.45142 -5.79863,-14.7561 -7.32625,-46.14493 -6.04025,-70.06376 4.63762,-15.78198 39.85478,4.2697 54.50931,44.6039 -2.6476,45.73083 -16.67776,61.59242 -24.50983,51.50649 -15.98243,5.56071 -27.85245,-2.70662 -26.65401,-22.83374 -5.89459,-15.23629 -6.79512,-48.30416 -6.03354,-74.39102 4.36296,-17.17289 43.50832,4.41823 58.84736,48.76895 -5.03966,49.69289 -20.50283,65.01336 -27.82899,53.03337 -17.38951,5.50489 -29.94054,-3.3531 -27.86527,-24.25593 -5.98753,-15.67458 -6.082,-50.25012 -5.8531,-78.47599 4.00656,-18.56697 47.23625,4.52959 63.101,53.04486 -7.84671,53.59934 -24.67615,68.16165 -31.27476,54.23599 -18.83043,5.3751 -32.05422,-4.15313 -29.04242,-25.7312 -6.08662,-16.07669 -5.19915,-51.97713 -5.48707,-82.29844 3.58475,-19.9583 51.03007,4.60495 67.24135,57.42728 -11.07769,57.41218 -29.18287,71.01138 -34.82583,55.1118 -20.30086,5.16247 -34.18547,-5.12024 -30.18784,-27.27096 -6.20059,-16.44797 -4.16239,-53.4819 -4.92632,-85.84057 3.11989,-21.35427 54.88159,4.64649 71.24032,61.91043 -14.73751,61.09327 -34.0053,73.5381 -38.4603,55.66052 -21.79457,4.85666 -36.32536,-6.26564 -31.30283,-28.88512 -6.33798,-16.79279 -2.9903,-54.76341 -4.16392,-89.08685 2.62245,-22.75674 58.7829,4.65738 75.07066,66.48773 -18.82735,64.60406 -39.12356,75.71919 -42.15617,55.88323 -23.30367,4.44731 -38.46431,-7.59795 -32.38796,-30.58156 -6.50713,-17.11566 -1.70287,-55.82355 -3.19485,-92.02427 2.10551,-24.16691 62.72693,4.64227 78.70628,71.15155 -23.34448,67.90584 -44.51544,77.53347 -45.89143,55.78271 -24.81874,3.92432 -40.59258,-9.12372 -33.44295,-32.36701 -6.71681,-17.42069 -0.32087,-56.66531 -2.01574,-94.64155 1.5842,-25.58845 66.70761,4.60751 82.12223,75.8936 -28.28272,70.96007 -50.15702,78.96143 -49.64439,55.36288 -26.32921,3.27876 -42.70031,-10.84778 -34.46756,-34.24659 -6.9758,-17.71275 1.1359,-57.29261 -0.62416,-96.92931 1.07532,-27.0282 70.72073,4.56244 85.29485,80.70426 -33.6324,73.72895 -56.02258,79.98537 -53.39367,54.6295 -27.82426,2.50345 -44.77821,-12.77342 -35.46152,-36.22448 -7.29323,-17.99799 2.64852,-57.70899 0.98172,-98.8795 0.59667,-28.4968 74.76439,4.52046 88.20152,85.57371 -39.38049,76.1746 -62.08504,80.58896 -57.11842,53.58841 -29.2929,1.59362 -46.81726,-14.90271 -36.42468,-38.3039 -7.67848,-18.28411 4.19911,-57.91716 2.80303,-100.48474 0.16637,-30.00859 78.8403,4.50128 90.82089,90.49114 -45.5106,78.25979 -68.3157,80.75732 -60.79843,52.24702 -30.72427,0.54612 -48.80897,-17.23721 -37.35725,-40.4879 -8.14062,-18.58159 5.77041,-57.9192 4.84024,-101.73887 -0.19716,-31.58055 82.95465,4.53349 93.13326,95.44634 -52.00297,79.94721 -74.68456,80.47647 -64.41377,50.61216 -32.10863,-0.63941 -50.74568,-19.7776 -38.25998,-42.77908 -8.68839,-18.90388 7.3452,-57.71729 7.09221,-102.63648 -0.47461,-33.23138 87.11857,4.65655 95.12091,100.43025 -58.8341,81.19928 -81.15995,79.73313 -67.94479,48.6907 -33.43552,-1.96293 -52.62035,-22.52467 -39.13391,-45.18056 -9.32917,-19.26815 8.90563,-57.31463 9.55444,-103.17448 -0.6442,-34.97866 91.34698,4.92044 96.77001,105.43736 -65.97651,81.97773 -87.70822,78.51385 -71.37171,46.48815 -34.69577,-3.42226 -54.42681,-25.47911 -39.98073,-47.69573 -10.06827,-19.696 10.43329,-56.71644 12.219,-103.3526 -0.68084,-36.83736 95.65471,5.38247 98.06985,110.46663 -73.39837,82.24388 -94.2935,76.80536 -74.67435,44.00921 -35.87998,-5.01476 -56.15924,-28.6423 -40.8021,-50.32938 -10.90809,-20.21313 11.90895,-55.9313 15.07628,-103.17171 -0.55777,-38.82006 100.05078,6.10045 99.0107,115.52053 -81.06274,81.95849 -100.87724,74.59439 -77.83138,41.25703 -36.97932,-6.73676 -57.81242,-32.01614 -41.59991,-53.08721 -11.84673,-20.85006 13.31316,-54.97242 18.11606,-102.62977 -0.24787,-40.9402 104.53522,7.12501 99.58222,120.60068 -88.92797,81.08283 -107.41796,71.86831 -80.82066,38.23409 -37.98471,-8.58414 -59.38136,-35.60368 -42.37555,-55.97691 -12.87683,-21.64145 14.62715,-53.85857 21.32595,-101.71892 0.27837,-43.2136 109.10108,8.49669 99.77466,125.70459 -96.94648,79.57929 -113.87128,68.61599 -83.61892,34.94288 -38.88686,-10.55234 -60.86063,-39.40945 -43.12966,-59.00799 -13.98374,-22.62583 15.83466,-52.61474 24.68667,-100.42836 1.05729,-45.65449 113.73977,10.24917 99.5837,130.82718 -105.06652,77.41373 -120.19022,64.82954 -86.20206,31.38677 -39.67697,-12.63559 -62.24449,-43.43881 -43.86159,-62.1917 -15.14484,-23.84423 16.92339,-51.27144 28.16405,-98.75482 2.13959,-48.2638 118.44967,12.42132 99.01835,135.97056 -113.2321,74.55678 -126.3261,60.50564 -88.54539,27.57067 -40.34633,-14.8267 -63.52697,-47.69796 -44.56954,-65.54059 -16.32752,-25.33901 17.88693,-49.86371 31.71949,-96.71241 3.58007,-51.01827 123.2265,15.06782 98.09069,141.15328 -121.38329,70.98446 -132.22894,55.64624 -90.61971,23.49918 -40.89123,-17.11443 -64.70526,-52.19161 -45.25427,-69.06623 -17.48815,-27.15178 18.72579,-48.42916 35.33292,-94.31206 5.41393,-53.89022 128.04018,18.23869 96.79327,146.3894 -129.45788,66.67957 -137.84878,50.25936 -92.38917,19.17815 -41.31587,-19.4846 -65.78287,-56.92398 -45.92126,-72.78024 -18.57179,-29.32095 19.44826,-47.00637 38.99504,-91.54561 7.66355,-56.86255 132.8426,21.96383 95.10642,151.67243 -137.39193,61.63209 -143.13582,44.35946 -93.81518,14.61908 -41.6288,-21.92422 -66.76514,-61.90335 -46.57705,-76.69839 -19.51115,-31.87897 20.07103,-45.63262 42.6945,-88.39318 10.35096,-59.92119 137.58046,26.25948 93.01137,156.98317 -145.12024,55.83883 -148.04163,37.96696 -94.86203,9.84135 -41.8382,-24.4243 -67.65369,-67.14463 -47.2228,-80.84334 -20.22741,-34.84918 20.6193,-44.34147 46.41431,-84.82966 13.49987,-63.0481 142.19822,31.13514 90.49284,162.29633 -152.57738,49.30365 -152.51977,31.10823 -95.49912,4.87143 -41.94983,-26.97936 -68.44347,-72.66889 -47.85206,-85.2436 -20.63106,-38.24276 21.12622,-43.16034 50.13096,-80.8264 17.13528,-66.21981 146.63901,36.59322 87.54003,167.58227 -159.69799,42.03725 -156.52597,23.81514 -95.70037,-0.25899 -41.96801,-29.58598 -69.12319,-78.50176 -48.45053,-89.93177 -20.62371,-42.0552 21.63166,-42.10802 53.81426,-76.35155 21.28238,-69.40746 150.84434,42.62967 84.14557,172.80759 -166.41752,34.05679 -160.01875,16.12459 -95.44386,-5.51422 -41.8961,-32.24227 -69.67449,-84.67238 -48.99559,-94.94301 -20.10092,-46.26392 22.1796,-41.1927 57.42266,-71.41963 25.96904,-72.52803 154.75841,49.2817 80.30994,177.98401 -172.67253,25.38595 -162.96027,8.07822 -94.71144,-10.85532 -41.73754,-34.94746 -70.07202,-91.21242 -49.45702,-100.314 -18.95494,-50.82519 22.81654,-40.41058 60.85538,-66.2104 31.27293,-75.32636 158.37645,56.74588 76.08855,183.28755 -178.40187,16.05419 -165.31618,-0.27833 -93.48867,-16.2411 -41.49566,-37.7017 -70.28194,-98.15523 -49.79509,-106.08126 -17.07939,-55.67284 23.58782,-39.74519 64.0721,-60.73467 37.19938,-77.71084 161.62434,65.04232 71.47106,188.72307 C 241.3648,513.31273 257.85445,498.3201 333.1455,485.5877 291.97229,445.08141 262.88465,380.05283 283.18514,373.30755 c -14.37331,-60.71694 24.53504,-39.16771 67.04518,-54.97758 43.72792,-79.61188 164.40693,74.15636 66.42914,194.2668 -188.04833,-4.44526 -168.15473,-17.72156 -89.53448,-26.97184 -40.77339,-43.36343 -69.95544,-113.38452 -49.89383,-118.94272 -10.74622,-65.84403 25.69311,-38.63794 69.74054,-48.92515 50.83006,-80.95761 166.62749,84.06349 60.93454,199.89172 -191.85565,-15.52624 -168.59067,-26.70072 -86.7941,-32.22624 -40.29846,-46.27644 -69.30009,-121.73476 -49.52552,-126.09626 -6.12302,-70.91776 27.08794,-38.10533 72.11711,-42.56566 58.4687,-81.67492 168.18872,94.72929 54.95993,205.56742 -194.91809,-27.09525 -168.34763,-35.77578 -83.54557,-37.34493 -39.75089,-49.24968 -68.21763,-130.61179 -48.77572,-133.76103 -0.44883,-75.78084 28.73418,-37.5113 74.12644,-35.89118 66.59779,-81.69048 168.9944,106.10839 48.47917,211.26013 -197.18961,-39.09686 -167.41461,-44.88788 -79.79469,-42.28129 -39.13243,-52.28863 -66.6177,-140.0348 -47.55446,-141.94794 6.30612,-80.25848 30.63309,-36.7918 75.71269,-28.89965 75.16205,-80.93219 168.95034,118.14491 41.46774,216.93257 C 180.1502,478.92321 212.99349,476.41797 303.22794,483.40598 264.7835,428.00594 238.83101,333.39304 257.46503,332.74932 c 14.14251,-84.16205 32.77176,-35.87955 76.81306,-21.59645 84.09657,-79.33026 167.96576,130.7728 33.90277,222.54436 -199.19948,-64.15602 -163.46042,-62.9818 -70.82923,-51.42144 -37.6872,-58.59169 -61.4391,-160.54276 -43.29423,-159.87297 23.02854,-87.29423 35.12208,-34.70763 77.35856,-13.99671 93.32708,-76.81853 165.95471,143.91543 25.76394,228.05178 -198.86889,-77.0834 -160.44333,-71.84218 -65.64616,-55.53446 -36.86034,-61.87265 -57.61629,-171.60445 -40.0356,-169.56676 32.89698,-89.45452 37.64052,-33.21225 77.27529,-6.12686 102.76979,-73.33601 162.83706,157.48607 17.0338,233.40775 C 148.19585,448.45347 189.06261,458.14035 285.78309,479.35361 249.82121,414.10053 232.99302,296.1953 249.91291,299.66342 c 43.644,-90.4458 40.26869,-31.33608 76.48605,1.97337 112.33165,-68.82811 158.53974,171.38876 7.69735,238.56238 C 138.6909,436.81359 181.71701,451.31174 280.10785,477.57125 245.11923,408.82667 233.29386,282.42996 249.42834,287.39582 304.55682,197.3145 292.36254,258.36379 324.34085,297.64501 446.25179,234.397 477.33888,483.16329 322.0846,541.10761 129.84813,424.49402 174.71648,444.15323 274.51631,475.58154 240.58045,403.22195 234.9789,268.11788 250.16871,274.64751 317.34177,186.45663 295.72135,248.38262 322.64657,293.27776 454.04427,236.7195 468.80283,493.03935 309.8122,541.33039 121.7168,411.53842 168.07571,436.68877 269.0157,473.38985 236.21925,397.27803 238.20707,253.38435 252.25284,261.53455 331.81925,176.90557 300.2825,238.51865 321.36219,288.56331 462.0372,239.83184 459.33116,502.56181 297.32193,540.83764 114.34268,397.99408 161.80759,428.94299 263.61312,471.00176 232.05256,390.98611 243.13256,238.38673 255.79046,248.19419 347.85789,168.9143 306.0545,228.91066 320.53176,283.53443 470.15195,243.78325 448.93419,511.63722 284.66071,539.60258 107.76886,383.91383 155.92417,420.94225 258.3166,468.42335 228.09786,384.336 249.89737,223.31875 260.877,234.78872 365.28345,162.7229 313.02709,219.70287 320.1973,278.23145 478.30026,248.61488 437.63022,520.17266 271.87405,537.60104 102.03157,369.34792 150.43181,412.70858 253.12957,465.65974 224.37696,377.31758 258.6266,208.40759 267.59135,221.49878 383.88873,158.54832 321.17427,211.03659 320.39719,272.69698 486.38924,254.35955 425.44807,528.07544 259.01331,534.81262 97.165787,354.35533 145.33886,404.26845 248.05928,462.7172 220.91426,369.92037 269.4197,193.91573 275.99096,208.52481 c 127.44006,-51.94336 54.4613,-5.47287 45.17543,58.45438 173.15287,-5.93913 91.25918,268.27556 -75.03554,264.24109 C 93.200918,338.9954 140.65069,395.64684 243.11081,459.6015 c -25.37314,-97.46774 39.23184,-279.46266 42.99683,-263.51672 137.53004,-39.10404 54.69241,-0.19976 36.42804,65.04579 179.45034,7.53799 76.07354,280.49221 -89.25538,265.67995 -143.118568,-203.48063 -96.90954,-139.94219 5.00908,-70.49173 -23.41039,-102.37111 59.13113,-288.91734 59.6553,-271.90926 146.26647,-24.54198 54.19531,5.25582 26.58648,70.79816 C 509.28153,277.24547 384.05491,547.09505 220.5171,521.57375 88.068109,307.42198 132.5009,377.9571 233.59945,452.87485 212.37458,345.3529 314.62915,156.05228 311.473,173.73999 c 153.3615,-8.41781 52.90613,10.77376 15.7007,75.53064 188.922,37.48866 41.65283,302.32112 -119.27585,266.23357 -120.962882,-224.16785 -78.85633,-146.56722 21.1474,-66.22855 -18.77964,-112.93393 104.84317,-302.819 97.58385,-284.95378 158.54875,9.05929 50.78065,16.21886 3.84956,79.06063 191.83898,53.80337 22.51762,311.65589 -134.99912,265.21733 C 86.772114,275.13836 125.99138,359.8311 224.63067,445.52698 208.59859,326.90867 355.05533,138.98767 343.31268,156.40098 c 161.59242,27.63431 47.79818,21.44356 -8.8574,81.20805 C 527.83713,308.48808 69.66624,367.09563 75.019791,224.81874 212.8111,40.756295 123.34797,350.66193 220.35917,441.63458 207.4257,317.05153 585.9461,214.96773 297.05745,161.68614 c -35.53136,60.96224 108.293,14.8234 42.04905,70.33174 193.43987,88.59815 -278.502389,96.89795 -255.135199,-42.31285"
       id="path4051"
       inkscape:connector-curvature="0"
       sodipodi:nodetypes="cssscsssssssssssssssssssssssssssssssssssssssssssssssssssssssssssssssssssssssssssssssssssssssssssssssssssssssssssssssssssssssssssssssssssssssssssssssssssssssssssssssssssssssssssssssssssssssssssssssssssssssssssssssssssssssssssssssssssssssssssssssssssssssssssssssc" />
  </g>
</svg>
