<?xml version="1.0" encoding="UTF-8" standalone="no"?>
<!-- Created with Inkscape (http://www.inkscape.org/) -->

<svg
   xmlns:dc="http://purl.org/dc/elements/1.1/"
   xmlns:cc="http://creativecommons.org/ns#"
   xmlns:rdf="http://www.w3.org/1999/02/22-rdf-syntax-ns#"
   xmlns:svg="http://www.w3.org/2000/svg"
   xmlns="http://www.w3.org/2000/svg"
   xmlns:sodipodi="http://sodipodi.sourceforge.net/DTD/sodipodi-0.dtd"
   xmlns:inkscape="http://www.inkscape.org/namespaces/inkscape"
   width="744.09448819"
   height="1052.3622047"
   id="svg3783"
   version="1.1"
   inkscape:version="0.48.2 r9819"
   sodipodi:docname="letter sized frame blank.svg">
  <sodipodi:namedview
     id="base"
     pagecolor="#ffffff"
     bordercolor="#666666"
     borderopacity="1.0"
     inkscape:pageopacity="0.0"
     inkscape:pageshadow="2"
     inkscape:zoom="0.49497475"
     inkscape:cx="252.87893"
     inkscape:cy="713.32783"
     inkscape:document-units="px"
     inkscape:current-layer="layer1"
     showgrid="false"
     inkscape:window-width="1084"
     inkscape:window-height="748"
     inkscape:window-x="82"
     inkscape:window-y="-16"
     inkscape:window-maximized="0" />
  <defs
     id="defs3785" />
  <metadata
     id="metadata3788">
    <rdf:RDF>
      <cc:Work
         rdf:about="">
        <dc:format>image/svg+xml</dc:format>
        <dc:type
           rdf:resource="http://purl.org/dc/dcmitype/StillImage" />
        <dc:title></dc:title>
      </cc:Work>
    </rdf:RDF>
  </metadata>
  <g
     id="layer1"
     inkscape:groupmode="layer"
     inkscape:label="Layer 1">
    <rect
       y="12.284647"
       x="7.8454075"
       height="779.49591"
       width="516.12524"
       id="rect4319"
       style="fill:none;stroke:#000000;stroke-width:0.91610378;stroke-opacity:1" />
    <flowRoot
       style="fill:black;stroke:none;stroke-opacity:1;stroke-width:1px;stroke-linejoin:miter;stroke-linecap:butt;fill-opacity:1;font-family:Sans;font-style:normal;font-weight:normal;font-size:40px;line-height:125%;letter-spacing:0px;word-spacing:0px"
       id="flowRoot3475"
       xml:space="preserve"><flowRegion
         id="flowRegion3477"><rect
           y="840.23016"
           x="40.406101"
           height="76.771591"
           width="474.7717"
           id="rect3479" /></flowRegion><flowPara
         id="flowPara3481" /></flowRoot>    <path
       inkscape:connector-curvature="0"
       id="path3078"
       d="m 324.39973,467.68729 c -0.28624,0.70537 -2.92907,1.30782 -5.34749,1.34856 -3.24525,0.0211 -5.31238,-0.78593 -4.91475,-1.61249 0.40614,-1.0221 4.46178,-1.79382 8.54284,-1.84728 4.88406,-0.1487 7.76879,0.82297 6.67038,2.11647 -1.46049,1.56244 -7.08856,2.83352 -12.0149,2.77167 -5.80193,-0.1756 -9.42721,-1.7921 -8.47533,-3.32387 0.81763,-1.69528 7.81863,-2.86139 15.08122,-2.89871 7.96119,-0.27832 12.43194,1.20335 10.21833,3.39008 -2.82897,2.50931 -11.5157,4.50149 -18.73276,4.28004 -8.22361,-0.44406 -13.32131,-2.95158 -11.9171,-5.16878 1.0062,-2.34453 10.97643,-3.78381 21.62922,-3.80763 11.17502,-0.51384 17.1566,1.41717 13.67302,4.58459 -4.42246,3.55612 -16.21619,6.29429 -25.51066,5.85193 -10.51755,-0.78777 -16.95648,-4.25517 -15.1968,-7.14872 0.98809,-2.99045 13.95292,-4.56317 28.19888,-4.56776 14.51079,-0.86192 21.8911,1.47033 16.98978,5.71775 -6.24798,4.70899 -21.19554,8.1943 -32.35757,7.46273 -12.6939,-1.20877 -20.31247,-5.69105 -18.27255,-9.26121 0.77592,-3.6546 16.77102,-5.20444 34.80178,-5.17585 17.95,-1.3306 26.58623,1.3722 20.12481,6.80909 -8.3092,5.97071 -26.46081,10.17955 -39.28118,9.08508 -14.76454,-1.71063 -23.37452,-7.24786 -21.10442,-11.49975 0.38205,-4.35916 19.45708,-5.71378 41.44882,-5.63156 21.47056,-1.92802 31.19344,1.13563 23.03575,7.87952 -10.60946,7.3409 -32.01782,12.22393 -46.28781,10.68899 -16.74168,-2.29889 -26.13574,-8.91448 -23.65497,-13.85355 -0.1787,-5.12639 22.04222,-6.09768 48.15032,-5.93761 25.04742,-2.66184 35.66548,0.77681 25.68212,8.95114 -13.15222,8.81573 -37.87173,14.2967 -53.3827,12.24191 -18.6367,-2.98094 -28.5958,-10.68101 -25.88973,-16.30748 -0.88835,-5.97785 24.56251,-6.36205 54.91607,-6.09959 28.65278,-3.53864 39.95697,0.31509 28.02547,10.047 -15.94135,10.38788 -44.02657,16.36259 -60.56919,13.7089 -20.45973,-3.76612 -30.76036,-12.53978 -27.77772,-18.84236 -1.72544,-6.93343 27.05775,-6.51129 61.75488,-6.1257 32.25726,-4.5636 44.02503,-0.2271 30.03002,11.19083 -18.98109,12.04652 -50.48504,18.38178 -67.84889,15.05272 -22.2184,-4.66534 -32.63974,-14.48577 -29.29214,-21.43484 -2.66429,-8.01042 29.57196,-6.54786 68.67535,-6.02667 35.83006,-5.74008 47.82948,-0.82436 31.6625,12.4069 -22.27608,13.77706 -57.24818,20.30992 -75.22121,16.2341 -23.9176,-5.69091 -34.24764,-16.51734 -30.41152,-24.05826 -3.67394,-9.22187 32.15253,-6.47131 75.68604,-5.81504 39.34021,-7.06929 51.33392,-1.44871 32.89279,13.71975 -25.83144,15.56136 -64.31485,22.09837 -82.68329,17.21194 -25.5586,-6.8562 -35.5989,-18.63622 -31.12027,-26.68319 -4.71708,-10.57469 34.84892,-6.278 82.79585,-5.50456 42.75671,-8.54986 54.50559,-2.06965 33.69378,15.15415 -29.65233,17.37737 -71.68109,23.69429 -90.22935,17.94342 -27.13907,-8.17515 -36.7077,-20.84715 -31.41052,-29.27885 -5.74748,-12.0665 37.71254,-5.96013 90.01544,-5.10887 46.04959,-10.17777 57.31572,-2.65439 34.04153,16.7348 -33.74384,19.19936 -79.33976,25.04105 -97.85093,18.38454 -28.65222,-9.66205 -37.58529,-23.15746 -31.2826,-31.81466 -6.70688,-13.68168 40.79542,-5.50536 97.35775,-4.6401 49.18973,-11.94581 59.73947,-3.16824 33.91495,18.48624 -38.11078,20.99774 -87.27953,26.07855 -105.53595,18.49021 -30.08695,-11.33066 -38.23827,-25.57579 -30.74687,-34.2626 -7.51892,-15.38501 44.15019,-4.89564 104.83905,-4.10655 52.1501,-13.84378 61.75632,-3.57489 33.29626,20.43255 -42.75719,22.73924 -95.48451,26.74372 -113.26863,18.21485 -31.4279,-13.19401 -38.66767,-28.11108 -29.82389,-36.59993 -8.08354,-17.11581 47.82907,-4.10589 112.47896,-3.51019 54.90566,-15.85823 63.34964,-3.83661 32.17047,22.59725 -47.68588,24.38676 -103.93324,26.97097 -121.02937,17.51253 -32.65469,-15.26334 -38.86753,-30.77102 -28.54298,-38.81166 -8.28151,-18.79061 51.88234,-3.103 120.29935,-2.84436 57.43376,-17.97239 64.50673,-3.91471 30.52525,25.00305 -52.89804,25.89968 -112.59791,26.6931 -128.79376,16.33785 -33.74287,-17.54787 -38.82546,-33.56087 -26.93952,-40.89211 -8.00885,-20.32779 56.35507,-1.84594 128.32082,-2.09257 59.71443,-20.16638 65.21828,-3.76984 28.35081,27.67155 -58.39257,27.23382 -121.44383,25.84195 -136.53296,14.64606 -34.6635,-20.05367 -38.52224,-36.48189 -25.048,-42.84339 -7.2199,-21.67205 61.28092,-0.28826 136.55589,-1.22999 61.73081,-22.41727 65.47867,-3.36248 25.64001,30.62297 -64.16569,28.34177 -130.4286,24.34945 -144.21292,12.394 -35.38355,-22.78301 -37.93305,-39.53026 -22.89574,-44.67136 -5.9218,-22.78126 66.67613,1.61636 145.00274,-0.22818 63.46913,-24.69935 65.28496,-2.6531 22.38756,33.87598 -70.20997,29.17308 -139.50139,22.14868 -151.79426,9.54057 -35.8664,-25.73357 -37.0284,-42.69613 -20.49786,-46.37923 -4.14436,-23.60404 72.53557,3.90675 153.6398,0.93849 64.91889,-26.98426 64.63725,-1.60298 18.5905,37.44721 -76.51392,29.67472 -148.6025,19.17514 -159.23224,6.04751 -36.07231,-28.8976 -35.77507,-45.96243 -17.85719,-47.96229 -1.92748,-24.07871 78.83283,6.60801 162.42591,2.287 66.07313,-29.24147 63.53778,-0.1742 14.24771,41.35099 -83.06109,29.79146 -157.6629,15.36822 -166.4764,1.88022 -35.95893,-32.26093 -34.13791,-49.30427 -14.96824,-49.40523 0.68023,-24.14128 85.52474,9.72793 171.30419,3.8226 66.9283,-31.43851 61.9908,1.66973 9.35973,45.59915 -89.82963,29.46644 -166.60388,10.6725 -173.47045,-2.99144 -35.48258,-35.80249 -32.08127,-52.68846 -11.8226,-50.68239 3.62207,-23.73185 92.55729,13.2564 180.20747,5.53843 67.48438,-33.54142 60.00224,3.96338 3.92876,50.20052 -96.7913,28.64192 -175.33716,5.03964 -180.15266,-8.5923 -34.59874,-39.49325 -29.5705,-56.07287 -8.41359,-51.75935 6.83522,-22.7976 99.87044,17.16651 189.06342,7.41682 67.74478,-35.51504 57.57915,6.7391 -2.04142,55.1607 -103.91098,27.26002 -183.765,-1.57003 -186.45585,-14.94091 -33.26354,-43.29572 -26.57379,-59.40633 -4.73961,-52.59528 10.25266,-21.29438 107.40154,21.41624 197.79779,9.43085 67.71657,-37.3238 54.72958,10.02648 -8.54566,60.48172 -111.14593,25.26366 -191.7805,-9.18565 -192.30743,-22.04856 -31.43527,-47.16363 -23.06408,-62.62888 -0.80618,-53.14506 13.80513,-19.18777 115.0875,25.94995 206.33699,11.54584 67.40993,-38.93166 51.46187,13.85212 -15.57714,66.16159 -118.44576,22.5977 -199.26891,-17.82401 -197.63063,-29.91844 -29.07551,-51.04132 -19.02056,-65.67136 3.37327,-53.3608 17.42315,-16.45405 122.8657,30.69993 214.60973,13.72035 66.83818,-40.30282 47.78468,18.23888 -23.12797,72.19432 -125.75126,19.21009 -206.10794,-27.48764 -202.34423,-38.54453 -26.15115,-54.8637 -14.43101,-68.45678 7.77661,-53.1937 21.039,-13.08129 130.67515,35.58763 222.548,15.90709 66.01766,-41.40216 43.70611,23.20609 -31.18884,78.5695 -132.99491,15.05316 -212.16979,-38.16322 -206.36375,-47.91079 -22.63631,-58.5568 -9.29345,-70.90064 12.37274,-52.59535 24.58929,-9.0705 138.4567,40.525 230.08831,18.05374 64.96722,-42.19536 39.23395,28.76845 -39.74903,85.27205 -140.10017,10.08516 -217.32284,-49.81987 -209.60258,-57.99035 -18.51396,-62.03774 -3.61798,-72.91232 17.12184,-51.51894 28.01768,-4.43661 146.15357,45.41579 237.1726,20.10346 63.70813,-42.64957 34.37493,34.93626 -48.79655,92.28218 -146.98235,4.27165 -221.43384,-62.40775 -211.97266,-68.74449 -13.7782,-65.21605 2.57133,-74.39665 21.97504,-49.92094 31.27786,0.79067 153.7121,50.15706 243.74931,21.99577 62.26358,-42.73344 29.13462,41.71481 -58.31785,99.57517 -153.54829,-2.41272 -224.37052,-75.85693 -213.3863,-80.12225 -8.43606,-67.99475 9.23498,-75.2558 26.87505,-47.76209 34.33634,6.56598 161.08226,54.64068 249.77442,23.66714 60.65842,-42.41771 23.51723,49.10404 -68.29798,107.12135 -159.69743,-9.98263 -226.00446,-90.07664 -213.7572,-92.05951 -2.50962,-70.27208 16.3165,-75.39184 31.75627,-45.00926 37.17508,12.82794 168.21824,58.75516 255.2124,25.05205 58.91864,-41.67512 17.52525,57.09845 -78.72043,114.88619 C 180.13784,489.02956 119.24642,402.51522 132.45824,402.99112 c 3.9626,-71.94372 23.74167,-74.70906 36.5457,-41.63628 39.79367,19.49886 175.07931,62.38746 260.03716,26.08385 57.07094,-40.48076 11.15959,65.68653 -89.56676,122.83016 -170.31259,-27.7755 -224.88946,-120.35922 -211.04447,-117.2904 10.92379,-72.90525 31.41761,-73.11718 41.16362,-37.62568 42.21024,26.48494 181.63058,65.42491 264.23287,26.69596 55.14233,-38.81217 4.41918,74.85093 -100.81681,130.90911 -174.5507,-37.96037 -221.93334,-136.1364 -207.81238,-130.38943 18.29798,-73.05554 39.23272,-70.53466 45.52476,-32.96979 44.46161,33.6769 187.84323,67.75749 267.79468,26.82305 53.15967,-36.64962 -2.6989,84.56786 -112.44855,139.07434 -177.92,-48.95232 -217.26717,-152.11523 -203.2444,-143.65933 25.98916,-72.30011 47.05717,-66.8924 49.5396,-27.672 46.60208,40.9513 193.69593,69.27953 270.72915,26.40243 51.1492,-33.97606 -10.19924,94.80706 -124.43727,147.27276 -180.30407,-60.69041 -210.83395,-168.108 -197.29026,-156.971 33.88145,-70.55518 54.7437,-62.13701 53.11604,-21.7477 48.70102,48.17259 199.17468,69.89226 273.0547,25.37532 C 496.67153,333.7196 429.44744,470.02824 310.77938,519.94413 129.18956,446.84834 108.17808,336.03039 120.86665,349.75996 c 41.83961,-67.75207 62.12957,-56.23496 56.16131,-15.2251 50.83977,55.19588 204.27337,69.50559 274.80148,23.68821 C 498.97266,331.18286 425.45587,474.92162 302.4534,521.76188 120.78305,435.69107 109.8886,322.43956 121.36338,338.6128 c 49.71042,-63.84137 69.03895,-49.17553 58.58416,-8.1453 53.10759,61.87033 208.99407,68.04014 276.01104,21.29438 45.19258,-22.75691 -35.06424,128.25723 -162.2646,171.48323 -180.44816,-99.4998 -180.75019,-214.11834 -170.8175,-195.70793 57.32541,-58.79847 75.28597,-40.97464 60.29722,-0.56284 55.59802,68.04309 213.34646,65.42921 276.73576,18.15524 C 503.21229,327.20933 415.73944,485.28064 284.52287,524.34515 106.68445,411.09612 117.30727,296.25817 125.41285,316.64776 c 64.50445,-52.62802 80.67896,-31.67759 61.21984,7.45513 58.40456,73.56305 217.34768,61.62002 277.03756,14.24135 C 505.16031,325.81812 409.96939,490.66081 274.96644,525.0132 101.19437,397.84442 122.91471,283.99379 128.96369,306.06205 c 71.06046,-45.36889 85.02494,-21.36136 61.28099,15.82975 61.61711,78.28484 221.02099,56.57524 276.98643,9.53334 39.76607,-6.56953 -63.6666,164.68403 -202.17463,193.77585 C 96.85716,384.1061 129.67434,272.48183 133.50338,295.89818 c 76.80659,-37.09938 88.13504,-10.13668 60.42286,24.47188 65.31802,82.07199 224.3943,50.27356 276.65789,4.02269 38.1425,-0.0602 -74.07612,177.17744 -215.7541,200.4686 C 93.737552,370.00977 137.46854,261.85306 138.98908,286.27176 c 81.56423,-27.94085 89.8302,1.85112 58.60449,33.28511 69.57801,84.79951 227.49743,42.70991 276.12991,-2.28847 C 510.3454,324.27696 388.78662,506.98347 244.3295,523.94903 91.880914,355.69472 146.15689,252.21517 145.36034,277.29319 c 85.17444,-18.06171 89.94784,14.42076 55.80675,42.16857 74.45157,86.35558 230.35857,33.89491 275.47835,-9.38762 C 511.85142,324.70309 380.39157,512.28398 233.60305,522.4214 91.310928,341.30678 155.58016,243.64778 152.53966,269.06428 c 87.51115,-7.6787 88.34903,27.35212 52.03796,51.02136 79.97072,86.64239 232.99839,23.85391 274.77069,-17.25288 C 513.23942,325.62696 371.31917,517.40249 222.70388,520.2392 92.027967,326.99572 165.56561,236.1983 160.43315,261.67503 c 88.49803,2.94466 84.93159,40.37308 47.34177,59.74666 86.13726,85.57665 235.42257,12.62526 274.05766,-25.85462 32.6689,31.49594 -120.26085,226.699 -270.14172,221.80045 C 94.008,312.91028 175.93351,229.8787 168.93246,255.20008 c 88.12603,13.5058 79.68224,53.10297 41.80656,68.25605 92.91216,83.08999 237.61081,0.25915 273.36173,-35.15566 C 515.62692,329.02384 351.15839,526.79863 200.62739,513.77643 97.2023,299.19438 186.50374,224.66437 177.91676,249.69548 c 86.46957,23.67898 72.96413,64.93657 35.57607,76.47025 100.20366,79.13264 239.50472,-13.17993 272.66448,-45.10959 30.44478,50.4642 -146.06174,249.8658 -296.57588,228.38577 -88.04337,-223.45977 7.52181,-288.94759 -2.32526,-264.24629 83.69388,33.14058 65.81041,75.39298 28.85537,84.31554 107.85915,73.6809 240.99911,-27.60807 271.8972,-55.65394 29.40158,60.70395 -159.60047,260.69893 -309.38385,230.48943 -71.7051,-230.95305 28.94791,-287.073 18.19053,-262.63609 80.0477,41.60082 59.00885,84.47057 21.90471,91.71577 115.66909,66.74853 241.94455,-42.91087 270.94314,-66.6997 28.3684,71.42628 -173.53333,270.89465 -321.83051,231.75403 -54.60089,-236.95018 49.93959,-283.60251 38.6257,-259.25637 75.83663,48.83178 52.86209,92.20062 15.01463,98.58665 123.38813,58.39491 242.16818,-58.93764 269.65782,-78.12407 27.3122,82.61246 -187.82748,280.35124 -333.84846,232.15524 -36.94097,-241.36941 70.3033,-278.68198 58.77103,-254.14857 71.38471,54.68367 47.53171,98.56967 8.46964,104.84116 130.76817,48.72121 241.50508,-75.50583 267.90016,-89.77473 26.19504,94.24171 -202.44234,288.96965 -345.37056,231.67786 -18.94975,-244.16258 89.86963,-272.48181 78.42593,-247.38966 66.99519,59.08376 43.13276,103.56394 2.51646,110.40452 137.5855,37.85551 239.82436,-92.41705 265.55832,-101.48537 24.97447,106.29049 -217.3287,296.65501 -356.3309,230.31632 -0.86062,-245.31697 108.49453,-265.18957 97.40462,-239.09085 62.92225,62.02381 39.74661,107.18561 -2.65084,115.22894 143.65267,25.93625 237.03905,-109.47419 262.55942,-113.092 C 518.13934,358.0623 262.10636,542.64792 127.86999,467.40485 144.96043,222.54786 253.92745,210.40214 243.41213,238.01002 302.7681,301.55242 280.83139,347.46593 236.51916,357.31011 385.33569,370.41305 469.62233,230.81804 495.38573,232.86714 517.41728,364.40588 247.70676,541.74462 119.07078,457.8361 153.74139,214.99322 261.52977,209.71455 251.77041,239.36533 308.18847,303.07429 287.92927,349.77953 241.64898,362.00024 394.60144,361.49323 469.65291,218.69963 496.11993,226.59885 516.32375,371.2751 233.1156,539.85891 110.8973,447.62178 162.55328,208.25203 268.51341,208.8776 259.66407,241.11284 c 54.16511,62.611 35.9345,110.11446 -12.29345,125.27441 C 403.32964,351.63029 469.12536,206.64369 496.75566,220.54332 514.81836,378.65215 218.43064,536.94702 103.41671,436.81524 171.25369,202.25168 274.87455,207.75358 267.08047,243.10207 319.67483,303.44692 303.75695,351.723 253.6737,370.37694 411.42799,340.8671 468.0634,194.69895 497.31089,214.71817 512.8589,386.51412 203.75611,532.97636 96.68981,425.47847 179.7125,196.90149 280.6111,206.22334 274.02952,245.18446 325.68189,302.19312 312.30934,351.18804 260.53567,373.88356 418.80971,329.25728 466.49594,182.91212 497.80406,209.14017 510.40152,394.83313 189.20195,527.92697 90.769672,413.68149 187.81327,192.09751 285.71734,204.18767 280.53915,247.21905 331.7834,299.91736 321.14874,349.55349 267.92361,376.82861 425.39482,316.86416 464.4565,171.32667 498.25382,203.82539 507.40158,403.57545 174.88168,521.79265 85.700328,401.50121 195.45436,187.72757 290.18034,201.56761 286.6494,249.07686 337.89324,296.58161 330.15739,346.76181 275.79556,379.13998 431.11132,303.75983 461.98282,159.98263 498.67897,198.78913 503.81404,412.70168 160.91033,514.58161 81.515577,389.02041 202.54806,183.67639 293.97749,198.3045 292.40615,250.6433 c 51.5033,41.51409 46.80202,92.12525 -8.30477,130.10845 C 435.89618,290.02399 459.11653,148.9169 499.09819,194.04594 499.5943,422.16625 147.40317,506.31783 78.237996,376.3262 209.01953,179.83051 297.07527,194.35958 297.85459,251.81914 c 51.86301,34.8082 50.31178,85.72456 -5.0712,129.78513 C 439.69611,275.74291 455.90236,138.1623 499.52995,189.60993 494.69882,431.91744 134.47202,497.04036 75.878117,363.50845 214.80454,176.08255 299.42904,189.71352 303.03466,252.52046 355.19336,279.98792 356.89115,331.0733 301.7771,381.6445 442.46841,261.00761 452.38768,127.74754 499.99208,185.49405 489.08635,441.89684 122.22428,486.80433 74.433964,350.65815 219.8475,172.3353 300.98423,184.36638 307.97681,252.67702 c 52.22876,19.57315 57.26143,70.68273 3.0349,128.14929 C 444.1812,245.91326 448.62221,117.69785 500.50202,181.71139 482.71841,452.03979 110.75914,475.6794 73.890611,337.86548 224.09835,168.50439 301.67726,178.33685 312.69962,252.23101 c 51.91932,11.21057 60.36193,62.19216 7.71152,126.87994 C 444.81393,230.55697 444.65726,108.03436 501.07625,178.27423 475.56048,462.27552 100.16591,463.74963 74.220345,325.21786 227.51069,164.52093 301.43815,171.66212 317.2086,251.1357 c 51.08828,2.47086 63.00741,53.16539 12.68566,125.33197 C 444.35739,215.03727 440.54536,98.774468 501.73033,175.19461 467.58313,472.52686 90.521442,451.11172 75.382922,312.79851 230.03981,160.33303 300.1929,164.39794 321.49588,249.35421 c 49.60847,-6.54698 65.06365,43.69496 17.88045,123.51983 C 442.81369,199.45167 436.33968,89.931902 502.47868,172.48434 458.76274,482.71132 81.887867,437.87329 77.326241,300.68399 231.64126,155.90699 297.8662,156.61758 325.54063,246.85865 c 47.36994,-15.73537 66.41513,33.88146 23.22892,121.4577 C 440.19607,183.89644 432.09363,81.517028 503.33449,170.15494 449.08276,492.74113 74.310923,424.15078 79.987302,288.94301 232.27017,151.228 294.38456,148.41193 329.31005,243.6299 373.59189,218.65171 396.27616,267.46371 357.98406,362.78995 436.52842,168.46438 427.86037,73.537042 504.3094,168.21784 438.535,502.5239 67.818282,410.06669 83.293502,277.6348 231.88121,146.30045 289.67903,139.88805 332.76062,239.65736 373.03434,205.50584 399.4025,253.32499 366.92904,356.29948 431.84469,153.24403 423.6926,65.99651 505.4135,166.68438 427.11977,511.96405 62.418718,395.74723 87.164035,266.80805 230.42891,141.1477 283.68845,131.16861 335.83953,234.93902"
       style="fill:none;stroke:#000000;stroke-width:1.81382895px;stroke-linecap:butt;stroke-linejoin:miter;stroke-opacity:1" />
  </g>
</svg>
