<?xml version="1.0" encoding="UTF-8" standalone="no"?>
<!-- Created with Inkscape (http://www.inkscape.org/) -->

<svg
   xmlns:dc="http://purl.org/dc/elements/1.1/"
   xmlns:cc="http://creativecommons.org/ns#"
   xmlns:rdf="http://www.w3.org/1999/02/22-rdf-syntax-ns#"
   xmlns:svg="http://www.w3.org/2000/svg"
   xmlns="http://www.w3.org/2000/svg"
   xmlns:sodipodi="http://sodipodi.sourceforge.net/DTD/sodipodi-0.dtd"
   xmlns:inkscape="http://www.inkscape.org/namespaces/inkscape"
   inkscape:version="0.48.2 r9819"
   version="1.1"
   id="svg2"
   height="1052.3622047"
   width="744.09448819"
   sodipodi:docname="stars005.svg">
  <sodipodi:namedview
     id="base"
     pagecolor="#ffffff"
     bordercolor="#666666"
     borderopacity="1.0"
     inkscape:pageopacity="0.0"
     inkscape:pageshadow="2"
     inkscape:zoom="0.35635937"
     inkscape:cx="462.04167"
     inkscape:cy="746.24451"
     inkscape:document-units="px"
     inkscape:current-layer="layer1"
     showgrid="false"
     inkscape:window-width="882"
     inkscape:window-height="638"
     inkscape:window-x="87"
     inkscape:window-y="38"
     inkscape:window-maximized="0" />
  <defs
     id="defs4" />
  <metadata
     id="metadata7">
    <rdf:RDF>
      <cc:Work
         rdf:about="">
        <dc:format>image/svg+xml</dc:format>
        <dc:type
           rdf:resource="http://purl.org/dc/dcmitype/StillImage" />
        <dc:title></dc:title>
      </cc:Work>
    </rdf:RDF>
  </metadata>
  <g
     id="layer1"
     inkscape:groupmode="layer"
     inkscape:label="Layer 1">
    <g
       id="g3831"
       transform="matrix(0.61128338,0,0,0.61128338,-8.5660861,130.59224)">
      <path
         transform="matrix(2.0380102,-0.23004632,0.23004632,2.0380102,-137.59168,-671.41707)"
         style="fill:none;stroke:#000000;stroke-opacity:1"
         d="M 304.92676,422.41395 93.023954,657.20794 347.87649,510.12476 38.435067,575.52374 331.06842,606.32951 42.284499,477.35329 260.92268,674.28125 103.1019,400.19437 164.23256,688.02473 197.65709,373.51906 77.930383,642.31041 289.83319,407.51642 34.980662,554.5996 344.42208,489.20062 51.788726,458.39486 340.57265,587.37108 121.93446,390.44312 279.75525,664.53 218.62459,376.69964 185.20006,691.20531 z"
         id="path3189"
         inkscape:connector-curvature="0" />
      <path
         id="path3454"
         d="m 530.57945,21.871552 c 0,0 -290.16712,747.688468 -290.16712,747.688468 0,0 336.58036,-497.19036 336.58036,-497.19036 0,0 -401.47057,247.00437 -401.47057,247.00437 0,0 398.13897,-5.46064 398.13897,-5.46064 0,0 -402.14006,-236.92704 -402.14006,-236.92704 0,0 339.27363,486.03559 339.27363,486.03559 0,0 -294.4367,-737.721911 -294.4367,-737.721911 0,0 142.19851,856.491351 142.19851,856.491351 0,0 -3.60008,-1026.88481 -3.60008,-1026.88481 0,0 -135.51651,862.23195 -135.51651,862.23195 0,0 290.16712,-747.68847 290.16712,-747.68847 0,0 -336.58035,497.19037 -336.58035,497.19037 0,0 401.47056,-247.00437 401.47056,-247.00437 0,0 -398.13896,5.46067 -398.13896,5.46067 0,0 402.14006,236.92703 402.14006,236.92703 0,0 -339.27365,-486.035569 -339.27365,-486.035569 0,0 294.43672,737.721899 294.43672,737.721899 0,0 -142.19851,-856.49135 -142.19851,-856.49135 0,0 3.60008,1026.88481 3.60008,1026.88481 0,0 135.5165,-862.231988 135.5165,-862.231988"
         style="fill:none;stroke:#000000;stroke-opacity:1"
         inkscape:connector-curvature="0" />
    </g>
  </g>
</svg>
