<?xml version="1.0" encoding="UTF-8" standalone="no"?>
<!-- Created with Inkscape (http://www.inkscape.org/) -->

<svg
   xmlns:dc="http://purl.org/dc/elements/1.1/"
   xmlns:cc="http://creativecommons.org/ns#"
   xmlns:rdf="http://www.w3.org/1999/02/22-rdf-syntax-ns#"
   xmlns:svg="http://www.w3.org/2000/svg"
   xmlns="http://www.w3.org/2000/svg"
   xmlns:sodipodi="http://sodipodi.sourceforge.net/DTD/sodipodi-0.dtd"
   xmlns:inkscape="http://www.inkscape.org/namespaces/inkscape"
   width="744.09448819"
   height="1052.3622047"
   id="svg3783"
   version="1.1"
   inkscape:version="0.48.2 r9819"
   sodipodi:docname="letter sized frame blank.svg">
  <sodipodi:namedview
     id="base"
     pagecolor="#ffffff"
     bordercolor="#666666"
     borderopacity="1.0"
     inkscape:pageopacity="0.0"
     inkscape:pageshadow="2"
     inkscape:zoom="0.49497475"
     inkscape:cx="244.14681"
     inkscape:cy="648.53405"
     inkscape:document-units="px"
     inkscape:current-layer="layer1"
     showgrid="false"
     inkscape:window-width="1084"
     inkscape:window-height="748"
     inkscape:window-x="82"
     inkscape:window-y="-16"
     inkscape:window-maximized="0" />
  <defs
     id="defs3785" />
  <metadata
     id="metadata3788">
    <rdf:RDF>
      <cc:Work
         rdf:about="">
        <dc:format>image/svg+xml</dc:format>
        <dc:type
           rdf:resource="http://purl.org/dc/dcmitype/StillImage" />
        <dc:title></dc:title>
      </cc:Work>
    </rdf:RDF>
  </metadata>
  <g
     inkscape:label="Layer 1"
     inkscape:groupmode="layer"
     id="layer1">
    <rect
       style="fill:none;stroke:#000000;stroke-width:0.91610378;stroke-opacity:1"
       id="rect4319"
       width="516.12524"
       height="779.49591"
       x="7.8454075"
       y="12.284647" />
    <flowRoot
       xml:space="preserve"
       id="flowRoot3475"
       style="fill:black;stroke:none;stroke-opacity:1;stroke-width:1px;stroke-linejoin:miter;stroke-linecap:butt;fill-opacity:1;font-family:Sans;font-style:normal;font-weight:normal;font-size:40px;line-height:125%;letter-spacing:0px;word-spacing:0px"><flowRegion
         id="flowRegion3477"><rect
           id="rect3479"
           width="474.7717"
           height="76.771591"
           x="40.406101"
           y="840.23016" /></flowRegion><flowPara
         id="flowPara3481" /></flowRoot>    <g
       id="g4505"
       transform="translate(18.571429,34.285714)">
      <g
         transform="matrix(0.61128338,0,0,0.61128338,19.33425,149.34703)"
         id="g3831">
        <path
           inkscape:connector-curvature="0"
           id="path3189"
           d="M 304.92676,422.41395 93.023954,657.20794 347.87649,510.12476 38.435067,575.52374 331.06842,606.32951 42.284499,477.35329 260.92268,674.28125 103.1019,400.19437 164.23256,688.02473 197.65709,373.51906 77.930383,642.31041 289.83319,407.51642 34.980662,554.5996 344.42208,489.20062 51.788726,458.39486 340.57265,587.37108 121.93446,390.44312 279.75525,664.53 218.62459,376.69964 185.20006,691.20531 z"
           style="fill:none;stroke:#000000;stroke-opacity:1"
           transform="matrix(2.0380102,-0.23004632,0.23004632,2.0380102,-137.59168,-671.41707)" />
      </g>
      <g
         id="g4211">
        <path
           style="fill:none;stroke:#000000;stroke-opacity:1"
           d="m 367.73499,212.19209 c 0,0 -219.23296,344.78242 -219.23296,344.78242 0,0 276.62963,-233.25807 276.62963,-233.25807 0,0 -347.171166,129.79918 -347.171166,129.79918 0,0 340.976506,-2.87784 340.976506,-2.87784 0,0 -348.5004,-124.65243 -348.5004,-124.65243 0,0 279.52697,228.39909 279.52697,228.39909 0,0 -223.06637,-341.29363 -223.06637,-341.29363 0,0 110.09725,377.58279 110.09725,377.58279 0,0 -2.50418,-431.99183 -2.50418,-431.99183 0,0 -105.08285,379.56522 -105.08285,379.56522 0,0 219.23296,-344.78242 219.23296,-344.78242 0,0 -276.629617,233.25808 -276.629617,233.25808 0,0 347.171167,-129.79919 347.171167,-129.79919 0,0 -340.976506,2.87786 -340.976506,2.87786 0,0 348.500396,124.65243 348.500396,124.65243 0,0 -279.52698,-228.39909 -279.52698,-228.39909 0,0 223.06638,341.29363 223.06638,341.29363 0,0 -110.09725,-377.58279 -110.09725,-377.58279 0,0 2.50418,431.99183 2.50418,431.99183 0,0 105.08284,-379.56524 105.08284,-379.56524"
           id="path4213"
           inkscape:connector-curvature="0" />
      </g>
      <g
         id="g4241">
        <path
           id="path4243"
           d="m 361.18285,201.64802 c 0,0 -207.84412,368.40345 -207.84412,368.40345 0,0 257.73373,-248.19824 257.73373,-248.19824 0,0 -320.137686,134.76002 -320.137686,134.76002 0,0 314.968936,-2.98133 314.968936,-2.98133 0,0 -321.240624,-129.38281 -321.240624,-129.38281 0,0 260.302214,242.94244 260.302214,242.94244 0,0 -211.34131,-364.41775 -211.34131,-364.41775 0,0 103.77039,407.18517 103.77039,407.18517 0,0 -2.42446,-470.63445 -2.42446,-470.63445 0,0 -99.01036,409.46655 -99.01036,409.46655 0,0 207.84413,-368.40346 207.84413,-368.40346 0,0 -257.733726,248.19824 -257.733726,248.19824 0,0 320.137686,-134.76002 320.137686,-134.76002 0,0 -314.968944,2.98135 -314.968944,2.98135 0,0 321.240634,129.38281 321.240634,129.38281 0,0 -260.30222,-242.94244 -260.30222,-242.94244 0,0 211.34132,364.41774 211.34132,364.41774 0,0 -103.7704,-407.18516 -103.7704,-407.18516 0,0 2.42446,470.63444 2.42446,470.63444 0,0 99.01035,-409.46655 99.01035,-409.46655"
           style="fill:none;stroke:#000000;stroke-opacity:1"
           inkscape:connector-curvature="0" />
      </g>
      <g
         id="g4275">
        <path
           style="fill:none;stroke:#000000;stroke-opacity:1"
           d="m 354.85267,190.65476 c 0,0 -196.80807,393.17694 -196.80807,393.17694 0,0 240.04585,-263.90769 240.04585,-263.90769 0,0 -295.07906,139.87703 -295.07906,139.87703 0,0 290.77394,-3.08352 290.77394,-3.08352 0,0 -295.99228,-134.26588 -295.99228,-134.26588 0,0 242.31642,258.22984 242.31642,258.22984 0,0 -199.98515,-388.64353 -199.98515,-388.64353 0,0 97.65606,438.92689 97.65606,438.92689 0,0 -2.34715,-512.71936 -2.34715,-512.71936 0,0 -93.14348,441.53884 -93.14348,441.53884 0,0 196.80807,-393.17694 196.80807,-393.17694 0,0 -240.045847,263.90769 -240.045847,263.90769 0,0 295.079057,-139.87703 295.079057,-139.87703 0,0 -290.77394,3.08354 -290.77394,3.08354 0,0 295.99228,134.26588 295.99228,134.26588 0,0 -242.31643,-258.22983 -242.31643,-258.22983 0,0 199.98516,388.64352 199.98516,388.64352 0,0 -97.65606,-438.9269 -97.65606,-438.9269 0,0 2.34715,512.71937 2.34715,512.71937 0,0 93.14348,-441.53886 93.14348,-441.53886"
           id="path4277"
           inkscape:connector-curvature="0" />
      </g>
      <g
         id="g4313">
        <path
           id="path4315"
           d="m 348.74714,179.21526 c 0,0 -186.12807,419.10712 -186.12807,419.10712 0,0 223.49127,-280.39599 223.49127,-280.39599 0,0 -271.87218,145.15624 -271.87218,145.15624 0,0 268.29267,-3.18438 268.29267,-3.18438 0,0 -272.62667,-139.30747 -272.62667,-139.30747 0,0 225.49239,274.27064 225.49239,274.27064 0,0 -189.00195,-413.97338 -189.00195,-413.97338 0,0 91.75833,472.95549 91.75833,472.95549 0,0 -2.27217,-558.550274 -2.27217,-558.550274 0,0 -87.48548,475.930564 -87.48548,475.930564 0,0 186.12807,-419.10712 186.12807,-419.10712 0,0 -223.49126,280.396 -223.49126,280.396 0,0 271.87217,-145.15624 271.87217,-145.15624 0,0 -268.29267,3.18439 -268.29267,3.18439 0,0 272.62668,139.30747 272.62668,139.30747 0,0 -225.49241,-274.27064 -225.49241,-274.27064 0,0 189.00197,413.97337 189.00197,413.97337 0,0 -91.75833,-472.95548 -91.75833,-472.95548 0,0 2.27216,558.55027 2.27216,558.55027 0,0 87.48548,-475.93058 87.48548,-475.93058"
           style="fill:none;stroke:#000000;stroke-opacity:1"
           inkscape:connector-curvature="0" />
      </g>
      <g
         id="g4355">
        <path
           style="fill:none;stroke:#000000;stroke-opacity:1"
           d="m 342.86866,167.33358 c 0,0 -175.80746,446.19391 -175.80746,446.19391 0,0 207.99962,-297.66963 207.99962,-297.66963 0,0 -250.39811,150.60397 -250.39811,150.60397 0,0 247.42718,-3.28386 247.42718,-3.28386 0,0 -251.02011,-144.51367 -251.02011,-144.51367 0,0 209.75751,291.07143 209.75751,291.07143 0,0 -178.39569,-440.40591 -178.39569,-440.40591 0,0 86.08088,509.43074 86.08088,509.43074 0,0 -2.19944,-608.456992 -2.19944,-608.456992 0,0 -82.03928,512.801932 -82.03928,512.801932 0,0 175.80745,-446.19391 175.80745,-446.19391 0,0 -207.9996,297.66963 -207.9996,297.66963 0,0 250.3981,-150.60397 250.3981,-150.60397 0,0 -247.42718,3.28388 -247.42718,3.28388 0,0 251.02011,144.51366 251.02011,144.51366 0,0 -209.75751,-291.07141 -209.75751,-291.07141 0,0 178.39569,440.4059 178.39569,440.4059 0,0 -86.08088,-509.430744 -86.08088,-509.430744 0,0 2.19944,608.456994 2.19944,608.456994 0,0 82.03928,-512.80195 82.03928,-512.80195"
           id="path4357"
           inkscape:connector-curvature="0" />
      </g>
      <g
         id="g4401">
        <path
           id="path4403"
           d="m 337.21921,155.01461 c 0,0 -165.84942,474.4332 -165.84942,474.4332 0,0 193.50482,-315.73195 193.50482,-315.73195 0,0 -230.5426,156.22678 -230.5426,156.22678 0,0 228.08124,-3.38196 228.08124,-3.38196 0,0 -231.05424,-149.89079 -231.05424,-149.89079 0,0 195.04365,308.63601 195.04365,308.63601 0,0 -168.17,-467.93625 -168.17,-467.93625 0,0 80.62683,548.52617 80.62683,548.52617 0,0 -2.12889,-662.797668 -2.12889,-662.797668 0,0 -76.8074,552.326318 -76.8074,552.326318 0,0 165.84943,-474.43321 165.84943,-474.43321 0,0 -193.50481,315.73196 -193.50481,315.73196 0,0 230.54259,-156.22678 230.54259,-156.22678 0,0 -228.08124,3.38198 -228.08124,3.38198 0,0 231.05424,149.89079 231.05424,149.89079 0,0 -195.04365,-308.636 -195.04365,-308.636 0,0 168.17,467.93623 168.17,467.93623 0,0 -80.62683,-548.526165 -80.62683,-548.526165 0,0 2.12889,662.797665 2.12889,662.797665 0,0 76.80739,-552.32633 76.80739,-552.32633"
           style="fill:none;stroke:#000000;stroke-opacity:1"
           inkscape:connector-curvature="0" />
      </g>
      <g
         id="g4451">
        <path
           style="fill:none;stroke:#000000;stroke-opacity:1"
           d="m 331.80024,142.26379 c 0,0 -156.25683,503.81725 -156.25683,503.81725 0,0 179.94502,-334.58332 179.94502,-334.58332 0,0 -212.19642,162.03152 -212.19642,162.03152 0,0 210.16103,-3.47867 210.16103,-3.47867 0,0 -212.6163,-155.44543 -212.6163,-155.44543 0,0 181.28706,326.96555 181.28706,326.96555 0,0 -158.32802,-496.55644 -158.32802,-496.55644 0,0 75.3986,590.43045 75.3986,590.43045 0,0 -2.06044,-721.961006 -2.06044,-721.961006 0,0 -71.79176,594.691586 -71.79176,594.691586 0,0 156.25683,-503.81724 156.25683,-503.81724 0,0 -179.94502,334.58332 -179.94502,334.58332 0,0 212.19642,-162.03152 212.19642,-162.03152 0,0 -210.16103,3.47869 -210.16103,3.47869 0,0 212.61631,155.44543 212.61631,155.44543 0,0 -181.28707,-326.96554 -181.28707,-326.96554 0,0 158.32802,496.55643 158.32802,496.55643 0,0 -75.3986,-590.430457 -75.3986,-590.430457 0,0 2.06045,721.961007 2.06045,721.961007 0,0 71.79175,-594.69161 71.79175,-594.69161"
           id="path4453"
           inkscape:connector-curvature="0" />
      </g>
    </g>
  </g>
</svg>
