<?xml version="1.0" encoding="UTF-8" standalone="no"?>
<!-- Created with Inkscape (http://www.inkscape.org/) -->

<svg
   xmlns:dc="http://purl.org/dc/elements/1.1/"
   xmlns:cc="http://creativecommons.org/ns#"
   xmlns:rdf="http://www.w3.org/1999/02/22-rdf-syntax-ns#"
   xmlns:svg="http://www.w3.org/2000/svg"
   xmlns="http://www.w3.org/2000/svg"
   xmlns:sodipodi="http://sodipodi.sourceforge.net/DTD/sodipodi-0.dtd"
   xmlns:inkscape="http://www.inkscape.org/namespaces/inkscape"
   sodipodi:docname="letter sized frame blank.svg"
   inkscape:version="0.48.2 r9819"
   version="1.1"
   id="svg3783"
   height="1052.3622047"
   width="744.09448819">
  <sodipodi:namedview
     id="base"
     pagecolor="#ffffff"
     bordercolor="#666666"
     borderopacity="1.0"
     inkscape:pageopacity="0.0"
     inkscape:pageshadow="2"
     inkscape:zoom="0.35"
     inkscape:cx="188.10087"
     inkscape:cy="572.57912"
     inkscape:document-units="px"
     inkscape:current-layer="layer1"
     showgrid="false"
     inkscape:window-width="1024"
     inkscape:window-height="748"
     inkscape:window-x="10"
     inkscape:window-y="-16"
     inkscape:window-maximized="0" />
  <defs
     id="defs3785">
    <inkscape:perspective
       sodipodi:type="inkscape:persp3d"
       inkscape:vp_x="-314.90439 : 155.3937 : 0"
       inkscape:vp_y="0 : 1000 : 0"
       inkscape:vp_z="372.04724 : 175.3937 : 0"
       inkscape:persp3d-origin="334.90438 : 296.50168 : 1"
       id="perspective3823" />
  </defs>
  <metadata
     id="metadata3788">
    <rdf:RDF>
      <cc:Work
         rdf:about="">
        <dc:format>image/svg+xml</dc:format>
        <dc:type
           rdf:resource="http://purl.org/dc/dcmitype/StillImage" />
        <dc:title></dc:title>
      </cc:Work>
    </rdf:RDF>
  </metadata>
  <g
     inkscape:label="Layer 1"
     inkscape:groupmode="layer"
     id="layer1">
    <rect
       style="fill:none;stroke:#000000;stroke-width:0.91610378;stroke-opacity:1"
       id="rect4319"
       width="516.12524"
       height="779.49591"
       x="7.8454075"
       y="12.284647" />
    <flowRoot
       xml:space="preserve"
       id="flowRoot3475"
       style="fill:black;stroke:none;stroke-opacity:1;stroke-width:1px;stroke-linejoin:miter;stroke-linecap:butt;fill-opacity:1;font-family:Sans;font-style:normal;font-weight:normal;font-size:40px;line-height:125%;letter-spacing:0px;word-spacing:0px"><flowRegion
         id="flowRegion3477"><rect
           id="rect3479"
           width="474.7717"
           height="76.771591"
           x="40.406101"
           y="840.23016" /></flowRegion><flowPara
         id="flowPara3481" /></flowRoot>    <path
       sodipodi:type="star"
       style="fill:none;stroke:#ff0000;stroke-width:1;stroke-miterlimit:4;stroke-opacity:1;stroke-dasharray:none"
       id="path3010"
       sodipodi:sides="13"
       sodipodi:cx="100"
       sodipodi:cy="198.07648"
       sodipodi:r1="387.53397"
       sodipodi:r2="375.38623"
       sodipodi:arg1="0.52708666"
       sodipodi:arg2="2.8236233"
       inkscape:flatsided="false"
       inkscape:rounded="-1.6896207e-015"
       inkscape:randomized="0"
       d="M 434.93638,393.01286 -256.56896,315.43661 305.97998,526.33677 -270.2661,136.28786 129.83605,584.4602 -199.13975,-28.705868 -53.14296,554.06778 -59.484083,-141.74649 -201.03877,442.12204 116.70746,-176.93777 -279.97022,274.2684 289.07153,-126.2178 -271.85507,88.960111 418.12159,-1.2059201 -178.55241,-71.350935 474.29383,169.45915 -21.436748,-169.93941 444.71986,346.68011 163.49861,-184.21988 336.17472,489.85777 333.8872,-110.92086 173.52481,566.19185 450.69505,33.165727 -5.968759,558.19513 487.16289,215.03138 -161.18616,467.69957 z"
       transform="matrix(0.60157846,0.07073779,-0.07073779,0.60157846,221.14536,166.38475)" />
    <path
       sodipodi:type="star"
       style="fill:none;stroke:#ff0000;stroke-width:1;stroke-miterlimit:4;stroke-opacity:1;stroke-dasharray:none"
       id="path3012"
       sodipodi:sides="13"
       sodipodi:cx="274.28571"
       sodipodi:cy="300.93362"
       sodipodi:r1="141.14725"
       sodipodi:r2="126.07685"
       sodipodi:arg1="1.909943"
       sodipodi:arg2="0.096195643"
       inkscape:flatsided="false"
       inkscape:rounded="-1.6896207e-015"
       inkscape:randomized="0"
       d="M 227.32849,434.04097 399.77967,313.04297 170.84909,396.97222 379.7776,369.97587 138.06577,337.90218 335.60861,411.09203 136.4888,270.36309 277.39127,426.97222 166.47944,209.82735 218.46249,413.97849 221.16719,170.16295 172.32214,375.08754 288.02376,160.45654 149.54041,319.20882 351.7331,182.93174 155.33632,259.14348 397.70018,232.43974 188.3821,208.65175 415.39449,297.63887 241.10737,179.30069 400.76248,363.59279 301.43339,177.81427 357.15616,415.19225 355.5402,204.53301 294.56522,440.61643 391.03259,253.33596 z"
       inkscape:transform-center-x="-3.3556329"
       inkscape:transform-center-y="-0.23160557"
       transform="translate(-7.0710679,-7.0710676)" />
    <path
       transform="matrix(0.60157846,0.07073779,-0.07073779,0.60157846,221.14536,166.38475)"
       d="m 217.76525,502.50785 -103.89491,-73.9032 -51.070701,93.76066 -57.6498426,-113.7204 -88.7936174,59.2872 1.802108,-127.48564 -106.174977,11.23177 60.84121,-112.04545 -99.23293,-39.39674 105.94233,-70.93699 L -190.0239,48.299129 -63.250556,34.721402 -87.198405,-69.325605 31.3637,-22.433575 58.511988,-125.69174 l 83.189722,96.619384 72.02507,-78.814134 28.75957,124.212413 100.4018,-36.314723 -32.25906,123.34986 105.77767,14.50395 -85.88751,94.22935 86.92115,61.99995 -119.84018,43.52203 48.15205,95.29249 -126.33891,-17.15566 z"
       inkscape:randomized="0"
       inkscape:rounded="-1.6896207e-015"
       inkscape:flatsided="false"
       sodipodi:arg2="1.5107011"
       sodipodi:arg1="1.2016888"
       sodipodi:r2="230.94507"
       sodipodi:r1="326.41556"
       sodipodi:cy="198.07648"
       sodipodi:cx="100"
       sodipodi:sides="13"
       id="path3018"
       style="fill:none;stroke:#ff0000;stroke-width:1;stroke-miterlimit:4;stroke-opacity:1;stroke-dasharray:none"
       sodipodi:type="star" />
  </g>
</svg>
