<?xml version="1.0" encoding="UTF-8" standalone="no"?>
<!-- Created with Inkscape (http://www.inkscape.org/) -->

<svg
   xmlns:dc="http://purl.org/dc/elements/1.1/"
   xmlns:cc="http://creativecommons.org/ns#"
   xmlns:rdf="http://www.w3.org/1999/02/22-rdf-syntax-ns#"
   xmlns:svg="http://www.w3.org/2000/svg"
   xmlns="http://www.w3.org/2000/svg"
   xmlns:sodipodi="http://sodipodi.sourceforge.net/DTD/sodipodi-0.dtd"
   xmlns:inkscape="http://www.inkscape.org/namespaces/inkscape"
   sodipodi:docname="stars009.svg"
   inkscape:version="0.48.2 r9819"
   version="1.1"
   id="svg3783"
   height="1052.3622047"
   width="744.09448819">
  <sodipodi:namedview
     id="base"
     pagecolor="#ffffff"
     bordercolor="#666666"
     borderopacity="1.0"
     inkscape:pageopacity="0.0"
     inkscape:pageshadow="2"
     inkscape:zoom="0.7"
     inkscape:cx="179.36052"
     inkscape:cy="784.98621"
     inkscape:document-units="px"
     inkscape:current-layer="layer1"
     showgrid="false"
     inkscape:window-width="1024"
     inkscape:window-height="748"
     inkscape:window-x="10"
     inkscape:window-y="-16"
     inkscape:window-maximized="0" />
  <defs
     id="defs3785">
    <inkscape:perspective
       sodipodi:type="inkscape:persp3d"
       inkscape:vp_x="-314.90439 : 155.3937 : 0"
       inkscape:vp_y="0 : 1000 : 0"
       inkscape:vp_z="372.04724 : 175.3937 : 0"
       inkscape:persp3d-origin="334.90438 : 296.50168 : 1"
       id="perspective3823" />
  </defs>
  <metadata
     id="metadata3788">
    <rdf:RDF>
      <cc:Work
         rdf:about="">
        <dc:format>image/svg+xml</dc:format>
        <dc:type
           rdf:resource="http://purl.org/dc/dcmitype/StillImage" />
        <dc:title></dc:title>
      </cc:Work>
    </rdf:RDF>
  </metadata>
  <g
     inkscape:label="Layer 1"
     inkscape:groupmode="layer"
     id="layer1">
    <rect
       style="fill:none;stroke:#000000;stroke-width:0.91610378;stroke-opacity:1"
       id="rect4319"
       width="516.12524"
       height="779.49591"
       x="7.8454075"
       y="12.284647" />
    <flowRoot
       xml:space="preserve"
       id="flowRoot3475"
       style="fill:black;stroke:none;stroke-opacity:1;stroke-width:1px;stroke-linejoin:miter;stroke-linecap:butt;fill-opacity:1;font-family:Sans;font-style:normal;font-weight:normal;font-size:40px;line-height:125%;letter-spacing:0px;word-spacing:0px"><flowRegion
         id="flowRegion3477"><rect
           id="rect3479"
           width="474.7717"
           height="76.771591"
           x="40.406101"
           y="840.23016" /></flowRegion><flowPara
         id="flowPara3481" /></flowRoot>    <g
       id="g3030"
       transform="translate(5.7142857,-25.714286)">
      <path
         transform="matrix(0.59024043,0,0,0.59024043,170.10507,175.18004)"
         d="M 113.50591,-86.272612 406.66173,408.06572 245.32411,-77.412197 326.98969,491.48274 363.71752,-18.781597 221.46001,538.06086 450.66181,80.69321 106.13862,540.70896 492.9205,205.86809 -1.4178287,499.02391 484.06009,337.6863 -84.834856,419.35187 425.42949,456.07971 -131.41297,313.82219 325.95468,543.02399 -134.06108,198.50081 200.7798,585.28268 -92.376024,90.944354 68.961593,576.42227 -12.703985,7.5273268 -49.431817,517.79167 92.825696,-39.050788 -136.37611,418.31686 208.14708,-41.698894 -178.63479,293.14198 315.70353,-0.01384161 -169.77438,161.32378 399.12056,79.658198 -111.14378,42.930366 445.69868,185.18788 -11.668972,-44.013923 448.34678,300.50926 z"
         inkscape:randomized="0"
         inkscape:rounded="-1.6896207e-015"
         inkscape:flatsided="false"
         sodipodi:arg2="0.56608982"
         sodipodi:arg1="-1.7000299"
         sodipodi:r2="295.63687"
         sodipodi:r1="338.60126"
         sodipodi:cy="249.50504"
         sodipodi:cx="157.14285"
         sodipodi:sides="16"
         id="path3020"
         style="fill:none;stroke:#ff0000;stroke-width:1;stroke-miterlimit:4;stroke-opacity:1;stroke-dasharray:none"
         sodipodi:type="star" />
      <path
         sodipodi:type="star"
         style="fill:none;stroke:#ff0000;stroke-width:1;stroke-miterlimit:4;stroke-opacity:1;stroke-dasharray:none"
         id="path3024"
         sodipodi:sides="16"
         sodipodi:cx="157.14285"
         sodipodi:cy="249.50504"
         sodipodi:r1="409.66495"
         sodipodi:r2="156.33525"
         sodipodi:arg1="-2.0421166"
         sodipodi:arg2="0.82201794"
         inkscape:flatsided="false"
         inkscape:rounded="-1.6896207e-015"
         inkscape:randomized="0"
         d="M -28.870844,-115.49397 263.5672,364.02389 124.96768,-158.89443 211.64166,396.0335 283.70458,-140.11978 151.41917,405.73547 423.1736,-62.028284 92.068059,391.65278 522.14186,63.491339 42.623995,355.92938 565.54232,217.32986 10.614389,304.00384 546.76767,376.06676 0.91241363,243.78135 468.67617,515.53579 14.995106,184.43024 343.15655,614.50404 50.718505,134.98618 189.31803,657.90451 102.64405,102.97657 30.581127,639.12985 162.86654,93.274596 -108.8879,561.03835 222.21765,107.35729 -207.85615,435.51873 271.66171,143.08069 -251.25662,281.68021 303.67132,195.00623 -232.48197,122.94331 313.37329,255.22872 -154.39047,-16.525715 299.2906,314.57983 z"
         transform="matrix(0.59024043,0,0,0.59024043,170.10507,175.18004)" />
    </g>
  </g>
</svg>
