<?xml version="1.0" encoding="UTF-8" standalone="no"?>
<!-- Created with Inkscape (http://www.inkscape.org/) -->

<svg
   xmlns:dc="http://purl.org/dc/elements/1.1/"
   xmlns:cc="http://creativecommons.org/ns#"
   xmlns:rdf="http://www.w3.org/1999/02/22-rdf-syntax-ns#"
   xmlns:svg="http://www.w3.org/2000/svg"
   xmlns="http://www.w3.org/2000/svg"
   xmlns:sodipodi="http://sodipodi.sourceforge.net/DTD/sodipodi-0.dtd"
   xmlns:inkscape="http://www.inkscape.org/namespaces/inkscape"
   width="744.09448819"
   height="1052.3622047"
   id="svg3783"
   version="1.1"
   inkscape:version="0.48.2 r9819"
   sodipodi:docname="letter sized frame blank.svg">
  <defs
     id="defs3785" />
  <sodipodi:namedview
     id="base"
     pagecolor="#ffffff"
     bordercolor="#666666"
     borderopacity="1.0"
     inkscape:pageopacity="0.0"
     inkscape:pageshadow="2"
     inkscape:zoom="1.4"
     inkscape:cx="219.62567"
     inkscape:cy="757.63571"
     inkscape:document-units="px"
     inkscape:current-layer="layer1"
     showgrid="false"
     inkscape:window-width="983"
     inkscape:window-height="753"
     inkscape:window-x="133"
     inkscape:window-y="21"
     inkscape:window-maximized="0" />
  <metadata
     id="metadata3788">
    <rdf:RDF>
      <cc:Work
         rdf:about="">
        <dc:format>image/svg+xml</dc:format>
        <dc:type
           rdf:resource="http://purl.org/dc/dcmitype/StillImage" />
        <dc:title></dc:title>
      </cc:Work>
    </rdf:RDF>
  </metadata>
  <g
     inkscape:label="Layer 1"
     inkscape:groupmode="layer"
     id="layer1">
    <rect
       style="fill:none;stroke:#000000;stroke-width:0.91452992;stroke-opacity:1"
       id="rect4319"
       width="516.12524"
       height="776.81982"
       x="7.8454075"
       y="12.284647" />
    <flowRoot
       xml:space="preserve"
       id="flowRoot3475"
       style="fill:black;stroke:none;stroke-opacity:1;stroke-width:1px;stroke-linejoin:miter;stroke-linecap:butt;fill-opacity:1;font-family:Sans;font-style:normal;font-weight:normal;font-size:40px;line-height:125%;letter-spacing:0px;word-spacing:0px"><flowRegion
         id="flowRegion3477"><rect
           id="rect3479"
           width="474.7717"
           height="76.771591"
           x="40.406101"
           y="840.23016" /></flowRegion><flowPara
         id="flowPara3481" /></flowRoot>    <path
       sodipodi:type="star"
       style="fill:none;stroke:#000000;stroke-opacity:1"
       id="path6247"
       sodipodi:sides="10"
       sodipodi:cx="147.14285"
       sodipodi:cy="212.36218"
       sodipodi:r1="97.917084"
       sodipodi:r2="97.783518"
       sodipodi:arg1="-0.40489179"
       sodipodi:arg2="2.1099617"
       inkscape:flatsided="false"
       inkscape:rounded="0"
       inkscape:randomized="0"
       d="M 237.14285,173.79075 96.938845,296.27388 242.6261,234.05791 57.204897,250.739 211.63799,286.03804 51.824191,190.54548 156.01493,309.8765 82.851974,138.68519 97.00304,296.4678 138.43669,114.96702 57.142852,250.93361 197.34686,128.45048 51.659605,190.66645 237.08081,173.98537 82.647714,138.68632 242.46151,234.17889 138.27077,114.84787 l 73.16296,171.1913 -14.15106,-157.7826 -41.43365,181.50078 z"
       inkscape:transform-center-x="2.7416232"
       inkscape:transform-center-y="-6.7043497"
       transform="translate(78.571429,67.142857)" />
    <path
       style="fill:none;stroke:#000000;stroke-opacity:1"
       d="m 214.85268,181.83036 c -6,10.04167 -12,20.08333 -18,30.125 -14.05078,-2.67631 -27.77268,-7.52155 -42.03125,-8.65625 7.60596,3.55258 4.49887,12.87076 6.10353,19.65316 0.56966,6.27186 1.13931,12.54373 1.70897,18.81559 -11.77247,5.58931 -24.54441,9.43158 -35.75266,15.99518 -5.25719,2.41572 8.17763,2.50521 8.60414,8.78898 5.67451,6.50945 11.34901,13.01889 17.02352,19.52834 -6.7881,12.58078 -15.85942,24.04347 -21,37.3125 5.31186,-6.13056 12.8636,-0.58985 19.46571,0.003 6.45934,1.47828 12.91869,2.95657 19.37804,4.43486 1.88509,14.06083 1.20082,28.57497 4.90625,42.3125 0.88422,-7.89458 10.18302,-7.75926 15.76355,-11.17222 6.11007,-2.60926 12.22013,-5.21852 18.3302,-7.82778 9.55769,9.98494 17.41609,21.94624 28.0625,30.625 -2.46741,-7.31438 5.36306,-12.77114 7.87595,-19.18713 3.09343,-5.17721 6.18687,-10.35441 9.2803,-15.53162 14.05078,2.67631 27.77268,7.52155 42.03125,8.65625 -7.60596,-3.55258 -4.49888,-12.87076 -6.10353,-19.65316 -0.56966,-6.27186 -1.13931,-12.54373 -1.70897,-18.81559 11.77247,-5.58931 24.54441,-9.43158 35.75266,-15.99518 5.258,-2.41642 -8.17838,-2.50455 -8.60813,-8.7855 -5.67318,-6.50019 -11.34635,-13.00038 -17.01953,-19.50057 6.65866,-12.37318 15.67932,-23.62754 20.71875,-36.75 -5.75506,5.54741 -13.39541,-0.37895 -20.12872,-0.78511 -6.14459,-1.40497 -12.28919,-2.80993 -18.43378,-4.21489 -1.88477,-14.07131 -1.20058,-28.59576 -4.90625,-42.34375 -0.88422,7.89458 -10.18302,7.75926 -15.76355,11.17222 -6.11007,2.60926 -12.22013,5.21852 -18.3302,7.82778 -9.55769,-9.98494 -17.41609,-21.94624 -28.0625,-30.625 0.28125,1.53125 0.5625,3.0625 0.84375,4.59375 z m 13.40625,31.90625 c -4.81619,3.23735 -13.19967,4.58854 -16.55874,0.55632 1.94667,-8.52919 3.89333,-17.05838 5.83999,-25.58757 3.57292,8.34375 7.14583,16.6875 10.71875,25.03125 z m 38.15625,14.125 c -5.83861,-0.18446 -13.31643,-4.14091 -13.71568,-9.34544 6.59273,-5.75985 13.18545,-11.51971 19.77818,-17.27956 -2.02083,8.875 -4.04167,17.75 -6.0625,26.625 z m -77.28125,-3.03125 c -1.95368,5.49392 -8.01669,11.38227 -13.08114,10.14324 -3.44171,-8.03733 -6.88341,-16.07466 -10.32511,-24.11199 7.80208,4.65625 15.60417,9.3125 23.40625,13.96875 z m 99.875,36.78125 c -4.5822,-3.56415 -8.37272,-11.13616 -5.59767,-15.55721 8.69922,-0.7726 17.39845,-1.54519 26.09767,-2.31779 -6.83333,5.95833 -13.66667,11.91667 -20.5,17.875 z m -62.5625,-14.46875 c -10.86632,3.74635 -6.02639,-5.21847 0,0 z m 18.90625,6.625 c -10.97618,-3.30365 -1.82797,-7.7479 0,0 z m -43.5625,3.9375 c 0.21978,-7.85885 10.31864,-5.40803 0,0 z m -37.03125,7.90625 c -2.46871,8.38856 -7.26656,7.49588 -13.11226,2.42768 -3.85162,-2.80513 -13.0529,-6.83652 -13.76666,-8.92239 8.69922,-0.7726 17.39844,-1.54519 26.09767,-2.31779 0.26042,2.9375 0.52083,5.875 0.78125,8.8125 z m 93,0.21875 c 4.11812,14.98465 -9.95765,-10.08788 0,0 z m -64.1875,10.09375 c -4.4939,-6.51736 5.17963,-10.47297 0,0 z m 66.09375,11.34375 c -5.50763,13.95341 -2.0727,-13.76312 0,0 z m 54.875,12.53125 c -9.03125,0.80208 -18.0625,1.60417 -27.09375,2.40625 -1.60396,-5.56644 -0.21738,-13.91663 4.6081,-15.86152 7.49522,4.48509 14.99043,8.97018 22.48565,13.45527 z m -116.96875,-4.3125 c -7.44263,-2.61322 -1.9418,-11.49513 0,0 z m -29.34375,8.5625 c 2.90536,8.23516 -1.42031,10.42245 -9.17862,9.73876 -4.77997,-3.1e-4 -14.59029,2.14902 -16.41206,0.88455 6.59273,-5.75985 13.18545,-11.51971 19.77818,-17.27956 1.9375,2.21875 3.875,4.4375 5.8125,6.65625 z m 80.40625,1.65625 c -12.35497,7.61126 6.36312,-12.10686 0,0 z m -36.28125,3.28125 c -7.54621,2.20702 -8.33553,-8.14589 0,0 z m 16.5,5.1875 c -14.52713,-1.10416 12.34516,-6.02877 0,0 z m 56.84375,33.96875 c -7.80208,-4.65625 -15.60417,-9.3125 -23.40625,-13.96875 1.98033,-5.46239 8.02371,-11.38681 13.08114,-10.14324 3.4417,8.03733 6.88341,16.07466 10.32511,24.11199 z m -92.09375,-15 c 7.21087,4.93502 5.04732,9.25086 -1.65574,13.26686 -3.87682,2.82051 -10.55008,10.32284 -12.77825,10.38315 1.94675,-8.53958 3.89349,-17.07917 5.84024,-25.61876 2.86458,0.65625 5.72917,1.3125 8.59375,1.96875 z m 46.34375,10.59375 c -2.02083,8.85417 -4.04167,17.70833 -6.0625,26.5625 -3.57292,-8.34375 -7.14583,-16.6875 -10.71875,-25.03125 5.7408,-3.40785 10.50067,-3.90834 16.78125,-1.53125 z"
       id="path6249"
       inkscape:connector-curvature="0" />
    <path
       style="fill:none;stroke:#000000;stroke-opacity:1"
       d="m 212.03125,177.625 c 1.85212,6.95363 -5.5934,12.24214 -8.01106,18.43109 -3.71094,3.82757 -4.95667,13.26523 -10.37437,13.20966 -14.98487,-2.92279 -29.71601,-8.90581 -45.20832,-7.70325 4.59816,2.55342 10.55495,5.5466 9.78125,11.8125 0.1711,9.10459 1.72371,18.089 2.28125,27.1875 -12.00315,5.80928 -25.50923,9.20814 -36.4375,16.875 -1.72685,5.27364 6.5115,4.56723 8.84375,7.84375 4.10628,7.81318 11.7107,13.9039 17.1875,21.0625 -7.4002,14.03473 -18.68599,26.39864 -21.8125,42.28125 3.64379,-3.28071 7.82539,-7.9741 13.25,-5.53125 8.85873,2.68586 18.0499,4.06041 27.03125,6.375 1.90063,15.78948 0.84782,32.32138 6.90625,47.375 1.1918,-4.96969 1.83635,-11.37469 7.875,-12.625 8.72987,-2.99514 16.93508,-7.28793 25.53125,-10.6875 10.40736,11.66852 19.67852,24.4503 32.1875,34.09375 -2.20062,-5.17584 -3.29372,-11.43053 0.875,-15.84375 5.13384,-7.1262 8.80241,-15.13329 13.625,-22.5 15.7788,3.03401 31.21392,9.09375 47.46875,8.40625 -4.59531,-2.72671 -10.59887,-5.91916 -9.84375,-12.15625 -0.13529,-9.06728 -1.73419,-18.00432 -2.28125,-27.0625 11.97468,-5.91236 25.72414,-9.19116 36.5,-17 1.76172,-6.05736 -9.46344,-4.04682 -9.5625,-9.84375 -5.49668,-6.30497 -11.00056,-12.60368 -16.5,-18.90625 7.9243,-14.04515 18.10924,-27.05006 22.65625,-42.75 -3.94101,3.94599 -8.94415,8.65606 -14.875,5.78125 -8.45543,-2.72917 -17.52045,-3.85266 -26.21875,-6.15625 -2.15056,-15.79618 -0.57722,-32.45008 -7.1875,-47.3125 -0.84671,5.02278 -1.70329,11.31824 -7.65625,12.5 -8.70526,3.02637 -16.92097,7.27778 -25.5,10.6875 -10.28898,-11.24162 -19.01016,-24.10696 -31.5,-33.1875 0.32292,1.78125 0.64583,3.5625 0.96875,5.34375 z m 13.6875,35.28125 c -3.55426,1.67276 -8.2981,2.96072 -11.84375,0.6875 1.40625,-6.15625 2.8125,-12.3125 4.21875,-18.46875 2.54167,5.92708 5.08333,11.85417 7.625,17.78125 z m 39.15625,12.8125 c -3.85976,-0.74745 -8.3837,-2.53428 -10,-6.46875 4.77083,-4.15625 9.54167,-8.3125 14.3125,-12.46875 -1.4375,6.3125 -2.875,12.625 -4.3125,18.9375 z m -78.28125,-0.0625 c -1.8624,3.46511 -5.0221,7.18666 -9.15625,7.46875 -2.47917,-5.79167 -4.95833,-11.58333 -7.4375,-17.375 5.53125,3.30208 11.0625,6.60417 16.59375,9.90625 z m 102.4375,33.3125 c -2.74373,-2.94166 -5.26031,-6.89511 -4.3125,-11 6.28125,-0.5625 12.5625,-1.125 18.84375,-1.6875 -4.84375,4.22917 -9.6875,8.45833 -14.53125,12.6875 z m -126.3125,6.5 c -0.35747,3.47489 -3.95542,5.99517 -6.84375,3.25 -3.97041,-3.18153 -8.37583,-5.59638 -12.84375,-8.03125 6.375,-0.5625 12.75,-1.125 19.125,-1.6875 0.1875,2.15625 0.375,4.3125 0.5625,6.46875 z M 292,288.65625 c 5.40625,3.22917 10.8125,6.45833 16.21875,9.6875 -6.27845,0.26293 -13.56428,1.79777 -19.25,1.3125 -0.3571,-3.7761 -0.0646,-8.41736 3.03125,-11 z M 166.4375,305.0625 c 2.14248,3.39481 -0.0856,7.51346 -4.125,6.8125 -4.93775,-0.36157 -9.7634,0.52313 -14.625,1.03125 4.84375,-4.22917 9.6875,-8.45833 14.53125,-12.6875 1.40625,1.61458 2.8125,3.22917 4.21875,4.84375 z m 107.5,20.8125 c 2.57547,5.68777 4.98767,11.62285 7.5,17.40625 -5.2875,-3.454 -11.99493,-6.554 -16.4375,-10.21875 1.88587,-3.27289 4.8955,-6.89916 8.9375,-7.1875 z M 192.75,335 c 3.67342,1.50362 4.38975,6.09487 0.75,7.9375 -4.19675,2.60623 -7.63881,6.16616 -11.3125,9.4375 1.4375,-6.27083 2.875,-12.54167 4.3125,-18.8125 2.08333,0.47917 4.16667,0.95833 6.25,1.4375 z m 39.625,9.28125 c 3.26761,-0.2165 6.94784,0.54636 4.33255,4.65059 -1.61876,3.03817 -2.1252,18.30044 -4.57681,12.18572 -1.70114,-4.97124 -5.39265,-10.64679 -5.94324,-15.21131 1.91892,-0.96117 4.04098,-1.56598 6.1875,-1.625 z"
       id="path6253"
       inkscape:connector-curvature="0" />
    <path
       style="fill:none;stroke:#000000;stroke-opacity:1"
       d="m 209.09375,172.625 c 1.97447,5.38226 1.52908,11.31843 -2.625,15.5625 -4.29343,5.66337 -7.00196,12.24535 -10.84375,18.15625 -3.58404,2.40693 -8.64084,-1.47386 -12.6875,-1.625 -13.50778,-3.78696 -27.45308,-6.69954 -41.53125,-4.6875 5.31091,3.63163 16.12839,5.93151 14.84884,14.40559 0.20007,8.34087 1.57856,16.59232 2.15116,24.90691 -12.05062,5.63596 -25.28018,9.05586 -36.09375,16.875 -2.54712,5.63798 4.1893,8.204 8.25,9.59375 4.63135,7.67498 11.67283,13.95992 17.0625,20.875 -8.86081,15.27235 -20.48572,29.45164 -22.59375,47.59375 5.03994,-3.73365 10.32924,-12.86218 17.65625,-8.75 7.89394,2.24912 16.28152,3.54774 24.03125,5.625 1.66528,17.70157 1.20992,36.04798 9.28125,52.375 2.25299,-5.83676 0.89735,-16.38385 8.94499,-17.76461 8.01626,-2.85286 15.55965,-6.62922 23.36751,-9.86039 11.52256,13.54658 22.77414,27.72515 37.5625,38.03125 -2.77972,-6.47994 -8.01363,-15.67781 -1.74032,-21.82013 4.69164,-6.53276 8.10044,-14.18694 12.52157,-20.58612 17.51233,3.96439 35.1164,9.88887 53.40625,8 -4.81326,-3.98585 -14.38673,-5.7284 -14.9375,-13.21875 0.13838,-8.91521 -1.53338,-17.74494 -2.125,-26.625 12.06022,-5.73423 25.38086,-8.98201 36.1875,-17.03125 2.1608,-4.96597 -3.38525,-7.99882 -7.4375,-9 -2.98319,-1.40513 -2.53387,-5.33197 -5.69597,-7.10909 -4.09092,-4.68239 -8.18185,-9.36477 -12.27278,-14.04716 9.37978,-15.71327 20.38567,-30.95604 24.21875,-49.25 -5.2156,3.93328 -9.91543,13.18871 -17.65625,10.875 -8.23084,-3.05455 -17.47371,-3.83803 -25.625,-6.25 -1.69715,-17.83572 -1.08643,-36.58127 -9.875,-52.78125 -1.80043,5.60179 -0.0533,15.11453 -6.8125,17.65625 -8.58276,2.7622 -16.57213,6.94657 -24.90625,10.34375 -10.91989,-12.44772 -20.91203,-26.15345 -34.9375,-35.5 0.30208,1.67708 0.60417,3.35417 0.90625,5.03125 z m 14,39.21875 c -2.29749,0.88699 -9.14242,2.62161 -6.26903,-2.29958 0.93457,-10.51785 3.19807,-6.44366 5.78416,1.17276 l 0.39526,0.91857 0.0896,0.20825 z M 263.375,223.3125 c -2.42788,-0.63821 -8.76657,-3.35592 -3.7069,-5.5958 6.94547,-7.92861 6.44032,-3.4222 4.00166,4.31125 l -0.22365,0.97467 -0.0711,0.30988 z m -79.53125,3.03125 c -1.38438,2.18099 -5.79661,7.22755 -6.36824,1.74213 -5.46655,-9.08724 -1.08273,-6.90192 5.38808,-2.3283 l 0.85824,0.51326 0.12192,0.0729 z M 289.25,256.15625 c -1.61471,-1.98416 -5.18443,-7.77361 0.26988,-6.60473 10.32708,-2.35827 6.9425,1.1201 0.57239,5.86931 l -0.75327,0.65771 -0.089,0.0777 z m -128.5625,9.3125 c -0.11123,2.40916 -3.09151,3.24051 -4.375,1.0625 -3.20522,-2.63255 -10.1133,-5.36569 -1.67538,-4.84317 4.13423,-0.264 6.73571,-1.93068 6.05038,3.78067 z M 301.84375,296.875 c -3.45102,0.0661 -8.12753,1.51303 -11,0.5 -0.0338,-2.39168 0.57698,-8.70273 4.0777,-4.6215 2.30743,1.37383 4.61487,2.74767 6.9223,4.1215 z m -137.125,9.21875 c 1.71293,2.15944 -0.67688,4.94816 -3.28125,3.71875 -2.05284,-0.64356 -9.40533,1.53284 -6.05627,-0.97203 3.54411,-1.91224 6.25446,-9.07575 9.33752,-2.74672 z m 108.375,22.75 c 1.14972,3.67459 7.26826,12.99464 -0.0494,7.18048 -1.57056,-1.49812 -7.51415,-2.74579 -3.95057,-5.24298 0.86376,-0.80983 3.25242,-3.62228 4,-1.9375 z m -80.96875,8.0625 c 2.58232,0.87429 2.03993,4.38053 -0.5625,4.90625 -2.2804,0.81016 -7.63727,7.88957 -5.35605,1.88947 1.46687,-3.71219 0.0368,-10.07415 5.91855,-6.79572 z m 40.96875,9.34375 c 3.42354,-0.70544 2.11386,1.52879 1.25,3.34375 -0.70364,2.51621 -0.95707,5.56699 -1.53125,7.84375 -1.01979,-3.36132 -4.57827,-7.6174 -3.75,-10.53125 1.30442,-0.53703 2.64087,-0.55839 4.03125,-0.65625 z"
       id="path6257"
       inkscape:connector-curvature="0" />
    <path
       style="fill:none;stroke:#000000;stroke-opacity:1"
       d="m 206.21875,167.9375 c 1.23824,6.15413 4.2094,14.04533 -1.375,19.0625 -4.56022,5.45605 -6.68708,13.07106 -11.28125,18.0625 -14.10297,-2.91195 -28.26353,-8.0005 -43,-7.6875 -4.88139,-0.0325 -9.6921,0.663 -14.5,1.40625 5.23893,5.30265 15.02203,5.88361 18.125,12.96875 0.0954,8.78796 1.3219,17.59714 2.09375,26.375 -11.83778,5.57095 -25.7129,8.7685 -35.8125,17.34375 -3.03864,6.08657 3.856,10.78604 8.84375,12.15625 4.31186,7.13284 11.33055,12.97513 15.75,19.5 -9.92296,15.98052 -21.72272,32.27611 -22.65625,51.8125 6.20902,-3.24134 9.56334,-11.4222 16.8125,-12.4375 8.18984,2.63831 17.15149,4.18316 25.625,6.25 1.39692,19.07258 1.85406,39.09479 11.46875,56.15625 3.51067,-6.27431 1.78872,-14.54251 6.40625,-20.09375 8.35625,-3.24739 16.78627,-6.76258 25.03125,-10.46875 12.74785,15.30533 25.74002,30.55616 42.71875,41.28125 -2.20834,-7.90124 -10.0555,-16.33051 -6.0625,-24.71875 5.3257,-6.40494 8.52569,-14.21022 13.15625,-21.125 18.83992,4.60162 38.00271,10.31939 57.625,7.28125 -4.90213,-5.8686 -14.28249,-6.52903 -17.8125,-13.46875 -0.38343,-8.8889 -1.32474,-17.81304 -2.28125,-26.6875 11.96965,-5.66953 25.97339,-8.78433 35.9375,-17.5 2.904,-6.27889 -4.22899,-10.68766 -9.15625,-12.09375 -3.62864,-7.43626 -10.77012,-12.33273 -15.625,-19.03125 10.45543,-16.95583 21.73825,-33.7602 24.84375,-53.84375 -6.90428,3.36129 -10.1113,11.89462 -17.59375,14 -7.38752,-1.0771 -14.5412,-4.11396 -22.09375,-4.96875 -5.6279,0.55455 -5.37146,-4.19726 -5.38856,-8.46394 -0.87009,-16.94948 -2.63639,-34.47609 -11.67394,-49.28606 -3.37546,6.37976 -0.84156,14.68856 -5.53125,20.3125 -8.32979,3.4716 -16.88587,6.87439 -25.125,10.65625 -11.6026,-13.53503 -22.73045,-28.06378 -38.3125,-37.375 0.28125,1.54167 0.5625,3.08333 0.84375,4.625 z m 13.09375,39.65625 c 2.70508,1.87041 -1.3071,5.07209 -0.5,2.125 0.1697,-0.33307 0.0741,-3.55014 0.5,-2.125 z m 43.59375,9.96875 c 0.48516,2.35204 -2.33394,4.03026 -2.34375,1.9375 0.57562,0.0701 2.70345,-3.45649 2.34375,-1.9375 z m -84.46875,7.625 c 2.39464,0.13839 2.71492,3.27126 1,2.65625 0.30253,-0.50786 -2.36959,-3.59382 -1,-2.65625 z M 292,251.375 c -0.96964,3.14564 -4.97198,0.25909 -2,0.125 0.2283,0.0245 3.16395,-0.88267 2,-0.125 z m -133.25,11.90625 c 0.48368,2.13229 -0.43391,3.6597 -1.90625,1.09375 -2.72513,-1.38926 0.81701,-0.74116 1.90625,-1.09375 z m 134.6875,30.8125 c 5.34968,1.51607 -1.93637,2.97556 -0.21875,-0.21875 l 0.21875,0.21875 z M 162.03125,305.5625 c 1.65846,1.32171 1.53109,3.52017 -0.90625,2.15625 -3.04081,0.49906 0.14139,-1.51004 0.90625,-2.15625 z m 109.84375,25.625 c 1.67659,2.51959 0.72548,2.60861 -1.40625,1.03125 0.29366,0.42577 1.18175,-1.87841 1.40625,-1.03125 z m -82.1875,6.84375 c 2.01838,0.082 2.91888,1.97623 0.5,2.21875 -2.25365,2.42629 -1.13064,-1.3603 -0.5,-2.21875 z m 42.875,10.65625 c -0.087,3.19429 -1.73834,1.19159 -1.3125,-0.28125 0.3472,0.0559 2.16765,-0.56901 1.3125,0.28125 z"
       id="path6261"
       inkscape:connector-curvature="0" />
    <path
       style="fill:none;stroke:#000000;stroke-opacity:1"
       d="m 203.40625,163.65625 c 0.55766,7.32118 6.1249,16.63245 -0.5625,22.65625 -4.06209,5.07029 -6.04527,11.46994 -10,16.53125 -18.60337,-4.50567 -37.86796,-10.29465 -57.09375,-6.03125 -6.67799,-0.53348 -1.84463,2.83997 0.75,4.96875 4.80397,4.26521 14.20048,4.61272 15.71875,11.6875 0.18466,7.84518 1.21907,15.63192 1.9375,23.4375 -11.94548,5.49836 -25.78352,8.52316 -35.5,17.75 -3.49059,6.70644 3.43645,13.0236 9.40625,14.75 4.13549,6.50496 10.06746,11.63815 14.59375,17.78125 -10.75202,16.77024 -22.54101,34.65322 -22.5,55.28125 7.85973,-2.52497 11.14239,-11.73863 18.96875,-13.90625 7.75864,2.45468 15.86653,3.88998 23.8125,5.78125 1.27219,20.10702 2.46596,41.24216 13.40625,58.78125 5.23566,-6.61572 3.22086,-15.77269 7.625,-22.65625 7.79621,-3.06974 15.60776,-6.24495 23.21875,-9.6875 13.56371,16.508 28.09288,32.56445 46.71875,43.4375 -1.17627,-9.61839 -9.95122,-17.27944 -8.21875,-27.125 4.58761,-6.74607 8.62718,-13.98541 12.8125,-21.03125 19.71452,5.06106 40.24244,10.44112 60.65625,6.46875 -4.52009,-7.80219 -14.84759,-8.38934 -19.8125,-15.5 -0.33322,-8.32792 -1.22652,-16.62072 -2.09375,-24.90625 11.96969,-5.59859 26.00958,-8.49799 35.625,-17.9375 3.27292,-6.71195 -3.61548,-12.92234 -9.59375,-14.53125 -3.61121,-6.81801 -9.84981,-11.52848 -14.625,-17.46875 11.2409,-17.8128 22.66463,-36.1395 25.09375,-57.5 -8.61307,2.75533 -12.23274,12.03458 -20.15625,15.625 -8.2224,-1.30424 -16.4286,-4.40219 -24.6875,-5.21875 -1.92859,-6.42123 -0.6909,-13.91662 -1.96875,-20.6875 -1.42891,-13.68936 -5.0482,-27.19862 -12.6875,-38.8125 -5.36808,6.64672 -2.33879,15.91109 -6.71875,22.8125 -7.7668,3.25485 -15.66364,6.32161 -23.28125,9.84375 -12.31355,-14.66181 -24.60055,-29.74223 -41.65625,-38.96875 0.27083,1.45833 0.54167,2.91667 0.8125,4.375 z"
       id="path6265"
       inkscape:connector-curvature="0" />
    <path
       style="fill:none;stroke:#000000;stroke-opacity:1"
       d="m 200.625,159.65625 c 0.37884,7.64208 5.05379,15.26017 2.6875,22.84375 -4.8094,5.33979 -7.40782,12.09446 -11.28125,18.09375 -18.63768,-4.81257 -38.19534,-9.72905 -57.40625,-5.84375 -3.65221,-0.85995 -5.76622,3.8005 -2.625,5.84375 4.61389,5.92321 13.09808,5.95584 17.625,11.625 1.55357,7.52575 1.13708,15.7426 2.40625,23.46875 -12.06201,5.51563 -26.63583,8.36124 -35.53125,18.8125 -3.08163,7.31808 3.60201,14.49774 10.25,16.59375 3.86714,5.8655 9.14227,10.61325 13.4375,16.1875 -11.2533,17.3989 -23.0497,36.47983 -22.03125,58 9.18884,-1.44903 12.95867,-11.27206 21,-14.625 7.16632,2.21723 14.59585,3.63172 21.875,5.28125 1.15716,20.89947 3.14841,42.93412 15.125,60.75 6.85015,-6.56255 5.25765,-16.69834 9.15625,-24.59375 7.14925,-2.82664 14.31236,-5.71764 21.3125,-8.875 14.17555,17.41973 29.98089,33.94368 49.84375,44.875 0.3874,-11.06495 -9.71428,-19.39448 -8.875,-30.28125 4.24524,-6.2662 7.99772,-12.89145 11.84375,-19.4375 20.37855,5.33379 41.90672,10.4036 62.9375,5.59375 -3.70464,-9.42431 -14.8798,-10.73628 -21.0625,-17.625 -0.34057,-7.68785 -1.09111,-15.35018 -1.90625,-23 12.03455,-5.68818 27.05382,-8.32332 35.625,-19.125 2.85288,-7.27719 -3.8404,-14.25875 -10.40625,-16.25 -3.40681,-6.14942 -8.99755,-10.63518 -13.5,-15.96875 11.76139,-18.3997 23.28336,-38.06926 25,-60.3125 -10.04043,1.87984 -14.66769,11.7551 -22.875,16.5625 -7.62343,-1.34853 -15.09758,-3.99642 -22.75,-5 -1.28459,-11.40872 -1.08009,-23.37088 -4.25,-34.5625 -2.301,-9.39935 -6.25907,-18.56755 -11.90625,-26.5625 -7.01752,6.55095 -4.5149,16.84365 -8.21875,24.71875 -7.10498,2.97354 -14.35665,5.73596 -21.3125,8.96875 -12.91239,-15.57546 -26.46215,-31.3054 -44.96875,-40.3125 0.26042,1.38542 0.52083,2.77083 0.78125,4.15625 z"
       id="path6269"
       inkscape:connector-curvature="0" />
    <path
       style="fill:none;stroke:#000000;stroke-opacity:1"
       d="m 197.875,155.875 c 0.51824,8.43209 4.7692,16.35755 3.84375,24.84375 -3.89004,5.474 -7.30948,11.58491 -10.59375,17.5625 -19.37472,-5.10396 -40.29614,-9.70159 -60.0625,-4.90625 -4.27906,2.45881 -2.52807,8.11666 1.03125,10.25 4.4489,4.68491 12.69557,4.7348 15.84375,10.40625 1.15001,6.70178 0.91645,13.71241 1.90625,20.4375 -12.19831,5.4992 -27.64917,8.36328 -35.5,20.125 -2.91936,8.35571 4.70589,15.7063 11.53125,18.75 3.50956,5.03297 8.07812,9.35507 11.84375,14.0625 -11.72983,17.93769 -23.25813,38.03706 -21.5,60.28125 10.21357,-0.32998 15.07952,-10.42164 23.09375,-14.90625 6.50456,1.97556 13.23927,3.32912 19.8125,4.75 1.11333,21.53462 3.79118,44.34502 16.71875,62.28125 8.28732,-6.24712 7.55854,-17.31478 10.9375,-26.125 6.45515,-2.5772 12.94147,-5.21505 19.28125,-8.03125 14.69363,18.11867 31.50096,34.9412 52.40625,45.84375 1.77089,-11.39881 -7.08303,-20.19928 -8.84375,-30.8125 0.0185,-5.27902 5.42396,-9.04223 7.21875,-13.9375 1.61379,-7.53568 7.1303,-5.61594 12.72838,-3.7633 18.05002,4.4445 37.27955,7.12551 55.58412,2.41955 -2.81002,-10.70904 -14.51753,-13.34775 -21.875,-19.875 -0.32137,-7.00795 -1.00216,-13.99202 -1.71875,-20.96875 12.32706,-5.68717 27.94928,-8.29693 35.65625,-20.5 2.56154,-8.30296 -4.87152,-15.27239 -11.59375,-18.3125 -3.2096,-5.29611 -8.02006,-9.39987 -12.03125,-13.9375 12.20538,-18.95374 23.66167,-39.6407 24.75,-62.625 -11.17669,0.73859 -17.27422,11.21035 -25.46875,16.9375 -6.91106,-1.24394 -13.58672,-3.5678 -20.53125,-4.625 -1.00985,-20.74317 -3.50776,-42.4951 -15.87903,-59.82404 -1.84487,-5.35296 -5.37783,1.16521 -6.99597,3.63654 -3.20174,6.20791 -2.31396,13.59563 -4.84375,20 -6.42359,2.66716 -12.96605,5.15384 -19.25,8.0625 -13.4663,-16.50924 -28.47299,-32.71264 -48.25,-41.5 0.25,1.33333 0.5,2.66667 0.75,4 z"
       id="path6273"
       inkscape:connector-curvature="0" />
    <path
       style="fill:none;stroke:#000000;stroke-opacity:1"
       d="m 195.15625,152.25 c 0.6987,9.3701 4.93013,18.29224 4.59375,27.75 -3.51046,5.13645 -6.64074,10.4772 -9.625,15.96875 C 170.58596,190.98654 149.30717,186.14699 129.5,192 c -5.32302,3.49343 -2.55563,11.4169 2.15625,13.9375 4.20906,4.16401 12.02455,3.85812 14.5,9.625 0.83039,5.79659 0.7927,11.81446 1.46875,17.6875 -12.45355,5.4334 -28.6518,8.58642 -35.46875,21.65625 -2.54039,9.23415 5.68115,16.65664 12.8125,20.625 3.16643,4.23784 6.84839,7.98283 10.28125,12 -12.08504,18.36028 -23.36669,39.52241 -20.90625,62.28125 10.99697,0.74119 17.28552,-9.31545 25.25,-14.875 5.8053,1.74053 11.71665,2.96016 17.625,4.25 1.12546,22.15036 4.43662,45.37435 18.21875,63.5 9.59916,-5.89381 10.04094,-18.02276 12.9375,-27.5 5.71488,-2.30803 11.49889,-4.59088 17.09375,-7.09375 15.23397,18.69359 32.92791,35.75272 54.65625,46.5625 3.24687,-12.41201 -5.86687,-22.69396 -8.5,-34.09375 0.85643,-5.94853 6.90289,-9.74792 8,-15.6875 3.12069,-4.0845 8.95932,0.90518 12.90625,0.90625 17.97569,4.13309 37.03945,6.15179 55.0625,1.09375 -1.7232,-11.74873 -13.95684,-16.10299 -22.34375,-22.28125 -0.33843,-6.28306 -0.9018,-12.55246 -1.53125,-18.8125 12.60606,-5.51486 29.10569,-8.63155 35.6875,-22.09375 2.17196,-9.05642 -5.82516,-16.14314 -12.75,-20.03125 -2.92042,-4.49997 -6.89967,-8.10022 -10.5625,-12.03125 12.52011,-19.42919 23.84656,-40.95716 24.375,-64.625 -12.08786,-0.36564 -19.68052,10.18979 -28.0625,17 -6.07815,-1.16059 -12.02543,-3.11024 -18.15625,-4.21875 -1.01599,-21.47225 -4.31972,-44.47507 -17.96875,-61.71875 -4.98529,-1.82525 -7.65734,4.91949 -9.5,8.34375 -2.16216,5.5634 -1.85147,11.74382 -3.71875,17.40625 -5.71504,2.34232 -11.4904,4.53109 -17.09375,7.125 -14.09788,-17.36969 -30.38219,-33.94993 -51.53125,-42.5 0.23958,1.27083 0.47917,2.54167 0.71875,3.8125 z"
       id="path6277"
       inkscape:connector-curvature="0" />
    <path
       style="fill:none;stroke:#000000;stroke-opacity:1"
       d="m 192.46875,148.8125 c 1.01386,10.35944 4.97052,20.14887 5.3125,30.53125 -3.12414,4.60061 -6.00153,9.41435 -8.65625,14.3125 -19.78088,-4.84944 -41.67549,-10.02913 -61.40625,-2.84375 -6.22931,5.09756 -2.14777,14.70186 4.0625,17.8125 4.61794,3.40013 14.0246,3.69433 12.875,11.5 -0.34727,3.91153 1.85597,9.44323 -0.1875,12.28125 -12.64718,5.08245 -29.08832,9.12924 -34.5,23.09375 -1.98413,9.87953 6.64011,17.44429 14.03125,22.0625 2.38477,3.69891 6.9841,7.03555 8.4375,10.59375 -12.21262,18.68664 -22.97929,40.53598 -19.9375,63.53125 11.49518,1.91623 19.56109,-8.04404 27.4375,-14.5625 5.07066,1.47712 10.22833,2.5653 15.375,3.71875 1.0921,22.59161 5.24021,46.49039 19.625,64.53125 10.70685,-5.40163 12.49685,-18.26132 15.09375,-28.71875 4.95587,-2.00445 10.00194,-3.94431 14.84375,-6.125 15.65082,19.05304 34.09446,36.33336 56.5625,47.03125 4.98674,-13.11392 -4.5444,-25.20123 -7.75,-37.21875 1.60913,-5.42594 6.56103,-9.4858 8.15625,-14.84375 4.57882,-0.5504 8.93288,2.9652 13.65625,3 17.80903,3.79281 36.72578,5.1973 54.375,-0.1875 -0.83386,-12.69321 -13.30843,-18.72193 -22.6875,-24.8125 -0.27655,-5.50047 -0.80462,-10.98575 -1.3125,-16.46875 12.89618,-5.22311 29.16522,-9.06034 35.46875,-22.90625 2.53553,-9.9097 -6.16782,-17.78181 -13.625,-22.5 -2.64543,-3.69933 -5.87358,-6.95527 -9.09375,-10.21875 12.73184,-19.88088 23.91676,-42.19792 23.90625,-66.40625 -12.92398,-1.47532 -22.09305,9.31091 -30.8125,16.8125 -5.1583,-1.07031 -10.35591,-2.59888 -15.5625,-3.71875 -1.07969,-21.60417 -4.79026,-44.43583 -18.65625,-61.75 -7.30785,-2.87608 -11.59139,6.19433 -13.375,11.6875 -1.2768,4.68101 -1.40704,9.62928 -2.6875,14.3125 -4.95947,2.03835 -10.00265,3.90957 -14.875,6.125 -14.7729,-18.11533 -32.33791,-35.11056 -54.78125,-43.28125 0.22917,1.20833 0.45833,2.41667 0.6875,3.625 z"
       id="path6281"
       inkscape:connector-curvature="0" />
    <path
       style="fill:none;stroke:#000000;stroke-opacity:1"
       d="m 189.8125,145.5625 c 1.32059,11.24299 5.09433,22.00821 5.9375,33.25 -2.7609,4.04184 -5.25463,8.27639 -7.65625,12.53125 -19.92428,-4.82306 -41.95968,-9.84645 -61.71875,-2.03125 -7.53181,6.28434 -2.54375,18.25838 5.34375,21.65625 4.03942,2.50399 12.48166,3.2525 10.90625,9.90625 -0.17875,3.35815 1.27801,6.60996 0.46875,9.90625 -13.13117,5.04345 -29.78458,9.76262 -35.09375,24.375 -2.21273,10.70874 6.9846,19.01174 14.875,24.3125 2.22257,3.08365 5.27454,5.36577 7.25,8.59375 -12.47754,19.0918 -23.04966,41.82598 -19.4375,65.34375 11.99792,2.99841 21.68831,-6.70875 29.71875,-14.0625 4.07688,1.62056 9.93973,1.4858 13.03125,3.75 1.20642,22.82962 6.00863,46.80541 20.9375,64.8125 11.83574,-4.90616 14.94375,-18.52343 17.375,-29.78125 4.16311,-1.72903 8.45503,-3.31663 12.53125,-5.15625 16.05344,19.38063 35.22289,36.81691 58.3125,47.375 5.98284,-12.60661 -1.43212,-25.62894 -5.96875,-37.3125 -2.45729,-5.60995 4.68144,-9.70088 6.3125,-14.75 1.89135,-2.14047 5.96067,1.42547 8.59375,1.59375 19.78935,4.15071 40.9177,6.37267 60.5,-0.125 0.0271,-13.07326 -11.97902,-20.98884 -22.03125,-26.8125 -2.18638,-3.90635 -0.90463,-9.92821 -2,-14.59375 13.20844,-5.0159 29.80365,-9.81858 35.4375,-24.28125 2.32548,-10.62059 -6.73688,-19.0431 -14.625,-24.34375 -2.03473,-3.28986 -6.13511,-6.06572 -7.3125,-9.125 12.79665,-20.17941 23.56028,-42.98067 23.03125,-67.40625 -13.55874,-2.52601 -24.36258,8.00298 -33.34375,16.46875 -4.11789,-1.38406 -9.97427,-1.55349 -13.125,-3.75 -1.22046,-21.51144 -5.4066,-44.10082 -19.34375,-61.25 -7.91936,-3.67318 -14.21409,4.93535 -16.09375,11.65625 -2.18246,4.65601 -0.75879,11.2531 -3.80203,14.93748 -3.95173,1.00204 -8.56332,4.45783 -12.13547,4.25002 -15.35743,-18.76531 -34.08903,-35.6902 -57.53125,-43.4375 0.21875,1.16667 0.4375,2.33333 0.65625,3.5 z"
       id="path6285"
       inkscape:connector-curvature="0" />
    <path
       style="fill:none;stroke:#000000;stroke-opacity:1"
       d="m 187.1875,142.4375 c 1.54312,12.09431 5.25311,23.75714 6.5,35.84375 -2.33066,3.48188 -4.53232,7.12369 -6.59375,10.78125 -20.03313,-4.81762 -42.34219,-9.66508 -62.0625,-1.21875 -8.70449,7.09723 -3.07723,21.93135 6.5625,25.3125 3.47744,1.94394 10.72854,2.70263 9.03125,8.34375 -0.30048,3.43671 2.9224,8.73671 -2.61788,9.05862 -12.82102,4.58406 -28.31508,10.85461 -32.19462,25.34763 -1.58604,11.54054 8.26786,19.74204 16.40625,25.96875 1.59408,2.88103 7.76809,5.35697 3.875,8.78125 -11.89759,18.94175 -21.19237,41.54631 -17.1875,64.40625 12.46864,3.92666 23.65936,-5.35457 31.96875,-13.4375 3.63355,1.92629 11.82409,-0.15271 10.84375,5.90625 1.55287,22.3393 7.19672,45.55847 22.0625,62.8125 12.85608,-4.46554 17.40137,-18.7249 19.6875,-30.78125 3.4218,-1.32886 6.87125,-2.70362 10.25,-4.15625 16.41758,19.67349 36.17917,37.12979 59.84375,47.59375 7.6805,-13.43129 -0.0909,-28.66039 -5.3125,-41.375 -0.48983,-4.85825 4.85529,-7.98829 6.5,-12 12.95986,4.86568 27.19202,5.84197 40.96875,6.21875 9.64955,-0.0455 19.19649,-1.49672 28.3125,-4.625 0.92587,-14.06794 -11.48604,-23.607 -22.53125,-29.75 -1.44815,-3.66568 -0.6229,-7.90896 -1.25,-11.84375 13.58135,-4.89299 30.24358,-10.64605 35.25,-25.6875 2.15887,-11.24065 -7.20786,-20.14111 -15.46875,-26.03125 -1.37616,-2.87654 -6.44517,-4.94565 -5.71495,-8.06357 12.81962,-20.39374 23.17047,-43.73534 22.1837,-68.37393 -14.17894,-3.54111 -26.53518,6.79239 -35.84375,15.9375 -3.51702,-1.01325 -7.306,-1.16301 -10.65625,-2.6875 -1.37901,-21.73636 -5.75064,-45.12849 -20.5,-61.90625 -8.9264,-4.15038 -17.0148,5.19187 -18.90625,13.1875 -2.06976,4.20229 -0.57787,9.76102 -3.15625,13.5625 -4.14553,0.77378 -9.44766,6.87239 -12.15625,1.125 -15.60822,-18.4619 -35.19212,-34.63304 -58.71875,-41.625 0.20833,1.125 0.41667,2.25 0.625,3.375 z"
       id="path6289"
       inkscape:connector-curvature="0" />
    <path
       style="fill:none;stroke:#000000;stroke-opacity:1"
       d="m 184.59375,139.4375 c 1.71301,12.88137 5.4744,25.49738 7,38.34375 -2.97767,2.93597 -3.70725,10.69021 -8.8188,8.21554 -19.22041,-4.44166 -41.07795,-8.39328 -59.4937,0.72196 -9.44096,8.55175 -2.90113,25.06348 8.1875,28.625 3.09153,1.28346 8.99528,2.34108 7.125,7 -0.18522,2.10367 2.46679,6.71309 -1.28125,6.34375 -13.67025,4.72135 -30.09377,11.88982 -33.5625,27.53125 -1.40289,12.24648 9.13468,20.84291 17.53125,27.78125 1.33643,2.03066 6.31088,3.97495 2.57049,6.47717 -12.14096,19.45097 -21.24606,42.84397 -16.69549,66.11658 12.83174,4.98835 25.63095,-4.19469 34.28125,-12.59375 2.33833,1.27384 7.87044,-0.49536 8.34375,2.875 1.23421,23.48107 7.5088,47.91752 23.375,65.84375 13.74897,-3.99687 19.76513,-18.78981 22.0625,-31.6875 3.93791,-1.13057 8.50649,-5.49012 10.78534,0.0947 16.12658,18.53337 35.67373,34.71668 58.43341,44.46778 8.64253,-13.09196 2.5188,-29.39525 -3.34375,-42.34375 -2.88032,-4.431 2.80407,-7.69569 4.59375,-11.15625 18.3918,5.73498 38.43823,7.27795 57.51313,4.06051 4.13385,-1.27638 10.32539,-1.39182 12.81353,-4.46573 1.19858,-14.58156 -11.32941,-25.32422 -22.88916,-31.59478 -0.33113,-3.8057 -2.78086,-10.33243 3.0625,-10.5 12.94491,-4.66355 28.45455,-12.05717 31.53125,-27 1.27989,-11.84234 -8.76075,-20.30512 -16.84375,-27.03125 -1.49241,-2.35065 -7.08897,-4.36916 -3.13369,-7.44635 12.51685,-20.42123 22.05503,-43.84706 20.72744,-68.24115 -14.87045,-4.776 -28.69994,5.96523 -38.71875,15.21875 -3.59974,-0.95687 -9.39114,-0.303 -8.12179,-5.65214 -1.8893,-20.73574 -6.68081,-42.87408 -21.28446,-58.44161 -9.91559,-4.68964 -19.81835,5.36373 -21.78125,14.625 -2.11614,3.72824 -0.0472,9.50409 -3.03125,12.40625 -2.63901,0.5675 -7.25014,5.58779 -8.71875,1.34375 C 230.32552,159.776 209.15766,142.91633 184,136.15625 c 0.19792,1.09375 0.39583,2.1875 0.59375,3.28125 z"
       id="path6293"
       inkscape:connector-curvature="0" />
    <path
       style="fill:none;stroke:#000000;stroke-opacity:1"
       d="m 182.03125,136.5 c 1.82561,13.66376 5.69429,27.07382 7.40625,40.6875 -2.23397,2.33548 -2.68112,9.2365 -7.19454,6.65629 -19.64406,-4.46736 -42.43625,-8.52797 -60.80546,1.87496 -10.19194,10.19493 -2.36852,28.74684 10.6875,32 2.53165,0.59199 6.14252,1.9911 4.46875,5.1875 0.61892,2.60121 1.26826,4.83834 -2.59375,4.8125 -13.76175,4.83915 -29.57158,13.17538 -32.3125,28.9375 -1.15398,13.48291 10.85133,22.46932 19.78125,30.40625 3.68584,1.97586 -2.24062,5.15946 -2.6875,8 -10.77279,18.81595 -18.05578,41.21458 -13.375,63.03125 13.35135,5.90358 27.2834,-2.94435 36.71875,-11.78125 2.07774,0.86762 7.02106,-1.13886 5.78125,2.9375 1.54447,23.58555 8.37064,47.98475 24.59375,65.75 14.62243,-3.48627 22.07678,-18.82848 24.46875,-32.46875 2.3176,-0.85018 6.4971,-4.1968 7.53125,-0.0625 16.71496,19.19434 37.02897,35.7855 60.6875,45.65625 9.57456,-12.7893 4.9559,-29.98985 -1.15625,-43.21875 -2.77225,-3.01604 -1.66132,-6.67873 1.34375,-8.96875 1.91309,-3.44482 6.46329,1.07366 9.56871,0.69111 19.54155,4.20023 40.82054,4.90974 59.93129,-1.56611 5.62989,-2.73528 2.7628,-10.33186 1.3125,-14.9375 -3.96749,-9.5329 -12.44199,-16.31485 -21.21875,-21.3125 -0.11871,-2.32148 -2.31142,-7.68005 1.90625,-7.34375 13.96562,-4.8753 30.24596,-13.25523 32.90625,-29.3125 0.9885,-14.15107 -12.01282,-23.06442 -21.125,-31.46875 0.14251,-2.13209 3.47913,-4.89248 4.28125,-7.4375 11.17604,-19.65353 19.05087,-41.9335 17.46875,-64.875 -15.08909,-5.67395 -30.23019,4.15303 -40.8088,14.16561 -1.88067,0.4066 -7.48338,0.2673 -5.97245,-3.29061 -1.99574,-21.29881 -6.88425,-44.37548 -22.4375,-60.0625 -10.98208,-5.21171 -22.44911,5.50885 -24.625,15.90625 -2.42826,3.79153 1.08207,10.78743 -4.34375,12.25 -2.33165,2.20926 -4.25193,2.09197 -5.46875,-1.125 -17.13284,-19.91277 -39.33256,-36.67311 -65.28125,-42.78125 0.1875,1.02083 0.375,2.04167 0.5625,3.0625 z"
       id="path6297"
       inkscape:connector-curvature="0" />
    <path
       style="fill:none;stroke:#000000;stroke-opacity:1"
       d="m 179.5,133.8125 c 1.85466,14.47653 6.29153,28.82308 7.59375,43.1875 -1.50652,1.99133 -1.83606,7.31176 -5.38146,4.68498 -20.0288,-4.54851 -43.09227,-8.35509 -61.68104,2.62752 -11.51587,11.39111 -2.52377,32.83687 12.59375,35.59375 3.60796,0.25989 1.93143,3.72403 2.3125,5.71875 -14.71361,4.14221 -31.01595,13.16304 -34.9375,29.15625 -2.640905,14.1317 9.50453,24.79513 19.19092,32.93878 3.41572,1.84129 -2.37706,4.00232 -2.28467,6.62372 -11.13344,19.41735 -18.414339,42.71015 -13.25,65.15625 13.71349,6.85941 29.04134,-1.64642 39.125,-10.96875 4.21133,-1.30818 3.12506,2.41146 3.46875,5.3125 2.15603,22.9716 9.54972,46.38532 25.59375,63.40625 15.61371,-3.08417 24.25811,-18.96451 26.96875,-33.34375 1.92294,-1.17569 4.19534,-2.49114 4.84694,0.62676 17.07954,19.48936 38.02061,36.27078 62.21556,46.06074 11.20452,-13.63343 6.84027,-33.63003 -0.9375,-47.75 -1.79733,-2.98521 2.22856,-8.20538 5.4375,-5.3125 18.61782,4.85899 38.8317,5.98576 57.75,1.5625 5.25605,-0.87277 12.55285,-3.05463 12.09375,-9.75 -0.49564,-14.35691 -11.91234,-25.17075 -23.40625,-31.90625 -0.5243,-2.22899 -1.42131,-4.92476 2.0625,-4.5625 14.31313,-4.98272 30.37587,-14.29446 32.90625,-30.625 1.07107,-14.10899 -11.36486,-23.90026 -20.8125,-32.1875 13.86317,-21.35916 23.37907,-47.13841 21.34375,-73.125 -15.77536,-6.72738 -32.47184,3.01576 -43.6875,13.71875 -3.00208,0.67342 -3.90662,-0.80533 -3.1875,-3.625 -2.23857,-21.34179 -7.45205,-44.37066 -23.4375,-59.6875 -11.97697,-5.59907 -24.96534,5.52456 -27.375,17.125 -2.41676,3.76435 1.14243,10.39371 -4.34375,11.90625 -1.86722,1.69897 -1.88671,-3.21073 -3.65625,-3.34375 -17.75391,-20.12194 -40.98412,-36.78403 -67.6875,-42.21875 0.1875,1 0.375,2 0.5625,3 z"
       id="path6301"
       inkscape:connector-curvature="0" />
    <path
       style="fill:none;stroke:#000000;stroke-opacity:1"
       d="m 176.96875,131.1875 c 1.82323,15.3581 7.03177,30.59333 7.78125,45.84375 -0.63903,2.84657 -1.74279,3.9863 -4.54574,2.28318 -20.00567,-4.54687 -43.23911,-7.72412 -61.57926,3.59182 -13.01553,12.72489 -2.34648,36.85479 14.375,39.21875 0.18096,3.92857 -6.13999,2.96174 -8.625,5.125 -13.31504,5.54223 -27.095935,17.18064 -26.71875,32.84375 0.873238,12.71768 11.65198,21.62991 20.15625,29.3125 -4.70069,5.49411 -6.97648,12.79949 -10.19409,19.24454 -6.79544,16.32712 -9.996772,34.79969 -5.71216,52.22421 13.94602,7.66011 30.61806,-0.1488 41.25,-10 2.17401,-1.74678 0.32456,4.35201 1.3125,5.34375 2.4958,23.05053 10.31295,46.30805 26.6875,63.21875 16.73958,-2.62555 26.39033,-19.27934 29.65625,-34.40625 1.9959,-1.03 2.60438,3.88705 4.625,4.5 17.0418,18.53095 37.54944,34.22327 61.09375,43.5 12.94311,-14.55367 8.38581,-36.36574 -0.0312,-51.90625 0.0417,-2.5086 2.7266,-3.01714 4.34514,-1.41371 21.25659,5.22474 44.60164,6.29385 65.46736,-1.02379 7.10653,-2.85141 6.74002,-11.70362 4.4375,-17.71875 -3.61522,-10.9624 -12.70213,-19.0279 -22.21875,-24.875 -1.00798,-2.5239 3.89292,-1.30984 5.15625,-2.875 14.26686,-5.52085 29.98752,-16.78671 30.125,-33.65625 -0.55743,-12.91133 -11.19095,-22.04352 -20.21875,-29.875 13.87409,-21.89404 22.96569,-47.86145 20.625,-74.125 -15.52242,-7.42121 -33.1352,0.96784 -44.78125,11.625 -2.86976,3.49664 -2.02987,0.0465 -2.21875,-2.375 -2.46875,-21.31299 -8.01195,-44.34175 -24.40625,-59.28125 -13.15029,-6.12624 -27.50495,5.72275 -30.25,18.53125 -2.08506,3.02135 0.70948,8.06918 -2.40625,10.25 -4.4357,-6.48153 -10.87737,-11.62092 -16.53125,-17.125 -16.19702,-14.25571 -35.75634,-25.18346 -57.1875,-28.90625 0.17708,0.96875 0.35417,1.9375 0.53125,2.90625 z"
       id="path6305"
       inkscape:connector-curvature="0" />
    <path
       style="fill:none;stroke:#000000;stroke-opacity:1"
       d="m 174.46875,128.65625 c 1.8227,16.38069 7.73984,32.46775 8.0625,48.9375 -1.72949,0.89696 -5.22474,-1.62047 -7.65625,-1.46875 -19.18311,-3.89727 -41.55314,-5.75613 -58.34375,6.03125 -12.13089,12.99777 -3.39702,36.22184 12.78125,41.1875 -14.49423,4.37556 -29.13268,14.64469 -33,30.03125 -3.558342,14.37964 7.56725,26.65507 17.61829,35.26271 2.32634,2.08735 -2.72307,5.18164 -2.99329,7.95604 -10.2062,19.83393 -16.599191,43.40107 -10.78125,65.625 13.76194,8.13525 30.8137,1.74987 42,-7.8125 2.52064,24.42091 10.65568,49.4274 28.25,67.1875 16.68613,-1.96678 27.65725,-17.68415 31.5625,-32.875 17.87456,19.96711 39.87162,37.02186 65.15625,46.6875 13.07657,-13.43512 10.97338,-34.92628 3.4375,-50.59375 -0.47294,-1.45304 -3.42772,-5.70898 -0.1875,-3.15625 22.41396,5.34643 47.12692,6.80226 68.78125,-2.1875 8.49245,-6.37143 4.7614,-18.73599 0.1875,-26.34375 -4.18996,-6.99145 -10.47231,-12.65672 -17.21875,-17.09375 15.0904,-5.47581 31.75192,-16.51583 33.5625,-33.96875 1.13179,-13.90549 -9.87138,-24.5116 -19.46875,-32.8125 13.81932,-22.22524 22.51984,-48.55871 19.90625,-75 -15.7759,-8.42394 -34.76652,-0.30277 -46.90625,10.3125 -2.58686,-21.94881 -8.32039,-45.77718 -25.59375,-60.84375 -14.11665,-6.59893 -29.94112,5.72154 -32.96875,19.625 -1.23923,2.1531 -0.9026,4.72053 -0.90625,7.09375 -19.67532,-22.3158 -45.91014,-40.19276 -75.8125,-44.65625 0.17708,0.95833 0.35417,1.91667 0.53125,2.875 z"
       id="path6309"
       inkscape:connector-curvature="0" />
    <path
       style="fill:none;stroke:#000000;stroke-opacity:1"
       d="m 171.96875,126.15625 c 1.9301,16.60602 7.46338,32.6841 8.5,49.375 -15.20564,-4.14499 -31.70142,-5.93064 -47.3125,-2.71875 -9.45992,2.29503 -20.73662,6.47202 -23.25,16.96875 -3.66992,12.58048 2.73225,26.92616 13.875,33.34375 -15.67595,5.97361 -31.261034,20.23822 -30.03125,38.34375 1.212498,11.98047 10.73529,21.16973 18.59375,28.84375 -6.34196,9.40239 -10.12649,20.58139 -13.34375,31.46875 -3.527223,13.5441 -4.321163,28.10521 -0.59375,41.75 13.24148,8.41226 30.55849,3.61971 42.15625,-5.3125 3.00271,23.98655 11.67892,48.28339 29.09375,65.46875 16.55667,-1.34428 28.5435,-16.00287 33.21875,-30.96875 18.00135,19.37706 39.82132,35.76035 64.78125,45.03125 14.3722,-13.70077 12.99655,-36.90455 4.8125,-53.5625 22.36778,4.91596 47.1478,6.23723 68.34375,-3.5 8.98272,-7.30139 5.25564,-21.15158 -0.31679,-29.46951 -3.6308,-5.79855 -8.62991,-10.6472 -14.15196,-14.68674 15.42068,-6.18399 31.48858,-19.01295 31.40625,-37.125 -0.37172,-12.7669 -9.85042,-22.64929 -18.9375,-30.53125 13.68176,-22.50858 22.13929,-49.28617 19.1875,-75.90625 -15.25307,-8.81761 -34.35779,-2.52736 -47.25,7.75 -2.83571,-21.44582 -9.18279,-44.49971 -26.34375,-58.84375 -15.22508,-7.08059 -32.49346,5.99299 -35.78125,21.03125 -0.53836,4.81203 -3.03083,-0.5591 -5.15625,-2.03125 -19.35396,-19.30483 -44.47754,-34.1115 -72,-37.5 0.16667,0.92708 0.33333,1.85417 0.5,2.78125 z"
       id="path6313"
       inkscape:connector-curvature="0" />
    <path
       style="fill:none;stroke:#000000;stroke-opacity:1"
       d="m 169.5,123.71875 c 1.81695,16.41756 7.43691,33.0529 8.5625,49.125 -20.23608,-4.81618 -43.64431,-6.61888 -61.90625,4.8125 -13.18178,9.29849 -11.17524,29.71163 -1.25,40.65625 1.42522,1.6162 2.95108,3.08699 4.65625,4.40625 -15.77925,7.00341 -30.547221,23.01606 -27.4375,41.40625 2.125002,10.78345 10.05124,19.07871 17.65625,26.46875 -12.737653,22.00797 -20.086068,49.09423 -13.09375,74.25 12.84232,8.6211 30.22143,5.2361 42.375,-3.09375 3.34681,23.5751 12.52789,47.28402 29.84375,64 16.49947,-0.80244 29.28474,-14.52552 34.78125,-29.25 18.03867,18.8307 39.83289,34.69488 64.46875,43.5625 14.76522,-13.18878 15.02004,-35.94097 7.75,-53.125 21.96088,4.26314 46.34232,5.25726 66.65625,-5.125 9.56068,-8.60948 5.45374,-23.69514 -1.125,-32.8125 -3.06111,-4.54729 -6.91873,-8.58875 -11.21875,-11.96875 15.70643,-6.83195 31.33437,-21.72931 29.3125,-40.28125 -1.35851,-11.70889 -9.76518,-20.81499 -18.125,-28.28125 13.55447,-22.90562 21.72575,-49.88091 18.46875,-76.71875 -14.86314,-9.28931 -34.25544,-4.36454 -47.625,5.34375 -3.09984,-21.00651 -9.97676,-43.28809 -27.03125,-57.0625 -15.96384,-7.36947 -34.44159,5.65513 -38.34375,21.5 -20.55293,-21.40166 -47.89546,-37.48516 -77.84375,-40.46875 0.15625,0.88542 0.3125,1.77083 0.46875,2.65625 z"
       id="path6317"
       inkscape:connector-curvature="0" />
    <path
       style="fill:none;stroke:#000000;stroke-opacity:1"
       d="m 167.0625,121.40625 c 1.881,16.43717 6.93353,32.48527 8.78125,48.90625 -20.65314,-4.62618 -44.95219,-5.83183 -62.8125,7.25 -12.97344,11.76735 -9.36666,33.86878 2.90625,44.6875 -15.985834,7.8841 -30.11443,25.77305 -25.25,44.4375 2.589326,9.7396 9.59637,17.34561 16.59375,24.28125 -12.688595,22.35441 -19.595411,49.73801 -12.34375,75.09375 12.57324,8.99115 30.03986,6.62939 42.625,-0.96875 3.76893,23.34139 13.32269,46.32631 30.59375,62.71875 16.43263,-0.38348 30.016,-13.23405 36.21875,-27.71875 18.12442,18.34736 39.75693,33.67411 64.21875,42.25 15.12839,-12.52508 16.89744,-35.22311 10.46875,-52.8125 21.5968,3.74582 45.75828,4.40375 65.3125,-6.6875 9.70217,-9.42764 5.86157,-25.25953 -1.3125,-35 -2.43763,-3.87584 -6.12899,-7.44802 -9,-10.40625 15.97478,-7.65208 30.7447,-24.39794 27.09375,-43.25 -2.07778,-10.61905 -9.50738,-19.11189 -17.21875,-26.125 13.46463,-23.15824 21.33266,-50.50653 17.8125,-77.5 -14.54208,-9.72879 -34.16833,-6.01295 -48.03125,3.09375 -3.27572,-20.53703 -10.82651,-42.30417 -27.65625,-55.4375 -15.80787,-7.38935 -34.57026,4.12963 -40.09375,19.5 -21.14722,-21.11064 -49.14598,-36.59879 -79.375,-38.9375 0.15625,0.875 0.3125,1.75 0.46875,2.625 z"
       id="path6321"
       inkscape:connector-curvature="0" />
    <path
       style="fill:none;stroke:#000000;stroke-opacity:1"
       d="m 164.625,119.125 c 1.94523,16.32959 6.58985,32.37404 8.875,48.625 -20.78426,-4.26867 -45.09709,-4.74988 -62.46875,8.96875 -12.305415,11.88755 -9.77437,33.26658 1.53125,45.0625 -15.718948,8.65586 -28.617854,26.79523 -23.8125,45.4375 2.569697,9.56466 9.192194,17.30662 16.0625,24.09375 -12.641282,22.77063 -19.159439,50.44846 -11.59375,76 12.32727,9.24623 29.81755,7.85383 42.875,0.9375 4.09865,22.9756 14.05949,45.50763 31.28125,61.59375 16.48298,0.004 30.64307,-12.08253 37.625,-26.28125 18.23059,17.90875 39.79435,32.79254 64.03125,41.0625 15.47207,-12.18832 18.62693,-34.53656 12.9375,-52.59375 21.41251,3.30932 45.4967,3.56307 64.3125,-8.25 10.20433,-10.81677 5.72506,-28.04689 -2.59375,-38.5625 -1.3645,-2.74055 -5.70734,-5.45907 -5.65625,-7.59375 15.73235,-8.47363 29.23425,-26.18959 24.84375,-44.875 -2.26422,-10.00048 -9.06598,-18.26437 -16.40625,-25.0625 13.33089,-23.48524 20.93917,-51.16862 17.15625,-78.3125 -14.3291,-10.09065 -34.04705,-7.49672 -48.4375,1 C 311.46657,170.01177 303.51851,148.13299 286,136 c -15.72615,-6.61706 -33.94156,3.60341 -40.75,18.1875 -21.85925,-20.97174 -50.46715,-35.89804 -81.09375,-37.625 0.15625,0.85417 0.3125,1.70833 0.46875,2.5625 z"
       id="path6325"
       inkscape:connector-curvature="0" />
    <path
       style="fill:none;stroke:#000000;stroke-opacity:1"
       d="m 162.1875,116.9375 c 2.08958,16.20904 6.24073,32.15741 8.90625,48.3125 -20.82541,-3.92739 -45.14737,-3.65685 -62.0625,10.65625 -11.851295,12.21406 -9.967443,32.88826 0.40625,45.375 -16.340945,9.69093 -28.706157,30.25341 -21.71875,49.34375 2.963984,8.19561 8.628832,15.02507 14.65625,21.0625 -12.585127,22.97689 -18.734053,51.18101 -10.875,76.84375 12.14065,9.5032 29.64313,9.03044 43.125,2.65625 4.4362,22.75178 14.76018,44.80225 31.9375,60.65625 16.5836,0.39182 31.3232,-11.02089 38.96875,-25.03125 18.23465,17.60101 39.7932,32.02154 63.90625,40.0625 15.8498,-11.84856 20.15902,-33.90872 15.3125,-52.40625 21.28037,2.83599 45.31627,2.83935 63.53125,-9.90625 10.30423,-11.8074 5.64028,-29.7683 -3.1875,-40.9375 -1.124,-2.51823 -6.87674,-5.00667 -2.22489,-6.54627 15.24809,-9.56668 27.01198,-28.40406 21.44364,-46.73498 -2.55675,-9.00534 -8.67214,-16.6706 -15.34375,-23.0625 13.24628,-23.76011 20.53218,-51.75267 16.53125,-79.0625 -14.11581,-10.43308 -34.03091,-8.87996 -48.875,-0.9375 -4.1255,-20.27101 -12.44289,-42.15735 -30.71875,-53.46875 -15.61385,-6.22402 -33.55636,3.68655 -41.375,16.96875 -22.5088,-20.90549 -51.79921,-35.25112 -82.8125,-36.375 0.15625,0.84375 0.3125,1.6875 0.46875,2.53125 z"
       id="path6329"
       inkscape:connector-curvature="0" />
    <path
       style="fill:none;stroke:#000000;stroke-opacity:1"
       d="m 159.75,114.78125 c 2.23857,16.1239 5.99119,31.98675 8.875,48 -21.14297,-3.56251 -45.93512,-2.53441 -62.21875,13.03125 -10.734227,12.48027 -9.333115,32.14964 0.0937,44.9375 -16.854241,10.74353 -28.603043,33.45505 -19.71875,52.96875 3.046844,6.95677 7.892368,12.93222 13.15625,18.34375 -12.59781,23.35328 -18.221545,51.93326 -10.1875,77.65625 12.03913,9.7661 29.54596,10.11312 43.4375,4.28125 4.72887,22.54943 15.44631,44.26318 32.59375,59.84375 16.62887,0.67046 31.89216,-10.00258 40.1875,-23.84375 18.2774,17.24912 39.8076,31.22109 63.8125,39.125 16.20067,-11.41715 21.65545,-33.47714 17.59375,-52.3125 21.16833,2.51773 44.60945,1.93571 62.4375,-10.96875 11.17854,-12.88006 5.99523,-32.40681 -3.75,-44.4375 -4.45628,-2.45013 -0.26617,-3.77192 2.25,-5.6875 14.49165,-10.85342 24.06041,-30.92357 17.0625,-48.59375 -2.86766,-7.79059 -8.10531,-14.4639 -13.9375,-20.25 13.16689,-23.99786 20.17558,-52.36129 15.90625,-79.78125 -13.88223,-10.7872 -33.85883,-10.16631 -49.28125,-2.78125 -4.53662,-20.25478 -13.37291,-42.14088 -32.25,-52.6875 -15.51036,-5.54795 -32.90878,3.12255 -41.6875,16.09375 -23.13399,-20.93405 -53.29615,-34.90822 -84.84375,-35.40625 0.15625,0.82292 0.3125,1.64583 0.46875,2.46875 z"
       id="path6333"
       inkscape:connector-curvature="0" />
    <path
       style="fill:none;stroke:#000000;stroke-opacity:1"
       d="m 157.3125,112.6875 c 2.39388,15.98865 5.79176,31.80729 8.8125,47.6875 -21.48082,-3.21729 -46.64138,-1.32465 -62.28125,15.40625 -9.74337,12.65555 -8.752175,31.39897 -0.15625,44.4375 -17.017453,11.62273 -28.014329,35.5791 -18.298289,55.25106 2.954508,6.35787 7.29133,11.8958 12.110789,16.93644 -12.455127,23.69379 -17.791887,52.48841 -9.46875,78.5 11.9865,10.05262 29.43089,11.05664 43.71875,5.8125 5.05023,22.34367 16.04298,43.67798 33.21875,59.09375 16.74398,1.00536 32.45613,-9.11114 41.40625,-22.71875 18.30511,16.91764 39.87905,30.5712 63.75,38.25 16.53475,-11.07844 23.05487,-33.02624 19.71875,-52.25 21.08644,2.19283 44.89698,1.17919 62,-12.5625 11.17931,-13.73102 6.13517,-34.95694 -5.125,-47.03125 4.61388,-3.53448 10.50209,-8.28163 14.0625,-13.75 9.95332,-13.14083 12.28098,-32.45575 2.96875,-46.59375 -2.71283,-4.68227 -6.1008,-8.85017 -9.875,-12.65625 13.13024,-24.31981 19.78362,-52.9215 15.34375,-80.5 -13.84705,-11.22755 -33.93009,-11.30514 -49.78125,-4.53125 -4.8549,-20.37075 -14.31645,-42.21871 -33.78125,-52 -15.37948,-5.04277 -32.48188,2.83138 -41.84375,15.3125 -23.80297,-21.0195 -54.83743,-34.61359 -86.96875,-34.53125 0.15625,0.8125 0.3125,1.625 0.46875,2.4375 z"
       id="path6337"
       inkscape:connector-curvature="0" />
    <path
       style="fill:none;stroke:#000000;stroke-opacity:1"
       d="m 154.875,110.625 c 2.54839,15.85498 5.61066,31.62528 8.75,47.375 -21.60232,-2.83435 -46.78824,0.0233 -61.84375,17.21875 -9.482171,12.72793 -8.561662,31.29957 -0.875,44.53125 -17.208065,12.51587 -27.491343,37.92422 -16.71875,57.8125 2.775425,5.5831 6.615009,10.56197 10.875,15.1875 -12.342189,24.09233 -17.308762,53.15165 -8.78125,79.3125 11.888031,10.29194 29.38328,12.02053 44.03125,7.25 5.3647,22.24327 16.67951,43.23034 33.84375,58.46875 16.90502,1.32222 33.05706,-8.43545 42.59375,-21.625 18.40446,16.59759 39.95104,29.89856 63.6875,37.40625 17.03486,-10.98582 24.33593,-32.66676 21.78125,-52.21875 20.99425,1.92514 44.44022,0.27305 61.21875,-13.59375 11.41396,-14.04138 6.81226,-35.17199 -3.6875,-48.0625 16.30531,-11.45951 26.42892,-33.19625 19.90625,-52.75 -2.61937,-7.8516 -7.72306,-14.79677 -13.34375,-20.8125 13.06638,-24.587 19.37553,-53.47005 14.78125,-81.1875 -13.74845,-11.6174 -33.97561,-12.45619 -50.28125,-6.1875 -5.11557,-20.3865 -15.26075,-42.29284 -35.28125,-51.40625 -15.30245,-4.63008 -32.07371,2.57902 -42,14.5625 -24.51043,-21.14193 -56.42281,-34.35471 -89.09375,-33.65625 0.14583,0.79167 0.29167,1.58333 0.4375,2.375 z"
       id="path6341"
       inkscape:connector-curvature="0" />
    <path
       style="fill:none;stroke:#000000;stroke-opacity:1"
       d="m 154.40625,106.25 c -4.84323,0.23567 0.38241,8.78201 -0.18901,12.62675 2.1216,12.3032 4.45652,24.56874 6.90776,36.81075 -21.92051,-2.42815 -47.52028,1.38906 -61.875,19.65625 -8.95449,12.87012 -7.441905,30.86127 -1.1875,44.0625 -16.723948,13.14934 -26.214343,38.17409 -16.125,58.15625 2.777555,5.73794 6.50046,10.85143 10.75,15.53125 -12.276152,24.34275 -16.874495,53.75879 -8.15625,80.125 11.87523,10.61979 29.46162,12.76402 44.375,8.6875 5.63486,21.97467 17.26696,42.76906 34.40625,57.8125 17.0746,1.76962 33.6077,-7.94392 43.875,-20.53125 18.43374,16.33671 39.99596,29.25115 63.5625,36.59375 17.31484,-10.73044 25.61487,-32.31558 23.71875,-52.25 21.11479,1.62546 44.87499,-0.48204 61.125,-15.25 10.72686,-14.13748 7.06667,-34.69639 -3,-48.21875 18.11378,-13.35268 27.5064,-40.13341 15.97425,-60.66748 -2.64662,-4.97238 -6.08575,-9.42118 -9.818,-13.61377 12.93961,-24.86607 19.01407,-54.10126 14.1875,-81.90625 -13.58855,-11.96482 -34.01112,-13.5231 -50.75,-7.78125 -5.39199,-20.45959 -16.31497,-42.42538 -36.875,-50.90625 -15.19849,-4.1773 -31.72031,2.46672 -41.96875,13.90625 -24.66664,-20.62872 -56.36221,-33.55128 -88.9375,-32.84375 z"
       id="path6345"
       inkscape:connector-curvature="0" />
    <path
       style="fill:none;stroke:#000000;stroke-opacity:1"
       d="m 154.375,104.25 c -5.46503,0.19119 -4.17453,7.16663 -2.78125,10.5625 2.11201,12.79793 4.44372,25.81192 7.03125,38.625 -22.2713,-2.0581 -48.22445,2.88891 -61.90625,22.09375 -8.005785,12.90663 -7.007464,29.7493 -1.125,43.3125 -17.408148,14.30507 -26.200819,41.3609 -14.3125,61.8125 2.481893,4.60371 5.55774,8.85941 9.03125,12.78125 -12.209556,24.67162 -16.451208,54.51534 -7.5,80.9375 11.791716,11.07449 29.72751,13.25673 44.71875,10.15625 6.01795,21.8109 17.79887,42.23336 34.9375,57.125 17.29002,2.29892 34.14186,-7.72307 45.15625,-19.40625 18.51564,15.97209 39.95469,28.52096 63.375,35.71875 17.80265,-10.54021 26.79225,-31.99946 25.65625,-52.28125 21.32995,1.31428 45.25376,-1.2364 61.09375,-16.9375 10.41395,-14.3655 6.72527,-34.60884 -2.21875,-48.40625 18.06085,-14.38289 26.62134,-42.23488 14.25,-62.875 -2.41219,-4.31518 -5.35186,-8.26766 -8.65625,-11.96875 12.83954,-25.15211 18.69806,-54.59496 13.65625,-82.65625 -13.57281,-12.35135 -34.083,-14.58742 -51.21875,-9.28125 -5.75508,-20.68177 -17.3214,-42.53712 -38.46875,-50.5 -15.10495,-3.79506 -31.34435,2.35451 -41.90625,13.28125 C 218.36476,116.14457 186.77925,103.54654 154.375,104.25 z"
       id="path6349"
       inkscape:connector-curvature="0" />
  </g>
</svg>
