<?xml version="1.0" encoding="UTF-8" standalone="no"?>
<!-- Created with Inkscape (http://www.inkscape.org/) -->

<svg
   xmlns:dc="http://purl.org/dc/elements/1.1/"
   xmlns:cc="http://creativecommons.org/ns#"
   xmlns:rdf="http://www.w3.org/1999/02/22-rdf-syntax-ns#"
   xmlns:svg="http://www.w3.org/2000/svg"
   xmlns="http://www.w3.org/2000/svg"
   xmlns:sodipodi="http://sodipodi.sourceforge.net/DTD/sodipodi-0.dtd"
   xmlns:inkscape="http://www.inkscape.org/namespaces/inkscape"
   width="744.09448819"
   height="1052.3622047"
   id="svg2"
   version="1.1"
   inkscape:version="0.48.2 r9819"
   sodipodi:docname="tree004.svg">
  <sodipodi:namedview
     id="base"
     pagecolor="#ffffff"
     bordercolor="#666666"
     borderopacity="1.0"
     inkscape:pageopacity="0.0"
     inkscape:pageshadow="2"
     inkscape:zoom="0.98994949"
     inkscape:cx="225.8512"
     inkscape:cy="503.39413"
     inkscape:document-units="px"
     inkscape:current-layer="layer1"
     showgrid="false"
     showguides="true"
     inkscape:guide-bbox="true"
     inkscape:window-width="818"
     inkscape:window-height="652"
     inkscape:window-x="432"
     inkscape:window-y="76"
     inkscape:window-maximized="0" />
  <defs
     id="defs4" />
  <metadata
     id="metadata7">
    <rdf:RDF>
      <cc:Work
         rdf:about="">
        <dc:format>image/svg+xml</dc:format>
        <dc:type
           rdf:resource="http://purl.org/dc/dcmitype/StillImage" />
        <dc:title />
      </cc:Work>
    </rdf:RDF>
  </metadata>
  <g
     inkscape:label="Layer 1"
     inkscape:groupmode="layer"
     id="layer1">
    <path
       id="path3367"
       d=""
       style="fill:none;stroke:#000000"
       inkscape:connector-curvature="0" />
    <path
       id="path3375"
       d=""
       style="fill:none;stroke:#000000"
       inkscape:connector-curvature="0" />
    <path
       id="path3391"
       d=""
       style="fill:none;stroke:#000000"
       inkscape:connector-curvature="0" />
    <path
       id="path3407"
       d=""
       style="fill:none;stroke:#000000"
       inkscape:connector-curvature="0" />
    <path
       id="path3429"
       d=""
       style="fill:none;stroke:#000000"
       inkscape:connector-curvature="0" />
    <path
       inkscape:connector-curvature="0"
       style="fill:none;stroke:#000000"
       d=""
       id="path3738" />
    <path
       inkscape:connector-curvature="0"
       style="fill:none;stroke:#000000"
       d=""
       id="path3746" />
    <path
       inkscape:connector-curvature="0"
       style="fill:none;stroke:#000000"
       d=""
       id="path3750" />
    <path
       inkscape:connector-curvature="0"
       style="fill:none;stroke:#000000"
       d=""
       id="path3766" />
    <path
       inkscape:connector-curvature="0"
       style="fill:none;stroke:#000000"
       d=""
       id="path3782" />
    <path
       inkscape:connector-curvature="0"
       style="fill:none;stroke:#000000"
       d=""
       id="path3804" />
    <g
       id="g4029"
       transform="matrix(0.74202323,0,0,0.74202323,718.88324,475.96739)">
      <g
         id="g4048"
         transform="matrix(1.08,0,0,1.08,72.437458,-49.544094)">
        <path
           inkscape:connector-curvature="0"
           style="fill:none;stroke:#000000"
           d="m -779.96822,494.80118 0,21 m 0,-21 9,0 3,1 1,1 1,2 0,2 -1,2 -1,1 -3,1 -9,0 m 7,0 7,11"
           id="path3752" />
        <path
           inkscape:connector-curvature="0"
           style="fill:none;stroke:#000000"
           d="m -753.96822,494.80118 -2,1 -2,2 -1,2 -1,3 0,5 1,3 1,2 2,2 2,1 4,0 2,-1 2,-2 1,-2 1,-3 0,-5 -1,-3 -1,-2 -2,-2 -2,-1 -4,0"
           id="path3754" />
        <path
           inkscape:connector-curvature="0"
           style="fill:none;stroke:#000000"
           d="m -736.96822,494.80118 0,21 m 0,-21 9,0 3,1 1,1 1,2 0,2 -1,2 -1,1 -3,1 m -9,0 9,0 3,1 1,1 1,2 0,3 -1,2 -1,1 -3,1 -9,0"
           id="path3756" />
        <path
           inkscape:connector-curvature="0"
           style="fill:none;stroke:#000000"
           d="m -710.96822,494.80118 -2,1 -2,2 -1,2 -1,3 0,5 1,3 1,2 2,2 2,1 4,0 2,-1 2,-2 1,-2 1,-3 0,-5 -1,-3 -1,-2 -2,-2 -2,-1 -4,0"
           id="path3758" />
        <path
           inkscape:connector-curvature="0"
           style="fill:none;stroke:#000000"
           d="m -689.96822,494.80118 0,21 m -7,-21 14,0"
           id="path3760" />
        <path
           inkscape:connector-curvature="0"
           style="fill:none;stroke:#000000"
           d="m -677.96822,494.80118 0,21"
           id="path3762" />
        <path
           inkscape:connector-curvature="0"
           style="fill:none;stroke:#000000"
           d="m -655.96822,499.80118 -1,-2 -2,-2 -2,-1 -4,0 -2,1 -2,2 -1,2 -1,3 0,5 1,3 1,2 2,2 2,1 4,0 2,-1 2,-2 1,-2"
           id="path3764" />
      </g>
    </g>
    <g
       id="g4020"
       transform="matrix(0.74202323,0,0,1.7790494,724.1834,-45.63467)">
      <path
         id="path3768"
         d="m -632.96822,494.80118 0,21 m 0,-21 7,0 3,1 2,2 1,2 1,3 0,5 -1,3 -1,2 -2,2 -3,1 -7,0"
         style="fill:none;stroke:#000000"
         inkscape:connector-curvature="0" />
      <path
         id="path3770"
         d="m -611.96822,494.80118 0,21 m 0,-21 9,0 3,1 1,1 1,2 0,2 -1,2 -1,1 -3,1 -9,0 m 7,0 7,11"
         style="fill:none;stroke:#000000"
         inkscape:connector-curvature="0" />
      <path
         id="path3772"
         d="m -585.96822,494.80118 -8,21 m 8,-21 8,21 m -13,-7 10,0"
         style="fill:none;stroke:#000000"
         inkscape:connector-curvature="0" />
      <path
         id="path3774"
         d="m -574.96822,494.80118 5,21 m 5,-21 -5,21 m 5,-21 5,21 m 5,-21 -5,21"
         style="fill:none;stroke:#000000"
         inkscape:connector-curvature="0" />
      <path
         id="path3776"
         d="m -548.96822,494.80118 0,21"
         style="fill:none;stroke:#000000"
         inkscape:connector-curvature="0" />
      <path
         id="path3778"
         d="m -540.96822,494.80118 0,21 m 0,-21 14,21 m 0,-21 0,21"
         style="fill:none;stroke:#000000"
         inkscape:connector-curvature="0" />
      <path
         id="path3780"
         d="m -504.96822,499.80118 -1,-2 -2,-2 -2,-1 -4,0 -2,1 -2,2 -1,2 -1,3 0,5 1,3 1,2 2,2 2,1 4,0 2,-1 2,-2 1,-2 0,-3 m -5,0 5,0"
         style="fill:none;stroke:#000000"
         inkscape:connector-curvature="0" />
    </g>
    <g
       id="g4008"
       transform="matrix(0.58217409,0,0,0.58217409,426.7995,569.45974)">
      <path
         id="path3784"
         d="m -467.96822,499.80118 -1,-2 -2,-2 -2,-1 -4,0 -2,1 -2,2 -1,2 -1,3 0,5 1,3 1,2 2,2 2,1 4,0 2,-1 2,-2 1,-2"
         style="fill:none;stroke:#000000"
         inkscape:connector-curvature="0" />
      <path
         id="path3786"
         d="m -455.96822,494.80118 -2,1 -2,2 -1,2 -1,3 0,5 1,3 1,2 2,2 2,1 4,0 2,-1 2,-2 1,-2 1,-3 0,-5 -1,-3 -1,-2 -2,-2 -2,-1 -4,0"
         style="fill:none;stroke:#000000"
         inkscape:connector-curvature="0" />
      <path
         id="path3788"
         d="m -438.96822,494.80118 0,21 m 0,0 12,0"
         style="fill:none;stroke:#000000"
         inkscape:connector-curvature="0" />
      <path
         id="path3790"
         d="m -421.96822,494.80118 0,21 m 0,0 12,0"
         style="fill:none;stroke:#000000"
         inkscape:connector-curvature="0" />
      <path
         id="path3792"
         d="m -404.96822,494.80118 0,21 m 0,-21 13,0 m -13,10 8,0 m -8,11 13,0"
         style="fill:none;stroke:#000000"
         inkscape:connector-curvature="0" />
      <path
         id="path3794"
         d="m -371.96822,499.80118 -1,-2 -2,-2 -2,-1 -4,0 -2,1 -2,2 -1,2 -1,3 0,5 1,3 1,2 2,2 2,1 4,0 2,-1 2,-2 1,-2"
         style="fill:none;stroke:#000000"
         inkscape:connector-curvature="0" />
      <path
         id="path3796"
         d="m -360.96822,494.80118 0,21 m -7,-21 14,0"
         style="fill:none;stroke:#000000"
         inkscape:connector-curvature="0" />
      <path
         id="path3798"
         d="m -348.96822,494.80118 0,21"
         style="fill:none;stroke:#000000"
         inkscape:connector-curvature="0" />
      <path
         id="path3800"
         d="m -343.96822,494.80118 8,21 m 8,-21 -8,21"
         style="fill:none;stroke:#000000"
         inkscape:connector-curvature="0" />
      <path
         id="path3802"
         d="m -322.96822,494.80118 0,21 m 0,-21 13,0 m -13,10 8,0 m -8,11 13,0"
         style="fill:none;stroke:#000000"
         inkscape:connector-curvature="0" />
    </g>
    <g
       id="g4057"
       transform="matrix(0.74202323,0,0,0.74202323,698.04632,449.95891)">
      <path
         id="path3806"
         d="m -646.53965,584.08689 0,-1 1,-2 1,-1 2,-1 4,0 2,1 1,1 1,2 0,2 -1,2 -2,3 -10,10 14,0"
         style="fill:none;stroke:#000000"
         inkscape:connector-curvature="0" />
      <path
         id="path3808"
         d="m -621.53965,579.08689 -3,1 -2,3 -1,5 0,3 1,5 2,3 3,1 2,0 3,-1 2,-3 1,-5 0,-3 -1,-5 -2,-3 -3,-1 -2,0"
         style="fill:none;stroke:#000000"
         inkscape:connector-curvature="0" />
      <path
         id="path3810"
         d="m -604.53965,583.08689 2,-1 3,-3 0,21"
         style="fill:none;stroke:#000000"
         inkscape:connector-curvature="0" />
      <path
         id="path3812"
         d="m -586.53965,584.08689 0,-1 1,-2 1,-1 2,-1 4,0 2,1 1,1 1,2 0,2 -1,2 -2,3 -10,10 14,0"
         style="fill:none;stroke:#000000"
         inkscape:connector-curvature="0" />
    </g>
    <g
       id="g4339"
       transform="matrix(0.83526231,0,0,0.83526231,67.177058,334.44433)">
      <path
         id="path3730"
         d="m 110.00117,541.78797 0,39.31442 m -13.104805,-39.31442 26.209615,0"
         style="fill:none;stroke:#000000;stroke-width:1.87211502"
         inkscape:connector-curvature="0" />
      <path
         id="path3732"
         d="m 132.46655,541.78797 0,39.31442 m 0,-39.31442 16.84904,0 5.61634,1.87212 1.87212,1.87211 1.87211,3.74423 0,3.74423 -1.87211,3.74423 -1.87212,1.87212 -5.61634,1.87211 -16.84904,0 m 13.10481,0 13.1048,20.59327"
         style="fill:none;stroke:#000000;stroke-width:1.87211502"
         inkscape:connector-curvature="0" />
      <path
         id="path3734"
         d="m 171.78097,541.78797 0,39.31442 m 0,-39.31442 24.33749,0 m -24.33749,18.72115 14.97692,0 m -14.97692,20.59327 24.33749,0"
         style="fill:none;stroke:#000000;stroke-width:1.87211502"
         inkscape:connector-curvature="0" />
      <path
         id="path3736"
         d="m 207.35115,541.78797 0,39.31442 m 0,-39.31442 24.3375,0 m -24.3375,18.72115 14.97692,0 m -14.97692,20.59327 24.3375,0"
         style="fill:none;stroke:#000000;stroke-width:1.87211502"
         inkscape:connector-curvature="0" />
    </g>
    <path
       inkscape:connector-curvature="0"
       style="fill:none;stroke:#000000;stroke-width:1.38979757"
       d="m 277.18452,787.42615 0,31.24901 m 0,-31.24901 18.17248,31.24901 m 0,-31.24901 0,31.24901"
       id="path3740" />
    <path
       inkscape:connector-curvature="0"
       style="fill:none;stroke:#000000;stroke-width:1.38979757"
       d="m 310.93342,788.9142 -2.59607,1.48805 -2.59607,2.97609 -1.29804,4.46415 0,2.97609 1.29804,4.46414 2.59607,2.9761 2.59607,1.48805 3.8941,0 2.59607,-1.48805 2.59607,-2.9761 1.29803,-4.46414 0,-2.97609 -1.29803,-4.46415 -2.59607,-2.97609 -2.59607,-1.48805 -3.8941,0"
       id="path3742" />
    <path
       style="fill:none;stroke:#000000;stroke-width:1.11238837px;stroke-linecap:butt;stroke-linejoin:miter;stroke-opacity:1"
       d="m 303.21179,816.2938 19.67793,0"
       id="path4002"
       inkscape:connector-curvature="0" />
    <path
       style="fill:none;stroke:#333333;stroke-width:0.7881453;stroke-miterlimit:4;stroke-opacity:1;stroke-dasharray:none"
       d="m 367.03954,771.32153 c -85.82195,0.32111 -171.64494,-0.20052 -257.46661,0.25856 0.31586,43.47157 -0.34743,86.94692 0.305,130.41625 88.72332,-0.40575 177.44827,0.31393 266.17083,-0.36198 -0.3329,-43.44572 0.42796,-86.89533 -0.25808,-130.33868 -2.91705,-4.9e-4 -5.8341,0.018 -8.75114,0.0258 z"
       id="rect4063"
       inkscape:connector-curvature="0" />
    <path
       style="fill:none;stroke:#000000;stroke-width:0.74202323px;stroke-linecap:butt;stroke-linejoin:miter;stroke-opacity:1"
       d="m 183.99049,826.04708 124.02389,0"
       id="path4355"
       inkscape:connector-curvature="0" />
    <g
       id="g6377"
       transform="matrix(1.7142857,0,0,1.7142857,323.20499,801.53505)"
       inkscape:label="Hershey Text">
      <path
         id="path6379"
         transform="translate(10,0)"
         d="M 3,-12 -7,2 8,2 M 3,-12 3,9"
         style="fill:none;stroke:#000000"
         inkscape:connector-curvature="0" />
    </g>
    <path
       style="fill:none;stroke:#000000;stroke-width:1;stroke-miterlimit:4;stroke-opacity:1"
       d="m 178.57144,475.93361 c 0,10.65121 -8.63451,35 -19.28572,35 -10.65121,0 -29.28571,-12.92022 -29.28571,-23.57143 0,-10.6512 18.6345,-27.85714 29.28571,-27.85714 10.65121,0 19.28572,5.77737 19.28572,16.42857 z"
       id="path8590"
       inkscape:connector-curvature="0"
       sodipodi:nodetypes="sssss" />
    <path
       style="fill:none;stroke:#000000;stroke-width:1;stroke-miterlimit:4;stroke-opacity:1"
       d="m 287.14286,536.64793 c 0,10.25671 -4.36982,21.42856 -18.57143,21.42856 -14.2016,0 -25.71428,-11.17185 -25.71428,-21.42856 0,-10.25672 18.65553,-18.57143 32.85713,-18.57143 14.20161,0 11.42858,8.31471 11.42858,18.57143 z"
       id="path8593"
       inkscape:connector-curvature="0"
       sodipodi:nodetypes="sssss" />
    <path
       sodipodi:nodetypes="sssss"
       inkscape:connector-curvature="0"
       id="path8596"
       d="m 131.42859,560.21932 c 0.88939,10.61401 -10.06308,26.42857 -20.71429,26.42857 -10.65122,0 -27.857147,-4.34879 -27.857147,-15 0,-10.6512 -6.403688,-22.69421 3.571428,-26.42857 50.632719,-18.95522 44.107499,4.3488 45.000009,15 z"
       style="fill:none;stroke:#000000;stroke-width:1;stroke-miterlimit:4;stroke-opacity:1" />
    <path
       sodipodi:nodetypes="sssss"
       inkscape:connector-curvature="0"
       id="path8598"
       d="m 212.85715,662.36221 c -11.72839,5.47805 -20.74243,10.69562 -28.57143,8.57142 -13.70606,-3.7188 -25.71428,-11.17185 -25.71428,-21.42856 0,-10.25672 18.65554,-18.57143 32.85714,-18.57143 14.20165,0 41.66799,21.97523 21.42857,31.42857 z"
       style="fill:none;stroke:#000000;stroke-width:1;stroke-miterlimit:4;stroke-opacity:1" />
    <path
       style="fill:none;stroke:#000000;stroke-width:1;stroke-miterlimit:4;stroke-opacity:1"
       d="m 158.65625,454.50079 c -12.26531,1.8467 -26.22873,14.60977 -32.38436,24.81171 -4.80479,7.25347 0.83209,16.33224 6.7703,21.625 7.20007,6.41745 18.67803,18.10696 28.80156,16.67576 10.19814,-4.09821 13.99671,-21.17191 17.0021,-30.72853 4.86354,-9.49968 10.72976,-23.50527 -7.09585,-26.32223 -3.92189,-2.31392 -8.5719,-6.17858 -13.09375,-6.06171 z"
       id="path8600"
       inkscape:connector-curvature="0"
       sodipodi:nodetypes="ccscccc" />
    <path
       style="fill:none;stroke:#000000;stroke-width:1;stroke-miterlimit:4;stroke-opacity:1"
       d="m 274.35268,516.09375 c -13.33357,-4.76894 -27.00866,-0.36119 -32.25,15.53125 -9.67002,10.67008 -1.51775,16.19127 13.375,25.375 10.15238,6.81538 25.69595,17.24183 30.9375,-7.34375 3.56533,-1.58355 3.27611,-13.25739 2.4375,-26.0625 -1.36196,-6.55408 -8.83661,-7.88596 -14.5,-7.5 z"
       id="path8602"
       inkscape:connector-curvature="0"
       sodipodi:nodetypes="cccccc" />
    <path
       style="fill:none;stroke:#000000;stroke-width:1;stroke-miterlimit:4;stroke-opacity:1"
       d="m 113.61485,536.0625 c -10.97509,1.00977 -20.977063,-2.00968 -30.8336,2.78283 -7.427421,6.10481 -6.250569,22.96502 -6.04061,30.90467 -0.9971,10.28718 13.85974,21.86222 22.35311,23.59217 7.98595,2.01788 17.43605,1.52667 23.59375,-4.91641 8.06588,-7.18928 16.23259,-23.24442 14.66561,-33.98826 0.74562,-7.8653 0.73872,-17.12947 -7.99064,-18 -2.19537,-0.39951 -13.51123,-0.47871 -15.74762,-0.375 z"
       id="path8604"
       inkscape:connector-curvature="0"
       sodipodi:nodetypes="cccccccc" />
    <path
       style="fill:none;stroke:#000000;stroke-width:1;stroke-miterlimit:4;stroke-opacity:1"
       d="m 187.5625,628.95982 c -11.92914,0.89412 -24.69023,4.74768 -31.17857,15.5 -4.45221,9.61106 5.62387,21.64609 13.83482,25.59375 8.32745,4.43223 18.38425,5.74523 27.5625,1.3125 10.77463,-3.78976 22.47955,-5.74603 22.6875,-12.625 7.33942,-15.12847 -2.08501,-23.29916 -9.85714,-24.4375 -5.99971,-4.39159 -15.37126,-5.61321 -23.04911,-5.34375 z"
       id="path8606"
       inkscape:connector-curvature="0"
       sodipodi:nodetypes="ccccccc" />
    <path
       style="fill:none;stroke:#000000;stroke-width:1;stroke-miterlimit:4;stroke-opacity:1"
       d="m 152.25158,450.51094 c -14.89772,3.1445 -23.98476,13.65841 -31.62579,26.3336 -4.43589,10.60677 8.96272,25.55244 16.57186,31.64452 7.43598,6.30412 14.47248,18.10402 24.94845,15.78045 12.1901,-6.38851 14.70368,-26.90723 19.4164,-38.33201 3.74114,-7.11431 16.55914,-18.31144 8.56012,-24.03125 -4.57261,-3.12913 -13.54842,-4.0432 -17.65545,-8.0414 -2.48522,-1.38704 -17.30906,-3.56118 -20.21559,-3.35391 z"
       id="path8616"
       inkscape:connector-curvature="0"
       sodipodi:nodetypes="cccccccc" />
    <path
       style="fill:none;stroke:#000000;stroke-width:1;stroke-miterlimit:4;stroke-opacity:1"
       d="m 263.16518,512.3125 c -10.68796,0.22338 -24.91976,10.53278 -27.89451,18.34375 -4.80778,4.32575 -3.16586,17.43149 1.9992,22.08201 7.59715,0.0349 18.96439,7.09702 28.05156,15.4172 6.51992,3.6005 18.81648,5.4108 22.34296,-1.68829 2.5263,-3.9627 3.78378,-24.93883 6.4789,-28.66245 2.12848,-8.63748 0.54457,-8.97686 -0.91645,-17.65862 -2.98016,-7.1311 -15.53052,-9.79026 -21.82186,-10.78046 -2.98079,-0.84466 -5.11777,2.80038 -8.23985,2.94686 z"
       id="path8618"
       inkscape:connector-curvature="0"
       sodipodi:nodetypes="cccccccccc" />
    <path
       style="fill:none;stroke:#000000;stroke-width:1;stroke-miterlimit:4;stroke-opacity:1"
       d="m 97.864055,534.0625 c -7.587516,-0.0597 -19.054169,-3.08576 -21.082805,5.35549 -2.928628,9.6589 -3.716239,30.33915 -2.541403,40.25777 6.112659,16.57453 25.608935,27.1616 41.979693,18.9375 13.49734,-6.12268 31.14337,-25.14997 26.34217,-45.06012 -0.14127,-7.58838 1.93101,-18.59122 -6.65625,-22.375 -12.02952,-2.64688 -25.79739,3.89228 -38.041405,2.88436 z"
       id="path8620"
       inkscape:connector-curvature="0"
       sodipodi:nodetypes="ccccccc" />
    <path
       style="fill:none;stroke:#000000;stroke-width:1;stroke-miterlimit:4;stroke-opacity:1"
       d="m 181.47033,626.95982 c -13.06126,0.86218 -27.30653,4.74756 -32.73984,17.73985 -2.5749,12.69235 8.75978,26.00362 19.75,30.0828 9.38982,4.0434 22.95532,3.29822 31.96795,-0.83359 6.97238,-2.76317 19.50818,-5.64516 21.92656,-14.08281 3.76941,-7.65775 10.37291,-18.48784 2.71717,-24.03125 -4.15877,-2.91276 -12.16687,-5.97534 -16.53046,-8.42656 -5.71828,-2.04936 -21.01776,-0.63185 -27.09138,-0.44844 z"
       id="path8622"
       inkscape:connector-curvature="0"
       sodipodi:nodetypes="cccccccc" />
    <path
       style="fill:none;stroke:#000000;stroke-width:1;stroke-miterlimit:4;stroke-opacity:1"
       d="m 151.8125,448.5625 c -15.39486,3.10429 -32.84716,17.08015 -39.33929,30.77232 -2.15662,12.09762 10.32252,25.28652 18.29465,33.01339 11.28765,3.74823 18.85799,18.26807 30.16964,18.43751 9.3213,-2.42279 16.26675,-14.35272 19.29962,-22.6158 3.1676,-9.55472 10.6131,-21.43114 17.99056,-28.86635 3.90359,-4.62548 -0.47823,-26.16187 -7.00893,-30.51339 -6.08676,-3.51806 -10.62409,2.6889 -16.29911,-1.51339 -6.54934,-1.71294 -16.32852,1.3206 -23.10714,1.28571 z"
       id="path8632"
       inkscape:connector-curvature="0"
       sodipodi:nodetypes="ccccccccc" />
    <path
       style="fill:none;stroke:#000000;stroke-width:1;stroke-miterlimit:4;stroke-opacity:1"
       d="m 269.85268,507.28125 c -3.56245,0.81176 -13.35224,3.97624 -17.33036,3.375 -12.87587,2.89225 -23.68765,12.30012 -27.57143,25.09375 -0.79185,6.61654 6.23912,19.90039 12.30804,23.28571 11.33234,0.97139 18.35227,9.68695 27.10268,15.875 7.53266,3.62085 21.79007,0.6372 25.64732,-8.69196 2.98531,-10.15774 3.07896,-21.11822 6.75,-30.96875 0.94562,-6.09675 -0.22031,-12.8379 -3.03125,-18.21875 -5.6679,-6.78421 -15.5166,-8.79074 -23.875,-9.75 z"
       id="path8634"
       inkscape:connector-curvature="0"
       sodipodi:nodetypes="ccccccccc" />
    <path
       style="fill:none;stroke:#000000;stroke-width:1;stroke-miterlimit:4;stroke-opacity:1"
       d="m 127.47768,525.70536 c -12.98148,0.6633 -24.24683,2.51169 -37.38393,0.14285 -6.188549,-0.96811 -21.701023,3.90812 -22.674107,11.1384 -2.845978,13.44182 1.85133,29.1636 3.808036,42.74107 1.71963,30.62032 27.63879,39.37482 44.437501,30.70982 16.20874,-8.08383 33.10144,-25.3986 30.82589,-44.4375 -1.34323,-8.46581 7.7313,-24.51359 -0.94196,-30.03571 -2.74088,-1.77727 -14.91486,-10.20612 -18.07143,-10.25893 z"
       id="path8636"
       inkscape:connector-curvature="0"
       sodipodi:nodetypes="cccccccc" />
    <path
       style="fill:none;stroke:#000000;stroke-width:1;stroke-miterlimit:4;stroke-opacity:1"
       d="m 195.125,624.33482 c -15.68058,0.47257 -34.86337,0.47489 -45.25,14.28125 -7.68341,9.56335 -10.02465,26.01982 -2.22768,33.41964 12.6736,12.62392 41.83328,9.81265 57.26338,2.40086 8.22629,-2.62805 23.31696,-6.5304 25.9246,-15.60541 3.63537,-6.90887 3.42315,-24.52176 -3.7103,-31.10795 -6.42037,-4.13508 -7.87103,-0.64128 -15.06696,-2.88839 -3.6783,-0.5953 -13.20183,-0.54857 -16.93304,-0.5 z"
       id="path8638"
       inkscape:connector-curvature="0"
       sodipodi:nodetypes="cccccccc" />
    <path
       style="fill:none;stroke:#000000;stroke-width:1;stroke-miterlimit:4;stroke-opacity:1"
       d="m 168.6875,443.26602 c -10.91849,1.21586 -24.33854,2.85229 -33.92212,8.97604 -11.00461,6.457 -21.50406,15.47019 -26.41069,27.44544 -1.11021,14.14213 12.1754,25.2029 21.33281,34.375 11.88829,3.87685 18.40879,21.7652 31.8125,21.68671 13.5172,-4.41291 18.75627,-22.17505 23.625,-34.15546 3.8313,-8.40264 11.89599,-15.52856 17.61406,-22.59375 2.5201,-9.7701 0.0446,-20.57386 -5.05743,-29.03125 -3.36233,-5.69246 -13.21799,-6.35235 -18.55663,-5.20781 -3.44382,-1.06653 -6.57436,-2.13126 -10.4375,-1.49492 z"
       id="path8652"
       inkscape:connector-curvature="0"
       sodipodi:nodetypes="cccccccccc" />
    <path
       style="fill:none;stroke:#000000;stroke-width:1;stroke-miterlimit:4;stroke-opacity:1"
       d="m 269.84883,504.3336 c -6.89754,2.46846 -14.56224,1.31321 -21.53633,2.89102 -12.21564,4.01523 -23.29196,17.00693 -25.40625,29.93163 1.02708,9.26378 5.90066,18.57903 13.6875,23.8125 11.82168,0.53047 18.92309,13.00592 28.65625,17.95273 11.72535,3.83601 27.53332,-4.71138 28.15625,-18.10898 1.37917,-9.37671 3.41392,-18.67807 5.59375,-27.78125 0.63424,-9.06233 -2.32634,-19.75438 -11.53125,-23.28125 -5.62897,-2.681 -11.4426,-5.04549 -17.61992,-5.4164 z"
       id="path8654"
       inkscape:connector-curvature="0"
       sodipodi:nodetypes="ccccccccc" />
    <path
       style="fill:none;stroke:#000000;stroke-width:1;stroke-miterlimit:4;stroke-opacity:1"
       d="m 85.260945,523.24492 c -8.18678,0.96704 -21.215454,10.07692 -24.046659,18.78187 -3.288613,17.43602 4.622543,33.30146 6.303571,50.54017 2.869883,15.92344 20.762517,28.90545 37.294643,27.25 15.0368,-1.80872 20.50422,-1.17078 29.32589,-12.85267 6.08218,-8.20605 15.43886,-18.57264 14.18864,-28.68007 3.52319,-1.84918 5.7854,-33.2417 0.048,-42.56547 -6.57706,-4.43323 -15.93146,-11.94032 -23.77792,-13.76777 -13.10334,0.95475 -17.02695,4.22161 -29.999838,2.02031 l -7.063454,-2.73928 z"
       id="path8656"
       inkscape:connector-curvature="0"
       sodipodi:nodetypes="ccccccccccc" />
    <path
       style="fill:none;stroke:#000000;stroke-width:1;stroke-miterlimit:4;stroke-opacity:1"
       d="m 188.52776,622.34375 c -16.71495,0.23152 -32.95639,-1.56631 -43.52189,13.47462 -6.85385,9.78766 -8.70542,30.15281 -0.0785,39.86326 12.58122,11.76999 25.37528,12.29673 41.12151,8.82773 7.94262,3.92318 27.51915,-10.3254 36.79489,-14.66561 12.33724,-5.5539 13.90193,-21.09398 11.25,-32.8125 -1.16439,-6.9851 -6.54154,-14.25173 -14.34375,-13.46875 -6.98334,0.0159 -8.28648,-1.96299 -15.41291,-1.25 -1.22917,0.0104 -4.98371,-1.49443 -6.21288,-1.48403 z"
       id="path8658"
       inkscape:connector-curvature="0"
       sodipodi:nodetypes="cccccccccc" />
    <path
       style="fill:none;stroke:#000000;stroke-width:1;stroke-miterlimit:4;stroke-opacity:1"
       d="m 170,439.83106 c -15.39191,1.36467 -34.42706,5.44111 -46.74554,15.41894 -8.65993,6.54935 -14.46637,14.87391 -16.97321,25.75 0.13657,14.93486 12.85914,25.56097 22.78125,34.96875 7.05821,2.70432 11.82179,9.29554 17.30643,14.5277 1.29867,1.23889 2.63778,2.40158 4.05734,3.41844 2.99824,2.14767 6.60795,4.14984 10.70127,4.34019 12.71248,-2.8544 20.12765,-18.55836 24.51135,-29.54444 3.24168,-12.24439 10.42019,-17.48665 18.44978,-26.75283 7.99238,-2.84973 0.20312,-27.79946 -7.71875,-36.65292 -5.10935,-4.14983 -11.2401,-3.86458 -17.45859,-3.59375 -2.71387,-0.89403 -6.02287,-2.0619 -8.91133,-1.88008 z"
       id="path8668"
       inkscape:connector-curvature="0"
       sodipodi:nodetypes="ccccsscccccc" />
    <path
       style="fill:none;stroke:#000000;stroke-width:1;stroke-miterlimit:4;stroke-opacity:1"
       d="m 269.21875,501.00893 c -9.63412,3.10092 -21.31842,-2.09676 -29.84375,4.82589 -9.48974,6.66725 -19.72075,20.7162 -20.48661,32.54018 1.52588,9.81232 8.88926,20.3535 18.04911,24.625 14.18959,1.15257 16.81935,20.07455 31.74107,18.8125 12.09687,-0.29689 27.12853,-10.36907 27.05032,-22.88005 0.9076,-10.61347 5.6728,-20.65983 5.23986,-31.3387 -0.45421,-9.50833 -6.42887,-21.35663 -15.875,-24.01339 -5.02101,-2.09445 -10.38165,-2.69915 -15.875,-2.57143 z"
       id="path8670"
       inkscape:connector-curvature="0"
       sodipodi:nodetypes="ccccccccc" />
    <path
       style="fill:none;stroke:#000000;stroke-width:1;stroke-miterlimit:4;stroke-opacity:1"
       d="m 86.1875,519.71875 c -3.854069,3.04698 -7.923191,1.48741 -11.859771,4.70098 -8.254915,5.11755 -18.556137,13.53461 -17.405458,23.90625 0.01078,15.42686 6.702839,31.06246 8.413865,46.19766 5.288488,18.54101 27.784807,32.2752 46.665684,27.85032 9.18879,-0.28372 17.63013,-5.32895 22.90443,-13.12396 6.79016,-9.14269 15.89339,-16.80621 16.00254,-28.82598 4.27909,-11.09457 3.97037,-25.69668 2.59268,-37.38097 -0.26841,-3.30853 -2.02761,-6.23531 -4.00195,-8.66361 -1.3731,-1.68881 -3.15564,-3.07545 -5.34327,-4.03569 -7.81716,-5.1111 -16.36669,-14.42406 -26.40625,-11.39277 -10.16634,2.17142 -17.843852,5.35881 -27.342004,-0.0447 l -2.523456,-1.11284 z"
       id="path8672"
       inkscape:connector-curvature="0"
       sodipodi:nodetypes="ccccccccsccccc" />
    <path
       style="fill:none;stroke:#000000;stroke-width:1;stroke-miterlimit:4;stroke-opacity:1"
       d="m 187.45536,619.41071 c -15.63026,3.59796 -30.73576,-1.70001 -44.37947,8.77233 -13.35302,10.28927 -14.41492,26.56787 -7.32589,41.40178 8.24075,12.89278 25.38266,22.3555 39.84375,19.40625 4.9713,-1.66263 11.55515,7.55237 20.09375,-0.10268 11.39563,-4.20915 21.62004,-13.92163 32.0625,-19.63839 11.19072,-8.8799 12.34491,-25.93793 7.57143,-38.28125 -2.87001,-7.05028 -11.34011,-11.07538 -18.67411,-10.09821 -6.0124,-1.67094 -10.47534,-0.31794 -16.30803,-2.38393 -0.18645,0.021 -6.80909,-0.39195 -6.99108,-0.32595 z"
       id="path8674"
       inkscape:connector-curvature="0"
       sodipodi:nodetypes="ccccccccccc" />
    <path
       sodipodi:nodetypes="cccccccccccccccccccccccccccc"
       inkscape:connector-curvature="0"
       id="path8684"
       d="m 144.15625,530.34375 c 2.18763,0.96024 3.97017,2.34688 5.34327,4.03569 l 0,0 c 1.97434,2.4283 3.73354,5.35508 4.00195,8.66361 1.37769,11.68429 1.68641,26.2864 -2.59268,37.38097 -0.10915,12.01977 -9.21238,19.68329 -16.00254,28.82598 -5.2743,7.79501 -13.71564,12.84024 -22.90443,13.12396 -18.880877,4.42488 -41.377196,-9.30931 -46.665684,-27.85032 -1.711026,-15.1352 -8.403085,-30.7708 -8.413865,-46.19766 -1.150679,-10.37164 9.150543,-18.7887 17.405458,-23.90625 3.93658,-3.21357 8.005702,-1.654 11.859771,-4.70098 l 1.69704,-1.92531 2.523456,1.11284 c 9.498152,5.40351 17.175664,2.21612 27.342004,0.0447 10.03956,-3.03129 18.58909,6.28167 26.40625,11.39277 l 2.21268,0.1527 c 1.29867,1.23889 2.63778,2.40158 4.05734,3.41844 l 0,0 c 2.99824,2.14767 6.60795,4.14984 10.70127,4.34019 12.71248,-2.8544 20.12765,-18.55836 24.51135,-29.54444 3.24168,-12.24439 10.42019,-17.48665 18.44978,-26.75283 7.99238,-2.84973 0.20312,-27.79946 -7.71875,-36.65292 -5.10935,-4.14983 -11.2401,-3.86458 -17.45859,-3.59375 -2.71387,-0.89403 -6.02287,-2.0619 -8.91133,-1.88008 -15.39191,1.36467 -34.42706,5.44111 -46.74554,15.41894 -8.65993,6.54935 -14.46637,14.87391 -16.97321,25.75 0.13657,14.93486 12.85914,25.56097 22.78125,34.96875 7.05821,2.70432 11.82179,9.29554 17.30643,14.5277"
       style="fill:none;stroke:#000000;stroke-width:1;stroke-miterlimit:4;stroke-opacity:1" />
    <path
       sodipodi:nodetypes="ccccccccc"
       inkscape:connector-curvature="0"
       id="path8686"
       d="m 269.21875,501.00893 c -9.63412,3.10092 -21.31842,-2.09676 -29.84375,4.82589 -9.48974,6.66725 -19.72075,20.7162 -20.48661,32.54018 1.52588,9.81232 8.88926,20.3535 18.04911,24.625 14.18959,1.15257 16.81935,20.07455 31.74107,18.8125 12.09687,-0.29689 27.12853,-10.36907 27.05032,-22.88005 0.9076,-10.61347 5.6728,-20.65983 5.23986,-31.3387 -0.45421,-9.50833 -6.42887,-21.35663 -15.875,-24.01339 -5.02101,-2.09445 -10.38165,-2.69915 -15.875,-2.57143 z"
       style="fill:none;stroke:#000000;stroke-width:1;stroke-miterlimit:4;stroke-opacity:1" />
    <path
       sodipodi:nodetypes="ccccccccccc"
       inkscape:connector-curvature="0"
       id="path8690"
       d="m 187.45536,619.41071 c -15.63026,3.59796 -30.73576,-1.70001 -44.37947,8.77233 -13.35302,10.28927 -14.41492,26.56787 -7.32589,41.40178 8.24075,12.89278 25.38266,22.3555 39.84375,19.40625 4.9713,-1.66263 11.55515,7.55237 20.09375,-0.10268 11.39563,-4.20915 21.62004,-13.92163 32.0625,-19.63839 11.19072,-8.8799 12.34491,-25.93793 7.57143,-38.28125 -2.87001,-7.05028 -11.34011,-11.07538 -18.67411,-10.09821 -6.0124,-1.67094 -10.47534,-0.31794 -16.30803,-2.38393 -0.18645,0.021 -6.80909,-0.39195 -6.99108,-0.32595 z"
       style="fill:none;stroke:#000000;stroke-width:1;stroke-miterlimit:4;stroke-opacity:1" />
    <path
       style="fill:none;stroke:#000000;stroke-width:1;stroke-miterlimit:4;stroke-opacity:1"
       d="m 167.34962,437.84375 c -22.55835,1.89892 -48.08383,8.91779 -60.66133,29.25 -4.40504,7.04785 -6.825751,15.86443 -3.05742,23.84375 3.9619,10.8288 16.44018,19.08364 23.80663,26.40625 -11.27366,-3.75924 -22.5128,6.34506 -33.6875,1 -3.304777,-1.55023 -7.110848,-4.67057 -9.125,0.0312 -4.451583,2.29084 -10.043616,2.1294 -13.824513,5.94084 C 61.663624,530.1138 52.920436,539.66603 55,551.34375 c 1.081574,15.49892 6.666312,30.31979 9,45.59375 7.291411,19.86876 30.108616,34.13046 50.78125,29.23906 11.33964,-1.08495 19.5753,-10.2549 25.65625,-19.16133 6.34326,-7.14923 12.38606,-17.0631 12.71875,-26.98398 5.61646,-19.7468 4.05456,-27.36 1.5625,-40.6875 -0.67667,-1.7242 4.30551,2.15524 5.6664,1.76015 10.31507,-0.0823 16.47904,-7.17606 21.16299,-15.34878 6.0195,-9.91285 7.24069,-21.73147 16.18863,-29.85925 3.19628,-4.50794 11.34346,-11.41965 13.98119,-16.17712 2.47864,-11.41972 -3.34174,-23.07648 -8.97383,-32.71875 -6.43815,-11.86921 -13.24862,-7.50719 -20.90891,-7.62381 -2.72255,-0.82567 -11.59819,-1.73196 -14.4856,-1.53244 z"
       id="path8700"
       inkscape:connector-curvature="0"
       sodipodi:nodetypes="cccccccccccccccccccc" />
    <path
       style="fill:none;stroke:#000000;stroke-width:1;stroke-miterlimit:4;stroke-opacity:1"
       d="m 263.625,497.66518 c -12.32677,-0.41424 -23.71367,0.36859 -30.69196,10.8125 -10.30439,8.33158 -15.67856,18.15317 -16.74108,31.73214 2.16412,11.16768 7.41953,20.86906 18.35715,24.85268 12.20233,1.96225 21.75694,21.58875 34.87053,21.66964 14.82309,0.37046 28.8381,-13.61646 28.48661,-29.54464 2.30808,-13.80505 9.77239,-29.66545 2.40179,-43.18304 -5.06784,-12.20793 -24.4653,-17.06499 -36.68304,-16.33928 z"
       id="path8702"
       inkscape:connector-curvature="0"
       sodipodi:nodetypes="cccccccc" />
    <path
       style="fill:none;stroke:#000000;stroke-width:1;stroke-miterlimit:4;stroke-opacity:1"
       d="m 192.9375,614.67227 c -16.17763,5.38074 -35.21939,-0.41346 -49.78125,9.97383 -13.74179,8.73716 -20.5794,28.65555 -14.00428,42.9164 7.02167,14.57877 28.57226,26.11447 44.70701,25.42148 6.76685,-2.79762 11.04091,3.02917 17.85977,0.51602 8.7206,-4.38917 17.59829,-6.4077 25.46875,-12.47462 7.08596,-5.23921 18.15588,-11.77697 21.55156,-20.59296 4.7598,-10.90615 2.63132,-24.33002 -4.05156,-34.36992 -4.66557,-6.17425 -12.73194,-7.53792 -19.9375,-7.65625 -7.39455,-0.34951 -14.40934,-3.76659 -21.8125,-3.73398 z"
       id="path8704"
       inkscape:connector-curvature="0"
       sodipodi:nodetypes="cccccccccc" />
    <path
       style="fill:none;stroke:#000000;stroke-width:1;stroke-miterlimit:4;stroke-opacity:1"
       d="m 167.96429,431.55804 c -23.56457,1.91036 -50.49206,13.72601 -63.40179,35.16071 -6.2359,9.29751 -6.384107,22.03358 0.40625,31.125 4.15556,6.43712 11.43016,11.93183 16.0625,16.65625 -9.81719,0.49663 -18.44759,6.28522 -27.513393,-0.30804 -2.862274,-1.92735 -9.02546,-0.28614 -10.611607,2.77679 -6.610298,1.55318 -12.5234,4.22908 -17.5625,8.78125 -8.857357,6.43826 -14.804968,17.57925 -12.09375,28.6875 1.758704,14.92832 6.507951,29.42199 9.25,44.1875 8.493862,21.75249 32.055072,38.64445 54.82589,31.54464 13.76919,-4.09751 21.42461,-13.91543 29.40625,-24.77232 6.34726,-9.69287 11.68662,-23.59199 14.37587,-34.56794 1.55248,-7.93544 -2.56184,-21.23531 -3.57676,-28.45438 9.63799,2.86894 17.05156,1.00053 21.73214,-6.84821 7.55315,-10.9435 11.12522,-31.04641 21.45536,-40.18304 4.98992,-6.60248 17.31152,-11.6462 16.45089,-21.0625 -0.38881,-12.39418 -9.31864,-26.22905 -16.63839,-35.89286 -5.04204,-5.91669 -13.10565,-0.77648 -19.59375,-1.29464 -4.50887,-0.77327 -8.38166,-5.63752 -12.97321,-5.53571 z"
       id="path8712"
       inkscape:connector-curvature="0"
       sodipodi:nodetypes="ccccccccccccccccccc" />
    <path
       style="fill:none;stroke:#000000;stroke-width:1;stroke-miterlimit:4;stroke-opacity:1"
       d="m 256.75,495.625 c -10.05342,-0.26254 -20.34024,3.71228 -26.125,12.125 -10.12861,8.41274 -17.3246,21.70738 -15.9375,35 2.27582,11.80845 10.69005,22.83814 22.90625,25.34375 11.6007,5.64595 18.85687,21.15695 33.3125,20.625 16.46228,-0.66588 29.68591,-16.33248 29.1875,-32.5 3.02813,-14.26321 9.50262,-30.52073 1.46875,-44.28125 -7.21502,-12.49472 -23.3223,-16.32201 -36.84375,-16.3125 -2.65433,0.0565 -5.31265,-0.12209 -7.96875,0 z"
       id="path8714"
       inkscape:connector-curvature="0" />
    <path
       style="fill:none;stroke:#000000;stroke-width:1;stroke-miterlimit:4;stroke-opacity:1"
       d="m 192.375,612.78125 c -16.84553,5.18908 -36.90371,-0.48741 -51.6875,11.09375 -16.21751,11.34152 -22.40458,37.85732 -7.6875,52.84375 10.49069,11.07401 25.86517,18.79099 41.46875,18.15625 6.49952,-2.32767 13.46125,4.16452 19.75,-0.34375 10.96229,-4.40555 21.76729,-9.00367 30.81697,-16.63918 9.78165,-6.18097 18.06114,-16.02324 18.21428,-28.11082 0.24333,-10.60443 -2.72715,-22.62031 -11.5625,-29.1875 -8.98374,-5.81822 -20.46243,-3.003 -30.125,-6.8125 -3.00727,-0.60661 -6.11827,-1.3194 -9.1875,-1 z"
       id="path8716"
       inkscape:connector-curvature="0" />
    <path
       style="fill:none;stroke:#000000;stroke-width:1;stroke-miterlimit:4;stroke-opacity:1"
       d="m 253.17857,491.48214 c -11.44126,-0.61447 -18.80216,7.26782 -25.55926,16.23529 -12.19029,10.88719 -23.63337,33.07415 -14.94074,48.45221 4.19785,8.58087 15.84847,12.01186 25.04018,14.26786 10.97155,6.3509 23.39413,21.82695 37.5,21.70982 18.24977,-0.0852 30.55603,-24.95922 29.95089,-42.58036 3.66246,-14.765 7.28894,-28.91085 -2.33035,-42.61607 -9.42899,-14.48653 -24.13052,-19.28796 -49.66072,-15.46875 z"
       id="path8726"
       inkscape:connector-curvature="0"
       sodipodi:nodetypes="cccccccc" />
    <path
       style="fill:none;stroke:#000000;stroke-width:1;stroke-miterlimit:4;stroke-opacity:1"
       d="m 141.46455,618.959 c 5.45758,-2.58462 -0.90418,-3.2703 4.67122,-4.74547 3.43622,-5.15705 3.60316,-7.92765 6.92673,-15.90103 4.61854,-10.30707 9.95461,-21.03205 10.375,-32.5 -0.25241,-6.99071 -2.03929,-13.86241 -3.40625,-20.75 8.99669,2.62559 18.57743,-2.2711 22.34375,-10.6875 7.8033,-14.03572 10.70945,-31.45953 23.84411,-41.75478 6.46336,-4.95569 14.94129,-11.65011 12.74964,-20.93272 -1.93789,-13.55489 -9.76622,-25.5524 -18.1875,-35.875 -6.51329,-5.8376 -15.24301,1.66029 -22.21875,-1.71875 -3.97024,-2.3291 -8.09242,-5.52818 -13,-4.3125 -26.48002,2.9397 -54.32857,16.78795 -65.78125,41.8125 -4.82834,11.97549 -0.182771,25.70844 9.07179,34.12353 1.41127,2.51913 8.87645,6.36828 6.39696,7.53272 -7.18384,1.92043 -15.532685,3.79584 -21.875,-1.34375 -4.308481,-1.5986 -9.133088,0.43357 -12.1875,3.4375 -15.038158,3.95351 -29.870285,16.47301 -30.59375,32.875 1.260754,17.72248 6.807998,34.94454 10.46875,52.25 8.398426,20.43729 30.332027,35.91784 53.5,32.5 6.38912,-0.94255 9.33374,-0.14671 14.38833,-3.56672 m 12.14498,-9.96326 c 29.08993,-12.72083 31.29755,-4.14936 47.43544,-8.72002 3.23568,-0.009 18.01393,0.53851 21.08482,1.53125 11.36294,3.46343 19.98312,0.26765 27.97768,11.28125 9.72843,13.14454 14.57576,33.69013 3.32143,46.375 -10.91337,11.64167 -28.91358,24.86973 -43.84366,30.62184 -5.51184,4.06167 -20.21109,-2.67484 -26.24116,-4.12184 -18.52198,2.6233 -33.02963,-6.70026 -44.87054,-20.59375 -11.18153,-14.23824 -5.53802,-35.77487 6.34368,-49.35915 2.29242,-2.14802 2.54555,-2.66099 4.98263,-5.21695"
       id="path8728"
       inkscape:connector-curvature="0"
       sodipodi:nodetypes="ccccccccccccccccccsccccccccccc" />
    <path
       style="fill:none;stroke:#000000;stroke-width:1;stroke-miterlimit:4;stroke-opacity:1"
       d="m 266.40625,483.25 c -7.94397,0.87245 -14.76671,5.32895 -22.32143,8.09375 -10.03987,4.64077 -17.19887,14.70257 -24.70982,22.375 -9.5191,12.23307 -20.2007,30.73715 -11.04018,45.15625 5.93207,9.07754 21.09148,10.81221 30.38393,14.53125 11.88813,7.95012 22.72868,25.21528 38.40625,24.22768 16.07435,-1.99158 25.48731,-21.91723 28.84375,-36.29018 1.30605,-7.82335 3.71825,-15.72459 6.04452,-23.35813 3.29821,-13.64753 -0.22112,-28.73474 -10.46416,-38.51687 -8.33652,-8.96016 -23.23924,-16.64409 -35.14286,-16.21875 z"
       id="path8736"
       inkscape:connector-curvature="0"
       sodipodi:nodetypes="cccccccccc" />
    <path
       style="fill:none;stroke:#000000;stroke-width:1;stroke-miterlimit:4;stroke-opacity:1"
       d="m 158.64732,427.53125 c -27.91104,2.72088 -48.62555,11.94426 -60.74107,38.34375 -6.053276,14.69689 1.817146,36.27946 13.77724,45.22295 1.72975,1.79128 -4.73198,1.56375 -6.46474,2.0583 -5.588838,1.46099 -9.575584,-3.41505 -14.71875,-3.8125 -6.36526,-0.20122 -10.603512,5.2641 -16.605562,6.42769 -15.49998,6.20377 -28.884314,22.88972 -24.48225,40.3137 2.428464,15.94464 6.434979,31.67774 10.681562,47.19611 9.571064,21.18008 31.021677,39.98114 54.41212,35.44686 2.2828,0.002 8.68632,-4.95294 10.08788,-4.85311 -8.51704,14.04262 -12.61104,34.19386 0.35038,46.09538 10.70501,12.12527 28.92042,24.57296 45.42579,22.06515 9.38158,2.53187 19.48498,9.68237 28.86485,3.69766 16.45859,-7.77366 34.08334,-21.79568 45.80156,-35.71796 9.74004,-15.04712 2.09883,-39.33495 -8.48398,-52.25936 -7.09397,-8.99355 -26.54956,-7.35157 -36.38357,-10.34375 -9.22933,-1.18772 -12.15137,-2.81532 -21.18401,-0.82265 -10.81394,-0.46695 -20.59015,3.48023 -30.51602,7.69178 4.7686,-9.26401 11.93626,-19.55511 16.50936,-29.03125 4.45099,-10.33246 1.70774,-21.93804 -1.35311,-32.875 -1.11449,-3.26129 -1.58054,-5.61752 2.46875,-4.625 10.27901,-0.26093 17.57599,-8.96552 20.8125,-17.96875 6.17962,-13.91994 10.73472,-29.9452 24.375,-38.59375 6.81491,-5.05675 15.88636,-13.67869 12.79018,-22.4375 -2.96892,-13.5008 -13.9791,-27.96221 -23.50893,-37.73661 -7.77637,-5.08634 -19.09348,6.18638 -26.24107,-0.95089 -2.59003,-1.49962 -12.62234,-2.67924 -15.67411,-2.53125 z"
       id="path8738"
       inkscape:connector-curvature="0"
       sodipodi:nodetypes="ccccccccccccccccccccccccccc" />
    <path
       style="fill:none;stroke:#000000;stroke-width:1;stroke-miterlimit:4;stroke-opacity:1"
       d="m 257.77232,478.39286 c -9.59948,1.4013 -18.37042,14.86577 -27,18.94643 -10.15595,7.16905 -16.23416,14.68781 -23.63985,24.52669 -7.95545,11.50306 -10.1522,29.04607 -2.34229,42.38402 7.12208,11.5955 24.02088,6.24081 34.71929,12.17467 11.57516,8.83438 20.24055,26.87177 36.43696,26.05747 15.80362,-2.374 14.34965,5.24795 34.25991,-31.62185 2.27474,-10.84463 2.00035,-19.27559 4.51241,-30.02547 2.91942,-16.70615 -6.91606,-45.18752 -20.80357,-54.39732 -8.45051,-5.87359 -25.6525,-8.2367 -36.14286,-8.04464 z"
       id="path8744"
       inkscape:connector-curvature="0"
       sodipodi:nodetypes="cccccccccc" />
    <path
       style="fill:none;stroke:#000000;stroke-width:1;stroke-miterlimit:4;stroke-opacity:1"
       d="m 155.84375,425.8125 c -20.84897,1.84309 -46.03546,9.74419 -57.540179,28.06696 -7.118539,9.43568 -8.696036,26.13648 -5.258928,37.69197 2.230527,8.52894 8.567177,13.10179 15.080357,19.17857 -4.61216,1.29612 -9.15602,0.31231 -13.21875,-2.3125 -8.582687,-4.04672 -18.392877,2.94766 -26.200893,4.69643 -15.992548,6.98771 -28.206255,26.41026 -23.227407,44.38569 2.850866,16.39805 6.279469,34.36228 11.629193,50.0652 9.298154,18.90189 29.796412,34.47657 52.049107,33.79018 3.68803,-0.20496 7.56023,-0.5467 10.625,-2.75 -6.61175,13.28382 -8.17117,32.10032 3.78125,42.78125 11.87729,13.08556 27.97343,28.81362 46.41071,27.09821 9.15503,3.0812 21.0305,5.06529 30.30804,-1.06696 21.73477,-1.97778 45.06558,-13.78744 51.69196,-41.50893 8.33051,-16.58953 0.54044,-36.11912 -9.61617,-50.46528 -7.4328,-10.88148 -30.24713,-9.02269 -41.63829,-11.04365 -9.43957,-2.01143 -14.15068,-6.1197 -23.75,-4.14285 -8.12884,-0.26622 -17.30918,7.53804 -23.84375,9.69196 6.62958,-12.6481 24.42094,-24.72775 22.52232,-40.0625 -0.46079,-6.92032 -9.04309,-13.86393 -10.64732,-20.34375 12.58766,0.93269 20.65452,-4.43843 24.19196,-15.22768 5.48193,-13.86025 12.00593,-35.18947 25.42903,-43.21402 7.17456,-5.49897 18.32878,-14.51073 14.66919,-24.1833 -4.36431,-14.77705 -18.20486,-29.97302 -29.28572,-40.26786 -7.89314,-4.40521 -13.02631,2.55255 -20.67857,-1.6741 -5.66792,-3.75086 -16.83325,0.45486 -23.48214,0.81696 z"
       id="path8746"
       inkscape:connector-curvature="0"
       sodipodi:nodetypes="cccccccccccccccccccccccccc" />
    <path
       style="fill:none;stroke:#000000;stroke-width:1;stroke-miterlimit:4;stroke-opacity:1"
       d="m 257.71875,476.40625 c -12.45884,2.49872 -19.09798,15.30024 -30.03125,20.6875 -10.6369,8.42208 -20.28787,18.85578 -26.28125,31.09375 -5.31873,13.03754 -5.1637,30.07638 4.75,40.8125 10.43915,9.46335 28.1516,1.83344 37.1875,13.5625 9.02886,9.25086 18.2556,22.80975 32.84375,21.875 7.0317,-0.63704 15.74211,0.10317 20.15625,-6.75 6.34333,-8.42763 11.633,-17.88031 16.0253,-27.42088 1.70279,-11.48788 3.26559,-22.94297 4.8497,-34.42287 -0.26862,-18.14935 -6.58838,-37.20116 -20.125,-49.5625 -11.07302,-8.24798 -25.97046,-9.58041 -39.375,-9.875 z"
       id="path8752"
       inkscape:connector-curvature="0" />
    <path
       style="fill:none;stroke:#000000;stroke-width:1;stroke-miterlimit:4;stroke-opacity:1"
       d="m 171.84375,421.46875 c -16.50148,2.60303 -33.70678,3.36609 -49.125,10.375 -17.77954,7.16739 -32.997839,23.53126 -33.322976,43.49733 -0.94382,12.06914 2.525962,25.01559 12.604226,32.50267 3.84803,2.83602 -3.119851,0.68288 -4.5625,-0.21875 -9.769914,-6.27819 -20.808384,1.43895 -30.3125,4.03125 -17.590786,8.119 -29.062691,29.19683 -23.248497,48.34497 3.397425,17.23354 5.877258,35.123 12.904747,51.21753 11.263365,20.28064 34.486044,35.43016 58.3125,31.5 1.74856,0.0153 -1.33724,4.45844 -1.125,6.25 -3.46933,12.82808 -0.2754,27.69962 10.40625,36.25 11.7417,12.61083 26.76123,26.52637 45.34375,25.3125 10.00422,3.34517 21.88949,4.77978 31.25,-1.15625 21.51368,-1.66472 42.97414,-14.45015 50.59375,-35.375 3.33451,-9.68412 7.76177,-19.77013 5.34375,-30.34375 -2.33005,-12.02328 -7.65215,-24.02959 -16.25,-32.875 -14.58665,-10.34098 -34.14408,-4.2549 -49.8125,-11.4375 -10.89415,-3.71777 -22.86432,-0.43914 -32.1875,5.78125 8.07008,-10.89995 21.44443,-21.92494 18.75,-37.03125 -1.06653,-6.18955 -7.76903,-11.6448 -8.96875,-16.4375 10.76366,0.44211 20.39614,-7.28925 23.01225,-17.59074 6.15373,-15.62371 11.35106,-33.80249 26.58599,-43.05907 7.27685,-5.72914 16.77123,-14.49505 13.12051,-24.75644 -5.60911,-16.70361 -18.0227,-30.43772 -31.0625,-41.8125 -7.01988,-3.86 -15.15335,2.98136 -21.8125,-2.15625 -2.04727,-0.74421 -4.27008,-0.89113 -6.4375,-0.8125 z"
       id="path8754"
       inkscape:connector-curvature="0" />
  </g>
</svg>
