<?xml version="1.0" encoding="UTF-8" standalone="no"?>
<!-- Created with Inkscape (http://www.inkscape.org/) -->

<svg
   xmlns:dc="http://purl.org/dc/elements/1.1/"
   xmlns:cc="http://creativecommons.org/ns#"
   xmlns:rdf="http://www.w3.org/1999/02/22-rdf-syntax-ns#"
   xmlns:svg="http://www.w3.org/2000/svg"
   xmlns="http://www.w3.org/2000/svg"
   xmlns:sodipodi="http://sodipodi.sourceforge.net/DTD/sodipodi-0.dtd"
   xmlns:inkscape="http://www.inkscape.org/namespaces/inkscape"
   width="744.09448819"
   height="1052.3622047"
   id="svg2"
   version="1.1"
   inkscape:version="0.48.2 r9819"
   sodipodi:docname="tree001.svg">
  <sodipodi:namedview
     id="base"
     pagecolor="#ffffff"
     bordercolor="#666666"
     borderopacity="1.0"
     inkscape:pageopacity="0.0"
     inkscape:pageshadow="2"
     inkscape:zoom="0.35"
     inkscape:cx="13.548492"
     inkscape:cy="587.94756"
     inkscape:document-units="px"
     inkscape:current-layer="layer1"
     showgrid="false"
     showguides="true"
     inkscape:guide-bbox="true"
     inkscape:window-width="818"
     inkscape:window-height="652"
     inkscape:window-x="432"
     inkscape:window-y="76"
     inkscape:window-maximized="0" />
  <defs
     id="defs4" />
  <metadata
     id="metadata7">
    <rdf:RDF>
      <cc:Work
         rdf:about="">
        <dc:format>image/svg+xml</dc:format>
        <dc:type
           rdf:resource="http://purl.org/dc/dcmitype/StillImage" />
        <dc:title />
      </cc:Work>
    </rdf:RDF>
  </metadata>
  <g
     inkscape:label="Layer 1"
     inkscape:groupmode="layer"
     id="layer1">
    <g
       id="g4220"
       transform="translate(-20,-328.57143)">
      <path
         inkscape:connector-curvature="0"
         id="path3042"
         d="m 224.75895,482.88867 c 0,12.4131 -10.06281,22.4759 -22.4759,22.4759 -12.41309,0 -22.47589,-10.0628 -22.47589,-22.4759 0,-12.41309 10.0628,-22.47589 22.47589,-22.47589 12.41309,0 22.4759,10.0628 22.4759,22.47589 z"
         style="fill:none;stroke:#333333;stroke-width:1;stroke-miterlimit:4;stroke-opacity:1" />
      <path
         style="fill:none;stroke:#333333;stroke-width:0.34051368;stroke-miterlimit:4;stroke-opacity:1"
         d="m 315.49735,510.66787 c 0,4.22683 -3.42653,7.65335 -7.65335,7.65335 -4.22683,0 -7.65335,-3.42652 -7.65335,-7.65335 0,-4.22683 3.42652,-7.65335 7.65335,-7.65335 4.22682,0 7.65335,3.42652 7.65335,7.65335 z"
         id="path3045"
         inkscape:connector-curvature="0" />
      <path
         d="m 264.15488,558.39758 c 0,2.51052 -2.03517,4.54569 -4.54569,4.54569 -2.51051,0 -4.54568,-2.03517 -4.54568,-4.54569 0,-2.51051 2.03517,-4.54568 4.54568,-4.54568 2.51052,0 4.54569,2.03517 4.54569,4.54568 z"
         sodipodi:ry="4.5456862"
         sodipodi:rx="4.5456862"
         sodipodi:cy="558.39758"
         sodipodi:cx="259.60919"
         id="path3051"
         style="fill:none;stroke:#333333;stroke-width:1;stroke-miterlimit:4;stroke-opacity:1;stroke-dasharray:none"
         sodipodi:type="arc" />
      <path
         inkscape:connector-curvature="0"
         id="path3053"
         d="m 259,551.875 c -6.94563,0.28755 -8.01924,11.07877 -1.3125,12.8125 6.61469,2.33403 11.67533,-7.37504 6,-11.4375 -1.33716,-0.99936 -3.00854,-1.54892 -4.6875,-1.375 z"
         style="fill:none;stroke:#333333;stroke-width:1;stroke-miterlimit:4;stroke-opacity:1;stroke-dasharray:none" />
      <path
         sodipodi:nodetypes="cccc"
         inkscape:connector-curvature="0"
         id="path3057"
         d="m 258.8125,549.875 c -8.95888,-0.11704 -13.88668,11.11021 -2,17.875 9.08338,3.50758 15.42354,-9.84465 8.90625,-15.4375 -1.02226,-0.81543 -3.8048,-2.15811 -6.90625,-2.4375 z"
         style="fill:none;stroke:#333333;stroke-width:1;stroke-miterlimit:4;stroke-opacity:1;stroke-dasharray:none" />
      <path
         sodipodi:nodetypes="ccccc"
         inkscape:connector-curvature="0"
         id="path3061"
         d="m 257.9375,547.90625 c -7.60004,-0.38218 -13.27721,8.87357 -8.28125,15.03125 2.18082,12.62455 12.42662,9.76376 17.6875,2.90625 5.62876,-5.42376 1.35338,-16.25592 -5.1875,-17.34375 -1.35861,-0.39746 -2.78616,-0.71075 -4.21875,-0.59375 z"
         style="fill:none;stroke:#333333;stroke-width:1;stroke-miterlimit:4;stroke-opacity:1;stroke-dasharray:none" />
      <path
         sodipodi:nodetypes="cccc"
         inkscape:connector-curvature="0"
         id="path3065"
         d="m 257.9375,545.90625 c -9.31639,-0.61459 -19.13224,13.73809 -9.9375,18.53125 0.71832,13.3631 15.64591,10.86417 21.09375,2.5 6.74252,-9.03369 -1.57627,-24.10515 -11.15625,-21.03125 z"
         style="fill:none;stroke:#333333;stroke-width:1;stroke-miterlimit:4;stroke-opacity:1;stroke-dasharray:none" />
      <path
         sodipodi:nodetypes="ccccc"
         inkscape:connector-curvature="0"
         id="path3069"
         d="m 259.5625,543.53125 c -8.59412,-0.1346 -24.28561,10.81583 -17.1875,16.0625 1.11407,5.45118 6.03667,7.60534 4.625,9.0625 0.93268,14.38541 19.49964,8.40104 24.09375,-1.0625 6.15271,-8.81178 0.0439,-24.57193 -11.53125,-24.0625 z"
         style="fill:none;stroke:#333333;stroke-width:1;stroke-miterlimit:4;stroke-opacity:1;stroke-dasharray:none" />
      <path
         sodipodi:nodetypes="cccccccc"
         inkscape:connector-curvature="0"
         id="path3073"
         d="m 258.59375,541.5625 c -7.95009,1.15125 -17.07741,5.5639 -19.875,13.59375 -2.61974,6.24586 0.78853,8.80993 3.875,9.8125 3.68921,2.8803 0.26592,9.25251 4.5,10.71875 5.72828,10.22507 17.0049,2.19711 23.375,-4.15625 10.24989,-9.17174 3.93886,-29.92883 -10.375,-30 -0.49979,0.0139 -1.00198,-0.029 -1.5,0.0312 z"
         style="fill:none;stroke:#333333;stroke-width:1;stroke-miterlimit:4;stroke-opacity:1;stroke-dasharray:none" />
      <path
         sodipodi:nodetypes="ccccccc"
         inkscape:connector-curvature="0"
         id="path3077"
         d="m 258.4375,539.5625 c -13.3496,2.60959 -23.71717,8.23925 -22.5625,19.70982 -0.77883,3.47445 3.08566,5.73105 6.25,8.25893 0.54392,3.84759 0.46888,8.29335 4.15625,10.59375 4.89948,7.47973 15.22009,4.09274 20.65625,-0.84375 7.83681,-4.83009 12.70492,-14.39661 9.84375,-23.46875 -2.00655,-8.28661 -9.43752,-15.18452 -18.34375,-14.25 z"
         style="fill:none;stroke:#333333;stroke-width:1;stroke-miterlimit:4;stroke-opacity:1;stroke-dasharray:none" />
      <path
         sodipodi:nodetypes="ccccccc"
         inkscape:connector-curvature="0"
         id="path3081"
         d="m 259.21875,537.5 c -10.90072,1.44032 -24.58456,7.56535 -25.40625,20.125 -1.48147,4.77628 -0.52973,8.10378 6.4375,10.96875 -0.0999,4.90758 2.09959,9.42807 5.875,12.5 0.0328,7.69668 17.41549,2.21162 23.4375,-3.15625 10.48405,-6.97522 13.30591,-22.6026 5.4375,-32.53125 -3.61434,-4.9509 -9.57443,-8.2816 -15.78125,-7.90625 z"
         style="fill:none;stroke:#333333;stroke-width:1;stroke-miterlimit:4;stroke-opacity:1;stroke-dasharray:none" />
      <path
         sodipodi:nodetypes="ccccccc"
         inkscape:connector-curvature="0"
         id="path3085"
         d="m 259.125,535.5 c -11.91344,1.38511 -26.17237,8.37546 -27.28125,21.71875 -2.2865,5.31253 1.3232,10.80803 6.4375,12.50893 -0.11115,5.10408 3.33828,9.05314 6.09375,12.72768 1.24695,7.33479 11.5917,4.21866 16.84375,2.38839 12.12245,-3.964 22.07391,-15.87711 20.125,-29.15625 C 280.05467,544.79123 270.4585,534.83732 259.125,535.5 z"
         style="fill:none;stroke:#333333;stroke-width:1;stroke-miterlimit:4;stroke-opacity:1;stroke-dasharray:none" />
      <path
         sodipodi:nodetypes="ccccccc"
         inkscape:connector-curvature="0"
         id="path3089"
         d="m 259,533.5 c -12.96175,1.3111 -27.80864,8.02691 -29.21875,22.28125 -2.3413,5.69787 1.74115,13.07027 6.59375,15.59375 0.70218,5.96755 5.27564,10.38847 7.96875,15.40625 6.51157,5.09155 14.47723,0.65038 21.14732,-2 13.26283,-6.2272 22.44583,-23.11724 15.69643,-36.84375 C 277.3651,539.46154 268.57002,532.86411 259,533.5 z"
         style="fill:none;stroke:#333333;stroke-width:1;stroke-miterlimit:4;stroke-opacity:1;stroke-dasharray:none" />
      <path
         inkscape:connector-curvature="0"
         id="path3093"
         d="m 258.9375,531.5 c -13.4389,1.09663 -29.20451,8.61417 -31.09375,23.4375 -2.46338,6.66542 1.44712,14.11528 6.78125,18 1.47634,6.04796 5.57652,11.22778 9.25,15.96875 8.29802,5.29831 18.14572,-0.34464 25.78125,-4.125 13.44162,-7.9929 20.9731,-27.24723 11.5625,-41.03125 -4.72844,-7.42492 -13.20992,-12.86194 -22.28125,-12.25 z"
         style="fill:none;stroke:#333333;stroke-width:1;stroke-miterlimit:4;stroke-opacity:1;stroke-dasharray:none" />
      <path
         sodipodi:nodetypes="ccccccc"
         inkscape:connector-curvature="0"
         id="path3097"
         d="m 258.875,529.5 c -14.58813,0.9171 -31.20438,9.78633 -33.1875,25.5625 -2.34262,7.42734 2.1908,14.81508 7.34375,19.59375 2.36995,6.3974 5.17418,13.02817 10.73214,16.96875 10.11379,4.18284 20.87173,-2.04489 29.28125,-7.34375 13.37923,-9.86778 20.25866,-31.37291 8.48215,-44.5 C 276.27335,533.34562 267.37836,528.92906 258.875,529.5 z"
         style="fill:none;stroke:#333333;stroke-width:1;stroke-miterlimit:4;stroke-opacity:1;stroke-dasharray:none" />
      <path
         sodipodi:nodetypes="ccccccc"
         inkscape:connector-curvature="0"
         id="path3101"
         d="m 259.625,527.46875 c -16.04469,0.48848 -33.96834,10.66588 -36.0625,27.78125 -2.32065,8.19252 3.15103,15.71253 8.10112,21.46758 2.91243,8.39463 5.97107,20.12136 18.80513,18.28242 11.08778,1.14847 21.8665,-6.47297 29.34375,-14.25 13.68131,-13.40972 14.50093,-31.8813 2.15625,-43.5 -5.64682,-6.07257 -13.94102,-10.02168 -22.34375,-9.78125 z"
         style="fill:none;stroke:#333333;stroke-width:1;stroke-miterlimit:4;stroke-opacity:1;stroke-dasharray:none" />
      <path
         sodipodi:nodetypes="ccccccc"
         inkscape:connector-curvature="0"
         id="path3105"
         d="m 258.03125,525.53125 c -17.44367,-1.26279 -35.19132,12.36836 -36.78125,30.90625 -1.64115,8.61361 4.46969,15.79486 8.95036,22.25809 1.74642,9.01182 6.87757,20.10557 18.11214,18.49191 16.04897,1.83227 30.21124,-6.77351 38.65625,-22 8.86247,-12.27653 7.26645,-30.7721 -4.6875,-40.46875 -6.0122,-6.81675 -15.14297,-10.19453 -24.25,-9.1875 z"
         style="fill:none;stroke:#333333;stroke-width:1;stroke-miterlimit:4;stroke-opacity:1;stroke-dasharray:none" />
      <path
         sodipodi:nodetypes="ccccsccc"
         inkscape:connector-curvature="0"
         id="path3109"
         d="m 260.53125,523.375 c -17.75581,-2.4772 -36.05334,9.36847 -40.34375,27.5 -3.3396,9.44493 0.58704,19.25293 6.65625,26.53125 3.29709,6.00037 3.98814,15.35966 10.03125,19.84375 6.10741,5.06721 14.94682,3.34183 22.0625,1.65625 14.89628,-3.52866 29.59469,-17.65302 34.65625,-33.40625 3.4375,-12.49809 -1.45861,-26.38687 -11.60268,-34.0625 -5.59277,-5.39937 -13.69846,-8.29035 -21.45982,-8.0625 z"
         style="fill:none;stroke:#333333;stroke-width:1;stroke-miterlimit:4;stroke-opacity:1;stroke-dasharray:none" />
      <path
         sodipodi:nodetypes="ccccccc"
         inkscape:connector-curvature="0"
         id="path3113"
         d="m 253.8125,521.09375 c -20.81294,0.73312 -42.60321,21.52947 -36.40625,41.6875 1.0639,9.08205 9.1757,14.98401 10.88517,23.94651 0.74378,12.72667 9.7678,16.64217 19.33358,15.89724 22.8581,2.21728 43.90817,-18.21398 48.6875,-40.34375 3.54299,-20.93538 -15.3281,-41.84608 -36.40625,-41 -2.01964,-0.26505 -4.06123,-0.26381 -6.09375,-0.1875 z"
         style="fill:none;stroke:#333333;stroke-width:1;stroke-miterlimit:4;stroke-opacity:1;stroke-dasharray:none" />
      <path
         sodipodi:nodetypes="cccccccc"
         inkscape:connector-curvature="0"
         id="path3117"
         d="m 253.78125,519.09375 c -19.43091,0.12742 -39.15545,13.8483 -39.4375,37.125 -0.0254,9.74991 5.32635,17.94372 10.28125,25.90625 2.68588,6.24708 1.79081,14.47861 8.21875,18.75 7.7134,6.76524 18.01713,6.8359 26.84375,2.9375 21.58315,-5.08062 36.20278,-23.78562 38.96875,-44.34375 1.61654,-22.06526 -18.99201,-41.90033 -40.9375,-40.375 -1.3111,-0.0724 -2.62576,-0.0217 -3.9375,0 z"
         style="fill:none;stroke:#333333;stroke-width:1;stroke-miterlimit:4;stroke-opacity:1;stroke-dasharray:none" />
      <path
         sodipodi:nodetypes="ccccccc"
         inkscape:connector-curvature="0"
         id="path3121"
         d="m 258.6875,516.27364 c -19.03434,-1.57304 -39.54421,8.10903 -44.8125,27.2373 -4.27231,12.69378 0.86683,28.01833 8.25622,38.36708 3.49988,6.96473 2.5356,16.76543 10.24378,21.21573 7.88149,9.78101 20.16929,8.16616 29.84375,2.88261 22.10083,-6.03801 38.97914,-28.82175 38.40625,-51.82011 -1.65198,-20.70369 -21.17569,-38.71195 -41.9375,-37.88261 z"
         style="fill:none;stroke:#333333;stroke-width:1;stroke-miterlimit:4;stroke-opacity:1;stroke-dasharray:none" />
      <path
         sodipodi:nodetypes="ccccccccc"
         inkscape:connector-curvature="0"
         id="path3125"
         d="m 252.34375,514.15625 c -19.05336,0.39996 -38.25054,13.26559 -41.40625,32.65625 -2.61786,13.45451 -0.55725,26.68886 10.1875,37.78125 2.22479,7.40341 3.29724,17.78856 10.46875,22.20273 7.76907,9.18276 21.84062,7.70404 31.34375,2.05742 24.22681,-6.84743 42.59732,-33.66959 39.125,-59.01015 C 298.10009,528.8149 277.4276,512.57724 256,514.125 c -1.21865,0.015 -2.43848,-0.0339 -3.65625,0.0312 z"
         style="fill:none;stroke:#333333;stroke-width:1;stroke-miterlimit:4;stroke-opacity:1;stroke-dasharray:none" />
      <path
         sodipodi:nodetypes="ccccccc"
         inkscape:connector-curvature="0"
         id="path3129"
         d="m 256.9375,512.0625 c -20.13231,-3.97362 -43.28956,10.66464 -47.8125,33.5 -3.27752,14.00561 -0.14804,29.7729 10.25,40.09375 2.01243,8.75441 4.1467,18.50482 12,23.84375 8.99354,8.7624 23.28795,6.52382 33.3125,0.9375 26.33936,-8.14459 46.4846,-36.63854 38.625,-64.09375 -5.38739,-23.03581 -25.46386,-35.35904 -46.375,-34.28125 z"
         style="fill:none;stroke:#333333;stroke-width:1;stroke-miterlimit:4;stroke-opacity:1;stroke-dasharray:none" />
      <path
         sodipodi:nodetypes="cccccccc"
         inkscape:connector-curvature="0"
         id="path3133"
         d="m 249.21875,509.4375 c -22.25092,-1.21048 -41.83218,19.20348 -43.15625,42.65625 -1.99352,11.58514 2.24334,25.16898 11.5,34.5625 1.82927,10.42288 6.01487,21.03 15.34375,26.6875 10.51365,7.13374 24.13188,3.57107 34.57368,-1.72248 25.13303,-8.74836 44.48989,-36.1837 38.42632,-63.18377 -2.69971,-22.00162 -19.37876,-35.84629 -39.03125,-37.875 -5.86817,-0.61072 -11.76261,-0.82706 -17.65625,-1.125 z"
         style="fill:none;stroke:#333333;stroke-width:1;stroke-miterlimit:4;stroke-opacity:1;stroke-dasharray:none" />
      <path
         sodipodi:nodetypes="cccccccc"
         inkscape:connector-curvature="0"
         id="path3137"
         d="m 246.03125,507.40625 c -23.25575,0.90272 -41.307,23.01191 -42.09375,45.5 -1.71498,12.58091 3.09849,25.59783 11.78125,34.71875 1.98508,14.60672 11.85907,29.91366 27.53125,31.53125 12.75876,1.26114 23.23438,-5.16653 35.5,-10.59375 21.55871,-11.24409 36.21807,-38.48173 29,-61.46875 -2.39644,-20.91636 -20.85922,-37.42254 -41.68254,-38.63075 -6.65999,-0.55212 -13.35342,-1.00464 -20.03621,-1.05675 z"
         style="fill:none;stroke:#333333;stroke-width:1;stroke-miterlimit:4;stroke-opacity:1;stroke-dasharray:none" />
      <path
         sodipodi:nodetypes="cccccccc"
         inkscape:connector-curvature="0"
         id="path3141"
         d="m 244.8125,505.46875 c -24.71627,1.70132 -43.03562,25.7776 -43.125,49.71875 -0.84466,12.21334 3.92448,25.9799 12.15625,34.89023 -0.90532,17.01019 13.63308,31.38158 31.78125,31.23477 13.86631,0.0219 26.20207,-7.25393 38.21875,-13.375 19.95157,-12.77841 32.89943,-38.65525 25.75,-62.125 -2.96493,-22.75989 -24.76285,-39.98866 -47.39295,-39.66971 -5.78376,-0.36318 -11.59119,-0.83315 -17.3883,-0.67404 z"
         style="fill:none;stroke:#333333;stroke-width:1;stroke-miterlimit:4;stroke-opacity:1;stroke-dasharray:none" />
      <path
         sodipodi:nodetypes="cccccccc"
         inkscape:connector-curvature="0"
         id="path3145"
         d="m 244.78125,502.20606 c -26.18212,1.74629 -45.58784,28.76105 -45.15625,54.07519 -0.42227,12.51234 2.838,25.12899 10.92481,34.59375 -0.79657,19.07276 19.33614,34.46976 37.82519,32.34375 14.64477,-1.27146 28.02608,-6.59389 40.3125,-14.16719 18.69857,-13.97204 29.85978,-43.56074 22.71875,-66.66562 -3.70646,-23.90906 -27.38165,-41.42419 -51.21425,-40.38403 -5.12619,-0.37305 -10.26891,0.10093 -15.41075,0.20415 z"
         style="fill:none;stroke:#333333;stroke-width:1;stroke-miterlimit:4;stroke-opacity:1;stroke-dasharray:none" />
      <path
         sodipodi:nodetypes="ccccccccc"
         inkscape:connector-curvature="0"
         id="path3149"
         d="m 250.92227,498.67481 c -31.48585,-6.59511 -56.74712,32.45866 -53.23477,63.63769 0.56229,10.57163 4.2749,21.16056 10.84375,29.46875 0.0574,21.67168 23.72198,40.02892 44.21875,35.46288 14.96654,-2.36992 32.505,-10.53181 44.08788,-20.30663 17.88696,-17.01238 23.43825,-44.49574 15.84962,-68.375 -5.67261,-23.88277 -29.7641,-41.19926 -53.83867,-39.66641 -1.96748,-0.0669 -3.8763,-0.2395 -5.84312,-0.1582 -0.63134,-0.47517 -1.45209,-1.37021 -2.08344,-0.0631 z"
         style="fill:none;stroke:#333333;stroke-width:1;stroke-miterlimit:4;stroke-opacity:1;stroke-dasharray:none" />
      <path
         sodipodi:nodetypes="ccccccccc"
         inkscape:connector-curvature="0"
         id="path3164"
         d="m 238.99952,495.96875 c -22.22694,1.45469 -34.93273,21.76259 -40.81202,41.75 -5.57224,18.34273 -3.01046,39.66187 8.375,55.125 1.07648,24.1686 27.78486,42.88334 50.9375,35.53125 16.89395,-4.34783 33.95857,-11.90852 45.5625,-25.21875 18.87359,-22.75289 19.5066,-57.68459 3.84375,-82.28125 -11.16675,-16.17235 -31.83183,-25.52761 -51.44544,-24.09777 -2.70107,3.3e-4 -3.908,-2.06848 -6.49206,-1.47488 -2.20006,-0.3837 -7.69938,0.58978 -9.96923,0.6664 z"
         style="fill:none;stroke:#333333;stroke-width:1;stroke-miterlimit:4;stroke-opacity:1;stroke-dasharray:none" />
      <path
         sodipodi:nodetypes="ccccccccc"
         inkscape:connector-curvature="0"
         id="path3168"
         d="m 249.28125,492.50446 c -13.1815,-0.16335 -29.40426,3.55728 -38.45536,13.90179 -19.79176,21.78109 -26.13278,56.89593 -10.7366,82.96875 4.26436,4.79786 2.41014,11.81007 5.64285,17.1875 8.62695,19.56319 35.22192,34.00079 55.48661,26.08929 22.77978,-6.05229 48.51977,-22.98913 56.72068,-46.14587 9.3078,-24.34806 2.65271,-54.86101 -15.50193,-74.09967 -12.38437,-12.51762 -30.369,-18.78063 -47.78125,-17.75 -1.77088,-0.58238 -3.40279,-2.43841 -5.375,-2.15179 z"
         style="fill:none;stroke:#333333;stroke-width:1;stroke-miterlimit:4;stroke-opacity:1;stroke-dasharray:none" />
      <path
         sodipodi:nodetypes="cccsccccc"
         inkscape:connector-curvature="0"
         id="path3172"
         d="M 249.28125,489.07143 C 231.98791,488.70028 213.4006,492.78947 204,508.14732 c -16.90793,23.26438 -20.07915,61.03708 -3.71875,85.41518 1.38143,7.13091 2.88246,14.22442 7.25,20.34375 11.48756,16.09512 32.72312,29.95461 52.46875,24.16964 26.27415,-7.31617 55.62228,-27.32651 63.91964,-54.48214 8.37714,-27.63116 -3.7734,-63.8324 -26.51339,-81.79018 -12.1416,-9.25276 -27.62309,-9.78764 -42.71875,-9.30357 -1.64375,-0.96883 -3.38391,-3.67132 -5.40625,-3.42857 z"
         style="fill:none;stroke:#333333;stroke-width:1;stroke-miterlimit:4;stroke-opacity:1;stroke-dasharray:none" />
      <path
         sodipodi:nodetypes="ccccccccc"
         inkscape:connector-curvature="0"
         id="path3176"
         d="m 244.375,484.95089 c -16.88454,0.0788 -38.019,8.73606 -46.41964,24.29911 -16.07958,24.91258 -18.49318,59.63066 -2.4375,85.09375 1.55636,12.76327 8.21465,24.3456 18.125,32.4375 12.74852,11.88616 34.84833,22.35849 51.65192,15.35609 25.71889,-8.90291 54.3977,-30.13734 63.6829,-56.66859 8.80933,-28.85665 -0.29213,-61.84197 -21.80097,-82.24644 C 294.81096,490.9939 271.24535,486.45882 255,486.67857 c -2.56288,-3.47754 -6.57786,-2.15961 -10.625,-1.72768 z"
         style="fill:none;stroke:#333333;stroke-width:1;stroke-miterlimit:4;stroke-opacity:1;stroke-dasharray:none" />
      <path
         sodipodi:nodetypes="ccccccccc"
         inkscape:connector-curvature="0"
         id="path3180"
         d="m 248.65625,482.40625 c -17.8472,0.57864 -36.81472,5.93913 -48.5625,20.09375 -19.69533,26.0218 -23.98618,64.35369 -6.46875,92.5625 2.61883,22.32399 21.29483,39.10539 41.08234,47.3773 11.75392,5.26409 23.82918,7.28724 36.42296,-0.62926 25.50596,-10.94774 50.60161,-29.75197 60.03409,-56.70525 9.27791,-31.82989 -2.47949,-69.45424 -29.50814,-88.79279 -13.67273,-8.63728 -30.36385,-11.07808 -46.03125,-11.96875 -1.87021,-1.70853 -4.50028,-2.22464 -6.96875,-1.9375 z"
         style="fill:none;stroke:#333333;stroke-width:1;stroke-miterlimit:4;stroke-opacity:1;stroke-dasharray:none" />
      <path
         sodipodi:nodetypes="ccccccccc"
         inkscape:connector-curvature="0"
         id="path3184"
         d="m 249,480.375 c -21.89398,0.31683 -45.90344,9.08193 -56.26148,29.57804 -15.02559,25.69343 -20.32179,64.28972 -1.05102,85.76571 2.5776,27.82832 25.11923,43.70744 47.96875,50.84375 10.89986,4.21344 23.50847,3.05335 33.22976,-3.33578 26.61981,-11.69262 52.73329,-31.68164 61.02024,-60.63297 8.18439,-33.21813 -5.10605,-72.03905 -34.7521,-90.07406 -13.14406,-7.21946 -28.52362,-9.00996 -43.15415,-10.42594 -2.03849,-1.38372 -4.54764,-1.93479 -7,-1.71875 z"
         style="fill:none;stroke:#333333;stroke-width:1;stroke-miterlimit:4;stroke-opacity:1;stroke-dasharray:none" />
      <path
         sodipodi:nodetypes="cccccccccc"
         inkscape:connector-curvature="0"
         id="path3188"
         d="m 248.9375,478.375 c -23.04079,0.14384 -48.24051,10.14097 -58.65625,31.8125 -12.30844,22.66654 -18.31031,51.65473 -7.26844,76.06421 2.31329,5.73573 7.86759,9.6574 7.67469,16.21704 4.83792,23.64394 26.29117,39.43752 48.375,46 12.22258,6.5224 26.31731,2.66835 37.15625,-4.5625 27.20789,-12.43121 53.46504,-33.74203 60.375,-64.09375 7.01468,-34.55096 -8.04034,-74.2812 -39.99703,-90.83531 -12.75228,-6.30406 -27.29992,-6.98604 -40.94047,-9.38344 -2.05341,-1.04318 -4.42564,-1.37563 -6.71875,-1.21875 z"
         style="fill:none;stroke:#333333;stroke-width:1;stroke-miterlimit:4;stroke-opacity:1;stroke-dasharray:none" />
      <path
         sodipodi:nodetypes="cccccccccccccc"
         inkscape:connector-curvature="0"
         id="path3192"
         d="m 248.90625,476.375 c -24.09266,0.0187 -50.29917,10.97813 -60.87414,33.79004 -12.88784,24.08969 -18.52375,55.12578 -5.12586,80.24121 3.36706,4.38951 6.19997,9.1078 6.34375,14.75 5.87481,23.44034 9.99726,27.66702 49.92022,45.61421 11.99071,9.27784 28.20389,1.77902 39.79722,-5.93124 41.31558,-23.9292 55.68762,-36.69925 59.59506,-64.65172 7.57501,-36.61843 -9.6794,-79.39349 -44.875,-94.71875 -13.68654,-5.54349 -28.94422,-5.71843 -43.03125,-9.125 l -0.84375,0 -0.0312,0 -0.0312,0 -0.84375,0.0312 z"
         style="fill:none;stroke:#333333;stroke-width:1;stroke-miterlimit:4;stroke-opacity:1;stroke-dasharray:none" />
      <path
         sodipodi:nodetypes="ccccccccccc"
         inkscape:connector-curvature="0"
         id="path3196"
         d="m 248.90625,472.85977 c -25.57192,-0.16379 -53.10395,13.81556 -63.62211,38.22092 -12.56747,24.41279 -19.05827,55.52394 -5.48687,80.54431 7.23238,7.81335 7.22981,19.11598 11.95273,28.125 7.30509,16.73791 26.12112,22.85902 41.34912,30.45888 7.00353,3.54861 14.17311,9.35223 22.46338,7.64502 15.88316,-2.24728 28.25068,-14.48085 41.96875,-21.82265 17.71808,-11.10648 36.41574,-25.08717 41.28125,-46.6875 7.78655,-28.69098 2.47227,-64.86655 -16.66252,-88.06109 -11.79599,-14.96332 -29.68744,-20.97865 -48.71529,-23.02497 -8.23071,-0.87648 -16.36007,-4.58844 -24.52844,-5.39792 z"
         style="fill:none;stroke:#333333;stroke-width:1;stroke-miterlimit:4;stroke-opacity:1;stroke-dasharray:none" />
      <path
         sodipodi:nodetypes="ccccccccccc"
         inkscape:connector-curvature="0"
         id="path3200"
         d="m 245.21875,470.9375 c -26.41756,0.57327 -54.32514,13.38232 -64.42148,41.5625 -12.01149,24.43536 -16.40578,55.50617 -2.48477,80.4375 8.72931,10.59215 7.56152,26.25549 17.125,36.46875 14.54162,18.42804 32.23691,19.4117 47.59375,28.40625 23.37295,9.74346 26.00246,-1.33369 36.24777,-7.82148 21.06689,-14.38286 46.84574,-25.87857 58.09598,-50.24102 11.06649,-27.93614 8.69012,-61.31277 -5.53125,-87.71875 -8.32219,-16.16127 2.41589,-18.20315 -41.49346,-32.74107 -11.63347,-2.9276 -23.51628,-3.37529 -34.91279,-7.35268 -3.3726,-0.78353 -6.74435,-1.33537 -10.21875,-1 z"
         style="fill:none;stroke:#333333;stroke-width:1;stroke-miterlimit:4;stroke-opacity:1;stroke-dasharray:none" />
      <path
         sodipodi:nodetypes="csccccccccccc"
         inkscape:connector-curvature="0"
         id="path3204"
         d="m 245.78125,468.875 c -26.11196,0.20749 -53.22247,13.3333 -64.6875,37.6875 -10.48263,22.26735 -20.36734,47.86744 -13.54464,72.34375 1.90707,8.30123 5.85464,15.17967 9.91071,22.4375 4.31253,11.30906 9.91766,29.85689 19.29018,38.40179 12.28704,14.24371 31.75431,17.21249 47.6875,25.78571 8.89338,3.87378 20.42184,6.46393 27.875,-0.91518 19.82781,-17.1106 49.44507,-32.67669 64.57992,-55.00261 11.02488,-16.66581 13.95443,-37.77632 12.55401,-57.36346 -1.20489,-16.29783 -10.73133,-31.70818 -18.01337,-46.12493 -1.60522,-7.4316 -5.41174,-18.98824 -12.74556,-22.09828 -15.56358,-7.98052 -32.52108,-11.48808 -49.90625,-13.60268 -7.77697,-1.04835 -14.98025,-2.12804 -23,-1.54911 z"
         style="fill:none;stroke:#333333;stroke-width:1;stroke-miterlimit:4;stroke-opacity:1;stroke-dasharray:none" />
      <path
         sodipodi:nodetypes="cccccsccccccc"
         inkscape:connector-curvature="0"
         id="path3208"
         d="m 247.1875,461.06696 c -28.69114,-0.25115 -63.00523,20.84314 -73.8835,48.27652 -10.69358,22.81252 -17.30783,49.71484 -8.50936,74.78152 1.06699,21.39491 11.79779,23.70425 15.65736,31.05863 4.33667,15.65704 -1.71819,21.64643 31.70425,38.50387 9.7157,5.48031 18.64552,7.7664 35.96875,15.4375 12.20313,5.40381 20.53941,6.24796 27.34375,-4.5625 25.7728,-20.46613 67.77367,-40.28412 66.56087,-59.69669 9.65813,-19.16043 15.03487,-42.23959 10.47235,-63.17479 -3.78013,-15.98096 -14.08614,-29.10478 -18.11804,-44.90977 -2.49651,-8.07528 -12.01181,-19.65 -20.20634,-22.11957 -20.17153,-8.66312 -42.26085,-10.22291 -63.95884,-11.51436 -1.01162,-0.019 -2.02125,-2.13786 -3.03125,-2.08036 z"
         style="fill:none;stroke:#333333;stroke-width:1;stroke-miterlimit:4;stroke-opacity:1;stroke-dasharray:none" />
      <path
         sodipodi:nodetypes="cccccccsccccccc"
         inkscape:connector-curvature="0"
         id="path3212"
         d="m 244.4375,459.09375 c -28.06664,0.99077 -37.20287,-2.3654 -70.59375,44.28125 -12.27372,24.6415 -21.14002,54.07859 -11.77679,81.09375 0.0615,11.24318 4.6534,21.70845 13.19197,28.875 5.04922,6.66753 1.8392,16.68702 7.37946,23.375 8.89736,11.21088 25.21674,18.3714 37.89286,24.70982 31.31236,16.07344 27.76827,15.06421 36.625,16.54911 7.66825,2.30247 14.13549,-6.48978 19.78125,-12.00893 18.50303,-18.08809 47.67676,-27.14997 64.65307,-46.94986 3.5643,-4.08097 5.0241,-9.47245 5.78495,-14.65893 11.94019,-24.33155 14.09871,-54.69351 1.02984,-79.6416 -5.22603,-10.36179 -6.52072,-21.03817 -9.89643,-31.96836 -5.18666,-10.87105 -12.7017,-19.61201 -24.61207,-22.55316 -18.4235,-6.58995 -39.84079,-11.27658 -59.17365,-12.76827 -1.46277,-1.9936 -7.93713,1.3652 -10.28571,1.66518 z"
         style="fill:none;stroke:#333333;stroke-width:1;stroke-miterlimit:4;stroke-opacity:1;stroke-dasharray:none" />
      <path
         sodipodi:nodetypes="cccccccccccscccc"
         inkscape:connector-curvature="0"
         id="path3216"
         d="m 252.3125,454.84375 c -5.77979,1.72506 -11.46669,3.10397 -17.65625,2.53125 -13.54934,-0.478 -27.1268,4.08372 -36.65625,13.78125 -10.40016,10.33351 -20.18501,21.86047 -27.52184,34.59124 -11.61039,24.1379 -19.38038,52.73428 -10.41566,79.03376 0.63791,14.27945 4.76324,26.49392 12.23214,30.90625 3.64503,7.89328 3.37483,18.21517 10.64286,24.4375 15.54749,15.95336 39.09678,24.49185 54.375,32.25 8.25979,7.45637 25.87992,17.13719 26.8125,8.31775 9.88563,-4.9643 15.46637,-16.57098 25.02485,-22.21129 18.80271,-13.72615 42.8045,-22.30571 56.5689,-41.85646 3.13399,-6.35108 4.32895,-13.18003 7.09375,-19.75 10.15068,-24.12095 10.27164,-52.90821 -2.50893,-75.90625 -6.07715,-13.19429 -1.82227,-29.44495 -12.17857,-40.625 2.15326,-14.60021 -22.83837,-13.78431 -36.71875,-17.65625 -14.40696,-4.0684 -34.42801,-6.00728 -49.09375,-7.84375 z"
         style="fill:none;stroke:#333333;stroke-width:1;stroke-miterlimit:4;stroke-opacity:1;stroke-dasharray:none" />
      <path
         sodipodi:nodetypes="cccccccccccccccccc"
         inkscape:connector-curvature="0"
         id="path3220"
         d="m 251.75,451.42227 c -11.52381,4.52817 -24.49465,-0.0676 -36.10983,4.60855 -17.14522,5.41241 -29.44071,23.01005 -40.30589,36.33271 -13.04252,17.56012 -19.10879,39.25067 -21.40186,60.79272 -1.10035,11.19838 0.67845,22.45581 3.6875,33.125 0.54855,11.2888 0.43143,25.00875 13.19258,31 3.2264,9.28848 4.32095,20.26215 12.94782,26.46569 15.163,14.37681 31.50465,21.35859 49.64522,30.94168 10.57774,11.06404 28.71506,19.54613 28.15696,11.42274 3.78455,-0.14157 4.59887,-1.99971 7.88008,-3.14261 9.37525,-7.96307 13.80829,-20.15334 25.26447,-25.9297 18.47328,-12.42158 41.19058,-21.29432 53.41795,-40.78905 3.6761,-10.57294 7.72089,-20.99802 10.96875,-31.6875 5.97804,-22.19098 3.26772,-46.66858 -7.9375,-66.75 -4.34195,-12.42953 4.39015,-29.63814 -4.87658,-40.11406 0.95059,-9.39126 -7.44817,-11.56209 -14.9797,-12.91719 -18.5966,-2.82353 -43.25297,-8.43233 -62.01225,-10.08544 -5.33067,-0.52366 -12.22939,-3.0947 -17.53772,-3.27354 z"
         style="fill:none;stroke:#333333;stroke-width:1;stroke-miterlimit:4;stroke-opacity:1;stroke-dasharray:none" />
      <path
         sodipodi:nodetypes="ccccccccccccccccccc"
         inkscape:connector-curvature="0"
         id="path3224"
         d="m 251.09375,449.53125 c -12.52467,4.49436 -24.52504,-6.98309 -39.40625,5.8125 -17.85605,8.00432 -29.80818,24.44631 -41.43478,39.57697 -12.74742,19.88289 -18.36238,44.19917 -18.59788,67.70383 0.0866,11.88266 4.68915,21.57001 4.72016,33.42272 0.70924,8.61682 4.83007,22.3705 12.78125,22.67148 2.91411,10.38242 5.74954,24.17825 15.43401,30.52943 13.99794,13.02198 31.8803,20.86181 48.29247,30.30849 8.10535,7.48324 15.77636,10.85833 26.33602,14.7203 3.56616,0.62404 5.69016,-1.34032 7.8539,-3.2922 1.85281,-3.48713 2.24656,-4.62851 5.99493,-6.62579 8.37051,-8.3373 13.38618,-21.59038 24.49492,-26.82773 18.45124,-11.2063 40.50795,-16.191 52.77384,-41.56674 7.13125,-18.79306 15.82317,-37.09187 13.63241,-61.46451 -0.77505,-13.71707 -5.31935,-27.87445 -11.40625,-39.9789 -2.69714,-12.70788 7.82242,-26.44876 -0.68322,-37.67735 0.78826,-9.19962 -8.6707,-13.24472 -16.21367,-14.03125 -9.06203,-7.43127 -48.56987,-8.33554 -71.23351,-11.00714 -4.40685,-0.8262 -8.82769,-2.54544 -13.33835,-2.27411 z"
         style="fill:none;stroke:#333333;stroke-width:1;stroke-miterlimit:4;stroke-opacity:1;stroke-dasharray:none" />
      <path
         sodipodi:nodetypes="ccccccccccccccccccccc"
         inkscape:connector-curvature="0"
         id="path3228"
         d="m 226.0625,447.125 c -9.39473,0.26353 -16.19605,7.51935 -24.27754,11.41753 -14.8231,-3.29763 -26.15705,23.40736 -36.08905,40.04704 -11.79163,12.83208 -17.2634,39.69565 -15.57091,70.75418 0.90835,9.85052 -0.0724,18.79462 4.71875,30.46875 1.25422,7.69509 -0.66941,16.56079 12.71875,20.71875 2.96655,11.98415 1.87066,24.97691 12.78926,32.12099 14.28632,12.84649 37.76829,19.69305 53.49199,30.41026 7.72942,6.31195 17.02828,14.6646 26.75,16.91518 5.41566,0.0276 8.39042,-8.48365 11.0625,-12.35268 11.17681,-7.48025 14.83873,-23.27726 27.76779,-28.88269 17.74645,-9.81785 38.86286,-17.55452 49.54471,-36.11731 6.98493,-12.99979 11.70304,-27.29136 15.30218,-41.57179 5.16427,-23.00185 0.1887,-47.24681 -9.92718,-67.95946 -1.57246,-12.0245 7.33265,-25.11398 -0.0937,-36.34375 -0.0294,-7.02789 -5.46043,-12.90772 -12.1875,-14.625 -6.62081,-0.93158 -11.97167,-5.29615 -18.72823,-5.9575 -22.9146,-4.69803 -46.75241,-4.86699 -69.55302,-10.03357 -5.76833,0.50185 -11.62258,1.88826 -17.48941,0.29239 -3.38409,-0.50576 -6.79376,0.45568 -10.22934,0.69868 z"
         style="fill:none;stroke:#333333;stroke-width:1;stroke-miterlimit:4;stroke-opacity:1;stroke-dasharray:none" />
      <path
         sodipodi:nodetypes="ccccccccccccccccccccc"
         inkscape:connector-curvature="0"
         id="path3232"
         d="m 253.5625,440.55357 c -6.83228,1.37462 -13.76199,0.92889 -20.625,0.1875 -8.33135,0.41967 -16.73656,1.99556 -23.5,7.28125 -3.74028,-2.34874 -7.34588,-1.9754 -12.0625,5.52679 -12.11849,2.68818 -22.34848,17.94746 -28.43402,27.6027 -4.31148,8.26234 -4.76623,9.61933 -10.06598,17.07587 -13.25353,25.0289 -17.5692,61.32415 -15.18849,88.79213 0.85875,7.54975 5.19977,14.43619 5.21974,22.07394 0.90689,6.39011 11.07614,14.02507 17,15.91964 2.22809,11.24005 -1.07419,22.49325 9.74107,29.29911 18.61423,16.23762 43.98979,20.71383 62.00447,37.875 6.18346,4.1918 17.244,13.71812 25.09821,13.04018 7.27819,-2.67064 9.88732,-15.67869 16.33036,-19.35268 8.82046,-8.85069 17.09344,-22.19822 29.61147,-26.78039 19.38592,-9.97848 37.715,-19.91324 46.44705,-41.46664 10.25008,-22.57437 18.85768,-47.75185 13.83264,-72.73818 -1.77888,-11.55597 -5.38483,-22.49994 -9.89563,-33.13979 -0.49258,-11.83694 6.27458,-24.70525 -0.71428,-35.75 2.83242,-13.31256 -8.31183,-21.88524 -19.33036,-19.48214 -13.18651,-6.47072 -23.88266,-4.38935 -38.23951,-6.34627 -14.4008,-1.53369 -33.13533,-6.58801 -47.22924,-9.61802 z"
         style="fill:none;stroke:#333333;stroke-width:1;stroke-miterlimit:4;stroke-opacity:1;stroke-dasharray:none" />
      <path
         sodipodi:nodetypes="cccccccccccccccccccccc"
         inkscape:connector-curvature="0"
         id="path3236"
         d="m 253.21875,438.59375 c -11.76288,2.38895 -24.13866,-4.85592 -35.5,-0.0759 -3.40178,0.3804 -6.29289,4.14232 -9.34375,3.875 -5.45711,-2.28257 -9.81341,1.62249 -12.65625,5.22768 -14.102,4.90884 -22.64005,23.04141 -29.94964,35.25826 -5.01366,9.92837 -12.20154,18.56119 -15.16098,29.4404 -8.35331,24.89258 -11.44489,51.83917 -8.38938,77.96205 2.06176,7.15765 4.53342,14.03444 5.3125,21.34375 3.13198,6.95142 9.79339,11.84154 16.625,14.875 1.25197,9.87443 -0.14481,25.35554 9.34375,31.63839 19.16515,16.63645 45.7584,24.04512 64.25,41.54911 7.89212,5.11959 16.01392,14.92259 26.125,13.67857 8.75547,-4.36729 10.04216,-22.45541 18.18045,-27.69261 8.88279,-9.87814 17.13817,-21.52976 30.20295,-26.17673 18.59411,-9.11709 39.83287,-21.76986 47.27227,-42.02969 11.047,-23.85625 19.16009,-50.93099 12.79969,-77.27954 -1.63536,-10.58531 -8.53923,-20.44474 -11.26786,-30.53125 0.46731,-11.21353 5.65032,-24.95573 -0.59375,-35.45982 2.81155,-11.29643 -7.47948,-27.10158 -19,-25.75447 -5.1436,0.19866 -9.80632,-2.17253 -15.09375,-2.32142 -15.68459,-1.73041 -31.42877,2.41518 -46.79073,-1.70304 -8.75378,-1.74573 -17.55414,-4.27551 -26.36552,-5.82375 z"
         style="fill:none;stroke:#333333;stroke-width:1;stroke-miterlimit:4;stroke-opacity:1;stroke-dasharray:none" />
      <path
         sodipodi:nodetypes="cccccccccccccccccccccc"
         inkscape:connector-curvature="0"
         id="path3240"
         d="m 225.25,434.875 c -6.0207,0.0427 -11.30144,2.98665 -16.4375,5.53125 -5.96288,-2.63515 -11.37287,2.20405 -15.21875,5.90625 -15.95773,7.40662 -25.15867,25.09483 -33.67411,39.28125 -7.43784,11.29171 -14.36132,23.33645 -17.25002,36.62332 -5.96724,22.83129 -9.28525,47.1468 -5.37027,70.54718 2.83137,7.05987 4.01468,14.79582 6.62476,21.79825 3.52898,6.0222 12.13019,10.35529 18.38839,13.28125 0.86386,11.56751 0.32346,29.87154 11.58289,36.80275 19.79436,16.09196 45.37676,25.87596 64.16711,43.41154 7.93946,5.60461 16.57546,16.05508 27.28125,13.24553 10.24057,-6.88148 9.49984,-21.39326 19.54282,-28.65966 8.6423,-10.41357 17.75372,-28.12766 30.92645,-32.69478 19.64157,-9.63916 44.00423,-23.23019 51.25383,-44.83169 11.98347,-25.9492 16.7959,-56.69103 6.85726,-84.42994 -3.17843,-9.62642 -11.70616,-18.67522 -8.5252,-29.2924 1.6786,-9.19537 4.23818,-19.37669 0.11448,-27.92635 6.93879,-13.96604 -3.33802,-29.42017 -22.9241,-27.0625 -8.40087,-0.56461 -17.39012,-3.48325 -26.02679,-2.71875 -14.45153,0.61911 -29.21661,1.6475 -43.125,-2.625 -8.90778,-1.85817 -17.6445,-5.28964 -26.8125,-4 -7.17544,-0.30331 -14.16925,-2.51266 -21.375,-2.1875 z"
         style="fill:none;stroke:#333333;stroke-width:1;stroke-miterlimit:4;stroke-opacity:1;stroke-dasharray:none" />
      <path
         sodipodi:nodetypes="cccccccccccccccccccccc"
         inkscape:connector-curvature="0"
         id="path3244"
         d="m 225.25,430.01786 c -6.12154,-0.15579 -11.62203,2.53366 -17,4.50446 -8.47739,-2.53343 -13.90222,6.25999 -20.71875,9.3125 -17.27515,11.75495 -28.20492,35.5453 -39.41048,52.47393 -10.90043,18.61193 -11.41248,40.65646 -13.92373,61.8127 -1.23661,15.19307 -3.13007,30.98085 2.18082,45.24707 1.61132,7.40401 0.13674,15.46923 7.17401,19.48492 3.28777,3.04971 14.65028,4.08876 16.91688,7.36531 0.63691,13.25437 -6.76169,29.99926 6.23661,37.46875 20.6135,15.90003 53.24304,25.84223 72.44885,43.68926 7.37774,7.25584 15.25884,31.14121 27.37704,15.13217 10.59803,-7.15534 7.53296,-16.74863 17.6797,-24.09308 9.45513,-11.87424 26.35891,-34.56377 41.5929,-39.88684 20.16058,-10.10999 37.24599,-25.14859 45.00075,-47.66106 13.85228,-30.1863 18.27867,-67.82465 1.21326,-97.55545 -4.50632,-7.10563 -3.81264,-15.03 -1.90179,-22.65625 1.64942,-7.16817 -0.23755,-14.2881 -2.11607,-21.06696 5.16115,-10.92521 -1.70341,-28.36097 -13.375,-31.13393 -8.09154,-2.20145 -14.41302,2.70865 -22.51339,0.13839 -17.10614,-2.78702 -36.98458,-1.46414 -54.0235,-5.92129 -11.08063,-2.81482 -22.37044,-6.41227 -33.96311,-5.36889 -6.28126,-0.6242 -12.48077,-1.57748 -18.875,-1.28571 z"
         style="fill:none;stroke:#333333;stroke-width:1;stroke-miterlimit:4;stroke-opacity:1;stroke-dasharray:none" />
      <path
         sodipodi:nodetypes="cccccccccccccccccccccccc"
         inkscape:connector-curvature="0"
         id="path3248"
         d="m 225.375,428.03125 c -6.49458,-0.6151 -12.38556,3.42781 -18.4375,4.15625 -9.07489,-1.05608 -14.78192,7.61473 -22.21875,11.1875 -18.03992,13.98034 -27.63624,35.81434 -39.84375,54.65625 -11.1035,22.03902 -10.97522,47.34151 -13.59375,71.4375 -1.21886,12.33602 -5.26918,24.86614 -1.44895,36.61446 0.34015,7.4104 6.74014,18.46641 14.38645,21.74715 4.29073,2.57866 11.04213,0.17376 14.28125,3.70089 0.23407,11.35924 -5.38056,28.81117 3.21875,38.35268 23.10146,19.33657 54.3469,31.61299 76.65625,52.125 6.20047,6.74708 9.31614,18.22099 19.1875,20.4375 6.6009,0.50856 13.60401,-14.68293 18.13393,-18.16518 5.69306,-6.22636 6.13424,-15.87409 13.65625,-20.625 12.61536,-15.45938 24.64779,-33.19881 43.75403,-40.82051 20.25987,-10.27251 33.51737,-27.78142 40.54943,-49.49955 13.69595,-30.79357 19.23021,-69.15939 1.14297,-98.96119 -5.56962,-10.73869 3.47957,-22.25827 -0.0357,-33.4375 -1.05288,-3.91328 -0.78651,-7.56908 0.86607,-11.40625 -0.33878,-23.39452 -11.90605,-36.23501 -26.19196,-33.22768 -6.8075,0.87198 -13.55792,1.65104 -20.3125,-0.43303 -20.39477,-2.35984 -41.34225,2.8031 -61.03125,-3.83929 -11.9748,-3.74865 -24.53532,-2.41042 -36.8125,-3.96875 -1.96469,-0.10013 -3.94208,-0.16646 -5.90625,-0.0312 z"
         style="fill:none;stroke:#333333;stroke-width:1;stroke-miterlimit:4;stroke-opacity:1;stroke-dasharray:none" />
      <path
         sodipodi:nodetypes="ccccccccccccccccccccccc"
         inkscape:connector-curvature="0"
         id="path3252"
         d="m 222.875,426 c -26.39896,-3.85833 -13.29427,1.26309 -20.46875,0.87072 -8.04299,2.0667 -13.59509,12.28102 -20.625,16.31678 -17.80744,14.90829 -30.18404,36.63138 -42.24413,56.0625 -12.86287,28.0158 -7.2965,59.81196 -12.98835,89.52546 -0.93954,10.5275 -3.38323,21.63634 2.00437,30.78704 4.34803,7.65701 16.7365,12.72499 25.66561,12 4.49008,0.31915 1.18823,6.38086 1.6875,9.21875 -1.27395,11.14586 -3.25419,29.9172 7.5706,37.15455 23.60426,18.90837 53.51906,25.89014 74.96065,47.3142 5.42958,7.2813 9.96728,23.01971 20.5625,23.16561 9.35654,-3.13035 12.41815,-13.49125 19.34375,-19.65117 4.72589,-6.51022 6.13573,-16.41476 13.19122,-21.10029 12.5288,-15.75054 25.02535,-36.57688 44.46503,-44.0704 19.84813,-10.42009 36.99929,-29.85943 43.66053,-50.9375 13.22632,-30.30418 14.9073,-67.98236 -2.31678,-97.875 -6.7053,-10.88286 6.53491,-23.5822 2.24921,-35 -1.64202,-5.66188 -0.63442,-11.03575 -2.37421,-16.8125 -1.01724,-12.39545 -1.73048,-27.49611 -15.68908,-29 -9.00817,0.0781 -24.30242,1.20694 -33.1794,-1.72299 -21.04935,-1.97228 -42.99112,2.43068 -63.19402,-5.14107 -12.85897,-5.09673 -26.09102,-0.33358 -39.125,-1.10469 -1.05109,0.0949 -2.10315,-0.12615 -3.15625,0 z"
         style="fill:none;stroke:#333333;stroke-width:1;stroke-miterlimit:4;stroke-opacity:1;stroke-dasharray:none" />
      <path
         sodipodi:nodetypes="ccccccccccccccccccccccc"
         inkscape:connector-curvature="0"
         id="path3256"
         d="m 207.03125,422.625 c -2.99556,-0.0347 -3.74081,3.17981 -6.8125,2.84375 -8.56661,2.51727 -13.06564,9.51428 -22.17937,18.32679 -17.72083,15.21803 -33.13756,26.90341 -41.50813,57.29821 -11.69343,28.60788 -16.76772,52.91647 -12.28231,90.46425 -5.07305,12.34935 -4.8782,31.35526 9.25106,39.00371 6.02956,4.34875 14.08534,3.22681 21.0625,3.18829 -1.10886,13.8865 -7.32007,29.97757 1.34962,42.21875 22.90277,21.49462 49.00694,31.32577 80.86913,50.4375 5.98327,8.15918 8.98678,24.10026 20.0625,26.81171 8.81979,0.55862 13.83233,-8.9247 18.5,-15 5.15621,-5.09326 8.48778,-10.9955 11.21875,-17.71368 3.34136,-6.7076 10.04429,-10.77748 13.6888,-17.41308 10.31647,-13.99786 21.77302,-26.7338 38.59245,-33.22286 21.09499,-11.70026 40.55286,-37.39962 47.80618,-60.29958 12.45961,-31.07948 10.93086,-68.39805 -6.47337,-97.60001 -3.2757,-11.3868 9.05578,-22.28672 4.1039,-33.75 -1.58441,-11.16985 -2.89012,-22.58123 -5.7914,-33.4375 -2.14873,-9.03265 -10.09534,-17.65658 -19.14008,-15.71895 -10.56619,0.74721 -24.60575,2.72763 -34.84898,0.8752 -20.86907,-1.01276 -40.36204,-2.66684 -62.53125,-5.96875 -10.4181,-8.69134 -28.62316,-0.3742 -47.0625,-1.03125 -2.61344,-0.24213 -5.24997,-0.52136 -7.875,-0.3125 z"
         style="fill:none;stroke:#333333;stroke-width:1;stroke-miterlimit:4;stroke-opacity:1;stroke-dasharray:none" />
      <path
         sodipodi:nodetypes="cccccccccccccccccccccccc"
         inkscape:connector-curvature="0"
         id="path3260"
         d="m 247.34375,412.94924 c -13.17458,0.80225 -26.1423,6.1699 -39.4375,4.5828 -3.98043,-0.43131 -6.05075,2.64895 -9.9375,2.55235 -11.81943,5.00738 -18.12865,18.28594 -28.53521,25.41707 -16.59941,13.25299 -31.79976,34.14865 -36.82885,55.02979 -12.38556,28.05017 -17.61895,59.32025 -13.56604,89.73726 -3.72587,9.60211 -6.82556,19.43909 3.2426,31.29399 3.74916,14.69329 17.46441,15.89857 28.93697,14.26654 2.60799,1.31474 -0.76257,7.79254 -0.56197,11.04596 -2.72051,12.66489 -7.12445,33.3098 8.3125,34.53125 22.83927,25.60355 51.43186,31.07504 76.75,46.9375 5.97243,9.26486 8.66625,27.67075 20.84375,30.91561 11.54732,0.62082 16.23487,-10.74316 23.0625,-17.67735 6.76337,-7.5428 8.3093,-18.35987 16.49363,-24.83337 8.96508,-10.92189 16.58197,-23.22244 28.31887,-31.54163 8.9335,-6.75469 25.1916,-14.64208 33.33201,-22.55076 25.53279,-21.51294 35.66238,-53.73662 38.69924,-86.65625 1.95968,-22.91248 -3.50205,-45.97613 -14.65625,-65.84375 -1.32749,-11.11692 9.27943,-21.33454 4.40625,-32.46875 -2.50856,-13.83256 -2.53546,-34.80613 -9.15625,-47.43592 -4.1321,-7.16655 -12.70458,-7.15489 -20.87223,-4.97872 -13.11108,1.67298 -26.28331,-1.34989 -39.34652,-2.79237 -18.26463,-1.33845 -36.9045,-2.32991 -54.6875,-5.9375 -4.21977,-3.03158 -9.69206,-3.78678 -14.8125,-3.59375 z"
         style="fill:none;stroke:#333333;stroke-width:1;stroke-miterlimit:4;stroke-opacity:1;stroke-dasharray:none" />
      <path
         sodipodi:nodetypes="ccccccccccccccccccccccccc"
         inkscape:connector-curvature="0"
         id="path3264"
         d="m 245.9375,409.01094 c -13.44033,1.38172 -24.54533,8.04917 -38.16719,6.58281 -5.52159,2.28031 -13.65291,-2.11172 -18.14531,2.23049 -8.92212,7.6858 -12.47165,17.66498 -22.33859,24.35563 -16.55144,14.55944 -35.9064,37.92283 -41.70202,59.21623 -11.61213,27.41485 -17.4808,58.94709 -13.6664,88.63515 -4.73225,9.99881 0.0391,22.69778 7.63031,31.35428 2.52068,6.00504 5.88355,12.58637 12.60795,14.92697 5.65547,2.39526 12.22836,2.20841 18.03125,1.8125 -1.73751,12.48026 -8.1754,27.86165 -3.32265,40.20781 1.74982,4.58782 7.75755,8.27847 11.7289,9.67655 20.03071,22.69002 48.38809,28.62421 73.66719,43.7922 6.23377,10.49838 7.94715,30.93931 20.53125,36.08201 10.23186,2.60229 27.55644,-22.67963 33.78541,-23.65955 -0.8882,-9.22142 2.37044,-14.18466 11.73603,-21.95297 10.67467,-14.04484 21.1809,-28.5971 37.21762,-36.93904 21.15062,-11.29185 44.63083,-33.31617 54.45701,-55.39451 10.24932,-22.81971 10.09949,-48.33284 8.41799,-73.40625 -1.39756,-16.67415 -7.01212,-32.84342 -14.6875,-47.53125 -0.10933,-10.78523 13.28697,-20.97993 8.47811,-31.84375 -3.07938,-16.38673 -3.30071,-29.43649 -14.38436,-49.40625 7.04185,-3.40521 -17.00174,-7.83305 -25.46875,-4.125 -17.9784,0.65641 -35.53296,-4.26915 -53.52798,-4.45582 -12.18597,-1.15705 -22.62028,-5.86398 -34.38921,-8.92854 -4.8918,-3.00002 -12.85834,-1.6598 -18.48906,-1.2297 z"
         style="fill:none;stroke:#333333;stroke-width:1;stroke-miterlimit:4;stroke-opacity:1;stroke-dasharray:none" />
      <path
         sodipodi:nodetypes="cccccccccccccccccccccccccccc"
         inkscape:connector-curvature="0"
         id="path3268"
         d="m 250.22768,405.30357 c -10.75565,-5.93104 -27.0306,9.7512 -43.10268,8.41518 -9.07908,-3.07703 -15.5584,-4.64998 -20.4375,2.27679 -8.47399,0.73536 -13.26388,16.82473 -22.3125,26.09821 -18.51443,16.78553 -33.07563,28.41176 -42.11565,62.087 -10.97858,27.15375 -18.44507,56.98721 -15.49149,86.06925 -4.6,11.5879 1.5014,31.46931 11.45089,33.09375 2.99843,8.91721 8.10523,18.7068 20.3125,16.65625 3.06526,0.42077 4.04947,0.44657 7.13839,0.25 -2.22997,13.39757 -6.72304,33.65924 1.04911,46.48661 4.04363,12.63802 11.4558,3.99738 15.34375,7.76339 19.35322,18.79513 46.88325,25.0996 69.0625,39.34375 6.16214,20.88715 6.98675,34.37015 19.625,37.78125 8.77216,8.78739 19.30828,-6.01777 25.75,-12.84375 6.46011,-10.5063 21.01924,-6.85655 17.06696,-21.49554 3.4442,-9.1209 8.72499,-13.35253 13.95032,-21.53016 8.98446,-12.10304 14.08471,-17.3142 27.57647,-23.97876 27.18763,-17.20729 61.68991,-47.79463 66.71996,-80.64523 3.39379,-20.92622 1.31696,-46.91113 -2.17978,-67.76995 -2.30189,-12.59815 -7.49205,-24.46887 -12.42411,-35.96875 1.56693,-10.69196 13.05287,-20.61971 8.3125,-31.96429 -2.36989,-16.6291 -4.77496,-31.93 -12.91071,-46.52678 2.47486,-4.76173 -6.96747,-7.01907 -10.23661,-7.65179 -7.54354,-1.73859 -13.89262,-2.41681 -21.32125,-1.00309 -18.45463,-0.25263 -34.33145,-3.62767 -52.76357,-4.30495 -12.29708,-2.12577 -14.01961,-5.05246 -36,-9.83035 -1.51374,-0.1723 -3.04227,0.21921 -4.5625,0.26344 -3.04168,-1.98219 -5.40661,-1.93414 -7.5,-1.07148 z"
         style="fill:none;stroke:#333333;stroke-width:1;stroke-miterlimit:4;stroke-opacity:1;stroke-dasharray:none" />
      <path
         sodipodi:nodetypes="cccsccccccccccccccccccccccccccccc"
         inkscape:connector-curvature="0"
         id="path3272"
         d="m 239.49064,402 c -12.93966,1.09228 -14.59062,11.77101 -27.90355,9.25 -6.68352,-2.80672 -21.46904,-5.17507 -26.18084,1.39102 -9.71927,3.23025 -15.10284,16.47504 -21.21288,23.57773 -10.37237,12.05748 -21.56306,16.12151 -29.94337,29.85549 -10.29154,15.26107 -13.79064,38.75666 -20.53125,55.67576 -7.17009,21.97354 -12.13127,45.29642 -10.07265,68.4375 -3.40224,11.37922 -3.26885,25.9108 6.44337,33.46875 5.09755,1.39085 7.9948,10.45619 11.56678,13.86913 3.7862,5.88883 7.59751,5.65181 14.18322,4.56837 5.29064,-0.92574 6.96549,3.25978 6.31707,6.98776 -2.58148,14.00877 -5.90566,29.47106 1.75558,42.07474 2.26057,5.23195 11.01519,7.2622 15.77538,6.36406 6.40701,5.0123 12.76975,13.25611 20.20889,17.08941 15.98857,9.26087 32.30795,13.16291 48.02588,23.04066 4.23621,11.78752 5.89028,26.77233 16.10898,35.5 3.35928,1.93992 6.67817,3.08871 10.09375,4.86993 10.0156,1.8277 17.67342,-7.13257 23.66518,-13.30602 3.70622,-6.47071 11.54963,-9.75047 17.04464,-14.08483 3.7851,-3.17811 4.56377,-9.82517 4.76786,-13.80357 4.99206,-9.97201 10.86007,-17.67497 17.43303,-26.62946 8.99872,-11.71449 22.27206,-14.45814 33.19956,-23.92439 22.37636,-17.12981 45.25617,-40.68939 53.24363,-68.52204 5.60739,-26.15921 3.90801,-53.51005 -0.86484,-79.59375 -2.53139,-10.87142 -8.86628,-21.12163 -12.76523,-31.4375 2.56767,-10.44384 14.27521,-20.31282 9.64023,-31.75 -1.96511,-16.01782 -5.86926,-32.30948 -13.06758,-46.625 0.5246,-6.73801 -21.84788,-10.66245 -26.80236,-11.79741 -11.48898,-3.4117 -15.21818,0.46096 -26.87468,-1.59627 -14.02827,-1.7013 -23.26196,-1.56006 -37.17179,-3.30905 -11.48785,-2.83375 -14.19027,-6.85324 -26.19495,-7.48477 -3.05905,0.1896 -12.15194,-6.07008 -15.43592,-4.56678 -2.14225,-0.92946 -12.08823,2.23194 -14.45114,2.41053 z"
         style="fill:none;stroke:#333333;stroke-width:1;stroke-miterlimit:4;stroke-opacity:1;stroke-dasharray:none" />
      <path
         sodipodi:nodetypes="cccccccccccccccccccccccccccccccc"
         inkscape:connector-curvature="0"
         id="path3276"
         d="m 254.46875,395.89102 c -7.06226,0.1884 -14.09972,3.45932 -21.03125,4.8539 -7.37946,2.7403 -13.9706,9.72171 -22.5625,6.04727 -8.65498,-2.72788 -20.12018,-4.55129 -27.21875,2.34375 -13.01582,6.17851 -16.43941,24.17177 -27.6875,32.55156 -11.52779,8.98714 -23.62638,18.94773 -29.16133,32.9375 -7.45931,17.38963 -11.18663,36.02105 -17.77282,53.77456 -6.17455,20.05826 -10.938735,41.33131 -9.648655,62.35044 -3.321545,11.74306 -2.772449,27.21754 8.062495,34.8125 5.90715,3.13684 5.983,10.86398 10.64103,15.25 3.97821,5.43925 14.12675,6.04522 19.71795,5.80663 4.43817,2.43294 0.75423,6.40976 0.94258,10.13087 -2.36647,13.10644 -3.37411,31.68934 6.71875,41.84375 4.01376,3.27983 9.51739,3.36957 14.15625,3.96875 8.53364,8.31459 17.18274,15.97558 28.46875,20.37946 12.63683,6.21843 26.78043,10.53732 38.3125,18.60715 4.33391,12.51505 6.08408,29.27737 17.96875,37.29018 5.89964,3.24223 12.70485,6.60697 19.3125,3.1875 9.46733,-3.83755 14.96388,-13.05529 22.53633,-19.21001 5.90314,-4.17539 13.6061,-8.60698 14.55742,-16.8539 0.89178,-11.55883 9.97282,-20.17638 16.02614,-29.5584 9.15737,-13.94018 29.2292,-20.22017 40.88031,-31.42654 22.35339,-18.12056 42.75531,-40.73322 49.76503,-69.32169 5.11343,-27.146 3.56573,-55.40971 -2.53125,-82.15625 -2.83746,-9.41339 -7.35922,-18.0599 -10.36485,-27.1875 3.3827,-10.24968 12.44523,-20.1056 7.89102,-31.8125 -2.06105,-17.37652 -6.23998,-34.84739 -14.11992,-50.25 -8.78663,-7.34391 -18.05868,-7.95885 -28.75079,-10.78125 -8.85533,-0.94642 -29.46951,0.0276 -38.29382,-2.02671 -15.62403,-1.89696 -18.50355,0.6367 -32.74838,-6.75454 -6.6755,-2.98076 -17.46774,-1.36447 -23.68671,-5.6875 -2.19784,-0.82775 -7.97111,-3.35797 -10.37928,-3.10898 z"
         style="fill:none;stroke:#333333;stroke-width:1;stroke-miterlimit:4;stroke-opacity:1;stroke-dasharray:none" />
      <path
         sodipodi:nodetypes="ccccccccccccccccccccccccccccccc"
         inkscape:connector-curvature="0"
         id="path3280"
         d="m 247.84216,393.84312 c -8.40345,0.728 -10.18171,1.56058 -18.06091,4.29282 -6.01199,3.42909 -9.58621,10.02012 -16.49572,6.20781 -9.33423,-2.90968 -24.2124,-6.35393 -31.81678,0.65704 -14.14466,8.2406 -16.77363,30.3518 -31.125,38.56171 -12.72024,9.68526 -28.32121,22.15948 -32.93,37.84185 -6.45696,19.49496 -11.9069,39.20626 -17.91032,58.84019 -4.544792,16.62398 -6.901919,33.92222 -6.38779,51.13046 -3.610126,12.94554 -1.612622,32.27472 10.9375,39.61913 4.70643,5.64735 6.10388,16.214 13.78125,19.23398 4.92776,2.65581 11.07142,-2.30442 16,-1.00936 -1.69552,10.82843 -2.95831,22.51718 -0.89523,33.67508 1.39446,9.46568 10.08897,24.14939 20.96709,24.5167 7.07873,-0.34285 10.40218,7.73053 15.96875,11.06758 16.21895,13.13472 37.70341,12.67162 54.84375,24.33439 4.507,13.77293 6.62096,34.19919 21.03125,41.5625 7.34997,7.94116 16.05331,5.37591 22.34375,-2.3125 13.28589,-2.02006 18.33087,-16.76933 28.51786,-22.71875 6.00295,-4.06092 9.01948,-12.57737 9.60127,-19.57773 9.71475,-5.16085 9.91916,-11.98682 15.44924,-21.27776 12.00956,-12.40129 29.3445,-17.55498 41.49413,-29.90117 24.43498,-20.42191 46.20533,-53.59984 48.31469,-86.51998 2.36596,-24.63212 4.80853,-50.00388 -2.11582,-73.6944 -2.50235,-7.58461 -8.08544,-14.79047 -10.04849,-22.40396 4.05322,-10.02028 13.5936,-20.68887 9.14023,-31.9375 -2.25524,-17.69774 -3.65828,-35.68715 -12.31837,-51.34375 -9.40166,-7.71633 -28.59129,-12.85106 -40.28474,-14.53046 -14.06417,-0.0981 -23.56235,-0.52925 -37.48556,-2.4375 -9.19116,0.28742 -13.78165,0.88581 -21.80187,-3.43829 -8.09361,-2.43502 -22.55544,-1.32257 -29.92957,-6.03125 0.21049,-3.27609 -17.89382,-4.42789 -18.78459,-2.40688 z"
         style="fill:none;stroke:#333333;stroke-width:1;stroke-miterlimit:4;stroke-opacity:1;stroke-dasharray:none" />
      <path
         sodipodi:nodetypes="cccccccccccccccccccccccccccccccc"
         inkscape:connector-curvature="0"
         id="path3284"
         d="m 247.99318,390.11739 c -10.06766,1.80093 -17.7132,3.32876 -25.49318,10.94511 -3.18289,3.59534 -7.71946,2.20823 -11.46329,0.51279 -10.60737,-3.08544 -25.54105,-5.08129 -34.39823,3.04971 -13.60164,9.95675 -13.83477,29.32512 -29.10102,37.80257 -14.75511,11.0941 -33.96657,27.92962 -38.13591,46.69004 -6.93625,34.3112 -13.535806,48.32521 -18.046855,73.00914 -2.347608,11.40305 0.228624,18.42381 -0.823445,29.85802 -2.794581,13.91027 -0.296259,32.61214 12.4375,40.82773 4.75339,10.92999 6.93061,23.5452 17.37246,21.45019 3.58778,1.27849 7.04309,-0.70302 11.22129,-3.23144 -2.67477,17.25615 -4.9215,38.75201 8.0836,52.32011 3.97888,4.80774 10.87538,7.68864 16.88261,8.03887 6.16151,3.72097 10.35659,8.77474 16.90879,12.10977 15.23235,9.72149 34.44553,10.57024 49.59375,20.625 4.65255,14.78375 7.81661,38.3509 21.5625,42.9164 3.40499,8.63739 17.39029,6.12696 23.09375,-0.81504 3.03346,-2.95487 5.74887,-1.18157 8.85089,-4.4835 5.93756,-5.13237 14.91119,-17.41868 23.58661,-22.68036 5.73774,-1.9614 7.15166,-5.87691 8,-18.0625 9.60164,-1.40748 10.56847,-16.28582 17.1875,-23.25 22.65865,-12.07697 29.12424,-15.01374 40.95347,-27.76398 27.00118,-19.62116 45.4543,-58.64679 47.9228,-95.34769 1.98909,-23.67505 4.5261,-49.53882 -4.21494,-72.08344 -2.46834,-5.90865 -7.19505,-10.52634 -8.44258,-16.77364 4.53392,-9.92385 14.49539,-19.8738 10.13769,-31.39864 -2.32397,-17.83186 -4.91892,-37.55633 -14.29394,-53.25761 -6.00798,-9.52016 -26.58104,-12.94029 -42.49992,-14.98109 -29.50517,-3.78323 -27.49237,-1.92983 -40.81235,-2.27889 -10.67711,-2.03095 -13.9313,-2.48366 -19.53148,-4.14627 -30.42552,-6.40702 -19.02145,-1.98701 -26.59629,-6.70273 -4.18801,-3.90934 -14.58884,-2.69249 -19.94178,-2.89863 z"
         style="fill:none;stroke:#333333;stroke-width:1;stroke-miterlimit:4;stroke-opacity:1;stroke-dasharray:none" />
      <path
         inkscape:connector-curvature="0"
         id="path3288"
         d="m 250.21875,388.15625 c -11.36027,0.41772 -22.63882,4.52164 -30.65625,12.71875 -5.33176,1.4745 -10.25161,-2.94674 -15.65625,-3.03125 -11.30378,-2.55298 -24.42132,-0.61619 -32.21875,8.4375 -10.3662,10.5096 -12.28212,27.88436 -26.17287,35.16533 -17.87876,13.72692 -36.7291,30.70171 -39.59774,54.43778 -4.78773,25.19326 -15.326151,49.40922 -17.559129,75.08424 0.406716,9.75548 0.69515,19.49415 -0.795261,29.1564 -0.752118,12.78832 3.433055,26.73898 14,34.5 3.63391,7.59458 5.24797,19.78291 15.0625,21.78125 4.18933,-0.0277 8.57989,0.90038 12.34375,-1.5625 -2.71962,17.48278 -3.08071,38.82661 10.9375,51.6875 4.49576,4.37508 10.80422,6.05291 16.6875,7.25 10.53205,8.81226 22.24507,16.40941 35.57644,20.08907 9.90572,3.48631 21.37274,5.60069 29.39231,12.25468 4.56597,13.99499 5.89123,31.39171 18.40625,40.875 3.99621,1.37234 5.32539,6.36239 9.84375,7 7.62716,2.0762 15.33551,-1.9322 20.53125,-7.25 9.43422,-1.67355 14.00141,-11.4618 20.63743,-17.27671 4.01385,-4.86582 9.44289,-7.9538 14.51882,-11.31704 4.24951,-4.07897 3.36395,-11.04909 5.03125,-15.6875 11.67875,-4.52752 9.05469,-22.16495 21.30326,-25.90006 13.5572,-6.7729 26.68165,-14.61134 36.88424,-25.91244 30.57121,-24.08808 46.06133,-63.6454 47.96875,-101.85413 1.77513,-23.41963 3.82878,-48.77023 -6.59375,-70.45837 -2.21396,-5.09563 -9.3291,-10.72419 -4.39397,-16.20257 5.41603,-8.5262 11.81857,-18.9258 7.76463,-29.28903 -2.70147,-18.95625 -4.87833,-39.3584 -16.33941,-55.2584 -11.59473,-10.31256 -28.39136,-11.20753 -42.99209,-13.53176 -13.46577,-2.28186 -27.21536,-2.37797 -40.83432,-2.3724 -13.7933,-2.47972 -27.36405,-6.22469 -41.23609,-8.22084 -5.8302,-5.73803 -14.15414,-5.63125 -21.84375,-5.3125 z"
         style="fill:none;stroke:#333333;stroke-width:1;stroke-miterlimit:4;stroke-opacity:1;stroke-dasharray:none" />
    </g>
    <path
       id="path3367"
       d=""
       style="fill:none;stroke:#000000"
       inkscape:connector-curvature="0" />
    <path
       id="path3375"
       d=""
       style="fill:none;stroke:#000000"
       inkscape:connector-curvature="0" />
    <path
       id="path3391"
       d=""
       style="fill:none;stroke:#000000"
       inkscape:connector-curvature="0" />
    <path
       id="path3407"
       d=""
       style="fill:none;stroke:#000000"
       inkscape:connector-curvature="0" />
    <path
       id="path3429"
       d=""
       style="fill:none;stroke:#000000"
       inkscape:connector-curvature="0" />
    <path
       inkscape:connector-curvature="0"
       style="fill:none;stroke:#000000"
       d=""
       id="path3738" />
    <path
       inkscape:connector-curvature="0"
       style="fill:none;stroke:#000000"
       d=""
       id="path3746" />
    <path
       inkscape:connector-curvature="0"
       style="fill:none;stroke:#000000"
       d=""
       id="path3750" />
    <path
       inkscape:connector-curvature="0"
       style="fill:none;stroke:#000000"
       d=""
       id="path3766" />
    <path
       inkscape:connector-curvature="0"
       style="fill:none;stroke:#000000"
       d=""
       id="path3782" />
    <path
       inkscape:connector-curvature="0"
       style="fill:none;stroke:#000000"
       d=""
       id="path3804" />
    <g
       id="g4357"
       transform="matrix(0.74202323,0,0,0.74202323,51.763714,150.04922)">
      <g
         transform="translate(889.42858,117.71429)"
         id="g4029">
        <g
           transform="matrix(1.08,0,0,1.08,72.437458,-49.544094)"
           id="g4048">
          <path
             id="path3752"
             d="m -779.96822,494.80118 0,21 m 0,-21 9,0 3,1 1,1 1,2 0,2 -1,2 -1,1 -3,1 -9,0 m 7,0 7,11"
             style="fill:none;stroke:#000000"
             inkscape:connector-curvature="0" />
          <path
             id="path3754"
             d="m -753.96822,494.80118 -2,1 -2,2 -1,2 -1,3 0,5 1,3 1,2 2,2 2,1 4,0 2,-1 2,-2 1,-2 1,-3 0,-5 -1,-3 -1,-2 -2,-2 -2,-1 -4,0"
             style="fill:none;stroke:#000000"
             inkscape:connector-curvature="0" />
          <path
             id="path3756"
             d="m -736.96822,494.80118 0,21 m 0,-21 9,0 3,1 1,1 1,2 0,2 -1,2 -1,1 -3,1 m -9,0 9,0 3,1 1,1 1,2 0,3 -1,2 -1,1 -3,1 -9,0"
             style="fill:none;stroke:#000000"
             inkscape:connector-curvature="0" />
          <path
             id="path3758"
             d="m -710.96822,494.80118 -2,1 -2,2 -1,2 -1,3 0,5 1,3 1,2 2,2 2,1 4,0 2,-1 2,-2 1,-2 1,-3 0,-5 -1,-3 -1,-2 -2,-2 -2,-1 -4,0"
             style="fill:none;stroke:#000000"
             inkscape:connector-curvature="0" />
          <path
             id="path3760"
             d="m -689.96822,494.80118 0,21 m -7,-21 14,0"
             style="fill:none;stroke:#000000"
             inkscape:connector-curvature="0" />
          <path
             id="path3762"
             d="m -677.96822,494.80118 0,21"
             style="fill:none;stroke:#000000"
             inkscape:connector-curvature="0" />
          <path
             id="path3764"
             d="m -655.96822,499.80118 -1,-2 -2,-2 -2,-1 -4,0 -2,1 -2,2 -1,2 -1,3 0,5 1,3 1,2 2,2 2,1 4,0 2,-1 2,-2 1,-2"
             style="fill:none;stroke:#000000"
             inkscape:connector-curvature="0" />
        </g>
      </g>
      <g
         transform="matrix(1,0,0,2.3975657,896.57143,-585.23143)"
         id="g4020">
        <path
           inkscape:connector-curvature="0"
           style="fill:none;stroke:#000000"
           d="m -632.96822,494.80118 0,21 m 0,-21 7,0 3,1 2,2 1,2 1,3 0,5 -1,3 -1,2 -2,2 -3,1 -7,0"
           id="path3768" />
        <path
           inkscape:connector-curvature="0"
           style="fill:none;stroke:#000000"
           d="m -611.96822,494.80118 0,21 m 0,-21 9,0 3,1 1,1 1,2 0,2 -1,2 -1,1 -3,1 -9,0 m 7,0 7,11"
           id="path3770" />
        <path
           inkscape:connector-curvature="0"
           style="fill:none;stroke:#000000"
           d="m -585.96822,494.80118 -8,21 m 8,-21 8,21 m -13,-7 10,0"
           id="path3772" />
        <path
           inkscape:connector-curvature="0"
           style="fill:none;stroke:#000000"
           d="m -574.96822,494.80118 5,21 m 5,-21 -5,21 m 5,-21 5,21 m 5,-21 -5,21"
           id="path3774" />
        <path
           inkscape:connector-curvature="0"
           style="fill:none;stroke:#000000"
           d="m -548.96822,494.80118 0,21"
           id="path3776" />
        <path
           inkscape:connector-curvature="0"
           style="fill:none;stroke:#000000"
           d="m -540.96822,494.80118 0,21 m 0,-21 14,21 m 0,-21 0,21"
           id="path3778" />
        <path
           inkscape:connector-curvature="0"
           style="fill:none;stroke:#000000"
           d="m -504.96822,499.80118 -1,-2 -2,-2 -2,-1 -4,0 -2,1 -2,2 -1,2 -1,3 0,5 1,3 1,2 2,2 2,1 4,0 2,-1 2,-2 1,-2 0,-3 m -5,0 5,0"
           id="path3780" />
      </g>
      <g
         transform="matrix(0.78457663,0,0,0.78457663,495.79704,243.71082)"
         id="g4008">
        <path
           inkscape:connector-curvature="0"
           style="fill:none;stroke:#000000"
           d="m -467.96822,499.80118 -1,-2 -2,-2 -2,-1 -4,0 -2,1 -2,2 -1,2 -1,3 0,5 1,3 1,2 2,2 2,1 4,0 2,-1 2,-2 1,-2"
           id="path3784" />
        <path
           inkscape:connector-curvature="0"
           style="fill:none;stroke:#000000"
           d="m -455.96822,494.80118 -2,1 -2,2 -1,2 -1,3 0,5 1,3 1,2 2,2 2,1 4,0 2,-1 2,-2 1,-2 1,-3 0,-5 -1,-3 -1,-2 -2,-2 -2,-1 -4,0"
           id="path3786" />
        <path
           inkscape:connector-curvature="0"
           style="fill:none;stroke:#000000"
           d="m -438.96822,494.80118 0,21 m 0,0 12,0"
           id="path3788" />
        <path
           inkscape:connector-curvature="0"
           style="fill:none;stroke:#000000"
           d="m -421.96822,494.80118 0,21 m 0,0 12,0"
           id="path3790" />
        <path
           inkscape:connector-curvature="0"
           style="fill:none;stroke:#000000"
           d="m -404.96822,494.80118 0,21 m 0,-21 13,0 m -13,10 8,0 m -8,11 13,0"
           id="path3792" />
        <path
           inkscape:connector-curvature="0"
           style="fill:none;stroke:#000000"
           d="m -371.96822,499.80118 -1,-2 -2,-2 -2,-1 -4,0 -2,1 -2,2 -1,2 -1,3 0,5 1,3 1,2 2,2 2,1 4,0 2,-1 2,-2 1,-2"
           id="path3794" />
        <path
           inkscape:connector-curvature="0"
           style="fill:none;stroke:#000000"
           d="m -360.96822,494.80118 0,21 m -7,-21 14,0"
           id="path3796" />
        <path
           inkscape:connector-curvature="0"
           style="fill:none;stroke:#000000"
           d="m -348.96822,494.80118 0,21"
           id="path3798" />
        <path
           inkscape:connector-curvature="0"
           style="fill:none;stroke:#000000"
           d="m -343.96822,494.80118 8,21 m 8,-21 -8,21"
           id="path3800" />
        <path
           inkscape:connector-curvature="0"
           style="fill:none;stroke:#000000"
           d="m -322.96822,494.80118 0,21 m 0,-21 13,0 m -13,10 8,0 m -8,11 13,0"
           id="path3802" />
      </g>
      <g
         transform="translate(861.34736,82.663527)"
         id="g4057">
        <path
           inkscape:connector-curvature="0"
           style="fill:none;stroke:#000000"
           d="m -646.53965,584.08689 0,-1 1,-2 1,-1 2,-1 4,0 2,1 1,1 1,2 0,2 -1,2 -2,3 -10,10 14,0"
           id="path3806" />
        <path
           inkscape:connector-curvature="0"
           style="fill:none;stroke:#000000"
           d="m -621.53965,579.08689 -3,1 -2,3 -1,5 0,3 1,5 2,3 3,1 2,0 3,-1 2,-3 1,-5 0,-3 -1,-5 -2,-3 -3,-1 -2,0"
           id="path3808" />
        <path
           inkscape:connector-curvature="0"
           style="fill:none;stroke:#000000"
           d="m -604.53965,583.08689 2,-1 3,-3 0,21"
           id="path3810" />
        <path
           inkscape:connector-curvature="0"
           style="fill:none;stroke:#000000"
           d="m -586.53965,584.08689 0,-1 1,-2 1,-1 2,-1 4,0 2,1 1,1 1,2 0,2 -1,2 -2,3 -10,10 14,0"
           id="path3812" />
      </g>
      <g
         transform="matrix(1.1256552,0,0,1.1256552,11.14586,-73.011621)"
         id="g4339">
        <path
           inkscape:connector-curvature="0"
           style="fill:none;stroke:#000000;stroke-width:1.87211502"
           d="m 110.00117,541.78797 0,39.31442 m -13.104805,-39.31442 26.209615,0"
           id="path3730" />
        <path
           inkscape:connector-curvature="0"
           style="fill:none;stroke:#000000;stroke-width:1.87211502"
           d="m 132.46655,541.78797 0,39.31442 m 0,-39.31442 16.84904,0 5.61634,1.87212 1.87212,1.87211 1.87211,3.74423 0,3.74423 -1.87211,3.74423 -1.87212,1.87212 -5.61634,1.87211 -16.84904,0 m 13.10481,0 13.1048,20.59327"
           id="path3732" />
        <path
           inkscape:connector-curvature="0"
           style="fill:none;stroke:#000000;stroke-width:1.87211502"
           d="m 171.78097,541.78797 0,39.31442 m 0,-39.31442 24.33749,0 m -24.33749,18.72115 14.97692,0 m -14.97692,20.59327 24.33749,0"
           id="path3734" />
        <path
           inkscape:connector-curvature="0"
           style="fill:none;stroke:#000000;stroke-width:1.87211502"
           d="m 207.35115,541.78797 0,39.31442 m 0,-39.31442 24.3375,0 m -24.3375,18.72115 14.97692,0 m -14.97692,20.59327 24.3375,0"
           id="path3736" />
      </g>
      <g
         transform="matrix(0.87230712,0,0,1,63.861253,0)"
         id="g4349">
        <path
           inkscape:connector-curvature="0"
           style="fill:none;stroke:#000000;stroke-width:2.00539231"
           d="m 264.01787,537.45689 0,42.11325 m 0,-42.11325 28.07549,42.11325 m 0,-42.11325 0,42.11325"
           id="path3740" />
        <path
           inkscape:connector-curvature="0"
           style="fill:none;stroke:#000000;stroke-width:2.00539231"
           d="m 316.15807,539.46229 -4.01079,2.00539 -4.01078,4.01078 -2.0054,6.01619 0,4.01078 2.0054,6.01617 4.01078,4.01079 4.01079,2.00539 6.01617,0 4.01078,-2.00539 4.01079,-4.01079 2.00539,-6.01617 0,-4.01078 -2.00539,-6.01619 -4.01079,-4.01078 -4.01078,-2.00539 -6.01617,0"
           id="path3742" />
        <path
           inkscape:connector-curvature="0"
           style="fill:none;stroke:#000000;stroke-width:2.00539231"
           d="m 355.83835,545.47846 4.01079,-2.00538 6.01618,-6.01619 0,42.11325"
           id="path3748" />
        <path
           style="fill:none;stroke:#000000;stroke-width:1.6051079px;stroke-linecap:butt;stroke-linejoin:miter;stroke-opacity:1"
           d="m 304.22857,576.36086 30.40132,0"
           id="path4002"
           inkscape:connector-curvature="0" />
      </g>
      <path
         inkscape:connector-curvature="0"
         id="rect4063"
         d="m 415.26054,515.75323 c -115.65938,0.43275 -231.32017,-0.27023 -346.979173,0.34845 0.425666,58.58519 -0.468232,117.17547 0.411039,175.75765 119.569454,-0.54682 239.141114,0.42306 358.709554,-0.48783 -0.44863,-58.55035 0.57675,-117.10595 -0.3478,-175.65311 -3.93121,-6.6e-4 -7.86242,0.0242 -11.79362,0.0348 z"
         style="fill:none;stroke:#333333;stroke-width:1.06215715;stroke-miterlimit:4;stroke-opacity:1;stroke-dasharray:none" />
      <path
         inkscape:connector-curvature="0"
         id="path4355"
         d="m 168.57143,589.50504 167.14286,0"
         style="fill:none;stroke:#000000;stroke-width:1px;stroke-linecap:butt;stroke-linejoin:miter;stroke-opacity:1" />
    </g>
  </g>
</svg>
