<?xml version="1.0" encoding="UTF-8" standalone="no"?>
<!-- Created with Inkscape (http://www.inkscape.org/) -->

<svg
 xmlns:dc="http://purl.org/dc/elements/1.1/"
 xmlns:cc="http://creativecommons.org/ns#"
 xmlns:rdf="http://www.w3.org/1999/02/22-rdf-syntax-ns#"
 xmlns:svg="http://www.w3.org/2000/svg"
 xmlns="http://www.w3.org/2000/svg"
 xmlns:sodipodi="http://sodipodi.sourceforge.net/DTD/sodipodi-0.dtd"
 xmlns:inkscape="http://www.inkscape.org/namespaces/inkscape"
 sodipodi:docname="tree006.svg"
 inkscape:version="0.48.2 r9819"
 version="1.1"
 id="svg2"
 height="1052.3622047"
 width="744.09448819">
<sodipodi:namedview
 id="base"
 pagecolor="#ffffff"
 bordercolor="#666666"
 borderopacity="1.0"
 inkscape:pageopacity="0.0"
 inkscape:pageshadow="2"
 inkscape:zoom="0.50000000237434"
 inkscape:cx="-323.24042138669"
 inkscape:cy="705.1129910854"
 inkscape:document-units="px"
 inkscape:current-layer="layer1"
 showgrid="false"
 inkscape:window-width="1024"
 inkscape:window-height="749"
 inkscape:window-x="-4"
 inkscape:window-y="-4"
 inkscape:window-maximized="1" />
<defs
 id="defs4">
<clipPath
 id="clipPath">
<path
 id="path9452"
 d="M 389.91888427734,472.53460693359 C 389.91888427734,548.40790149468 328.41142627495,609.91535949707 252.53813171387,609.91535949707 176.66483715278,609.91535949707 115.15737915039,548.40790149468 115.15737915039,472.53460693359 115.15737915039,396.66131237251 176.66483715278,335.15385437012 252.53813171387,335.15385437012 328.41142627495,335.15385437012 389.91888427734,396.66131237251 389.91888427734,472.53460693359 z"
 style="color:#000000;fill:none;stroke:#000000;stroke-width:1;stroke-linecap:butt;stroke-linejoin:miter;stroke-miterlimit:4;stroke-dashoffset:0;stroke-opacity:1;marker:none;visibility:visible;display:inline;overflow:visible;enable-background:accumulate" />
</clipPath>
<filter
 y="-0.5"
 x="-0.5"
 width="2.0"
 height="2.0"
 id="filter">
<feGaussianBlur
 id="feGaussianBlur9461"
 stdDeviation="5.0" />
</filter>
<clipPath
 id="clipPathh">
<path
 id="path9515"
 d="M389.918884277 472.534606934C389.918884277 548.407901495 328.411426275 609.915359497 252.538131714 609.915359497M115.15737915 472.534606934C115.15737915 396.661312373 176.664837153 335.15385437 252.538131714 335.15385437"
 style="fill:none;stroke:#ffffff;stroke-opacity:1;stroke-width:10;filter:url(#filter);" />
</clipPath>
<filter
 y="-0.5"
 x="-0.5"
 width="2.0"
 height="2.0"
 id="filterC">
<feGaussianBlur
 id="feGaussianBlur9699"
 stdDeviation="6.59999990463" />
</filter>
</defs>
<metadata
 id="metadata7">
<rdf:RDF>
<cc:Work
 rdf:about="">
<dc:format>image/svg+xml</dc:format>
<dc:type
 rdf:resource="http://purl.org/dc/dcmitype/StillImage" />
</cc:Work>
</rdf:RDF>
</metadata>
<g
 inkscape:label="Layer 1"
 inkscape:groupmode="layer"
 id="layer1">
<path
 style="color:#000000;fill:none;stroke:#000000;stroke-width:1.9154191017;stroke-linecap:butt;stroke-linejoin:miter;stroke-miterlimit:4;stroke-opacity:1;stroke-dasharray:none;stroke-dashoffset:0;marker:none;visibility:visible;display:inline;overflow:visible;enable-background:accumulate"
 d="M 309.66070967603,291.21428481338 C 306.03536894934,290.75602679748 308.84911779903,297.66956392187 310.25445967603,293.08928481338 310.50865656414,292.52620436908 310.88719847743,290.79416529417 309.66070967603,291.21428481338 z"
 id="path3211"
 inkscape:connector-curvature="0" />
<path
 style="color:#000000;fill:none;stroke:#000000;stroke-width:1.9154191017;stroke-linecap:butt;stroke-linejoin:miter;stroke-miterlimit:4;stroke-opacity:1;stroke-dasharray:none;stroke-dashoffset:0;marker:none;visibility:visible;display:inline;overflow:visible;enable-background:accumulate"
 d="M 309.70981691725,289.16964212584 C 304.10423016227,288.35934409329 305.2067221944,298.5661716422 310.39731691725,296.32589212584 312.72664707718,294.75371396526 313.88817725797,289.04027368147 309.70981691725,289.16964212584 z"
 id="path3231"
 inkscape:connector-curvature="0" />
<path
 id="path3251"
 style="color:#000000;fill:none;stroke:#000000;stroke-width:1.9154191017;stroke-linecap:butt;stroke-linejoin:miter;stroke-miterlimit:4;stroke-opacity:1;stroke-dasharray:none;stroke-dashoffset:0;marker:none;visibility:visible;display:inline;overflow:visible;enable-background:accumulate"
 d="M 318.4107096945,291.21428481338 C 314.78536896781,290.75602679748 317.5991178175,297.66956392187 319.0044596945,293.08928481338 319.25865658261,292.52620436908 319.6371984959,290.79416529417 318.4107096945,291.21428481338 z M 308.45981691725,287.16964212584 C 301.21510586773,287.83206625013 303.52757013928,300.92256453078 310.67856691725,298.35714212584 316.10221260777,296.0300927444 315.97093436187,285.88263398572 308.45981691725,287.16964212584 z"
 inkscape:connector-curvature="0" />
<path
 style="color:#000000;fill:none;stroke:#000000;stroke-width:1.9154191017;stroke-linecap:butt;stroke-linejoin:miter;stroke-miterlimit:4;stroke-opacity:1;stroke-dasharray:none;stroke-dashoffset:0;marker:none;visibility:visible;display:inline;overflow:visible;enable-background:accumulate"
 d="M 309.27231691725,285.07589212584 C 301.51206830716,284.58257211137 299.50697670028,296.35363381415 305.80356691725,299.85714212584 309.66686303234,302.40479104289 314.43978371657,298.86741243541 315.95981691725,295.91964212584 321.55387350505,299.83264627692 323.69298144705,286.17871660877 316.55356691725,289.51339212584 315.34626995948,288.85176287665 314.03794604152,285.19544315496 311.36606691725,285.26339212584 310.68909789688,285.08487916672 309.97122914459,284.99570352045 309.27231691725,285.07589212584 z"
 id="path3254"
 inkscape:connector-curvature="0" />
<path
 id="path3265"
 style="color:#000000;fill:none;stroke:#000000;stroke-width:1.9154191017;stroke-linecap:butt;stroke-linejoin:miter;stroke-miterlimit:4;stroke-opacity:1;stroke-dasharray:none;stroke-dashoffset:0;marker:none;visibility:visible;display:inline;overflow:visible;enable-background:accumulate"
 d="M 301.08928108651,281.74999907912 C 297.46394035982,281.29174106322 300.27768920951,288.20527818761 301.68303108651,283.62499907912 301.93722797462,283.06191863482 302.31576988791,281.32987955991 301.08928108651,281.74999907912 z M 319.12499541029,300.49999911869 C 315.4996546836,300.04174110279 318.31340353329,306.95527822718 319.71874541029,302.37499911869 319.9729422984,301.81191867439 320.35148421169,300.07987959948 319.12499541029,300.49999911869 z M 309.02231691725,283.07589212584 C 299.38115797335,282.63830173998 296.73975213222,298.00034830205 305.20981691725,301.82589212584 309.44459377529,304.48724905134 314.24564369459,300.94406588128 317.17856691725,298.57589212584 323.99528726583,299.70129918404 325.53368520103,286.47376764266 318.11606691725,286.98214212584 315.79858245736,286.73724164237 314.24817643719,282.74394596484 311.08481691725,283.13839212584 310.40356459134,283.05427778501 309.70644242276,283.00133956124 309.02231691725,283.07589212584 z"
 inkscape:connector-curvature="0" />
<path
 style="color:#000000;fill:none;stroke:#000000;stroke-width:1.9154191017;stroke-linecap:butt;stroke-linejoin:miter;stroke-miterlimit:4;stroke-opacity:1;stroke-dasharray:none;stroke-dashoffset:0;marker:none;visibility:visible;display:inline;overflow:visible;enable-background:accumulate"
 d="M 300.95981691725,279.73214212584 C 296.83756509505,279.29467036896 296.08491759655,285.5852858081 299.49106691725,287.04464212584 295.23878794218,294.35563808368 300.59939914181,305.59603383598 309.58481691725,304.70089212584 312.26851652881,305.12174856626 315.56417006753,300.39062770781 316.05356691725,304.48214212584 319.43780253218,308.92009297397 322.98309886396,302.07814888728 321.95981691725,299.26339212584 327.21498512392,295.27765256435 325.52685920579,284.4535785163 318.05356691725,284.88839212584 314.89069847937,280.23567724806 308.0449745078,280.50033345317 303.92856691725,281.98214212584 303.8420124873,280.51634043536 302.37667403433,279.45449485486 300.95981691725,279.73214212584 z"
 id="path3268"
 inkscape:connector-curvature="0" />
<path
 id="path3280"
 style="color:#000000;fill:none;stroke:#000000;stroke-width:4.2620763779;stroke-linecap:butt;stroke-linejoin:miter;stroke-miterlimit:4;stroke-opacity:1;stroke-dasharray:none;stroke-dashoffset:0;marker:none;visibility:visible;display:inline;overflow:visible;enable-background:accumulate"
 d="M 328.62817433443,306.93393266888 C 326.85618755629,316.19619711504 322.6927543809,288.14228883793 328.62817433443,306.93393266888 z M 300.05356691725,277.73214212584 C 295.24402453185,278.13565546662 294.03402387887,284.66984406023 296.89731691725,287.82589212584 292.88811507334,297.05139005787 301.73444483038,309.51566756051 311.95981691725,306.32589212584 314.63200350422,303.5295984253 315.80376054902,308.95924225134 319.05356691725,307.88839212584 323.24384862796,307.09472082376 323.64200049062,302.17557655363 324.83481691725,299.16964212584 329.43511917103,293.65415078142 326.49262655459,283.30027342336 318.89731691725,282.73214212584 315.43824308161,278.4783361584 309.21614522765,279.03063672709 304.74106691725,279.13839212584 303.57829764959,277.79259007285 301.75628342551,277.5476830393 300.05356691725,277.73214212584 z"
 inkscape:connector-curvature="0" />
<path
 style="color:#000000;fill:none;stroke:#000000;stroke-width:4.2620763779;stroke-linecap:butt;stroke-linejoin:miter;stroke-miterlimit:4;stroke-opacity:1;stroke-dasharray:none;stroke-dashoffset:0;marker:none;visibility:visible;display:inline;overflow:visible;enable-background:accumulate"
 d="M 299.86606691725,275.73214212584 C 293.63795800733,276.17383237023 292.03724133871,284.00611685338 294.49106691725,288.57589212584 291.07877238089,299.13931731031 301.89362803996,312.17076921068 312.99106691725,308.10714212584 314.68549410505,307.40620862931 316.77517327548,311.28595822033 319.30356691725,309.88839212584 321.46973062092,309.93868164916 323.52855547013,307.23736403532 324.36606691725,306.60714212584 324.16710338449,309.9511640511 329.00721610887,312.86222696086 330.24106691725,308.70089212584 331.69716282752,305.12025453968 327.77765113869,301.35149641122 327.74106691725,298.32589212584 331.36732454544,291.54634841691 327.1904645224,281.91770983886 319.55356691725,280.51339212584 314.88379186138,275.62411142139 307.6250930276,278.35516543783 302.17856691725,275.73214212584 301.41150682355,275.64077562177 300.633117063,275.63421868537 299.86606691725,275.73214212584 z"
 id="path3285"
 inkscape:connector-curvature="0" />
<path
 id="path3309"
 style="color:#000000;fill:none;stroke:#000000;stroke-width:1.9154191017;stroke-linecap:butt;stroke-linejoin:miter;stroke-miterlimit:4;stroke-opacity:1;stroke-dasharray:none;stroke-dashoffset:0;marker:none;visibility:visible;display:inline;overflow:visible;enable-background:accumulate"
 d="M 287.30356674313,291.41964189632 C 286.13457671211,293.09006850653 289.46230949615,293.66912368678 289.30356674313,291.41964189632 293.0679249631,289.71044679418 287.61966116484,288.72025148072 287.30356674313,291.41964189632 z M 299.64731691725,273.73214212584 C 292.23139360396,274.20524009766 289.88784026894,283.36604515376 292.24106691725,289.20089212584 289.31000442921,301.05344005536 301.62965289248,314.25716593015 313.58481691725,310.16964212584 316.36392839982,313.2093129076 320.89456224387,312.11218979717 323.61606691725,310.35714212584 325.90289609511,314.37958485694 332.4948441941,312.85049980374 332.49106691725,307.98214212584 333.53308399026,303.6631414279 328.08688423436,300.19971671151 330.67856691725,296.10714212584 332.76678417163,288.25927101601 327.1688816215,280.31351341443 319.83481691725,278.04464212584 314.40309184178,274.06894290296 307.05423136301,275.77384688723 301.02231691725,273.66964212584 300.56412144669,273.69227489609 300.10081747981,273.62473775952 299.64731691725,273.73214212584 z"
 inkscape:connector-curvature="0" />
<path
 id="path3318"
 style="color:#000000;fill:none;stroke:#000000;stroke-width:1.9154191017;stroke-linecap:butt;stroke-linejoin:miter;stroke-miterlimit:4;stroke-opacity:1;stroke-dasharray:none;stroke-dashoffset:0;marker:none;visibility:visible;display:inline;overflow:visible;enable-background:accumulate"
 d="M 314.80930073374,268.71428476589 C 318.43464146043,268.25602674999 315.62089261074,275.16956387438 314.21555073374,270.58928476589 313.96135384563,270.02620432159 313.58281193234,268.29416524668 314.80930073374,268.71428476589 z M 299.64731691725,271.70089212584 C 291.79441990525,271.94951670951 288.07902795546,281.13729508603 289.61606691725,287.73214212584 285.10714454073,286.98170822738 282.98710674658,295.22392728912 288.42856691725,294.88839212584 291.07657192691,293.48171964414 289.7516436419,298.36808099346 291.20981691725,299.85714212584 294.39418031114,308.57790243097 304.12594790814,314.65677202504 313.27231691725,312.57589212584 316.1982321869,314.98936580338 320.38944324609,313.7818643345 323.39731691725,313.16964212584 328.23769546569,317.37481669067 336.04064756547,312.21209503163 334.58481691725,306.04464212584 333.9686028298,302.2473756956 330.42883027625,298.8162239476 332.95981691725,294.98214212584 334.40461817055,285.92102038025 327.25566152747,278.0986610329 319.17856691725,275.29464212584 313.06323716674,272.49577973922 306.04687048573,273.03625711125 299.64731691725,271.70089212584 z"
 inkscape:connector-curvature="0" />
<path
 id="path3325"
 style="color:#000000;fill:none;stroke:#000000;stroke-width:3.0545663834;stroke-linecap:butt;stroke-linejoin:miter;stroke-miterlimit:4;stroke-opacity:1;stroke-dasharray:none;stroke-dashoffset:0;marker:none;visibility:visible;display:inline;overflow:visible;enable-background:accumulate"
 d="M 323.58736383991,318.07192519129 C 322.49080942247,325.17742683341 328.34038894884,319.75813682661 323.58736383991,318.07192519129 z M 314.02231691725,266.66964212584 C 311.7659472271,266.93277300168 311.72113633622,269.90469157763 312.27231691725,271.32589212584 305.40923843678,271.03213579505 296.99141136973,267.18982817223 291.58481691725,273.29464212584 288.00052657824,276.59505176647 287.51534070077,282.08856348747 286.89731691725,286.16964212584 281.73037121487,287.96780761663 281.99457555627,297.44556847747 288.33481691725,296.88839212584 289.97405461113,308.18943948106 301.97683248449,316.55672901712 313.11606691725,314.88839212584 317.2204619027,317.50851535117 322.07876460494,314.19608572784 326.11606691725,316.60714212584 333.57181968851,317.90115398327 339.50838388374,308.95488156174 335.55356691725,302.51339212584 333.22887249056,299.50943346197 334.35487275723,296.37603829947 335.14731691725,293.29464212584 335.6657066723,283.09853237105 326.58016558193,275.38628980082 317.99106691725,272.48214212584 319.77510710699,269.6078649694 317.48810088017,265.93654662969 314.02231691725,266.66964212584 z"
 inkscape:connector-curvature="0" />
<path
 id="path3378"
 style="color:#000000;fill:none;stroke:#000000;stroke-width:1.9154191017;stroke-linecap:butt;stroke-linejoin:miter;stroke-miterlimit:4;stroke-opacity:1;stroke-dasharray:none;stroke-dashoffset:0;marker:none;visibility:visible;display:inline;overflow:visible;enable-background:accumulate"
 d="M 339.8862044832,296.9930611573 C 336.86996839601,295.71711645384 337.20652097382,302.34422685827 339.7299544832,299.4930611573 340.23348243751,299.04300297733 341.43550065308,296.53827150352 339.8862044832,296.9930611573 z M 314.14731691725,264.60714212584 C 311.78725702619,264.64698668896 310.08550830168,266.97601237385 309.89731691725,269.10714212584 302.58940604629,267.36867475251 293.01579612039,266.43496137851 288.45981691725,273.85714212584 285.62299290649,277.03267601558 286.44257584968,282.23650858881 284.30356691725,285.32589212584 279.48313701875,288.79630039205 280.59283973252,297.87581073201 286.70981691725,298.95089212584 289.39399423853,310.62022875505 301.69406468433,318.08213978147 313.17856691725,317.20089212584 315.80230569467,318.44974215377 319.06075025941,317.73745069994 321.61606691725,317.79464212584 320.09725604262,320.95733763045 323.70658939596,325.89739002969 326.64731691725,322.48214212584 328.42802737599,320.96556187068 325.90513004902,317.7448352739 329.24106691725,318.60714212584 337.38237881064,317.38591951795 341.75358926165,306.64615135965 336.49106691725,300.20089212584 335.76323287898,295.6213299614 338.52204202042,290.82543103864 336.08481691725,286.29464212584 333.66385012122,279.03989013863 326.77919496033,274.24307377999 320.58481691725,271.04464212584 321.06511955929,267.4011387124 317.81183266013,264.06452290348 314.14731691725,264.60714212584 z"
 inkscape:connector-curvature="0" />
<path
 id="path3448"
 style="color:#000000;fill:none;stroke:#000000;stroke-width:1.2755608559;stroke-linecap:butt;stroke-linejoin:miter;stroke-miterlimit:4;stroke-opacity:1;stroke-dasharray:none;stroke-dashoffset:0;marker:none;visibility:visible;display:inline;overflow:visible;enable-background:accumulate"
 d="M 282.98852878064,302.45089212584 C 282.57545467025,304.33047039536 276.80392589725,307.20426477374 280.76977878064,307.60714212584 283.58504602818,307.84931493201 286.84896997662,302.21248315548 282.83227878064,301.88839212584 L 282.98852878064,302.45089212584 z M 314.30356691725,262.57589212584 C 311.70025915405,262.5832476451 309.419634699,264.37942967975 308.45981691725,266.73214212584 300.06882754849,264.47498356966 289.15565022055,266.09597841652 285.39731691725,275.01339212584 283.72983840676,278.83909202451 284.26495896196,283.59068214593 280.70981691725,286.38839212584 277.70229855283,291.17108550848 279.60855477159,298.67468887954 285.08481691725,300.66964212584 288.57745200932,312.9047039196 301.60307237093,319.84245076603 313.70981691725,319.51339212584 316.32064114859,320.51962443059 319.92030459522,318.6354921353 319.95981691725,322.45089212584 321.9461691246,327.86545674535 329.55641811521,325.30417451029 329.64731691725,320.57589212584 338.26565695651,319.41774150829 342.64823995825,309.03999754573 340.08481691725,301.76339212584 343.34902509709,300.26676874251 343.6303435128,294.16131006273 339.08481691725,294.79464212584 339.01773408682,292.01192305258 339.44433404569,287.31152537752 337.39731691725,284.13839212584 334.73566559414,277.35948445912 328.06489628924,273.23380079707 322.58481691725,269.51339212584 322.20501867565,265.50049286822 318.36025854021,262.16988620586 314.30356691725,262.57589212584 z"
 inkscape:connector-curvature="0" />
<path
 style="color:#000000;fill:none;stroke:#000000;stroke-width:1.2755608559;stroke-linecap:butt;stroke-linejoin:miter;stroke-miterlimit:4;stroke-opacity:1;stroke-dasharray:none;stroke-dashoffset:0;marker:none;visibility:visible;display:inline;overflow:visible;enable-background:accumulate"
 d="M 314.17856691725,260.57589212584 C 311.33744741229,260.43236570456 308.85270134972,262.5862548497 307.24106691725,264.38839212584 297.30609894073,261.88722038858 284.38066974896,266.44900624993 282.52231691725,277.57589212584 282.58477230444,281.96618873695 279.13215726465,284.56029308912 277.70981691725,288.26339212584 275.82730976295,293.41347508673 279.46581764194,297.90606177689 280.83481691725,302.23214212584 277.9437156558,303.71453938666 275.46876788536,308.9687788866 280.24106691725,309.57589212584 282.51645031927,310.20362906563 284.5733327258,307.82773068012 285.67856691725,307.10714212584 292.03595976817,317.8745836697 304.95707182745,321.97805211969 316.83481691725,321.88839212584 319.01767643325,321.96392363641 318.31538095346,326.20472022377 321.02231691725,326.70089212584 325.20875106851,329.11741505746 330.18308750131,325.81624719662 331.83481691725,322.16964212584 340.19606990863,319.85914955322 343.89113718001,310.01070394618 342.67856691725,302.32589212584 345.41906922194,299.72374804471 345.20802724231,293.95216128546 341.08481691725,292.91964212584 342.0406751205,281.73203144626 332.74332071883,273.4975527974 324.36606691725,268.07589212584 323.31570506817,263.56450970984 318.84022085513,260.13318454737 314.17856691725,260.57589212584 z"
 id="path3463"
 inkscape:connector-curvature="0" />
<path
 id="path3527"
 style="color:#000000;fill:none;stroke:#000000;stroke-width:1.9154191017;stroke-linecap:butt;stroke-linejoin:miter;stroke-miterlimit:4;stroke-opacity:1;stroke-dasharray:none;stroke-dashoffset:0;marker:none;visibility:visible;display:inline;overflow:visible;enable-background:accumulate"
 d="M 304.83928109443,257.10714188425 C 301.21394036774,256.64888386835 304.02768921743,263.56242099274 305.43303109443,258.98214188425 305.68722798254,258.41906143995 306.06576989583,256.68702236504 304.83928109443,257.10714188425 z M 315.37499540238,326.0357134583 C 311.74965467569,325.5774554424 314.56340352538,332.49099256679 315.96874540238,327.9107134583 316.22294229049,327.347633014 316.60148420378,325.61559393909 315.37499540238,326.0357134583 z M 284.51036953909,313.90508961609 C 284.16201198001,313.8934023963 283.8549128198,314.13275701133 283.63032984034,314.35350801896 283.0677122715,313.98853940518 282.10630766355,314.12372506668 281.91517126272,314.84472999666 281.65138809015,315.6281409111 282.27325549904,316.44416293279 283.00552207278,316.67916891751 283.57490378673,317.1157546107 284.2715033344,317.4130108057 285.00041484698,317.36810264556 285.75627437164,317.47505552093 286.74871553381,317.34027547279 287.07289812826,316.54260513118 287.38695532184,315.71583624467 286.75280159772,314.89649961502 286.08872380159,314.47172741608 285.63926810132,314.12597083283 285.09153025597,313.87226738548 284.51036953909,313.90508961609 z M 314.17856691725,258.57589212584 C 309.81558484219,257.77095072923 307.66610678986,263.491159195 303.52231691725,261.79464212584 292.75534136111,260.60898587554 280.54975293438,268.00044708289 280.24106691725,279.54464212584 277.3539076633,284.52360721675 273.18179262189,290.26159407459 276.17856691725,296.26339212584 277.35310069192,299.04093886876 279.40931018027,301.58482648682 276.52231691725,303.79464212584 273.3813135493,307.84222427328 278.00786915335,313.11078326885 282.52231691725,311.45089212584 284.50589479376,310.47422817827 285.75430229214,309.50269730763 286.86606691725,312.16964212584 294.1066688719,320.7485565054 305.97515854533,323.6710174687 316.55356691725,324.10714212584 318.55661103515,331.81025124251 329.87267783424,330.52299861753 332.95981691725,324.23214212584 341.15360592631,320.94786342104 345.88125247291,311.70286765789 344.77231691725,302.95089212584 347.49458199596,299.6292665467 347.0496740118,293.79418611347 343.14731691725,291.57589212584 343.47383516105,280.26333798341 333.84408438208,272.36662977064 325.89731691725,266.23214212584 324.16403722998,261.54217146984 319.24004687786,258.14190246858 314.17856691725,258.57589212584 z"
 inkscape:connector-curvature="0" />
<path
 style="color:#000000;fill:none;stroke:#000000;stroke-width:1.9154191017;stroke-linecap:butt;stroke-linejoin:miter;stroke-miterlimit:4;stroke-opacity:1;stroke-dasharray:none;stroke-dashoffset:0;marker:none;visibility:visible;display:inline;overflow:visible;enable-background:accumulate"
 d="M 304.70981691725,255.07589212584 C 302.24515346106,254.79470181645 300.47424070347,257.49708612689 301.17856691725,259.66964212584 290.37294467065,259.53787495482 278.82123132256,267.53457024675 278.27231691725,278.95089212584 274.0463226555,284.83790361519 270.90653080545,292.96962679297 275.52231691725,299.60714212584 277.19343828919,302.45099388685 272.3707555567,304.02809760531 273.52231691725,307.23214212584 273.63021705446,310.79499020169 277.29648050795,313.39426557967 280.08481691725,313.91964212584 278.4005716557,319.40625064998 287.59478267693,320.98322740704 289.36606691725,317.38839212584 295.58429699023,322.68443078882 304.60678015227,324.69502374965 311.89731691725,326.01339212584 309.77306470456,330.07060182021 316.09007418268,333.70594130266 317.70981691725,329.41964212584 323.09062245536,333.47254600192 331.1778127282,331.01416967166 334.61606691725,325.70089212584 343.30917780645,321.86092244755 347.37737679649,311.95463091805 347.17856691725,302.98214212584 349.55178003582,298.97875601711 348.65676759236,293.33711934361 345.14731691725,290.38839212584 344.89002503694,278.91398557285 335.16704846588,271.17132888906 327.30356691725,264.45089212584 324.25927301775,257.0836383761 313.44943574336,254.03145548082 307.58481691725,258.73214212584 308.15951342137,256.82617747174 306.8431898969,254.68358632507 304.70981691725,255.07589212584 z"
 id="path3530"
 inkscape:connector-curvature="0" />
<path
 id="path3538"
 style="color:#000000;fill:none;stroke:#000000;stroke-width:1.9154191017;stroke-linecap:butt;stroke-linejoin:miter;stroke-miterlimit:4;stroke-opacity:1;stroke-dasharray:none;stroke-dashoffset:0;marker:none;visibility:visible;display:inline;overflow:visible;enable-background:accumulate"
 d="M 289.83928106277,322.46428487934 C 286.21394033608,322.00602686344 289.02768918577,328.91956398783 290.43303106277,324.33928487934 290.68722795088,323.77620443504 291.06576986417,322.04416536013 289.83928106277,322.46428487934 z M 303.95981691725,253.07589212584 C 301.30895297547,253.0739601408 299.59160328301,255.78851909876 298.89731691725,257.73214212584 288.04928998611,258.60862719584 277.21794352045,266.89593134958 276.30356691725,278.23214212584 271.45821435906,284.6355293983 269.28717176346,294.08333280295 273.77231691725,301.07589212584 268.87994954529,305.5796377468 272.2845011686,313.53725220808 277.89731691725,315.41964212584 278.1919623724,320.83046249309 285.54782474579,322.88131624355 289.55356691725,320.10714212584 295.20265334281,324.63541871 303.35826338005,325.80656980949 309.45981691725,328.04464212584 309.58354082941,332.36411737281 315.34627144044,334.90052807055 318.45981691725,332.20089212584 324.73162671542,335.34139322456 332.3359256968,332.21952189191 336.36606691725,327.07589212584 345.61094865247,322.64538477696 348.92634981947,311.94791163327 349.64731691725,302.54464212584 351.56326285053,298.04741561368 350.1256226103,292.69367934154 347.08481691725,289.13839212584 346.28067512292,277.60240290154 336.5768513975,269.91773113522 328.77231691725,262.82589212584 325.33059196695,255.59609058902 315.77068202061,253.16634877797 308.99106691725,255.20089212584 307.96648532813,253.3473778215 305.92016194556,252.82427230243 303.95981691725,253.07589212584 z"
 inkscape:connector-curvature="0" />
<path
 id="path3580"
 style="color:#000000;fill:none;stroke:#000000;stroke-width:2.7652282715;stroke-linecap:butt;stroke-linejoin:miter;stroke-miterlimit:4;stroke-opacity:1;stroke-dasharray:none;stroke-dashoffset:0;marker:none;visibility:visible;display:inline;overflow:visible;enable-background:accumulate"
 d="M 335.97931046873,263.42987204498 C 340.62320637952,271.54131285034 341.51507347169,262.4291544458 336.45280895436,261.32832349994 335.71911004589,261.01521897078 334.01390285642,260.93271843022 335.97931046873,263.42987204498 z M 296.22813301068,327.87282557461 C 296.10898888485,332.86174395208 299.91811182687,329.96812754357 301.41986820035,331.78385513028 301.8926701955,332.04278147814 303.2632507013,331.34940832081 302.39200519583,330.5408509833 300.87466871245,328.74032689343 298.46498957703,329.06728391224 296.94452186298,327.33486957298 296.74381587125,327.47411759481 296.39121517972,327.39823539945 296.22813301068,327.87282557461 z M 304.17856691725,251.04464212584 C 300.40820584352,250.4961702425 298.98121670713,254.82259778176 296.49106691725,256.01339212584 285.57012861053,257.72379231219 275.57445345389,266.49073226427 274.20981691725,277.70089212584 269.59566026635,284.23768545585 267.47971332161,293.323851833 271.30356691725,300.79464212584 267.1651894827,306.13607859711 270.39993006501,314.21199006873 276.08481691725,316.88839212584 276.94602448087,321.54437636401 282.37059592844,323.42599222165 286.08481691725,323.54464212584 285.12509084899,328.13582758808 292.04326474846,329.45398414314 292.42856691725,324.63839212584 296.736487922,326.22631065142 303.02535411228,328.03351889569 307.70981691725,329.70089212584 308.90924806297,334.56988314089 314.93796848331,336.36993865567 319.05356691725,334.63839212584 326.06230336841,337.21982805576 333.55299473586,333.50021595665 338.20981691725,328.35714212584 348.13854393785,323.1654404605 350.6821756979,311.27568236206 352.17856691725,301.23214212584 353.78157649479,296.06362783372 350.40516808903,291.21433401211 348.80356691725,286.66964212584 347.04169891616,274.90675143843 336.35600864273,267.99976772425 329.27231691725,259.73214212584 324.90957735079,253.39742571186 316.40477554314,251.92686622281 309.45981691725,252.63839212584 308.05956696805,251.35843012366 306.0388626231,250.86800919868 304.17856691725,251.04464212584 z"
 inkscape:connector-curvature="0" />
<path
 id="path3587"
 style="color:#000000;fill:none;stroke:#000000;stroke-width:1.9154191017;stroke-linecap:butt;stroke-linejoin:miter;stroke-miterlimit:4;stroke-opacity:1;stroke-dasharray:none;stroke-dashoffset:0;marker:none;visibility:visible;display:inline;overflow:visible;enable-background:accumulate"
 d="M 345.19642403674,267.10714190536 C 341.57108331005,266.64888388946 344.38483215974,273.56242101385 345.79017403674,268.98214190536 346.04437092485,268.41906146106 346.42291283814,266.68702238615 345.19642403674,267.10714190536 z M 302.99106691725,249.01339212584 C 298.60495014464,249.21791717614 297.36329242146,254.94366144607 292.86606691725,254.76339212584 282.44789377904,257.57600773934 273.83205264306,266.55103186539 272.08481691725,277.23214212584 267.34952566871,283.98456819642 266.03439834946,293.29695698395 268.83481691725,300.88839212584 265.15772533233,307.24859571712 269.14394210061,315.0595352909 274.52231691725,318.73214212584 275.90967421475,322.8549992081 280.6010479339,324.52980751851 284.11606691725,325.63839212584 284.95655281819,329.95190165278 291.56865436091,331.22849551722 293.70981691725,327.23214212584 294.29373094538,329.17730550113 294.91715768893,333.42919201931 298.49106691725,333.04464212584 300.72947959641,333.72932046478 304.47396817613,334.55802780608 304.67856691725,330.98214212584 307.0895277782,331.30599882889 307.95151263885,335.81868870235 311.17856691725,336.35714212584 315.21073794268,338.20880324213 319.51898900943,336.22907513917 323.67856691725,337.48214212584 332.57008197981,337.60450099564 338.94693539533,330.55465939335 345.27231691725,325.35714212584 351.83554881334,317.49838238463 354.09075825333,306.65705607768 354.45981691725,296.70089212584 353.09456450587,290.84879727745 350.49509815601,285.35582093699 348.74106691725,279.60714212584 347.05827449994,275.27776895272 342.83817719647,271.44059357961 340.74106691725,268.16964212584 345.11706191854,264.02366721262 336.33851004475,255.49157083197 333.17856691725,261.01339212584 328.50949779646,254.07043434677 320.46305972899,249.89305603113 312.02231691725,250.48214212584 308.94943771075,250.68824142531 306.36791718126,248.24324077759 302.99106691725,249.01339212584 z"
 inkscape:connector-curvature="0" />
<path
 id="path3609"
 style="color:#000000;fill:none;stroke:#000000;stroke-width:1.9154191017;stroke-linecap:butt;stroke-linejoin:miter;stroke-miterlimit:4;stroke-opacity:1;stroke-dasharray:none;stroke-dashoffset:0;marker:none;visibility:visible;display:inline;overflow:visible;enable-background:accumulate"
 d="M 266.98176456737,274.16796058359 C 263.35642384068,273.70970256769 266.17017269037,280.62323969208 267.57551456737,276.04296058359 267.82971145548,275.47988013929 268.20825336877,273.74784106438 266.98176456737,274.16796058359 z M 293.87707612993,247.65145622613 C 290.25173540324,247.19319821023 293.06548425293,254.10673533462 294.47082612993,249.52645622613 294.72502301804,248.96337578183 295.10356493133,247.23133670692 293.87707612993,247.65145622613 z M 333.76973368597,252.06635157173 C 331.22953433245,253.30949718706 334.52521090255,257.90289417051 335.23848368597,253.84760157173 335.76093694456,252.42463668534 335.29407461366,251.77030580811 333.76973368597,252.06635157173 z M 303.74106691725,246.88839212584 C 298.3632626404,246.4269143901 296.45564543684,253.28215119689 291.27231691725,253.13839212584 280.52810254382,256.38012445692 272.16542081734,265.89442485924 269.95981691725,276.79464212584 265.04040554852,283.90296656564 264.62722042229,293.32864192914 266.39731691725,301.32589212584 263.20013722557,308.53418630732 268.03805318404,316.14050094241 273.24106691725,320.79464212584 275.40015324038,325.74860430823 281.86520587682,325.44935795889 284.33481691725,329.76339212584 286.53790470929,332.30838895384 290.78762622929,331.36288626281 292.89731691725,331.32589212584 294.6520239457,335.64654224296 300.5152647461,336.14777148014 304.39731691725,335.07589212584 306.50081158612,333.02799653673 307.62150629838,338.47821357912 310.49106691725,338.23214212584 315.52903715215,340.05563084576 321.11811530694,338.82047156538 326.33481691725,339.32589212584 335.41983357818,337.73399074132 342.76224441948,330.80240455033 348.67856691725,324.16964212584 354.28068311737,315.41808766926 357.31468737422,304.26907059515 355.80356691725,293.95089212584 353.18691816429,286.47073088658 351.13657366352,277.90099514064 346.39731691725,271.85714212584 349.17363373883,269.65862694688 348.3139128508,263.63859419888 343.92856691725,265.20089212584 343.80532652911,260.21355427512 337.91454635409,255.51772959796 333.30356691725,257.85714212584 327.84711449715,250.87772529468 318.9078987936,247.88479280342 310.27231691725,248.29464212584 308.23520782119,247.71579847451 306.06002177536,246.65436631681 303.74106691725,246.88839212584 z"
 inkscape:connector-curvature="0" />
<path
 id="path3641"
 style="color:#000000;fill:none;stroke:#000000;stroke-width:0.1794629395;stroke-linecap:butt;stroke-linejoin:miter;stroke-miterlimit:4;stroke-opacity:1;stroke-dasharray:none;stroke-dashoffset:0;marker:none;visibility:visible;display:inline;overflow:visible;enable-background:accumulate"
 d="M 275.78906603074,330.08909678388 C 275.14386118527,331.57122084709 276.68775030033,332.75136556529 277.90899685576,333.21943470687 279.14136936353,334.12472444599 280.79065466961,333.95675260768 282.15754993258,333.47403337627 280.59247384106,332.10455961812 279.71758702992,329.8734596368 277.69852882779,329.10445697894 276.93339065676,328.99105296332 276.08073229212,329.34402767947 275.78906603074,330.08909678388 z M 258.93631803335,298.48089618564 C 256.70957783633,300.62386733565 260.28572031085,305.38433241518 262.40247314086,302.21997689216 263.28486521152,299.86526200383 260.74683050267,298.82567176955 258.93631803335,298.48089618564 z M 302.64731691725,244.88839212584 C 300.34181005284,244.60287307945 297.75404647793,247.45047087826 296.61606691725,247.41964212584 294.70518449864,242.93738446857 287.81690996083,247.32612925961 290.58481691725,251.26339212584 280.37892880601,254.2153364651 272.27340331057,263.05442055814 268.89731691725,272.63839212584 263.97023223972,269.41544587832 260.6587134309,278.43768460752 266.05356691725,279.60714212584 262.56530280685,286.62950043594 263.5866297483,294.78942982963 263.95981691725,302.13839212584 261.19628781396,311.56497466114 268.79382191366,319.67203716139 274.77231691725,325.60714212584 278.54604730461,327.27883481037 281.78070662351,329.57227998802 284.55356691725,332.51339212584 287.59657779897,334.48606103414 291.72880126854,332.05073027213 293.74106691725,335.51339212584 297.10256639193,338.26209003206 302.05435556457,337.36064250946 305.64731691725,337.29464212584 310.69078189666,343.32536234701 319.90240289315,340.45003218002 326.70981691725,341.29464212584 337.83783743081,338.84523096071 347.39057360159,330.56353653514 352.92856691725,320.79464212584 358.72264726382,309.38588423702 360.29512923235,295.40705700982 354.47504629231,283.66264532913 353.42268239416,279.353785495 350.4770959521,275.2331906678 349.20981691725,271.48214212584 351.27854625247,268.12252133779 349.23469660183,263.24788075519 345.49106691725,262.66964212584 344.50385230077,258.673312279 340.27480714968,255.96334967762 336.99106691725,255.07589212584 339.57519624841,250.91476308312 332.70410700433,247.69597095422 331.05356691725,252.23214212584 329.13031983987,251.75095185252 325.72029360977,248.74361220563 322.86606691725,248.10714212584 316.96080232275,245.97928989339 310.63313291574,246.52941414551 304.67856691725,244.85714212584 303.99858998727,244.87899502143 303.32572674431,244.83390584779 302.64731691725,244.88839212584 z"
 inkscape:connector-curvature="0" />
<path
 id="path3698"
 style="color:#000000;fill:none;stroke:#000000;stroke-width:0.1858668327;stroke-linecap:butt;stroke-linejoin:miter;stroke-miterlimit:4;stroke-opacity:1;stroke-dasharray:none;stroke-dashoffset:0;marker:none;visibility:visible;display:inline;overflow:visible;enable-background:accumulate"
 d="M 290.04303430925,338.15211908167 C 288.32473215294,339.17711973148 288.92364417334,341.78616686064 290.29285864808,342.86413526413 291.04225541709,343.68804913473 290.58176067991,345.34634588662 291.88308383597,345.75939116824 292.80411260816,346.0597055459 293.81048549008,345.94299668897 294.75153830711,345.85160720084 295.87400607418,345.48070422689 296.19806621461,344.24827946609 296.86530718808,343.41355456362 297.50613911692,341.98657592479 296.20861018994,340.07124371218 294.61275314285,340.37239476389 293.12347418232,340.23514766287 292.40852695774,338.69454495846 291.250815291,338.03432180407 290.85449766063,337.92646344017 290.41764837152,337.96369819562 290.04303430925,338.15211908167 z M 301.92856691725,242.88839212584 C 299.07321824975,243.28486560978 297.3157995373,245.81043785415 294.67856691725,243.57589212584 291.1098672426,243.09042541262 287.4747510702,246.38546316618 287.95981691725,250.04464212584 278.45996713981,253.18645291865 271.64081461679,261.99867172382 267.36606691725,269.95089212584 261.64821019531,269.38576572084 259.35293874244,277.68011076134 263.33481691725,280.82589212584 261.14787070149,285.8545193697 261.76710233385,292.51984800832 261.39731691725,297.13839212584 257.12160936653,294.23588181789 254.5125447955,300.8915265609 257.58481691725,303.70089212584 258.79586396133,305.9343718932 262.64526492215,304.10209971478 261.42856691725,307.51339212584 262.14310607207,316.08848704537 269.36629357562,323.18316591692 274.70981691725,328.20089212584 270.91696795298,332.71062776307 278.59700969232,337.59462328314 282.74106691725,335.38839212584 285.50261288631,334.87486661589 289.00873983096,335.0765679438 291.70981691725,336.07589212584 294.77035382623,340.46779902198 301.17691649979,338.94140114742 305.36606691725,339.85714212584 311.70473655023,345.0683313452 320.76711947608,342.8571335229 328.27231691725,342.98214212584 352.6621399735,336.74247011956 367.11574440601,306.86132413247 356.80356691725,283.88839212584 355.75702955971,279.33449093403 352.05736533184,275.18084166357 351.70981691725,270.76339212584 353.20411863603,266.49158206646 350.11448147881,262.38113878889 346.80356691725,260.41964212584 345.51822147808,257.16149717298 342.00475507386,255.27168671976 339.55356691725,253.57589212584 340.03471403489,248.88279079595 333.22919131147,246.04111137337 330.27231691725,249.70089212584 322.2479020267,243.80304548406 311.7778251971,244.346851154 302.42856691725,242.85714212584 302.26348154275,242.88040379578 302.08795277088,242.81883264586 301.92856691725,242.88839212584 z"
 inkscape:connector-curvature="0" />
<path
 id="path3721"
 style="color:#000000;fill:none;stroke:#000000;stroke-width:0.5864188075;stroke-linecap:butt;stroke-linejoin:miter;stroke-miterlimit:4;stroke-opacity:1;stroke-dasharray:none;stroke-dashoffset:0;marker:none;visibility:visible;display:inline;overflow:visible;enable-background:accumulate"
 d="M 300.90697439976,343.2400102461 C 302.49308400672,344.9055382852 300.47690142184,347.75703591703 302.21509107107,349.07482107978 304.5638208793,349.95280574217 307.62924257638,348.13732428361 307.75634000501,345.83395139673 305.40639492394,345.79601936956 303.7110027046,342.74709066947 300.90697439976,343.2400102461 z M 301.58481691725,240.91964212584 C 298.99293367175,241.49095824255 296.63553276183,243.49040050851 294.20981691725,241.51339212584 289.74067137939,241.17720173029 286.64344954742,245.37352616781 285.49106691725,248.82589212584 276.83929634685,252.43825155898 270.63637136318,260.19702881226 266.08481691725,267.98214212584 259.67867266506,268.59751942698 257.65993434778,277.0731545205 260.89731691725,281.70089212584 259.22424934951,285.64961898024 260.2402454842,291.09831939416 259.02231691725,294.41964212584 252.28012444389,295.26657470766 253.08927914737,306.2368729206 259.49106691725,307.01339212584 259.51296854901,315.9150839226 266.79841115694,322.84398606032 272.02231691725,328.88839212584 270.07518363963,335.3746372634 278.73004140002,339.74457024987 284.02231691725,337.23214212584 285.98510874778,337.06802074904 289.12834920192,336.53099796979 287.08481691725,339.07589212584 286.64160499821,342.19482057687 288.90140467277,344.78805455368 290.33481691725,347.20089212584 294.38535296612,349.91498722829 299.91577420448,345.83246842604 298.92856691725,341.35714212584 304.81573261636,340.39793833998 308.92882265552,345.60735350809 314.80356691725,345.26339212584 323.93402733795,345.72888904345 333.52449199509,345.1560906569 341.05356691725,339.45089212584 359.51167424442,327.48363722801 367.65655207238,301.61796969082 358.14731691725,281.45089212584 356.2283277986,276.75971916932 352.83388132578,272.48350967943 354.02231691725,267.26339212584 353.26214654153,261.96062977066 348.17752952008,259.28353000855 345.36606691725,255.26339212584 342.834956328,253.7391796551 341.12327562921,252.15027055207 340.33481691725,249.32589212584 338.10732202427,245.75546153321 333.01579392185,245.4615893847 329.77231691725,246.95089212584 321.38181681739,241.90862139204 310.99347891079,241.99639245461 301.58481691725,240.91964212584 z"
 inkscape:connector-curvature="0" />
<path
 id="path3789"
 style="color:#000000;fill:none;stroke:#000000;stroke-width:3.7976064682;stroke-linecap:butt;stroke-linejoin:miter;stroke-miterlimit:4;stroke-opacity:1;stroke-dasharray:none;stroke-dashoffset:0;marker:none;visibility:visible;display:inline;overflow:visible;enable-background:accumulate"
 d="M 332.85308326886,239.06055044552 C 331.36484438494,241.12300983171 331.85529372157,242.62075904142 334.50933326886,242.49805044552 339.94450022733,243.79244487281 339.20596538182,241.91998642698 334.61867254773,239.81897846604 334.1030766834,239.71778261286 333.15508094288,238.39375628103 332.85308326886,239.06055044552 z M 311.99679098719,348.2495849197 C 310.01553542824,352.57158979383 315.92143209807,349.9976357169 317.98979530078,350.09304699479 322.05237821792,350.02931079869 312.03842380045,347.94759554937 311.99679098719,348.2495849197 z M 301.08481691725,238.98214212584 C 298.38737136127,240.37764610419 295.83980349781,240.56911257412 293.24106691725,239.51339212584 288.72214987054,239.66669848202 285.46729101834,243.66818721219 283.80356691725,247.35714212584 275.25045283769,251.09773718992 269.51721658233,259.05883628325 264.36606691725,266.29464212584 257.91883471376,267.98528356449 255.67366340223,276.50515073255 258.67856691725,281.91964212584 257.07505389826,285.2545356952 258.89266394843,290.43796308488 256.77231691725,292.95089212584 249.9961257464,295.90722370168 251.60527832437,306.37926094792 257.58481691725,308.91964212584 258.27444709513,317.45802839231 265.38291788575,323.62619373873 269.77231691725,329.95089212584 269.20821732325,337.64252121766 278.70098700275,341.84801918244 285.05356691725,339.16964212584 284.9643933694,344.63195586216 289.52138932881,352.26400534488 295.86606691725,349.57589212584 297.95739283166,349.27228945508 299.82785917612,345.15204566108 299.74106691725,348.95089212584 302.00129893284,354.02563354393 309.22590785885,349.88695962287 310.05356691725,346.57589212584 322.61555669202,348.9679104921 336.83707458498,346.92915235707 346.45981691725,337.91964212584 364.11343395127,323.51610319096 369.64488054728,296.02834237134 357.8631419236,276.2093527157 354.35294260428,271.83170937311 357.5155125458,265.95801704823 353.83481691725,261.76339212584 350.72216587713,257.18502864294 345.87847705003,254.22807562497 342.64731691725,249.88839212584 341.19285469074,244.61327603897 334.54373251695,243.09426945765 329.89731691725,244.70089212584 321.08801876625,239.95958683772 310.79371650306,239.82739419476 301.08481691725,238.98214212584 z"
 inkscape:connector-curvature="0" />
<path
 id="path3837"
 style="color:#000000;fill:none;stroke:#000000;stroke-width:3.7976064682;stroke-linecap:butt;stroke-linejoin:miter;stroke-miterlimit:4;stroke-opacity:1;stroke-dasharray:none;stroke-dashoffset:0;marker:none;visibility:visible;display:inline;overflow:visible;enable-background:accumulate"
 d="M 329.80349663386,350.39108413786 C 331.60880575985,354.78948824407 325.81153953367,351.97940650724 323.74101110828,351.9913098648 319.68430538152,351.76375567824 329.77407885918,350.08766122267 329.80349663386,350.39108413786 z M 331.58481691725,237.48214212584 C 329.98390954927,238.60987688434 330.17244917643,241.55015301508 329.95981691725,242.48214212584 320.66969432957,238.10287366162 309.68881121362,237.0897691626 299.67856691725,237.45089212584 295.69516890233,239.27688317161 291.09592445019,236.02526860825 287.52231691725,239.45089212584 283.82556272141,242.06028399733 282.66518095569,246.77500553958 278.11606691725,248.23214212584 271.53242741187,252.43664419557 267.45402607791,259.41399284065 262.36606691725,264.88839212584 255.7478466132,267.66807806234 254.03176824231,276.2818455901 256.36606691725,282.38839212584 255.03070179893,286.05988457872 257.74225880397,291.28794941177 253.14731691725,293.01339212584 248.35852689307,297.83086937096 250.05494482602,306.81357580913 255.70981691725,310.20089212584 256.77357446686,318.40619492197 263.37369078648,324.27880829159 267.74106691725,330.76339212584 267.62788730619,338.86138774466 277.10187566522,342.69299223274 283.36606691725,342.16964212584 284.16454260531,348.86507942215 291.86312581168,355.03167941566 298.20981691725,350.70089212584 300.70861819457,354.59910697008 306.9130020189,353.55937676163 309.74106691725,350.63839212584 311.62651444786,354.54143742442 316.64023490881,351.95585937952 319.92856691725,351.79464212584 320.97993648062,347.79613470096 326.34110691395,349.9556801521 329.77231691725,348.48214212584 355.43425013381,342.87514842178 370.81011053644,313.50498284873 364.86606691725,288.60714212584 364.11323981332,282.38625769394 359.91849295288,277.18055470098 358.11606691725,271.57589212584 358.70159791602,265.31522647076 355.94054187064,259.55780697519 351.14731691725,255.66964212584 347.22304769807,252.83076410219 344.70499293301,248.89861057892 341.99106691725,245.10714212584 339.12879293433,244.15518410129 341.24200961651,240.82980313174 338.39731691725,239.60714212584 336.24494443758,238.8766802479 333.78296922843,235.63627095705 331.58481691725,237.48214212584 z"
 inkscape:connector-curvature="0" />
<path
 id="path3856"
 style="color:#000000;fill:none;stroke:#000000;stroke-width:3.7444052696;stroke-linecap:butt;stroke-linejoin:miter;stroke-miterlimit:4;stroke-opacity:1;stroke-dasharray:none;stroke-dashoffset:0;marker:none;visibility:visible;display:inline;overflow:visible;enable-background:accumulate"
 d="M 252.42531148906,285.55713555374 C 247.67321905337,284.95152383642 249.30961415667,286.01073953667 250.57339539577,287.32208148122 249.47898930805,290.07904450077 249.31991802727,291.45150856406 251.95300543414,289.45097758732 252.41713229822,289.10130431312 252.69498186156,285.82809409418 252.42531148906,285.55713555374 z M 332.49106691725,234.95089212584 C 329.93014082456,234.98592495017 328.81958583347,238.22799260088 328.02231691725,239.45089212584 317.61568161053,235.43098928318 306.08414597368,234.81617867303 295.17856691725,235.98214212584 287.21999030836,233.59784814292 283.32245470228,241.80559924956 278.39731691725,245.95089212584 269.24632831304,250.34335850192 265.35304261519,260.84570231475 257.14731691725,266.20089212584 252.69644309537,270.89420172993 253.18985046308,277.71888480059 254.05356691725,283.48214212584 253.84102322925,286.6681360292 254.97301168343,290.90507160704 251.14731691725,292.23214212584 245.90504409026,298.22720693423 248.76801801173,307.43287549605 253.99106691725,312.10714212584 255.40978609834,320.26808803781 262.76931704862,325.52859631817 265.86606691725,332.57589212584 266.79598543407,340.41806384622 275.54641781233,343.61445341297 281.86606691725,344.63839212584 283.68738584722,351.50467806223 291.57788432369,355.89540179527 298.05356691725,353.51339212584 301.39095891658,356.34300353941 306.30023439845,355.13744442031 309.64731691725,353.60714212584 314.33653678532,356.7179977817 319.7766036278,352.34789243615 324.33481691725,354.07589212584 327.24343437247,355.5308519064 333.26346998266,355.27823342366 331.99106691725,350.60714212584 333.2257319895,348.89899795405 337.56542750227,348.69492919583 339.80356691725,347.10714212584 365.73113589232,334.51674449545 376.25548057726,298.43134327647 361.14731691725,273.82589212584 359.41681464236,269.08432491658 360.46801508171,263.39266371677 356.95981691725,259.16964212584 352.84182849058,253.48370907455 346.49711994195,249.90790437902 343.27231691725,243.45089212584 341.11607535181,242.47650631817 342.2039727577,238.29248848516 339.11606691725,237.73214212584 336.97281165703,236.78208308155 335.09102666818,234.55313734971 332.49106691725,234.95089212584 z"
 inkscape:connector-curvature="0" />
<path
 id="path3888"
 style="color:#000000;fill:none;stroke:#000000;stroke-width:2.7086071968;stroke-linecap:butt;stroke-linejoin:miter;stroke-miterlimit:4;stroke-opacity:1;stroke-dasharray:none;stroke-dashoffset:0;marker:none;visibility:visible;display:inline;overflow:visible;enable-background:accumulate"
 d="M 248.14481553823,276.31300813131 C 246.25888172403,276.16222236631 244.24710026116,279.0713059646 247.04553174943,279.66133687161 248.05819584756,280.60188963291 251.28716446635,282.75616075427 249.96709158926,279.60388245223 249.7499243358,278.39234527398 249.56137196527,276.65159612269 248.14481553823,276.31300813131 z M 332.49106691725,232.95089212584 C 329.70519779184,232.59174667552 328.20041938583,235.93542244435 326.64731691725,236.82589212584 314.92727572188,232.58195858308 302.12734847971,233.44936779909 289.99106691725,233.85714212584 282.77831385925,235.79537027086 279.83416586863,243.80712072047 273.24106691725,246.85714212584 266.34620960659,252.48404661029 261.89775547863,260.71698610513 254.74106691725,265.91964212584 250.65936330633,270.76805777009 251.56779965161,278.27718708565 251.70981691725,283.45089212584 248.60755980715,282.334664581 245.87802000695,285.59733517332 248.17856691725,287.98214212584 247.00709727399,290.52277719642 249.74144773332,292.33107367176 247.42856691725,294.51339212584 244.66187138985,301.01645921763 247.61389243746,308.556230559 252.20981691725,313.35714212584 254.32174731213,322.61793077151 263.30686509776,328.33357106295 265.42856691725,337.54464212584 268.44605114094,343.00015119184 275.02257073818,345.0543695738 280.42856691725,346.63839212584 282.98829173989,353.65168123301 291.09492733935,357.31084214788 298.05356691725,355.95089212584 301.79949436703,358.48937323196 306.55865565351,356.34192494916 310.30356691725,356.16964212584 315.7040491689,358.08144707854 321.43155639375,354.06603283161 326.70981691725,356.79464212584 330.2951505849,357.57429822655 334.43527408327,355.11689378974 334.33481691725,351.35714212584 365.67428288519,341.88634258937 379.84056976866,300.05098520724 362.86606691725,272.70089212584 361.86524282701,265.86322962617 360.94597776154,258.39781308143 354.95981691725,253.85714212584 349.82239104992,248.99710713186 344.64097467214,244.07427729219 342.30356691725,237.45089212584 339.49437373819,235.46376164641 336.12573549233,232.82384206376 332.49106691725,232.95089212584 z"
 inkscape:connector-curvature="0" />
<path
 id="path3911"
 style="color:#000000;fill:none;stroke:#000000;stroke-width:4.9723882675;stroke-linecap:butt;stroke-linejoin:miter;stroke-miterlimit:4;stroke-opacity:1;stroke-dasharray:none;stroke-dashoffset:0;marker:none;visibility:visible;display:inline;overflow:visible;enable-background:accumulate"
 d="M 366.30904628064,271.93865225545 C 369.51892398106,274.901028056 369.1863993179,267.55860020248 366.30904628064,271.93865225545 z M 331.49106691725,230.95089212584 C 328.19747627231,230.79265865784 327.13530649918,236.17240975542 323.86606691725,233.82589212584 312.21084089135,230.86573433835 299.71066080047,230.91290462015 287.92856691725,232.45089212584 280.94492750431,235.42420536834 277.35894775131,242.96615607627 270.64731691725,246.45089212584 264.24958606387,252.62030765732 259.08316793654,260.00760198346 252.33481691725,265.79464212584 250.38087162303,268.2604106324 250.09714404091,272.30031692969 249.39731691725,274.63839212584 244.97669106268,272.42782225565 241.00467554814,280.26499821249 246.30356691725,281.63839212584 248.15638894241,282.61644099883 244.30928988842,284.54561360608 245.33481691725,286.63839212584 245.80578714612,289.21195215665 247.27983175254,292.32884892664 245.27231691725,294.54464212584 242.64892613124,301.65436022858 245.97359982486,309.33352038169 250.52231691725,314.76339212584 253.27540058208,324.11975166572 261.82594433484,330.28670313634 264.39731691725,339.70089212584 267.69706193619,344.96079070798 274.41941433125,346.34930412293 279.24106691725,348.91964212584 282.62808512373,356.1168736982 291.12712842063,358.70851228167 298.36606691725,358.38839212584 303.62776808053,360.51089532093 309.05963821492,357.30244460684 314.39731691725,358.70089212584 319.08763807576,357.80647829583 323.72327476257,357.57661570364 328.27231691725,358.95089212584 332.06771878891,358.9816051761 335.38599141056,356.12288611785 336.45981691725,352.76339212584 367.81516893378,342.13762937319 381.85712478415,299.9491927441 364.77231691725,271.98214212584 364.17019231817,263.32797835521 360.86177799794,254.70814245485 353.45981691725,249.66964212584 349.18067612794,245.82825401732 345.81857450754,240.87553070741 343.45981691725,235.82589212584 339.99104662609,233.25256488298 336.04849568964,230.51070725252 331.49106691725,230.95089212584 z"
 inkscape:connector-curvature="0" />
<path
 id="path3956"
 style="color:#000000;fill:none;stroke:#000000;stroke-width:3.7976064682;stroke-linecap:butt;stroke-linejoin:miter;stroke-miterlimit:4;stroke-opacity:1;stroke-dasharray:none;stroke-dashoffset:0;marker:none;visibility:visible;display:inline;overflow:visible;enable-background:accumulate"
 d="M 341.93605900592,355.02608280886 C 339.38340065649,355.747399025 338.15722002493,360.55240206657 342.12355900592,359.96358280886 343.91333668193,360.70623126084 349.20831614306,361.96375323333 345.93605900592,358.46358280886 345.05987068277,356.97685115133 343.96326834688,354.78049626361 341.93605900592,355.02608280886 z M 331.49106691725,228.95089212584 C 327.9236423288,228.19731528459 326.58959121236,234.28759561985 323.20981691725,231.60714212584 311.20668644863,228.92795276964 298.4011000061,228.56738244498 286.36606691725,230.95089212584 279.25226844539,234.73502699034 274.81336564911,242.01402126691 268.02231691725,246.23214212584 262.02601894153,252.77022136461 256.0114245704,259.50454453912 249.89731691725,265.85714212584 248.01223258672,268.30034261647 249.40569134603,272.99313726033 245.39731691725,272.82589212584 241.5036824453,274.50628605821 240.30407490555,280.80379378362 244.20981691725,282.98214212584 241.24000007289,286.52978967899 246.28899025434,291.11708917085 243.14731691725,294.60714212584 240.35667838238,302.74227825751 244.99430285425,310.65435865919 249.24106691725,317.16964212584 252.89393417738,326.04558895567 260.42080572287,332.78690311435 263.49106691725,341.88839212584 266.95269401027,347.01445102186 274.03859882452,347.58122793673 278.24106691725,351.29464212584 282.55455003706,358.72747324422 291.68813489444,360.26216529706 299.45981691725,360.82589212584 305.18297485265,361.60598823418 310.8265544024,360.00128264526 316.49106691725,360.35714212584 322.60399008751,358.37594084964 329.47473051415,363.46389997704 334.77231691725,358.60714212584 337.19012970598,356.03257736774 338.66206305722,353.12523857921 342.49100005725,352.46550666051 370.07281821221,339.24181742076 382.0561088263,301.75671670555 368.55356691725,274.57589212584 372.38229441586,273.45217520004 370.2373430043,266.64153646305 366.49106691725,268.95089212584 365.54749154645,259.51672117202 360.04488261247,251.4924310253 352.58481691725,246.01339212584 347.43814217565,241.13623780484 346.1376995224,232.84922456162 338.70981691725,230.41964212584 336.46259377951,229.35799949086 333.99238971074,228.71278214985 331.49106691725,228.95089212584 z"
 inkscape:connector-curvature="0" />
<path
 style="color:#000000;fill:none;stroke:#000000;stroke-width:3.7976064682;stroke-linecap:butt;stroke-linejoin:miter;stroke-miterlimit:4;stroke-opacity:1;stroke-dasharray:none;stroke-dashoffset:0;marker:none;visibility:visible;display:inline;overflow:visible;enable-background:accumulate"
 d="M 330.36606691725,226.91964212584 C 327.14761160912,226.7726274708 325.78983459894,232.18007691133 322.63708649751,229.43443787173 310.22282538011,227.03701665784 296.88299503481,226.15837316804 284.70981691725,229.57589212584 277.42255571406,234.16420563882 272.00056988943,241.19046443401 265.20635974044,246.36657777817 259.54290880492,253.13921833669 252.69608688412,259.1132575964 247.45981691725,266.13839212584 246.49085307774,268.22883477755 247.25005577766,271.60440401992 243.99106691725,271.29464212584 239.41013284753,273.63229495529 238.78117157666,280.17796058891 241.49106691725,283.82589212584 240.28156123473,287.55535095916 243.84910376496,291.6014419082 240.95981691725,294.88839212584 237.90096069378,306.35862958322 246.60618249396,315.86342548549 251.43195862985,325.38972096189 255.72136351227,331.33568818774 259.62139589934,337.6002449108 262.70981691725,344.13839212584 267.14734895606,349.59594355981 275.74634468279,349.38377973726 279.20981691725,355.82589212584 288.91567977358,364.53400212113 303.23520647257,363.13558054425 315.36606691725,362.32589212584 322.37526960922,360.52013406598 331.11821506534,365.89680196609 336.70981691725,359.41964212584 337.99962705713,357.14225504919 337.94241050209,362.38564033385 340.52231691725,361.91964212584 343.35571862738,362.53247793871 349.53333550945,364.29613371975 348.86606691725,359.32589212584 347.84468648284,357.28426380853 346.08245113645,354.89225766035 344.70981691725,353.60714212584 371.77315368638,339.59832444855 383.63747923688,302.9514966105 371.14731691725,275.29464212584 374.02915232313,272.60073912093 372.29781399373,266.65739156176 368.17856691725,266.48214212584 366.6791878402,256.53095672099 359.68306354787,248.95162697008 352.30356691725,242.73214212584 348.46447719198,236.23564802245 344.19391582227,228.7173516697 336.05356691725,227.32589212584 334.18618697524,226.90223483998 332.26949089662,226.83842332965 330.36606691725,226.91964212584 z"
 id="path3975"
 inkscape:connector-curvature="0" />
<path
 id="path3983"
 style="color:#000000;fill:none;stroke:#000000;stroke-width:1;stroke-linecap:butt;stroke-linejoin:miter;stroke-miterlimit:4;stroke-opacity:1;stroke-dasharray:none;stroke-dashoffset:0;marker:none;visibility:visible;display:inline;overflow:visible;enable-background:accumulate"
 d="M 273.24360505385,355.44914634998 C 272.4017952322,356.83224964908 273.15115882089,360.3743650993 274.52485505385,357.91789634998 275.91266739558,356.53783585504 274.06640334175,356.4607755752 273.24360505385,355.44914634998 z M 330.36606691725,224.91964212584 C 327.70868435076,224.284020095 325.91235107962,228.19132895799 323.99106691725,227.91964212584 310.9892219925,224.82896759807 296.63905324377,223.99193309518 283.64731691725,227.88839212584 275.29302766046,233.79191447432 268.06564467504,241.15630347782 260.8666302618,248.29967524423 255.81247372904,254.76750265687 247.9140131712,259.7260143055 244.99106691725,267.51339212584 245.21118061627,270.59922569543 240.83734915915,269.28201632462 239.95981691725,272.16964212584 236.77501542731,275.97145269732 238.07584829131,281.1305243796 239.24106691725,285.23214212584 239.46105709211,288.83655728043 241.10447648811,292.43032549259 238.74106691725,295.60714212584 236.39989433776,308.11741149879 245.69565737998,318.61749949384 251.39731691725,328.79464212584 255.99977964498,334.38368307456 258.29151832152,341.63534139901 262.80356691725,347.10714212584 267.66735622298,351.21677582677 275.05163010963,351.89174774947 278.42856691725,357.79464212584 290.21981609067,367.67405584226 306.67354676474,364.58624625342 320.77231691725,364.01339212584 326.15504453284,364.86145911392 332.65266919283,365.57319426861 337.05356691725,362.13839212584 339.64381646325,364.95951655745 344.34205030262,364.90488243481 347.89731691725,364.38839212584 352.65198172583,362.78595333019 350.79517233174,356.68144374146 347.89731691725,354.13839212584 374.12770165624,338.92585602352 385.06186613,303.20534438759 373.55356691725,275.48214212584 375.85861711812,271.83055601608 374.12272695233,266.1540264293 369.92856691725,264.79464212584 368.10493492222,254.27096195137 359.60897845661,247.07321629473 352.84779158923,239.72952192848 348.33554061652,231.09171090606 340.79123213695,223.84066531239 330.36606691725,224.91964212584 z"
 inkscape:connector-curvature="0" />
<path
 id="path4004"
 style="color:#000000;fill:none;stroke:#000000;stroke-width:1;stroke-linecap:butt;stroke-linejoin:miter;stroke-miterlimit:4;stroke-opacity:1;stroke-dasharray:none;stroke-dashoffset:0;marker:none;visibility:visible;display:inline;overflow:visible;enable-background:accumulate"
 d="M 353.06336410035,355.24502133874 C 354.83316257381,357.3924718737 358.1338506756,358.19242289705 358.19562200444,354.50171323919 358.39486075962,352.9809561837 358.22695203087,350.01173660975 356.46463201554,352.83173422485 355.4450636745,353.68422610344 353.8805532471,354.5907841187 353.06336410035,355.24502133874 z M 331.27231691725,222.85714212584 C 328.44603487697,222.33321385584 326.08968397058,224.21988193417 324.11606691725,225.91964212584 310.3538071417,222.84394410173 294.98002926293,221.46512930003 281.6795325758,226.84769685169 268.56214473112,236.70082067787 257.35764058719,248.94194200861 246.36606691725,260.98214212584 244.19329688831,262.81761836083 244.08026871433,266.57677626493 242.20981691725,268.04464212584 235.28125824413,270.39087760097 234.95121575436,279.75769227864 237.27231691725,285.60714212584 238.15357584216,289.35350506622 238.31502004771,293.17998458039 236.55356691725,296.54464212584 235.11355697664,310.91470568403 245.6609203642,322.53744370046 252.65294240944,334.04455361357 256.80299004476,341.33902219517 260.10269655502,350.47071685313 269.04174410825,352.99185572134 273.51446852222,353.38159043721 269.26400115217,357.54033271838 271.77231691725,359.85714212584 273.27509272546,362.60968032767 275.92897744734,359.14833415877 276.74106691725,358.88839212584 288.8797365734,369.89761954699 306.78424283948,366.458684734 321.69799082061,366.16672945567 326.7699451151,367.02968834203 332.39377357802,367.10929782701 336.99106691725,364.73214212584 341.70014422277,367.58649948324 351.34037389138,368.34424454349 352.70981691725,361.45089212584 353.65292420584,358.94864263678 351.06769838504,355.96631648163 351.39731691725,354.29464212584 376.48999470588,337.99981856179 386.65550090894,303.18342396159 375.77231691725,275.54464212584 377.79000932106,271.29874061075 375.92672409209,265.46729337242 371.67856691725,263.35714212584 369.05005466757,250.36103667 356.66721445711,243.26290908633 350.45981691725,232.32589212584 345.87928411182,226.53543494676 338.93451015853,222.28202586636 331.27231691725,222.85714212584 z"
 inkscape:connector-curvature="0" />
<path
 id="path4134"
 style="color:#000000;fill:none;stroke:#000000;stroke-width:0.5652822852;stroke-linecap:butt;stroke-linejoin:miter;stroke-miterlimit:4;stroke-opacity:1;stroke-dasharray:none;stroke-dashoffset:0;marker:none;visibility:visible;display:inline;overflow:visible;enable-background:accumulate"
 d="M 263.43235561476,354.64830400703 C 263.28010958469,356.00353990026 263.23516243392,357.48172662982 263.68874259393,358.73193016139 265.26403712297,357.7123387399 269.80507656809,356.93166686871 266.01506193497,355.62314599023 265.22438585988,355.22114638939 264.28377749562,354.66552171415 263.43235561476,354.64830400703 z M 329.61606691725,220.79464212584 C 325.74814763962,221.11213546363 323.36078843652,225.33756191901 319.27231691725,222.88839212584 306.09520829069,220.70073493017 291.23654080225,219.56266156599 279.20981691725,226.20089212584 265.96119936902,236.66994104779 254.2040938324,248.90613900448 243.27231691725,261.73214212584 242.42169958229,264.83079271191 240.9304851233,266.8852632624 238.02231691725,268.20089212584 232.03716896991,273.64674198115 234.10389522804,282.44837679037 235.86606691725,289.23214212584 235.99614856983,294.34578582413 233.1773769467,299.12705960572 234.88586609737,304.34660318997 237.9707159079,319.78515382813 250.00800693826,331.04321823948 256.45981691725,345.01339212584 259.32032561519,349.70974725632 263.65036286069,353.92450822213 269.20981691725,355.04464212584 267.30709393289,359.05321645603 271.78023165815,365.36748938479 276.05356691725,361.91964212584 278.84453163219,361.9855348962 282.00528977283,365.85964903793 285.42856691725,366.35714212584 299.68453389661,371.31058326294 315.01583694215,367.22551676359 329.70981691725,368.66964212584 333.43447347748,368.77660309284 336.71652666899,365.81388174945 340.14731691725,368.16964212584 346.27641475361,370.50363268111 355.32260199188,367.27525995595 354.89731691725,359.76339212584 354.76625013715,358.171362729 359.42380845968,359.70069399358 359.80356691725,356.70089212584 360.33826434943,354.74282250263 360.68378978484,352.39058870192 359.52231691725,350.60714212584 380.2365547963,332.44699505669 387.40457244078,300.96114652479 378.02231691725,275.32589212584 379.87834208091,270.29269206087 377.25711563646,264.65213238246 373.33481691725,261.66964212584 369.80455643999,248.4907866011 357.31548558757,240.65543738238 350.58481691725,229.35714212584 345.3185934011,223.49621175907 337.56664064557,220.06266860111 329.61606691725,220.79464212584 z"
 inkscape:connector-curvature="0" />
<path
 id="path4223"
 style="color:#000000;fill:none;stroke:#000000;stroke-width:1;stroke-linecap:butt;stroke-linejoin:miter;stroke-miterlimit:4;stroke-opacity:1;stroke-dasharray:none;stroke-dashoffset:0;marker:none;visibility:visible;display:inline;overflow:visible;enable-background:accumulate"
 d="M 275.86052039202,366.15916747069 C 274.05437805214,368.7157549298 280.95294283003,372.03919451915 280.70427039202,368.65916747069 279.55448650147,367.33251869608 277.55907220316,366.3305721576 275.86052039202,366.15916747069 z M 330.27231691725,218.73214212584 C 326.04146878695,218.52125012787 322.76490915018,223.47052429992 318.59776418263,220.75924605646 302.71815026299,218.12577999308 283.54389681213,217.33067845962 271.47255371252,229.97122487275 260.64600939394,239.74727521088 249.75345464172,250.05673469779 241.17856691725,261.76339212584 239.88332521358,266.42864747531 233.88090034885,267.23049021311 232.95981691725,272.26339212584 229.74323383774,280.32976446006 235.82523122987,288.38563769068 232.80356691725,296.41964212584 230.82330883931,309.32963941444 239.37623557454,320.91138838711 245.95981691725,331.20089212584 251.78219693245,338.27714667366 253.93242283546,348.1349395761 261.52231691725,353.66964212584 261.05951188467,356.69807867654 261.1425154347,364.02549538793 265.30356691725,360.13839212584 268.16774887138,358.07367462381 267.98008943644,363.80254366612 270.89731691725,364.29464212584 273.82645159352,366.2445932999 277.03005711574,362.51829265878 279.39731691725,365.63839212584 294.38483931007,374.57295653805 312.76099803939,369.0544555975 329.20531238984,370.63945121847 333.21298778321,370.93301512931 337.25459270976,367.7860079703 340.92856691725,370.51339212584 347.59130229286,372.3506555338 356.57031091072,368.43108200051 356.89731691725,360.82589212584 361.83457297541,360.90553939058 363.05923595506,354.94641587627 361.92856691725,351.13839212584 382.4873115606,332.35994111387 389.04587327993,300.89191491805 380.24106691725,274.88839212584 381.94592499453,269.21617107484 378.4316903668,263.73974623144 374.89731691725,259.79464212584 370.42581100634,246.60383442125 358.29823465898,238.31814611348 351.02231691725,226.91964212584 345.63498461331,221.45571820239 337.9932540034,218.2848546534 330.27231691725,218.73214212584 z"
 inkscape:connector-curvature="0" />
<path
 id="path4236"
 style="color:#000000;fill:none;stroke:#000000;stroke-width:0.7320681214;stroke-linecap:butt;stroke-linejoin:miter;stroke-miterlimit:4;stroke-opacity:1;stroke-dasharray:none;stroke-dashoffset:0;marker:none;visibility:visible;display:inline;overflow:visible;enable-background:accumulate"
 d="M 359.90073447181,363.55884591677 C 358.06599239276,365.46194090411 363.534210165,368.12512508535 362.87476133353,364.9085965694 362.18239443525,364.03460216509 361.02054747615,363.48882581133 359.90073447181,363.55884591677 z M 330.27231691725,216.73214212584 C 325.88896326796,216.41643311994 322.21992383938,221.46693357501 317.94217299342,218.63024313853 301.01480308841,215.6305278962 280.79225814166,216.06442368825 268.57684768906,229.92470653899 257.12986482362,240.21787747401 245.88919499572,251.15329657762 237.39731691725,263.91964212584 228.81485497165,268.54720120987 229.15404400129,279.43575779296 231.33481691725,287.60714212584 232.40263242053,294.27258531864 228.9079120226,300.85842123895 231.42856691725,307.51339212584 235.44817186852,322.5756001745 247.01881404124,333.97776817141 253.58481691725,347.85714212584 255.36610732038,351.72573124663 260.54605300482,353.53860666022 259.42856691725,358.32589212584 259.14174028973,361.95407511086 263.33688866124,364.99732905497 266.20981691725,362.04464212584 267.17298077023,365.32373920328 270.90848544421,366.85571720023 273.55356691725,367.13839212584 273.75664403423,371.80282836989 281.31792556668,373.9441227671 282.99106691725,369.66964212584 298.23591706954,375.70757907598 315.03918674861,371.18190334104 330.95981691725,372.60714212584 334.69991056029,371.60174637649 338.44673734374,370.71457882896 341.92856691725,372.76339212584 348.96127469446,374.00262902545 357.21004279887,369.8578755507 358.77231691725,362.60714212584 363.60401009518,361.48812053848 364.68038986084,355.69562506285 364.33481691725,351.63839212584 384.53949866955,332.32334216626 390.89110638467,301.02544021143 382.36606691725,274.70089212584 384.53582568143,266.24396083452 376.69817319601,260.48374372074 374.21180829769,253.25400737299 368.09088359881,242.59737606036 358.37057835346,234.35488493304 351.30356691725,224.41964212584 345.67268025027,219.26655125514 337.9917719889,216.29869688821 330.27231691725,216.73214212584 z"
 inkscape:connector-curvature="0" />
<path
 id="path4261"
 style="color:#000000;fill:none;stroke:#000000;stroke-width:0.7320681214;stroke-linecap:butt;stroke-linejoin:miter;stroke-miterlimit:4;stroke-opacity:1;stroke-dasharray:none;stroke-dashoffset:0;marker:none;visibility:visible;display:inline;overflow:visible;enable-background:accumulate"
 d="M 330.27231691725,214.73214212584 C 325.68563494153,214.36478441335 321.69556963257,219.45598200016 317.28753335843,216.49585679193 299.69894124365,213.24415029322 278.65891873275,214.86538430542 266.33805171256,229.24097988627 254.94026424108,239.25727205557 244.37768816333,250.5539687985 235.45981691725,262.70089212584 226.42714067472,268.44966617386 227.31884232417,280.54694655347 229.52231691725,289.57589212584 229.10886041276,297.05084666554 227.1721783326,304.7972214753 230.68874084504,311.89740231402 236.10943434013,326.13589036395 246.53894804791,337.68210701399 253.36606691725,351.20089212584 255.91601875718,353.47402194712 258.48245358567,356.06505780269 257.49106691725,359.73214212584 257.89338356284,363.84342623687 262.51947711948,365.74913028332 265.67856691725,365.26339212584 267.8611429884,368.33105839664 272.23273483,367.89848048502 273.52231691725,371.60714212584 276.1596404094,374.22467708798 281.10608883292,375.05758103114 283.80356691725,372.10714212584 299.16519233303,377.45904518688 315.65030135424,373.29292440717 331.45981691725,374.54464212584 335.59484160166,372.60023072538 339.84635586333,374.04909184869 343.92856691725,374.98214212584 349.97709585514,375.50471295506 356.00123234455,371.51759313943 359.27231691725,367.48214212584 362.44208473284,370.6451194586 367.58121911353,365.39597875682 363.45981691725,362.70089212584 363.99717611958,360.86431069788 366.50826573553,357.85693251055 366.30356691725,355.07589212584 366.04461480621,350.29881239668 371.76659316038,348.09818951324 373.64731691725,343.98214212584 388.20480557774,324.28045556375 391.43777551975,297.38222428143 384.55356691725,274.16964212584 385.96605632385,264.83824819919 377.84185682891,258.19491318725 374.70981691725,250.20089212584 368.00500715172,240.04119349562 359.08120636259,231.37366211034 351.49106691725,221.95089212584 345.59942473574,217.00857086252 337.95614460008,214.33758801403 330.27231691725,214.73214212584 z M 369.5573618775,352.13848649528 C 369.75415656699,352.02447844871 369.94200939356,351.89736686528 370.13854241037,351.7825858175 372.51220754762,350.5837461118 374.20762291854,353.94061554143 371.8339577813,355.13945524713 L 371.8339577813,355.13945524713 C 371.58522430381,355.24498265886 371.33645382203,355.35053589881 371.08241363795,355.44276530961 368.74593568141,356.52113975109 367.22088392095,353.21686093676 369.5573618775,352.13848649528 z"
 inkscape:connector-curvature="0" />
<path
 id="path4266"
 style="color:#000000;fill:none;stroke:#000000;stroke-width:0.7320681214;stroke-linecap:butt;stroke-linejoin:miter;stroke-miterlimit:4;stroke-opacity:1;stroke-dasharray:none;stroke-dashoffset:0;marker:none;visibility:visible;display:inline;overflow:visible;enable-background:accumulate"
 d="M 329.27231691725,212.73214212584 C 324.93459625721,213.02427606303 320.87684942622,217.20553631253 316.63018035261,214.34597742618 297.99008143219,210.84715550684 276.24044587706,213.83683123052 263.50230333085,229.06765063717 252.1310588239,238.87745987161 242.50214488521,250.57488220812 232.95981691725,262.01339212584 224.18313618704,268.87579345592 225.69679605604,281.21638776989 227.42856691725,290.85714212584 225.83448644443,300.11149747421 226.28488380887,309.83816611887 231.11606691725,317.98214212584 237.38120250425,330.25721622964 245.77812235938,341.52796904016 252.72212218549,353.3519603762 256.16914079306,355.27507468792 255.464109524,358.85028854276 255.99106691725,361.91964212584 257.30398262027,366.15497987635 262.18365959476,366.79007453943 265.52231691725,367.98214212584 268.39031647641,369.73320657401 271.39828830417,370.90450615985 273.11606691725,373.88839212584 276.38257021878,376.63843922301 281.30622192179,376.36131067427 284.67856691725,374.48214212584 300.19427692894,379.089177751 316.84610440885,375.73933199737 332.58481691725,376.20089212584 338.89242788151,374.14404137501 345.6793546106,379.26682803902 351.77231691725,375.57589212584 354.91263542643,374.57914424096 357.51276323543,371.62041632641 359.99106691725,370.23214212584 364.55742628502,371.89950513249 369.15383149393,365.83644239296 365.89731691725,362.07589212584 367.58393591977,360.59390850056 367.02715990942,355.79221355433 369.89731691725,357.63839212584 374.94915915626,358.52207674493 377.10900671343,350.46572945368 371.70981691725,349.57589212584 389.45721160717,329.37839577281 394.06631466199,299.54684029415 386.58481691725,273.98214212584 387.62953149714,263.61651725305 379.10714906588,255.9188374994 375.05356691725,247.16964212584 367.73465352469,237.25242977512 359.48301048079,227.80048892618 350.92856691725,218.95089212584 344.69240391936,214.42636948059 336.99051537087,212.26095358701 329.27231691725,212.73214212584 z M 376.24398497889,347.89202185795 C 376.39369021982,348.02954239551 376.53824991943,348.17256405468 376.6836210538,348.31462572513 376.95848794509,348.58526245851 377.23732197885,348.85179349856 377.51302968788,349.12157574136 377.71875524535,349.32132477257 377.61487628928,349.22010196957 377.82464096674,349.42527040899 378.84003484667,350.41775509327 377.43644954571,351.85373888943 376.42105566578,350.86125420514 L 376.42105566578,350.86125420514 C 376.21451056026,350.65950783253 376.31846462673,350.76070648451 376.10918332117,350.5576686709 375.83496313291,350.28987725145 375.55732981964,350.02567969363 375.28210408273,349.75893093721 375.16066937728,349.64195080226 375.03969947614,349.52438767908 374.91483759896,349.411047435 373.84072431263,348.47119830946 375.16987169256,346.95217273241 376.24398497889,347.89202185795 z"
 inkscape:connector-curvature="0" />
<path
 id="path4280"
 style="color:#000000;fill:none;stroke:#000000;stroke-width:1;stroke-linecap:butt;stroke-linejoin:miter;stroke-miterlimit:4;stroke-opacity:1;stroke-dasharray:none;stroke-dashoffset:0;marker:none;visibility:visible;display:inline;overflow:visible;enable-background:accumulate"
 d="M 380.00445997283,344.07142777398 C 378.19831763295,346.62801523309 385.09688241084,349.95145482244 384.84820997283,346.57142777398 383.69842608228,345.24477899937 381.70301178397,344.24283246089 380.00445997283,344.07142777398 z M 329.89731691725,210.70089212584 C 325.10601470687,210.67357085837 320.62265394989,215.27509599444 315.97538934174,212.21260148736 296.57657593595,208.58880780947 274.25114702953,212.66895209475 261.23619504288,228.41926441012 248.6821839547,239.46501509077 238.17694372344,252.72378848037 227.30356691725,265.41964212584 221.9411601985,273.83840314736 225.09328894313,284.20791961604 225.02328218266,293.34942000255 222.93904771295,305.2734645981 227.08112651715,316.9659687921 233.62520458126,326.68657722452 239.73486025075,336.29399599487 245.57171090376,346.50929211689 252.30356691725,355.45089212584 254.91009141981,358.54369820067 252.69621426538,364.55368207498 257.24106691725,366.79464212584 262.37580885932,369.64369328759 268.83952130857,370.46567731073 272.27231691725,375.76339212584 276.09246200498,378.94811201439 281.4343467119,377.79062151723 285.64731691725,376.82589212584 303.28494185838,381.29122249674 321.71444428508,377.25520816006 339.52231691725,378.04464212584 347.0628514194,380.65088276817 354.80830077509,377.56161699649 360.39731691725,372.38839212584 366.22433713096,373.59009007367 370.64847308276,366.65513037115 368.49106691725,361.70089212584 368.57742455385,358.02241491739 373.12386877989,360.79934950976 374.77231691725,358.01339212584 377.09781858234,356.32156110622 375.88271927221,352.78496002031 378.99106691725,352.57589212584 381.92429310462,350.3757926863 378.66444634195,347.30235790248 377.24106691725,345.82589212584 392.3281558133,325.25850521328 395.28871243475,297.41213382885 388.64731691725,273.07589212584 388.90367756695,261.87501068042 380.17110389332,253.42081952919 375.27231691725,244.10714212584 367.2117564583,234.21117777598 359.55077594556,223.49893665894 349.49106691725,215.60714212584 343.57739541282,212.12594645875 336.76610329167,210.39355823187 329.89731691725,210.70089212584 z"
 inkscape:connector-curvature="0" />
<path
 id="path4302"
 style="color:#000000;fill:none;stroke:#000000;stroke-width:2.9806911945;stroke-linecap:butt;stroke-linejoin:miter;stroke-miterlimit:4;stroke-opacity:1;stroke-dasharray:none;stroke-dashoffset:0;marker:none;visibility:visible;display:inline;overflow:visible;enable-background:accumulate"
 d="M 259.52144213336,224.12661055649 C 256.2366877222,223.06777646833 254.43986129753,223.72895486682 256.30620583119,227.33550774185 256.00890749977,229.90571911937 259.94811841767,223.96375728742 259.52144213336,224.12661055649 z M 316.14035314839,205.03983641301 C 314.33421080851,207.59642387212 321.2327755864,210.91986346147 320.98410314839,207.53983641301 319.83431925784,206.2131876384 317.83890495953,205.21124109992 316.14035314839,205.03983641301 z M 329.89731691725,208.70089212584 C 324.90703440338,208.72412776525 320.11643830603,213.19223688112 315.31810680151,210.06223520933 294.98005577886,206.33385324408 272.08204148951,211.69202456898 258.70981691725,227.98214212584 246.23324786718,239.57237381568 234.94379136922,252.63986346623 224.58481691725,266.16964212584 219.53890075858,276.4149068547 224.30115197323,288.09549724917 222.49106691725,298.91964212584 221.99225270771,318.13326370866 236.12941815207,333.04270833839 245.10826711348,348.72044242018 248.07264865084,353.51195589523 252.76346603921,357.50567284735 252.45981691725,363.66964212584 255.12785110064,371.99244944457 266.97152893973,370.0624358566 271.08481691725,377.35714212584 276.47976709646,382.30397460281 284.06693795939,377.69851947272 290.27231691725,379.82589212584 308.44649146754,383.12798393041 327.07108855556,378.00633777835 345.17856691725,380.98214212584 351.27394405434,381.18452805621 356.81362176764,377.75711812177 361.45981691725,374.51339212584 368.11021108758,374.92770829513 372.37457864318,366.9174177605 370.80356691725,361.57589212584 375.19755410897,362.10865376563 377.87229474925,357.99886142024 378.95981691725,354.60714212584 381.6245301153,354.69521000731 381.94897299528,350.72615883027 382.52231691725,349.91964212584 386.83345945209,351.17687246864 388.38800601006,345.00924242062 384.39731691725,343.57589212584 381.82690639032,342.81100485225 381.75469041794,341.8545400633 383.52231691725,339.79464212584 395.12689566692,319.39735263767 396.37448136296,294.35250349705 390.64731691725,271.91964212584 389.93684475623,259.76583073411 380.98787006441,250.39925708186 374.96073177459,240.51453569751 366.27698143968,230.42365377948 358.81660735806,218.34778156429 346.86606691725,211.98214212584 341.55140219705,209.63948665252 335.7282162643,208.42623108443 329.89731691725,208.70089212584 z"
 inkscape:connector-curvature="0" />
<path
 id="path4317"
 style="color:#000000;fill:none;stroke:#000000;stroke-width:2.9806911945;stroke-linecap:butt;stroke-linejoin:miter;stroke-miterlimit:4;stroke-opacity:1;stroke-dasharray:none;stroke-dashoffset:0;marker:none;visibility:visible;display:inline;overflow:visible;enable-background:accumulate"
 d="M 314.45981691725,203.98214212584 C 312.60357973644,205.34960672626 315.82477422616,208.95469543563 312.65580738665,207.63335808904 294.61019386087,205.09517815854 274.95316286062,209.43339169573 261.45981691725,222.13839212584 258.34398040224,221.17359281264 252.3911858768,221.3624503479 253.70981691725,226.20089212584 256.47568309449,230.69989116931 249.32573124304,232.75745520266 247.45498809545,236.29747427813 238.3944237014,246.12581353124 228.84454972633,255.9884756761 221.86606691725,267.38839212584 218.04181316439,278.45849027416 222.18822014708,290.35980318556 220.52231691725,301.66964212584 221.63066143617,321.32207840855 235.84384495071,336.39551836387 245.33481691725,352.54464212584 248.48529676046,356.0796465832 250.67247545343,360.51666083412 250.92856691725,365.23214212584 254.44445533563,373.61012143132 265.98428574363,372.01767789515 270.42856691725,379.41964212584 276.9761489956,384.35309866386 285.45332318379,379.44449244848 292.6990203796,382.22244078693 310.74962052382,384.5232608523 329.09589183398,380.3154068083 347.08481691725,382.95089212584 353.35327765741,382.87591973867 358.18449506346,378.08658945045 363.70981691725,376.35714212584 369.68821330587,375.35405663708 373.1556185886,368.88078766659 373.27231691725,363.45089212584 378.12836212025,362.72162150061 378.9901397303,357.17596399763 382.49106691725,354.91964212584 383.20406204076,352.33830730803 384.99408188005,351.87263157745 387.05356691725,350.76339212584 390.37878065321,347.85960652657 388.13078187502,342.43414945802 384.83481691725,341.35714212584 397.7404257908,319.89428766076 398.08600574185,293.13590027511 392.39731691725,269.32589212584 390.10830712151,256.4077801869 380.95615944814,246.1371964002 373.59821100748,235.74785791592 363.8884427012,223.6234437441 353.55954238091,208.75508097193 336.70981691725,207.04464212584 332.204749406,205.94091379416 326.35748447853,207.25038712461 322.99106691725,207.82589212584 322.67572028154,204.71445511212 316.46923789757,201.59902100444 314.45981691725,203.98214212584 z M 389.25182666975,339.46882586673 C 389.29807174954,339.56910233976 389.37801036619,339.64146682925 389.45314486934,339.71956960828 389.58722901314,339.85314544626 389.70584119244,340.00089641099 389.82392245506,340.14843938524 390.74416727566,341.32546907031 389.07959593172,342.62689177631 388.15935111112,341.44986209124 L 388.15935111112,341.44986209124 C 388.06221634288,341.32139545454 387.96194553503,341.19548095535 387.86011493651,341.07069876382 387.73593068134,340.91126746832 387.62062215855,340.74584388743 387.50184630856,340.58244973294 386.71439532107,339.3450267526 388.46437568226,338.23140288639 389.25182666975,339.46882586673 z"
 inkscape:connector-curvature="0" />
<path
 id="path4384"
 style="color:#000000;fill:none;stroke:#000000;stroke-width:2.9806911945;stroke-linecap:butt;stroke-linejoin:miter;stroke-miterlimit:4;stroke-opacity:1;stroke-dasharray:none;stroke-dashoffset:0;marker:none;visibility:visible;display:inline;overflow:visible;enable-background:accumulate"
 d="M 307.20535278342,200.24107081034 C 305.46676433617,202.78147689519 305.85619527146,204.17319090546 309.17410278342,203.55357081034 313.05176064817,205.47040080089 307.20917822652,197.59820770088 307.20535278342,200.24107081034 z M 315.86606691725,201.16964212584 C 313.71172511476,201.39708394747 311.67172657697,203.2681901436 311.83481691725,205.54464212584 293.73401345969,202.97896924651 274.34697680264,208.16103099151 260.55356691725,219.85714212584 255.94399379263,218.20868243872 249.33080116725,222.26365621234 252.11606691725,227.45089212584 252.66910591758,231.00773434983 247.01482759312,231.96664572529 245.80356691725,235.13839212584 236.55215106824,245.58601329576 225.94972193804,255.43037196541 219.58481691725,267.91964212584 216.37573515135,279.61588893782 219.92186642207,291.84969298162 218.67856691725,303.73214212584 221.06403344284,325.50502347047 237.69706122316,341.82896131872 247.70981691725,360.04464212584 248.8754669364,364.59761747525 249.56966447952,369.8205701045 254.45981691725,372.10714212584 259.84075667699,374.99620634173 266.2961656445,376.40982858846 270.02231691725,381.57589212584 277.3888212816,386.18440803893 286.44043245257,381.49981104335 294.20981691725,384.41964212584 312.25830763969,386.12668660794 330.50459486726,382.59804352085 348.45981691725,384.88839212584 355.45518397499,383.90475481343 361.03903950336,378.77137833396 367.83481691725,376.98214212584 372.21293030025,374.54055143213 374.42745410767,369.55363393507 375.33481691725,364.98214212584 380.25699662857,362.69256473055 382.14869376855,356.88307324584 385.92856691725,353.60714212584 390.38767776886,352.5398344319 391.46786817937,347.03795120844 390.14731691725,343.70089212584 393.38422339386,342.46376470556 391.97294498131,338.1822261668 389.45981691725,337.10714212584 400.90263402086,313.41005263847 399.84911043727,284.96893734242 391.83481691725,260.41964212584 384.9548535587,245.47981944976 373.99466978858,233.05844264617 363.58481691725,220.41964212584 354.20244761617,209.06164607399 338.89167501796,202.02431601385 324.20981691725,205.41964212584 322.44478350667,202.72612418275 319.09220338609,200.94547794424 315.86606691725,201.16964212584 z"
 inkscape:connector-curvature="0" />
<path
 id="path4399"
 style="color:#000000;fill:none;stroke:#000000;stroke-width:0.6099412441;stroke-linecap:butt;stroke-linejoin:miter;stroke-miterlimit:4;stroke-opacity:1;stroke-dasharray:none;stroke-dashoffset:0;marker:none;visibility:visible;display:inline;overflow:visible;enable-background:accumulate"
 d="M 301.67152007081,200.85741299457 C 301.70710676366,200.83650834557 301.70482384964,200.74738865026 301.69926782624,200.67265775289 301.67590272292,200.43626314408 301.57072431403,200.223056543 301.46294748786,200.01534854621 301.3526521087,199.79855890566 301.20080824901,199.61516311104 301.01664142675,199.45860328032 300.89553430282,199.36164705386 300.76280346925,199.28112981931 300.64191952056,199.18388733735 300.49963299606,199.07083368685 300.39083334099,198.92819275838 300.29772206151,198.77366787468 300.23896853152,198.67443826503 300.19837343451,198.56648837917 300.15614794211,198.45966165901 299.75804255554,197.566213533 301.02156901261,197.00320749606 301.41967439919,197.89665562206 L 301.41967439919,197.89665562206 C 301.44626509448,197.94702273781 301.47451605388,197.99635277833 301.50413126964,198.04500966391 301.53063965317,198.08823343247 301.55872578954,198.12951856251 301.5938749286,198.16664081595 301.71623847911,198.31010452857 301.846149639,198.44701397671 301.96529783959,198.5932394433 302.17093189055,198.85816395988 302.35195395639,199.14015098516 302.51440365122,199.43361041277 302.67736961307,199.71268948131 302.84647833604,199.98902814663 302.98249449127,200.28268432606 303.0505078155,200.42548569824 303.11930878637,200.56884545318 303.1601356335,200.72208430706 303.25582746613,201.77469446601 301.76721190344,201.91002315353 301.67152007081,200.85741299457 z M 306.55356691725,197.91964212584 C 303.83411675425,199.12085909464 305.49015323441,204.51708363198 301.52231691725,202.91964212584 286.50992375439,203.07926882464 271.63376630772,208.38948043293 259.92856691725,217.63839212584 253.94055342464,216.17836299443 247.23859642846,222.27951291569 250.08481691725,228.23214212584 246.79658756871,230.98154602552 243.42969129195,234.0659407427 240.80356691725,237.70089212584 232.12281972621,247.63535243021 221.3959168782,257.02974354513 217.08481691725,269.76339212584 214.96430461812,281.7473158025 217.52144786151,293.97302382753 216.92856691725,306.01339212584 220.03577525677,327.54449810129 236.88239604191,343.35443339899 246.20981691725,362.20089212584 246.8384142645,368.85768787996 251.4639482796,374.15885420477 257.83481691725,375.91964212584 262.95235120457,377.35722981526 266.6689183462,381.12054282988 270.61606691725,384.16964212584 278.5941629706,387.64864572947 287.60695392934,383.79077887507 295.77231691725,386.57589212584 313.67463864279,387.73152891325 331.68486103226,384.92007070878 349.52231691725,386.76339212584 356.91385909764,385.00632530236 363.28545080112,380.49432679096 370.30356691725,377.79464212584 374.3625336654,375.15712226166 375.66843636014,369.73501436855 377.77231691725,365.91964212584 382.72779893101,362.49257986731 384.61085024023,356.0396608651 390.14731691725,353.41964212584 393.03866057809,351.01015440401 392.15057777263,346.78981430377 393.08481691725,343.95089212584 395.51092756694,341.32053472722 392.68822933367,337.83356497166 392.30356691725,335.66964212584 403.09324585598,311.06427960734 401.95289317113,281.99650555258 392.51260332175,257.21271493484 384.51667336751,241.59409856178 372.81183268005,227.91451923762 361.14731691725,214.91964212584 351.73560778512,205.72535425295 337.8969989226,200.87368519911 324.89731691725,203.04464212584 321.79213273505,199.40060348911 315.36285198067,197.53389475953 311.64731691725,201.01339212584 310.55888170084,199.42678422804 308.8156781332,196.95857880518 306.55356691725,197.91964212584 z"
 inkscape:connector-curvature="0" />
<path
 id="path4404"
 style="color:#000000;fill:none;stroke:#000000;stroke-width:0.6099412441;stroke-linecap:butt;stroke-linejoin:miter;stroke-miterlimit:4;stroke-opacity:1;stroke-dasharray:none;stroke-dashoffset:0;marker:none;visibility:visible;display:inline;overflow:visible;enable-background:accumulate"
 d="M 299.70981691725,195.66964212584 C 297.3641772851,196.54851070073 297.82454915801,199.90765551732 299.67856691725,200.95089212584 284.93121008131,201.30382731387 270.73240738696,207.23631696049 258.92856691725,215.45089212584 252.24928481288,214.71121912083 246.01563015018,221.37374300255 247.52231691725,227.79464212584 238.92021505234,235.99022685499 231.23071177588,245.18814640489 223.51606691725,254.25089212584 217.27888787355,261.70596323015 213.32686431884,271.16647740114 214.24106691725,281.07589212584 214.79954926728,290.51692568674 214.52311447935,300.10704514776 215.52231691725,309.45089212584 219.56637118008,330.15643386893 236.13716805918,345.09750314591 244.39731691725,363.82589212584 245.56219749842,371.72412217981 252.46237716535,377.05186123201 259.83481691725,378.79464212584 265.87591567382,382.19717970881 270.64721259144,388.53451232575 278.27231691725,387.70089212584 285.31816910381,387.29371121915 292.20645744404,387.54730500158 299.08481691725,388.76339212584 316.29134455696,389.12340222203 333.62995857229,387.47616615105 350.74106691725,388.51339212584 358.42206902541,386.14424491494 365.72372299907,382.23201597171 372.70981691725,378.45089212584 377.36393502419,374.55396362404 377.52197475717,367.64031131621 382.58481691725,364.13839212584 385.22111976584,359.85836271112 388.92800727457,356.58030412194 392.70981691725,353.57589212584 394.9784378743,350.07819424916 394.22136397348,345.60127596115 396.05356691725,342.07589212584 396.11871036733,338.34551255236 393.00813716804,335.19472315899 396.05356691725,331.70089212584 405.1566456603,306.70482634349 403.71396411749,277.59569096522 392.74106691725,253.35714212584 383.81432549989,237.75300057202 372.39249983613,223.54069600842 359.64731691725,210.88839212584 350.23950266561,203.24692787139 337.73615114921,199.22847172061 325.61606691725,200.91964212584 322.15553567063,197.2677782794 316.19674732386,196.33499139984 311.92856691725,198.04464212584 310.09309040798,195.36129387986 305.65883531082,194.73952318471 303.80356691725,197.73214212584 302.97347768755,196.3305502958 301.489213296,194.78775468274 299.70981691725,195.66964212584 z M 302.9990384566,194.57888080675 C 303.09646769306,194.56438426085 302.94883068911,194.31362015967 302.91897228658,194.26236782506 302.72037252663,193.99724363162 302.41121748477,193.80168615303 302.08176478572,193.63345972398 301.64310265044,193.41990356974 301.14921326085,193.28829442682 300.65728428414,193.16395426405 300.29072766037,193.09172082394 299.89710880713,192.99813902142 299.51591216117,193.05834225399 299.34991732246,193.12695207336 299.54372210633,193.1138275811 299.61880992891,193.08690173319 299.60142495897,193.17676079257 299.56137586965,193.28957972358 299.53968965059,193.38710753454 299.53384985872,193.41767279702 299.52801006685,193.44823805951 299.52217027499,193.47880332199 299.26088242768,194.70631031173 296.95932924022,194.42760055986 297.22061708752,193.20009357012 L 297.22061708752,193.20009357012 C 297.2309771686,193.15455327511 297.2413372497,193.1090129801 297.25169733078,193.06347268508 297.34695915869,192.70225047443 297.46844171296,192.34108352736 297.74786599361,192.03242536804 298.23012928212,191.58827113016 298.75710939985,191.37332701316 299.53234255847,191.38732685858 300.15325092158,191.42470843925 300.75241696297,191.54065628195 301.3341414964,191.70925266499 301.97299933346,191.88496113185 302.60968319968,192.07286911729 303.19750028637,192.33366877359 303.75113379263,192.5966602792 304.27718427626,192.89316731848 304.72394439915,193.25629524989 304.9611268161,193.45145928555 305.20366953743,193.64719961865 305.39715558554,193.8688799125 306.06277494044,195.14788817268 303.66465781149,195.85788906693 302.9990384566,194.57888080675 z"
 inkscape:connector-curvature="0" />
<path
 style="color:#000000;fill:none;stroke:#000000;stroke-width:0.6099412441;stroke-linecap:butt;stroke-linejoin:miter;stroke-miterlimit:4;stroke-opacity:1;stroke-dasharray:none;stroke-dashoffset:0;marker:none;visibility:visible;display:inline;overflow:visible;enable-background:accumulate"
 d="M 298.74106691725,189.41964212584 C 295.37194687696,189.62806967812 294.11721338827,194.35374013343 296.55356691725,196.04464212584 295.69318098064,197.77362980194 297.08193995894,200.19710898312 293.89731691725,199.35714212584 281.04245423523,200.84927852365 268.93014136408,206.26415635978 258.30356691725,213.38839212584 251.15136466403,213.1299710033 244.52021197273,219.8478834052 245.36606691725,227.07589212584 235.23919554653,237.72660622268 224.41816781525,248.28171423292 216.67856691725,260.82589212584 209.18503935226,273.46974896267 213.28057311164,288.62467236993 212.99106691725,302.48214212584 213.06555959318,326.89166970432 233.68707344809,343.83411010972 242.55356691725,364.98214212584 244.1217543084,373.52948099059 252.14275255,378.93543578707 259.92856691725,381.16964212584 265.95401724612,385.74541653517 272.7423843207,391.38786981782 280.99106691725,389.57589212584 292.75813656585,389.29422126802 304.27029174091,391.81804055207 316.08365053924,390.63555194173 328.12756689267,389.93628540413 340.39415607809,390.48149300273 352.31679675673,390.10962152601 360.46579855568,386.97793402161 369.10023800553,383.79977090097 375.80356691725,378.16964212584 379.05818482187,373.73353904367 380.40860750736,367.96442370959 384.77231691725,364.41964212584 388.06261910529,358.36434011835 396.56115132166,355.93032140121 396.52231691725,348.16964212584 397.50035389383,344.03636049769 398.85015016865,340.10316808488 396.80356691725,335.98214212584 396.82051433503,332.16413197072 399.90540598287,328.9642927038 400.27231691725,325.10714212584 407.06681512449,299.68764158381 404.89122438387,271.03991563211 391.89731691725,247.98214212584 382.35861929179,233.06985729903 371.55129767405,218.61954477323 358.05356691725,207.16964212584 348.86373563514,200.78741457875 337.49298327222,197.54578611663 326.27231691725,198.79464212584 322.57742130821,195.00710847951 316.5575087921,195.13198076328 312.14731691725,195.38839212584 310.13608221064,193.54630463472 307.02542834975,194.40596717976 305.99106691725,191.70089212584 303.95593028689,190.20391877747 301.28784819932,189.27947988274 298.74106691725,189.41964212584 z"
 id="path4409"
 inkscape:connector-curvature="0" />
</g>
</svg>
