<?xml version="1.0" encoding="UTF-8" standalone="no"?>
<!-- Created with Inkscape (http://www.inkscape.org/) -->

<svg
   xmlns:dc="http://purl.org/dc/elements/1.1/"
   xmlns:cc="http://creativecommons.org/ns#"
   xmlns:rdf="http://www.w3.org/1999/02/22-rdf-syntax-ns#"
   xmlns:svg="http://www.w3.org/2000/svg"
   xmlns="http://www.w3.org/2000/svg"
   xmlns:sodipodi="http://sodipodi.sourceforge.net/DTD/sodipodi-0.dtd"
   xmlns:inkscape="http://www.inkscape.org/namespaces/inkscape"
   width="744.09448819"
   height="1052.3622047"
   id="svg2"
   version="1.1"
   inkscape:version="0.48.2 r9819"
   sodipodi:docname="tree003.svg">
  <sodipodi:namedview
     id="base"
     pagecolor="#ffffff"
     bordercolor="#666666"
     borderopacity="1.0"
     inkscape:pageopacity="0.0"
     inkscape:pageshadow="2"
     inkscape:zoom="0.24748737"
     inkscape:cx="332.3237"
     inkscape:cy="906.16503"
     inkscape:document-units="px"
     inkscape:current-layer="layer1"
     showgrid="false"
     showguides="true"
     inkscape:guide-bbox="true"
     inkscape:window-width="818"
     inkscape:window-height="652"
     inkscape:window-x="432"
     inkscape:window-y="76"
     inkscape:window-maximized="0" />
  <defs
     id="defs4" />
  <metadata
     id="metadata7">
    <rdf:RDF>
      <cc:Work
         rdf:about="">
        <dc:format>image/svg+xml</dc:format>
        <dc:type
           rdf:resource="http://purl.org/dc/dcmitype/StillImage" />
        <dc:title />
      </cc:Work>
    </rdf:RDF>
  </metadata>
  <g
     id="layer1"
     inkscape:groupmode="layer"
     inkscape:label="Layer 1">
    <path
       inkscape:connector-curvature="0"
       style="fill:none;stroke:#000000"
       d=""
       id="path3367" />
    <path
       inkscape:connector-curvature="0"
       style="fill:none;stroke:#000000"
       d=""
       id="path3375" />
    <path
       inkscape:connector-curvature="0"
       style="fill:none;stroke:#000000"
       d=""
       id="path3391" />
    <path
       inkscape:connector-curvature="0"
       style="fill:none;stroke:#000000"
       d=""
       id="path3407" />
    <path
       inkscape:connector-curvature="0"
       style="fill:none;stroke:#000000"
       d=""
       id="path3429" />
    <path
       id="path3738"
       d=""
       style="fill:none;stroke:#000000"
       inkscape:connector-curvature="0" />
    <path
       id="path3746"
       d=""
       style="fill:none;stroke:#000000"
       inkscape:connector-curvature="0" />
    <path
       id="path3750"
       d=""
       style="fill:none;stroke:#000000"
       inkscape:connector-curvature="0" />
    <path
       id="path3766"
       d=""
       style="fill:none;stroke:#000000"
       inkscape:connector-curvature="0" />
    <path
       id="path3782"
       d=""
       style="fill:none;stroke:#000000"
       inkscape:connector-curvature="0" />
    <path
       id="path3804"
       d=""
       style="fill:none;stroke:#000000"
       inkscape:connector-curvature="0" />
    <g
       id="g6061"
       transform="translate(0,300)">
      <g
         id="g4029"
         transform="matrix(0.74202323,0,0,0.74202323,711.74038,237.39596)">
        <g
           id="g4048"
           transform="matrix(1.08,0,0,1.08,72.437458,-49.544094)">
          <path
             inkscape:connector-curvature="0"
             style="fill:none;stroke:#000000"
             d="m -779.96822,494.80118 0,21 m 0,-21 9,0 3,1 1,1 1,2 0,2 -1,2 -1,1 -3,1 -9,0 m 7,0 7,11"
             id="path3752" />
          <path
             inkscape:connector-curvature="0"
             style="fill:none;stroke:#000000"
             d="m -753.96822,494.80118 -2,1 -2,2 -1,2 -1,3 0,5 1,3 1,2 2,2 2,1 4,0 2,-1 2,-2 1,-2 1,-3 0,-5 -1,-3 -1,-2 -2,-2 -2,-1 -4,0"
             id="path3754" />
          <path
             inkscape:connector-curvature="0"
             style="fill:none;stroke:#000000"
             d="m -736.96822,494.80118 0,21 m 0,-21 9,0 3,1 1,1 1,2 0,2 -1,2 -1,1 -3,1 m -9,0 9,0 3,1 1,1 1,2 0,3 -1,2 -1,1 -3,1 -9,0"
             id="path3756" />
          <path
             inkscape:connector-curvature="0"
             style="fill:none;stroke:#000000"
             d="m -710.96822,494.80118 -2,1 -2,2 -1,2 -1,3 0,5 1,3 1,2 2,2 2,1 4,0 2,-1 2,-2 1,-2 1,-3 0,-5 -1,-3 -1,-2 -2,-2 -2,-1 -4,0"
             id="path3758" />
          <path
             inkscape:connector-curvature="0"
             style="fill:none;stroke:#000000"
             d="m -689.96822,494.80118 0,21 m -7,-21 14,0"
             id="path3760" />
          <path
             inkscape:connector-curvature="0"
             style="fill:none;stroke:#000000"
             d="m -677.96822,494.80118 0,21"
             id="path3762" />
          <path
             inkscape:connector-curvature="0"
             style="fill:none;stroke:#000000"
             d="m -655.96822,499.80118 -1,-2 -2,-2 -2,-1 -4,0 -2,1 -2,2 -1,2 -1,3 0,5 1,3 1,2 2,2 2,1 4,0 2,-1 2,-2 1,-2"
             id="path3764" />
        </g>
      </g>
      <g
         id="g4020"
         transform="matrix(0.74202323,0,0,1.7790494,717.04054,-284.2061)">
        <path
           id="path3768"
           d="m -632.96822,494.80118 0,21 m 0,-21 7,0 3,1 2,2 1,2 1,3 0,5 -1,3 -1,2 -2,2 -3,1 -7,0"
           style="fill:none;stroke:#000000"
           inkscape:connector-curvature="0" />
        <path
           id="path3770"
           d="m -611.96822,494.80118 0,21 m 0,-21 9,0 3,1 1,1 1,2 0,2 -1,2 -1,1 -3,1 -9,0 m 7,0 7,11"
           style="fill:none;stroke:#000000"
           inkscape:connector-curvature="0" />
        <path
           id="path3772"
           d="m -585.96822,494.80118 -8,21 m 8,-21 8,21 m -13,-7 10,0"
           style="fill:none;stroke:#000000"
           inkscape:connector-curvature="0" />
        <path
           id="path3774"
           d="m -574.96822,494.80118 5,21 m 5,-21 -5,21 m 5,-21 5,21 m 5,-21 -5,21"
           style="fill:none;stroke:#000000"
           inkscape:connector-curvature="0" />
        <path
           id="path3776"
           d="m -548.96822,494.80118 0,21"
           style="fill:none;stroke:#000000"
           inkscape:connector-curvature="0" />
        <path
           id="path3778"
           d="m -540.96822,494.80118 0,21 m 0,-21 14,21 m 0,-21 0,21"
           style="fill:none;stroke:#000000"
           inkscape:connector-curvature="0" />
        <path
           id="path3780"
           d="m -504.96822,499.80118 -1,-2 -2,-2 -2,-1 -4,0 -2,1 -2,2 -1,2 -1,3 0,5 1,3 1,2 2,2 2,1 4,0 2,-1 2,-2 1,-2 0,-3 m -5,0 5,0"
           style="fill:none;stroke:#000000"
           inkscape:connector-curvature="0" />
      </g>
      <g
         id="g4008"
         transform="matrix(0.58217409,0,0,0.58217409,419.65664,330.88831)">
        <path
           id="path3784"
           d="m -467.96822,499.80118 -1,-2 -2,-2 -2,-1 -4,0 -2,1 -2,2 -1,2 -1,3 0,5 1,3 1,2 2,2 2,1 4,0 2,-1 2,-2 1,-2"
           style="fill:none;stroke:#000000"
           inkscape:connector-curvature="0" />
        <path
           id="path3786"
           d="m -455.96822,494.80118 -2,1 -2,2 -1,2 -1,3 0,5 1,3 1,2 2,2 2,1 4,0 2,-1 2,-2 1,-2 1,-3 0,-5 -1,-3 -1,-2 -2,-2 -2,-1 -4,0"
           style="fill:none;stroke:#000000"
           inkscape:connector-curvature="0" />
        <path
           id="path3788"
           d="m -438.96822,494.80118 0,21 m 0,0 12,0"
           style="fill:none;stroke:#000000"
           inkscape:connector-curvature="0" />
        <path
           id="path3790"
           d="m -421.96822,494.80118 0,21 m 0,0 12,0"
           style="fill:none;stroke:#000000"
           inkscape:connector-curvature="0" />
        <path
           id="path3792"
           d="m -404.96822,494.80118 0,21 m 0,-21 13,0 m -13,10 8,0 m -8,11 13,0"
           style="fill:none;stroke:#000000"
           inkscape:connector-curvature="0" />
        <path
           id="path3794"
           d="m -371.96822,499.80118 -1,-2 -2,-2 -2,-1 -4,0 -2,1 -2,2 -1,2 -1,3 0,5 1,3 1,2 2,2 2,1 4,0 2,-1 2,-2 1,-2"
           style="fill:none;stroke:#000000"
           inkscape:connector-curvature="0" />
        <path
           id="path3796"
           d="m -360.96822,494.80118 0,21 m -7,-21 14,0"
           style="fill:none;stroke:#000000"
           inkscape:connector-curvature="0" />
        <path
           id="path3798"
           d="m -348.96822,494.80118 0,21"
           style="fill:none;stroke:#000000"
           inkscape:connector-curvature="0" />
        <path
           id="path3800"
           d="m -343.96822,494.80118 8,21 m 8,-21 -8,21"
           style="fill:none;stroke:#000000"
           inkscape:connector-curvature="0" />
        <path
           id="path3802"
           d="m -322.96822,494.80118 0,21 m 0,-21 13,0 m -13,10 8,0 m -8,11 13,0"
           style="fill:none;stroke:#000000"
           inkscape:connector-curvature="0" />
      </g>
      <g
         id="g4057"
         transform="matrix(0.74202323,0,0,0.74202323,690.90346,211.38748)">
        <path
           id="path3806"
           d="m -646.53965,584.08689 0,-1 1,-2 1,-1 2,-1 4,0 2,1 1,1 1,2 0,2 -1,2 -2,3 -10,10 14,0"
           style="fill:none;stroke:#000000"
           inkscape:connector-curvature="0" />
        <path
           id="path3808"
           d="m -621.53965,579.08689 -3,1 -2,3 -1,5 0,3 1,5 2,3 3,1 2,0 3,-1 2,-3 1,-5 0,-3 -1,-5 -2,-3 -3,-1 -2,0"
           style="fill:none;stroke:#000000"
           inkscape:connector-curvature="0" />
        <path
           id="path3810"
           d="m -604.53965,583.08689 2,-1 3,-3 0,21"
           style="fill:none;stroke:#000000"
           inkscape:connector-curvature="0" />
        <path
           id="path3812"
           d="m -586.53965,584.08689 0,-1 1,-2 1,-1 2,-1 4,0 2,1 1,1 1,2 0,2 -1,2 -2,3 -10,10 14,0"
           style="fill:none;stroke:#000000"
           inkscape:connector-curvature="0" />
      </g>
      <g
         id="g4339"
         transform="matrix(0.83526231,0,0,0.83526231,60.034201,95.872901)">
        <path
           id="path3730"
           d="m 110.00117,541.78797 0,39.31442 m -13.104805,-39.31442 26.209615,0"
           style="fill:none;stroke:#000000;stroke-width:1.87211502"
           inkscape:connector-curvature="0" />
        <path
           id="path3732"
           d="m 132.46655,541.78797 0,39.31442 m 0,-39.31442 16.84904,0 5.61634,1.87212 1.87212,1.87211 1.87211,3.74423 0,3.74423 -1.87211,3.74423 -1.87212,1.87212 -5.61634,1.87211 -16.84904,0 m 13.10481,0 13.1048,20.59327"
           style="fill:none;stroke:#000000;stroke-width:1.87211502"
           inkscape:connector-curvature="0" />
        <path
           id="path3734"
           d="m 171.78097,541.78797 0,39.31442 m 0,-39.31442 24.33749,0 m -24.33749,18.72115 14.97692,0 m -14.97692,20.59327 24.33749,0"
           style="fill:none;stroke:#000000;stroke-width:1.87211502"
           inkscape:connector-curvature="0" />
        <path
           id="path3736"
           d="m 207.35115,541.78797 0,39.31442 m 0,-39.31442 24.3375,0 m -24.3375,18.72115 14.97692,0 m -14.97692,20.59327 24.3375,0"
           style="fill:none;stroke:#000000;stroke-width:1.87211502"
           inkscape:connector-curvature="0" />
      </g>
      <path
         inkscape:connector-curvature="0"
         style="fill:none;stroke:#000000;stroke-width:1.38979757"
         d="m 270.04166,548.85472 0,31.24901 m 0,-31.24901 18.17248,31.24901 m 0,-31.24901 0,31.24901"
         id="path3740" />
      <path
         inkscape:connector-curvature="0"
         style="fill:none;stroke:#000000;stroke-width:1.38979757"
         d="m 303.79056,550.34277 -2.59607,1.48805 -2.59607,2.97609 -1.29804,4.46415 0,2.97609 1.29804,4.46414 2.59607,2.9761 2.59607,1.48805 3.8941,0 2.59607,-1.48805 2.59607,-2.9761 1.29803,-4.46414 0,-2.97609 -1.29803,-4.46415 -2.59607,-2.97609 -2.59607,-1.48805 -3.8941,0"
         id="path3742" />
      <path
         style="fill:none;stroke:#000000;stroke-width:1.11238837px;stroke-linecap:butt;stroke-linejoin:miter;stroke-opacity:1"
         d="m 296.06893,577.72237 19.67793,0"
         id="path4002"
         inkscape:connector-curvature="0" />
      <path
         style="fill:none;stroke:#333333;stroke-width:0.7881453;stroke-miterlimit:4;stroke-opacity:1;stroke-dasharray:none"
         d="m 359.89668,532.7501 c -85.82195,0.32111 -171.64494,-0.20052 -257.46661,0.25856 0.31586,43.47157 -0.34743,86.94692 0.305,130.41625 88.72332,-0.40575 177.44827,0.31393 266.17083,-0.36198 -0.3329,-43.44572 0.42796,-86.89533 -0.25808,-130.33868 -2.91705,-4.9e-4 -5.8341,0.018 -8.75114,0.0258 z"
         id="rect4063"
         inkscape:connector-curvature="0" />
      <path
         style="fill:none;stroke:#000000;stroke-width:0.74202323px;stroke-linecap:butt;stroke-linejoin:miter;stroke-opacity:1"
         d="m 176.84763,587.47565 124.02389,0"
         id="path4355"
         inkscape:connector-curvature="0" />
      <g
         inkscape:label="Hershey Text"
         transform="matrix(1.6666667,0,0,1.6666667,320.29176,568.85125)"
         id="g5993">
        <path
           inkscape:connector-curvature="0"
           style="fill:none;stroke:#000000"
           d="m -5,-12 11,0 -6,8 3,0 2,1 1,1 L 7,1 7,3 6,6 4,8 1,9 -2,9 -5,8 -6,7 -7,5"
           transform="translate(10,0)"
           id="path5995" />
        <path
           inkscape:connector-curvature="0"
           style="fill:none;stroke:#000000"
           d=""
           transform="translate(28,0)"
           id="path5997" />
      </g>
    </g>
    <g
       id="g6236"
       transform="translate(3.0181409,211.39373)">
      <path
         sodipodi:nodetypes="sssss"
         inkscape:connector-curvature="0"
         id="path6111"
         d="m 258.09398,314.19321 c 2.2749,13.58846 1.15885,29.7062 -14.89975,18.94036 -6.83504,-4.58227 -14.89975,-8.47989 -14.89975,-18.94036 0,-10.46048 6.67084,-18.94036 14.89975,-18.94036 8.2289,0 13.17256,8.62346 14.89975,18.94036 z"
         style="fill:none;stroke:#333333;stroke-width:1;stroke-miterlimit:4;stroke-opacity:1" />
      <path
         sodipodi:nodetypes="ccccc"
         inkscape:connector-curvature="0"
         id="path6114"
         d="m 242.34375,293.28125 c -16.25006,1.54898 -21.91381,29.55195 -8.71875,38.71796 6.35335,3.94602 13.13366,11.43435 21.375,9.125 7.52932,-4.04064 8.0783,-17.46768 7.48906,-24.62421 -1.14942,-9.88306 -7.89746,-23.79388 -20.14531,-23.21875 z"
         style="fill:none;stroke:#333333;stroke-width:1;stroke-miterlimit:4;stroke-opacity:1" />
      <path
         sodipodi:nodetypes="cccccc"
         inkscape:connector-curvature="0"
         id="path6118"
         d="m 242.21875,289.76602 c -14.27767,1.74126 -20.46194,20.66992 -17,33.14023 2.15964,9.40281 11.62091,17.22425 18.90625,22.09803 5.62643,3.49558 14.22552,2.28217 17.09375,-4.47382 6.68868,-14.29159 7.1692,-37.78369 -6.68829,-46.99921 -2.79695,-1.58319 -9.07044,-3.95385 -12.31171,-3.76523 z"
         style="fill:none;stroke:#333333;stroke-width:1;stroke-miterlimit:4;stroke-opacity:1" />
      <path
         sodipodi:nodetypes="cccccc"
         inkscape:connector-curvature="0"
         id="path6122"
         d="m 242.125,284.75079 c -14.85214,1.92425 -23.1729,22.42243 -20.96064,35.7694 1.93965,12.5409 14.03057,25.22361 24.58564,31.01534 7.55478,3.08755 17.81291,-5.03726 19.5414,-13.09803 5.37427,-14.79029 3.76157,-34.76422 -9.3328,-45.59375 -4.24665,-2.97118 -8.62335,-7.91059 -13.8336,-8.09296 z"
         style="fill:none;stroke:#333333;stroke-width:1;stroke-miterlimit:4;stroke-opacity:1" />
      <path
         sodipodi:nodetypes="cccccc"
         inkscape:connector-curvature="0"
         id="path6126"
         d="m 239.82344,282.78125 c -14.67481,2.358 -22.35474,18.41808 -23.01416,31.96772 -0.35661,16.77372 14.46901,34.17577 28.12822,42.13031 10.68575,3.66873 23.71831,-10.1105 25.56654,-20.21095 5.43928,-17.20198 1.15782,-38.48541 -14.76241,-48.50816 -3.27648,-2.61944 -11.52118,-5.45912 -15.91819,-5.37892 z"
         style="fill:none;stroke:#333333;stroke-width:1;stroke-miterlimit:4;stroke-opacity:1" />
      <path
         sodipodi:nodetypes="cccccc"
         inkscape:connector-curvature="0"
         id="path6130"
         d="m 239.4375,278.28712 c -16.96036,3.0379 -25.69915,24.77164 -24.4375,40.65038 2.95973,16.86067 4.41194,24.88787 29.84375,43.03046 6.41001,25.15632 21.80189,-10.68428 26.27582,-20.47787 7.52259,-18.76507 2.58035,-47.39974 -15.28597,-58.55687 -5.08373,-3.3552 -10.26417,-4.5619 -16.3961,-4.6461 z"
         style="fill:none;stroke:#333333;stroke-width:1;stroke-miterlimit:4;stroke-opacity:1" />
      <path
         sodipodi:nodetypes="ccccccc"
         inkscape:connector-curvature="0"
         id="path6134"
         d="m 239.03125,276.3125 c -16.93142,3.50277 -25.49417,22.03244 -26.125,38 0.67252,12.54652 0.79475,27.40318 11.09375,36.25 6.68096,5.7102 14.3558,27.8082 22.90625,29.88627 12.93818,0.29698 21.7234,-28.6103 26.46875,-39.19877 6.8979,-20.02003 2.62699,-45.67029 -14.78125,-58.875 -5.63362,-4.20227 -12.5274,-6.25491 -19.5625,-6.0625 z"
         style="fill:none;stroke:#333333;stroke-width:1;stroke-miterlimit:4;stroke-opacity:1" />
      <path
         style="fill:none;stroke:#333333;stroke-width:1;stroke-miterlimit:4;stroke-opacity:1"
         d="m 239.4375,278.28712 c -16.96036,3.0379 -25.69915,24.77164 -24.4375,40.65038 2.95973,16.86067 4.41194,24.88787 29.84375,43.03046 6.41001,25.15632 21.80189,-10.68428 26.27582,-20.47787 7.52259,-18.76507 2.58035,-47.39974 -15.28597,-58.55687 -5.08373,-3.3552 -10.26417,-4.5619 -16.3961,-4.6461 z"
         id="path6138"
         inkscape:connector-curvature="0"
         sodipodi:nodetypes="cccccc" />
      <path
         sodipodi:nodetypes="cccccccc"
         inkscape:connector-curvature="0"
         id="path6142"
         d="m 238.5625,271.84962 c -18.80923,4.10865 -30.36733,27.66941 -29.52093,45.55259 0.38348,12.76542 4.12844,27.27608 14.77093,35.78529 7.86603,9.06524 10.61952,28.23352 21.5,34.39959 8.37598,1.84785 14.25325,-8.76666 17.9375,-15.02031 5.80528,-11.48365 12.15533,-27.02453 14.84883,-39.72303 3.91628,-21.32191 -4.67999,-48.04627 -25.59883,-57.1664 -4.42424,-1.74622 -9.19498,-4.1184 -13.9375,-3.82773 z"
         style="fill:none;stroke:#333333;stroke-width:1;stroke-miterlimit:4;stroke-opacity:1" />
      <path
         sodipodi:nodetypes="cccccccc"
         inkscape:connector-curvature="0"
         id="path6146"
         d="m 237.48477,269.84375 c -18.14459,3.4523 -29.147,22.25493 -31.5625,39.46875 -1.7532,16.4851 3.918,35.06302 17.07773,46.03125 8.14356,10.78219 9.35749,33.37924 22,40.27967 5.17657,12.43005 15.70578,-14.69052 20.03125,-22.15467 8.91178,-19.14181 19.18541,-40.13736 15.0625,-61.90625 -2.81006,-17.59315 -11.81619,-34.62305 -29.47462,-39.8125 -2.89567,-1.08677 -9.99907,-2.04084 -13.13436,-1.90625 z"
         style="fill:none;stroke:#333333;stroke-width:1;stroke-miterlimit:4;stroke-opacity:1" />
      <path
         sodipodi:nodetypes="ccccccccc"
         inkscape:connector-curvature="0"
         id="path6150"
         d="m 235.57852,265.34962 c -21.0348,4.36616 -33.16301,29.3974 -33.46875,49.65038 -0.18926,15.99352 7.92783,35.54427 20.01523,46.06678 7.98295,12.59828 6.09398,27.23261 19.32344,36.02697 1.47887,4.79801 9.81074,11.14909 12.20781,7.19099 8.92842,-12.12032 11.84104,-23.98598 18.19337,-37.53712 7.87117,-17.52596 15.35499,-46.89497 8.91053,-65.52887 -4.49462,-16.8035 -22.95113,-31.6354 -37.34541,-36.00424 -2.07405,-0.31139 -5.728,0.0265 -7.83622,0.13511 z"
         style="fill:none;stroke:#333333;stroke-width:1;stroke-miterlimit:4;stroke-opacity:1" />
      <path
         sodipodi:nodetypes="ccscccccc"
         inkscape:connector-curvature="0"
         id="path6154"
         d="m 233.88166,263.125 c -17.95214,0.53201 -27.18755,16.88203 -32.33947,32.59375 -9.11178,23.70762 -4.7018,52.28552 16.55235,67.5625 10.74472,7.72305 9.68855,31.35665 21.71796,39.22811 1.53529,7.59842 15.37046,24.89563 14.71875,9.89531 10.57911,-13.761 15.20836,-37.23127 22.44655,-52.96537 7.15462,-20.82819 14.86938,-47.74184 4.91751,-68.62093 -7.77158,-14.27205 -18.92072,-23.41835 -34.72462,-27.69337 -1.0617,-0.0529 -12.22719,-0.041 -13.28903,0 z"
         style="fill:none;stroke:#333333;stroke-width:1;stroke-miterlimit:4;stroke-opacity:1" />
      <path
         sodipodi:nodetypes="cccccccccccc"
         inkscape:connector-curvature="0"
         id="path6158"
         d="m 226.26761,260.61992 c -16.33005,0.081 -21.34598,12.78963 -26.32085,26.87271 -9.2571,20.76296 -11.47851,49.86373 7.11574,68.06987 3.10174,7.50782 10.94502,11.30394 16.5625,19.4375 3.55633,10.41358 0.10768,28.5837 14.46875,28.875 2.58166,11.31001 4.55027,19.26109 11.63594,16.94258 2.88227,11.56337 6.92687,-4.10961 6.92656,-7.91133 11.56317,-16.73821 16.04176,-37.26502 24.191,-55.65404 6.86347,-20.95953 15.02083,-46.51177 5.83438,-67.76744 -7.31412,-15.10039 -25.52781,-29.02849 -42.34803,-31.42148 -3.83328,0.0152 -3.62646,-1.54893 -7.45939,-1.48403 z"
         style="fill:none;stroke:#333333;stroke-width:1;stroke-miterlimit:4;stroke-opacity:1" />
      <path
         sodipodi:nodetypes="cccccccccccccc"
         inkscape:connector-curvature="0"
         id="path6162"
         d="m 233.63087,253.7086 c -5.89316,3.14049 -10.77377,2.82339 -17.07852,4.30234 -13.73987,4.949 -16.90713,20.41121 -21.9375,32.36993 -7.56761,20.92995 -6.93038,52.00393 9.78125,68.35819 4.0955,10.17452 16.35551,13.15162 16.30619,25.07458 0.95736,8.09693 5.60935,21.21764 15.40669,23.64417 3.86788,0.49878 -0.58477,7.94989 1.28204,10.82772 1.04248,4.52398 4.34645,11.45128 9.02617,11.21289 -0.58462,9.27773 6.94071,11.63345 10.84804,-5.40467 2.748,-5.09243 0.98562,-10.3971 5.18941,-14.81755 9.66221,-17.44322 13.47516,-32.37909 20.8964,-50.79971 6.63317,-20.86787 15.86601,-50.48645 5.88294,-71.38274 -9.5112,-16.92683 -25.67477,-29.68206 -44.89102,-32.16133 -1.6067,-0.70508 -8.9849,-1.58202 -10.71209,-1.22382 z"
         style="fill:none;stroke:#333333;stroke-width:1;stroke-miterlimit:4;stroke-opacity:1" />
      <path
         sodipodi:nodetypes="cccccccccccccc"
         inkscape:connector-curvature="0"
         id="path6166"
         d="m 227.84533,253.17148 c -8.3831,4.30301 -13.38312,-0.88138 -20.28283,6.46954 -9.09741,8.98973 -13.7171,23.60904 -18.01523,35.32773 -5.94758,22.06715 -3.14318,49.90093 12.9789,67.14023 3.95112,8.9623 16.89188,13.29206 16.31758,24.3125 1.36988,10.04169 6.14329,21.01395 16.40117,24.21367 -2.21371,7.2294 -0.50165,17.69431 5.30235,22.52031 1.48929,1.40442 -3.77278,7.48018 5.9164,7.53125 -0.95037,11.33542 8.17578,0.68104 11.06758,-5.85977 2.21333,-5.69423 4.31583,-15.70066 5.9164,-21.57186 11.0854,-17.57894 16.5611,-36.23442 24.09375,-55.6672 6.36532,-21.30452 13.20675,-48.04395 4.90118,-69.84296 -9.33455,-19.48068 -25.77067,-35.13585 -47.36273,-37.48886 -2.51375,-0.4375 -14.67597,2.8027 -17.23452,2.91542 z"
         style="fill:none;stroke:#333333;stroke-width:1;stroke-miterlimit:4;stroke-opacity:1" />
      <path
         sodipodi:nodetypes="cccccccccccccc"
         inkscape:connector-curvature="0"
         id="path6170"
         d="m 246.59296,245.72462 c -7.83524,0.83315 -13.82378,2.76642 -21.42227,4.33867 -7.3001,-0.7757 -18.52977,1.96278 -22.45194,7.98985 -8.30236,11.4956 -13.72604,22.70547 -17.09883,36.38087 -4.01402,21.83841 -11.53453,49.64554 15.56758,69.44099 2.23445,10.62774 16.24863,13.4218 15.8125,23.90625 1.19417,9.73065 -6.52088,21.28151 12.30822,24.09375 -0.27086,6.40982 -8.47669,18.05021 6.41132,23.31758 -3.53793,10.43361 2.48168,11.16955 7.17148,8.47382 -0.64428,3.85986 4.93748,9.81556 7.88515,6.81171 10.46752,-8.01307 10.89435,-23.03738 15.41133,-34.31758 11.23095,-19.10264 17.80317,-36.8778 24.79897,-57.9172 5.76743,-21.22286 14.60158,-52.72379 5.35649,-73.71716 -9.46118,-19.13407 -27.69389,-37.73523 -49.75,-38.80155 z"
         style="fill:none;stroke:#333333;stroke-width:1;stroke-miterlimit:4;stroke-opacity:1" />
      <path
         sodipodi:nodetypes="cccccccccccccccc"
         inkscape:connector-curvature="0"
         id="path6174"
         d="m 245.83867,241.22462 c -9.85553,1.02668 -18.58855,5.23243 -28.52617,5.09882 -8.47836,0.99698 -20.6265,7.49401 -24.34196,15.25909 -12.66329,18.874 -13.45404,43.97474 -13.91312,66.4952 -0.0741,15.16366 5.96346,28.79185 18.32852,37.4586 -1.34281,16.15241 15.93392,12.48325 17.61406,21.40117 0.30045,7.20351 -8.00529,17.57866 4.28125,27.12928 2.09587,1.96397 6.21851,-1.509 7.6875,-0.004 -4.46986,5.96409 -6.10518,15.46385 3.0625,20.53125 2.08039,1.15657 4.17164,1.83454 2.6875,4.625 -1.39755,5.25001 4.1108,9.16408 8.5625,7.5625 -1.99721,15.15086 8.21137,14.42931 12.28125,8.54569 12.79171,-0.71882 8.57671,-28.19202 17.3961,-41.28633 21.38201,-31.2678 29.10618,-66.98476 32.61913,-100.51444 1.45479,-14.4528 0.80039,-31.66464 -8.26095,-43.23905 -10.37348,-15.08996 -30.41918,-28.39874 -49.47811,-29.0625 z"
         style="fill:none;stroke:#333333;stroke-width:1;stroke-miterlimit:4;stroke-opacity:1" />
      <path
         sodipodi:nodetypes="ccccccccccccccccccc"
         inkscape:connector-curvature="0"
         id="path6178"
         d="m 244.5836,238.74492 c -10.45575,1.40785 -19.53962,2.7156 -30.17735,3.03712 -11.57432,2.43948 -21.71082,13.39354 -26.4375,24.34296 -10.60116,20.71735 -10.92088,44.95868 -10.65625,67.78125 1.18497,12.76961 7.51243,25.09359 18.03125,32.59375 -0.99849,8.13839 3.41047,15.42024 10.38087,17.70273 4.37071,1.1406 5.95348,2.21637 3.875,6.15196 -3.06728,7.88378 -1.3748,20.29531 5.88007,25.36914 1.17483,2.18277 7.34977,0.3302 7.48906,1.24492 -4.0312,7.54879 -3.73897,13.82485 4.30822,19.83867 0.7359,1.48542 -0.24195,7.28778 1.13515,9.15546 0.96953,3.65336 5.68211,2.87327 8.59882,3.47462 -0.93057,5.78136 3.18299,17.11025 9.96875,15.03553 3.61987,-1.08398 7.76661,-5.13738 11.36406,-6.13515 8.29169,-6.91448 7.92627,-20.32041 10.77044,-29.79607 2.04549,-14.52432 10.86192,-1.79455 16.29714,-33.21408 13.50911,-28.41381 23.3355,-61.65226 24.81678,-93.04648 0.45664,-14.76265 -5.79907,-30.83935 -16.48398,-41.2914 -11.75791,-12.48313 -31.64499,-21.64459 -49.16053,-22.24493 z"
         style="fill:none;stroke:#333333;stroke-width:1;stroke-miterlimit:4;stroke-opacity:1" />
      <path
         sodipodi:nodetypes="cccccccccccccccccccc"
         inkscape:connector-curvature="0"
         id="path6182"
         d="m 244.3125,234.25587 c -10.81278,1.92799 -21.87924,2.11418 -32.6875,3.65625 -18.59075,6.23487 -27.69816,25.25397 -32.3125,42.93242 -4.11685,17.58208 -6.28161,39.06606 -5.01523,56.99921 1.95976,11.58314 9.57355,22.53033 18.95273,29.59375 -1.60129,13.09292 4.983,21.96127 14.625,19.59375 1.85683,1.35296 -2.70937,4.07709 -2.13515,6.03125 -1.95382,9.24489 1.79043,21.68057 11.1664,25.65625 2.41734,-0.056 3.65252,1.97931 2.125,4.58281 -2.26571,6.44167 -2.47638,11.10993 2.45939,14.85469 -0.46844,5.03917 -0.0819,25.37366 10.94686,17.35819 4.30615,-0.65054 1.81941,4.37546 3.9375,6.77109 1.5542,5.6332 8.15944,11.45999 13.65625,7.60391 5.80038,-3.77815 13.05671,-10.6918 15.375,-17.95194 4.24121,-9.05075 3.24048,-16.47249 7.71875,-25.27697 14.935,-2.06008 14.24636,-14.10213 14.36406,-22.00428 2.2621,-13.08603 10.41229,-24.63051 14.08359,-37.47575 7.68977,-22.98753 13.624,-47.22313 12.95794,-71.67657 -1.9682,-23.62492 -21.95587,-45.46865 -43.32013,-54.36625 -8.47893,-3.65391 -17.61807,-6.70984 -26.89796,-6.88181 z"
         style="fill:none;stroke:#333333;stroke-width:1;stroke-miterlimit:4;stroke-opacity:1" />
      <path
         sodipodi:nodetypes="cccccccccccccccccccc"
         inkscape:connector-curvature="0"
         id="path6186"
         d="m 237.40276,231.2711 c -11.98486,2.66444 -18.37444,-0.47675 -29.99651,3.60977 -20.17554,9.31554 -28.69498,33.66964 -32.15625,54.3539 -2.57592,16.68778 -8.4109,35.55716 -5.72303,52.35898 2.7502,10.68838 -1.10738,22.84939 21.59803,26.90625 -1.9285,11.10346 1.62096,29.1296 13.9375,20.9375 -3.44428,6.32184 -4.79591,17.38768 -2.53553,22.60898 1.82669,4.01218 5.53591,7.51981 9.56997,8.66957 -2.12708,4.74999 -2.99111,11.24019 1.41491,14.97237 0.17094,5.50747 -0.34894,13.50985 5.47958,16.31011 1.13,2.22243 5.8734,17.32779 14.16482,5.53272 -1.80059,20.70865 6.52149,18.64573 15.4375,15.25 12.81594,-6.04946 20.544,-19.50045 22.5625,-33.15625 1.4063,-4.43558 1.4837,-8.41597 7.59883,-8.58947 9.46979,-2.77982 11.9456,-12.86269 11.25,-21.64609 3.20767,-15.46023 11.1732,-24.31788 14.79638,-39.7207 6.79509,-22.49098 17.56845,-53.80385 15.17665,-77.46601 -6.58561,-32.30183 -34.85243,-57.89929 -66.78204,-60.90038 -0.71608,0.0295 -5.98945,-2.1614 -6.70194,-2.05151 z"
         style="fill:none;stroke:#333333;stroke-width:1;stroke-miterlimit:4;stroke-opacity:1" />
      <path
         sodipodi:nodetypes="cccccccccccccccccccccc"
         inkscape:connector-curvature="0"
         id="path6190"
         d="m 243.03204,225.29219 c -10.41792,3.48377 -14.16409,2.82995 -24.92893,3.8125 -18.67696,3.00885 -34.23101,20.97766 -39.82186,37.59375 -5.25137,16.45925 -9.34445,35.78206 -12.495,52.7617 -2.06513,12.62944 -1.50327,25.67104 1.80829,37.88361 2.47927,7.90981 14.54433,11.11423 21.24921,13.09375 -0.52488,7.86972 -0.16874,21.93649 7.96875,25.68671 1.55803,1.27498 6.01052,-4.27484 3.9375,-0.93671 -2.78208,9.14432 -4.49227,21.04299 4.91212,26 2.71666,1.17472 1.70321,8.55499 2.68163,11.06678 -0.31624,4.86498 2.55784,4.30301 1.32344,9.24572 -0.0237,4.94842 2.28044,9.75152 6.09375,12.65625 1.5907,5.15698 8.73265,14.52416 14.83281,10.74554 0.71923,3.13846 0.4307,8.93293 3.90625,11.82142 4.64457,10.45104 13.84655,0.20845 19.8125,-4.91071 11.7357,0.94 17.35217,-19.375 19.6875,-32.82344 0.76877,-5.50344 7.63303,-2.38815 10.625,-5.89864 7.25294,-5.25896 10.67291,-17.63368 11.16136,-25.65154 3.84961,-14.36326 9.29394,-26.795 12.24489,-41.50138 7.04444,-24.34692 16.39685,-49.39453 13.7023,-75.13523 -6.96363,-32.49158 -33.52162,-58.68431 -66.64567,-61.73977 -2.14754,-0.55244 -9.80694,-3.94628 -12.05584,-3.77031 z"
         style="fill:none;stroke:#333333;stroke-width:1;stroke-miterlimit:4;stroke-opacity:1" />
      <path
         sodipodi:nodetypes="cccccccccccccccccccccc"
         inkscape:connector-curvature="0"
         id="path6194"
         d="m 236.34533,221.35469 c -12.46345,5.00862 -23.06752,0.067 -34.61564,7.80235 -16.97556,9.71972 -31.36097,32.00766 -35.16561,50.85311 -5.45115,23.79071 -9.53748,53.44945 -4.30314,77.98827 0.0202,7.07526 -7.20325,12.69671 13.48906,12.96954 3.52064,1.65497 5.26192,1.90868 8.97969,2.9586 -0.24809,9.25016 2.2141,20.38374 12.23906,24.35469 1.91206,0.48521 -0.76368,7.63106 -0.3125,9.63839 -1.08346,7.19832 2.08258,12.12892 8.4375,15.48661 1.05973,5.29472 -1.37739,11.05294 0.73214,16.125 -1.51452,6.53112 4.14862,14.57867 7.99107,19.17411 2.48367,5.72014 8.91366,9.61104 15.21429,9.16964 0.2935,5.75621 3.4127,16.38305 7.96875,19.73826 7.3434,2.99509 13.20403,-7.4549 18.53125,-10.73905 10.7144,-1.09599 18.81989,-16.16231 21.60311,-24.96796 1.84694,-4.4513 -0.46449,-6.90404 1.6672,-11.03204 4.30175,-0.8121 7.05814,2.36811 9.82344,-1.64689 9.67145,-10.46656 11.95113,-33.00574 17.47188,-45.46653 6.32994,-18.77037 10.72365,-38.04881 16.58406,-56.94326 4.89023,-19.71281 5.45294,-47.80748 -3.55233,-67.05693 -10.59751,-26.36844 -31.8934,-43.40116 -60.463,-45.94731 -3.98185,-1.1971 -18.06909,-2.71185 -22.32028,-2.4586 z"
         style="fill:none;stroke:#333333;stroke-width:1;stroke-miterlimit:4;stroke-opacity:1" />
      <path
         sodipodi:nodetypes="ccccccccccccccccccccccc"
         inkscape:connector-curvature="0"
         id="path6198"
         d="m 236.28125,219.34375 c -11.64102,4.69106 -25.83216,-2.54703 -36.375,5.53204 -21.49971,13.60599 -38.24785,41.15513 -41.70913,65.89886 -4.32918,22.44425 -7.20358,45.75429 -3.06038,68.35035 -1.16584,4.00657 2.56817,17.47017 7.83201,19.16482 5.70559,2.29231 12.17863,-6.18079 17.71875,-3.38357 4.03728,0.21478 -2.51731,10.81782 -1.00682,13.42576 1.00802,7.27771 6.3588,8.72767 12.44004,11.98049 -1.81139,7.63081 -1.93708,17.63741 5.47382,22.59375 5.37272,2.05621 4.45301,11.5762 5.37421,15.87421 -3.68432,12.46891 0.25962,10.95261 3.78125,15.83867 4.33632,6.94568 1.78725,20.23897 17.75,14.91212 4.62011,-0.52853 2.69214,5.45137 4.53125,8.3125 1.68432,5.7566 5.82722,19.51808 13.25,16.95701 7.36706,-2.01841 10.24668,-13.59254 17.96875,-14.61913 10.71093,-5.44289 16.83354,-17.33369 19.625,-28.59375 0.29241,-2.44094 2.66415,-7.3948 6.94686,-5.52617 6.99201,1.94946 9.83387,-9.60801 12.55742,-14.40546 6.17284,-14.25491 8.69104,-29.87509 14.4375,-44.375 5.50274,-18.95734 9.6126,-37.77084 14.29407,-56.82662 4.81033,-25.99663 6.03294,-54.46752 -9.01868,-76.67338 -11.8301,-18.66672 -38.9319,-32.45555 -60.81092,-34.14531 -7.22584,-1.45255 -14.60537,-0.27068 -22,-0.29219 z"
         style="fill:none;stroke:#333333;stroke-width:1;stroke-miterlimit:4;stroke-opacity:1" />
      <path
         sodipodi:nodetypes="cccccccccccccccccccccccc"
         inkscape:connector-curvature="0"
         id="path6202"
         d="m 247.28125,215.45352 c -6.98133,-0.44974 -13.34445,2.7661 -20.125,3.60898 -10.287,-0.16111 -21.97998,-4.45034 -30.375,2.94337 -23.80799,16.80699 -38.51293,41.3103 -41.86885,70.04823 -3.79608,20.43102 -7.67989,42.66723 -4.46903,63.24396 -1.05653,7.37117 -5.04742,23.40012 9.0625,27.28982 6.39779,3.10344 14.39815,-7.67711 20.49413,-5.77538 -1.46595,5.52577 -4.29049,14.2627 -0.5,19.61913 2.33034,3.77104 2.05028,3.03869 5.79806,4.97462 -2.10427,8.6946 1.63922,19.79822 10.27031,24.1875 3.20643,5.34964 3.07441,12.56705 1.59375,18.59375 -1.6273,5.2371 2.71148,8.70056 5.6875,12.09375 2.62062,5.87219 5.74204,20.21085 13.86913,20.95194 2.9391,0.81674 6.34978,-1.39201 8.84375,-0.875 1.65136,8.27151 3.8825,16.73655 10,22.90117 6.15448,5.16466 13.75381,-2.56936 17.09375,-7.82265 2.46855,-4.78575 7.47712,-3.39426 11.6875,-5.75587 10.46525,-6.98095 15.71248,-22.32471 18.97383,-33.90546 1.93451,-3.55005 8.84922,-0.21986 11.61913,-2.94765 6.76724,-5.2301 9.61648,-15.90182 13.0414,-23.29648 4.73891,-15.30326 6.2242,-18.90649 11.04444,-34.16071 7.23329,-30.47104 20.13604,-72.81635 16.72666,-104.58929 -2.03019,-22.8894 -18.03103,-47.87328 -38.03471,-59.22178 -15.03803,-9.33128 -32.68102,-12.34862 -50.43325,-12.10595 z"
         style="fill:none;stroke:#333333;stroke-width:1;stroke-miterlimit:4;stroke-opacity:1" />
      <path
         sodipodi:nodetypes="ccccccccccccccccccccccsc"
         inkscape:connector-curvature="0"
         id="path6206"
         d="m 244.59375,213.4375 c -8.77243,0.75381 -17.16059,2.35558 -26.11907,-0.17044 -8.76082,-1.54835 -18.55329,-0.76744 -25.13093,5.70248 -22.65377,16.4763 -40.27636,45.81133 -43.14616,73.85727 -4.06854,20.9129 -7.08872,40.42394 -4.47297,61.65288 -1.98149,9.1259 -0.006,26.61424 9.96288,31.32694 5.71907,3.77213 9.85957,1.3468 14.88209,-2.16434 2.70927,-1.90294 8.2295,-5.74657 5.96166,-1.36104 -2.38729,7.26134 -3.98174,16.90125 2.93322,20.5 -1.62466,9.68787 3.7625,19.73979 11.84882,24.78125 3.51338,6.38045 1.35163,13.49276 1.06758,20.125 1.00893,6.30978 10.48988,9.31768 11.06594,15.90435 2.37939,7.25573 1.69206,17.23038 10.9036,15.65815 2.60862,-0.87838 10.55346,2.05294 10.27459,5.75428 2.2085,7.86057 4.98193,16.76346 13.1875,20.2086 8.16266,1.63121 13.8277,-4.27961 18.03125,-10.01094 4.60135,-2.02232 10.29028,-1.64278 13.59375,-6.05743 8.81148,-8.44962 12.25299,-22.43611 16.15625,-33.32773 4.34723,-0.58748 9.68102,1.1245 12.59375,-3.18242 10.34178,-12.52834 15.72298,-33.37353 21.28804,-48.31727 7.37783,-23.17239 12.76389,-47.00416 17.61775,-70.79995 4.57642,-24.9292 8.26289,-52.71552 -4.77651,-75.57964 -12.12904,-23.82992 -36.47538,-40.36823 -63.125,-43.46875 -7.00124,-0.81455 -17.56443,-1.09162 -24.59803,-1.03125 z"
         style="fill:none;stroke:#333333;stroke-width:1;stroke-miterlimit:4;stroke-opacity:1" />
      <path
         sodipodi:nodetypes="ccccccccccccccccccccccc"
         inkscape:connector-curvature="0"
         id="path6210"
         d="m 209.1875,207.05357 c -12.32275,0.001 -21.06281,9.83485 -29.4375,17.46875 -17.95595,18.30075 -33.89038,46.29905 -36.56696,71.82143 -3.78142,19.27965 -6.02428,39.04047 -3.875,58.65625 -1.77671,12.07836 4.81128,33.60236 17.12946,39.27679 6.24767,3.31795 12.68315,-6.91429 17.5625,-10.58929 -1.94937,6.53036 -6.62806,15.61842 -0.25893,20.09375 -1.30694,10.31108 8.56715,19.95513 16.35268,25.8125 3.95944,7.83371 -9.25522,18.12227 -1.99554,24.625 4.19845,3.5316 9.12199,7.65196 9.40466,13.63138 0.62413,6.02981 8.63707,14.72767 16.21588,13.52487 4.64996,-1.0978 6.57858,1.97171 6.30357,7.21875 2.32715,8.52668 11.42717,23.07207 21.72768,22.41518 6.79333,-0.43024 11.67539,-9.473 15.6875,-14.29018 6.2178,-1.21077 12.29382,0.9272 15.90625,-4.55804 7.26942,-8.58654 9.8892,-24.52211 13.96875,-34.47321 5.64284,0.84871 11.79039,5.54895 14.375,0.0848 11.31013,-16.85185 17.59057,-43.48447 24.08462,-62.57576 8.1873,-30.29726 15.04122,-62.43166 17.36156,-93.84126 1.58655,-19.62056 -0.46694,-38.38097 -12.12029,-54.1678 -16.12788,-23.03864 -46.98748,-39.73515 -75.04423,-39.16249 -13.28412,-1.23172 -19.6079,6.73475 -32.60755,2.88124 -2.32871,-0.30899 -11.82821,-3.94159 -14.17411,-3.85268 z"
         style="fill:none;stroke:#333333;stroke-width:1;stroke-miterlimit:4;stroke-opacity:1" />
      <path
         sodipodi:nodetypes="ccccccccccccccccccccccc"
         inkscape:connector-curvature="0"
         id="path6214"
         d="m 207.96875,202.23661 c -14.6203,1.03696 -24.76909,12.80235 -34.39904,22.39855 -17.64117,20.27356 -34.61357,48.99918 -37.50231,75.97385 -3.74613,18.64062 -4.49465,37.80486 -3.29061,56.70349 -0.0664,14.13789 9.1061,35.24342 21.56696,43.125 5.30905,3.81329 11.72618,-5.62445 15.28125,-9.78125 -1.91989,4.86074 -4.24558,10.75688 -0.85714,14.5625 -0.10157,11.47861 12.47762,19.37948 19.95089,26.40625 0.84141,7.67667 -12.6398,15.08081 -7.59821,22.59375 4.7491,4.36334 9.05381,8.93776 9.13392,15.9375 2.64948,8.29186 10.61742,14.89592 19.50447,13.09375 3.27582,1.7483 2.3191,6.87107 4.61607,9.59375 4.05955,9.20277 16.30721,23.80472 27.5625,23.72768 8.10825,-0.81645 12.0089,-12.79441 16.875,-18.04018 5.95458,-0.30813 19.92324,0.11213 23.20982,-6 7.26003,-9.37995 2.2264,-22.33451 6.85268,-32.46875 4.4668,1.69145 14.75131,9.65572 17.41964,3.65625 12.96013,-20.56701 15.24764,-49.88256 22.69919,-72.86593 8.76414,-34.3649 20.79576,-63.75714 20.80182,-99.38715 -0.0867,-20.71095 -8.59541,-46.07242 -23.9359,-59.58711 -19.82428,-17.9701 -53.257,-34.77594 -80.266,-30.84285 -8.24028,2.75684 -17.12476,8.25945 -25.45578,4.77734 -4.01777,-0.98538 -7.95897,-3.84559 -12.16922,-3.57644 z"
         style="fill:none;stroke:#333333;stroke-width:1;stroke-miterlimit:4;stroke-opacity:1" />
      <path
         sodipodi:nodetypes="csccccccccccccccccccccc"
         inkscape:connector-curvature="0"
         id="path6220"
         d="m 250.625,197.10268 c -10.74828,-0.0702 -20.8344,12.01794 -31.4375,6.36607 -7.57742,-4.03906 -16.1945,-8.0633 -23.46875,-4.16071 -16.86807,9.37039 -29.12418,29.65038 -39.78125,45.44196 -12.07183,18.27254 -20.42151,31.07745 -22.8125,52.95536 -3.18739,20.45974 -4.19433,57.39518 -1.09375,77.93303 3.54203,13.64736 10.32695,24.76001 23.21875,31.74107 3.77887,1.22392 7.63118,-6.35883 9.84375,-8.22321 -0.35192,4.23388 2.21293,7.66162 2.59375,11.8125 1.87499,12.01377 12.22073,16.51801 19,22.09375 -1.73136,7.26375 -15.3279,13.19127 -11.29018,21.4375 4.13334,4.58604 9.69336,9.37615 9.40625,16.34375 2.59038,21.70391 15.46339,16.63937 24.72768,14.78125 3.57419,12.83542 12.35657,28.85678 24.15625,35.22321 5.75933,3.40198 13.57326,3.75133 17.40625,-1.97767 3.53678,-3.76947 5.34092,-11.41769 9.03125,-14.83036 8.75819,-0.36009 24.43623,-3.4494 28.69643,-12.82143 4.91821,-8.67366 -1.65963,-19.22838 1.14732,-28.4375 5.00062,2.32703 12.10081,17.38086 17.28125,12.50446 14.88331,-23.70759 19.06078,-62.02503 27.6154,-88.09554 9.30817,-35.1635 25.48874,-70.95948 20.97835,-108.09642 -3.14994,-21.92335 -18.7449,-45.77558 -37.64793,-58.206 C 298.62626,206.734 275.34275,196.35505 250.625,197.10268 z"
         style="fill:none;stroke:#333333;stroke-width:1;stroke-miterlimit:4;stroke-opacity:1" />
      <path
         sodipodi:nodetypes="ccccccccccccccccccccccccc"
         inkscape:connector-curvature="0"
         id="path6224"
         d="m 253.48214,192.23661 c -10.60502,-0.41992 -22.45608,13.99567 -32.98214,9.63839 -8.54197,-4.98691 -20.32547,-9.53033 -29.03125,-2.34375 -20.25782,14.17482 -31.90054,37.02052 -45.5625,57.09375 -9.76634,14.61687 -14.58979,31.94388 -15.875,49.28125 -2.05974,23.72548 -5.39662,48.68613 -1.73661,72.24554 3.57613,13.45477 13.6219,26.2281 26.95982,31.34821 3.48064,0.31034 6.72653,-3.87751 8.49554,-5.25 2.26735,7.33458 3.04247,15.80197 9.53125,20.96875 3.02387,3.48484 8.55396,5.62098 10.8125,8.96875 -3.67238,6.38986 -13.74243,11.54608 -10.90625,20.25 3.78715,5.4219 8.30261,6.68289 7.63839,14.08482 0.39486,8.33606 8.09823,21.72841 17.54911,20.97768 3.29582,0.42073 7.65417,-1.95674 10,-0.78125 5.07164,14.70562 13.91711,30.71278 29.4375,36 7.06199,2.42816 13.11792,1.75699 16.00893,-4.77232 2.73069,-3.50608 4.46929,-14.66121 10.11607,-14.19643 11.31553,-1.15356 25.90729,-0.64721 28.40625,-13.4375 1.49446,-6.83182 -1.83537,-19.67295 -0.84375,-25.71875 4.43238,3.92945 7.98204,12.79042 15.1875,11.375 5.04857,-3.29984 6.44695,-10.19998 9.21875,-15.3125 10.81815,-27.186 14.45809,-56.779 23.53697,-84.40847 9.75899,-33.5786 26.71013,-70.3316 20.47642,-105.89064 -5.84216,-26.20296 -26.81367,-46.17869 -49.86256,-59.32829 -17.70642,-11.10019 -35.41764,-21.43013 -56.57494,-20.79224 z"
         style="fill:none;stroke:#333333;stroke-width:1;stroke-miterlimit:4;stroke-opacity:1" />
      <path
         sodipodi:nodetypes="ccccccccccccccccccccccccc"
         inkscape:connector-curvature="0"
         id="path6228"
         d="m 253.05804,187.39286 c -10.98521,0.4385 -19.71395,14.80765 -30.96429,12.91964 -9.30295,-5.38582 -22.55567,-13.78356 -31.90625,-5.88393 -22.01291,15.68492 -36.50003,42.90651 -51.26814,64.82123 -14.05781,23.70706 -14.14662,53.74239 -16.62025,80.4377 -0.39607,15.13418 -1.95012,31.12624 3.4375,45.5 5.16466,11.72426 16.18063,26.5448 28.92857,29.88393 2.56772,-0.23918 6.20512,-5.40386 8.02232,-7.13393 1.59505,8.91443 5.70241,17.56689 13.625,22.4375 1.81612,1.65335 7.4106,3.47843 3.6875,5.96875 -5.0193,4.93096 -20.4657,7.15399 -10.17411,22.70089 3.30897,3.90146 8.13996,6.1225 6.90625,11.91518 1.39622,10.3541 11.28082,25.12406 23.11161,24.14286 2.98211,0.15119 6.35985,-4.73666 6.58808,0.19173 5.91085,15.97383 12.88608,31.79468 31.2021,33.41988 8.01711,0.86626 18.76642,-2.03421 20.92857,-8.40625 1.25363,-3.97752 5.17081,-11.86661 10.14367,-10.68808 9.6001,-0.64125 24.87365,-3.06048 28.52151,-13.78067 2.43813,-7.5192 -3.47533,-16.32498 -3.79018,-24.02679 3.15675,4.73467 8.16378,14.68579 14.07143,10.54018 6.75725,-6.65592 13.06666,-18.77532 16.67501,-27.25668 9.44382,-29.46764 14.89368,-61.00415 25.29566,-90.15591 9.71861,-30.34102 19.99687,-62.25404 13.26309,-94.56946 -7.13446,-27.72233 -27.47114,-49.63796 -51.53039,-63.06839 -16.39297,-10.24288 -38.20548,-20.94581 -58.15426,-19.90938 z"
         style="fill:none;stroke:#333333;stroke-width:1;stroke-miterlimit:4;stroke-opacity:1" />
      <path
         inkscape:connector-curvature="0"
         id="path6232"
         d="m 254.9375,185.34375 c -12.56368,-1.01894 -19.84086,13.49687 -32.09375,13.03125 -9.26089,-5.21009 -21.3517,-13.04823 -31.96875,-6.90625 -24.75722,17.2616 -39.26395,45.17146 -55.45439,69.93666 -13.1605,25.40649 -13.07486,55.09127 -15.26704,83.06228 -1.00713,18.18093 -1.21908,38.23877 10.37768,53.34481 6.11927,8.40057 14.14937,17.55298 24.875,19.15625 2.64917,-0.25453 4.91912,-4.29775 6.28125,-4.34375 2.23831,9.4914 8.86056,17.33914 17.28125,22 -5.62713,4.38742 -15.39393,7.42617 -14.59375,16.21875 0.44365,6.99868 6.24806,11.37868 10.1875,16.46875 0.39233,4.63767 0.87605,9.62902 3.4375,13.90625 4.32514,8.77184 13.65943,18.19891 24.34375,15.34375 3.68366,-2.99343 3.10533,4.32556 4.90604,6.36461 4.72446,12.98001 14.40223,26.5095 29.31271,27.69789 9.8353,1.22514 22.84691,-1.90107 25.21875,-13.03125 1.54821,-3.60286 4.62198,-7.21599 8.96875,-6.125 10.933,-0.9713 24.98668,-3.94111 28.65625,-15.90625 1.33109,-4.54565 -0.69063,-10.38178 -1.46875,-13.84375 3.04554,4.47078 10.19219,4.91435 12.96875,-0.0625 13.07796,-15.20818 18.56534,-34.97575 23.15625,-54.15625 6.1439,-25.81928 13.39384,-51.20668 21.84375,-76.34375 8.64624,-28.0417 15.94988,-58.97607 6.8125,-87.84375 -9.20166,-27.53469 -31.77944,-48.41447 -56.90625,-61.5625 -15.34651,-8.7746 -32.6705,-16.51304 -50.875,-16.40625 z"
         style="fill:none;stroke:#333333;stroke-width:1;stroke-miterlimit:4;stroke-opacity:1" />
    </g>
  </g>
</svg>
