<?xml version="1.0" encoding="UTF-8" standalone="no"?>
<!-- Created with Inkscape (http://www.inkscape.org/) -->

<svg
   xmlns:dc="http://purl.org/dc/elements/1.1/"
   xmlns:cc="http://creativecommons.org/ns#"
   xmlns:rdf="http://www.w3.org/1999/02/22-rdf-syntax-ns#"
   xmlns:svg="http://www.w3.org/2000/svg"
   xmlns="http://www.w3.org/2000/svg"
   xmlns:sodipodi="http://sodipodi.sourceforge.net/DTD/sodipodi-0.dtd"
   xmlns:inkscape="http://www.inkscape.org/namespaces/inkscape"
   sodipodi:docname="skull start.svg"
   inkscape:version="0.48.2 r9819"
   version="1.1"
   id="svg3783"
   height="1052.3622047"
   width="744.09448819">
  <sodipodi:namedview
     id="base"
     pagecolor="#ffffff"
     bordercolor="#666666"
     borderopacity="1.0"
     inkscape:pageopacity="0.0"
     inkscape:pageshadow="2"
     inkscape:zoom="1.4"
     inkscape:cx="167.01104"
     inkscape:cy="568.38359"
     inkscape:document-units="px"
     inkscape:current-layer="layer1"
     showgrid="false"
     inkscape:window-width="1084"
     inkscape:window-height="748"
     inkscape:window-x="60"
     inkscape:window-y="2"
     inkscape:window-maximized="0" />
  <defs
     id="defs3785" />
  <metadata
     id="metadata3788">
    <rdf:RDF>
      <cc:Work
         rdf:about="">
        <dc:format>image/svg+xml</dc:format>
        <dc:type
           rdf:resource="http://purl.org/dc/dcmitype/StillImage" />
        <dc:title></dc:title>
      </cc:Work>
    </rdf:RDF>
  </metadata>
  <g
     inkscape:label="Layer 1"
     inkscape:groupmode="layer"
     id="layer1">
    <rect
       style="fill:none;stroke:#000000;stroke-width:0.90764099;stroke-opacity:1"
       id="rect4319"
       width="516.12524"
       height="765.16071"
       x="7.8454075"
       y="12.284647" />
    <flowRoot
       xml:space="preserve"
       id="flowRoot3475"
       style="fill:black;stroke:none;stroke-opacity:1;stroke-width:1px;stroke-linejoin:miter;stroke-linecap:butt;fill-opacity:1;font-family:Sans;font-style:normal;font-weight:normal;font-size:40px;line-height:125%;letter-spacing:0px;word-spacing:0px"><flowRegion
         id="flowRegion3477"><rect
           id="rect3479"
           width="474.7717"
           height="76.771591"
           x="40.406101"
           y="840.23016" /></flowRegion><flowPara
         id="flowPara3481" /></flowRoot>    <path
       id="path12085"
       d="m 223.6827,334.92445 c -0.30096,0.39835 -0.23244,-0.40874 -0.10289,-0.74614 0.35305,-0.91434 0.9052,-0.99227 1.10767,-0.57904 0.36468,0.73625 -0.0546,2.46852 -0.68225,3.55522 -0.91369,1.59472 -1.95819,1.61519 -2.31187,0.4165 -0.46079,-1.60687 0.31031,-4.57486 1.49819,-6.39089 1.51169,-2.28602 3.08954,-2.21987 3.52598,-0.23463 0.55272,2.38602 -0.55482,6.58741 -2.25007,9.16272 -1.96723,3.03221 -4.10097,2.92327 -4.73682,0.10379 -0.69065,-3.28684 0.80714,-8.80689 3.11011,-12.05176 2.66459,-3.69139 5.32376,-3.4542 5.93447,0.12728 0.75266,3.9716 -1.05696,10.69104 -3.80907,14.75154 -2.98531,4.49928 -6.22913,4.26816 -7.17203,-0.19218 -0.93914,-4.97674 1.30038,-13.08016 4.73362,-17.72772 3.84529,-5.08801 7.5845,-4.66583 8.3332,0.50683 0.9454,5.52894 -1.56414,14.76237 -5.35995,20.32069 -3.97232,5.9831 -8.33651,5.64085 -9.61762,-0.47156 -1.20045,-6.68613 1.79176,-17.38849 6.36948,-23.41791 5.05501,-6.47058 9.86919,-5.85064 10.72222,0.90425 1.12856,7.06186 -2.07746,18.79835 -6.90342,25.86918 -4.92877,7.481 -10.42188,7.03923 -12.07369,-0.73443 -1.47332,-8.4168 2.28225,-21.72993 8.01841,-29.12133 6.29393,-7.8375 12.17705,-7.00728 13.10162,1.31964 1.30154,8.57132 -2.5977,22.79758 -8.44023,31.39609 -5.85471,8.99173 -12.48482,8.46209 -14.54033,-0.98104 -1.75725,-10.16926 2.77278,-26.1033 9.68121,-34.83702 7.56196,-9.18776 14.50767,-8.13481 15.4714,1.7532 1.46416,10.05776 -3.12554,26.7591 -9.97104,36.90039 -6.75018,10.51457 -14.52527,9.90873 -17.01768,-1.21144 -2.05194,-11.94371 3.26418,-30.50771 11.35862,-40.56404 8.85901,-10.52077 16.86082,-9.23258 17.83166,2.20508 1.61636,11.52137 -3.66164,30.68217 -11.49662,42.38119 -7.61505,12.04885 -16.54316,11.37843 -19.50579,-1.42586 -2.3572,-13.74017 3.7573,-34.94243 13.05139,-46.3014 10.18493,-11.83594 19.23626,-10.29998 20.18242,2.6754 1.75817,12.96226 -4.20662,34.56616 -13.01762,47.83746 -8.44934,13.59407 -18.53854,12.8707 -22.0048,-1.62438 -2.67286,-15.55866 4.25298,-39.40668 14.76029,-52.04818 11.53954,-13.1327 21.6338,-11.33644 22.52371,3.16439 1.88968,14.38053 -4.76103,38.41036 -14.53476,53.2683 -9.25299,15.1496 -20.51149,14.38488 -24.51485,-1.80719 -2.99867,-17.39909 4.75213,-43.89978 16.48611,-57.80344 12.92271,-14.41059 24.05326,-12.34143 24.85559,3.67218 2.01099,15.77625 -5.32551,42.21421 -16.04872,58.67269 -10.02596,16.71504 -22.46209,15.92046 -27.03603,-1.97436 -3.33448,-19.2615 5.25558,-48.4211 18.2296,-63.56628 14.33422,-15.66912 26.49442,-13.31442 27.17801,4.19896 2.12224,17.1495 -5.90048,45.97713 -17.5601,64.04967 -10.76822,18.28984 -24.39053,17.47695 -29.56851,-2.12607 -3.68005,-21.14571 5.76425,-52.96984 19.99154,-69.3357 15.77389,-16.90777 28.95706,-14.25488 29.49107,4.74488 2.22353,18.50041 -6.48658,49.69854 -19.06967,69.3983 -11.47973,19.87348 -26.2969,19.05376 -32.11238,-2.26245 -4.03519,-23.05166 6.27904,-57.54537 21.77273,-75.11079 17.24151,-18.12611 31.44094,-15.16231 31.79471,5.3101 2.31507,19.829 -7.08422,53.37786 -20.57804,74.71759 -12.16049,21.46555 -28.1814,20.65042 -34.66776,-2.38359 -4.39964,-24.97926 6.8008,-62.14701 23.5739,-80.89063 18.7369,-19.32366 33.94583,-16.03617 34.08897,5.8948 2.39699,21.13539 -7.69389,57.01455 -22.08586,80.00663 -12.81047,23.06548 -30.04423,22.26634 -37.23482,-2.48968 -4.77315,-26.92843 7.33051,-66.77408 25.39584,-86.67428 20.25985,-20.49999 36.47153,-16.87606 36.37386,6.49911 2.4695,22.4197 -8.31606,60.60811 -23.59376,85.26441 -13.42969,24.67282 -31.88562,23.90107 -39.8137,-2.58076 -5.15545,-28.89905 7.86907,-71.4259 27.23936,-92.46085 21.8101,-21.65458 39.01773,-17.68141 38.6493,7.12326 2.5328,23.68199 -8.9511,64.15797 -25.10239,90.48997 -14.01811,26.28709 -33.70576,25.55409 -42.4045,-2.65702 -5.54624,-30.89101 8.41742,-76.10176 29.10519,-98.24938 23.38748,-22.78704 41.58419,-18.45177 40.91538,7.76734 2.58706,24.92245 -9.59945,67.66364 -26.61239,95.68238 -14.57579,27.90782 -35.50495,27.2249 -45.00738,-2.71853 -5.94525,-32.90419 8.97649,-80.80102 30.99414,-104.039 24.99173,-23.8969 44.17058,-19.18659 43.17199,8.43157 2.63251,26.14119 -10.26147,71.12464 -28.12438,100.84069 -15.10267,29.53448 -37.28345,28.91298 -47.62245,-2.76545 -6.35215,-34.93847 9.54721,-85.52297 32.90696,-109.82875 26.62259,-24.9837 46.77668,-19.88552 45.41915,9.11605 2.66938,27.33834 -10.93752,74.54048 -29.63896,105.96396 -15.59886,31.1666 -39.04156,30.61786 -50.24987,-2.79789 -6.7666,-36.99372 10.13053,-90.26689 34.84444,-115.61776 28.27984,-26.047 49.40212,-20.54796 47.65678,9.821 2.69792,28.51406 -11.62788,77.91067 -31.15668,111.05119 -16.06438,32.80378 -40.77965,32.33908 -52.88982,-2.81586 -7.18825,-39.06989 10.72744,-95.0322 36.80733,-121.40515 29.96323,-27.08636 52.04662,-21.17352 49.8849,10.54652 2.71834,29.66853 -12.33287,81.23478 -32.6782,116.1015 -16.49924,34.44541 -42.498,34.07613 -55.5424,-2.81958 -7.61673,-41.16678 11.3389,-99.81813 38.79645,-127.19001 31.67247,-28.10133 54.70982,-21.76169 52.10338,11.29285 2.7309,30.80187 -13.05274,84.51231 -34.20405,121.11388 -16.90353,36.09113 -44.19701,35.82856 -58.20777,-2.80908 -8.05166,-43.28429 11.96585,-104.62403 40.81254,-132.97146 33.40732,-29.09148 57.39139,-22.31205 54.31221,12.06008 2.73588,31.91432 -13.78776,87.74291 -35.73482,126.08746 -17.2773,37.7404 -45.87706,37.59588 -60.88607,-2.78451 -8.49265,-45.42231 12.60929,-109.44923 42.85633,-138.74856 35.16753,-30.05641 60.09102,-22.82417 56.51137,12.84833 2.7335,33.00607 -14.53814,90.92614 -37.2711,131.02127 -17.62058,39.39278 -47.53855,39.3777 -63.57742,-2.74593 -8.93931,-47.58067 13.27015,-114.29301 44.92862,-144.52051 36.95274,-30.99561 62.80831,-23.29753 58.70072,13.65784 2.72406,34.07729 -15.30405,94.0616 -38.8134,135.91442 -17.93349,41.04774 -49.18192,41.17349 -66.282,-2.69346 -9.39115,-49.7593 13.94947,-119.15473 47.03016,-150.28637 38.76277,-31.90876 65.54291,-23.7318 60.88024,14.4887 2.7078,35.12819 -16.08567,97.14889 -40.36229,140.76589 -18.21611,42.70489 -50.80761,42.98292 -68.99994,-2.62713 -9.84779,-51.95805 14.64818,-124.03368 49.16172,-156.04533 40.59726,-32.79536 68.29442,-24.12644 63.04978,15.34107 2.68501,36.15908 -16.8831,100.18768 -41.91824,145.57489 -18.46856,44.36367 -52.41612,44.80545 -71.7314,-2.54712 -10.30874,-54.17677 15.36729,-128.92919 51.32402,-161.79648 42.45594,-33.655 71.06247,-24.48108 65.20934,16.2151 2.65598,37.17008 -17.69649,103.17762 -43.48186,150.34041 -18.69091,46.02365 -54.00792,46.64075 -74.47649,-2.45345 -10.77356,-56.41535 16.10776,-133.84055 53.51783,-167.539 44.33847,-34.48726 73.84663,-24.79527 67.35876,17.11094 2.62096,38.16152 -18.52591,106.11839 -45.05361,155.06156 -18.88328,47.68438 -55.58351,48.48842 -77.23534,-2.34621 -11.24176,-58.67364 16.87058,-138.76711 55.74385,-173.27198 46.24458,-35.29174 76.64652,-25.06863 69.49798,18.02869 2.58024,39.13363 -19.37139,109.00968 -46.634,159.73747 -19.04581,49.34538 -57.14349,50.348 -80.00812,-2.22551 -11.71286,-60.9515 17.65674,-143.70818 58.00286,-178.99464 48.17392,-36.06801 79.46169,-25.30071 71.62686,18.96855 2.53414,40.08665 -20.23297,111.85117 -48.22351,164.36719 -19.17865,51.00616 -58.68838,52.21917 -82.79497,-2.09136 -12.18633,-63.24885 18.46722,-148.6631 60.29557,-184.70611 50.12619,-36.81569 82.29174,-25.49113 73.74531,19.9306 2.4829,41.02087 -21.11065,114.64262 -49.82263,168.94988 -19.28192,52.66625 -60.21877,54.10151 -85.596,-1.94393 -12.66166,-65.56552 19.30297,-153.63114 62.62267,-190.40552 52.10109,-37.53438 85.13623,-25.6395 75.85321,20.91499 2.42682,41.93658 -22.00439,117.38379 -51.4318,173.48457 -19.35579,54.32525 -61.73527,55.99474 -88.41136,-1.78318 -13.13836,-67.9014 20.16501,-158.61166 64.98492,-196.0921 54.0982,-38.22363 87.99466,-25.74541 77.95042,21.92186 2.36618,42.83405 -22.91414,120.07446 -53.05153,177.97046 -19.40042,55.98264 -63.2385,57.89844 -91.24115,-1.60928 -13.61586,-70.25632 21.05428,-163.60396 67.38298,-201.76496 56.11725,-38.88309 90.86666,-25.80851 80.03685,22.9513 2.30128,43.71361 -23.83982,122.71441 -54.68225,182.40665 -19.41598,57.63797 -64.72909,59.81233 -94.08552,-1.42227 -14.09362,-72.63018 21.97175,-168.60733 69.8176,-207.42332 58.15787,-39.51234 93.75167,-25.82835 82.11232,24.00346 2.23239,44.57554 -24.78134,125.30349 -56.32437,186.79226 -19.4027,59.29079 -66.20775,61.73611 -96.94461,-1.22219 -14.57107,-75.02282 22.91842,-173.62113 72.28941,-213.06631 60.21972,-40.11101 96.64929,-25.80464 84.17672,25.07843 2.15978,45.42017 -25.73852,127.84151 -57.97832,191.12644 -19.36075,60.94066 -67.67513,63.66944 -99.81852,-1.00914 -15.04765,-77.43415 23.89524,-178.64467 74.79915,-218.69321 62.3024,-40.67867 99.55901,-25.73696 86.22986,26.1764 2.08376,46.24782 -26.71122,130.32834 -59.64449,195.40829 -19.29036,62.58712 -69.13198,65.61206 -102.70739,-0.78312 -15.5228,-79.86403 24.90317,-183.67728 77.34746,-224.30315 64.40561,-41.215 102.48034,-25.62498 88.27163,27.29739 2.00456,47.05883 -27.69926,132.76391 -61.32334,199.63703 -19.19173,64.22968 -70.57902,67.56369 -105.61129,-0.54426 -15.99594,-82.3123 25.94313,-188.71826 79.93497,-229.89532 66.52893,-41.7196 105.41278,-25.46835 90.30188,28.44152 1.9225,47.85351 -28.70241,135.14811 -63.01522,203.81177 -19.06512,65.86798 -72.01696,69.52414 -108.53036,-0.2926 -16.46646,-84.77884 27.01612,-193.76694 82.56239,-235.46894 68.67201,-42.19208 108.35582,-25.26671 92.3204,29.60895 1.8378,48.63225 -29.72046,137.48087 -64.7205,207.93172 -18.91079,67.50145 -73.44662,71.49307 -111.46473,-0.0282 -16.93377,-87.26352 28.12303,-198.82261 85.23033,-241.02321 70.83445,-42.6321 111.30898,-25.01975 94.32707,30.79971 1.75076,49.39536 -30.75312,139.7622 -66.43956,211.99603 -18.72898,69.12976 -74.86876,73.47035 -114.41448,0.24887 -17.39726,-89.76625 29.26483,-203.88462 87.93945,-246.55739 73.01585,-43.03923 114.27168,-24.72711 96.32167,32.01397 1.66161,50.14321 -31.80011,141.99206 -68.17274,216.00388 -18.52001,70.75238 -76.28419,75.45576 -117.37972,0.53855 -17.85631,-92.28683 30.44244,-208.95226 90.69033,-252.07061 75.21589,-43.4132 117.24345,-24.38851 98.30406,33.25177 1.57064,50.87613 -32.86113,144.17047 -69.92036,219.95444 -18.28414,72.36896 -77.69376,77.44912 -120.36055,0.84079 -18.31033,-94.82516 31.65676,-214.02485 93.48362,-257.56216 77.43406,-43.75358 120.2237,-24.00358 100.27402,34.51321 1.47808,51.59457 -33.93585,146.29752 -71.68278,223.84696 -18.02168,73.979 -79.09829,79.45027 -123.35706,1.15555 -18.75868,-97.3811 32.90872,-219.10172 96.31988,-263.03123 79.67007,-44.06007 123.21194,-23.57208 102.23141,35.79836 1.38416,52.29881 -35.02393,148.37328 -73.4603,227.68062 -17.733,75.5821 -80.49864,81.45906 -126.36934,1.48271 -19.20074,-99.95451 34.1992,-224.18215 99.19973,-268.47707 81.92341,-44.33226 126.20757,-23.09364 104.17598,37.10733 1.28913,52.98934 -36.12497,150.39784 -75.2532,231.45465 -17.41839,77.17781 -81.89569,83.47538 -129.39748,1.82228 C 130.1761,345.005 185.3411,218.28478 251.93572,173.65137 c 84.19372,-44.56986 129.21004,-22.568 106.10756,38.44017 1.1932,53.66644 -37.23859,152.37134 -77.06178,235.1683 -17.07825,78.76572 -83.29033,85.49907 -132.44159,2.17414 -20.06344,-105.15329 36.89935,-234.35109 105.09244,-279.29599 86.48057,-44.77254 132.21883,-21.99491 108.02594,39.79694 1.09666,54.33052 -38.36437,154.29394 -78.88628,238.82075 -16.71295,80.34542 -84.6835,87.5301 -135.50172,2.53826 -20.48281,-107.77838 38.31077,-239.43819 108.10642,-284.66756 88.78354,-44.93991 135.23332,-21.37403 109.93092,41.17776 0.99964,54.98198 -39.50191,156.16583 -80.72701,242.41129 -16.32288,81.91648 -86.07606,89.5684 -138.57797,2.91455 -20.89333,-110.4204 39.76423,-244.52611 111.16619,-290.01282 91.1022,-45.0717 138.25297,-20.70516 111.82231,42.58262 0.90238,55.62122 -40.65075,157.98726 -82.58418,245.93916 -15.90847,83.47848 -87.46898,91.61391 -141.6704,3.30295 -21.29436,-113.07922 41.26059,-249.61416 114.2723,-295.33108 93.43609,-45.16754 141.27717,-19.98797 113.69984,44.01163 0.80511,56.24865 -41.81043,159.75849 -84.458,249.40367 -15.47019,85.03103 -88.86322,93.66657 -144.77912,3.70338 -21.68524,-115.75472 42.80069,-254.70167 117.42523,-300.62155 95.78481,-45.22714 144.30538,-19.22228 115.56335,45.46481 0.70798,56.86463 -42.98048,161.47976 -86.34871,252.80407 -15.00845,86.57369 -90.2597,95.72638 -147.90417,4.11577 -22.06534,-118.44675 44.38537,-259.78793 120.62551,-305.88352 98.14785,-45.25016 147.33693,-18.40777 117.41256,46.94222 0.6112,57.46961 -44.16041,163.15141 -88.25648,256.13964 -14.52378,88.10616 -91.65944,97.79336 -151.04562,4.54009 -22.434,-121.1552 46.01543,-264.87227 123.87357,-311.11623 100.52484,-45.23633 150.37127,-17.54427 119.24727,48.44392 0.51496,58.06391 -45.34968,164.77375 -90.18147,259.4097 -14.0167,89.62791 -93.06338,99.8675 -154.20356,4.97617 -22.79056,-123.87989 47.69167,-269.95396 127.16995,-316.31897 102.91523,-45.1853 153.40777,-16.6315 121.06723,49.96993 0.4194,58.64802 -46.54785,166.34719 -92.12389,262.61356 -13.48773,91.13869 -94.47252,101.94888 -157.37805,5.42399 -23.13437,-126.62067 49.41492,-275.03229 130.51506,-321.49097 105.31865,-45.096799 156.44587,-15.66928 122.87225,51.52029 0.32467,59.22229 -47.7544,167.87212 -94.08387,265.75057 -12.93746,92.63804 -95.88786,104.0375 -160.56914,5.88341 -23.46479,-129.37742 51.18591,-280.10657 133.90933,-326.6315 107.73458,-44.970533 159.48488,-14.65738 124.66206,53.09499 0.23095,59.78718 -48.96875,169.34897 -96.06152,268.82007 -12.3665,94.12559 -97.31044,106.13345 -163.77693,6.35438 -23.78115,-132.14999 53.00546,-285.17613 137.35323,-331.73988 110.16256,-44.806207 162.52421,-13.59559 126.43641,54.69411 0.13837,60.34305 -50.19039,170.77817 -98.05696,271.8214 -11.77547,95.60102 -98.74121,108.23681 -167.00146,6.83678 -24.08279,-134.93823 54.87429,-290.24024 140.84711,-336.81535 112.60215,-44.603565 165.56329,-12.48374 128.19505,56.31766 0.0471,60.89029 -51.41876,172.1602 -100.07022,274.75393 C 292.41965,559.8669 203.40347,573.15065 133.34189,470.13344 108.97282,332.39145 190.13504,174.83528 277.73332,128.27624 392.78611,83.913981 446.3347,116.95465 407.67106,186.24187 407.62831,247.67124 355.01771,359.7375 305.56962,463.85892 295.03364,562.37297 203.93807,576.3251 132.06856,471.6943 107.42924,331.1332 190.83132,171.34509 280.05507,124.8296 397.56916,80.747501 451.69301,114.72056 411.71934,184.46763 411.58825,246.42827 357.82572,359.25257 307.56868,464.87781 297.67973,564.82878 204.4755,579.47018 130.79243,473.22915 105.8995,329.83373 191.57627,167.83647 282.4252,121.392 402.41066,77.629253 457.09743,112.54617 415.79951,182.72688 415.58169,245.21143 360.66052,358.7556 309.58163,465.8596 300.35679,567.23406 205.01448,582.58607 129.51314,474.73787 104.38393,328.49308 192.37023,164.31003 284.84367,117.96403 407.31017,74.560023 462.54735,110.43216 419.91132,181.0202 419.60849,244.02168 363.52238,358.24776 311.60821,466.80432 303.06377,569.58846 205.5537,585.67284 128.23036,476.22029 102.88284,327.11127 193.21355,160.76632 287.31048,114.54626 412.26713,71.540674 468.04214,108.37927 424.0545,179.34814 423.66852,242.85998 366.41158,357.73021 313.64819,467.71195 305.79951,571.89171 206.09186,588.73069 126.94378,477.67627 101.39656,325.68829 194.10658,157.20592 289.82566,111.13923 417.28111,68.571982 473.58108,106.38821 428.22878,177.71129 427.76155,241.72728 369.32844,357.20414 315.70132,468.58256 308.56284,574.1436 206.62767,591.75974 125.65308,479.10569 99.9254,324.2242 195.04969,153.62942 292.38916,107.74354 422.35155,65.654789 479.16357,104.45967 432.43391,176.11014 431.88739,240.62453 372.27317,356.67077 317.76743,469.41615 311.35256,576.3439 207.15991,594.76025 124.35795,480.50839 98.46972,322.71903 196.04316,150.03742 295.00101,104.35973 427.47789,62.789893 484.78889,102.59436 436.6696,174.54527 436.04582,239.55269 375.24605,356.13131 319.84627,470.21281 314.16739,578.49248 207.6873,597.73239 123.05812,481.88425 97.029854,321.17281 197.08735,146.43051 297.66114,100.9884 432.65966,59.978086 490.45636,100.79297 440.93554,173.01723 440.23657,238.51269 378.24727,355.58705 321.93772,470.97262 317.00601,580.58921 208.20861,600.6764 121.75326,483.23313 95.606143,319.58563 198.18259,142.8093 300.36955,97.630082 437.89628,57.220169 496.16528,99.056164 445.23143,171.52654 444.45943,237.50546 381.2771,355.0392 324.04161,471.69563 319.86704,582.63402 208.7226,603.59249 120.44314,484.55493 94.198952,317.95749 199.32919,139.1744 303.12618,94.285384 443.18715,54.516931 501.91494,97.384619 449.55695,170.07375 448.71412,236.5319 384.3357,354.48904 326.15782,472.38202 322.74911,584.62692 209.2281,606.48096 119.12746,485.84947 92.808651,316.28847 200.52745,135.52641 305.93102,90.954839 448.53179,51.869154 507.70462,95.779 453.91182,168.65936 453.0003,235.59295 387.42323,353.93789 328.2862,473.03187 325.65068,586.56798 209.7239,609.34205 117.80599,487.11667 91.435579,314.57866 201.77769,131.86597 308.78403,87.639033 453.92953,49.277615 513.53359,94.239947 458.29568,167.28392 457.3177,234.68952 390.53991,353.387 330.42669,473.64539 328.57021,588.45729 210.20883,612.17605 116.47848,488.35638 90.08014,312.82811 203.08022,128.19368 311.68509,84.338556 459.37987,46.743078 519.40112,92.768113 462.7082,165.94794 461.666,233.82248 393.68581,352.83771 332.57922,474.22273 331.50612,590.29509 210.68178,614.98324 115.14469,489.5685"
       style="fill:none;stroke:#000000;stroke-width:1.59399724px;stroke-linecap:butt;stroke-linejoin:miter;stroke-opacity:1"
       inkscape:connector-curvature="0" />
  </g>
</svg>
