<?xml version="1.0" encoding="UTF-8" standalone="no"?>
<!-- Created with Inkscape (http://www.inkscape.org/) -->

<svg
   xmlns:dc="http://purl.org/dc/elements/1.1/"
   xmlns:cc="http://creativecommons.org/ns#"
   xmlns:rdf="http://www.w3.org/1999/02/22-rdf-syntax-ns#"
   xmlns:svg="http://www.w3.org/2000/svg"
   xmlns="http://www.w3.org/2000/svg"
   xmlns:sodipodi="http://sodipodi.sourceforge.net/DTD/sodipodi-0.dtd"
   xmlns:inkscape="http://www.inkscape.org/namespaces/inkscape"
   sodipodi:docname="letter sized frame blank.svg"
   inkscape:version="0.48.2 r9819"
   version="1.1"
   id="svg3783"
   height="1052.3622047"
   width="744.09448819">
  <sodipodi:namedview
     id="base"
     pagecolor="#ffffff"
     bordercolor="#666666"
     borderopacity="1.0"
     inkscape:pageopacity="0.0"
     inkscape:pageshadow="2"
     inkscape:zoom="0.35"
     inkscape:cx="293.06244"
     inkscape:cy="610.31534"
     inkscape:document-units="px"
     inkscape:current-layer="layer1"
     showgrid="false"
     inkscape:window-width="1024"
     inkscape:window-height="748"
     inkscape:window-x="10"
     inkscape:window-y="-16"
     inkscape:window-maximized="0" />
  <defs
     id="defs3785">
    <inkscape:perspective
       sodipodi:type="inkscape:persp3d"
       inkscape:vp_x="-314.90439 : 155.3937 : 0"
       inkscape:vp_y="0 : 1000 : 0"
       inkscape:vp_z="372.04724 : 175.3937 : 0"
       inkscape:persp3d-origin="334.90438 : 296.50168 : 1"
       id="perspective3823" />
  </defs>
  <metadata
     id="metadata3788">
    <rdf:RDF>
      <cc:Work
         rdf:about="">
        <dc:format>image/svg+xml</dc:format>
        <dc:type
           rdf:resource="http://purl.org/dc/dcmitype/StillImage" />
        <dc:title></dc:title>
      </cc:Work>
    </rdf:RDF>
  </metadata>
  <g
     inkscape:label="Layer 1"
     inkscape:groupmode="layer"
     id="layer1">
    <rect
       style="fill:none;stroke:#000000;stroke-width:0.91610378;stroke-opacity:1"
       id="rect4319"
       width="516.12524"
       height="779.49591"
       x="7.8454075"
       y="12.284647" />
    <flowRoot
       xml:space="preserve"
       id="flowRoot3475"
       style="fill:black;stroke:none;stroke-opacity:1;stroke-width:1px;stroke-linejoin:miter;stroke-linecap:butt;fill-opacity:1;font-family:Sans;font-style:normal;font-weight:normal;font-size:40px;line-height:125%;letter-spacing:0px;word-spacing:0px"><flowRegion
         id="flowRegion3477"><rect
           id="rect3479"
           width="474.7717"
           height="76.771591"
           x="40.406101"
           y="840.23016" /></flowRegion><flowPara
         id="flowPara3481" /></flowRoot>    <path
       sodipodi:type="star"
       style="fill:none;stroke:#000000;stroke-width:1;stroke-miterlimit:4;stroke-opacity:1;stroke-dasharray:none"
       id="path3229"
       sodipodi:sides="18"
       sodipodi:cx="247.48737"
       sodipodi:cy="160.39749"
       sodipodi:r1="51.761681"
       sodipodi:r2="59.496185"
       sodipodi:arg1="0.78539816"
       sodipodi:arg2="0.95993109"
       inkscape:flatsided="false"
       inkscape:rounded="0"
       inkscape:randomized="0"
       d="m 284.0884,196.99853 -2.47542,12.13538 -12.25018,-1.8244 -6.47669,10.55688 -10.88742,-5.90419 -9.69676,7.70508 -8.21147,-9.27184 -11.74727,3.92391 -4.5451,-11.52117 -12.38088,-0.33053 -0.33053,-12.38088 -11.52117,-4.5451 3.92391,-11.74727 -9.27184,-8.21147 7.70507,-9.69677 -5.90419,-10.88741 10.55689,-6.47669 -1.82441,-12.25018 12.13539,-2.47542 2.47543,-12.13539 12.25017,1.82441 6.47669,-10.55689 10.88742,5.90419 9.69676,-7.70507 8.21147,9.27184 11.74727,-3.92391 4.54511,11.52116 12.38087,0.33054 0.33053,12.38087 11.52117,4.54511 -3.92391,11.74726 9.27184,8.21148 -7.70507,9.69676 5.90419,10.88742 -10.55689,6.47668 1.82441,12.25018 z"
       transform="matrix(0.38322575,-0.66376646,0.66376646,0.38322575,51.141465,274.81961)" />
    <path
       d="m 297.78889,210.69902 -16.17591,-1.56511 -4.06178,15.73569 -14.66509,-7.00321 -9.19874,13.3975 -11.38544,-11.59661 -13.2262,9.44337 -6.73254,-14.7913 -15.65839,4.35024 -1.26759,-16.20194 -16.20195,-1.26759 4.35025,-15.65839 -14.79131,-6.73254 9.44338,-13.2262 -11.59662,-11.38545 13.3975,-9.19873 -7.0032,-14.6651 15.73568,-4.06177 -1.5651,-16.17591 16.17592,1.5651 4.06177,-15.735686 14.66509,7.003206 9.19874,-13.397501 11.38544,11.596621 13.2262,-9.443381 6.73254,14.791311 15.65839,-4.35025 1.26759,16.20195 16.20195,1.26759 -4.35025,15.65839 14.79131,6.73253 -9.44338,13.22621 11.59662,11.38544 -13.3975,9.19874 7.0032,14.66509 -15.73568,4.06177 z"
       inkscape:randomized="0"
       inkscape:rounded="0"
       inkscape:flatsided="false"
       sodipodi:arg2="0.95993109"
       sodipodi:arg1="0.78539816"
       sodipodi:r2="59.496185"
       sodipodi:r1="71.1371"
       sodipodi:cy="160.39749"
       sodipodi:cx="247.48737"
       sodipodi:sides="18"
       id="path3231"
       style="fill:none;stroke:#000000;stroke-width:1;stroke-miterlimit:4;stroke-opacity:1;stroke-dasharray:none"
       sodipodi:type="star"
       transform="matrix(0.38322575,-0.66376646,0.66376646,0.38322575,51.141465,298.05312)" />
    <path
       transform="matrix(0.38322575,-0.66376646,0.66376646,0.38322575,51.141465,274.81961)"
       d="m 284.0884,196.99853 -15.54929,-6.53603 0.82369,16.84701 -12.3761,-11.46003 -4.98801,16.11272 -7.71017,-15.00177 -10.19806,13.43501 -2.11428,-16.7341 -14.17809,9.13684 3.73662,-16.44803 -16.44803,3.73662 9.13683,-14.17809 -16.73409,-2.11428 13.43501,-10.19807 -15.00178,-7.71017 16.11273,-4.988 -11.46003,-12.3761 16.84701,0.82369 -6.53603,-15.54929 15.54929,6.53602 -0.82369,-16.847 12.3761,11.46002 4.98801,-16.11272 7.71017,15.00178 10.19806,-13.43501 2.11428,16.73409 14.1781,-9.13684 -3.73663,16.44804 16.44803,-3.73663 -9.13683,14.17809 16.73409,2.11428 -13.43501,10.19807 15.00178,7.71017 -16.11273,4.988 11.46003,12.3761 -16.84701,-0.82368 z"
       inkscape:randomized="0"
       inkscape:rounded="0"
       inkscape:flatsided="false"
       sodipodi:arg2="0.95993109"
       sodipodi:arg1="0.78539816"
       sodipodi:r2="36.702599"
       sodipodi:r1="51.761681"
       sodipodi:cy="160.39749"
       sodipodi:cx="247.48737"
       sodipodi:sides="18"
       id="path3233"
       style="fill:none;stroke:#000000;stroke-width:1;stroke-miterlimit:4;stroke-opacity:1;stroke-dasharray:none"
       sodipodi:type="star" />
    <path
       sodipodi:type="star"
       style="fill:none;stroke:#000000;stroke-width:1;stroke-miterlimit:4;stroke-opacity:1;stroke-dasharray:none"
       id="path3235"
       sodipodi:sides="18"
       sodipodi:cx="247.48737"
       sodipodi:cy="160.39749"
       sodipodi:r1="26.274021"
       sodipodi:r2="19.917463"
       sodipodi:arg1="0.78539816"
       sodipodi:arg2="0.95993109"
       inkscape:flatsided="false"
       inkscape:rounded="0"
       inkscape:randomized="0"
       d="m 266.0659,178.97603 -7.15435,-2.26311 -0.3203,7.49692 -5.94887,-4.57356 -2.86508,6.93525 -4.02586,-6.33237 -5.06429,5.53709 -1.61727,-7.32741 -6.65267,3.47107 0.98638,-7.43865 -7.43864,0.98639 3.47106,-6.65267 -7.3274,-1.61727 5.53708,-5.0643 -6.33236,-4.02585 6.93524,-2.86509 -4.57355,-5.94886 7.49691,-0.32031 -2.2631,-7.15435 7.15435,2.26311 0.3203,-7.49692 5.94887,4.57356 2.86508,-6.93525 4.02586,6.33237 5.06429,-5.53708 1.61727,7.3274 6.65268,-3.47107 -0.98639,7.43865 7.43864,-0.98639 -3.47106,6.65268 7.3274,1.61726 -5.53708,5.0643 6.33237,4.02585 -6.93525,2.86509 4.57356,5.94886 -7.49692,0.32031 z"
       transform="matrix(0.38322575,-0.66376646,0.66376646,0.38322575,51.141465,274.81961)" />
    <path
       inkscape:connector-curvature="0"
       id="path3322"
       style="font-size:40px;font-style:normal;font-weight:normal;line-height:125%;letter-spacing:0px;word-spacing:0px;fill:#000000;fill-opacity:1;stroke:none;font-family:Sans"
       d="m 308.94097,257.55531 0,-21.75904 8.16335,0 c 1.66234,2e-5 2.99568,0.22018 4.00004,0.66049 1.00433,0.44034 1.79098,1.11815 2.35996,2.03341 0.56894,0.9153 0.85342,1.87264 0.85343,2.87202 -10e-6,0.93014 -0.25233,1.80585 -0.75696,2.62712 -0.50466,0.82129 -1.26657,1.48425 -2.28574,1.98888 1.31602,0.38592 2.32778,1.04394 3.03529,1.97405 0.70746,0.93014 1.06121,2.02848 1.06123,3.29503 -2e-5,1.01918 -0.21524,1.96662 -0.64565,2.84233 -0.43045,0.87571 -0.9623,1.55104 -1.59556,2.026 -0.6333,0.47495 -1.42737,0.83364 -2.38221,1.07607 -0.95488,0.24243 -2.12496,0.36364 -3.51025,0.36364 z m 2.87943,-12.61609 4.70507,0 c 1.27643,1e-5 2.19172,-0.0841 2.74585,-0.25232 0.73221,-0.21768 1.28386,-0.57885 1.65493,-1.0835 0.37105,-0.50463 0.55658,-1.13791 0.55659,-1.89984 -1e-5,-0.72231 -0.17317,-1.35806 -0.51948,-1.90725 -0.34634,-0.54915 -0.84109,-0.92516 -1.48424,-1.12803 -0.6432,-0.20283 -1.74648,-0.30425 -3.30987,-0.30427 l -4.34885,0 z m 0,10.04834 5.4175,0 c 0.93012,1e-5 1.58318,-0.0346 1.9592,-0.10389 0.66296,-0.11874 1.21708,-0.31664 1.66236,-0.5937 0.44526,-0.27705 0.81137,-0.68027 1.09834,-1.20966 0.28694,-0.52937 0.43042,-1.14039 0.43043,-1.83304 -1e-5,-0.81138 -0.20781,-1.5164 -0.62338,-2.11506 -0.4156,-0.59863 -0.99198,-1.01917 -1.72914,-1.2616 -0.73719,-0.24242 -1.79842,-0.36363 -3.18372,-0.36365 l -5.03159,0 z" />
    <path
       inkscape:connector-curvature="0"
       id="path3324"
       style="font-size:40px;font-style:normal;font-weight:normal;line-height:125%;letter-spacing:0px;word-spacing:0px;fill:#000000;fill-opacity:1;stroke:none;font-family:Sans"
       d="m 330.43371,258.56546 0,-21.75904 15.73301,0 0,2.56774 -12.85357,0 0,6.66426 12.03724,0 0,2.55291 -12.03724,0 0,7.40638 13.35822,0 0,2.56775 z" />
    <path
       inkscape:connector-curvature="0"
       id="path3326"
       style="font-size:40px;font-style:normal;font-weight:normal;line-height:125%;letter-spacing:0px;word-spacing:0px;fill:#000000;fill-opacity:1;stroke:none;font-family:Sans"
       d="m 195.98968,285.55202 0,-19.19131 -7.16891,0 0,-2.56774 17.24694,0 0,2.56774 -7.19859,0 0,19.19131 z" />
    <path
       inkscape:connector-curvature="0"
       id="path3328"
       style="font-size:40px;font-style:normal;font-weight:normal;line-height:125%;letter-spacing:0px;word-spacing:0px;fill:#000000;fill-opacity:1;stroke:none;font-family:Sans"
       d="m 209.12526,285.55202 0,-21.75905 2.87944,0 0,8.93516 11.30995,0 0,-8.93516 2.87944,0 0,21.75905 -2.87944,0 0,-10.25614 -11.30995,0 0,10.25614 z" />
    <path
       inkscape:connector-curvature="0"
       id="path3330"
       style="font-size:40px;font-style:normal;font-weight:normal;line-height:125%;letter-spacing:0px;word-spacing:0px;fill:#000000;fill-opacity:1;stroke:none;font-family:Sans"
       d="m 228.61341,285.55202 8.35631,-21.75905 3.10208,0 8.90547,21.75905 -3.28018,0 -2.53806,-6.59006 -9.09843,0 -2.38964,6.59006 z m 6.27836,-8.93516 7.37671,0 -2.2709,-6.02605 c -0.69266,-1.83055 -1.2072,-3.33459 -1.54361,-4.5121 -0.27708,1.3952 -0.66793,2.7805 -1.17256,4.15589 z" />
    <path
       inkscape:connector-curvature="0"
       id="path3332"
       style="font-size:40px;font-style:normal;font-weight:normal;line-height:125%;letter-spacing:0px;word-spacing:0px;fill:#000000;fill-opacity:1;stroke:none;font-family:Sans"
       d="m 251.27785,285.55202 0,-21.75905 2.95365,0 11.4287,17.08367 0,-17.08367 2.76069,0 0,21.75905 -2.95365,0 -11.42869,-17.09852 0,17.09852 z" />
    <path
       inkscape:connector-curvature="0"
       id="path3334"
       style="font-size:40px;font-style:normal;font-weight:normal;line-height:125%;letter-spacing:0px;word-spacing:0px;fill:#000000;fill-opacity:1;stroke:none;font-family:Sans"
       d="m 273.15564,285.55202 0,-21.75905 2.87944,0 0,10.79047 10.80531,-10.79047 3.90357,0 -9.12812,8.81642 9.52887,12.94263 -3.79967,0 -7.74777,-11.01311 -3.56219,3.47313 0,7.53998 z" />
    <path
       inkscape:connector-curvature="0"
       id="path3336"
       style="font-size:40px;font-style:normal;font-weight:normal;line-height:125%;letter-spacing:0px;word-spacing:0px;fill:#000000;fill-opacity:1;stroke:none;font-family:Sans"
       d="m 293.72729,285.55202 0,-21.75905 14.6792,0 0,2.56774 -11.79976,0 0,6.73848 10.21162,0 0,2.56775 -10.21162,0 0,9.88508 z" />
    <path
       inkscape:connector-curvature="0"
       id="path3338"
       style="font-size:40px;font-style:normal;font-weight:normal;line-height:125%;letter-spacing:0px;word-spacing:0px;fill:#000000;fill-opacity:1;stroke:none;font-family:Sans"
       d="m 324.41977,263.79297 2.87944,0 0,12.57157 c -2e-5,2.18679 -0.24739,3.92335 -0.74213,5.20969 -0.49477,1.28636 -1.38778,2.33275 -2.67906,3.13918 -1.29131,0.80645 -2.98582,1.20967 -5.08354,1.20967 -2.03838,0 -3.70568,-0.35128 -5.00192,-1.05382 -1.29624,-0.70254 -2.22142,-1.71925 -2.77553,-3.05012 -0.55413,-1.33088 -0.83118,-3.14907 -0.83118,-5.4546 l 0,-12.57157 2.87943,0 0,12.55672 c 0,1.88994 0.17564,3.28266 0.52691,4.17815 0.35127,0.8955 0.95486,1.58567 1.81079,2.07053 0.8559,0.48485 1.9023,0.72727 3.13917,0.72727 2.11752,0 3.6265,-0.4799 4.52696,-1.43971 0.90042,-0.95981 1.35064,-2.80522 1.35066,-5.53624 z" />
    <path
       inkscape:connector-curvature="0"
       id="path3340"
       style="font-size:40px;font-style:normal;font-weight:normal;line-height:125%;letter-spacing:0px;word-spacing:0px;fill:#000000;fill-opacity:1;stroke:none;font-family:Sans"
       d="m 332.99958,286.56217 0,-21.75905 2.87943,0 0,19.1913 10.71626,0 0,2.56775 z" />
    <g
       id="g3313"
       transform="matrix(0.99959046,-0.02861662,0.02861662,0.99959046,-1.981446,-93.522101)"
       inkscape:transform-center-x="-53.516375"
       inkscape:transform-center-y="-1.6383719">
      <path
         d="m 197.14563,436.13109 0,-9.30015 -8.46148,-12.65478 3.53436,0 4.32808,6.61942 c 0.79872,1.23804 1.54253,2.47606 2.23144,3.71407 0.65894,-1.14815 1.45766,-2.44109 2.39617,-3.8788 l 4.25321,-6.45469 3.3846,0 -8.76101,12.65478 0,9.30015 z"
         style="font-size:40px;font-style:normal;font-weight:normal;line-height:125%;letter-spacing:0px;word-spacing:0px;fill:#000000;fill-opacity:1;stroke:none;font-family:Sans"
         id="path3265"
         inkscape:connector-curvature="0" />
      <path
         d="m 210.5642,425.43817 c 0,-3.64417 0.97844,-6.49711 2.93532,-8.55883 1.95686,-2.06169 4.48283,-3.09254 7.57789,-3.09257 2.02675,3e-5 3.85383,0.48425 5.48125,1.45269 1.62738,0.96847 2.8679,2.31881 3.72155,4.05103 0.85362,1.73224 1.28044,3.69661 1.28046,5.89309 -2e-5,2.22645 -0.44931,4.21827 -1.34785,5.97545 -0.89859,1.75719 -2.17155,3.08757 -3.8189,3.99112 -1.64738,0.90356 -3.42454,1.35534 -5.33148,1.35534 -2.06672,0 -3.91376,-0.4992 -5.54115,-1.4976 -1.6274,-0.99841 -2.86044,-2.36123 -3.69909,-4.08848 -0.83866,-1.72723 -1.258,-3.55431 -1.258,-5.48124 z m 2.99522,0.0449 c 0,2.64578 0.71136,4.72996 2.13409,6.25252 1.42273,1.52257 3.20737,2.28385 5.35395,2.28385 2.18649,0 3.98612,-0.76877 5.39887,-2.30632 1.41273,-1.53754 2.1191,-3.71905 2.11913,-6.54455 -3e-5,-1.78713 -0.30204,-3.34713 -0.90606,-4.68002 -0.60405,-1.33285 -1.48764,-2.3662 -2.65077,-3.10005 -1.16315,-0.73381 -2.46856,-1.10072 -3.91624,-1.10074 -2.05672,2e-5 -3.8264,0.70639 -5.30902,2.11911 -1.48264,1.41276 -2.22395,3.77149 -2.22395,7.0762 z"
         style="font-size:40px;font-style:normal;font-weight:normal;line-height:125%;letter-spacing:0px;word-spacing:0px;fill:#000000;fill-opacity:1;stroke:none;font-family:Sans"
         id="path3267"
         inkscape:connector-curvature="0" />
      <path
         d="m 249.6967,414.17616 2.90536,0 0,12.68474 c -2e-5,2.20648 -0.24962,3.95868 -0.7488,5.2566 -0.49923,1.29793 -1.40028,2.35374 -2.70318,3.16744 -1.30294,0.8137 -3.0127,1.22055 -5.12931,1.22055 -2.05673,0 -3.73904,-0.35443 -5.04695,-1.0633 -1.30791,-0.70887 -2.24142,-1.73473 -2.80052,-3.07758 -0.55911,-1.34286 -0.83866,-3.17742 -0.83866,-5.50371 l 0,-12.68474 2.90536,0 0,12.66976 c 0,1.90696 0.17721,3.31221 0.53165,4.21577 0.35443,0.90356 0.96345,1.59994 1.82709,2.08916 0.86361,0.48922 1.91942,0.73383 3.16743,0.73383 2.13658,0 3.65914,-0.48423 4.56771,-1.45268 0.90853,-0.96845 1.36281,-2.83048 1.36282,-5.58608 z"
         style="font-size:40px;font-style:normal;font-weight:normal;line-height:125%;letter-spacing:0px;word-spacing:0px;fill:#000000;fill-opacity:1;stroke:none;font-family:Sans"
         id="path3269"
         inkscape:connector-curvature="0" />
      <path
         d="m 263.54958,436.13109 8.43153,-21.95493 3.13,0 8.98565,21.95493 -3.30972,0 -2.56091,-6.64938 -9.18034,0 -2.41114,6.64938 z m 6.33487,-9.0156 7.44312,0 -2.29134,-6.08029 c -0.6989,-1.84703 -1.21807,-3.36461 -1.55752,-4.55273 -0.27956,1.40777 -0.67392,2.80554 -1.1831,4.19331 z"
         style="font-size:40px;font-style:normal;font-weight:normal;line-height:125%;letter-spacing:0px;word-spacing:0px;fill:#000000;fill-opacity:1;stroke:none;font-family:Sans"
         id="path3271"
         inkscape:connector-curvature="0" />
      <path
         d="m 286.49293,436.13109 0,-21.95493 9.73445,0 c 1.95686,2e-5 3.44448,0.19721 4.46288,0.59155 1.01835,0.39439 1.83205,1.09078 2.44109,2.08916 0.60902,0.99843 0.91353,2.10167 0.91355,3.30972 -2e-5,1.55753 -0.50422,2.87042 -1.51259,3.93871 -1.00841,1.0683 -2.56591,1.74721 -4.67254,2.03675 0.76877,0.36941 1.35283,0.73383 1.75221,1.09325 0.84863,0.77876 1.65234,1.7522 2.41115,2.92033 l 3.8189,5.97546 -3.65417,0 -2.90536,-4.5677 c -0.84866,-1.31789 -1.54754,-2.32628 -2.09665,-3.02517 -0.54914,-0.69888 -1.04085,-1.1881 -1.47514,-1.46766 -0.43432,-0.27954 -0.87612,-0.47423 -1.32539,-0.58407 -0.32948,-0.0699 -0.86861,-0.10482 -1.61742,-0.10483 l -3.36961,0 0,9.74943 z m 2.90536,-12.26541 6.24502,0 c 1.32787,10e-6 2.36621,-0.13727 3.11503,-0.41184 0.74879,-0.27455 1.31788,-0.71385 1.70727,-1.31789 0.38937,-0.60403 0.58405,-1.26048 0.58407,-1.96936 -2e-5,-1.03833 -0.37691,-1.89196 -1.13069,-2.56091 -0.75382,-0.66892 -1.94441,-1.00338 -3.5718,-1.0034 l -6.9489,0 z"
         style="font-size:40px;font-style:normal;font-weight:normal;line-height:125%;letter-spacing:0px;word-spacing:0px;fill:#000000;fill-opacity:1;stroke:none;font-family:Sans"
         id="path3273"
         inkscape:connector-curvature="0" />
      <path
         d="m 308.6725,436.13109 0,-21.95493 15.87465,0 0,2.59086 -12.96929,0 0,6.72425 12.14561,0 0,2.57589 -12.14561,0 0,7.47306 13.47848,0 0,2.59087 z"
         style="font-size:40px;font-style:normal;font-weight:normal;line-height:125%;letter-spacing:0px;word-spacing:0px;fill:#000000;fill-opacity:1;stroke:none;font-family:Sans"
         id="path3275"
         inkscape:connector-curvature="0" />
    </g>
    <path
       inkscape:connector-curvature="0"
       id="path3277"
       style="font-size:40px;font-style:normal;font-weight:normal;line-height:125%;letter-spacing:0px;word-spacing:0px;fill:#000000;fill-opacity:1;stroke:none;font-family:Sans"
       d="m 190.93056,367.39368 0,-21.95493 2.98024,0 11.53159,17.23747 0,-17.23747 2.78555,0 0,21.95493 -2.98024,0 -11.53158,-17.25244 0,17.25244 z" />
    <path
       inkscape:connector-curvature="0"
       id="path3279"
       style="font-size:40px;font-style:normal;font-weight:normal;line-height:125%;letter-spacing:0px;word-spacing:0px;fill:#000000;fill-opacity:1;stroke:none;font-family:Sans"
       d="m 212.24152,356.70077 c 0,-3.64417 0.97844,-6.49711 2.93532,-8.55884 1.95686,-2.06169 4.48283,-3.09254 7.57789,-3.09256 2.02675,2e-5 3.85383,0.48425 5.48125,1.45269 1.62738,0.96846 2.8679,2.31881 3.72155,4.05102 0.85362,1.73225 1.28044,3.69661 1.28046,5.89309 -2e-5,2.22645 -0.4493,4.21827 -1.34785,5.97545 -0.89858,1.7572 -2.17155,3.08758 -3.8189,3.99113 -1.64738,0.90356 -3.42454,1.35534 -5.33148,1.35534 -2.06671,0 -3.91376,-0.49921 -5.54115,-1.49761 -1.6274,-0.99841 -2.86044,-2.36123 -3.69909,-4.08848 -0.83866,-1.72723 -1.258,-3.55431 -1.258,-5.48123 z m 2.99522,0.0449 c 0,2.64578 0.71136,4.72995 2.1341,6.25251 1.42272,1.52257 3.20736,2.28386 5.35394,2.28385 2.18649,10e-6 3.98612,-0.76877 5.39888,-2.30631 1.41273,-1.53754 2.11909,-3.71905 2.11912,-6.54455 -3e-5,-1.78713 -0.30204,-3.34714 -0.90606,-4.68002 -0.60405,-1.33286 -1.48764,-2.36621 -2.65077,-3.10005 -1.16315,-0.73381 -2.46856,-1.10072 -3.91624,-1.10075 -2.05672,3e-5 -3.82639,0.70639 -5.30902,2.11912 -1.48264,1.41276 -2.22395,3.77149 -2.22395,7.0762 z" />
    <path
       inkscape:connector-curvature="0"
       id="path3281"
       style="font-size:40px;font-style:normal;font-weight:normal;line-height:125%;letter-spacing:0px;word-spacing:0px;fill:#000000;fill-opacity:1;stroke:none;font-family:Sans"
       d="m 242.55311,367.39368 0,-19.36407 -7.23344,0 0,-2.59086 17.4022,0 0,2.59086 -7.2634,0 0,19.36407 z" />
    <path
       inkscape:connector-curvature="0"
       id="path3283"
       style="font-size:40px;font-style:normal;font-weight:normal;line-height:125%;letter-spacing:0px;word-spacing:0px;fill:#000000;fill-opacity:1;stroke:none;font-family:Sans"
       d="m 264.2235,367.39368 0,-21.95493 7.56292,0 c 1.70726,3e-5 3.01018,0.10485 3.90876,0.3145 1.25798,0.28955 2.33125,0.81372 3.21985,1.57248 1.15813,0.97846 2.02425,2.22897 2.59835,3.75151 0.57406,1.52259 0.86111,3.26231 0.86113,5.21917 -2e-5,1.66734 -0.19471,3.14499 -0.58407,4.43292 -0.3894,1.28795 -0.8886,2.35374 -1.49761,3.19739 -0.60904,0.84366 -1.27548,1.50759 -1.99931,1.99182 -0.72385,0.48423 -1.59746,0.85114 -2.62081,1.10074 -1.02338,0.2496 -2.199,0.3744 -3.52687,0.3744 z m 2.90535,-2.59086 4.68752,0 c 1.44768,10e-6 2.58336,-0.13478 3.40706,-0.40435 0.82367,-0.26957 1.48012,-0.64896 1.96935,-1.13819 0.68889,-0.68889 1.22553,-1.61491 1.60993,-2.77806 0.38437,-1.16313 0.57656,-2.57338 0.57658,-4.23074 -2e-5,-2.29632 -0.37691,-4.061 -1.13069,-5.29405 -0.75382,-1.23301 -1.66985,-2.05919 -2.74812,-2.47854 -0.77876,-0.2995 -2.03176,-0.44926 -3.75899,-0.44928 l -4.61264,0 z" />
    <path
       inkscape:connector-curvature="0"
       id="path3285"
       style="font-size:40px;font-style:normal;font-weight:normal;line-height:125%;letter-spacing:0px;word-spacing:0px;fill:#000000;fill-opacity:1;stroke:none;font-family:Sans"
       d="m 286.448,366.38353 0,-21.95493 15.87464,0 0,2.59086 -12.96928,0 0,6.72426 12.1456,0 0,2.57589 -12.1456,0 0,7.47306 13.47847,0 0,2.59086 z" />
    <path
       inkscape:connector-curvature="0"
       id="path3287"
       style="font-size:40px;font-style:normal;font-weight:normal;line-height:125%;letter-spacing:0px;word-spacing:0px;fill:#000000;fill-opacity:1;stroke:none;font-family:Sans"
       d="m 304.46422,366.38353 8.43154,-21.95493 3.13,0 8.98565,21.95493 -3.30972,0 -2.5609,-6.64938 -9.18034,0 -2.41115,6.64938 z m 6.33489,-9.01559 7.44311,0 -2.29134,-6.08029 c -0.69889,-1.84704 -1.21806,-3.36461 -1.55751,-4.55273 -0.27957,1.40777 -0.67394,2.80554 -1.18311,4.1933 z" />
    <path
       inkscape:connector-curvature="0"
       id="path3289"
       style="font-size:40px;font-style:normal;font-weight:normal;line-height:125%;letter-spacing:0px;word-spacing:0px;fill:#000000;fill-opacity:1;stroke:none;font-family:Sans"
       d="m 327.36265,366.38353 0,-21.95493 7.56292,0 c 1.70726,3e-5 3.01018,0.10485 3.90876,0.3145 1.25798,0.28955 2.33126,0.81372 3.21986,1.57248 1.15813,0.97846 2.02425,2.22897 2.59835,3.75151 0.57406,1.52259 0.8611,3.26231 0.86112,5.21917 -2e-5,1.66734 -0.19471,3.14499 -0.58407,4.43292 -0.38939,1.28795 -0.8886,2.35374 -1.49761,3.19739 -0.60904,0.84366 -1.27547,1.50759 -1.9993,1.99182 -0.72386,0.48423 -1.59746,0.85114 -2.62082,1.10074 -1.02337,0.2496 -2.19899,0.3744 -3.52686,0.3744 z m 2.90536,-2.59086 4.68752,0 c 1.44767,1e-5 2.58336,-0.13478 3.40706,-0.40435 0.82367,-0.26957 1.48011,-0.64896 1.96934,-1.13819 0.68889,-0.68889 1.22553,-1.61491 1.60993,-2.77806 0.38437,-1.16313 0.57656,-2.57338 0.57659,-4.23074 -3e-5,-2.29632 -0.37692,-4.061 -1.1307,-5.29405 -0.75381,-1.23301 -1.66985,-2.05919 -2.74811,-2.47854 -0.77877,-0.2995 -2.03177,-0.44926 -3.759,-0.44928 l -4.61263,0 z" />
    <path
       transform="matrix(0.19837225,-0.74033529,0.74033529,0.19837225,84.608923,346.65298)"
       sodipodi:type="star"
       style="fill:none;stroke:#000000;stroke-width:1;stroke-miterlimit:4;stroke-opacity:1;stroke-dasharray:none"
       id="path3361"
       sodipodi:sides="18"
       sodipodi:cx="247.48737"
       sodipodi:cy="160.39749"
       sodipodi:r1="71.1371"
       sodipodi:r2="59.496185"
       sodipodi:arg1="0.78539816"
       sodipodi:arg2="0.95993109"
       inkscape:flatsided="false"
       inkscape:rounded="0"
       inkscape:randomized="0"
       d="m 297.78889,210.69902 -16.17591,-1.56511 -4.06178,15.73569 -14.66509,-7.00321 -9.19874,13.3975 -11.38544,-11.59661 -13.2262,9.44337 -6.73254,-14.7913 -15.65839,4.35024 -1.26759,-16.20194 -16.20195,-1.26759 4.35025,-15.65839 -14.79131,-6.73254 9.44338,-13.2262 -11.59662,-11.38545 13.3975,-9.19873 -7.0032,-14.6651 15.73568,-4.06177 -1.5651,-16.17591 16.17592,1.5651 4.06177,-15.735686 14.66509,7.003206 9.19874,-13.397501 11.38544,11.596621 13.2262,-9.443381 6.73254,14.791311 15.65839,-4.35025 1.26759,16.20195 16.20195,1.26759 -4.35025,15.65839 14.79131,6.73253 -9.44338,13.22621 11.59662,11.38544 -13.3975,9.19874 7.0032,14.66509 -15.73568,4.06177 z" />
    <path
       sodipodi:type="star"
       style="fill:none;stroke:#000000;stroke-width:1;stroke-miterlimit:4;stroke-opacity:1;stroke-dasharray:none"
       id="path3363"
       sodipodi:sides="18"
       sodipodi:cx="247.48737"
       sodipodi:cy="160.39749"
       sodipodi:r1="51.761681"
       sodipodi:r2="36.702599"
       sodipodi:arg1="0.78539816"
       sodipodi:arg2="0.95993109"
       inkscape:flatsided="false"
       inkscape:rounded="0"
       inkscape:randomized="0"
       d="m 284.0884,196.99853 -15.54929,-6.53603 0.82369,16.84701 -12.3761,-11.46003 -4.98801,16.11272 -7.71017,-15.00177 -10.19806,13.43501 -2.11428,-16.7341 -14.17809,9.13684 3.73662,-16.44803 -16.44803,3.73662 9.13683,-14.17809 -16.73409,-2.11428 13.43501,-10.19807 -15.00178,-7.71017 16.11273,-4.988 -11.46003,-12.3761 16.84701,0.82369 -6.53603,-15.54929 15.54929,6.53602 -0.82369,-16.847 12.3761,11.46002 4.98801,-16.11272 7.71017,15.00178 10.19806,-13.43501 2.11428,16.73409 14.1781,-9.13684 -3.73663,16.44804 16.44803,-3.73663 -9.13683,14.17809 16.73409,2.11428 -13.43501,10.19807 15.00178,7.71017 -16.11273,4.988 11.46003,12.3761 -16.84701,-0.82368 z"
       transform="matrix(0.19837225,-0.74033529,0.74033529,0.19837225,84.608923,323.41947)" />
    <flowRoot
       xml:space="preserve"
       id="flowRoot3372"
       style="font-size:40px;font-style:normal;font-weight:normal;line-height:125%;letter-spacing:0px;word-spacing:0px;fill:#000000;fill-opacity:1;stroke:none;font-family:Sans"><flowRegion
         id="flowRegion3374"><rect
           id="rect3376"
           width="151.52289"
           height="177.78685"
           x="195.96959"
           y="506.87982" /></flowRegion><flowPara
         id="flowPara3378" /></flowRoot>    <g
       id="g3467"
       inkscape:transform-center-x="15.628182"
       inkscape:transform-center-y="-7.0075573"
       transform="matrix(1.0352642,0.01511614,-0.01511614,1.0352642,-5.1676488,-111.94185)">
      <path
         d="m 197.46971,490.33704 c 0,-3.84013 1.03105,-6.84649 3.09317,-9.01908 2.06209,-2.17256 4.72389,-3.25885 7.98539,-3.25887 2.13574,2e-5 4.06107,0.51029 5.776,1.5308 1.71489,1.02055 3.02212,2.44351 3.92168,4.26888 0.89952,1.82539 1.34929,3.89539 1.34932,6.20999 -3e-5,2.34617 -0.47347,4.4451 -1.42034,6.29677 -0.9469,1.85169 -2.28832,3.25361 -4.02426,4.20575 -1.73597,0.95215 -3.60869,1.42822 -5.61818,1.42822 -2.17785,0 -4.12422,-0.52604 -5.83912,-1.57813 -1.71492,-1.0521 -3.01426,-2.48821 -3.89801,-4.30834 -0.88376,-1.82011 -1.32565,-3.74544 -1.32565,-5.77599 z m 3.15629,0.0473 c 0,2.78806 0.74961,4.9843 2.24885,6.58874 1.49923,1.60445 3.37985,2.40667 5.64186,2.40666 2.30407,10e-6 4.20047,-0.81011 5.6892,-2.43033 1.4887,-1.62022 2.23305,-3.91905 2.23307,-6.89648 -2e-5,-1.88324 -0.31828,-3.52713 -0.95477,-4.93169 -0.63654,-1.40453 -1.56764,-2.49345 -2.79332,-3.26676 -1.2257,-0.77327 -2.60131,-1.15991 -4.12684,-1.15993 -2.16732,2e-5 -4.03216,0.74437 -5.59451,2.23306 -1.56237,1.48874 -2.34354,3.97431 -2.34354,7.45673 z"
         style="font-size:40px;font-style:normal;font-weight:normal;line-height:125%;letter-spacing:0px;word-spacing:0px;fill:#000000;fill-opacity:1;stroke:none;font-family:Sans"
         id="path3393"
         inkscape:connector-curvature="0" />
      <path
         d="m 229.4113,501.60497 0,-20.40538 -7.62242,0 0,-2.73018 18.33801,0 0,2.73018 -7.65399,0 0,20.40538 z"
         style="font-size:40px;font-style:normal;font-weight:normal;line-height:125%;letter-spacing:0px;word-spacing:0px;fill:#000000;fill-opacity:1;stroke:none;font-family:Sans"
         id="path3395"
         inkscape:connector-curvature="0" />
      <path
         d="m 243.37786,501.60497 0,-23.13556 3.06159,0 0,9.50041 12.02544,0 0,-9.50041 3.0616,0 0,23.13556 -3.0616,0 0,-10.90496 -12.02544,0 0,10.90496 z"
         style="font-size:40px;font-style:normal;font-weight:normal;line-height:125%;letter-spacing:0px;word-spacing:0px;fill:#000000;fill-opacity:1;stroke:none;font-family:Sans"
         id="path3397"
         inkscape:connector-curvature="0" />
      <path
         d="m 266.7028,501.60497 0,-23.13556 16.7283,0 0,2.73018 -13.66671,0 0,7.08586 12.79873,0 0,2.71441 -12.79873,0 0,7.87492 14.20327,0 0,2.73019 z"
         style="font-size:40px;font-style:normal;font-weight:normal;line-height:125%;letter-spacing:0px;word-spacing:0px;fill:#000000;fill-opacity:1;stroke:none;font-family:Sans"
         id="path3399"
         inkscape:connector-curvature="0" />
      <path
         d="m 288.276,501.60497 0,-23.13556 10.25792,0 c 2.06208,3e-5 3.62971,0.20781 4.70286,0.62336 1.07311,0.4156 1.93057,1.14944 2.57236,2.20151 0.64176,1.05212 0.96266,2.21468 0.96267,3.4877 -1e-5,1.64128 -0.53133,3.02478 -1.59392,4.15051 -1.06263,1.12575 -2.7039,1.84117 -4.92381,2.14628 0.81011,0.38928 1.42558,0.77329 1.84643,1.15204 0.89427,0.82064 1.74121,1.84643 2.54081,3.07737 l 4.02426,6.29679 -3.85066,0 -3.0616,-4.81333 c -0.8943,-1.38876 -1.63075,-2.45138 -2.20939,-3.18785 -0.57867,-0.73646 -1.09683,-1.25198 -1.55447,-1.54658 -0.45768,-0.29458 -0.92323,-0.49973 -1.39666,-0.61548 -0.34721,-0.0736 -0.91533,-0.11045 -1.70439,-0.11046 l -3.55082,0 0,10.2737 z m 3.06159,-12.92498 6.58085,0 c 1.39927,1e-5 2.49345,-0.14465 3.28253,-0.43399 0.78906,-0.28931 1.38875,-0.75224 1.79908,-1.38876 0.4103,-0.63651 0.61546,-1.32826 0.61548,-2.07526 -2e-5,-1.09417 -0.39718,-1.99371 -1.1915,-2.69863 -0.79434,-0.70488 -2.04896,-1.05733 -3.76386,-1.05735 l -7.32258,0 z"
         style="font-size:40px;font-style:normal;font-weight:normal;line-height:125%;letter-spacing:0px;word-spacing:0px;fill:#000000;fill-opacity:1;stroke:none;font-family:Sans"
         id="path3401"
         inkscape:connector-curvature="0" />
      <path
         d="m 310.54357,494.17192 2.888,-0.2525 c 0.13677,1.15731 0.45503,2.10682 0.95478,2.84854 0.49974,0.74173 1.27566,1.34143 2.32776,1.79908 1.05208,0.45767 2.23569,0.6865 3.55082,0.68649 1.16781,10e-6 2.19886,-0.17359 3.09315,-0.52078 0.89427,-0.34719 1.55972,-0.82326 1.99636,-1.42822 0.43659,-0.60495 0.6549,-1.26513 0.65492,-1.98057 -2e-5,-0.72594 -0.21043,-1.35982 -0.63126,-1.90165 -0.42085,-0.54183 -1.11523,-0.99686 -2.08314,-1.3651 -0.62075,-0.24197 -1.99373,-0.6181 -4.11895,-1.12837 -2.12524,-0.51026 -3.61395,-0.99159 -4.46614,-1.444 -1.1047,-0.57864 -1.92797,-1.29669 -2.46979,-2.15417 -0.54184,-0.85744 -0.81275,-1.81748 -0.81275,-2.8801 0,-1.16781 0.33141,-2.25936 0.99423,-3.27464 0.66282,-1.01526 1.63074,-1.78591 2.90378,-2.31198 1.27303,-0.52603 2.68809,-0.78906 4.2452,-0.78907 1.71491,10e-6 3.22729,0.27619 4.53716,0.82852 1.30984,0.55237 2.31723,1.36512 3.02214,2.43822 0.70489,1.07316 1.08364,2.28833 1.13626,3.64551 l -2.93534,0.22094 c -0.15783,-1.46239 -0.69177,-2.56709 -1.60181,-3.31409 -0.91008,-0.74697 -2.25413,-1.12047 -4.03216,-1.12048 -1.85169,10e-6 -3.201,0.33932 -4.04793,1.01789 -0.84694,0.67863 -1.27041,1.49663 -1.27041,2.45402 0,0.83117 0.29985,1.51503 0.89954,2.05159 0.58917,0.53658 2.12786,1.0863 4.61608,1.64915 2.48819,0.56288 4.1952,1.05474 5.12107,1.47556 1.34666,0.62075 2.34089,1.40719 2.98268,2.35933 0.64176,0.95215 0.96264,2.04895 0.96267,3.29042 -3e-5,1.23096 -0.35247,2.39089 -1.05736,3.4798 -0.70492,1.08892 -1.71756,1.93586 -3.03792,2.54081 -1.32039,0.60496 -2.80647,0.90743 -4.45825,0.90743 -2.09368,0 -3.84805,-0.3051 -5.2631,-0.91532 -1.41508,-0.61021 -2.52503,-1.52817 -3.32988,-2.75386 -0.80486,-1.22568 -1.22833,-2.61182 -1.27041,-4.1584 z"
         style="font-size:40px;font-style:normal;font-weight:normal;line-height:125%;letter-spacing:0px;word-spacing:0px;fill:#000000;fill-opacity:1;stroke:none;font-family:Sans"
         id="path3403"
         inkscape:connector-curvature="0" />
    </g>
    <g
       id="g3459"
       transform="matrix(1.035261,-0.01533488,0.01533488,1.035261,-21.854562,-114.08657)">
      <path
         d="m 195.86001,542.0054 8.88494,-23.13556 3.29832,0 9.46885,23.13556 -3.4877,0 -2.69862,-7.00696 -9.67401,0 -2.54081,7.00696 z m 6.67554,-9.50041 7.84337,0 -2.41457,-6.40726 c -0.73647,-1.94636 -1.28356,-3.54554 -1.64126,-4.79755 -0.29459,1.48347 -0.71017,2.9564 -1.24673,4.41879 z"
         style="font-size:40px;font-style:normal;font-weight:normal;line-height:125%;letter-spacing:0px;word-spacing:0px;fill:#000000;fill-opacity:1;stroke:none;font-family:Sans"
         id="path3405"
         inkscape:connector-curvature="0" />
      <path
         d="m 220.03714,542.0054 0,-23.13556 10.25792,0 c 2.0621,3e-5 3.62971,0.20781 4.70287,0.62336 1.07312,0.4156 1.93058,1.14944 2.57237,2.20151 0.64176,1.05212 0.96264,2.21468 0.96267,3.4877 -3e-5,1.64128 -0.53133,3.02478 -1.59393,4.15051 -1.06263,1.12575 -2.70389,1.84117 -4.9238,2.14628 0.8101,0.38928 1.42557,0.77329 1.84643,1.15204 0.89426,0.82064 1.74119,1.84643 2.54081,3.07737 l 4.02426,6.29679 -3.85067,0 -3.06159,-4.81333 c -0.8943,-1.38876 -1.63077,-2.45138 -2.20941,-3.18785 -0.57866,-0.73646 -1.09681,-1.25198 -1.55446,-1.54658 -0.45768,-0.29458 -0.92323,-0.49973 -1.39666,-0.61548 -0.3472,-0.0736 -0.91533,-0.11045 -1.7044,-0.11046 l -3.55081,0 0,10.2737 z m 3.0616,-12.92498 6.58085,0 c 1.39927,10e-6 2.49345,-0.14465 3.28253,-0.43399 0.78906,-0.28932 1.38875,-0.75224 1.79909,-1.38876 0.4103,-0.63651 0.61545,-1.32826 0.61547,-2.07526 -2e-5,-1.09417 -0.39718,-1.99371 -1.19149,-2.69863 -0.79436,-0.70488 -2.04898,-1.05733 -3.76388,-1.05735 l -7.32257,0 z"
         style="font-size:40px;font-style:normal;font-weight:normal;line-height:125%;letter-spacing:0px;word-spacing:0px;fill:#000000;fill-opacity:1;stroke:none;font-family:Sans"
         id="path3407"
         inkscape:connector-curvature="0" />
      <path
         d="m 243.40942,542.0054 0,-23.13556 16.72831,0 0,2.73018 -13.66672,0 0,7.08586 12.79874,0 0,2.71441 -12.79874,0 0,7.87492 14.20328,0 0,2.73019 z"
         style="font-size:40px;font-style:normal;font-weight:normal;line-height:125%;letter-spacing:0px;word-spacing:0px;fill:#000000;fill-opacity:1;stroke:none;font-family:Sans"
         id="path3409"
         inkscape:connector-curvature="0" />
      <path
         d="m 273.86755,542.0054 0,-23.13556 3.14051,0 12.1517,18.16441 0,-18.16441 2.93534,0 0,23.13556 -3.14051,0 -12.15169,-18.1802 0,18.1802 z"
         style="font-size:40px;font-style:normal;font-weight:normal;line-height:125%;letter-spacing:0px;word-spacing:0px;fill:#000000;fill-opacity:1;stroke:none;font-family:Sans"
         id="path3411"
         inkscape:connector-curvature="0" />
      <path
         d="m 296.32451,530.73747 c 0,-3.84014 1.03105,-6.84649 3.09316,-9.01908 2.0621,-2.17256 4.7239,-3.25885 7.9854,-3.25887 2.13574,2e-5 4.06107,0.51029 5.776,1.5308 1.71489,1.02055 3.02212,2.44351 3.92168,4.26887 0.89952,1.8254 1.34929,3.8954 1.34932,6.20999 -3e-5,2.34618 -0.47347,4.44511 -1.42034,6.29678 -0.9469,1.85169 -2.28832,3.25361 -4.02426,4.20575 -1.73597,0.95215 -3.6087,1.42822 -5.61818,1.42822 -2.17785,0 -4.12422,-0.52604 -5.83912,-1.57814 -1.71492,-1.0521 -3.01426,-2.4882 -3.89801,-4.30833 -0.88376,-1.82011 -1.32565,-3.74544 -1.32565,-5.77599 z m 3.15629,0.0473 c 0,2.78805 0.74961,4.9843 2.24885,6.58874 1.49923,1.60445 3.37985,2.40667 5.64186,2.40666 2.30407,10e-6 4.20047,-0.81011 5.6892,-2.43033 1.4887,-1.62022 2.23305,-3.91905 2.23307,-6.89649 -2e-5,-1.88323 -0.31828,-3.52712 -0.95477,-4.93168 -0.63654,-1.40453 -1.56764,-2.49345 -2.79332,-3.26676 -1.2257,-0.77327 -2.60131,-1.15991 -4.12684,-1.15994 -2.16732,3e-5 -4.03216,0.74438 -5.59451,2.23307 -1.56237,1.48874 -2.34354,3.97431 -2.34354,7.45673 z"
         style="font-size:40px;font-style:normal;font-weight:normal;line-height:125%;letter-spacing:0px;word-spacing:0px;fill:#000000;fill-opacity:1;stroke:none;font-family:Sans"
         id="path3413"
         inkscape:connector-curvature="0" />
      <path
         d="m 328.2661,542.0054 0,-20.40538 -7.62242,0 0,-2.73018 18.33801,0 0,2.73018 -7.65399,0 0,20.40538 z"
         style="font-size:40px;font-style:normal;font-weight:normal;line-height:125%;letter-spacing:0px;word-spacing:0px;fill:#000000;fill-opacity:1;stroke:none;font-family:Sans"
         id="path3415"
         inkscape:connector-curvature="0" />
    </g>
    <g
       id="g3450"
       transform="matrix(1.0353745,0,0,1.0353745,-15.842627,-116.67884)"
       style="stroke:#000000">
      <path
         d="m 195.43762,574.93029 9.86839,-22.73348 3.29529,0.14137 8.46854,23.52014 -3.4845,-0.14949 -2.39581,-7.11618 -9.66513,-0.41464 -2.83879,6.89162 z m 7.0766,-9.20556 7.83617,0.33617 -2.13773,-6.50486 c -0.65237,-1.97614 -1.13042,-3.5973 -1.43413,-4.86349 -0.3579,1.46948 -0.83623,2.92325 -1.43498,4.3613 z"
         style="font-size:40px;font-style:normal;font-weight:normal;line-height:125%;letter-spacing:0px;word-spacing:0px;fill:#000000;fill-opacity:1;stroke:#000000;font-family:Sans"
         id="path3417"
         inkscape:connector-curvature="0" />
      <path
         d="m 218.8232,568.49365 2.89617,-0.12848 c 0.087,1.1621 0.36431,2.12438 0.83181,2.88684 0.46749,0.76247 1.217,1.39486 2.24851,1.8972 1.03151,0.50233 2.20422,0.78169 3.51813,0.83805 1.16674,0.0501 2.20429,-0.0792 3.11265,-0.38773 0.90832,-0.30854 1.59356,-0.75565 2.05572,-1.34134 0.46213,-0.58568 0.70854,-1.2359 0.73921,-1.95068 0.0311,-0.72527 -0.15195,-1.36759 -0.54916,-1.92697 -0.39724,-0.55936 -1.07149,-1.04373 -2.02273,-1.45312 -0.60981,-0.26835 -1.9654,-0.70299 -4.0668,-1.30388 -2.10142,-0.60088 -3.56813,-1.14557 -4.40014,-1.63409 -1.0789,-0.62546 -1.87062,-1.37813 -2.3752,-2.25805 -0.50458,-0.87987 -0.7341,-1.85064 -0.68855,-2.9123 0.05,-1.16672 0.42794,-2.24307 1.13367,-3.22901 0.70572,-0.98591 1.70579,-1.71437 3.0002,-2.1854 1.29442,-0.47097 2.71945,-0.67311 4.27513,-0.60638 1.71332,0.0735 3.21248,0.41426 4.49747,1.02222 1.28497,0.60801 2.25658,1.46318 2.91487,2.56551 0.65823,1.10239 0.98455,2.33268 0.97896,3.69086 l -2.94211,0.0949 c -0.095,-1.46781 -0.5811,-2.59438 -1.4583,-3.3797 -0.87722,-0.78529 -2.20403,-1.21605 -3.98042,-1.29227 -1.85,-0.0794 -3.21261,0.20181 -4.08785,0.84346 -0.87525,0.64169 -1.33339,1.4408 -1.37441,2.3973 -0.0356,0.83042 0.23463,1.5265 0.81078,2.08826 0.56563,0.56135 2.07933,1.17651 4.54114,1.84549 2.46177,0.66901 4.14615,1.23358 5.05311,1.6937 1.31883,0.6779 2.27843,1.50623 2.87884,2.485 0.60035,0.97878 0.87393,2.08833 0.82074,3.32866 -0.0528,1.22983 -0.45462,2.37358 -1.20553,3.43128 -0.75095,1.05771 -1.79895,1.86047 -3.14403,2.40827 -1.34511,0.5478 -2.84279,0.78631 -4.49305,0.71551 -2.09174,-0.0897 -3.83142,-0.46975 -5.21903,-1.14006 -1.38761,-0.67031 -2.45721,-1.63499 -3.20879,-2.89405 -0.75158,-1.25906 -1.11524,-2.66207 -1.09101,-4.20903 z"
         style="font-size:40px;font-style:normal;font-weight:normal;line-height:125%;letter-spacing:0px;word-spacing:0px;fill:#000000;fill-opacity:1;stroke:#000000;font-family:Sans"
         id="path3419"
         inkscape:connector-curvature="0" />
      <path
         d="m 249.94385,577.26862 0.99161,-23.1143 3.05878,0.13122 -0.87459,20.38662 11.38371,0.48837 -0.11702,2.72768 z"
         style="font-size:40px;font-style:normal;font-weight:normal;line-height:125%;letter-spacing:0px;word-spacing:0px;fill:#000000;fill-opacity:1;stroke:#000000;font-family:Sans"
         id="path3421"
         inkscape:connector-curvature="0" />
      <path
         d="m 284.20365,555.58154 3.05878,0.13122 -0.57291,13.35458 c -0.0997,2.323 -0.4416,4.15645 -1.02577,5.50035 -0.5842,1.34393 -1.58053,2.4148 -2.98898,3.21262 -1.40848,0.79782 -3.22692,1.14893 -5.45529,1.05334 -2.16534,-0.0929 -3.92049,-0.54203 -5.26543,-1.3474 -1.34497,-0.80538 -2.28144,-1.92757 -2.80941,-3.36659 -0.52799,-1.43902 -0.73945,-3.38308 -0.63437,-5.83222 l 0.57292,-13.35458 3.05877,0.13123 -0.57224,13.3388 c -0.0861,2.00766 0.037,3.49512 0.36932,4.46241 0.33234,0.96727 0.94207,1.72794 1.8292,2.282 0.88712,0.55406 1.98764,0.85927 3.30156,0.91564 2.2494,0.0965 3.87425,-0.34453 4.87452,-1.32308 1.00026,-0.97856 1.56261,-2.9184 1.68709,-5.81952 z"
         style="font-size:40px;font-style:normal;font-weight:normal;line-height:125%;letter-spacing:0px;word-spacing:0px;fill:#000000;fill-opacity:1;stroke:#000000;font-family:Sans"
         id="path3423"
         inkscape:connector-curvature="0" />
      <path
         d="m 308.21917,571.64954 3.02563,0.9038 c -0.74897,2.48469 -1.98477,4.35088 -3.70738,5.59856 -1.72264,1.2477 -3.7875,1.81991 -6.19457,1.71665 -2.49118,-0.10688 -4.49547,-0.70096 -6.01287,-1.78227 -1.51741,-1.08129 -2.64218,-2.6012 -3.37428,-4.55971 -0.73209,-1.9585 -1.05079,-4.04145 -0.9561,-6.24882 0.10327,-2.40707 0.65321,-4.48697 1.64983,-6.23971 0.99662,-1.75268 2.36367,-3.05776 4.10116,-3.91519 1.73746,-0.8574 3.62579,-1.24238 5.66499,-1.15491 2.31247,0.0992 4.23179,0.77128 5.758,2.01616 1.52617,1.24491 2.55358,2.94756 3.08222,5.10795 l -3.04192,0.58032 c -0.46394,-1.7048 -1.18924,-2.96272 -2.1759,-3.77381 -0.98669,-0.81104 -2.2526,-1.24972 -3.79775,-1.31602 -1.77642,-0.0762 -3.2794,0.28581 -4.50894,1.08603 -1.22956,0.80024 -2.11688,1.90739 -2.66194,3.32142 -0.54508,1.41405 -0.8503,2.88314 -0.91569,4.40727 -0.0843,1.96562 0.12849,3.69387 0.63845,5.18476 0.50995,1.49091 1.35378,2.62492 2.53146,3.40206 1.17768,0.77714 2.47078,1.19591 3.87929,1.25633 1.71333,0.0735 3.18508,-0.35828 4.41525,-1.29539 1.23015,-0.9371 2.09716,-2.36893 2.60106,-4.29548 z"
         style="font-size:40px;font-style:normal;font-weight:normal;line-height:125%;letter-spacing:0px;word-spacing:0px;fill:#000000;fill-opacity:1;stroke:#000000;font-family:Sans"
         id="path3425"
         inkscape:connector-curvature="0" />
      <path
         d="m 314.5882,580.04188 0.99161,-23.1143 3.05879,0.13122 -0.49175,11.46255 11.97006,-10.97012 4.14669,0.17789 -10.09843,8.94956 9.53253,14.183 -4.03633,-0.17316 -7.72843,-12.05214 -3.94234,3.52712 -0.34361,8.0096 z"
         style="font-size:40px;font-style:normal;font-weight:normal;line-height:125%;letter-spacing:0px;word-spacing:0px;fill:#000000;fill-opacity:1;stroke:#000000;font-family:Sans"
         id="path3427"
         inkscape:connector-curvature="0" />
      <path
         d="m 342.79521,581.25197 0.42005,-9.79126 -8.33674,-13.70521 3.721,0.15963 4.25765,7.16446 c 0.78498,1.33949 1.51216,2.67648 2.18152,4.01098 0.7456,-1.17902 1.6449,-2.50416 2.6979,-3.97541 l 4.76933,-6.60344 3.56333,0.15287 -9.79521,12.92734 -0.42005,9.79126 z"
         style="font-size:40px;font-style:normal;font-weight:normal;line-height:125%;letter-spacing:0px;word-spacing:0px;fill:#000000;fill-opacity:1;stroke:#000000;font-family:Sans"
         id="path3429"
         inkscape:connector-curvature="0" />
    </g>
    <g
       id="g4384"
       transform="matrix(0.9187348,0,0,0.9187348,23.087599,-38.798259)">
      <path
         d="m 181.82891,621.1247 0,-28.63281 3.88672,0 15.03907,22.48047 0,-22.48047 3.63281,0 0,28.63281 -3.88672,0 -15.03906,-22.5 0,22.5 z"
         id="path4253"
         inkscape:connector-curvature="0"
         style="font-size:40px;font-style:normal;font-weight:normal;line-height:125%;letter-spacing:0px;word-spacing:0px;fill:none;stroke:#000000;font-family:Sans" />
      <path
         d="m 209.62188,607.17939 c 0,-4.75259 1.27604,-8.47329 3.82813,-11.16211 2.55207,-2.68878 5.84634,-4.03318 9.88281,-4.03321 2.64321,3e-5 5.02602,0.63154 7.14844,1.89454 2.12237,1.26304 3.74021,3.02411 4.85351,5.2832 1.11326,2.25913 1.6699,4.82098 1.66993,7.68555 -3e-5,2.90365 -0.58597,5.50131 -1.75782,7.79296 -1.1719,2.29167 -2.83205,4.0267 -4.98047,5.20508 -2.14845,1.17839 -4.46616,1.76758 -6.95312,1.76758 -2.69533,0 -5.10418,-0.65104 -7.22656,-1.95312 -2.1224,-1.30209 -3.73048,-3.07943 -4.82422,-5.33204 -1.09375,-2.25259 -1.64063,-4.6354 -1.64063,-7.14843 z m 3.90625,0.0586 c 0,3.45053 0.92773,6.16863 2.78321,8.1543 1.85546,1.98568 4.18293,2.97852 6.98242,2.97851 2.85154,10e-6 5.19855,-1.0026 7.04101,-3.00781 1.84243,-2.0052 2.76365,-4.85025 2.76368,-8.53516 -3e-5,-2.33071 -0.39391,-4.36521 -1.18164,-6.10351 -0.78779,-1.73826 -1.94013,-3.08592 -3.45704,-4.04297 -1.51694,-0.95701 -3.21941,-1.43552 -5.10742,-1.43555 -2.6823,3e-5 -4.99024,0.92125 -6.92383,2.76367 -1.9336,1.84247 -2.90039,4.91864 -2.90039,9.22852 z"
         id="path4255"
         inkscape:connector-curvature="0"
         style="font-size:40px;font-style:normal;font-weight:normal;line-height:125%;letter-spacing:0px;word-spacing:0px;fill:none;stroke:#000000;font-family:Sans" />
      <path
         d="m 251.80938,607.17939 c 0,-4.75259 1.27604,-8.47329 3.82813,-11.16211 2.55207,-2.68878 5.84634,-4.03318 9.88281,-4.03321 2.64321,3e-5 5.02602,0.63154 7.14844,1.89454 2.12237,1.26304 3.74021,3.02411 4.85351,5.2832 1.11326,2.25913 1.6699,4.82098 1.66993,7.68555 -3e-5,2.90365 -0.58597,5.50131 -1.75782,7.79296 -1.1719,2.29167 -2.83205,4.0267 -4.98047,5.20508 -2.14845,1.17839 -4.46616,1.76758 -6.95312,1.76758 -2.69533,0 -5.10418,-0.65104 -7.22656,-1.95312 -2.1224,-1.30209 -3.73048,-3.07943 -4.82422,-5.33204 -1.09375,-2.25259 -1.64063,-4.6354 -1.64063,-7.14843 z m 3.90625,0.0586 c 0,3.45053 0.92773,6.16863 2.78321,8.1543 1.85546,1.98568 4.18293,2.97852 6.98242,2.97851 2.85154,10e-6 5.19855,-1.0026 7.04101,-3.00781 1.84243,-2.0052 2.76365,-4.85025 2.76368,-8.53516 -3e-5,-2.33071 -0.39391,-4.36521 -1.18164,-6.10351 -0.78779,-1.73826 -1.94013,-3.08592 -3.45704,-4.04297 -1.51694,-0.95701 -3.21941,-1.43552 -5.10742,-1.43555 -2.6823,3e-5 -4.99024,0.92125 -6.92383,2.76367 -1.9336,1.84247 -2.90039,4.91864 -2.90039,9.22852 z"
         id="path4257"
         inkscape:connector-curvature="0"
         style="font-size:40px;font-style:normal;font-weight:normal;line-height:125%;letter-spacing:0px;word-spacing:0px;fill:none;stroke:#000000;font-family:Sans" />
      <path
         d="m 284.01641,621.1247 0,-28.63281 3.88672,0 15.03907,22.48047 0,-22.48047 3.63281,0 0,28.63281 -3.88672,0 -15.03906,-22.5 0,22.5 z"
         id="path4259"
         inkscape:connector-curvature="0"
         style="font-size:40px;font-style:normal;font-weight:normal;line-height:125%;letter-spacing:0px;word-spacing:0px;fill:none;stroke:#000000;font-family:Sans" />
      <path
         d="m 313.03985,621.1247 0,-28.63281 20.70313,0 0,3.3789 -16.91407,0 0,8.76953 15.83985,0 0,3.35938 -15.83985,0 0,9.74609 17.57813,0 0,3.37891 z"
         id="path4261"
         inkscape:connector-curvature="0"
         style="font-size:40px;font-style:normal;font-weight:normal;line-height:125%;letter-spacing:0px;word-spacing:0px;fill:none;stroke:#000000;font-family:Sans" />
    </g>
    <g
       id="g4337"
       transform="matrix(0.76202394,0,0,0.76202394,-72.047433,83.183872)">
      <path
         d="m 371.20391,611.08564 3.78907,0.95703 c -0.7943,3.11198 -2.22333,5.48503 -4.28711,7.11914 -2.06382,1.63411 -4.58661,2.45117 -7.56836,2.45117 -3.08595,0 -5.59571,-0.62825 -7.5293,-1.88477 -1.9336,-1.2565 -3.40495,-3.07616 -4.41406,-5.45898 -1.00912,-2.3828 -1.51367,-4.94139 -1.51367,-7.67578 0,-2.98175 0.56966,-5.58266 1.70898,-7.80274 1.13932,-2.22002 2.76041,-3.90622 4.86328,-5.05859 2.10286,-1.15231 4.41731,-1.72849 6.94336,-1.72851 2.86457,2e-5 5.27342,0.72919 7.22656,2.1875 1.95311,1.45835 3.31378,3.50913 4.08204,6.15234 l -3.73047,0.87891 c -0.66409,-2.08332 -1.62763,-3.60024 -2.89063,-4.55079 -1.26304,-0.95049 -2.85158,-1.42575 -4.76562,-1.42578 -2.20054,3e-5 -4.03973,0.52737 -5.51758,1.58203 -1.47787,1.05471 -2.51628,2.47073 -3.11524,4.24805 -0.59896,1.77736 -0.89844,3.61004 -0.89843,5.49805 -10e-6,2.43491 0.35481,4.56055 1.06445,6.37695 0.70963,1.81641 1.81314,3.17383 3.31055,4.07227 1.49738,0.89844 3.11847,1.34766 4.86328,1.34765 2.12238,10e-6 3.91925,-0.61197 5.39062,-1.83593 1.47134,-1.22396 2.46743,-3.04036 2.98828,-5.44922 z"
         id="path4263"
         inkscape:connector-curvature="0"
         style="font-size:40px;font-style:normal;font-weight:normal;line-height:125%;letter-spacing:0px;word-spacing:0px;fill:none;stroke:#000000;font-family:Sans" />
      <path
         d="m 376.53595,621.1247 10.99609,-28.63281 4.08203,0 11.71875,28.63281 -4.31641,0 -3.33984,-8.67188 -11.97266,0 -3.14453,8.67188 z m 8.26171,-11.75781 9.70704,0 -2.98829,-7.92969 c -0.91147,-2.40883 -1.58855,-4.388 -2.03125,-5.9375 -0.36459,1.83596 -0.87891,3.65888 -1.54296,5.46875 z"
         id="path4265"
         inkscape:connector-curvature="0"
         style="font-size:40px;font-style:normal;font-weight:normal;line-height:125%;letter-spacing:0px;word-spacing:0px;fill:none;stroke:#000000;font-family:Sans" />
      <path
         d="m 406.36016,621.1247 0,-28.63281 3.88672,0 15.03907,22.48047 0,-22.48047 3.63281,0 0,28.63281 -3.88672,0 -15.03906,-22.5 0,22.5 z"
         id="path4267"
         inkscape:connector-curvature="0"
         style="font-size:40px;font-style:normal;font-weight:normal;line-height:125%;letter-spacing:0px;word-spacing:0px;fill:none;stroke:#000000;font-family:Sans" />
      <path
         d="m 446.28204,621.1247 0,-28.63281 5.70312,0 6.77735,20.27343 c 0.62498,1.88803 1.08071,3.30079 1.36719,4.23829 0.3255,-1.04167 0.83331,-2.57161 1.52343,-4.58985 l 6.85547,-19.92187 5.09766,0 0,28.63281 -3.65235,0 0,-23.96484 -8.32031,23.96484 -3.41797,0 -8.28125,-24.375 0,24.375 z"
         id="path4269"
         inkscape:connector-curvature="0"
         style="font-size:40px;font-style:normal;font-weight:normal;line-height:125%;letter-spacing:0px;word-spacing:0px;fill:none;stroke:#000000;font-family:Sans" />
      <path
         d="m 480.40313,621.1247 0,-28.63281 3.78907,0 0,28.63281 z"
         id="path4271"
         inkscape:connector-curvature="0"
         style="font-size:40px;font-style:normal;font-weight:normal;line-height:125%;letter-spacing:0px;word-spacing:0px;fill:none;stroke:#000000;font-family:Sans" />
      <path
         d="m 489.56329,611.92548 3.57422,-0.3125 c 0.16926,1.4323 0.56314,2.60743 1.18164,3.52539 0.61848,0.91797 1.57877,1.66016 2.88086,2.22656 1.30207,0.56641 2.76691,0.84962 4.39453,0.84961 1.4453,10e-6 2.72134,-0.21484 3.82812,-0.64453 1.10676,-0.42968 1.93032,-1.01887 2.47071,-1.76758 0.54034,-0.74869 0.81052,-1.56574 0.81054,-2.45117 -2e-5,-0.89843 -0.26043,-1.68293 -0.78125,-2.35351 -0.52085,-0.67057 -1.38022,-1.23372 -2.57812,-1.68946 -0.76825,-0.29946 -2.46746,-0.76496 -5.09766,-1.39648 -2.63021,-0.6315 -4.47266,-1.2272 -5.52734,-1.78711 -1.36719,-0.71613 -2.38607,-1.6048 -3.05664,-2.66602 -0.67058,-1.06118 -1.00586,-2.24933 -1.00586,-3.56445 0,-1.44529 0.41015,-2.7962 1.23047,-4.05273 0.82031,-1.25649 2.01822,-2.21026 3.59375,-2.86133 1.57551,-0.65102 3.32681,-0.97654 5.2539,-0.97656 2.12239,2e-5 3.99413,0.34182 5.61524,1.02539 1.62107,0.68362 2.86782,1.68948 3.74023,3.01757 0.87238,1.32815 1.34113,2.83206 1.40625,4.51172 l -3.63281,0.27344 c -0.19533,-1.80987 -0.85614,-3.17706 -1.98242,-4.10156 -1.12632,-0.92446 -2.78973,-1.3867 -4.99024,-1.38672 -2.29167,2e-5 -3.96159,0.41995 -5.00976,1.25976 -1.04818,0.83987 -1.57227,1.85224 -1.57227,3.03711 0,1.02867 0.37109,1.87502 1.11328,2.53907 0.72916,0.66408 2.63346,1.34442 5.7129,2.04101 3.07941,0.69663 5.19203,1.30536 6.33789,1.82617 1.66664,0.76825 2.89711,1.74155 3.6914,2.91993 0.79425,1.17839 1.19138,2.53581 1.19141,4.07226 -3e-5,1.52345 -0.43622,2.95899 -1.3086,4.30664 -0.87241,1.34766 -2.12567,2.39584 -3.75976,3.14453 -1.63413,0.7487 -3.47332,1.12305 -5.51758,1.12305 -2.59116,0 -4.76238,-0.3776 -6.51367,-1.13281 -1.75131,-0.75521 -3.125,-1.89128 -4.12109,-3.40821 -0.9961,-1.51692 -1.52019,-3.23241 -1.57227,-5.14648 z"
         id="path4273"
         inkscape:connector-curvature="0"
         style="font-size:40px;font-style:normal;font-weight:normal;line-height:125%;letter-spacing:0px;word-spacing:0px;fill:none;stroke:#000000;font-family:Sans" />
      <path
         d="m 516.28204,611.92548 3.57422,-0.3125 c 0.16926,1.4323 0.56314,2.60743 1.18164,3.52539 0.61848,0.91797 1.57877,1.66016 2.88086,2.22656 1.30207,0.56641 2.76691,0.84962 4.39453,0.84961 1.4453,10e-6 2.72134,-0.21484 3.82812,-0.64453 1.10676,-0.42968 1.93032,-1.01887 2.47071,-1.76758 0.54034,-0.74869 0.81052,-1.56574 0.81054,-2.45117 -2e-5,-0.89843 -0.26043,-1.68293 -0.78125,-2.35351 -0.52085,-0.67057 -1.38022,-1.23372 -2.57812,-1.68946 -0.76825,-0.29946 -2.46746,-0.76496 -5.09766,-1.39648 -2.63021,-0.6315 -4.47266,-1.2272 -5.52734,-1.78711 -1.36719,-0.71613 -2.38607,-1.6048 -3.05664,-2.66602 -0.67058,-1.06118 -1.00586,-2.24933 -1.00586,-3.56445 0,-1.44529 0.41015,-2.7962 1.23047,-4.05273 0.82031,-1.25649 2.01822,-2.21026 3.59375,-2.86133 1.57551,-0.65102 3.32681,-0.97654 5.2539,-0.97656 2.12239,2e-5 3.99413,0.34182 5.61524,1.02539 1.62107,0.68362 2.86782,1.68948 3.74023,3.01757 0.87238,1.32815 1.34113,2.83206 1.40625,4.51172 l -3.63281,0.27344 c -0.19533,-1.80987 -0.85614,-3.17706 -1.98242,-4.10156 -1.12632,-0.92446 -2.78973,-1.3867 -4.99024,-1.38672 -2.29167,2e-5 -3.96159,0.41995 -5.00976,1.25976 -1.04818,0.83987 -1.57227,1.85224 -1.57227,3.03711 0,1.02867 0.37109,1.87502 1.11328,2.53907 0.72916,0.66408 2.63346,1.34442 5.7129,2.04101 3.07941,0.69663 5.19203,1.30536 6.33789,1.82617 1.66664,0.76825 2.89711,1.74155 3.6914,2.91993 0.79425,1.17839 1.19138,2.53581 1.19141,4.07226 -3e-5,1.52345 -0.43622,2.95899 -1.3086,4.30664 -0.87241,1.34766 -2.12567,2.39584 -3.75976,3.14453 -1.63413,0.7487 -3.47332,1.12305 -5.51758,1.12305 -2.59116,0 -4.76238,-0.3776 -6.51367,-1.13281 -1.75131,-0.75521 -3.125,-1.89128 -4.12109,-3.40821 -0.9961,-1.51692 -1.52019,-3.23241 -1.57227,-5.14648 z"
         id="path4275"
         inkscape:connector-curvature="0"
         style="font-size:40px;font-style:normal;font-weight:normal;line-height:125%;letter-spacing:0px;word-spacing:0px;fill:none;stroke:#000000;font-family:Sans" />
    </g>
    <g
       id="g4346"
       transform="matrix(0.70420198,0,0,0.70420198,56.687712,111.97431)">
      <path
         d="m 189.93438,671.1247 0,-12.12891 -11.03515,-16.5039 4.60937,0 5.64453,8.63281 c 1.04166,1.6146 2.01171,3.22918 2.91016,4.84375 0.85936,-1.49738 1.90103,-3.18358 3.125,-5.05859 l 5.54687,-8.41797 4.41407,0 -11.42578,16.5039 0,12.12891 z"
         id="path4277"
         inkscape:connector-curvature="0"
         style="font-size:40px;font-style:normal;font-weight:normal;line-height:125%;letter-spacing:0px;word-spacing:0px;fill:none;stroke:#000000;font-family:Sans" />
      <path
         d="m 207.43438,657.17939 c 0,-4.75259 1.27604,-8.47329 3.82813,-11.16211 2.55207,-2.68878 5.84634,-4.03318 9.88281,-4.03321 2.64321,3e-5 5.02602,0.63154 7.14844,1.89454 2.12237,1.26304 3.74021,3.02411 4.85351,5.2832 1.11326,2.25913 1.6699,4.82098 1.66993,7.68555 -3e-5,2.90365 -0.58597,5.50131 -1.75782,7.79296 -1.1719,2.29167 -2.83205,4.0267 -4.98047,5.20508 -2.14845,1.17839 -4.46616,1.76758 -6.95312,1.76758 -2.69533,0 -5.10418,-0.65104 -7.22656,-1.95312 -2.1224,-1.30209 -3.73048,-3.07943 -4.82422,-5.33204 -1.09375,-2.25259 -1.64063,-4.6354 -1.64063,-7.14843 z m 3.90625,0.0586 c 0,3.45053 0.92773,6.16863 2.78321,8.1543 1.85546,1.98568 4.18293,2.97852 6.98242,2.97851 2.85154,10e-6 5.19855,-1.0026 7.04101,-3.00781 1.84243,-2.0052 2.76365,-4.85025 2.76368,-8.53516 -3e-5,-2.33071 -0.39391,-4.36521 -1.18164,-6.10351 -0.78779,-1.73826 -1.94013,-3.08592 -3.45704,-4.04297 -1.51694,-0.95701 -3.21941,-1.43552 -5.10742,-1.43555 -2.6823,3e-5 -4.99024,0.92125 -6.92383,2.76367 -1.9336,1.84247 -2.90039,4.91864 -2.90039,9.22852 z"
         id="path4279"
         inkscape:connector-curvature="0"
         style="font-size:40px;font-style:normal;font-weight:normal;line-height:125%;letter-spacing:0px;word-spacing:0px;fill:none;stroke:#000000;font-family:Sans" />
      <path
         d="m 258.46954,642.49189 3.78906,0 0,16.54297 c -2e-5,2.87761 -0.32554,5.16276 -0.97656,6.85546 -0.65107,1.69272 -1.82619,3.06967 -3.52539,4.13086 -1.69924,1.0612 -3.92905,1.5918 -6.68945,1.5918 -2.68231,0 -4.87632,-0.46224 -6.58204,-1.38672 -1.70573,-0.92448 -2.92318,-2.26237 -3.65234,-4.01367 -0.72917,-1.7513 -1.09375,-4.14387 -1.09375,-7.17773 l 0,-16.54297 3.78906,0 0,16.52343 c 0,2.48699 0.23112,4.31967 0.69336,5.49805 0.46223,1.17839 1.2565,2.08659 2.38282,2.72461 1.12629,0.63802 2.50324,0.95703 4.13085,0.95703 2.78645,0 4.77212,-0.63151 5.95704,-1.89453 1.18487,-1.26301 1.77732,-3.6914 1.77734,-7.28516 z"
         id="path4281"
         inkscape:connector-curvature="0"
         style="font-size:40px;font-style:normal;font-weight:normal;line-height:125%;letter-spacing:0px;word-spacing:0px;fill:none;stroke:#000000;font-family:Sans" />
      <path
         d="m 284.68048,671.1247 -7.59766,-28.63281 3.88672,0 4.35547,18.76953 c 0.46874,1.96615 0.87238,3.91927 1.21094,5.85937 0.72915,-3.05989 1.15884,-4.82421 1.28906,-5.29297 l 5.44922,-19.33593 4.57031,0 4.10156,14.49218 c 1.02862,3.59376 1.77081,6.97267 2.22656,10.13672 0.36456,-1.80989 0.83982,-3.88671 1.42579,-6.23047 l 4.49218,-18.39843 3.8086,0 -7.85157,28.63281 -3.65234,0 -6.03516,-21.81641 c -0.50783,-1.82289 -0.80731,-2.94268 -0.89843,-3.35937 -0.2995,1.31513 -0.57945,2.43492 -0.83985,3.35937 l -6.07422,21.81641 z"
         id="path4283"
         inkscape:connector-curvature="0"
         style="font-size:40px;font-style:normal;font-weight:normal;line-height:125%;letter-spacing:0px;word-spacing:0px;fill:none;stroke:#000000;font-family:Sans" />
      <path
         d="m 317.53204,671.1247 0,-28.63281 3.78906,0 0,11.75781 14.88281,0 0,-11.75781 3.78907,0 0,28.63281 -3.78907,0 0,-13.49609 -14.88281,0 0,13.49609 z"
         id="path4285"
         inkscape:connector-curvature="0"
         style="font-size:40px;font-style:normal;font-weight:normal;line-height:125%;letter-spacing:0px;word-spacing:0px;fill:none;stroke:#000000;font-family:Sans" />
      <path
         d="m 346.39923,671.1247 0,-28.63281 20.70312,0 0,3.3789 -16.91406,0 0,8.76953 15.83984,0 0,3.35938 -15.83984,0 0,9.74609 17.57812,0 0,3.37891 z"
         id="path4287"
         inkscape:connector-curvature="0"
         style="font-size:40px;font-style:normal;font-weight:normal;line-height:125%;letter-spacing:0px;word-spacing:0px;fill:none;stroke:#000000;font-family:Sans" />
      <path
         d="m 373.00079,671.1247 0,-28.63281 3.88672,0 15.03906,22.48047 0,-22.48047 3.63281,0 0,28.63281 -3.88672,0 -15.03906,-22.5 0,22.5 z"
         id="path4289"
         inkscape:connector-curvature="0"
         style="font-size:40px;font-style:normal;font-weight:normal;line-height:125%;letter-spacing:0px;word-spacing:0px;fill:none;stroke:#000000;font-family:Sans" />
    </g>
    <g
       id="g4378"
       transform="matrix(0.67441658,0,0,0.67441658,63.894994,154.2335)">
      <path
         d="m 181.86798,721.1247 0,-28.63281 9.86328,0 c 2.22655,3e-5 3.92576,0.13674 5.09765,0.41015 1.64061,0.37763 3.04035,1.06123 4.19922,2.05078 1.5104,1.27607 2.63995,2.90693 3.38868,4.89258 0.74867,1.9857 1.12302,4.25458 1.12304,6.80664 -2e-5,2.17449 -0.25393,4.10158 -0.76172,5.78125 -0.50783,1.6797 -1.15888,3.06967 -1.95312,4.16992 -0.7943,1.10027 -1.66344,1.96615 -2.60742,2.59766 -0.94403,0.63151 -2.08336,1.11003 -3.41797,1.43555 -1.33465,0.32552 -2.86786,0.48828 -4.59961,0.48828 z m 3.78906,-3.37891 6.11328,0 c 1.88801,10e-6 3.36913,-0.17577 4.44336,-0.52734 1.0742,-0.35156 1.93032,-0.84635 2.56836,-1.48438 0.89842,-0.89843 1.59829,-2.10611 2.09961,-3.62304 0.50128,-1.51692 0.75193,-3.35611 0.75195,-5.51758 -2e-5,-2.99478 -0.49156,-5.29621 -1.47461,-6.9043 -0.98309,-1.60805 -2.17775,-2.68552 -3.58398,-3.23242 -1.01564,-0.3906 -2.64976,-0.58591 -4.90235,-0.58594 l -6.01562,0 z"
         id="path4301"
         inkscape:connector-curvature="0"
         style="font-size:40px;font-style:normal;font-weight:normal;line-height:125%;letter-spacing:0px;word-spacing:0px;fill:none;stroke:#000000;font-family:Sans" />
      <path
         d="m 210.85235,721.1247 0,-28.63281 20.70313,0 0,3.3789 -16.91407,0 0,8.76953 15.83985,0 0,3.35938 -15.83985,0 0,9.74609 17.57813,0 0,3.37891 z"
         id="path4303"
         inkscape:connector-curvature="0"
         style="font-size:40px;font-style:normal;font-weight:normal;line-height:125%;letter-spacing:0px;word-spacing:0px;fill:none;stroke:#000000;font-family:Sans" />
      <path
         d="m 234.34845,721.1247 10.99609,-28.63281 4.08203,0 11.71875,28.63281 -4.31641,0 -3.33984,-8.67188 -11.97266,0 -3.14453,8.67188 z m 8.26171,-11.75781 9.70704,0 -2.98829,-7.92969 c -0.91147,-2.40883 -1.58855,-4.388 -2.03125,-5.9375 -0.36459,1.83596 -0.87891,3.65888 -1.54296,5.46875 z"
         id="path4305"
         inkscape:connector-curvature="0"
         style="font-size:40px;font-style:normal;font-weight:normal;line-height:125%;letter-spacing:0px;word-spacing:0px;fill:none;stroke:#000000;font-family:Sans" />
      <path
         d="m 264.21173,721.1247 0,-28.63281 9.86328,0 c 2.22655,3e-5 3.92576,0.13674 5.09765,0.41015 1.64061,0.37763 3.04035,1.06123 4.19922,2.05078 1.5104,1.27607 2.63995,2.90693 3.38868,4.89258 0.74867,1.9857 1.12302,4.25458 1.12304,6.80664 -2e-5,2.17449 -0.25393,4.10158 -0.76172,5.78125 -0.50783,1.6797 -1.15888,3.06967 -1.95312,4.16992 -0.7943,1.10027 -1.66344,1.96615 -2.60742,2.59766 -0.94403,0.63151 -2.08336,1.11003 -3.41797,1.43555 -1.33465,0.32552 -2.86786,0.48828 -4.59961,0.48828 z m 3.78906,-3.37891 6.11328,0 c 1.88801,10e-6 3.36913,-0.17577 4.44336,-0.52734 1.0742,-0.35156 1.93032,-0.84635 2.56836,-1.48438 0.89842,-0.89843 1.59829,-2.10611 2.09961,-3.62304 0.50128,-1.51692 0.75193,-3.35611 0.75195,-5.51758 -2e-5,-2.99478 -0.49156,-5.29621 -1.47461,-6.9043 -0.98309,-1.60805 -2.17775,-2.68552 -3.58398,-3.23242 -1.01564,-0.3906 -2.64976,-0.58591 -4.90235,-0.58594 l -6.01562,0 z"
         id="path4307"
         inkscape:connector-curvature="0"
         style="font-size:40px;font-style:normal;font-weight:normal;line-height:125%;letter-spacing:0px;word-spacing:0px;fill:none;stroke:#000000;font-family:Sans" />
    </g>
    <g
       style="font-size:40px;font-style:normal;font-weight:normal;line-height:125%;letter-spacing:0px;word-spacing:0px;fill:#000000;fill-opacity:1;stroke:none;font-family:Sans"
       id="flowRoot4355"
       transform="matrix(0.7217675,0,0,0.7217675,82.585939,38.338363)">
      <path
         d="m 146.74609,796.89169 0,-25.25391 -9.43359,0 0,-3.3789 22.69531,0 0,3.3789 -9.47265,0 0,25.25391 z"
         id="path4364"
         inkscape:connector-curvature="0" />
      <path
         d="m 164.03125,796.89169 0,-28.63281 3.78906,0 0,11.75781 14.88281,0 0,-11.75781 3.78907,0 0,28.63281 -3.78907,0 0,-13.49609 -14.88281,0 0,13.49609 z"
         id="path4366"
         inkscape:connector-curvature="0" />
      <path
         d="m 192.89844,796.89169 0,-28.63281 20.70312,0 0,3.3789 -16.91406,0 0,8.76953 15.83984,0 0,3.35938 -15.83984,0 0,9.74609 17.57812,0 0,3.37891 z"
         id="path4368"
         inkscape:connector-curvature="0" />
      <path
         d="m 227.60547,796.89169 0,-12.12891 -11.03516,-16.5039 4.60938,0 5.64453,8.63281 c 1.04165,1.6146 2.01171,3.22918 2.91015,4.84375 0.85937,-1.49738 1.90103,-3.18358 3.125,-5.05859 l 5.54688,-8.41797 4.41406,0 -11.42578,16.5039 0,12.12891 z"
         id="path4370"
         inkscape:connector-curvature="0" />
      <path
         d="m 245.82812,778.3956 -0.89843,-5.35157 0,-4.78515 4.0039,0 0,4.78515 -0.9375,5.35157 z"
         id="path4372"
         inkscape:connector-curvature="0" />
      <path
         d="m 253.97266,796.89169 0,-28.63281 12.69531,0 c 2.55206,3e-5 4.49217,0.25719 5.82031,0.77148 1.3281,0.51435 2.3893,1.42255 3.18359,2.72461 0.79425,1.30211 1.19139,2.74091 1.19141,4.31641 -2e-5,2.03127 -0.65758,3.7435 -1.97266,5.13672 -1.31512,1.39324 -3.34637,2.27865 -6.09375,2.65625 1.00259,0.48178 1.76431,0.95704 2.28516,1.42578 1.10675,1.01563 2.15493,2.28516 3.14453,3.80859 l 4.98047,7.79297 -4.76562,0 -3.78907,-5.95703 c -1.10679,-1.71874 -2.01824,-3.03385 -2.73437,-3.94531 -0.71616,-0.91145 -1.35744,-1.54947 -1.92383,-1.91407 -0.56642,-0.36457 -1.14259,-0.61847 -1.72852,-0.76172 -0.4297,-0.0911 -1.13282,-0.1367 -2.10937,-0.13671 l -4.39453,0 0,12.71484 z m 3.78906,-15.99609 8.14453,0 c 1.73175,1e-5 3.08592,-0.17902 4.0625,-0.53711 0.97654,-0.35806 1.71873,-0.93098 2.22656,-1.71875 0.50779,-0.78775 0.7617,-1.64386 0.76172,-2.56836 -2e-5,-1.35415 -0.49156,-2.46743 -1.47461,-3.33985 -0.98309,-0.87237 -2.53582,-1.30857 -4.6582,-1.30859 l -9.0625,0 z"
         id="path4374"
         inkscape:connector-curvature="0" />
      <path
         d="m 282.89844,796.89169 0,-28.63281 20.70312,0 0,3.3789 -16.91406,0 0,8.76953 15.83984,0 0,3.35938 -15.83984,0 0,9.74609 17.57812,0 0,3.37891 z"
         id="path4376"
         inkscape:connector-curvature="0" />
    </g>
  </g>
</svg>
