<?xml version="1.0" encoding="UTF-8" standalone="no"?>
<!-- Created with Inkscape (http://www.inkscape.org/) -->

<svg
   xmlns:dc="http://purl.org/dc/elements/1.1/"
   xmlns:cc="http://creativecommons.org/ns#"
   xmlns:rdf="http://www.w3.org/1999/02/22-rdf-syntax-ns#"
   xmlns:svg="http://www.w3.org/2000/svg"
   xmlns="http://www.w3.org/2000/svg"
   xmlns:sodipodi="http://sodipodi.sourceforge.net/DTD/sodipodi-0.dtd"
   xmlns:inkscape="http://www.inkscape.org/namespaces/inkscape"
   width="744.09448819"
   height="1052.3622047"
   id="svg3783"
   version="1.1"
   inkscape:version="0.48.2 r9819"
   sodipodi:docname="cards001.svg">
  <sodipodi:namedview
     id="base"
     pagecolor="#ffffff"
     bordercolor="#666666"
     borderopacity="1.0"
     inkscape:pageopacity="0.0"
     inkscape:pageshadow="2"
     inkscape:zoom="0.49497475"
     inkscape:cx="191.00187"
     inkscape:cy="684.82151"
     inkscape:document-units="px"
     inkscape:current-layer="layer1"
     showgrid="false"
     inkscape:window-width="1280"
     inkscape:window-height="749"
     inkscape:window-x="-4"
     inkscape:window-y="-4"
     inkscape:window-maximized="1" />
  <defs
     id="defs3785" />
  <metadata
     id="metadata3788">
    <rdf:RDF>
      <cc:Work
         rdf:about="">
        <dc:format>image/svg+xml</dc:format>
        <dc:type
           rdf:resource="http://purl.org/dc/dcmitype/StillImage" />
        <dc:title></dc:title>
      </cc:Work>
    </rdf:RDF>
  </metadata>
  <g
     inkscape:label="Layer 1"
     inkscape:groupmode="layer"
     id="layer1">
    <flowRoot
       xml:space="preserve"
       id="flowRoot3475"
       style="fill:black;stroke:none;stroke-opacity:1;stroke-width:1px;stroke-linejoin:miter;stroke-linecap:butt;fill-opacity:1;font-family:Sans;font-style:normal;font-weight:normal;font-size:40px;line-height:125%;letter-spacing:0px;word-spacing:0px"><flowRegion
         id="flowRegion3477"><rect
           id="rect3479"
           width="474.7717"
           height="76.771591"
           x="40.406101"
           y="840.23016" /></flowRegion><flowPara
         id="flowPara3481" /></flowRoot>    <rect
       style="fill:none;stroke:#000000;stroke-width:1.19831538;stroke-miterlimit:4;stroke-opacity:1;stroke-dasharray:none"
       id="rect3005"
       width="246.51921"
       height="152.35725"
       x="7.7728319"
       y="17.88991" />
    <g
       transform="matrix(0,1.1542093,-1.6701003,0,442.53198,266.75301)"
       id="g3184">
      <g
         transform="matrix(1.3396491,0,0,1.3396491,71.134779,-58.513152)"
         id="g3226">
        <path
           id="path3022"
           d="m -211.16896,168.97777 0,15.54546 m 0,-15.54546 6.66234,0 2.22078,0.74026 0.74026,0.74026 0.74026,1.48052 0,1.48052 -0.74026,1.48052 -0.74026,0.74026 -2.22078,0.74026 -6.66234,0 m 5.18182,0 5.18182,8.14286"
           style="fill:none;stroke:#000000;stroke-width:0.74025977"
           inkscape:connector-curvature="0" />
        <path
           id="path3024"
           d="m -191.92221,168.97777 -1.48052,0.74026 -1.48052,1.48052 -0.74026,1.48052 -0.74026,2.22078 0,3.7013 0.74026,2.22078 0.74026,1.48052 1.48052,1.48052 1.48052,0.74026 2.96104,0 1.48052,-0.74026 1.48052,-1.48052 0.74026,-1.48052 0.74026,-2.22078 0,-3.7013 -0.74026,-2.22078 -0.74026,-1.48052 -1.48052,-1.48052 -1.48052,-0.74026 -2.96104,0"
           style="fill:none;stroke:#000000;stroke-width:0.74025977"
           inkscape:connector-curvature="0" />
        <path
           id="path3026"
           d="m -179.33779,168.97777 0,15.54546 m 0,-15.54546 6.66234,0 2.22078,0.74026 0.74026,0.74026 0.74026,1.48052 0,1.48052 -0.74026,1.48052 -0.74026,0.74026 -2.22078,0.74026 m -6.66234,0 6.66234,0 2.22078,0.74026 0.74026,0.74026 0.74026,1.48052 0,2.22078 -0.74026,1.48052 -0.74026,0.74026 -2.22078,0.74026 -6.66234,0"
           style="fill:none;stroke:#000000;stroke-width:0.74025977"
           inkscape:connector-curvature="0" />
        <path
           id="path3028"
           d="m -160.09104,168.97777 -1.48052,0.74026 -1.48052,1.48052 -0.74026,1.48052 -0.74026,2.22078 0,3.7013 0.74026,2.22078 0.74026,1.48052 1.48052,1.48052 1.48052,0.74026 2.96104,0 1.48052,-0.74026 1.48052,-1.48052 0.74026,-1.48052 0.74026,-2.22078 0,-3.7013 -0.74026,-2.22078 -0.74026,-1.48052 -1.48052,-1.48052 -1.48052,-0.74026 -2.96104,0"
           style="fill:none;stroke:#000000;stroke-width:0.74025977"
           inkscape:connector-curvature="0" />
        <path
           id="path3030"
           d="m -144.54558,168.97777 0,15.54546 m -5.18182,-15.54546 10.36364,0"
           style="fill:none;stroke:#000000;stroke-width:0.74025977"
           inkscape:connector-curvature="0" />
        <path
           id="path3032"
           d="m -135.66247,168.97777 0,15.54546"
           style="fill:none;stroke:#000000;stroke-width:0.74025977"
           inkscape:connector-curvature="0" />
        <path
           id="path3034"
           d="m -119.37675,172.67907 -0.74026,-1.48052 -1.48052,-1.48052 -1.48052,-0.74026 -2.96104,0 -1.48052,0.74026 -1.48052,1.48052 -0.74026,1.48052 -0.74026,2.22078 0,3.7013 0.74026,2.22078 0.74026,1.48052 1.48052,1.48052 1.48052,0.74026 2.96104,0 1.48052,-0.74026 1.48052,-1.48052 0.74026,-1.48052"
           style="fill:none;stroke:#000000;stroke-width:0.74025977"
           inkscape:connector-curvature="0" />
      </g>
    </g>
    <path
       id="path3036"
       d=""
       style="fill:none;stroke:#000000;stroke-width:0.74025977"
       inkscape:connector-curvature="0" />
    <g
       transform="matrix(0,1.5103119,-2.2323791,0,498.25276,177.7489)"
       id="g3193">
      <path
         inkscape:connector-curvature="0"
         style="fill:none;stroke:#000000;stroke-width:0.74025977"
         d="m -102.35078,168.97777 0,15.54546 m 0,-15.54546 5.181819,0 2.220779,0.74026 1.48052,1.48052 0.740259,1.48052 0.74026,2.22078 0,3.7013 -0.74026,2.22078 -0.740259,1.48052 -1.48052,1.48052 -2.220779,0.74026 -5.181819,0"
         id="path3038" />
      <path
         inkscape:connector-curvature="0"
         style="fill:none;stroke:#000000;stroke-width:0.74025977"
         d="m -86.805325,168.97777 0,15.54546 m 0,-15.54546 6.662337,0 2.22078,0.74026 0.740259,0.74026 0.74026,1.48052 0,1.48052 -0.74026,1.48052 -0.740259,0.74026 -2.22078,0.74026 -6.662337,0 m 5.181818,0 5.181818,8.14286"
         id="path3040" />
      <path
         inkscape:connector-curvature="0"
         style="fill:none;stroke:#000000;stroke-width:0.74025977"
         d="m -67.558571,168.97777 -5.922078,15.54546 m 5.922078,-15.54546 5.922078,15.54546 m -9.623377,-5.18182 7.402598,0"
         id="path3042" />
      <path
         inkscape:connector-curvature="0"
         style="fill:none;stroke:#000000;stroke-width:0.74025977"
         d="m -59.415714,168.97777 3.701298,15.54546 m 3.701299,-15.54546 -3.701299,15.54546 m 3.701299,-15.54546 3.701299,15.54546 m 3.701298,-15.54546 -3.701298,15.54546"
         id="path3044" />
      <path
         inkscape:connector-curvature="0"
         style="fill:none;stroke:#000000;stroke-width:0.74025977"
         d="m -40.168961,168.97777 0,15.54546"
         id="path3046" />
      <path
         inkscape:connector-curvature="0"
         style="fill:none;stroke:#000000;stroke-width:0.74025977"
         d="m -34.246883,168.97777 0,15.54546 m 0,-15.54546 10.363636,15.54546 m 0,-15.54546 0,15.54546"
         id="path3048" />
      <path
         inkscape:connector-curvature="0"
         style="fill:none;stroke:#000000;stroke-width:0.74025977"
         d="m -7.5975321,172.67907 -0.7402597,-1.48052 -1.4805195,-1.48052 -1.4805197,-0.74026 -2.961039,0 -1.480519,0.74026 -1.48052,1.48052 -0.740259,1.48052 -0.74026,2.22078 0,3.7013 0.74026,2.22078 0.740259,1.48052 1.48052,1.48052 1.480519,0.74026 2.961039,0 1.4805197,-0.74026 1.4805195,-1.48052 0.7402597,-1.48052 0,-2.22078 m -3.7012989,0 3.7012989,0"
         id="path3050" />
    </g>
    <path
       id="path3052"
       d=""
       style="fill:none;stroke:#000000;stroke-width:0.74025977"
       inkscape:connector-curvature="0" />
    <g
       transform="matrix(0,1.1265633,-1.098994,0,265.74806,12.449653)"
       id="g3202">
      <path
         inkscape:connector-curvature="0"
         style="fill:none;stroke:#000000;stroke-width:0.74025977"
         d="m 19.792078,172.67907 -0.74026,-1.48052 -1.480519,-1.48052 -1.48052,-0.74026 -2.961039,0 -1.480519,0.74026 -1.48052,1.48052 -0.7402594,1.48052 -0.7402598,2.22078 0,3.7013 0.7402598,2.22078 0.7402594,1.48052 1.48052,1.48052 1.480519,0.74026 2.961039,0 1.48052,-0.74026 1.480519,-1.48052 0.74026,-1.48052"
         id="path3054" />
      <path
         inkscape:connector-curvature="0"
         style="fill:none;stroke:#000000;stroke-width:0.74025977"
         d="m 28.675195,168.97777 -1.48052,0.74026 -1.480519,1.48052 -0.74026,1.48052 -0.74026,2.22078 0,3.7013 0.74026,2.22078 0.74026,1.48052 1.480519,1.48052 1.48052,0.74026 2.961038,0 1.48052,-0.74026 1.480519,-1.48052 0.74026,-1.48052 0.74026,-2.22078 0,-3.7013 -0.74026,-2.22078 -0.74026,-1.48052 -1.480519,-1.48052 -1.48052,-0.74026 -2.961038,0"
         id="path3056" />
      <path
         inkscape:connector-curvature="0"
         style="fill:none;stroke:#000000;stroke-width:0.74025977"
         d="m 41.259611,168.97777 0,15.54546 m 0,0 8.883116,0"
         id="path3058" />
      <path
         inkscape:connector-curvature="0"
         style="fill:none;stroke:#000000;stroke-width:0.74025977"
         d="m 53.844026,168.97777 0,15.54546 m 0,0 8.883116,0"
         id="path3060" />
      <path
         inkscape:connector-curvature="0"
         style="fill:none;stroke:#000000;stroke-width:0.74025977"
         d="m 66.428442,168.97777 0,15.54546 m 0,-15.54546 9.623376,0 m -9.623376,7.4026 5.922077,0 m -5.922077,8.14286 9.623376,0"
         id="path3062" />
      <path
         inkscape:connector-curvature="0"
         style="fill:none;stroke:#000000;stroke-width:0.74025977"
         d="m 90.857013,172.67907 -0.74026,-1.48052 -1.480519,-1.48052 -1.48052,-0.74026 -2.961039,0 -1.480519,0.74026 -1.48052,1.48052 -0.740259,1.48052 -0.74026,2.22078 0,3.7013 0.74026,2.22078 0.740259,1.48052 1.48052,1.48052 1.480519,0.74026 2.961039,0 1.48052,-0.74026 1.480519,-1.48052 0.74026,-1.48052"
         id="path3064" />
      <path
         inkscape:connector-curvature="0"
         style="fill:none;stroke:#000000;stroke-width:0.74025977"
         d="m 98.99987,168.97777 0,15.54546 m -5.181818,-15.54546 10.363638,0"
         id="path3066" />
      <path
         inkscape:connector-curvature="0"
         style="fill:none;stroke:#000000;stroke-width:0.74025977"
         d="m 107.88299,168.97777 0,15.54546"
         id="path3068" />
      <path
         inkscape:connector-curvature="0"
         style="fill:none;stroke:#000000;stroke-width:0.74025977"
         d="m 111.58428,168.97777 5.92208,15.54546 m 5.92208,-15.54546 -5.92208,15.54546"
         id="path3070" />
      <path
         inkscape:connector-curvature="0"
         style="fill:none;stroke:#000000;stroke-width:0.74025977"
         d="m 127.12974,168.97777 0,15.54546 m 0,-15.54546 9.62338,0 m -9.62338,7.4026 5.92208,0 m -5.92208,8.14286 9.62338,0"
         id="path3072" />
    </g>
    <path
       id="path3074"
       d=""
       style="fill:none;stroke:#000000;stroke-width:0.74025977"
       inkscape:connector-curvature="0" />
    <g
       transform="matrix(-0.02611459,0.99061833,-1.4874384,-0.01739204,314.14807,-123.71838)"
       id="g3214">
      <path
         inkscape:connector-curvature="0"
         style="fill:none;stroke:#000000;stroke-width:0.74025977"
         d="m 155.99987,168.97777 -2.22078,0.74026 -0.74026,1.48052 0,1.48052 0.74026,1.48052 1.48052,0.74026 2.96104,0.74026 2.22078,0.74026 1.48052,1.48052 0.74026,1.48052 0,2.22078 -0.74026,1.48052 -0.74026,0.74026 -2.22078,0.74026 -2.96104,0 -2.22078,-0.74026 -0.74026,-0.74026 -0.74026,-1.48052 0,-2.22078 0.74026,-1.48052 1.48052,-1.48052 2.22078,-0.74026 2.96104,-0.74026 1.48052,-0.74026 0.74026,-1.48052 0,-1.48052 -0.74026,-1.48052 -2.22078,-0.74026 -2.96104,0"
         id="path3076" />
      <path
         inkscape:connector-curvature="0"
         style="fill:none;stroke:#000000;stroke-width:0.74025977"
         d="m 169.32454,171.93881 1.48052,-0.74026 2.22078,-2.22078 0,15.54546"
         id="path3078" />
      <path
         inkscape:connector-curvature="0"
         style="fill:none;stroke:#000000;stroke-width:0.74025977"
         d="m 182.64922,172.67907 0,-0.74026 0.74026,-1.48052 0.74026,-0.74026 1.48052,-0.74026 2.96104,0 1.48052,0.74026 0.74026,0.74026 0.74026,1.48052 0,1.48052 -0.74026,1.48052 -1.48052,2.22078 -7.4026,7.4026 10.36364,0"
         id="path3080" />
      <path
         inkscape:connector-curvature="0"
         style="fill:none;stroke:#000000;stroke-width:0.74025977"
         d="m 205.59727,168.97777 -7.4026,0 -0.74026,6.66234 0.74026,-0.74026 2.22078,-0.74026 2.22078,0 2.22078,0.74026 1.48052,1.48052 0.74026,2.22078 0,1.48052 -0.74026,2.22078 -1.48052,1.48052 -2.22078,0.74026 -2.22078,0 -2.22078,-0.74026 -0.74026,-0.74026 -0.74026,-1.48052"
         id="path3082" />
      <path
         inkscape:connector-curvature="0"
         style="fill:none;stroke:#000000;stroke-width:0.74025977"
         d="m 221.88299,168.97777 -7.4026,15.54546 m -2.96104,-15.54546 10.36364,0"
         id="path3084" />
      <path
         inkscape:connector-curvature="0"
         style="fill:none;stroke:#000000;stroke-width:0.74025977"
         d="m 235.20766,168.97777 -7.4026,0 -0.74026,6.66234 0.74026,-0.74026 2.22078,-0.74026 2.22078,0 2.22078,0.74026 1.48052,1.48052 0.74026,2.22078 0,1.48052 -0.74026,2.22078 -1.48052,1.48052 -2.22078,0.74026 -2.22078,0 -2.22078,-0.74026 -0.74026,-0.74026 -0.74026,-1.48052"
         id="path3086" />
      <path
         inkscape:connector-curvature="0"
         style="fill:none;stroke:#000000;stroke-width:0.74025977"
         d="m 245.5713,168.97777 -2.22078,0.74026 -1.48052,2.22078 -0.74026,3.7013 0,2.22078 0.74026,3.7013 1.48052,2.22078 2.22078,0.74026 1.48052,0 2.22078,-0.74026 1.48052,-2.22078 0.74026,-3.7013 0,-2.22078 -0.74026,-3.7013 -1.48052,-2.22078 -2.22078,-0.74026 -1.48052,0"
         id="path3088" />
      <path
         inkscape:connector-curvature="0"
         style="fill:none;stroke:#000000;stroke-width:0.74025977"
         d="m 265.55831,171.19855 -0.74026,-1.48052 -2.22078,-0.74026 -1.48052,0 -2.22078,0.74026 -1.48052,2.22078 -0.74026,3.7013 0,3.7013 0.74026,2.96104 1.48052,1.48052 2.22078,0.74026 0.74026,0 2.22078,-0.74026 1.48052,-1.48052 0.74026,-2.22078 0,-0.74026 -0.74026,-2.22078 -1.48052,-1.48052 -2.22078,-0.74026 -0.74026,0 -2.22078,0.74026 -1.48052,1.48052 -0.74026,2.22078"
         id="path3090" />
      <path
         inkscape:connector-curvature="0"
         style="fill:none;stroke:#000000;stroke-width:0.74025977"
         d="m 275.18169,168.97777 -2.22078,0.74026 -1.48052,2.22078 -0.74026,3.7013 0,2.22078 0.74026,3.7013 1.48052,2.22078 2.22078,0.74026 1.48052,0 2.22078,-0.74026 1.48052,-2.22078 0.74026,-3.7013 0,-2.22078 -0.74026,-3.7013 -1.48052,-2.22078 -2.22078,-0.74026 -1.48052,0"
         id="path3092" />
      <path
         inkscape:connector-curvature="0"
         style="fill:none;stroke:#000000;stroke-width:0.74025977"
         d="m 295.1687,174.15959 -0.74026,2.22078 -1.48052,1.48052 -2.22078,0.74026 -0.74026,0 -2.22078,-0.74026 -1.48052,-1.48052 -0.74026,-2.22078 0,-0.74026 0.74026,-2.22078 1.48052,-1.48052 2.22078,-0.74026 0.74026,0 2.22078,0.74026 1.48052,1.48052 0.74026,2.96104 0,3.7013 -0.74026,3.7013 -1.48052,2.22078 -2.22078,0.74026 -1.48052,0 -2.22078,-0.74026 -0.74026,-1.48052"
         id="path3094" />
    </g>
    <path
       id="path3096"
       d=""
       style="fill:none;stroke:#000000;stroke-width:0.74025977"
       inkscape:connector-curvature="0" />
    <path
       inkscape:connector-curvature="0"
       style="fill:none;stroke:#000000"
       d=""
       id="path12116" />
    <path
       inkscape:connector-curvature="0"
       style="fill:none;stroke:#000000"
       d=""
       id="path12132" />
    <path
       inkscape:connector-curvature="0"
       style="fill:none;stroke:#000000"
       d=""
       id="path12154" />
    <path
       inkscape:connector-curvature="0"
       style="fill:none;stroke:#000000"
       d=""
       id="path12176" />
    <g
       id="g12482"
       transform="matrix(0,0.66443448,-0.70195852,0,-45.021571,-445.63828)">
      <path
         id="path12178"
         d="m 705.16038,-104.16332 0,21 m 0,-21 9,0 3,1 1,1 1,2 0,2 -1,2 -1,1 -3,1 -9,0 m 7,0 7,11"
         style="fill:none;stroke:#000000"
         inkscape:connector-curvature="0" />
      <path
         id="path12180"
         d="m 731.16038,-104.16332 -2,1 -2,2 -1,2 -1,3 0,5 1,3 1,2 2,2 2,1 4,0 2,-1 2,-2 1,-2 1,-3 0,-5 -1,-3 -1,-2 -2,-2 -2,-1 -4,0"
         style="fill:none;stroke:#000000"
         inkscape:connector-curvature="0" />
      <path
         id="path12182"
         d="m 748.16038,-104.16332 0,21 m 0,-21 9,0 3,1 1,1 1,2 0,2 -1,2 -1,1 -3,1 m -9,0 9,0 3,1 1,1 1,2 0,3 -1,2 -1,1 -3,1 -9,0"
         style="fill:none;stroke:#000000"
         inkscape:connector-curvature="0" />
      <path
         id="path12184"
         d="m 774.16038,-104.16332 -2,1 -2,2 -1,2 -1,3 0,5 1,3 1,2 2,2 2,1 4,0 2,-1 2,-2 1,-2 1,-3 0,-5 -1,-3 -1,-2 -2,-2 -2,-1 -4,0"
         style="fill:none;stroke:#000000"
         inkscape:connector-curvature="0" />
      <path
         id="path12186"
         d="m 791.16038,-104.16332 0,21 m 0,-21 7,0 3,1 2,2 1,2 1,3 0,5 -1,3 -1,2 -2,2 -3,1 -7,0"
         style="fill:none;stroke:#000000"
         inkscape:connector-curvature="0" />
      <path
         id="path12188"
         d="m 812.16038,-104.16332 0,21 m 0,-21 9,0 3,1 1,1 1,2 0,2 -1,2 -1,1 -3,1 -9,0 m 7,0 7,11"
         style="fill:none;stroke:#000000"
         inkscape:connector-curvature="0" />
      <path
         id="path12190"
         d="m 838.16038,-104.16332 -8,21 m 8,-21 8,21 m -13,-7 10,0"
         style="fill:none;stroke:#000000"
         inkscape:connector-curvature="0" />
      <path
         id="path12192"
         d="m 849.16038,-104.16332 5,21 m 5,-21 -5,21 m 5,-21 5,21 m 5,-21 -5,21"
         style="fill:none;stroke:#000000"
         inkscape:connector-curvature="0" />
      <path
         id="path12194"
         d="m 875.16038,-88.16332 -1,1 1,1 1,-1 -1,-1"
         style="fill:none;stroke:#000000"
         inkscape:connector-curvature="0" />
      <path
         id="path12196"
         d="m 897.16038,-99.16332 -1,-2 -2,-2 -2,-1 -4,0 -2,1 -2,2 -1,2 -1,3 0,5 1,3 1,2 2,2 2,1 4,0 2,-1 2,-2 1,-2"
         style="fill:none;stroke:#000000"
         inkscape:connector-curvature="0" />
      <path
         id="path12198"
         d="m 909.16038,-104.16332 -2,1 -2,2 -1,2 -1,3 0,5 1,3 1,2 2,2 2,1 4,0 2,-1 2,-2 1,-2 1,-3 0,-5 -1,-3 -1,-2 -2,-2 -2,-1 -4,0"
         style="fill:none;stroke:#000000"
         inkscape:connector-curvature="0" />
    </g>
    <path
       inkscape:connector-curvature="0"
       style="fill:none;stroke:#000000"
       d=""
       id="path12200" />
    <rect
       style="fill:none;stroke:#000000;stroke-width:1.19831538;stroke-miterlimit:4;stroke-opacity:1;stroke-dasharray:none"
       id="rect12495"
       width="246.51921"
       height="152.35725"
       x="275.7323"
       y="17.88991" />
    <path
       id="path12497"
       d="m 455.59302,103.67815 c 0.50445,-0.0872 -2.9e-4,0.64419 -0.31213,0.86189 -0.85607,0.58481 -1.51129,0.21416 -1.53416,-0.35763 -0.0636,-0.99708 1.18526,-2.3408 2.37632,-2.9105 1.69145,-0.84445 2.89668,-0.0332 2.79243,1.44685 -0.22872,1.96189 -2.51619,4.19075 -4.72944,4.92997 -2.86273,0.89723 -4.52808,-0.40242 -3.97904,-2.55438 0.47266,-2.60928 3.49121,-5.753016 6.445,-6.996046 3.31175,-1.51613 5.76792,0.265404 5.4504,3.634626 -0.72074,3.86335 -5.11425,7.9034 -9.29061,8.97476 -4.98397,1.1508 -7.62577,-1.12122 -6.29111,-4.73564 0.98476,-4.0939 5.73897,-9.05947 10.38582,-11.059882 4.77976,-2.333758 8.60485,0.416876 8.25218,5.812672 -1.18904,5.87428 -7.81977,11.70338 -14.00073,12.98164 -7.22704,1.28948 -10.7654,-1.93793 -8.474,-6.89286 1.50832,-5.47232 7.93453,-12.235098 14.20571,-15.086731 6.08832,-3.277687 11.39431,0.417763 11.19974,7.972372 -1.64769,7.999029 -10.64272,15.569259 -18.86449,16.936309 -9.58347,1.31609 -13.93998,-2.83898 -10.53167,-9.01762 2.04738,-6.75044 10.08718,-15.270637 17.91212,-19.061768 7.23139,-4.33772 14.13146,0.26374 14.29453,10.105244 -2.1035,10.237534 -13.59403,19.482974 -23.8863,20.825304 -12.04538,1.23958 -17.14567,-3.80872 -12.46829,-11.10198 2.60234,-7.93351 12.2061,-18.160534 21.51281,-22.970908 8.20437,-5.50296 16.8132,-0.0483 17.53763,12.203218 -2.56274,12.58806 -16.6847,23.42658 -29.0703,24.63587 -14.60556,1.07206 -20.3795,-4.82995 -14.28826,-13.13841 3.17227,-9.02691 14.2998,-20.901738 25.01603,-26.800848 9.00413,-6.76069 19.43704,-0.52006 20.92946,14.258647 -3.03207,15.047811 -19.92554,27.381821 -34.42041,28.356241 -17.25711,0.82773 -23.63882,-5.88444 -15.99592,-15.11997 3.75561,-10.036426 16.37606,-23.493398 28.43015,-30.539648 9.62941,-8.09617 22.0014,-1.15155 24.47026,16.264801 -3.51897,17.612717 -23.32712,31.330097 -39.9404,31.975607 -19.99373,0.52275 -26.92112,-6.9529 -17.59589,-17.04012 4.35016,-10.968194 18.44188,-25.936638 31.76383,-34.176608 10.08087,-9.4928 24.50534,-1.94133 28.15987,18.215567 -4.03154,20.277711 -26.89964,35.252811 -45.634,35.484361 -22.80962,0.17489 -30.22398,-8.01529 -19.09247,-18.89296 4.95328,-11.828673 20.5033,-28.234628 35.02577,-37.702698 10.3614,-10.93254 26.94877,-2.88639 31.99775,20.105924 -4.57864,23.036564 -30.65291,39.131424 -51.50482,38.874104 -25.69959,-0.19662 -33.54497,-9.0509 -20.48992,-20.67313 5.5619,-12.624546 22.56555,-30.392338 38.22452,-41.110818 10.47623,-12.39592 29.3327,-3.98208 35.98335,21.932101 -5.1698,25.881897 -34.59631,42.947667 -57.55645,42.137737 -28.65899,-0.57147 -36.88153,-10.03858 -21.79222,-22.37601 6.17264,-13.362632 24.63276,-32.416458 41.3685,-44.395798 10.43292,-13.86285 31.65922,-5.22235 40.11601,23.69157 -5.81529,28.805248 -38.7389,46.683768 -63.79265,45.269498 -31.68393,-0.92838 -40.23112,-10.95686 -23.00304,-23.99748 6.78195,-14.04992 26.70828,-34.315258 44.46566,-47.554828 10.2415,-15.31282 33.93183,-6.59958 44.39517,25.383378 -6.52592,31.797 -43.08918,50.32268 -70.21712,48.26494 -34.77143,-1.2455 -43.59125,-11.78417 -24.12558,-25.53405 7.38585,-14.693408 28.79436,-36.098478 47.52347,-50.587398 9.914,-16.7258 36.15544,-8.10469 48.82039,27.008059 -7.31291,34.846519 -47.65535,53.848199 -76.83374,51.121089 -37.91988,-1.50079 -46.95958,-12.49919 -25.16264,-26.98288 7.98041,-15.300072 30.8924,-37.777048 50.54873,-53.495578 9.4643,-18.08275 38.3366,-9.72715 53.39144,28.56785 -8.18793,37.942138 -52.44505,57.245208 -83.64652,53.836448 -41.12948,-1.67264 -50.33446,-13.08109 -26.11632,-28.34176 8.56148,-15.87672 33.0028,-39.363048 53.54747,-56.283908 8.90752,-19.36681 40.48361,-11.45505 58.10839,30.06669 -9.16287,41.071278 -57.46561,60.499808 -90.65969,56.410788 -44.40349,-1.74049 -53.71574,-13.51005 -26.98801,-29.60894 9.12496,-16.430051 35.125,-40.869518 56.52479,-58.959538 8.25932,-20.56428 42.6068,-13.27517 62.97162,31.51015 -10.24977,44.220348 -62.72393,63.599468 -97.87775,58.845308 -47.74984,-1.68639 -57.10629,-13.76809 -27.77837,-30.78328 9.66671,-16.966526 37.25758,-42.310178 59.48518,-61.532048 7.5353,-21.66565 44.71838,-15.17306 67.98161,32.90539 -11.46068,47.375058 -68.22654,66.533188 -105.30552,61.142528 -51.18408,-1.49733 -60.51511,-13.84102 -28.4869,-31.86413 10.1828,-17.49207 39.39798,-43.699348 62.43198,-64.013268 6.75068,-22.6669 46.83303,-17.13314 73.13906,34.26091 -12.8074,50.520468 -73.97957,69.291688 -112.94827,63.306238 -54.73381,-1.1698 -63.96294,-13.72234 -29.11222,-32.85118 10.66962,-18.012349 41.54304,-45.051848 65.36817,-66.417138 5.92042,-23.57006 48.96785,-19.13895 78.44461,35.58641 -14.30156,53.640988 -79.98896,71.867348 -120.81201,65.341178 -58.44499,-0.71851 -67.49223,-13.42302 -29.65145,-33.74435 11.12377,-18.532505 43.68854,-46.382718 68.29608,-68.759388 5.05994,-24.38295 51.14281,-21.17316 83.89857,36.89258 -15.95421,56.720548 -86.26021,74.254448 -128.9036,67.252958 -62.38921,-0.19272 -71.18214,-12.99511 -30.10026,-34.54364 11.54263,-19.057058 45.82969,-47.707178 71.21787,-71.057098 4.18598,-25.11834 53.38132,-23.21818 89.50096,38.19063 -17.77593,59.742748 -92.79877,76.449048 -137.23129,69.047558 -66.66624,0.29695 -75.15872,-12.58008 -30.4526,-35.24878 11.92445,-19.58992 47.96134,-49.040328 74.1359,-73.328378 3.31663,-25.79231 55.71042,-25.25632 95.25101,39.49206 -19.77656,62.691018 -99.60988,78.449188 -145.80528,70.730898 -71.38951,0.54472 -79.5632,-12.47207 -30.70052,-35.85884 12.26902,-20.13411 50.07855,-50.397008 77.05347,-75.591818 2.47074,-26.42314 58.16109,-27.27084 101.14707,40.80829 -21.96506,65.548648 -106.6988,80.254678 -154.63839,72.307808 -76.64191,0.23249 -84.45347,-13.11374 -30.83433,-36.37166 12.57862,-20.69158 52.17757,-51.791358 79.97585,-77.865988 1.88804,-24.81297 49.60661,-32.92925 102.27026,24.16309"
       style="fill:none;stroke:#000000;stroke-width:0.97330177px;stroke-linecap:butt;stroke-linejoin:miter;stroke-opacity:1"
       inkscape:connector-curvature="0" />
    <rect
       y="211.8392"
       x="7.7728319"
       height="152.35725"
       width="246.51921"
       id="rect13250"
       style="fill:none;stroke:#000000;stroke-width:1.19831538;stroke-miterlimit:4;stroke-opacity:1;stroke-dasharray:none" />
    <g
       id="g13252"
       transform="matrix(0,1.1542093,-1.6701003,0,442.53198,460.7023)">
      <g
         id="g13254"
         transform="matrix(1.3396491,0,0,1.3396491,71.134779,-58.513152)">
        <path
           inkscape:connector-curvature="0"
           style="fill:none;stroke:#000000;stroke-width:0.74025977"
           d="m -211.16896,168.97777 0,15.54546 m 0,-15.54546 6.66234,0 2.22078,0.74026 0.74026,0.74026 0.74026,1.48052 0,1.48052 -0.74026,1.48052 -0.74026,0.74026 -2.22078,0.74026 -6.66234,0 m 5.18182,0 5.18182,8.14286"
           id="path13256" />
        <path
           inkscape:connector-curvature="0"
           style="fill:none;stroke:#000000;stroke-width:0.74025977"
           d="m -191.92221,168.97777 -1.48052,0.74026 -1.48052,1.48052 -0.74026,1.48052 -0.74026,2.22078 0,3.7013 0.74026,2.22078 0.74026,1.48052 1.48052,1.48052 1.48052,0.74026 2.96104,0 1.48052,-0.74026 1.48052,-1.48052 0.74026,-1.48052 0.74026,-2.22078 0,-3.7013 -0.74026,-2.22078 -0.74026,-1.48052 -1.48052,-1.48052 -1.48052,-0.74026 -2.96104,0"
           id="path13258" />
        <path
           inkscape:connector-curvature="0"
           style="fill:none;stroke:#000000;stroke-width:0.74025977"
           d="m -179.33779,168.97777 0,15.54546 m 0,-15.54546 6.66234,0 2.22078,0.74026 0.74026,0.74026 0.74026,1.48052 0,1.48052 -0.74026,1.48052 -0.74026,0.74026 -2.22078,0.74026 m -6.66234,0 6.66234,0 2.22078,0.74026 0.74026,0.74026 0.74026,1.48052 0,2.22078 -0.74026,1.48052 -0.74026,0.74026 -2.22078,0.74026 -6.66234,0"
           id="path13260" />
        <path
           inkscape:connector-curvature="0"
           style="fill:none;stroke:#000000;stroke-width:0.74025977"
           d="m -160.09104,168.97777 -1.48052,0.74026 -1.48052,1.48052 -0.74026,1.48052 -0.74026,2.22078 0,3.7013 0.74026,2.22078 0.74026,1.48052 1.48052,1.48052 1.48052,0.74026 2.96104,0 1.48052,-0.74026 1.48052,-1.48052 0.74026,-1.48052 0.74026,-2.22078 0,-3.7013 -0.74026,-2.22078 -0.74026,-1.48052 -1.48052,-1.48052 -1.48052,-0.74026 -2.96104,0"
           id="path13262" />
        <path
           inkscape:connector-curvature="0"
           style="fill:none;stroke:#000000;stroke-width:0.74025977"
           d="m -144.54558,168.97777 0,15.54546 m -5.18182,-15.54546 10.36364,0"
           id="path13264" />
        <path
           inkscape:connector-curvature="0"
           style="fill:none;stroke:#000000;stroke-width:0.74025977"
           d="m -135.66247,168.97777 0,15.54546"
           id="path13266" />
        <path
           inkscape:connector-curvature="0"
           style="fill:none;stroke:#000000;stroke-width:0.74025977"
           d="m -119.37675,172.67907 -0.74026,-1.48052 -1.48052,-1.48052 -1.48052,-0.74026 -2.96104,0 -1.48052,0.74026 -1.48052,1.48052 -0.74026,1.48052 -0.74026,2.22078 0,3.7013 0.74026,2.22078 0.74026,1.48052 1.48052,1.48052 1.48052,0.74026 2.96104,0 1.48052,-0.74026 1.48052,-1.48052 0.74026,-1.48052"
           id="path13268" />
      </g>
    </g>
    <g
       id="g13270"
       transform="matrix(0,1.5103119,-2.2323791,0,498.25276,371.69819)">
      <path
         id="path13272"
         d="m -102.35078,168.97777 0,15.54546 m 0,-15.54546 5.181819,0 2.220779,0.74026 1.48052,1.48052 0.740259,1.48052 0.74026,2.22078 0,3.7013 -0.74026,2.22078 -0.740259,1.48052 -1.48052,1.48052 -2.220779,0.74026 -5.181819,0"
         style="fill:none;stroke:#000000;stroke-width:0.74025977"
         inkscape:connector-curvature="0" />
      <path
         id="path13274"
         d="m -86.805325,168.97777 0,15.54546 m 0,-15.54546 6.662337,0 2.22078,0.74026 0.740259,0.74026 0.74026,1.48052 0,1.48052 -0.74026,1.48052 -0.740259,0.74026 -2.22078,0.74026 -6.662337,0 m 5.181818,0 5.181818,8.14286"
         style="fill:none;stroke:#000000;stroke-width:0.74025977"
         inkscape:connector-curvature="0" />
      <path
         id="path13276"
         d="m -67.558571,168.97777 -5.922078,15.54546 m 5.922078,-15.54546 5.922078,15.54546 m -9.623377,-5.18182 7.402598,0"
         style="fill:none;stroke:#000000;stroke-width:0.74025977"
         inkscape:connector-curvature="0" />
      <path
         id="path13278"
         d="m -59.415714,168.97777 3.701298,15.54546 m 3.701299,-15.54546 -3.701299,15.54546 m 3.701299,-15.54546 3.701299,15.54546 m 3.701298,-15.54546 -3.701298,15.54546"
         style="fill:none;stroke:#000000;stroke-width:0.74025977"
         inkscape:connector-curvature="0" />
      <path
         id="path13280"
         d="m -40.168961,168.97777 0,15.54546"
         style="fill:none;stroke:#000000;stroke-width:0.74025977"
         inkscape:connector-curvature="0" />
      <path
         id="path13282"
         d="m -34.246883,168.97777 0,15.54546 m 0,-15.54546 10.363636,15.54546 m 0,-15.54546 0,15.54546"
         style="fill:none;stroke:#000000;stroke-width:0.74025977"
         inkscape:connector-curvature="0" />
      <path
         id="path13284"
         d="m -7.5975321,172.67907 -0.7402597,-1.48052 -1.4805195,-1.48052 -1.4805197,-0.74026 -2.961039,0 -1.480519,0.74026 -1.48052,1.48052 -0.740259,1.48052 -0.74026,2.22078 0,3.7013 0.74026,2.22078 0.740259,1.48052 1.48052,1.48052 1.480519,0.74026 2.961039,0 1.4805197,-0.74026 1.4805195,-1.48052 0.7402597,-1.48052 0,-2.22078 m -3.7012989,0 3.7012989,0"
         style="fill:none;stroke:#000000;stroke-width:0.74025977"
         inkscape:connector-curvature="0" />
    </g>
    <g
       id="g13286"
       transform="matrix(0,1.1265633,-1.098994,0,265.74806,206.39894)">
      <path
         id="path13288"
         d="m 19.792078,172.67907 -0.74026,-1.48052 -1.480519,-1.48052 -1.48052,-0.74026 -2.961039,0 -1.480519,0.74026 -1.48052,1.48052 -0.7402594,1.48052 -0.7402598,2.22078 0,3.7013 0.7402598,2.22078 0.7402594,1.48052 1.48052,1.48052 1.480519,0.74026 2.961039,0 1.48052,-0.74026 1.480519,-1.48052 0.74026,-1.48052"
         style="fill:none;stroke:#000000;stroke-width:0.74025977"
         inkscape:connector-curvature="0" />
      <path
         id="path13290"
         d="m 28.675195,168.97777 -1.48052,0.74026 -1.480519,1.48052 -0.74026,1.48052 -0.74026,2.22078 0,3.7013 0.74026,2.22078 0.74026,1.48052 1.480519,1.48052 1.48052,0.74026 2.961038,0 1.48052,-0.74026 1.480519,-1.48052 0.74026,-1.48052 0.74026,-2.22078 0,-3.7013 -0.74026,-2.22078 -0.74026,-1.48052 -1.480519,-1.48052 -1.48052,-0.74026 -2.961038,0"
         style="fill:none;stroke:#000000;stroke-width:0.74025977"
         inkscape:connector-curvature="0" />
      <path
         id="path13292"
         d="m 41.259611,168.97777 0,15.54546 m 0,0 8.883116,0"
         style="fill:none;stroke:#000000;stroke-width:0.74025977"
         inkscape:connector-curvature="0" />
      <path
         id="path13294"
         d="m 53.844026,168.97777 0,15.54546 m 0,0 8.883116,0"
         style="fill:none;stroke:#000000;stroke-width:0.74025977"
         inkscape:connector-curvature="0" />
      <path
         id="path13296"
         d="m 66.428442,168.97777 0,15.54546 m 0,-15.54546 9.623376,0 m -9.623376,7.4026 5.922077,0 m -5.922077,8.14286 9.623376,0"
         style="fill:none;stroke:#000000;stroke-width:0.74025977"
         inkscape:connector-curvature="0" />
      <path
         id="path13298"
         d="m 90.857013,172.67907 -0.74026,-1.48052 -1.480519,-1.48052 -1.48052,-0.74026 -2.961039,0 -1.480519,0.74026 -1.48052,1.48052 -0.740259,1.48052 -0.74026,2.22078 0,3.7013 0.74026,2.22078 0.740259,1.48052 1.48052,1.48052 1.480519,0.74026 2.961039,0 1.48052,-0.74026 1.480519,-1.48052 0.74026,-1.48052"
         style="fill:none;stroke:#000000;stroke-width:0.74025977"
         inkscape:connector-curvature="0" />
      <path
         id="path13300"
         d="m 98.99987,168.97777 0,15.54546 m -5.181818,-15.54546 10.363638,0"
         style="fill:none;stroke:#000000;stroke-width:0.74025977"
         inkscape:connector-curvature="0" />
      <path
         id="path13302"
         d="m 107.88299,168.97777 0,15.54546"
         style="fill:none;stroke:#000000;stroke-width:0.74025977"
         inkscape:connector-curvature="0" />
      <path
         id="path13304"
         d="m 111.58428,168.97777 5.92208,15.54546 m 5.92208,-15.54546 -5.92208,15.54546"
         style="fill:none;stroke:#000000;stroke-width:0.74025977"
         inkscape:connector-curvature="0" />
      <path
         id="path13306"
         d="m 127.12974,168.97777 0,15.54546 m 0,-15.54546 9.62338,0 m -9.62338,7.4026 5.92208,0 m -5.92208,8.14286 9.62338,0"
         style="fill:none;stroke:#000000;stroke-width:0.74025977"
         inkscape:connector-curvature="0" />
    </g>
    <g
       id="g13308"
       transform="matrix(-0.02611459,0.99061833,-1.4874384,-0.01739204,314.14807,70.230909)">
      <path
         id="path13310"
         d="m 155.99987,168.97777 -2.22078,0.74026 -0.74026,1.48052 0,1.48052 0.74026,1.48052 1.48052,0.74026 2.96104,0.74026 2.22078,0.74026 1.48052,1.48052 0.74026,1.48052 0,2.22078 -0.74026,1.48052 -0.74026,0.74026 -2.22078,0.74026 -2.96104,0 -2.22078,-0.74026 -0.74026,-0.74026 -0.74026,-1.48052 0,-2.22078 0.74026,-1.48052 1.48052,-1.48052 2.22078,-0.74026 2.96104,-0.74026 1.48052,-0.74026 0.74026,-1.48052 0,-1.48052 -0.74026,-1.48052 -2.22078,-0.74026 -2.96104,0"
         style="fill:none;stroke:#000000;stroke-width:0.74025977"
         inkscape:connector-curvature="0" />
      <path
         id="path13312"
         d="m 169.32454,171.93881 1.48052,-0.74026 2.22078,-2.22078 0,15.54546"
         style="fill:none;stroke:#000000;stroke-width:0.74025977"
         inkscape:connector-curvature="0" />
      <path
         id="path13314"
         d="m 182.64922,172.67907 0,-0.74026 0.74026,-1.48052 0.74026,-0.74026 1.48052,-0.74026 2.96104,0 1.48052,0.74026 0.74026,0.74026 0.74026,1.48052 0,1.48052 -0.74026,1.48052 -1.48052,2.22078 -7.4026,7.4026 10.36364,0"
         style="fill:none;stroke:#000000;stroke-width:0.74025977"
         inkscape:connector-curvature="0" />
      <path
         id="path13316"
         d="m 205.59727,168.97777 -7.4026,0 -0.74026,6.66234 0.74026,-0.74026 2.22078,-0.74026 2.22078,0 2.22078,0.74026 1.48052,1.48052 0.74026,2.22078 0,1.48052 -0.74026,2.22078 -1.48052,1.48052 -2.22078,0.74026 -2.22078,0 -2.22078,-0.74026 -0.74026,-0.74026 -0.74026,-1.48052"
         style="fill:none;stroke:#000000;stroke-width:0.74025977"
         inkscape:connector-curvature="0" />
      <path
         id="path13318"
         d="m 221.88299,168.97777 -7.4026,15.54546 m -2.96104,-15.54546 10.36364,0"
         style="fill:none;stroke:#000000;stroke-width:0.74025977"
         inkscape:connector-curvature="0" />
      <path
         id="path13320"
         d="m 235.20766,168.97777 -7.4026,0 -0.74026,6.66234 0.74026,-0.74026 2.22078,-0.74026 2.22078,0 2.22078,0.74026 1.48052,1.48052 0.74026,2.22078 0,1.48052 -0.74026,2.22078 -1.48052,1.48052 -2.22078,0.74026 -2.22078,0 -2.22078,-0.74026 -0.74026,-0.74026 -0.74026,-1.48052"
         style="fill:none;stroke:#000000;stroke-width:0.74025977"
         inkscape:connector-curvature="0" />
      <path
         id="path13322"
         d="m 245.5713,168.97777 -2.22078,0.74026 -1.48052,2.22078 -0.74026,3.7013 0,2.22078 0.74026,3.7013 1.48052,2.22078 2.22078,0.74026 1.48052,0 2.22078,-0.74026 1.48052,-2.22078 0.74026,-3.7013 0,-2.22078 -0.74026,-3.7013 -1.48052,-2.22078 -2.22078,-0.74026 -1.48052,0"
         style="fill:none;stroke:#000000;stroke-width:0.74025977"
         inkscape:connector-curvature="0" />
      <path
         id="path13324"
         d="m 265.55831,171.19855 -0.74026,-1.48052 -2.22078,-0.74026 -1.48052,0 -2.22078,0.74026 -1.48052,2.22078 -0.74026,3.7013 0,3.7013 0.74026,2.96104 1.48052,1.48052 2.22078,0.74026 0.74026,0 2.22078,-0.74026 1.48052,-1.48052 0.74026,-2.22078 0,-0.74026 -0.74026,-2.22078 -1.48052,-1.48052 -2.22078,-0.74026 -0.74026,0 -2.22078,0.74026 -1.48052,1.48052 -0.74026,2.22078"
         style="fill:none;stroke:#000000;stroke-width:0.74025977"
         inkscape:connector-curvature="0" />
      <path
         id="path13326"
         d="m 275.18169,168.97777 -2.22078,0.74026 -1.48052,2.22078 -0.74026,3.7013 0,2.22078 0.74026,3.7013 1.48052,2.22078 2.22078,0.74026 1.48052,0 2.22078,-0.74026 1.48052,-2.22078 0.74026,-3.7013 0,-2.22078 -0.74026,-3.7013 -1.48052,-2.22078 -2.22078,-0.74026 -1.48052,0"
         style="fill:none;stroke:#000000;stroke-width:0.74025977"
         inkscape:connector-curvature="0" />
      <path
         id="path13328"
         d="m 295.1687,174.15959 -0.74026,2.22078 -1.48052,1.48052 -2.22078,0.74026 -0.74026,0 -2.22078,-0.74026 -1.48052,-1.48052 -0.74026,-2.22078 0,-0.74026 0.74026,-2.22078 1.48052,-1.48052 2.22078,-0.74026 0.74026,0 2.22078,0.74026 1.48052,1.48052 0.74026,2.96104 0,3.7013 -0.74026,3.7013 -1.48052,2.22078 -2.22078,0.74026 -1.48052,0 -2.22078,-0.74026 -0.74026,-1.48052"
         style="fill:none;stroke:#000000;stroke-width:0.74025977"
         inkscape:connector-curvature="0" />
    </g>
    <g
       transform="matrix(0,0.66443448,-0.70195852,0,-45.021571,-251.68899)"
       id="g13330">
      <path
         inkscape:connector-curvature="0"
         style="fill:none;stroke:#000000"
         d="m 705.16038,-104.16332 0,21 m 0,-21 9,0 3,1 1,1 1,2 0,2 -1,2 -1,1 -3,1 -9,0 m 7,0 7,11"
         id="path13332" />
      <path
         inkscape:connector-curvature="0"
         style="fill:none;stroke:#000000"
         d="m 731.16038,-104.16332 -2,1 -2,2 -1,2 -1,3 0,5 1,3 1,2 2,2 2,1 4,0 2,-1 2,-2 1,-2 1,-3 0,-5 -1,-3 -1,-2 -2,-2 -2,-1 -4,0"
         id="path13334" />
      <path
         inkscape:connector-curvature="0"
         style="fill:none;stroke:#000000"
         d="m 748.16038,-104.16332 0,21 m 0,-21 9,0 3,1 1,1 1,2 0,2 -1,2 -1,1 -3,1 m -9,0 9,0 3,1 1,1 1,2 0,3 -1,2 -1,1 -3,1 -9,0"
         id="path13336" />
      <path
         inkscape:connector-curvature="0"
         style="fill:none;stroke:#000000"
         d="m 774.16038,-104.16332 -2,1 -2,2 -1,2 -1,3 0,5 1,3 1,2 2,2 2,1 4,0 2,-1 2,-2 1,-2 1,-3 0,-5 -1,-3 -1,-2 -2,-2 -2,-1 -4,0"
         id="path13338" />
      <path
         inkscape:connector-curvature="0"
         style="fill:none;stroke:#000000"
         d="m 791.16038,-104.16332 0,21 m 0,-21 7,0 3,1 2,2 1,2 1,3 0,5 -1,3 -1,2 -2,2 -3,1 -7,0"
         id="path13340" />
      <path
         inkscape:connector-curvature="0"
         style="fill:none;stroke:#000000"
         d="m 812.16038,-104.16332 0,21 m 0,-21 9,0 3,1 1,1 1,2 0,2 -1,2 -1,1 -3,1 -9,0 m 7,0 7,11"
         id="path13342" />
      <path
         inkscape:connector-curvature="0"
         style="fill:none;stroke:#000000"
         d="m 838.16038,-104.16332 -8,21 m 8,-21 8,21 m -13,-7 10,0"
         id="path13344" />
      <path
         inkscape:connector-curvature="0"
         style="fill:none;stroke:#000000"
         d="m 849.16038,-104.16332 5,21 m 5,-21 -5,21 m 5,-21 5,21 m 5,-21 -5,21"
         id="path13346" />
      <path
         inkscape:connector-curvature="0"
         style="fill:none;stroke:#000000"
         d="m 875.16038,-88.16332 -1,1 1,1 1,-1 -1,-1"
         id="path13348" />
      <path
         inkscape:connector-curvature="0"
         style="fill:none;stroke:#000000"
         d="m 897.16038,-99.16332 -1,-2 -2,-2 -2,-1 -4,0 -2,1 -2,2 -1,2 -1,3 0,5 1,3 1,2 2,2 2,1 4,0 2,-1 2,-2 1,-2"
         id="path13350" />
      <path
         inkscape:connector-curvature="0"
         style="fill:none;stroke:#000000"
         d="m 909.16038,-104.16332 -2,1 -2,2 -1,2 -1,3 0,5 1,3 1,2 2,2 2,1 4,0 2,-1 2,-2 1,-2 1,-3 0,-5 -1,-3 -1,-2 -2,-2 -2,-1 -4,0"
         id="path13352" />
    </g>
    <rect
       y="211.8392"
       x="275.7323"
       height="152.35725"
       width="246.51921"
       id="rect13354"
       style="fill:none;stroke:#000000;stroke-width:1.19831538;stroke-miterlimit:4;stroke-opacity:1;stroke-dasharray:none" />
    <path
       inkscape:connector-curvature="0"
       style="fill:none;stroke:#000000;stroke-width:0.97330177px;stroke-linecap:butt;stroke-linejoin:miter;stroke-opacity:1"
       d="m 459.1946,318.30292 c 0.28405,0.25349 -0.62406,0.58743 -0.95909,0.58051 -0.91005,-0.029 -0.81362,-0.79361 -0.26959,-1.33007 0.93346,-0.95394 2.72542,-1.37033 3.74692,-1.10761 1.47269,0.35077 1.16742,1.90962 -0.29706,3.19501 -1.9974,1.63149 -5.06686,2.12413 -6.66386,1.34022 -2.0415,-1.03809 -1.45438,-3.26826 0.86676,-4.87507 2.69419,-2.09224 6.92145,-3.04871 9.29289,-2.2491 2.72485,0.82912 1.99192,4.17606 -1.35026,7.0522 -4.04968,3.00985 -9.71524,3.6831 -12.41093,1.91753 -3.19732,-2.13282 -2.07453,-5.79442 2.03105,-8.23946 4.32105,-3.14884 10.98886,-4.74358 14.76531,-3.54492 4.03253,1.07868 2.94533,6.34642 -2.3118,11.06811 -6.21149,4.47848 -14.50562,5.17715 -18.19173,2.30567 -4.33561,-3.35854 -2.68065,-8.33474 3.20329,-11.41794 5.85246,-4.11857 14.91159,-6.42718 20.15552,-4.98326 5.37163,1.10117 4.0355,8.39719 -3.16268,15.23336 -8.49604,6.03018 -19.42276,6.58241 -23.99828,2.49884 -5.46754,-4.69803 -3.3021,-10.86606 4.36389,-14.40609 7.29926,-5.00284 18.69111,-8.08348 25.45605,-6.55118 6.72531,0.89117 5.27229,10.30877 -3.88472,19.53731 -10.90927,7.65828 -24.45433,7.87819 -29.82395,2.49232 -6.61266,-6.13055 -3.97229,-13.36706 5.49425,-17.20049 8.67013,-5.80466 22.33328,-9.69939 30.66098,-8.23495 8.07472,0.44606 6.66284,12.06341 -4.46094,23.96848 -13.45503,9.35463 -29.58759,9.04465 -35.66347,2.2822 -7.7957,-7.635 -4.72689,-15.81768 6.57681,-19.79863 9.97325,-6.52774 25.84686,-11.26395 35.76626,-10.0198 9.39836,-0.23244 8.21101,13.64474 -4.87584,28.51429 -16.13612,11.1096 -34.80906,10.06253 -41.51339,1.86541 -9.045,-9.19112 -5.60265,-18.19971 7.59551,-22.19879 11.21678,-7.17618 29.24306,-12.76812 40.77016,-11.89063 10.67271,-1.13755 9.91733,15.03845 -5.11579,33.16193 -18.95407,12.91153 -40.10461,10.91312 -47.37212,1.23937 -10.39197,-10.78031 -6.63686,-20.49728 8.53555,-24.40009 12.40871,-7.75425 32.53518,-14.20438 45.67334,-13.83158 11.87304,-2.25718 11.77933,16.23211 -5.16895,37.89789 -21.90937,14.74721 -45.45999,11.57861 -53.24029,0.40199 -11.87022,-12.38654 -7.86658,-22.69794 9.38396,-26.40236 13.55693,-8.26602 35.73843,-15.56672 50.47918,-15.82638 12.97467,-3.57397 13.79173,17.21555 -5.02574,42.70846 -25.00128,16.60166 -50.86107,12.0421 -59.12079,-0.64847 -13.51481,-13.99735 -9.32778,-24.79376 10.12955,-28.20626 14.66898,-8.71523 38.86959,-16.85016 55.19383,-17.85863 13.95377,-5.06511 15.94687,17.98139 -4.67887,47.58032 -28.2277,18.45819 -56.29423,12.28763 -65.01883,-1.91373 -15.36116,-15.6051 -11.05444,-26.78264 10.76316,-29.81348 15.75195,-9.10473 41.94668,-18.05034 59.8262,-19.91136 14.78877,-6.70323 18.23522,18.52489 -4.12331,52.5004 -31.58525,20.29857 -61.74682,12.30028 -70.94209,-3.3957 -17.44429,-17.20825 -13.07758,-28.66984 11.27765,-31.22665 16.81252,-9.43648 44.98866,-19.16294 64.38793,-21.96743 15.46125,-8.45664 20.64582,18.8445 -3.35647,57.45652 -35.069,22.10312 -67.2075,12.06633 -76.90043,-5.09667 -19.7976,-18.81301 -15.42414,-30.46955 11.66805,-32.44964 17.8564,-9.71118 48.01504,-20.18315 68.89312,-24.00901 15.95691,-10.29084 23.16684,18.94186 -2.37798,62.43738 -38.67257,23.85107 -72.6666,11.57302 -82.90609,-7.01964 -22.45174,-20.43511 -18.11545,-32.20639 11.93172,-33.48782 18.88853,-9.92795 51.04543,-21.10478 73.35809,-26.0175 16.26622,-12.1696 25.78618,18.82199 -1.18969,67.4329 -42.388,25.52054 -78.11638,10.8088 -88.97352,-9.16858 -25.43323,-22.10165 -21.1661,-33.91677 12.0686,-34.34823 19.9125,-10.08426 54.09902,-21.91964 77.80084,-27.97294 16.38493,-14.05699 28.49202,18.4933 0.20446,72.43434 -46.20576,27.089 -83.55141,9.76305 -95.11894,-11.54903 -28.76349,-23.85311 -24.58277,-35.64992 12.08116,-35.03965 20.93056,-10.17585 57.19409,-22.61678 82.24054,-29.85362 16.31418,-15.91934 31.27356,17.96769 1.79873,77.4343 -50.11458,28.53329 -88.96872,8.42607 -101.36033,-14.16839 -32.4574,-25.74595 -28.36352,-37.46901 11.97477,-35.573 21.94322,-10.19689 60.34726,-23.18154 86.69696,-31.63515 16.0602,-17.72709 34.12139,17.26028 3.58563,82.42655 -54.10166,29.83017 -94.36803,6.78904 -107.71705,-17.0365 -36.52221,-27.85572 -32.49778,-39.45301 11.75814,-35.96105 22.94893,-10.1399 63.57256,-23.59521 91.18931,-33.29007 15.63414,-19.45673 37.02836,16.38964 5.55634,87.40594 -58.15271,30.95661 -99.75197,4.84384 -114.20957,-20.16619 -40.95588,-30.28207 -36.96751,-41.70084 11.44322,-36.21842 23.94429,-9.99663 66.88103,-23.83435 95.73594,-34.78685 15.05168,-21.09157 39.99008,15.37739 7.70067,92.36805 -62.2518,31.88991 -105.12601,2.58272 -120.85879,-23.57423 -45.74348,-33.15631 -41.7477,-44.34141 11.04572,-36.36085 24.92365,-9.7585 70.27936,-23.87087 100.35312,-36.08956 14.3326,-22.62137 43.00557,14.24836 10.00725,97.30882 -66.38157,32.60824 -110.49859,-0.002 -127.68577,-27.2819 -50.84717,-36.65239 -46.7996,-47.55401 10.58517,-36.4045 25.87971,-9.41732 73.76942,-23.67207 105.05437,-37.15732 13.50064,-24.0414 46.0783,13.03033 12.46382,102.22426 -70.52339,33.09075 -115.88098,-2.917 -134.71095,-31.31629 -56.18247,-40.9964 -52.03746,-51.59474 10.08484,-36.36471 26.80395,-8.96607 77.34737,-23.20118 109.84984,-37.94412 12.58242,-25.35128 49.21666,11.75382 15.05718,107.10983 -74.65748,33.31807 -121.28732,-6.17125 -141.95371,-35.7112 -61.57374,-46.45976 -57.24429,-56.78822 9.5712,-36.25451 27.68769,-8.39918 81.00356,-22.41822 114.74617,-38.39877 11.6065,-26.55469 52.43497,10.45122 17.77329,111.96025 -78.76299,33.27246 -126.73425,-9.77346 -149.43114,-40.50878 -66.70297,-53.31048 -61.99183,-63.41779 9.07277,-36.08299 28.52351,-7.71244 84.72259,-21.28089 119.74659,-38.46486 10.1673,-25.27911 50.13207,-3.48981 36.69049,96.51763"
       id="path13356" />
    <rect
       style="fill:none;stroke:#000000;stroke-width:1.19831538;stroke-miterlimit:4;stroke-opacity:1;stroke-dasharray:none"
       id="rect13616"
       width="246.51921"
       height="152.35725"
       x="23.772831"
       y="401.74789" />
    <g
       transform="matrix(0,1.1542093,-1.6701003,0,458.53198,650.61098)"
       id="g13618">
      <g
         transform="matrix(1.3396491,0,0,1.3396491,71.134779,-58.513152)"
         id="g13620">
        <path
           id="path13622"
           d="m -211.16896,168.97777 0,15.54546 m 0,-15.54546 6.66234,0 2.22078,0.74026 0.74026,0.74026 0.74026,1.48052 0,1.48052 -0.74026,1.48052 -0.74026,0.74026 -2.22078,0.74026 -6.66234,0 m 5.18182,0 5.18182,8.14286"
           style="fill:none;stroke:#000000;stroke-width:0.74025977"
           inkscape:connector-curvature="0" />
        <path
           id="path13624"
           d="m -191.92221,168.97777 -1.48052,0.74026 -1.48052,1.48052 -0.74026,1.48052 -0.74026,2.22078 0,3.7013 0.74026,2.22078 0.74026,1.48052 1.48052,1.48052 1.48052,0.74026 2.96104,0 1.48052,-0.74026 1.48052,-1.48052 0.74026,-1.48052 0.74026,-2.22078 0,-3.7013 -0.74026,-2.22078 -0.74026,-1.48052 -1.48052,-1.48052 -1.48052,-0.74026 -2.96104,0"
           style="fill:none;stroke:#000000;stroke-width:0.74025977"
           inkscape:connector-curvature="0" />
        <path
           id="path13626"
           d="m -179.33779,168.97777 0,15.54546 m 0,-15.54546 6.66234,0 2.22078,0.74026 0.74026,0.74026 0.74026,1.48052 0,1.48052 -0.74026,1.48052 -0.74026,0.74026 -2.22078,0.74026 m -6.66234,0 6.66234,0 2.22078,0.74026 0.74026,0.74026 0.74026,1.48052 0,2.22078 -0.74026,1.48052 -0.74026,0.74026 -2.22078,0.74026 -6.66234,0"
           style="fill:none;stroke:#000000;stroke-width:0.74025977"
           inkscape:connector-curvature="0" />
        <path
           id="path13628"
           d="m -160.09104,168.97777 -1.48052,0.74026 -1.48052,1.48052 -0.74026,1.48052 -0.74026,2.22078 0,3.7013 0.74026,2.22078 0.74026,1.48052 1.48052,1.48052 1.48052,0.74026 2.96104,0 1.48052,-0.74026 1.48052,-1.48052 0.74026,-1.48052 0.74026,-2.22078 0,-3.7013 -0.74026,-2.22078 -0.74026,-1.48052 -1.48052,-1.48052 -1.48052,-0.74026 -2.96104,0"
           style="fill:none;stroke:#000000;stroke-width:0.74025977"
           inkscape:connector-curvature="0" />
        <path
           id="path13630"
           d="m -144.54558,168.97777 0,15.54546 m -5.18182,-15.54546 10.36364,0"
           style="fill:none;stroke:#000000;stroke-width:0.74025977"
           inkscape:connector-curvature="0" />
        <path
           id="path13632"
           d="m -135.66247,168.97777 0,15.54546"
           style="fill:none;stroke:#000000;stroke-width:0.74025977"
           inkscape:connector-curvature="0" />
        <path
           id="path13634"
           d="m -119.37675,172.67907 -0.74026,-1.48052 -1.48052,-1.48052 -1.48052,-0.74026 -2.96104,0 -1.48052,0.74026 -1.48052,1.48052 -0.74026,1.48052 -0.74026,2.22078 0,3.7013 0.74026,2.22078 0.74026,1.48052 1.48052,1.48052 1.48052,0.74026 2.96104,0 1.48052,-0.74026 1.48052,-1.48052 0.74026,-1.48052"
           style="fill:none;stroke:#000000;stroke-width:0.74025977"
           inkscape:connector-curvature="0" />
      </g>
    </g>
    <g
       transform="matrix(0,1.5103119,-2.2323791,0,514.25276,561.60687)"
       id="g13636">
      <path
         inkscape:connector-curvature="0"
         style="fill:none;stroke:#000000;stroke-width:0.74025977"
         d="m -102.35078,168.97777 0,15.54546 m 0,-15.54546 5.181819,0 2.220779,0.74026 1.48052,1.48052 0.740259,1.48052 0.74026,2.22078 0,3.7013 -0.74026,2.22078 -0.740259,1.48052 -1.48052,1.48052 -2.220779,0.74026 -5.181819,0"
         id="path13638" />
      <path
         inkscape:connector-curvature="0"
         style="fill:none;stroke:#000000;stroke-width:0.74025977"
         d="m -86.805325,168.97777 0,15.54546 m 0,-15.54546 6.662337,0 2.22078,0.74026 0.740259,0.74026 0.74026,1.48052 0,1.48052 -0.74026,1.48052 -0.740259,0.74026 -2.22078,0.74026 -6.662337,0 m 5.181818,0 5.181818,8.14286"
         id="path13640" />
      <path
         inkscape:connector-curvature="0"
         style="fill:none;stroke:#000000;stroke-width:0.74025977"
         d="m -67.558571,168.97777 -5.922078,15.54546 m 5.922078,-15.54546 5.922078,15.54546 m -9.623377,-5.18182 7.402598,0"
         id="path13642" />
      <path
         inkscape:connector-curvature="0"
         style="fill:none;stroke:#000000;stroke-width:0.74025977"
         d="m -59.415714,168.97777 3.701298,15.54546 m 3.701299,-15.54546 -3.701299,15.54546 m 3.701299,-15.54546 3.701299,15.54546 m 3.701298,-15.54546 -3.701298,15.54546"
         id="path13644" />
      <path
         inkscape:connector-curvature="0"
         style="fill:none;stroke:#000000;stroke-width:0.74025977"
         d="m -40.168961,168.97777 0,15.54546"
         id="path13646" />
      <path
         inkscape:connector-curvature="0"
         style="fill:none;stroke:#000000;stroke-width:0.74025977"
         d="m -34.246883,168.97777 0,15.54546 m 0,-15.54546 10.363636,15.54546 m 0,-15.54546 0,15.54546"
         id="path13648" />
      <path
         inkscape:connector-curvature="0"
         style="fill:none;stroke:#000000;stroke-width:0.74025977"
         d="m -7.5975321,172.67907 -0.7402597,-1.48052 -1.4805195,-1.48052 -1.4805197,-0.74026 -2.961039,0 -1.480519,0.74026 -1.48052,1.48052 -0.740259,1.48052 -0.74026,2.22078 0,3.7013 0.74026,2.22078 0.740259,1.48052 1.48052,1.48052 1.480519,0.74026 2.961039,0 1.4805197,-0.74026 1.4805195,-1.48052 0.7402597,-1.48052 0,-2.22078 m -3.7012989,0 3.7012989,0"
         id="path13650" />
    </g>
    <g
       transform="matrix(0,1.1265633,-1.098994,0,281.74806,396.30762)"
       id="g13652">
      <path
         inkscape:connector-curvature="0"
         style="fill:none;stroke:#000000;stroke-width:0.74025977"
         d="m 19.792078,172.67907 -0.74026,-1.48052 -1.480519,-1.48052 -1.48052,-0.74026 -2.961039,0 -1.480519,0.74026 -1.48052,1.48052 -0.7402594,1.48052 -0.7402598,2.22078 0,3.7013 0.7402598,2.22078 0.7402594,1.48052 1.48052,1.48052 1.480519,0.74026 2.961039,0 1.48052,-0.74026 1.480519,-1.48052 0.74026,-1.48052"
         id="path13654" />
      <path
         inkscape:connector-curvature="0"
         style="fill:none;stroke:#000000;stroke-width:0.74025977"
         d="m 28.675195,168.97777 -1.48052,0.74026 -1.480519,1.48052 -0.74026,1.48052 -0.74026,2.22078 0,3.7013 0.74026,2.22078 0.74026,1.48052 1.480519,1.48052 1.48052,0.74026 2.961038,0 1.48052,-0.74026 1.480519,-1.48052 0.74026,-1.48052 0.74026,-2.22078 0,-3.7013 -0.74026,-2.22078 -0.74026,-1.48052 -1.480519,-1.48052 -1.48052,-0.74026 -2.961038,0"
         id="path13656" />
      <path
         inkscape:connector-curvature="0"
         style="fill:none;stroke:#000000;stroke-width:0.74025977"
         d="m 41.259611,168.97777 0,15.54546 m 0,0 8.883116,0"
         id="path13658" />
      <path
         inkscape:connector-curvature="0"
         style="fill:none;stroke:#000000;stroke-width:0.74025977"
         d="m 53.844026,168.97777 0,15.54546 m 0,0 8.883116,0"
         id="path13660" />
      <path
         inkscape:connector-curvature="0"
         style="fill:none;stroke:#000000;stroke-width:0.74025977"
         d="m 66.428442,168.97777 0,15.54546 m 0,-15.54546 9.623376,0 m -9.623376,7.4026 5.922077,0 m -5.922077,8.14286 9.623376,0"
         id="path13662" />
      <path
         inkscape:connector-curvature="0"
         style="fill:none;stroke:#000000;stroke-width:0.74025977"
         d="m 90.857013,172.67907 -0.74026,-1.48052 -1.480519,-1.48052 -1.48052,-0.74026 -2.961039,0 -1.480519,0.74026 -1.48052,1.48052 -0.740259,1.48052 -0.74026,2.22078 0,3.7013 0.74026,2.22078 0.740259,1.48052 1.48052,1.48052 1.480519,0.74026 2.961039,0 1.48052,-0.74026 1.480519,-1.48052 0.74026,-1.48052"
         id="path13664" />
      <path
         inkscape:connector-curvature="0"
         style="fill:none;stroke:#000000;stroke-width:0.74025977"
         d="m 98.99987,168.97777 0,15.54546 m -5.181818,-15.54546 10.363638,0"
         id="path13666" />
      <path
         inkscape:connector-curvature="0"
         style="fill:none;stroke:#000000;stroke-width:0.74025977"
         d="m 107.88299,168.97777 0,15.54546"
         id="path13668" />
      <path
         inkscape:connector-curvature="0"
         style="fill:none;stroke:#000000;stroke-width:0.74025977"
         d="m 111.58428,168.97777 5.92208,15.54546 m 5.92208,-15.54546 -5.92208,15.54546"
         id="path13670" />
      <path
         inkscape:connector-curvature="0"
         style="fill:none;stroke:#000000;stroke-width:0.74025977"
         d="m 127.12974,168.97777 0,15.54546 m 0,-15.54546 9.62338,0 m -9.62338,7.4026 5.92208,0 m -5.92208,8.14286 9.62338,0"
         id="path13672" />
    </g>
    <g
       transform="matrix(-0.02611459,0.99061833,-1.4874384,-0.01739204,330.14807,260.13959)"
       id="g13674">
      <path
         inkscape:connector-curvature="0"
         style="fill:none;stroke:#000000;stroke-width:0.74025977"
         d="m 155.99987,168.97777 -2.22078,0.74026 -0.74026,1.48052 0,1.48052 0.74026,1.48052 1.48052,0.74026 2.96104,0.74026 2.22078,0.74026 1.48052,1.48052 0.74026,1.48052 0,2.22078 -0.74026,1.48052 -0.74026,0.74026 -2.22078,0.74026 -2.96104,0 -2.22078,-0.74026 -0.74026,-0.74026 -0.74026,-1.48052 0,-2.22078 0.74026,-1.48052 1.48052,-1.48052 2.22078,-0.74026 2.96104,-0.74026 1.48052,-0.74026 0.74026,-1.48052 0,-1.48052 -0.74026,-1.48052 -2.22078,-0.74026 -2.96104,0"
         id="path13676" />
      <path
         inkscape:connector-curvature="0"
         style="fill:none;stroke:#000000;stroke-width:0.74025977"
         d="m 169.32454,171.93881 1.48052,-0.74026 2.22078,-2.22078 0,15.54546"
         id="path13678" />
      <path
         inkscape:connector-curvature="0"
         style="fill:none;stroke:#000000;stroke-width:0.74025977"
         d="m 182.64922,172.67907 0,-0.74026 0.74026,-1.48052 0.74026,-0.74026 1.48052,-0.74026 2.96104,0 1.48052,0.74026 0.74026,0.74026 0.74026,1.48052 0,1.48052 -0.74026,1.48052 -1.48052,2.22078 -7.4026,7.4026 10.36364,0"
         id="path13680" />
      <path
         inkscape:connector-curvature="0"
         style="fill:none;stroke:#000000;stroke-width:0.74025977"
         d="m 205.59727,168.97777 -7.4026,0 -0.74026,6.66234 0.74026,-0.74026 2.22078,-0.74026 2.22078,0 2.22078,0.74026 1.48052,1.48052 0.74026,2.22078 0,1.48052 -0.74026,2.22078 -1.48052,1.48052 -2.22078,0.74026 -2.22078,0 -2.22078,-0.74026 -0.74026,-0.74026 -0.74026,-1.48052"
         id="path13682" />
      <path
         inkscape:connector-curvature="0"
         style="fill:none;stroke:#000000;stroke-width:0.74025977"
         d="m 221.88299,168.97777 -7.4026,15.54546 m -2.96104,-15.54546 10.36364,0"
         id="path13684" />
      <path
         inkscape:connector-curvature="0"
         style="fill:none;stroke:#000000;stroke-width:0.74025977"
         d="m 235.20766,168.97777 -7.4026,0 -0.74026,6.66234 0.74026,-0.74026 2.22078,-0.74026 2.22078,0 2.22078,0.74026 1.48052,1.48052 0.74026,2.22078 0,1.48052 -0.74026,2.22078 -1.48052,1.48052 -2.22078,0.74026 -2.22078,0 -2.22078,-0.74026 -0.74026,-0.74026 -0.74026,-1.48052"
         id="path13686" />
      <path
         inkscape:connector-curvature="0"
         style="fill:none;stroke:#000000;stroke-width:0.74025977"
         d="m 245.5713,168.97777 -2.22078,0.74026 -1.48052,2.22078 -0.74026,3.7013 0,2.22078 0.74026,3.7013 1.48052,2.22078 2.22078,0.74026 1.48052,0 2.22078,-0.74026 1.48052,-2.22078 0.74026,-3.7013 0,-2.22078 -0.74026,-3.7013 -1.48052,-2.22078 -2.22078,-0.74026 -1.48052,0"
         id="path13688" />
      <path
         inkscape:connector-curvature="0"
         style="fill:none;stroke:#000000;stroke-width:0.74025977"
         d="m 265.55831,171.19855 -0.74026,-1.48052 -2.22078,-0.74026 -1.48052,0 -2.22078,0.74026 -1.48052,2.22078 -0.74026,3.7013 0,3.7013 0.74026,2.96104 1.48052,1.48052 2.22078,0.74026 0.74026,0 2.22078,-0.74026 1.48052,-1.48052 0.74026,-2.22078 0,-0.74026 -0.74026,-2.22078 -1.48052,-1.48052 -2.22078,-0.74026 -0.74026,0 -2.22078,0.74026 -1.48052,1.48052 -0.74026,2.22078"
         id="path13690" />
      <path
         inkscape:connector-curvature="0"
         style="fill:none;stroke:#000000;stroke-width:0.74025977"
         d="m 275.18169,168.97777 -2.22078,0.74026 -1.48052,2.22078 -0.74026,3.7013 0,2.22078 0.74026,3.7013 1.48052,2.22078 2.22078,0.74026 1.48052,0 2.22078,-0.74026 1.48052,-2.22078 0.74026,-3.7013 0,-2.22078 -0.74026,-3.7013 -1.48052,-2.22078 -2.22078,-0.74026 -1.48052,0"
         id="path13692" />
      <path
         inkscape:connector-curvature="0"
         style="fill:none;stroke:#000000;stroke-width:0.74025977"
         d="m 295.1687,174.15959 -0.74026,2.22078 -1.48052,1.48052 -2.22078,0.74026 -0.74026,0 -2.22078,-0.74026 -1.48052,-1.48052 -0.74026,-2.22078 0,-0.74026 0.74026,-2.22078 1.48052,-1.48052 2.22078,-0.74026 0.74026,0 2.22078,0.74026 1.48052,1.48052 0.74026,2.96104 0,3.7013 -0.74026,3.7013 -1.48052,2.22078 -2.22078,0.74026 -1.48052,0 -2.22078,-0.74026 -0.74026,-1.48052"
         id="path13694" />
    </g>
    <g
       id="g13696"
       transform="matrix(0,0.66443448,-0.70195852,0,-29.021571,-61.780312)">
      <path
         id="path13698"
         d="m 705.16038,-104.16332 0,21 m 0,-21 9,0 3,1 1,1 1,2 0,2 -1,2 -1,1 -3,1 -9,0 m 7,0 7,11"
         style="fill:none;stroke:#000000"
         inkscape:connector-curvature="0" />
      <path
         id="path13700"
         d="m 731.16038,-104.16332 -2,1 -2,2 -1,2 -1,3 0,5 1,3 1,2 2,2 2,1 4,0 2,-1 2,-2 1,-2 1,-3 0,-5 -1,-3 -1,-2 -2,-2 -2,-1 -4,0"
         style="fill:none;stroke:#000000"
         inkscape:connector-curvature="0" />
      <path
         id="path13702"
         d="m 748.16038,-104.16332 0,21 m 0,-21 9,0 3,1 1,1 1,2 0,2 -1,2 -1,1 -3,1 m -9,0 9,0 3,1 1,1 1,2 0,3 -1,2 -1,1 -3,1 -9,0"
         style="fill:none;stroke:#000000"
         inkscape:connector-curvature="0" />
      <path
         id="path13704"
         d="m 774.16038,-104.16332 -2,1 -2,2 -1,2 -1,3 0,5 1,3 1,2 2,2 2,1 4,0 2,-1 2,-2 1,-2 1,-3 0,-5 -1,-3 -1,-2 -2,-2 -2,-1 -4,0"
         style="fill:none;stroke:#000000"
         inkscape:connector-curvature="0" />
      <path
         id="path13706"
         d="m 791.16038,-104.16332 0,21 m 0,-21 7,0 3,1 2,2 1,2 1,3 0,5 -1,3 -1,2 -2,2 -3,1 -7,0"
         style="fill:none;stroke:#000000"
         inkscape:connector-curvature="0" />
      <path
         id="path13708"
         d="m 812.16038,-104.16332 0,21 m 0,-21 9,0 3,1 1,1 1,2 0,2 -1,2 -1,1 -3,1 -9,0 m 7,0 7,11"
         style="fill:none;stroke:#000000"
         inkscape:connector-curvature="0" />
      <path
         id="path13710"
         d="m 838.16038,-104.16332 -8,21 m 8,-21 8,21 m -13,-7 10,0"
         style="fill:none;stroke:#000000"
         inkscape:connector-curvature="0" />
      <path
         id="path13712"
         d="m 849.16038,-104.16332 5,21 m 5,-21 -5,21 m 5,-21 5,21 m 5,-21 -5,21"
         style="fill:none;stroke:#000000"
         inkscape:connector-curvature="0" />
      <path
         id="path13714"
         d="m 875.16038,-88.16332 -1,1 1,1 1,-1 -1,-1"
         style="fill:none;stroke:#000000"
         inkscape:connector-curvature="0" />
      <path
         id="path13716"
         d="m 897.16038,-99.16332 -1,-2 -2,-2 -2,-1 -4,0 -2,1 -2,2 -1,2 -1,3 0,5 1,3 1,2 2,2 2,1 4,0 2,-1 2,-2 1,-2"
         style="fill:none;stroke:#000000"
         inkscape:connector-curvature="0" />
      <path
         id="path13718"
         d="m 909.16038,-104.16332 -2,1 -2,2 -1,2 -1,3 0,5 1,3 1,2 2,2 2,1 4,0 2,-1 2,-2 1,-2 1,-3 0,-5 -1,-3 -1,-2 -2,-2 -2,-1 -4,0"
         style="fill:none;stroke:#000000"
         inkscape:connector-curvature="0" />
    </g>
    <rect
       style="fill:none;stroke:#000000;stroke-width:1.19831538;stroke-miterlimit:4;stroke-opacity:1;stroke-dasharray:none"
       id="rect13720"
       width="246.51921"
       height="152.35725"
       x="291.7323"
       y="401.74789" />
    <path
       id="path13722"
       d="m 369.54144,503.59573 c -0.51179,-0.0139 -0.7842,-0.58892 -0.6687,-0.73066 0.32824,-0.3807 1.57255,0.0717 2.29941,0.59432 1.30046,0.90872 1.42968,1.90857 0.66341,2.21562 -1.06665,0.45032 -3.56694,-0.52201 -5.23291,-1.8581 -2.08196,-1.77494 -1.95328,-3.37451 -0.17004,-3.62559 2.32123,-0.32675 5.86294,1.11859 7.85888,2.97884 2.66938,2.24312 2.92504,4.58289 0.80647,5.22154 -2.31796,0.74664 -7.65278,-1.35992 -11.31746,-4.38868 -3.70259,-3.47557 -3.09297,-6.29116 0.61891,-6.43379 4.41862,-0.23798 10.20011,2.18205 13.12697,5.25677 3.96744,3.4452 4.51027,7.16951 1.22771,8.26733 -3.24474,1.20037 -11.65169,-2.04548 -17.68171,-6.93429 -5.4181,-5.31517 -4.08564,-9.2595 1.6987,-9.14541 6.68044,-0.083 14.52117,3.21762 18.1017,7.40311 5.17475,4.53284 6.15129,9.64567 1.9201,11.33601 -3.83965,1.79496 -15.52882,-2.54575 -24.31899,-9.46409 -7.21339,-7.29849 -4.90412,-12.25432 3.06918,-11.75268 9.07796,0.11058 18.79182,4.17904 22.78168,9.39495 6.29109,5.51558 7.82787,12.00377 2.87491,14.41004 -4.08478,2.51633 -19.25638,-2.83135 -31.22042,-11.94678 -9.07677,-9.42688 -5.52553,-15.25293 4.72906,-14.25047 11.57738,0.30773 22.97936,5.02038 27.16594,11.21224 7.31982,6.40281 9.52342,14.24096 4.08219,17.47201 -3.96531,3.34356 -22.80831,-2.87791 -38.37529,-14.35148 -10.99499,-11.69937 -5.92858,-18.23259 6.67623,-16.63614 14.14346,0.46993 27.05067,5.69693 31.2538,12.83793 8.26596,7.20402 11.22409,16.35793 5.53036,20.50483 -3.47213,4.24817 -26.15912,-2.66642 -45.77036,-16.648 -12.9531,-14.11303 -6.09313,-21.17055 8.90763,-18.90977 16.74046,0.55698 30.97246,6.16636 35.04455,14.25817 9.13546,7.92875 12.91875,18.35845 7.20699,23.49272 -2.60316,5.19466 -29.28461,-2.18389 -53.39083,-18.80803 -14.93367,-16.66244 -6.00005,-24.04429 11.41964,-21.07391 19.3327,0.5282 34.71141,6.38953 38.53761,15.4623 9.93501,8.58648 14.59858,20.24902 9.0983,26.42126 -1.36468,6.1418 -32.16161,-1.42324 -61.21969,-20.80514 -16.91736,-19.33998 -5.63157,-26.83217 14.20802,-23.13368 21.88516,0.34352 38.2353,6.33123 41.73216,16.44303 10.67152,9.18641 16.25735,22.03852 11.18959,29.27806 0.22804,7.04445 -34.76859,-0.38352 -69.23799,-22.61567 -18.88294,-22.13558 -4.97132,-29.5138 17.26762,-25.09667 24.36425,-0.0355 41.51415,5.96091 44.6276,17.1964 11.35196,9.7374 17.89089,23.73788 13.46576,32.0532 2.14972,7.85543 -37.08667,0.93017 -77.42585,-24.21936 -20.80724,-25.03656 -4.00421,-32.0705 20.59295,-26.97264 26.73898,-0.64447 44.52163,5.25322 47.22361,17.72193 11.9825,10.24766 19.4968,25.35958 15.91078,34.73931 4.36567,8.52822 -39.09955,2.50711 -85.76205,-25.59952 -22.66562,-28.02779 -2.7166,-34.4856 24.178,-28.77344 28.98206,-1.51594 47.23692,4.18817 49.52031,18.02231 12.56862,10.7249 21.07376,26.91737 18.50847,37.33199 6.83148,9.01942 -40.79478,4.33133 -94.225,-26.74364 -24.43205,-31.09143 -1.09649,-36.74492 28.01624,-30.51256 31.07168,-2.67847 49.64639,2.75116 51.51875,18.1033 13.11456,11.17611 22.6211,28.42593 21.24191,39.82981 9.4951,9.29139 -42.164,6.38239 -102.7928,-27.64337 -26.07971,-34.20736 0.86687,-38.83688 32.10086,-32.20511 32.99324,-4.15645 51.74543,0.93295 53.22136,17.97373 13.62289,11.60747 24.1377,29.90041 24.0938,42.23431 12.29825,9.31443 -43.20388,8.63619 -111.44378,-28.29468 -27.58107,-37.35298 3.18232,-40.75295 36.42462,-33.86757 34.74122,-5.97013 53.53986,-1.27096 54.63237,17.64519 14.0944,12.02442 25.62144,31.35634 27.04574,44.54994 15.17982,9.06855 -43.91621,11.06595 -120.15674,-28.698 -28.90852,-40.5035 5.85731,-42.48752 40.9805,-35.51705 36.3211,-8.13631 55.0469,-3.86151 55.75802,17.13149 14.52798,12.43164 27.06824,32.80938 30.07821,46.78397 18.07915,8.54442 -44.30885,13.64344 -128.91116,-28.85783 -30.03438,-43.63192 8.89751,-44.0382 45.76157,-37.17142 37.7519,-10.66901 56.29612,-6.83738 56.60724,16.44865 14.92093,12.83291 28.47113,34.27498 33.16951,48.94626 20.9395,7.7431 -44.39538,16.34009 -137.68696,-28.78269 -30.93178,-46.70961 12.30679,-45.40583 50.7614,-38.84893 39.0692,-13.58114 57.33122,-10.19723 57.19155,15.61449 15.26851,13.23115 29.81987,35.76828 36.29571,51.04898 23.71145,6.67539 -44.19606,19.12833 -146.46465,-28.48473 -31.5749,-49.70647 16.08713,-46.59452 55.9744,-40.56799 40.33009,-16.88647 58.21383,-13.94344 57.52513,14.64814 15.56541,13.62851 31.10027,37.30421 39.42947,53.10679 26.35469,5.36019 -43.73734,21.98285 -155.2248,-27.97968 -31.93921,-52.59117 20.23878,-47.61144 61.39667,-42.34679 41.62114,-20.60189 59.03439,-18.08702 57.62418,13.56969 15.80593,14.02628 32.29442,38.89699 42.53999,55.13657 28.83769,3.82324 -43.05254,24.88194 -163.94772,-27.28654 -32.00211,-55.33153 24.76035,-48.4667 67.02609,-44.20341 43.07181,-24.7483 59.93652,-22.65194 57.50624,12.39999 15.98501,14.42499 33.38094,40.56025 45.59257,57.15738 31.13701,2.09597 -42.18178,27.80904 -172.61314,-26.42733 -31.74302,-57.89492 29.6468,-49.17408 72.86376,-46.15552 44.86924,-29.34743 61.15524,-27.67129 57.18902,11.16014 16.09885,14.82481 34.33552,42.30677 48.5485,59.19086 33.23626,0.21403 -41.17177,30.75389 -181.19946,-25.42697 -31.14397,-60.24886 34.89417,-49.74889 78.91437,-48.22077 47.26273,-34.41087 63.03319,-33.1578 56.6886,9.87105 16.14548,15.22583 35.13236,44.14868 51.36556,61.26149 35.12667,-1.78428 -40.07477,33.71405 -189.6837,-24.31318 -30.18969,-62.36111 40.49494,-50.20981 85.18778,-50.41656 50.53005,-39.92483 65.92996,-39.06349 56.01804,8.55275 16.12452,15.62904 35.74514,46.09746 53.99803,63.39738 33.60337,-3.02043 -16.0687,32.00754 -172.08273,-1.39432"
       style="fill:none;stroke:#000000;stroke-width:0.91949147px;stroke-linecap:butt;stroke-linejoin:miter;stroke-opacity:1"
       inkscape:connector-curvature="0" />
    <rect
       y="593.55505"
       x="23.772831"
       height="152.35725"
       width="246.51921"
       id="rect14090"
       style="fill:none;stroke:#000000;stroke-width:1.19831538;stroke-miterlimit:4;stroke-opacity:1;stroke-dasharray:none" />
    <g
       id="g14092"
       transform="matrix(0,1.1542093,-1.6701003,0,458.53198,842.41813)">
      <g
         id="g14094"
         transform="matrix(1.3396491,0,0,1.3396491,71.134779,-58.513152)">
        <path
           inkscape:connector-curvature="0"
           style="fill:none;stroke:#000000;stroke-width:0.74025977"
           d="m -211.16896,168.97777 0,15.54546 m 0,-15.54546 6.66234,0 2.22078,0.74026 0.74026,0.74026 0.74026,1.48052 0,1.48052 -0.74026,1.48052 -0.74026,0.74026 -2.22078,0.74026 -6.66234,0 m 5.18182,0 5.18182,8.14286"
           id="path14096" />
        <path
           inkscape:connector-curvature="0"
           style="fill:none;stroke:#000000;stroke-width:0.74025977"
           d="m -191.92221,168.97777 -1.48052,0.74026 -1.48052,1.48052 -0.74026,1.48052 -0.74026,2.22078 0,3.7013 0.74026,2.22078 0.74026,1.48052 1.48052,1.48052 1.48052,0.74026 2.96104,0 1.48052,-0.74026 1.48052,-1.48052 0.74026,-1.48052 0.74026,-2.22078 0,-3.7013 -0.74026,-2.22078 -0.74026,-1.48052 -1.48052,-1.48052 -1.48052,-0.74026 -2.96104,0"
           id="path14098" />
        <path
           inkscape:connector-curvature="0"
           style="fill:none;stroke:#000000;stroke-width:0.74025977"
           d="m -179.33779,168.97777 0,15.54546 m 0,-15.54546 6.66234,0 2.22078,0.74026 0.74026,0.74026 0.74026,1.48052 0,1.48052 -0.74026,1.48052 -0.74026,0.74026 -2.22078,0.74026 m -6.66234,0 6.66234,0 2.22078,0.74026 0.74026,0.74026 0.74026,1.48052 0,2.22078 -0.74026,1.48052 -0.74026,0.74026 -2.22078,0.74026 -6.66234,0"
           id="path14100" />
        <path
           inkscape:connector-curvature="0"
           style="fill:none;stroke:#000000;stroke-width:0.74025977"
           d="m -160.09104,168.97777 -1.48052,0.74026 -1.48052,1.48052 -0.74026,1.48052 -0.74026,2.22078 0,3.7013 0.74026,2.22078 0.74026,1.48052 1.48052,1.48052 1.48052,0.74026 2.96104,0 1.48052,-0.74026 1.48052,-1.48052 0.74026,-1.48052 0.74026,-2.22078 0,-3.7013 -0.74026,-2.22078 -0.74026,-1.48052 -1.48052,-1.48052 -1.48052,-0.74026 -2.96104,0"
           id="path14102" />
        <path
           inkscape:connector-curvature="0"
           style="fill:none;stroke:#000000;stroke-width:0.74025977"
           d="m -144.54558,168.97777 0,15.54546 m -5.18182,-15.54546 10.36364,0"
           id="path14104" />
        <path
           inkscape:connector-curvature="0"
           style="fill:none;stroke:#000000;stroke-width:0.74025977"
           d="m -135.66247,168.97777 0,15.54546"
           id="path14106" />
        <path
           inkscape:connector-curvature="0"
           style="fill:none;stroke:#000000;stroke-width:0.74025977"
           d="m -119.37675,172.67907 -0.74026,-1.48052 -1.48052,-1.48052 -1.48052,-0.74026 -2.96104,0 -1.48052,0.74026 -1.48052,1.48052 -0.74026,1.48052 -0.74026,2.22078 0,3.7013 0.74026,2.22078 0.74026,1.48052 1.48052,1.48052 1.48052,0.74026 2.96104,0 1.48052,-0.74026 1.48052,-1.48052 0.74026,-1.48052"
           id="path14108" />
      </g>
    </g>
    <g
       id="g14110"
       transform="matrix(0,1.5103119,-2.2323791,0,514.25276,753.41402)">
      <path
         id="path14112"
         d="m -102.35078,168.97777 0,15.54546 m 0,-15.54546 5.181819,0 2.220779,0.74026 1.48052,1.48052 0.740259,1.48052 0.74026,2.22078 0,3.7013 -0.74026,2.22078 -0.740259,1.48052 -1.48052,1.48052 -2.220779,0.74026 -5.181819,0"
         style="fill:none;stroke:#000000;stroke-width:0.74025977"
         inkscape:connector-curvature="0" />
      <path
         id="path14114"
         d="m -86.805325,168.97777 0,15.54546 m 0,-15.54546 6.662337,0 2.22078,0.74026 0.740259,0.74026 0.74026,1.48052 0,1.48052 -0.74026,1.48052 -0.740259,0.74026 -2.22078,0.74026 -6.662337,0 m 5.181818,0 5.181818,8.14286"
         style="fill:none;stroke:#000000;stroke-width:0.74025977"
         inkscape:connector-curvature="0" />
      <path
         id="path14116"
         d="m -67.558571,168.97777 -5.922078,15.54546 m 5.922078,-15.54546 5.922078,15.54546 m -9.623377,-5.18182 7.402598,0"
         style="fill:none;stroke:#000000;stroke-width:0.74025977"
         inkscape:connector-curvature="0" />
      <path
         id="path14118"
         d="m -59.415714,168.97777 3.701298,15.54546 m 3.701299,-15.54546 -3.701299,15.54546 m 3.701299,-15.54546 3.701299,15.54546 m 3.701298,-15.54546 -3.701298,15.54546"
         style="fill:none;stroke:#000000;stroke-width:0.74025977"
         inkscape:connector-curvature="0" />
      <path
         id="path14120"
         d="m -40.168961,168.97777 0,15.54546"
         style="fill:none;stroke:#000000;stroke-width:0.74025977"
         inkscape:connector-curvature="0" />
      <path
         id="path14122"
         d="m -34.246883,168.97777 0,15.54546 m 0,-15.54546 10.363636,15.54546 m 0,-15.54546 0,15.54546"
         style="fill:none;stroke:#000000;stroke-width:0.74025977"
         inkscape:connector-curvature="0" />
      <path
         id="path14124"
         d="m -7.5975321,172.67907 -0.7402597,-1.48052 -1.4805195,-1.48052 -1.4805197,-0.74026 -2.961039,0 -1.480519,0.74026 -1.48052,1.48052 -0.740259,1.48052 -0.74026,2.22078 0,3.7013 0.74026,2.22078 0.740259,1.48052 1.48052,1.48052 1.480519,0.74026 2.961039,0 1.4805197,-0.74026 1.4805195,-1.48052 0.7402597,-1.48052 0,-2.22078 m -3.7012989,0 3.7012989,0"
         style="fill:none;stroke:#000000;stroke-width:0.74025977"
         inkscape:connector-curvature="0" />
    </g>
    <g
       id="g14126"
       transform="matrix(0,1.1265633,-1.098994,0,281.74806,588.11477)">
      <path
         id="path14128"
         d="m 19.792078,172.67907 -0.74026,-1.48052 -1.480519,-1.48052 -1.48052,-0.74026 -2.961039,0 -1.480519,0.74026 -1.48052,1.48052 -0.7402594,1.48052 -0.7402598,2.22078 0,3.7013 0.7402598,2.22078 0.7402594,1.48052 1.48052,1.48052 1.480519,0.74026 2.961039,0 1.48052,-0.74026 1.480519,-1.48052 0.74026,-1.48052"
         style="fill:none;stroke:#000000;stroke-width:0.74025977"
         inkscape:connector-curvature="0" />
      <path
         id="path14130"
         d="m 28.675195,168.97777 -1.48052,0.74026 -1.480519,1.48052 -0.74026,1.48052 -0.74026,2.22078 0,3.7013 0.74026,2.22078 0.74026,1.48052 1.480519,1.48052 1.48052,0.74026 2.961038,0 1.48052,-0.74026 1.480519,-1.48052 0.74026,-1.48052 0.74026,-2.22078 0,-3.7013 -0.74026,-2.22078 -0.74026,-1.48052 -1.480519,-1.48052 -1.48052,-0.74026 -2.961038,0"
         style="fill:none;stroke:#000000;stroke-width:0.74025977"
         inkscape:connector-curvature="0" />
      <path
         id="path14132"
         d="m 41.259611,168.97777 0,15.54546 m 0,0 8.883116,0"
         style="fill:none;stroke:#000000;stroke-width:0.74025977"
         inkscape:connector-curvature="0" />
      <path
         id="path14134"
         d="m 53.844026,168.97777 0,15.54546 m 0,0 8.883116,0"
         style="fill:none;stroke:#000000;stroke-width:0.74025977"
         inkscape:connector-curvature="0" />
      <path
         id="path14136"
         d="m 66.428442,168.97777 0,15.54546 m 0,-15.54546 9.623376,0 m -9.623376,7.4026 5.922077,0 m -5.922077,8.14286 9.623376,0"
         style="fill:none;stroke:#000000;stroke-width:0.74025977"
         inkscape:connector-curvature="0" />
      <path
         id="path14138"
         d="m 90.857013,172.67907 -0.74026,-1.48052 -1.480519,-1.48052 -1.48052,-0.74026 -2.961039,0 -1.480519,0.74026 -1.48052,1.48052 -0.740259,1.48052 -0.74026,2.22078 0,3.7013 0.74026,2.22078 0.740259,1.48052 1.48052,1.48052 1.480519,0.74026 2.961039,0 1.48052,-0.74026 1.480519,-1.48052 0.74026,-1.48052"
         style="fill:none;stroke:#000000;stroke-width:0.74025977"
         inkscape:connector-curvature="0" />
      <path
         id="path14140"
         d="m 98.99987,168.97777 0,15.54546 m -5.181818,-15.54546 10.363638,0"
         style="fill:none;stroke:#000000;stroke-width:0.74025977"
         inkscape:connector-curvature="0" />
      <path
         id="path14142"
         d="m 107.88299,168.97777 0,15.54546"
         style="fill:none;stroke:#000000;stroke-width:0.74025977"
         inkscape:connector-curvature="0" />
      <path
         id="path14144"
         d="m 111.58428,168.97777 5.92208,15.54546 m 5.92208,-15.54546 -5.92208,15.54546"
         style="fill:none;stroke:#000000;stroke-width:0.74025977"
         inkscape:connector-curvature="0" />
      <path
         id="path14146"
         d="m 127.12974,168.97777 0,15.54546 m 0,-15.54546 9.62338,0 m -9.62338,7.4026 5.92208,0 m -5.92208,8.14286 9.62338,0"
         style="fill:none;stroke:#000000;stroke-width:0.74025977"
         inkscape:connector-curvature="0" />
    </g>
    <g
       id="g14148"
       transform="matrix(-0.02611459,0.99061833,-1.4874384,-0.01739204,330.14807,451.94674)">
      <path
         id="path14150"
         d="m 155.99987,168.97777 -2.22078,0.74026 -0.74026,1.48052 0,1.48052 0.74026,1.48052 1.48052,0.74026 2.96104,0.74026 2.22078,0.74026 1.48052,1.48052 0.74026,1.48052 0,2.22078 -0.74026,1.48052 -0.74026,0.74026 -2.22078,0.74026 -2.96104,0 -2.22078,-0.74026 -0.74026,-0.74026 -0.74026,-1.48052 0,-2.22078 0.74026,-1.48052 1.48052,-1.48052 2.22078,-0.74026 2.96104,-0.74026 1.48052,-0.74026 0.74026,-1.48052 0,-1.48052 -0.74026,-1.48052 -2.22078,-0.74026 -2.96104,0"
         style="fill:none;stroke:#000000;stroke-width:0.74025977"
         inkscape:connector-curvature="0" />
      <path
         id="path14152"
         d="m 169.32454,171.93881 1.48052,-0.74026 2.22078,-2.22078 0,15.54546"
         style="fill:none;stroke:#000000;stroke-width:0.74025977"
         inkscape:connector-curvature="0" />
      <path
         id="path14154"
         d="m 182.64922,172.67907 0,-0.74026 0.74026,-1.48052 0.74026,-0.74026 1.48052,-0.74026 2.96104,0 1.48052,0.74026 0.74026,0.74026 0.74026,1.48052 0,1.48052 -0.74026,1.48052 -1.48052,2.22078 -7.4026,7.4026 10.36364,0"
         style="fill:none;stroke:#000000;stroke-width:0.74025977"
         inkscape:connector-curvature="0" />
      <path
         id="path14156"
         d="m 205.59727,168.97777 -7.4026,0 -0.74026,6.66234 0.74026,-0.74026 2.22078,-0.74026 2.22078,0 2.22078,0.74026 1.48052,1.48052 0.74026,2.22078 0,1.48052 -0.74026,2.22078 -1.48052,1.48052 -2.22078,0.74026 -2.22078,0 -2.22078,-0.74026 -0.74026,-0.74026 -0.74026,-1.48052"
         style="fill:none;stroke:#000000;stroke-width:0.74025977"
         inkscape:connector-curvature="0" />
      <path
         id="path14158"
         d="m 221.88299,168.97777 -7.4026,15.54546 m -2.96104,-15.54546 10.36364,0"
         style="fill:none;stroke:#000000;stroke-width:0.74025977"
         inkscape:connector-curvature="0" />
      <path
         id="path14160"
         d="m 235.20766,168.97777 -7.4026,0 -0.74026,6.66234 0.74026,-0.74026 2.22078,-0.74026 2.22078,0 2.22078,0.74026 1.48052,1.48052 0.74026,2.22078 0,1.48052 -0.74026,2.22078 -1.48052,1.48052 -2.22078,0.74026 -2.22078,0 -2.22078,-0.74026 -0.74026,-0.74026 -0.74026,-1.48052"
         style="fill:none;stroke:#000000;stroke-width:0.74025977"
         inkscape:connector-curvature="0" />
      <path
         id="path14162"
         d="m 245.5713,168.97777 -2.22078,0.74026 -1.48052,2.22078 -0.74026,3.7013 0,2.22078 0.74026,3.7013 1.48052,2.22078 2.22078,0.74026 1.48052,0 2.22078,-0.74026 1.48052,-2.22078 0.74026,-3.7013 0,-2.22078 -0.74026,-3.7013 -1.48052,-2.22078 -2.22078,-0.74026 -1.48052,0"
         style="fill:none;stroke:#000000;stroke-width:0.74025977"
         inkscape:connector-curvature="0" />
      <path
         id="path14164"
         d="m 265.55831,171.19855 -0.74026,-1.48052 -2.22078,-0.74026 -1.48052,0 -2.22078,0.74026 -1.48052,2.22078 -0.74026,3.7013 0,3.7013 0.74026,2.96104 1.48052,1.48052 2.22078,0.74026 0.74026,0 2.22078,-0.74026 1.48052,-1.48052 0.74026,-2.22078 0,-0.74026 -0.74026,-2.22078 -1.48052,-1.48052 -2.22078,-0.74026 -0.74026,0 -2.22078,0.74026 -1.48052,1.48052 -0.74026,2.22078"
         style="fill:none;stroke:#000000;stroke-width:0.74025977"
         inkscape:connector-curvature="0" />
      <path
         id="path14166"
         d="m 275.18169,168.97777 -2.22078,0.74026 -1.48052,2.22078 -0.74026,3.7013 0,2.22078 0.74026,3.7013 1.48052,2.22078 2.22078,0.74026 1.48052,0 2.22078,-0.74026 1.48052,-2.22078 0.74026,-3.7013 0,-2.22078 -0.74026,-3.7013 -1.48052,-2.22078 -2.22078,-0.74026 -1.48052,0"
         style="fill:none;stroke:#000000;stroke-width:0.74025977"
         inkscape:connector-curvature="0" />
      <path
         id="path14168"
         d="m 295.1687,174.15959 -0.74026,2.22078 -1.48052,1.48052 -2.22078,0.74026 -0.74026,0 -2.22078,-0.74026 -1.48052,-1.48052 -0.74026,-2.22078 0,-0.74026 0.74026,-2.22078 1.48052,-1.48052 2.22078,-0.74026 0.74026,0 2.22078,0.74026 1.48052,1.48052 0.74026,2.96104 0,3.7013 -0.74026,3.7013 -1.48052,2.22078 -2.22078,0.74026 -1.48052,0 -2.22078,-0.74026 -0.74026,-1.48052"
         style="fill:none;stroke:#000000;stroke-width:0.74025977"
         inkscape:connector-curvature="0" />
    </g>
    <g
       transform="matrix(0,0.66443448,-0.70195852,0,-29.021571,130.02684)"
       id="g14170">
      <path
         inkscape:connector-curvature="0"
         style="fill:none;stroke:#000000"
         d="m 705.16038,-104.16332 0,21 m 0,-21 9,0 3,1 1,1 1,2 0,2 -1,2 -1,1 -3,1 -9,0 m 7,0 7,11"
         id="path14172" />
      <path
         inkscape:connector-curvature="0"
         style="fill:none;stroke:#000000"
         d="m 731.16038,-104.16332 -2,1 -2,2 -1,2 -1,3 0,5 1,3 1,2 2,2 2,1 4,0 2,-1 2,-2 1,-2 1,-3 0,-5 -1,-3 -1,-2 -2,-2 -2,-1 -4,0"
         id="path14174" />
      <path
         inkscape:connector-curvature="0"
         style="fill:none;stroke:#000000"
         d="m 748.16038,-104.16332 0,21 m 0,-21 9,0 3,1 1,1 1,2 0,2 -1,2 -1,1 -3,1 m -9,0 9,0 3,1 1,1 1,2 0,3 -1,2 -1,1 -3,1 -9,0"
         id="path14176" />
      <path
         inkscape:connector-curvature="0"
         style="fill:none;stroke:#000000"
         d="m 774.16038,-104.16332 -2,1 -2,2 -1,2 -1,3 0,5 1,3 1,2 2,2 2,1 4,0 2,-1 2,-2 1,-2 1,-3 0,-5 -1,-3 -1,-2 -2,-2 -2,-1 -4,0"
         id="path14178" />
      <path
         inkscape:connector-curvature="0"
         style="fill:none;stroke:#000000"
         d="m 791.16038,-104.16332 0,21 m 0,-21 7,0 3,1 2,2 1,2 1,3 0,5 -1,3 -1,2 -2,2 -3,1 -7,0"
         id="path14180" />
      <path
         inkscape:connector-curvature="0"
         style="fill:none;stroke:#000000"
         d="m 812.16038,-104.16332 0,21 m 0,-21 9,0 3,1 1,1 1,2 0,2 -1,2 -1,1 -3,1 -9,0 m 7,0 7,11"
         id="path14182" />
      <path
         inkscape:connector-curvature="0"
         style="fill:none;stroke:#000000"
         d="m 838.16038,-104.16332 -8,21 m 8,-21 8,21 m -13,-7 10,0"
         id="path14184" />
      <path
         inkscape:connector-curvature="0"
         style="fill:none;stroke:#000000"
         d="m 849.16038,-104.16332 5,21 m 5,-21 -5,21 m 5,-21 5,21 m 5,-21 -5,21"
         id="path14186" />
      <path
         inkscape:connector-curvature="0"
         style="fill:none;stroke:#000000"
         d="m 875.16038,-88.16332 -1,1 1,1 1,-1 -1,-1"
         id="path14188" />
      <path
         inkscape:connector-curvature="0"
         style="fill:none;stroke:#000000"
         d="m 897.16038,-99.16332 -1,-2 -2,-2 -2,-1 -4,0 -2,1 -2,2 -1,2 -1,3 0,5 1,3 1,2 2,2 2,1 4,0 2,-1 2,-2 1,-2"
         id="path14190" />
      <path
         inkscape:connector-curvature="0"
         style="fill:none;stroke:#000000"
         d="m 909.16038,-104.16332 -2,1 -2,2 -1,2 -1,3 0,5 1,3 1,2 2,2 2,1 4,0 2,-1 2,-2 1,-2 1,-3 0,-5 -1,-3 -1,-2 -2,-2 -2,-1 -4,0"
         id="path14192" />
    </g>
    <rect
       y="593.55505"
       x="291.7323"
       height="152.35725"
       width="246.51921"
       id="rect14194"
       style="fill:none;stroke:#000000;stroke-width:1.19831538;stroke-miterlimit:4;stroke-opacity:1;stroke-dasharray:none" />
    <path
       inkscape:connector-curvature="0"
       style="fill:none;stroke:#000000;stroke-width:0.43447572px;stroke-linecap:butt;stroke-linejoin:miter;stroke-opacity:1"
       d="m 438.28542,695.90014 c -0.28161,0.16896 -1.07825,0.46001 -1.18604,0.47163 -0.27933,0.0253 0.83497,-0.53932 1.94477,-0.93313 2.26461,-0.69832 4.02794,-1.12354 3.90595,-0.99322 -0.12323,0.17283 -3.34633,1.33027 -5.73814,2.36328 -1.8458,1.65034 -2.52472,2.5312 -2.72845,1.79259 -0.0516,-0.90172 2.39211,-2.82442 6.29969,-4.00079 6.52137,-1.98996 11.55675,-4.03821 10.49333,-3.31059 -1.02094,0.70098 -9.53172,4.071 -14.70026,6.51399 -0.59186,3.98202 0.37604,5.95338 -1.8445,3.81355 -1.37955,-2.40454 1.40368,-6.07248 8.19328,-7.89061 11.25321,-4.57635 19.44496,-10.88775 17.93453,-9.05684 -1.29265,1.4805 -16.19045,9.9464 -24.49034,14.21774 4.02862,6.75766 8.31797,9.04238 1.23657,6.0356 -4.44383,-4.1892 -1.96419,-9.74947 7.81085,-12.19253 15.49607,-8.9408 24.65347,-22.30814 23.71976,-19.49369 -0.62357,1.8149 -20.55726,20.06714 -32.56036,26.8056 12.60267,8.38641 20.78238,8.86961 6.08344,7.67776 -9.23801,-5.63214 -7.30063,-13.02055 5.5155,-16.19774 18.38016,-14.98747 24.69115,-36.91721 24.92646,-34.13947 0.23814,0.73881 -19.52657,33.59489 -35.92269,43.8555 24.86725,6.42559 35.58728,2.71246 12.04473,8.11151 -15.42455,-6.16776 -13.9688,-15.18767 1.86444,-19.32026 19.32747,-22.20118 18.44739,-52.19077 19.33044,-50.76634 -0.35179,-1.80575 -10.92244,47.69435 -32.26001,63.17584 39.10545,-1.76807 49.29275,-10.6773 18.37046,7.05158 -22.44286,-5.48858 -21.24795,-15.89313 -2.50598,-21.27499 18.12355,-29.88244 6.31979,-65.52022 6.27043,-66.14422 -3.77514,-4.36761 5.43786,58.36666 -20.79617,81.53435 51.94086,-18.0389 58.2889,-30.52918 24.37155,4.55739 -29.67911,-3.57898 -28.50644,-15.13096 -7.02811,-22.06969 14.88822,-37.34655 -10.17964,-74.97877 -13.1043,-77.14545 -9.86533,-4.65701 27.35872,61.82503 -2.55538,95.75204 58.78465,-42.34605 59.92807,-54.35874 29.53014,0.93058 -36.60073,-0.63781 -35.31796,-13.14995 -11.2989,-21.9006 9.99033,-44.05507 -29.0317,-79.65544 -36.26559,-81.72759 -16.65198,-1.12556 50.75628,55.87689 20.05464,103.68112 54.97569,-72.01314 53.18679,-78.83965 33.53547,-3.41262 -42.82,3.03881 -41.49364,-10.32611 -15.10232,-21.02909 3.94408,-49.67806 -48.2698,-79.61105 -60.17264,-79.42424 -21.49862,5.80286 70.86686,40.77482 44.09493,104.69876 37.34737,-101.73585 38.6916,-100.78553 36.2632,-8.049 -48.09457,7.1643 -47.04843,-7.05429 -18.38063,-19.68428 -2.68566,-54.10265 -66.34238,-75.60708 -82.16082,-71.22846 -22.73926,13.87161 83.71719,19.20068 66.97603,99.59952 5.69521,-124.56307 18.25558,-117.86819 37.72355,-12.61605 -52.28644,11.53007 -52.12792,-3.68011 -21.18187,-18.00887 -9.35444,-57.40282 -82.2541,-68.76922 -100.50542,-59.04507 -20.50806,20.3113 87.2955,-4.59801 87.01903,90.05917 -36.46534,-133.68806 -5.77928,-128.91145 38.00609,-16.84012 -55.29811,16.03324 -56.92193,-0.46565 -23.6112,-16.0432 -15.58038,-59.79018 -95.53196,-60.29807 -114.5457,-45.02182 -16.28532,23.24933 82.00374,-26.17474 103.58539,77.97754 -82.27718,-124.51204 -31.14152,-133.81372 37.23551,-20.53844 -57.00275,20.66511 -61.58424,2.44159 -25.80008,-13.73367 -20.95716,-61.55522 -106.09796,-51.27573 -124.45934,-31.02153 -11.79434,22.35841 70.25484,-42.22351 116.86274,64.95967 -123.07429,-96.24306 -56.01504,-133.24067 35.54255,-23.60409 -57.17176,25.45879 -66.17079,5.07532 -27.89386,-10.95557 -25.1449,-63.00892 -114.11176,-42.56879 -130.88854,-18.34395 -8.15914,18.69374 55.4422,-51.39825 127.50403,52.04504 -150.60071,-52.41653 -79.19612,-128.25585 33.05122,-25.9842 -55.41467,30.38095 -70.61894,7.77878 -30.05429,-7.54138 -27.84778,-64.42799 -119.83044,-34.80136 -134.58643,-7.67783 -5.72628,14.10881 40.75467,-54.36538 136.28725,39.66549 -159.18743,-0.10746 -100.06629,-119.99504 29.87573,-27.65611 -51.16577,35.14419 -74.74268,11.33922 -32.4682,-3.31224 -28.78671,-66.0023 -123.50147,-28.36891 -136.17821,0.80848 -4.30732,10.56266 28.32847,-53.20333 143.88079,27.74467 -147.13693,51.87741 -118.45483,-109.43959 26.12922,-28.60861 -43.80057,38.93653 -78.08068,16.95211 -35.3517,1.88687 -27.68268,-67.77996 -125.2997,-23.46018 -136.05139,7.32763 -3.41749,9.51076 18.9908,-50.51054 150.72375,15.85678 -116.92134,95.21079 -134.46367,-97.29319 21.93549,-28.82963 -33.01222,40.13956 -79.42115,25.80198 -38.93704,8.14934 -24.25915,-69.60964 -125.30541,-20.0744 -134.34809,12.34212 -2.37387,11.54316 12.53295,-48.60902 156.98521,3.38944 -74.23054,123.92132 -148.29412,-83.94383 17.44277,-28.30056 -19.57104,36.28291 -76.3268,38.09513 -43.42691,15.46357 -18.288,-71.08502 -123.52567,-18.02526 -131.02963,16.46918 -0.41357,16.33145 8.22878,-49.05194 162.56147,-10.3117 -26.30225,135.42867 -160.09811,-69.48972 12.83598,-27.00199 -6.34772,24.71577 -65.60073,51.58829 -48.90079,23.67557 -9.68872,-71.50562 -119.96304,-16.94068 -125.99527,20.42094 3.05324,22.83025 5.29491,-52.44343 167.08254,-25.82043 19.88295,130.57708 -169.86082,-53.81117 8.34454,-24.93374 1.11954,4.46746 -45.62399,60.55397 -55.16537,32.48416 1.30536,-69.89794 -114.73145,-16.29011 -119.24688,24.94857 8.15942,29.64899 3.11276,-58.48255 169.92184,-43.52326 59.03492,112.84542 -177.33099,-36.65474 4.23682,-22.13952 -4.03839,-21.07942 -20.10994,57.48449 -61.55835,41.51027 13.92731,-65.17254 -108.2054,-15.49832 -111.08389,30.72824 14.45945,35.48338 1.21692,-66.17175 170.21342,-63.51109 88.3315,87.09928 -181.94947,-17.81729 0.79922,-18.74298 -25.79464,-42.98947 0.6081,39.24073 -66.78788,50.54743 26.70054,-56.54835 -101.12642,-14.26044 -102.25066,38.06662 21.05911,39.45906 -0.79801,-74.16162 166.89819,-85.46406 107.50756,58.28422 -182.88435,2.73011 -1.7077,-14.96956 -60.40342,-50.31145 6.11685,12.84974 -69.07828,60.11751 37.59335,-44.40945 -94.41232,-13.20467 -93.77979,46.26947 23.28866,37.76538 -10.23712,-60.40539 110.52657,-26.92266"
       id="path14196" />
  </g>
</svg>
