<?xml version="1.0" encoding="UTF-8" standalone="no"?>
<!-- Created with Inkscape (http://www.inkscape.org/) -->

<svg
   xmlns:dc="http://purl.org/dc/elements/1.1/"
   xmlns:cc="http://creativecommons.org/ns#"
   xmlns:rdf="http://www.w3.org/1999/02/22-rdf-syntax-ns#"
   xmlns:svg="http://www.w3.org/2000/svg"
   xmlns="http://www.w3.org/2000/svg"
   xmlns:sodipodi="http://sodipodi.sourceforge.net/DTD/sodipodi-0.dtd"
   xmlns:inkscape="http://www.inkscape.org/namespaces/inkscape"
   width="744.09448819"
   height="1052.3622047"
   id="svg3783"
   version="1.1"
   inkscape:version="0.48.2 r9819"
   sodipodi:docname="letter sized frame blank.svg">
  <sodipodi:namedview
     id="base"
     pagecolor="#ffffff"
     bordercolor="#666666"
     borderopacity="1.0"
     inkscape:pageopacity="0.0"
     inkscape:pageshadow="2"
     inkscape:zoom="0.49497475"
     inkscape:cx="479.30252"
     inkscape:cy="710.15993"
     inkscape:document-units="px"
     inkscape:current-layer="layer1"
     showgrid="false"
     inkscape:window-width="1280"
     inkscape:window-height="749"
     inkscape:window-x="-4"
     inkscape:window-y="-4"
     inkscape:window-maximized="1" />
  <defs
     id="defs3785" />
  <metadata
     id="metadata3788">
    <rdf:RDF>
      <cc:Work
         rdf:about="">
        <dc:format>image/svg+xml</dc:format>
        <dc:type
           rdf:resource="http://purl.org/dc/dcmitype/StillImage" />
        <dc:title></dc:title>
      </cc:Work>
    </rdf:RDF>
  </metadata>
  <g
     id="layer1"
     inkscape:groupmode="layer"
     inkscape:label="Layer 1">
    <flowRoot
       style="fill:black;stroke:none;stroke-opacity:1;stroke-width:1px;stroke-linejoin:miter;stroke-linecap:butt;fill-opacity:1;font-family:Sans;font-style:normal;font-weight:normal;font-size:40px;line-height:125%;letter-spacing:0px;word-spacing:0px"
       id="flowRoot3475"
       xml:space="preserve"><flowRegion
         id="flowRegion3477"><rect
           y="840.23016"
           x="40.406101"
           height="76.771591"
           width="474.7717"
           id="rect3479" /></flowRegion><flowPara
         id="flowPara3481" /></flowRoot>    <rect
       y="17.88991"
       x="7.7728319"
       height="152.35725"
       width="246.51921"
       id="rect3005"
       style="fill:none;stroke:#000000;stroke-width:1.19831538;stroke-miterlimit:4;stroke-opacity:1;stroke-dasharray:none" />
    <g
       id="g3184"
       transform="matrix(0,1.1542093,-1.6701003,0,424.53198,266.75301)">
      <g
         id="g3226"
         transform="matrix(1.3396491,0,0,1.3396491,71.134779,-58.513152)">
        <path
           inkscape:connector-curvature="0"
           style="fill:none;stroke:#000000;stroke-width:0.74025977"
           d="m -211.16896,168.97777 0,15.54546 m 0,-15.54546 6.66234,0 2.22078,0.74026 0.74026,0.74026 0.74026,1.48052 0,1.48052 -0.74026,1.48052 -0.74026,0.74026 -2.22078,0.74026 -6.66234,0 m 5.18182,0 5.18182,8.14286"
           id="path3022" />
        <path
           inkscape:connector-curvature="0"
           style="fill:none;stroke:#000000;stroke-width:0.74025977"
           d="m -191.92221,168.97777 -1.48052,0.74026 -1.48052,1.48052 -0.74026,1.48052 -0.74026,2.22078 0,3.7013 0.74026,2.22078 0.74026,1.48052 1.48052,1.48052 1.48052,0.74026 2.96104,0 1.48052,-0.74026 1.48052,-1.48052 0.74026,-1.48052 0.74026,-2.22078 0,-3.7013 -0.74026,-2.22078 -0.74026,-1.48052 -1.48052,-1.48052 -1.48052,-0.74026 -2.96104,0"
           id="path3024" />
        <path
           inkscape:connector-curvature="0"
           style="fill:none;stroke:#000000;stroke-width:0.74025977"
           d="m -179.33779,168.97777 0,15.54546 m 0,-15.54546 6.66234,0 2.22078,0.74026 0.74026,0.74026 0.74026,1.48052 0,1.48052 -0.74026,1.48052 -0.74026,0.74026 -2.22078,0.74026 m -6.66234,0 6.66234,0 2.22078,0.74026 0.74026,0.74026 0.74026,1.48052 0,2.22078 -0.74026,1.48052 -0.74026,0.74026 -2.22078,0.74026 -6.66234,0"
           id="path3026" />
        <path
           inkscape:connector-curvature="0"
           style="fill:none;stroke:#000000;stroke-width:0.74025977"
           d="m -160.09104,168.97777 -1.48052,0.74026 -1.48052,1.48052 -0.74026,1.48052 -0.74026,2.22078 0,3.7013 0.74026,2.22078 0.74026,1.48052 1.48052,1.48052 1.48052,0.74026 2.96104,0 1.48052,-0.74026 1.48052,-1.48052 0.74026,-1.48052 0.74026,-2.22078 0,-3.7013 -0.74026,-2.22078 -0.74026,-1.48052 -1.48052,-1.48052 -1.48052,-0.74026 -2.96104,0"
           id="path3028" />
        <path
           inkscape:connector-curvature="0"
           style="fill:none;stroke:#000000;stroke-width:0.74025977"
           d="m -144.54558,168.97777 0,15.54546 m -5.18182,-15.54546 10.36364,0"
           id="path3030" />
        <path
           inkscape:connector-curvature="0"
           style="fill:none;stroke:#000000;stroke-width:0.74025977"
           d="m -135.66247,168.97777 0,15.54546"
           id="path3032" />
        <path
           inkscape:connector-curvature="0"
           style="fill:none;stroke:#000000;stroke-width:0.74025977"
           d="m -119.37675,172.67907 -0.74026,-1.48052 -1.48052,-1.48052 -1.48052,-0.74026 -2.96104,0 -1.48052,0.74026 -1.48052,1.48052 -0.74026,1.48052 -0.74026,2.22078 0,3.7013 0.74026,2.22078 0.74026,1.48052 1.48052,1.48052 1.48052,0.74026 2.96104,0 1.48052,-0.74026 1.48052,-1.48052 0.74026,-1.48052"
           id="path3034" />
      </g>
    </g>
    <path
       inkscape:connector-curvature="0"
       style="fill:none;stroke:#000000;stroke-width:0.74025977"
       d=""
       id="path3036" />
    <g
       id="g3193"
       transform="matrix(0,1.5103119,-2.2323791,0,480.25276,177.7489)">
      <path
         id="path3038"
         d="m -102.35078,168.97777 0,15.54546 m 0,-15.54546 5.181819,0 2.220779,0.74026 1.48052,1.48052 0.740259,1.48052 0.74026,2.22078 0,3.7013 -0.74026,2.22078 -0.740259,1.48052 -1.48052,1.48052 -2.220779,0.74026 -5.181819,0"
         style="fill:none;stroke:#000000;stroke-width:0.74025977"
         inkscape:connector-curvature="0" />
      <path
         id="path3040"
         d="m -86.805325,168.97777 0,15.54546 m 0,-15.54546 6.662337,0 2.22078,0.74026 0.740259,0.74026 0.74026,1.48052 0,1.48052 -0.74026,1.48052 -0.740259,0.74026 -2.22078,0.74026 -6.662337,0 m 5.181818,0 5.181818,8.14286"
         style="fill:none;stroke:#000000;stroke-width:0.74025977"
         inkscape:connector-curvature="0" />
      <path
         id="path3042"
         d="m -67.558571,168.97777 -5.922078,15.54546 m 5.922078,-15.54546 5.922078,15.54546 m -9.623377,-5.18182 7.402598,0"
         style="fill:none;stroke:#000000;stroke-width:0.74025977"
         inkscape:connector-curvature="0" />
      <path
         id="path3044"
         d="m -59.415714,168.97777 3.701298,15.54546 m 3.701299,-15.54546 -3.701299,15.54546 m 3.701299,-15.54546 3.701299,15.54546 m 3.701298,-15.54546 -3.701298,15.54546"
         style="fill:none;stroke:#000000;stroke-width:0.74025977"
         inkscape:connector-curvature="0" />
      <path
         id="path3046"
         d="m -40.168961,168.97777 0,15.54546"
         style="fill:none;stroke:#000000;stroke-width:0.74025977"
         inkscape:connector-curvature="0" />
      <path
         id="path3048"
         d="m -34.246883,168.97777 0,15.54546 m 0,-15.54546 10.363636,15.54546 m 0,-15.54546 0,15.54546"
         style="fill:none;stroke:#000000;stroke-width:0.74025977"
         inkscape:connector-curvature="0" />
      <path
         id="path3050"
         d="m -7.5975321,172.67907 -0.7402597,-1.48052 -1.4805195,-1.48052 -1.4805197,-0.74026 -2.961039,0 -1.480519,0.74026 -1.48052,1.48052 -0.740259,1.48052 -0.74026,2.22078 0,3.7013 0.74026,2.22078 0.740259,1.48052 1.48052,1.48052 1.480519,0.74026 2.961039,0 1.4805197,-0.74026 1.4805195,-1.48052 0.7402597,-1.48052 0,-2.22078 m -3.7012989,0 3.7012989,0"
         style="fill:none;stroke:#000000;stroke-width:0.74025977"
         inkscape:connector-curvature="0" />
    </g>
    <path
       inkscape:connector-curvature="0"
       style="fill:none;stroke:#000000;stroke-width:0.74025977"
       d=""
       id="path3052" />
    <g
       id="g3202"
       transform="matrix(0,1.1265633,-1.098994,0,247.74806,12.449653)">
      <path
         id="path3054"
         d="m 19.792078,172.67907 -0.74026,-1.48052 -1.480519,-1.48052 -1.48052,-0.74026 -2.961039,0 -1.480519,0.74026 -1.48052,1.48052 -0.7402594,1.48052 -0.7402598,2.22078 0,3.7013 0.7402598,2.22078 0.7402594,1.48052 1.48052,1.48052 1.480519,0.74026 2.961039,0 1.48052,-0.74026 1.480519,-1.48052 0.74026,-1.48052"
         style="fill:none;stroke:#000000;stroke-width:0.74025977"
         inkscape:connector-curvature="0" />
      <path
         id="path3056"
         d="m 28.675195,168.97777 -1.48052,0.74026 -1.480519,1.48052 -0.74026,1.48052 -0.74026,2.22078 0,3.7013 0.74026,2.22078 0.74026,1.48052 1.480519,1.48052 1.48052,0.74026 2.961038,0 1.48052,-0.74026 1.480519,-1.48052 0.74026,-1.48052 0.74026,-2.22078 0,-3.7013 -0.74026,-2.22078 -0.74026,-1.48052 -1.480519,-1.48052 -1.48052,-0.74026 -2.961038,0"
         style="fill:none;stroke:#000000;stroke-width:0.74025977"
         inkscape:connector-curvature="0" />
      <path
         id="path3058"
         d="m 41.259611,168.97777 0,15.54546 m 0,0 8.883116,0"
         style="fill:none;stroke:#000000;stroke-width:0.74025977"
         inkscape:connector-curvature="0" />
      <path
         id="path3060"
         d="m 53.844026,168.97777 0,15.54546 m 0,0 8.883116,0"
         style="fill:none;stroke:#000000;stroke-width:0.74025977"
         inkscape:connector-curvature="0" />
      <path
         id="path3062"
         d="m 66.428442,168.97777 0,15.54546 m 0,-15.54546 9.623376,0 m -9.623376,7.4026 5.922077,0 m -5.922077,8.14286 9.623376,0"
         style="fill:none;stroke:#000000;stroke-width:0.74025977"
         inkscape:connector-curvature="0" />
      <path
         id="path3064"
         d="m 90.857013,172.67907 -0.74026,-1.48052 -1.480519,-1.48052 -1.48052,-0.74026 -2.961039,0 -1.480519,0.74026 -1.48052,1.48052 -0.740259,1.48052 -0.74026,2.22078 0,3.7013 0.74026,2.22078 0.740259,1.48052 1.48052,1.48052 1.480519,0.74026 2.961039,0 1.48052,-0.74026 1.480519,-1.48052 0.74026,-1.48052"
         style="fill:none;stroke:#000000;stroke-width:0.74025977"
         inkscape:connector-curvature="0" />
      <path
         id="path3066"
         d="m 98.99987,168.97777 0,15.54546 m -5.181818,-15.54546 10.363638,0"
         style="fill:none;stroke:#000000;stroke-width:0.74025977"
         inkscape:connector-curvature="0" />
      <path
         id="path3068"
         d="m 107.88299,168.97777 0,15.54546"
         style="fill:none;stroke:#000000;stroke-width:0.74025977"
         inkscape:connector-curvature="0" />
      <path
         id="path3070"
         d="m 111.58428,168.97777 5.92208,15.54546 m 5.92208,-15.54546 -5.92208,15.54546"
         style="fill:none;stroke:#000000;stroke-width:0.74025977"
         inkscape:connector-curvature="0" />
      <path
         id="path3072"
         d="m 127.12974,168.97777 0,15.54546 m 0,-15.54546 9.62338,0 m -9.62338,7.4026 5.92208,0 m -5.92208,8.14286 9.62338,0"
         style="fill:none;stroke:#000000;stroke-width:0.74025977"
         inkscape:connector-curvature="0" />
    </g>
    <path
       inkscape:connector-curvature="0"
       style="fill:none;stroke:#000000;stroke-width:0.74025977"
       d=""
       id="path3074" />
    <g
       id="g3214"
       transform="matrix(-0.02611459,0.99061833,-1.4874384,-0.01739204,296.14807,-123.71838)">
      <path
         id="path3076"
         d="m 155.99987,168.97777 -2.22078,0.74026 -0.74026,1.48052 0,1.48052 0.74026,1.48052 1.48052,0.74026 2.96104,0.74026 2.22078,0.74026 1.48052,1.48052 0.74026,1.48052 0,2.22078 -0.74026,1.48052 -0.74026,0.74026 -2.22078,0.74026 -2.96104,0 -2.22078,-0.74026 -0.74026,-0.74026 -0.74026,-1.48052 0,-2.22078 0.74026,-1.48052 1.48052,-1.48052 2.22078,-0.74026 2.96104,-0.74026 1.48052,-0.74026 0.74026,-1.48052 0,-1.48052 -0.74026,-1.48052 -2.22078,-0.74026 -2.96104,0"
         style="fill:none;stroke:#000000;stroke-width:0.74025977"
         inkscape:connector-curvature="0" />
      <path
         id="path3078"
         d="m 169.32454,171.93881 1.48052,-0.74026 2.22078,-2.22078 0,15.54546"
         style="fill:none;stroke:#000000;stroke-width:0.74025977"
         inkscape:connector-curvature="0" />
      <path
         id="path3080"
         d="m 182.64922,172.67907 0,-0.74026 0.74026,-1.48052 0.74026,-0.74026 1.48052,-0.74026 2.96104,0 1.48052,0.74026 0.74026,0.74026 0.74026,1.48052 0,1.48052 -0.74026,1.48052 -1.48052,2.22078 -7.4026,7.4026 10.36364,0"
         style="fill:none;stroke:#000000;stroke-width:0.74025977"
         inkscape:connector-curvature="0" />
      <path
         id="path3082"
         d="m 205.59727,168.97777 -7.4026,0 -0.74026,6.66234 0.74026,-0.74026 2.22078,-0.74026 2.22078,0 2.22078,0.74026 1.48052,1.48052 0.74026,2.22078 0,1.48052 -0.74026,2.22078 -1.48052,1.48052 -2.22078,0.74026 -2.22078,0 -2.22078,-0.74026 -0.74026,-0.74026 -0.74026,-1.48052"
         style="fill:none;stroke:#000000;stroke-width:0.74025977"
         inkscape:connector-curvature="0" />
      <path
         id="path3084"
         d="m 221.88299,168.97777 -7.4026,15.54546 m -2.96104,-15.54546 10.36364,0"
         style="fill:none;stroke:#000000;stroke-width:0.74025977"
         inkscape:connector-curvature="0" />
      <path
         id="path3086"
         d="m 235.20766,168.97777 -7.4026,0 -0.74026,6.66234 0.74026,-0.74026 2.22078,-0.74026 2.22078,0 2.22078,0.74026 1.48052,1.48052 0.74026,2.22078 0,1.48052 -0.74026,2.22078 -1.48052,1.48052 -2.22078,0.74026 -2.22078,0 -2.22078,-0.74026 -0.74026,-0.74026 -0.74026,-1.48052"
         style="fill:none;stroke:#000000;stroke-width:0.74025977"
         inkscape:connector-curvature="0" />
      <path
         id="path3088"
         d="m 245.5713,168.97777 -2.22078,0.74026 -1.48052,2.22078 -0.74026,3.7013 0,2.22078 0.74026,3.7013 1.48052,2.22078 2.22078,0.74026 1.48052,0 2.22078,-0.74026 1.48052,-2.22078 0.74026,-3.7013 0,-2.22078 -0.74026,-3.7013 -1.48052,-2.22078 -2.22078,-0.74026 -1.48052,0"
         style="fill:none;stroke:#000000;stroke-width:0.74025977"
         inkscape:connector-curvature="0" />
      <path
         id="path3090"
         d="m 265.55831,171.19855 -0.74026,-1.48052 -2.22078,-0.74026 -1.48052,0 -2.22078,0.74026 -1.48052,2.22078 -0.74026,3.7013 0,3.7013 0.74026,2.96104 1.48052,1.48052 2.22078,0.74026 0.74026,0 2.22078,-0.74026 1.48052,-1.48052 0.74026,-2.22078 0,-0.74026 -0.74026,-2.22078 -1.48052,-1.48052 -2.22078,-0.74026 -0.74026,0 -2.22078,0.74026 -1.48052,1.48052 -0.74026,2.22078"
         style="fill:none;stroke:#000000;stroke-width:0.74025977"
         inkscape:connector-curvature="0" />
      <path
         id="path3092"
         d="m 275.18169,168.97777 -2.22078,0.74026 -1.48052,2.22078 -0.74026,3.7013 0,2.22078 0.74026,3.7013 1.48052,2.22078 2.22078,0.74026 1.48052,0 2.22078,-0.74026 1.48052,-2.22078 0.74026,-3.7013 0,-2.22078 -0.74026,-3.7013 -1.48052,-2.22078 -2.22078,-0.74026 -1.48052,0"
         style="fill:none;stroke:#000000;stroke-width:0.74025977"
         inkscape:connector-curvature="0" />
      <path
         id="path3094"
         d="m 295.1687,174.15959 -0.74026,2.22078 -1.48052,1.48052 -2.22078,0.74026 -0.74026,0 -2.22078,-0.74026 -1.48052,-1.48052 -0.74026,-2.22078 0,-0.74026 0.74026,-2.22078 1.48052,-1.48052 2.22078,-0.74026 0.74026,0 2.22078,0.74026 1.48052,1.48052 0.74026,2.96104 0,3.7013 -0.74026,3.7013 -1.48052,2.22078 -2.22078,0.74026 -1.48052,0 -2.22078,-0.74026 -0.74026,-1.48052"
         style="fill:none;stroke:#000000;stroke-width:0.74025977"
         inkscape:connector-curvature="0" />
    </g>
    <path
       inkscape:connector-curvature="0"
       style="fill:none;stroke:#000000;stroke-width:0.74025977"
       d=""
       id="path3096" />
    <rect
       style="fill:none;stroke:#000000;stroke-width:1.19831538;stroke-miterlimit:4;stroke-opacity:1;stroke-dasharray:none"
       id="rect5424"
       width="246.51921"
       height="152.35725"
       x="275.7323"
       y="17.88991" />
    <path
       id="path9834"
       d="m 484.99492,91.061194 c -0.0251,0.709584 -0.0199,-1.556787 -0.034,-2.395143 -0.0957,-2.278236 -0.0509,-2.042457 0.0341,-0.668563 0.0752,2.389256 -0.0934,6.903936 -0.35369,9.417233 -0.55727,3.592509 -0.47904,2.777189 -0.0388,-0.808731 0.25699,-4.83744 -0.0299,-12.422152 -0.52938,-16.48308 -1.02242,-5.121145 -0.60507,-3.766067 0.50277,2.069162 0.59223,7.033009 -0.15689,17.769945 -1.3816,23.369698 -2.0543,6.24032 -1.46825,4.23667 0.54363,-3.6372 0.99296,-9.516804 -0.0922,-23.368537 -1.75821,-30.29103 -2.93567,-7.825203 -1.72408,-5.432521 1.60011,4.65126 1.65219,11.470621 -0.0265,28.53519 -2.87482,37.00641 -4.39262,8.42791 -2.88307,5.40536 1.74301,-6.31056 2.15468,-14.12228 -0.29913,-34.161571 -3.77488,-43.60824 -5.76003,-10.012983 -3.3876,-6.84858 3.30085,6.964621 3.27115,15.71962 0.38298,39.070529 -4.70872,50.139619 -7.42657,9.93059 -4.63703,6.18098 3.51591,-8.73151 3.69908,-18.644573 -0.7376,-44.692696 -6.60944,-56.227353 -9.36522,-11.445047 -5.54315,-7.874481 5.56028,8.898805 5.4577,19.722092 1.14957,49.284748 -6.75121,62.592818 -10.97397,10.5907 -6.63,6.49662 5.80573,-10.81359 5.57983,-23.064616 -1.48834,-54.863638 -10.26576,-67.947996 -13.57078,-11.921438 -8.10883,-8.385447 8.31439,10.349271 8.21096,23.409526 2.34248,59.092365 -8.86686,74.202685 -14.82526,10.29887 -8.7531,6.31065 8.54472,-12.48274 7.74847,-27.367287 -2.62343,-64.577447 -14.72018,-78.580652 -18.15241,-11.284285 -10.97515,-8.273758 11.48046,11.220826 11.51952,26.708597 4.02016,68.410096 -10.92125,84.820516 -18.7534,8.99522 -10.89348,5.606 11.65663,-13.67837 10.15517,-31.543006 -4.20413,-73.737346 -19.92109,-87.950561 -22.85034,-9.425611 -14.00808,-7.45388 14.95835,11.430853 15.36061,29.54337 6.22894,77.156248 -12.78503,94.313608 -22.52446,6.6705 -12.93929,4.38913 15.05907,-14.35435 12.74946,-35.587502 -6.27879,-82.246754 -25.78922,-95.901399 -27.37981,-6.294389 -17.05305,-5.867541 18.63239,10.912551 19.69937,31.837056 9.00155,85.250908 -14.33801,102.566028 -25.90811,3.36593 -14.78408,2.68887 18.66617,-14.479 15.48067,-39.501697 -8.88088,-90.010244 -32.21867,-102.2992 -31.44296,-1.901725 -19.94054,-3.48822 22.37363,9.617762 24.48838,33.51377 12.35621,92.616428 -15.47266,109.479348 -28.68792,-0.82922 -16.331,0.55429 22.39092,-14.03523 18.29848,-43.29076 -12.02744,-96.934358 -39.07886,-107.035561 -34.74192,3.676322 -22.49212,-0.324631 26.04287,7.519525 29.66735,34.500484 16.29584,99.178106 -16.09745,114.973016 -30.67082,-5.78182 -17.49633,-1.94809 26.14754,-13.01988 21.15325,-46.963619 -15.71768,-102.929085 -46.21714,-110.030922 -36.99233,10.298532 -24.52767,3.576961 29.49402,4.614225 35.16309,34.728832 20.80757,104.865067 -16.13957,118.984557 -31.6954,-11.32104 -18.21224,-4.73764 29.85347,-11.44306 23.99639,-50.532095 -19.93191,-107.909381 -53.4621,-111.237162 -37.93694,17.761166 -25.87295,8.131875 32.57793,0.923036 40.88966,34.137367 25.86259,109.611426 -15.54724,121.469626 -31.63876,-17.24573 -18.42889,-7.7232 33.43147,-9.32688 C 483.34988,85.780153 431.93837,27.993251 395.9418,29.150468 358.5829,54.953742 369.57423,42.368138 431.08833,25.643415 477.83732,58.316928 462.50456,139.0008 416.79694,148.0453 386.37529,124.71215 398.68131,137.2382 453.60801,141.34112 483.06713,83.92805 423.85122,26.81837 386.09021,33.081508 350.99662,67.196324 360.21756,51.757765 423.14734,24.478437 475.77912,54.774184 460.55592,140.52904 410.78083,146.25122 382.76919,116.90286 393.5193,132.36209 450.71081,142.6342 482.6987,81.877563 415.47964,26.606079 376.77966,38.480953 c -31.03922,42.347109 -24.27863,24.317853 38.1769,-14.266489 58.41856,26.97567 43.76506,117.647636 -9.79118,119.591396 -24.42452,-35.05417 -15.875,-16.87041 42.73503,-0.11503 34.32354,-64.056354 -40.95827,-116.268098 -79.66685,-98.413593 -25.16504,50.125479 -21.5118,29.926165 38.38742,-20.374513 63.98143,22.699946 50.3977,118.115236 -6.60789,115.883906 -19.7232,-40.22068 -13.98255,-19.65695 45.18309,3.74638 36.42437,-67.32658 -46.82519,-115.21314 -84.52993,-91.168919 -17.51716,57.063559 -17.54038,35.265307 37.5888,-26.782071 69.18581,17.472079 57.2064,117.43193 -2.8818,110.69337 -14.01542,-44.634765 -11.62737,-22.16305 47.24118,7.90769 38.25036,-70.57981 -52.70411,-112.851451 -88.33695,-82.581446 -8.22152,62.778936 -12.37901,40.087786 35.70392,-33.324589 73.89272,11.314097 64.08074,115.589195 1.30043,104.079275 -7.44884,-48.108573 -8.86678,-24.31392 48.88682,12.30698 39.76314,-73.825978 -58.45468,-109.191056 -90.92156,-72.84493 2.51642,66.9092 -6.09185,44.14352 32.68178,-39.821454 77.96147,4.267774 70.90201,112.592804 5.83305,96.116994 -0.20522,-50.486742 -5.76971,-26.04788 50.10784,16.88166 40.92603,-77.071784 -63.92705,-104.261681 -92.13995,-62.181519 14.41497,69.128159 1.20623,47.189549 28.50098,-46.080212 81.25218,-3.604346 77.54527,108.463861 10.59361,86.897441 7.50712,-51.652481 -2.41367,-27.31809 50.90191,21.56977 41.70428,-80.319915 -68.96534,-98.11617 -91.87559,-50.837695 27.12299,69.161435 9.35004,49.000115 23.17175,-51.901238 83.62924,-12.218434 83.882,103.239603 15.44633,76.526363 15.46149,-51.531732 1.11835,-28.093326 51.27602,26.31155 42.06515,-83.568716 -73.4114,-90.831705 -90.04383,-39.07973 40.22962,66.80073 18.12681,49.37694 16.73793,-57.082934 84.9643,-21.469146 89.78266,96.974104 20.24541,65.123774 23.4219,-50.095681 4.74102,-28.358354 51.24563,31.05048 41.97822,-86.811545 -77.10912,-82.510314 -86.59547,-27.18816 53.27691,61.91613 27.28077,48.15882 9.27769,-61.427335 85.13976,-31.230052 95.11948,89.738445 24.83883,52.823175 31.15227,-47.361357 8.36981,-28.113536 50.83387,35.73437 41.41567,-90.036437 -79.90882,-73.278907 -81.51982,-15.45203 65.77501,54.46617 36.51957,45.23061 0.90348,-64.745772 84.05227,-41.354515 99.76937,81.620702 29.07256,39.770702 34.20372,-43.242778 17.12053,-33.226691 27.50845,34.61892"
       style="fill:none;stroke:#000000;stroke-width:0.14076965px;stroke-linecap:butt;stroke-linejoin:miter;stroke-opacity:1"
       inkscape:connector-curvature="0" />
    <rect
       style="fill:none;stroke:#000000;stroke-width:1.19831538;stroke-miterlimit:4;stroke-opacity:1;stroke-dasharray:none"
       id="rect11661"
       width="246.51921"
       height="152.35725"
       x="7.7728319"
       y="215.87981" />
    <g
       transform="matrix(0,1.1542093,-1.6701003,0,424.53198,464.74291)"
       id="g11663">
      <g
         transform="matrix(1.3396491,0,0,1.3396491,71.134779,-58.513152)"
         id="g11665">
        <path
           id="path11667"
           d="m -211.16896,168.97777 0,15.54546 m 0,-15.54546 6.66234,0 2.22078,0.74026 0.74026,0.74026 0.74026,1.48052 0,1.48052 -0.74026,1.48052 -0.74026,0.74026 -2.22078,0.74026 -6.66234,0 m 5.18182,0 5.18182,8.14286"
           style="fill:none;stroke:#000000;stroke-width:0.74025977"
           inkscape:connector-curvature="0" />
        <path
           id="path11669"
           d="m -191.92221,168.97777 -1.48052,0.74026 -1.48052,1.48052 -0.74026,1.48052 -0.74026,2.22078 0,3.7013 0.74026,2.22078 0.74026,1.48052 1.48052,1.48052 1.48052,0.74026 2.96104,0 1.48052,-0.74026 1.48052,-1.48052 0.74026,-1.48052 0.74026,-2.22078 0,-3.7013 -0.74026,-2.22078 -0.74026,-1.48052 -1.48052,-1.48052 -1.48052,-0.74026 -2.96104,0"
           style="fill:none;stroke:#000000;stroke-width:0.74025977"
           inkscape:connector-curvature="0" />
        <path
           id="path11671"
           d="m -179.33779,168.97777 0,15.54546 m 0,-15.54546 6.66234,0 2.22078,0.74026 0.74026,0.74026 0.74026,1.48052 0,1.48052 -0.74026,1.48052 -0.74026,0.74026 -2.22078,0.74026 m -6.66234,0 6.66234,0 2.22078,0.74026 0.74026,0.74026 0.74026,1.48052 0,2.22078 -0.74026,1.48052 -0.74026,0.74026 -2.22078,0.74026 -6.66234,0"
           style="fill:none;stroke:#000000;stroke-width:0.74025977"
           inkscape:connector-curvature="0" />
        <path
           id="path11673"
           d="m -160.09104,168.97777 -1.48052,0.74026 -1.48052,1.48052 -0.74026,1.48052 -0.74026,2.22078 0,3.7013 0.74026,2.22078 0.74026,1.48052 1.48052,1.48052 1.48052,0.74026 2.96104,0 1.48052,-0.74026 1.48052,-1.48052 0.74026,-1.48052 0.74026,-2.22078 0,-3.7013 -0.74026,-2.22078 -0.74026,-1.48052 -1.48052,-1.48052 -1.48052,-0.74026 -2.96104,0"
           style="fill:none;stroke:#000000;stroke-width:0.74025977"
           inkscape:connector-curvature="0" />
        <path
           id="path11675"
           d="m -144.54558,168.97777 0,15.54546 m -5.18182,-15.54546 10.36364,0"
           style="fill:none;stroke:#000000;stroke-width:0.74025977"
           inkscape:connector-curvature="0" />
        <path
           id="path11677"
           d="m -135.66247,168.97777 0,15.54546"
           style="fill:none;stroke:#000000;stroke-width:0.74025977"
           inkscape:connector-curvature="0" />
        <path
           id="path11679"
           d="m -119.37675,172.67907 -0.74026,-1.48052 -1.48052,-1.48052 -1.48052,-0.74026 -2.96104,0 -1.48052,0.74026 -1.48052,1.48052 -0.74026,1.48052 -0.74026,2.22078 0,3.7013 0.74026,2.22078 0.74026,1.48052 1.48052,1.48052 1.48052,0.74026 2.96104,0 1.48052,-0.74026 1.48052,-1.48052 0.74026,-1.48052"
           style="fill:none;stroke:#000000;stroke-width:0.74025977"
           inkscape:connector-curvature="0" />
      </g>
    </g>
    <g
       transform="matrix(0,1.5103119,-2.2323791,0,480.25276,375.7388)"
       id="g11681">
      <path
         inkscape:connector-curvature="0"
         style="fill:none;stroke:#000000;stroke-width:0.74025977"
         d="m -102.35078,168.97777 0,15.54546 m 0,-15.54546 5.181819,0 2.220779,0.74026 1.48052,1.48052 0.740259,1.48052 0.74026,2.22078 0,3.7013 -0.74026,2.22078 -0.740259,1.48052 -1.48052,1.48052 -2.220779,0.74026 -5.181819,0"
         id="path11683" />
      <path
         inkscape:connector-curvature="0"
         style="fill:none;stroke:#000000;stroke-width:0.74025977"
         d="m -86.805325,168.97777 0,15.54546 m 0,-15.54546 6.662337,0 2.22078,0.74026 0.740259,0.74026 0.74026,1.48052 0,1.48052 -0.74026,1.48052 -0.740259,0.74026 -2.22078,0.74026 -6.662337,0 m 5.181818,0 5.181818,8.14286"
         id="path11685" />
      <path
         inkscape:connector-curvature="0"
         style="fill:none;stroke:#000000;stroke-width:0.74025977"
         d="m -67.558571,168.97777 -5.922078,15.54546 m 5.922078,-15.54546 5.922078,15.54546 m -9.623377,-5.18182 7.402598,0"
         id="path11687" />
      <path
         inkscape:connector-curvature="0"
         style="fill:none;stroke:#000000;stroke-width:0.74025977"
         d="m -59.415714,168.97777 3.701298,15.54546 m 3.701299,-15.54546 -3.701299,15.54546 m 3.701299,-15.54546 3.701299,15.54546 m 3.701298,-15.54546 -3.701298,15.54546"
         id="path11689" />
      <path
         inkscape:connector-curvature="0"
         style="fill:none;stroke:#000000;stroke-width:0.74025977"
         d="m -40.168961,168.97777 0,15.54546"
         id="path11691" />
      <path
         inkscape:connector-curvature="0"
         style="fill:none;stroke:#000000;stroke-width:0.74025977"
         d="m -34.246883,168.97777 0,15.54546 m 0,-15.54546 10.363636,15.54546 m 0,-15.54546 0,15.54546"
         id="path11693" />
      <path
         inkscape:connector-curvature="0"
         style="fill:none;stroke:#000000;stroke-width:0.74025977"
         d="m -7.5975321,172.67907 -0.7402597,-1.48052 -1.4805195,-1.48052 -1.4805197,-0.74026 -2.961039,0 -1.480519,0.74026 -1.48052,1.48052 -0.740259,1.48052 -0.74026,2.22078 0,3.7013 0.74026,2.22078 0.740259,1.48052 1.48052,1.48052 1.480519,0.74026 2.961039,0 1.4805197,-0.74026 1.4805195,-1.48052 0.7402597,-1.48052 0,-2.22078 m -3.7012989,0 3.7012989,0"
         id="path11695" />
    </g>
    <g
       transform="matrix(0,1.1265633,-1.098994,0,247.74806,210.43955)"
       id="g11697">
      <path
         inkscape:connector-curvature="0"
         style="fill:none;stroke:#000000;stroke-width:0.74025977"
         d="m 19.792078,172.67907 -0.74026,-1.48052 -1.480519,-1.48052 -1.48052,-0.74026 -2.961039,0 -1.480519,0.74026 -1.48052,1.48052 -0.7402594,1.48052 -0.7402598,2.22078 0,3.7013 0.7402598,2.22078 0.7402594,1.48052 1.48052,1.48052 1.480519,0.74026 2.961039,0 1.48052,-0.74026 1.480519,-1.48052 0.74026,-1.48052"
         id="path11699" />
      <path
         inkscape:connector-curvature="0"
         style="fill:none;stroke:#000000;stroke-width:0.74025977"
         d="m 28.675195,168.97777 -1.48052,0.74026 -1.480519,1.48052 -0.74026,1.48052 -0.74026,2.22078 0,3.7013 0.74026,2.22078 0.74026,1.48052 1.480519,1.48052 1.48052,0.74026 2.961038,0 1.48052,-0.74026 1.480519,-1.48052 0.74026,-1.48052 0.74026,-2.22078 0,-3.7013 -0.74026,-2.22078 -0.74026,-1.48052 -1.480519,-1.48052 -1.48052,-0.74026 -2.961038,0"
         id="path11701" />
      <path
         inkscape:connector-curvature="0"
         style="fill:none;stroke:#000000;stroke-width:0.74025977"
         d="m 41.259611,168.97777 0,15.54546 m 0,0 8.883116,0"
         id="path11703" />
      <path
         inkscape:connector-curvature="0"
         style="fill:none;stroke:#000000;stroke-width:0.74025977"
         d="m 53.844026,168.97777 0,15.54546 m 0,0 8.883116,0"
         id="path11705" />
      <path
         inkscape:connector-curvature="0"
         style="fill:none;stroke:#000000;stroke-width:0.74025977"
         d="m 66.428442,168.97777 0,15.54546 m 0,-15.54546 9.623376,0 m -9.623376,7.4026 5.922077,0 m -5.922077,8.14286 9.623376,0"
         id="path11707" />
      <path
         inkscape:connector-curvature="0"
         style="fill:none;stroke:#000000;stroke-width:0.74025977"
         d="m 90.857013,172.67907 -0.74026,-1.48052 -1.480519,-1.48052 -1.48052,-0.74026 -2.961039,0 -1.480519,0.74026 -1.48052,1.48052 -0.740259,1.48052 -0.74026,2.22078 0,3.7013 0.74026,2.22078 0.740259,1.48052 1.48052,1.48052 1.480519,0.74026 2.961039,0 1.48052,-0.74026 1.480519,-1.48052 0.74026,-1.48052"
         id="path11709" />
      <path
         inkscape:connector-curvature="0"
         style="fill:none;stroke:#000000;stroke-width:0.74025977"
         d="m 98.99987,168.97777 0,15.54546 m -5.181818,-15.54546 10.363638,0"
         id="path11711" />
      <path
         inkscape:connector-curvature="0"
         style="fill:none;stroke:#000000;stroke-width:0.74025977"
         d="m 107.88299,168.97777 0,15.54546"
         id="path11713" />
      <path
         inkscape:connector-curvature="0"
         style="fill:none;stroke:#000000;stroke-width:0.74025977"
         d="m 111.58428,168.97777 5.92208,15.54546 m 5.92208,-15.54546 -5.92208,15.54546"
         id="path11715" />
      <path
         inkscape:connector-curvature="0"
         style="fill:none;stroke:#000000;stroke-width:0.74025977"
         d="m 127.12974,168.97777 0,15.54546 m 0,-15.54546 9.62338,0 m -9.62338,7.4026 5.92208,0 m -5.92208,8.14286 9.62338,0"
         id="path11717" />
    </g>
    <g
       transform="matrix(-0.02611459,0.99061833,-1.4874384,-0.01739204,296.14807,74.271519)"
       id="g11719">
      <path
         inkscape:connector-curvature="0"
         style="fill:none;stroke:#000000;stroke-width:0.74025977"
         d="m 155.99987,168.97777 -2.22078,0.74026 -0.74026,1.48052 0,1.48052 0.74026,1.48052 1.48052,0.74026 2.96104,0.74026 2.22078,0.74026 1.48052,1.48052 0.74026,1.48052 0,2.22078 -0.74026,1.48052 -0.74026,0.74026 -2.22078,0.74026 -2.96104,0 -2.22078,-0.74026 -0.74026,-0.74026 -0.74026,-1.48052 0,-2.22078 0.74026,-1.48052 1.48052,-1.48052 2.22078,-0.74026 2.96104,-0.74026 1.48052,-0.74026 0.74026,-1.48052 0,-1.48052 -0.74026,-1.48052 -2.22078,-0.74026 -2.96104,0"
         id="path11721" />
      <path
         inkscape:connector-curvature="0"
         style="fill:none;stroke:#000000;stroke-width:0.74025977"
         d="m 169.32454,171.93881 1.48052,-0.74026 2.22078,-2.22078 0,15.54546"
         id="path11723" />
      <path
         inkscape:connector-curvature="0"
         style="fill:none;stroke:#000000;stroke-width:0.74025977"
         d="m 182.64922,172.67907 0,-0.74026 0.74026,-1.48052 0.74026,-0.74026 1.48052,-0.74026 2.96104,0 1.48052,0.74026 0.74026,0.74026 0.74026,1.48052 0,1.48052 -0.74026,1.48052 -1.48052,2.22078 -7.4026,7.4026 10.36364,0"
         id="path11725" />
      <path
         inkscape:connector-curvature="0"
         style="fill:none;stroke:#000000;stroke-width:0.74025977"
         d="m 205.59727,168.97777 -7.4026,0 -0.74026,6.66234 0.74026,-0.74026 2.22078,-0.74026 2.22078,0 2.22078,0.74026 1.48052,1.48052 0.74026,2.22078 0,1.48052 -0.74026,2.22078 -1.48052,1.48052 -2.22078,0.74026 -2.22078,0 -2.22078,-0.74026 -0.74026,-0.74026 -0.74026,-1.48052"
         id="path11727" />
      <path
         inkscape:connector-curvature="0"
         style="fill:none;stroke:#000000;stroke-width:0.74025977"
         d="m 221.88299,168.97777 -7.4026,15.54546 m -2.96104,-15.54546 10.36364,0"
         id="path11729" />
      <path
         inkscape:connector-curvature="0"
         style="fill:none;stroke:#000000;stroke-width:0.74025977"
         d="m 235.20766,168.97777 -7.4026,0 -0.74026,6.66234 0.74026,-0.74026 2.22078,-0.74026 2.22078,0 2.22078,0.74026 1.48052,1.48052 0.74026,2.22078 0,1.48052 -0.74026,2.22078 -1.48052,1.48052 -2.22078,0.74026 -2.22078,0 -2.22078,-0.74026 -0.74026,-0.74026 -0.74026,-1.48052"
         id="path11731" />
      <path
         inkscape:connector-curvature="0"
         style="fill:none;stroke:#000000;stroke-width:0.74025977"
         d="m 245.5713,168.97777 -2.22078,0.74026 -1.48052,2.22078 -0.74026,3.7013 0,2.22078 0.74026,3.7013 1.48052,2.22078 2.22078,0.74026 1.48052,0 2.22078,-0.74026 1.48052,-2.22078 0.74026,-3.7013 0,-2.22078 -0.74026,-3.7013 -1.48052,-2.22078 -2.22078,-0.74026 -1.48052,0"
         id="path11733" />
      <path
         inkscape:connector-curvature="0"
         style="fill:none;stroke:#000000;stroke-width:0.74025977"
         d="m 265.55831,171.19855 -0.74026,-1.48052 -2.22078,-0.74026 -1.48052,0 -2.22078,0.74026 -1.48052,2.22078 -0.74026,3.7013 0,3.7013 0.74026,2.96104 1.48052,1.48052 2.22078,0.74026 0.74026,0 2.22078,-0.74026 1.48052,-1.48052 0.74026,-2.22078 0,-0.74026 -0.74026,-2.22078 -1.48052,-1.48052 -2.22078,-0.74026 -0.74026,0 -2.22078,0.74026 -1.48052,1.48052 -0.74026,2.22078"
         id="path11735" />
      <path
         inkscape:connector-curvature="0"
         style="fill:none;stroke:#000000;stroke-width:0.74025977"
         d="m 275.18169,168.97777 -2.22078,0.74026 -1.48052,2.22078 -0.74026,3.7013 0,2.22078 0.74026,3.7013 1.48052,2.22078 2.22078,0.74026 1.48052,0 2.22078,-0.74026 1.48052,-2.22078 0.74026,-3.7013 0,-2.22078 -0.74026,-3.7013 -1.48052,-2.22078 -2.22078,-0.74026 -1.48052,0"
         id="path11737" />
      <path
         inkscape:connector-curvature="0"
         style="fill:none;stroke:#000000;stroke-width:0.74025977"
         d="m 295.1687,174.15959 -0.74026,2.22078 -1.48052,1.48052 -2.22078,0.74026 -0.74026,0 -2.22078,-0.74026 -1.48052,-1.48052 -0.74026,-2.22078 0,-0.74026 0.74026,-2.22078 1.48052,-1.48052 2.22078,-0.74026 0.74026,0 2.22078,0.74026 1.48052,1.48052 0.74026,2.96104 0,3.7013 -0.74026,3.7013 -1.48052,2.22078 -2.22078,0.74026 -1.48052,0 -2.22078,-0.74026 -0.74026,-1.48052"
         id="path11739" />
    </g>
    <rect
       y="215.87981"
       x="275.7323"
       height="152.35725"
       width="246.51921"
       id="rect11741"
       style="fill:none;stroke:#000000;stroke-width:1.19831538;stroke-miterlimit:4;stroke-opacity:1;stroke-dasharray:none" />
    <path
       id="path11745"
       d="m 370.71462,341.91601 c -0.9596,-0.0954 2.14327,0.14731 3.2967,0.21816 3.1573,0.1307 2.81142,0.14315 0.8927,0.085 -3.3078,-0.17988 -9.42226,-0.82629 -12.75387,-1.34871 -4.68445,-0.92894 -3.59137,-0.74345 1.14318,0.0906 6.52739,0.78464 17.02892,1.25747 22.77857,1.1148 7.39349,-0.62727 5.3645,-0.33401 -3.0632,0.26505 -9.87881,-0.11674 -24.27438,-2.00919 -31.42372,-3.79516 -7.6775,-2.61174 -5.16108,-1.7983 4.79391,1.01568 12.63637,2.02405 32.02868,2.25786 42.11607,1.07013 11.7319,-2.59455 8.00921,-1.50029 -7.025,1.19487 -16.37084,0.57948 -39.04346,-2.90949 -49.43909,-6.51021 -9.70905,-4.86851 -6.1663,-3.12526 7.97188,2.47605 18.46527,3.65367 46.84081,2.97886 60.97662,-0.0812 15.50399,-5.76909 10.40791,-3.38151 -10.78148,2.89621 -22.79534,1.951 -53.56821,-3.38161 -66.58865,-9.23917 -10.58731,-7.42554 -6.53009,-4.57986 10.5736,4.35736 24.02104,5.60883 61.33046,3.27579 79.00762,-2.44636 18.19437,-9.98362 12.27107,-5.92006 -14.10609,5.34491 -29.05091,4.03645 -67.73158,-3.29879 -82.68472,-11.73927 -10.24257,-10.02954 -6.23541,-6.03229 12.52568,6.5436 29.30068,7.82513 75.36938,3.02017 95.84589,-6.06163 19.34087,-14.90666 13.32074,-8.97038 -16.76762,8.46355 -35.01141,6.85917 -81.41526,-2.55409 -97.55952,-13.79079 -8.67949,-12.46429 -5.30136,-7.37404 13.78225,8.92314 34.30862,10.24109 88.82174,2.10468 111.13067,-10.88243 18.58007,-20.05224 13.31345,-12.29658 -18.54372,12.11668 -40.53424,10.42249 -94.49388,-1.06482 -111.06114,-15.20659 -5.95794,-14.56195 -3.77346,-8.52205 14.32123,11.39361 39.05782,12.7989 101.54195,0.44862 124.5197,-16.7778 15.69801,-24.81494 12.0695,-15.58141 -19.23628,16.11011 -45.46426,14.70534 -106.83429,1.22346 -123.05063,-15.83997 -2.17747,-16.2077 -1.71517,-9.41985 14.14109,13.86514 43.56859,15.44489 113.37481,-1.99634 135.70684,-23.53025 10.66734,-28.53432 9.49945,-18.44929 -18.68773,20.1953 -49.63827,19.65813 -118.29695,4.33281 -133.39992,-15.59089 2.53494,-17.33853 0.79822,-10.03639 13.25665,16.2623 47.86766,18.12933 124.1582,-5.24102 144.44076,-30.8424 3.65593,-30.59013 5.62152,-20.50605 -16.79638,24.07957 -52.89016,25.19931 -128.73871,8.24971 -141.99136,-14.41013 8.03413,-17.93766 3.6847,-10.36311 11.69585,18.52495 51.98636,20.80639 133.72709,-9.25425 150.54096,-38.35155 -5.00362,-30.52824 0.56217,-21.39599 -13.52872,27.44344 -55.05736,31.21282 -138.01689,12.9227 -148.71886,-12.3018 14.16269,-18.02558 6.85922,-10.40988 9.49645,20.60805 55.95957,23.43367 141.91936,-13.95991 153.91005,-45.65281 -14.88058,-28.2102 -5.46539,-20.87769 -8.92638,29.96517 -55.98795,37.54689 -145.99462,18.26115 -153.49052,-9.32386 20.75395,-17.64874 10.23602,-10.2 6.70357,22.4809 59.82428,25.97173 148.58297,-19.23566 154.53833,-52.33176 -25.51408,-23.94619 -12.20157,-18.9145 -3.10501,31.353 -55.54835,44.01464 -152.54674,24.13592 -156.23225,-5.58608 27.63222,-16.86742 13.72982,-9.76553 3.36721,24.12566 63.61846,28.3835 153.58385,-24.91454 152.49927,-58.00686 -36.42883,-18.49896 -19.37824,-15.7567 3.75666,31.38506 -53.63156,50.39707 -157.56628,30.38188 -156.89261,-1.24596 34.61147,-15.74262 17.25657,-9.14228 -0.45934,25.53567 67.37989,30.63369 156.81422,-30.78974 147.93549,-62.38083 -47.11177,-12.84293 -26.71987,-11.94543 11.43675,29.95559 -50.16451,56.4488 -160.97054,36.80318 -155.44743,3.49852 41.4929,-14.32334 20.73356,-8.36553 -4.72076,26.71349 71.1449,32.68827 158.19943,-36.62352 141.04066,-65.2949 -57.03977,-7.78734 -33.91355,-8.15677 19.69311,27.12112 -45.11429,61.90693 -162.70624,43.18128 -151.90406,8.41895 48.06299,-12.63504 24.07945,-7.46623 -9.36073,27.66883 74.94746,34.51393 157.70341,-42.16116 132.04759,-66.76953 -65.76389,-3.73304 -40.61518,-4.93137 28.27857,23.12951 -38.49249,66.50411 -162.7527,49.2867 -146.30363,13.27006 54.09254,-10.66989 27.21415,-6.46787 -14.32272,28.41675 78.81804,36.07755 155.33042,-47.15055 121.22944,-67.00198 -72.96954,-0.65872 -46.51893,-2.48829 36.93994,18.40166 -30.35593,69.98542 -161.12246,54.8946 -138.72119,17.80751 59.3395,-8.38253 30.05951,-5.38466 -19.55031,28.97551 82.78241,37.34603 151.1231,-51.36775 108.90463,-66.30234 -78.48347,1.75128 -51.42202,-0.73587 45.41044,13.44784 -20.80453,72.13013 -157.85854,59.80471 -129.26275,21.80923 63.55651,-5.69303 32.54003,-4.22036 -24.98761,29.36508 86.86087,38.28602 145.15795,-54.64726 95.42557,-64.99396 -82.23885,3.94232 -55.23067,0.59593 53.41603,8.74412 -9.97591,72.77738 -153.02968,63.86503 -118.05988,25.10078 66.50367,-2.50191 34.58436,-2.96869 -30.57969,29.60562 91.06706,38.86399 137.54092,-56.91186 81.14921,-63.33368 -84.22105,6.36097 -57.91959,1.82585 60.69964,4.62845 1.96054,71.85246 -146.72516,66.99595 -105.26453,27.58081 67.96592,1.28269 36.1278,-1.61518 -36.27249,29.71618 95.40685,39.04634 128.40719,-58.19129 66.40906,-61.4813 -84.4198,9.38811 -59.4857,3.24972 67.04721,1.25175 14.80686,69.3873 -139.05306,69.20853 -91.04688,29.24028 67.77112,5.71024 37.11508,-0.14033 -42.01346,29.71382 99.87764,38.79996 117.92626,-58.61546 51.50236,-59.50604 -82.80098,13.31475 -59.91853,5.11624 72.30416,-1.41642 28.33514,65.52317 -130.14372,70.60521 -75.5984,30.16389 65.80563,10.75643 37.50365,1.4756 -47.75159,29.61285 104.46722,38.09286 106.30421,-58.37756 36.69005,-57.40626 -79.29593,18.33371 -59.18728,7.62197 76.37974,-3.54431 42.28567,60.4886 -120.15429,71.35587 -59.13617,30.50656 62.02606,16.30699 37.26673,3.24726 -53.438,29.42463 109.15313,36.89511 93.77639,-57.68098 22.20351,-55.12951 -73.80099,24.53237 -57.23702,10.90915 79.2384,-5.37559 56.37221,54.5581 -109.26677,71.65535 -41.90037,30.45118 56.53779,18.70049 44.06765,7.75227 -47.10459,15.97622"
       style="fill:none;stroke:#000000;stroke-width:0.14076965px;stroke-linecap:butt;stroke-linejoin:miter;stroke-opacity:1"
       inkscape:connector-curvature="0" />
    <rect
       y="403.72757"
       x="23.772831"
       height="152.35725"
       width="246.51921"
       id="rect11747"
       style="fill:none;stroke:#000000;stroke-width:1.19831538;stroke-miterlimit:4;stroke-opacity:1;stroke-dasharray:none" />
    <g
       id="g11749"
       transform="matrix(0,1.1542093,-1.6701003,0,440.53198,652.59067)">
      <g
         id="g11751"
         transform="matrix(1.3396491,0,0,1.3396491,71.134779,-58.513152)">
        <path
           inkscape:connector-curvature="0"
           style="fill:none;stroke:#000000;stroke-width:0.74025977"
           d="m -211.16896,168.97777 0,15.54546 m 0,-15.54546 6.66234,0 2.22078,0.74026 0.74026,0.74026 0.74026,1.48052 0,1.48052 -0.74026,1.48052 -0.74026,0.74026 -2.22078,0.74026 -6.66234,0 m 5.18182,0 5.18182,8.14286"
           id="path11753" />
        <path
           inkscape:connector-curvature="0"
           style="fill:none;stroke:#000000;stroke-width:0.74025977"
           d="m -191.92221,168.97777 -1.48052,0.74026 -1.48052,1.48052 -0.74026,1.48052 -0.74026,2.22078 0,3.7013 0.74026,2.22078 0.74026,1.48052 1.48052,1.48052 1.48052,0.74026 2.96104,0 1.48052,-0.74026 1.48052,-1.48052 0.74026,-1.48052 0.74026,-2.22078 0,-3.7013 -0.74026,-2.22078 -0.74026,-1.48052 -1.48052,-1.48052 -1.48052,-0.74026 -2.96104,0"
           id="path11755" />
        <path
           inkscape:connector-curvature="0"
           style="fill:none;stroke:#000000;stroke-width:0.74025977"
           d="m -179.33779,168.97777 0,15.54546 m 0,-15.54546 6.66234,0 2.22078,0.74026 0.74026,0.74026 0.74026,1.48052 0,1.48052 -0.74026,1.48052 -0.74026,0.74026 -2.22078,0.74026 m -6.66234,0 6.66234,0 2.22078,0.74026 0.74026,0.74026 0.74026,1.48052 0,2.22078 -0.74026,1.48052 -0.74026,0.74026 -2.22078,0.74026 -6.66234,0"
           id="path11757" />
        <path
           inkscape:connector-curvature="0"
           style="fill:none;stroke:#000000;stroke-width:0.74025977"
           d="m -160.09104,168.97777 -1.48052,0.74026 -1.48052,1.48052 -0.74026,1.48052 -0.74026,2.22078 0,3.7013 0.74026,2.22078 0.74026,1.48052 1.48052,1.48052 1.48052,0.74026 2.96104,0 1.48052,-0.74026 1.48052,-1.48052 0.74026,-1.48052 0.74026,-2.22078 0,-3.7013 -0.74026,-2.22078 -0.74026,-1.48052 -1.48052,-1.48052 -1.48052,-0.74026 -2.96104,0"
           id="path11759" />
        <path
           inkscape:connector-curvature="0"
           style="fill:none;stroke:#000000;stroke-width:0.74025977"
           d="m -144.54558,168.97777 0,15.54546 m -5.18182,-15.54546 10.36364,0"
           id="path11761" />
        <path
           inkscape:connector-curvature="0"
           style="fill:none;stroke:#000000;stroke-width:0.74025977"
           d="m -135.66247,168.97777 0,15.54546"
           id="path11763" />
        <path
           inkscape:connector-curvature="0"
           style="fill:none;stroke:#000000;stroke-width:0.74025977"
           d="m -119.37675,172.67907 -0.74026,-1.48052 -1.48052,-1.48052 -1.48052,-0.74026 -2.96104,0 -1.48052,0.74026 -1.48052,1.48052 -0.74026,1.48052 -0.74026,2.22078 0,3.7013 0.74026,2.22078 0.74026,1.48052 1.48052,1.48052 1.48052,0.74026 2.96104,0 1.48052,-0.74026 1.48052,-1.48052 0.74026,-1.48052"
           id="path11765" />
      </g>
    </g>
    <g
       id="g11767"
       transform="matrix(0,1.5103119,-2.2323791,0,496.25276,563.58656)">
      <path
         id="path11769"
         d="m -102.35078,168.97777 0,15.54546 m 0,-15.54546 5.181819,0 2.220779,0.74026 1.48052,1.48052 0.740259,1.48052 0.74026,2.22078 0,3.7013 -0.74026,2.22078 -0.740259,1.48052 -1.48052,1.48052 -2.220779,0.74026 -5.181819,0"
         style="fill:none;stroke:#000000;stroke-width:0.74025977"
         inkscape:connector-curvature="0" />
      <path
         id="path11771"
         d="m -86.805325,168.97777 0,15.54546 m 0,-15.54546 6.662337,0 2.22078,0.74026 0.740259,0.74026 0.74026,1.48052 0,1.48052 -0.74026,1.48052 -0.740259,0.74026 -2.22078,0.74026 -6.662337,0 m 5.181818,0 5.181818,8.14286"
         style="fill:none;stroke:#000000;stroke-width:0.74025977"
         inkscape:connector-curvature="0" />
      <path
         id="path11773"
         d="m -67.558571,168.97777 -5.922078,15.54546 m 5.922078,-15.54546 5.922078,15.54546 m -9.623377,-5.18182 7.402598,0"
         style="fill:none;stroke:#000000;stroke-width:0.74025977"
         inkscape:connector-curvature="0" />
      <path
         id="path11775"
         d="m -59.415714,168.97777 3.701298,15.54546 m 3.701299,-15.54546 -3.701299,15.54546 m 3.701299,-15.54546 3.701299,15.54546 m 3.701298,-15.54546 -3.701298,15.54546"
         style="fill:none;stroke:#000000;stroke-width:0.74025977"
         inkscape:connector-curvature="0" />
      <path
         id="path11777"
         d="m -40.168961,168.97777 0,15.54546"
         style="fill:none;stroke:#000000;stroke-width:0.74025977"
         inkscape:connector-curvature="0" />
      <path
         id="path11779"
         d="m -34.246883,168.97777 0,15.54546 m 0,-15.54546 10.363636,15.54546 m 0,-15.54546 0,15.54546"
         style="fill:none;stroke:#000000;stroke-width:0.74025977"
         inkscape:connector-curvature="0" />
      <path
         id="path11781"
         d="m -7.5975321,172.67907 -0.7402597,-1.48052 -1.4805195,-1.48052 -1.4805197,-0.74026 -2.961039,0 -1.480519,0.74026 -1.48052,1.48052 -0.740259,1.48052 -0.74026,2.22078 0,3.7013 0.74026,2.22078 0.740259,1.48052 1.48052,1.48052 1.480519,0.74026 2.961039,0 1.4805197,-0.74026 1.4805195,-1.48052 0.7402597,-1.48052 0,-2.22078 m -3.7012989,0 3.7012989,0"
         style="fill:none;stroke:#000000;stroke-width:0.74025977"
         inkscape:connector-curvature="0" />
    </g>
    <g
       id="g11783"
       transform="matrix(0,1.1265633,-1.098994,0,263.74806,398.28731)">
      <path
         id="path11785"
         d="m 19.792078,172.67907 -0.74026,-1.48052 -1.480519,-1.48052 -1.48052,-0.74026 -2.961039,0 -1.480519,0.74026 -1.48052,1.48052 -0.7402594,1.48052 -0.7402598,2.22078 0,3.7013 0.7402598,2.22078 0.7402594,1.48052 1.48052,1.48052 1.480519,0.74026 2.961039,0 1.48052,-0.74026 1.480519,-1.48052 0.74026,-1.48052"
         style="fill:none;stroke:#000000;stroke-width:0.74025977"
         inkscape:connector-curvature="0" />
      <path
         id="path11787"
         d="m 28.675195,168.97777 -1.48052,0.74026 -1.480519,1.48052 -0.74026,1.48052 -0.74026,2.22078 0,3.7013 0.74026,2.22078 0.74026,1.48052 1.480519,1.48052 1.48052,0.74026 2.961038,0 1.48052,-0.74026 1.480519,-1.48052 0.74026,-1.48052 0.74026,-2.22078 0,-3.7013 -0.74026,-2.22078 -0.74026,-1.48052 -1.480519,-1.48052 -1.48052,-0.74026 -2.961038,0"
         style="fill:none;stroke:#000000;stroke-width:0.74025977"
         inkscape:connector-curvature="0" />
      <path
         id="path11789"
         d="m 41.259611,168.97777 0,15.54546 m 0,0 8.883116,0"
         style="fill:none;stroke:#000000;stroke-width:0.74025977"
         inkscape:connector-curvature="0" />
      <path
         id="path11791"
         d="m 53.844026,168.97777 0,15.54546 m 0,0 8.883116,0"
         style="fill:none;stroke:#000000;stroke-width:0.74025977"
         inkscape:connector-curvature="0" />
      <path
         id="path11793"
         d="m 66.428442,168.97777 0,15.54546 m 0,-15.54546 9.623376,0 m -9.623376,7.4026 5.922077,0 m -5.922077,8.14286 9.623376,0"
         style="fill:none;stroke:#000000;stroke-width:0.74025977"
         inkscape:connector-curvature="0" />
      <path
         id="path11795"
         d="m 90.857013,172.67907 -0.74026,-1.48052 -1.480519,-1.48052 -1.48052,-0.74026 -2.961039,0 -1.480519,0.74026 -1.48052,1.48052 -0.740259,1.48052 -0.74026,2.22078 0,3.7013 0.74026,2.22078 0.740259,1.48052 1.48052,1.48052 1.480519,0.74026 2.961039,0 1.48052,-0.74026 1.480519,-1.48052 0.74026,-1.48052"
         style="fill:none;stroke:#000000;stroke-width:0.74025977"
         inkscape:connector-curvature="0" />
      <path
         id="path11797"
         d="m 98.99987,168.97777 0,15.54546 m -5.181818,-15.54546 10.363638,0"
         style="fill:none;stroke:#000000;stroke-width:0.74025977"
         inkscape:connector-curvature="0" />
      <path
         id="path11799"
         d="m 107.88299,168.97777 0,15.54546"
         style="fill:none;stroke:#000000;stroke-width:0.74025977"
         inkscape:connector-curvature="0" />
      <path
         id="path11801"
         d="m 111.58428,168.97777 5.92208,15.54546 m 5.92208,-15.54546 -5.92208,15.54546"
         style="fill:none;stroke:#000000;stroke-width:0.74025977"
         inkscape:connector-curvature="0" />
      <path
         id="path11803"
         d="m 127.12974,168.97777 0,15.54546 m 0,-15.54546 9.62338,0 m -9.62338,7.4026 5.92208,0 m -5.92208,8.14286 9.62338,0"
         style="fill:none;stroke:#000000;stroke-width:0.74025977"
         inkscape:connector-curvature="0" />
    </g>
    <g
       id="g11805"
       transform="matrix(-0.02611459,0.99061833,-1.4874384,-0.01739204,312.14807,262.11928)">
      <path
         id="path11807"
         d="m 155.99987,168.97777 -2.22078,0.74026 -0.74026,1.48052 0,1.48052 0.74026,1.48052 1.48052,0.74026 2.96104,0.74026 2.22078,0.74026 1.48052,1.48052 0.74026,1.48052 0,2.22078 -0.74026,1.48052 -0.74026,0.74026 -2.22078,0.74026 -2.96104,0 -2.22078,-0.74026 -0.74026,-0.74026 -0.74026,-1.48052 0,-2.22078 0.74026,-1.48052 1.48052,-1.48052 2.22078,-0.74026 2.96104,-0.74026 1.48052,-0.74026 0.74026,-1.48052 0,-1.48052 -0.74026,-1.48052 -2.22078,-0.74026 -2.96104,0"
         style="fill:none;stroke:#000000;stroke-width:0.74025977"
         inkscape:connector-curvature="0" />
      <path
         id="path11809"
         d="m 169.32454,171.93881 1.48052,-0.74026 2.22078,-2.22078 0,15.54546"
         style="fill:none;stroke:#000000;stroke-width:0.74025977"
         inkscape:connector-curvature="0" />
      <path
         id="path11811"
         d="m 182.64922,172.67907 0,-0.74026 0.74026,-1.48052 0.74026,-0.74026 1.48052,-0.74026 2.96104,0 1.48052,0.74026 0.74026,0.74026 0.74026,1.48052 0,1.48052 -0.74026,1.48052 -1.48052,2.22078 -7.4026,7.4026 10.36364,0"
         style="fill:none;stroke:#000000;stroke-width:0.74025977"
         inkscape:connector-curvature="0" />
      <path
         id="path11813"
         d="m 205.59727,168.97777 -7.4026,0 -0.74026,6.66234 0.74026,-0.74026 2.22078,-0.74026 2.22078,0 2.22078,0.74026 1.48052,1.48052 0.74026,2.22078 0,1.48052 -0.74026,2.22078 -1.48052,1.48052 -2.22078,0.74026 -2.22078,0 -2.22078,-0.74026 -0.74026,-0.74026 -0.74026,-1.48052"
         style="fill:none;stroke:#000000;stroke-width:0.74025977"
         inkscape:connector-curvature="0" />
      <path
         id="path11815"
         d="m 221.88299,168.97777 -7.4026,15.54546 m -2.96104,-15.54546 10.36364,0"
         style="fill:none;stroke:#000000;stroke-width:0.74025977"
         inkscape:connector-curvature="0" />
      <path
         id="path11817"
         d="m 235.20766,168.97777 -7.4026,0 -0.74026,6.66234 0.74026,-0.74026 2.22078,-0.74026 2.22078,0 2.22078,0.74026 1.48052,1.48052 0.74026,2.22078 0,1.48052 -0.74026,2.22078 -1.48052,1.48052 -2.22078,0.74026 -2.22078,0 -2.22078,-0.74026 -0.74026,-0.74026 -0.74026,-1.48052"
         style="fill:none;stroke:#000000;stroke-width:0.74025977"
         inkscape:connector-curvature="0" />
      <path
         id="path11819"
         d="m 245.5713,168.97777 -2.22078,0.74026 -1.48052,2.22078 -0.74026,3.7013 0,2.22078 0.74026,3.7013 1.48052,2.22078 2.22078,0.74026 1.48052,0 2.22078,-0.74026 1.48052,-2.22078 0.74026,-3.7013 0,-2.22078 -0.74026,-3.7013 -1.48052,-2.22078 -2.22078,-0.74026 -1.48052,0"
         style="fill:none;stroke:#000000;stroke-width:0.74025977"
         inkscape:connector-curvature="0" />
      <path
         id="path11821"
         d="m 265.55831,171.19855 -0.74026,-1.48052 -2.22078,-0.74026 -1.48052,0 -2.22078,0.74026 -1.48052,2.22078 -0.74026,3.7013 0,3.7013 0.74026,2.96104 1.48052,1.48052 2.22078,0.74026 0.74026,0 2.22078,-0.74026 1.48052,-1.48052 0.74026,-2.22078 0,-0.74026 -0.74026,-2.22078 -1.48052,-1.48052 -2.22078,-0.74026 -0.74026,0 -2.22078,0.74026 -1.48052,1.48052 -0.74026,2.22078"
         style="fill:none;stroke:#000000;stroke-width:0.74025977"
         inkscape:connector-curvature="0" />
      <path
         id="path11823"
         d="m 275.18169,168.97777 -2.22078,0.74026 -1.48052,2.22078 -0.74026,3.7013 0,2.22078 0.74026,3.7013 1.48052,2.22078 2.22078,0.74026 1.48052,0 2.22078,-0.74026 1.48052,-2.22078 0.74026,-3.7013 0,-2.22078 -0.74026,-3.7013 -1.48052,-2.22078 -2.22078,-0.74026 -1.48052,0"
         style="fill:none;stroke:#000000;stroke-width:0.74025977"
         inkscape:connector-curvature="0" />
      <path
         id="path11825"
         d="m 295.1687,174.15959 -0.74026,2.22078 -1.48052,1.48052 -2.22078,0.74026 -0.74026,0 -2.22078,-0.74026 -1.48052,-1.48052 -0.74026,-2.22078 0,-0.74026 0.74026,-2.22078 1.48052,-1.48052 2.22078,-0.74026 0.74026,0 2.22078,0.74026 1.48052,1.48052 0.74026,2.96104 0,3.7013 -0.74026,3.7013 -1.48052,2.22078 -2.22078,0.74026 -1.48052,0 -2.22078,-0.74026 -0.74026,-1.48052"
         style="fill:none;stroke:#000000;stroke-width:0.74025977"
         inkscape:connector-curvature="0" />
    </g>
    <rect
       style="fill:none;stroke:#000000;stroke-width:1.19831538;stroke-miterlimit:4;stroke-opacity:1;stroke-dasharray:none"
       id="rect11827"
       width="246.51921"
       height="152.35725"
       x="291.7323"
       y="403.72757" />
    <path
       inkscape:connector-curvature="0"
       style="fill:none;stroke:#000000;stroke-width:0.14076965px;stroke-linecap:butt;stroke-linejoin:miter;stroke-opacity:1"
       d="m 422.03657,410.14243 c 1.22882,-0.16247 -2.73203,0.4395 -4.20166,0.69791 -4.01139,0.81007 -3.57813,0.69762 -1.1451,0.18519 4.20878,-0.75374 12.03714,-1.67452 16.32162,-1.91603 6.03489,-0.0317 4.63701,-0.0165 -1.44876,0.14033 -8.36263,0.80221 -21.70654,3.42071 -28.92553,5.53017 -9.15449,3.42513 -6.67602,2.35495 3.79926,-1.29436 12.48774,-2.951 30.95033,-4.52535 40.16775,-4.00462 9.87137,1.60685 6.66516,1.05774 -6.12991,-0.25508 -16.22516,0.7557 -40.71818,6.63035 -53.09545,11.83746 -13.92569,7.93796 -9.6008,5.11049 8.51897,-3.97468 20.50173,-6.14622 49.59608,-7.81952 62.95654,-5.5469 12.31448,4.2438 7.88213,2.62239 -10.15928,-1.59975 -23.72673,0.0181 -59.28297,10.2514 -76.08642,19.71711 -17.32309,13.91187 -11.82574,8.78291 12.64664,-7.75919 28.2027,-10.39489 67.67644,-11.7374 84.27305,-6.96021 13.09495,7.32629 8.18012,4.38767 -13.35162,-3.67131 -30.85138,-1.28417 -77.13707,14.46545 -97.29688,29.10689 -18.72206,20.60347 -12.96946,13.0169 15.83426,-12.42815 35.39915,-15.69301 84.95848,-16.42573 103.77434,-8.63738 12.18602,10.32379 7.56824,6.08425 -15.59279,-6.23036 -37.57985,-3.02909 -94.03678,19.41131 -116.19092,39.77622 -17.80572,27.02674 -12.78713,17.30293 17.79136,-17.64319 41.87548,-21.98513 101.22131,-21.97778 121.18565,-10.91317 9.70749,12.8003 6.12603,7.49397 -16.83233,-9.0418 -43.91033,-5.09909 -109.7465,25.16912 -132.33963,51.33539 -14.6139,32.1005 -11.21195,21.03741 18.32083,-22.96718 47.41058,-29.1593 116.25462,-28.42333 136.29414,-14.03866 5.8608,14.45483 3.97296,8.46528 -17.07168,-11.89125 -49.85816,-7.38357 -124.04312,31.75014 -145.45486,63.26307 -9.51823,34.82337 -8.36724,23.60653 17.34497,-27.8984 51.79164,-37.04366 129.86478,-35.72355 148.94351,-18.16465 0.87504,15.14445 1.24248,8.91902 -16.35146,-14.59602 -55.45273,-9.78024 -136.72402,39.09031 -155.40872,74.94857 -3.11248,34.43625 -4.53553,24.47578 14.91682,-31.91563 54.82828,-45.40619 141.88324,-43.76925 159.02944,-23.33319 -5.02771,14.89988 -1.93559,8.84975 -14.73782,-17.01143 -60.73441,-12.19586 -147.61783,47.04866 -162.23548,85.74369 3.96124,30.54333 -0.0873,23.26908 11.21256,-34.5279 56.36632,-53.95864 152.17577,-52.38423 166.49759,-29.47727 -11.64206,13.9264 -5.44445,8.3243 -12.31124,-19.03422 -65.75086,-14.54623 -156.59506,55.41134 -166.11211,95.01788 11.20889,23.19019 4.6188,19.82694 6.50414,-35.32306 56.30049,-62.36463 160.65119,-61.33265 171.3432,-36.42637 -18.76945,12.56455 -9.1804,7.4743 -9.15722,-20.60392 -70.55444,-16.75561 -163.57779,63.90087 -167.32062,102.21056 18.44716,12.92627 9.3435,14.24775 1.11534,-34.00922 54.58405,-70.25197 167.26814,-70.33046 173.61149,-43.91726 -26.21106,11.20393 -13.04667,6.47535 -5.36034,-21.70341 -75.1991,-18.75581 -168.54605,72.19057 -166.195,106.87734 25.84678,0.87127 14.05169,6.92959 -4.63395,-30.44639 51.23459,-77.22841 172.03833,-79.06038 173.39769,-51.61035 -33.7717,10.19508 -16.94841,5.51229 -1.00088,-22.35726 -79.73843,-20.48523 -171.53956,79.92317 -163.06073,108.73003 33.7619,-11.30345 18.92664,-1.37665 -10.48689,-24.66952 46.33484,-82.90056 175.0256,-87.18912 170.84618,-59.11109 -41.26016,9.79589 -20.79461,4.74225 3.84491,-22.62752 -84.22322,-21.88764 -172.6532,86.73267 -158.17627,107.67528 42.38609,-21.68624 24.25268,-9.56051 -16.30143,-16.90848 40.02708,-86.8941 176.33964,-94.38605 166.14518,-65.99804 -48.47835,10.14786 -24.50176,4.27284 9.10351,-22.60439 -88.69959,-22.91122 -172.02537,92.26775 -151.69282,103.85545 51.50313,-28.70264 30.17871,-16.33341 -22.07865,-7.61018 32.50175,-88.87454 176.12468,-100.34179 159.51647,-71.85475 -55.21145,11.26348 -27.99434,4.15827 14.7034,-22.39292 -93.20745,-23.50769 -169.82021,96.21621 -143.65423,97.68362 60.52241,-31.57331 36.53077,-20.62935 -27.94658,2.54506 23.98033,-88.56842 174.54316,-104.78693 151.19781,-76.30202 -61.22626,13.01736 -31.20042,4.40463 20.57597,-22.09958 -97.77889,-23.63159 -166.2038,98.33027 -134.0518,89.83749 68.70016,-30.40737 42.84188,-21.96641 -34.08496,12.66811 14.69305,-85.78336 171.75572,-107.5099 141.4219,-79.02662 -66.28282,15.14512 -34.04787,4.97643 26.65653,-21.82169 -102.43648,-23.24023 -161.31796,98.45353 -122.9162,81.16908 75.38033,-26.01161 48.54876,-20.51403 -40.61138,21.7704 4.85451,-80.42967 167.89938,-108.37622 130.39401,-79.80602 -70.15529,17.25742 -36.4636,5.80079 32.88503,-21.64188 C 386.72656,422.56727 338.662,541.412 383.52935,517.40218 c 80.15496,-19.57984 53.18693,-16.90267 -47.48929,28.94922 -5.36,-72.54342 163.06777,-107.34986 118.27267,-78.53254 -72.65443,18.87913 -38.37706,6.77169 39.20554,-21.62565 -112.04747,-20.7549 -148.05649,92.74127 -96.73644,64.67137 82.91065,-12.40164 56.48832,-11.96981 -54.50565,33.5683 -15.831,-62.31093 157.29918,-104.51668 105.15916,-75.23772 -73.64242,19.51507 -39.72655,7.75644 45.56465,-21.82062 -116.98943,-18.59194 -139.70333,87.31678 -82.30271,58.04775 83.78453,-5.66998 58.3897,-6.57479 -61.31454,35.36122 -26.49562,-50.08938 150.58048,-100.10509 91.10242,-70.11306 -73.03309,18.73164 -40.46566,8.60564 51.91083,-22.25656 -121.99343,-15.77834 -130.17349,80.7376 -67.46322,52.92268 83.07735,-0.38557 58.99494,-1.50131 -67.51623,34.44245 -37.32738,-36.40833 142.87235,-94.48886 76.12454,-63.51257 -70.77938,16.2335 -40.56833,9.16702 58.19382,-22.94579 -127.02118,-12.29564 -119.48156,73.57529 -52.57586,49.34338 81.25471,2.20575 58.52076,2.58583 -72.74311,31.24447 -48.29988,-21.935 134.1501,-88.15534 60.26143,-55.92015 -66.85932,11.91444 -40.03096,9.30076 64.36518,-23.88421 -132.02153,-8.13577 -107.71858,66.421 -37.95127,47.19513 78.27129,0.20439 57.24912,5.15422 -76.72822,26.40751 -59.35241,-7.40279 124.44162,-81.63813 43.59989,-47.88111 -60.9722,8.94568 -47.03349,10.79772 54.80599,-15.93714"
       id="path11831" />
    <rect
       style="fill:none;stroke:#000000;stroke-width:1.19831538;stroke-miterlimit:4;stroke-opacity:1;stroke-dasharray:none"
       id="rect11833"
       width="246.51921"
       height="152.35725"
       x="27.772831"
       y="603.77838" />
    <g
       transform="matrix(0,1.1542093,-1.6701003,0,444.53198,852.64149)"
       id="g11835">
      <g
         transform="matrix(1.3396491,0,0,1.3396491,71.134779,-58.513152)"
         id="g11837">
        <path
           id="path11839"
           d="m -211.16896,168.97777 0,15.54546 m 0,-15.54546 6.66234,0 2.22078,0.74026 0.74026,0.74026 0.74026,1.48052 0,1.48052 -0.74026,1.48052 -0.74026,0.74026 -2.22078,0.74026 -6.66234,0 m 5.18182,0 5.18182,8.14286"
           style="fill:none;stroke:#000000;stroke-width:0.74025977"
           inkscape:connector-curvature="0" />
        <path
           id="path11841"
           d="m -191.92221,168.97777 -1.48052,0.74026 -1.48052,1.48052 -0.74026,1.48052 -0.74026,2.22078 0,3.7013 0.74026,2.22078 0.74026,1.48052 1.48052,1.48052 1.48052,0.74026 2.96104,0 1.48052,-0.74026 1.48052,-1.48052 0.74026,-1.48052 0.74026,-2.22078 0,-3.7013 -0.74026,-2.22078 -0.74026,-1.48052 -1.48052,-1.48052 -1.48052,-0.74026 -2.96104,0"
           style="fill:none;stroke:#000000;stroke-width:0.74025977"
           inkscape:connector-curvature="0" />
        <path
           id="path11843"
           d="m -179.33779,168.97777 0,15.54546 m 0,-15.54546 6.66234,0 2.22078,0.74026 0.74026,0.74026 0.74026,1.48052 0,1.48052 -0.74026,1.48052 -0.74026,0.74026 -2.22078,0.74026 m -6.66234,0 6.66234,0 2.22078,0.74026 0.74026,0.74026 0.74026,1.48052 0,2.22078 -0.74026,1.48052 -0.74026,0.74026 -2.22078,0.74026 -6.66234,0"
           style="fill:none;stroke:#000000;stroke-width:0.74025977"
           inkscape:connector-curvature="0" />
        <path
           id="path11845"
           d="m -160.09104,168.97777 -1.48052,0.74026 -1.48052,1.48052 -0.74026,1.48052 -0.74026,2.22078 0,3.7013 0.74026,2.22078 0.74026,1.48052 1.48052,1.48052 1.48052,0.74026 2.96104,0 1.48052,-0.74026 1.48052,-1.48052 0.74026,-1.48052 0.74026,-2.22078 0,-3.7013 -0.74026,-2.22078 -0.74026,-1.48052 -1.48052,-1.48052 -1.48052,-0.74026 -2.96104,0"
           style="fill:none;stroke:#000000;stroke-width:0.74025977"
           inkscape:connector-curvature="0" />
        <path
           id="path11847"
           d="m -144.54558,168.97777 0,15.54546 m -5.18182,-15.54546 10.36364,0"
           style="fill:none;stroke:#000000;stroke-width:0.74025977"
           inkscape:connector-curvature="0" />
        <path
           id="path11849"
           d="m -135.66247,168.97777 0,15.54546"
           style="fill:none;stroke:#000000;stroke-width:0.74025977"
           inkscape:connector-curvature="0" />
        <path
           id="path11851"
           d="m -119.37675,172.67907 -0.74026,-1.48052 -1.48052,-1.48052 -1.48052,-0.74026 -2.96104,0 -1.48052,0.74026 -1.48052,1.48052 -0.74026,1.48052 -0.74026,2.22078 0,3.7013 0.74026,2.22078 0.74026,1.48052 1.48052,1.48052 1.48052,0.74026 2.96104,0 1.48052,-0.74026 1.48052,-1.48052 0.74026,-1.48052"
           style="fill:none;stroke:#000000;stroke-width:0.74025977"
           inkscape:connector-curvature="0" />
      </g>
    </g>
    <g
       transform="matrix(0,1.5103119,-2.2323791,0,500.25276,763.63738)"
       id="g11853">
      <path
         inkscape:connector-curvature="0"
         style="fill:none;stroke:#000000;stroke-width:0.74025977"
         d="m -102.35078,168.97777 0,15.54546 m 0,-15.54546 5.181819,0 2.220779,0.74026 1.48052,1.48052 0.740259,1.48052 0.74026,2.22078 0,3.7013 -0.74026,2.22078 -0.740259,1.48052 -1.48052,1.48052 -2.220779,0.74026 -5.181819,0"
         id="path11855" />
      <path
         inkscape:connector-curvature="0"
         style="fill:none;stroke:#000000;stroke-width:0.74025977"
         d="m -86.805325,168.97777 0,15.54546 m 0,-15.54546 6.662337,0 2.22078,0.74026 0.740259,0.74026 0.74026,1.48052 0,1.48052 -0.74026,1.48052 -0.740259,0.74026 -2.22078,0.74026 -6.662337,0 m 5.181818,0 5.181818,8.14286"
         id="path11857" />
      <path
         inkscape:connector-curvature="0"
         style="fill:none;stroke:#000000;stroke-width:0.74025977"
         d="m -67.558571,168.97777 -5.922078,15.54546 m 5.922078,-15.54546 5.922078,15.54546 m -9.623377,-5.18182 7.402598,0"
         id="path11859" />
      <path
         inkscape:connector-curvature="0"
         style="fill:none;stroke:#000000;stroke-width:0.74025977"
         d="m -59.415714,168.97777 3.701298,15.54546 m 3.701299,-15.54546 -3.701299,15.54546 m 3.701299,-15.54546 3.701299,15.54546 m 3.701298,-15.54546 -3.701298,15.54546"
         id="path11861" />
      <path
         inkscape:connector-curvature="0"
         style="fill:none;stroke:#000000;stroke-width:0.74025977"
         d="m -40.168961,168.97777 0,15.54546"
         id="path11863" />
      <path
         inkscape:connector-curvature="0"
         style="fill:none;stroke:#000000;stroke-width:0.74025977"
         d="m -34.246883,168.97777 0,15.54546 m 0,-15.54546 10.363636,15.54546 m 0,-15.54546 0,15.54546"
         id="path11865" />
      <path
         inkscape:connector-curvature="0"
         style="fill:none;stroke:#000000;stroke-width:0.74025977"
         d="m -7.5975321,172.67907 -0.7402597,-1.48052 -1.4805195,-1.48052 -1.4805197,-0.74026 -2.961039,0 -1.480519,0.74026 -1.48052,1.48052 -0.740259,1.48052 -0.74026,2.22078 0,3.7013 0.74026,2.22078 0.740259,1.48052 1.48052,1.48052 1.480519,0.74026 2.961039,0 1.4805197,-0.74026 1.4805195,-1.48052 0.7402597,-1.48052 0,-2.22078 m -3.7012989,0 3.7012989,0"
         id="path11867" />
    </g>
    <g
       transform="matrix(0,1.1265633,-1.098994,0,267.74806,598.33813)"
       id="g11869">
      <path
         inkscape:connector-curvature="0"
         style="fill:none;stroke:#000000;stroke-width:0.74025977"
         d="m 19.792078,172.67907 -0.74026,-1.48052 -1.480519,-1.48052 -1.48052,-0.74026 -2.961039,0 -1.480519,0.74026 -1.48052,1.48052 -0.7402594,1.48052 -0.7402598,2.22078 0,3.7013 0.7402598,2.22078 0.7402594,1.48052 1.48052,1.48052 1.480519,0.74026 2.961039,0 1.48052,-0.74026 1.480519,-1.48052 0.74026,-1.48052"
         id="path11871" />
      <path
         inkscape:connector-curvature="0"
         style="fill:none;stroke:#000000;stroke-width:0.74025977"
         d="m 28.675195,168.97777 -1.48052,0.74026 -1.480519,1.48052 -0.74026,1.48052 -0.74026,2.22078 0,3.7013 0.74026,2.22078 0.74026,1.48052 1.480519,1.48052 1.48052,0.74026 2.961038,0 1.48052,-0.74026 1.480519,-1.48052 0.74026,-1.48052 0.74026,-2.22078 0,-3.7013 -0.74026,-2.22078 -0.74026,-1.48052 -1.480519,-1.48052 -1.48052,-0.74026 -2.961038,0"
         id="path11873" />
      <path
         inkscape:connector-curvature="0"
         style="fill:none;stroke:#000000;stroke-width:0.74025977"
         d="m 41.259611,168.97777 0,15.54546 m 0,0 8.883116,0"
         id="path11875" />
      <path
         inkscape:connector-curvature="0"
         style="fill:none;stroke:#000000;stroke-width:0.74025977"
         d="m 53.844026,168.97777 0,15.54546 m 0,0 8.883116,0"
         id="path11877" />
      <path
         inkscape:connector-curvature="0"
         style="fill:none;stroke:#000000;stroke-width:0.74025977"
         d="m 66.428442,168.97777 0,15.54546 m 0,-15.54546 9.623376,0 m -9.623376,7.4026 5.922077,0 m -5.922077,8.14286 9.623376,0"
         id="path11879" />
      <path
         inkscape:connector-curvature="0"
         style="fill:none;stroke:#000000;stroke-width:0.74025977"
         d="m 90.857013,172.67907 -0.74026,-1.48052 -1.480519,-1.48052 -1.48052,-0.74026 -2.961039,0 -1.480519,0.74026 -1.48052,1.48052 -0.740259,1.48052 -0.74026,2.22078 0,3.7013 0.74026,2.22078 0.740259,1.48052 1.48052,1.48052 1.480519,0.74026 2.961039,0 1.48052,-0.74026 1.480519,-1.48052 0.74026,-1.48052"
         id="path11881" />
      <path
         inkscape:connector-curvature="0"
         style="fill:none;stroke:#000000;stroke-width:0.74025977"
         d="m 98.99987,168.97777 0,15.54546 m -5.181818,-15.54546 10.363638,0"
         id="path11883" />
      <path
         inkscape:connector-curvature="0"
         style="fill:none;stroke:#000000;stroke-width:0.74025977"
         d="m 107.88299,168.97777 0,15.54546"
         id="path11885" />
      <path
         inkscape:connector-curvature="0"
         style="fill:none;stroke:#000000;stroke-width:0.74025977"
         d="m 111.58428,168.97777 5.92208,15.54546 m 5.92208,-15.54546 -5.92208,15.54546"
         id="path11887" />
      <path
         inkscape:connector-curvature="0"
         style="fill:none;stroke:#000000;stroke-width:0.74025977"
         d="m 127.12974,168.97777 0,15.54546 m 0,-15.54546 9.62338,0 m -9.62338,7.4026 5.92208,0 m -5.92208,8.14286 9.62338,0"
         id="path11889" />
    </g>
    <g
       transform="matrix(-0.02611459,0.99061833,-1.4874384,-0.01739204,316.14807,462.1701)"
       id="g11891">
      <path
         inkscape:connector-curvature="0"
         style="fill:none;stroke:#000000;stroke-width:0.74025977"
         d="m 155.99987,168.97777 -2.22078,0.74026 -0.74026,1.48052 0,1.48052 0.74026,1.48052 1.48052,0.74026 2.96104,0.74026 2.22078,0.74026 1.48052,1.48052 0.74026,1.48052 0,2.22078 -0.74026,1.48052 -0.74026,0.74026 -2.22078,0.74026 -2.96104,0 -2.22078,-0.74026 -0.74026,-0.74026 -0.74026,-1.48052 0,-2.22078 0.74026,-1.48052 1.48052,-1.48052 2.22078,-0.74026 2.96104,-0.74026 1.48052,-0.74026 0.74026,-1.48052 0,-1.48052 -0.74026,-1.48052 -2.22078,-0.74026 -2.96104,0"
         id="path11893" />
      <path
         inkscape:connector-curvature="0"
         style="fill:none;stroke:#000000;stroke-width:0.74025977"
         d="m 169.32454,171.93881 1.48052,-0.74026 2.22078,-2.22078 0,15.54546"
         id="path11895" />
      <path
         inkscape:connector-curvature="0"
         style="fill:none;stroke:#000000;stroke-width:0.74025977"
         d="m 182.64922,172.67907 0,-0.74026 0.74026,-1.48052 0.74026,-0.74026 1.48052,-0.74026 2.96104,0 1.48052,0.74026 0.74026,0.74026 0.74026,1.48052 0,1.48052 -0.74026,1.48052 -1.48052,2.22078 -7.4026,7.4026 10.36364,0"
         id="path11897" />
      <path
         inkscape:connector-curvature="0"
         style="fill:none;stroke:#000000;stroke-width:0.74025977"
         d="m 205.59727,168.97777 -7.4026,0 -0.74026,6.66234 0.74026,-0.74026 2.22078,-0.74026 2.22078,0 2.22078,0.74026 1.48052,1.48052 0.74026,2.22078 0,1.48052 -0.74026,2.22078 -1.48052,1.48052 -2.22078,0.74026 -2.22078,0 -2.22078,-0.74026 -0.74026,-0.74026 -0.74026,-1.48052"
         id="path11899" />
      <path
         inkscape:connector-curvature="0"
         style="fill:none;stroke:#000000;stroke-width:0.74025977"
         d="m 221.88299,168.97777 -7.4026,15.54546 m -2.96104,-15.54546 10.36364,0"
         id="path11901" />
      <path
         inkscape:connector-curvature="0"
         style="fill:none;stroke:#000000;stroke-width:0.74025977"
         d="m 235.20766,168.97777 -7.4026,0 -0.74026,6.66234 0.74026,-0.74026 2.22078,-0.74026 2.22078,0 2.22078,0.74026 1.48052,1.48052 0.74026,2.22078 0,1.48052 -0.74026,2.22078 -1.48052,1.48052 -2.22078,0.74026 -2.22078,0 -2.22078,-0.74026 -0.74026,-0.74026 -0.74026,-1.48052"
         id="path11903" />
      <path
         inkscape:connector-curvature="0"
         style="fill:none;stroke:#000000;stroke-width:0.74025977"
         d="m 245.5713,168.97777 -2.22078,0.74026 -1.48052,2.22078 -0.74026,3.7013 0,2.22078 0.74026,3.7013 1.48052,2.22078 2.22078,0.74026 1.48052,0 2.22078,-0.74026 1.48052,-2.22078 0.74026,-3.7013 0,-2.22078 -0.74026,-3.7013 -1.48052,-2.22078 -2.22078,-0.74026 -1.48052,0"
         id="path11905" />
      <path
         inkscape:connector-curvature="0"
         style="fill:none;stroke:#000000;stroke-width:0.74025977"
         d="m 265.55831,171.19855 -0.74026,-1.48052 -2.22078,-0.74026 -1.48052,0 -2.22078,0.74026 -1.48052,2.22078 -0.74026,3.7013 0,3.7013 0.74026,2.96104 1.48052,1.48052 2.22078,0.74026 0.74026,0 2.22078,-0.74026 1.48052,-1.48052 0.74026,-2.22078 0,-0.74026 -0.74026,-2.22078 -1.48052,-1.48052 -2.22078,-0.74026 -0.74026,0 -2.22078,0.74026 -1.48052,1.48052 -0.74026,2.22078"
         id="path11907" />
      <path
         inkscape:connector-curvature="0"
         style="fill:none;stroke:#000000;stroke-width:0.74025977"
         d="m 275.18169,168.97777 -2.22078,0.74026 -1.48052,2.22078 -0.74026,3.7013 0,2.22078 0.74026,3.7013 1.48052,2.22078 2.22078,0.74026 1.48052,0 2.22078,-0.74026 1.48052,-2.22078 0.74026,-3.7013 0,-2.22078 -0.74026,-3.7013 -1.48052,-2.22078 -2.22078,-0.74026 -1.48052,0"
         id="path11909" />
      <path
         inkscape:connector-curvature="0"
         style="fill:none;stroke:#000000;stroke-width:0.74025977"
         d="m 295.1687,174.15959 -0.74026,2.22078 -1.48052,1.48052 -2.22078,0.74026 -0.74026,0 -2.22078,-0.74026 -1.48052,-1.48052 -0.74026,-2.22078 0,-0.74026 0.74026,-2.22078 1.48052,-1.48052 2.22078,-0.74026 0.74026,0 2.22078,0.74026 1.48052,1.48052 0.74026,2.96104 0,3.7013 -0.74026,3.7013 -1.48052,2.22078 -2.22078,0.74026 -1.48052,0 -2.22078,-0.74026 -0.74026,-1.48052"
         id="path11911" />
    </g>
    <rect
       y="603.77838"
       x="295.7323"
       height="152.35725"
       width="246.51921"
       id="rect11913"
       style="fill:none;stroke:#000000;stroke-width:1.19831538;stroke-miterlimit:4;stroke-opacity:1;stroke-dasharray:none" />
    <path
       id="path11917"
       d="m 489.37035,624.30178 c 0.96844,0.92597 -2.22912,-1.92473 -3.46063,-2.89958 -3.47708,-2.41948 -3.08757,-2.18924 -0.96451,-0.75054 3.52515,2.79508 9.49297,9.00445 12.38872,12.926 3.57799,6.10338 2.78479,4.65914 -0.98361,-1.3092 -6.08865,-7.04312 -17.52771,-15.26652 -24.3529,-18.02569 -9.02255,-1.62255 -6.54161,-1.44885 3.67209,1.19619 11.19842,6.59554 24.36378,22.43629 28.8419,32.72508 2.85161,12.53598 2.11041,8.36611 -2.89635,-6.87474 -10.56517,-15.20772 -32.44886,-27.71239 -44.75205,-28.43373 -13.66134,4.36149 -9.45296,2.29106 8.54641,-0.13168 19.33781,7.63972 38.70268,34.05848 42.36674,51.14375 -0.68149,17.99639 -0.0392,11.39643 -2.59869,-13.03335 -13.60451,-24.13761 -46.3033,-38.0563 -62.81021,-33.07569 -19.25374,10.6053 -12.50639,7.1164 12.41625,-4.81225 27.40422,5.65502 51.93065,42.94612 52.75698,66.32339 -5.65928,21.07267 -2.93638,13.06208 -0.37478,-18.81565 -15.34969,-33.42394 -58.56137,-45.48021 -79.62657,-34.1519 -26.61791,9.79838 -17.3421,7.0302 16.91148,-9.94471 34.72428,0.48392 63.55192,48.49921 60.11119,76.9739 -10.52331,21.33445 -5.77658,13.16002 3.22049,-23.53762 -16.00083,-42.72317 -69.18217,-49.64577 -96.56404,-36.56242 -32.51507,6.25325 -21.51027,4.9105 22.8693,-10.88038 41.6056,-7.16451 74.09736,51.07058 65.64703,83.06045 -14.05099,19.02484 -7.92185,11.82648 7.53344,-26.81795 -15.79887,-51.77558 -79.52409,-52.21051 -112.95918,-40.93686 -35.9152,1.88788 -24.40035,1.96939 28.33717,-9.34602 49.0915,-14.55571 84.83544,53.10551 71.28476,86.90045 -15.56725,14.6901 -8.99962,9.36391 11.94254,-28.53096 -14.99942,-60.39966 -89.99631,-54.93337 -128.18735,-46.96418 -36.10847,-1.58657 -25.49432,-0.86096 32.68294,-6.61516 56.95137,-20.41978 95.73609,55.63751 77.53052,89.58442 -14.95349,8.89737 -8.90495,6.10019 15.93823,-28.73152 -13.85263,-68.479 -100.47782,-58.11876 -141.64996,-54.02902 -32.8216,-2.53991 -24.51491,-2.5517 35.41553,-3.40162 64.87457,-24.40994 106.64535,58.81764 84.6152,91.42706 -12.57225,2.10526 -7.75772,2.31097 19.15788,-27.5773 -12.5895,-75.94723 -110.81827,-61.8085 -152.83184,-61.29573 -26.03745,0.0908 -21.39339,-2.23166 36.16686,-0.51467 72.5645,-26.35276 117.3677,62.65451 92.5719,92.64421 -9.16501,-5.32423 -5.84936,-1.79961 21.39009,-25.26706 -11.41395,-82.7721 -120.80328,-65.938 -161.3366,-67.82023 -15.74695,6.41365 -16.12995,0.55626 34.73973,1.2184 79.7347,-26.20508 127.65829,67.05173 101.24032,93.34775 -5.70337,-13.03384 -3.58963,-6.07451 22.5623,-21.9986 -10.49912,-88.94193 -130.16853,-70.33245 -166.87579,-72.69091 -1.90641,15.37894 -8.66664,5.66669 31.07719,1.09932 86.11327,-24.05812 137.24578,71.80481 110.30868,93.52057 -3.17486,-20.59122 -1.44389,-10.36146 22.72185,-17.94818 -9.98617,-94.45331 -138.62659,-74.70637 -169.22187,-75.174 15.19108,24.85057 1.08801,12.25628 25.19123,-1.30062 91.34819,-20.17866 145.85828,76.60889 119.36144,93.01978 -2.3729,-27.47138 0.14548,-14.48093 22.01442,-13.26621 -9.9846,-99.30185 -145.89108,-78.68208 -168.15763,-74.8454 34.21488,32.17888 12.97846,18.83354 17.09328,-6.03001 94.79515,-15.32728 153.24295,81.08255 127.92207,91.6082 -3.76822,-33.09947 0.83821,-18.22162 20.66153,-8.08543 C 477.40246,617.11917 336.28453,638.767 324.50902,648.90014 c 52.39293,35.44592 26.11795,23.60254 6.77584,-12.68892 95.96293,-10.6705 159.17429,84.80442 135.49014,89.00266 -7.4722,-36.94602 0.44404,-21.35796 18.93231,-2.53296 -11.79959,-106.94592 -155.7711,-83.70518 -155.00549,-66.17574 66.12022,34.80696 38.57407,25.25292 -5.71092,-20.41839 94.66474,-7.0245 163.45003,87.35958 141.56997,84.93035 -13.26857,-38.67208 -1.06993,-23.67836 17.11133,3.26014 -13.68174,-109.67319 -157.88277,-83.94013 -142.87801,-59.18084 72.3721,32.64961 47.73779,23.92677 -20.07497,-27.98549 90.75851,-4.95533 165.87863,88.39033 145.69013,79.18291 -20.68555,-38.28405 -3.60092,-25.01741 15.46727,9.15532 -16.20551,-111.5978 -157.77211,-82.27981 -127.6492,-51.84007 69.82476,32.04073 51.36294,21.52053 -35.55331,-34.02565 84.12011,-4.86939 166.26454,87.64789 147.41354,71.66692 -29.06175,-36.21293 -6.94545,-25.29101 14.22889,15.00792 -19.32424,-112.64598 -155.18149,-78.6605 -110.46071,-45.15439 58.96253,34.76067 48.53761,20.68623 -50.79368,-37.46245 74.64761,-6.98314 164.40376,85.04086 146.34636,62.44814 -37.57003,-33.21695 -10.83638,-24.52791 13.57192,20.67184 -22.95952,-112.73296 -149.88065,-73.25888 -92.90259,-39.56641 41.59719,40.56637 39.83377,23.09842 -64.00142,-37.97687 62.27954,-11.2772 160.10156,80.67638 142.1608,51.78596 -45.24747,-30.10545 -14.97678,-22.88655 13.61461,26.00631 -27.00908,-111.76975 -141.74273,-66.51491 -76.65741,-34.73671 20.33781,47.70912 26.73698,28.46006 -73.34797,-36.25382 47.04313,-17.46532 153.22419,74.88293 134.64561,40.14813 -51.11114,-27.45809 -19.06428,-20.64461 14.41952,30.884 -31.38642,-109.68004 -130.86156,-59.09484 -63.1044,-29.73705 -1.9488,53.94615 11.04984,34.91818 -77.45568,-33.77499 29.13632,-25.0001 143.78701,68.19657 123.78883,28.18746 -54.33773,-25.52881 -22.8035,-18.15441 15.99889,35.20099 -36.15451,-106.49722 -117.67087,-51.76156 -53.10775,-23.59767 -22.60943,57.534 -5.40312,40.26737 -75.71263,-32.1949 9.02284,-33.14452 132.05724,61.28388 109.87276,16.6549 -54.40251,-24.34024 -25.91369,-15.77194 18.32295,38.88642 -41.58094,-102.62389 -102.9931,-45.14931 -47.05086,-15.82875 -38.85051,57.8828 -20.87427,43.01079 -68.30679,-32.66535 -12.50883,-41.12429 118.62164,54.78806 93.53231,6.23786 -51.12386,-23.84201 -28.14025,-13.78386 21.32909,41.9107 -47.76752,-98.61712 -87.95639,-39.51518 -44.95597,-6.57688 -46.67369,55.43639 -33.79235,42.77683 -56.08482,-35.47991 -34.37437,-48.3303 104.36482,49.12965 75.72441,-2.64345 -46.89463,-22.08953 -37.05049,-14.62696 20.53371,33.21224"
       style="fill:none;stroke:#000000;stroke-width:0.13324316px;stroke-linecap:butt;stroke-linejoin:miter;stroke-opacity:1"
       inkscape:connector-curvature="0" />
  </g>
</svg>
