<?xml version="1.0" encoding="UTF-8" standalone="no"?>
<!-- Created with Inkscape (http://www.inkscape.org/) -->

<svg
   xmlns:dc="http://purl.org/dc/elements/1.1/"
   xmlns:cc="http://creativecommons.org/ns#"
   xmlns:rdf="http://www.w3.org/1999/02/22-rdf-syntax-ns#"
   xmlns:svg="http://www.w3.org/2000/svg"
   xmlns="http://www.w3.org/2000/svg"
   xmlns:sodipodi="http://sodipodi.sourceforge.net/DTD/sodipodi-0.dtd"
   xmlns:inkscape="http://www.inkscape.org/namespaces/inkscape"
   width="744.09448819"
   height="1052.3622047"
   id="svg2"
   version="1.1"
   inkscape:version="0.48.2 r9819"
   sodipodi:docname="spiral032.svg">
  <sodipodi:namedview
     id="base"
     pagecolor="#ffffff"
     bordercolor="#666666"
     borderopacity="1.0"
     inkscape:pageopacity="0.0"
     inkscape:pageshadow="2"
     inkscape:zoom="0.67565852"
     inkscape:cx="191.49656"
     inkscape:cy="542.78467"
     inkscape:document-units="px"
     inkscape:current-layer="layer1"
     showgrid="false"
     inkscape:window-width="957"
     inkscape:window-height="752"
     inkscape:window-x="369"
     inkscape:window-y="64"
     inkscape:window-maximized="0"
     inkscape:snap-center="false" />
  <defs
     id="defs4" />
  <metadata
     id="metadata7">
    <rdf:RDF>
      <cc:Work
         rdf:about="">
        <dc:format>image/svg+xml</dc:format>
        <dc:type
           rdf:resource="http://purl.org/dc/dcmitype/StillImage" />
        <dc:title></dc:title>
      </cc:Work>
    </rdf:RDF>
  </metadata>
  <g
     id="layer1"
     inkscape:groupmode="layer"
     inkscape:label="Layer 1">
    <rect
       y="0.21038114"
       x="10.092996"
       height="786.08429"
       width="586.06732"
       id="rect3021"
       style="fill:none;stroke:#000000;stroke-width:1.12594795;stroke-miterlimit:4;stroke-opacity:1;stroke-dasharray:none" />
    <path
       sodipodi:type="arc"
       style="fill:none;stroke:#000000;stroke-width:1;stroke-miterlimit:4;stroke-opacity:1;stroke-dasharray:none"
       id="path3642"
       sodipodi:cx="317.10303"
       sodipodi:cy="379.43399"
       sodipodi:rx="17.791258"
       sodipodi:ry="17.791258"
       d="m 334.89429,379.43399 a 17.791258,17.791258 0 1 1 -35.58252,0 17.791258,17.791258 0 1 1 35.58252,0 z" />
    <path
       style="fill:none;stroke:#000000;stroke-width:1;stroke-miterlimit:4;stroke-opacity:1;stroke-dasharray:none"
       d="m 315.0625,359.75 c -13.54206,0.82942 -22.30838,17.41165 -15.34375,29.09375 5.84414,12.18737 24.61081,13.92298 32.6875,3.15625 8.98154,-10.11549 3.65741,-27.99893 -9.4375,-31.46875 -2.53406,-0.81441 -5.25742,-1.06559 -7.90625,-0.78125 z"
       id="path3644"
       inkscape:connector-curvature="0" />
    <path
       style="fill:none;stroke:#000000;stroke-width:1;stroke-miterlimit:4;stroke-opacity:1;stroke-dasharray:none"
       d="m 316,357.65625 c -15.88329,-0.0722 -26.4721,20.29702 -17.40625,33.3125 7.47289,13.42557 29.52633,13.48197 37.0625,0.0625 8.29408,-12.4701 -0.27005,-31.7068 -15.34375,-33.1875 -1.42439,-0.20014 -2.87564,-0.25426 -4.3125,-0.1875 z"
       id="path3648"
       inkscape:connector-curvature="0" />
    <path
       style="fill:none;stroke:#000000;stroke-width:1;stroke-miterlimit:4;stroke-opacity:1;stroke-dasharray:none"
       d="m 316,355.65625 c -17.95315,-0.27604 -29.55813,23.67893 -18.3125,37.65625 9.23871,14.25548 33.98279,12.48414 40.8125,-3.15625 7.97018,-15.44828 -4.74234,-36.19863 -22.5,-34.5 z"
       id="path3652"
       inkscape:connector-curvature="0" />
    <path
       style="fill:none;stroke:#000000;stroke-width:1;stroke-miterlimit:4;stroke-opacity:1;stroke-dasharray:none"
       d="m 316.78125,353.59375 c -19.84822,-1.03463 -33.18303,25.63449 -20.6875,40.9375 10.31857,16.02375 38.61317,13.06561 44.9375,-5.0625 7.04726,-16.18844 -6.1841,-37.01154 -24.25,-35.875 z"
       id="path3656"
       inkscape:connector-curvature="0" />
    <path
       style="fill:none;stroke:#000000;stroke-width:1;stroke-miterlimit:4;stroke-opacity:1;stroke-dasharray:none"
       d="M 313.90625,351.625 C 293.57073,353.12539 281.46087,380.84972 295,396.5 c 11.9839,18.04111 42.98943,12.76052 48.53125,-7.9375 6.50024,-18.50572 -9.76804,-39.85962 -29.625,-36.9375 z"
       id="path3660"
       inkscape:connector-curvature="0"
       sodipodi:nodetypes="cccc" />
    <path
       style="fill:none;stroke:#000000;stroke-width:1;stroke-miterlimit:4;stroke-opacity:1;stroke-dasharray:none"
       d="m 316.625,349.375 c -20.48154,-0.4975 -35.48972,24.08665 -26.96875,42.40625 5.47636,13.69646 18.32225,51.90136 34.34375,16.375 14.08958,-2.43911 24.24305,-16.16143 22.90625,-30.28125 -1.04579,-15.30491 -14.5268,-29.18227 -30.28125,-28.5 z"
       id="path3664"
       inkscape:connector-curvature="0"
       sodipodi:nodetypes="ccccc" />
    <path
       style="fill:none;stroke:#000000;stroke-width:1;stroke-miterlimit:4;stroke-opacity:1;stroke-dasharray:none"
       d="m 316.625,347.375 c -22.94407,-0.64297 -39.17938,28.21211 -27.5625,47.71875 9.42024,18.03889 36.85963,21.23803 50.81274,6.86748 12.96568,-12.04295 11.53529,-34.21501 -1.21899,-45.80498 -5.8596,-5.65078 -13.82264,-9.16786 -22.03125,-8.78125 z"
       id="path3668"
       inkscape:connector-curvature="0" />
    <path
       style="fill:none;stroke:#000000;stroke-width:1;stroke-miterlimit:4;stroke-opacity:1;stroke-dasharray:none"
       d="m 316.625,345.375 c -24.31147,-0.78462 -41.78212,30.01509 -29.28125,50.71875 10.47239,20.24639 42.37077,22.72822 56.3125,4.78125 13.24933,-15.48782 7.49038,-41.51504 -10.0625,-51.09375 -5.10934,-2.9616 -11.00649,-4.71886 -16.96875,-4.40625 z"
       id="path3672"
       inkscape:connector-curvature="0" />
    <path
       style="fill:none;stroke:#000000;stroke-width:1;stroke-miterlimit:4;stroke-opacity:1;stroke-dasharray:none"
       d="m 316.625,343.375 c -25.75744,-0.87056 -44.35435,31.82195 -31,53.71875 11.3596,22.17223 46.91243,23.99269 60.84375,3.46875 14.0554,-18.56508 3.91302,-48.76486 -18.28125,-55.46875 -3.71866,-1.2307 -7.62602,-1.9534 -11.5625,-1.71875 z"
       id="path3676"
       inkscape:connector-curvature="0" />
    <path
       style="fill:none;stroke:#000000;stroke-width:1;stroke-miterlimit:4;stroke-opacity:1;stroke-dasharray:none"
       d="m 314.15625,341.375 c -26.5124,1.20064 -44.32256,35.34741 -29.71875,57.71875 12.9196,23.28629 51.49625,23.83235 64.96875,0.75 13.78168,-20.88338 0.42094,-53.17167 -24.28125,-57.6875 -3.56616,-0.90103 -7.25881,-0.86011 -10.96875,-0.78125 z"
       id="path3680"
       inkscape:connector-curvature="0" />
    <path
       style="fill:none;stroke:#000000;stroke-width:1;stroke-miterlimit:4;stroke-opacity:1;stroke-dasharray:none"
       d="m 314.125,339.375 c -28.03058,1.10813 -46.83518,37.27889 -31.375,60.78125 13.48877,24.52193 54.34914,25.01689 68.34375,0.75 14.90333,-22.31342 -0.23975,-57.28438 -26.96875,-61 -3.2869,-0.63813 -6.66003,-0.6071 -10,-0.53125 z"
       id="path3684"
       inkscape:connector-curvature="0" />
    <path
       style="fill:none;stroke:#000000;stroke-width:1;stroke-miterlimit:4;stroke-opacity:1;stroke-dasharray:none"
       d="m 314.09375,337.375 c -29.33158,0.96896 -49.21732,38.79012 -33.21783,63.53414 13.94774,26.00748 57.21836,26.70518 71.93658,1.02836 15.67525,-23.35207 -0.35254,-60.13755 -28.28125,-64 -3.43182,-0.66971 -6.94923,-0.62922 -10.4375,-0.5625 z"
       id="path3688"
       inkscape:connector-curvature="0" />
    <path
       style="fill:none;stroke:#000000;stroke-width:1;stroke-miterlimit:4;stroke-opacity:1;stroke-dasharray:none"
       d="m 314.0625,335.375 c -30.87323,0.91197 -51.71338,40.69566 -34.875,66.59375 14.66283,27.2747 59.94123,27.92314 75.34375,1 16.70994,-24.89822 -1.01361,-64.1065 -31.03125,-67.25 -3.12528,-0.44806 -6.28895,-0.39708 -9.4375,-0.34375 z"
       id="path3692"
       inkscape:connector-curvature="0" />
    <path
       style="fill:none;stroke:#000000;stroke-width:1;stroke-miterlimit:4;stroke-opacity:1;stroke-dasharray:none"
       d="m 314.03125,333.375 c -31.61603,0.83422 -53.40423,40.73992 -37.53278,67.99191 11.75366,24.09704 46.20217,30.23991 67.72028,15.53934 16.16901,-10.96744 22.93336,-32.97168 16.21875,-51.28125 -5.74081,-18.62788 -23.77478,-33.53625 -43.84375,-32.28125 -0.8542,0.003 -1.70833,0.0235 -2.5625,0.0312 z"
       id="path3696"
       inkscape:connector-curvature="0" />
    <path
       style="fill:none;stroke:#000000;stroke-width:1;stroke-miterlimit:4;stroke-opacity:1;stroke-dasharray:none"
       d="m 316.5625,331.34375 c -26.2901,-0.91923 -47.34947,24.25313 -47.375,49.4375 -0.38778,20.87888 15.35133,40.50639 35.84375,44.5625 19.10025,56.81777 46.00509,5.74021 55.40625,-24.625 13.43762,-26.64525 -4.13119,-62.85361 -33.375,-68.625 -3.4489,-0.70033 -6.98141,-0.99097 -10.5,-0.75 z"
       id="path3700"
       inkscape:connector-curvature="0"
       sodipodi:nodetypes="cccccc" />
    <path
       style="fill:none;stroke:#000000;stroke-width:1;stroke-miterlimit:4;stroke-opacity:1;stroke-dasharray:none"
       d="m 317.8125,329.28125 c -25.56264,-1.40245 -47.31104,20.89985 -50.21875,45.375 -3.9536,24.91474 15.30085,50.02854 40.09375,53.34375 22.62345,4.57865 48.32124,-7.57973 56.13302,-29.95499 11.60935,-28.6494 -9.35539,-65.62519 -40.47677,-68.54501 -1.83624,-0.19985 -3.68426,-0.30681 -5.53125,-0.21875 z"
       id="path3704"
       inkscape:connector-curvature="0" />
    <path
       style="fill:none;stroke:#000000;stroke-width:1;stroke-miterlimit:4;stroke-opacity:1;stroke-dasharray:none"
       d="m 314.1875,327.25 c -32.67549,0.94085 -57.0765,38.05383 -46.6875,68.65625 6.2177,19.47319 24.87584,33.90927 45.40625,34.875 23.44303,2.22751 47.97969,-12.57557 54.1157,-35.79668 9.3215,-30.18352 -13.99368,-66.71859 -46.33445,-67.70332 -2.16781,-0.007 -4.3318,-0.099 -6.5,-0.0312 z"
       id="path3708"
       inkscape:connector-curvature="0" />
    <path
       style="fill:none;stroke:#000000;stroke-width:1;stroke-miterlimit:4;stroke-opacity:1;stroke-dasharray:none"
       d="m 314.15625,325.25 c -34.99818,0.90579 -60.85381,41.89667 -47.5625,74.09375 8.22905,21.88422 32.03095,35.91437 55.28125,33.5 23.73442,-1.62022 45.788,-20.21227 48.65044,-44.26987 4.70629,-30.19472 -19.32934,-63.07797 -50.80651,-63.31186 -1.8545,0.007 -3.70852,-0.0791 -5.56268,-0.012 z"
       id="path3712"
       inkscape:connector-curvature="0" />
    <path
       style="fill:none;stroke:#000000;stroke-width:1;stroke-miterlimit:4;stroke-opacity:1;stroke-dasharray:none"
       d="m 314.125,323.25 c -36.75126,0.86675 -63.76959,44.38707 -48.96875,77.875 10.2015,25.92483 41.76159,40.03574 68.21875,31.65625 22.4418,-6.13219 40.21984,-27.67493 39.75,-51.34375 0.52849,-30.04625 -25.09967,-59.67073 -56.1875,-58.21875 -0.93782,-0.0101 -1.87511,0.003 -2.8125,0.0312 z"
       id="path3716"
       inkscape:connector-curvature="0" />
    <path
       style="fill:none;stroke:#000000;stroke-width:1;stroke-miterlimit:4;stroke-opacity:1;stroke-dasharray:none"
       d="m 316.9375,321.21875 c -36.18803,-1.2195 -64.94122,38.06378 -56.4375,72.4375 5.96065,26.19462 32.1344,44.55677 58.6872,43.50687 27.79002,-0.41488 53.81799,-23.07412 55.8128,-51.19437 2.91221,-31.1203 -21.73044,-63.23496 -53.6875,-64.75 -1.45799,-0.0455 -2.91701,-0.0446 -4.375,0 z"
       id="path3720"
       inkscape:connector-curvature="0" />
    <path
       style="fill:none;stroke:#000000;stroke-width:1;stroke-miterlimit:4;stroke-opacity:1;stroke-dasharray:none"
       d="m 313.53125,319.21875 c -38.1355,1.30885 -66.50134,45.26619 -53.27006,80.85241 10.35933,29.62712 46.19164,46.44532 75.78834,36.2285 24.73993,-7.82254 43.51012,-32.79652 41.04422,-59.20591 -1.75299,-30.94341 -29.2501,-59.85595 -61.21856,-57.8946 -0.78129,-0.0329 -1.56263,0.0135 -2.34394,0.0196 z"
       id="path3724"
       inkscape:connector-curvature="0" />
    <path
       style="fill:none;stroke:#000000;stroke-width:1;stroke-miterlimit:4;stroke-opacity:1;stroke-dasharray:none"
       d="m 317.34375,317.125 c -32.8855,-1.1011 -60.47282,28.80167 -62.25,60.5625 -2.23276,26.63392 16.57542,51.72936 41.43979,59.90424 25.60365,9.77286 56.4774,-0.30064 71.87271,-22.77924 15.76238,-20.93461 13.63797,-51.71385 -1.98546,-72.12768 -11.24566,-15.45685 -29.56159,-26.2372 -49.07704,-25.55982 z"
       id="path3728"
       inkscape:connector-curvature="0" />
    <path
       style="fill:none;stroke:#000000;stroke-width:1;stroke-miterlimit:4;stroke-opacity:1;stroke-dasharray:none"
       d="m 314.25,315.125 c -40.12601,0.88376 -70.87155,45.89736 -58.65625,83.8125 9.50946,30.96645 44.86603,50.63346 76.34375,42.65625 28.05791,-6.16174 50.5422,-32.6592 49.28125,-61.90625 C 380.95486,344.87411 349.90312,312.4387 314.25,315.125 z"
       id="path3732"
       inkscape:connector-curvature="0" />
    <path
       style="fill:none;stroke:#000000;stroke-width:1;stroke-miterlimit:4;stroke-opacity:1;stroke-dasharray:none"
       d="m 315.84375,313.03125 c -40.34359,-0.14184 -72.51996,43.08718 -63.4375,81.90625 7.81675,35.83666 49.25247,58.95116 84,47.5625 29.1089,-8.18675 50.73462,-38.35664 46.46679,-68.87041 -3.42702,-32.93359 -33.10936,-62.19317 -67.02929,-60.59834 z"
       id="path3736"
       inkscape:connector-curvature="0" />
    <path
       style="fill:none;stroke:#000000;stroke-width:1;stroke-miterlimit:4;stroke-opacity:1;stroke-dasharray:none"
       d="m 315.84375,311.03125 c -42.15807,-0.20303 -75.7926,45.78074 -64.96875,86.0625 9.19943,37.5183 54.41354,60.40567 90.25,46 29.30577,-10.29959 49.60834,-42.93527 43.15137,-73.83068 -5.34669,-32.1081 -35.02624,-59.82378 -68.43262,-58.23182 z"
       id="path3740"
       inkscape:connector-curvature="0" />
    <path
       style="fill:none;stroke:#000000;stroke-width:1;stroke-miterlimit:4;stroke-opacity:1;stroke-dasharray:none"
       d="m 315.84375,309.03125 c -43.06356,-0.23602 -77.61147,46.39662 -67.15625,87.625 9.00254,39.64208 57.16863,63.80696 94.5625,47.8125 30.9938,-11.65244 51.21574,-47.70003 42.0625,-80.1875 -7.42067,-30.9692 -36.71241,-56.78898 -69.46875,-55.25 z"
       id="path3744"
       inkscape:connector-curvature="0" />
    <path
       style="fill:none;stroke:#000000;stroke-width:1;stroke-miterlimit:4;stroke-opacity:1;stroke-dasharray:none"
       d="m 315.84375,307.03125 c -43.95966,-0.24897 -79.3581,46.89686 -69.34375,89.15625 15.17134,77.46048 67.24061,109.39219 98.46405,49.7646 32.781,-12.7847 52.9221,-52.20477 41.21354,-86.09627 -8.97397,-29.99701 -38.17847,-54.36718 -70.33384,-52.82458 z"
       id="path3748"
       inkscape:connector-curvature="0"
       sodipodi:nodetypes="ccccc" />
    <path
       style="fill:none;stroke:#000000;stroke-width:1;stroke-miterlimit:4;stroke-opacity:1;stroke-dasharray:none"
       d="m 315.84375,305.03125 c -43.72773,-0.19519 -79.34555,44.96168 -72.125,87.53125 5.2215,35.45588 40.41938,61.55632 75.65612,60.89012 31.9146,-0.17327 61.27461,-23.62608 69.50013,-54.32762 13.42994,-45.2033 -25.81879,-96.30674 -73.03125,-94.09375 z"
       id="path3752"
       inkscape:connector-curvature="0" />
    <path
       style="fill:none;stroke:#000000;stroke-width:1;stroke-miterlimit:4;stroke-opacity:1;stroke-dasharray:none"
       d="m 316.875,303 c -41.76931,-0.69186 -76.891,38.73747 -76.09375,79.625 -0.0721,29.15187 20.22934,55.43606 46.60665,66.39392 25.17867,11.35327 56.50218,7.49872 77.63886,-10.33622 23.8424,-18.63622 34.99264,-52.51832 24.63456,-81.41552 C 379.50562,326.69531 350.02136,301.91707 316.875,303 z"
       id="path3756"
       inkscape:connector-curvature="0" />
    <path
       style="fill:none;stroke:#000000;stroke-width:1;stroke-miterlimit:4;stroke-opacity:1;stroke-dasharray:none"
       d="m 316.875,301 c -47.24891,-0.80319 -85.83644,48.28733 -76.9375,94.125 7.70633,40.57968 51.50142,69.10802 91.9375,61.03125 36.83727,-6.09335 65.4181,-41.66142 63.60278,-79.031 C 393.60757,337.06571 358.09486,299.69291 316.875,301 z"
       id="path3760"
       inkscape:connector-curvature="0" />
    <path
       style="fill:none;stroke:#000000;stroke-width:1;stroke-miterlimit:4;stroke-opacity:1;stroke-dasharray:none"
       d="m 316.875,299 c -47.47631,-0.9 -86.9877,47.96628 -79.28125,94.3125 4.62288,49.26837 38.81054,113.38093 99.875,63.71875 39.81681,-9.39362 68.076,-53.18912 58.15625,-93.375 C 387.55779,328.00015 354.40673,297.79128 316.875,299 z"
       id="path3764"
       inkscape:connector-curvature="0"
       sodipodi:nodetypes="ccccc" />
    <path
       style="fill:none;stroke:#000000;stroke-width:1;stroke-miterlimit:4;stroke-opacity:1;stroke-dasharray:none"
       d="m 316.875,297 c -47.1648,-0.80574 -86.67099,46.00633 -81.875,92.15625 4.11039,46.60575 54.79084,81.1005 99.875,70.59375 42.31679,-8.16802 73.18993,-54.29639 62.6875,-96.5625 C 389.36637,326.70155 355.24943,295.73968 316.875,297 z"
       id="path3768"
       inkscape:connector-curvature="0" />
    <path
       style="fill:none;stroke:#000000;stroke-width:1;stroke-miterlimit:4;stroke-opacity:1;stroke-dasharray:none"
       d="m 316.875,295 c -48.63548,-0.82953 -89.46937,47.8447 -83.78125,95.46875 5.04235,47.91338 57.78771,82.80738 104.15625,70.84375 43.53988,-9.49064 74.41301,-58.73921 61.40625,-102.0625 C 388.93408,323.47444 355.01655,293.77263 316.875,295 z"
       id="path3772"
       inkscape:connector-curvature="0" />
    <path
       style="fill:none;stroke:#000000;stroke-width:1;stroke-miterlimit:4;stroke-opacity:1;stroke-dasharray:none"
       d="m 316.875,293 c -47.76388,-0.7629 -88.36681,44.98433 -86.25,91.96875 1.41833,47.99408 50.22032,85.92093 97.03125,80.15625 29.62847,-2.98086 56.14428,-23.4494 68.1875,-50.5 10.99109,-22.62518 10.09283,-50.3644 -1.65625,-72.53125 C 379.8398,313.54905 349.71517,291.87382 316.875,293 z"
       id="path3776"
       inkscape:connector-curvature="0" />
    <path
       style="fill:none;stroke:#000000;stroke-width:1;stroke-miterlimit:4;stroke-opacity:1;stroke-dasharray:none"
       d="m 316.875,291 c -49.69154,-0.73764 -91.74893,47.49895 -88.15625,96.34375 3.08941,49.97579 55.81453,88.24933 104.39383,79.06163 43.98252,-7.21682 77.87,-51.99719 71.84244,-96.46209 C 399.69072,327.45565 360.74458,289.55603 316.875,291 z"
       id="path3780"
       inkscape:connector-curvature="0" />
    <path
       style="fill:none;stroke:#000000;stroke-width:1;stroke-miterlimit:4;stroke-opacity:1;stroke-dasharray:none"
       d="m 316.875,289 c -50.36939,-0.72607 -93.26428,47.75274 -90.21875,97.3125 2.23742,48.64886 50.83762,87.27052 98.625,83.1875 45.67626,-3.03204 83.65417,-45.80361 82.34375,-91.28125 C 406.48789,331.22465 364.81161,287.56119 316.875,289 z"
       id="path3784"
       inkscape:connector-curvature="0" />
    <path
       style="fill:none;stroke:#000000;stroke-width:1;stroke-miterlimit:4;stroke-opacity:1;stroke-dasharray:none"
       d="m 316.875,287 c -52.16861,-0.80929 -96.72386,50.35724 -92.09375,101.71875 3.97751,51.754 58.65667,91.23212 109.16108,81.73848 11.25566,79.99157 83.12173,-57.0032 74.48008,-104.50494 C 401.21893,322.87472 361.64284,285.64864 316.875,287 z"
       id="path3788"
       inkscape:connector-curvature="0"
       sodipodi:nodetypes="ccccc" />
    <path
       style="fill:none;stroke:#000000;stroke-width:1;stroke-miterlimit:4;stroke-opacity:1;stroke-dasharray:none"
       d="m 316.875,285 c -53.28917,-0.81118 -98.87159,51.39698 -94.09375,103.875 3.80676,49.01335 52.0564,87.49647 100.37362,84.88494 44.40705,-1.80552 82.73426,-39.6738 87.93888,-83.22869 C 417.67327,337.17053 371.25683,283.35918 316.875,285 z"
       id="path3792"
       inkscape:connector-curvature="0" />
    <path
       style="fill:none;stroke:#000000;stroke-width:1;stroke-miterlimit:4;stroke-opacity:1;stroke-dasharray:none"
       d="m 316.875,283 c -49.80863,-0.62627 -92.90004,43.55594 -96.25,92.25 -2.78051,33.46521 15.88808,66.05094 43.65625,83.84375 28.02431,19.10574 67.02531,22.85015 97.03125,6.0625 C 397.30819,446.27352 420.52611,403.45771 412,362.84375 403.2249,319.01419 362.89285,281.63123 316.875,283 z"
       id="path3796"
       inkscape:connector-curvature="0" />
    <path
       style="fill:none;stroke:#000000;stroke-width:1;stroke-miterlimit:4;stroke-opacity:1;stroke-dasharray:none"
       d="m 316.875,281 c -54.64264,-0.68546 -101.35412,51.44914 -98.40625,105.3125 2.45081,46.02366 41.96589,84.76184 86.9375,90.5625 31.9886,5.13036 64.9682,-8.59015 85.59375,-32.875 22.19308,-24.95988 31.35263,-62.07556 19.59375,-93.9375 C 397.4035,310.99637 359.19859,279.64286 316.875,281 z"
       id="path3800"
       inkscape:connector-curvature="0" />
    <path
       style="fill:none;stroke:#000000;stroke-width:1;stroke-miterlimit:4;stroke-opacity:1;stroke-dasharray:none"
       d="m 316.875,279 c -59.843,-0.86738 -110.39762,60.84981 -98.94611,119.29637 9.03588,47.40166 55.56462,83.17085 103.53963,81.61986 C 366.90938,478.90946 407.31167,442.62927 415.8125,398.5 428.64447,339.77441 377.1038,277.07562 316.875,279 z"
       id="path3804"
       inkscape:connector-curvature="0" />
    <path
       style="fill:none;stroke:#000000;stroke-width:1;stroke-miterlimit:4;stroke-opacity:1;stroke-dasharray:none"
       d="m 316.875,277 c -61.00737,-0.89022 -112.64537,61.97299 -100.90625,121.6875 9.98895,53.34338 67.12197,92.12071 120.5625,81.625 48.20335,-8.9461 86.00949,-56.1797 83.125,-105.375 C 416.6456,322.94999 370.20075,275.37917 316.875,277 z"
       id="path3808"
       inkscape:connector-curvature="0" />
    <path
       style="fill:none;stroke:#000000;stroke-width:1;stroke-miterlimit:4;stroke-opacity:1;stroke-dasharray:none"
       d="m 316.875,275 c -62.07043,-0.89416 -114.68319,62.92535 -102.94997,123.60956 10.09527,56.49629 72.64329,97.07178 128.57555,82.45719 50.54363,-12.41612 87.82692,-66.56169 77.6831,-118.36636 C 411.30165,314.69258 367.00847,273.45061 316.875,275 z"
       id="path3812"
       inkscape:connector-curvature="0" />
    <path
       style="fill:none;stroke:#000000;stroke-width:1;stroke-miterlimit:4;stroke-opacity:1;stroke-dasharray:none"
       d="m 316.875,273 c -53.7331,-0.67766 -100.71754,45.92637 -106.09375,98.375 -3.90896,34.70197 12.87294,69.36886 40.02396,90.32074 28.019,22.38435 67.4952,31.25395 101.66354,18.42926 46.94378,-16.60712 79.79303,-69.13988 69.49404,-118.79361 C 412.48434,312.79594 367.53544,271.43972 316.875,273 z"
       id="path3816"
       inkscape:connector-curvature="0" />
    <path
       style="fill:none;stroke:#000000;stroke-width:1;stroke-miterlimit:4;stroke-opacity:1;stroke-dasharray:none"
       d="m 316.875,271 c -56.95363,-0.71115 -106.63397,50.80027 -108.59375,106.84375 -1.78093,42.98839 26.7705,83.20701 65.49899,100.20616 C 304.16473,492.26815 341.47029,491.46924 370.375,474 409.38099,451.46522 433.90863,403.43123 423.4375,358.59375 412.84243,310.18083 367.62141,269.43048 316.875,271 z"
       id="path3820"
       inkscape:connector-curvature="0" />
    <path
       style="fill:none;stroke:#000000;stroke-width:1;stroke-miterlimit:4;stroke-opacity:1;stroke-dasharray:none"
       d="m 316.875,269 c -62.7591,-0.85226 -116.97077,60.88651 -110.125,123 5.49956,50.37236 49.51753,91.65021 99.36788,97.24415 62.03903,8.97029 120.9451,-45.8408 121.72587,-107.36915 C 428.82016,322.90883 376.75638,267.19311 316.875,269 z"
       id="path3824"
       inkscape:connector-curvature="0" />
    <path
       style="fill:none;stroke:#000000;stroke-width:1;stroke-miterlimit:4;stroke-opacity:1;stroke-dasharray:none"
       d="m 316.875,267 c -63.03393,-0.71929 -117.31477,59.86114 -112.40625,122.21875 4.06651,53.45603 51.66104,97.94346 104.34375,102.40625 63.77986,7.25048 123.68357,-51.38099 120.97778,-114.906 C 427.82557,318.65576 376.10231,265.22569 316.875,267 z"
       id="path3828"
       inkscape:connector-curvature="0" />
    <path
       style="fill:none;stroke:#000000;stroke-width:1;stroke-miterlimit:4;stroke-opacity:1;stroke-dasharray:none"
       d="m 316.875,265 c -64.60032,-0.66672 -119.99767,61.54566 -114.33146,125.3722 4.21979,48.97463 44.63016,90.92763 92.15169,101.12464 29.99235,7.11182 86.38877,58.46936 87.14852,-17.93434 C 415.96026,449.62358 437.5182,406.70521 430.6743,364.6346 422.6466,310.42046 373.00419,263.30096 316.875,265 z"
       id="path3832"
       inkscape:connector-curvature="0"
       sodipodi:nodetypes="cccccc" />
    <path
       style="fill:none;stroke:#000000;stroke-width:1;stroke-miterlimit:4;stroke-opacity:1;stroke-dasharray:none"
       d="m 316.875,263 c -66.26987,-0.79266 -123.41025,64.02128 -116.12588,129.58185 6.21436,57.51929 60.28105,103.7461 117.71963,103.66815 61.56574,0.64851 116.23414,-55.50526 115.45288,-116.87487 C 433.38172,318.2448 379.20402,261.10591 316.875,263 z"
       id="path3836"
       inkscape:connector-curvature="0" />
    <path
       style="fill:none;stroke:#000000;stroke-width:1;stroke-miterlimit:4;stroke-opacity:1;stroke-dasharray:none"
       d="m 316.875,261 c -68.33649,-0.81719 -127.11444,66.90378 -117.8125,134.5 8.20251,61.97949 71.46622,110.20483 133.52248,101.89909 C 392.03145,489.88194 440.50797,432.22434 435.625,372.03125 430.99371,312.63462 377.80165,259.1739 316.875,261 z"
       id="path3840"
       inkscape:connector-curvature="0" />
    <path
       style="fill:none;stroke:#000000;stroke-width:1;stroke-miterlimit:4;stroke-opacity:1;stroke-dasharray:none"
       d="m 316.875,259 c -70.50444,-0.92925 -131.07598,70.22119 -119.34375,139.71875 9.974,62.2075 74.19025,109.66495 136.75,100.46875 C 395.07666,490.78832 444.07519,430.58175 437.375,369.03125 431.25026,309.8281 377.82029,257.14305 316.875,259 z"
       id="path3844"
       inkscape:connector-curvature="0" />
    <path
       style="fill:none;stroke:#000000;stroke-width:1;stroke-miterlimit:4;stroke-opacity:1;stroke-dasharray:none"
       d="m 318.28125,256.96875 c -72.23358,-1.80652 -134.77896,70.87211 -122.71875,142.0625 19.47594,64.40453 110.24631,195.66645 141.90625,101.6875 60.89013,-9.99794 109.08453,-71.03798 101.79334,-132.89986 C 432.60754,308.51282 379.2824,255.91708 318.28125,256.96875 z"
       id="path3848"
       inkscape:connector-curvature="0"
       sodipodi:nodetypes="ccccc" />
    <path
       style="fill:none;stroke:#000000;stroke-width:1;stroke-miterlimit:4;stroke-opacity:1;stroke-dasharray:none"
       d="m 313.1875,254.96875 c -60.98916,1.5074 -113.89709,54.10954 -120.46875,113.9375 -4.81455,40.9407 15.00947,82.02765 47.00363,106.90089 31.11452,25.20964 74.97984,35.86566 113.71512,23.13036 54.08082,-16.87768 94.39106,-73.59908 87.83941,-130.89785 -6.0988,-56.94768 -54.57394,-107.88804 -112.52449,-112.73425 -5.17334,-0.46022 -10.37691,-0.35082 -15.56492,-0.33665 z"
       id="path3852"
       inkscape:connector-curvature="0" />
    <path
       style="fill:none;stroke:#000000;stroke-width:1;stroke-miterlimit:4;stroke-opacity:1;stroke-dasharray:none"
       d="m 313.15625,252.96875 c -71.81661,1.56163 -132.69437,73.63697 -121.90625,144.875 8.84258,60.20268 65.33938,107.75084 125.87487,108.45389 63.53962,1.59133 120.68889,-52.96663 126.37513,-115.39139 6.33047,-66.46863 -48.02206,-132.12667 -114.59375,-137.59375 -5.23461,-0.44703 -10.50128,-0.3834 -15.75,-0.34375 z"
       id="path3856"
       inkscape:connector-curvature="0" />
    <path
       style="fill:none;stroke:#000000;stroke-width:1;stroke-miterlimit:4;stroke-opacity:1;stroke-dasharray:none"
       d="m 313.125,250.96875 c -70.67806,1.5551 -130.89205,70.07166 -124.6875,140.375 5.38188,62.82396 62.88751,114.62548 125.34276,116.8569 65.13151,3.55579 125.05101,-51.66692 131.56349,-115.6069 8.11356,-72.78481 -56.39649,-144.86891 -130.28119,-141.64038 l -0.99997,0.008 -0.93759,0.007 z"
       id="path3860"
       inkscape:connector-curvature="0" />
    <path
       style="fill:none;stroke:#000000;stroke-width:1;stroke-miterlimit:4;stroke-opacity:1;stroke-dasharray:none"
       d="m 316.71875,248.90625 c -73.79451,-0.6829 -137.59854,70.92293 -130.15625,144.125 6.54078,65.79538 69.11964,119.04675 134.84375,117.3125 69.6445,-1.05126 130.1853,-66.30867 126.49424,-135.81181 -3.21715,-66.82771 -63.06561,-127.5599 -131.18174,-125.62569 z"
       id="path3864"
       inkscape:connector-curvature="0" />
    <path
       style="fill:none;stroke:#000000;stroke-width:1;stroke-miterlimit:4;stroke-opacity:1;stroke-dasharray:none"
       d="m 316.71875,246.90625 c -75.42176,-0.7577 -140.67636,73.11344 -132,147.84375 7.62596,67.5534 73.26715,121.63803 141.06084,117.4424 69.99388,-3.59941 129.63041,-70.79857 123.93916,-140.9424 -4.973,-66.5534 -64.91543,-126.2871 -133,-124.34375 z"
       id="path3868"
       inkscape:connector-curvature="0" />
    <path
       style="fill:none;stroke:#000000;stroke-width:1;stroke-miterlimit:4;stroke-opacity:1;stroke-dasharray:none"
       d="M 316.71875,244.90625 C 251.61719,244.34556 193.77512,298.26468 183.5625,361.5 c -7.57831,42.98902 10.83658,87.701 43.03125,116.21875 33.73131,31.19853 84.00246,45.37311 128.53125,31.25 58.85279,-18.0597 102.94371,-78.83926 96.3125,-141.03125 -6.64879,-66.31886 -66.75461,-124.98079 -134.71875,-123.03125 z"
       id="path3872"
       inkscape:connector-curvature="0" />
    <path
       style="fill:none;stroke:#000000;stroke-width:1;stroke-miterlimit:4;stroke-opacity:1;stroke-dasharray:none"
       d="m 318.28125,242.875 c -68.78376,-1.35088 -130.01607,57.13559 -137.59375,124.40625 -5.59308,45.94846 17.40758,92.25927 53.66977,119.63816 36.26329,28.42135 87.90998,38.43319 131.04898,20.54934 55.11593,-21.59076 95.07102,-81.22029 87.875,-141.28125 -7.51755,-66.19223 -67.14064,-124.32517 -135,-123.3125 z"
       id="path3876"
       inkscape:connector-curvature="0" />
    <path
       style="fill:none;stroke:#000000;stroke-width:1;stroke-miterlimit:4;stroke-opacity:1;stroke-dasharray:none"
       d="m 313.4375,240.875 c -71.96502,1.5259 -134.2379,66.70476 -135.56065,138.12457 -0.97743,56.46301 37.84706,108.74233 89.43565,129.15668 35.53967,14.69945 77.68548,13.84852 111.65625,-4.65625 49.98934,-25.81997 84.00572,-83.34424 76.00346,-140.11759 C 446.7217,303.0138 396.73349,250.1836 335.8125,241.90625 c -7.31955,-1.05413 -14.92288,-1.12008 -22.375,-1.03125 z"
       id="path3880"
       inkscape:connector-curvature="0" />
    <path
       style="fill:none;stroke:#000000;stroke-width:1;stroke-miterlimit:4;stroke-opacity:1;stroke-dasharray:none"
       d="m 313.40625,238.875 c -74.53872,1.54533 -139.02854,70.55634 -137.50744,144.81236 1.18954,60.39906 47.01718,114.9672 104.44494,131.15639 37.31311,11.21439 79.66292,5.27607 111.96425,-16.82499 44.15482,-28.83317 72.58432,-83.23012 64.442,-136.36251 -9.08402,-62.11469 -61.98138,-115.88217 -124.90625,-122.25 -6.12752,-0.5489 -12.28912,-0.62573 -18.4375,-0.53125 z"
       id="path3884"
       inkscape:connector-curvature="0" />
    <path
       style="fill:none;stroke:#000000;stroke-width:1;stroke-miterlimit:4;stroke-opacity:1;stroke-dasharray:none"
       d="m 313.375,236.875 c -77.62182,1.59475 -144.347,75.22632 -139.25,152.5625 4.07652,60.96191 52.19978,114.67018 111.03125,128.8125 41.84871,10.90579 88.38547,0.0337 121.15341,-28.06525 39.03741,-31.92926 61.84524,-85.26833 51.24833,-135.69739 C 444.52047,288.32537 382.17115,233.46829 313.375,236.875 z"
       id="path3888"
       inkscape:connector-curvature="0" />
    <path
       style="fill:none;stroke:#000000;stroke-width:1;stroke-miterlimit:4;stroke-opacity:1;stroke-dasharray:none"
       d="m 316.5625,234.75 c -80.35767,-0.21422 -150.37146,75.9648 -144.37242,155.81038 5.00639,67.37832 62.81199,125.20172 129.58345,132.87615 49.6549,6.61173 94.755,14.49784 94.2389,-21.20312 C 430.30492,468.50091 470.4209,396.78361 458.5,349.375 443.68276,285.57211 383.29245,233.1252 316.5625,234.75 z"
       id="path3892"
       inkscape:connector-curvature="0"
       sodipodi:nodetypes="cccccc" />
    <path
       style="fill:none;stroke:#000000;stroke-width:1;stroke-miterlimit:4;stroke-opacity:1;stroke-dasharray:none"
       d="m 316.5625,232.75 c -68.81131,-0.1554 -130.6071,54.96393 -144.03324,121.54438 -9.68414,44.87253 6.82767,92.5625 38.3755,124.96446 33.58931,35.69843 85.27001,54.59291 133.98327,44.58239 63.76315,-11.7824 114.30472,-70.27579 118.91264,-134.74412 4.70802,-67.81514 -44.02105,-132.89044 -108.58192,-151.34711 -12.50067,-3.55392 -25.57732,-5.33899 -38.65625,-5 z"
       id="path3896"
       inkscape:connector-curvature="0" />
    <path
       style="fill:none;stroke:#000000;stroke-width:1;stroke-miterlimit:4;stroke-opacity:1;stroke-dasharray:none"
       d="m 316.5625,230.75 c -71.95911,-0.1922 -136.43683,59.40086 -147.1875,129.59375 -8.04749,49.54874 14.6235,100.64759 52.63426,132.18204 36.13355,30.81408 87.53227,44.0554 133.70949,30.91171 68.37496,-18.2961 118.63199,-89.89928 109.2871,-160.80538 C 455.84916,290.84724 390.18119,228.99904 316.5625,230.75 z"
       id="path3900"
       inkscape:connector-curvature="0" />
    <path
       style="fill:none;stroke:#000000;stroke-width:1;stroke-miterlimit:4;stroke-opacity:1;stroke-dasharray:none"
       d="m 316.5625,228.75 c -75.48924,-0.0916 -142.49945,64.14599 -150.125,138.375 -5.96161,57.73873 27.56179,114.96936 77.23979,143.03339 39.08929,22.83183 89.18284,27.19945 130.93329,8.86324 59.47679,-25.14074 100.74224,-90.98858 92.44598,-155.98177 C 458.21995,290.05333 391.27171,226.90894 316.5625,228.75 z"
       id="path3904"
       inkscape:connector-curvature="0" />
    <path
       style="fill:none;stroke:#000000;stroke-width:1;stroke-miterlimit:4;stroke-opacity:1;stroke-dasharray:none"
       d="m 316.5625,226.75 c -79.08286,-0.0309 -148.87906,69.27058 -152.67725,147.65296 -2.86565,62.67089 38.88798,122.51596 96.11475,146.12829 41.51863,17.73231 91.46474,15.75368 130.53125,-7.125 C 442.86612,483.82932 477.41167,421.69326 468.8125,361.0625 459.03894,287.79765 391.63368,224.908 316.5625,226.75 z"
       id="path3908"
       inkscape:connector-curvature="0" />
    <path
       style="fill:none;stroke:#000000;stroke-width:1;stroke-miterlimit:4;stroke-opacity:1;stroke-dasharray:none"
       d="m 316.5625,224.75 c -82.09149,-0.11023 -154.56897,73.95394 -154.8125,155.53125 -0.14638,69.49073 52.89727,133.4538 119.84375,149.5625 43.22726,11.11592 91.42704,1.78897 126.625,-25.6875 45.65096,-34.10351 72.76944,-94.42232 61.28666,-151.29578 C 456.01694,282.10073 389.9153,222.97332 316.5625,224.75 z"
       id="path3912"
       inkscape:connector-curvature="0" />
    <path
       style="fill:none;stroke:#000000;stroke-width:1;stroke-miterlimit:4;stroke-opacity:1;stroke-dasharray:none"
       d="m 316.5625,222.75 c -84.67986,-0.20694 -159.52008,77.87773 -156.75,162.4375 2.4807,72.64353 61.32694,137.49 132.64012,149.02264 44.05862,38.17023 93.72468,-4.79171 127.45363,-37.02264 40.64861,-36.08142 63.16338,-94.114 50.875,-148.0625 C 455.7451,278.9809 389.71191,220.98214 316.5625,222.75 z"
       id="path3916"
       inkscape:connector-curvature="0"
       sodipodi:nodetypes="cccccc" />
    <path
       style="fill:none;stroke:#000000;stroke-width:1;stroke-miterlimit:4;stroke-opacity:1;stroke-dasharray:none"
       d="m 316.5625,220.75 c -86.92337,-0.32445 -163.75011,81.24974 -158.59375,168 4.279,74.29218 66.84656,139.82045 140.625,148.40625 48.32353,6.65689 98.98094,-11.8126 131.96875,-47.4375 36.80791,-38.2095 55.08072,-95.6756 40.59375,-147.65625 C 453.38517,274.10308 388.22932,218.963 316.5625,220.75 z"
       id="path3920"
       inkscape:connector-curvature="0" />
    <path
       style="fill:none;stroke:#000000;stroke-width:1;stroke-miterlimit:4;stroke-opacity:1;stroke-dasharray:none"
       d="m 316.5625,218.75 c -85.21971,-0.27297 -160.83685,76.85936 -160.84375,161.875 -0.0727,78.38694 65.1835,149.55886 142.625,158.53125 53.27229,7.45453 108.8519,-15.71577 142.0625,-57.46875 C 473.48338,441.77092 487.68065,385.11314 471.25,335.09375 450.99788,269.34003 386.80505,216.98059 316.5625,218.75 z"
       id="path3924"
       inkscape:connector-curvature="0" />
    <path
       style="fill:none;stroke:#000000;stroke-width:1;stroke-miterlimit:4;stroke-opacity:1;stroke-dasharray:none"
       d="m 316.5625,216.75 c -86.93033,-0.34619 -164.05682,79.11084 -162.84375,165.75 0.97049,79.34976 67.80742,150.85421 146.35956,158.90432 57.39145,7.31005 116.5964,-20.55553 149.10108,-67.83207 29.80347,-41.42222 40.19612,-97.8745 21.58659,-146.20451 C 447.99923,264.18441 385.07105,215.02274 316.5625,216.75 z"
       id="path3928"
       inkscape:connector-curvature="0" />
    <path
       style="fill:none;stroke:#000000;stroke-width:1;stroke-miterlimit:4;stroke-opacity:1;stroke-dasharray:none"
       d="m 316.5625,214.75 c -85.95359,-0.32103 -162.40836,76.28031 -164.8124,161.56031 -2.61694,83.55181 68.15462,160.45314 150.8124,167.40844 60.92043,6.67708 123.01602,-25.77249 154.18975,-77.87705 27.30497,-43.24534 33.97364,-100.30032 12.61599,-147.48471 C 444.08873,258.50174 382.71889,213.03631 316.5625,214.75 z"
       id="path3932"
       inkscape:connector-curvature="0" />
    <path
       style="fill:none;stroke:#000000;stroke-width:1;stroke-miterlimit:4;stroke-opacity:1;stroke-dasharray:none"
       d="M 316.5625,212.75 C 232.29052,212.529 157.06001,284.9522 150.1875,368.1875 142.42866,456.49098 217.69715,540.37656 305.25,546 c 64.06352,5.80804 128.47256,-30.95556 158.125,-87.46875 24.81423,-44.62263 28.12855,-101.59237 4.91302,-147.52748 C 441.10818,253.77432 381.07848,211.07115 316.5625,212.75 z"
       id="path3936"
       inkscape:connector-curvature="0" />
    <path
       style="fill:none;stroke:#000000;stroke-width:1;stroke-miterlimit:4;stroke-opacity:1;stroke-dasharray:none"
       d="m 316.5625,210.75 c -87.97063,-0.32707 -166.54546,78.07594 -168.875,165.65625 -2.30069,81.37559 63.19743,156.96378 142.96875,169.9375 48.12662,8.44177 98.9058,-6.74111 135.5747,-38.4911 C 474.79527,466.94978 497.87247,396.90087 479.97833,335.3592 460.43494,269.63004 399.76856,215.99367 330.21875,211.03125 325.67279,210.73658 321.1168,210.64516 316.5625,210.75 z"
       id="path3940"
       inkscape:connector-curvature="0" />
    <path
       style="fill:none;stroke:#000000;stroke-width:1;stroke-miterlimit:4;stroke-opacity:1;stroke-dasharray:none"
       d="m 316.5625,208.75 c -92.08963,-0.37124 -173.78675,84.51028 -170.87294,176.34319 2.60127,84.83226 76.12494,160.03892 160.71669,165.18806 C 371.51706,555.05745 436.75899,518.04894 467,460.4375 492.05385,414.83124 495.69338,356.61559 472.15819,309.56859 444.19837,250.95124 382.8277,207.03556 316.5625,208.75 z"
       id="path3944"
       inkscape:connector-curvature="0" />
    <path
       style="fill:none;stroke:#000000;stroke-width:1;stroke-miterlimit:4;stroke-opacity:1;stroke-dasharray:none"
       d="m 318.09375,206.71875 c -84.57075,-1.00028 -145.3009,64.56015 -157.1682,147.20911 -8.68538,56.80566 40.32862,164.34536 83.2341,200.94856 37.56899,33.1308 51.28094,4.40089 100.96939,-4.54897 56.97827,-9.56932 107.69405,-49.12885 130.18346,-102.2337 20.83313,-46.9185 19.86642,-103.8825 -6.04207,-148.50251 -29.69385,-54.12287 -88.21434,-93.86003 -151.17668,-92.87249 z"
       id="path3948"
       inkscape:connector-curvature="0"
       sodipodi:nodetypes="ccccccc" />
    <path
       style="fill:none;stroke:#000000;stroke-width:1;stroke-miterlimit:4;stroke-opacity:1;stroke-dasharray:none"
       d="m 318.09375,204.71875 c -90.4263,-1.09132 -171.68507,77.86876 -176.32771,167.62392 -4.17077,81.67204 57.57776,158.94892 136.2704,177.57164 57.63104,14.81046 121.36028,-5.23636 162.61981,-47.25806 C 488.299,455.84687 505.70073,379.76433 480.18889,317.41616 453.74004,253.28433 389.08841,203.64397 318.09375,204.71875 z"
       id="path3952"
       inkscape:connector-curvature="0" />
    <path
       style="fill:none;stroke:#000000;stroke-width:1;stroke-miterlimit:4;stroke-opacity:1;stroke-dasharray:none"
       d="m 318.09375,202.71875 c -94.05034,-1.17853 -178.3961,83.48061 -178.53125,177.25 -0.089,84.76123 68.51098,162.1408 151.8125,174.75 62.41886,10.17401 128.13082,-18.0825 166.01259,-67.9827 39.10129,-50.70509 48.83606,-124.5921 19.17491,-182.04855 -27.8448,-55.9505 -85.07182,-98.51973 -148.40625,-101.78125 -3.34901,-0.20859 -6.70861,-0.22942 -10.0625,-0.1875 z"
       id="path3956"
       inkscape:connector-curvature="0" />
    <path
       style="fill:none;stroke:#000000;stroke-width:1;stroke-miterlimit:4;stroke-opacity:1;stroke-dasharray:none"
       d="m 318.09375,200.71875 c -85.72215,-0.98081 -163.55095,68.23083 -178.10884,151.67271 -10.36334,56.56497 12.75012,115.69137 53.60884,154.82729 38.50187,38.00861 94.94665,58.36366 148.92636,49.60114 63.72493,-9.35878 120.65113,-54.9683 142.19965,-115.85389 17.74771,-47.69046 14.69408,-103.84438 -12.00101,-147.62225 -31.31588,-54.17712 -90.84338,-93.65636 -154.625,-92.625 z"
       id="path3960"
       inkscape:connector-curvature="0" />
    <path
       style="fill:none;stroke:#000000;stroke-width:1;stroke-miterlimit:4;stroke-opacity:1;stroke-dasharray:none"
       d="m 318.09375,198.71875 c -89.40907,-0.99316 -170.39999,73.49552 -181.3125,161.375 -7.89022,61.26492 21.91119,123.52044 69.59456,161.1232 41.65047,33.56092 99.06572,48.02449 151.40544,34.6893 62.31075,-14.63084 115.30754,-63.90413 132.65625,-125.71875 14.5,-48.42006 7.87668,-103.41073 -20.625,-145.46875 -32.63687,-50.73739 -90.23433,-87.00329 -151.71875,-86 z"
       id="path3964"
       inkscape:connector-curvature="0" />
    <path
       style="fill:none;stroke:#000000;stroke-width:1;stroke-miterlimit:4;stroke-opacity:1;stroke-dasharray:none"
       d="m 318.09375,196.71875 c -94.00522,-1.07548 -178.91711,80.55331 -184.29604,173.9033 -4.36055,77.04469 47.1063,151.49318 118.09952,179.37434 40.018,48.34825 86.14395,17.20966 126.63402,1.78486 58.49264,-21.20032 105.03587,-73.25005 117.29155,-134.57423 10.78341,-48.87731 0.0985,-102.39074 -30.29985,-142.30175 -33.65445,-46.61074 -88.98061,-79.18849 -147.4292,-78.18652 z"
       id="path3968"
       inkscape:connector-curvature="0"
       sodipodi:nodetypes="ccccccc" />
    <path
       style="fill:none;stroke:#000000;stroke-width:1;stroke-miterlimit:4;stroke-opacity:1;stroke-dasharray:none"
       d="m 318.09375,194.71875 c -62.12921,-0.79561 -121.14114,34.76507 -155.0625,85.5625 -27.70167,40.40749 -38.9356,92.70865 -26.40625,140.5625 16.93033,68.59409 74.55042,125.54079 143.84375,140 51.16382,11.32152 106.39768,-2.16116 147.625,-33.9375 39.71209,-29.90106 66.90492,-76.03777 72.5,-125.625 6.09274,-48.2862 -8.36283,-98.62156 -39.63005,-135.65094 -34.21644,-42.61979 -87.27096,-71.90161 -142.86995,-70.91156 z"
       id="path3972"
       inkscape:connector-curvature="0" />
    <path
       style="fill:none;stroke:#000000;stroke-width:1;stroke-miterlimit:4;stroke-opacity:1;stroke-dasharray:none"
       d="m 318.09375,192.71875 c -87.62588,-0.86991 -168.00149,68.29639 -185.06335,153.38835 -11.03088,51.20462 4.51997,105.63514 36.49305,146.32801 35.55187,46.25645 92.88822,76.03607 151.82014,74.3205 C 386.45417,565.55349 448.52775,527.18123 480,470.46875 510.37796,417.83706 512.02054,349.59149 483.57296,295.8612 451.62034,236.07772 387.26658,191.58119 318.09375,192.71875 z"
       id="path3976"
       inkscape:connector-curvature="0" />
    <path
       style="fill:none;stroke:#000000;stroke-width:1;stroke-miterlimit:4;stroke-opacity:1;stroke-dasharray:none"
       d="M 318.09375,190.71875 C 223.9638,189.799 138.7044,268.54539 128.50891,361.36824 c -7.78126,69.69903 29.93414,139.7887 88.05359,177.03801 42.95356,28.44101 98.30211,38.08498 148.24766,24.08673 63.44759,-16.84139 116.32114,-68.24393 133.99437,-131.64242 15.57389,-54.14322 5.39656,-115.4923 -28.96078,-160.41306 -34.94042,-47.47278 -91.72691,-80.7629 -151.75,-79.71875 z"
       id="path3980"
       inkscape:connector-curvature="0" />
    <path
       style="fill:none;stroke:#000000;stroke-width:1;stroke-miterlimit:4;stroke-opacity:1;stroke-dasharray:none"
       d="m 318.09375,188.71875 c -98.72464,-1.07005 -188.0807,85.15285 -192.43151,183.3109 -3.64631,80.97878 51.18384,158.58375 126.29886,186.68659 45.95038,17.73964 98.93242,15.83546 143.47841,-5.1659 59.16911,-27.04784 103.48013,-85.10429 111.00768,-150.25216 6.77247,-52.00893 -9.36549,-106.55816 -44.30834,-145.75205 -35.42448,-41.53812 -88.52023,-69.8303 -144.0451,-68.82738 z"
       id="path3984"
       inkscape:connector-curvature="0" />
    <path
       style="fill:none;stroke:#000000;stroke-width:1;stroke-miterlimit:4;stroke-opacity:1;stroke-dasharray:none"
       d="m 318.09375,186.71875 c -103.26696,-1.21461 -196.53938,92.51339 -194.57709,195.81236 1.38547,85.04589 65.20567,163.55797 147.38411,184.36091 53.2035,14.0615 112.01083,2.5924 156.41837,-29.45488 48.74655,-34.1527 81.13361,-91.34492 82.52461,-151.21839 2.02391,-51.56978 -18.39898,-103.29859 -54.875,-139.53125 -35.41209,-36.66944 -85.22852,-60.91896 -136.875,-59.96875 z"
       id="path3988"
       inkscape:connector-curvature="0" />
    <path
       style="fill:none;stroke:#000000;stroke-width:1;stroke-miterlimit:4;stroke-opacity:1;stroke-dasharray:none"
       d="m 318.09375,184.71875 c -93.95753,-1.01383 -179.89433,75.45077 -194.43721,167.39401 -10.4692,63.52135 17.02822,129.62995 64.26945,171.87401 42.72345,39.51351 104.05232,58.60799 161.73229,47.9851 72.6843,-11.91619 134.97528,-68.7016 154.96764,-139.39999 C 522.9264,370.71813 506.66638,300.2287 463.39808,252.65431 426.9484,211.63805 373.8487,183.65893 318.09375,184.71875 z"
       id="path3992"
       inkscape:connector-curvature="0" />
    <path
       style="fill:none;stroke:#000000;stroke-width:1;stroke-miterlimit:4;stroke-opacity:1;stroke-dasharray:none"
       d="m 318.09375,182.71875 c -65.15889,-0.74924 -127.03443,35.7861 -163.4375,88.46875 -29.99629,42.41352 -42.89642,97.6004 -30.61076,148.6428 16.85198,74.88359 79.15013,137.70175 154.61076,152.9822 58.23738,12.61739 121.3449,-4.67934 165.87121,-43.75982 47.30719,-40.01163 74.71902,-103.02616 68.78504,-165.24018 -4.00268,-48.47762 -26.93378,-94.91808 -63,-127.375 -35.5029,-33.07196 -83.11247,-54.68936 -132.21875,-53.71875 z"
       id="path3996"
       inkscape:connector-curvature="0" />
    <path
       style="fill:none;stroke:#000000;stroke-width:1;stroke-miterlimit:4;stroke-opacity:1;stroke-dasharray:none"
       d="m 318.09375,180.71875 c -93.33769,-0.87849 -179.16929,72.79318 -197.0625,163.53125 -11.3737,53.83396 4.81392,111.07787 37.84375,154.09375 36.06668,47.80406 93.56241,79.40168 153.87475,80.49122 57.34457,1.54709 114.14546,-24.00411 152.0315,-66.64747 40.17512,-44.24267 59.50066,-107.31588 48.1712,-166.50404 C 504.46602,297.1253 476.70019,252.76301 437.65625,223 403.82491,196.49899 361.48524,179.85216 318.09375,180.71875 z"
       id="path4000"
       inkscape:connector-curvature="0" />
    <path
       style="fill:none;stroke:#000000;stroke-width:1;stroke-miterlimit:4;stroke-opacity:1;stroke-dasharray:none"
       d="m 318.09375,178.71875 c -98.72646,-0.94725 -188.88466,80.66998 -201.21875,177.9375 -9.55329,73.39493 28.51365,148.14444 88.83428,189.07245 45.0885,31.46537 103.68264,43.1901 157.29757,29.67778 65.6352,-15.51321 121.45937,-65.8555 143.5869,-129.53148 19.97266,-54.19782 13.49747,-117.08898 -16.2505,-166.49073 -28.21712,-47.50742 -75.85913,-83.09491 -129.65575,-96.07177 -13.93069,-3.27742 -28.26125,-4.88479 -42.59375,-4.59375 z"
       id="path4004"
       inkscape:connector-curvature="0" />
    <path
       style="fill:none;stroke:#000000;stroke-width:1;stroke-miterlimit:4;stroke-opacity:1;stroke-dasharray:none"
       d="M 318.09375,176.71875 C 214.47825,175.7015 120.2801,264.81313 113.7725,367.80996 c -4.84328,75.82023 38.83248,150.40403 103.94625,188.00254 48.27491,28.37666 108.89202,35.18718 162.04243,16.93377 63.91499,-21.04126 115.58814,-75.13002 133.23229,-140.11404 17.55419,-61.95578 1.98498,-131.7552 -39.60003,-180.68367 -37.69235,-45.3521 -95.50053,-76.19372 -155.29969,-75.22981 z"
       id="path4008"
       inkscape:connector-curvature="0" />
    <path
       style="fill:none;stroke:#000000;stroke-width:1;stroke-miterlimit:4;stroke-opacity:1;stroke-dasharray:none"
       d="m 318.09375,174.71875 c -94.68848,-0.85932 -181.83756,72.65139 -202.1875,164.125 -13.58428,58.59266 4.36724,121.63351 41.8125,167.78125 36.98492,46.73826 94.22586,76.72626 154.21748,78.16513 68.08954,2.61653 134.86835,-33.2019 173.31377,-88.75888 33.29949,-46.74686 45.23582,-108.19648 30.91459,-163.97753 -18.66116,-78.56268 -87.68623,-141.85555 -167.22709,-155.08497 -10.1678,-1.62059 -20.50742,-2.43714 -30.84375,-2.25 z"
       id="path4012"
       inkscape:connector-curvature="0" />
    <path
       style="fill:none;stroke:#000000;stroke-width:1;stroke-miterlimit:4;stroke-opacity:1;stroke-dasharray:none"
       d="m 318.09375,172.71875 c -101.16829,-0.88052 -193.56929,82.09572 -207.04849,181.63831 -10.25648,75.55181 28.16668,153.05036 90.14224,195.67419 51.08364,36.08275 119.42562,47.06941 178.92862,26.86754 C 448.99883,554.44931 504.48954,494.34057 519.46875,423.09375 533.3445,361.54468 515.79242,294.36157 474.50956,247.01849 436.02742,202.00098 378.1771,171.93476 318.09375,172.71875 z"
       id="path4016"
       inkscape:connector-curvature="0" />
    <path
       style="fill:none;stroke:#000000;stroke-width:1;stroke-miterlimit:4;stroke-opacity:1;stroke-dasharray:none"
       d="m 313.3125,170.75 c -106.34941,1.72892 -201.8289,94.89111 -205.78125,201.28125 -3.26113,88.05278 55.67473,173.1363 137.78008,203.53862 49.53318,66.96303 109.06876,52.17352 159.53369,-6.38138 C 468.53438,539.18678 516.00444,476.26051 524.5625,405.875 532.89334,342.08787 508.90267,275.48258 462.625,231.375 423.32981,192.86959 368.90412,168.71174 313.3125,170.75 z"
       id="path4020"
       inkscape:connector-curvature="0"
       sodipodi:nodetypes="ccccccc" />
    <path
       style="fill:none;stroke:#000000;stroke-width:1;stroke-miterlimit:4;stroke-opacity:1;stroke-dasharray:none"
       d="m 315.84375,168.6875 c -97.42461,0.43855 -186.34556,76.55842 -206.34375,171 -12.982322,59.88858 5.55418,123.91665 43.68906,170.93563 38.29902,48.55549 98.4859,79.44505 160.71712,80.23281 C 381.1083,592.78057 446.59805,558.47541 486.2,504.9 c 35.95649,-47.10601 50.38676,-110.1321 37.2375,-168.15 -10.76043,-50.87801 -41.26803,-96.64875 -83.21875,-127.0625 -35.74813,-26.25894 -79.6806,-42.05446 -124.375,-41 z"
       id="path4024"
       inkscape:connector-curvature="0" />
    <path
       style="fill:none;stroke:#000000;stroke-width:1;stroke-miterlimit:4;stroke-opacity:1;stroke-dasharray:none"
       d="m 317.90625,166.65625 c -65.0416,-0.45584 -127.43904,33.15994 -167.375,83.21875 -35.62171,43.88408 -54.224284,102.69213 -44.78379,159.11312 11.91562,78.4206 69.67735,147.68156 144.84629,172.76188 55.46826,19.4273 119.18961,13.30635 169.92951,-16.24828 60.32573,-33.77189 103.09909,-97.73712 108.87454,-167.02494 6.73803,-70.68209 -25.94495,-142.60797 -81.78204,-185.71356 -36.61501,-28.811 -82.65383,-46.70283 -129.70951,-46.10697 z"
       id="path4028"
       inkscape:connector-curvature="0" />
    <path
       style="fill:none;stroke:#000000;stroke-width:1;stroke-miterlimit:4;stroke-opacity:1;stroke-dasharray:none"
       d="m 311.78125,164.71875 c -96.46303,2.60912 -184.18734,77.2586 -205.41064,170.81854 -15.01696,62.74743 4.66418,130.73184 45.37939,179.68146 41.63112,51.50661 107.96488,82.89639 174.6875,79.53125 73.37955,-2.50177 142.34395,-46.80464 177.99301,-110.33877 30.43802,-52.37095 36.41596,-118.52516 15.19952,-175.41462 -19.08876,-53.97776 -60.491,-98.90458 -111.91128,-123.55911 -29.64018,-14.50502 -62.80526,-22.00899 -95.9375,-20.71875 z"
       id="path4032"
       inkscape:connector-curvature="0" />
    <path
       style="fill:none;stroke:#000000;stroke-width:1;stroke-miterlimit:4;stroke-opacity:1;stroke-dasharray:none"
       d="M 314.84375,162.625 C 212.11598,163.82961 118.68172,246.11714 102,347 c -11.994685,70.66112 17.59735,144.50025 69.52479,192.24737 45.57503,42.17951 109.7335,64.24044 171.80094,56.20559 79.00713,-9.37045 149.33596,-66.03295 177.2106,-140.28613 C 540.98149,401.66804 538.34667,339.81238 513.25,288.34375 478.05476,213.68283 398.26098,160.73086 314.84375,162.625 z"
       id="path4036"
       inkscape:connector-curvature="0" />
    <path
       style="fill:none;stroke:#000000;stroke-width:1;stroke-miterlimit:4;stroke-opacity:1;stroke-dasharray:none"
       d="m 316.78125,160.59375 c -95.27279,0.17307 -183.60417,69.91334 -210.71875,160.28125 -17.584831,55.67405 -7.56345,117.9459 22.02879,167.56825 33.95009,58.90154 95.83482,100.70315 163.55674,108.96597 61.13236,8.17659 124.51892,-13.10867 170.04516,-54.06415 C 509.75894,501.42882 538.63148,437.75272 536.0625,373.625 534.4946,304.61791 496.96164,238.79402 440.50097,199.9782 404.53095,174.82096 360.96242,159.98984 316.78125,160.59375 z"
       id="path4040"
       inkscape:connector-curvature="0" />
    <path
       style="fill:none;stroke:#000000;stroke-width:1;stroke-miterlimit:4;stroke-opacity:1;stroke-dasharray:none"
       d="m 316.75,158.59375 c -100.64205,0.22333 -193.15289,77.04865 -216.07344,174.25412 -17.303397,72.05455 8.91829,150.39713 60.63385,202.14646 48.35905,49.02692 120.44621,74.8155 188.98878,63.56178 79.9785,-12.17481 150.00089,-71.38402 176.04456,-147.77486 21.37182,-60.10551 13.46277,-129.55623 -20.0006,-183.61952 C 467.20414,201.96341 393.41125,157.65995 316.75,158.59375 z"
       id="path4044"
       inkscape:connector-curvature="0" />
  </g>
</svg>
