<?xml version="1.0" encoding="UTF-8" standalone="no"?>
<!-- Created with Inkscape (http://www.inkscape.org/) -->

<svg
   xmlns:dc="http://purl.org/dc/elements/1.1/"
   xmlns:cc="http://creativecommons.org/ns#"
   xmlns:rdf="http://www.w3.org/1999/02/22-rdf-syntax-ns#"
   xmlns:svg="http://www.w3.org/2000/svg"
   xmlns="http://www.w3.org/2000/svg"
   xmlns:sodipodi="http://sodipodi.sourceforge.net/DTD/sodipodi-0.dtd"
   xmlns:inkscape="http://www.inkscape.org/namespaces/inkscape"
   width="744.09448819"
   height="1052.3622047"
   id="svg3783"
   version="1.1"
   inkscape:version="0.48.2 r9819"
   sodipodi:docname="stars006.svg">
  <sodipodi:namedview
     id="base"
     pagecolor="#ffffff"
     bordercolor="#666666"
     borderopacity="1.0"
     inkscape:pageopacity="0.0"
     inkscape:pageshadow="2"
     inkscape:zoom="0.98994949"
     inkscape:cx="183.71602"
     inkscape:cy="643.65136"
     inkscape:document-units="px"
     inkscape:current-layer="g5347"
     showgrid="false"
     inkscape:window-width="1084"
     inkscape:window-height="748"
     inkscape:window-x="82"
     inkscape:window-y="-16"
     inkscape:window-maximized="0" />
  <defs
     id="defs3785">
    <inkscape:perspective
       sodipodi:type="inkscape:persp3d"
       inkscape:vp_x="-806.10173 : 998.93248 : 1"
       inkscape:vp_y="0 : 1000 : 0"
       inkscape:vp_z="228.91668 : 588.81055 : 1"
       inkscape:persp3d-origin="-143.13056 : 413.41685 : 1"
       id="perspective5321" />
    <inkscape:perspective
       sodipodi:type="inkscape:persp3d"
       inkscape:vp_x="32.079429 : 1033.7348 : 1"
       inkscape:vp_y="500.83983 : 500.83983 : 0"
       inkscape:vp_z="345.05248 : 309.95105 : 1"
       inkscape:persp3d-origin="70.872253 : 408.44299 : 1"
       id="perspective4523" />
  </defs>
  <metadata
     id="metadata3788">
    <rdf:RDF>
      <cc:Work
         rdf:about="">
        <dc:format>image/svg+xml</dc:format>
        <dc:type
           rdf:resource="http://purl.org/dc/dcmitype/StillImage" />
        <dc:title></dc:title>
      </cc:Work>
    </rdf:RDF>
  </metadata>
  <g
     inkscape:label="Layer 1"
     inkscape:groupmode="layer"
     id="layer1">
    <rect
       style="fill:none;stroke:#000000;stroke-width:0.91610378;stroke-opacity:1"
       id="rect4319"
       width="516.12524"
       height="779.49591"
       x="7.8454075"
       y="12.284647" />
    <flowRoot
       xml:space="preserve"
       id="flowRoot3475"
       style="fill:black;stroke:none;stroke-opacity:1;stroke-width:1px;stroke-linejoin:miter;stroke-linecap:butt;fill-opacity:1;font-family:Sans;font-style:normal;font-weight:normal;font-size:40px;line-height:125%;letter-spacing:0px;word-spacing:0px"><flowRegion
         id="flowRegion3477"><rect
           id="rect3479"
           width="474.7717"
           height="76.771591"
           x="40.406101"
           y="840.23016" /></flowRegion><flowPara
         id="flowPara3481" /></flowRoot>    <g
       id="g4525"
       style="fill:none;stroke:#000000;stroke-opacity:1">
      <path
         d="M 88.184197,225.77066 155.7006,475.04659 312.97183,697.11332 265.40126,582.20824 z"
         style="fill:none;stroke:#000000;stroke-width:0.70829445;stroke-opacity:1"
         id="path5335" />
      <path
         d="M 211.49887,102.45599 88.184197,225.77066 265.40126,582.20824 303.6394,543.97011 z"
         style="fill:none;stroke:#000000;stroke-width:0.70829445;stroke-opacity:1"
         id="path5337" />
      <path
         d="m 303.6394,543.97011 55.36671,107.10893 -46.03428,46.03428 -47.57057,-114.90508 z"
         style="fill:none;stroke:#000000;stroke-width:0.70829445;stroke-opacity:1"
         id="path5339" />
      <path
         d="M 211.49887,102.45599 427.41198,203.33521 359.00611,651.07904 303.6394,543.97011 z"
         style="fill:none;stroke:#000000;stroke-width:0.70829445;stroke-opacity:1"
         id="path5341" />
      <path
         d="M 427.41198,203.33521 155.7006,475.04659 312.97183,697.11332 359.00611,651.07904 z"
         style="fill:none;stroke:#000000;stroke-width:0.70829445;stroke-opacity:1"
         id="path5343" />
      <path
         d="M 211.49887,102.45599 427.41198,203.33521 155.7006,475.04659 88.184197,225.77066 z"
         style="fill:none;stroke:#000000;stroke-width:0.70829445;stroke-opacity:1"
         id="path5345" />
    </g>
    <g
       style="fill:none;stroke:#000000;stroke-opacity:1"
       id="g5347">
      <path
         id="path5349"
         style="fill:none;stroke:#000000;stroke-width:0.70829445;stroke-opacity:1"
         d="M 88.184197,225.77066 155.7006,475.04659 312.97183,697.11332 265.40126,582.20824 z" />
      <path
         id="path5351"
         style="fill:none;stroke:#000000;stroke-width:0.70829445;stroke-opacity:1"
         d="M 211.49887,102.45599 88.184197,225.77066 265.40126,582.20824 303.6394,543.97011 z" />
      <path
         id="path5353"
         style="fill:none;stroke:#000000;stroke-width:0.70829445;stroke-opacity:1"
         d="m 303.6394,543.97011 55.36671,107.10893 -46.03428,46.03428 -47.57057,-114.90508 z" />
      <path
         id="path5355"
         style="fill:none;stroke:#000000;stroke-width:0.70829445;stroke-opacity:1"
         d="M 211.49887,102.45599 427.41198,203.33521 359.00611,651.07904 303.6394,543.97011 z" />
      <path
         id="path5357"
         style="fill:none;stroke:#000000;stroke-width:0.70829445;stroke-opacity:1"
         d="M 427.41198,203.33521 155.7006,475.04659 312.97183,697.11332 359.00611,651.07904 z" />
      <path
         id="path5359"
         style="fill:none;stroke:#000000;stroke-width:0.70829445;stroke-opacity:1"
         d="M 211.49887,102.45599 427.41198,203.33521 155.7006,475.04659 88.184197,225.77066 z" />
      <path
         style="fill:none;stroke:#000000;stroke-width:0.70829445;stroke-opacity:1"
         d="M 194.625,65.03125 C 145.63383,115.28776 95.677612,164.7569 46.03125,214.5 c 29.494428,111.32725 59.78165,222.44553 90.0625,333.5625 118.86876,-118.67288 237.34686,-237.73771 356.625,-356 C 396.08552,146.83054 299.57291,101.33706 202.625,56.78125 c -2.66667,2.75 -5.33333,5.5 -8,8.25 z"
         id="path5361"
         inkscape:connector-curvature="0" />
      <path
         style="fill:none;stroke:#000000;stroke-width:0.70829445;stroke-opacity:1"
         d="M 90.4375,226.34375 C 112.53125,307.95833 134.625,389.57292 156.71875,471.1875 245.8125,382.10417 334.90625,293.02083 424,203.9375 353.30208,170.91667 282.60417,137.89583 211.90625,104.875 171.41667,145.36458 130.92708,185.85417 90.4375,226.34375 z"
         id="path5573"
         inkscape:connector-curvature="0" />
      <path
         style="fill:none;stroke:#000000;stroke-width:0.70829445;stroke-opacity:1"
         d="m 92.6875,226.90625 c 21.6875,80.14583 43.375,160.29167 65.0625,240.4375 87.61458,-87.60417 175.22917,-175.20833 262.84375,-262.8125 -69.42708,-32.41667 -138.85417,-64.83333 -208.28125,-97.25 -39.875,39.875 -79.75,79.75 -119.625,119.625 z"
         id="path5577"
         inkscape:connector-curvature="0" />
      <path
         style="fill:none;stroke:#000000;stroke-width:0.70829445;stroke-opacity:1"
         d="M 94.9375,227.46875 C 116.21875,306.14583 137.5,384.82292 158.78125,463.5 244.91667,377.375 331.05208,291.25 417.1875,205.125 349.03125,173.3125 280.875,141.5 212.71875,109.6875 173.45833,148.94792 134.19792,188.20833 94.9375,227.46875 z"
         id="path5581"
         inkscape:connector-curvature="0" />
      <path
         style="fill:none;stroke:#000000;stroke-width:0.70829445;stroke-opacity:1"
         d="m 97.1875,228.03125 c 20.875,77.20833 41.75,154.41667 62.625,231.625 C 244.45833,375.01042 329.10417,290.36458 413.75,205.71875 346.875,174.51042 280,143.30208 213.125,112.09375 174.47917,150.73958 135.83333,189.38542 97.1875,228.03125 z"
         id="path5585"
         inkscape:connector-curvature="0" />
      <path
         style="fill:none;stroke:#000000;stroke-width:0.70829445;stroke-opacity:1"
         d="M 99.4375,228.59375 C 119.90625,304.33333 140.375,380.07292 160.84375,455.8125 244,372.64583 327.15625,289.47917 410.3125,206.3125 344.71875,175.70833 279.125,145.10417 213.53125,114.5 175.5,152.53125 137.46875,190.5625 99.4375,228.59375 z"
         id="path5589"
         inkscape:connector-curvature="0" />
      <path
         style="fill:none;stroke:#000000;stroke-width:0.70829445;stroke-opacity:1"
         d="m 101.6875,229.15625 c 20.0625,74.27083 40.125,148.54167 60.1875,222.8125 C 243.55208,370.29167 325.22917,288.61458 406.90625,206.9375 342.58333,176.92708 278.26042,146.91667 213.9375,116.90625 c -37.41667,37.41667 -74.83333,74.83333 -112.25,112.25 z"
         id="path5593"
         inkscape:connector-curvature="0" />
      <path
         style="fill:none;stroke:#000000;stroke-width:0.70829445;stroke-opacity:1"
         d="m 103.9375,229.71875 c 19.65625,72.80208 39.3125,145.60417 58.96875,218.40625 80.1875,-80.1875 160.375,-160.375 240.5625,-240.5625 -63.04167,-29.41667 -126.08333,-58.83333 -189.125,-88.25 -36.80208,36.80208 -73.60417,73.60417 -110.40625,110.40625 z"
         id="path5597"
         inkscape:connector-curvature="0" />
      <path
         style="fill:none;stroke:#000000;stroke-width:0.70829445;stroke-opacity:1"
         d="M 108.4375,230.84375 C 127.28125,300.70833 146.125,370.57292 164.96875,440.4375 242.1875,363.21875 319.40625,286 396.625,208.78125 336.13542,180.5625 275.64583,152.34375 215.15625,124.125 179.58333,159.69792 144.01042,195.27083 108.4375,230.84375 z"
         id="path5605"
         inkscape:connector-curvature="0" />
      <path
         style="fill:none;stroke:#000000;stroke-width:0.70829445;stroke-opacity:1"
         d="m 110.6875,231.40625 c 18.4375,68.39583 36.875,136.79167 55.3125,205.1875 75.72917,-75.72917 151.45833,-151.45833 227.1875,-227.1875 -59.20833,-27.625 -118.41667,-55.25 -177.625,-82.875 -34.95833,34.95833 -69.91667,69.91667 -104.875,104.875 z"
         id="path5609"
         inkscape:connector-curvature="0" />
      <path
         style="fill:none;stroke:#000000;stroke-width:0.70829445;stroke-opacity:1"
         d="M 112.9375,231.96875 C 130.96875,298.89583 149,365.82292 167.03125,432.75 241.27083,358.51042 315.51042,284.27083 389.75,210.03125 331.82292,183 273.89583,155.96875 215.96875,128.9375 181.625,163.28125 147.28125,197.625 112.9375,231.96875 z"
         id="path5613"
         inkscape:connector-curvature="0" />
      <path
         style="fill:none;stroke:#000000;stroke-width:0.70829445;stroke-opacity:1"
         d="m 115.1875,232.53125 c 17.625,65.45833 35.25,130.91667 52.875,196.375 72.75,-72.75 145.5,-145.5 218.25,-218.25 -56.64583,-26.4375 -113.29167,-52.875 -169.9375,-79.3125 -33.72917,33.72917 -67.45833,67.45833 -101.1875,101.1875 z"
         id="path5617"
         inkscape:connector-curvature="0" />
      <path
         style="fill:none;stroke:#000000;stroke-width:0.70829445;stroke-opacity:1"
         d="m 117.4375,233.09375 c 17.21875,63.98958 34.4375,127.97917 51.65625,191.96875 71.27083,-71.27083 142.54167,-142.54167 213.8125,-213.8125 -55.375,-25.83333 -110.75,-51.66667 -166.125,-77.5 -33.11458,33.11458 -66.22917,66.22917 -99.34375,99.34375 z"
         id="path5621"
         inkscape:connector-curvature="0" />
      <path
         style="fill:none;stroke:#000000;stroke-width:0.70829445;stroke-opacity:1"
         d="M 119.6875,233.65625 C 136.5,296.17708 153.3125,358.69792 170.125,421.21875 239.90625,351.4375 309.6875,281.65625 379.46875,211.875 325.375,186.63542 271.28125,161.39583 217.1875,136.15625 c -32.5,32.5 -65,65 -97.5,97.5 z"
         id="path5625"
         inkscape:connector-curvature="0" />
      <path
         style="fill:none;stroke:#000000;stroke-width:0.70829445;stroke-opacity:1"
         d="m 121.9375,234.21875 c 16.40625,61.05208 32.8125,122.10417 49.21875,183.15625 68.29167,-68.29167 136.58333,-136.58333 204.875,-204.875 -52.8125,-24.64583 -105.625,-49.29167 -158.4375,-73.9375 -31.88542,31.88542 -63.77083,63.77083 -95.65625,95.65625 z"
         id="path5629"
         inkscape:connector-curvature="0" />
      <path
         style="fill:none;stroke:#000000;stroke-width:0.70829445;stroke-opacity:1"
         d="m 124.1875,234.78125 c 16,59.58333 32,119.16667 48,178.75 C 239,346.72917 305.8125,279.92708 372.625,213.125 321.08333,189.07292 269.54167,165.02083 218,140.96875 c -31.27083,31.27083 -62.54167,62.54167 -93.8125,93.8125 z"
         id="path5633"
         inkscape:connector-curvature="0" />
      <path
         style="fill:none;stroke:#000000;stroke-width:0.70829445;stroke-opacity:1"
         d="M 126.4375,235.34375 C 142.03125,293.45833 157.625,351.57292 173.21875,409.6875 238.54167,344.36458 303.86458,279.04167 369.1875,213.71875 318.92708,190.27083 268.66667,166.82292 218.40625,143.375 187.75,174.03125 157.09375,204.6875 126.4375,235.34375 z"
         id="path5637"
         inkscape:connector-curvature="0" />
      <path
         style="fill:none;stroke:#000000;stroke-width:0.70829445;stroke-opacity:1"
         d="m 128.6875,235.90625 c 15.1875,56.64583 30.375,113.29167 45.5625,169.9375 63.83333,-63.83333 127.66667,-127.66667 191.5,-191.5 -48.97917,-22.85417 -97.95833,-45.70833 -146.9375,-68.5625 -30.04167,30.04167 -60.08333,60.08333 -90.125,90.125 z"
         id="path5641"
         inkscape:connector-curvature="0" />
      <path
         style="fill:none;stroke:#000000;stroke-width:0.70829445;stroke-opacity:1"
         d="M 130.9375,236.46875 C 145.71875,291.64583 160.5,346.82292 175.28125,402 237.625,339.65625 299.96875,277.3125 362.3125,214.96875 314.61458,192.70833 266.91667,170.44792 219.21875,148.1875 c -29.42708,29.42708 -58.85417,58.85417 -88.28125,88.28125 z"
         id="path5645"
         inkscape:connector-curvature="0" />
      <path
         style="fill:none;stroke:#000000;stroke-width:0.70829445;stroke-opacity:1"
         d="m 133.1875,237.03125 c 14.375,53.70833 28.75,107.41667 43.125,161.125 C 237.17708,337.29167 298.04167,276.42708 358.90625,215.5625 312.47917,193.90625 266.05208,172.25 219.625,150.59375 c -28.8125,28.8125 -57.625,57.625 -86.4375,86.4375 z"
         id="path5649"
         inkscape:connector-curvature="0" />
      <path
         style="fill:none;stroke:#000000;stroke-width:0.70829445;stroke-opacity:1"
         d="m 135.4375,237.59375 c 13.96875,52.23958 27.9375,104.47917 41.90625,156.71875 59.375,-59.375 118.75,-118.75 178.125,-178.125 C 310.32292,195.125 265.17708,174.0625 220.03125,153 c -28.19792,28.19792 -56.39583,56.39583 -84.59375,84.59375 z"
         id="path5653"
         inkscape:connector-curvature="0" />
      <path
         style="fill:none;stroke:#000000;stroke-width:0.70829445;stroke-opacity:1"
         d="m 137.65625,238.1875 c 13.58333,50.75 27.16667,101.5 40.75,152.25 57.875,-57.875 115.75,-115.75 173.625,-173.625 C 308.16667,196.34375 264.30208,175.875 220.4375,155.40625 192.84375,183 165.25,210.59375 137.65625,238.1875 z"
         id="path5657"
         inkscape:connector-curvature="0" />
      <path
         style="fill:none;stroke:#000000;stroke-width:0.70829445;stroke-opacity:1"
         d="m 139.90625,238.75 c 13.17708,49.28125 26.35417,98.5625 39.53125,147.84375 56.38542,-56.38542 112.77083,-112.77083 169.15625,-169.15625 -42.58333,-19.875 -85.16667,-39.75 -127.75,-59.625 -26.97917,26.97917 -53.95833,53.95833 -80.9375,80.9375 z"
         id="path5661"
         inkscape:connector-curvature="0" />
      <path
         style="fill:none;stroke:#000000;stroke-width:0.70829445;stroke-opacity:1"
         d="m 142.125,239.34375 c 12.79167,47.79167 25.58333,95.58333 38.375,143.375 54.89583,-54.89583 109.79167,-109.79167 164.6875,-164.6875 -41.3125,-19.27083 -82.625,-38.54167 -123.9375,-57.8125 -26.375,26.375 -52.75,52.75 -79.125,79.125 z"
         id="path5665"
         inkscape:connector-curvature="0" />
      <path
         style="fill:none;stroke:#000000;stroke-width:0.70829445;stroke-opacity:1"
         d="m 144.375,239.90625 c 12.38542,46.32292 24.77083,92.64583 37.15625,138.96875 C 234.9375,325.46875 288.34375,272.0625 341.75,218.65625 301.71875,199.97917 261.6875,181.30208 221.65625,162.625 195.89583,188.38542 170.13542,214.14583 144.375,239.90625 z"
         id="path5669"
         inkscape:connector-curvature="0" />
      <path
         style="fill:none;stroke:#000000;stroke-width:0.70829445;stroke-opacity:1"
         d="m 146.59375,240.5 c 12,44.83333 24,89.66667 36,134.5 C 234.5,323.09375 286.40625,271.1875 338.3125,219.28125 c -38.75,-18.08333 -77.5,-36.16667 -116.25,-54.25 C 196.90625,190.1875 171.75,215.34375 146.59375,240.5 z"
         id="path5673"
         inkscape:connector-curvature="0" />
      <path
         style="fill:none;stroke:#000000;stroke-width:0.70829445;stroke-opacity:1"
         d="m 148.84375,241.0625 c 11.59375,43.36458 23.1875,86.72917 34.78125,130.09375 50.41667,-50.42708 100.83333,-100.85417 151.25,-151.28125 -37.46875,-17.47917 -74.9375,-34.95833 -112.40625,-52.4375 -24.54167,24.54167 -49.08333,49.08333 -73.625,73.625 z"
         id="path5677"
         inkscape:connector-curvature="0" />
      <path
         style="fill:none;stroke:#000000;stroke-width:0.70829445;stroke-opacity:1"
         d="m 151.0625,241.65625 c 11.20833,41.875 22.41667,83.75 33.625,125.625 48.91667,-48.92708 97.83333,-97.85417 146.75,-146.78125 -36.1875,-16.88542 -72.375,-33.77083 -108.5625,-50.65625 -23.9375,23.9375 -47.875,47.875 -71.8125,71.8125 z"
         id="path5681"
         inkscape:connector-curvature="0" />
      <path
         style="fill:none;stroke:#000000;stroke-width:0.70829445;stroke-opacity:1"
         d="m 153.3125,242.21875 c 10.80208,40.39583 21.60417,80.79167 32.40625,121.1875 47.4375,-47.42708 94.875,-94.85417 142.3125,-142.28125 -34.91667,-16.29167 -69.83333,-32.58333 -104.75,-48.875 -23.32292,23.32292 -46.64583,46.64583 -69.96875,69.96875 z"
         id="path5685"
         inkscape:connector-curvature="0" />
      <path
         style="fill:none;stroke:#000000;stroke-width:0.70829445;stroke-opacity:1"
         d="m 155.53125,242.8125 c 10.41667,38.90625 20.83333,77.8125 31.25,116.71875 45.9375,-45.9375 91.875,-91.875 137.8125,-137.8125 -33.63542,-15.6875 -67.27083,-31.375 -100.90625,-47.0625 -22.71875,22.71875 -45.4375,45.4375 -68.15625,68.15625 z"
         id="path5689"
         inkscape:connector-curvature="0" />
      <path
         style="fill:none;stroke:#000000;stroke-width:0.70829445;stroke-opacity:1"
         d="m 157.78125,243.375 c 10.01042,37.4375 20.02083,74.875 30.03125,112.3125 44.44792,-44.44792 88.89583,-88.89583 133.34375,-133.34375 -32.35417,-15.09375 -64.70833,-30.1875 -97.0625,-45.28125 -22.10417,22.10417 -44.20833,44.20833 -66.3125,66.3125 z"
         id="path5693"
         inkscape:connector-curvature="0" />
      <path
         style="fill:none;stroke:#000000;stroke-width:0.70829445;stroke-opacity:1"
         d="m 160,243.96875 c 9.625,35.94792 19.25,71.89583 28.875,107.84375 42.94792,-42.94792 85.89583,-85.89583 128.84375,-128.84375 -31.07292,-14.5 -62.14583,-29 -93.21875,-43.5 -21.5,21.5 -43,43 -64.5,64.5 z"
         id="path5697"
         inkscape:connector-curvature="0" />
      <path
         style="fill:none;stroke:#000000;stroke-width:0.70829445;stroke-opacity:1"
         d="m 162.25,244.53125 c 9.21875,34.47917 18.4375,68.95833 27.65625,103.4375 41.45833,-41.45833 82.91667,-82.91667 124.375,-124.375 -29.79167,-13.90625 -59.58333,-27.8125 -89.375,-41.71875 -20.88542,20.88542 -41.77083,41.77083 -62.65625,62.65625 z"
         id="path5701"
         inkscape:connector-curvature="0" />
      <path
         style="fill:none;stroke:#000000;stroke-width:0.70829445;stroke-opacity:1"
         d="m 164.46875,245.125 c 8.83333,32.98958 17.66667,65.97917 26.5,98.96875 C 230.9375,304.125 270.90625,264.15625 310.875,224.1875 282.35417,210.88542 253.83333,197.58333 225.3125,184.28125 205.03125,204.5625 184.75,224.84375 164.46875,245.125 z"
         id="path5705"
         inkscape:connector-curvature="0" />
      <path
         style="fill:none;stroke:#000000;stroke-width:0.70829445;stroke-opacity:1"
         d="m 166.71875,245.6875 c 8.42708,31.52083 16.85417,63.04167 25.28125,94.5625 38.47917,-38.47917 76.95833,-76.95833 115.4375,-115.4375 -27.23958,-12.70833 -54.47917,-25.41667 -81.71875,-38.125 -19.66667,19.66667 -39.33333,39.33333 -59,59 z"
         id="path5709"
         inkscape:connector-curvature="0" />
      <path
         style="fill:none;stroke:#000000;stroke-width:0.70829445;stroke-opacity:1"
         d="m 168.9375,246.28125 c 8.04167,30.03125 16.08333,60.0625 24.125,90.09375 36.97917,-36.97917 73.95833,-73.95833 110.9375,-110.9375 -25.95833,-12.11458 -51.91667,-24.22917 -77.875,-36.34375 -19.0625,19.0625 -38.125,38.125 -57.1875,57.1875 z"
         id="path5713"
         inkscape:connector-curvature="0" />
      <path
         style="fill:none;stroke:#000000;stroke-width:0.70829445;stroke-opacity:1"
         d="m 171.1875,246.84375 c 7.63542,28.5625 15.27083,57.125 22.90625,85.6875 35.5,-35.5 71,-71 106.5,-106.5 -24.6875,-11.51042 -49.375,-23.02083 -74.0625,-34.53125 -18.44792,18.44792 -36.89583,36.89583 -55.34375,55.34375 z"
         id="path5717"
         inkscape:connector-curvature="0" />
      <path
         style="fill:none;stroke:#000000;stroke-width:0.70829445;stroke-opacity:1"
         d="m 173.40625,247.4375 c 7.25,27.07292 14.5,54.14583 21.75,81.21875 34,-34 68,-68 102,-102 -23.40625,-10.91667 -46.8125,-21.83333 -70.21875,-32.75 -17.84375,17.84375 -35.6875,35.6875 -53.53125,53.53125 z"
         id="path5721"
         inkscape:connector-curvature="0" />
      <path
         style="fill:none;stroke:#000000;stroke-width:0.70829445;stroke-opacity:1"
         d="m 175.65625,248 c 6.84375,25.60417 13.6875,51.20833 20.53125,76.8125 32.51042,-32.51042 65.02083,-65.02083 97.53125,-97.53125 -22.125,-10.32292 -44.25,-20.64583 -66.375,-30.96875 -17.22917,17.22917 -34.45833,34.45833 -51.6875,51.6875 z"
         id="path5725"
         inkscape:connector-curvature="0" />
      <path
         style="fill:none;stroke:#000000;stroke-width:0.70829445;stroke-opacity:1"
         d="m 177.875,248.59375 c 6.45833,24.11458 12.91667,48.22917 19.375,72.34375 31.01042,-31.01042 62.02083,-62.02083 93.03125,-93.03125 -20.84375,-9.72917 -41.6875,-19.45833 -62.53125,-29.1875 -16.625,16.625 -33.25,33.25 -49.875,49.875 z"
         id="path5729"
         inkscape:connector-curvature="0" />
      <path
         style="fill:none;stroke:#000000;stroke-width:0.70829445;stroke-opacity:1"
         d="m 180.125,249.15625 c 6.05208,22.64583 12.10417,45.29167 18.15625,67.9375 29.53125,-29.53125 59.0625,-59.0625 88.59375,-88.59375 -19.57292,-9.125 -39.14583,-18.25 -58.71875,-27.375 -16.01042,16.01042 -32.02083,32.02083 -48.03125,48.03125 z"
         id="path5733"
         inkscape:connector-curvature="0" />
      <path
         style="fill:none;stroke:#000000;stroke-width:0.70829445;stroke-opacity:1"
         d="m 182.34375,249.75 c 5.66667,21.15625 11.33333,42.3125 17,63.46875 28.03125,-28.03125 56.0625,-56.0625 84.09375,-84.09375 -18.29167,-8.53125 -36.58333,-17.0625 -54.875,-25.59375 -15.40625,15.40625 -30.8125,30.8125 -46.21875,46.21875 z"
         id="path5737"
         inkscape:connector-curvature="0" />
      <path
         style="fill:none;stroke:#000000;stroke-width:0.70829445;stroke-opacity:1"
         d="m 184.59375,250.3125 c 5.26042,19.6875 10.52083,39.375 15.78125,59.0625 26.54167,-26.54167 53.08333,-53.08333 79.625,-79.625 -17.01042,-7.9375 -34.02083,-15.875 -51.03125,-23.8125 -14.79167,14.79167 -29.58333,29.58333 -44.375,44.375 z"
         id="path5741"
         inkscape:connector-curvature="0" />
      <path
         style="fill:none;stroke:#000000;stroke-width:0.70829445;stroke-opacity:1"
         d="m 186.8125,250.90625 c 4.875,18.19792 9.75,36.39583 14.625,54.59375 25.04167,-25.04167 50.08333,-50.08333 75.125,-75.125 -15.72917,-7.34375 -31.45833,-14.6875 -47.1875,-22.03125 -14.1875,14.1875 -28.375,28.375 -42.5625,42.5625 z"
         id="path5745"
         inkscape:connector-curvature="0" />
      <path
         style="fill:none;stroke:#000000;stroke-width:0.70829445;stroke-opacity:1"
         d="m 189.0625,251.46875 c 4.46875,16.72917 8.9375,33.45833 13.40625,50.1875 23.5625,-23.5625 47.125,-47.125 70.6875,-70.6875 -14.45833,-6.73958 -28.91667,-13.47917 -43.375,-20.21875 -13.57292,13.57292 -27.14583,27.14583 -40.71875,40.71875 z"
         id="path5749"
         inkscape:connector-curvature="0" />
      <path
         style="fill:none;stroke:#000000;stroke-width:0.70829445;stroke-opacity:1"
         d="m 191.28125,252.0625 c 4.08333,15.23958 8.16667,30.47917 12.25,45.71875 22.0625,-22.0625 44.125,-44.125 66.1875,-66.1875 -13.17708,-6.14583 -26.35417,-12.29167 -39.53125,-18.4375 -12.96875,12.96875 -25.9375,25.9375 -38.90625,38.90625 z"
         id="path5753"
         inkscape:connector-curvature="0" />
      <path
         style="fill:none;stroke:#000000;stroke-width:0.70829445;stroke-opacity:1"
         d="m 193.53125,252.625 c 3.67708,13.77083 7.35417,27.54167 11.03125,41.3125 20.57292,-20.57292 41.14583,-41.14583 61.71875,-61.71875 -11.89583,-5.55208 -23.79167,-11.10417 -35.6875,-16.65625 -12.35417,12.35417 -24.70833,24.70833 -37.0625,37.0625 z"
         id="path5757"
         inkscape:connector-curvature="0" />
      <path
         style="fill:none;stroke:#000000;stroke-width:0.70829445;stroke-opacity:1"
         d="m 195.75,253.21875 c 3.29167,12.28125 6.58333,24.5625 9.875,36.84375 19.08333,-19.08333 38.16667,-38.16667 57.25,-57.25 -10.625,-4.94792 -21.25,-9.89583 -31.875,-14.84375 -11.75,11.75 -23.5,23.5 -35.25,35.25 z"
         id="path5761"
         inkscape:connector-curvature="0" />
      <path
         style="fill:none;stroke:#000000;stroke-width:0.70829445;stroke-opacity:1"
         d="m 198,253.78125 c 2.88542,10.8125 5.77083,21.625 8.65625,32.4375 C 224.25,268.625 241.84375,251.03125 259.4375,233.4375 250.09375,229.08333 240.75,224.72917 231.40625,220.375 220.27083,231.51042 209.13542,242.64583 198,253.78125 z"
         id="path5765"
         inkscape:connector-curvature="0" />
      <path
         style="fill:none;stroke:#000000;stroke-width:0.70829445;stroke-opacity:1"
         d="m 200.21875,254.375 c 2.5,9.32292 5,18.64583 7.5,27.96875 C 223.8125,266.25 239.90625,250.15625 256,234.0625 c -8.0625,-3.76042 -16.125,-7.52083 -24.1875,-11.28125 -10.53125,10.53125 -21.0625,21.0625 -31.59375,31.59375 z"
         id="path5769"
         inkscape:connector-curvature="0" />
      <path
         style="fill:none;stroke:#000000;stroke-width:0.70829445;stroke-opacity:1"
         d="m 202.46875,254.9375 c 2.09375,7.85417 4.1875,15.70833 6.28125,23.5625 14.60417,-14.60417 29.20833,-29.20833 43.8125,-43.8125 -6.78125,-3.16667 -13.5625,-6.33333 -20.34375,-9.5 -9.91667,9.91667 -19.83333,19.83333 -29.75,29.75 z"
         id="path5773"
         inkscape:connector-curvature="0" />
      <path
         style="fill:none;stroke:#000000;stroke-width:0.70829445;stroke-opacity:1"
         d="m 204.6875,255.53125 c 1.69792,6.375 3.39583,12.75 5.09375,19.125 13.125,-13.125 26.25,-26.25 39.375,-39.375 -5.51042,-2.5625 -11.02083,-5.125 -16.53125,-7.6875 -9.3125,9.3125 -18.625,18.625 -27.9375,27.9375 z"
         id="path5777"
         inkscape:connector-curvature="0" />
      <path
         style="fill:none;stroke:#000000;stroke-width:0.70829445;stroke-opacity:1"
         d="m 206.90625,256.125 c 2.2607,3.25355 1.58757,17.41576 6.02757,12.56618 10.92831,-10.92831 21.85662,-21.85662 32.78493,-32.78493 -5.49251,-1.27043 -12.19628,-9.39725 -16.22303,-2.37072 -7.52983,7.52983 -15.05965,15.05965 -22.58947,22.58947 z"
         id="path5781"
         inkscape:connector-curvature="0" />
      <path
         style="fill:none;stroke:#000000;stroke-width:0.70829445;stroke-opacity:1"
         d="m 233.25,232.75 c -4.86931,3.59154 -8.82792,9.43421 -13.65746,13.50121 -2.97,3.76209 -8.39504,6.91535 -10.06129,10.99879 1.00806,3.23553 1.02499,6.72381 2.09375,9.9375 10.16667,-10.16667 20.33333,-20.33333 30.5,-30.5 -2.88602,-1.27493 -5.56652,-3.97561 -8.875,-3.9375 z"
         id="path5785"
         inkscape:connector-curvature="0" />
      <path
         style="fill:none;stroke:#000000;stroke-width:0.70829445;stroke-opacity:1"
         d="m 233.65625,234.96875 c -7.19351,7.13985 -14.30122,14.51738 -21.4375,21.5625 -1.16222,1.9122 0.60365,4.54753 0.53125,6.71875 8.69792,-8.69792 17.39583,-17.39583 26.09375,-26.09375 -1.62526,-0.72997 -3.35152,-2.55329 -5.1875,-2.1875 z"
         id="path5789"
         inkscape:connector-curvature="0" />
      <path
         style="fill:none;stroke:#000000;stroke-width:0.70829445;stroke-opacity:1"
         d="m 232.375,239.0625 c -5.96998,6.51089 -13.25986,12.54471 -18.53125,19.28125 2.62977,-0.19708 7.36556,-7.10508 10.76285,-9.76285 3.08769,-3.72444 9.04303,-7.81664 10.48715,-11.3309 -1.15475,-0.95127 -1.79356,1.47424 -2.71875,1.8125 z"
         id="path5793"
         inkscape:connector-curvature="0" />
      <path
         style="fill:none;stroke:#000000;stroke-width:0.70829445;stroke-opacity:1"
         d="m 158.28125,475.25 c 51.64583,72.9375 103.29167,145.875 154.9375,218.8125 14.63542,-14.63542 29.27083,-29.27083 43.90625,-43.90625 22.46875,-147.04167 44.9375,-294.08333 67.40625,-441.125 -88.75,88.73958 -177.5,177.47917 -266.25,266.21875 z"
         id="path5799"
         inkscape:connector-curvature="0" />
      <path
         style="fill:none;stroke:#000000;stroke-width:0.70829445;stroke-opacity:1"
         d="M 160.875,475.46875 C 211.73958,547.3125 262.60417,619.15625 313.46875,691 c 13.92708,-13.92708 27.85417,-27.85417 41.78125,-41.78125 22.13542,-144.83333 44.27083,-289.66667 66.40625,-434.5 -86.92708,86.91667 -173.85417,173.83333 -260.78125,260.75 z"
         id="path5803"
         inkscape:connector-curvature="0" />
      <path
         style="fill:none;stroke:#000000;stroke-width:0.70829445;stroke-opacity:1"
         d="m 163.46875,475.6875 c 50.08333,70.75 100.16667,141.5 150.25,212.25 13.21875,-13.21875 26.4375,-26.4375 39.65625,-39.65625 21.80208,-142.625 43.60417,-285.25 65.40625,-427.875 C 333.67708,305.5 248.57292,390.59375 163.46875,475.6875 z"
         id="path5807"
         inkscape:connector-curvature="0" />
      <path
         style="fill:none;stroke:#000000;stroke-width:0.70829445;stroke-opacity:1"
         d="m 166.0625,475.90625 c 49.30208,69.65625 98.60417,139.3125 147.90625,208.96875 12.51042,-12.51042 25.02083,-25.02083 37.53125,-37.53125 21.46875,-140.41667 42.9375,-280.83333 64.40625,-421.25 -83.28125,83.27083 -166.5625,166.54167 -249.84375,249.8125 z"
         id="path5811"
         inkscape:connector-curvature="0" />
      <path
         style="fill:none;stroke:#000000;stroke-width:0.70829445;stroke-opacity:1"
         d="m 171.25,476.34375 c 47.73958,67.46875 95.47917,134.9375 143.21875,202.40625 11.09375,-11.09375 22.1875,-22.1875 33.28125,-33.28125 20.80208,-136 41.60417,-272 62.40625,-408 -79.63542,79.625 -159.27083,159.25 -238.90625,238.875 z"
         id="path5819"
         inkscape:connector-curvature="0" />
      <path
         style="fill:none;stroke:#000000;stroke-width:0.70829445;stroke-opacity:1"
         d="m 173.84375,476.5625 c 46.95833,66.375 93.91667,132.75 140.875,199.125 10.38542,-10.38542 20.77083,-20.77083 31.15625,-31.15625 20.46875,-133.79167 40.9375,-267.58333 61.40625,-401.375 -77.8125,77.80208 -155.625,155.60417 -233.4375,233.40625 z"
         id="path5823"
         inkscape:connector-curvature="0" />
      <path
         style="fill:none;stroke:#000000;stroke-width:0.70829445;stroke-opacity:1"
         d="m 176.4375,476.78125 c 46.17708,65.28125 92.35417,130.5625 138.53125,195.84375 9.67708,-9.67708 19.35417,-19.35417 29.03125,-29.03125 20.13542,-131.58333 40.27083,-263.16667 60.40625,-394.75 -75.98958,75.97917 -151.97917,151.95833 -227.96875,227.9375 z"
         id="path5827"
         inkscape:connector-curvature="0" />
      <path
         style="fill:none;stroke:#000000;stroke-width:0.70829445;stroke-opacity:1"
         d="m 179.03125,477 c 45.39583,64.1875 90.79167,128.375 136.1875,192.5625 8.96875,-8.96875 17.9375,-17.9375 26.90625,-26.90625 19.80208,-129.375 39.60417,-258.75 59.40625,-388.125 C 327.36458,328.6875 253.19792,402.84375 179.03125,477 z"
         id="path5831"
         inkscape:connector-curvature="0" />
      <path
         style="fill:none;stroke:#000000;stroke-width:0.70829445;stroke-opacity:1"
         d="m 181.625,477.21875 c 44.625,63.08333 89.25,126.16667 133.875,189.25 8.25,-8.25 16.5,-16.5 24.75,-24.75 19.46875,-127.16667 38.9375,-254.33333 58.40625,-381.5 -72.34375,72.33333 -144.6875,144.66667 -217.03125,217 z"
         id="path5835"
         inkscape:connector-curvature="0" />
      <path
         style="fill:none;stroke:#000000;stroke-width:0.70829445;stroke-opacity:1"
         d="m 184.21875,477.4375 c 43.84375,61.98958 87.6875,123.97917 131.53125,185.96875 7.40932,-7.96371 16.29246,-15.18123 22.77637,-23.61348 19.08496,-124.62884 38.16992,-249.25768 57.25488,-373.88652 -70.52083,70.51042 -141.04167,141.02083 -211.5625,211.53125 z"
         id="path5839"
         inkscape:connector-curvature="0" />
      <path
         style="fill:none;stroke:#000000;stroke-width:0.70829445;stroke-opacity:1"
         d="m 186.8125,477.65625 c 43.05208,60.86458 86.10417,121.72917 129.15625,182.59375 6.81964,-7.45961 15.63924,-13.68657 20.80767,-22.23847 18.70994,-122.13926 37.41989,-244.27852 56.12983,-366.41778 -68.69792,68.6875 -137.39583,137.375 -206.09375,206.0625 z"
         id="path5843"
         inkscape:connector-curvature="0" />
      <path
         style="fill:none;stroke:#000000;stroke-width:0.70829445;stroke-opacity:1"
         d="m 189.40625,477.875 c 42.26042,59.75 84.52083,119.5 126.78125,179.25 6.19128,-6.93851 15.05072,-12.29079 18.83897,-20.89471 18.33493,-119.64968 36.66985,-239.29936 55.00478,-358.94904 -66.875,66.86458 -133.75,133.72917 -200.625,200.59375 z"
         id="path5847"
         inkscape:connector-curvature="0" />
      <path
         style="fill:none;stroke:#000000;stroke-width:0.70829445;stroke-opacity:1"
         d="M 192,478.09375 C 233.46875,536.72917 274.9375,595.36458 316.40625,654 c 7.40859,-7.59109 18.52723,-14.16235 17.89974,-26.28262 C 351.92275,512.80117 369.5395,397.88496 387.15625,282.96875 322.10417,348.01042 257.05208,413.05208 192,478.09375 z"
         id="path5851"
         inkscape:connector-curvature="0" />
      <path
         style="fill:none;stroke:#000000;stroke-width:0.70829445;stroke-opacity:1"
         d="m 194.59375,478.3125 c 40.69792,57.54167 81.39583,115.08333 122.09375,172.625 6.70049,-6.36292 16.35093,-13.00238 15.65625,-23.53125 C 349.64583,514.48958 366.94792,401.57292 384.25,288.65625 321.03125,351.875 257.8125,415.09375 194.59375,478.3125 z"
         id="path5855"
         inkscape:connector-curvature="0" />
      <path
         style="fill:none;stroke:#000000;stroke-width:0.70829445;stroke-opacity:1"
         d="M 197.1875,478.53125 C 237.125,535 277.0625,591.46875 317,647.9375 c 6.51494,-5.61694 14.34424,-12.37685 13.5265,-21.83221 16.9495,-110.58718 33.899,-221.17436 50.8485,-331.76154 -61.39583,61.39583 -122.79167,122.79167 -184.1875,184.1875 z"
         id="path5859"
         inkscape:connector-curvature="0" />
      <path
         style="fill:none;stroke:#000000;stroke-width:0.70829445;stroke-opacity:1"
         d="m 199.78125,478.75 c 39.19792,55.41667 78.39583,110.83333 117.59375,166.25 6.00777,-4.95416 12.1599,-11.75216 11.33895,-20.20721 16.58493,-108.24343 33.16987,-216.48686 49.7548,-324.73029 -59.5625,59.5625 -119.125,119.125 -178.6875,178.6875 z"
         id="path5863"
         inkscape:connector-curvature="0" />
      <path
         style="fill:none;stroke:#000000;stroke-width:0.70829445;stroke-opacity:1"
         d="m 202.375,478.96875 c 38.44792,54.36458 76.89583,108.72917 115.34375,163.09375 6.00181,-4.74989 9.88554,-11.84106 9.33421,-19.57067 C 343.23323,516.91122 359.41349,411.33061 375.59375,305.75 317.85417,363.48958 260.11458,421.22917 202.375,478.96875 z"
         id="path5867"
         inkscape:connector-curvature="0" />
      <path
         style="fill:none;stroke:#000000;stroke-width:0.70829445;stroke-opacity:1"
         d="m 204.96875,479.1875 c 37.69792,53.3125 75.39583,106.625 113.09375,159.9375 5.96423,-4.98733 7.34132,-12.60456 7.48572,-19.90288 15.72351,-102.59487 31.44702,-205.18975 47.17053,-307.78462 -55.91667,55.91667 -111.83333,111.83333 -167.75,167.75 z"
         id="path5871"
         inkscape:connector-curvature="0" />
      <path
         style="fill:none;stroke:#000000;stroke-width:0.70829445;stroke-opacity:1"
         d="m 207.5625,479.40625 c 36.92708,52.22917 73.85417,104.45833 110.78125,156.6875 7.12942,-8.24884 4.31638,-20.14476 7.21934,-30.03747 C 340.32331,509.74585 355.08353,413.43543 369.84375,317.125 315.75,371.21875 261.65625,425.3125 207.5625,479.40625 z"
         id="path5875"
         inkscape:connector-curvature="0" />
      <path
         style="fill:none;stroke:#000000;stroke-width:0.70829445;stroke-opacity:1"
         d="m 210.15625,479.625 c 36.0803,50.94971 72.18486,102.2183 108.25,152.96875 4.88468,-9.20415 2.73225,-20.16537 5.67305,-29.99665 14.28607,-93.25112 28.57213,-186.50223 42.8582,-279.75335 C 314.67708,375.10417 262.41667,427.36458 210.15625,479.625 z"
         id="path5879"
         inkscape:connector-curvature="0" />
      <path
         style="fill:none;stroke:#000000;stroke-width:0.70829445;stroke-opacity:1"
         d="m 212.75,479.84375 c 35.1071,49.46947 70.12752,99.50185 105.28125,148.625 2.78455,-10.17926 2.15362,-20.97188 4.85115,-31.22355 13.7267,-89.57132 27.4534,-179.14263 41.1801,-268.71395 -50.4375,50.4375 -100.875,100.875 -151.3125,151.3125 z"
         id="path5883"
         inkscape:connector-curvature="0" />
      <path
         style="fill:none;stroke:#000000;stroke-width:0.70829445;stroke-opacity:1"
         d="m 215.34375,480.0625 c 33.9469,47.84619 67.61429,95.89061 101.71875,143.625 2.69702,-23.51281 7.23224,-46.87353 10.53867,-70.42998 11.18503,-73.0025 22.37005,-146.00501 33.55508,-219.00752 -48.60417,48.60417 -97.20833,97.20833 -145.8125,145.8125 z"
         id="path5887"
         inkscape:connector-curvature="0" />
      <path
         style="fill:none;stroke:#000000;stroke-width:0.70829445;stroke-opacity:1"
         d="m 217.9375,480.28125 c 32.64619,45.99407 65.02376,92.17868 97.78125,138.09375 9.32355,-63.03589 19.31146,-125.98353 28.83437,-188.99609 4.56563,-29.80339 9.13125,-59.60677 13.69688,-89.41016 -46.77083,46.77083 -93.54167,93.54167 -140.3125,140.3125 z"
         id="path5891"
         inkscape:connector-curvature="0" />
      <path
         style="fill:none;stroke:#000000;stroke-width:0.70829445;stroke-opacity:1"
         d="m 220.53125,480.5 c 31.35331,44.21068 62.52218,88.55205 93.9375,132.71875 C 327.89008,523.99938 341.80316,434.85341 355.375,345.65625 310.42708,390.60417 265.47917,435.55208 220.53125,480.5 z"
         id="path5895"
         inkscape:connector-curvature="0" />
      <path
         style="fill:none;stroke:#000000;stroke-width:0.70829445;stroke-opacity:1"
         d="m 223.125,480.71875 c 30.09549,42.39938 59.95489,84.96612 90.125,127.3125 12.86767,-85.5954 26.22238,-171.11646 39.25,-256.6875 -43.125,43.125 -86.25,86.25 -129.375,129.375 z"
         id="path5899"
         inkscape:connector-curvature="0" />
      <path
         style="fill:none;stroke:#000000;stroke-width:0.70829445;stroke-opacity:1"
         d="M 225.71875,480.9375 C 254.53485,521.5439 283.15847,562.2866 312,602.875 324.34881,520.89763 337.11717,438.98436 349.625,357.03125 308.32292,398.33333 267.02083,439.63542 225.71875,480.9375 z"
         id="path5903"
         inkscape:connector-curvature="0" />
      <path
         style="fill:none;stroke:#000000;stroke-width:0.70829445;stroke-opacity:1"
         d="m 228.3125,481.15625 c 27.57776,38.78125 54.87532,77.76112 82.46875,116.53125 11.80052,-78.35178 23.99998,-156.64265 35.96875,-234.96875 -39.47917,39.47917 -78.95833,78.95833 -118.4375,118.4375 z"
         id="path5907"
         inkscape:connector-curvature="0" />
      <path
         style="fill:none;stroke:#000000;stroke-width:0.70829445;stroke-opacity:1"
         d="m 230.90625,481.375 c 26.28332,36.99587 52.33164,74.15837 78.65625,111.125 11.22323,-74.7306 22.87991,-149.39509 34.3125,-224.09375 -37.65625,37.65625 -75.3125,75.3125 -112.96875,112.96875 z"
         id="path5911"
         inkscape:connector-curvature="0" />
      <path
         style="fill:none;stroke:#000000;stroke-width:0.70829445;stroke-opacity:1"
         d="m 233.5,481.59375 c 25.00777,35.18981 49.80639,70.52778 74.8125,105.71875 10.73007,-71.09827 21.77575,-142.14827 32.6875,-213.21875 -35.83333,35.83333 -71.66667,71.66667 -107.5,107.5 z"
         id="path5915"
         inkscape:connector-curvature="0" />
      <path
         style="fill:none;stroke:#000000;stroke-width:0.70829445;stroke-opacity:1"
         d="m 236.09375,481.8125 c 23.7606,33.37091 47.24596,66.93702 71,100.3125 10.1484,-67.46572 20.70136,-134.86969 31,-202.3125 -34,34 -68,68 -102,102 z"
         id="path5919"
         inkscape:connector-curvature="0" />
      <path
         style="fill:none;stroke:#000000;stroke-width:0.70829445;stroke-opacity:1"
         d="m 238.6875,482.03125 c 22.48035,31.56816 44.70738,63.31574 67.15625,94.90625 9.65301,-63.8217 19.61353,-127.59635 29.34375,-191.40625 -32.16667,32.16667 -64.33333,64.33333 -96.5,96.5 z"
         id="path5923"
         inkscape:connector-curvature="0" />
      <path
         style="fill:none;stroke:#000000;stroke-width:0.70829445;stroke-opacity:1"
         d="m 241.28125,482.25 c 21.19505,29.77637 42.16825,59.70986 63.34375,89.5 9.10693,-60.19572 18.47738,-120.35126 27.6875,-180.53125 -30.34375,30.34375 -60.6875,60.6875 -91.03125,91.03125 z"
         id="path5927"
         inkscape:connector-curvature="0" />
      <path
         style="fill:none;stroke:#000000;stroke-width:0.70829445;stroke-opacity:1"
         d="m 243.875,482.46875 c 19.93597,27.9659 39.63246,56.10149 59.53125,84.09375 8.57488,-56.5557 17.34397,-113.0817 26,-169.625 -28.51042,28.51042 -57.02083,57.02083 -85.53125,85.53125 z"
         id="path5931"
         inkscape:connector-curvature="0" />
      <path
         style="fill:none;stroke:#000000;stroke-width:0.70829445;stroke-opacity:1"
         d="m 246.46875,482.6875 c 18.667,26.16245 37.08271,52.50324 55.71875,78.6875 8.01104,-52.92046 16.24594,-105.80675 24.3125,-158.71875 -26.67708,26.67708 -53.35417,53.35417 -80.03125,80.03125 z"
         id="path5935"
         inkscape:connector-curvature="0" />
      <path
         style="fill:none;stroke:#000000;stroke-width:0.70829445;stroke-opacity:1"
         d="m 249.0625,482.90625 c 17.40817,24.35174 34.52892,48.90756 51.90625,73.28125 7.41137,-49.30272 15.147,-98.55594 22.65625,-147.84375 -24.85417,24.85417 -49.70833,49.70833 -74.5625,74.5625 z"
         id="path5939"
         inkscape:connector-curvature="0" />
      <path
         style="fill:none;stroke:#000000;stroke-width:0.70829445;stroke-opacity:1"
         d="m 251.65625,483.125 c 16.12643,22.55006 32.00563,45.27554 48.0625,67.875 6.92526,-45.66929 14.03578,-91.3102 21.03125,-136.96875 -23.03125,23.03125 -46.0625,46.0625 -69.09375,69.09375 z"
         id="path5943"
         inkscape:connector-curvature="0" />
      <path
         style="fill:none;stroke:#000000;stroke-width:0.70829445;stroke-opacity:1"
         d="m 254.25,483.34375 c 14.87156,20.73674 29.45314,41.67904 44.25,62.46875 6.34123,-42.03712 12.96295,-84.03138 19.34375,-126.0625 -21.19792,21.19792 -42.39583,42.39583 -63.59375,63.59375 z"
         id="path5947"
         inkscape:connector-curvature="0" />
      <path
         style="fill:none;stroke:#000000;stroke-width:0.70829445;stroke-opacity:1"
         d="m 256.84375,483.5625 c 13.5718,18.95494 26.9329,38.05973 40.4375,57.0625 5.79575,-38.41105 11.83827,-76.78454 17.6875,-115.1875 -19.375,19.375 -38.75,38.75 -58.125,58.125 z"
         id="path5951"
         inkscape:connector-curvature="0" />
      <path
         style="fill:none;stroke:#000000;stroke-width:0.70829445;stroke-opacity:1"
         d="m 259.4375,483.78125 c 12.2973,17.15543 24.42062,34.43474 36.625,51.65625 5.21444,-34.79064 10.72348,-69.53613 16.03125,-104.3125 -17.55208,17.55208 -35.10417,35.10417 -52.65625,52.65625 z"
         id="path5955"
         inkscape:connector-curvature="0" />
      <path
         style="fill:none;stroke:#000000;stroke-width:0.70829445;stroke-opacity:1"
         d="m 262.03125,484 c 11.02285,15.35597 21.86494,30.84046 32.8125,46.25 4.65761,-31.15432 9.60654,-62.2641 14.34375,-93.40625 C 293.46875,452.5625 277.75,468.28125 262.03125,484 z"
         id="path5959"
         inkscape:connector-curvature="0" />
      <path
         style="fill:none;stroke:#000000;stroke-width:0.70829445;stroke-opacity:1"
         d="m 264.625,484.21875 c 9.77588,13.53671 19.3168,27.24093 29,40.84375 4.11078,-27.52772 8.47075,-55.01903 12.6875,-82.53125 -13.89583,13.89583 -27.79167,27.79167 -41.6875,41.6875 z"
         id="path5963"
         inkscape:connector-curvature="0" />
      <path
         style="fill:none;stroke:#000000;stroke-width:0.70829445;stroke-opacity:1"
         d="m 267.21875,484.4375 c 8.48404,11.74953 16.76729,23.64237 25.1875,35.4375 3.57428,-23.88908 7.34127,-47.74879 11,-71.625 -12.0625,12.0625 -24.125,24.125 -36.1875,36.1875 z"
         id="path5967"
         inkscape:connector-curvature="0" />
      <path
         style="fill:none;stroke:#000000;stroke-width:0.70829445;stroke-opacity:1"
         d="m 269.84375,484.625 c 7.14418,9.98792 14.22918,20.04226 21.34375,30.0625 3.01145,-20.25296 6.24219,-40.47408 9.3125,-60.71875 -10.21875,10.21875 -20.4375,20.4375 -30.65625,30.65625 z"
         id="path5971"
         inkscape:connector-curvature="0" />
      <path
         style="fill:none;stroke:#000000;stroke-width:0.70829445;stroke-opacity:1"
         d="m 272.4375,484.84375 c 5.86838,8.19383 11.67872,16.42896 17.5,24.65625 2.48292,-16.62615 5.15089,-33.22528 7.6875,-49.84375 -8.39583,8.39583 -16.79167,16.79167 -25.1875,25.1875 z"
         id="path5975"
         inkscape:connector-curvature="0" />
      <path
         style="fill:none;stroke:#000000;stroke-width:0.70829445;stroke-opacity:1"
         d="m 275.03125,485.0625 c 4.60956,6.38308 9.14263,12.82083 13.6875,19.25 1.95762,-12.98543 3.97992,-25.96148 6,-38.9375 -6.5625,6.5625 -13.125,13.125 -19.6875,19.6875 z"
         id="path5979"
         inkscape:connector-curvature="0" />
      <path
         style="fill:none;stroke:#000000;stroke-width:0.70829445;stroke-opacity:1"
         d="m 277.625,485.28125 c 3.259,3.71315 7.54863,12.1015 10.02178,12.82333 1.3384,-9.01124 2.77103,-18.00818 4.16572,-27.01083 -4.72917,4.72917 -9.45833,9.45833 -14.1875,14.1875 z"
         id="path5983"
         inkscape:connector-curvature="0" />
      <path
         style="fill:none;stroke:#000000;stroke-width:0.70829445;stroke-opacity:1"
         d="m 280.28125,485.4375 c 2.14572,2.74717 3.85801,5.82977 5.96875,8.625 0.82581,-5.75868 1.79096,-11.49674 2.65625,-17.25 -2.875,2.875 -5.75,5.75 -8.625,8.625 z"
         id="path5987"
         inkscape:connector-curvature="0" />
      <path
         style="fill:none;stroke:#000000;stroke-width:0.70829445;stroke-opacity:1"
         d="m 282.90625,485.625 c 2.37819,7.86121 4.32205,-5.35173 1.67954,-1.67954 -0.55985,0.55985 -1.11969,1.11969 -1.67954,1.67954 z"
         id="path5991"
         inkscape:connector-curvature="0" />
    </g>
  </g>
</svg>
