<?xml version="1.0" encoding="UTF-8" standalone="no"?>
<!-- Created with Inkscape (http://www.inkscape.org/) -->

<svg
   xmlns:dc="http://purl.org/dc/elements/1.1/"
   xmlns:cc="http://creativecommons.org/ns#"
   xmlns:rdf="http://www.w3.org/1999/02/22-rdf-syntax-ns#"
   xmlns:svg="http://www.w3.org/2000/svg"
   xmlns="http://www.w3.org/2000/svg"
   xmlns:sodipodi="http://sodipodi.sourceforge.net/DTD/sodipodi-0.dtd"
   xmlns:inkscape="http://www.inkscape.org/namespaces/inkscape"
   sodipodi:docname="letter sized frame blank.svg"
   inkscape:version="0.48.2 r9819"
   version="1.1"
   id="svg3783"
   height="1052.3622047"
   width="744.09448819">
  <sodipodi:namedview
     id="base"
     pagecolor="#ffffff"
     bordercolor="#666666"
     borderopacity="1.0"
     inkscape:pageopacity="0.0"
     inkscape:pageshadow="2"
     inkscape:zoom="0.49497475"
     inkscape:cx="-152.26702"
     inkscape:cy="747.98064"
     inkscape:document-units="px"
     inkscape:current-layer="layer1"
     showgrid="false"
     inkscape:window-width="1024"
     inkscape:window-height="748"
     inkscape:window-x="10"
     inkscape:window-y="-16"
     inkscape:window-maximized="0" />
  <defs
     id="defs3785">
    <inkscape:perspective
       id="perspective3823"
       inkscape:persp3d-origin="334.90438 : 296.50168 : 1"
       inkscape:vp_z="372.04724 : 175.3937 : 0"
       inkscape:vp_y="0 : 1000 : 0"
       inkscape:vp_x="-314.90439 : 155.3937 : 0"
       sodipodi:type="inkscape:persp3d" />
  </defs>
  <metadata
     id="metadata3788">
    <rdf:RDF>
      <cc:Work
         rdf:about="">
        <dc:format>image/svg+xml</dc:format>
        <dc:type
           rdf:resource="http://purl.org/dc/dcmitype/StillImage" />
        <dc:title></dc:title>
      </cc:Work>
    </rdf:RDF>
  </metadata>
  <g
     id="layer1"
     inkscape:groupmode="layer"
     inkscape:label="Layer 1">
    <rect
       y="12.284647"
       x="7.8454075"
       height="779.49591"
       width="516.12524"
       id="rect4319"
       style="fill:none;stroke:#000000;stroke-width:0.91610378;stroke-opacity:1" />
    <flowRoot
       style="fill:black;stroke:none;stroke-opacity:1;stroke-width:1px;stroke-linejoin:miter;stroke-linecap:butt;fill-opacity:1;font-family:Sans;font-style:normal;font-weight:normal;font-size:40px;line-height:125%;letter-spacing:0px;word-spacing:0px"
       id="flowRoot3475"
       xml:space="preserve"><flowRegion
         id="flowRegion3477"><rect
           y="840.23016"
           x="40.406101"
           height="76.771591"
           width="474.7717"
           id="rect3479" /></flowRegion><flowPara
         id="flowPara3481" /></flowRoot>    <path
       inkscape:connector-curvature="0"
       style="fill:none;stroke:#000000;stroke-width:1"
       d="m 104.58559,632.78867 0.0291,-0.99958 1.02867,-0.97049 0.99958,0.0291 0.97049,1.02867 0.94139,2.02824 1.85368,5.05608 1.91188,3.05691 1.94096,2.05734 1.97006,1.05776 3.99831,0.11638 2.02825,-0.94139 1.02867,-0.97049 1.05776,-1.97006 0.0582,-1.99915 -0.94138,-2.02825 -0.97049,-1.02866 -6.88067,-4.20196 -0.97048,-1.02867 -0.94139,-2.02826 0.0582,-1.99915 1.05777,-1.97005 2.02824,-0.94139 1.97006,1.05776 0.94139,2.02824 -0.0582,1.99916 -1.08685,2.96963 -2.08643,2.94055 -5.20155,6.85156 -2.05733,1.94098 -2.02825,0.94138 -1.99915,-0.0582 -0.97049,-1.02867 0.0291,-0.99958"
       id="path6016" />
    <path
       inkscape:connector-curvature="0"
       style="fill:none;stroke:#000000"
       d=""
       id="path6018" />
    <path
       inkscape:connector-curvature="0"
       style="fill:none;stroke:#000000"
       d=""
       id="path6022" />
    <path
       inkscape:connector-curvature="0"
       style="fill:none;stroke:#000000;stroke-width:1"
       d="m 133.82941,641.92795 -8.60831,-13.63441 m 8.60831,13.63441 7.37619,-14.33848"
       id="path6024" />
    <path
       inkscape:connector-curvature="0"
       style="fill:none;stroke:#000000"
       d=""
       id="path6026" />
    <path
       id="path6078"
       d="m 86.929122,647.1789 13.999998,-21 m 0,21 -13.999998,-21"
       style="fill:none;stroke:#000000"
       inkscape:connector-curvature="0" />
    <path
       id="path6292"
       d="m 64.393231,632.37851 -0.282066,1.98 0.56689,3.11105 1.838975,1.27207 1.980013,0.28208 2.121042,-0.70794 4.383126,-2.40587 2.121042,-0.70794 1.980013,0.28208 1.838975,1.27207 0.707928,2.12105 m -17.538004,-4.51865 0.707933,2.12104 1.83897,1.27208 1.980013,0.28208 2.121042,-0.70794 4.383126,-2.40587 2.121042,-0.70794 1.980004,0.28207 1.838975,1.27207 0.566899,3.11106 -0.282066,1.98"
       style="fill:none;stroke:#000000;stroke-width:1"
       inkscape:connector-curvature="0" />
    <path
       style="fill:none;stroke:#000000;stroke-width:1px;stroke-linecap:butt;stroke-linejoin:miter;stroke-opacity:1"
       d="M 227.78504,689.44074 400.43559,250.46702 402.13797,99.49346 331.69146,211.49083 z"
       id="path6450"
       inkscape:connector-curvature="0" />
    <path
       inkscape:connector-curvature="0"
       id="path6452"
       d="M 227.57272,694.25191 314.27816,230.58362 287.45834,82.0016 239.41374,205.28112 z"
       style="fill:none;stroke:#000000;stroke-width:1px;stroke-linecap:butt;stroke-linejoin:miter;stroke-opacity:1" />
    <path
       style="fill:none;stroke:#000000;stroke-width:1px;stroke-linecap:butt;stroke-linejoin:miter;stroke-opacity:1"
       d="M 222.9993,691.6816 226.89546,219.99215 174.38879,78.43309 148.75014,208.23594 z"
       id="path6454"
       inkscape:connector-curvature="0" />
    <path
       inkscape:connector-curvature="0"
       id="path6458"
       d="M 287.92549,691.62341 147.55054,241.28908 156.79678,90.5893 218.93921,207.39872 z"
       style="fill:none;stroke:#000000;stroke-width:1px;stroke-linecap:butt;stroke-linejoin:miter;stroke-opacity:1" />
    <path
       style="fill:none;stroke:#000000;stroke-width:1px;stroke-linecap:butt;stroke-linejoin:miter;stroke-opacity:1"
       d="M 287.78849,696.43732 234.92266,227.70358 272.44269,81.45664 311.42431,207.8946 z"
       id="path6460"
       inkscape:connector-curvature="0" />
    <path
       inkscape:connector-curvature="0"
       id="path6462"
       d="m 292.5362,694.2053 30.30705,-470.73093 62.63019,-137.3804 16.16175,131.31991 z"
       style="fill:none;stroke:#000000;stroke-width:1px;stroke-linecap:butt;stroke-linejoin:miter;stroke-opacity:1" />
    <path
       style="fill:none;stroke:#000000;stroke-width:1px;stroke-linecap:butt;stroke-linejoin:miter;stroke-opacity:1"
       d="M 230.31478,194.58305 258.59905,87.50688 220.21325,55.182 187.88837,83.46627 z"
       id="path6464"
       inkscape:connector-curvature="0" />
    <path
       inkscape:connector-curvature="0"
       id="path6466"
       d="M 325.26911,200.64397 296.98484,93.5678 l 38.3858,-32.32488 32.32488,28.28427 z"
       style="fill:none;stroke:#000000;stroke-width:1px;stroke-linecap:butt;stroke-linejoin:miter;stroke-opacity:1" />
    <path
       style="fill:none;stroke:#000000;stroke-width:1px;stroke-linecap:butt;stroke-linejoin:miter;stroke-opacity:1"
       d="m 259.78379,618.51368 -36.2023,104.6647 35.8644,35.10146 34.34702,-25.79108 z"
       id="path6468"
       inkscape:connector-curvature="0" />
    <path
       style="fill:none;stroke:#000000;stroke-width:1px;stroke-linecap:butt;stroke-linejoin:miter;stroke-opacity:1"
       d="m 313.14729,637.02986 58.58885,-248.49752 46.46701,-46.46702 z"
       id="path6470"
       inkscape:connector-curvature="0" />
    <path
       inkscape:connector-curvature="0"
       id="path6474"
       d="M 211.70121,643.18653 164.03904,392.3639 119.64923,343.90865 z"
       style="fill:none;stroke:#000000;stroke-width:1px;stroke-linecap:butt;stroke-linejoin:miter;stroke-opacity:1" />
    <path
       style="fill:none;stroke:#000000;stroke-width:1px;stroke-linecap:butt;stroke-linejoin:miter;stroke-opacity:1"
       d="M 226.71875,708.03125 C 213.98133,707.38477 208.63416,691.29883 213.09375,680.8125 248.30027,521.75179 281.3015,362.00668 318,203.28125 c 33.67702,-53.59647 67.37541,-107.17951 101.09375,-160.75 -2.07818,71.20676 -0.56462,142.53987 -3.65625,213.6875 -57.98481,147.43305 -115.99216,294.85728 -174,442.28125 -4.12401,4.09974 -8.14624,9.93395 -14.71875,9.53125 z"
       id="path7106"
       inkscape:connector-curvature="0" />
    <path
       style="fill:none;stroke:#000000;stroke-width:1px;stroke-linecap:butt;stroke-linejoin:miter;stroke-opacity:1"
       d="m 227.53125,713.125 c -11.85243,-0.62288 -17.22689,-14.24125 -16.25,-24.59375 5.47756,-162.95126 6.87329,-326.09605 13.125,-489 22.98439,-58.91001 45.86671,-117.8603 69.0625,-176.6875 11.13782,70.42363 26.40824,140.19976 36.5625,210.75 -29.40256,155.86928 -57.78906,311.99129 -87.90625,467.6875 -3.09703,5.49445 -7.3747,12.24317 -14.59375,11.84375 z"
       id="path7108"
       inkscape:connector-curvature="0" />
    <path
       style="fill:none;stroke:#000000;stroke-width:1px;stroke-linecap:butt;stroke-linejoin:miter;stroke-opacity:1"
       d="M 223.40625,710.4375 C 210.8603,709.01014 205.62706,694.81376 205.46875,683.71875 182.08706,524.84111 155.71479,366.37625 133.3125,207.375 c 0.34457,-13.43397 5.40852,-26.18747 7.04873,-39.44241 9.81108,-49.59329 19.50753,-99.20941 29.45127,-148.77634 23.44763,67.35323 50.75152,133.41752 73.09375,201.09375 -1.5363,158.54345 -2.1602,317.15651 -4.28125,475.65625 -2.0709,6.8552 -6.70371,15.40031 -15.21875,14.53125 z"
       id="path7110"
       inkscape:connector-curvature="0" />
    <path
       style="fill:none;stroke:#000000;stroke-width:1px;stroke-linecap:butt;stroke-linejoin:miter;stroke-opacity:1"
       d="M 289.03125,710.25 C 276.46748,708.65959 271.08209,695.15494 268.80242,684.26213 223.65895,536.89218 176.09265,390.25326 132.125,242.53125 c -0.90796,-17.76372 2.35172,-35.41355 2.57795,-53.16893 3.1899,-52.36053 6.40296,-104.71966 9.5783,-157.08107 29.19147,58.1021 62.11521,114.36202 90.40625,172.875 C 257.71397,367.82281 281.32759,530.412 304,693.125 c -0.63221,7.97042 -5.51674,17.95768 -14.96875,17.125 z"
       id="path7112"
       inkscape:connector-curvature="0" />
    <path
       style="fill:none;stroke:#000000;stroke-width:1px;stroke-linecap:butt;stroke-linejoin:miter;stroke-opacity:1"
       d="M 287.96875,715.21875 C 275.49331,713.74102 270.2595,699.49263 270.625,688.4375 253.90657,535.12109 235.25739,382.0114 219.5,228.59375 c 2.00875,-20.95575 10.33453,-40.54001 14.35969,-61.0624 12.43017,-48.49788 24.82318,-97.0053 37.26531,-145.5001 18.04618,62.41804 39.17583,124.00109 56.3125,186.625 -8.2379,164.26794 -15.36027,328.64069 -24.28125,492.84375 -2.37284,6.58278 -7.02059,14.55803 -15.1875,13.71875 z"
       id="path7114"
       inkscape:connector-curvature="0" />
    <path
       style="fill:none;stroke:#000000;stroke-width:1px;stroke-linecap:butt;stroke-linejoin:miter;stroke-opacity:1"
       d="M 291.9375,713.03125 C 279.7509,712.12288 274.62015,697.47108 276.66605,686.81512 287.99046,530.2941 295.70377,373.46286 308.1875,217.0625 337.0184,153.86255 365.80428,90.64207 394.625,27.4375 c 6.68176,64.59623 17.28149,128.73308 22.5,193.46875 -36.7612,160.23999 -73.23879,320.65673 -110.0625,480.8125 -3.62492,5.17088 -7.76449,12.09228 -15.125,11.3125 z"
       id="path7116"
       inkscape:connector-curvature="0" />
    <path
       style="fill:none;stroke:#000000;stroke-width:1px;stroke-linecap:butt;stroke-linejoin:miter;stroke-opacity:1"
       d="M 230.84375,240.90625 C 210.14139,186.86138 189.49462,132.79524 168.875,78.71875 185.98858,64.07689 202.96941,49.07697 219.96875,34.1875 c 18.94784,15.76728 37.73705,31.7237 56.625,47.5625 -14.38953,55.01091 -28.92681,109.98325 -43.53125,164.9375 -0.73958,-1.92708 -1.47917,-3.85417 -2.21875,-5.78125 z"
       id="path7118"
       inkscape:connector-curvature="0" />
    <path
       style="fill:none;stroke:#000000;stroke-width:1px;stroke-linecap:butt;stroke-linejoin:miter;stroke-opacity:1"
       d="M 320.9375,246.875 C 306.9715,193.8507 292.81031,140.87772 279,87.8125 297.88801,71.97377 316.6772,56.01732 335.625,40.25 c 16.96438,14.90822 33.90687,29.8428 51.0625,44.53125 -21.38413,56.04216 -42.76986,112.08371 -64.15625,168.125 -0.53125,-2.01042 -1.0625,-4.02083 -1.59375,-6.03125 z"
       id="path7120"
       inkscape:connector-curvature="0" />
    <path
       style="fill:none;stroke:#000000;stroke-width:1px;stroke-linecap:butt;stroke-linejoin:miter;stroke-opacity:1"
       d="m 256.9375,778.09375 c -17.38327,-16.70951 -34.65818,-33.68143 -51.84375,-50.65625 18.87925,-53.5814 36.96667,-107.42966 55.6875,-161.09375 17.28819,57.34911 34.10725,114.84066 51.5,172.15625 -18.06148,13.57458 -36.11215,27.1539 -54.125,40.78125 l -0.71623,-0.69786 -0.50252,-0.48964 z"
       id="path7122"
       inkscape:connector-curvature="0" />
    <path
       style="fill:none;stroke:#000000;stroke-width:1px;stroke-linecap:butt;stroke-linejoin:miter;stroke-opacity:1"
       d="m 311.0625,654.78125 c -12.75097,-1.55839 -17.10849,-18.10778 -11.78125,-28.3125 19.34193,-82.04759 38.73509,-164.08325 57.96875,-246.15625 30.57783,-30.03566 59.78386,-61.61559 94.0625,-87.46875 -39.85963,118.11994 -82.32932,235.44472 -124.875,352.625 -3.02155,5.43705 -8.82637,9.84477 -15.375,9.3125 z"
       id="path7124"
       inkscape:connector-curvature="0" />
    <path
       style="fill:none;stroke:#000000;stroke-width:1px;stroke-linecap:butt;stroke-linejoin:miter;stroke-opacity:1"
       d="m 212.28125,661.125 c -12.61858,-1.66618 -17.74997,-15.48077 -19.91355,-26.26996 -29.57606,-98.95403 -62.19652,-197.09711 -89.8052,-296.57379 0.19801,-13.6691 21.0485,-17.69494 27.90625,-6.71875 15.46058,19.77982 36.25204,35.90733 49.3125,57.8125 15.74329,85.39469 33.40972,170.46826 47.78125,256.09375 -0.58061,7.82647 -6.64031,16.36849 -15.28125,15.65625 z"
       id="path7126"
       inkscape:connector-curvature="0" />
  </g>
</svg>
