<?xml version="1.0" encoding="UTF-8" standalone="no"?>
<!-- Created with Inkscape (http://www.inkscape.org/) -->

<svg
   xmlns:dc="http://purl.org/dc/elements/1.1/"
   xmlns:cc="http://creativecommons.org/ns#"
   xmlns:rdf="http://www.w3.org/1999/02/22-rdf-syntax-ns#"
   xmlns:svg="http://www.w3.org/2000/svg"
   xmlns="http://www.w3.org/2000/svg"
   xmlns:sodipodi="http://sodipodi.sourceforge.net/DTD/sodipodi-0.dtd"
   xmlns:inkscape="http://www.inkscape.org/namespaces/inkscape"
   width="744.09448819"
   height="1052.3622047"
   id="svg3783"
   version="1.1"
   inkscape:version="0.48.2 r9819"
   sodipodi:docname="spiral017.svg">
  <sodipodi:namedview
     id="base"
     pagecolor="#ffffff"
     bordercolor="#666666"
     borderopacity="1.0"
     inkscape:pageopacity="0.0"
     inkscape:pageshadow="2"
     inkscape:zoom="0.35"
     inkscape:cx="-425.73048"
     inkscape:cy="995.85847"
     inkscape:document-units="px"
     inkscape:current-layer="layer1"
     showgrid="false"
     inkscape:window-width="1024"
     inkscape:window-height="748"
     inkscape:window-x="82"
     inkscape:window-y="-16"
     inkscape:window-maximized="0" />
  <defs
     id="defs3785" />
  <metadata
     id="metadata3788">
    <rdf:RDF>
      <cc:Work
         rdf:about="">
        <dc:format>image/svg+xml</dc:format>
        <dc:type
           rdf:resource="http://purl.org/dc/dcmitype/StillImage" />
        <dc:title></dc:title>
      </cc:Work>
    </rdf:RDF>
  </metadata>
  <g
     inkscape:label="Layer 1"
     inkscape:groupmode="layer"
     id="layer1">
    <rect
       style="fill:none;stroke:#000000;stroke-width:0.91610378;stroke-opacity:1"
       id="rect4319"
       width="516.12524"
       height="779.49591"
       x="7.8454075"
       y="12.284647" />
    <flowRoot
       xml:space="preserve"
       id="flowRoot3475"
       style="fill:black;stroke:none;stroke-opacity:1;stroke-width:1px;stroke-linejoin:miter;stroke-linecap:butt;fill-opacity:1;font-family:Sans;font-style:normal;font-weight:normal;font-size:40px;line-height:125%;letter-spacing:0px;word-spacing:0px"><flowRegion
         id="flowRegion3477"><rect
           id="rect3479"
           width="474.7717"
           height="76.771591"
           x="40.406101"
           y="840.23016" /></flowRegion><flowPara
         id="flowPara3481" /></flowRoot>    <path
       style="fill:none;stroke:#000000;stroke-width:0.66049397px;stroke-linecap:butt;stroke-linejoin:miter;stroke-opacity:1"
       d="m -811.56666,126.44022 c 2.785,-9.21558 0.0737,4.23522 -3.76234,24.78472 -3.75829,30.77236 -6.01133,64.54498 -6.64214,74.15049 -0.52141,12.90091 -1.29556,-13.98453 0.97476,-51.67099 6.53573,-42.91148 18.69937,-83.796981 23.94891,-94.492761 6.36003,-11.034494 -3.43708,16.714334 -15.6954,64.267891 -6.86461,64.93436 -5.37084,132.38801 -4.86677,146.26498 1.19471,17.01807 -5.81111,-33.87291 -5.67695,-104.0389 10.90865,-70.07882 34.5653,-130.28086 44.67449,-143.282321 10.61634,-10.027616 -8.58933,25.149729 -31.73693,95.195721 -8.28668,100.79424 3.27658,201.32295 5.41146,216.93722 3.38751,18.99384 -14.82428,-54.48764 -20.34159,-156.23268 14.81076,-95.53379 51.16734,-169.400783 66.88179,-181.734767 14.36353,-5.120588 -14.51401,29.873525 -49.88615,117.228827 -7.28226,138.13307 20.57747,267.88164 23.95283,282.74486 5.13813,18.46591 -28.45572,-74.1103 -42.60772,-205.38155 18.16004,-119.485569 67.24606,-201.8607053 88.54176,-210.1718835 16.36381,3.4463367 -20.54813,31.6313975 -68.26244,131.1977335 -3.08691,176.44221 46.48289,328.65851 49.91506,340.79052 5.57552,15.79724 -46.4602,-91.1416 -71.52364,-249.09377 21.00563,-142.144789 82.10153,-228.797533 108.11122,-229.9234362 15.73449,14.5294455 -26.30942,31.4300022 -85.39599,138.9097062 5.01193,214.95467 80.28564,380.57087 82.01213,388.90981 4.02507,11.81119 -68.30146,-104.31494 -105.76491,-285.66505 23.50559,-163.723319 95.69628,-251.406339 124.73197,-242.9466447 12.33165,26.8163807 -31.71101,30.3524467 -100.42157,142.7723447 17.60889,252.63366 120.73203,421.12406 118.6933,425.74537 0.071,7.5579 -93.25963,-112.81712 -143.81593,-314.16197 25.89668,-184.410765 108.64159,-270.496896 138.25973,-251.3164779 6.68018,39.8312459 -36.92477,29.3464609 -113.10748,145.2893979 35.11738,288.18694 166.18568,448.58227 158.31118,450.71556 -6.45051,4.10372 -120.54476,-116.33008 -184.13622,-334.39965 28.46492,-204.34791 121.76955,-286.059543 149.36419,-255.5316531 -0.83287,52.8158691 -42.54343,27.8050961 -123.95931,147.3707231 57.71448,320.11353 214.80987,462.0281 199.25625,463.90687 -15.50273,2.37345 -149.39407,-115.00626 -225.29106,-346.84276 31.52148,-223.60118 135.49861,-297.32776 158.56419,-254.555906 -9.39077,64.450266 -48.75709,23.784033 -133.2604,148.375196 85.30148,346.78458 264.73621,461.32224 240.04884,465.92752 -26.92194,3.05139 -179.14215,-109.40131 -266.03787,-352.4622 35.38501,-242.145938 149.68391,-303.274234 165.33449,-248.148508 -17.05144,73.832742 -54.61879,16.412266 -140.18484,148.434898 117.4809,366.54575 314.19972,446.99412 279.38782,457.75483 -40.49137,6.53711 -209.26118,-100.38906 -305.36974,-352.57934 40.36852,-259.85266 163.76447,-302.985193 169.25928,-236.269215 -22.40543,79.662305 -59.3261,5.334604 -143.95703,147.845545 153.55773,377.84079 361.628,420.09822 316.1631,440.60165 -56.0042,12.9392 -239.37198,-89.07416 -342.52248,-348.71852 46.76754,-276.4773977 176.87329,-295.879453 170.64655,-218.886178 -25.37155,80.491368 -62.90926,-9.443447 -144.47417,146.856688 192.5622,379.33028 405.6886,382.06048 349.44241,415.80838 -73.30944,22.09058 -269.2305,-76.71508 -376.9542,-342.48094 54.84653,-291.6542294 187.92638,-281.8798828 170.72864,-196.193169 -27.22875,75.140909 -66.44858,-27.292008 -142.51697,145.861259 233.29506,370.00464 445.29816,334.54567 378.44388,384.77249 -92.33672,33.57111 -298.69967,-64.66527 -408.30876,-335.44688 64.82235,-304.889504 195.75706,-261.501423 170.83704,-168.98332 -29.54775,63.10011 -71.21357,-46.545853 -138.93893,145.73773 274.39081,349.27591 479.60991,279.35461 402.50345,348.9111 -113.10078,46.72596 -327.70624,-54.32798 -436.36911,-329.10376 76.84227,-315.561291 199.43505,-235.542376 171.64837,-138.29933 -33.22915,44.17944 -77.82719,-64.862658 -133.9324,147.47064 314.39157,317.03551 507.9861,218.35186 421.04539,309.64413 -135.69175,60.67538 -356.1924,-47.12553 -461.00899,-324.79972 90.95857,-322.926035 199.76959,-203.803322 173.23336,-105.08587 -38.42549,18.2946 -86.19377,-79.653591 -127.10308,151.77295 351.83076,273.68367 529.96915,153.42779 433.56187,268.3977 -160.24283,74.31456 -384.06363,-44.47344 -482.1474,-323.71355 107.09922,-326.137328 200.00471,-166.51655 175.27647,-70.1783 -44.85171,-13.77912 -95.58223,-88.27185 -117.72075,159.05364 385.31352,220.12042 545.25824,86.47771 439.60185,226.60982 -186.88822,86.3084 -411.13592,-47.75439 -499.70743,-326.83722 125.03685,-324.27999 201.53709,-125.06071 177.20433,-34.36755 -52.16524,-47.99437 -104.63961,-88.21418 -104.88314,169.46875 413.59498,157.70657 553.69228,19.3983 438.77178,185.73548 -215.70128,95.08827 -437.08455,-58.28168 -513.5824,-334.96365 144.36041,-316.424713 204.39056,-80.31273 178.27197,1.542 -59.86292,-77.04944 -111.42834,-77.3952 -87.63735,182.9832 435.64472,88.19103 555.24119,-45.92052 430.74411,147.23366 -246.61875,98.86462 -461.40077,-77.24714 -523.61079,-348.67573 164.45259,-301.702438 208.21243,-32.98136 177.65736,36.68083 -67.14423,-94.74745 -113.5711,-54.44255 -65.10824,199.4361 450.69839,13.62067 550.00415,-107.60452 415.27215,112.54355 -279.35663,95.66864 -483.35763,-105.64746 -529.55904,-368.33555 184.48069,-279.398058 212.41525,16.24298 174.59086,70.07843 -72.73109,-96.7339 -108.53814,-18.96165 -36.65535,218.60765 458.29291,-63.76762 538.2107,-163.81571 392.20602,83.04118 -313.31684,83.43893 -501.99027,-144.18588 -531.11178,-394.06404 203.40453,-249.066428 216.22338,66.67114 168.53978,100.70016 -74.65087,-79.95552 -94.08189,28.23923 -2.07333,240.22186 458.27955,-141.66397 520.2174,-212.787 361.50741,59.97461 -347.50513,60.16923 -516.10292,-193.15376 -527.87403,-425.72247 220.01126,-210.649251 218.73735,117.62346 159.46745,127.76708 -70.45191,-43.20592 -68.79413,84.82725 38.14557,263.679 450.82065,-217.79936 496.50192,-252.86688 323.26253,44.3885 -380.47259,24.12518 -524.30565,-252.29588 -519.38367,-462.88107 232.97871,-164.598594 219.03066,168.42247 148.08827,151.74184 -57.82729,11.33366 -32.65244,146.14476 82.56711,287.1175 436.36939,-290.05116 467.64836,-282.56783 277.69011,37.04375 -410.30746,-25.88084 -525.08754,-320.68088 -505.13369,-504.79456 240.9776,-111.982145 216.27885,218.39321 135.56913,175.56696 -34.98295,76.48846 13.05987,204.36555 129.1441,306.23189 415.63196,-356.54065 434.3215,-300.62559 225.14401,38.33372 C -793.67556,529.96806 -875.90899,223.5491 -843.58565,69.770562 -600.75194,15.17533 -633.67654,336.65212 -721.1338,272.97174 c -0.34699,141.6764 66.73455,250.47153 176.33692,315.77868 389.51809,-415.70235 397.23305,-306.0475 166.11511,48.21661 -451.09328,-167.92076 -498.47191,-477.48049 -457.33551,-598.162579 237.90567,4.883624 199.73839,313.322359 108.65361,236.964619 46.7401,196.29619 126.48827,277.46595 223.16665,312.26957 359.08665,-466.33228 357.10495,-298.16078 101.23523,66.16819 C -859.90603,397.30783 -871.62668,94.228511 -825.90148,7.8609667 -598.73191,71.068362 -639.84925,365.20256 -731.60622,285.50871 -626.78963,516.35385 -542.06947,566.27309 -463.15003,579.39692 -137.66759,71.779331 -148.52772,302.7482 -431.87078,670.56097 -881.91588,317.11823 -858.85873,30.516005 -813.09324,-22.198952 -599.78795,96.786403 -643.5161,376.63629 -733.08207,302.9386 -563.03434,540.66085 -480.8924,560.86198 -422.49556,562.82374 -132.6175,23.690115 -152.10214,321.24982 -465.32152,684.52873 -894.20957,231.92942 -838.92229,-28.683902 -797.5556,-50.424797 c 197.8244,172.303047 151.35441,437.918177 66.94722,378.468697 236.72667,212.42164 310.21702,208.74912 347.56485,210.53928 253.4203,-560.822226 224.91632,-193.39444 -119.9892,155.88525 -392.98774,-548.53489 -309.46,-774.94712 -276.35152,-770.28058 181.12806,222.49416 132.59309,474.71971 56.64131,435.68589 298.1995,154.41397 359.3221,135.39287 377.20831,147.30323 217.18069,-572.953267 178.55063,-132.96277 -198.94874,191.5109 -343.09095,-635.159445 -236.34679,-821.0844 -214.3407,-796.044347 163.45641,268.429347 114.57694,509.114267 50.79998,493.760277 347.97618,67.32668 395.64962,42.2339 397.41205,72.90135 182.11965,-576.07055 131.50966,-61.51905 -278.26911,226.26122 -281.21059,-706.87001 -156.78805,-848.28807 -147.39842,-809.68076 145.11116,308.91865 98.64013,540.50396 51.00292,548.66363 380.77475,-41.63424 416.26619,-64.50151 406.47473,-8.72897 149.0619,-570.93077 83.86964,19.32618 -356.35571,257.88182 -210.45702,-759.27238 -73.86413,-854.45555 -77.15425,-808.97862 126.49483,342.89776 86.14659,567.72079 58.3879,595.6621 393.2876,-162.8624 419.53972,-177.36656 403.42473,-92.7122 118.67941,-558.43796 35.59335,107.62654 -431.49394,284.39857 -134.69684,-789.73362 9.07423,-839.0004 -5.62895,-792.3153 108.11571,369.54412 78.42179,589.05219 73.39171,629.82027 384.53971,-285.8399 405.35432,-288.50003 388.26342,-173.71143 91.4891,-539.58169 -13.42232,201.14029 -501.91776,304.31659 -58.10447,-797.64893 88.74899,-802.94936 64.8679,-758.88115 90.57544,388.36932 76.6166,602.37897 95.61003,646.64784 355.82595,-400.63125 375.11671,-390.50125 362.06653,-246.54863 67.85677,-515.37975 -63.28868,297.39479 -565.90911,316.78443 15.29422,-784.38967 162.29389,-748.82298 131.89423,-708.85841 74.53796,399.28211 81.52943,605.41807 123.81222,642.76445 310.29423,-499.1132 331.54795,-477.234969 326.90564,-306.84784 48.00847,-486.82687 -114.05832,393.77129 -621.92144,321.69088 81.99753,-752.96545 227.52679,-680.31048 193.07866,-643.52032 60.68239,402.62592 93.43134,596.05305 156.10743,616.44373 252.30015,-575.770875 278.29644,-544.436143 285.59732,-351.56722 32.0477,-454.85705 -165.65717,487.61187 -668.71174,319.67193 139.26365,-707.50085 283.09593,-601.80341 246.35566,-565.220181 49.63374,399.179351 111.93669,572.708671 190.20819,567.915681 186.6806,-627.99159 219.44513,-590.01154 241.33488,-379.31259 19.97421,-420.31148 -217.82923,576.35301 -705.46225,312.02456 185.19553,-652.64695 328.47715,-517.89621 290.20373,-477.25293 41.87589,390.11243 135.95364,534.69806 223.72263,499.36036 118.07811,-655.89481 159.004,-614.01632 197.27829,-390.374131 11.7043,-383.918679 -270.10113,657.674751 -731.86952,300.532031 218.69885,-593.02151 363.84866,-432.969319 323.85951,-383.572527 37.64991,376.877067 163.72554,482.442257 254.39461,414.581757 50.41924,-661.80122 100.47897,-618.32891 156.18886,-386.4980893 7.09108,-346.2852907 -321.77802,729.6541493 -748.18105,287.2288593 239.36152,-532.73614 389.91187,-350.918241 347.45498,-288.376057 36.86848,361.015187 192.9687,417.475577 280.2624,318.412737 -13.40063,-649.49015 46.57891,-606.12699 120.17269,-370.470572 5.94201,-307.888348 -371.97341,790.909872 -755.17299,274.149222 247.29843,-475.01772 407.72359,-275.008282 362.01701,-195.59283 39.09813,343.88824 221.11479,342.19777 299.75422,215.95722 -71.61411,-623.39723 -0.91043,-581.27747 90.56431,-345.60943 8.0347,-269.08102 -419.67555,840.71124 -754.0679,263.09946 242.9972,-421.91891 418.55764,-207.815105 369.27562,-108.410622 43.66514,326.412802 245.65606,259.462802 311.78052,111.856602 -123.49217,-587.89074 -41.09726,-547.75842 67.94709,-315.27558 13.12952,-230.09699 -463.83888,879.03766 -746.40975,255.492855 227.19502,-374.097585 423.78984,-151.20616 371.3229,-29.024292 49.8601,308.958337 264.52853,172.193447 315.82745,9.814313 -169.12001,-546.715846 -73.83711,-509.196656 52.27828,-282.480226 20.97913,-191.06127 -503.49078,906.57287 -733.91679,252.274716 200.81553,-330.668946 424.78862,-106.371166 370.27393,41.316338 57.11398,291.454736 276.37226,83.145496 311.96702,-87.5346379 C -434.22449,-505.68242 -324.64308,-471.59063 -182.04922,-252.6578 -150.71438,-404.65955 -719.88246,671.97571 -900.38603,1.2792447 -735.38372,-287.8573 -477.57564,-72.617883 -532.33566,103.35957 c 65.05202,273.59455 280.57822,-5.232171 300.73196,-178.518768 -244.25292,-457.420242 -118.84414,-428.041772 39.60518,-218.426632 43.95029,-112.86271 -566.32359,935.0383 -701.32475,260.611192 121.2819,-245.443822 418.90638,-53.890478 366.28885,153.202928 73.44617,254.98934 277.1563,-90.918181 282.90784,-262.25594 -275.32637,-411.7258 -132.60359,-389.01901 41.08324,-189.86529 58.58255,-73.51863 -588.71869,939.94022 -684.35392,272.212821 71.87285,-194.218361 413.84838,-46.127151 366.31659,194.860489 82.13627,235.25448 266.52581,-172.418789 259.332,-338.46855 -302.81182,-365.53764 -141.53133,-352.20443 46.7917,-164.35876 74.99131,-33.7867 -605.08027,941.64463 -668.66115,288.612325 20.1174,-129.319985 408.07626,-50.201745 369.15447,227.279595 90.96534,214.04497 249.30051,-248.80501 230.74691,-407.30296 -326.81975,-318.39471 -146.18832,-317.79566 56.17955,-141.88738 92.93624,6.55738 -615.7298,942.44816 -655.21777,309.796418 -29.05616,-44.822958 401.66296,-65.645708 375.52727,250.571002 99.73708,191.07995 226.10506,-319.67313 197.71779,-469.14313 -347.05855,-269.76783 -146.90782,-285.68312 68.90475,-122.18618 112.17353,47.76731 -621.1769,944.50468 -644.71364,336.00934 -68.81597,63.472496 394.29093,-91.99027 385.8713,264.59059 108.20017,166.16514 197.43739,-385.01724 160.60608,-524.42693 -362.89445,-219.38688 -143.786,-255.65817 84.83749,-104.93176 132.45198,90.11274 -622.01841,949.74317 -637.53692,367.85295 -90.51382,196.05426 385.2344,-128.74702 400.32849,268.84146 116.04791,139.21441 163.57771,-445.04405 119.58474,-573.47788 -373.46979,-167.49122 -136.71067,-227.60624 104.03115,-89.91373 153.50856,133.86296 -618.82922,959.82588 -633.73801,406.338604 -84.4508,347.533276 373.35148,-175.298474 418.7166,262.420346 122.93248,110.26979 124.54769,-499.93837 74.68893,-616.36079 -377.85858,-114.97708 -125.42296,-201.66963 126.66562,-77.17859 175.06515,179.27516 -612.05332,976.13824 -632.96852,452.878723 -41.50256,504.919807 357.10003,-230.689793 440.47072,244.023997 128.48898,79.5089 80.12079,-549.60375 25.89417,-652.77847 -375.23038,-63.4324 -109.60534,-178.36351 152.96623,-67.1328 196.826205,226.57857 -601.90396,999.78973 -634.39366,509.203462 44.47139,647.187558 334.60608,-293.334002 464.555,212.030458 132.36273,47.24159 29.89224,-593.40343 -26.78421,-682.02604 -365.00355,-15.06159 -88.99011,-158.62778 183.10524,-60.58661 218.477792,275.95805 -588.27936,1031.60174 -636.58765,577.181295 173.88188,746.942845 303.81304,-360.675915 489.35639,164.677015 134.2356,13.89113 -26.58065,-629.93997 -83.18174,-703.01893 -346.97174,27.48514 -63.47875,-143.80023 217.09373,-58.72593 239.68945,327.54244 -570.6986,1072.06105 -637.4319,658.521745 339.12893,774.561635 262.74914,-428.880255 512.5796,100.356435 133.84927,-20.03992 -89.56478,-656.93528 -142.88116,-714.40411 -321.39111,61.36336 -33.25024,-135.50058 254.68117,-63.00021 260.117943,381.38692 -548.2658,1121.21889 -634.05205,754.34247 523.73862,704.34386 916.173573,-72.726503 526.34792,-919.72422 -247.92187,10.33313 -154.04812,266.49116 -200.3043,223.02396 -289.01491,83.83877 333.54064,525.70356 239.25617,674.24626 -51.89221,-308.50965 322.635882,30.17954 -260.04445,580.61765"
       id="path2996"
       inkscape:connector-curvature="0"
       sodipodi:nodetypes="csssssssssssssssssssssssssssssssssssssssssssssssssssssssssssssssssssssssssssssssssssssssssssssssssssssssssssssssssssssssssssssssssssssssssssssssssssssssssssssssssssssssssssssssssssssssssssssssssssssssssssssssssssssssssssssssssssssssssssssc" />
  </g>
</svg>
