<?xml version="1.0" encoding="UTF-8" standalone="no"?>
<!-- Created with Inkscape (http://www.inkscape.org/) -->

<svg
   xmlns:dc="http://purl.org/dc/elements/1.1/"
   xmlns:cc="http://creativecommons.org/ns#"
   xmlns:rdf="http://www.w3.org/1999/02/22-rdf-syntax-ns#"
   xmlns:svg="http://www.w3.org/2000/svg"
   xmlns="http://www.w3.org/2000/svg"
   xmlns:sodipodi="http://sodipodi.sourceforge.net/DTD/sodipodi-0.dtd"
   xmlns:inkscape="http://www.inkscape.org/namespaces/inkscape"
   sodipodi:docname="spiral017.svg"
   inkscape:version="0.48.2 r9819"
   version="1.1"
   id="svg3783"
   height="1052.3622047"
   width="744.09448819">
  <sodipodi:namedview
     id="base"
     pagecolor="#ffffff"
     bordercolor="#666666"
     borderopacity="1.0"
     inkscape:pageopacity="0.0"
     inkscape:pageshadow="2"
     inkscape:zoom="0.35"
     inkscape:cx="176.90095"
     inkscape:cy="755.32167"
     inkscape:document-units="px"
     inkscape:current-layer="layer1"
     showgrid="false"
     inkscape:window-width="1084"
     inkscape:window-height="748"
     inkscape:window-x="82"
     inkscape:window-y="-16"
     inkscape:window-maximized="0" />
  <defs
     id="defs3785" />
  <metadata
     id="metadata3788">
    <rdf:RDF>
      <cc:Work
         rdf:about="">
        <dc:format>image/svg+xml</dc:format>
        <dc:type
           rdf:resource="http://purl.org/dc/dcmitype/StillImage" />
        <dc:title></dc:title>
      </cc:Work>
    </rdf:RDF>
  </metadata>
  <g
     id="layer1"
     inkscape:groupmode="layer"
     inkscape:label="Layer 1">
    <rect
       y="12.284647"
       x="7.8454075"
       height="779.49591"
       width="516.12524"
       id="rect4319"
       style="fill:none;stroke:#000000;stroke-width:0.91610378;stroke-opacity:1" />
    <flowRoot
       style="fill:black;stroke:none;stroke-opacity:1;stroke-width:1px;stroke-linejoin:miter;stroke-linecap:butt;fill-opacity:1;font-family:Sans;font-style:normal;font-weight:normal;font-size:40px;line-height:125%;letter-spacing:0px;word-spacing:0px"
       id="flowRoot3475"
       xml:space="preserve"><flowRegion
         id="flowRegion3477"><rect
           y="840.23016"
           x="40.406101"
           height="76.771591"
           width="474.7717"
           id="rect3479" /></flowRegion><flowPara
         id="flowPara3481" /></flowRoot>    <path
       id="path3106"
       d="m 229.4284,307.49328 c 1.10397,0.80629 -122.89381,-7.57882 -123.0217,-7.35989 -0.17478,0.30418 31.29691,190.2328 32.86639,193.24005 2.20012,3.91953 -44.8047,-179.19875 -44.40389,-179.97156 0.50935,-0.95899 133.12685,-7.64835 135.21656,-5.95651 2.5041,1.74636 -117.21378,-12.74015 -118.07889,-11.88569 -0.9861,1.01217 25.42791,193.71677 28.55804,199.70199 4.12874,6.90055 -51.36084,-172.39451 -50.43465,-174.42404 1.09874,-2.28446 137.12885,-16.316 140.61795,-13.45757 3.90507,2.48998 -111.34388,-16.72077 -113.01404,-15.46579 -1.79228,1.45233 19.45024,196.27624 24.14775,205.20707 6.29342,9.84837 -57.401187,-164.49571 -56.084572,-168.01835 1.555782,-3.81137 140.731812,-25.83193 145.618202,-21.80652 5.30657,3.03637 -105.40648,-19.49419 -107.89536,-18.09828 -2.59286,1.65398 13.43025,197.90675 19.70303,209.75357 8.69156,12.73938 -62.828172,-155.58076 -61.291571,-160.79847 1.866001,-5.53484 143.873261,-36.14996 150.156031,-30.95932 6.70683,3.3801 -99.5039,-21.06986 -102.7906,-19.79019 -3.36921,1.6293 7.43579,198.61598 15.29056,213.34823 11.32187,15.55275 -67.555951,-145.7331 -65.996424,-152.81585 2.00975,-7.43839 146.494354,-47.21626 154.173234,-40.8644 8.10363,3.51589 -93.73326,-21.47434 -97.76627,-20.55712 -4.10094,1.39096 1.53423,198.42124 10.9762,216.00692 14.18151,18.26735 -71.506883,-135.04634 -70.144022,-144.12931 1.967176,-9.50106 148.539962,-58.97045 157.615302,-51.46341 9.49412,3.43892 -88.18711,-20.7486 -92.88704,-20.42286 -4.76839,0.95409 -4.20882,197.3483 6.82383,217.75382 17.2674,20.86294 -74.61093,-123.62406 -73.683119,-134.80415 1.719458,-11.69813 149.959199,-71.34525 160.431839,-62.691 10.87466,3.14401 -82.953,-18.94787 -88.21509,-19.42005 -5.35344,0.33679 -9.73038,195.43151 2.89467,218.62145 20.57549,23.3197 -76.80615,-111.57865 -76.566997,-124.91153 1.249765,-14.0015 150.705747,-84.26745 162.577027,-74.47636 12.24089,2.62662 -78.11215,-16.1396 -83.80951,-17.58872 -5.83974,-0.44023 -14.97049,192.71298 -0.75287,218.65042 24.10069,25.61805 -78.039626,-99.03064 -78.754005,-114.52822 0.543223,-16.38049 150.738155,-97.6588 164.009875,-86.74307 13.5878,1.88266 -73.73844,-12.40327 -79.72554,-14.97667 -6.21325,-1.35387 -19.87279,189.24265 -4.06444,217.88877 27.83746,27.73921 -78.267432,-86.10708 -80.207575,-103.73564 -0.412714,-18.80187 150.020325,-111.43595 164.694715,-99.40984 14.90949,0.90801 -69.89732,-7.82907 -76.01419,-11.63884 -6.46233,-2.37874 -24.38537,185.07738 -6.98969,216.39178 C 184.98649,540.5528 75.751875,437.94747 72.310661,418.26875 70.682505,397.03858 220.83237,292.75704 236.91201,305.87707 c 16.19947,-0.3003 -66.64442,-2.5166 -72.72142,-7.63648 -6.57819,-3.4876 -28.46134,180.28059 -9.48343,214.22122 35.91787,31.37685 -75.58018,-59.66777 -80.796727,-81.26813 -3.110516,-23.62864 146.217427,-139.79583 163.705337,-125.6004 17.45043,-1.74503 -64.0248,3.42632 -69.88762,-3.03672 -6.55493,-4.65184 -32.05923,174.92181 -11.5061,211.44481 40.24617,32.85875 -72.626973,-46.42763 -79.88776,-69.77341 -4.864441,-25.95893 143.08871,-154.19504 161.98816,-138.94488 18.65437,-3.4281 -61.99366,9.78267 -67.54688,2.08801 C 164.38569,301.52964 135.6315,476.4465 157.75135,515.50653 202.50623,549.60059 89.15887,482.1461 79.594464,457.2779 72.702753,429.09624 218.71718,288.66338 239.03174,304.94546 c 19.80267,-5.3507 -59.95588,16.0065 -65.72417,7.66404 -6.08558,-7.02816 -37.68985,162.81746 -14.01349,204.36754 49.43458,35.06748 -63.48335,-20.60647 -75.597019,-46.72816 -9.191143,-30.25713 134.312819,-182.9584 156.046279,-165.66923 20.88606,-7.51335 -57.78103,22.02403 -64.1621,13.50797 -5.91975,-8.07343 -39.95291,156.33357 -14.7322,200.32498 54.27544,35.76454 -57.31595,-8.304 -72.20694,-35.3668 -11.758624,-32.14542 128.65846,-197.13038 151.81484,-178.86097 21.89461,-9.9157 -55.48005,27.81861 -62.48859,19.24605 -6.23869,-8.63178 -42.30428,149.99977 -15.55272,196.38232 59.26636,36.17144 -50.11716,3.41116 -67.99212,-24.23924 -14.587073,-33.80678 122.16531,-211.0344 146.74865,-191.81403 22.81797,-12.55619 -53.06324,33.37057 -60.70485,24.84314 -6.7772,-8.79277 -44.74179,143.85357 -16.47464,192.57553 64.39632,36.27566 -41.92278,14.40769 -62.96346,-13.43879 -17.666431,-35.20221 114.84498,-224.57574 140.85944,-204.43563 23.64518,-15.4327 -50.53925,38.65654 -58.81858,30.28793 -7.32679,-8.80818 -47.25681,137.90834 -17.49086,188.91662 69.65378,36.06541 -32.77793,24.55955 -57.13782,-3.057 -20.98392,-36.29396 106.71492,-237.66152 134.16463,-216.63507 24.36492,-18.54187 -47.91408,43.64914 -56.83709,35.5677 -7.87337,-8.733 -49.84068,132.17955 -18.59459,185.41919 75.02646,35.53005 -22.73624,33.74722 -50.53787,6.81687 -24.52378,-37.04529 97.79838,-250.20117 126.68739,-228.3239 24.96548,-21.87929 -45.18988,48.3168 -54.76677,40.66729 -8.41635,-8.56705 -52.48619,126.68425 -19.77996,182.09923 80.50208,34.65988 -11.85925,41.8588 -43.19167,16.09657 -28.26777,-37.42154 88.12402,-262.10737 118.45626,-239.41683 25.43487,-25.43941 -42.36402,52.62442 -52.61248,45.56878 -8.95626,-8.30259 -55.1873,121.44296 -21.04245,178.97572 86.06767,33.44628 -0.21609,48.79058 -35.13252,24.69969 -32.19504,-37.39002 77.72573,-273.29646 109.50489,-249.83225 25.76078,-29.21592 -39.42931,56.5343 -50.37662,50.2507 -9.49564,-7.92911 -57.94047,116.47931 -22.38038,176.07079 91.71037,31.88172 12.11805,54.44847 -26.39829,32.54798 -36.28237,-36.92044 66.64234,-283.68898 99.87179,-259.49294 25.93078,-33.20093 -36.37501,60.00793 -48.05827,54.68865 -10.03956,-7.43458 -60.74554,111.82013 -23.79494,173.4101 97.41696,29.95966 25.06173,58.74814 -17.03171,39.56783 -40.50444,-35.98532 54.91727,-293.2103 89.59994,-268.32637 25.93238,-37.38547 -33.18983,63.00767 -45.65236,58.85543 -10.59606,-6.80688 -63.60627,107.49514 -25.29143,171.02189 103.17385,27.67464 38.52846,61.61585 -7.07965,45.6909 -44.83404,-34.5601 42.59805,-301.79112 78.73651,-276.26497 25.7529,-41.75972 -29.86518,65.49724 -43.14995,62.72153 -11.17492,-6.03501 -66.53059,103.53569 -26.87923,168.93649 108.96748,25.02229 52.42775,62.98891 3.40724,50.85429 -49.24192,-32.62323 29.73625,-309.36757 67.33242,-283.24706 25.37976,-46.31241 -26.39829,67.44347 -40.53868,66.25719 -11.78605,-5.11058 -69.52959,99.97395 -28.57106,167.18478 114.78442,21.99943 66.66585,62.81616 14.37527,55.00131 -53.69775,-30.15683 16.38658,-315.882 55.44177,-289.21694 24.80045,-51.03096 -22.79441,68.81635 -37.80534,69.43313 -12.4362,-4.02872 -72.61514,96.8416 -30.38026,165.79726 120.6109,18.60364 81.14617,61.05783 25.7673,58.08121 -58.16967,-27.14636 2.60698,-321.28291 43.12181,-294.12492 24.00254,-55.90188 -19.06753,69.58896 -34.93834,72.22117 -13.12586,-2.78817 -75.79758,94.16887 -32.31861,164.80309 126.43345,14.83366 95.77054,57.686 37.52383,60.04983 -62.62484,-23.58097 -11.5421,-325.52548 30.43216,-297.92804 22.97389,-60.91021 -15.24,69.73849 -31.93029,74.5953 -13.84732,-1.3904 -79.08291,91.98408 -34.39374,164.22945 132.23839,10.68948 110.44015,52.68455 49.58339,60.86973 -67.02972,-19.45358 -25.99806,-328.57139 17.43449,-300.58987 21.70257,-66.03984 -11.34154,69.24647 -28.77977,76.53117 -14.58474,0.16167 -82.47127,90.31345 -36.60709,164.10187 138.01244,6.17169 125.05604,46.04878 61.8827,60.51012 -71.35014,-14.76086 -40.69667,-330.38944 4.19214,-302.08065 20.17689,-71.27379 -7.40801,68.09875 -25.49228,78.00639 -15.31615,1.86402 -85.95566,89.18142 -38.95337,164.44365 143.74238,1.28216 139.51993,37.78568 74.35739,58.94722 -75.55193,-9.50348 -55.57233,-330.95506 -9.23045,-302.37792 18.38563,-76.5932 -3.47982,66.28702 -22.07981,79.0011 -16.01645,3.71203 -89.5226,88.60995 -41.42025,165.27615 149.41487,-3.9765 153.73502,27.91304 86.94197,56.16393 -79.60064,-3.68568 -70.55877,-330.25104 -22.7681,-301.46578 16.31794,-81.97844 0.39915,63.80816 -18.56049,79.49753 -16.66017,5.69986 -93.15238,88.6188 -43.98989,166.6182 155.01736,-9.60056 167.60705,16.45967 99.57113,52.15031 -83.46229,2.68423 -85.58921,-328.26681 -36.35521,-299.33515 13.96336,-87.40876 4.18273,60.66442 -14.95768,79.48085 -17.22331,7.81989 -96.82007,89.22439 -46.63861,168.48563 160.53708,-15.58562 181.04425,3.46438 112.17926,46.9029 -87.10348,9.59446 -100.59715,-324.99871 -49.92664,-295.98396 11.31206,-92.86196 7.82372,56.86422 -11.29853,78.93928 -17.68464,10.06292 -100.49687,90.44026 -49.33921,170.89155 165.96192,-21.9263 193.95867,-11.02408 124.7014,40.42516 -90.49138,17.02944 -115.51628,-320.44993 -63.41739,-291.41669 8.35487,-98.31454 11.27418,52.42166 -7.61363,77.8647 -18.02566,12.41714 -104.15042,92.2762 -52.0609,173.84514 171.27984,-28.61634 206.26631,-26.94802 137.07337,32.72689 -93.59411,24.9702 -130.28128,-314.63012 -76.76363,-285.64433 5.08298,-103.74206 14.48669,47.35639 -3.93564,76.25228 -18.23082,14.86925 -107.74618,94.73858 -54.7707,177.35251 176.47928,-35.64889 217.88781,-44.24139 149.23223,23.82423 -96.38119,33.39437 -144.828,-307.55541 -89.90267,-278.68413 1.48855,-109.11864 17.41454,41.69338 -0.29898,74.10128 -18.28724,17.40391 -111.24789,97.82949 -57.43386,181.4154 181.54903,-43.01628 228.74858,-62.83006 161.11654,13.73943 -98.82323,42.27645 -159.09389,-299.24799 -102.77352,-270.55943 -2.43565,-114.41728 20.01237,35.46274 3.26112,71.41492 -18.18445,20.0043 -114.61841,101.54682 -60.01482,186.03181 186.47836,-50.71014 238.77984,-82.63329 172.66695,2.50043 -100.89272,51.58794 -173.01827,-289.73592 -115.31719,-261.29937 -6.69601,-119.60968 22.2365,28.69958 6.70907,68.20005 C 245.6887,374.55107 145.78293,457.78332 201.12528,543.09433 392.38218,484.37295 449.04374,439.53036 384.95154,533.23509 282.38799,594.53264 198.40887,254.18225 257.47467,282.29653 246.17669,157.63034 281.51991,303.74004 267.4839,346.76423 250.01376,372.09479 146.66906,457.59809 202.69794,543.66237 398.57261,476.622 458.8049,418.13301 397.23744,520.36147 293.42576,591.73293 197.62641,253.12381 258.03919,280.84488 241.79304,151.28857 283.43822,294.58294 271.16556,341.07708 254.31774,369.09559 147.60005,457.45692 204.26138,544.20182 404.58364,468.54487 467.55593,395.76931 409.01623,506.42055 304.40113,588.19421 196.84594,252.0866 258.58619,279.34264 237.0421,145.09473 284.84699,284.97366 274.6123,334.85473 258.56791,365.5517 148.57709,457.35984 205.81496,544.71324 410.40574,460.15289 475.25154,372.541 420.23814,491.46077 315.28435,583.92671 196.06813,251.07081 259.11443,277.78939 231.92037,139.08163 285.71028,274.96298 277.78945,328.11818 262.73097,361.4648 149.60124,457.3065 207.35811,545.1971 416.02989,451.45773 481.85298,348.55285 430.85667,475.53458 326.04659,578.94296 195.29365,250.07655 259.62267,276.18463 226.4253,133.28325 285.99481,264.60524 280.66353,320.89185 266.77343,356.83985 150.67395,457.29692 208.89044,545.65401 421.4476,442.47157 487.3281,323.91159 440.82864,458.69805 336.66027,573.25752 194.52305,249.10383 260.10959,274.52798 220.55573,127.73497 285.66975,253.95759 283.20248,313.20337 270.66192,351.68537 151.79643,457.33041 210.4112,546.08445 426.65083,433.2071 491.65113,298.72576 450.11431,441.01055 347.09871,566.88697 193.75707,248.15275 260.57386,272.81911 214.31186,122.47335 284.70699,243.08065 285.37567,305.08312 274.3635,346.01301 152.97019,457.40648 211.92006,546.48903 431.63218,423.67729 494.80278,273.10468 458.67756,422.53423 357.33646,559.84981 192.9963,247.22323 261.01406,271.0576 207.69548,117.53629 283.081,232.03775 287.15411,296.56403 277.84583,339.83773 154.19671,457.52428 213.41645,546.86831 436.38478,413.89526 496.77011,247.15763 466.48581,403.33386 367.34936,552.16612 192.24142,246.3152 261.42881,269.2434 200.7096,112.96275 280.76889,220.89511 288.51047,287.68166 281.07731,333.17736 155.47748,457.68264 214.89997,547.22283 440.90225,403.87464 497.54632,220.99359 473.51039,383.47583 377.11459,543.85766 191.49307,245.42855 261.81663,267.37613 193.35952,108.79303 277.75049,209.72176 289.4191,278.4737 284.02742,326.05293 156.81421,457.88038 216.37009,547.55318 445.17877,393.6292 497.13063,194.71985 479.72621,363.02863 386.61052,534.94753 190.75188,244.56313 262.17598,265.45565 c -76.5239,-160.38718 11.83245,-66.86599 27.68021,3.5245 C 286.66671,318.48794 158.2084,458.11574 217.82633,547.85993 449.20908,383.17289 495.52801,168.44216 485.11197,342.06163 395.81709,525.46007 190.0185,243.71874 262.50539,263.48204 c -84.9092,-161.65058 7.02268,-75.90843 27.29422,-4.23927 -0.83266,51.26585 -130.13774,199.1443 -70.53129,288.9009 C 452.98843,372.51989 492.74894,142.26398 489.65013,320.64527 404.7155,515.42079 189.29353,242.89515 262.80317,261.45508 169.20311,99.125338 264.29785,176.75155 289.22908,249.30535 290.90122,302.14375 161.17634,458.69214 220.69559,548.40499 456.51268,361.68425 488.80922,116.28581 493.32681,298.8504 413.28843,504.85621 188.57757,242.09208 263.06779,259.375 160.48616,96.994243 258.30937,166.20456 288.1261,239.21343 292.44399,293.42406 181.52442,358.9187 78.108751,408.09898 387.33576,524.4568 483.72948,90.604663 496.13184,276.7479 421.52005,493.79343 187.87126,241.3093 263.29757,257.24188 151.46164,95.483035 251.55752,156.01693 286.47388,229.01416 293.5712,284.3826 182.81639,361.43697 78.276876,409.4738 395.69439,515.37096 477.5351,65.31417 498.0586,254.40849 429.39577,482.26074 187.17515,240.54642 263.49076,255.0558 142.14833,94.637054 244.04105,146.27648 284.25744,218.75634 294.26022,275.0544 184.13594,363.92657 78.452823,410.8168 403.78165,505.80331 470.25569,40.503555 499.10392,231.90241 436.90264,470.28657 186.4898,239.80312 263.64564,252.81713 132.5677,94.501922 235.7628,137.07457 281.46358,208.49045 294.48997,265.47628 185.48323,366.38254 78.635954,412.12773 411.58294,495.77469 461.92484,16.257711 499.26803,209.29867 444.02908,457.89988 185.81577,239.07905 263.76045,250.52617 122.74472,95.123296 226.72992,128.50603 278.0809,198.26872 294.24079,255.68673 186.85879,368.79894 78.825643,413.40635 419.085,485.30628 452.57975,-7.3432877 498.5544,186.66551 450.7649,445.12994 185.15361,238.37384 263.83335,248.18334 112.7074,96.546614 216.955,120.66945 274.09981,188.145 c 14.13314,36.32756 5.75677,151.96122 -71.52835,192.95495"
       style="fill:none;stroke:#000000;stroke-width:0.66844988px;stroke-linecap:butt;stroke-linejoin:miter;stroke-opacity:1"
       inkscape:connector-curvature="0"
       sodipodi:nodetypes="ccccccccccccccccccccccccccccccccccccccccccccccccccccccccccccccccccccccccccccccccccccccccccccccccccccccccccccccccccccccccccccccccccccccccccccccccccccccccccccccccccccccccccccccccccccccccccccccccccccccccccccccccccccccccccccccccccccccccccccccc" />
  </g>
</svg>
