<?xml version="1.0" encoding="UTF-8" standalone="no"?>
<!-- Created with Inkscape (http://www.inkscape.org/) -->

<svg
   xmlns:dc="http://purl.org/dc/elements/1.1/"
   xmlns:cc="http://creativecommons.org/ns#"
   xmlns:rdf="http://www.w3.org/1999/02/22-rdf-syntax-ns#"
   xmlns:svg="http://www.w3.org/2000/svg"
   xmlns="http://www.w3.org/2000/svg"
   xmlns:sodipodi="http://sodipodi.sourceforge.net/DTD/sodipodi-0.dtd"
   xmlns:inkscape="http://www.inkscape.org/namespaces/inkscape"
   sodipodi:docname="spiral018v1.svg"
   inkscape:version="0.48.2 r9819"
   version="1.1"
   id="svg3783"
   height="1052.3622047"
   width="744.09448819">
  <sodipodi:namedview
     id="base"
     pagecolor="#ffffff"
     bordercolor="#666666"
     borderopacity="1.0"
     inkscape:pageopacity="0.0"
     inkscape:pageshadow="2"
     inkscape:zoom="0.35"
     inkscape:cx="176.90095"
     inkscape:cy="983.8931"
     inkscape:document-units="px"
     inkscape:current-layer="layer1"
     showgrid="false"
     inkscape:window-width="1084"
     inkscape:window-height="748"
     inkscape:window-x="82"
     inkscape:window-y="6"
     inkscape:window-maximized="0" />
  <defs
     id="defs3785" />
  <metadata
     id="metadata3788">
    <rdf:RDF>
      <cc:Work
         rdf:about="">
        <dc:format>image/svg+xml</dc:format>
        <dc:type
           rdf:resource="http://purl.org/dc/dcmitype/StillImage" />
        <dc:title></dc:title>
      </cc:Work>
    </rdf:RDF>
  </metadata>
  <g
     id="layer1"
     inkscape:groupmode="layer"
     inkscape:label="Layer 1">
    <rect
       y="12.284647"
       x="7.8454075"
       height="779.49591"
       width="516.12524"
       id="rect4319"
       style="fill:none;stroke:#000000;stroke-width:0.91610378;stroke-opacity:1" />
    <flowRoot
       style="fill:black;stroke:none;stroke-opacity:1;stroke-width:1px;stroke-linejoin:miter;stroke-linecap:butt;fill-opacity:1;font-family:Sans;font-style:normal;font-weight:normal;font-size:40px;line-height:125%;letter-spacing:0px;word-spacing:0px"
       id="flowRoot3475"
       xml:space="preserve"><flowRegion
         id="flowRegion3477"><rect
           y="840.23016"
           x="40.406101"
           height="76.771591"
           width="474.7717"
           id="rect3479" /></flowRegion><flowPara
         id="flowPara3481" /></flowRoot>    <path
       id="path3209"
       d="m 144.84147,264.00253 c 1.65831,-0.99429 -3.15051,2.29129 -8.79796,6.38007 -7.67006,6.13678 -14.32066,11.94369 -15.39314,12.82942 -1.43779,1.21695 5.69103,-5.46346 14.9741,-12.99641 12.0715,-8.35502 23.28478,-14.71162 24.69416,-15.29096 1.55394,-0.60588 -10.45989,6.26276 -24.32167,15.71269 -15.0939,12.79989 -26.94784,24.96041 -28.0351,25.94087 -1.40515,1.33687 10.62732,-11.92686 27.23499,-26.25853 20.48325,-13.395 39.62792,-22.3355 41.29455,-22.74089 1.49586,-0.29095 -18.40754,9.08532 -40.68835,23.4252 -22.10319,19.925 -38.160055,39.33638 -39.183495,40.3284 -1.42515,1.56062 14.468305,-19.14974 38.002065,-40.79458 29.08606,-18.00585 56.62162,-28.33696 58.54771,-28.52691 1.36696,0.0117 -26.84815,10.69472 -57.70662,29.47237 -28.65976,27.52097 -47.755395,54.91481 -48.687385,55.85447 -1.443835,1.86591 17.118965,-26.99479 47.124315,-56.46601 37.84403,-22.20983 74.05876,-32.69362 76.2604,-32.62538 1.14987,0.29335 -35.63,11.04433 -75.1827,33.82999 -34.7131,35.58376 -55.57392,71.54049 -56.410426,72.3644 -1.433682,2.24814 18.499561,-35.31237 54.465276,-73.11711 46.72047,-26.02986 91.74621,-35.41253 94.2391,-35.03373 0.84212,0.53321 -44.59796,10.10576 -92.92265,36.49492 -40.210635,44.10366 -61.475874,89.04308 -62.232467,89.68818 -1.371633,2.70224 18.547482,-43.94293 59.904737,-90.57684 55.68068,-29.49092 109.49861,-36.52272 112.29248,-35.76997 0.44812,0.71127 -53.59634,7.8689 -110.73463,37.48462 -45.098915,53.06531 -65.34061,107.23601 -66.05124,107.64159 -1.236395,3.22058 17.218495,-52.71845 63.34035,-108.66004 64.69236,-32.61995 127.13828,-36.07276 130.23306,-34.87222 -0.0227,0.80731 -62.47061,4.34184 -128.4308,36.83665 -49.324185,62.44781 -67.067328,125.91753 -67.783785,126.02849 -1.008101,3.79182 14.487999,-61.46499 64.689165,-127.1695 73.7254,-35.44554 144.49682,-34.12915 147.8795,-32.39803 -0.5566,0.80264 -71.06954,-0.44962 -145.82929,34.60798 -52.833025,72.22447 -66.577131,144.87242 -67.367929,144.64252 -0.668691,4.401 10.351734,-70.00464 63.888959,-145.89798 82.75206,-37.99756 161.41628,-30.77457 165.05842,-28.4232 -1.13637,0.68063 -79.24739,-6.46262 -162.75638,30.87388 -55.572661,82.36265 -63.814184,163.87441 -64.763214,163.26967 -0.202381,5.02928 4.826413,-78.15814 60.899354,-164.63044 91.74702,-40.30718 177.75051,-26.10639 181.60619,-23.0408 -1.74136,0.42756 -86.86549,-13.63815 -179.04802,25.7268 -57.491644,92.82374 -58.747426,182.68807 -59.951826,181.69006 0.403564,5.65475 -2.050035,-85.74712 55.702596,-183.14608 100.68693,-42.40625 193.36631,-20.23477 197.37043,-16.35973 -2.34819,0.033 -93.79417,-21.90201 -194.55147,19.27509 -58.540316,103.56286 -51.371606,201.07205 -52.939247,199.68064 1.158448,6.2524 -10.218437,-92.59636 48.304317,-201.22098 109.55055,-44.32726 208.14425,-13.28093 212.21149,-8.50322 -2.93127,-0.50952 -99.91414,-31.16608 -209.12672,11.64144 -58.671484,114.52904 -41.708207,218.78154 -43.754637,217.01746 2.067551,6.79501 -19.598624,-98.53668 38.733687,-218.63023 118.31866,-46.10312 221.9797,-5.37534 226.00403,0.39276 -3.46351,-1.2025 -105.11823,-41.32982 -222.64805,2.96119 -57.840891,125.66502 -29.805985,235.57131 -32.450785,233.47843 3.13158,7.25318 -30.090051,-103.40718 27.043855,-235.15087 126.97361,-47.76687 234.78294,3.34435 238.63746,10.18124 -3.91677,-2.04391 -109.31237,-52.28158 -235.00454,-6.61934 -56.008125,136.90773 -15.74142,251.19892 -19.10437,248.84548 4.34645,7.59658 -41.572483,-107.05732 13.31158,-250.56397 135.49953,-49.35141 246.47967,12.73503 250.01738,20.70622 -4.26275,-3.02705 -112.41654,-63.90041 -246.10151,-16.94467 -53.136932,148.18798 0.38159,265.42755 -3.81513,262.90722 5.70295,7.7945 -53.907163,-109.34972 -2.36306,-264.65738 143.88184,-50.88944 257.01109,22.6503 260.06598,31.80448 -4.4736,-4.14069 -114.36607,-76.05767 -255.86087,-27.85217 -49.196102,159.43089 18.43209,278.02938 13.29468,275.46156 7.18649,7.81646 -66.938299,-110.16234 -19.85746,-277.22817 152.10731,-52.41324 266.33356,32.94186 268.7226,43.30763 -4.52268,-5.36904 -115.11185,-88.61903 -264.22171,-39.17414 -44.160081,170.55636 38.25286,288.7887 32.08101,286.31778 8.77718,7.63336 -80.494474,-109.39012 -39.02721,-288.08489 160.16374,-53.95449 274.41846,43.46182 275.94387,55.04408 -4.38515,-6.69166 -114.62106,-101.44606 -271.14048,-50.7395 -38.009569,181.47899 59.66154,297.50474 52.37943,295.29905 10.44995,7.2181 -94.390607,-106.94726 -59.70747,-297.05002 168.04001,-55.54418 281.25162,54.06394 281.70388,66.84095 -4.03876,-8.08395 -112.87716,-114.39817 -276.59099,-62.37606 -30.732199,192.10906 82.4522,303.99488 74.00636,302.24454 12.1745,6.54653 -108.430065,-102.76868 -81.71416,-303.96207 175.7254,-57.21242 286.83254,64.60553 285.99379,78.52624 -3.4645,-9.51752 -109.8802,-127.33453 -280.56428,-73.91243 -22.323215,202.35269 106.39717,308.09728 96.76101,307.0116 13.91588,5.59817 -122.407057,-96.81164 -104.846,-308.67773 183.21003,-58.98835 291.17368,74.9489 288.82171,89.9307 C 388.26512,376.89776 285.26596,247.74243 107.84392,302.67839 95.058065,514.79084 239.09326,612.35188 228.27088,612.15574 243.90563,616.51288 92.161945,523.09876 99.384905,301.08214 289.86915,240.18211 393.68436,386.04463 389.59685,401.97178 388.02108,389.59346 289.38924,249.3654 105.46955,305.95711 103.33737,527.24532 262.21397,614.56797 250.24377,615.49766 267.53199,618.31054 100.92496,535.98794 96.640305,304.44979 294.179,241.47547 392.88533,398.9721 386.84447,415.6946 386.60026,401.96095 293.23315,251.01965 103.06364,309.43567 112.68018,539.21335 285.66757,614.26025 272.62529,616.5587 291.45563,617.51939 110.8069,548.35852 93.868575,308.03676 298.23258,242.79998 390.92397,411.5497 382.72131,428.88277 384.06981,413.89496 296.802,252.68553 100.63815,313.11954 123.06772,550.597 309.17642,611.37914 295.17755,615.29038 315.39025,614.0929 121.78649,560.10641 91.082445,311.84901 302.03324,244.13734 387.86629,423.67739 377.30768,441.40189 380.50566,425.30061 300.10076,254.34467 98.205735,317.01403 134.47188,561.29773 332.45556,605.90589 317.65685,611.66928 339.04266,608.01652 133.83265,571.12712 88.295265,315.89212 305.5846,245.47037 383.78627,435.26489 370.69688,453.12816 375.99108,436.09396 303.13489,255.98005 95.779825,321.12404 146.85485,571.21712 355.21635,597.85357 339.81658,605.69748 362.1165,599.30859 146.90402,581.31657 85.521252,320.17132 308.89084,246.78303 378.76448,446.23247 362.99382,463.94986 370.61529,446.20251 305.91012,257.57592 93.374535,325.45407 160.16916,580.25799 377.17009,587.26776 361.40983,597.40312 384.31562,588.02105 160.94888,590.57217 82.775345,324.69135 311.95641,248.06038 372.88679,456.51094 354.3134,473.76843 364.47198,455.5654 308.43242,259.11786 91.004765,330.00812 174.35745,588.32535 398.03148,574.22678 382.19237,586.84025 405.3483,574.23947 175.90512,598.79387 80.073285,329.45642 314.78585,249.28862 366.24307,466.04215 344.77916,482.49915 357.65789,464.13361 310.70784,260.59272 88.686065,334.78971 189.35234,595.32725 417.52266,558.84133 401.92491,574.08877 424.93077,558.08289 191.69987,605.88504 77.431506,334.47007 317.38383,250.45502 358.92587,474.77889 334.5215,490.07195 350.27151,471.86972 312.74228,261.98859 86.434755,339.8016 205.07665,601.17595 435.37664,541.2541 420.37623,559.25394 442.79146,539.70286 208.25013,611.75385 74.867243,339.73522 319.75491,251.54795 351.02922,482.68474 323.67609,496.43194 342.41165,478.74784 314.54161,263.29478 84.267842,345.04594 221.44347,605.78897 451.34138,521.63835 437.32585,542.46534 458.67449,519.28237 225.46263,616.3142 72.398396,345.25388 321.90355,252.55678 342.6474,489.73395 312.38195,501.53974 334.17625,484.75322 316.11145,264.50187 82.203001,350.52398 238.35655,609.09006 465.18299,500.19667 452.56638,523.87609 472.34333,497.03443 243.23441,619.48687 70.043609,351.02729 323.8341,253.47204 333.87382,495.911 300.77999,505.37146 325.66128,489.88164 317.457,265.60152 80.258569,356.23612 255.71062,611.01035 476.68929,477.15913 465.90619,503.66134 483.58461,473.19951 261.45287,621.20058 67.82213,357.05568 325.55049,254.28514 324.79996,501.21019 289.01114,507.91881 316.95946,494.13899 318.58316,266.58663 78.453459,362.18177 273.39189,611.48933 485.6732,452.78046 477.17171,482.01667 492.21108,448.04349 279.99696,621.39316 65.753846,363.33821 327.05629,254.98853 315.5146,505.63503 277.21474,509.1887 308.15955,497.54041 319.49426,267.45113 76.807173,368.3592 291.27864,610.47583 491.97549,427.33794 486.20969,459.15601 498.06478,421.85457 298.73719,620.01249 63.859228,369.87293 328.35484,255.5757 306.1026,509.1976 265.52673,509.20295 299.3453,500.10957 320.19427,268.19015 75.339682,374.76565 309.24232,607.92908 495.46755,401.12773 492.889,435.30992 501.01976,394.94007 317.53721,617.01758 62.159187,376.65666 329.44884,256.04099 296.64454,511.91789 254.07842,507.99757 290.59491,501.87783 320.68637,268.79975 74.071432,381.39701 327.14785,603.81958 496.05373,374.46198 497.10253,410.72301 500.9843,367.62276 336.25395,612.37947 60.675122,383.68491 330.34053,256.37969 287.21589,513.82292 242.99471,505.62208 281.98018,502.88334 320.97329,269.27718 73.023241,388.24785 344.85522,598.12983 493.67324,347.66488 498.76867,385.65153 497.90293,340.23736 354.73942,606.08204 59.428795,390.95179 331.0317,256.58808 277.88643,514.94609 232.39299,502.13855 273.56638,503.17006 321.05709,269.62064 72.216206,395.31131 362.21986,590.85536 488.30174,321.0686 497.83254,360.36049 491.75789,313.12584 372.84124,598.12291 58.442245,398.44995 331.52346,256.66327 268.71999,515.32618 222.38158,497.62056 265.41152,502.78681 320.93919,269.82943 71.671635,402.57915 379.09465,582.00502 479.95239,295.00967 494.26694,335.1212 482.57018,286.63384 390.40448,588.51387 57.737709,406.17052 331.81644,256.60335 259.77407,515.00668 213.05899,492.15207 257.56642,501.78642 320.6202,269.90376 71.410939,410.04144 395.33039,571.60194 468.67649,269.82412 488.07312,310.20812 470.40006,261.10554 407.27248,577.28169 57.337484,414.10294 331.91057,256.4072 251.09954,514.03483 204.51275,485.82616 250.07443,500.22468 320.10033,269.84497 71.455553,417.68666 410.77785,559.68359 454.56352,245.84332 479.28106,285.89608 455.34708,236.87974 423.28862,564.46841 57.263851,422.23503 331.80529,256.07469 242.74069,512.46084 196.81854,478.74354 242.97153,498.15945 319.37886,269.65533 71.826738,425.50152 425.28864,546.30239 437.74099,223.38986 467.94952,262.45682 437.54966,214.28504 438.29791,550.13152 57.539004,430.55285 331.49928,255.60652 234.73509,510.33709 190.03973,471.01134 236.2863,495.64986 318.45457,269.33812 72.545579,433.47114 438.71716,531.52563 418.37325,202.77285 454.16583,240.15654 417.18395,193.63541 452.14815,534.34425 58.184794,439.04065 330.99079,255.00433 227.11377,507.71739 184.2268,462.74147 230.04033,492.75539 317.3257,268.89778 73.632733,441.57871 450.92177,515.43574 396.66041,184.28386 438.04536,219.25261 394.46239,175.22581 464.69188,517.19556 59.222739,447.68085 330.27742,254.2707 219.90132,504.6562 179.41706,454.04926 224.24833,489.53518 315.98969,268.33962 75.108377,449.80556 461.76665,498.12984 372.83612,168.19247 419.73037,199.99039 369.63156,159.3279 475.78803,498.78967 60.673785,456.45401 329.35616,253.40903 213.11611,501.20804 175.63444,445.05175 218.91856,486.04728 314.44361,267.6701 76.991969,458.13119 471.1232,479.71962 347.16546,154.74274 399.38908,182.60089 342.96986,146.18631 485.30332,479.24603 62.558145,465.33876 328.22353,252.42375 206.77063,497.42683 172.88964,435.86637 214.05324,482.34809 312.68407,266.8968 79.302177,466.53325 478.87167,460.3309 319.94202,144.14926 377.21408,167.29765 314.78417,136.0145 493.11402,458.69873 64.895266,474.3118 326.87561,251.32028 200.87179,493.36536 171.18022,426.60943 209.6491,478.49172 310.70718,266.02833 82.056655,474.98745 484.90266,440.10288 291.48463,136.59391 353.42052,154.2744 285.40645,128.9917 499.10766,437.29536 67.703535,483.34798 325.30788,250.10493 195.42132,489.07476 170.49106,417.39464 205.69782,474.52967 308.50868,265.07442 85.271884,483.46756 489.11883,419.18716 262.13358,132.22281 328.2438,143.70238 255.19033,125.25985 503.18439,415.19673 71.000095,492.42015 323.51554,248.78505 190.41618,484.60417 170.79478,408.33169 202.18664,470.51031 306.08426,264.04605 88.963045,491.94563 491.43606,397.74729 232.24684,131.14377 301.9377,135.72855 224.50609,124.92094 505.2586,392.5755 74.800857,501.49936 321.49349,247.36911 185.84904,480.00029 172.05244,399.52515 199.09892,466.4787 303.42926,262.95526 93.143715,500.39172 491.78508,375.95682 202.19547,133.42414 274.77153,130.47343 193.73701,128.03504 505.26032,369.61464 79.12008,510.55473 319.23622,245.86648 181.70875,475.30722 174.21437,391.0731 196.41469,462.47624 300.53902,261.81536 97.825825,508.77425 490.11261,353.99862 172.35911,139.0892 247.02751,128.02954 163.27373,134.61873 503.13647,346.50664 83.97037,519.55365 316.73814,244.28773 177.98073,470.56612 177.22099,383.06611 194.11133,458.54065 297.40885,260.64079 103.01938,517.05979 486.38258,332.06314 143.1212,148.12111 218.99747,128.45994 133.51003,144.64403 498.85205,323.45149 89.362415,528.46175 313.99359,242.64453 174.64754,465.81509 181.00392,375.58622 192.16409,454.70589 294.0345,259.44734 108.73235,525.21346 480.5771,310.34675 114.86411,160.45822 190.98042,131.79731 104.83738,158.03798 492.39114,300.65511 95.304825,537.24305 310.99669,240.9496 171.68931,461.08916 185.48705,368.7062 190.54662,451.00205 290.41175,258.25195 114.97037,533.19877 472.69739,289.05005 87.963895,175.99528 163.27889,138.04311 77.639469,174.68293 483.75793,278.32757 101.80397,545.85999 307.74184,239.21687 169.08415,456.4201 190.58771,362.48882 189.23157,447.45558 286.53701,257.0728 121.73669,540.97783 462.76445,268.37596 62.785613,194.58382 136.19586,147.16719 52.287708,194.41704 472.97704,256.68082 108.86374,554.27364 304.22355,237.46146 166.80867,451.83661 196.21801,356.98618 c -8.0269,87.10309 86.18913,-101.05682 -67.18616,191.52535 321.7877,-299.98371 -89.353898,-332.47797 -19.0007,-389.40371 -80.895485,57.928 350.06332,76.81927 6.45426,403.33597 C 300.43664,235.69962 164.8383,447.36418 202.286,352.23947 187.39734,440.92256 278.02001,254.84228 136.85373,555.75971 451.7949,510.49964 426.65929,215.90382 285.07564,136.31197"
       style="fill:none;stroke:#000000;stroke-width:0.60850435px;stroke-linecap:butt;stroke-linejoin:miter;stroke-opacity:1"
       inkscape:connector-curvature="0" />
  </g>
</svg>
