<?xml version="1.0" encoding="UTF-8" standalone="no"?>
<!-- Created with Inkscape (http://www.inkscape.org/) -->

<svg
   xmlns:dc="http://purl.org/dc/elements/1.1/"
   xmlns:cc="http://creativecommons.org/ns#"
   xmlns:rdf="http://www.w3.org/1999/02/22-rdf-syntax-ns#"
   xmlns:svg="http://www.w3.org/2000/svg"
   xmlns="http://www.w3.org/2000/svg"
   xmlns:sodipodi="http://sodipodi.sourceforge.net/DTD/sodipodi-0.dtd"
   xmlns:inkscape="http://www.inkscape.org/namespaces/inkscape"
   width="744.09448819"
   height="1052.3622047"
   id="svg3783"
   version="1.1"
   inkscape:version="0.48.2 r9819"
   sodipodi:docname="spiral025v1 bird.svg">
  <sodipodi:namedview
     id="base"
     pagecolor="#ffffff"
     bordercolor="#666666"
     borderopacity="1.0"
     inkscape:pageopacity="0.0"
     inkscape:pageshadow="2"
     inkscape:zoom="0.98994949"
     inkscape:cx="155.32612"
     inkscape:cy="522.32165"
     inkscape:document-units="px"
     inkscape:current-layer="layer1"
     showgrid="false"
     inkscape:window-width="1084"
     inkscape:window-height="748"
     inkscape:window-x="217"
     inkscape:window-y="-9"
     inkscape:window-maximized="0" />
  <defs
     id="defs3785">
    <inkscape:perspective
       id="perspective3025"
       inkscape:persp3d-origin="372.04724 : 482.78739 : 1"
       inkscape:vp_z="744.09448 : 658.18109 : 1"
       inkscape:vp_y="0 : 1000 : 0"
       inkscape:vp_x="0 : 658.18109 : 1"
       sodipodi:type="inkscape:persp3d" />
    <inkscape:perspective
       id="perspective2995"
       inkscape:persp3d-origin="372.04724 : 350.78739 : 1"
       inkscape:vp_z="744.09448 : 526.18109 : 1"
       inkscape:vp_y="0 : 1000 : 0"
       inkscape:vp_x="0 : 526.18109 : 1"
       sodipodi:type="inkscape:persp3d" />
  </defs>
  <metadata
     id="metadata3788">
    <rdf:RDF>
      <cc:Work
         rdf:about="">
        <dc:format>image/svg+xml</dc:format>
        <dc:type
           rdf:resource="http://purl.org/dc/dcmitype/StillImage" />
        <dc:title></dc:title>
      </cc:Work>
    </rdf:RDF>
  </metadata>
  <g
     style="display:inline"
     id="layer1"
     inkscape:groupmode="layer"
     inkscape:label="Layer 1">
    <rect
       y="12.284647"
       x="7.8454075"
       height="779.49591"
       width="516.12524"
       id="rect4319"
       style="fill:none;stroke:#000000;stroke-width:0.91610378;stroke-opacity:1" />
    <flowRoot
       style="font-size:40px;font-style:normal;font-weight:normal;line-height:125%;letter-spacing:0px;word-spacing:0px;fill:#000000;fill-opacity:1;stroke:none;font-family:Sans"
       id="flowRoot3475"
       xml:space="preserve"><flowRegion
         id="flowRegion3477"><rect
           y="840.23016"
           x="40.406101"
           height="76.771591"
           width="474.7717"
           id="rect3479" /></flowRegion><flowPara
         id="flowPara3481" /></flowRoot>    <path
       style="fill:none;stroke:#000000;stroke-width:0.5;stroke-linecap:butt;stroke-linejoin:miter;stroke-miterlimit:4;stroke-opacity:1;stroke-dasharray:none"
       d="m 273.03036,490.73439 c 2.67769,-1.56087 2.0093,-2.11773 0,0 -5.64799,5.51373 -0.9259,3.49686 0,0 0.75014,-5.37498 -7.77662,6.22123 0,0 10.05214,-9.37476 2.18194,-8.11911 0,0 -5.72691,12.34642 11.80383,-10.47966 0,0 -17.72146,12.47085 -7.86891,15.13705 0,0 3.63152,-15.0512 -20.39147,13.74982 0,0 18.59016,-16.88993 4.20511,-17.14375 0,0 -15.06696,24.52037 20.16264,-18.15871 0,0 -31.67841,19.42724 -17.5677,27.17025 0,0 4.34098,-22.96906 -34.82258,20.7099 0,0 25.98517,-24.12636 4.42781,-24.60976 0,0 -26.90896,36.44076 27.36875,-25.38067 0,0 -47.66441,25.6735 -29.88859,38.9316 0,0 3.30308,-29.01346 -51.28262,26.78882 0,0 32.41019,-30.91484 3.00409,-30.19241 0,0 -41.30278,47.62815 33.62767,-32.10261 0,0 -65.78261,30.68496 -44.77972,49.87364 0,0 0.72028,-32.98648 -69.87815,31.49045 0,0 38.03259,-37.19656 0.0862,-33.68389 0,0 -58.1589,57.57085 39.11067,-38.29781 0,0 -86.05482,33.86754 -62.11335,59.47425 0,0 -3.30207,-34.76839 -90.61221,34.21535 0,0 42.99904,-42.95777 -4.25318,-34.97728 0,0 -77.28902,65.77847 43.96246,-43.96623 0,0 -108.37659,34.55041 -81.67602,67.24601 0,0 -8.78,-34.34372 -113.35118,34.28307 0,0 47.43305,-48.21315 -10.0634,-34.07952 0,0 -98.41823,71.80371 48.30306,-49.13041 0,0 -132.47928,32.0059 -103.17353,72.75075 0,0 -15.876,-31.82804 -137.78655,30.96034 0,0 51.43628,-52.99708 -17.54217,-31.13651 0,0 -121.19693,75.25809 52.23038,-53.82963 0,0 -157.89033,25.48617 -126.24089,75.61319 0,0 -24.90541,-27.50614 -163.3985,23.50258 0,0 55.0906,-57.35742 -27.03616,-26.47462 0,0 -145.21457,75.82398 55.82295,-58.11532 0,0 -183.903691,14.27569 -150.45559,75.53121 0,0 -36.30813,-21.88289 -189.428698,11.21035 0,0 58.46077,-61.35209 -39.0054,-20.65137 0,0 -170.01503,73.26282 59.14246,-62.04695 0,0 -209.561367,-2.24091 -175.353326,72.28317 0,0 -50.57762,-15.73313 -214.865291,-6.50006 0,0 61.59707,-65.04459 -53.9421,-14.50389 0,0 -195.111677,67.41957 62.23664,-65.68922 0,0 -233.654133,-24.49902 -200.44321,65.73177 0,0 -68.13929,-10.13654 -238.446977,-30.01325 0,0 64.5377,-68.50157 -72.2379,-9.17759 0,0 -220.004568,58.22387 65.14153,-69.11021 0,0 -254.74465,-52.66492 -225.223031,55.82458 0,0 -89.19136,-6.46867 -258.694671,-59.42676 0,0 67.31076,-71.79204 -94.02304,-6.10352 0,0 -244.192569,45.68913 67.88341,-72.37832 0,0 -271.2209732,-86.54555 -249.194662,42.59165 0,0 -113.53598,-6.32768 -273.96926715,-94.46007 0,0 69.936,-74.98457 -118.99421,-6.91193 0,0 -267.1899392,29.90752 70.48058,-75.56312 0,0 -281.3827492,-125.50877 -271.876159,26.14126 0,0 -140.4257,-11.39027 -282.5652352,-134.3765 0,0 72.4262,-78.14738 -146.27382,-13.27136 0,0 -288.53666,11.04431 72.94444,-78.73168 0,0 -283.557289,-168.41688 -292.814121,6.65337 0,0 -168.47353,-23.20004 -282.8346451,-177.92658 0,0 74.78786,-81.3466 -174.335564,-26.66642 0,0 -307.808527,-10.66951 75.28038,-81.95004 0,0 -276.2472017,-213.59582 -311.593248,-15.62852 0,0 -195.646801,-42.91408 -273.33854262,-223.32132 0,0 77.02202,-84.64576 -201.017638,-48.13835 0,0 -324.625821,-34.94637 77.48824,-85.2819 0,0 -258.298049,-258.84381 -327.844335,-40.40654 0,0 -219.364382,-71.03927 -253.019121,-268.25136 0,0 79.12447,-88.10556 -223.646062,-78.02592 0,0 -338.659536,-61.45121 79.56301,-88.78549 0,0 -229.077434,-301.49089 -341.249037,-67.33553 0,0 -236.703614,-107.20073 -221.378712,-309.96079 0,0 81.08591,-91.78265 -239.259483,-115.74225 0,0 -349.635954,-89.81149 81.49395,-92.51912 0,0 -188.645857,-338.52159 -351.545898,-96.03649 0,0 -244.699432,-149.97625 -178.643,-345.38436 0,0 82.89203,-95.72927 -244.92999,-159.6329 0,0 -357.338918,-119.62606 83.26591,-96.53217 0,0 -137.90698,-366.75274 -358.53167,-126.10559 0,0 -240.717365,-196.84361 -125.91447,-371.32914 0,0 84.52344,-99.9918 -238.143463,-206.94641 0,0 -361.611603,-150.4753 84.85871,-100.86904 0,0 -78.70463,-383.07533 -362.061573,-157.11717 0,0 -222.854691,-244.25524 -65.25133,-384.73851 0,0 85.95543,-104.6113 -217.202701,-253.94166 0,0 -362.356131,-181.92926 86.24557,-105.57318 0,0 -13.85813,-384.73624 -362.050383,-188.64258 0,0 -190.327539,-287.86126 0.35166,-382.97711 0,0 87.1586,-109.62048 -181.603473,-296.14156 0,0 -359.532272,-213.55737 87.39743,-110.67062 0,0 52.88852,-369.65037 -358.469348,-220.25236 0,0 -143.78396,-322.88013 66.93905,-364.14152 0,0 88.09882,-115.04373 -132.32832,-328.72928 0,0 -353.155001,-244.9337 88.2788,-116.18545 0,0 117.02542,-336.71217 -351.34537,-251.52038 0,0 -85.49892,-344.58187 129.87873,-327.37416 0,0 88.73866,-120.89364 -72.0044,-347.05731 0,0 -343.291378,-275.64646 88.85101,-122.1297 0,0 173.53237,-286.0746 -340.755856,-282.03948 0,0 -19.39474,-348.8566 184.08987,-273.12196 0,0 89.03865,-127.17014 -4.89066,-347.22135 0,0 -330.056547,-305.30209 89.07507,-128.49827 0,0 217.23887,-219.36143 -326.824751,-311.42235 0,0 49.13462,-332.79715 224.41835,-203.34662 0,0 88.96087,-133.85553 63.35164,-326.63999 0,0 -313.609669,-333.53063 88.91421,-135.26871 0,0 243.26859,-139.77353 -309.721029,-339.30254 0,0 113.60725,-295.23113 246.11773,-121.58115 0,0 88.47328,-140.91144 126.0769,-284.56522 0,0 -294.1484,-359.99129 88.33791,-142.39883 0,0 247.53491,-52.05868 -289.649349,-365.34663 0,0 167.03376,-237.12367 245.3347,-32.88639 0,0 87.55736,-148.27283 176.27492,-222.45087 0,0 -271.9044388,-384.37443 87.33213,-149.81625 0,0 227.24741,37.67344 -266.8483464,-389.25166 0,0 202.64165,-161.78221 219.61801,56.38008 0,0 86.21979,-155.84008 207.32247,-144.10327 0,0 -247.138464,-406.404599 85.91014,-157.41417 0,0 181.37758,122.31389 -241.583442,-410.750407 0,0 214.6801,-74.81183 168.3655,138.95923 0,0 84.50629,-163.47478 213.78889,-55.58167 0,0 -220.134407,-425.842752 84.1289,-165.04389 0,0 111.02364,194.27303 -214.143117,-429.611309 0,0 199.21663,16.21696 93.16064,207.24022 0,0 82.52161,-170.99125 192.21899,35.19688 0,0 -191.194246,-442.487264 82.10798,-172.50943 0,0 19.61702,246.13637 -184.832746,-445.64058 0,0 154.81779,102.37946 -2.05691,253.93776 0,0 80.44943,-178.15342 141.77973,119.117 0,0 -160.63384,-456.173911 80.04951,-179.56476 0,0 -87.0707,271.40223 -153.97052,-458.681961 0,0 83.0253,174.23728 -111.04462,272.8467 0,0 78.56448,-184.67989 64.6763,186.76157 0,0 -128.77758,-466.776008 78.24854,-185.91879 0,0 -201.170457,265.24674 -121.88156,-468.616866 0,0 -11.47197,222.86249 -225.539583,259.59338 0,0 77.23229,-190.24978 -33.74366,229.44613 0,0 -95.95361,-474.203848 77.08687,-191.24423 0,0 -313.211435,225.22251 -88.89495,-475.363009 0,0 -121.00875,240.90359 -335.817719,212.3149 0,0 76.88127,-194.51469 -145.24122,240.28814 0,0 -62.49019,-478.403127 77.00078,-195.18686 0,0 -412.849,151.81344 -55.3384,-478.873505 0,0 -235.494111,223.59785 -431.46564,132.1687 0,0 77.95038,-197.10119 -259.317899,215.18624 0,0 -28.71293,-479.353342 78.42262,-197.36729 0,0 -489.80192,48.75388 -21.53585,-479.134845 0,0 -343.311395,169.5798 -502.34602,23.5974 0,0 80.81796,-197.60141 -364.170302,153.57272 0,0 5.06418,-477.06571 81.70745,-197.3684 0,0 -534.899,-76.95243 12.19698,-476.165055 0,0 -432.47724,81.37755 -539.66656,-105.73307 0,0 85.72426,-195.55396 -447.90967,58.82536 0,0 38.52282,-471.58251 87.05727,-194.71418 0,0 -541.1501,-215.35738 45.55405,-470.011329 0,0 -491.97797,-34.50668 -537.03206,-245.32356 0,0 77.98444,-188.12621 -307.816358,189.97038 -49.49748,-30.30458"
       id="path4506"
       inkscape:connector-curvature="0"
       sodipodi:nodetypes="ccssssssssssssssssssssssssssssssssssssssssssssssssssssssssssssssssssssssssssssssssssssssssssssssssssssssssssssssssssssssssssssssssssssssssssssssssssssssssssssssc" />
  </g>
  <g
     style="display:none"
     inkscape:label="feath"
     id="layer2"
     inkscape:groupmode="layer">
    <path
       sodipodi:nodetypes="cccccccccccccccc"
       inkscape:connector-curvature="0"
       id="path3356"
       d="m 142.97969,214.69322 -4.89847,12.19978 c 22.86192,24.07826 19.05866,38.42124 31.87238,51.55113 13.48895,20.93218 36.16559,35.73924 57.37309,51.52573 55.03688,23.01212 98.92418,35.64178 146.70649,33.05277 7.04887,-1.03568 14.51117,1.3201 14.9059,-1.61676 13.83704,-8.13767 5.32029,-10.06595 3.27248,-13.79115 -11.15203,-2.52198 -3.31686,-3.78425 -23.91805,-8.1889 10.64384,-5.90351 22.56681,-21.84435 26.11475,-29.68311 3.11671,5.30337 -28.83187,-0.79735 -52.30002,-14.44288 L 188.57143,188.79075 c -10.71899,-5.2475 -21.29132,-10.20169 -31.34191,-14.11239 -21.11979,-2.5717 -30.92997,-1.22457 -39.40828,2.85714 -10.4951,4.28068 -16.31166,14.82017 -20.844263,20.42585 25.796023,10.99406 26.249023,18.82024 31.594453,27.25797 z"
       style="fill:none;stroke:#ff0000;stroke-width:1px;stroke-linecap:butt;stroke-linejoin:miter;stroke-opacity:1" />
    <path
       inkscape:connector-curvature="0"
       id="path4126"
       d="m 136.5,175.40625 c -13.7454,-0.23987 -27.09663,6.95783 -34.25,18.8125 -4.959999,3.64565 1.77669,4.18759 4.25,5.96875 9.74737,4.63977 18.26841,12.02842 22.65625,22.09375 6.08214,-4.43914 12.15874,-8.88587 18.25,-13.3125 -2.16877,5.87521 -5.14469,11.90549 -6.8125,17.6875 11.29546,11.3212 17.98002,26.06652 24,40.71875 4.25192,7.63475 10.05699,14.06749 15.375,20.9375 14.09222,15.81786 32.07289,28.02716 49.2373,40.28671 46.95897,19.65185 97.14231,36.3684 148.79395,32.15079 4.32444,-0.0939 9.05093,1.4107 11.93332,-2.3245 2.2109,-1.33152 7.00848,-4.38862 3.19168,-6.8005 -2.96701,-3.71543 -8.41034,-3.29448 -12,-6.53125 -5.85839,-2.41358 -12.12126,-3.35561 -18.25,-4.78125 11.60753,-5.84623 20.31235,-15.94915 27.125,-26.6875 -18.5136,-2.23894 -36.69323,-8.86637 -52.31744,-18.93682 C 287.32329,259.88599 237.20391,224.6649 186.69505,190.12393 175.62964,185.28222 165.0263,178.49769 153.1875,176.25 147.64769,175.65259 142.07582,175.23535 136.5,175.40625 z"
       style="fill:none;stroke:#ff0000;stroke-width:1px;stroke-linecap:butt;stroke-linejoin:miter;stroke-opacity:1" />
    <path
       inkscape:connector-curvature="0"
       id="path4130"
       d="m 136.53125,177.40625 c -13.593,-0.45683 -26.41264,7.46624 -33.46875,18.71875 5.0423,2.68896 11.90412,5.79516 16.625,10.25 4.15289,3.62358 7.76107,7.93119 10.21875,12.875 7.24625,-5.2968 14.50084,-10.58219 21.75,-15.875 -2.36095,7.72689 -6.88354,15.41205 -8.5625,22.96875 11.74149,11.97169 17.78889,27.95511 24.875,42.8125 14.08199,22.41128 35.25732,38.95951 56.75288,53.79767 11.72788,8.26856 26.08825,11.61411 39.25628,17.06501 36.9031,13.33099 76.20108,21.96694 115.77209,18.76232 3.90908,0.72153 7.8568,0.2018 10.5,-2.9375 2.56551,-1.09063 2.72726,-2.70808 0.3125,-3.9375 -4.41066,-2.11942 -8.9962,-4.01084 -13.40625,-6.125 -6.61477,-2.05367 -13.33142,-3.02004 -20.0625,-4.75 12.06389,-5.14527 23.18279,-15.25703 29.125,-25.90625 -23.78062,-3.28704 -45.56252,-14.49485 -64.45747,-29.02448 -45.75096,-31.4935 -91.02025,-63.76196 -137.11192,-94.72692 -13.73862,-6.40754 -27.19994,-14.8224 -42.96137,-13.96733 -1.71792,-0.0724 -3.43832,-0.0209 -5.15674,-2e-5 z m 255.875,176.1875 c 0.10364,-0.0325 -0.0429,-0.0577 0,0 z"
       style="fill:none;stroke:#ff0000;stroke-width:1px;stroke-linecap:butt;stroke-linejoin:miter;stroke-opacity:1" />
    <path
       inkscape:connector-curvature="0"
       id="path4134"
       d="m 141.78125,179.40625 c -13.73703,-1.53454 -27.96072,4.42684 -35.8125,15.96875 9.92095,4.58331 19.07794,11.32695 24.59375,20.90625 8.30287,-6.05101 16.58499,-12.13053 24.90625,-18.15625 -2.42232,9.57144 -7.44012,18.15055 -10.15625,27.59375 12.69255,13.00952 17.87913,31.064 27.03125,46.4375 15.49353,22.08117 37.54799,39.03286 60.15625,53.1875 16.54581,7.8123 34.15213,13.46656 51.47957,19.25744 31.15906,9.64542 64.03581,14.64685 96.73918,12.30506 3.252,1.00329 7.55437,-1.03693 8.84375,-3.25 -9.9221,-5.53261 -20.69071,-8.3569 -31.71875,-10.375 -8.54718,-0.96327 -5.71932,-2.78075 0.65625,-5.09375 9.89765,-4.86589 18.42661,-12.28276 24.46875,-21.5625 -25.53501,-3.95435 -47.95846,-17.60128 -68.19896,-32.91312 -44.34593,-30.37449 -87.89369,-62.08911 -132.92054,-91.44405 -12.65159,-6.05501 -25.51603,-13.68992 -40.068,-12.86158 z"
       style="fill:none;stroke:#ff0000;stroke-width:1px;stroke-linecap:butt;stroke-linejoin:miter;stroke-opacity:1" />
    <path
       inkscape:connector-curvature="0"
       id="path4138"
       d="m 136.6875,181.1875 c -10.59093,0.21332 -21.11879,5.05845 -27.6875,13.4375 8.73749,4.29973 16.76622,10.52795 22.125,18.75 9.24308,-6.76337 18.49214,-13.51866 27.78125,-20.21875 -2.32325,11.16815 -7.77275,21.31883 -11.34375,32.03125 16.22681,17.2045 19.84799,42.53177 36.99134,59.05164 14.9221,16.17484 32.69913,30.00501 51.91491,40.72961 44.42684,18.95479 92.22499,33.16483 141.09375,30.125 2.26441,-0.48927 7.58427,0.85211 8.25,-1.1875 -10.497,-5.50391 -22.33167,-7.21053 -33.65625,-9.875 -3.98881,-2.35876 0.38958,-6.43131 3.40625,-6.875 9.66248,-3.9063 17.83012,-10.79174 24,-19.09375 -28.50212,-5.04357 -52.05062,-22.40719 -75.04161,-38.97449 -41.46257,-28.49541 -82.28852,-58.37155 -124.67302,-85.55072 -12.61434,-6.50357 -26.06883,-13.25115 -40.75412,-12.31854 -0.80144,-0.0812 -1.60307,-0.0721 -2.40625,-0.0312 z"
       style="fill:none;stroke:#ff0000;stroke-width:1px;stroke-linecap:butt;stroke-linejoin:miter;stroke-opacity:1" />
    <path
       inkscape:connector-curvature="0"
       id="path4142"
       d="m 140.5625,183.15625 c -10.53099,-0.54983 -21.22054,2.99142 -28.40625,10.84375 7.60577,4.10076 14.40627,9.55697 19.4375,16.53125 10.09898,-7.37591 20.19874,-14.72567 30.34375,-22.03125 -1.92464,12.72136 -7.82187,24.20816 -12.09375,36.21875 16.32762,18.19579 20.29787,44.709 39,61.15625 15.32264,15.50926 32.73304,29.64695 52.59375,39 43.28646,18.1266 89.95675,31.43612 137.40625,28.09375 -9.1924,-3.95325 -19.59203,-4.26124 -28.6875,-7.90625 -4.34001,-4.05615 1.25164,-9.59438 5.5625,-10.125 7.854,-3.41696 14.8186,-8.85243 20.21875,-15.53125 -36.31407,-7.87668 -64.30829,-34.20977 -94.65505,-54.01454 -35.00011,-24.1851 -69.40617,-49.5924 -105.60965,-71.75451 -10.93646,-5.51714 -22.61848,-10.88992 -35.1103,-10.48095 z"
       style="fill:none;stroke:#ff0000;stroke-width:1px;stroke-linecap:butt;stroke-linejoin:miter;stroke-opacity:1" />
    <path
       inkscape:connector-curvature="0"
       id="path4146"
       d="m 137.65625,185.125 c -8.03593,0.0903 -16.23956,2.9196 -22.21875,8.4375 6.32637,3.69131 12.01477,8.42476 16.5625,14.1875 8.90472,-6.48519 17.8051,-12.97649 26.75,-19.40625 -6.73182,-2.56361 -13.89286,-3.49775 -21.09375,-3.21875 z M 163.5,191.25 c -2.18346,11.49554 -7.36743,22.07338 -11.375,33 16.20947,18.97745 20.59496,46.07392 40.24632,62.34007 18.83115,18.90752 41.36756,35.02447 67.09742,43.32044 34.25846,12.88858 70.41204,22.0515 107.28126,21.52699 -6.27068,-2.05302 -14.42512,-1.50868 -19.21875,-6.4375 -3.39472,-6.00991 3.41402,-11.58557 8.84375,-12.53125 5.85394,-2.85165 11.96092,-7.21243 15.6875,-11.90625 -37.653,-9.75083 -66.43075,-37.57642 -98.5,-58.09375 C 239.85289,239.2472 207.11659,214.57672 171.81362,193.94986 169.4847,193.56131 164.55226,189.06475 163.5,191.25 z"
       style="fill:none;stroke:#ff0000;stroke-width:1px;stroke-linecap:butt;stroke-linejoin:miter;stroke-opacity:1" />
    <path
       inkscape:connector-curvature="0"
       id="path4150"
       d="m 139.03125,187.09375 c -7.23935,-0.0677 -14.41799,1.86881 -20.15625,6.21875 5.0054,3.21748 9.62093,7.15335 13.46875,11.71875 7.24785,-5.35733 14.99699,-10.7767 21.96875,-16.0625 -4.91191,-1.35835 -10.12814,-1.99717 -15.28125,-1.875 z m 26,6.71875 c -2.34533,10.3972 -6.91018,20.10792 -10.625,30.0625 15.95803,19.39926 20.78969,46.98888 41.15625,63.03125 19.78805,19.89716 44.04574,35.26494 71.03125,43.5 26.73817,9.59333 54.55363,16.75375 83,18.59375 -7.1073,-2.64974 -5.84781,-12.53518 0.0312,-15.75 6.17621,-3.21968 12.96945,-5.48121 17.90625,-10.75 1.97155,-2.23295 -5.84719,-2.05697 -7.469,-3.59731 C 325.06438,305.78333 297.36232,279.44848 266.0937,259.75 232.87458,236.87265 200.6633,212.05261 165.2187,192.875 l -0.1875,0.9375 z"
       style="fill:none;stroke:#ff0000;stroke-width:1px;stroke-linecap:butt;stroke-linejoin:miter;stroke-opacity:1" />
    <path
       inkscape:connector-curvature="0"
       id="path4154"
       d="m 136.5,189.15625 c -4.49336,0.28487 -11.26305,1.70536 -13.65625,4.40625 3.59422,2.60258 6.83944,5.52856 9.8125,8.75 5.22055,-4.0624 12.65691,-8.63189 16.625,-12.4375 -4.17977,-0.77486 -8.49312,-0.91299 -12.78125,-0.71875 z m 30,7.0625 c -2.30114,9.40895 -6.49351,18.31937 -9.75,27.34375 15.62142,19.92844 20.88651,47.41622 41.6448,63.30853 20.97264,21.17183 47.79632,35.96898 76.38645,44.25397 22.45895,7.60793 45.42136,13.29103 69.0625,15.40625 -3.65634,-7.07379 1.88623,-15.26413 9.07486,-17.13485 4.14763,-1.95392 8.4375,-3.8807 11.83139,-6.99015 -15.35449,-4.21752 -29.20355,-12.72819 -42.6875,-21.125 -22.432,-15.19208 -43.94425,-31.671 -66.61757,-46.51704 C 226.2983,234.35926 197.69546,213.0035 166.5625,195.90625 l -0.0625,0.3125 z"
       style="fill:none;stroke:#ff0000;stroke-width:1px;stroke-linecap:butt;stroke-linejoin:miter;stroke-opacity:1" />
    <path
       inkscape:connector-curvature="0"
       id="path4158"
       d="m 138.1875,191.09375 c -4.15781,0.11011 -8.22561,0.77788 -12,2.5 3.39423,1.60742 6.00755,8.52376 9.5625,3.96875 1.22654,-1.72856 10.8227,-5.95193 7.125,-6.40625 -1.56145,-0.0646 -3.12475,-0.13161 -4.6875,-0.0625 z m 29.3125,9.1875 c -2.293,7.7817 -5.81025,15.38411 -8.4375,23 15.18881,20.031 20.76352,47.21692 41.45711,62.89461 22.6907,22.96633 52.51399,37.22638 83.29289,45.79289 18.53332,5.7671 37.8842,10.46932 57.09375,12.15625 -1.67211,-8.62387 5.9242,-15.6035 13.58902,-17.71398 1.36675,-1.04233 8.56828,-3.07116 3.91098,-3.91102 -33.99319,-12.80618 -61.42081,-37.74926 -91.4375,-57.5625 -33.03572,-22.05888 -64.344,-46.71347 -99.09375,-66 l -0.2688,0.9632 -0.1062,0.38055 z"
       style="fill:none;stroke:#ff0000;stroke-width:1px;stroke-linecap:butt;stroke-linejoin:miter;stroke-opacity:1" />
    <path
       inkscape:connector-curvature="0"
       id="path4162"
       d="m 136.78125,193.15625 c -3.18511,0.17647 -9.33161,0.55958 -4,3.6875 1.74774,0.51876 2.93719,-3.00552 4.91416,-3.18035 1.94036,-0.81809 0.0776,-0.53298 -0.91416,-0.50715 z m 32.1875,9.15625 c -2.06799,7.00142 -5.5116,13.87945 -7.5625,20.75 14.69267,20.14798 20.72354,47.04032 41.23836,62.42586 25.69693,25.95408 60.95612,39.69073 95.73039,48.63664 13.18234,3.47952 26.99249,6.64798 40.3125,7.625 -0.0699,-9.5492 8.92102,-15.51653 16.9375,-18.15625 -36.90949,-14.84631 -66.67329,-42.81149 -100.08651,-63.99246 -28.57039,-19.66787 -56.24622,-40.6475 -86.44474,-57.69504 l -0.125,0.40625 z"
       style="fill:none;stroke:#ff0000;stroke-width:1px;stroke-linecap:butt;stroke-linejoin:miter;stroke-opacity:1" />
    <path
       inkscape:connector-curvature="0"
       id="path4166"
       d="m 170.03125,205.5625 c -1.82973,5.81776 -4.94084,11.53936 -6.28125,17.3125 14.20528,20.19583 20.55926,46.60835 41.01961,61.92586 30.62432,30.13702 73.12783,43.23227 114.10539,52.10539 5.9662,1.20383 11.93418,2.14696 17.96875,2.65625 0.85398,-7.46852 7.02881,-12.97715 13.53125,-16 C 313.14991,307.03594 282.58461,278.59389 248.21202,256.95779 222.52307,239.05802 197.40734,220.4034 170.25,204.875 l -0.21875,0.6875 z"
       style="fill:none;stroke:#ff0000;stroke-width:1px;stroke-linecap:butt;stroke-linejoin:miter;stroke-opacity:1" />
    <path
       inkscape:connector-curvature="0"
       id="path4170"
       d="m 171.15625,208.4375 c -1.69429,4.70599 -3.98675,9.30395 -5.25,14.0625 13.92098,20.24166 20.56384,46.46083 40.97264,61.56622 31.18429,30.0843 74.23656,42.91215 115.6043,51.49137 4.10208,0.50751 9.29515,2.14088 12.79806,1.37991 1.5247,-5.6137 5.7198,-10.27906 10.65625,-13.21875 -37.56341,-17.8472 -68.62783,-46.42044 -103.6875,-68.5 -23.323,-16.32037 -46.25398,-33.1421 -70.875,-47.375 l -0.21875,0.59375 z"
       style="fill:none;stroke:#ff0000;stroke-width:1px;stroke-linecap:butt;stroke-linejoin:miter;stroke-opacity:1" />
    <path
       inkscape:connector-curvature="0"
       id="path4174"
       d="m 172.375,210.875 c -1.29398,5.06714 -6.83611,10.76502 -1.72365,15.28777 11.87948,19.44649 19.34131,43.22262 38.32129,57.15345 32.19172,30.31577 76.28205,42.98952 118.80861,51.12128 2.42675,0.1865 6.43912,2.19756 6.84375,-1.46875 C 336.29787,329.42772 338.9376,326.41259 342,324 304.23887,305.17676 272.59777,276.42272 237.00242,253.96955 215.7776,239.17534 194.58944,223.54273 172.375,210.875 z"
       style="fill:none;stroke:#ff0000;stroke-width:1px;stroke-linecap:butt;stroke-linejoin:miter;stroke-opacity:1" />
    <path
       inkscape:connector-curvature="0"
       id="path4178"
       d="m 173.15625,214.5625 c -2.00558,3.51386 -4.30544,8.3914 -0.27105,11.42255 11.65793,19.71993 19.61317,43.40053 38.95855,57.2337 33.05652,30.07503 77.63317,42.25253 120.5625,49.9375 1.17216,-3.23727 3.52123,-6.24627 6,-8.71875 -38.32071,-20.01656 -70.98234,-49.16471 -107.47336,-72.29098 -18.91517,-13.22148 -37.52188,-26.77437 -57.46414,-38.33402 l -0.3125,0.75 z"
       style="fill:none;stroke:#ff0000;stroke-width:1px;stroke-linecap:butt;stroke-linejoin:miter;stroke-opacity:1" />
    <path
       inkscape:connector-curvature="0"
       id="path4182"
       d="m 174.1875,216.875 c -2.17627,2.9154 -1.97387,6.74867 0.91645,8.9538 11.36603,19.61635 19.58293,42.9852 38.82008,56.56635 32.36477,28.99693 75.46872,40.92097 117.26347,48.5111 0.97946,-2.18273 2.42616,-4.12063 3.96875,-5.9375 -39.1171,-21.15018 -72.90229,-50.86399 -110.28937,-74.62973 -16.66237,-11.45984 -32.9263,-23.7891 -50.67938,-33.46402 z"
       style="fill:none;stroke:#ff0000;stroke-width:1px;stroke-linecap:butt;stroke-linejoin:miter;stroke-opacity:1" />
    <path
       inkscape:connector-curvature="0"
       id="path4186"
       d="m 174.9375,219.6875 c -1.16818,4.37914 4.28253,6.73686 5.03125,10.8125 9.88702,18.60873 18.9166,39.40804 36.8125,51.75 31.45353,27.33563 72.89362,39.0197 113.28125,46.40625 3.66701,-3.26308 -0.0187,-4.37572 -3.1875,-6 C 288.9438,300.46532 255.05747,271.67348 218.13605,248.09211 204.00802,238.30784 189.908,227.77279 174.9375,219.6875 z"
       style="fill:none;stroke:#ff0000;stroke-width:1px;stroke-linecap:butt;stroke-linejoin:miter;stroke-opacity:1" />
    <path
       inkscape:connector-curvature="0"
       id="path4190"
       d="m 178.25,223.9375 c 5.84662,7.55156 8.63995,17.08228 13.75,25.125 7.14515,13.78482 17.09014,25.88245 29.8153,34.8082 30.63421,24.66452 69.82922,35.89031 107.6222,42.4418 C 288.48386,303.0988 252.50958,272.15311 212.86917,246.85632 201.54603,239.00153 189.88246,230.34892 178.25,223.9375 z"
       style="fill:none;stroke:#ff0000;stroke-width:1px;stroke-linecap:butt;stroke-linejoin:miter;stroke-opacity:1" />
    <path
       inkscape:connector-curvature="0"
       id="path4194"
       d="m 184.78125,230.5625 c 9.14096,19.90526 20.41894,39.91372 39.06212,52.3747 27.19309,21.57405 61.03572,32.60408 94.71913,39.3128 -38.95138,-23.8892 -74.40742,-53.2518 -112.7629,-77.89773 -7.07866,-4.93158 -14.01014,-9.94818 -21.39335,-14.47727 l 0.375,0.6875 z"
       style="fill:none;stroke:#ff0000;stroke-width:1px;stroke-linecap:butt;stroke-linejoin:miter;stroke-opacity:1" />
    <path
       inkscape:connector-curvature="0"
       id="path4198"
       d="m 190.09375,237.125 c 8.7864,18.44956 21.00474,35.63608 38.33828,46.84051 23.36733,17.42983 51.29941,27.45721 79.53672,34.00324 -37.52994,-24.49442 -72.71874,-52.43857 -110.26439,-76.8331 -1.67922,-0.68639 -10.25699,-8.28995 -7.61061,-4.01065 z"
       style="fill:none;stroke:#ff0000;stroke-width:1px;stroke-linecap:butt;stroke-linejoin:miter;stroke-opacity:1" />
    <path
       inkscape:connector-curvature="0"
       id="path4202"
       d="m 195.3125,243.03125 c 9.17458,18.09002 23.52036,33.37107 40.9375,44 18.46983,12.23346 39.48754,20.43263 60.875,26.15625 -34.63913,-23.4277 -67.64573,-49.11297 -102.6875,-71.8125 l 0.46712,0.88419 0.40788,0.77206 z"
       style="fill:none;stroke:#ff0000;stroke-width:1px;stroke-linecap:butt;stroke-linejoin:miter;stroke-opacity:1" />
    <path
       inkscape:connector-curvature="0"
       id="path4206"
       d="m 200.71875,248.65625 c 17.4005,29.39967 48.84404,46.62063 80.10796,57.52575 7.26162,2.91864 2.01729,-0.45426 -1.86224,-3.10914 -26.35152,-18.56353 -52.18835,-37.86444 -79.02697,-55.72911 l 0.51148,0.85929 0.26977,0.45321 z"
       style="fill:none;stroke:#ff0000;stroke-width:1px;stroke-linecap:butt;stroke-linejoin:miter;stroke-opacity:1" />
    <path
       inkscape:connector-curvature="0"
       id="path4210"
       d="m 207.59375,255.40625 c 15.88365,21.76444 40.16588,35.87027 65,45.625 -21.87104,-15.59094 -43.53557,-31.47838 -65.71875,-46.625 l 0.58364,0.81202 0.13511,0.18798 z"
       style="fill:none;stroke:#ff0000;stroke-width:1px;stroke-linecap:butt;stroke-linejoin:miter;stroke-opacity:1" />
    <path
       inkscape:connector-curvature="0"
       id="path4214"
       d="m 218.78125,265.4375 c 10.55926,10.73228 23.38504,19.14442 36.84375,25.90625 -12.61444,-9.09793 -25.34003,-18.20839 -38,-27.09375 l 0.69762,0.71647 0.45863,0.47103 z"
       style="fill:none;stroke:#ff0000;stroke-width:1px;stroke-linecap:butt;stroke-linejoin:miter;stroke-opacity:1" />
    <path
       style="fill:none;stroke:#ff0000;stroke-width:1px;stroke-linecap:butt;stroke-linejoin:miter;stroke-opacity:1"
       d="m 218.78125,265.4375 c 10.55926,10.73228 23.38504,19.14442 36.84375,25.90625 -12.61444,-9.09793 -25.34003,-18.20839 -38,-27.09375 l 0.69762,0.71647 0.45863,0.47103 z"
       id="path4218"
       inkscape:connector-curvature="0" />
    <path
       sodipodi:nodetypes="cccccccsc"
       inkscape:connector-curvature="0"
       id="path4222"
       d="m 396.8125,310.46875 c -30.66967,-1.76201 -57.91452,-17.86544 -81.71801,-36.23299 -12.17931,-8.30119 -24.27309,-16.76223 -36.35196,-25.25581 l -2.33954,-1.96188 c 18.33959,1.35856 27.54858,-1.04463 44.57297,-6.31346 19.51363,-7.35433 34.95326,-16.56617 46.46702,-25.25381 3.65344,-2.62656 15.79097,-13.78535 17.42513,-10.35407 0.7902,7.11198 5.28172,6.4226 7.64945,11.93676 18.79625,43.77414 9.53653,67.05491 1.947,90.84627"
       style="fill:none;stroke:#aa0000;stroke-width:1px;stroke-linecap:butt;stroke-linejoin:miter;stroke-opacity:1" />
    <path
       style="fill:none;stroke:#aa0000;stroke-width:1px;stroke-linecap:butt;stroke-linejoin:miter;stroke-opacity:1"
       d="m 396.8125,310.46875 c -30.66967,-1.76201 -57.91452,-17.86544 -81.71801,-36.23299 -12.17931,-8.30119 -24.27309,-16.76223 -36.35196,-25.25581 l -2.33954,-1.96188 c 18.33959,1.35856 27.54858,-1.04463 44.57297,-6.31346 19.51363,-7.35433 34.95326,-16.56617 46.46702,-25.25381 3.65344,-2.62656 15.79097,-13.78535 17.42513,-10.35407 0.7902,7.11198 5.28172,6.4226 7.64945,11.93676 18.79625,43.77414 9.53653,67.05491 1.947,90.84627"
       id="path4234"
       inkscape:connector-curvature="0"
       sodipodi:nodetypes="cccccccsc" />
    <path
       inkscape:connector-curvature="0"
       id="path4238"
       d="m 383,206.625 c -10.73287,6.43429 -19.67259,15.61927 -30.86952,21.4381 -21.06144,12.0985 -44.63621,21.97898 -69.38048,21.28065 19.07315,12.92817 37.4492,26.82569 56.71875,39.40625 16.14271,9.7655 33.95338,17.41739 52.84375,19.3125 7.20486,-20.00364 12.29635,-41.80774 7.21875,-62.96875 -2.54866,-10.19826 -5.06863,-20.91578 -10.59375,-29.90625 -2.78436,-2.27753 -5.33161,-5.05915 -5.9375,-8.5625 z"
       style="fill:none;stroke:#aa0000;stroke-width:1px;stroke-linecap:butt;stroke-linejoin:miter;stroke-opacity:1" />
    <path
       inkscape:connector-curvature="0"
       id="path4242"
       d="m 381.15625,210.15625 c -12.62128,9.20063 -24.75224,19.12876 -39.04522,25.61421 -16.46407,8.37636 -34.32982,14.69333 -52.95478,15.54204 28.86655,19.02757 55.42652,43.91878 89.65625,52.375 3.91173,0.66443 8.8403,2.4268 12.25,1.84375 8.20612,-22.03055 11.9981,-46.75586 4.0625,-69.5625 -2.46475,-8.48054 -4.93456,-17.50247 -11.625,-23.46875 -0.9267,-0.5269 -1.15573,-3.55839 -2.34375,-2.34375 z"
       style="fill:none;stroke:#aa0000;stroke-width:1px;stroke-linecap:butt;stroke-linejoin:miter;stroke-opacity:1" />
    <path
       inkscape:connector-curvature="0"
       id="path4246"
       d="m 379.96875,213.5 c -24.52498,19.48559 -53.31106,35.63877 -84.90625,39.375 28.90081,19.8927 56.89612,44.86937 92.6875,50.65625 3.85808,0.31844 3.20267,-6.33473 4.90625,-9.09375 6.26158,-20.31634 6.73203,-42.709 -0.84375,-62.6875 -1.91593,-7.137 -5.30426,-13.9389 -10.6875,-19.0625 l -0.81819,0.57495 -0.33806,0.23755 z"
       style="fill:none;stroke:#aa0000;stroke-width:1px;stroke-linecap:butt;stroke-linejoin:miter;stroke-opacity:1" />
    <path
       inkscape:connector-curvature="0"
       id="path4250"
       d="m 378.875,216.875 c -22.96949,17.89897 -49.42236,32.56546 -78.46875,37.28125 27.11328,19.03205 54.37707,42.36812 87.875,47.25 8.00688,-21.75377 10.2389,-46.91315 1.59375,-69.125 -1.63778,-6.2413 -4.5329,-12.24062 -8.96875,-17 -0.67708,0.53125 -1.35417,1.0625 -2.03125,1.59375 z"
       style="fill:none;stroke:#aa0000;stroke-width:1px;stroke-linecap:butt;stroke-linejoin:miter;stroke-opacity:1" />
    <path
       inkscape:connector-curvature="0"
       id="path4254"
       d="m 380.125,218.4375 c -22.01281,17.16421 -47.07396,31.27367 -74.6875,36.84375 25.14886,17.87885 50.45529,38.70053 81.53125,43.90625 8.09344,-22.27543 8.92954,-47.64053 -0.0625,-69.75 -1.41463,-4.14922 -3.45534,-8.00451 -6.25,-11.40625 l -0.53125,0.40625 z"
       style="fill:none;stroke:#aa0000;stroke-width:1px;stroke-linecap:butt;stroke-linejoin:miter;stroke-opacity:1" />
    <path
       inkscape:connector-curvature="0"
       id="path4258"
       d="m 379.28125,221.625 c -20.57715,15.68467 -43.69239,28.69576 -69.0625,34.625 23.21684,16.65531 46.85982,35.33073 75.4375,40.65625 8.41031,-24.48994 8.1499,-53.136 -5.125,-75.75 -0.29982,-0.84285 -0.82482,0.23969 -1.25,0.46875 z"
       style="fill:none;stroke:#aa0000;stroke-width:1px;stroke-linecap:butt;stroke-linejoin:miter;stroke-opacity:1" />
    <path
       inkscape:connector-curvature="0"
       id="path4262"
       d="m 378.5625,224.6875 c -19.14809,14.3158 -40.42885,26.23286 -63.6875,32.46875 21.25861,15.31659 43.29133,32.01335 69.40625,37.4375 7.52742,-22.97779 7.21445,-49.33735 -4.53125,-70.8125 l -0.79495,0.60667 -0.39255,0.29958 z"
       style="fill:none;stroke:#aa0000;stroke-width:1px;stroke-linecap:butt;stroke-linejoin:miter;stroke-opacity:1" />
    <path
       inkscape:connector-curvature="0"
       id="path4266"
       d="m 377.9375,227.625 c -17.74238,13.06838 -37.36619,24.02415 -58.5625,30.3125 19.51355,14.11126 39.77016,28.81525 63.5625,34.34375 6.4969,-21.23509 6.32383,-45.41167 -3.875,-65.46875 l -0.81068,0.58549 -0.31432,0.22701 z"
       style="fill:none;stroke:#aa0000;stroke-width:1px;stroke-linecap:butt;stroke-linejoin:miter;stroke-opacity:1" />
    <path
       inkscape:connector-curvature="0"
       id="path4270"
       d="m 377.46875,230.46875 c -16.50871,11.90409 -34.30773,21.86365 -53.65625,28.1875 17.70671,12.7343 36.61817,26.14104 57.8125,31.0625 5.49128,-19.5545 5.32355,-41.30067 -3.3125,-59.875 l -0.80356,0.59523 -0.0402,0.0298 z"
       style="fill:none;stroke:#aa0000;stroke-width:1px;stroke-linecap:butt;stroke-linejoin:miter;stroke-opacity:1" />
    <path
       inkscape:connector-curvature="0"
       id="path4274"
       d="m 375.5,234.3125 c -14.45904,10.36438 -31.118,18.98128 -47.1875,25.125 16.13814,11.41677 32.6074,22.88618 51.90625,27.84375 4.60117,-17.84355 4.4731,-37.36243 -2.75,-54.375 -0.65625,0.46875 -1.3125,0.9375 -1.96875,1.40625 z"
       style="fill:none;stroke:#aa0000;stroke-width:1px;stroke-linecap:butt;stroke-linejoin:miter;stroke-opacity:1" />
    <path
       inkscape:connector-curvature="0"
       id="path4278"
       d="m 375.28125,236.90625 c -13.29715,9.32216 -27.72208,16.94723 -42.78125,23.03125 14.34718,10.15463 29.29939,20.03815 46.25,24.90625 3.8328,-16.04601 3.65974,-33.46534 -2.1875,-48.84375 l -0.81642,0.57746 -0.46483,0.32879 z"
       style="fill:none;stroke:#aa0000;stroke-width:1px;stroke-linecap:butt;stroke-linejoin:miter;stroke-opacity:1" />
    <path
       inkscape:connector-curvature="0"
       id="path4282"
       d="m 373.90625,240.28125 c -11.72884,7.95891 -24.24844,14.60701 -37.28125,20.125 12.63917,8.81285 25.86947,17.25214 40.625,21.90625 3.11557,-14.21968 2.90924,-29.503 -1.6875,-43.15625 -0.55208,0.375 -1.10417,0.75 -1.65625,1.125 z"
       style="fill:none;stroke:#aa0000;stroke-width:1px;stroke-linecap:butt;stroke-linejoin:miter;stroke-opacity:1" />
    <path
       inkscape:connector-curvature="0"
       id="path4286"
       d="m 372.78125,243.40625 c -10.14193,6.75165 -20.93627,12.50708 -32.0625,17.40625 10.95172,7.49006 22.47059,14.58995 35,18.875 2.43799,-12.30269 2.23847,-25.28548 -1.25,-37.375 -0.5625,0.36458 -1.125,0.72917 -1.6875,1.09375 z"
       style="fill:none;stroke:#aa0000;stroke-width:1px;stroke-linecap:butt;stroke-linejoin:miter;stroke-opacity:1" />
    <path
       inkscape:connector-curvature="0"
       id="path4290"
       d="m 371.96875,246.34375 c -8.70422,5.59366 -17.77731,10.57545 -27.1875,14.8125 9.22074,6.13229 18.91761,11.97943 29.40625,15.84375 1.75684,-10.36963 1.57007,-21.2934 -0.9375,-31.5 l -0.83517,0.54999 -0.44608,0.29376 z"
       style="fill:none;stroke:#aa0000;stroke-width:1px;stroke-linecap:butt;stroke-linejoin:miter;stroke-opacity:1" />
    <path
       inkscape:connector-curvature="0"
       id="path4294"
       d="m 371.40625,249.0625 c -7.25935,4.60986 -14.72899,8.71985 -22.53125,12.40625 7.55594,4.90483 15.35574,9.40119 23.71875,12.78125 1.10219,-8.42047 1.0675,-17.15102 -0.6875,-25.5 l -0.5,0.3125 z"
       style="fill:none;stroke:#aa0000;stroke-width:1px;stroke-linecap:butt;stroke-linejoin:miter;stroke-opacity:1" />
    <path
       inkscape:connector-curvature="0"
       id="path4298"
       d="m 369.75,252.46875 c -5.47611,3.33109 -11.0366,6.40939 -16.78125,9.25 5.77866,3.6211 11.77718,6.96843 17.9375,9.65625 0.68128,-6.4365 0.55213,-13.03062 -0.40625,-19.375 l -0.75,0.46875 z"
       style="fill:none;stroke:#aa0000;stroke-width:1px;stroke-linecap:butt;stroke-linejoin:miter;stroke-opacity:1" />
    <path
       inkscape:connector-curvature="0"
       id="path4302"
       d="m 368.71875,255.4375 c -3.82251,2.24317 -7.67756,4.43426 -11.625,6.4375 3.88728,2.39892 7.92825,4.55447 12.0625,6.5 0.21153,-4.20825 0.42754,-9.21827 -0.4375,-12.9375 z"
       style="fill:none;stroke:#aa0000;stroke-width:1px;stroke-linecap:butt;stroke-linejoin:miter;stroke-opacity:1" />
    <path
       inkscape:connector-curvature="0"
       id="path4306"
       d="m 366.84375,258.8125 c -5.22948,2.09257 -6.55658,4.07854 -0.45717,5.96257 1.84789,2.18648 0.89114,-6.42828 0.45717,-5.96257 z"
       style="fill:none;stroke:#aa0000;stroke-width:1px;stroke-linecap:butt;stroke-linejoin:miter;stroke-opacity:1" />
    <path
       inkscape:connector-curvature="0"
       id="path4310"
       d="m 365.34375,261.71875 c -1.44289,0.19654 0.95051,1.18522 0,0 z"
       style="fill:none;stroke:#aa0000;stroke-width:1px;stroke-linecap:butt;stroke-linejoin:miter;stroke-opacity:1" />
    <path
       sodipodi:nodetypes="cccccccccccccccc"
       inkscape:connector-curvature="0"
       id="path4314"
       d="m 95.078521,199.56932 c 0.119434,2.6751 17.244579,4.01864 14.546479,6.77443 8.22059,5.08612 14.86479,13.03119 17.90625,22.125 3.30272,-2.12382 6.23927,-4.75927 9.34375,-7.15625 -1.65221,6.32911 2.76887,11.12611 7,14.9375 12.86261,17.90883 17.67783,40.92964 34.59205,56.10279 16.19811,16.83464 34.60594,31.90179 55.65795,42.45971 28.99714,12.34826 59.57999,22.56418 90.8679,27.51271 l -25.70719,12.89411 c -25.89276,6.49408 -51.00208,14.22291 -81.42857,13.57143 -13.09524,-1.12766 -26.19047,-4.82541 -39.28571,-10.71428 -15.06246,-10.96443 -31.21772,-28.6152 -44.28572,-47.85715 -11.48386,-21.66667 -11.36648,-16.91258 -33.1889,-65 -2.621327,-12.81267 -6.654882,-26.18192 -7.9438,-39.6608 0.08995,-5.9988 -1.720103,-10.5726 0.757614,-18.36222 z"
       style="fill:none;stroke:#ff00ff;stroke-width:1px;stroke-linecap:butt;stroke-linejoin:miter;stroke-opacity:1" />
    <path
       inkscape:connector-curvature="0"
       id="path4324"
       d="m 98.15625,205.90625 c -4.102052,17.77002 2.00598,35.75217 5.67141,53.05796 4.15827,15.29676 12.68508,29.09092 19.54734,43.44204 14.09129,27.78349 32.49796,54.24739 58.125,72.59375 20.8596,9.99887 44.91313,12.01857 67.4375,7.59375 18.34764,-3.22471 36.9112,-6.92075 54.25998,-13.79928 4.856,-2.48382 13.5678,-5.38164 3.33377,-5.98197 -29.40508,-6.77979 -58.59349,-16.02406 -85.1281,-30.45496 -21.60595,-13.26798 -41.26979,-30.10667 -56.78149,-50.0883 -10.73844,-16.11092 -15.799,-35.63848 -29.46541,-49.83174 -1.20381,-2.97009 -2.15849,-3.59761 -4.46875,-1.125 -2.75347,2.6179 -7.43712,1.6369 -7.375,-2.8125 -3.44193,-9.00735 -10.63098,-16.27119 -19.0625,-20.78125 -0.20761,-1.50902 -4.933792,-1.22066 -6.09375,-1.8125 z"
       style="fill:none;stroke:#ff00ff;stroke-width:1px;stroke-linecap:butt;stroke-linejoin:miter;stroke-opacity:1" />
    <path
       inkscape:connector-curvature="0"
       id="path4330"
       d="m 101.21875,211.46875 c -1.602053,18.6933 3.98261,37.16948 9.34375,54.875 11.2109,25.79073 24.08658,51.30499 41,73.84375 10.3876,12.96276 21.8795,25.83076 36.8125,33.5 25.42385,10.7243 54.22333,7.51712 80.32198,0.98 10.85095,-2.28908 21.63119,-5.01143 31.92802,-9.26125 -39.72487,-9.32358 -79.56272,-23.4247 -110.53125,-50.8125 -16.84649,-14.19104 -31.8655,-31.1141 -40.48476,-51.68456 -4.87035,-9.74367 -9.91743,-19.99976 -17.26524,-27.94044 -5.11832,4.71159 -13.36179,-0.16215 -13.46875,-6.6875 -3.49366,-7.71817 -9.94534,-13.78032 -17.5625,-17.59375 l -0.0937,0.78125 z"
       style="fill:none;stroke:#ff00ff;stroke-width:1px;stroke-linecap:butt;stroke-linejoin:miter;stroke-opacity:1" />
    <path
       inkscape:connector-curvature="0"
       id="path4336"
       d="m 105,218.71875 c 1.01296,36.79529 19.30785,70.13615 37.47149,101.22049 11.98558,18.59142 25.87373,37.18912 45.12226,48.59201 24.23982,12.46313 53.05493,8.42124 78.63244,2.68932 6.7834,-1.44505 13.71598,-3.20509 20.36756,-5.15807 C 244.11562,355.2938 202.84307,336.02402 172.5625,303.84375 158.84108,290.06704 149.26278,272.98904 141.32487,255.60183 138.40291,250.38764 135.65081,243.99962 131,240.3125 c -7.91428,2.63937 -15.7475,-4.46296 -16.625,-12.09375 -2.22911,-4.2259 -5.57211,-7.83476 -9.375,-10.59375 l 0,1 0,0.0937 z"
       style="fill:none;stroke:#ff00ff;stroke-width:1px;stroke-linecap:butt;stroke-linejoin:miter;stroke-opacity:1" />
    <path
       inkscape:connector-curvature="0"
       id="path4342"
       d="m 109.78125,228.78125 c 4.46498,35.94488 23.14375,68.36997 42.39093,98.40948 13.77273,19.96853 31.84728,40.84236 57.29657,44.24677 20.61786,3.45101 41.6328,-0.718 61.6875,-5.5 -48.18586,-14.4355 -95.08469,-41.97666 -121.71875,-85.75 -6.74485,-11.37598 -11.49556,-24.41528 -19.15625,-35.15625 -5.12526,-0.0251 -10.58968,-0.92093 -14.15625,-5.03125 -3.29822,-3.17862 -4.96655,-7.5751 -6.40625,-11.8125 l 0.0625,0.59375 z"
       style="fill:none;stroke:#ff00ff;stroke-width:1px;stroke-linecap:butt;stroke-linejoin:miter;stroke-opacity:1" />
    <path
       inkscape:connector-curvature="0"
       id="path4348"
       d="m 117.5625,247.40625 c 9.40515,33.47476 27.61303,63.69974 48.25,91.4375 12.71468,15.89999 30.88049,29.29119 52.0903,29.58305 12.83161,0.96268 25.62216,-0.6878 38.1597,-3.2393 -49.36766,-17.2713 -96.25326,-49.92377 -118.23403,-98.6519 -3.04394,-5.94532 -5.87936,-12.25389 -9.85972,-17.5356 -3.76022,-0.15418 -7.58657,-1.16208 -10.78125,-3 l 0.25766,0.96623 0.11734,0.44002 z"
       style="fill:none;stroke:#ff00ff;stroke-width:1px;stroke-linecap:butt;stroke-linejoin:miter;stroke-opacity:1" />
    <path
       inkscape:connector-curvature="0"
       id="path4354"
       d="m 123.28125,252.46875 c 11.03814,33.65046 29.68656,64.70888 52.38582,91.55953 13.34205,14.14793 32.47546,22.40096 51.95793,20.65922 4.42092,-0.12065 8.91837,-0.46325 13.25,-1 -45.59396,-18.5987 -87.33409,-51.51759 -107.65625,-97.25 -2.80971,-4.39092 -3.952,-10.67984 -8.34375,-13.6875 -0.50086,-0.0224 -1.30406,-0.27949 -1.59375,-0.28125 z"
       style="fill:none;stroke:#ff00ff;stroke-width:1px;stroke-linecap:butt;stroke-linejoin:miter;stroke-opacity:1" />
    <path
       inkscape:connector-curvature="0"
       id="path4360"
       d="m 153.03125,306.25 c 9.771,15.10738 20.15073,30.82174 33.96875,42.625 10.95628,8.14693 24.33655,12.2723 37.9375,12.125 -27.92542,-13.48978 -53.50785,-32.46956 -73.09375,-56.6875 0.39583,0.64583 0.79167,1.29167 1.1875,1.9375 z"
       style="fill:none;stroke:#ff00ff;stroke-width:1px;stroke-linecap:butt;stroke-linejoin:miter;stroke-opacity:1" />
  </g>
</svg>
