<?xml version="1.0" encoding="UTF-8" standalone="no"?>
<!-- Created with Inkscape (http://www.inkscape.org/) -->

<svg
   xmlns:dc="http://purl.org/dc/elements/1.1/"
   xmlns:cc="http://creativecommons.org/ns#"
   xmlns:rdf="http://www.w3.org/1999/02/22-rdf-syntax-ns#"
   xmlns:svg="http://www.w3.org/2000/svg"
   xmlns="http://www.w3.org/2000/svg"
   xmlns:sodipodi="http://sodipodi.sourceforge.net/DTD/sodipodi-0.dtd"
   xmlns:inkscape="http://www.inkscape.org/namespaces/inkscape"
   width="744.09448819"
   height="1052.3622047"
   id="svg2"
   version="1.1"
   inkscape:version="0.48.2 r9819"
   sodipodi:docname="Spiral057.svg">
  <sodipodi:namedview
     id="base"
     pagecolor="#ffffff"
     bordercolor="#666666"
     borderopacity="1.0"
     inkscape:pageopacity="0.0"
     inkscape:pageshadow="2"
     inkscape:zoom="0.45254834"
     inkscape:cx="196.88012"
     inkscape:cy="654.19535"
     inkscape:document-units="px"
     inkscape:current-layer="g3923"
     showgrid="false"
     inkscape:window-width="1024"
     inkscape:window-height="753"
     inkscape:window-x="182"
     inkscape:window-y="18"
     inkscape:window-maximized="0"
     inkscape:snap-center="false" />
  <title
     id="title6810">(UniballDeluxeFine)</title>
  <defs
     id="defs4" />
  <metadata
     id="metadata7">
    <rdf:RDF>
      <cc:Work
         rdf:about="">
        <dc:format>image/svg+xml</dc:format>
        <dc:type
           rdf:resource="http://purl.org/dc/dcmitype/StillImage" />
        <dc:title>(UniballDeluxeFine)</dc:title>
      </cc:Work>
    </rdf:RDF>
  </metadata>
  <g
     id="layer1"
     inkscape:groupmode="layer"
     inkscape:label="Pen"
     style="display:inline">
    <rect
       y="0.21038114"
       x="10.092996"
       height="786.08429"
       width="586.06732"
       id="rect3021"
       style="fill:none;stroke:#000000;stroke-width:1.12594795;stroke-miterlimit:4;stroke-opacity:1;stroke-dasharray:none" />
    <path
       inkscape:connector-curvature="0"
       style="fill:none;stroke:#000000"
       d=""
       id="path11911" />
    <path
       id="path13427"
       d=""
       style="fill:none;stroke:#000000"
       inkscape:connector-curvature="0" />
    <path
       id="path13431"
       d=""
       style="fill:none;stroke:#000000"
       inkscape:connector-curvature="0" />
  </g>
  <g
     inkscape:label="Sharpie"
     inkscape:groupmode="layer"
     id="g3923"
     style="display:inline">
    <flowRoot
       xml:space="preserve"
       id="flowRoot6771"
       style="font-size:40px;font-style:normal;font-weight:normal;line-height:125%;letter-spacing:0px;word-spacing:0px;fill:#000000;fill-opacity:1;stroke:none;font-family:Sans"><flowRegion
         id="flowRegion6773"><rect
           id="rect6775"
           width="104.65626"
           height="162.1597"
           x="89.70536"
           y="200.16124" /></flowRegion><flowPara
         id="flowPara6777" /></flowRoot>    <path
       style="fill:none;stroke:#000000;stroke-width:0.70601726px;stroke-linecap:butt;stroke-linejoin:miter;stroke-opacity:1"
       d="m 312.52011,299.61519 c 2.5979,-1.72549 5.20909,-3.16635 7.38549,-4.18075 2.30603,-0.99719 4.21119,-1.66356 5.13723,-1.84954 1.64031,-0.36388 -1.32283,1.37638 -6.15007,4.21504 -4.08835,2.83391 -9.17762,6.85588 -13.3539,10.61772 -5.40936,6.09934 -6.68883,7.20912 -7.06899,6.94303 -0.27078,-0.31732 0.15401,-1.68105 -0.24748,-1.81611 -0.3031,-0.51357 1.22208,-3.08909 3.93507,-6.44224 3.1285,-3.3226 7.59912,-7.06354 12.43444,-10.23083 9.17494,-4.6917 6.8535,-3.97858 4.06692,-2.34403 -1.18262,0.75385 -2.30753,1.64191 -1.98335,1.94702 1.80369,-0.18188 5.03626,-0.76741 5.92542,-0.31124 0.52063,0.74134 -3.82021,3.93931 -15.09153,12.4578 -9.23769,11.32688 -12.4688,15.91966 -14.11015,17.45023 -1.39744,1.0889 -1.72238,-0.81325 -2.04382,-2.17592 0.16405,-2.62619 2.77752,-8.43217 7.26159,-14.85316 5.85489,-6.32994 13.85031,-12.41614 22.00988,-16.71885 13.58239,-4.81027 18.60039,-6.12834 18.04842,-5.7197 -0.16239,0.22401 -2.09039,1.03821 -2.49239,1.87252 3.03343,0.24071 7.50851,0.63767 5.48805,2.11664 -3.88995,2.1125 -15.56112,7.25856 -33.19334,19.1475 -11.90354,16.83474 -15.56115,24.63801 -17.54099,27.61199 -1.80409,2.09855 -3.06089,-0.9122 -3.67658,-4.46399 0.3719,-6.08285 4.1428,-15.80684 10.68623,-25.17781 9.39831,-9.05922 21.56586,-16.41159 33.03605,-20.50946 17.55035,-3.15458 28.87734,-3.54034 31.59715,-3.10624 2.7729,0.43657 0.69272,0.77269 -1.51052,1.62864 3.86718,1.28987 6.47364,3.01526 0.20834,3.99578 -9.50551,1.74994 -29.47327,7.29688 -52.96061,22.28497 -12.72447,22.48555 -15.39277,32.88738 -17.18984,36.63173 -2.07105,2.20865 -4.86023,-2.69721 -6.35328,-9.33679 0.56055,-10.80314 6.22929,-24.54722 15.51499,-36.04392 13.92234,-10.64976 30.73005,-17.60276 45.21349,-20.09672 21.77672,0.15381 38.45053,3.22749 43.75287,5.16967 5.70181,2.29298 4.18158,2.36527 -0.15829,2.11651 3.54202,2.51013 2.60291,4.04568 -8.81582,2.4613 -15.96806,-0.48095 -44.74691,4.3231 -73.04764,22.58055 -11.20688,28.00218 -11.91864,40.21462 -13.62074,43.92901 -2.99189,1.08959 -8.16675,-6.64623 -10.8035,-17.21269 1.5956,-16.44069 10.40887,-33.28651 23.11954,-45.5115 19.1833,-10.49557 40.65631,-15.21306 57.53974,-14.93435 25.24902,5.09689 45.94056,13.71804 52.98592,18.22005 7.76854,5.53035 6.91225,5.78774 0.61661,3.24433 2.26704,3.1816 -2.70274,2.44167 -19.29369,-3.90619 -22.87514,-4.54704 -60.58573,-1.08958 -92.13717,20.91109 -7.25512,33.14179 -6.80772,47.37872 -9.47903,50.32136 -4.29474,-2.105 -12.05517,-14.29631 -15.23991,-29.6635 4.32841,-21.64799 17.4078,-39.85373 33.9873,-51.38501 24.72487,-8.44133 50.39155,-9.24166 68.83061,-5.37711 27.39411,11.25526 50.22262,26.82891 57.96871,34.49737 8.51961,9.56815 8.12209,10.36754 0.57128,4.56072 0.53001,2.93881 -8.04914,-2.1246 -29.14657,-15.19367 -29.8746,-10.22871 -76.27692,-8.09341 -109.03304,18.21648 -2.0988,38.57991 -5.4551,54.83101 -9.45415,55.22335 -3.9376,-7.28684 -12.93179,-25.33975 -15.0937,-45.92295 8.54346,-24.59747 26.74428,-42.79774 47.37844,-52.44556 30.05264,-4.60576 59.00857,-0.13442 78.0474,7.75734 27.92593,18.06318 50.76571,41.17544 58.12761,52.16048 7.84909,13.75544 7.57326,15.26312 -0.22461,5.64899 -1.20333,1.70622 -12.32432,-9.35904 -36.84715,-30.67674 -36.74754,-17.16472 -91.2437,-15.68591 -122.79055,15.34897 -0.0136,45.10566 -10.0552,59.59254 -13.58715,56.38068 -1.393,-12.85757 -10.81636,-36.54296 -10.59078,-60.85001 13.94015,-26.71117 37.83078,-43.73857 62.41788,-50.44693 34.68697,0.77427 65.70791,11.45481 84.38908,23.4787 26.80384,24.94536 47.61449,55.41093 53.62843,69.48353 5.93124,17.55372 5.43557,19.75175 -1.55026,6.23514 -2.57123,-0.40651 -14.81524,-18.65114 -41.52551,-49.26921 -43.41564,-24.90668 -104.99688,-22.84666 -132.78797,12.99958 -4.00676,50.44491 -19.05061,59.85379 -20.32138,53.34913 2.23677,-17.58837 -7.16741,-45.95302 -3.61706,-73.22323 20.29821,-27.87933 50.06169,-42.47635 78.19951,-45.30338 38.2348,7.35506 69.94179,24.72648 87.40221,40.71805 24.18372,31.40972 41.25331,68.44659 45.17383,85.12452 3.0906,20.62083 2.10191,23.35952 -3.14536,6.1953 -3.34201,-3.20321 -15.18851,-29.3143 -42.88653,-69.84466 -49.90645,-32.96354 -117.07828,-28.68221 -138.89365,11.8002 -12.7536,52.17469 -30.57311,55.56742 -28.3722,46.67216 5.51504,-21.08638 -3.25606,-53.55878 4.45758,-83.23315 27.33657,-27.83172 62.76747,-38.73324 93.80735,-36.90523 40.437,14.71952 71.45372,38.82901 86.98251,58.43628 20.35206,37.1084 32.4197,79.57144 33.74417,98.24398 -0.31881,22.79787 -1.97857,25.84962 -4.77723,5.50575 -3.39911,-6.4734 -13.40223,-40.74057 -41.0687,-91.43727 -56.30703,-40.82136 -127.02359,-32.52836 -141.84417,12.55666 -23.48376,49.62476 -42.96344,47.09205 -36.4156,36.88241 7.36858,-23.55705 0.30422,-59.94448 12.91993,-91.35267 34.71557,-26.42819 75.26461,-32.48797 108.39532,-25.45078 41.19308,22.42531 70.27851,52.95689 83.3406,75.72366 15.64259,41.83421 21.9123,88.41858 20.3616,108.45517 -3.98397,24.08864 -6.39827,27.20081 -6.26121,4.22125 -2.70754,-10.03554 -9.59584,-52.46708 -36.47303,-113.31017 -62.70612,-47.96182 -134.39449,-34.03094 -143.50688,15.76223 -34.28138,43.40825 -54.03065,34.97421 -42.55656,24.6014 7.3657,-25.54752 3.38824,-65.63184 21.48753,-97.97699 42.06802,-23.6484 86.91878,-23.94041 121.25835,-11.38193 40.55508,30.06156 66.69205,66.44039 76.92216,91.87889 10.38719,45.52776 10.46858,94.94895 5.93451,115.75829 -7.67142,24.56636 -10.84153,27.48132 -7.4622,2.4008 -1.27905,-13.75373 -4.00067,-64.18726 -29.63644,-134.95646 -69.1399,-53.87433 -138.86378,-33.14171 -145.40353,20.53532 -44.51275,34.95524 -62.06123,20.97977 -45.5922,11.49623 5.79068,-27.61918 6.17728,-70.91979 30.14377,-103.32353 49.04181,-19.58785 97.21153,-13.46687 131.89347,4.69505 38.69052,37.29492 61.12178,78.79863 68.29783,106.44236 4.86759,48.22557 -1.31896,99.31983 -8.82579,120.38693 -11.22608,24.35239 -15.08462,26.82556 -8.27754,0.11136 0.85531,-17.53711 3.12157,-75.72139 -21.13401,-156.04083 -75.5401,-58.09141 -140.34363,-30.0517 -147.11491,25.32189 -54.64926,25.71338 -67.38752,7.44799 -46.5225,-0.45968 3.36975,-30.02727 9.08082,-75.85869 39.08095,-107.41567 55.34381,-14.44034 105.79338,-1.55491 140.03347,22.10441 35.83066,43.89056 54.04985,89.74362 58.05756,119.17806 -0.70021,50.0319 -13.02617,101.81176 -23.42443,122.70478 -14.55722,23.56762 -18.97642,25.37031 -8.61847,-2.59702 3.6609,-21.33213 11.50691,-86.9945 -11.54474,-176.36499 -81.70631,-60.20954 -139.0685,-25.03284 -147.11902,29.30108 -65.49338,16.44792 -71.6045,-4.12526 -47.67237,-10.30789 1.03556,-32.72654 12.72165,-80.30785 48.70762,-110.14594 60.75669,-8.4671 112.48016,11.25772 145.6177,40.16754 32.23935,49.71738 45.96198,99.1708 46.76009,130.04899 -6.16952,51.08336 -24.3895,102.74973 -37.56246,123.11205 -17.61747,22.3169 -22.41099,23.23636 -8.3941,-5.68877 7.1062,-25.11073 20.90001,-97.99064 -1.41252,-195.78873 -87.29522,-59.95786 -135.5805,-18.39033 -147.4974,35.55729 -74.11766,4.36343 -72.90269,-16.36176 -47.80509,-21.1723 -0.29854,-35.54237 17.74453,-84.06676 59.47888,-111.40351 65.15902,-1.96323 117.25749,24.44752 148.7741,58.275 28.16957,54.73519 37.28468,107.11551 34.8744,139.15881 -11.45632,51.52502 -35.2813,102.45386 -51.09872,121.9871 -20.37983,20.67781 -25.29786,20.51591 -7.49834,-9.14113 11.16092,-28.86023 31.04749,-108.72638 8.76057,-214.18776 -91.85278,-57.24963 -130.49776,-10.41752 -150.03074,44.42715 -78.18634,-10.34387 -69.99654,-29.41504 -45.63296,-33.53419 -0.11917,-38.27001 24.43029,-86.95291 71.52397,-111.13663 68.52247,4.77734 120.24977,37.5531 149.76905,75.92777 23.84157,58.97498 28.36149,113.71087 22.76313,146.7014 -16.52866,51.49542 -45.68025,101.21006 -64.00719,119.65295 -22.81641,18.69926 -27.53528,17.2729 -5.80118,-12.93762 15.78964,-32.57745 41.68666,-119.23494 18.51499,-231.43003 -94.88368,-52.20884 -124.29782,-1.14062 -154.83037,54.44837 -77.45219,-25.68368 -63.59008,-42.05435 -41.05865,-46.17977 1.56687,-40.67602 32.5733,-88.79695 84.5332,-109.33305 70.89825,11.49029 121.68058,50.20543 148.95419,92.75622 19.43156,62.51711 19.44606,119.14847 10.68279,152.91761 -21.39052,51.10789 -55.62895,99.23859 -76.32502,116.35245 -24.89138,16.41652 -29.007,13.56597 -3.15758,-17.0505 20.94275,-36.26467 52.53377,-129.5498 27.44274,-247.35309 -95.94583,-45.16958 -117.51296,9.87996 -161.49238,64.15489 -72.54167,-39.88637 -54.90709,-53.50902 -34.21862,-57.95817 4.42235,-42.54682 41.67451,-89.4811 97.953,-106.04131 72.40063,17.96245 121.83569,62.14653 146.72129,108.52954 15.06513,65.46739 10.70246,123.63796 -1.20945,158.05267 -26.07191,50.45389 -65.21292,96.70261 -88.12242,112.25499 -26.54441,13.85006 -29.56445,9.44696 0.59341,-21.44188 26.54676,-39.9281 63.27575,-139.69064 35.20279,-261.75388 -94.75136,-36.62998 -110.97524,23.02057 -169.20604,72.35952 -64.69591,-51.77579 -45.02541,-63.29104 -25.62442,-68.00409 8.01687,-43.75239 51.18076,-88.99208 111.22228,-101.4086 73.18195,24.04168 121.02157,73.22667 143.45801,123.13979 10.82268,67.94137 2.22051,127.3853 -12.83579,162.33526 -30.61918,49.60109 -74.53756,93.70753 -99.4724,107.46101 -27.68423,11.01686 -29.02665,4.9754 5.6172,-26.05711 32.49747,-43.57967 73.56972,-149.66173 41.52977,-274.40637 -91.23948,-27.14655 -105.60112,37.98935 -177.00757,78.34144 -55.35671,-60.90763 -34.81311,-71.17158 -16.04896,-75.90338 11.9702,-44.25539 60.62769,-87.41184 123.90352,-95.65731 73.40886,29.63682 119.53196,83.38841 139.51605,136.57511 6.74774,70.05375 -5.96732,130.58084 -24.17806,165.96807 -35.08519,48.59146 -83.70379,90.30111 -110.42184,102.01004 -28.19208,7.94425 -27.19621,0.23362 12.0624,-30.81994 38.6549,-47.23643 83.04904,-159.43678 46.25639,-285.07037 -85.60996,-17.2363 -102.11753,53.87245 -184.07671,81.84027 -45.77989,-67.4476 -24.95845,-77.27086 -6.28377,-81.70004 15.99598,-44.08049 69.6779,-84.87856 135.71312,-89.04013 73.24784,34.71422 117.6301,92.65396 135.19494,148.90241 2.85198,71.90711 -13.87449,133.38361 -35.26403,169.11268 -39.52413,47.44501 -92.79493,86.48352 -120.97472,95.89632 -27.92453,4.67738 -23.87388,-4.67049 20.04248,-35.6369 44.84404,-50.92064 91.3394,-168.95435 49.3205,-293.52351 -78.30567,-7.282 -100.95268,69.47571 -189.92818,82.93287 -36.81743,-71.91937 -15.89674,-81.96798 3.06985,-85.76893 19.89708,-43.28512 78.10976,-81.54462 146.49676,-81.79314 72.85068,39.2879 115.53392,101.10332 130.73071,160.23983 -0.87568,73.58779 -21.54563,135.91926 -46.15189,171.88982 -43.98771,46.16296 -101.86583,82.21662 -131.07927,89.08492 -26.7224,1.28527 -18.8812,-9.60542 29.61496,-40.40487 50.86108,-54.65809 98.08215,-178.11527 50.75967,-299.59346 -69.95551,2.51042 -102.22482,83.62823 -194.4565,81.86817 -28.88665,-74.95295 -7.78973,-85.73055 11.68837,-88.62828 23.54764,-41.94063 85.79093,-77.55093 156.1925,-74.1103 72.34638,43.40828 113.40999,108.85436 126.29366,170.73421 -4.46217,75.16398 -29.04591,138.28 -56.91914,174.38076 -48.52129,44.72927 -110.92988,77.43159 -140.61689,81.52779 -24.42887,-2.13618 -12.09181,-14.42423 40.75834,-45.02179 56.48146,-58.46902 102.96209,-186.76237 50.71009,-303.16902 -61.31048,12.07227 -105.81622,95.38828 -197.88037,78.91892 -22.05841,-77.11567 -0.57824,-88.969 19.50307,-90.77364 26.87392,-40.12264 92.65319,-73.01865 164.80078,-66.13805 71.83684,47.15092 111.37276,116.04522 121.99092,180.54245 -7.94424,76.68554 -36.45289,140.52694 -67.65454,176.63085 -53.16021,43.11239 -119.94859,72.03899 -149.39686,73.18116 -20.91114,-5.46888 -3.46237,-18.98191 53.35426,-49.40098 61.47708,-62.36495 105.73833,-194.70059 49.3585,-304.22745 -53.14017,21.43068 -111.47127,104.17342 -200.59312,74.31918 -16.17862,-78.84919 5.93793,-91.95938 26.62856,-92.58411 29.84326,-37.90895 98.67432,-68.04197 172.35547,-57.97067 71.39565,50.60615 109.48763,122.82014 117.87261,189.81737 -11.36429,78.18514 -43.85119,142.69379 -78.45263,178.65382 -57.92571,41.26665 -128.81986,65.9401 -157.15582,64.02283 -16.08664,-8.58505 6.93861,-23.15855 67.17512,-53.48643 65.62872,-66.334 106.27166,-201.68011 46.9275,-302.81343 -46.16752,30.61794 -118.92975,109.72895 -203.04878,68.21265 -10.97014,-80.46287 12.02063,-94.82281 33.27803,-94.27411 32.45256,-35.37928 103.8638,-62.69581 178.90947,-49.66324 71.06826,53.86951 107.77529,129.31583 113.9397,198.6942 -14.76646,79.68207 -51.32887,144.79423 -89.41042,180.44006 -62.82243,39.13501 -137.374,59.04173 -163.56699,54.06724 -9.94317,-11.36776 18.917,-26.8842 81.88527,-57.26537 68.74374,-70.33414 104.5454,-207.41974 43.63149,-299.02792 -40.99993,39.63292 -127.99236,112.0294 -205.64394,60.64578 -6.09671,-82.15793 17.94222,-97.54231 39.69704,-95.88719 34.72147,-32.61567 108.25427,-57.04157 184.5242,-41.24159 70.87755,57.03933 106.22076,135.66419 110.15192,207.29801 -18.19738,81.17837 -58.97746,146.8144 -100.62481,181.94691 -67.83296,36.6506 -145.36708,51.27132 -168.25288,43.37662 -2.55872,-13.73444 32.14602,-30.15736 97.05005,-60.77521 70.67171,-74.28868 100.67219,-211.63408 39.64739,-293.00144 -38.09592,48.41401 -138.53275,111.12933 -208.64272,51.55831 -1.19522,-84.04551 23.95868,-99.99124 46.11553,-97.30634 36.68651,-29.70042 111.89581,-51.13346 189.26526,-32.71305 70.82087,60.20523 104.77512,141.97153 106.43656,215.7197 -21.70121,82.67119 -66.88958,148.7347 -112.19149,183.12279 -72.91218,33.73978 -152.48021,42.59411 -170.80591,32.06637 5.88899,-15.65954 46.17662,-33.05299 112.15731,-64.10201 71.31575,-78.08403 94.88608,-214.05811 35.10682,-284.86646 -37.76568,56.81913 -150.46505,107.01923 -212.14198,40.77496 4.10898,-86.15078 30.29931,-101.96159 52.71715,-98.27665 38.39647,-26.71101 114.85102,-45.0189 193.19602,-24.07084 70.87634,63.44886 103.36482,148.32543 102.69634,224.02833 -25.32238,84.14941 -75.16148,150.5211 -124.20352,183.89607 -77.98082,30.32645 -158.32548,33.03036 -170.81466,20.30252 15.12448,-17.18885 60.46309,-35.71478 126.64922,-67.36903 70.63777,-81.56907 87.52233,-214.46498 30.10546,-274.7415 -40.19192,64.61315 -163.6804,99.52604 -216.06271,28.01129 10.18362,-88.39158 37.15105,-103.18303 59.60627,-98.43285 39.90407,-23.71148 117.18901,-38.73939 196.37776,-15.29896 71.00465,66.84004 101.89727,154.79038 98.81713,232.26784 -29.10559,85.59813 -83.89398,152.13042 -136.74951,184.17995 -82.91919,26.3389 -162.45972,22.67027 -167.89403,8.29141 24.78847,-18.43974 74.40165,-38.33181 139.96087,-70.71574 68.6649,-84.56898 78.9789,-212.7042 24.70334,-262.7304 -45.45338,71.47863 -177.949,88.27027 -220.13377,12.90178 17.36085,-90.55855 44.63913,-103.34202 66.78396,-97.34256 41.25837,-20.74445 118.97648,-32.32448 198.85967,-6.3699 71.15176,70.43508 100.26677,161.40677 94.67501,240.45823 -33.09729,87.00132 -93.19391,153.51085 -149.91074,183.873 -87.56017,21.7188 -164.40537,11.68382 -161.7168,-3.7369 34.46137,-19.58476 87.37645,-41.10306 151.56173,-74.27068 65.48755,-86.8991 69.67315,-208.71439 18.93809,-248.92606 -53.56585,77.0112 -192.81361,72.68362 -223.88995,-4.95341 25.88735,-92.29917 52.79229,-102.10225 74.11882,-94.56093 42.49483,-17.82497 120.26766,-25.78849 200.6731,2.75523 71.25169,74.27494 98.36053,168.1905 90.14286,248.59738 -37.34787,88.34366 -103.17506,154.60082 -163.75701,182.85872 -91.69016,16.4338 -163.68599,0.3195 -152.0412,-15.55185 43.69808,-20.81863 98.80877,-44.19464 160.99263,-78.11897 61.25097,-88.37674 60.0052,-202.51545 12.83681,-233.42315 -64.50872,80.69718 -207.4843,52.10876 -226.67719,-25.91408 35.85977,-93.13298 61.50705,-99.13834 81.32937,-89.70102 43.62719,-14.94011 121.09388,-19.12903 201.82262,12.12502 71.22961,78.38395 96.06464,175.13328 85.09623,256.66333 -41.91426,89.61207 -113.95796,155.32611 -178.34022,181.00486 -95.04538,10.49116 -159.85674,-11.1045 -138.73631,-26.93986 52.05988,-22.31926 108.1984,-47.7036 167.89803,-82.27819 56.14662,-88.84524 50.31854,-194.2118 6.40272,-216.32698 -78.22125,81.8816 -220.75584,25.97036 -227.6552,-50.21327 47.1591,-92.5061 70.52358,-94.18496 87.98661,-82.51332 44.64284,-12.05449 121.45619,-12.33035 202.28064,21.79175 71.00484,82.76772 93.26979,182.2019 79.41903,264.61521 -46.86271,90.79676 -125.66771,155.59647 -193.68655,178.16478 -97.31828,3.9538 -152.54507,-22.22153 -121.80348,-37.71842 59.15144,-24.209 115.16,-51.63179 172.05071,-86.68176 50.39497,-88.18748 40.87934,-183.96865 -0.39797,-197.76509 -94.54573,79.71728 -231.01965,-5.98583 -225.83751,-77.86415 59.40984,-89.88733 79.43302,-87.09706 93.5542,-72.96155 45.50289,-9.12085 121.32264,-5.37131 201.98427,31.80124 70.49625,87.41523 89.8769,189.34664 73.00487,272.40461 C 474.08096,632.27518 387.92568,695.68104 316.57065,714.55949 218.39652,711.514 175.07924,681.91011 215.18469,666.81642 279.83609,640.2901 334.62671,610.94157 388.54437,575.64227 432.77042,489.30664 420.41,403.65362 380.88535,397.73938 267.78544,470.87862 144.47287,354.28672 160.72,289.15722 c 71.98079,-84.88175 87.72119,-77.90321 97.46605,-61.27325 46.14735,-6.09316 120.63239,1.76259 200.84186,42.1794 69.62405,92.29379 85.80155,196.49441 65.76328,279.9677 C 466.55328,642.89813 372.43852,704.29442 298.22357,718.8755 200.95058,708.5807 171.64255,676.84894 220.45104,661.97195 288.78286,632.75665 341.38074,601.7423 392.31828,566.44977 430.1772,483.17149 415.67793,407.95652 376.75409,409.48873 243.66247,470.39366 141.65704,324.06411 167.14625,267.73885 c 84.0406,-77.34001 94.84831,-66.83456 99.23721,-47.94375 46.50456,-2.93955 119.30609,9.0667 198.74421,52.91916 68.31575,97.3522 80.97805,203.5595 57.61819,287.23795 C 457.87698,653.67276 355.2146,712.27418 278.8329,721.95561 184.5372,704.45469 170.96076,671.91036 227.43016,656.84434 297.50052,624.71057 347.07053,592.4263 395.17321,557.40328 426.65365,478.34784 410.51806,413.70039 370.76353,422.1562 217.65595,463.91594 145.16081,291.9223 177.48685,245.72837 c 94.66433,-67.43509 100.34537,-54.31473 98.5822,-33.68075 46.50338,0.34808 117.26102,16.50718 195.57975,63.96997 66.50998,102.52043 75.362,210.44598 48.50872,294.14735 C 447.86591,664.57526 336.14829,719.3973 258.54518,723.63211 169.56332,699.33132 172.92892,667.15012 235.68911,651.34371 305.53553,616.26885 351.38786,583.22683 396.94745,548.71975 422.17416,474.9718 404.64559,420.89154 362.33157,435.5162 191.3622,450.28102 155.23547,259.75256 191.8068,224.1092 c 102.97353,-55.6844 103.90166,-40.91067 95.50726,-19.29651 46.08608,3.74956 114.42979,24.01595 191.25477,75.23315 64.16195,107.71627 68.93009,217.06229 38.38221,300.64032 -80.64496,94.8704 -201.76051,144.70532 -279.36347,143.06857 -81.16701,-30.28858 -60.26345,-61.21733 7.16724,-78.36103 67.72297,-37.79632 109.30042,-70.99061 152.75083,-104.77246 19.16752,-67.46011 0.17734,-111.076 -46.70727,-91.48428 -183.78429,-20.22654 -179.50402,-219.7311 -141.02573,-245.2705 108.29009,-42.90529 105.42827,-27.25811 90.35456,-5.57198 45.22085,7.21822 110.77931,31.49342 185.71572,86.56628 61.24493,112.84386 61.67932,223.31875 27.19523,306.66652 C 422.96653,686.52599 292.3777,729.94295 216.2727,722.21291 145.45905,687.15622 183.81328,657.97101 254.13553,638.9546 317.95868,598.90354 354.81099,566.23066 396.72798,533.33062 410.02122,473.02379 389.12678,439.64829 335.47957,462.2848 147.16685,400.18786 191.98733,202.35306 230.64685,185.83175 c 110.29048,-30.09682 105.09591,-13.97193 83.79348,6.88345 43.9112,10.68875 106.32686,38.81901 178.9657,97.79482 57.7539,117.80356 53.62215,229.14403 14.90315,312.19356 -100.70579,94.63885 -240.45162,130.01158 -313.31378,116.25675 -58.03407,-38.24937 -3.02687,-65.65322 68.34944,-86.92278 58.29991,-41.61372 90.04522,-73.0506 131.15022,-104.96951 7.5012,-52.40917 -16.18423,-75.98233 -78.70689,-53.2396 C 134.14729,365.61689 215.40502,179.45282 253.34748,170.54328 c 109.10343,-18.24894 103.33343,-1.55208 76.75031,17.74681 42.20111,14.09038 101.14954,45.86946 171.07828,108.73388 53.70586,122.49833 44.77948,234.49252 1.45279,317.20756 -112.65279,93.56793 -260.71478,119.14743 -328.40912,99.80644 -43.09858,-39.62164 27.07482,-65.64596 97.70626,-89.33067 51.3009,-42.30106 77.57522,-71.78112 118.74217,-102.66016 1.57965,-43.90961 -26.27959,-58.53212 -99.21679,-39.85979 -161.99598,-154.56517 -52.08854,-321.33108 -14.87754,-324.0359 105.32233,-8.12397 100.78328,9.701 70.28488,27.04867 40.17394,17.36232 95.38538,52.54063 162.19922,119.21269 49.13824,126.84242 35.17097,239.35262 -13.2267,321.71292 -125.96149,91.48742 -280.84789,105.52925 -341.37549,81.46556 -26.42563,-39.09011 56.79463,-64.49401 125.0018,-90.50967 42.9441,-41.99281 63.34176,-68.84465 105.60723,-98.61532 -4.8086,-35.02079 -38.68645,-42.28301 -122.25794,-33.05885 -129.43605,-196.37488 -1.07386,-339.34204 36.17905,-337.00464 99.9004,-0.083 98.2033,19.73327 65.42383,35.16161 37.94475,20.46845 89.22393,58.76925 152.53886,129.10032 44.10481,130.77054 24.80256,243.75271 -29.23323,325.72826 -140.58857,88.02115 -300.0613,88.97195 -351.48815,61.48311 -8.55666,-36.76792 85.05751,-62.53242 149.33736,-90.55829 33.29109,-40.65388 47.29959,-64.3478 91.8649,-92.82964 -12.12955,-26.12128 -54.0936,-28.76748 -146.34269,-35.04289 -86.17102,-228.98595 49.69,-347.29785 88.3145,-340.72275 93.95818,5.96735 96.33299,28.71789 62.98788,42.69555 35.64644,23.40766 82.88577,64.54893 142.35315,138.3271 38.66895,134.24695 13.65239,247.76401 -46.69982,329.2774 -156.35658,82.72709 -317.39557,69.46211 -358.00839,40.22639 9.87961,-32.96943 110.82302,-60.13136 169.87645,-89.6482 22.33842,-38.37175 29.28467,-58.67215 77.49153,-85.4047 -20.93183,-17.89846 -72.69038,-20.18388 -168.87236,-47.5306 -36.3991,-248.84884 96.87681,-344.61577 138.43213,-334.28652 88.57419,10.48836 95.76302,36.9708 63.4581,50.32493 33.41229,26.21656 76.59729,69.93556 131.91644,146.89372 32.89442,137.2736 1.65558,251.49829 -65.80002,332.37493 -172.90919,75.12747 -331.76582,47.21536 -360.22145,18.1678 28.21005,-28.18349 133.15191,-57.67034 185.8805,-88.02063 10.01846,-35.4072 9.06544,-52.59599 62.29646,-76.60588 -31.68195,-11.50612 -93.60539,-19.19398 -186.3078,-71.07034 14.30074,-254.33073 137.13272,-331.54965 183.04586,-317.76802 84.61231,14.12576 96.84163,44.83205 66.91487,58.60169 31.35798,28.9634 70.56269,75.04032 121.49147,154.86872 26.83391,139.89637 -11.31078,255.09981 -86.74853,335.00626 -189.6709,64.76306 -342.03146,22.71489 -357.47345,-4.14021 45.75534,-23.01308 151.2459,-55.50252 196.72565,-85.96429 -3.76237,-32.26536 -13.50296,-47.41715 45.93897,-66.96861 C 293.65311,511.45254 223.64325,491.83058 143.27848,415.58224 203.31522,169.4554 310.9672,106.13455 362.2036,123.10191 c 82.62276,17.51678 99.63764,52.56561 73.05377,67.82358 29.56741,31.73449 64.94086,80.01097 111.30262,162.37306 20.51619,142.20907 -25.44093,258.72942 -109.7944,337.10231 C 230.94277,741.6745 89.68158,687.12042 87.56021,664.30428 149.43136,646.21022 252.04846,610.37642 289.48228,580.50352 270.43927,550.74707 251.28456,535.53372 317.48487,523.07729 259.18625,511.83469 186.25798,474.5832 126.41918,378.31427 222.21572,151.25149 313.43173,97.54458 370.26323,117.40098 c 82.81318,21.15856 103.95578,60.31255 81.26239,77.99608 28.08474,34.61679 59.82885,85.00556 101.51561,169.55743 C 566.9736,509.30827 512.03109,627.49505 417.83697,703.46609 197.52958,737.96659 71.89546,673.69951 82.85241,656.38283 158.82242,642.3794 255.29274,603.22636 283.96454,574.52171 248.31401,545.50118 219.90263,527.09797 292.16843,525.08787 221.01875,504.13821 152.87564,446.39138 118.89765,337.77916 237.38004,136.50579 314.15433,89.0961 376.07241,111.54798 c 85.08314,25.36746 109.39572,68.10673 90.72969,88.8873 C 493.71565,238.1152 522.06124,290.6 559.03082,377.01016 566.05286,523.52692 461.9826,650.28497 357.12754,722.61194 125.24999,737.21034 57.96129,660.42086 81.26059,649.49282 168.8153,638.31329 256.11205,596.18992 275.34423,568.99511 222.34708,537.5734 186.22046,512.2599 262.07532,524.05608 182.35592,486.13834 127.33788,409.22058 120.44612,297.26877 247.83516,124.15463 314.66141,80.84066 380.45615,105.6776 c 89.09664,30.30792 115.43455,75.92391 100.5675,100.13201 26.02203,40.96283 51.20419,95.58816 83.47255,183.55801 C 564.15656,538.28716 446.73704,661.54686 330.63904,728.56504 91.440613,720.69941 48.12664,648.05704 82.62959,643.73154 178.8627,633.86689 254.26862,589.34637 263.41518,563.62929 193.52587,525.35998 152.92566,489.7583 228.06932,517.54919 147.38036,457.46216 111.97078,366.69126 129.44397,259.50369 253.55208,113.30105 316.30369,72.85873 384.27635,100.00168 c 94.37951,36.05181 121.5192,83.73384 109.92462,111.3381 25.35212,44.46689 47.58951,101.32006 75.2179,190.60352 C 561.0656,553.74532 410.53659,676.56041 283.02571,736.17621 42.021769,704.32117 42.421487,637.22832 86.68778,639.04372 188.42828,628.95945 249.56968,582.6848 248.06178,557.89565 163.55849,507.54207 123.09526,459.77045 192.20983,503.37569 119.96355,420.02996 106.98291,322.9751 143.41604,226.23552 255.38996,103.28894 320.07846,65.27047 388.32465,94.74856 488.73882,137.37939 515.47113,186.27733 506.40377,216.90727 531.234,265.06512 550.71165,324.25322 573.78979,414.67668 556.48346,570.08172 370.52192,686.14377 232.03642,735.89052 -4.2346745,679.99863 40.678504,628.31812 93.0574,635.24072 197.01145,623.57698 241.87305,576.06942 229.3436,551.01929 134.67887,483.56937 99.28268,424.04812 157.57597,480.40983 102.36083,377.519 110.65544,281.67856 159.58014,198.1868 248.58831,99.034671 312.83851,70.019102 393.24732,90.1329 c 106.72677,50.07536 131.92504,99.33755 124.49523,132.33061 24.37552,51.97056 41.2363,113.59753 59.86043,205.07526 C 550.02588,587.46926 341.11696,705.76636 192.9205,742.95757 -31.503365,664.79791 42.559643,621.42932 101.26696,632.03945 204.1643,617.7627 231.1093,569.21337 207.60773,542.03111 109.15824,453.97712 82.72177,385.40308 127.52489,449.205 94.59571,334.14825 120.06068,245.17055 175.32186,175.22092 243.51398,92.993816 294.37594,88.141606 399.50906,86.34864 512.44067,144.77937 535.107,193.56425 528.35233,228.02169 c 23.90836,55.82237 38.24678,119.96754 52.49507,212.518 C 541.21007,606.04451 310.34149,727.47074 154.70334,749.46106 -50.761947,652.73623 47.5831,616.39072 110.76823,629.11305 209.50668,611.59568 217.32079,561.66346 183.58475,529.90386 88.69587,420.33027 73.07285,346.80958 104.66469,411.99069 94.74412,293.47245 131.91246,214.4526 188.56699,156.62939 241.49583,95.441746 322.05114,90.170401 407.39259,83.5727 526.14457,151.34555 545.43393,198.81572 538.37812,233.65084 561.73238,293.2751 573.59345,359.97723 583.49747,453.7347 529.45253,625.86057 281.89679,754.6766 122.19132,759.23489 -57.849528,649.41688 55.14364,612.80947 120.95946,626.14268 212.73097,605.16417 200.7153,552.81782 158.41834,513.7751 73.97747,384.78233 68.78116,310.55644 90.06588,372.00288 90.0474,313.61347 116.09933,227.96635 159.91464,161.86588 199.8103,84.00282 282.91514,24.67151 287.1841,41.38095"
       id="path5591"
       inkscape:connector-curvature="0"
       sodipodi:nodetypes="csssssssssssssssssssssssssssssssssssssssssssssssssssssssssssssssssssssssssssssssssssssssssssssssssssssssssssssssssssssssssssssssssssssssssssssssssssssssssssssssssssssssssssssssssssssssssssssssssssssssssssssssssssssssssssssssssssssccccccccccccccccccccccccccccccccccccccccccccccccccccccccccccccccccccccccccccccccccccccccccccccccccccccccccccccccccccccccccccccccccccccccccccccccccccccccccccccccccccccccccccccccccccccccccccccccccccccccccccccccccccccccccccccccccccccc" />
  </g>
  <g
     inkscape:groupmode="layer"
     id="layer4"
     inkscape:label="Silver"
     style="display:inline" />
  <g
     style="display:inline"
     inkscape:label="Gel"
     id="layer3"
     inkscape:groupmode="layer" />
  <g
     style="display:inline"
     inkscape:label="Pencil"
     id="layer5"
     inkscape:groupmode="layer" />
  <g
     inkscape:groupmode="layer"
     id="layer2"
     inkscape:label="Gold"
     style="display:inline">
    <path
       id="path7370"
       d=""
       style="fill:none;stroke:#000000"
       inkscape:connector-curvature="0" />
    <path
       id="path7382"
       d=""
       style="fill:none;stroke:#000000"
       inkscape:connector-curvature="0" />
  </g>
  <path
     inkscape:connector-curvature="0"
     style="fill:none;stroke:#000000"
     d=""
     id="path3389" />
  <path
     inkscape:connector-curvature="0"
     style="fill:none;stroke:#000000"
     d=""
     id="path3403" />
  <path
     id="path3499"
     d=""
     style="fill:none;stroke:#000000"
     inkscape:connector-curvature="0" />
  <path
     id="path3513"
     d=""
     style="fill:none;stroke:#000000"
     inkscape:connector-curvature="0" />
  <path
     inkscape:connector-curvature="0"
     style="fill:none;stroke:#000000;stroke-width:1.19536245"
     d=""
     id="path3692" />
  <path
     inkscape:connector-curvature="0"
     style="fill:none;stroke:#000000;stroke-width:1.19536245"
     d=""
     id="path3706" />
</svg>
