<?xml version="1.0" encoding="UTF-8" standalone="no"?>
<!-- Created with Inkscape (http://www.inkscape.org/) -->

<svg
   xmlns:dc="http://purl.org/dc/elements/1.1/"
   xmlns:cc="http://creativecommons.org/ns#"
   xmlns:rdf="http://www.w3.org/1999/02/22-rdf-syntax-ns#"
   xmlns:svg="http://www.w3.org/2000/svg"
   xmlns="http://www.w3.org/2000/svg"
   xmlns:sodipodi="http://sodipodi.sourceforge.net/DTD/sodipodi-0.dtd"
   xmlns:inkscape="http://www.inkscape.org/namespaces/inkscape"
   sodipodi:docname="spiral022v1.svg"
   inkscape:version="0.48.2 r9819"
   version="1.1"
   id="svg3783"
   height="1052.3622047"
   width="744.09448819">
  <sodipodi:namedview
     id="base"
     pagecolor="#ffffff"
     bordercolor="#666666"
     borderopacity="1.0"
     inkscape:pageopacity="0.0"
     inkscape:pageshadow="2"
     inkscape:zoom="0.35"
     inkscape:cx="189.82443"
     inkscape:cy="930.37985"
     inkscape:document-units="px"
     showgrid="false"
     inkscape:window-width="1084"
     inkscape:window-height="748"
     inkscape:window-x="82"
     inkscape:window-y="6"
     inkscape:window-maximized="0"
     inkscape:current-layer="layer1" />
  <defs
     id="defs3785" />
  <metadata
     id="metadata3788">
    <rdf:RDF>
      <cc:Work
         rdf:about="">
        <dc:format>image/svg+xml</dc:format>
        <dc:type
           rdf:resource="http://purl.org/dc/dcmitype/StillImage" />
        <dc:title></dc:title>
      </cc:Work>
    </rdf:RDF>
  </metadata>
  <g
     inkscape:label="Layer 1"
     inkscape:groupmode="layer"
     id="layer1">
    <rect
       style="fill:none;stroke:#000000;stroke-width:0.91610378;stroke-opacity:1"
       id="rect4319"
       width="516.12524"
       height="779.49591"
       x="7.8454075"
       y="12.284647" />
    <flowRoot
       xml:space="preserve"
       id="flowRoot3475"
       style="fill:black;stroke:none;stroke-opacity:1;stroke-width:1px;stroke-linejoin:miter;stroke-linecap:butt;fill-opacity:1;font-family:Sans;font-style:normal;font-weight:normal;font-size:40px;line-height:125%;letter-spacing:0px;word-spacing:0px"><flowRegion
         id="flowRegion3477"><rect
           id="rect3479"
           width="474.7717"
           height="76.771591"
           x="40.406101"
           y="840.23016" /></flowRegion><flowPara
         id="flowPara3481" /></flowRoot>    <path
       inkscape:connector-curvature="0"
       id="path5457"
       d="m 219.54353,539.54634 c -1.6e-4,8e-5 0.002,-0.002 0.002,-0.002 0.004,-0.003 0.002,-9.8e-4 -0.002,0.002 -0.0103,0.008 -0.0205,0.0157 -0.0289,0.0201 -0.005,0.002 -0.002,8.2e-4 0.0277,-0.0226 0.0301,-0.0236 0.0718,-0.0531 0.0837,-0.0605 0.0137,-0.01 -0.0139,0.0131 -0.0644,0.0502 -0.0801,0.0602 -0.14478,0.10618 -0.1604,0.11606 -0.0268,0.0171 0.04,-0.0343 0.13668,-0.1064 0.1302,-0.0973 0.2467,-0.18099 0.2766,-0.19999 0.0301,-0.0195 -0.0778,0.0653 -0.23367,0.1815 -0.19514,0.1456 -0.3887,0.28466 -0.4338,0.31333 -0.0504,0.0313 0.12453,-0.10361 0.35946,-0.27824 0.28613,-0.21315 0.55686,-0.40834 0.61348,-0.44332 0.0642,-0.0392 -0.18078,0.14947 -0.51379,0.39787 -0.39059,0.29039 -0.75904,0.55517 -0.82615,0.59526 -0.0796,0.0475 0.24999,-0.20565 0.68706,-0.53063 0.5116,-0.38075 0.99146,-0.72695 1.07223,-0.77433 0.097,-0.0577 -0.33093,0.27343 -0.90109,0.6975 -0.65193,0.48407 -1.25994,0.92041 -1.36315,0.98059 -0.11619,0.0676 0.42241,-0.34598 1.13885,-0.87731 0.807,-0.60039 1.55841,-1.14317 1.67959,-1.21352 0.13512,-0.0783 -0.52677,0.4339 -1.4061,1.08854 -0.98244,0.72897 -1.89527,1.38275 -2.03747,1.46331 -0.1583,0.0898 0.64113,-0.52249 1.70458,-1.31063 1.17309,-0.8728 2.25983,-1.65905 2.42478,-1.75319 0.18002,-0.10245 -0.77016,0.63419 -2.03064,1.57306 -1.38631,1.02779 -2.66774,1.94363 -2.85678,2.04849 -0.20835,0.11567 0.90821,-0.73749 2.39055,-1.83455 1.61088,-1.1989 3.09906,-2.27777 3.31384,-2.39862 0.23,-0.12892 -1.0627,0.87567 -2.77557,2.15257 -1.8616,1.37896 -3.58037,2.60459 -3.82146,2.73547 -0.26552,0.14489 1.22444,-0.99049 3.19872,-2.44981 2.12119,-1.57945 4.07652,-3.00042 4.34872,-3.15216 0.28715,-0.15921 -1.40434,1.15898 -3.6424,2.82916 -2.41259,1.7855 -4.63487,3.36608 -4.9357,3.52657 -0.3297,0.17722 1.59,-1.28229 4.13099,-3.1571 2.70569,-2.01586 5.19459,-3.82973 5.53035,-4.01554 0.34941,-0.19174 -1.79657,1.48608 -4.63377,3.60595 -3.03843,2.24653 -5.83331,4.22878 -6.20027,4.42138 -0.4017,0.21287 2.00514,-1.6099 5.19011,-3.95746 3.36424,-2.50839 6.45439,-4.76783 6.86166,-4.99232 0.41746,-0.22755 -2.23948,1.8578 -5.74873,4.48366 -3.74079,2.76301 -7.17772,5.19319 -7.61651,5.4198 -0.48154,0.25198 2.47089,-1.97638 6.37667,-4.85044 4.09768,-3.05789 7.8568,-5.81676 8.34182,-6.08342 0.49096,-0.26607 -2.73331,2.27554 -6.9901,5.46605 -4.52049,3.3352 -8.6696,6.25934 -9.18665,6.52234 -0.56963,0.29469 2.98734,-2.38013 7.69214,-5.83605 4.90637,-3.66503 9.40255,-6.97867 9.97286,-7.29211 0.56943,-0.30732 -3.27909,2.7412 -8.35762,6.55468 -5.37842,3.96355 -10.31084,7.42769 -10.91246,7.72931 -0.66646,0.34132 3.55485,-2.82102 9.13662,-6.91337 5.79102,-4.33064 11.09259,-8.25607 11.75555,-8.62101 0.65275,-0.35125 -3.87676,3.25621 -9.85199,7.75227 -6.31561,4.64829 -12.10313,8.69827 -12.79543,9.04055 -0.77231,0.39207 4.17349,-3.29859 10.71363,-8.0839 6.75181,-5.05522 12.9269,-9.651 13.69019,-10.07261 0.74054,-0.39782 -4.52684,3.82255 -11.47351,9.06139 -7.33272,5.38959 -14.04779,10.07115 -14.83675,10.45606 -0.88757,0.4471 4.84357,-3.81275 12.42329,-9.34684 7.78886,-5.83942 14.90585,-11.16616 15.77705,-11.64978 0.83259,-0.44708 -5.22915,4.44185 -13.22228,10.48476 -8.43059,6.18766 -16.14624,11.54654 -17.03786,11.97608 -1.01276,0.50684 5.56494,-4.3632 14.26646,-10.7021 8.90287,-6.6841 17.02942,-12.80401 18.01645,-13.35555 0.92818,-0.49848 -5.98402,5.11645 -15.09826,12.02533 -9.61015,7.0427 -18.39985,13.12471 -19.39986,13.60081 -1.14815,0.57171 6.33775,-4.95012 16.24459,-12.15025 10.0932,-7.58939 19.29706,-14.567 20.40776,-15.19265 1.02702,-0.55246 -6.79118,5.84833 -17.10137,13.68622 -10.87229,7.95494 -20.80993,14.80627 -21.92384,15.33092 -1.29434,0.64239 7.1616,-5.57366 18.35829,-13.69163 11.36062,-8.55636 21.70881,-16.45821 22.95119,-17.16465 1.12836,-0.60791 -7.65076,6.64009 -19.23094,15.4705 -12.21763,8.92434 -23.37777,16.59232 -24.61085,17.16761 -1.45179,0.7196 8.03669,-6.23493 20.60826,-15.3273 12.70476,-9.58526 24.26353,-18.48008 25.64559,-19.27435 1.23163,-0.66511 -8.56202,7.49372 -21.48637,17.38141 -13.64716,9.95117 -26.10444,18.48436 -27.46174,19.11276 -1.62106,0.80448 8.96232,-6.93507 22.99574,-17.05957 14.12579,-10.67687 26.96074,-20.6358 28.49066,-21.52562 1.33647,-0.72358 -9.52451,8.41192 -23.86621,19.42211 -15.16139,11.03534 -28.99092,20.48475 -30.47742,21.16933 -1.80258,0.89841 9.93801,-7.67637 25.52041,-18.89044 15.62351,-11.83166 29.79884,-22.92794 31.48459,-23.92118 1.44182,-0.78301 -10.53781,9.3973 -26.36982,21.59618 -16.76125,12.17717 -32.03788,22.59689 -33.65784,23.34124 -1.99687,1.00337 10.96331,-8.46241 28.1829,-20.82452 17.19783,-13.05012 32.77649,-25.35939 34.62601,-26.46443 1.54709,-0.84244 -11.6006,10.45225 -28.99522,23.9069 -18.44765,13.37679 -35.2464,24.82597 -37.00376,25.63484 -2.20406,1.12176 12.03697,-9.29807 30.98348,-22.86801 18.84856,-14.33272 35.89204,-27.93284 37.91327,-29.15847 1.65159,-0.90199 -12.71174,11.57875 -31.74044,26.35694 -20.22124,14.63452 -38.61622,27.17903 -40.51435,28.05869 -2.42433,1.25724 13.1574,-10.19052 33.9211,-25.02926 20.57553,-15.68007 39.14339,-30.65116 41.34405,-32.00649 1.75435,-0.96018 -13.87,12.7798 -34.60302,28.94972 -22.08294,15.95079 -42.14721,29.66614 -44.18872,30.625 -2.65719,1.41431 14.32226,-11.14983 36.99463,-27.32053 22.37829,-17.09241 42.52794,-33.51643 44.9156,-35.01093 1.85444,-1.01623 -15.07337,14.0572 -37.58053,31.68798 -24.03307,17.32583 -45.83747,32.3007 -48.02351,33.34989 -2.90155,1.59923 15.52724,-12.18953 40.20077,-29.75815 24.25665,-18.57019 46.04319,-36.53095 48.62522,-38.17424 1.95086,-1.0689 -16.32032,15.41314 -40.66989,34.57415 -26.07271,18.76052 -49.68353,35.10116 -52.0135,36.25531 -3.15445,1.81951 16.76604,-13.32809 43.53391,-32.36403 26.21031,-20.1138 49.68595,-39.69646 52.46933,-41.4982 2.04272,-1.11713 -17.60798,16.84873 -43.86741,37.60998 -28.20246,20.25583 -53.67899,38.09223 -56.14919,39.37037 -3.41116,2.08417 18.02833,-14.58948 46.98431,-35.16696 28.23888,-21.72356 53.45305,-43.01443 56.44433,-44.98409 2.12904,-1.15921 -18.93406,18.36522 -47.16949,40.79694 -30.42285,21.81294 -57.81183,41.30534 -60.41387,42.7306 -3.66359,2.40482 19.29675,-16.00319 50.53513,-38.20286 30.34203,-23.39967 57.3408,-46.48569 60.54589,-48.63228 2.20891,-1.19356 -20.29545,19.96299 -50.57141,44.13536 -32.73458,23.43371 -62.06293,44.77989 -64.78267,46.38007 -3.90043,2.79071 20.54641,-17.60502 54.16134,-41.51583 32.51885,-25.142 61.34489,-50.11022 64.76926,-52.44217 2.28101,-1.21792 -21.68897,21.64167 -54.06856,47.62488 -35.13841,25.12076 -66.40247,48.56273 -69.21799,50.36871 -4.10665,3.25125 21.74015,-19.43394 57.82481,-45.15558 34.76958,-26.95114 65.4613,-53.88755 69.10971,-56.41237 2.34468,-1.23031 -23.11096,23.40008 -57.65598,51.26422 -37.63432,26.87695 -70.78682,52.70534 -73.66746,54.74896 -4.26454,3.79245 22.82781,-21.52879 61.47349,-49.17507 37.09309,-28.82658 69.68512,-57.81606 73.56169,-60.53993 2.39881,-1.22818 -24.55753,25.2359 -61.32802,55.0506 -40.22278,28.70678 -75.15775,57.26142 -78.06453,59.57309 -4.35432,4.41528 23.74623,-23.92395 65.04017,-53.62634 39.48915,-30.76843 74.01169,-61.89331 78.11952,-64.82047 2.44261,-1.20892 -26.02473,27.14579 -65.07904,58.97984 -42.90318,30.61558 -79.44088,62.28069 -82.32697,64.88596 -4.35739,5.11826 24.42043,-26.64256 68.44267,-58.55446 41.95717,-32.77647 78.436,-66.11573 82.7775,-69.24829 2.47494,-1.16932 -27.50822,29.12487 -68.9029,63.04623 -45.67546,32.61154 -83.5489,67.80599 -86.36194,70.72397 -4.25444,5.89465 24.76769,-29.69331 71.58759,-63.99534 44.49676,-34.85032 82.95303,-70.4784 87.52963,-73.81551 2.49548,-1.10664 -29.00355,31.16683 -72.79353,67.24213 -48.53747,34.70253 -87.38271,73.86633 -90.06653,77.10833 -4.02721,6.73538 24.70231,-33.06728 74.3721,-69.97184 47.1072,-36.98974 87.55707,-74.97516 92.36949,-78.51274 2.5031,-1.01708 -30.50637,33.26379 -76.74452,71.55829 -51.48678,36.90265 -90.8357,80.48042 -93.33194,84.04924 -3.65732,7.62792 24.13916,-36.73687 76.68697,-76.49273 49.78808,-39.19412 92.24325,-79.5985 97.291,-83.32798 2.49764,-0.89791 -32.01197,35.40573 -80.74952,75.98295 -54.51826,39.22684 -93.79487,87.64927 -96.04439,91.53925 -3.12651,8.55717 22.99729,-40.6558 78.41827,-83.55119 52.5388,-41.46285 97.00621,-84.3392 102.28817,-88.24741 2.47839,-0.74518 -33.51619,37.58111 -84.80249,80.50232 -57.62431,41.69486 -96.14335,95.35932 -98.08685,99.55527 -2.41633,9.50317 21.20252,-44.76049 79.44877,-91.12418 55.35875,-43.79503 101.84106,-89.18675 107.35505,-93.2545 2.4452,-0.55578 -35.01487,39.77606 -88.89726,85.10004 -60.79313,44.33064 -97.76123,103.57918 -99.34067,108.05679 -1.5089,10.44108 18.68911,-48.9709 79.65928,-99.17108 58.24785,-46.1902 106.74331,-94.1291 112.48639,-98.33076 2.39758,-0.3261 -36.50408,41.97471 -93.02832,89.75763 -64.00702,47.1627 -98.52668,112.25992 -99.68626,116.98468 -0.38804,11.34029 15.40053,-53.19139 78.93039,-107.63234 61.20542,-48.64742 111.70869,-99.15321 117.67717,-103.45568 2.33544,-0.0532 -37.98038,44.15931 -97.1905,94.45445 -67.24207,50.22104 -98.32004,121.32903 -99.00791,126.25695 0.95896,12.16306 11.29261,-57.31186 77.14519,-116.42708 64.23112,-51.16544 116.73281,-104.24231 122.92254,-108.60419 2.25844,0.26513 -39.44062,46.30893 -101.37868,99.1655 -70.46489,53.54073 -97.02292,130.69558 -97.19281,135.77168 2.53958,12.86532 6.33286,-61.20574 74.19144,-125.45205 67.32458,-53.74331 121.81259,-109.38053 128.2185,-113.75083 2.16699,0.63306 -40.8821,48.40131 -105.58895,103.86534 -73.63361,57.15495 -94.52465,140.24201 -94.13818,145.40144 4.35365,13.39599 0.50546,-64.73208 69.96596,-134.57994 70.4854,-56.37994 126.94507,-114.54979 133.56185,-118.86753 2.06018,1.05089 -42.30278,50.4119 -109.81765,108.52533 -76.6972,61.09519 -90.72559,149.82547 -89.7545,154.9941 6.38999,13.69737 -6.18522,-67.73523 64.37936,-143.65839 73.71362,-59.07457 132.12822,-119.73102 138.94989,-123.92387 1.93805,1.52031 -43.70127,52.31422 -114.06209,113.11479 -79.59865,65.39033 -85.54534,159.27878 -83.97438,164.37384 8.62378,13.70781 -13.70953,-70.04496 57.36212,-152.50968 77.00892,-61.82605 137.3604,-124.90406 144.3804,-128.88744 1.80026,2.04176 -45.07606,54.07934 -118.31978,117.60056 -82.27018,70.06087 -78.92371,168.40579 -76.75316,173.33852 11.01367,13.36437 -22.00606,-71.48047 48.87122,-160.93197 80.37117,-64.63357 142.64083,-130.04792 149.852,-133.72436 1.64602,2.61498 -46.4268,55.67731 -122.58902,121.94772 -84.64069,75.12225 -70.83457,176.98876 -68.08238,181.66743 13.49803,12.60605 -30.97587,-71.85507 38.89718,-168.7027 83.80055,-67.49676 147.96932,-135.14135 155.36351,-138.39922 1.47465,3.23854 -47.75272,57.0759 -126.86854,126.11956 -86.63308,80.581 -61.28993,184.79008 -57.994,189.12334 15.99394,11.38087 -40.47605,-70.98209 27.4718,-175.58288 87.29678,-70.415 153.34624,-140.16276 160.9142,-142.87586 1.28502,3.90995 -49.05367,58.24209 -131.15745,130.07818 -88.16603,86.4357 -50.34877,191.55896 -46.56795,195.4609 18.39076,9.65247 -50.31455,-68.68537 14.67486,-181.32447 90.86001,-73.38844 158.77258,-145.09091 166.5034,-147.11748 1.07576,4.62544 -50.32935,59.14172 -135.45515,133.78458 -89.15469,92.6734 -38.12582,197.03967 -33.94107,200.43531 20.52879,7.4279 -60.24507,-64.8128 0.64296,-185.68089 94.49022,-76.41796 164.24951,-149.90473 172.12979,-151.0867 0.84533,5.37996 -51.57862,59.73908 -139.76003,137.19803 -89.51053,99.27333 -24.79574,200.98722 -20.31419,203.82058 22.21847,4.96203 -69.96174,-59.25016 -14.42293,-188.42043 98.18735,-79.50492 169.77871,-154.58505 177.79228,-154.74783 0.59152,6.16568 -52.80037,59.99811 -144.0708,140.27863 -89.14284,106.19994 -10.61921,203.18755 -5.99389,205.46344 23.74983,2.84661 -79.06384,-51.98431 -30.21573,-189.38561 101.95062,-82.65236 175.36086,-159.11456 183.48713,-158.0664 0.31344,6.97822 -53.99189,59.88633 -148.38579,142.98794 -87.95991,113.40544 4.05431,203.7087 8.75397,205.60864 25.50298,0.9169 -87.20633,-43.42336 -46.46933,-188.81469 105.78039,-85.86272 180.99932,-163.47554 189.21265,-161.00742 0.008,7.80426 -55.15028,59.36495 -152.70228,145.28353 -85.86993,120.82647 19.30287,203.03099 24.07548,204.60359 27.21147,-1.32343 -94.47961,-34.10589 -63.32871,-187.04655 109.67578,-89.14243 186.69449,-167.65603 194.96239,-163.54174 -0.32699,8.63361 -56.27025,58.40096 -157.01523,147.12797 -82.78396,128.38322 35.18828,201.15188 39.97296,202.38495 28.64633,-3.95977 -100.85978,-24.18175 -80.79393,-184.00767 113.63414,-92.49815 192.44606,-171.64631 200.72758,-165.64257 -0.69281,9.4532 -57.34445,56.9611 -161.31836,148.48442 -78.61833,135.97739 51.56732,197.92021 56.29795,198.81588 C 295.79351,744.15649 159.91457,737.37068 167.41217,571.571 285.06548,475.63062 365.66518,396.12966 373.90925,404.28254 372.81811,414.53079 315.54548,459.29683 208.30556,553.60101 135.00758,697.09228 276.53381,746.80245 281.14623,747.3802 311.29731,737.11866 170.76084,744.44354 164.27307,573.84548 286.00128,474.36414 368.38501,394.80468 376.5282,405.38173 375.00552,416.38412 317.21208,457.9135 206.66813,554.98015 139.90646,705.76796 291.57824,741.8802 296.0158,742.17682 326.00327,728.42467 182.76818,750.25781 161.00406,576.30668 286.856,473.16948 371.02069,393.85656 378.98499,407.14697 376.99773,418.84454 318.79793,456.63538 204.9106,556.44362 145.94489,714.15348 306.22644,735.41521 310.44439,735.48392 339.5438,718.17944 195.73637,754.58147 157.61094,578.98041 287.62492,472.05286 373.56792,393.29928 381.25856,409.60461 378.77497,421.91895 320.29977,455.46702 203.02815,557.99437 153.13768,722.07664 320.15408,727.42715 324.12459,727.33466 351.60919,706.54091 209.36247,757.27413 154.10366,581.89645 288.30329,471.02059 376.022,393.14396 383.32476,412.77557 380.31613,425.60791 321.71408,454.41277 201.01599,559.6356 161.47,729.34981 333.04375,717.99542 336.75563,717.81958 362.23702,693.57547 223.38788,758.50787 150.49795,585.08797 288.8863,470.07914 378.37741,393.3986 385.15644,416.67505 381.59899,429.90507 323.03761,453.47635 198.86914,561.3708 170.89147,735.77457 344.65296,707.23108 348.09987,707.06162 372.71706,678.99675 237.89336,758.57069 146.81604,588.59138 289.36879,469.23521 380.62813,394.0678 386.72366,421.31118 c -4.12301,13.48586 -62.45674,31.34991 -190.14082,141.89265 -15.27174,177.9441 158.4955,131.95374 161.63469,131.89934 25.98735,-32.4198 -105.29118,62.343 -215.12959,-102.65811 146.65786,-123.94977 239.67969,-197.29239 244.90593,-165.7603 -4.69561,13.57788 -62.59518,25.28507 -193.84203,138.45467 -1.55994,180.13077 171.16213,116.42208 173.9362,116.5886 28.41655,-37.08868 -99.71766,73.26857 -228.73585,-85.03992 150.65965,-128.8217 245.43675,-200.03753 249.58025,-163.89993 -5.26291,13.485 -62.50293,18.61677 -197.36072,134.39446 12.9684,180.77472 184.80732,99.13573 187.19484,99.62787 30.3901,-41.97979 -94.74768,84.27542 -243.11064,-65.45132 C 290.1612,467.35567 386.68486,398.55496 389.50334,439.6048 c -5.80966,13.1874 -62.14747,11.36374 -200.66564,129.73515 28.06268,179.94665 199.41361,80.09733 201.39162,81.02646 31.4824,-47.10808 -90.6217,95.24588 -258.17379,-43.87198 158.1327,-139.52436 256.39255,-205.63884 257.6144,-159.38596 -6.3177,12.66741 -61.49559,3.55379 -203.72484,124.51122 43.85486,178.09831 214.5964,59.28191 216.1665,60.75738 C 433.77737,579.96482 314.82553,738.52666 128.61656,612.1256 290.0866,466.71711 390.07139,403.53778 389.39603,455.26331 c -6.76606,11.90963 -60.51482,-4.77577 -206.50613,118.76886 60.34081,175.14669 229.94487,36.67847 231.1397,38.80603 31.00211,-57.81876 -84.69816,117.00697 -288.61628,5.4409 164.43672,-151.67505 266.13477,-211.69545 263.23385,-154.25604 -7.13139,10.90279 -59.17464,-13.57718 -208.97816,112.56797 77.38913,170.93669 245.09144,12.30637 245.96879,15.18707 29.57831,-63.27361 -82.86493,127.8785 -303.1094,33.19659 166.94321,-158.33608 270.34361,-215.00391 264.86349,-151.64282 -7.38826,9.63936 -57.44745,-22.79347 -211.11142,105.98272 94.82257,165.32466 259.7304,-13.79478 260.36585,-10.0651 27.47002,-68.73683 -81.82379,138.86383 -316.59287,62.97262 C 288.94421,466.82834 394.03798,413.67371 385.60323,483.12408 378.0932,491.24109 330.29252,450.76669 172.72487,582.22743 285.14535,740.4165 446.33972,540.64572 446.82119,545.31742 471.54251,471.15841 365.33917,695.34286 118.0875,640.02258 288.26009,467.18188 395.04221,417.66368 383.26037,493.32567 375.79088,499.66368 330.51225,451.13309 169.00731,585.3627 298.92895,734.80081 455.54286,514.35147 455.97043,520.05409 477.31625,440.59737 375.35919,681.09175 116.73782,648.3606 287.41146,467.70509 395.88197,421.90727 380.34937,503.85382 373.10941,508.16447 330.59878,451.63803 165.142,588.76106 312.17648,727.78063 463.44157,486.72767 463.93034,493.54098 481.27413,409.04323 386.37646,665.14873 116.11787,657.20813 286.38966,468.40661 396.55675,426.37002 376.86558,514.62017 c -6.79655,2.04879 -46.31879,-62.33543 -215.71176,77.855 C 324.61151,719.39131 469.86658,457.89744 470.54995,465.8822 483.27793,376.77738 398.29162,647.50752 116.34647,666.51813 285.18574,469.29374 397.06786,431.0144 372.81378,525.53144 366.69713,525.1023 330.3504,453.07647 157.08416,596.56504 336.01788,709.69488 474.65625,428.0331 475.68622,437.21843 483.23139,344.15016 410.67063,628.1086 117.54535,676.22205 283.79002,470.37386 397.41879,435.80076 368.20952,536.49119 363.02775,533.39213 330.00322,454.01727 152.99412,601.09311 346.41929,698.70558 477.66441,397.37128 479.20766,407.73993 481.09573,311.5657 423.07569,606.92679 119.83605,686.22678 282.19233,471.65385 397.61538,440.68815 363.07892,547.40268 359.10116,541.46929 329.49834,455.11207 148.96397,606.11744 356.44958,686.28049 478.77574,366.21296 481.00467,377.69022 476.89894,279.46601 435.10966,583.98319 123.33538,696.41154 280.38208,473.14007 397.66583,445.63435 357.45897,558.17006 354.96325,549.26895 328.82801,456.36691 145.08968,611.68598 367.05822,672.26225 477.92125,334.91974 481.00193,347.36516 470.73671,248.30644 446.43543,559.33125 128.14973,706.62579 278.34776,474.83846 397.58076,450.59654 351.39624,568.70161 350.66471,556.7313 327.9837,457.78901 141.47884,617.83207 378.50105,656.62864 475.09047,303.89676 479.16955,317.10255 462.76501,218.53302 456.77558,533.0424 134.36788,716.68744 276.07744,476.75408 397.37308,455.53206 344.94575,578.9111 346.25919,563.80367 326.95591,459.38702 138.24693,624.57258 390.51042,639.36582 470.33694,273.57568 475.52986,287.26911 453.18703,190.56511 465.89889,505.20016 142.0516,726.38214 273.55878,478.8908 397.05805,460.39794 338.16847,588.72012 341.80321,570.4395 325.73411,461.17087 135.51494,631.90737 402.70277,620.46126 463.77564,244.39073 470.15806,258.24181 442.23676,164.78128 473.60179,475.9081 151.22644,735.46677 270.77865,481.2517 396.65287,465.15235 331.12766,598.06001 337.3543,576.59967 324.30671,463.15187 133.40823,639.81743 414.70784,599.92868 455.57495,216.7631 463.17751,230.39254 430.16552,141.51584 479.69603,445.30382 161.86887,743.67306 267.7235,483.83845 396.17658,469.75428 323.88135,606.87513 332.97015,582.25229 322.66099,465.34248 132.05497,648.26427 426.20639,577.80663 445.9437,191.08451 454.7508,204.07435 417.23137,121.05737 484.00565,413.58127 173.89379,750.71813 264.37942,486.65125 395.64973,474.16406 316.46928,615.12388 328.70745,587.37277 320.78256,467.75669 131.58471,657.18692 436.93655,554.14748 435.118,167.70871 445.06841,179.61101 403.69641,103.65469 486.37683,380.99994 187.13663,756.3217 260.73209,489.68889 395.0941,478.3431 308.89445,622.76964 324.62126,591.94338 318.65598,470.40915 132.12566,666.49969 446.68279,529.00986 423.34995,146.94802 434.33829,157.2922 389.82814,89.520848 486.69305,347.89122 201.33168,760.25101 256.76703,492.94853 394.53226,482.2549 301.14839,629.73906 c 19.6161,-33.78661 15.11567,-156.4235 -167.3476,46.3503 C 455.25623,502.46337 410.90081,129.07458 422.7773,137.372 375.90352,78.836259 484.89195,314.64892 216.13813,762.45118 252.46974,496.42577 393.98711,485.86433 293.28801,635.91212 317.18666,599.39449 313.58813,476.49182 136.72243,685.81207 462.47773,474.60329 398.03774,114.32239 410.60669,120.07089 362.20988,71.746803 480.97725,281.71294 231.39371,763.15073 247.82538,500.1152 393.48181,489.1377 285.43173,641.18422 313.93453,602.26841 310.60803,479.95368 140.9855,695.49301 468.17022,445.57253 385.03347,102.88983 398.05127,105.57927 349.03922,68.35654 475.02236,249.54568 247.18236,762.52005 242.8197,504.01014 393.03896,492.04309 277.711,645.49293 311.05094,604.57729 307.302,483.71633 146.65911,704.9252 472.1645,415.5769 372.16457,94.93843 385.34028,94.059357 336.6706,68.715573 467.16568,218.61002 263.49644,760.48738 237.43823,508.10385 392.68054,494.54964 270.25313,648.80999 308.57538,606.32645 303.64691,487.79344 153.77703,713.87179 474.31337,384.8941 359.70589,90.588797 372.70874,85.646135 325.34229,72.805534 457.59735,189.34581 280.17554,756.89832 231.66716,512.38997 392.42717,496.62815 263.1802,651.13358 306.543,607.52269 299.61849,492.19651 162.32701,722.07002 474.50962,353.87379 347.91622,89.911036 360.39364,80.443384 315.21785,80.527629 446.54335,162.15711 296.95843,751.61042 225.49241,516.86424 392.29799,498.25011 256.60992,652.48514 304.98381,608.17346 295.19151,496.93414 172.24107,729.2398 472.70249,322.9229 337.0165,92.913939 348.62716,78.518139 306.35582,91.695517 434.24899,137.40285 313.51379,744.53059 218.90052,521.52585 392.31019,499.38788 250.65475,652.90754 303.92203,608.28586 290.34047,502.01096 183.38566,735.09418 468.90776,292.48869 327.16217,99.534113 337.61976,79.891131 c -38.92975,26.144179 83.34688,35.504059 -8.1616,655.747329 -117.58072,-209.2579 63.02031,-235.624 -84.03895,-83.17429 57.95622,-44.59872 39.62064,-145.03697 -49.86266,86.8911 C 463.21032,263.03769 318.41697,109.62859 327.53996,84.528008 292.02702,123.19014 406.95259,96.406471 344.37857,725.00219 204.40907,531.44411 392.81475,500.10339 240.9947,651.2368 303.35566,606.91365 279.26571,513.17742 208.54209,741.82342 455.75884,235.033 310.7338,122.97279 318.49176,92.332079 286.05772,142.72328 392.46831,80.673092 357.8601,712.7852 196.48076,536.74792 393.32754,499.62893 237.45295,649.3228 303.86793,605.42557 272.9959,519.25069 222.40107,742.98203 446.75498,208.91676 303.94871,139.2614 310.49558,103.14067 280.37993,164.11268 377.78849,68.40152 369.53288,699.22925 188.07837,542.34711 394.02186,498.56517 234.8386,646.83055 304.91011,603.38892 266.21162,525.63042 236.9539,742.9725 436.43954,185.09699 297.78694,158.1086 303.47745,116.72567 274.5303,186.73964 363.20714,59.768 379.72155,684.34558 179.19187,548.33214 394.89832,496.88726 233.16227,643.87343 c 73.3092,-43.08939 25.73641,-111.57864 18.83818,97.7238 173.08013,-577.65691 39.87957,-562.55518 45.26821,-608.80054 -29.23697,77.08674 51.76836,-77.885067 93.51966,534.87754 -220.96428,-112.8284 5.16455,-173.10315 -158.39266,-27.11079 76.1348,-42.97787 18.65369,-101.34594 34.89115,98.12028 145.67445,-592.91373 18.50636,-537.19318 24.32783,-587.68289 -31.15437,81.75143 43.98171,-97.07987 111.34511,498.15787"
       style="fill:none;stroke:#000000;stroke-width:2.26467109px;stroke-linecap:butt;stroke-linejoin:miter;stroke-opacity:1" />
  </g>
</svg>
