<?xml version="1.0" encoding="UTF-8" standalone="no"?>
<!-- Created with Inkscape (http://www.inkscape.org/) -->

<svg
   xmlns:dc="http://purl.org/dc/elements/1.1/"
   xmlns:cc="http://creativecommons.org/ns#"
   xmlns:rdf="http://www.w3.org/1999/02/22-rdf-syntax-ns#"
   xmlns:svg="http://www.w3.org/2000/svg"
   xmlns="http://www.w3.org/2000/svg"
   xmlns:sodipodi="http://sodipodi.sourceforge.net/DTD/sodipodi-0.dtd"
   xmlns:inkscape="http://www.inkscape.org/namespaces/inkscape"
   sodipodi:docname="Spiral056.svg"
   inkscape:version="0.48.2 r9819"
   version="1.1"
   id="svg2"
   height="1052.3622047"
   width="744.09448819">
  <sodipodi:namedview
     id="base"
     pagecolor="#ffffff"
     bordercolor="#666666"
     borderopacity="1.0"
     inkscape:pageopacity="0.0"
     inkscape:pageshadow="2"
     inkscape:zoom="0.43475661"
     inkscape:cx="575.99519"
     inkscape:cy="689.59491"
     inkscape:document-units="px"
     inkscape:current-layer="layer1"
     showgrid="false"
     inkscape:window-width="1024"
     inkscape:window-height="753"
     inkscape:window-x="182"
     inkscape:window-y="18"
     inkscape:window-maximized="0"
     inkscape:snap-center="false" />
  <title
     id="title6810">(UniballDeluxeFine)</title>
  <defs
     id="defs4" />
  <metadata
     id="metadata7">
    <rdf:RDF>
      <cc:Work
         rdf:about="">
        <dc:format>image/svg+xml</dc:format>
        <dc:type
           rdf:resource="http://purl.org/dc/dcmitype/StillImage" />
        <dc:title>(UniballDeluxeFine)</dc:title>
      </cc:Work>
    </rdf:RDF>
  </metadata>
  <g
     style="display:inline"
     inkscape:label="Pen"
     inkscape:groupmode="layer"
     id="layer1">
    <rect
       style="fill:none;stroke:#000000;stroke-width:1.12594795;stroke-miterlimit:4;stroke-opacity:1;stroke-dasharray:none"
       id="rect3021"
       width="586.06732"
       height="786.08429"
       x="10.092996"
       y="0.21038114" />
    <path
       id="path11911"
       d=""
       style="fill:none;stroke:#000000"
       inkscape:connector-curvature="0" />
    <path
       inkscape:connector-curvature="0"
       style="fill:none;stroke:#000000"
       d=""
       id="path13427" />
    <path
       inkscape:connector-curvature="0"
       style="fill:none;stroke:#000000"
       d=""
       id="path13431" />
  </g>
  <g
     style="display:inline"
     id="g3923"
     inkscape:groupmode="layer"
     inkscape:label="Sharpie">
    <flowRoot
       style="font-size:40px;font-style:normal;font-weight:normal;line-height:125%;letter-spacing:0px;word-spacing:0px;fill:#000000;fill-opacity:1;stroke:none;font-family:Sans"
       id="flowRoot6771"
       xml:space="preserve"><flowRegion
         id="flowRegion6773"><rect
           y="200.16124"
           x="89.70536"
           height="162.1597"
           width="104.65626"
           id="rect6775" /></flowRegion><flowPara
         id="flowPara6777" /></flowRoot>    <path
       style="fill:none;stroke:#000000;stroke-width:0.55308032px;stroke-linecap:butt;stroke-linejoin:miter;stroke-opacity:1"
       d="m 121.66748,380.00179 c -0.0788,-2.84326 0.68043,-7.88516 1.46418,-10.64054 1.17027,-3.92945 1.87125,-2.92164 1.69609,1.15513 -0.13775,5.35389 -1.26866,13.70921 -2.3545,18.1751 -1.24187,5.54594 -2.41658,3.75776 -2.57335,-2.87572 0.0255,-7.96707 1.95132,-19.58808 4.01412,-25.51829 2.60351,-6.95757 3.85472,-4.55713 3.0536,4.3335 -0.56324,10.27067 -2.52767,25.42662 -4.3208,33.21349 -1.74424,8.75442 -3.83444,5.42147 -4.37965,-6.25423 -0.0137,-13.04919 3.2191,-31.33909 6.72375,-40.31047 4.28228,-9.94895 5.99591,-6.1767 4.26503,7.45141 -1.11497,15.10527 -3.80854,37.14575 -6.11738,48.27514 -1.97499,11.98244 -5.12722,7.06458 -6.3737,-9.68741 -0.17537,-18.15791 4.48757,-43.08868 9.5918,-55.00316 6.19752,-12.85205 -10.07309,198.52512 -20.7297,180.03342 -9.816829,-20.72242 20.95488,-120.68123 18.32708,-106.18278 -1.93204,15.19537 -6.30248,8.66752 -8.56578,-13.17056 -0.4533,-23.29828 5.76236,-54.82326 12.61742,-69.58344 8.33897,-15.64491 -7.92769,216.03538 -21.9054,193.018 -12.288472,-25.75523 21.74325,-119.00399 18.9984,-101.1172 -1.61509,18.36844 -7.37084,10.21729 -10.96623,-16.69776 -0.84248,-28.46993 7.04964,-66.53438 15.80003,-84.03909 10.69558,-18.31143 -5.76225,233.33991 -23.29351,205.9366 -14.808903,-30.78236 22.59379,-117.36247 19.93866,-96.07838 -1.02561,21.47877 -8.3445,11.70364 -13.58536,-20.26196 -1.33795,-33.67158 8.35594,-78.21527 19.13949,-98.35884 13.25564,-20.83777 -3.57231,250.42621 -24.88389,218.79077 -17.378241,-35.79791 23.50218,-115.76559 21.14791,-91.08696 -0.16698,24.50401 -9.23682,13.11849 -16.43333,-23.85491 -1.93471,-38.90177 9.68806,-89.8599 22.63586,-112.53223 16.00696,-23.21183 -1.35367,267.2816 -26.66586,231.58246 -19.997221,-40.79471 24.46368,-114.22214 22.62518,-86.16442 0.95551,27.42227 -10.0621,14.45578 -19.52,-27.46696 -2.62759,-44.15931 11.05295,-101.46293 26.28948,-126.5496 18.93688,-25.42296 0.89747,283.89304 -28.62845,244.31363 -22.667085,-45.76439 25.47325,-112.74074 24.36853,-81.33285 2.33476,30.21186 -10.83516,15.71159 -22.85484,-31.08723 -3.41126,-49.4432 12.45784,-113.01947 30.10092,-140.4021 22.03251,-27.46169 3.18422,300.24698 -30.76035,256.9864 -25.389439,-50.69705 26.52553,-111.32998 26.37509,-76.61477 3.96155,32.85154 -11.57139,16.88382 -26.44679,-34.70352 -4.28036,-54.7527 13.90984,-124.5251 34.07089,-154.08172 25.28071,-29.31989 5.50865,316.32922 -33.04997,269.6027 -28.166437,-55.58163 27.61495,-109.99818 28.64087,-72.03332 5.82481,35.3209 -12.28626,17.97277 -30.30421,-38.3021 -5.22933,-60.08726 15.41624,-135.97592 38.20027,-167.58118 28.66846,-30.99064 7.87164,332.12481 -35.48558,282.16404 -31.000472,-60.40549 28.73575,-108.75343 31.16088,-67.61167 7.91155,37.60007 -12.99512,18.98072 -34.43457,-41.86799 -6.25273,-65.44661 16.98427,-147.36846 42.4899,-180.89394 32.18277,-32.46821 10.27229,347.618 -38.05519,294.67164 -33.894224,-65.15473 29.88202,-107.60367 33.92904,-63.37336 10.20678,39.67031 -13.71309,19.91204 -38.8445,-45.38485 -7.34501,-70.83049 18.62102,-158.6998 46.94064,-194.01416 35.81089,-33.74794 12.70774,362.79233 -40.74701,307.12574 -36.850303,-69.8139 31.04798,-106.55608 36.93839,-59.34162 12.69375,41.51398 -14.45467,20.7732 -43.53949,-48.83481 -8.500857,-76.23883 20.33343,-169.96747 51.55333,-206.93686 39.54028,-34.82615 15.17256,377.63073 -43.54922,319.5261 -39.87136,-74.36613 32.22778,-105.61765 40.18082,-55.53974 15.35388,43.11483 -15.23359,21.57276 -48.52388,-52.1989 -9.714971,-81.67136 22.12834,-181.16944 56.32856,-219.65747 43.35893,-35.70025 17.65841,392.11555 -46.45024,331.8711 -42.959672,-78.79328 33.41586,-104.79442 43.64738,-51.99038 18.16701,44.45823 -16.06246,22.32118 -53.80057,-55.4566 -10.982306,-87.12796 24.0122,-192.30428 61.26675,-232.17233 47.25523,-36.36841 20.15353,406.22895 -49.43907,344.15799 -46.116879,-83.07564 34.60715,-104.09174 47.32845,-48.71551 21.11126,45.53119 -16.95279,23.03067 -59.37103,-58.58628 -12.298116,-92.60832 25.99119,-203.37097 66.36797,-244.47829 51.21827,-36.82981 22.64226,419.95316 -52.50517,356.38256 -49.343852,-87.19254 35.79704,-103.51396 51.21355,-45.73637 24.16346,46.3227 -17.91449,23.71534 -65.23503,-61.56514 -13.657989,-98.11168 28.07112,-214.36889 71.63193,-256.57279 55.23761,-37.08412 25.10457,433.27102 -55.63907,368.53895 -52.640259,-91.12224 36.98191,-103.06432 55.29197,-43.07291 27.29898,46.82379 -18.95585,24.39066 -71.39067,-64.36921 -15.057791,-103.6372 30.25742,-225.29794 77.05795,-268.4539 59.30363,-37.13181 27.5157,446.16639 -58.83251,380.6194 -56.00413,-94.84213 38.15924,-102.74478 59.55268,-40.74376 30.49236,47.02794 -20.08339,25.07359 -77.834,-66.9736 -16.494039,-109.18335 32.55494,-236.1582 82.64478,-280.12012 63.40732,-36.97382 29.84563,458.62483 -62.07885,392.61416 -59.431692,-98.32943 39.32805,-102.5558 63.98485,-38.76586 33.71696,46.9309 -21.30158,25.78232 -84.55911,-69.35236 -17.963684,-114.74842 34.96802,-246.95032 88.39056,-291.57068 67.54045,-36.61151 32.05896,470.63433 -65.37329,404.51143 -62.916984,-101.5614 40.48912,-102.49655 68.578,-37.15433 36.94553,46.531 -22.61291,26.53585 -91.55796,-71.47892 -19.464348,-120.32983 37.50031,-257.6751 94.29284,-302.80523 71.6955,-36.04656 34.11461,482.18604 -68.71361,416.29722 -66.45139,-104.51627 41.64555,-102.56451 73.32254,-35.92224 40.15037,45.82936 -24.01755,27.3541 -98.82021,-73.326 -20.994288,-125.92457 40.15477,-268.33348 100.34847,-313.82394 75.86563,-35.28088 35.9656,493.27504 -72.10063,427.95511 -70.023448,-107.17383 42.80334,-102.75539 78.21028,-35.08034 43.30348,44.8299 -25.51351,28.25747 -106.3331,-74.86585 C 83.925408,369.39441 149.41155,221.99643 213.03149,176.29561 293.0762,141.97907 250.5908,680.1966 137.493,615.76213 63.874156,506.24539 181.46456,512.69872 220.72774,581.12514 c 46.37694,43.53947 -27.09636,29.2667 -114.08148,-76.07031 -24.139226,-137.13721 45.83772,-289.45551 112.90312,-335.21681 84.22721,-33.15554 38.83739,514.06899 -79.03561,450.81064 -77.220133,-111.5316 45.16325,-103.48095 88.39189,-34.59807 49.34316,41.96803 -28.75952,30.40257 -122.04757,-76.91112 -25.754958,-142.74487 48.86749,-299.92152 119.39194,-345.59385 88.40791,-31.79984 39.73612,523.78994 -82.60497,461.96477 -80.807336,-113.2108 46.39557,-103.99918 93.68046,-34.96697 52.17507,40.12855 -30.494,31.68562 -130.2111,-77.36017 -27.401572,-148.34486 52.02174,-310.32539 126.01344,-355.76052 92.5823,-30.25129 40.18703,533.0808 -86.26479,472.90413 -84.357906,-114.55367 47.69072,-104.60759 99.10278,-35.74445 54.84677,38.03725 -32.28868,33.13601 -138.54899,-77.38957 -29.081911,-153.92958 55.2981,-320.66791 132.76042,-365.71935 96.74576,-28.51143 40.11685,541.96482 -90.03901,483.6027 C 62.290118,519.50737 199.21411,529.78132 254.80316,598.14722 312.13651,633.8607 220.67276,632.92039 107.76764,521.17537 76.967713,361.68509 166.46014,190.22585 247.39233,145.70197 348.28629,119.1204 286.8408,696.17296 153.43455,639.73513 62.18093,523.45964 204.01837,533.68642 263.81177,601.21847 323.4235,634.39835 227.80795,637.83427 108.1695,525.13808 75.608928,360.12105 170.36888,183.96787 254.76698,140.11198 359.78901,115.64941 292.86812,698.74543 156.7092,644.27956 62.158246,527.57418 208.96245,537.42323 272.96395,603.77805 334.62481,634.24029 235.07188,642.45939 108.62593,529.08851 74.255857,358.58984 174.43712,177.759 262.29486,134.7072 371.41977,112.55211 298.28591,701.19734 159.91271,648.68478 62.193715,531.78125 214.04118,540.98009 282.22981,605.80927 345.6919,633.3988 242.45328,646.7954 109.14092,533.03424 72.905229,357.11148 178.6593,171.60781 269.96955,129.491 383.1662,109.83166 303.00137,703.57222 162.98879,652.92583 62.248491,535.99676 219.24831,544.34503 291.57747,607.29713 356.57705,631.8909 249.94011,650.84216 109.71908,536.98301 71.553264,355.70742 183.02814,165.5237 277.78467,124.46647 395.0147,107.49121 306.91896,705.91327 165.87474,656.97776 62.272692,540.12319 224.57642,547.50604 300.97294,608.2285 367.23382,629.7385 257.51923,654.59992 110.36556,540.94246 70.195654,354.40047 187.5345,159.5166 285.73381,119.63636 406.95019,105.53377 309.94082,708.26069 168.50203,660.81573 62.205142,544.05048 230.01678,550.4509 310.3804,608.59248 377.61758,626.96847 265.17644,658.06951 111.08612,544.92028 68.827643,353.21481 192.16717,153.59699 293.81072,115.00309 418.95569,103.96208 311.96722,710.64839 170.79688,664.41487 61.974517,547.65821 235.55943,553.16759 319.76212,608.38049 387.68613,623.61267 272.89582,661.25257 111.88693,548.92384 67.444076,352.17598 196.91266,147.77589 302.00956,110.56868 431.01217,102.77838 312.89611,713.10055 172.68134,667.74986 61.501464,550.81756 241.19296,555.64423 329.07875,607.58665 397.40022,619.70794 280.65993,664.1518 112.77462,552.96019 66.039547,351.3106 201.75491,142.06465 310.32479,106.33481 443.09825,101.98421 312.62417,715.62771 174.07451,670.79444 60.701792,553.39378 246.90448,557.86921 338.28933,606.20799 406.72427,615.29605 288.44919,666.77124 113.75616,557.03597 64.608468,350.64658 206.67546,136.47479 318.75161,102.30281 455.19018,101.58009 311.04698,718.22265 174.89384,673.52036 59.490401,555.24741 252.67977,559.83153 347.35162,604.2447 415.62694,610.42357 296.24193,669.11676 114.83894,561.15744 63.145251,350.2129 211.65279,131.01808 327.28592,98.473705 467.26188,101.56535 308.06001,720.85623 175.05664,675.89624 57.786181,556.23532 258.50288,561.5207 356.2223,601.70035 424.08187,605.14165 304.014,671.19636 116.03038,565.32995 61.644501,350.03971 216.66267,125.70617 335.92462,94.84831 479.28552,101.93783 303.56067,723.47339 174.48156,677.88596 55.516928,556.21029 264.35646,562.92716 364.85714,598.58224 432.06828,599.50566 311.73878,673.02068 117.33802,569.55811 60.101303,350.15778 221.67796,120.55049 344.66558,91.427317 491.23229,102.69377 297.45037,725.98914 173.09055,679.44706 52.624422,555.01947 270.22152,564.04227 373.21143,594.90148 439.57153,593.57499 319.38691,674.60353 118.76935,573.84553 58.511391,350.59891 226.66852,115.56216 353.50792,88.211437 503.07359,103.82784 289.63835,728.28527 170.81032,680.52879 49.069546,552.5016 276.07761,564.85869 381.24033,590.67331 446.58378,587.41237 326.92636,675.96221 120.3316,578.19472 56.871539,351.39529 231.60127,110.7518 362.45172,85.201582 514.78257,105.33322 280.0455,730.20742 167.57443,681.07014 44.836914,548.4825 281.90271,565.37038 388.89917,585.91727 453.10438,581.0836 334.32218,677.11818 122.0314,582.60676 55.179875,352.57942 236.44047,106.12934 371.49837,82.398991 526.33527,107.20193 268.60974,731.56301 163.32497,680.99773 39.939914,542.76945 287.67342,565.57302 396.14399,580.65732 c 62.99628,-6.00065 -54.60725,97.44 -272.26923,6.42399 C 53.436194,354.18372 241.14749,101.70415 380.64982,79.80549 537.7116,109.42508 255.28875,732.11885 158.01399,680.2235 34.426129,535.14294 293.36486,565.46406 402.932,574.92205 464.70603,568.20146 348.52953,678.93033 125.86656,591.61633 51.642459,356.24007 245.68136,97.484738 389.90862,77.423607 548.8954,111.99311 240.04787,731.59349 151.60529,678.6423 28.384251,525.34618 298.951,565.04303 409.22212,568.7447 469.82403,561.78884 355.2574,679.65295 128.01029,596.208 49.803105,358.77888 249.99884,93.478883 399.27739,75.256713 559.87389,114.89592 222.75956,729.6105 144.0747,676.12841 21.954808,513.07258 304.40456,564.31165 414.97563,562.16316 c 59.54846,-6.67294 -53.30118,118.14288 -284.668,38.6873 C 47.925454,361.82823 254.05484,89.693644 408.75803,73.309097 570.63638,118.12276 202.72008,725.45015 135.4091,672.5301 15.347362,497.95249 309.69737,563.2742 420.1568,555.22011 478.84305,549.37691 367.73207,680.9354 132.75798,605.53582 46.020044,365.41248 257.80293,86.135399 418.35147,71.585929 581.17349,121.66207 178.08156,717.48732 125.60309,667.6603 8.8683773,479.54449 314.80035,561.93751 424.7336,547.96266 482.82387,543.51978 373.37882,681.59148 135.35799,610.25403 44.10088,369.54991 261.19578,82.810039 428.05675,70.09313 591.47578,125.50118 147.47748,703.26161 114.65154,661.27909 2.9636971,457.34154 319.68395,560.31126 428.67852,540.44231 486.51474,537.98888 378.56038,682.32864 138.10108,614.99282 42.1854,374.25006 264.18594,79.723061 437.87083,68.837173 601.53343,129.6262 111.59711,680.10365 102.53818,653.06256 -1.725361,430.8058 324.31812,558.40804 431.96933,532.71467 489.96755,532.85336 383.21901,683.20428 140.97658,619.7377 40.294189,379.50971 266.72682,76.879741 447.78806,67.824802 611.33588,134.02183 72.843724,645.44244 89.226976,642.5544 -4.301011,399.44405 328.67282,556.24355 434.59012,524.83874 493.2363,528.18161 387.2933,684.27739 143.96956,624.47212 38.450124,385.308 268.77376,74.285314 457.80019,67.062639 620.87184,138.67129 34.997491,597.20719 74.677134,629.10869 -3.5628676,362.92847 332.71819,553.83656 436.53203,516.87669 496.37514,524.04154 390.71741,685.60703 147.05996,629.17752 36.676746,391.59981 270.2856,71.945005 467.8967,66.556944 630.1296,143.55638 2.9947747,534.39563 58.916599,611.85689 1.9965937,321.25103 336.42474,551.2089 437.79441,508.89265 499.43619,520.50102 393.42037,687.25016 150.22209,633.83355 34.99578,398.30953 271.22696,69.863859 478.06475,66.313274 620.57186,126.93227 549.13184,147.76582 518.19388,180.20466"
       id="path5279"
       inkscape:connector-curvature="0"
       sodipodi:nodetypes="csssssssssssssssssssssssssssssssssssssssssssssssssssssssssssssssssssssssssssssssssssssssssssssssssssssssssssssssssssssssssssssssssssssssssssssssssssssssssssssssssssssssssssssssssssssssssssssssssssssssssssssssssssssssssssssc" />
  </g>
  <g
     style="display:inline"
     inkscape:label="Silver"
     id="layer4"
     inkscape:groupmode="layer" />
  <g
     inkscape:groupmode="layer"
     id="layer3"
     inkscape:label="Gel"
     style="display:inline" />
  <g
     inkscape:groupmode="layer"
     id="layer5"
     inkscape:label="Pencil"
     style="display:inline" />
  <g
     style="display:inline"
     inkscape:label="Gold"
     id="layer2"
     inkscape:groupmode="layer">
    <path
       inkscape:connector-curvature="0"
       style="fill:none;stroke:#000000"
       d=""
       id="path7370" />
    <path
       inkscape:connector-curvature="0"
       style="fill:none;stroke:#000000"
       d=""
       id="path7382" />
  </g>
  <path
     id="path3389"
     d=""
     style="fill:none;stroke:#000000"
     inkscape:connector-curvature="0" />
  <path
     id="path3403"
     d=""
     style="fill:none;stroke:#000000"
     inkscape:connector-curvature="0" />
  <path
     inkscape:connector-curvature="0"
     style="fill:none;stroke:#000000"
     d=""
     id="path3499" />
  <path
     inkscape:connector-curvature="0"
     style="fill:none;stroke:#000000"
     d=""
     id="path3513" />
  <path
     id="path3692"
     d=""
     style="fill:none;stroke:#000000;stroke-width:1.19536245"
     inkscape:connector-curvature="0" />
  <path
     id="path3706"
     d=""
     style="fill:none;stroke:#000000;stroke-width:1.19536245"
     inkscape:connector-curvature="0" />
</svg>
