<?xml version="1.0" encoding="UTF-8" standalone="no"?>
<!-- Created with Inkscape (http://www.inkscape.org/) -->

<svg
   xmlns:dc="http://purl.org/dc/elements/1.1/"
   xmlns:cc="http://creativecommons.org/ns#"
   xmlns:rdf="http://www.w3.org/1999/02/22-rdf-syntax-ns#"
   xmlns:svg="http://www.w3.org/2000/svg"
   xmlns="http://www.w3.org/2000/svg"
   xmlns:sodipodi="http://sodipodi.sourceforge.net/DTD/sodipodi-0.dtd"
   xmlns:inkscape="http://www.inkscape.org/namespaces/inkscape"
   width="744.09448819"
   height="1052.3622047"
   id="svg2"
   version="1.1"
   inkscape:version="0.48.2 r9819"
   sodipodi:docname="spiral034(hummingbird).svg">
  <sodipodi:namedview
     id="base"
     pagecolor="#ffffff"
     bordercolor="#666666"
     borderopacity="1.0"
     inkscape:pageopacity="0.0"
     inkscape:pageshadow="2"
     inkscape:zoom="0.35"
     inkscape:cx="315.09857"
     inkscape:cy="313.36386"
     inkscape:document-units="px"
     inkscape:current-layer="layer1"
     showgrid="false"
     inkscape:window-width="694"
     inkscape:window-height="711"
     inkscape:window-x="676"
     inkscape:window-y="34"
     inkscape:window-maximized="0" />
  <defs
     id="defs4" />
  <metadata
     id="metadata7">
    <rdf:RDF>
      <cc:Work
         rdf:about="">
        <dc:format>image/svg+xml</dc:format>
        <dc:type
           rdf:resource="http://purl.org/dc/dcmitype/StillImage" />
        <dc:title></dc:title>
      </cc:Work>
    </rdf:RDF>
  </metadata>
  <g
     inkscape:label="Layer 1"
     inkscape:groupmode="layer"
     id="layer1">
    <path
       inkscape:connector-curvature="0"
       style="fill:none;stroke:#000000;stroke-width:1px;stroke-linecap:butt;stroke-linejoin:miter;stroke-opacity:1"
       d="M654.538023528 597.980329387C654.669559247 598.592780377 661.062327293 634.067641002 663.639672093 664.219955473C662.467059519 710.955259316 659.088333901 736.710280061 660.549632899 727.496857531C662.266449888 713.548441529 662.366612144 645.097836222 651.730477456 586.678826049C624.188558155 515.067564433 606.200025061 483.578429573 618.04607799 503.577092487C629.694959981 526.533594422 658.491702304 617.561861035 663.186482319 701.257723709C642.823462698 796.880982818 619.775640396 845.739258402 632.653420246 821.255521061C646.660839833 786.40049502 662.962238103 651.657921714 635.304363536 538.91889469C562.456864647 427.063610891 520.593602581 388.297181208 557.540350802 421.983833548C589.038077786 458.942383577 654.469208463 598.256704891 659.486263217 733.583599833C605.014365431 868.587249855 548.544781908 929.310340012 579.673927347 900.201159889C615.6993193 852.722064966 663.146738601 654.003082214 609.943087459 489.500691696C474.61424856 356.36564452 407.939015247 324.36412729 478.339100867 358.705266547C534.933068553 400.534538991 648.489756393 576.168370874 653.754444341 761.21305683C555.546974517 923.240530496 459.063462815 978.341488274 507.959689693 956.956241022C571.687366161 908.595524938 662.992278429 651.972323056 574.356617423 440.388323736C366.532014199 311.189765602 281.033635123 297.826965247 386.677880817 317.093305783C469.983858428 353.888347177 640.05647398 551.645172621 647.003826971 784.335615048C500.69159273 960.514734293 366.981871169 991.114912643 426.400654205 986.919694286C517.89880838 951.187915923 662.398973712 645.324079916 527.664877082 394.066093937C246.742172893 297.249237189 152.904888095 309.414456048 288.938666409 298.413189483C397.127648962 320.717833521 628.679928515 525.137058419 640.044488086 803.243843972C445.70803926 981.982778558 286.242627125 972.967272385 345.133457033 989.297166552C458.293407648 978.767886806 661.068994979 633.802339299 469.603710063 353.45725377C125.261522945 316.926394873 34.9056993777 355.471158519 191.042863245 302.128105292C319.438681211 301.955840573 613.901550326 497.181164548 633.497252729 818.277071883C394.446540489 990.402002379 226.021585076 934.298783224 273.772494778 967.479067778C397.155821734 990.870353472 658.471414633 617.166486515 400.714594018 321.757904968C12.1810774252 369.013573337 -64.4709647195 429.350097612 98.039398217 326.305634899C239.946078107 297.815345412 595.32021649 468.400183344 627.815504379 829.777795006C349.280753365 989.027859386 189.27378382 887.374463291 219.535306173 928.524364458C338.664062888 988.357253889 653.807255375 595.241232268 322.484744896 302.190113159C-83.6834968944 449.066498643 -140.028370045 522.914259388 13.8833215417 368.062161006C161.484244059 307.876120502 572.617891949 439.49531841 623.308337594 838.064691457C311.2888699 981.066429143 173.278880015 843.063431331 185.76946146 881.7345267C286.445611441 973.320505139 645.981393092 567.989618568 237.403948943 297.690355314C-155.812334891 550.248756759 -189.69690747 627.851234951 -58.6267905517 423.983423917C86.5803246694 331.191334896 545.584817127 411.235106973 620.164398328 843.413738256C280.562616303 969.317567606 171.794090176 808.659755426 171.3955434 836.619417312C243.188120362 948.821991853 633.593436885 535.618971377 148.901376977 310.564894634C-200.522468412 664.447839353 -213.97624342 736.636151014 -117.791549098 490.48240092C17.3779792315 366.404275403 514.140966474 384.436557688 618.472171911 846.050371266C256.549971691 956.002378464 177.836856637 787.37522613 171.587729329 800.874263767C210.373038619 918.497120171 614.963492885 498.716725328 61.1545296357 342.162093925C-217.000953426 783.41565147 -215.205893023 843.104737365 -162.876658725 564.077210261C-44.4063335389 411.867141406 478.352992625 359.940628874 618.236861334 846.148141982C238.358532694 942.734631763 186.036303449 779.273036332 179.642920991 779.134828115C188.188186183 886.080887066 588.214882679 458.41137502 -21.2298453308 392.615771499C-206.917052249 899.723091833 -196.832157798 942.678350259 -193.937391991 641.585537831C-97.4947648651 465.752083558 438.445079951 338.582766834 619.394770146 843.830623129C224.987455782 930.584510501 193.876689996 782.749773173 189.59024325 773.057916557C175.646066576 854.943009008 551.435477149 416.535533165 -93.6275996188 460.711838423C-173.769540258 1007.40977839 -162.77884115 1032.33256858 -211.631254746 720.243633541C-141.039458317 526.153306125 394.802270963 321.159886116 621.823325675 839.178826815C215.479844356 920.186102638 201.682662289 795.572701651 198.848940254 782.485390362C170.886475624 827.71777073 502.937313618 375.757487558 -151.847757702 543.911827183C-122.13725524 1102.28854009 -116.971291235 1110.40096112 -217.038695375 797.76149029C-174.592561581 591.171984525 347.965081148 308.395741737 625.348978383 832.240467012C209.006832918 911.853370336 211.574256391 815.09149187 210.073162516 806.231923025C171.605077342 806.10065785 441.611711602 339.622892431 -192.556884408 638.542780927C-56.9766159407 1181.94848129 -63.0195110462 1176.30344563 -211.505077086 872.331686804C-198.066263615 658.988029118 298.616413983 300.907318344 629.753943483 823.039806699C204.902495226 905.684852162 225.902194596 838.106999976 230.859735742 840.756801699C175.513541569 790.836955487 367.357518419 312.449228473 -213.611148371 740.135293265C16.9405319469 1245.53837813 -4.04060662646 1230.25875672 -196.509281185 942.603223204C-211.683493511 727.91417193 247.557762091 299.173755569 634.781123014 811.590149558C202.665945762 901.645754178 245.894429041 861.096062273 270.083919181 877.437865809C180.728804744 781.868452504 281.512179724 299.01152131 -214.241587318 843.853953331C95.4090745372 1293.42778473 57.4105091605 1273.02103078 -173.561117228 1007.63498306C-215.925428145 796.436085268 195.680962093 303.511194134 640.139806966 797.905070956C201.946801134 899.627239315 271.094201068 880.898396175 331.895223558 901.958374017C186.006503651 778.556146462 187.180894558 303.994912336 -195.071165017 944.962626265C174.994166933 1326.83030024 119.335943778 1305.66135715 -144.125814828 1066.83800326C-211.478191561 863.237028676 143.93065204 314.054518658 645.511345884 782.010502099C202.52366227 899.484865257 299.639145681 895.429302788 410.778097975 897.972328399C190.770672513 779.88509157 89.3248813607 331.24811681 -157.967021519 1039.24766152C253.088837719 1347.45366908 180.243984294 1329.39998255 -109.572286595 1119.91446028C-199.181711247 927.213095251 93.2657948784 330.747864431 650.555909177 763.956482428C204.281045489 901.059623629 328.997157427 904.011524126 490.622356275 853.685780353C194.944945664 784.59613019 -5.50352562531 382.954558839 -105.762487706 1123.34678853C327.865803084 1357.21189127 239.075249202 1345.48679692 -71.141423932 1166.79792238C-179.982046132 987.476159467 44.6172532608 353.344896101 654.921129522 743.826145716C207.188599819 904.187347683 356.709814306 907.244083608 548.654153906 768.169174631C198.651952467 791.264337114 -89.8391928493 458.909383804 -41.9006477662 1194.94467549C398.168070299 1358.01454971 295.121960227 1355.12303176 -29.9295637624 1207.59927898C-154.88864585 1043.34985388 -1.15225461709 381.418756768 658.251713075 721.744519395C211.282087077 908.698823835 380.874321758 906.56973169 563.017483967 654.288164669C201.906556092 798.390992452 -156.337246611 556.124835158 29.9401102326 1252.82465989C463.371379045 1351.63070697 347.950829081 1359.41541759 13.1160127843 1242.55883108C-124.937198183 1094.35879324 -43.2843088592 414.380665058 660.200719581 697.884525058C216.646396333 914.414743355 400.306268943 903.761372601 521.17234088 536.405188889C204.444956751 804.555280082 -198.974516186 668.945079666 106.187230289 1296.79405808C523.244231973 1339.61679603 397.333854249 1359.35400577 57.1935921942 1272.00618117C-91.1581970668 1140.21340655 -81.156413877 451.507169388 660.442003424 672.469098864C223.399170746 921.137730159 414.461847685 900.489500922 425.578132573 443.127184472C205.776694213 808.6144014 -214.13785516 789.72734789 183.643912487 1327.51383351C577.82304492 1323.29312667 443.191154217 1355.80650831 101.637877664 1296.32729011C-54.5511967096 1180.79157633 -114.304317173 491.972125064 658.683042972 645.772454726C231.674419686 928.64410111 423.246666464 898.040543582 293.912039249 397.660489671C205.426821674 809.923480911 -201.312460289 909.985498705 259.664864665 1346.27184317C627.307612228 1303.75425384 485.544486718 1349.52298897 145.907419941 1315.93837268C-16.0651280665 1216.11768369 -142.436886928 534.883415729 654.67777367 618.114951084C241.605180088 936.677071281 426.820084774 897.18474569 153.276832751 409.701460869C203.20795336 808.582383469 -163.174336309 1021.73120208 332.24405393 1354.74252909C671.981964779 1281.8995693 524.482081259 1341.14642642 189.571048071 1331.26616228C23.4169132489 1246.34155716 -165.441013575 579.320561207 648.238488204 589.857302981C253.30498916 944.943160333 425.459107996 898.159605259 30.6064109998 472.378289216C199.313667282 805.733621968 -105.066824672 1118.68414238 400.018079161 1354.76160174C712.15676458 1258.47469699 560.13185452 1331.22606839 232.293068828 1342.73294158C63.0876301826 1271.71655213 -183.377022464 624.37027918 639.246054351 561.390174313C266.84977844 953.11404875 419.502920748 900.731020625 -56.5935923645 565.514981047C194.172043638 803.841256503 -34.0196319878 1197.06384557 462.212517404 1348.13995336C748.13325558 1234.1149094 592.642653563 1320.23128261 273.81969165 1350.74620748C102.221155977 1292.57813946 -196.466343639 669.159210777 627.657536436 533.121231436C282.259229737 960.833243046 409.36542235 904.304880832 -105.034707188 663.41536889C188.402786461 806.733379078 42.4131763156 1255.81239471 518.551272035 1336.52573213C780.18215603 1209.38660844 622.17123206 1308.56463599 313.965659403 1355.69153884C140.175682934 1309.32379776 -205.072358772 712.882601267 613.510739458 505.46061213C299.481945299 967.729885694 395.584409407 908.072497245 -123.931924083 743.137205554C183.579494685 819.133676356 117.203030448 1296.26801708 569.147662915 1321.31638892C808.535175413 1184.82277853 648.873608283 1296.57347615 352.602424721 1357.92830851C176.392285678 1322.39367381 -209.675073484 754.823271759 596.925490597 478.805705514C318.38385761 973.437436286 378.867908249 911.177211819 -127.91331725 789.372091992C184.03770453 845.28016585 184.577626247 1321.45249551 614.396660717 1303.61486767C833.384356906 1160.95090071 672.899798092 1284.55957447 389.647826913 1357.78746206C210.391496291 1332.25290403 -210.843424261 794.367155357 578.1005194 453.524658892C338.743775072 977.61713992 360.106494417 912.884092354 -128.185315958 794.820555655C198.42014151 886.032495173 240.359769306 1335.19555305 654.875343 1284.22139842C854.885618122 1138.3124211 694.390626553 1272.78691648 425.056547935 1355.57081482C241.767975057 1339.3754596 -209.20535954 831.009144997 557.307466859 429.942322069C360.255607629 979.983197032 340.330645281 912.728568548 -126.189714578 758.525067246C238.260978186 934.719145124 281.96422022 1341.30315961 691.257910905 1263.65099288C873.163001016 1117.47369016 713.475795514 1261.48781847 458.812861984 1351.55147142C270.183336388 1344.22944406 -205.418444283 864.351810313 534.881373592 408.32745651C382.539729757 980.327535622 320.616940371 910.615066341 -112.666513462 685.663119668C311.855712333 974.506109245 308.189608843 1342.91569361 724.246426085 1242.16746616C888.310529308 1099.028821 730.273891567 1250.8668134 490.92356086 1345.97502015C295.358508813 1347.26399049 -200.141934943 894.100603984 511.207990395 388.882301247C405.161195434 978.540699374 301.965638396 906.842969471 -72.6573292132 589.364039648C415.636707589 981.564461499 318.95301416 1342.12543919 754.516645936 1219.82613221C900.389016434 1083.59539089 744.891339298 1241.10407323 521.412544711 1339.0612487C317.064544935 1348.89734565 -194.011672789 920.051426625 486.710844554 371.737002905C427.654428817 974.626433807 285.18749448 902.052448644 5.66565834788 491.38790314C529.311701015 935.275376015 315.080415414 1339.86881713 782.674875787 1196.52106462C909.4163984 1071.80323009 757.422878905 1232.35695201 550.316417775 1331.00612308C335.114801221 1349.50642602 -187.618267329 942.076658237 461.835692811 356.946119806C449.550785844 968.707893739 270.838131566 897.104102165 122.548505389 418.284980791C620.332567407 830.502248055 298.199299774 1336.07647631 809.226698547 1172.03160795C915.350308492 1064.2771216 767.95143887 1224.76110526 577.6810253 1321.98384459C349.356049818 1349.41721189 -181.48912449 960.108439778 437.036218444 344.490083526C470.407180307 961.024361409 259.220403868 892.923373116 263.088412853 393.070867872C656.921214804 683.620379767 270.699974213 1330.04204274 834.553237528 1146.06832594C918.062570846 1061.61406291 776.548629286 1218.43052262 603.557918866 1312.14918304C359.66169542 1348.8961724 -176.074139033 974.121900075 412.761083814 334.28029183C489.830972474 951.918866751 250.451092546 890.34739657 400.868317718 426.219803496C622.198491022 527.531682449 235.680163518 1320.93955281 858.895666719 1118.31724108C917.307335148 1064.35361376 783.27421603 1213.45791098 628.002549843 1301.63946988C365.925243272 1348.14237173 -171.73500954 984.118930174 389.441654138 326.166894975C507.499311825 941.817855339 244.56015673 890.003048505 507.392956473 510.904081653C488.29912299 863.022688752 219.529210018 911.785891728 439.990490359 344.205118789"
       id="path4254" />
  </g>
</svg>
