<?xml version="1.0" encoding="UTF-8" standalone="no"?>
<!-- Created with Inkscape (http://www.inkscape.org/) -->

<svg
   xmlns:dc="http://purl.org/dc/elements/1.1/"
   xmlns:cc="http://creativecommons.org/ns#"
   xmlns:rdf="http://www.w3.org/1999/02/22-rdf-syntax-ns#"
   xmlns:svg="http://www.w3.org/2000/svg"
   xmlns="http://www.w3.org/2000/svg"
   xmlns:sodipodi="http://sodipodi.sourceforge.net/DTD/sodipodi-0.dtd"
   xmlns:inkscape="http://www.inkscape.org/namespaces/inkscape"
   sodipodi:docname="spiral032.svg"
   inkscape:version="0.48.2 r9819"
   version="1.1"
   id="svg2"
   height="1052.3622047"
   width="744.09448819">
  <sodipodi:namedview
     id="base"
     pagecolor="#ffffff"
     bordercolor="#666666"
     borderopacity="1.0"
     inkscape:pageopacity="0.0"
     inkscape:pageshadow="2"
     inkscape:zoom="0.47776272"
     inkscape:cx="164.35251"
     inkscape:cy="736.74117"
     inkscape:document-units="px"
     inkscape:current-layer="layer1"
     showgrid="false"
     inkscape:window-width="834"
     inkscape:window-height="646"
     inkscape:window-x="172"
     inkscape:window-y="57"
     inkscape:window-maximized="0"
     inkscape:snap-center="false" />
  <defs
     id="defs4" />
  <metadata
     id="metadata7">
    <rdf:RDF>
      <cc:Work
         rdf:about="">
        <dc:format>image/svg+xml</dc:format>
        <dc:type
           rdf:resource="http://purl.org/dc/dcmitype/StillImage" />
        <dc:title></dc:title>
      </cc:Work>
    </rdf:RDF>
  </metadata>
  <g
     inkscape:label="Layer 1"
     inkscape:groupmode="layer"
     id="layer1">
    <path
       sodipodi:nodetypes="cssssssssssssssssssssssssssssssssssssssssssssssssssssssssssssssssssssssssssssssssssssssssssssssssssssssssssssssssssssssssssssssssssssssssssssssssssssssssssssssc"
       inkscape:connector-curvature="0"
       id="path3958"
       d="m 521.77305,410.31858 c 0.20106,3.29462 -1.28379,0.86033 -2.76025,-3.24762 -2.53039,-6.43906 -4.6394,-14.39842 -4.76135,-17.59194 -0.33717,-4.65491 2.96353,-0.40696 6.35293,7.86199 3.702,10.51682 5.73212,23.69455 5.16609,28.72884 -0.93098,5.49763 -4.4026,-2.21779 -8.20589,-15.01605 -5.90103,-15.39609 -11.07279,-31.95049 -10.93875,-37.6273 -0.53002,-7.62639 6.72403,0.42418 14.24258,17.12724 6.43256,18.83174 9.00596,42.30532 7.41652,50.81071 -2.24002,7.59552 -6.93512,-5.98753 -12.55507,-27.36107 -9.71934,-24.19205 -18.75744,-48.65488 -18.34557,-56.41926 -1.21424,-10.73653 10.68252,0.36352 23.24485,25.23662 9.26375,26.81784 11.723,60.9257 8.77648,73.19934 -3.72919,9.34535 -253.01488,99.30137 -252.58989,96.18213 2.27268,-1.95049 208.97586,-200.46606 209.72304,-210.03983 -2.39083,-13.84484 14.70686,-0.59168 33.28742,32.02206 12.31946,34.42406 14.12814,79.36573 9.41576,95.68473 -5.32341,10.69448 -264.81141,74.83359 -263.21943,70.61359 4.25093,-1.86095 206.92681,-201.92926 208.10363,-213.11213 -4.06298,-16.85116 18.66297,-2.43524 44.26533,37.32548 15.7066,41.5884 16.48872,97.48288 9.53007,118.06645 -6.93787,11.61704 -273.79393,50.50523 -270.63063,45.06219 6.52999,-1.43199 201.19327,-201.74249 202.91716,-214.41061 -6.22104,-19.66057 22.41731,-5.14331 56.04362,41.00222 19.51179,48.24647 19.07881,115.16592 9.33599,140.15713 -8.48492,12.09911 -280.12994,26.65311 -274.92442,19.89542 9.04906,-0.60225 191.81173,-199.87126 194.20726,-213.9776 -8.8404,-22.18075 25.84002,-8.6733 68.46017,42.9243 23.79936,54.33138 22.16761,132.3268 9.06541,161.7866 -9.8773,12.13188 -284.02622,3.57462 -276.24165,-4.54702 11.73705,0.67846 178.88581,-196.29157 182.06866,-211.86419 -11.88122,-24.32319 28.8079,-12.96439 81.3289,42.98359 28.6102,59.77306 26.00947,148.89176 8.9592,182.80677 -11.03156,11.70336 -285.72188,-18.48013 -274.75877,-27.96164 14.51498,2.44807 162.58421,-190.99214 166.64548,-208.12989 -15.28853,-26.0051 31.20745,-17.93845 94.44315,41.09443 33.96167,64.499 30.83587,164.7922 9.26044,203.09718 -11.87363,10.78521 -285.48071,-39.31574 -270.68253,-50.08966 17.29825,4.73141 143.13735,-183.9766 148.12923,-202.84217 -18.99324,-27.15164 32.93721,-23.50166 107.5792,37.19629 39.84802,68.43538 36.84909,179.95538 10.20697,222.57005 -12.35253,9.30644 -283.58288,-58.79837 -264.24354,-70.72498 19.99873,7.5397 120.83337,-175.26524 126.75603,-196.07589 -22.91312,-27.69815 33.91012,-29.54636 120.49992,31.25571 46.24126,71.50883 44.21782,194.29665 12.02387,241.17339 -12.48382,7.08748 -280.31627,-76.85947 -255.68958,-89.71959 22.5271,10.87004 96.01296,-164.89681 102.80329,-187.913 -26.95423,-27.59203 34.05556,-35.95318 132.95871,23.26802 53.09257,73.64872 53.07422,207.71402 14.91683,258.89011 -12.50679,3.64987 -275.96844,-93.49507 -245.27904,-106.98483 24.79485,14.70573 69.06349,-152.92946 76.58588,-178.44175 -31.01273,-26.79465 33.32055,-42.59366 144.70336,13.25862 60.33378,74.78953 63.51214,220.08525 19.06696,275.7314 -13.29154,-2.01413 -270.82005,-108.75828 -233.27574,-122.48626 26.7166,19.01641 40.4127,-139.44175 48.45196,-167.75623 -34.97701,-25.28297 31.67129,-49.33267 155.47996,1.28366 67.87936,74.87321 75.58612,231.26741 24.62808,291.72425 C 473.77985,536.07177 224.58076,423.2532 269.7757,409.76624 c 28.21213,23.7588 10.52136,-124.53308 18.77822,-155.95577 -38.72968,-23.05081 29.09359,-56.03133 165.037,-12.56953 75.62849,73.85171 89.31091,241.09889 31.7264,306.89554 C 465.02445,530.06447 226.13089,412.55875 279.76174,399.87716 308.97,428.755 259.63757,291.55346 267.72643,256.73295 225.57618,236.62317 293.3201,194.18329 440.85587,228.55044 524.32307,300.23918 545.51724,477.95302 481.31746,549.80666 455.50787,524.64633 228.11693,402.4235 290.94432,391.1909 320.58494,425.49882 239.92419,300.23659 247.37387,261.76173 202.25615,245.2717 268.5715,193.01214 426.89622,216.35523 518.16729,284.7173 548.46909,472.34604 477.80482,551.1446 445.63767,520.34034 230.39217,392.86407 303.13805,383.7943 332.5932,423.76894 221.4845,311.20894 227.74134,268.87297 180.22824,256.6325 243.69279,194.3753 411.73627,204.80969 510.64403,268.67461 551.67819,465.48031 474.85509,552.25315 435.71707,517.33868 232.81591,383.88395 316.15023,377.74866 344.75942,423.54524 204.6394,324.35289 209.07305,278.01507 c -49.22224,-7.42869 9.92007,-79.66785 186.34435,-83.94664 106.23946,58.2071 159.62698,263.24942 77.12019,359.1309 C 426.01333,515.70615 235.25533,375.4758 329.78378,373.0889 c 27.0723,51.68755 -140.0864,-33.58133 -138.17438,-83.98028 -50.13873,-2.14047 3.1861,-84.14403 186.38876,-104.82435 113.12608,51.4161 180.45022,263.54102 92.91692,369.7308 C 416.77742,515.43902 237.58688,367.62416 343.84019,369.82304 368.66688,427.38187 176.94896,356.47038 175.5837,302.04679 125.41736,305.56781 171.43205,214.22434 359.55463,175.60636 478.9824,219.14376 561.7539,436.97771 470.04294,554.70025 408.24807,516.48498 239.6975,360.30793 358.12283,367.93192 c 21.86677,63.32166 -191.46143,7.06724 -196.90362,-51.2359 -49.22179,9.43653 -11.97984,-90.61399 178.96123,-148.51781 125.0076,34.63452 224.6296,256.58386 129.78729,387.04866 -69.31706,-36.47524 -228.48241,-201.72394 -97.5277,-187.85752 18.19839,68.88967 -213.36646,27.44559 -223.71378,-34.47247 -47.23714,15.47234 -20.17294,-92.4459 171.26001,-170.7613 129.73467,24.78895 247.46757,249.04476 150.73945,393.40795 -76.53134,-33.43225 -227.86556,-208.35912 -84.11742,-187.48096 13.83737,74.18151 -232.21709,47.54299 -248.30907,-17.59702 -44.162052,21.48216 -28.59539,-93.2636 160.80011,-192.861 133.48652,14.09928 270.4138,238.64789 173.24205,397.97526 -83.27275,-29.17528 -228.59771,-214.25056 -71.88582,-185.66669 8.80693,79.12327 -247.673,67.11639 -270.34163,-0.71774 C 90.14821,396.50474 93.009592,276.16351 277.66285,154.69956 413.81433,157.37978 570.80969,380.01822 474.8261,555.25034 385.43969,531.44367 244.06942,335.91788 413.82429,372.79821 416.95959,456.44929 154.37466,458.72068 124.32503,388.85872 89.686374,421.64844 78.772776,297.12305 255.8347,153.52147 393.46598,144.18273 571.16242,362.53942 478.17707,554.45859 383.44718,537.01623 243.78272,330.93599 426.57485,376.57268 423.42703,464.28665 159.24994,480.29331 121.0636,409.20932 92.869635,446.96326 67.273846,319.82836 233.78628,154.15582 371.62936,132.34077 570.39083,343.90088 482.37635,553.10027 383.20107,542.88874 242.84032,326.3758 438.58838,381.07163 428.57572,472.34935 167.44366,501.34755 120.43512,429.98456 99.766639,472.01555 58.766542,343.98996 211.70123,156.67108 348.42231,122.07607 568.31856,324.21127 487.39038,551.06659 384.779,548.81081 241.21024,322.2371 449.76957,386.11383 432.34302,480.44503 178.94189,521.4751 122.51745,450.90833 110.39428,496.35943 53.473101,369.28408 189.77342,161.11719 323.99197,113.60118 564.77695,303.60323 493.16961,548.24714 388.22415,554.51949 238.87155,318.52768 460.04916,391.50608 434.70764,488.40298 193.68021,540.2654 127.3594,471.69389 124.7158,519.54284 51.579809,395.35602 168.20534,167.52418 298.51401,107.11517 559.60867,282.23319 499.64851,544.53274 393.54357,559.74389 235.81406,315.26369 469.38556,397.04854 435.71984,496.09516 211.5432,557.31173 134.9793,492.04679 142.63987,541.11414 53.232978,421.82444 147.20609,175.90094 272.19169,102.79995 552.67124,260.28038 506.74577,539.81799 400.7071,564.20995 232.03817,312.46963 477.76559,402.54079 435.54464,503.45798 232.36462,572.21756 145.36413,511.66832 164.02028,560.62865 58.535338,448.28564 126.98903,186.23431 245.25424,100.81656 543.84039,237.94553 514.36483,534.00366 409.64696,567.64534 227.55507,310.17768 485.20388,407.78866 434.49474,510.49934 255.92841,584.60283 158.46888,530.25872 188.65642,577.65517 67.543013,474.31889 107.76957,198.48836 217.95467,101.3017 533.01346,215.4491 522.39461,526.99906 420.25783,569.78446 222.38647,308.42726 491.74064,412.6109 433.01568,517.27463 281.97031,594.11005 174.21619,547.52054 216.29457,591.78267 80.263077,499.49176 89.762861,212.60381 190.56735,104.36437 520.1122,193.02884 530.7105,518.72407 432.39768,570.37333 216.56475,307.26399 497.43754,416.8452 431.61365,523.83718 310.18059,600.41038 192.49659,563.16221 246.63005,602.62672 96.651712,523.36582 73.181146,228.49789 163.38493,110.08294 505.08567,170.93711 539.1756,509.11113 445.88915,569.17443 210.13322,306.73853 502.37209,420.35285 430.7653,530.19188 340.20693,603.20925 213.16887,576.90141 279.31016,609.83572 116.61302,545.50264 58.231315,246.06431 136.71489,118.5024 487.91254,149.43778 547.64217,498.10693 460.52152,565.97137 203.14612,306.90516 506.63069,423.0211 430.85682,536.27478 371.65867,602.25172 236.06081,588.46846 313.93758,613.09679 139.99872,565.47013 45.112422,265.1735 110.87588,129.63209 468.60301,128.80264 555.95322,485.67401 476.05339,560.57328 195.66862,307.82046 510.30125,424.76349 432.16381,541.95721 404.11107,597.32732 260.97054,597.60971 350.07493,612.14128 166.60839,582.84868 34.013002,285.6733 86.193455,143.44388 447.20054,109.30777 563.94434,471.79209 492.21574,552.81887 187.77712,309.5414 513.46617,425.51797 434.85675,547.06173 437.11074,588.27438 287.66799,604.09074 387.24975,606.74977 196.19039,597.23738 25.108652,307.38973 62.995847,159.87073 423.78279,91.229398 571.44565,456.45921 508.71566,542.58014 179.55904,312.1237 516.19638,425.24359 439.01559,551.37998 470.18106,574.9838 315.89662,607.6994 c 7.92418,2.64931 -25.06438,2.69609 -94.94726,-11.06786"
       style="fill:none;stroke:#000000;stroke-width:1px;stroke-linecap:butt;stroke-linejoin:miter;stroke-opacity:1" />
  </g>
</svg>
