<?xml version="1.0" encoding="UTF-8" standalone="no"?>
<!-- Created with Inkscape (http://www.inkscape.org/) -->

<svg
   xmlns:dc="http://purl.org/dc/elements/1.1/"
   xmlns:cc="http://creativecommons.org/ns#"
   xmlns:rdf="http://www.w3.org/1999/02/22-rdf-syntax-ns#"
   xmlns:svg="http://www.w3.org/2000/svg"
   xmlns="http://www.w3.org/2000/svg"
   xmlns:sodipodi="http://sodipodi.sourceforge.net/DTD/sodipodi-0.dtd"
   xmlns:inkscape="http://www.inkscape.org/namespaces/inkscape"
   sodipodi:docname="letter sized frame blank.svg"
   inkscape:version="0.48.2 r9819"
   version="1.1"
   id="svg3783"
   height="1052.3622047"
   width="744.09448819">
  <sodipodi:namedview
     id="base"
     pagecolor="#ffffff"
     bordercolor="#666666"
     borderopacity="1.0"
     inkscape:pageopacity="0.0"
     inkscape:pageshadow="2"
     inkscape:zoom="0.49497475"
     inkscape:cx="195.64158"
     inkscape:cy="673.5447"
     inkscape:document-units="px"
     inkscape:current-layer="layer1"
     showgrid="false"
     inkscape:window-width="1084"
     inkscape:window-height="748"
     inkscape:window-x="104"
     inkscape:window-y="31"
     inkscape:window-maximized="0" />
  <defs
     id="defs3785" />
  <metadata
     id="metadata3788">
    <rdf:RDF>
      <cc:Work
         rdf:about="">
        <dc:format>image/svg+xml</dc:format>
        <dc:type
           rdf:resource="http://purl.org/dc/dcmitype/StillImage" />
        <dc:title></dc:title>
      </cc:Work>
    </rdf:RDF>
  </metadata>
  <g
     id="layer1"
     inkscape:groupmode="layer"
     inkscape:label="Layer 1">
    <rect
       y="12.284647"
       x="7.8454075"
       height="779.49591"
       width="516.12524"
       id="rect4319"
       style="fill:none;stroke:#000000;stroke-width:0.91610378;stroke-opacity:1" />
    <flowRoot
       style="fill:black;stroke:none;stroke-opacity:1;stroke-width:1px;stroke-linejoin:miter;stroke-linecap:butt;fill-opacity:1;font-family:Sans;font-style:normal;font-weight:normal;font-size:40px;line-height:125%;letter-spacing:0px;word-spacing:0px"
       id="flowRoot3475"
       xml:space="preserve"><flowRegion
         id="flowRegion3477"><rect
           y="840.23016"
           x="40.406101"
           height="76.771591"
           width="474.7717"
           id="rect3479" /></flowRegion><flowPara
         id="flowPara3481" /></flowRoot>    <path
       style="fill:none;stroke:#000000;stroke-width:1.44082987px;stroke-linecap:butt;stroke-linejoin:miter;stroke-opacity:1"
       d="m 278.08909,362.95681 c 0.38599,-0.0777 0.66529,0.84053 0.59056,1.08605 -0.18807,0.67506 -1.22778,0.0271 -1.83798,-0.78473 -1.0404,-1.46935 -1.02245,-3.1344 -0.31176,-3.61069 1.09156,-0.63235 3.02408,0.93223 4.21968,2.89729 1.78196,2.55033 1.95847,5.03436 0.64308,5.73067 -1.51578,1.00344 -4.78792,-0.98728 -6.88327,-4.203 -2.13933,-4.0025 -1.699,-8.14495 0.43832,-8.91914 2.69731,-0.57276 6.47456,3.04467 8.69077,7.19576 3.25711,4.55102 3.692,8.77868 1.01864,9.93346 -2.59841,1.62729 -8.44038,-1.46498 -12.26263,-7.09437 -3.23129,-6.57795 -2.0971,-13.50944 1.53414,-14.56244 4.35914,-0.29 9.75935,5.5715 12.8387,11.6866 4.88518,6.21257 5.74216,11.94123 1.68703,13.69124 -3.5019,2.42249 -12.09963,-1.39779 -17.95104,-9.38429 -4.3564,-9.14876 -2.28692,-19.10642 2.95433,-20.48816 6.06891,0.24521 12.86776,8.43093 16.68923,16.23264 6.64383,7.49169 8.05494,14.49349 2.61239,17.01648 -4.2142,3.35389 -15.70421,-0.78453 -23.91106,-11.00944 -5.56939,-11.65907 -2.38432,-24.83688 4.65781,-26.63462 7.81209,1.03831 15.81925,11.50576 20.27671,20.68572 8.50019,8.36081 10.57095,16.43329 3.75815,19.93507 -4.72294,4.39025 -19.19344,0.36787 -30.09428,-11.91688 -6.91904,-14.06018 -2.53259,-30.61572 6.57906,-32.93349 9.58533,2.08704 18.65951,14.63641 23.6457,24.89221 10.41321,8.8105 13.22928,17.77612 5.09129,22.4825 -5.01872,5.49998 -22.50706,2.0445 -36.44287,-12.06329 -8.44302,-16.31005 -2.88575,-36.37548 8.62066,-39.31501 11.40823,3.38573 21.45567,17.62195 26.85694,28.70255 12.3387,8.84626 15.97147,18.54887 6.58548,24.69888 -5.09588,6.65089 -25.58628,4.22291 -42.89102,-11.4147 -10.16637,-18.37156 -3.59077,-42.06502 10.64378,-45.71874 13.34223,4.92663 24.28882,20.24294 29.99706,31.98677 14.23325,8.48401 18.7441,18.78438 8.22229,26.62368 -4.95273,7.81057 -28.37472,6.87367 -49.36656,-9.94618 -12.10176,-20.21114 -4.77324,-47.64316 12.46561,-52.11188 15.52552,6.57274 27.24607,22.3085 33.18343,34.65646 16.056,7.74584 21.49922,18.5173 9.99057,28.29196 -4.59166,8.94668 -30.8192,9.96089 -55.79229,-7.64174 -14.25058,-21.79815 -6.53031,-53.07078 13.87929,-58.50568 17.85723,7.66873 30.40533,23.70342 36.54713,36.68344 17.76918,6.65698 24.19358,17.7814 11.88483,29.73189 -4.01902,10.0276 -32.87059,13.4428 -62.08721,-4.49438 -16.60449,-23.10433 -8.92991,-58.30464 14.69654,-64.94692 20.107,8.01494 33.80831,24.39656 40.19364,38.09224 19.33779,5.24402 26.78752,16.60855 13.90339,30.96381 -3.24537,11.02274 -34.48454,17.27225 -68.16791,-0.50603 -19.14696,-24.10415 -12.01377,-63.29421 14.77973,-71.48263 22.26857,7.73034 37.44382,24.40594 44.17392,38.92445 20.72915,3.53421 29.2439,15.02866 16.0463,32.00046 -2.28483,11.90311 -35.6219,21.3974 -73.9496,4.31245 -21.85448,-24.77477 -15.80134,-67.98151 14.04143,-78.12974 24.33474,6.92368 41.25769,23.76035 48.48772,39.20759 21.9124,1.55552 31.52707,13.07033 18.3139,32.84774 -1.15529,12.64182 -36.24941,25.7624 -79.34716,9.94139 -24.69807,-25.0967 -20.2937,-72.30236 12.42771,-84.86852 26.27823,5.67684 45.17361,22.4836 53.10215,38.94724 22.85846,-0.66303 33.60266,10.76169 20.70566,33.50595 0.12204,13.21432 -36.33992,30.30792 -84.27619,16.35227 -27.64416,-25.05391 -25.47629,-76.18836 9.9043,-91.64994 28.06318,4.05134 49.10846,20.59435 57.96765,38.13317 23.54001,-3.09102 35.43731,8.13133 23.21948,33.97083 1.52303,13.59899 -35.87282,34.97208 -88.65401,23.50803 -30.65568,-24.63434 -31.32125,-79.56905 6.44953,-98.40519 29.65231,2.09701 52.97975,18.11041 63.02634,36.74747 23.93167,-5.69613 36.99877,5.20911 25.85113,34.2348 3.02064,13.77733 -34.83434,39.69097 -92.40045,31.36321 -33.69303,-23.83016 -37.78901,-82.37398 2.05175,-105.05277 31.01029,-0.14221 56.70817,15.05195 68.21565,34.7705 24.01052,-8.44406 38.25639,2.02658 28.59416,34.28776 4.58563,13.73439 -33.21753,44.39954 -95.43894,39.86423 -36.71463,-22.63799 -44.82948,-84.53436 -3.29136,-111.50338 32.10526,-2.62466 60.21878,11.44359 73.47035,32.18454 23.75631,-11.29831 39.18126,-1.38235 31.43958,34.1181 6.1868,13.45903 -31.02261,49.03227 -97.6971,48.94979 -39.67793,-21.05905 -52.38317,-85.98478 -9.5731,-117.66298 32.90956,-5.30887 63.44132,7.31535 78.72343,28.97578 23.15192,-14.22018 39.74681,-4.98139 34.37591,33.7133 7.79168,12.9439 -28.25662,53.52388 -99.10761,58.55117 -42.54003,-19.09934 -60.38219,-86.66447 -16.77745,-123.43508 33.40006,-8.15294 66.3105,2.70297 83.90658,25.13558 22.18383,-17.16893 39.92924,-8.73173 37.38931,33.06058 9.3666,12.18602 -24.9338,57.81014 -99.60905,68.59279 -45.25821,-16.76946 -68.75087,-86.51855 -24.87894,-128.7225 33.55839,-11.11407 68.7662,-2.352 88.95085,20.66117 20.84245,-20.10203 39.70802,-12.59195 40.46354,32.14736 10.87758,11.18649 -21.07493,61.82859 -99.14635,78.99272 -47.79083,-14.0848 -77.40698,-85.49891 -33.84281,-133.42861 33.37116,-14.14876 70.75394,-7.8026 93.78721,15.55583 19.12238,-22.9754 39.06618,-16.51833 43.58015,30.9618 12.29052,9.95084 -16.70762,65.51917 -97.67164,89.66327 -50.09775,-11.06528 -86.26242,-83.56524 -43.62482,-137.45871 32.83002,-17.21282 72.22502,-13.59671 98.3468,9.82935 17.0229,-25.74385 37.99095,-20.46504 46.71862,29.49305 13.57196,8.48884 -11.86562,68.82499 -95.14475,100.51153 -52.14068,-7.73515 -95.22402,-80.68555 -54.1714,-140.72095 31.93177,-20.26187 73.137,-19.67765 102.56174,3.49794 14.54803,-28.36151 36.47389,-24.38449 49.8565,27.73177 14.68938,6.81448 -6.58861,71.69274 -91.53357,111.44015 -53.88424,-4.12284 -104.19485,-76.83696 -65.42013,-143.12748 30.67835,-23.2518 73.45404,-25.98461 106.36548,-3.41578 11.7068,-30.78225 34.51134,-28.2276 52.9697,25.67016 15.6118,4.94601 -0.92189,74.07367 -86.81477,122.34813 -55.29588,-0.26064 -113.07485,-72.0061 -77.29973,-144.59528 29.07675,-26.13915 73.14711,-32.45344 109.69339,-10.88278 8.51333,-32.96032 32.10466,-31.94448 56.03256,23.30234 7.32371,8.98797 8.23399,35.58288 -2.67635,69.16057 -9.66055,21.61523 -34.54839,47.08778 -78.29758,63.97083 -34.77194,3.1324 -76.15609,-12.69488 -105.05151,-46.24327 -12.06691,-31.37768 -8.30704,-68.47059 15.3209,-98.80379 20.66402,-16.13887 47.10067,-22.10667 70.89892,-18.62708 12.94466,-3.95634 26.54909,-5.7366 41.58427,-0.2407 8.04762,-9.7536 19.05026,-9.79106 30.87469,-1.59888 7.73499,-5.48234 17.93005,-0.50303 28.14347,22.22358 8.16828,8.50267 11.19649,36.01506 2.42642,71.83331 -8.27672,22.89378 -32.09691,51.09335 -76.4324,71.8504 -35.53052,5.64129 -79.56116,-7.91229 -111.91721,-40.93557 -14.49136,-31.50321 -13.16502,-70.14519 9.29187,-103.47655 19.95676,-18.08253 46.88629,-26.33274 71.99759,-24.51979 12.81553,-4.98684 26.60627,-7.68878 42.67805,-2.80974 7.19207,-10.59531 18.46743,-11.25382 31.37349,-3.39372 7.29909,-6.31578 18.11014,-1.93524 30.52502,21.02949 8.97231,7.9237 14.26231,36.1835 7.90436,74.1179 -6.74906,24.06682 -29.22513,54.96778 -73.81979,79.77962 -36.0815,8.27793 -82.64128,-2.69188 -118.53717,-34.86415 -16.9953,-31.41345 -18.32142,-71.43191 2.64796,-107.76297 19.05455,-19.99771 46.28112,-30.63879 72.60008,-30.67175 12.58795,-6.02365 26.49914,-9.68961 43.61488,-5.54916 6.23904,-11.36901 17.75751,-12.68756 31.77128,-5.26668 6.76773,-7.12195 18.15697,-3.40732 32.87356,19.60333 9.72526,7.25518 17.40721,36.07583 13.72719,75.97388 -5.08701,25.11967 -25.94096,58.66986 -70.44376,87.69088 -36.41058,11.0237 -85.3508,2.94268 -124.83719,-28.03819 -19.55843,-31.09841 -23.7422,-72.29678 -4.58354,-111.59859 17.95911,-21.86462 45.27328,-34.98829 72.67473,-37.04052 12.25999,-7.05623 26.21999,-11.72323 44.3746,-8.44877 5.19368,-12.06369 16.9216,-14.08069 32.05979,-7.21289 6.14222,-7.89036 18.06516,-4.90614 35.16797,17.94388 10.41711,6.50242 20.60572,35.68192 19.86071,77.36321 -3.30141,26.03858 -22.25612,62.15895 -66.29415,95.51446 -36.5051,13.85865 -87.64577,8.96332 -130.74302,-20.47341 -22.15952,-30.55008 -29.39014,-72.70899 -12.36947,-114.92112 16.67409,-23.66371 43.85429,-39.34354 72.19356,-43.58053 11.83093,-8.07382 25.76285,-13.77291 44.93786,-11.49628 4.06233,-12.66879 15.96174,-15.42167 32.23083,-9.22673 5.42497,-8.61047 17.83057,-6.41793 37.38672,16.05174 11.03817,5.67189 23.83081,34.9928 26.2672,78.24745 -1.40363,26.81106 -18.18503,65.39698 -61.36711,103.18237 -36.35343,16.7612 -89.48182,15.33828 -136.17788,-12.1896 -24.77832,-29.7622 -35.22827,-72.64206 -20.67394,-117.67351 15.20477,-25.37534 42.01801,-43.66513 71.13061,-50.24294 11.30166,-9.06592 25.12447,-15.82192 45.28817,-14.67799 2.85268,-13.17347 14.8809,-16.69815 32.27535,-11.30151 4.6193,-9.27258 17.45061,-7.92935 39.50918,13.92942 11.58013,4.77072 27.05623,34.00556 32.90471,78.60068 0.59139,27.42507 -13.74902,68.34223 -55.66456,110.61604 -35.94842,19.70963 -90.82487,22.02991 -141.07514,-3.22213 -27.38849,-28.73073 -41.20716,-72.06935 -29.44628,-119.793 13.55913,-26.98207 39.7652,-47.91547 69.4697,-56.97768 10.67294,-10.02097 24.30041,-17.85112 45.40461,-17.97688 1.57295,-13.56947 13.68378,-17.90013 32.18755,-13.43011 3.73016,-9.86508 16.92365,-9.4238 41.51163,11.58163 12.03477,3.80731 30.25367,32.7162 39.72903,78.3911 2.66991,27.87065 -8.97005,70.95951 -49.1956,117.74585 -35.28245,22.68042 -91.63625,28.99866 -145.36133,6.39573 -29.96869,-27.45371 -47.28454,-70.97203 -38.63924,-121.22926 11.74596,-28.46556 37.09678,-52.05434 67.19344,-63.73133 9.94811,-10.92867 23.29122,-19.84288 45.27326,-21.37536 0.23295,-13.84739 12.37537,-19.01576 31.959,-15.60422 2.76315,-10.37892 16.25001,-10.88738 43.37348,9.0147 12.39495,2.79086 33.39495,31.12446 46.6926,77.59367 4.8165,28.13891 -3.87445,73.21395 -41.97553,124.49926 -34.35082,25.6496 -91.88303,36.20067 -148.96812,16.62111 -32.4956,-25.93129 -53.41296,-69.33393 -48.19763,-121.93295 9.77619,-29.80908 34.01847,-56.04248 64.29092,-70.44909 9.13116,-11.77863 22.09817,-21.77892 44.87978,-24.85385 -1.15664,-13.99915 10.96212,-20.0342 31.5828,-17.81479 1.72499,-10.80468 15.43128,-12.30513 45.07335,6.23703 12.65458,1.73128 36.4518,29.23269 53.74526,76.18742 7.01492,28.22244 1.50809,75.07287 -34.02619,130.80433 -33.15115,28.59272 -91.53604,43.58874 -151.83029,27.40462 -34.94574,-24.16583 -59.54321,-67.14317 -58.06123,-121.85938 7.66223,-30.99674 30.53951,-59.84072 60.75592,-77.0746 8.22721,-12.56085 20.7245,-23.64096 44.21154,-28.39119 -2.58424,-14.01778 9.45136,-20.94511 31.05241,-20.05199 0.62351,-11.13365 14.4706,-13.66213 46.59056,3.25903 12.80859,0.63923 39.39605,27.04586 60.83452,74.15552 9.24811,28.11541 7.14482,76.50623 -25.37595,136.59043 -31.68321,31.48502 -90.56998,51.1127 -153.88619,38.69058 -37.29589,-22.16179 -65.62481,-64.39227 -68.16559,-120.96861 5.41809,-32.0141 26.67282,-63.41083 56.58726,-83.55062 7.24247,-13.26593 19.17531,-25.41108 43.25775,-31.96486 -4.0374,-13.89725 7.85153,-21.73869 30.362,-22.30518 -0.5325,-11.35769 13.3726,-14.94371 47.90491,0.0929 12.853,-0.47419 42.19992,24.57147 67.906,71.48565 11.49857,27.81352 13.00009,77.48675 -16.05963,141.78874 -29.94911,34.30161 -88.96393,58.71966 -155.07837,50.41734 -39.52315,-19.92584 -71.60626,-61.07832 -78.44198,-119.22621 3.05907,-32.84787 22.43473,-66.71543 51.78867,-89.81926 6.18416,-13.88497 17.45743,-27.07173 42.00942,-35.55107 -5.50279,-13.6327 6.17209,-22.40583 29.50653,-24.56302 -1.73337,-11.46946 12.14338,-16.13553 48.99714,-3.24693 12.78502,-1.59737 44.83619,21.81961 74.90368,68.17015 13.74835,27.3142 19.03563,77.9903 -6.11837,146.33284 -27.95327,37.01772 -86.70145,66.35445 -155.35419,62.5175 -41.60507,-17.46671 -77.43554,-57.20301 -88.81813,-116.6034 0.60179,-33.48639 17.84513,-69.7185 46.36911,-95.82246 5.06042,-14.40989 15.57952,-28.60597 40.45965,-39.12498 -6.96657,-13.22053 4.42342,-22.93812 28.48168,-26.81344 -2.96851,-11.46253 10.79055,-17.22375 49.8489,-6.74474 12.60312,-2.71837 47.27851,18.80292 81.77047,64.20621 15.97927,26.61649 25.21086,77.99605 4.40056,150.15925 -25.70238,39.60892 -83.77091,73.96001 -154.6663,74.91843 -43.52005,-14.7953 -83.06049,-52.77278 -99.21853,-113.07755 -1.93606,-33.91947 12.92711,-72.38564 40.34256,-101.50246 3.88033,-14.83339 13.55201,-29.99768 38.60384,-42.6608 -8.4143,-12.65847 2.6166,-23.32813 27.2839,-29.04378 -4.22662,-11.33145 9.32305,-18.19523 50.44309,-10.3827 12.30704,-3.82506 49.50159,15.53639 88.44843,59.59591 18.17309,25.72114 31.4831,77.48669 15.44397,153.20798 -23.20537,42.05131 -80.16554,81.47775 -152.97306,87.5426 -45.24739,-11.92446 -88.42924,-47.79879 -109.56512,-108.63242 -4.53582,-34.13869 7.70705,-74.68433 33.72827,-106.80216 2.65367,-15.14909 11.3868,-31.23172 36.43933,-46.13212 -9.83109,-11.94553 0.76375,-23.56924 25.91079,-31.24078 -5.49558,-11.07177 7.7514,-19.03756 50.764,-14.14136 11.89765,-4.90532 51.48124,12.03735 94.87923,54.34634 20.31158,24.63067 37.80798,76.44873 26.95289,155.4232 -20.47337,44.32168 -75.88369,88.84796 -150.23909,100.30794 -46.76745,-8.86899 -93.49064,-42.29695 -119.7776,-103.2584 -7.17804,-34.13738 2.2143,-76.58431 26.55055,-111.66566 1.39099,-15.35163 9.09744,-32.29403 33.96601,-49.51192 -11.20175,-11.0823 -1.12245,-23.65597 24.36081,-33.39072 -6.76282,-10.68021 6.08715,-19.73933 50.7972,-17.9998 11.37732,-5.94698 53.19502,8.32537 101.00481,48.46977 22.37676,23.34922 44.13963,74.87249 38.8631,156.75347 -17.51967,46.39777 -70.92899,96.01037 -146.43577,113.12856 -48.06192,-5.64549 -98.19461,-36.28775 -129.77415,-96.95278 -9.84267,-33.91064 -3.51901,-78.05769 18.83875,-116.03864 0.10346,-15.43665 6.69888,-33.17181 31.18597,-52.77287 -12.51088,-10.07074 -3.02862,-23.58391 22.63358,-35.47949 -8.01525,-10.15471 4.34324,-20.29015 50.53011,-21.93555 10.74954,-6.93817 54.62195,4.42212 106.76745,41.98356 24.35105,21.88261 50.43123,72.75227 51.10535,157.15239 -14.35966,48.25856 -65.31034,102.90454 -141.54145,125.91519 -49.11389,-2.27232 -102.49262,-29.79631 -139.47192,-89.7199 -12.50921,-33.45556 -9.45808,-79.07935 10.62714,-119.86882 -1.19747,-15.40093 4.20727,-33.85369 28.10378,-55.88755 -13.74321,-8.91441 -4.94091,-23.34981 20.72978,-37.4926 -9.23928,-9.49443 2.5337,-20.68088 49.95182,-25.92495 10.01909,-7.86729 55.74295,0.35119 112.11048,34.91013 26.21738,20.2383 56.63516,70.08665 63.60575,156.57916 -11.0106,49.88423 -59.04201,109.47031 -135.54199,138.57568 -49.90807,1.23062 -106.33805,-22.85221 -148.78763,-81.57133 -15.15686,-32.77097 -15.56574,-79.62702 1.95484,-123.10633 -2.49966,-15.24246 1.64006,-34.32977 24.72643,-58.82859 -14.88346,-7.61836 -6.84504,-22.95169 18.65127,-39.41534 -10.42123,-8.69991 0.6735,-20.90362 49.05326,-29.94309 9.19204,-8.72321 56.54104,-3.8621 116.97861,27.27697 27.95945,18.42535 62.70354,66.87826 76.28635,154.99882 -7.49163,51.25646 -52.1435,115.64817 -128.43077,151.01578 -50.43092,4.84196 -109.6867,-15.48931 -157.63838,-72.52585 -17.76471,-31.85789 -21.80262,-79.68174 -7.13441,-125.70425 -3.79096,-14.96043 -0.98444,-34.59185 21.0633,-61.56893 -15.91664,-6.18921 -8.72633,-22.38885 16.40117,-41.23292 -11.54714,-7.77296 -1.22141,-20.95191 47.82744,-33.96402 8.27562,-9.49541 57.00141,-8.19075 121.31843,19.11657 29.56165,16.45425 68.58837,63.13394 89.06539,152.38264 -3.82362,52.35866 -44.63978,121.37997 -120.20935,163.13963 -50.67073,8.53907 -112.49696,-7.74558 -165.94183,-62.60952 -20.31202,-30.7191 -28.12766,-79.22776 -16.59257,-127.61896 -5.05897,-14.5552 -3.64697,-34.63338 17.12618,-64.08197 -16.82828,-4.63507 -10.57003,-21.66187 13.98381,-42.93044 -12.60317,-6.71683 -3.13439,-20.82082 46.26952,-37.96099 7.27813,-10.17405 57.11147,-12.60646 125.07867,10.46618 31.00947,14.337 74.24219,58.86486 101.858,148.70865 -0.029,53.17604 -36.56087,126.60918 -110.88713,174.8505 -50.61783,12.29819 -114.73041,0.33718 -173.61737,-51.85567 -22.77821,-29.35937 -34.49805,-78.25293 -26.36734,-128.8105 -6.2913,-14.02846 -6.32762,-34.44971 12.92931,-66.34187 -17.60435,-2.96562 -12.36124,-20.77276 11.40479,-44.4931 -13.57548,-5.53615 -5.04822,-20.507 44.37665,-41.90655 6.209,-10.75012 56.86125,-17.07963 128.21093,1.36779 32.28943,12.08686 79.61821,54.08632 114.57668,143.96179 3.86878,53.69571 -27.942,131.28139 -100.48202,186.05141 -50.26454,16.09463 -116.35196,8.71356 -180.58622,-40.3048 -25.14326,-27.78536 -40.86984,-76.74867 -36.40268,-129.24296 -7.47567,-13.38313 -9.00598,-34.03799 8.48931,-68.32372 -18.23171,-1.19193 -14.08518,-19.72482 8.67094,-45.90627 -14.45057,-4.23693 -6.9451,-20.00873 42.14851,-45.7727 5.07861,-11.21555 56.24317,-21.57975 130.66973,-8.13219 33.38928,9.71839 84.67079,48.81778 127.1318,138.13418 7.84444,53.90695 -18.82327,135.34482 -89.02009,196.64595 -49.60545,19.90293 -117.33035,17.33475 -186.77246,-28.00446 -27.38768,-26.00564 -47.19808,-74.71026 -46.63888,-128.88486 -8.60009,-12.62337 -11.66132,-33.39731 3.82489,-70.00364 -18.69795,0.67342 -15.72713,-18.52282 5.79048,-47.15561 -15.21535,-2.82658 -8.80708,-19.32602 39.58688,-49.53119 3.89821,-11.5633 55.25245,-26.07557 132.41323,-17.98307 34.29809,7.24718 89.35576,43.08267 139.43234,131.2254 11.87209,53.80115 -9.24957,138.75073 -76.53589,206.53886 -48.63733,23.69705 -117.63829,26.14901 -192.10335,-15.0091 -29.49286,-24.03048 -53.43718,-72.13675 -57.0132,-127.7094 -9.6528,-11.75456 -14.27268,-32.52878 -1.04277,-71.35922 -18.9918,2.61658 -17.27285,-17.17277 2.77277,-48.22715 -15.85718,-1.31387 -10.61595,-18.46065 36.69607,-53.15357 2.6799,-11.78745 53.88693,-30.53525 133.40337,-28.13022 35.00639,4.68989 93.63084,36.90849 151.38635,123.24273 15.9249,53.37198 0.72977,141.45369 -63.0722,215.63664 -47.35918,27.45067 -117.25285,35.10193 -196.51013,-1.37968 -31.44107,-21.87191 -59.54129,-69.03119 -67.45993,-125.69491 -10.62269,-10.7833 -16.81927,-31.4354 -6.09064,-72.36942 -19.10307,4.62237 -18.70833,-15.68219 -0.3714,-49.10747 -16.36418,0.29112 -12.35356,-17.41615 33.4827,-56.61153 6.72375,-10.12891 34.37747,-24.97817 77.59055,-35.84294 23.76735,-5.41199 64.65218,-3.83919 116.76285,12.78299 29.95037,13.77596 66.89286,43.85137 102.15459,98.7457 15.44756,40.27552 18.83991,97.95019 0.90221,159.59797 -22.27051,39.00195 -62.51476,75.92386 -118.12003,98.7131 -37.84396,6.79991 -82.88635,1.9555 -131.3907,-21.64607 -26.1366,-17.36469 -50.65353,-46.79588 -66.86095,-83.67687 -9.32367,-17.44365 -15.48428,-41.20591 -15.90284,-69.90404 -6.49604,-6.95202 -10.10019,-19.59173 -6.44083,-42.25895 -9.20399,-1.47271 -10.25953,-13.92205 -4.00379,-33.28771 -8.30303,-2.03454 -7.86477,-13.5657 3.54853,-33.9001 -5.09832,-4.73556 1.16753,-18.53599 26.78092,-42.47296 5.91062,-10.64763 32.93389,-27.85137 76.24123,-42.20891 23.56509,-7.23704 65.23641,-8.70508 119.62277,4.3623 31.26197,11.70089 71.0067,39.50251 111.01547,92.89306 18.55289,39.60494 26.22611,98.02916 12.40313,162.20981 -19.73965,41.08195 -57.96712,81.53983 -113.01531,108.82071 -37.75766,9.62255 -83.85007,8.03318 -135.10549,-12.43759 -27.66618,-15.5713 -54.82953,-43.66061 -74.17352,-80.10917 -10.69625,-16.85194 -18.72337,-40.53803 -21.28048,-69.86229 -7.0535,-6.3586 -11.59453,-18.87894 -9.46705,-42.39544 -9.40263,-0.56484 -11.31361,-13.15843 -6.2636,-33.4873 -8.57115,-1.23472 -8.92488,-12.95667 1.28657,-34.6201 -5.60004,-4.21441 -0.27167,-18.65163 24.11353,-45.05883 5.05192,-11.09548 31.24618,-30.6411 74.36995,-48.56569 23.21479,-9.05916 65.44249,-13.67552 121.86431,-4.40779 32.42092,9.50366 74.82872,34.77766 119.55482,86.26318 21.63913,38.68458 33.7228,97.53602 24.29016,163.9779 -17.01753,42.99128 -52.9207,86.88505 -107.05144,118.69922 -37.45,12.46784 -84.35127,14.26356 -138.16167,-2.79872 -29.06473,-13.64148 -58.80889,-40.15649 -81.31574,-75.91296 -12.02844,-16.14567 -21.94397,-39.60722 -26.73538,-69.40151 -7.55786,-5.71332 -13.038,-18.04227 -12.5485,-42.31049 -9.51762,0.37132 -12.31139,-12.30856 -8.57442,-33.53314 -8.767424,-0.40052 -9.939068,-12.25822 -1.06203,-35.18763 -6.054994,-3.6384 -1.72524,-18.64661 21.20847,-47.4765 4.15416,-11.46814 29.31929,-33.32645 71.97101,-54.87052 22.71608,-10.86586 65.25846,-18.72037 123.45182,-13.48103 33.41608,7.19621 78.32537,29.69727 127.70577,78.87264 24.68558,37.51401 41.28467,96.45526 36.50031,164.85991 -14.11627,44.71273 -47.39175,91.91587 -100.23553,128.27625 -36.91731,15.31763 -84.37276,20.61014 -140.51604,7.22224 -30.32012,-11.58546 -62.55941,-36.29625 -88.23436,-71.09453 -13.31029,-15.32789 -25.1242,-38.41291 -32.23451,-68.51032 -8.00389,-5.02089 -14.41964,-17.08546 -15.66856,-41.99663 -9.545354,1.32833 -13.245421,-11.37661 -10.925804,-33.41879 -8.88781,0.4618 -10.899405,-11.4738 -3.486845,-35.59394 -6.457324,-3.01142 -3.182547,-18.51923 18.076409,-49.70484 3.22429,-11.76197 27.16001,-35.8869 69.0424,-61.07984 22.06957,-12.64462 64.67475,-23.80828 124.35303,-22.80792 34.23741,4.79147 81.46461,24.28473 135.40219,70.74373 27.67143,36.09453 48.86484,94.77505 48.96655,164.81829 -11.04954,46.22995 -41.40023,96.58958 -92.58066,137.4792 -36.15756,18.15345 -83.9004,27.03486 -142.12905,17.57314 -31.42105,-9.41457 -66.0498,-32.09535 -94.87612,-65.66465 -14.53217,-14.40258 -28.24211,-36.95644 -37.74365,-67.17996 -8.3869,-4.28662 -15.72888,-16.01329 -18.80985,-41.44785 -9.482864,2.29834 -14.108537,-10.36737 -13.306576,-33.13854 -8.928804,1.34562 -11.798254,-10.60752 -5.976702,-35.83086 -6.801492,-2.33805 -4.632748,-18.26873 14.729852,-51.72342 2.269616,-11.974 24.776916,-38.30234 65.585626,-67.14955 21.27701,-14.38294 63.68438,-28.90695 124.53954,-32.33581 34.87585,2.30326 84.21617,18.56626 142.57924,61.90437 30.57585,34.42922 56.41498,92.48733 61.61806,163.82054 -7.83245,47.52775 -34.96985,100.86488 -84.10604,146.23597 -35.17027,20.95658 -82.92313,33.49812 -142.96511,28.19802 -32.35722,-7.14113 -69.24984,-27.572 -101.18826,-59.63859 -15.68474,-13.37453 -31.27575,-35.24097 -43.22752,-65.4045 -8.70257,-3.51622 -16.95545,-14.83147 -21.954275,-40.65935 -9.327875,3.27311 -14.893948,-9.2863 -15.704954,-32.68742 -8.887475,2.24385 -12.628292,-9.66422 -8.51962,-35.89106 -7.082332,-1.62344 -6.064884,-17.89545 11.183193,-53.51274 1.297656,-12.10188 22.180156,-40.55332 61.605686,-73.03519 20.3412,-16.06847 62.28306,-33.98327 123.98707,-42.009299 35.32355,-0.253808 86.55179,12.570719 149.17376,52.387989 33.37819,32.52287 63.88579,89.58795 74.38071,161.83976 -4.48144,48.59202 -28.12792,104.70204 -74.83702,154.47523 -33.95649,23.70815 -81.43313,39.95927 -142.99294,39.03752 -33.11932,-4.7784 -72.13067,-22.74706 -107.11872,-53.03613 -16.75911,-12.24936 -34.2033,-33.2715 -48.65005,-63.18069 -8.94718,-2.71585 -18.08964,-13.54664 -25.083194,-39.6278 -9.078862,4.24417 -15.595295,-8.13949 -18.108585,-32.06134 -8.761502,3.14907 -13.382562,-8.64945 -11.102885,-35.76809 -7.295137,-0.87323 -7.468052,-17.40057 7.452397,-55.05414 0.316222,-12.14406 19.381753,-42.6212 57.111507,-78.69251 19.26603,-17.68905 60.46916,-39.00362 122.67558,-51.770498 35.57382,-2.864403 88.44542,6.329498 155.12476,42.233508 36.05813,30.38206 71.22724,86.07685 87.17746,158.85478 -1.01426,49.41 -20.90524,108.06331 -64.805,162.12714 -32.51888,26.38931 -79.42588,46.37665 -142.18585,50.02914 C 255.68053,507.66101 214.71471,492.35755 176.763,464.12 c -17.7469,-11.03343 -37.0033,-31.0549 -53.97458,-60.50835 -9.11757,-1.8921 -19.12225,-12.16632 -28.177506,-38.35126"
       id="path3481"
       inkscape:connector-curvature="0" />
  </g>
</svg>
