<?xml version="1.0" encoding="UTF-8" standalone="no"?>
<!-- Created with Inkscape (http://www.inkscape.org/) -->

<svg
   xmlns:dc="http://purl.org/dc/elements/1.1/"
   xmlns:cc="http://creativecommons.org/ns#"
   xmlns:rdf="http://www.w3.org/1999/02/22-rdf-syntax-ns#"
   xmlns:svg="http://www.w3.org/2000/svg"
   xmlns="http://www.w3.org/2000/svg"
   xmlns:sodipodi="http://sodipodi.sourceforge.net/DTD/sodipodi-0.dtd"
   xmlns:inkscape="http://www.inkscape.org/namespaces/inkscape"
   sodipodi:docname="spiral019.svg"
   inkscape:version="0.48.2 r9819"
   version="1.1"
   id="svg3783"
   height="1052.3622047"
   width="744.09448819">
  <sodipodi:namedview
     id="base"
     pagecolor="#ffffff"
     bordercolor="#666666"
     borderopacity="1.0"
     inkscape:pageopacity="0.0"
     inkscape:pageshadow="2"
     inkscape:zoom="0.35"
     inkscape:cx="176.90095"
     inkscape:cy="983.8931"
     inkscape:document-units="px"
     inkscape:current-layer="layer1"
     showgrid="false"
     inkscape:window-width="1084"
     inkscape:window-height="748"
     inkscape:window-x="82"
     inkscape:window-y="6"
     inkscape:window-maximized="0" />
  <defs
     id="defs3785" />
  <metadata
     id="metadata3788">
    <rdf:RDF>
      <cc:Work
         rdf:about="">
        <dc:format>image/svg+xml</dc:format>
        <dc:type
           rdf:resource="http://purl.org/dc/dcmitype/StillImage" />
        <dc:title></dc:title>
      </cc:Work>
    </rdf:RDF>
  </metadata>
  <g
     inkscape:label="Layer 1"
     inkscape:groupmode="layer"
     id="layer1">
    <rect
       style="fill:none;stroke:#000000;stroke-width:0.91610378;stroke-opacity:1"
       id="rect4319"
       width="516.12524"
       height="779.49591"
       x="7.8454075"
       y="12.284647" />
    <flowRoot
       xml:space="preserve"
       id="flowRoot3475"
       style="fill:black;stroke:none;stroke-opacity:1;stroke-width:1px;stroke-linejoin:miter;stroke-linecap:butt;fill-opacity:1;font-family:Sans;font-style:normal;font-weight:normal;font-size:40px;line-height:125%;letter-spacing:0px;word-spacing:0px"><flowRegion
         id="flowRegion3477"><rect
           id="rect3479"
           width="474.7717"
           height="76.771591"
           x="40.406101"
           y="840.23016" /></flowRegion><flowPara
         id="flowPara3481" /></flowRoot>    <path
       id="path3260"
       d="m 292.14665,65.543752 c -1.95577,0.564233 -4.71804,1.016743 -6.0008,1.036131 -1.74943,0.06034 -0.64294,-0.720635 1.9229,-1.539999 3.25202,-0.933686 7.55949,-1.403062 9.46065,-1.170908 2.28499,0.343888 0.55328,1.236443 -3.30378,2.029987 -4.58563,1.15857 -10.39287,2.209007 -12.84787,2.246715 -2.89743,0.149212 -0.65826,-1.490674 4.47835,-3.275475 5.83208,-1.670866 13.27732,-2.303914 16.38215,-1.701961 3.39924,0.817743 0.44856,2.105584 -5.98066,3.144249 -7.19874,1.709912 -16.07105,3.505378 -19.65702,3.659529 -4.06802,0.390449 -0.71076,-2.24566 6.99788,-5.201793 8.39461,-2.46612 19.01242,-3.139412 23.3232,-2.055229 4.50193,1.428471 0.31395,2.975817 -8.67953,4.066472 -9.81342,2.22213 -21.73382,4.909056 -26.4238,5.279847 -5.24319,0.780523 -0.79524,-2.982147 9.47803,-7.31839 10.94479,-3.322704 24.7563,-3.915625 30.27962,-2.237195 5.58393,2.175402 0.14729,3.843888 -11.39711,4.797373 -12.43159,2.69902 -27.37546,6.426414 -33.14393,7.112661 -6.41633,1.319026 -0.90983,-3.697161 11.91557,-9.624491 13.48297,-4.243909 30.50493,-4.639929 37.24734,-2.254525 6.64015,3.056469 -0.0522,4.706647 -14.13034,5.33783 -15.05329,3.14452 -32.99223,8.064256 -39.81301,9.162719 -7.5827,2.005789 -1.05357,-4.38782 14.30704,-12.119006 16.00869,-5.233004 36.25558,-5.320038 44.22237,-2.114112 7.66675,4.069017 -0.28481,5.560979 -16.87615,5.68895 -17.67814,3.56264 -38.58098,9.829397 -46.42664,11.434512 -8.73825,2.840561 -1.2255,-5.051364 16.64911,-14.800674 18.5211,-6.293143 42.00582,-5.963715 51.20064,-1.822985 8.66022,5.210104 -0.55045,6.403822 -19.63157,5.852081 -20.30561,3.957426 -44.13855,11.728525 -52.9803,13.932228 -9.87908,3.822788 -1.42479,-5.685054 18.9384,-17.667984 21.0193,-7.427422 47.75335,-6.578867 58.17821,-1.388369 9.61725,6.476485 -0.84919,7.232102 -22.39367,5.828744 -22.9352,4.333014 -49.66203,13.768196 -59.46962,16.6598 -11.00125,4.951644 -1.65045,-6.286244 21.17153,-20.719156 23.50227,-8.638818 53.49612,-7.173359 65.15114,-0.817653 10.53476,7.864676 -1.18074,8.042834 -25.15952,5.620687 -25.56637,4.693589 -55.14831,15.954786 -65.89009,19.620839 -12.10105,6.22609 -1.90155,-6.852325 23.34502,-23.952142 25.9691,-9.930248 59.23218,-7.755153 72.11569,-0.11836 11.40969,9.370916 -1.54496,8.83298 -27.92635,5.229801 -28.19854,5.043396 -60.59437,18.294599 -72.23725,22.818716 -13.17472,7.644754 -2.17709,-7.380846 25.45558,-27.36469 28.41853,-11.304503 64.95938,-8.332173 79.06792,0.701776 12.23919,10.991261 -1.94149,9.599571 -30.69139,4.658248 -30.83115,5.386643 -65.99709,20.79362 -78.50663,26.25646 -14.21852,9.20589 -2.476,-7.869299 27.49985,-30.95432 30.84945,-12.764251 70.67591,-8.912282 86.00416,1.634997 13.02038,12.721569 -2.36999,10.339694 -33.45205,3.908318 -33.4636,5.727671 -71.35324,23.457686 -84.69367,29.936815 -15.22885,10.90763 -2.79712,-8.315405 29.47439,-34.718248 33.26065,-14.312072 76.37989,-9.503404 92.92064,2.673341 13.75065,14.557404 -2.82997,11.050453 -36.20559,2.98252 -36.09549,6.07081 -76.65966,26.292427 -90.79396,33.862177 -16.20202,12.74768 -3.13932,-8.71687 31.37592,-38.653465 35.65095,-15.950441 82.06944,-10.113385 99.8138,3.808779 14.42735,16.494227 -3.32097,11.729 -38.94966,1.883503 -38.72613,6.420404 -81.91302,29.303263 -96.80295,38.034713 -17.13439,14.72347 -3.50138,-9.07153 33.20114,-42.75676 38.01897,-17.68167 87.74277,-10.750011 106.68001,5.033169 15.048,18.527218 -3.84245,12.372516 -41.68179,0.614097 -41.355,6.780862 -87.10995,32.495354 -102.71614,42.456174 -18.02246,16.83221 -3.88195,-9.37735 34.94671,-47.024596 40.36347,-19.508025 93.3981,-11.421102 113.51573,6.338248 15.6103,20.65149 -4.39372,12.97832 -44.39956,-0.82267 -43.98157,7.156592 -92.2471,35.873638 -108.52911,47.128098 -18.86268,19.07066 -4.27975,-9.63235 36.60941,-51.453277 42.68307,-21.431604 99.03371,-12.134341 120.31756,7.71571 16.11192,22.861877 -4.97415,13.543676 -47.10079,-2.423667 -46.6053,7.552038 -97.32094,39.442804 -114.23732,52.051544 -19.65163,21.43552 -4.69339,-9.83467 38.18606,-56.038752 44.97628,-23.454373 104.64775,-12.897368 127.08198,9.157157 16.55076,25.153075 -5.58298,14.066007 -49.78324,-4.185562 -49.22559,7.971624 -102.32799,43.207227 -119.83637,57.227377 -20.38592,23.92307 -5.12145,-9.98254 39.67343,-60.776856 47.24174,-25.578188 110.23863,-13.717736 133.80575,10.654217 16.92478,27.519629 -6.21948,14.542739 -52.44495,-6.104913 -51.84185,8.419791 -107.26461,47.171092 -125.32172,62.656092 -21.06221,26.52921 -5.56245,-10.0744 41.06843,-65.663119 49.47796,-27.804795 115.80462,-14.602958 140.48552,12.198323 17.23211,29.955966 -6.88282,14.971376 -55.08383,-8.178103 -54.45355,8.900995 -112.12723,51.338269 -130.68903,68.337799 -21.67728,29.24977 -6.01486,-10.10868 42.36798,-70.692828 51.68338,-30.135738 121.34404,-15.560378 147.11809,13.780994 17.47096,32.456384 -7.57207,15.349554 -57.69804,-10.4014 -57.06003,9.41974 -116.91214,55.712314 -135.93389,74.272344 -22.22792,32.08026 -6.47713,-10.08403 43.56914,-75.861064 53.85644,-32.572501 126.85516,-16.597307 153.70026,15.393722 17.63971,35.014992 -8.28639,15.674922 -60.28581,-12.770982 -59.66064,9.980436 -121.61554,60.296514 -141.05183,80.459154 -22.71107,35.01577 -6.94773,-9.99917 44.66882,-81.162613 55.99554,-35.116404 132.33636,-17.720948 160.22897,17.027894 17.7368,37.625819 -9.02476,15.945229 -62.84542,-15.282813 -62.25476,10.587538 -126.23373,65.093892 -146.03862,86.897412 -23.12371,38.05128 -7.42491,-9.85305 45.66426,-86.592132 58.09909,-37.768628 137.786,-18.938347 166.70124,18.674992 17.76083,40.28278 -9.78628,16.15831 -65.37532,-17.932836 -64.84176,11.245479 -130.76285,70.107056 -150.8899,93.585836 -23.46301,41.18147 -7.90712,-9.64457 46.55259,-92.143959 60.16539,-40.530184 143.2024,-20.256455 173.11396,20.326449 17.71064,42.97975 -10.56978,16.31215 -67.87397,-20.716821 -67.42087,11.958671 -135.19899,75.338411 -155.6014,100.522881 -23.72609,44.40079 -8.39262,-9.37295 47.33111,-97.812255 62.1927,-43.401935 148.5839,-21.682084 179.4643,21.973775 17.58506,45.71044 -11.37426,16.40471 -70.34005,-23.630498 C 260.36181,99.640669 190.81494,167.69911 170.18433,194.61584 146.27404,242.31924 161.30464,185.57835 218.1815,91.024803 282.36084,44.640165 372.11028,67.802895 403.93091,114.63332 421.31399,163.1018 391.73227,131.0674 331.15864,87.963882 258.60609,101.53228 187.38197,174.42728 166.57053,203.09889 142.5575,254.18201 157.20393,194.46125 215.11865,93.62497 281.2422,44.146061 374.35412,68.742447 407.08521,118.8471 424.1891,170.09464 394.04345,135.24562 331.91574,89.017956 256.81217,103.49159 184.00546,181.378 163.06075,211.82312 c -24.03186,54.53389 -9.85159,-8.17294 48.98155,-115.45447 68.02352,-52.685134 164.50223,-26.670261 198.11295,26.80637 16.74677,54.0411 -13.90245,16.29627 -77.53054,-33.10513 -77.64356,15.45152 -151.93506,98.48097 -172.96542,130.71425 -23.96444,58.04907 -10.33294,-7.64306 49.29504,-121.525995 69.87739,-56.003571 169.72737,-28.591386 204.18597,28.352805 16.31117,56.84277 -14.77958,16.1258 -79.85458,-36.492618 -80.1717,16.506298 -155.84694,104.826758 -176.91535,138.858978 -23.80857,61.622 -10.8088,-7.04796 49.48629,-127.68157 71.68342,-59.434432 174.90919,-30.652043 210.18305,29.85324 15.79664,59.64588 -15.67193,15.88551 -82.14073,-39.987002 C 251.21191,109.80419 174.2571,203.55969 153.19816,239.39771 c -23.5621,65.24563 -11.27733,-6.38776 49.55317,-133.9142 73.43965,-62.977592 180.04596,-32.858038 216.10162,31.29956 15.2029,62.44395 -16.57823,15.57406 -84.38821,-43.583464 C 249.2761,112.06296 171.14897,211.39337 150.14683,249.04006 126.92368,317.9531 138.41004,243.37764 199.64035,108.82354 274.78457,42.190679 384.77628,73.608341 421.57959,141.50721 436.1094,206.73767 404.08228,156.69737 334.98317,94.230038 247.30771,114.40395 168.11863,219.44459 147.22042,258.899 124.43051,331.51563 135.03506,254.0265 196.52583,112.31781 273.32108,41.917923 386.70318,74.588778 424.2194,146.3155 437.9967,214.31426 405.79142,161.04805 335.45452,95.252226 245.30809,116.83006 165.17046,227.71135 144.42294,268.96873 122.16222,345.31791 131.80175,264.9504 193.40987,115.96826 271.8007,41.690079 388.57831,75.563233 426.77208,151.20199 439.71769,221.94436 407.40322,165.40221 335.87901,96.265163 243.27855,119.34429 162.3088,236.19155 141.75832,279.24325 c -21.63406,80.10292 -13.04248,-3.1007 48.53636,-159.46661 79.92896,-78.266997 200.10736,-43.248331 238.94294,36.3842 12.0349,73.45469 -20.31878,13.59205 -92.98076,-58.892934 -95.03639,24.681704 -176.7189,147.614774 -197.02643,192.448414 -20.90862,83.87001 -13.44747,-2.12036 47.95207,-165.97168 81.4077,-82.365464 204.99226,-46.263939 244.43348,37.4415 11.04567,76.1293 -21.27643,12.90729 -95.0277,-62.926509 -97.45295,26.389329 -179.72597,155.522319 -199.74527,202.121809 -20.08315,87.64257 -13.83431,-1.07823 47.23257,-172.50751 82.82515,-86.572615 209.82126,-49.456766 249.83176,38.39829 9.97843,78.75963 -22.24061,12.14506 -97.03381,-67.032653 -99.8489,28.205743 -182.58735,163.646643 -202.27376,211.992303 -19.15664,91.41243 -14.20122,0.0244 46.37645,-179.06588 84.17934,-90.887241 214.59253,-52.83138 255.13568,39.24729 8.83384,81.33937 -23.21002,11.30469 -98.99909,-71.20625 -102.22285,30.13454 -185.29895,171.98509 -204.60849,222.05351 -18.12822,95.17147 -14.54647,1.18653 45.38249,-185.63835 85.46823,-95.307918 219.30405,-56.392201 260.34319,39.98149 7.61276,83.86219 -24.18342,10.38567 -100.92365,-75.44229 -104.57344,32.17928 -187.85667,180.53444 -206.74621,232.29891 -16.99718,98.91121 -14.86825,2.4064 44.24958,-192.21648 86.68993,-99.833136 223.95386,-60.143443 265.45237,40.59409 6.3161,86.32171 -25.15961,9.38742 -102.80771,-79.73579 -106.89918,34.34339 -190.25647,189.29128 -208.68371,242.72146 -15.76301,102.62331 -15.16489,3.68262 42.9767,-198.79146 87.84248,-104.461238 228.54003,-64.089172 270.4613,41.07827 4.94501,88.71185 -26.13737,8.30959 -104.6515,-84.08159 -109.1986,36.63015 -192.4944,198.25162 -210.41795,253.31388 -14.42534,106.29923 -15.43469,5.01339 41.56307,-205.35462 88.92378,-109.190247 233.06041,-68.233144 275.36809,41.42772 3.50065,91.02649 -27.11544,7.15192 -106.45555,-88.47478 -111.47001,39.04281 -194.56638,207.41125 -211.94587,264.06872 -12.98398,109.9303 -15.67594,6.39674 40.00797,-211.89708 89.93201,-114.018167 237.51298,-72.578938 280.17099,41.63607 1.98442,93.25961 -28.09267,5.91422 -108.22025,-92.91025 -113.71184,41.58437 -196.46852,216.76536 -213.26467,274.97796 -11.43894,113.50805 -15.88705,7.83072 38.31087,-218.40978 90.86519,-118.942766 241.89561,-77.129926 284.86826,41.69732 0.39774,95.4054 -29.0679,4.59644 -109.94626,-97.38302 -115.9223,44.25783 -198.19691,226.30901 -214.37155,286.0336 -9.79039,117.02348 -16.06639,9.31292 36.47134,-224.8837 91.72138,-123.961686 246.20613,-81.889318 289.45825,41.60562 -1.25776,97.45809 -30.04002,3.19847 -111.63427,-101.88812 C 219.42,153.65431 137.77193,342.62491 122.2558,403.81535 c -8.03868,120.46808 -16.21245,10.84123 34.48913,-231.30966 92.4986,-129.072263 250.44231,-86.859931 293.93928,41.35545 -2.98035,99.41205 -31.00787,1.72051 -113.28502,-106.42053 -120.24199,50.01141 -201.11714,245.94225 -215.93906,308.54952 -6.18437,123.8329 -16.32366,12.41303 32.3642,-237.67844 93.19504,-134.271845 254.60194,-92.044513 298.30983,40.94143 -4.76823,101.26184 -31.97045,0.16269 -114.89941,-110.97537 -122.34745,53.09672 -202.30151,256.01976 -216.3948,319.99211 -4.22817,127.10926 -16.39861,14.02568 30.09653,-243.9807 C 244.74524,44.731663 409.61922,86.843603 453.50485,224.6476 446.88547,327.64975 420.57816,223.17292 337.02649,109.09989 212.61251,165.42407 133.72935,375.36228 120.39775,440.64532 118.22674,570.93361 103.96188,456.32174 148.08412,190.43818 242.42204,45.512097 410.76649,87.373001 454.79754,230.03993 446.26576,334.66777 420.92192,226.84866 336.77458,109.9072 210.33504,169.60326 132.67416,386.57038 120.13586,453.10721 120.12196,586.46844 103.7018,470.46948 145.26996,196.75884 240.05063,46.38444 411.86842,87.85337 456.01352,235.42553 445.5103,341.55948 421.19725,230.43888 336.47929,110.69996 208.05728,173.91427 131.77132,397.91465 120.0565,465.64588 122.29815,601.96521 103.66461,484.72623 142.49673,203.25097 237.632,47.351961 412.9253,88.282814 457.15419,240.8 444.62274,348.31571 421.40642,233.93973 336.14072,111.47852 205.78152,178.35936 131.02442,409.38761 120.16175,478.25176 124.75612,617.40557 103.85362,499.07893 139.7672,209.91439 235.16711,48.418003 413.93751,88.65961 458.22098,246.15909 443.60697,354.92757 421.5517,237.3475 335.75914,112.24332 203.51024,182.94058 130.43697,420.98154 120.45354,490.91477 127.49606,632.77095 104.27193,513.51448 137.08415,216.7486 232.65703,49.585889 414.90533,88.982033 459.2154,251.49859 442.46692,361.38648 421.63543,240.6587 335.33466,112.99488 201.24595,187.6599 130.01233,432.68838 120.93364,503.62498 130.51789,648.04267 104.92243,528.01941 134.45038,223.75308 230.10286,50.858985 415.829,89.248488 460.13902,256.81457 441.2068,367.68431 421.65988,243.87004 334.86749,113.73377 198.99119,192.51923 129.75377,444.49981 121.60367,516.37225 133.82124,663.20212 105.80782,542.57997 131.86872,230.92708 227.50581,52.240639 416.70876,89.457466 460.99349,262.10306 439.83089,373.81323 421.62738,246.97843 334.35782,114.46068 196.74859,197.5203 129.66446,456.40724 122.46515,529.14617 c 14.94019,149.0844 -15.53462,28.03604 6.8768,-290.87635 C 224.86706,53.734221 417.54481,89.607563 461.78049,267.36038 438.34369,379.76573 421.54022,249.98099 333.80581,115.17636 194.52084,202.66474 129.74741,468.40182 123.5194,541.93633 141.2691,693.10913 108.2928,571.81196 126.87297,245.78016 222.18795,55.343101 418.33739,89.697431 462.50177,272.58299 436.74975,385.53479 421.4007,252.87508 333.21161,115.88163 192.31067,207.954 130.00552,480.47435 124.76756,554.7321 145.41112,707.81919 109.89658,586.45466 124.4646,253.45699 219.4698,57.070626 419.08661,89.72588 463.15911,277.76737 435.05382,391.1137 421.21107,255.65822 332.57541,116.57742 190.12083,213.38948 130.44155,492.61539 126.21066,567.52291 c 23.61895,154.81906 -14.46702,33.5728 -4.091,-306.22393 C 216.71408,58.920152 419.79265,89.691756 463.75437,282.91027 433.26071,396.4962 420.97356,258.3281 331.89742,117.26474 187.95419,218.97238 131.05814,504.81541 127.84953,580.29779 154.52246,736.65881 113.83548,615.72037 119.84106,269.30457 213.92219,60.895024 420.45555,89.594029 464.28942,288.00854 431.37542,401.67641 420.69039,260.88268 331.17774,117.94461 185.81362,224.70371 131.85775,517.06446 129.68485,593.04595 159.48721,750.75105 116.17332,630.31347 117.63161,277.47211 211.09574,62.998575 421.07543,89.431714 464.76617,293.05923 429.40298,406.64885 420.36366,263.32006 330.4166,118.61823 183.70211,230.58433 132.8427,529.35237 131.71714,605.75646 164.72106,764.60017 118.75817,644.85988 115.4942,285.7998 208.23626,65.234098 421.6523,89.203956 465.18659,298.05942 427.34856,411.40858 419.99553,265.63854 329.61414,119.28679 181.6226,236.61502 134.01519,541.66878 133.94675,618.41819 170.22089,778.18784 121.59078,659.34437 113.43167,294.28566 205.34551,67.604835 422.18617,88.909972 465.5527,303.00647 425.21737,415.95099 419.58802,267.83662 328.77059,119.9516 179.5781,242.79635 135.37719,554.00314 136.37384,631.02008 175.98321,791.49578 124.67158,673.75133 111.44685,302.92748 202.4252,70.114028 422.67703,88.549077 465.86646,307.89788 423.01477,420.27195 419.14313,269.91301 327.88607,120.61405 177.57171,249.12868 136.93054,566.34458 138.99842,643.55089 182.00418,804.50586 128.00081,688.06523 109.5426,311.72293 199.47711,72.764893 423.1248,88.12066 466.12995,312.73117 420.7461,424.36779 418.66277,271.86654 326.96081,121.27557 175.60654,255.61219 138.67693,578.68218 141.82032,655.99945 188.27964,817.20017 131.57842,702.27049 107.72172,320.66954 196.50316,75.560596 423.52935,87.62423 466.34523,317.5042 418.41682,428.23531 418.14876,273.69626 325.99498,121.93771 173.68574,262.24686 140.61782,591.00465 144.83917,668.35449 194.80512,829.56099 135.40401,716.3512 105.98703,329.76468 193.50519,78.504249 423.89062,87.059358 466.51442,322.21479 416.03244,431.87175 417.60288,275.40139 324.98879,122.60204 171.8125,269.03257 142.75451,603.30065 148.05447,680.60468 201.57576,841.57086 139.47704,730.2917 104.34134,339.00542 190.48529,81.598853 424.20841,86.425712 466.63957,326.86104 413.59845,435.27486 417.02677,276.98135 323.94242,123.27025 169.99001,275.96889 145.08818,615.55874 151.4655,692.7388 c 5.74756,26.17342 8.74982,42.01219 8.24566,47.20441"
       style="fill:none;stroke:#000000;stroke-width:0.85662872px;stroke-linecap:butt;stroke-linejoin:miter;stroke-opacity:1"
       inkscape:connector-curvature="0" />
  </g>
</svg>
