<?xml version="1.0" encoding="UTF-8" standalone="no"?>
<!-- Created with Inkscape (http://www.inkscape.org/) -->

<svg
   xmlns:dc="http://purl.org/dc/elements/1.1/"
   xmlns:cc="http://creativecommons.org/ns#"
   xmlns:rdf="http://www.w3.org/1999/02/22-rdf-syntax-ns#"
   xmlns:svg="http://www.w3.org/2000/svg"
   xmlns="http://www.w3.org/2000/svg"
   xmlns:sodipodi="http://sodipodi.sourceforge.net/DTD/sodipodi-0.dtd"
   xmlns:inkscape="http://www.inkscape.org/namespaces/inkscape"
   sodipodi:docname="spiral049.svg"
   inkscape:version="0.48.2 r9819"
   version="1.1"
   id="svg3783"
   height="1052.3622047"
   width="744.09448819">
  <sodipodi:namedview
     id="base"
     pagecolor="#ffffff"
     bordercolor="#666666"
     borderopacity="1.0"
     inkscape:pageopacity="0.0"
     inkscape:pageshadow="2"
     inkscape:zoom="0.24748737"
     inkscape:cx="830.28842"
     inkscape:cy="731.08182"
     inkscape:document-units="px"
     inkscape:current-layer="layer1"
     showgrid="false"
     inkscape:window-width="1024"
     inkscape:window-height="748"
     inkscape:window-x="20"
     inkscape:window-y="-4"
     inkscape:window-maximized="0" />
  <title
     id="title3277">baker</title>
  <defs
     id="defs3785">
    <inkscape:perspective
       id="perspective3823"
       inkscape:persp3d-origin="334.90438 : 296.50168 : 1"
       inkscape:vp_z="372.04724 : 175.3937 : 0"
       inkscape:vp_y="0 : 1000 : 0"
       inkscape:vp_x="-314.90439 : 155.3937 : 0"
       sodipodi:type="inkscape:persp3d" />
  </defs>
  <metadata
     id="metadata3788">
    <rdf:RDF>
      <cc:Work
         rdf:about="">
        <dc:format>image/svg+xml</dc:format>
        <dc:type
           rdf:resource="http://purl.org/dc/dcmitype/StillImage" />
        <dc:title>baker</dc:title>
      </cc:Work>
    </rdf:RDF>
  </metadata>
  <g
     id="layer1"
     inkscape:groupmode="layer"
     inkscape:label="Layer 1">
    <flowRoot
       style="fill:black;stroke:none;stroke-opacity:1;stroke-width:1px;stroke-linejoin:miter;stroke-linecap:butt;fill-opacity:1;font-family:Sans;font-style:normal;font-weight:normal;font-size:40px;line-height:125%;letter-spacing:0px;word-spacing:0px"
       id="flowRoot3475"
       xml:space="preserve"><flowRegion
         id="flowRegion3477"><rect
           y="840.23016"
           x="40.406101"
           height="76.771591"
           width="474.7717"
           id="rect3479" /></flowRegion><flowPara
         id="flowPara3481" /></flowRoot>    <path
       style="fill:none;stroke:#000000;stroke-width:0.25219843px;stroke-linecap:butt;stroke-linejoin:miter;stroke-opacity:1"
       d="m 271.18483,70.612308 c -1.08243,-0.284736 -8.87219,2.225244 -14.36247,4.670724 -8.51691,4.415115 -10.73819,6.80162 -7.0658,5.719104 5.14715,-1.297437 18.52403,-6.353172 28.80819,-9.994316 14.03853,-3.572788 19.40507,-6.013151 12.83843,-6.338501 -8.41059,0.08363 -31.37192,6.57753 -47.45387,15.073369 -16.54656,12.368586 -18.89978,17.604916 -9.16838,12.102289 11.7316,-5.054931 36.565,-15.459903 55.88366,-21.508536 23.97928,-3.535264 34.51422,-6.438588 22.54731,-8.78812 -14.79393,-1.333826 -55.01927,8.020186 -81.72533,24.045753 -21.8744,22.770376 -22.52206,30.543856 -8.70357,18.491126 17.13068,-10.044143 51.74324,-25.780098 79.087,-33.222196 32.94654,-1.708274 49.75932,-3.735033 34.17804,-9.415754 -20.13814,-4.183182 -78.95747,6.227426 -116.25489,31.237429 -23.45255,34.816811 -20.71801,44.187371 -5.82527,24.418841 21.09506,-15.90288 63.73071,-36.624447 97.98069,-44.694471 40.49441,1.266629 64.34973,1.534338 47.39088,-7.972279 -24.05767,-8.110087 -102.40079,1.031345 -150.16993,36.3329 -20.62803,47.32344 -13.1477,56.79901 -0.76578,29.48616 23.42879,-22.16343 72.39269,-47.293879 112.34173,-55.466094 46.41738,4.773836 77.75157,8.665124 61.78944,-4.322575 -26.24912,-12.6569 -124.57417,-7.59467 -182.70603,39.061279 -13.2689,58.89715 -0.0696,66.54635 6.1957,33.38703 24.05827,-28.32258 77.76959,-57.114846 122.16233,-65.078934 50.68615,8.297638 89.64495,16.907804 76.9407,1.54546 -26.53486,-17.2892 -144.72685,-19.536274 -213.24998,39.208054 -1.83556,68.19603 17.74401,71.8695 14.77027,35.93193 23.03089,-33.89624 80.05997,-65.483726 127.63168,-73.106255 53.3911,11.463017 99.87387,25.533845 92.39402,9.520113 -24.88251,-21.433353 -162.14748,-34.538955 -241.36464,36.626522 12.6802,74.21963 39.52652,72.2878 24.70231,37.07174 20.48706,-38.47702 79.58697,-71.916137 129.09585,-79.193403 54.69409,14.049943 108.3929,33.880413 107.69808,19.374473 -21.40761,-24.516782 -176.1792,-52.208684 -266.79496,31.24597 28.96056,76.5518 65.21889,71.26806 35.81768,36.93677 16.60983,-41.80617 76.74265,-76.110478 126.99677,-83.119307 54.79645,15.987377 115.21391,41.375417 122.41257,30.780537 -16.36837,-26.008036 -186.23267,-72.011147 -289.45271,23.07099 45.71129,75.52967 91.55952,78.18529 48.0679,35.91632 11.56163,-43.87548 71.92101,-78.04181 121.80093,-84.895117 53.91693,17.332957 120.36055,47.549307 136.1153,43.328997 -10.14538,-25.45032 -191.80297,-93.270831 -309.38646,12.17176 62.29762,73.07346 110.25057,97.32447 61.52831,34.79668 5.45477,-45.07785 65.48165,-78.10287 113.96026,-84.91627 52.28293,18.24435 123.83769,52.03788 148.40786,56.5499 -3.21656,-22.48935 -192.49039,-115.169877 -326.73926,-1.33685 77.18701,74.26098 115.1611,124.98892 76.2436,34.8989 -1.53511,-46.34121 57.85469,-77.22678 104.01626,-84.10093 50.12209,18.9446 125.61438,54.57591 158.92136,69.93248 3.87443,-16.89224 -188.03139,-136.751677 -341.70103,-17.32247 87.88379,79.79628 104.34641,154.60342 91.875,37.94458 -8.86352,-48.98228 49.83243,-76.72433 92.89331,-83.74817 47.65155,19.68913 125.62509,54.98693 167.32673,82.94402 10.55184,-8.55743 -178.33518,-156.935288 -354.45789,-35.66924 94.28647,87.63275 79.67581,179.72122 107.4694,45.48477 -15.43741,-54.11284 42.72678,-77.67054 82.05866,-84.94632 45.05807,20.73402 123.78921,53.16252 173.34893,95.03296 16.24286,2.4863 -163.52703,-174.535344 -365.13528,-56.29516 97.25043,96.22589 45.79348,195.92876 121.67558,58.34835 -19.88758,-62.07464 38.0646,-80.31481 73.22529,-88.00255 42.46524,22.3107 120.04902,49.03725 176.7963,105.63313 20.40794,16.08663 -143.99342,-188.309556 -373.74674,-79.16831 97.67518,104.87628 8.50057,201.85932 133.13423,76.59285 -21.0174,-72.38447 37.09083,-84.0047 67.8671,-92.37696 39.89536,24.60194 114.42481,42.5563 177.60025,114.15424 22.56881,31.9851 -120.41986,-197.020012 -380.14096,-104.29345 95.97167,113.65375 -26.99386,199.17109 140.67742,99.76277 -18.0627,-84.01179 40.44516,-87.45898 66.91308,-96.94788 37.23469,27.71215 107.08575,33.64723 175.87081,119.97669 22.32875,49.83555 -93.81195,-199.518173 -383.9581,-131.67469 91.798,123.22519 -57.42788,191.58515 143.33418,127.13776 -10.75103,-95.67769 48.02922,-89.09901 70.63278,-100.3089 34.22424,31.6218 98.42769,22.20721 171.96246,122.45868 19.38734,69.23012 -65.49166,-194.843094 -384.60204,-161.24493 84.02676,134.66574 -82.044874,183.34938 140.25514,157.8685 0.73505,-106.07768 58.98457,-87.36107 78.62021,-101.01764 30.50179,36.126 89.14425,8.12596 166.53944,120.9801 13.54712,89.72211 -37.05879,-182.32776 -381.24188,-192.76812 70.82217,149.09334 -102.191133,177.81876 130.62868,191.00502 15.8358,-114.03371 71.76015,-80.99909 89.8408,-97.81605 25.71478,40.7797 80.26604,-8.63796 160.61459,115.03233 C 549.61258,433.68254 534.58434,161.13879 172.04095,97.113336 221.76137,263.69774 51.736835,273.98412 285.67081,322.55696 c 33.70781,-118.59014 84.2882,-69.36667 102.74708,-89.8376 19.69719,44.89726 73.13277,-27.93107 155.53135,104.35995 C 536.84836,469.24318 556.80908,203.95808 185.61486,77.916992 203.98361,262.269 46.597947,258.99261 274.04435,337.7442 c 53.32276,-119.06828 94.27783,-52.63207 115.4808,-76.78735 12.65728,47.65776 69.27106,-49.25436 152.85452,89.12047 C 520.57513,503.31302 573.00522,252.78968 205.73817,58.413615 182.06164,255.35238 45.077003,248.3912 260.02142,350.84797 c 73.55992,-115.08588 99.59655,-31.85851 126.15525,-59.04691 5.28896,48.32134 70.17072,-71.6509 154.1647,70.00728 C 501.12159,535.48883 581.69585,306.46328 233.30338,40.553065 159.01627,239.15413 46.34923,242.77681 244.00305,361.66166 c 93.28869,-106.5522 98.6692,-8.90282 133.17933,-37.65323 -1.27116,46.49496 76.99968,-93.69403 160.78745,48.2673 C 478.86267,565.44107 581.73136,363.42062 268.63743,26.775754 139.58392,211.4874 49.936783,242.4132 226.30825,370.04455 337.74197,276.39938 317.1049,383.91353 361.85423,355.91618 356.1988,398.25872 452.18501,242.30329 535.38172,381.50273 454.20309,592.91603 572.40129,421.829 311.26332,19.826842 129.67272,172.48481 55.730392,247.18116 207.18268,375.86677 c 127.02174,-76.7792 76.30759,33.99381 133.00407,9.8153 -6.57859,36.63512 109.96494,-129.54508 192.48767,3.84621 C 427.56234,617.73521 553.50106,479.72457 359.73033,22.455955 135.41122,125.25687 63.946075,256.51925 186.83215,378.96911 325.74198,323.63724 242.11947,428.56925 312.89756,411.58727 309.62732,442.58413 447.13139,273.50231 529.9262,396.4042 397.59931,641.27295 522.4385,539.67107 411.57919,37.032079 161.18924,76.509898 77.624436,272.81565 165.47331,379.14591 c 146.68021,-32.49879 32.03565,58.53439 115.84491,53.1757 4.95372,26.0521 162.75565,-141.33069 245.87841,-30.12728 C 367.94565,660.49865 485.19725,590.41401 463.47361,65.138713 209.92133,34.066335 92.800123,286.65939 143.38448,376.15503 c 149.82566,-8.12957 7.89901,60.78958 103.78787,71.02416 C 264.77714,470.75421 440.05069,309.74636 524.52802,406.9723 337.52634,676.90624 440.80902,635.39733 511.51193,107.2305 278.91687,8.5247298 109.14394,296.70105 120.94378,369.75127 c 148.07245,16.71364 -14.84173,56.86779 91.36294,86.37604 33.86061,24.48956 222.52204,-126.73201 309.63992,-45.307 C 306.70598,690.56456 390.75033,673.58283 551.68017,162.43676 361.20235,8.5195346 124.43081,301.85619 98.645676,359.73498 240.03105,400.64024 64.287359,407.80917 178.4429,459.7521 230.97797,488.92701 428.27333,349.52767 519.46468,413.82756 275.81524,701.58434 336.63233,704.35537 580.36696,228.56631 446.17349,39.055274 136.5751,302.17609 77.091519,346.00457 207.08187,409.31562 27.57653,382.24799 146.99793,459.11395 219.21883,496.57009 420.36172,369.74408 517.08196,416.08967 245.14929,710.10924 280.07474,727.51356 594.84411,302.32999 521.78155,99.998158 143.64581,298.15512 56.957219,328.60298 171.33814,411.45835 -3.0024336,352.02147 118.99433,455.55864 210.35422,504.26993 411.17057,389.70637 514.78807,417.70857 214.96443,716.30811 222.59769,743.22433 593.6161,379.74301 577.25303,185.95437 144.27576,290.21846 38.942678,307.74995 134.25036,406.34264 -27.131442,319.30196 95.056451,450.52644 203.27669,512.57498 400.83918,409.17723 512.56443,418.79073 185.4802,720.36687 165.5409,751.95257 576.57314,456.62745 605.44983,287.59671 138.17725,278.0025 23.711044,283.85459 162.30921,398.92 179.62621,418.87483 121.62924,425.61351"
       id="path3914"
       inkscape:connector-curvature="0" />
  </g>
</svg>
