<?xml version="1.0" encoding="UTF-8" standalone="no"?>
<!-- Created with Inkscape (http://www.inkscape.org/) -->

<svg
   xmlns:dc="http://purl.org/dc/elements/1.1/"
   xmlns:cc="http://creativecommons.org/ns#"
   xmlns:rdf="http://www.w3.org/1999/02/22-rdf-syntax-ns#"
   xmlns:svg="http://www.w3.org/2000/svg"
   xmlns="http://www.w3.org/2000/svg"
   xmlns:sodipodi="http://sodipodi.sourceforge.net/DTD/sodipodi-0.dtd"
   xmlns:inkscape="http://www.inkscape.org/namespaces/inkscape"
   width="744.09448819"
   height="1052.3622047"
   id="svg2"
   version="1.1"
   inkscape:version="0.48.2 r9819"
   sodipodi:docname="newletterfarameblank.svg">
  <sodipodi:namedview
     id="base"
     pagecolor="#ffffff"
     bordercolor="#666666"
     borderopacity="1.0"
     inkscape:pageopacity="0.0"
     inkscape:pageshadow="2"
     inkscape:zoom="0.35"
     inkscape:cx="310.46331"
     inkscape:cy="672.91068"
     inkscape:document-units="px"
     inkscape:current-layer="layer1"
     showgrid="false"
     inkscape:window-width="650"
     inkscape:window-height="587"
     inkscape:window-x="380"
     inkscape:window-y="114"
     inkscape:window-maximized="0" />
  <defs
     id="defs4" />
  <metadata
     id="metadata7">
    <rdf:RDF>
      <cc:Work
         rdf:about="">
        <dc:format>image/svg+xml</dc:format>
        <dc:type
           rdf:resource="http://purl.org/dc/dcmitype/StillImage" />
        <dc:title></dc:title>
      </cc:Work>
    </rdf:RDF>
  </metadata>
  <g
     id="layer1"
     inkscape:groupmode="layer"
     inkscape:label="Layer 1">
    <rect
       y="0.21038114"
       x="10.092996"
       height="786.08429"
       width="586.06732"
       id="rect3021"
       style="fill:none;stroke:#000000;stroke-width:1.12594795;stroke-miterlimit:4;stroke-opacity:1;stroke-dasharray:none" />
    <path
       inkscape:connector-curvature="0"
       id="path3023"
       d="m 367.03475,374.51466 c 0.55028,0.0433 -0.26164,1.0507 -0.71525,1.35091 -1.18008,0.74805 -1.88674,0.13016 -1.75457,-0.75513 0.23011,-1.52463 2.01657,-3.36783 3.5215,-4.08181 2.13164,-1.1437 3.38922,0.008 3.03073,2.09568 -0.47169,2.6418 -3.5499,5.77866 -6.4598,6.80639 -3.6375,0.96871 -5.34704,-1.18703 -4.10964,-4.24261 1.45757,-3.89955 5.59933,-8.00448 8.98161,-9.33824 3.92077,-2.08442 6.39582,0.24769 5.64749,4.86962 -0.92187,4.95658 -6.55448,10.80393 -12.1633,12.5068 -6.32448,0.99327 -9.03312,-2.94971 -6.38128,-7.95123 2.83011,-6.21004 9.13607,-12.51572 14.11533,-14.39382 5.41051,-3.25239 9.21288,0.12591 8.4164,7.41717 -1.06479,7.24253 -9.15427,16.03524 -17.70198,18.48035 -9.20278,0.74784 -12.89714,-5.19827 -8.59905,-11.89175 4.32001,-8.4744 12.46438,-16.88928 18.80631,-19.24831 6.59368,-4.59586 11.82874,-0.32908 11.35925,9.72497 -0.90763,9.47827 -11.26625,21.45839 -22.95853,24.75605 -12.22112,0.25232 -16.91622,-7.959 -10.78878,-16.07692 5.83959,-10.69797 15.42635,-21.1189 22.94801,-23.89489 7.46856,-6.07806 14.23822,-1.09394 14.49109,11.77409 -0.45472,11.63683 -12.82412,27.05339 -27.82483,31.3605 -15.32487,-0.4397 -21.05929,-11.24428 -12.9713,-20.51919 7.26884,-12.88352 17.87178,-25.1865 26.44564,-28.32026 8.03581,-7.66512 16.43487,-2.14759 17.81978,13.54163 0.28609,13.68975 -13.77486,32.79022 -32.20278,38.31363 -18.46357,-1.24608 -25.28266,-15.04086 -15.16498,-25.22796 8.4617,-15.02243 19.66764,-29.05992 29.21978,-32.50519 8.29735,-9.3241 18.40979,-3.46973 21.34573,15.00202 1.30278,15.60872 -14.07695,38.62947 -36.00467,45.62614 -21.59807,-2.06587 -29.52965,-19.28393 -17.39153,-30.20906 9.26257,-17.08264 20.70851,-32.69213 31.21219,-36.42339 8.25617,-11.02274 20.15195,-5.03973 25.06227,16.12849 2.57939,17.36624 -13.6991,44.52342 -39.15265,53.29732 -24.70379,-2.79366 -33.74976,-23.80424 -19.69251,-35.46494 9.5408,-19.00137 20.93488,-36.02236 32.40134,-40.04062 7.91637,-12.72904 21.64862,-6.83611 28.95622,16.89401 4.0964,18.93642 -12.61944,50.41776 -41.5778,61.31439 -27.76835,-3.33383 -37.97268,-28.28379 -22.16507,-40.98792 9.24562,-20.69382 20.36836,-38.98506 32.83636,-43.32164 7.28343,-14.41099 22.8862,-8.83593 33.00836,17.2728 5.83126,20.29499 -10.82485,56.25269 -43.21923,69.65212 -30.78501,-3.60901 -42.36661,-32.36938 -25.00413,-46.71942 8.46126,-22.1038 19.15235,-41.55366 32.678,-46.27164 6.3646,-16.03683 23.8509,-11.01442 37.19428,17.24038 7.75851,21.42046 -8.3106,61.96491 -44.0235,78.27403 -33.74709,-3.56308 -47.11453,-35.85059 -28.45402,-52.49307 7.36178,-23.27206 17.50122,-43.80038 32.14869,-48.99445 5.16901,-17.57509 24.52936,-13.34518 41.48483,16.77469 9.8504,22.29379 -5.07991,67.48833 -43.94408,87.13295 -36.64353,-3.1591 -52.29831,-38.64022 -32.66791,-58.08571 6.06685,-24.29416 15.55793,-45.84787 31.39099,-51.64341 3.70826,-18.99437 24.90942,-15.79963 45.84692,15.85651 12.07714,22.89915 -1.14382,72.75568 -42.94111,96.17263 -39.45764,-2.376 -57.91822,-40.69385 -37.68287,-63.31814 4.61038,-25.22498 13.3668,-47.77117 30.44184,-54.3218 1.99622,-20.26432 24.98047,-18.34762 50.24401,14.46974 14.40731,23.22356 3.47903,77.69925 -40.98154,105.32854 -42.16723,-1.20488 -63.93331,-41.97816 -43.47943,-68.06747 2.99401,-26.0687 10.93149,-49.5873 29.29134,-57.07244 0.0496,-21.35516 24.73424,-20.95723 54.63679,12.60178 16.80828,23.25785 8.76282,82.25224 -38.03893,114.52953 -44.7458,0.35365 -70.28268,-42.46439 -50.01742,-72.24228 1.2178,-26.80491 8.24952,-51.28217 27.91835,-59.90376 -2.11221,-22.23841 24.16471,-23.59538 58.98348,10.24382 19.24662,22.99605 14.67466,86.3493 -34.09403,123.69872 -47.16358,2.29152 -76.89469,-42.12788 -57.24665,-75.76676 -0.71224,-27.40498 5.32168,-52.82819 26.30083,-62.80724 -4.46714,-22.88717 23.26885,-26.22792 63.24063,7.39094 21.68835,22.4359 21.17492,89.92746 -29.13462,132.75468 -49.38929,4.59462 -83.69133,-40.94878 -65.11041,-78.57339 -2.78379,-27.8396 2.15461,-54.19292 24.41873,-65.7659 -6.99026,-23.27627 22.04686,-28.81975 67.36343,4.04233 24.09952,21.57859 28.21775,92.92698 -23.15591,141.61244 -51.3908,7.24399 -90.59045,-38.91289 -73.54607,-80.60077 -4.9791,-28.08136 -1.23976,-55.34268 22.25472,-68.7575 -9.65411,-23.38282 20.50197,-31.3357 71.30615,0.20128 26.44651,20.42916 35.75119,95.29201 -16.16062,150.18449 -53.13659,10.2161 -97.50736,-36.01231 -82.48582,-81.79271 -7.27609,-28.10615 -4.84406,-56.24459 19.79427,-71.75673 -12.42861,-23.18626 18.64097,-33.74042 75.02267,-4.12466 28.69642,18.99608 43.71785,96.97117 -8.15926,158.38168 -54.59614,13.48379 -104.35564,-32.2458 -91.85666,-82.09827 -9.64924,-27.89348 -8.63661,-56.86769 17.02571,-74.73583 -15.28142,-22.66891 16.47426,-35.99894 78.46696,-8.92348 30.81724,17.29095 52.05514,97.91783 0.82987,166.11381 -55.74102,17.01637 -111.04848,-27.61928 -101.58116,-81.47196 -12.07024,-27.42695 -12.59141,-57.18362 13.9403,-77.66546 -18.17805,-21.81614 14.01548,-38.07716 81.59319,-14.17934 32.77871,15.32937 60.69603,98.09141 10.78072,173.29108 -56.54511,20.78029 -117.49918,-22.14601 -111.57775,-79.8742 -14.50854,-26.69395 -16.67885,-57.16703 10.53219,-80.51499 -21.08204,-20.61659 11.28215,-39.94203 84.35672,-19.87177 34.55206,13.12952 69.56942,97.45683 21.65909,179.8242 -56.98508,24.73929 -123.62183,-15.84663 -121.7609,-77.27159 -16.93214,-25.68622 -20.86609,-56.79611 6.79863,-83.25294 -23.95559,-19.06248 8.29486,-41.56206 86.71373,-25.97647 36.11077,10.7128 78.60082,95.98578 33.42336,185.62571 -57.04112,28.85493 -129.33261,-8.74931 -132.0421,-73.63742 -19.30792,-24.39941 -25.11766,-56.05277 2.73968,-85.84715 -26.7595,-17.14975 5.07763,-42.90766 88.62238,-32.46492 37.43062,8.10336 87.71275,93.65633 46.02381,190.61029 -56.69674,33.08686 -134.5498,-0.88951 -142.32987,-68.95189 -21.60209,-22.83339 -29.39577,-54.92287 -1.64148,-88.26514 -29.45376,-14.87834 1.65762,-43.95151 90.0426,-39.30481 38.49002,5.32776 96.82563,90.4537 59.40348,194.69575 -55.93952,37.39328 -139.19502,7.69008 -152.53076,-63.2024 -23.78068,-20.99214 -33.6609,-53.39653 -6.33861,-90.47446 -31.99783,-12.25209 -1.93494,-44.66883 90.93652,-46.46007 39.27046,2.41494 105.85832,86.37037 73.49795,197.80372 -54.7608,41.73124 -143.19356,16.93958 -162.54954,-56.38396 -25.81004,-18.88359 -37.87216,-51.46809 -11.34262,-92.4427 -34.35094,-9.27916 -5.66732,-45.03779 91.26919,-53.89107 39.7563,-0.60456 114.7287,81.40598 88.23579,199.86009 -53.15611,46.05719 -146.47516,26.80269 -172.28999,-48.49917 -27.65731,-16.51966 -41.98774,-49.13645 -16.64139,-94.13802 -36.47259,-5.97185 -9.50435,-45.03968 91.00843,-61.55485 39.93537,-3.69826 123.35446,75.56764 103.53886,200.79595 C 379.12437,463.21021 281.275,450.09967 248.594,373.3245 c -29.29054,-13.91625 -45.96558,-46.40483 -22.21976,-95.52918 -38.32317,-2.34667 -13.40849,-44.6594 90.1254,-69.40533 39.79891,-6.83265 131.65357,68.86997 119.32265,200.5478 -48.67227,54.49749 -150.63221,48.11271 -190.54991,-29.58034 -30.67941,-11.09291 -49.76343,-43.28127 -28.05987,-96.58597 -39.86381,1.57555 -17.34074,-43.88531 88.59477,-77.39362 39.34173,-9.97329 139.54527,61.33484 135.49676,199.0586 -45.80544,58.52481 -151.39454,59.41673 -198.87739,-18.59114 -31.79562,-8.07249 -53.34001,-39.77772 -34.14089,-97.2792 -41.05749,5.77 -21.2604,-42.70984 86.39494,-85.46819 38.5623,-13.08513 146.95045,52.99165 151.96532,196.27783 -42.53738,62.36694 -151.21463,71.04979 -206.54411,-6.62502 -32.6129,-4.88166 -56.65456,-35.91119 -40.43936,-97.58126 -41.86884,10.20757 -25.12568,-41.12947 83.50843,-93.57533 37.46284,-16.13306 153.79243,43.8768 168.62746,192.16231 -38.88443,65.98281 -150.05248,82.92841 -213.45799,6.27562 -33.10783,-1.54966 -59.66804,-31.70253 -46.92922,-97.46589 -42.26502,14.85541 -28.8944,-39.14475 79.92201,-101.65938 36.04922,-19.08214 159.99745,34.03358 185.37797,186.67638 -34.86742,69.33334 -147.8758,94.96553 -219.53003,20.06115 -33.25974,1.89097 -62.34319,-27.17705 -53.58177,-96.90916 -42.21588,19.67689 -32.52386,-36.76055 75.62652,-109.66291 34.33115,-21.89805 165.49566,23.51203 202.10792,179.79268 -30.51048,72.38121 -144.65957,107.07092 -224.67438,34.67371 -33.05132,5.40548 -64.64504,-22.36369 -60.3661,-95.8886 -41.69438,24.63188 -35.97152,-33.98613 70.61791,-117.52743 32.3217,-24.54742 170.22109,12.36858 218.70488,171.49201 -25.84163,75.09187 -140.38717,119.152 -228.8093,50.04868 -32.46877,8.95677 -66.54133,-17.29545 -67.249,-94.3845 -40.67705,29.67706 -39.19558,-30.83493 64.89622,-125.19336 30.0377,-26.99822 174.11295,0.66552 235.05427,161.76405 -20.89221,77.43346 -135.04995,131.11443 -231.85764,66.11406 -31.50193,12.50595 -68.00281,-12.00871 -74.19535,-92.3792 -39.14402,34.76583 -42.15493,-27.32508 58.46677,-132.60079 27.49953,-29.22014 177.11554,-11.52923 251.03932,150.60755 -15.69657,79.37709 -128.64777,142.86266 -233.7474,82.79106 -30.14472,16.01247 -69.00368,-6.54311 -81.16799,-89.85806 -37.07993,39.84943 -44.81026,-23.47834 51.33947,-139.68939 24.73033,-31.18489 179.17889,-24.14274 266.54217,138.03016 -10.29184,80.89747 -121.18879,154.30128 -234.41237,99.99461 -28.3951,19.43503 -69.52185,-0.9408 -88.12819,-86.80891 -34.47371,44.87659 -47.12389,-19.32091 43.52913,-146.39912 21.75677,-32.86656 180.2596,-37.09738 281.44451,124.04919 -4.71762,81.97283 -112.68978,165.33489 -233.79256,117.63364 -26.25535,22.73123 -69.53927,4.75304 -95.03584,-83.22254 -31.31894,49.79407 -49.06033,-14.88321 35.0556,-152.67083 18.6079,-34.24184 180.32046,-50.31171 295.62827,108.69116 0.98445,82.5853 -103.17575,175.86959 -231.83474,135.61161 -23.73204,25.85869 -69.04216,10.49157 -101.84953,-79.09301 -27.61428,54.54743 -50.586878,-10.19902 25.94347,-158.44603 15.31555,-35.29045 179.33156,-63.70066 308.97639,91.99225 6.77089,82.72105 -92.68028,185.81313 -228.493,153.8268 -20.83616,28.7751 -68.02124,16.2259 -108.52681,-74.41751 -23.36353,59.08114 -51.673809,-5.30579 16.22217,-163.66756 11.91404,-35.9955 177.27039,-77.1764 321.37355,73.99785 12.59703,82.37052 -81.24482,195.0761 -223.72891,172.17326 -17.58326,31.43864 -66.47192,21.90613 -115.02466,-69.19638 -18.57569,63.33911 -52.294775,-0.24433 5.92611,-168.28052 8.43888,-36.34313 174.12169,-90.64874 332.70676,54.76306 18.4171,81.52858 -68.91904,203.57226 -217.51236,190.54082 -13.99299,33.80885 -64.39437,27.48141 -121.29934,-63.43332 -13.26525,67.26518 -52.427133,4.94159 -4.90596,-172.23171 4.92779,-36.32348 169.87807,-104.02623 342.86644,34.35185 24.18509,80.19423 -55.75997,211.21953 -209.82126,208.81641 -10.08967,35.84633 -61.79388,32.9004 -127.30711,-57.13578 -7.45215,70.80379 -52.052375,10.20555 -16.23066,-175.47055 1.41968,-35.93055 164.54008,-117.21636 351.74689,12.83765 29.85467,78.3711 -41.83215,217.94022 -200.64266,226.88361 -5.90146,37.51403 -58.68036,38.11227 -133.00395,-50.31412 -1.16187,73.90008 -51.156212,15.49895 -28.00011,-177.94973 -2.04607,-35.16191 158.11588,-130.12623 359.24685,-9.6976 35.37995,76.0675 -27.20683,223.66239 -189.97205,244.6249 -1.461,38.77686 -55.06917,43.06625 -138.34657,-42.98297 5.5748,76.50118 -49.728959,20.77132 -40.16265,-179.62444 -5.42907,-34.01979 150.62217,-142.66386 365.27091,-33.16328 40.71573,73.29567 -11.96195,228.31947 -177.81455,261.92048 3.1955,39.60274 -50.98028,47.71301 -143.29179,-35.15956 12.72149,78.5556 -47.76574,25.97047 -52.66241,-180.4544 -8.689475,-32.50989 142.08289,-154.73802 369.72918,-57.46079 45.81814,70.0727 3.81896,231.8518 -164.18425,278.65064 8.0281,39.96263 -46.43861,52.00467 -147.79767,-26.86549 20.23671,80.01497 -45.26652,31.04372 -65.439974,-180.4022 C 80.584727,285.03371 224.90243,149.4167 464.9109,233.19266 515.55566,299.6123 484.95757,467.39903 315.80609,527.88792 328.79966,567.719 274.33207,583.78313 163.98305,509.76291 192.0567,590.59623 121.74653,545.7001 85.550459,330.32717 70.866909,301.89511 207.55468,153.18532 459.17491,222.2092 c 55.15514,62.36149 36.62722,235.33757 -132.60931,309.93508 18.0454,39.18646 -36.12096,59.34119 -155.32846,-8.96636 36.18084,80.96883 -38.68593,40.59752 -91.574302,-177.5266 C 62.322499,319.75457 190.21451,158.35015 452.58089,211.40787 c 59.31147,57.92766 53.46275,235.20792 -114.74019,324.25262 23.13462,38.01148 -30.41792,62.30225 -158.27588,0.57926 C 224.06692,616.62313 144.9344,581.21097 74.768275,361.58828 55.046943,338.5293 172.99544,164.9304 445.12902,200.85509 c 63.07834,53.15054 70.4515,233.78774 -95.54956,337.53223 28.20992,36.29323 -24.40789,64.74111 -160.62922,10.47733 C 241.92706,627.90797 158.85958,597.87071 70.922005,378.07266 49.12974,358.12773 156.01374,172.93603 436.82425,190.61764 c 66.42376,48.06649 87.48934,231.05597 -75.0984,349.66158 33.21794,34.02364 -18.13746,66.62443 -162.3548,20.69014 61.54064,76.92014 -25.09256,52.65116 -131.196262,-165.93492 -23.521042,-16.58469 71.213082,-212.667 359.502062,-214.27158 69.31894,42.71465 104.46962,227.00049 -53.45706,360.5318 38.1038,31.19963 -11.65721,67.9229 -163.42098,31.17744 70.12543,73.99032 -19.66723,55.85732 -144.226087,-160.07266 -24.878489,-13.0116 56.665097,-219.18449 351.129447,-241.04147 71.73889,37.13698 121.28469,221.61772 -30.70455,370.03851 42.81155,27.82332 -5.0204,68.61178 -163.79937,41.89563 C 301.85827,653.52858 209.34756,641.87005 66.156799,430.08904 40.31835,420.82698 107.68367,205.4591 406.92085,162.46979 c 73.66269,31.37804 137.82616,214.91334 -6.92894,378.08238 47.2852,23.90214 1.71694,68.67113 -163.46369,52.79892 87.07045,65.64699 -7.68371,60.76921 -169.565651,-145.32939 -26.378192,-5.37604 25.882834,-228.95159 328.396081,-293.85744 75.07359,25.48433 153.98594,206.90187 17.77428,384.56989 51.46773,19.44907 8.49615,68.0861 -162.3916,63.83907 95.28077,60.21674 -1.21172,62.39054 -181.721443,-136.46127 -26.478708,-1.3954 9.821661,-232.10372 314.026973,-319.60571 75.95904,19.50385 169.65654,197.60707 43.30073,389.41383 55.3035,14.48244 15.257,66.84719 -160.56331,74.96558 103.21322,53.9472 5.51569,63.40527 -193.431659,-126.6138 -26.12504,2.6351 -6.563635,-234.04882 297.668819,-344.71314 76.31139,13.48606 184.73267,187.06175 69.5396,392.53425 58.73731,9.02618 21.93748,64.95052 -157.96343,86.12585 C 392.38713,665.06579 294.04257,681.99975 76.978441,502.41102 51.671952,509.08003 53.801215,267.65447 356.324,133.3829 c 76.12742,7.48116 199.11097,175.30716 96.37225,393.8586 61.71548,3.1098 28.47521,62.39781 -154.57925,97.26594 117.92999,38.93128 19.51845,63.4895 -215.20854,-104.07072 -24.016729,10.65869 -39.920269,-234.20439 259.09201,-392.39941 75.40919,1.53988 212.69183,162.39354 123.67439,393.3228 64.18657,-3.23192 34.80715,59.19675 -150.40271,108.33014 124.5562,30.22283 26.67623,62.50818 -225.124782,-91.43489 -22.254386,14.55436 -56.692342,-232.3784 236.954862,-414.67744 74.16284,-4.28751 225.379,148.37943 151.31532,390.87127 66.10133,-9.95878 40.87034,55.36092 -145.42921,119.26174 130.58937,20.75146 33.85418,60.81923 -234.295503,-77.93933 -20.022527,18.30674 -73.3913,-229.27263 212.992063,-435.7143 72.39978,-9.95101 237.08124,133.33141 179.15935,386.4579 67.41388,-17.02566 46.6029,50.90973 -139.65851,130.00303 135.95318,10.55427 40.98704,58.41073 -242.64991,-63.62832 -17.329492,21.86551 -89.914674,-224.8898 187.27275,-455.36537 70.13636,-15.40162 247.7125,117.32341 207.06638,380.04605 68.08172,-24.38251 51.94397,45.8686 -133.09451,140.4958 140.57273,-0.32436 48.0071,55.27664 -250.12026,-48.55178 -14.18821,25.18112 -106.160064,-219.24067 159.87775,-473.48981 67.3931,-20.591853 257.1924,100.43705 234.89203,371.6092 68.06618,-31.97437 56.83437,40.26891 -125.74523,150.68159 144.3762,-11.8331 54.84545,51.41694 -256.64178,-32.76499 -10.61713,28.20409 -122.025971,-212.34527 130.89796,-489.95165 64.19577,-25.476113 265.44773,82.76035 262.4893,361.13141 67.33339,-39.74235 61.21769,34.14742 -117.62323,160.50177 147.29496,-23.91337 61.4324,46.83799 -262.1531,-16.32865 -6.63918,30.88679 -137.4122974,-204.23121 100.43595,-504.62021 60.57371,-30.011125 272.41154,64.38742 289.70827,348.60728 65.85421,-47.62352 65.04012,27.54672 -108.74506,169.8982 149.26433,-36.50002 67.69764,41.5526 -266.59707,0.69183 -2.28259,33.18274 -152.2213879,-194.93449 68.60391,-517.37138 56.56136,-34.15634 278.02518,45.41828 316.39784,334.04233 63.60487,-55.55144 68.25129,20.51468 -99.13207,178.81344 88.044,-11.41345 35.46996,36.63784 -179.1318,50.60261"
       style="fill:none;stroke:#000000;stroke-width:2.54118514px;stroke-linecap:butt;stroke-linejoin:miter;stroke-opacity:1" />
  </g>
</svg>
