<?xml version="1.0" encoding="UTF-8" standalone="no"?>
<!-- Created with Inkscape (http://www.inkscape.org/) -->

<svg
   xmlns:dc="http://purl.org/dc/elements/1.1/"
   xmlns:cc="http://creativecommons.org/ns#"
   xmlns:rdf="http://www.w3.org/1999/02/22-rdf-syntax-ns#"
   xmlns:svg="http://www.w3.org/2000/svg"
   xmlns="http://www.w3.org/2000/svg"
   xmlns:sodipodi="http://sodipodi.sourceforge.net/DTD/sodipodi-0.dtd"
   xmlns:inkscape="http://www.inkscape.org/namespaces/inkscape"
   sodipodi:docname="spiral051.svg"
   inkscape:version="0.48.2 r9819"
   version="1.1"
   id="svg3783"
   height="1052.3622047"
   width="744.09448819">
  <sodipodi:namedview
     id="base"
     pagecolor="#ffffff"
     bordercolor="#666666"
     borderopacity="1.0"
     inkscape:pageopacity="0.0"
     inkscape:pageshadow="2"
     inkscape:zoom="0.7"
     inkscape:cx="455.01089"
     inkscape:cy="566.51461"
     inkscape:document-units="px"
     inkscape:current-layer="layer1"
     showgrid="false"
     inkscape:window-width="1024"
     inkscape:window-height="749"
     inkscape:window-x="-4"
     inkscape:window-y="-4"
     inkscape:window-maximized="1" />
  <defs
     id="defs3785">
    <inkscape:perspective
       sodipodi:type="inkscape:persp3d"
       inkscape:vp_x="-314.90439 : 155.3937 : 0"
       inkscape:vp_y="0 : 1000 : 0"
       inkscape:vp_z="372.04724 : 175.3937 : 0"
       inkscape:persp3d-origin="334.90438 : 296.50168 : 1"
       id="perspective3823" />
  </defs>
  <metadata
     id="metadata3788">
    <rdf:RDF>
      <cc:Work
         rdf:about="">
        <dc:format>image/svg+xml</dc:format>
        <dc:type
           rdf:resource="http://purl.org/dc/dcmitype/StillImage" />
        <dc:title></dc:title>
      </cc:Work>
    </rdf:RDF>
  </metadata>
  <g
     inkscape:label="Layer 1"
     inkscape:groupmode="layer"
     id="layer1">
    <flowRoot
       xml:space="preserve"
       id="flowRoot3475"
       style="fill:black;stroke:none;stroke-opacity:1;stroke-width:1px;stroke-linejoin:miter;stroke-linecap:butt;fill-opacity:1;font-family:Sans;font-style:normal;font-weight:normal;font-size:40px;line-height:125%;letter-spacing:0px;word-spacing:0px"><flowRegion
         id="flowRegion3477"><rect
           id="rect3479"
           width="474.7717"
           height="76.771591"
           x="40.406101"
           y="840.23016" /></flowRegion><flowPara
         id="flowPara3481" /></flowRoot>    <path
       inkscape:connector-curvature="0"
       style="fill:none;stroke:#000000;stroke-width:0.16176443px;stroke-linecap:butt;stroke-linejoin:miter;stroke-opacity:1"
       d="m 322.13452,289.5162 c 2.93755,2.2476 12.83469,10.85489 19.74542,17.97003 9.36675,11.63796 11.67921,15.01634 7.25262,8.82131 -6.33183,-7.70065 -22.92844,-23.54564 -35.30808,-32.52236 -15.46992,-8.7547 -19.10455,-10.51404 -10.21792,-6.13013 10.70471,6.32107 34.667,25.93052 50.21262,45.14537 13.63129,27.52008 15.83595,34.82013 9.16345,16.56988 -11.06,-19.14508 -41.09332,-49.91004 -63.44426,-63.69938 -24.71222,-9.76092 -30.01374,-11.28777 -14.10187,-6.32599 17.7255,7.98649 55.90093,37.42434 78.08076,70.94169 10.00159,45.77211 9.31452,56.85914 7.99169,25.55899 -11.70857,-32.73734 -54.28034,-79.6736 -86.18006,-96.34419 -34.23722,-8.47205 -41.59875,-9.27555 -17.7774,-5.68629 24.44191,8.07766 76.54513,46.00663 102.68057,95.60154 -3.19175,61.69822 -9.35688,74.29859 2.86318,34.35412 -7.03196,-46.82004 -60.83608,-110.81491 -101.95157,-128.78219 -45.59828,-4.81202 -55.78578,-4.06086 -21.91003,-4.36997 31.61474,6.91843 97.31583,52.08053 124.1631,118.79968 -24.18161,70.03339 -36.2456,80.35165 -6.28056,41.07523 3.34203,-59.07599 -60.11389,-140.64148 -110.41371,-158.54834 -59.50164,2.34484 -73.0178,6.05168 -27.05517,-2.15258 39.96656,4.35176 119.05702,55.57435 143.07156,139.55259 -47.56168,67.61772 -62.59775,72.9359 -18.40996,43.88541 18.52315,-67.10032 -52.83282,-166.33684 -112.67973,-182.8861 -75.28646,14.59436 -91.87537,23.10883 -33.36311,1.46551 49.80258,-0.16177 142.30692,55.98627 159.98027,156.37285 -66.13248,56.13704 -79.13748,58.12838 -31.42903,41.66925 36.32013,-69.16311 -41.1211,-185.74245 -111.2279,-199.51888 -91.08357,33.36777 -109.46288,48.63045 -40.53695,7.08603 60.89076,-7.35487 167.11629,52.54285 175.33509,167.56058 -74.3073,42.52126 -80.74042,46.77109 -42.5973,34.72222 53.64382,-65.00142 -28.11611,-198.17776 -109.40503,-207.49599 -104.17574,59.40962 -122.003663,82.9459 -47.91419,15.25439 72.51273,-17.95833 193.03433,44.383 189.40927,171.52393 -69.73662,34.47272 -64.76084,44.07327 -49.34532,25.14925 67.34595,-56.32719 -17.12011,-204.97499 -110.53256,-207.77265 -111.440916,92.40632 -125.547578,124.81281 -54.56734,26.32874 83.56628,-32.5279 219.16065,30.73292 202.27375,167.07888 -51.06889,34.0839 -29.05728,44.0211 -50.17464,16.47833 C 362.72143,429.70665 276.91433,267.03197 170.6241,273.24565 60.761392,404.05964 53.899951,444.63418 111.2193,313.6233 c 92.68516,-51.30311 244.23259,11.06278 213.75763,153.69163 -17.44394,35.97915 22.80153,33.35858 -44.86383,12.15063 76.14981,-39.28689 -9.95443,-214.30216 -129.48522,-196.16321 -97.057501,171.9279 -93.412013,218.56112 -61.285564,57.1078 98.373904,-74.09987 266.741574,-14.78723 223.411864,131.63249 28.22839,30.35573 77.75464,0.52486 -33.58794,13.61633 C 348.85173,449.08926 263.12267,263.57432 130.56987,296.91277 58.851107,509.09897 75.400258,558.47168 71.420388,372.74848 170.5838,272.49529 356.49975,326.22588 301.92826,474.74881 379.20004,482.98976 419.0056,418.4081 285.80592,494.17389 340.8477,456.39795 255.77078,262.29158 111.15964,314.34486 77.271947,561.99103 107.81633,610.02829 59.003232,409.85768 152.78147,281.24025 356.70505,326.49068 293.11003,476.44813 410.27652,442.68444 418.02508,349.14301 300.85468,502.08594 332.5997,462.1542 248.05876,261.35026 93.22173,335.70635 108.22987,610.23626 152.37555,652.69468 53.4121,450.50962 134.70867,292.87902 356.70292,326.41615 286.63858,478.13632 422.65685,386.56228 382.0169,282.99446 323.76272,505.20158 324.42377,466.48601 239.93717,260.79646 77.647692,360.90808 149.98773,650.6301 205.94986,683.67833 55.600553,493.1184 116.88163,307.68117 356.49376,326.00379 282.68565,480.55337 409.47633,325.39441 316.89831,237.65645 351.95326,499.40876 316.58687,469.58483 231.355,260.68979 65.337364,389.64225 199.97256,680.77524 264.89067,701.44533 66.05714,535.87161 99.917434,325.81783 356.07545,325.25851 281.38124,484.03714 370.65278,271.75061 236.59843,223.98273 381.00185,481.98984 309.29576,471.68429 222.26507,261.10566 57.136454,421.3783 255.15546,699.25579 325.52911,705.69807 84.761588,576.88639 84.508895,347.33143 355.44358,324.1877 282.87102,488.49852 312.2317,236.03648 157.22897,243.6845 405.52332,452.50464 302.69339,473.03752 212.62894,262.13566 53.773946,455.37788 312.42979,705.64644 384.57168,697.18017 111.19771,614.36618 71.391655,372.11108 354.59168,322.80203 287.28268,493.48805 243.85736,224.00487 91.989358,290.83384 420.38282,413.00966 296.86196,473.8945 202.42238,263.88859 55.806296,490.72878 368.92574,700.38928 439.34953,677.38625 144.41596,646.73832 61.30364,399.87731 353.51146,321.11536 294.64218,498.30789 175.75429,236.22642 48.499506,355.3551 421.81128,367.61738 291.83135,474.48136 191.64015,266.48921 63.574331,526.39378 422.22605,684.59025 487.92133,648.25198 183.13366,672.75796 54.940676,430.17791 352.19392,319.14442 304.79744,502.13983 116.34383,269.10924 28.616084,426.58007 408.11319,321.60358 287.59172,474.98566 180.30197,270.07637 77.175683,561.27097 470.47751,659.78626 529.06031,611.87986 225.85516,691.56836 52.911219,462.3966 350.62907,316.90938 317.37877,504.16877 70.999089,316.65914 29.836108,495.70302 379.84483,280.35987 284.10725,475.54765 168.45626,274.80042 96.457287,594.25819 512.40924,627.72511 562.16382,570.32834 270.99598,702.71929 55.693936,495.77494 348.80746,314.43347 331.80699,503.68946 41.8872,372.23802 47.227319,556.86405 339.51116,248.47125 281.32713,476.25859 156.18512,280.81866 121.02607,624.31708 547.28572,590.18521 587.12545,525.47455 316.99679,706.14677 63.602034,529.44604 346.72032,311.74317 347.33847,500.18533 28.539262,429.86985 75.138322,607.14391 290.94363,229.09554 279.19454,477.16537 143.60819,288.28945 150.27684,650.52898 574.81971,548.84494 604.20135,478.94094 362.41508,702.12366 76.758986,562.47692 344.36078,308.86771 363.13424,493.37453 28.733015,484.9592 108.35494,645.95437 238.5608,223.7106 277.65092,478.2778 130.88438,297.36588 183.43379,672.13943 595.07043,505.20336 613.8896,432.07461 405.99314,691.19257 95.085828,593.91682 341.72437,305.83911 378.33718,483.2227 39.368992,534.49685 142.68403,674.23375 186.68261,232.18911 276.63792,479.578 118.21442,308.18714 219.60099,688.58828 608.34429,460.54326 616.83494,385.95866 446.69635,674.09101 118.30289,622.84675 338.80992,302.69146 392.14431,469.92747 57.163088,576.9195 175.10504,693.71404 139.01046,253.1032 276.09706,481.03 105.83984,320.86999 257.81531,699.52379 615.10965,415.92642 613.7606,341.44461 483.72797,651.67782 145.94521,648.42686 335.62026,299.46059 403.86592,453.88048 79.100081,611.79639 203.6619,706.36892 98.32015,284.14508 275.96923,482.58729 94.041381,335.49817 297.09941,704.80167 615.93057,372.20978 605.42652,299.19026 516.52473,624.86734 177.38863,669.93584 332.16259,296.18298 412.96537,435.61686 102.66924,639.4712 227.24106,714.05996 66.354023,322.56213 276.19412,484.19998 83.133615,352.11315 336.50834,704.47096 611.42097,330.07274 592.60859,259.69688 544.73652,594.57549 211.88557,686.80218 328.44853,292.89496 419.0798,415.75989 125.93729,660.73971 245.33121,718.34715 43.874553,365.53491 276.71018,485.81931 73.458622,370.70446 375.16827,698.75069 602.21694,290.04704 576.09454,223.34025 568.19776,561.6786 248.60599,698.62337 324.49436,289.63187 422.02329,394.96658 147.51978,676.59698 257.81468,720.41298 30.818748,410.46015 277.4547,487.40119 65.375956,391.20111 412.30542,687.99889 588.96477,252.54567 556.69001,190.39196 586.89497,526.98627 286.67977,705.17402 320.31944,286.42674 421.77387,373.88106 166.49952,688.05991 264.81064,721.05828 26.50287,455.13166 278.36541,488.90832 59.250751,413.46553 447.26466,672.67889 572.31978,217.88559 535.2308,161.03306 600.93414,491.22484 325.23852,706.40181 315.94589,283.30899 418.45245,353.09655 182.32818,696.05816 266.56979,720.73517 29.834329,497.82481 279.38097,490.31061 55.439757,437.28898 479.51787,653.32535 552.95334,186.30346 512.59723,135.3592 610.51077,455.03076 363.45126,702.41513 311.39552,280.30397 412.29374,333.12948 194.7323,701.37525 263.41383,719.59608 39.501313,537.30992 280.44266,491.5855 54.276154,462.3915 508.66424,630.5133 531.56423,157.96461 489.72677,113.38191 615.88405,418.95176 400.55538,693.46193 306.68764,277.43166 403.61603,314.40269 203.63305,704.62657 255.7089,717.54766 54.127219,572.81283 281.49526,492.71722 56.053591,488.42379 534.42405,604.82931 508.89101,132.96518 467.62351,95.031586 617.3567,383.4513 435.87853,679.90498 301.83525,274.70635 392.79135,297.2392 209.08456,706.25994 243.86227,714.30324 72.382805,603.9472 282.48828,493.69588 61.010701,514.97485 556.62662,576.85027 485.72429,111.33095 447.36306,80.165743 615.25964,348.91764 468.8532,662.19386 296.84122,272.13732 380.21861,281.86284 211.22938,706.56955 228.33464,709.43323 93.060696,630.63469 283.37706,494.51614 69.316936,541.58186 575.19666,547.12467 462.91572,93.014762 430.09262,68.593758 609.94189,315.6725 499.02387,640.83721 291.69452,269.72938 366.30054,268.40543 210.26853,705.7173 209.66081,702.41481 115.11556,653.02469 284.12303,495.17575 81.061048,567.74436 590.13786,516.16217 441.38427,77.897284 417.02418,60.125147 601.76472,283.98027 526.04629,616.37704 286.36727,267.48497 351.42597,256.91655 206.44374,703.75628 188.47113,692.68137 137.68041,671.42176 284.69417,495.67433 96.242887,592.94067 601.51775,484.42507 422.11806,65.797535 409.41984,54.651373 591.09957,254.05681 549.68318,589.36563 280.81399,265.40718 335.95597,247.37685 200.0268,700.65453 165.51159,679.67531 160.06424,686.22512 285.06576,496.01236 114.76875,616.6467 609.45271,452.32616 406.17341,56.499305 408.55981,52.273493 578.32826,226.07531 569.79466,560.34695 274.97186,263.50342 320.21558,239.7109 191.31594,696.31822 141.65495,662.9025 181.73819,697.87964 285.22033,496.19039 136.45171,638.3546 614.09531,420.22811 394.66868,49.800947 415.67657,53.478458 563.84525,200.1712 586.32695,529.84159 268.76497,261.78938 304.48823,233.8008 180.63381,690.6138 117.90061,641.99016 202.3161,706.84034 285.14779,496.20789 161.01633,657.59261 615.62355,388.44629 388.77098,45.598655 431.8215,59.364966 548.06165,176.44573 599.29966,498.33686 262.1082,260.29299 289.01416,229.49811 168.32795,683.38747 95.358251,616.74498 221.53189,713.54681 284.84564,496.06313 188.1078,673.94158 614.23245,357.25266 389.66871,44.009641 457.60985,71.892567 531.40835,154.96695 608.79321,466.28039 254.91406,259.05834 273.99059,226.63447 154.77021,674.48491 75.213446,587.20749 239.21758,718.40687 284.31913,495.75333 217.30385,687.04991 610.12821,326.88032 398.51055,45.541605 492.77278,94.088235 514.34063,135.77099 614.93723,434.07649 247.09852,258.14859 259.57472,225.03138 140.35538,663.76736 58.672586,553.69719 255.28214,721.78662 283.58099,495.27471 248.1307,696.64477 603.52441,297.52881 416.2812,51.304485 535.44211,130.06669 497.34047,118.86307 617.90024,402.08601 238.58683,257.64737 245.88623,224.50707 125.49796,651.12757 46.890112,516.84216 269.69403,724.00679 282.65189,494.62288 280.081,702.53938 594.63969,269.36855 443.56358,63.242371 581.1622,184.61051 480.91954,104.21918 617.88131,370.62749 229.31876,257.66039 233.01264,224.8827 110.62643,636.50265 40.879508,477.58389 282.46584,725.34153 281.55991,493.79412 312.63094,704.63595 583.69817,242.54564 480.11997,84.322865 621.79872,261.94017 465.62005,91.790855 615.10375,339.98001 219.25405,258.3154 221.01268,225.9868 96.175086,619.88502 41.418472,437.15272 293.64103,726.02044 280.34099,492.7861 345.25807,702.92447 570.93034,217.18391 524.23171,118.55849 644.89339,363.29577 452.01403,81.514057 609.81076,310.38595 208.37685,259.76083 209.92196,227.65806 82.57359,601.33 48.955879,397.00926 303.28516,726.23171 279.0377,491.59977 377.45887,697.47772 556.57469,193.38845 571.78417,170.63131 634.54786,483.27587 440.70173,73.323765 602.26293,282.05485 196.70117,262.16367 199.75659,229.74778 70.234906,580.96056 63.536577,358.74986 311.47717,726.1264 277.69964,490.24049 408.76165,688.44348 540.88132,171.24573 615.24974,244.79805 575.34868,605.85573 432.30679,67.177306 592.73735,255.16628 184.275,265.70574 190.51749,232.1209 59.541741,558.9676 84.755648,323.9845 318.30447,725.82298 276.38206,488.71965 438.73858,676.03335 524.11435,150.82411 643.03236,342.73464 460.39805,702.72136 427.46817,63.087545 581.52817,229.87187 171.18549,270.57898 182.19411,234.65649 79.731803,597.24564 117.21383,289.17229 288.28234,721.43488"
       id="path3341" />
    <path
       id="path3341-1"
       d="m -2614.8996,-1264.2877 c 1.5291,1.9843 6.8014,9.2356 10.7192,14.9199 5.7834,8.9065 7.2888,11.4292 4.3418,6.7865 -3.938,-5.9073 -13.1289,-18.8504 -19.2949,-26.9996 -7.1941,-9.041 -8.7317,-11.0642 -4.616,-6.1689 5.1263,6.3491 17.5913,23.2918 27.1449,38.0311 10.9723,20.0673 13.3772,25.3648 6.7262,12.135 -8.2549,-14.0501 -25.4053,-38.749 -36.045,-52.325 -10.9637,-12.7093 -13.1312,-15.2719 -5.9217,-7.6499 8.0938,9.4667 27.5367,35.6237 42.6193,60.6403 14.4338,33.7564 16.9327,42.4628 8.5193,18.5752 -11.8663,-23.7932 -37.0168,-60.983 -51.7057,-79.0469 -15.4671,-15.6542 -18.7781,-18.7105 -7.3023,-8.7899 11.0533,11.899 37.1218,46.6269 57.3486,83.1395 14.6582,49.0727 15.9615,61.3118 9.1702,25.8892 -14.0779,-34.9439 -47.0679,-85.2259 -65.6471,-107.0601 -22.1915,-18.3474 -27.539,-21.8607 -9.3465,-9.8435 14.7459,14.019 47.1683,56.7184 71.8452,105.832 10.723,64.4895 9.5598,79.5657 8.2169,33.6732 -14.2531,-47.0432 -54.766,-110.9162 -77.4464,-136.0075 -32.1003,-20.6725 -40.4313,-24.3703 -12.539,-10.9046 19.8349,16.007 58.5148,66.1589 86.6668,128.7958 2.9119,77.9898 -0.9359,94.3194 5.4088,41.3418 -11.9802,-59.3987 -59.5676,-137.2525 -86.9664,-165.2451 -45.4932,-21.9876 -57.6021,-25.2545 -17.1354,-11.8722 26.7345,17.8014 71.8132,74.9746 102.2432,151.8141 -6.536,87.5685 -10.7933,103.2715 0.8532,48.171 -7.242,-71.1341 -61.3525,-163.2409 -94.4594,-193.8592 -62.1532,-21.3498 -78.5562,-23.2392 -23.1804,-12.4907 35.594,19.1296 87.4769,82.965 118.8501,174.3942 -13.1457,92.1463 -12.918,105.9476 -4.8055,53.4026 -0.6177,-81.301 -60.6285,-187.8088 -100.7319,-220.7668 -81.4785,-17.7361 -102.3191,-17.0566 -30.5701,-12.4186 46.3527,19.5815 105.7026,89.7581 136.6536,195.8374 -11.8642,91.8394 -2.3588,102.0309 -10.2147,56.4451 6.5261,-89.0907 -58.7268,-210.0211 -107.3248,-244.9345 -102.5618,-10.2187 -127.55,-5.6711 -39.095,-11.2878 58.7919,18.6828 126.5002,94.872 155.7631,215.3218 0.027,86.3296 20.8122,88.8885 -13.3619,57.1356 12.0626,-94.1127 -57.7767,-229.3625 -116.4893,-265.6735 -124.2569,1.9002 -152.6586,11.5616 -48.4601,-8.7498 72.567,15.9582 149.7146,97.7742 176.2712,231.9884 21.8234,73.7221 52.1067,62.8935 -12.1383,55.7678 13.6491,-96.4455 -60.1621,-245.7922 -130.6462,-282.7114 -145.2616,18.9928 -175.9466,34.8014 -58.2962,-4.5111 87.2259,10.9812 175.041,97.9334 198.2796,245.0277 50.0294,51.5939 84.3146,22.1052 -5.2221,52.5938 9.5997,-96.1691 -67.6482,-259.2804 -151.5163,-295.7456 -164.2222,41.0527 -195.7649,63.7007 -68.1735,1.6367 102.2269,3.4164 202.042,94.8661 221.9031,253.7637 79.4185,18.5204 109.5196,-32.3325 7.4407,47.2442 -0.6231,-92.8181 -80.887,-269.2635 -179.6279,-303.9177 -179.8477,67.6882 -210.665,97.4467 -77.6223,9.7963 116.9611,-6.9497 230.1701,88.175 247.2378,257.7162 104.239,-25.112 121.0351,-96.3106 24.7294,38.7028 -16.45,-85.377 -99.4556,-274.6426 -214.3587,-305.8294 -191.0189,98.1588 -219.5201,134.8559 -86.1587,19.95 130.7821,-20.1849 258.7962,77.5804 274.2917,256.6208 119.3893,-77.0681 114.7606,-163.8531 44.6834,25.7257 -36.4458,-72.6851 -122.0916,-274.189 -254.1756,-299.9674 -196.876,131.4486 -221.6023,174.5021 -93.3157,31.9578 143.0422,-36.2008 287.2437,62.9392 302.9075,250.3893 121.3033,-133.7375 89.6842,-228.5454 64.8822,7.3273 -58.5832,-53.8613 -146.9597,-266.9695 -296.9088,-285.1457 -196.8759,166.3611 -216.612,214.855 -98.6739,45.5635 153.1295,-54.7539 314.8243,44.2537 332.7225,239.044 108.3776,-190.8478 47.5756,-284.7822 82.8072,-16.8741 -80.5349,-28.5734 -171.9352,-252.6157 -340.0453,-260.7909 -190.8144,201.6235 -204.6598,254.41 -101.8891,60.4112 160.5047,-75.4573 340.8741,21.6703 363.1869,222.6684 80.926,-244.1949 -7.8545,-328.5656 96.1458,-46.5094 -99.9676,2.862 -194.8894,-231.422 -381.0266,-227.0537 -178.8147,235.9866 -186.2134,291.7964 -102.7147,76.0696 164.7335,-97.8047 364.7862,-4.534 393.6217,201.3965 40.7963,-290.2351 -71.9674,-357.7998 103.0189,-80.5007 -114.8034,39.5174 -213.9394,-204.3036 -417.513,-184.7779 -161.2893,268.3093 -162.023,325.85491 -101.0155,92.0613 165.5103,-121.2011 386.0377,-33.971 423.2864,175.4284 -9.1746,-326.4498 -140.0925,-372.1694 102.1293,-117.2338 -123.4175,79.9882 -227.6364,-172.6588 -447.5884,-135.3686 -138.8825,297.62154 -133.0357,355.68296 -96.7725,107.8934 162.6728,-144.9981 404.2085,-66.1673 451.4401,145.0492 -65.712,-351.4678 -208.1521,-372.7549 92.8296,-154.7893 -124.7548,122.5737 -235.0741,-138.1812 -469.8843,-80.6086 -112.4044,323.16529 -100.3118,380.6517 -90.0795,123.0889 156.2069,-168.5321 418.9927,-100.5926 477.3902,110.6374 -125.5625,-364.9877 -272.9857,-361.5479 75.1135,-191.1787 -118.3631,165.4707 -235.9156,-102.6602 -483.6237,-22.4561 -82.7631,344.40967 -64.9506,400.39795 -81.1306,137.2116 146.2405,-191.1596 430.2014,-136.6875 500.5279,72.6618 -185.8176,-367.5791 -332.4269,-340.9906 49.5441,-224.548 -104.3549,206.9475 -230.3533,-67.8014 -488.596,37.1381 -50.9021,361.04949 -28.0295,414.80005 -70.2035,149.8899 133.0305,-212.2903 437.7595,-173.8918 520.3535,31.6639 -244.0965,-360.4278 -385.2139,-313.6084 17.1368,-253.3293 -83.3179,245.4821 -219.018,-35.086 -485.0793,96.3807 -17.7491,372.98687 9.4408,423.94275 -57.638,160.8293 116.9414,-231.4114 441.6956,-211.6654 536.4892,-11.7621 -298.6118,-345.0871 -430.8129,-281.7626 -20.7801,-276.3352 -56.1941,279.8537 -202.8623,-5.6777 -473.7344,153.7387 15.8256,380.30382 46.5458,428.0769 -43.8127,169.8224 98.4208,-248.1079 442.1287,-249.5083 548.6843,-56.9956 -348.1495,-323.2656 -469.2183,-247.5115 -62.7078,-292.7973 -24.1519,309.1879 -183.033,19.6215 -455.4867,207.9971 49.0362,383.22805 82.4829,427.57846 -29.1227,176.74832 77.972,-262.07262 439.2516,-286.97252 556.812,-103.41412 -391.9989,-296.6642 -500.7665,-212.5544 -107.1069,-302.3592 11.536,332.9633 -160.7546,40.3748 -431.4129,258.276 81.1975,382.09879 116.565,422.91054 -13.9596,181.56939 56.1267,-273.10919 433.315,-323.67059 560.86,-150.41459 -429.8555,-266.8685 -525.9831,-178.2351 -152.5037,-305.036 49.5956,350.9855 -137.2269,56.4822 -402.6431,304.0158 111.7304,377.33244 148.2158,414.58914 1.3062,184.32273 33.4206,-281.13043 424.6099,-359.27993 560.9177,-197.43293 -461.723,-235.2842 -545.4709,-145.5745 -197.57,-301.1519 88.8319,363.3416 -113.5487,68.1302 -370.2818,344.9416 140.1586,369.3919 176.957,403.15425 16.3373,185.10788 10.3709,-286.14898 413.4531,-393.54248 557.1608,-243.95688 -487.8209,-203.1077 -559.8318,-115.3187 -241.1738,-291.2678 128.1829,370.3423 -90.6648,75.7309 -335.3536,381.0144 166.0997,358.76108 202.392,389.14673 30.8395,184.07392 -12.5411,-288.26512 400.1737,-426.26182 549.8343,-289.53532 -508.507,-171.3227 -569.6203,-87.9882 -282.4054,-276.1088 166.7515,372.4627 -69.3354,79.8584 -298.766,412.38042 189.25,345.92242 224.1852,373.08869 44.5645,181.40484 -34.883,-287.65146 385.1015,-457.29846 539.237,-333.78336 -524.2167,-140.7101 -575.3173,-63.9217 -320.5827,-256.4956 203.8185,370.284 -50.1251,81.1871 -261.2929,439.31823 209.3683,331.34187 242.0409,355.47023 57.3123,177.30724 -56.2795,-284.53677 368.5588,-486.56377 525.706,-376.38377 -535.4164,-111.868 -577.3204,-43.3131 -355.2395,-233.2868 238.8392,364.4439 -33.4077,80.4383 -223.5706,462.19479 226.2565,315.4562 255.6811,336.7367 68.9283,171.99799 -76.4166,-279.19008 350.8525,-514.01388 509.6034,-417.08548 -542.5715,-85.235 -575.9433,-26.2389 -386.105,-207.332 271.4312,355.595 -19.3802,78.3353 -186.1026,481.42599 239.7399,298.66511 264.8236,317.27884 79.2984,165.69436 -95.041,-271.90405 332.2699,-539.64255 491.3059,-455.69995 -546.1251,-61.1124 -571.4226,-12.6787 -413.0757,-179.4357 301.3547,344.372 -8.0845,75.5677 -149.2734,497.44676 249.6487,281.32455 269.163,297.41996 88.344,158.6056 -111.9574,-262.98245 313.0743,-563.47576 471.1947,-492.09586 -546.4844,-39.6873 -563.9264,-2.5292 -436.1852,-150.3345 328.4905,331.3697 0.5674,72.7663 -113.3629,510.68797 255.7989,263.74268 268.3526,277.40172 96.0137,150.92752 -127.0224,-252.72701 293.5036,-585.56559 449.6497,-526.19309 -544.0143,-21.051 -553.5675,4.3864 -455.5741,-120.6812 352.8162,317.127 6.7667,70.4852 -78.5645,521.56058 257.9757,246.17387 261.9925,257.36153 102.2765,142.83806 -140.137,-241.42888 273.7696,-605.98614 427.0447,-557.95634 -539.0356,-5.2164 -540.4158,8.3122 -471.462,-91.0381 374.385,302.1187 10.7827,69.1916 -45.0016,530.44465 255.919,228.81128 249.6241,237.30163 107.1139,134.49521 -151.2375,-229.36075 254.0588,-624.82806 403.7445,-587.38816 -531.8255,7.868 -524.5133,9.5554 -484.1228,-61.8763 393.3057,286.7522 12.9389,69.2618 -12.7431,537.68424 249.3114,211.77398 230.7359,217.04441 110.5132,126.03579 -160.2874,-216.7721 234.5356,-642.19433 380.1039,-614.52293 -522.6212,18.3068 -505.8885,8.4824 -493.8634,-33.5784 409.7254,271.3677 13.5912,70.981 18.1825,543.58417 237.7709,195.08745 204.7864,196.17281 112.4602,117.57576 -167.2667,-203.88546 215.3474,-658.19533 356.468,-639.42013 -511.6244,26.247 -484.5726,5.5137 -501.0061,-6.446 423.8156,256.2419 13.1096,74.5474 47.775,548.41103 220.8507,178.65336 171.2539,173.95483 112.9336,109.2105 -172.1641,-190.89507 196.6301,-672.94393 333.1737,-662.15913 -499.0065,31.8704 -460.615,1.1186 -505.8754,19.2938 435.7614,241.592 11.8629,80.078 76.0525,552.39355 198.0494,162.20757 129.7266,149.2572 111.9003,101.01618 -174.9683,-177.96579 178.5154,-686.55003 310.5522,-682.83323 -484.9151,35.386 -434.1,-4.1939 -508.7879,43.4781 445.7524,227.5826 10.2054,87.6172 103.0435,555.72652 168.8364,145.26286 80.0476,120.45952 109.3099,93.05001 -175.6606,-165.23353 161.1385,-699.11543 288.9315,-701.54433 -469.4788,37.0241 -405.1601,-9.8862 -510.0438,65.9994 453.9768,214.3311 8.4671,97.1453 128.7797,558.57357 132.7032,127.03854 22.5352,85.39563 105.0918,85.35082 -174.2086,-152.80473 144.644,-710.72779 268.6408,-718.39749 -452.8143,37.0299 -373.9909,-15.4076 -509.9235,86.7969 460.6174,201.9146 6.9468,108.5882 153.2912,561.07073 89.2508,106.3799 -41.7108,41.36641 99.1519,77.93804 -170.5609,-140.75626 129.1929,-721.45567 250.0134,-733.49537 -435.031,35.6593 -340.8602,-20.2114 -508.6835,105.8486 465.8486,190.375 5.9059,121.8276 176.6023,563.33 38.3274,81.6803 -110.4202,-14.7086 91.3706,70.80962 -164.6424,-129.13373 114.967,-731.34182 233.3908,-746.93122 -416.2365,33.1726 -306.1147,-23.7773 -506.5555,123.1631 469.8352,179.7255 5.5663,136.7099 198.7277,565.44272 -19.7667,50.82915 -179.7256,-85.90963 81.6019,63.93799 -156.3524,-117.94843 102.1731,-740.39591 219.1255,-758.78111 -396.5402,29.8304 -270.1805,-25.6338 -503.746,138.7731 472.7328,169.9556 6.1083,153.056 219.6705,567.48318 -83.9971,11.22493 -243.8084,-174.61488 69.6734,57.26337 -145.5631,-107.17213 91.046,-748.58565 207.5841,-769.09445 -376.0579,25.8883 -233.5585,-25.3826 -500.4372,152.7303 474.6867,161.0353 7.6713,170.6692 239.4193,569.51079 -152.2411,-40.08577 -294.8226,-281.42448 55.3887,50.68435 -132.1204,-96.72844 81.8496,-755.82534 199.1474,-777.88154 -354.9133,21.5921 -196.8117,-22.7214 -496.7879,165.1 475.8342,152.9194 10.3549,189.34331 257.9469,571.5729 -220.9002,-106.06741 -323.3966,-403.7836 38.532,44.04471 -115.8488,-86.48138 74.8761,-761.96141 194.2091,-785.09841 -333.2402,17.1733 -160.5462,-17.4639 -492.9355,175.957 476.305,145.5514 14.2216,208.86898 275.2086,573.70694 -284.5726,-189.07067 -320.0419,-534.60374 18.8761,37.11641 -96.5585,-76.21916 70.4418,-766.75485 193.1711,-790.62795 -354.4977,36.4918 -119.4188,-8.7576 -476.9569,175.6638"
       style="fill:none;stroke:#000000;stroke-width:0.21922836px;stroke-linecap:butt;stroke-linejoin:miter;stroke-opacity:1"
       inkscape:connector-curvature="0" />
  </g>
</svg>
