<?xml version="1.0" encoding="UTF-8" standalone="no"?>
<!-- Created with Inkscape (http://www.inkscape.org/) -->

<svg
   xmlns:dc="http://purl.org/dc/elements/1.1/"
   xmlns:cc="http://creativecommons.org/ns#"
   xmlns:rdf="http://www.w3.org/1999/02/22-rdf-syntax-ns#"
   xmlns:svg="http://www.w3.org/2000/svg"
   xmlns="http://www.w3.org/2000/svg"
   xmlns:sodipodi="http://sodipodi.sourceforge.net/DTD/sodipodi-0.dtd"
   xmlns:inkscape="http://www.inkscape.org/namespaces/inkscape"
   width="744.09448819"
   height="1052.3622047"
   id="svg2"
   version="1.1"
   inkscape:version="0.48.2 r9819"
   sodipodi:docname="New document 1">
  <sodipodi:namedview
     id="base"
     pagecolor="#ffffff"
     bordercolor="#666666"
     borderopacity="1.0"
     inkscape:pageopacity="0.0"
     inkscape:pageshadow="2"
     inkscape:zoom="0.24748737"
     inkscape:cx="568.58511"
     inkscape:cy="445.73204"
     inkscape:document-units="px"
     inkscape:current-layer="layer1"
     showgrid="false"
     inkscape:window-width="568"
     inkscape:window-height="711"
     inkscape:window-x="712"
     inkscape:window-y="32"
     inkscape:window-maximized="0" />
  <defs
     id="defs4" />
  <metadata
     id="metadata7">
    <rdf:RDF>
      <cc:Work
         rdf:about="">
        <dc:format>image/svg+xml</dc:format>
        <dc:type
           rdf:resource="http://purl.org/dc/dcmitype/StillImage" />
        <dc:title></dc:title>
      </cc:Work>
    </rdf:RDF>
  </metadata>
  <g
     inkscape:label="Layer 1"
     inkscape:groupmode="layer"
     id="layer1">
    <path
       id="path3288"
       d="m 161.57345,570.77561 c 1.57036,-3.64672 1.94604,-2.74441 1.28355,0.2922 -1.00985,4.70325 -3.68835,12.35854 -5.54235,16.38321 -2.49086,5.50119 -2.9982,3.44846 -1.5502,-3.06239 1.93024,-8.43298 6.24718,-20.59 9.2991,-26.611 3.87589,-7.47827 4.55927,-4.23944 1.98422,5.68459 -2.91813,11.6716 -8.83792,28.35319 -12.79968,36.64093 -4.38271,9.47581 -5.18583,4.98949 -2.18156,-8.52462 3.68651,-15.68254 11.32804,-36.9993 16.67729,-46.94345 6.3729,-11.45569 7.36087,-5.77362 2.67929,11.07916 -4.83798,18.44609 -14.06251,44.2955 -20.06363,56.88506 -6.12701,13.51401 -7.23349,6.56456 -2.82364,-13.98485 5.37722,-23.00373 16.38729,-53.53114 24.08198,-67.26287 9.03344,-15.42986 10.32196,-7.28952 3.3695,16.47574 -6.8006,25.09557 -19.35659,60.1311 -27.3423,77.10884 -7.71391,17.56942 -9.13206,8.15157 -3.47741,-19.44245 7.01327,-30.41594 21.42847,-70.16166 31.52146,-87.56287 11.85266,-19.37938 13.43773,-8.77464 4.05556,21.87422 -8.80916,31.62685 -24.72451,75.84535 -34.64379,97.30547 -9.14091,21.62924 -10.87989,9.74252 -4.14379,-24.89669 8.59788,-37.92168 26.45875,-86.88104 39.00395,-107.83723 14.82851,-23.29527 16.70612,-10.22201 4.73816,27.27465 -10.86334,38.04019 -30.17182,91.42961 -41.97618,117.46802 -10.40682,25.68627 -12.47692,11.3322 -4.8237,-30.34679 10.13317,-45.52052 31.48632,-103.6825 46.5377,-128.07976 17.95953,-27.17136 20.12561,-11.626 5.41788,32.67714 -12.9617,44.33433 -35.70408,106.87677 -49.3474,137.58948 -11.5109,29.7348 -13.92363,12.9164 -5.51808,-35.79183 11.62116,-53.21128 36.51971,-120.56035 54.13093,-148.28439 21.24441,-31.00249 23.69479,-12.98144 6.09528,38.08187 -15.10237,50.50757 -41.3266,122.18021 -56.76532,157.66275 -12.45258,33.7697 -15.22095,14.4913 -6.22785,-41.23085 13.06395,-60.9925 41.56771,-137.50935 61.79179,-168.44513 24.68193,-34.78389 27.41219,-14.28331 6.77087,43.48912 -17.28295,56.55802 -47.04438,137.33354 -64.23778,177.68076 -13.23135,37.7863 -16.37001,16.0534 -6.9539,-46.66286 14.46394,-68.86266 46.63927,-154.52456 69.52846,-188.55609 28.27072,-38.51097 31.27622,-15.52667 7.44502,48.89928 -19.50079,62.48378 -52.86193,152.3303 -71.77244,197.63627 -13.84677,41.7797 -17.3722,17.5996 -7.6971,-52.08678 15.82374,-76.82028 51.74345,-171.60115 77.349,-208.61141 32.00944,-42.17928 35.28523,-16.70666 8.1181,54.31277 -21.75295,68.28294 -58.78335,167.16405 -79.37692,217.52192 -14.29841,45.7454 -18.22913,19.1271 -8.45828,-57.50138 17.14621,-84.86388 56.88939,-188.73438 85.26141,-228.60534 35.89669,-45.78448 39.43739,-17.81842 8.79036,59.73013 -24.03618,73.95372 -64.81218,181.82819 -87.05869,237.33039 -14.58587,49.6788 -18.9426,20.633 -9.23823,-62.90544 18.43446,-92.99214 62.08633,-205.91965 93.27365,-248.53229 39.93096,-49.32221 43.73073,-18.85709 9.46199,65.15198 -26.34705,79.49444 -70.95149,196.31625 -94.82515,257.05425 -14.70871,53.5752 -19.51464,22.1151 -10.03766,-68.29774 19.69184,-101.20361 67.34349,-223.1523 101.39354,-268.38654 44.1107,-52.78818 48.16321,-19.81788 10.1331,70.57896 -28.68191,84.90357 -77.20372,210.62132 -102.68353,276.68622 -14.66651,57.4301 -19.94748,23.5711 -10.85726,-73.6771 20.92196,-109.49712 72.67015,-240.42784 109.62884,-288.16261 48.43423,-56.17817 52.73256,-20.69599 10.8037,76.01184 -31.03691,90.17965 -83.57078,224.73667 -110.641,296.21857 -14.45881,61.2391 -20.24353,24.9993 -11.69763,-79.042 22.12863,-117.87142 78.07563,-257.74174 117.9872,-307.85499 52.89982,-59.48795 57.43648,-21.48672 11.47375,81.45141 -33.40806,95.32148 -90.05394,238.65538 -118.70453,315.64398 -14.08514,64.9973 -20.40546,26.3979 -12.55932,-84.3913 23.31585,-126.32538 83.56913,-275.08942 126.4761,-327.45822 57.50571,-62.7134 62.27252,-22.18534 12.14311,86.89851 -35.79124,100.32805 -96.65378,252.37051 -126.88101,334.95481 -13.54493,68.7003 -20.43606,27.7659 -13.44279,-89.7234 24.48787,-134.85806 89.15994,-292.46655 135.10298,-346.96706 62.24998,-65.8504 67.23805,-22.7872 12.81152,92.35408 -38.18214,105.19847 -103.37023,265.87488 -135.17714,354.14338 -12.83761,72.3437 -20.33837,29.1022 -14.34841,-95.0369 25.64907,-143.46839 94.85724,-309.86857 143.87505,-366.3761 67.13064,-68.89482 72.33037,-23.28768 13.4787,97.81905 -40.57649,109.93218 -110.20253,279.16145 -143.59953,373.20225 -11.96252,75.9228 -20.11558,30.4062 -15.27648,-100.3307 26.80406,-152.15526 100.67015,-327.29081 152.79943,-385.67988 72.14565,-71.84265 77.54666,-23.68222 14.14425,103.29447 -42.96989,114.52874 -117.14916,292.22281 -152.15461,392.12371 -10.91888,79.4331 -19.77109,31.6774 -16.22717,-105.6031 27.95752,-160.918 106.6077,-344.72897 161.88305,-404.8734 77.29288,-74.68986 82.88396,-23.96633 14.80765,108.78135 -45.35785,118.98804 -124.20783,305.05175 -160.84865,410.90015 -9.70586,82.8701 -19.30846,32.916 -17.20061,-110.8528 29.11438,-169.75561 112.67892,-362.17842 171.13272,-423.9513 82.57006,-77.43246 88.33918,-24.13552 15.46837,114.28079 -47.736,123.31016 -131.37552,317.64111 -169.68779,429.52401 -8.3225,86.2292 -18.73146,34.1222 -18.19678,-116.0784 30.27959,-178.66737 118.89261,-379.63464 180.55502,-442.90845 87.97489,-80.06655 93.90917,-24.18546 16.12573,119.79386 -50.09987,127.49548 -138.64837,329.98329 -178.67801,447.98759 -6.76772,89.5062 -18.04394,35.2966 -19.21555,-121.2786 31.45829,-187.65227 125.25756,-397.09286 190.15638,-461.73949 93.50498,-82.58825 99.59062,-24.1118 16.779,125.32171 -52.44508,131.5446 -146.02171,342.07118 -187.8251,466.28338 -5.04028,92.6964 -17.24999,36.4402 -20.25673,-126.4521 32.65573,-196.7096 131.78238,-414.54852 199.94304,-480.43933 99.15783,-84.99371 105.38013,-23.9103 17.42739,130.86546 -54.76735,135.45846 -153.49004,353.89737 -197.13473,484.40387 -3.13885,95.7954 -16.35379,37.5542 -21.31999,-131.5975 33.8772,-205.83868 138.47555,-431.99697 209.92105,-499.0029 104.93086,-87.27912 111.27419,-23.57681 18.06997,136.4263 -57.06239,139.23813 -161.04703,365.4547 -206.61234,502.3413 -1.06175,98.7993 -15.35966,38.6402 -22.40489,-136.7135 C 137.3741,498.67405 247.59138,264.2793 322.34222,196.28774 433.16364,106.84697 439.61144,173.1805 341.048,338.29312 281.72191,481.17819 172.36253,715.02905 124.78475,858.38145 c 1.19259,101.7035 -14.27207,39.7 -23.51087,-141.7991 C 137.6878,492.27387 253.67401,249.72963 331.7481,180.88225 448.5749,89.407275 455.10958,158.38467 351.0819,328.48609 289.52747,474.88702 174.68449,716.22025 124.98931,866.12355 c 3.62621,104.5039 -13.09556,40.7357 -24.63728,-146.8529 37.74017,-233.64772 159.64774,-484.25042 241.06045,-553.82352 122.94411,-93.378075 129.54717,-21.7439 19.95287,153.22289 -63.74359,149.7877 -184.17398,398.44253 -236.10527,554.98113 6.24113,107.1967 -11.83483,41.75 -25.783376,-151.8738 C 138.58912,478.722 266.57276,220.15608 351.33681,149.98751 480.50727,54.841025 487.1592,129.14515 371.89862,308.85118 306.00879,461.89868 179.89307,717.70565 125.59258,880.96315 134.63241,990.74135 115.09796,923.70855 98.644294,724.10245 139.18056,471.57191 273.39704,205.14213 361.52247,134.50855 497.02532,37.731855 503.70556,114.71933 382.68183,299.03588 314.6922,455.21867 182.80011,717.99965 125.98235,888.05865 138.0072,1000.3033 116.90263,931.78335 97.851334,726.24585 139.86871,464.1735 280.47659,189.98355 371.97074,119.01545 513.90895,20.750225 520.596,100.4346 393.71495,289.23044 323.67526,448.4267 185.92354,717.99475 126.42503,894.93645 141.62388,1009.5293 118.82988,939.62765 97.094494,728.20765 140.65585,456.52776 287.81534,174.68551 382.68282,103.5134 531.15617,3.9047451 537.82745,86.299765 404.99775,279.4412 332.96089,441.53196 189.27495,717.69205 126.91624,901.59585 145.48117,1018.4156 120.8705,947.24395 96.370564,729.98775 141.54447,448.63564 295.41712,159.25339 393.65977,88.007695 548.76482,-12.795985 555.39673,72.323535 416.52986,269.67454 342.55164,434.54392 192.86637,717.09265 127.45173,908.03575 149.57788,1026.9589 123.01515,954.63495 95.676494,731.58615 142.53714,440.4982 303.28572,143.69255 404.9026,72.503605 566.73256,-29.343375 573.30051,58.514545 428.31076,259.9368 352.44972,427.47222 196.71013,716.19845 128.02728,914.25555 153.91316,1035.1561 125.2545,961.80355 95.009354,733.00295 143.63661,432.11657 311.42484,128.00851 416.41219,57.006465 585.0569,-45.728915 591.5352,44.881385 440.33979,250.23433 362.65689,420.3267 200.81889,715.01205 128.63877,920.25435 158.48635,1043.0052 127.57943,968.75275 94.366374,734.23795 144.84571,423.49191 319.83809,112.20694 428.18933,41.521585 603.7351,-61.944115 610.09705,31.432565 452.61609,240.57348 373.17456,413.11737 205.2054,713.53655 129.28227,926.03145 163.29699,1050.5046 129.98071,975.48585 93.744904,735.29135 146.16742,414.6255 328.52899,96.293485 440.23473,26.054355 622.76423,-77.980465 628.98222,18.176465 465.1387,230.9606 384.00378,405.85436 209.88252,711.77605 129.95383,931.58615 c 38.39085,126.06765 2.49538,50.42 -36.811346,-195.4231 C 147.60483,405.51865 337.501,80.273955 452.54896,10.610155 642.14138,-93.829695 648.18653,5.1214451 477.90647,221.40201 395.14518,398.54796 214.86295,709.73525 130.64987,936.91775 173.6291,1064.4529 134.97602,988.31725 92.556724,736.85295 149.16112,396.17276 346.75747,64.154275 465.13252,-4.8056049 661.86315,-109.48329 667.70573,-7.7242049 490.91813,211.90402 406.59902,391.20851 220.15921,707.41995 131.36692,942.02555 c 7.89423,63.07135 23.00712,94.85505 24.3312,94.90615"
       style="fill:none;stroke:#000000;stroke-width:1px;stroke-linecap:butt;stroke-linejoin:miter;stroke-opacity:1"
       inkscape:connector-curvature="0" />
  </g>
</svg>
