<?xml version="1.0" encoding="UTF-8" standalone="no"?>
<!-- Created with Inkscape (http://www.inkscape.org/) -->

<svg
   xmlns:dc="http://purl.org/dc/elements/1.1/"
   xmlns:cc="http://creativecommons.org/ns#"
   xmlns:rdf="http://www.w3.org/1999/02/22-rdf-syntax-ns#"
   xmlns:svg="http://www.w3.org/2000/svg"
   xmlns="http://www.w3.org/2000/svg"
   xmlns:sodipodi="http://sodipodi.sourceforge.net/DTD/sodipodi-0.dtd"
   xmlns:inkscape="http://www.inkscape.org/namespaces/inkscape"
   inkscape:version="0.48.2 r9819"
   version="1.1"
   id="svg2"
   height="1052.3622047"
   width="744.09448819"
   sodipodi:docname="New document 1">
  <sodipodi:namedview
     id="base"
     pagecolor="#ffffff"
     bordercolor="#666666"
     borderopacity="1.0"
     inkscape:pageopacity="0.0"
     inkscape:pageshadow="2"
     inkscape:zoom="0.49497475"
     inkscape:cx="382.2326"
     inkscape:cy="707.17222"
     inkscape:document-units="px"
     inkscape:current-layer="layer1"
     showgrid="false"
     inkscape:window-width="1014"
     inkscape:window-height="636"
     inkscape:window-x="66"
     inkscape:window-y="66"
     inkscape:window-maximized="0" />
  <defs
     id="defs4" />
  <metadata
     id="metadata7">
    <rdf:RDF>
      <cc:Work
         rdf:about="">
        <dc:format>image/svg+xml</dc:format>
        <dc:type
           rdf:resource="http://purl.org/dc/dcmitype/StillImage" />
        <dc:title></dc:title>
      </cc:Work>
    </rdf:RDF>
  </metadata>
  <g
     inkscape:label="Layer 1"
     inkscape:groupmode="layer"
     id="layer1">
    <path
       style="stroke-linejoin:miter;stroke-opacity:1.0;fill-opacity:1.0;stroke:#000000;stroke-linecap:butt;stroke-width:1.0px;fill:none"
       d=""
       id="path3534" />
    <path
       id="path3550"
       d=""
       style="stroke-linejoin:miter;stroke-opacity:1.0;fill-opacity:1.0;stroke:#000000;stroke-linecap:butt;stroke-width:1.0px;fill:none" />
    <path
       style="stroke-linejoin:miter;stroke-opacity:1.0;fill-opacity:1.0;stroke:#000000;stroke-linecap:butt;stroke-width:1.0px;fill:none"
       d=""
       id="path3568" />
    <path
       id="path3588"
       d=""
       style="stroke-linejoin:miter;stroke-opacity:1.0;fill-opacity:1.0;stroke:#000000;stroke-linecap:butt;stroke-width:1.0px;fill:none" />
    <path
       sodipodi:nodetypes="cssssssssssssssssssssssssssssssssssssssssssssssssssssssssssssssssssssssssssssssssssssssssssssssssssssssssssssssssssssssssssssssssssssssssssssssssssssssssssssssc"
       inkscape:connector-curvature="0"
       id="path5821"
       d="m 64.673595,240.65212 c -1.314364,3.55142 4.068995,174.104 4.159934,174.6197 0.118551,0.75262 -12.765989,-151.36295 -10.926913,-157.82074 2.890421,-8.8866 9.650249,-24.89163 13.116036,-31.67122 4.83087,-8.61341 5.24207,-8.47338 -0.06283,2.02147 -5.649976,13.02835 8.862791,205.77054 7.960671,205.20385 -1.239558,-0.95066 -28.440276,-146.19192 -25.177507,-162.64976 5.523417,-19.1573 17.777324,-46.76679 24.897028,-58.83127 9.217585,-13.49691 11.212128,-15.09583 -0.426422,3.57209 C 67.63335,236.78674 92.806674,450.78993 90.627264,449.31773 87.73541,447.00812 47.445557,309.84921 50.445621,283.17238 57.889036,253.50299 76.065254,214.46976 87.402383,197.64273 101.92237,179.89966 105.92884,176.81863 86.453686,202.61754 70.245032,232.35713 107.38264,466.10766 103.77021,464.06809 98.892623,460.6745 46.924793,332.68231 47.974277,295.84247 56.675495,255.41082 81.205862,205.27443 97.29871,184.2308 c 20.64552,-21.20045 27.06956,-25.43411 -1.606512,6.21917 -22.530899,37.13046 27.582022,288.92667 22.461962,286.68741 -7.17743,-4.16079 -69.323358,-122.10271 -71.868833,-168.82577 9.332957,-51.407 40.678919,-112.25979 62.024543,-136.9274 27.49478,-23.74825 36.70314,-28.72745 -2.3758,7.29755 -29.527138,43.79996 34.26863,311.81615 27.64096,309.74836 -9.75685,-4.55895 -80.529039,-111.77732 -88.242666,-167.89886 9.377151,-62.55562 48.02965,-133.68183 75.076146,-161.33256 34.95586,-25.28077 47.26262,-30.52369 -3.23205,8.20545 -37.166956,49.68094 40.71067,332.00753 32.64618,330.47056 C 137.25145,493.33758 59.427187,397.3057 45.066825,332.45831 53.943009,258.61814 100.41867,177.71636 133.55892,147.76925 c 42.90428,-25.70596 58.55764,-30.66201 -4.15062,8.94134 -45.410368,54.70578 46.63973,349.38398 37.27504,348.71318 C 151.11623,501.37476 88.498932,447.84436 45.438525,344.05518 71.703124,214.93642 108.15091,168.70403 147.71703,137.18933 c 51.20386,-24.94626 70.37355,-29.00411 -5.10721,9.50688 -54.207807,58.80772 51.80164,363.86176 41.33309,364.3577 -18.68392,-3.0548 -74.80526,-40.34192 -136.831932,-150.05688 24.382437,-147.29608 69.461172,-201.1306 115.719392,-233.44691 59.70837,-22.93964 82.47423,-25.43756 -6.07822,9.9068 -63.500229,61.92225 55.96074,375.38925 44.63673,377.30853 C 179.53431,513.2429 132.47221,489.34706 49.95709,377.00981 71.823995,211.54433 125.69211,151.26002 178.83814,118.93983 247.10088,99.298985 273.4431,99.060984 171.79708,129.0886 98.577809,193.0768 230.70096,513.03427 218.81344,516.58169 193.80688,517.15265 157.68081,503.52679 53.79441,392.02871 72.723072,208.47542 135.51647,142.94352 195.67139,111.4429 272.37677,96.420461 302.16682,99.166738 187.69667,121.68623 104.40937,186.6351 248.14103,511.2256 236.01575,516.54798 207.95165,519.78727 183.94861,513.18095 58.443936,406.01271 74.230867,204.51142 146.04649,134.97777 213.2533,105.13923 c 84.86957,-9.075591 117.86391,-2.61175 -8.8601,10.20369 -93.61783,64.75307 60.42493,392.20601 48.41105,399.3876 -30.94869,6.48597 -42.30984,3.65159 -189.071354,-95.788 12.66607,-219.26384 93.545834,-291.51719 167.766384,-318.83901 92.58594,-1.810903 128.42138,9.09603 -9.68026,10.04542 -104.11581,63.35633 58.72057,392.00635 47.17972,401.06598 C 235.41792,521.5189 236.59447,519.33192 69.496791,430.81784 79.289564,194.01352 169.20472,120.3503 250.31745,96.404402 c 99.68451,6.741278 137.876,22.791378 -10.42073,9.786278 -114.67838,60.72189 55.24046,389.0238 44.53559,399.91384 C 248.55075,520.78035 261.60235,516.34348 75.581198,441.65484 82.974167,187.56365 181.81051,113.81783 269.60909,94.103932 375.60577,110.63442 415.54675,132.48394 258.53911,103.54968 133.34383,160.37153 308.46886,486.91159 298.95314,499.51856 261.17905,519.09207 284.96472,509.821 81.842756,451.48319 87.532419,180.38904 195.07692,107.89371 289.26893,93.256733 400.6269,120.74304 441.5921,148.98567 277.64942,102.30151 c -135.54973,51.63812 42.77047,375.14163 34.77652,389.28873 -39.18531,24.9589 -6.19372,8.64741 -224.275853,-31.24666 C 93.05018,172.56362 208.97854,102.64401 309.18596,93.909446 424.79559,133.42792 465.94672,168.57615 297.12182,102.51473 151.50238,147.6782 330.90359,467.0135 324.7331,482.46445 284.68621,513.24876 325.06559,488.11273 94.38398,468.28491 99.617581,164.17642 223.48435,98.134504 329.24391,96.100117 c 118.60155,52.517483 158.99557,94.984293 -12.40208,8.149753 -155.27763,37.40235 23.0195,351.58096 18.93382,368.04582 -40.29705,36.99321 5.46168,1.69317 -235.33807,3.06619 6.88903,-320.029 138.11936,-380.931665 248.88423,-375.504226 120.19405,66.355276 158.79447,116.436766 -12.63506,7.700756 -164.39399,28.37172 10.57562,336.54528 8.78728,353.68723 -39.88155,43.5212 9.15448,-2.83525 -239.25811,20.38694 10.0526,-335.47665 147.93684,-390.03774 263.07914,-376.4313 120.26006,80.88635 155.95063,138.74532 -12.76857,7.28051 -172.83637,18.10175 -3.42342,319.5555 -2.7581,336.99917 -38.75493,50.29705 11.45405,-7.57723 -242.13269,37.6756 14.89491,-350.36955 158.58617,-397.466349 277.40003,-375.01641 118.68763,95.94888 150.28846,161.60022 -12.81128,6.91031 -180.47189,6.63644 -18.81895,300.77966 -15.60566,318.12026 -36.8815,57.24422 12.47537,-12.21055 -243.99443,54.82191 C 138.19291,127.38657 286.70805,88.77566 408.41372,120.67294 523.79496,232.0392 550.08149,305.33715 395.63806,127.28302 208.46975,121.31697 360.21609,407.67101 366.00508,424.48435 331.7689,488.76632 378.39817,408.02196 121.11948,496.1973 151.32465,118.13424 303.54884,88.907457 427.29774,130.78755 537.56156,257.73636 557.28516,338.36399 414.62042,137.18546 221.82426,117.55235 361.60329,395.73609 369.92633,411.58921 339.12171,482.91624 381.35334,391.47176 125.06785,499.82329 165.98027,109.22857 320.67563,90.138171 445.5558,142.46082 548.83439,284.9565 560.745,372.41797 433.02099,148.75038 235.79116,114.47295 361.65558,384.18654 372.40061,398.64845 345.81603,476.94366 382.2281,375.6259 128.42476,502.91819 182.19543,100.88612 338.0136,92.516051 463.05641,155.65847 557.44663,313.45535 560.31698,407.0709 450.68667,161.95639 250.33737,112.1591 360.47871,373.16625 373.46339,385.81893 351.87854,470.92195 381.32428,360.73111 131.15317,505.5235 199.98268,93.340029 355.48233,96.084361 479.66961,170.3349 c 83.58608,172.63566 76.23707,271.53992 -12.20605,6.43276 -202.04217,-66.07665 -109.27064,186.03262 -94.2964,196.48171 -15.82623,91.6693 5.79497,-26.28457 -239.94435,134.42419 86.10473,-420.835892 239.77306,-406.79273 362.04485,-321.24028 70.87748,186.7908 52.20399,289.93441 -12.06951,6.70021 C 280.9928,110.14781 354.93011,353.19355 371.57952,361.07851 362.23904,458.99529 375.46706,334.43854 134.60984,509.39502 240.18454,81.637785 390.46302,106.93697 509.72636,203.88559 566.02606,403.9248 535.02364,510.07954 497.73853,210.98808 296.99236,110.60662 350.83078,344.42989 368.782,349.43357 366.61162,453.20738 371.157,323.20398 135.29603,510.7062 262.47296,78.006609 407.78794,114.27756 522.92584,222.61283 562.83915,434.77138 518.6299,542.53889 510.9363,230.25038 313.35127,112.14166 346.0408,336.57181 364.86834,338.4289 c 5.6312,109.17568 1.4649,-25.16784 -229.59961,173.18788 150.80535,-435.40337 289.60171,-388.69681 399.4827,-269.09156 21.80385,222.92991 -36.33786,330.75415 -12.10357,8.29899 -192.65616,-136.00105 -181.93908,78.83611 -162.7053,77.3406 14.00233,114.06606 1.33033,-23.59737 -225.42221,183.96267 C 310.82806,76.525004 441.60659,132.87369 545.095,263.52262 547.17654,495.66319 474.55337,601.84638 532.73588,272.59839 346.8264,118.71626 334.98264,323.71553 354.11722,318.72668 376.99015,437.12485 356.22416,297.04892 133.04867,512.23012 336.53165,79.199809 457.88951,144.13985 553.85551,285.49489 534.73699,525.08161 447.2828,627.80383 541.07119,295.44712 363.75911,123.87995 329.00738,318.73746 347.51115,310.18425 379.67726,432.32011 351.40393,290.61001 130.85664,511.90752 362.93717,84.48095 473.60966,156.71066 560.94019,308.32251 519.30244,553.39869 416.88771,650.74065 547.53391,319.2305 380.6846,130.36592 322.92204,314.70724 340.24781,302.59122 382.04702,427.84561 346.99724,285.144 127.95296,511.13385 389.75235,92.589101 488.65588,170.56911 566.2652,331.87706 500.97084,580.30818 383.70414,670.27742 552.01546,343.79524 397.48952,138.21741 316.85769,311.58876 332.45292,295.98512 384.13861,423.7262 343.15844,280.54244 124.35227,509.87483 416.64102,103.71463 502.91598,185.68855 569.7568,356.02206 479.87129,605.51258 348.11441,686.07216 554.41973,368.97542 414.05252,147.46805 310.93519,309.33059 324.25251,290.38733 385.98888,419.98297 340.0134,276.70346 120.076,508.08836 443.22553,118.00977 516.27765,202.03245 571.35179,380.6136 456.16376,628.72641 310.54319,697.82626 554.66445,394.59363 430.24525,158.14076 305.26377,307.86817 315.77103,285.80345 387.6319,416.63379 337.6624,273.53863 115.15289,505.72516 469.09018,135.58052 528.62935,219.55409 570.99829,405.50121 430.0376,649.67925 271.45221,705.28963 552.68283,420.46207 445.9331,170.24672 299.93955,307.12626 307.12913,282.22384 389.09864,413.69375 336.1832,270.97868 109.61974,502.72949 493.78649,156.47898 539.86112,238.19652 568.65674,430.5289 401.7102,668.11898 231.33493,708.26555 548.42467,446.38388 460.97637,183.78431 295.0446,307.0217 298.44224,279.62448 390.41644,411.17558 335.63321,268.97749 103.5225,499.0404 516.83938,180.69573 549.86562,257.89243 564.29998,455.5359 371.42534,683.81445 190.71037,706.61419 541.85724,472.15465 475.2311,198.73812 290.64676,307.4662 289.81846,277.96789 391.60913,409.08999 336.05185,267.51487 96.91691,494.59272 45.55901,217.58442 88.335038,167.69032 260.96207,81.129322"
       style="fill:none;stroke:#000000;stroke-width:0.37926844px;stroke-linecap:butt;stroke-linejoin:miter;stroke-opacity:1" />
  </g>
</svg>
