<?xml version="1.0" encoding="UTF-8" standalone="no"?>
<!-- Created with Inkscape (http://www.inkscape.org/) -->

<svg
   xmlns:dc="http://purl.org/dc/elements/1.1/"
   xmlns:cc="http://creativecommons.org/ns#"
   xmlns:rdf="http://www.w3.org/1999/02/22-rdf-syntax-ns#"
   xmlns:svg="http://www.w3.org/2000/svg"
   xmlns="http://www.w3.org/2000/svg"
   xmlns:sodipodi="http://sodipodi.sourceforge.net/DTD/sodipodi-0.dtd"
   xmlns:inkscape="http://www.inkscape.org/namespaces/inkscape"
   sodipodi:docname="spiral052.svg"
   inkscape:version="0.48.2 r9819"
   version="1.1"
   id="svg3783"
   height="1052.3622047"
   width="744.09448819">
  <sodipodi:namedview
     id="base"
     pagecolor="#ffffff"
     bordercolor="#666666"
     borderopacity="1.0"
     inkscape:pageopacity="0.0"
     inkscape:pageshadow="2"
     inkscape:zoom="0.175"
     inkscape:cx="1466.9593"
     inkscape:cy="948.67873"
     inkscape:document-units="px"
     inkscape:current-layer="layer1"
     showgrid="false"
     inkscape:window-width="1024"
     inkscape:window-height="749"
     inkscape:window-x="-4"
     inkscape:window-y="-4"
     inkscape:window-maximized="1" />
  <defs
     id="defs3785">
    <inkscape:perspective
       sodipodi:type="inkscape:persp3d"
       inkscape:vp_x="-314.90439 : 155.3937 : 0"
       inkscape:vp_y="0 : 1000 : 0"
       inkscape:vp_z="372.04724 : 175.3937 : 0"
       inkscape:persp3d-origin="334.90438 : 296.50168 : 1"
       id="perspective3823" />
  </defs>
  <metadata
     id="metadata3788">
    <rdf:RDF>
      <cc:Work
         rdf:about="">
        <dc:format>image/svg+xml</dc:format>
        <dc:type
           rdf:resource="http://purl.org/dc/dcmitype/StillImage" />
        <dc:title></dc:title>
      </cc:Work>
    </rdf:RDF>
  </metadata>
  <g
     inkscape:label="Layer 1"
     inkscape:groupmode="layer"
     id="layer1">
    <flowRoot
       xml:space="preserve"
       id="flowRoot3475"
       style="fill:black;stroke:none;stroke-opacity:1;stroke-width:1px;stroke-linejoin:miter;stroke-linecap:butt;fill-opacity:1;font-family:Sans;font-style:normal;font-weight:normal;font-size:40px;line-height:125%;letter-spacing:0px;word-spacing:0px"><flowRegion
         id="flowRegion3477"><rect
           id="rect3479"
           width="474.7717"
           height="76.771591"
           x="40.406101"
           y="840.23016" /></flowRegion><flowPara
         id="flowPara3481" /></flowRoot>    <path
       id="path3341-1"
       d="m 394.79656,637.29176 c 1.25935,-1.63425 5.60154,-7.60632 8.82819,-12.28783 4.76313,-7.33527 6.00296,-9.41294 3.57585,-5.58927 -3.24329,4.86517 -10.81279,15.52494 -15.89102,22.23651 -5.92497,7.44604 -7.19132,9.11233 -3.80169,5.08063 4.22196,-5.22905 14.48796,-19.18283 22.35618,-31.32192 9.03665,-16.52716 11.01729,-20.89011 5.53961,-9.99422 -6.79862,11.57148 -20.92346,31.91316 -29.68618,43.09417 -9.02955,10.46722 -10.81469,12.57774 -4.87703,6.30036 6.66594,-7.79664 22.67886,-29.33921 35.10069,-49.94254 11.88748,-27.80133 13.94554,-34.97181 7.01638,-15.2983 -9.77293,19.59577 -30.48654,50.2248 -42.58413,65.10198 -12.7385,12.8926 -15.46539,15.40973 -6.01408,7.23925 9.10335,-9.79986 30.57302,-38.40129 47.23155,-68.47259 12.0723,-40.41562 13.14568,-50.49559 7.55245,-21.32201 -11.59436,28.77934 -38.76449,70.19092 -54.06607,88.17328 -18.27663,15.11068 -22.68076,18.00418 -7.69766,8.10698 12.14453,-11.54586 38.84719,-46.71252 59.17076,-87.16184 8.83132,-53.11269 7.87332,-65.52925 6.76733,-27.73279 -11.73867,38.74415 -45.10456,91.34911 -63.78383,112.01397 -26.43738,17.0256 -33.29868,20.07106 -10.32695,8.98089 16.33575,-13.18315 48.192,-54.4876 71.37762,-106.07452 2.39821,-64.23136 -0.7708,-77.68021 4.45462,-34.04856 -9.86674,48.91999 -49.05909,113.03934 -71.62438,136.09368 -37.4676,18.10869 -47.44033,20.79927 -14.11248,9.77778 22.01817,-14.66099 59.14439,-61.74808 84.20613,-125.03208 -5.38295,-72.12025 -8.88921,-85.05304 0.70269,-39.67299 -5.96441,58.5851 -50.5291,134.44304 -77.79551,159.65986 -51.18855,17.58341 -64.69784,19.1395 -19.09107,10.28718 29.31475,-15.75489 72.04481,-68.32887 97.88337,-143.62875 -10.82663,-75.89048 -10.63909,-87.25704 -3.95774,-43.98167 -0.50874,66.95842 -49.93284,154.67683 -82.96146,181.82061 -67.10462,14.60721 -84.26866,14.04758 -25.17713,10.22779 38.17547,-16.12707 87.05526,-73.92358 112.54609,-161.28909 -9.7712,-75.63772 -1.94268,-84.0313 -8.41269,-46.48743 5.37481,73.37392 -48.36661,172.97059 -88.39128,201.7248 -84.46855,8.41599 -105.04849,4.67064 -32.19813,9.29648 48.42023,-15.3869 104.18389,-78.13531 128.28443,-177.33617 0.0222,-71.09992 17.14065,-73.2074 -11.00469,-47.05613 9.9346,77.50997 -47.58412,188.89992 -95.93904,218.80518 -102.33634,-1.56498 -125.72761,-9.52198 -39.9111,7.20621 59.76522,-13.14296 123.30297,-80.52553 145.17462,-191.06257 17.97347,-60.71654 42.9144,-51.79825 -9.99693,-45.92962 11.24121,79.43123 -49.54872,202.43121 -107.59848,232.83736 -119.63554,-15.64221 -144.90729,-28.66196 -48.01198,3.71528 71.8381,-9.04396 144.16144,-80.65664 163.30044,-201.80156 41.20356,-42.49205 69.44039,-18.20555 -4.30085,-43.31555 7.90619,79.20358 -55.71415,213.5399 -124.78681,243.57215 -135.25124,-33.81046 -161.22938,-52.46305 -56.1468,-1.34797 84.19273,-2.8137 166.39913,-78.13046 182.75646,-208.99641 65.40803,-15.25317 90.19889,26.62861 6.12806,-38.9097 -0.51317,76.44375 -66.61746,221.76185 -147.93916,250.30259 -148.12018,-55.7471 -173.5009,-80.25581 -63.9287,-8.0681 96.32762,5.72367 189.56506,-72.61976 203.62179,-212.25165 85.84985,20.68191 99.6829,79.32013 20.3668,-31.87511 -13.54801,70.31536 -81.91032,226.192 -176.54298,251.87703 C 112.85999,612.69254 89.386789,582.46929 199.22147,677.10427 306.93188,693.72828 412.36259,613.21008 425.12448,465.75478 523.45193,529.22705 519.63979,600.70203 461.92513,444.56743 431.90885,504.42992 361.37211,670.38586 252.58948,691.61661 90.445009,583.35728 70.080759,547.89899 175.7359,665.29659 293.54356,695.11109 412.30601,613.4607 425.20651,459.07928 525.1103,569.22371 499.06923,647.30625 478.64263,453.04461 430.39428,497.40407 357.60857,672.91715 234.11247,687.88683 71.968099,550.87404 55.713709,510.9351 152.84595,650.36134 278.96138,695.45592 412.13108,613.91458 426.8718,453.48787 516.13016,610.66758 466.05443,688.03072 495.07072,467.38516 428.74324,490.91782 353.46716,675.4361 215.01391,682.16909 57.861699,516.11464 46.45881,472.64038 131.09939,632.41522 263.28894,694.56085 411.83879,614.56784 430.21532,449.02847 496.8649,650.14416 423.74645,719.63075 509.39973,487.333 427.06773,484.97589 348.8914,677.92909 195.59127,674.33142 48.321844,479.97599 42.228369,434.01177 110.99679,611.68151 c 135.67234,80.55065 300.43308,3.73414 324.18162,-165.86749 33.5993,239.03378 -59.27139,294.67917 84.84501,66.29931 C 425.47286,479.56732 343.82576,680.37507 176.16523,664.29396 43.329509,443.31797 42.725244,395.92417 92.970219,588.47349 229.2823,688.29311 410.90575,616.45155 441.58328,443.99298 434.0272,712.85271 326.20495,750.50677 525.69562,540.54519 424.05061,474.66797 338.2173,682.74469 157.06775,652.03297 42.68596,406.91582 47.501306,359.0972 77.367199,563.1734 211.34236,682.59191 410.26796,617.66792 449.16728,443.7128 395.04775,733.17702 277.73597,750.7088 525.62052,571.19521 422.87411,470.24514 332.01659,684.99942 138.63003,637.5834 46.055254,371.42874 56.014549,324.08369 64.441739,536.209 193.09167,675.00981 409.51859,619.05574 457.61399,445.0895 354.20238,745.68854 232.78658,742.85557 519.47647,602.54176 421.99419,466.26228 325.17951,687.09133 121.17039,621.0363 53.007809,337.38505 67.677949,291.27385 54.352309,508.03064 174.79405,665.46716 408.66048,620.60465 466.58046,448.18734 313.54355,750.92062 192.79807,729.02269 507.38432,633.1221 421.43901,462.68289 317.6684,688.96244 104.98313,602.53565 63.060839,305.18008 81.898409,260.91183 47.164458,479.08832 156.72661,653.9278 407.69738,622.3033 475.72071,453.01035 274.68607,749.85391 158.46364,711.29408 489.83435,661.64901 421.21484,459.4732 309.45402,690.54537 90.329469,582.27114 75.711539,275.0841 98.104779,233.1175 42.859568,449.81426 139.17096,640.40162 406.63421,624.13908 484.70497,459.50137 238.77224,743.71053 129.89317,691.55731 467.59076,687.08738 421.31004,456.60358 300.51605,691.76345 77.429379,560.47022 90.463129,247.25704 115.76388,207.91176 41.345817,420.60674 122.40389,624.94513 405.47716,626.09847 493.23494,467.54756 206.50362,733.78483 106.79296,671.39476 441.58963,708.69154 421.69844,454.04848 290.84608,692.53153 66.456809,537.38789 106.84238,221.76634 134.38864,185.23993 42.471742,391.82031 106.68845,607.65985 404.23354,628.16708 501.05473,476.99081 178.20963,721.31951 88.630079,652.04779 412.84291,726.00984 422.34381,451.78568 280.44754,692.75769 57.536959,513.29715 124.41014,198.60565 153.53834,164.99363 46.040014,363.75901 92.265229,588.68811 402.91251,630.32981 507.95689,487.63847 153.93358,707.42783 74.764169,634.43054 382.35686,738.86208 423.20314,449.79507 269.3386,692.34408 50.745329,488.47869 142.765,177.71269 172.8139,147.02856 51.821099,336.67294 79.345859,568.20823 401.52419,632.57113 513.78549,499.27608 133.51654,693.05303 64.542889,619.16931 351.06946,747.30079 424.23023,448.05746 257.55224,691.18966 46.110269,463.21146 161.54303,158.98519 191.84971,131.17896 59.565449,310.75906 68.106789,546.42757 400.07994,634.87544 518.43571,511.67872 116.67287,678.95553 57.365649,606.65368 319.80816,751.56302 425.3779,446.55401 245.13783,689.19205 43.61538,437.76461 180.41289,142.29374 210.30275,117.26852 69.014379,286.16376 58.685699,523.5751 398.59214,637.22735 521.85063,524.62122 103.051,665.72033 52.718889,597.08714 289.26528,752.02077 426.59961,445.26542 232.16156,686.25045 43.205564,412.38972 199.06935,127.4926 227.84152,105.11881 79.908289,262.9871 51.179119,499.89303 397.07278,639.61205 524.01674,537.88665 92.278809,653.77362 50.193039,590.53171 259.98907,749.13303 427.85129,444.17204 218.70671,682.26841 44.791709,387.31635 217.22466,114.42758 244.13339,94.55578 91.993349,241.28846 45.64231,475.62917 395.5335,642.01593 524.95786,551.27315 83.995999,643.40615 49.484429,586.94524 232.38731,743.40506 429.09211,443.25389 204.87317,677.15715 48.257524,362.74756 234.59938,102.94201 258.83308,85.41567 105.02596,221.09229 42.090259,451.02954 393.98342,644.42732 524.72857,564.59837 77.873869,634.79678 50.389299,586.20838 206.73761,735.35426 430.28474,442.49092 190.77633,670.83834 53.465959,338.85819 250.91258,92.88156 271.57117,77.55154 118.77508,202.39451 40.500568,426.33108 392.42817,646.83696 523.40811,577.70295 73.626719,628.03432 52.792029,588.14496 183.20443,725.48382 431.39618,441.8636 176.54614,663.24726 60.264849,315.79326 265.8722,84.09808 281.94392,70.84212 133.02379,185.16778 40.817158,401.75664 390.86763,649.23895 521.0935,590.45141 71.016199,623.13735 56.651189,592.53443 161.85715,714.26492 432.39757,441.35322 162.32445,654.33556 68.492969,293.66907 279.16556,76.45409 289.50461,65.20469 147.56857,169.36717 42.954608,377.50978 389.29426,651.63123 517.89411,602.73283 69.851139,620.07014 61.983259,599.12024 142.68932,702.12426 433.26407,440.94267 148.26229,644.07358 77.984639,272.57387 290.45001,69.82834 293.7582,60.61433 162.21821,154.93434 46.803232,353.77197 387.69122,654.0165 513.92657,614.4598 69.983989,618.75595 68.847279,607.61397 125.63671,689.43756 433.97524,440.6166 134.5172,632.45228 88.573989,252.57037 299.34549,64.12443 294.16109,57.1319 176.79157,141.8019 52.234379,330.70038 386.03104,656.40202 509.3102,625.56701 71.305769,619.08703 77.327999,617.69731 110.59307,676.52752 434.51444,440.3622 121.24938,619.48441 100.09803,233.6979 305.4276,59.28365 290.12906,54.943 191.11523,129.89648 59.104649,308.42712 384.27564,658.79923 504.16377,636.00943 73.739879,620.9322 87.520709,629.02345 97.424419,663.66416 434.86882,440.16932 108.61795,605.20515 112.39928,215.97544 308.22424,55.30399 281.05865,54.4101 205.02001,119.1416 67.261379,287.05897 382.37728,661.22255 498.60233,645.75954 77.235259,624.14286 99.514759,641.21854 85.980349,651.06839 435.02927,440.03095 96.777239,589.67214 125.3272,199.40433 307.21692,52.26778 266.36965,56.13744 218.33783,109.46001 76.545749,266.67866 380.27977,663.68771 492.73527,654.8055 81.760129,628.55746 113.37886,653.88424 76.102999,638.91538 434.99031,439.94341 85.873119,572.96419 138.73882,183.97136 301.84969,50.37936 245.57993,61.04511 230.89843,100.77578 86.796859,247.34605 377.92135,666.20929 486.66511,663.14818 87.295449,634.00474 129.1461,666.60222 67.634129,627.3402 434.74991,439.90618 76.039169,555.17983 152.49939,169.65119 291.55082,50.01463 218.42553,70.44233 242.52558,93.01644 97.853839,229.10059 375.23712,668.79865 480.48573,670.79905 93.829209,640.3065 146.80124,678.9412 60.420419,616.44282 434.30969,439.92257 67.393809,536.43525 166.48168,156.40903 275.77427,51.78177 185.04137,86.07832 253.03389,86.11522 109.55799,211.96318 372.16077,671.46122 474.28289,677.77789 101.35103,647.28055 166.26894,690.46738 54.316649,606.29311 433.67504,439.99891 60.037939,516.8613 180.56525,144.20268 254.07103,56.58961 146.21279,110.13385 262.22544,80.01395 121.75374,195.93894 368.627,674.19528 468.13317,684.11102 109.8474,654.74249 187.40522,700.75686 49.188179,596.93552 432.85491,440.14518 54.052189,496.59992 194.63549,132.98438 226.20143,65.71357 103.69487,145.0982 269.88711,74.66652 134.28981,181.01935 364.5724,676.98996 462.10468,689.82918 119.29781,662.50867 209.99267,709.41185 44.912274,588.39369 431.86233,440.37414 49.496609,475.80122 208.58178,122.70255 192.30219,80.84034 60.562159,193.45658 275.78802,70.04407 147.01826,167.18483 359.93643,679.82433 456.25688,694.96614 129.67163,670.39822 233.7398,716.0778 41.378352,580.67445 430.71482,440.70128 46.409064,454.61956 222.29606,113.30282 153.11717,104.05812 21.498696,257.11333 279.67815,66.14146 159.79432,154.40701 354.66243,682.66669 450.64167,699.55747 140.92536,678.23621 258.28598,720.46224 38.48822,573.77082 429.4339,441.14428 44.806198,433.20992 235.67078,104.72927 110.28703,137.74339 -7.1412043,336.50674 281.28818,62.98632 172.47557,142.65057 348.69843,685.47405 445.30334,703.63925 153.00145,685.85628 283.21183,722.35229 36.15541,567.66508 428.04616,441.72268 44.683567,411.72443 248.59706,96.92521 66.666589,184.28092 -17.748096,429.47603 280.33151,60.65057 184.91997,131.87548 341.99847,688.19189 440.27955,707.24722 165.82733,693.10351 308.05582,721.63025 34.304399,562.33137 426.58288,442.45716 46.017117,390.30964 260.96255,89.83393 26.592332,245.55002 -2.6197133,530.12648 276.50866,59.26534 c -79.5243,62.7731 58.01493,631.48914 159.09316,651.15071 -291.95961,-30.05416 -98.35174,7.21264 -392.815386,-144.67438"
       style="fill:none;stroke:#000000;stroke-width:0.18055357px;stroke-linecap:butt;stroke-linejoin:miter;stroke-opacity:1"
       inkscape:connector-curvature="0" />
  </g>
</svg>
