<?xml version="1.0" encoding="UTF-8" standalone="no"?>
<!-- Created with Inkscape (http://www.inkscape.org/) -->

<svg
   xmlns:dc="http://purl.org/dc/elements/1.1/"
   xmlns:cc="http://creativecommons.org/ns#"
   xmlns:rdf="http://www.w3.org/1999/02/22-rdf-syntax-ns#"
   xmlns:svg="http://www.w3.org/2000/svg"
   xmlns="http://www.w3.org/2000/svg"
   xmlns:sodipodi="http://sodipodi.sourceforge.net/DTD/sodipodi-0.dtd"
   xmlns:inkscape="http://www.inkscape.org/namespaces/inkscape"
   sodipodi:docname="spiral023.svg"
   inkscape:version="0.48.2 r9819"
   version="1.1"
   id="svg3783"
   height="1052.3622047"
   width="744.09448819">
  <sodipodi:namedview
     id="base"
     pagecolor="#ffffff"
     bordercolor="#666666"
     borderopacity="1.0"
     inkscape:pageopacity="0.0"
     inkscape:pageshadow="2"
     inkscape:zoom="0.49497475"
     inkscape:cx="195.64158"
     inkscape:cy="592.7325"
     inkscape:document-units="px"
     inkscape:current-layer="layer1"
     showgrid="false"
     inkscape:window-width="1084"
     inkscape:window-height="748"
     inkscape:window-x="104"
     inkscape:window-y="31"
     inkscape:window-maximized="0" />
  <defs
     id="defs3785" />
  <metadata
     id="metadata3788">
    <rdf:RDF>
      <cc:Work
         rdf:about="">
        <dc:format>image/svg+xml</dc:format>
        <dc:type
           rdf:resource="http://purl.org/dc/dcmitype/StillImage" />
        <dc:title></dc:title>
      </cc:Work>
    </rdf:RDF>
  </metadata>
  <g
     id="layer1"
     inkscape:groupmode="layer"
     inkscape:label="Layer 1">
    <rect
       y="12.284647"
       x="7.8454075"
       height="779.49591"
       width="516.12524"
       id="rect4319"
       style="fill:none;stroke:#000000;stroke-width:0.91610378;stroke-opacity:1" />
    <flowRoot
       style="fill:black;stroke:none;stroke-opacity:1;stroke-width:1px;stroke-linejoin:miter;stroke-linecap:butt;fill-opacity:1;font-family:Sans;font-style:normal;font-weight:normal;font-size:40px;line-height:125%;letter-spacing:0px;word-spacing:0px"
       id="flowRoot3475"
       xml:space="preserve"><flowRegion
         id="flowRegion3477"><rect
           y="840.23016"
           x="40.406101"
           height="76.771591"
           width="474.7717"
           id="rect3479" /></flowRegion><flowPara
         id="flowPara3481" /></flowRoot>    <path
       style="fill:none;stroke:#000000;stroke-width:1.44082987px;stroke-linecap:butt;stroke-linejoin:miter;stroke-opacity:1"
       d="m 78.532846,304.31655 c -0.139672,1.02578 -0.578596,1.57883 -0.632297,1.33408 -0.15188,-0.63099 0.540102,-3.25238 1.10474,-4.67318 1.008447,-2.34476 1.561421,-1.85982 1.384707,0.0703 -0.262999,2.90917 -1.604563,7.51279 -2.754224,10.282 -1.509191,4.36526 -2.463071,4.60438 -2.275102,0.95198 0.239936,-4.30267 2.439116,-12.90207 4.609758,-17.67275 2.511343,-4.27118 3.593908,-1.79037 2.757728,3.65474 -0.968082,6.6738 -3.67471,15.36031 -5.87973,20.56324 -2.392859,8.37664 -4.029008,9.65275 -3.900883,2.22875 0.230154,-7.44192 3.950108,-23.57374 7.983997,-32.42355 4.075508,-5.82987 5.50147,-0.40532 3.947807,8.39704 -1.679687,10.17538 -5.621572,22.34383 -8.63962,29.81662 -2.781207,13.07054 -4.892959,16.25392 -5.330038,5.11496 -0.178572,-9.99463 4.744043,-34.89227 10.944044,-48.91915 5.686049,-7.19411 7.255826,1.89644 4.998935,14.00613 -2.367898,13.4373 -7.389463,28.67951 -10.957814,38.34867 -2.529591,18.18626 -4.765834,23.92629 -6.35197,9.43946 -0.97935,-11.70887 4.476422,-46.37246 13.156962,-66.97644 7.367432,-8.59246 8.903962,4.63976 5.980383,20.16154 -3.022195,16.51353 -8.934162,34.63268 -12.769566,46.41856 -1.551834,23.35739 -3.467544,32.03134 -6.761707,14.92394 -2.074241,-12.36431 2.844168,-57.36814 14.276491,-86.22498 9.17457,-10.25163 10.533493,7.34658 6.974289,26.52341 -3.650697,19.50355 -10.193372,40.45437 -14.014618,54.20667 0.145488,28.15098 -0.983429,39.85242 -6.399647,21.21104 -3.273453,-11.82442 -0.334275,-67.10921 13.9894,-106.11524 11.185774,-12.38778 12.253696,9.57633 8.07,32.73034 -4.271119,22.55181 -11.075956,46.32106 -14.643107,61.80603 2.448271,32.12958 2.514555,46.6907 -5.184785,27.90307 -4.32625,-10.07358 -5.043135,-74.77171 12.061689,-125.94676 13.497506,-15.2086 14.185237,10.94429 9.365775,38.3868 -4.901993,25.86017 -11.480531,52.2839 -14.631756,69.23801 5.146638,34.91313 6.691704,51.95497 -3.13359,34.60224 -4.974678,-7.23281 -11.020076,-79.56939 8.374699,-144.91324 16.218454,-18.91711 16.454244,11.12216 10.97548,43.0544 -5.481244,29.67641 -11.3408,58.25584 -14.004188,76.47925 7.970896,36.22457 11.112586,55.2226 -0.361461,40.94702 -5.014645,-3.54892 -17.751613,-80.85577 2.943726,-162.15806 19.460207,-23.71352 19.187487,9.82538 13.032495,46.27047 -5.660244,33.47015 -10.66906,64.03961 -12.844404,83.471 10.642275,35.9135 15.323953,56.2651 2.932507,46.63905 -4.346111,0.64269 -24.521913,-78.21925 -4.082655,-176.83132 23.321884,-29.79297 22.504864,6.79686 15.678224,47.59846 -5.399468,36.54002 -9.562679,69.36617 -11.290141,90.10185 12.925411,33.95634 18.937941,55.03994 6.49343,51.45875 -2.998307,4.96944 -30.511535,-71.55124 -12.439938,-188.14154 27.866289,-37.33687 26.507299,1.79351 19.034649,46.66895 -4.839966,38.77914 -8.170369,73.93927 -9.506868,96.20037 14.670788,30.44002 21.697658,51.65868 10.044748,55.26785 -1.122957,9.07618 -34.928569,-61.07129 -21.775118,-195.39512 33.086348,-46.49734 31.259728,-5.41999 23.175508,43.18279 -4.094824,40.16103 -6.646474,77.48859 -7.659514,101.56236 15.839204,25.53718 23.514494,46.3462 13.323094,58.00201 1.03945,12.66615 -37.146152,-47.3011 -31.678095,-198.02238 38.864835,-57.37676 36.771095,-15.07021 28.104765,36.89626 -3.23586,40.68765 -5.115653,79.81387 -5.892329,105.99114 16.505539,19.48119 24.474689,39.40392 16.108449,59.65623 3.21094,15.52275 -36.816511,-30.99263 -41.710326,-195.59432 44.930986,-70.00056 42.973996,-27.36441 33.739236,27.61538 -2.29652,40.39465 -3.65199,80.80466 -4.31459,109.32733 16.84342,12.54621 24.81744,31.18398 18.24682,60.268 5.13129,17.51202 -33.938103,-13.02669 -51.42987,-187.83426 50.82668,-84.28859 49.70985,-42.47283 39.89579,15.20417 -1.27967,39.35127 -2.27095,80.44105 -2.9904,111.46298 17.09511,5.03417 24.89157,22.07597 19.66345,59.90199 6.60521,18.5711 -28.862566,5.69378 -60.412095,-174.63012 55.898105,-100.02714 56.723635,-60.50312 46.286355,-0.39579 -0.16681,37.65444 -0.93217,78.78338 -1.93286,112.34592 17.53266,-2.73361 25.09873,12.5024 20.3668,58.63947 7.53528,18.69398 -22.24254,24.33261 -68.268918,-156.05205 59.330818,-116.84182 63.673498,-81.4695 52.526248,-19.13884 1.07208,35.42057 0.44866,75.95886 -1.1041,111.97919 18.41651,-10.42283 25.83135,2.91622 20.44371,56.57466 7.93545,17.92029 -14.93442,42.17332 -74.67005,-132.37269 60.23746,-134.17255 70.15737,-105.26179 58.15911,-40.84911 2.46928,32.77779 1.98264,72.14678 -0.42083,110.41823 19.95733,-17.69508 27.41416,-6.20705 20.04704,53.81656 7.92577,16.33301 -7.87475,58.63383 -79.366937,-104.08641 57.789677,-151.24941 75.756917,-131.61998 62.698837,-65.19912 4.05207,29.85707 3.78842,67.56309 0.23482,107.76585 22.28655,-24.2209 30.05661,-14.38641 19.3772,50.49584 7.70937,14.06491 -1.95329,73.24835 -82.218943,-71.91906 51.373463,-167.08178 80.093963,-160.12039 65.685183,-91.70159 5.83709,26.78553 5.97378,62.44536 1.00117,104.16709 25.43865,-29.69816 33.82271,-21.16307 18.65853,46.77195 7.53548,11.3074 2.10211,85.63537 -83.217033,-36.81799 40.742563,-180.4851 82.892743,-190.18156 66.745223,-119.72053 7.82747,23.68051 8.62125,57.0378 2.02146,99.80199 29.34768,-33.87284 38.62236,-26.13546 18.11332,42.83923 7.65315,8.31637 3.81312,95.4669 -82.499456,0.0808 26.143478,-190.16586 84.036206,-221.08886 65.651096,-148.50243 10.01165,20.64522 11.77843,51.57705 3.42812,94.87733 33.85764,-36.55958 44.22528,-28.99531 17.93549,38.92703 8.26329,5.40672 3.00634,102.45785 -80.352683,37.51136 8.382305,-194.87224 83.605443,-252.03674 62.363193,-177.22639 12.36438,17.76595 15.45399,46.27967 5.32946,89.6168 38.74441,-37.65797 50.29436,-29.55736 18.26693,35.29382 9.47761,2.93225 -0.17014,106.38052 -77.193667,74.15679 C 68.151987,265.8949 161.23778,177.30838 136.39743,254.42276 c 14.84886,15.11066 19.61861,41.33258 7.79952,84.24994 43.74516,-37.16037 56.43259,-27.77663 19.17996,32.21341 11.29381,1.25146 -5.26981,107.105 -73.533982,108.73737 -30.835012,-185.76971 79.354052,-310.68579 50.077522,-231.25694 17.41938,12.72923 24.21007,36.88611 10.87175,79.00117 48.59067,-35.15107 62.23597,-23.7497 20.66818,29.95599 0.44804,9.61768 -10.5968,45.55121 -17.97946,100.69295 1.72996,34.26793 -3.68015,67.69534 -51.94984,39.40251 -43.01496,-92.44312 -17.506707,-264.56921 57.33644,-335.14827 0.79551,15.05527 -10.87541,48.3169 -15.35658,80.00617 4.84407,14.84958 4.10051,34.7315 -0.35035,56.75602 7.80022,2.13174 14.72827,5.50857 14.88732,17.32291 16.98187,-10.51006 23.96427,-7.97706 22.01624,2.91747 12.8781,-3.67325 15.32873,3.01775 0.63144,25.84909 0.55711,8.76813 -13.44171,42.21401 -24.86796,98.44486 1.08694,36.8612 -0.48316,79.32291 -42.05488,68.81971 -48.203927,-79.34367 -40.39722,-259.74994 44.87975,-352.25483 8.07248,9.65519 -6.25207,43.70678 -11.48203,76.03727 5.80287,14.05168 5.97459,32.94044 1.83301,54.10191 8.92305,1.21887 16.75052,4.09908 16.91243,15.56454 18.67659,-9.8117 26.22385,-6.73849 24.06575,3.86776 13.96767,-2.0974 16.76135,4.93532 0.90332,24.97563 0.86541,8.16936 -15.73147,38.15206 -31.91287,93.52562 -0.49082,38.37266 0.25183,88.77277 -33.07885,95.98902 -50.267556,-64.35474 -62.210514,-247.5686 29.89051,-364.39652 18.64167,2.5768 1.43584,37.14608 -4.87656,70.25452 6.72315,13.3862 7.90174,31.36261 4.22022,51.64476 10.13584,0.50336 18.93649,3.09145 19.19134,14.26995 20.25498,-8.66626 28.30089,-4.80689 26.01228,5.61078 14.81123,-0.0999 17.93187,7.58374 1.42625,24.71097 1.33489,7.91708 -17.27691,33.69824 -38.48812,86.22246 -2.82346,38.70019 -1.58157,95.67389 -26.01583,120.14585 -49.10926,-48.28715 -81.19488,-228.1839 12.67584,-370.96219 32.48887,-6.3236 12.60543,28.21581 4.80765,62.23177 7.57223,12.86494 9.82343,30.0367 6.74999,49.46313 11.41551,-0.008 21.23887,2.49549 21.6711,13.47503 21.65561,-7.13813 30.09836,-2.27054 27.73928,8.09453 15.35774,2.23585 18.75504,10.87822 2.10681,25.16956 1.91657,8.07899 -17.98938,29.21274 -44.04139,76.98743 -5.64759,37.79375 -5.8137,99.67012 -21.65005,140.60436 -44.97201,-31.90546 -95.771473,-202.24789 -6.31905,-371.34849 48.73877,-17.15345 27.44806,16.38647 17.69036,51.41777 8.31568,12.49482 11.67355,28.9904 9.34634,47.61888 12.73829,-0.31623 23.61006,2.30416 24.2928,13.19408 22.83395,-5.30323 31.54313,0.76221 29.1471,11.2381 15.58593,4.81614 19.19414,14.70808 2.85008,26.42066 2.57021,8.68956 -17.87965,25.04545 -48.16048,66.40132 -8.64944,35.6782 -12.01607,100.47267 -20.48092,156.76445 C 117.28795,523.5836 50.941647,368.58764 129.1666,174.49422 c 65.72141,-30.20235 45.88073,1.02508 33.61618,37.14151 8.9176,12.27817 13.37919,28.24056 11.92037,46.15639 14.08189,-0.43061 26.00678,2.49638 26.99786,13.42165 23.76298,-3.24261 32.58817,4.17163 30.15906,14.93793 15.50679,7.54625 19.27201,18.94945 3.58478,28.48842 3.2887,9.74884 -17.04028,21.50619 -50.62849,55.13988 -11.50429,32.46989 -19.54317,97.91627 -22.67533,168.10711 -30.12025,-0.56648 -107.431793,-135.3921 -47.12817,-351.14204 81.64146,-45.99523 67.45035,-18.49633 52.06571,18.71167 9.34332,12.21284 14.86462,27.79533 14.37405,45.10632 15.42549,-0.3656 28.39024,3.03929 29.73109,14.13182 24.4376,-1.03716 33.21809,7.83608 30.72808,19.0786 15.15785,10.33746 19.06989,23.47261 4.28544,31.35136 4.1184,11.21943 -15.60463,18.8329 -51.43785,43.8897 -13.92641,28.37353 -27.62173,92.02465 -28.07466,174.24134 -21.0341,13.63739 -103.835919,-97.46703 -67.252432,-329.50103 94.780492,-64.94798 91.374572,-42.73201 72.195362,-4.50931 9.55751,12.29164 16.04862,27.65198 16.59979,44.48082 16.75254,-0.13927 30.73154,3.89398 32.44677,15.28741 24.86645,1.23904 33.43941,11.63862 30.83349,23.53677 14.60509,13.11208 18.73375,28.14823 4.99728,34.949 5.17579,13.01887 -13.69877,17.17949 -50.7874,33.30891 -15.70886,23.66928 -35.45101,83.04268 -36.22806,174.91767 -12.0383,26.61203 -94.579736,-58.63277 -85.826719,-299.79886 103.362239,-86.96321 116.530689,-71.97784 92.835249,-32.92944 9.52681,12.5024 16.84853,27.79855 18.48362,44.27767 18.04942,0.22822 33.00934,5.01785 35.10929,16.84068 25.07279,3.52198 33.28137,15.47397 30.48168,28.19106 13.93299,15.80523 18.45879,32.84142 5.84671,39.17652 6.6432,15.00161 -11.38562,16.60286 -49.03907,23.98173 C 200.6239,364.1501 175.0555,416.91222 170.91061,515.53208 166.92455,553.8063 90.043838,495.21835 69.168755,253.29883 174.88991,142.0694 210.73008,147.17157 181.76936,186.71505 c 9.22047,12.82693 17.18078,28.21275 19.90655,44.47916 19.30553,0.71621 35.20931,6.36842 37.69384,18.73926 25.09033,5.7607 32.78977,19.25261 29.70171,32.92687 13.23927,18.36378 18.46912,37.40065 7.03969,43.87432 8.72798,16.93688 -8.61956,17.04649 -46.63996,16.39839 -17.1009,13.76105 -47.75137,57.92052 -58.02584,159.83369 C 173.83855,551.51285 107.12134,519.264 57.472606,285.43337 158.08429,149.27641 222.02373,140.87849 187.53278,180.40724 c 8.61126,13.24058 16.96261,28.86111 20.7457,45.05205 20.51258,1.30481 37.32251,7.90572 40.18549,20.93032 24.95881,7.91916 32.02156,22.90393 28.54029,37.64089 12.62721,20.74144 18.98117,41.64581 8.83337,48.81037 11.58028,18.50758 -5.23538,18.31242 -44.00726,10.95115 -16.8946,9.22473 -51.55357,43.30615 -70.14461,144.61255 C 178.2375,545.70426 124.87939,538.66625 49.946684,321.38998 137.49243,161.88787 230.25252,135.48373 193.88986,174.0967 c 7.67678,13.71119 16.11425,29.69728 20.87664,45.94626 21.66358,1.97561 39.34276,9.59397 42.57683,23.36423 24.72061,9.97681 31.04009,26.37807 27.05648,42.24412 12.19772,22.89277 20.15622,45.36758 11.47577,53.66885 15.19911,19.36111 -1.00153,20.03496 -41.3854,7.92306 C 238.1143,352.61389 200.5645,375.79309 172.26035,472.3235 180.42901,536.64988 142.0754,553.18562 47.604498,359.78474 114.65742,181.09073 233.54108,130.9495 200.95209,167.82088 c 6.40003,14.19896 14.55996,30.66116 20.17414,47.09411 22.752,2.7122 41.26365,11.4021 44.86435,25.99722 24.41734,11.92794 29.91139,29.6462 25.31722,46.66312 12.03995,24.7664 22.05682,48.34695 15.12705,58.06827 19.39271,19.20691 4.26268,21.6946 -38.71481,7.43351 -15.79959,2.46133 -55.41674,14.66511 -93.95135,102.23911 7.1801,69.34065 -16.14864,107.53155 -122.830395,-56.37875 C 91.701447,207.6321 230.77718,127.40907 208.83938,161.63538 c 4.77027,14.65683 12.23108,31.67761 18.51521,48.40924 23.77108,3.50032 43.0763,13.30369 47.04436,28.79279 24.08641,13.78058 28.70102,32.70194 23.39347,50.84214 12.22111,26.30075 24.63004,50.39149 19.79295,61.6132 23.82814,17.90477 10.56284,22.70561 -35.58802,9.33221 -15.32883,0.72259 -56.79891,2.72367 -105.28063,77.46074 3.78913,72.01755 -6.03885,129.77553 -116.877719,-1.01019 C 71.087499,241.527 221.14487,125.56227 217.67825,155.61364 c 2.78315,15.03416 9.06748,32.65902 15.781,49.7886 24.71322,4.32782 44.76728,15.27573 49.1089,31.72133 23.75767,15.55366 27.47164,35.56155 21.35796,54.74419 12.77751,27.4237 27.72512,51.36807 25.30886,63.96606 28.13494,15.48981 17.67681,22.55094 -31.36581,13.09151 -14.9163,0.29646 -58.79434,-6.16134 -116.408,52.49421 -1.55164,72.05855 -0.73295,147.11245 -107.846171,51.12739 C 55.253728,281.89078 204.35398,126.80262 227.5876,149.83948 c 0.45145,15.28727 5.03198,33.51478 11.87194,51.12151 25.5698,5.18453 46.31712,17.29735 51.04098,34.75847 23.45029,17.27232 26.28133,38.26498 19.28546,58.35243 13.70957,28.05693 31.13545,51.21616 31.37744,64.90187 31.99556,12.13423 25.20052,20.89678 -25.44064,17.79976 -14.25903,1.13159 -61.70441,-10.94375 -127.54803,29.36984 -8.19216,69.27089 -0.58411,159.0535 -97.072962,97.85673 C 46.197893,326.96352 180.91556,133.1154 238.56829,144.38197 c -2.09271,15.40624 0.21979,34.17875 6.81891,52.31614 26.33097,6.06219 47.7,19.34836 52.81129,37.88197 23.16929,18.9594 25.18066,40.87686 17.25488,61.67161 14.98265,28.12232 34.64225,49.93821 37.63375,64.32546 35.19075,8.08438 32.64811,17.63891 -17.51598,22.31785 -12.91423,2.87698 -65.10287,-10.9071 -138.7292,10.16416 -15.37355,63.64279 -5.4225,165.12826 -86.00761,137.43514 -65.715028,-156.16134 41.53669,-383.78352 139.12003,-391.24581 -4.07088,15.45907 -4.59527,34.65858 1.33207,53.34797 26.98636,6.95416 48.8846,21.40798 54.37612,41.06724 22.90435,20.62231 24.20751,43.48599 15.35587,64.72669 16.53007,27.54775 38.04265,47.57802 43.70477,62.25635 37.60366,3.6043 39.55225,12.88458 -7.74535,25.54244 -10.53691,4.90128 -67.81212,-6.02709 -149.68354,-3.31297 -22.35021,55.39447 -14.62135,164.95318 -76.05109,168.65218 -79.031019,-130.22883 -9.90569,-382.07047 128.3558,-417.2035 -3.30517,15.63596 -7.15101,35.09745 -2.38477,54.32095 27.52457,7.85539 49.83482,23.45409 55.67692,44.28258 22.63364,22.23445 23.37322,46.19485 13.7014,67.55327 18.25217,26.2758 41.15405,44.2034 49.24154,58.80231 39.20236,-1.06196 45.53186,6.89756 3.31608,26.6443 -7.07192,6.46525 -68.27181,2.76525 -159.861,-9.78531 C 190.7575,421.13807 192.06126,534.47325 150.84066,566.99722 66.659082,465.28834 91.262711,202.28255 264.7394,129.35907 c 2.75322,16.21753 -4.5711,35.79092 -1.49998,55.48515 27.93406,8.76188 50.51212,25.46271 56.64283,47.48461 22.33844,23.71958 22.62374,49.02056 12.44442,70.16505 20.00628,24.28871 43.79928,39.91468 53.92335,54.15189 40.01564,-5.71102 50.3229,0.0335 14.87885,25.19238 -2.78395,6.93753 -65.17183,13.64231 -168.50038,-8.6546 -33.62307,33.1447 -42.1552,145.36216 -64.26102,203.91129 -81.555298,-72.89658 -102.477713,-332.36397 94.90537,-452.81507 15.40895,17.1413 5.34132,36.86442 6.16838,56.91913 28.20236,9.66966 50.87662,27.40704 57.19538,50.61548 22.02526,24.9551 21.97261,51.46764 11.76951,72.48955 21.6151,21.66177 45.80501,34.889 57.46758,48.60247 40.1087,-10.18827 53.78105,-7.319 26.10461,21.15744 1.84741,5.9369 -58.0049,24.31537 -174.67686,-0.0337 -37.73136,20.74141 -58.41614,126.57493 -64.40891,208.16813 -72.39009,-45.58022 -134.338197,-287.33301 70.91571,-462.47062 34.30212,17.31428 24.01602,37.72859 22.09742,57.99929 28.31602,10.57309 50.88949,29.25598 57.25584,53.60237 21.73755,25.80475 21.76687,52.95776 11.81249,74.33625 22.94042,18.58324 47.066,29.39732 59.69937,42.56332 39.56383,-14.38795 55.8649,-14.78186 36.24904,14.83842 6.27634,3.368 -47.24306,32.63748 -177.31208,15.26514 -41.38582,8.86512 -75.35479,103.05039 -69.7474,204.42518 -58.4711,-20.88125 -152.342324,-233.21709 41.79846,-465.39221 57.52272,14.35126 52.04992,36.73359 47.05849,57.0889 28.25972,11.46173 50.51498,30.97089 56.75436,56.36041 21.54036,26.15893 22.10869,53.4371 12.57563,75.48757 23.95816,15.25266 47.61063,23.70148 60.61958,36.44318 38.46558,-18.24829 56.61227,-22.01746 44.74488,6.75739 10.01455,-0.62076 -34.1253,37.07851 -175.21605,35.72806 -45.39761,-1.20345 -92.7825,76.56385 -81.0838,193.98475 -41.82142,0.73329 -155.561153,-174.23617 8.01906,-459.42608 81.98496,5.22178 88.79949,31.1809 80.82796,51.62281 28.01571,12.31539 49.72439,32.50064 55.64179,58.79852 21.48979,25.94798 22.92756,52.94022 13.95695,75.80258 24.71934,11.7691 47.55332,17.94286 60.359,30.53264 36.89053,-21.74449 56.11362,-28.74341 51.23069,-2.44395 12.70679,-5.71583 -20.25625,36.92542 -167.27353,59.13618 -50.47995,-7.98671 -110.89929,49.67191 -99.02467,178.72986 -24.44455,19.30455 -145.011835,-114.50352 -29.00764,-441.93698 103.7066,-12.38191 131.85426,17.69411 121.83772,38.59743 27.56354,13.09671 48.50308,33.77545 53.90493,60.82894 21.61196,25.12295 24.12195,51.48144 15.82084,75.21671 25.27234,8.12765 47.00726,12.14011 59.09273,24.99866 34.90132,-24.88035 54.48947,-34.73673 55.54395,-12.09027 14.15776,-11.52155 -7.21799,32.23876 -152.82144,82.68127 -56.68683,-10.00048 -129.95045,25.61378 -123.61689,161.10414 -8.14236,35.16261 -123.353834,-57.42386 -66.76149,-410.60198 118.19656,-38.67999 176.72745,-7.11067 167.03163,15.34039 26.88329,13.74163 46.86475,34.70158 51.59194,62.38293 21.89658,23.62438 25.57914,49.0407 18.0295,73.70155 25.62566,4.26073 46.03793,6.23421 56.99713,19.92785 20.96512,-12.89425 35.62615,-19.93828 45.03292,-18.96983 13.49442,-15.41349 19.79835,-13.60718 11.11948,18.05835 -3.23478,12.45659 -35.94012,50.742 -130.52635,82.70565 -53.31198,-5.63171 -117.00809,-16.33584 -162.10892,28.56401 -1.97598,62.85685 14.56887,135.44877 -11.72182,160.69636 -59.80301,-37.03926 -137.280902,-175.3154 -81.96146,-409.69491 101.16396,-65.7917 192.88106,-61.44181 208.56828,-37.86666 8.16903,10.28853 13.80849,22.38057 17.75444,36.10318 16.98385,11.91024 29.42425,27.05078 34.63748,45.50975 12.8531,16.39143 17.14136,33.9261 14.93279,51.8128 9.36246,10.08832 15.54651,20.12757 18.11897,31.9533 17.4743,-1.6041 31.50975,-2.21056 41.63226,2.83755 19.52709,-14.34399 33.56061,-22.25721 43.75106,-22.95188 12.69834,-18.18858 20.25947,-20.23816 17.71751,8.15408 0.56993,9.46501 -22.23623,50.89565 -109.91925,102.97888 -57.27532,2.98937 -131.30102,-12.52209 -185.88879,15.45366 -9.78655,57.9699 5.44294,136.8307 -3.45852,179.90574 C 151.68449,579.53189 63.832602,470.3587 70.935354,227.86724 162.59364,133.29516 278.37038,114.1977 317.05402,140.98606 c 10.12205,11.63902 15.90441,24.74967 18.89762,38.93578 16.42177,11.95211 28.30777,26.97739 33.12691,45.62485 12.96373,15.14934 17.73364,31.87431 16.237,49.80532 10.36352,7.93318 16.90927,16.86602 19.16551,28.91908 16.66889,-3.83621 29.44902,-5.30016 38.49632,0.43037 17.85708,-15.57955 30.99637,-23.9165 41.55419,-25.87844 11.55426,-20.58245 19.61168,-26.40852 21.92519,-2.45461 3.26899,5.44596 -9.78844,46.87398 -84.87022,116.73172 -57.8406,14.6904 -143.43559,1.76793 -207.77923,12.63925 -17.8041,50.15653 -7.73492,132.12607 -2.29784,190.903 C 176.77675,595.24408 88.432063,516.06242 48.826244,281.7148 120.10543,162.63748 250.45683,109.57053 318.3301,134.33406 c 14.54681,13.48478 22.24375,28.49127 24.97507,43.67668 15.72601,11.6943 27.04771,26.40482 31.53504,45.26551 13.07596,13.36671 18.36015,29.08371 17.61086,47.0832 11.14391,5.39567 17.96607,13.1286 20.02585,25.65454 15.64675,-6.18233 27.082,-8.32897 35.03081,-1.41681 15.97383,-16.60908 28.0262,-24.87628 38.62187,-27.58481 10.1463,-22.53006 18.06175,-31.837 23.88057,-13.00804 4.73098,0.811 0.3401,39.46397 -57.92359,122.71745 -54.0899,27.31005 -150.24693,25.3921 -225.71387,21.32317 C 200.9767,437.89329 202.76797,519.19818 218.25117,591.5913 197.99742,604.03329 117.62859,553.20719 38.827274,341.26688 81.759763,206.27315 212.37847,112.68249 312.20374,125.44379 c 21.9343,15.05538 34.35339,32.99282 38.20809,50.17215 14.90919,11.03439 25.74937,25.25442 30.11217,44.52281 13.09984,10.94189 18.90644,25.50135 18.97223,43.69644 11.59323,2.4132 18.56833,8.86632 20.62173,22.15745 14.34136,-8.6689 24.38689,-11.30559 31.38292,-2.65214 13.89297,-17.43906 24.7576,-25.106 35.16658,-27.93981 8.55198,-23.98901 15.83382,-36.31072 23.87459,-22.85789 4.96956,-4.04948 7.51882,29.67383 -31.6773,120.84478 -46.177,38.6046 -148.77153,55.3127 -237.61993,41.39808 -32.30027,27.81998 -40.89059,104.26496 -20.43714,187.9133 C 214.23449,606.80884 148.12081,581.17919 41.899568,401.99368 53.074359,262.18604 167.40172,128.1095 296.29158,115.56591 c 32.10041,14.68718 53.07806,35.9719 60.44227,56.56325 13.98498,9.87521 24.56206,23.48968 29.25092,43.59919 12.87457,7.76453 19.2055,21.08722 20.24768,39.73868 11.54656,-1.06388 18.51721,4.06781 20.86558,18.47875 12.65024,-11.30537 21.30984,-14.21624 27.71424,-3.21504 11.62765,-18.07074 21.3193,-24.58067 31.44251,-26.8422 6.83981,-24.93442 13.15125,-39.67772 22.29395,-31.48218 4.10735,-8.80266 11.53034,18.55104 -8.35826,111.96685 -35.16311,46.82622 -137.28052,87.09848 -241.56962,71.5118 -38.76644,15.20001 -58.7374,82.52531 -38.65359,174.47739 5.06596,34.06693 -43.01075,29.93199 -162.895662,-110.88658 -18.979659,-133.34256 63.886922,-300.4929 211.996842,-351.617 43.81791,10.29421 77.75534,33.46233 92.30783,58.82789 12.9442,8.16195 23.66415,21.14178 29.53218,42.79586 12.13098,3.75155 19.0157,15.85153 21.38466,35.36926 10.76848,-5.0467 17.55886,-1.21297 20.68247,14.73596 10.4328,-14.06787 17.77094,-17.00841 24.21756,-3.03271 9.18945,-18.497 17.86949,-23.28154 27.75894,-24.22087 5.06978,-25.35502 10.22697,-41.83626 19.57536,-38.48437 2.33741,-13.19126 12.4991,7.05182 10.42944,97.5646 -22.61139,51.01212 -115.96459,115.93481 -235.83828,109.17158 -45.5384,3.51305 -76.96543,57.87972 -62.30768,154.38127 C 230.5431,597.59431 201.83778,611.45923 81.798321,510.15363 38.521782,392.61046 79.639099,205.79264 230.7917,107.04485 c 54.69004,0.36432 105.36641,20.94921 132.13725,51.26838 11.71862,5.92914 23.23068,18.29754 31.76663,42.38075 10.45541,-1.08157 18.00802,9.9107 22.38185,30.824 8.94257,-9.46446 15.39009,-6.81666 20.0446,11.11864 7.51283,-16.87679 13.67758,-19.5736 21.14337,-2.02804 6.58998,-18.69917 14.60415,-21.19864 24.49683,-20.04135 3.29619,-25.24955 7.26144,-42.72685 16.17362,-43.5827 -0.11162,-17.03506 10.79716,-4.03501 23.79106,79.42007 -10.16564,51.00138 -86.92719,137.74761 -219.04136,150.8196 -53.53126,-5.26844 -96.04989,33.29312 -91.07977,129.76233 18.82917,49.8434 8.65283,78.83278 -100.0185,14.77583 -59.055465,-95.68915 -62.927951,-285.78802 71.6385,-433.51525 61.60259,-15.04699 130.31923,-4.59511 175.09587,28.09179 10.1558,3.34048 23.38125,15.02084 36.97768,42.26667"
       id="path3481"
       inkscape:connector-curvature="0" />
  </g>
</svg>
