<?xml version="1.0" encoding="UTF-8" standalone="no"?>
<!-- Created with Inkscape (http://www.inkscape.org/) -->

<svg
   xmlns:dc="http://purl.org/dc/elements/1.1/"
   xmlns:cc="http://creativecommons.org/ns#"
   xmlns:rdf="http://www.w3.org/1999/02/22-rdf-syntax-ns#"
   xmlns:svg="http://www.w3.org/2000/svg"
   xmlns="http://www.w3.org/2000/svg"
   xmlns:sodipodi="http://sodipodi.sourceforge.net/DTD/sodipodi-0.dtd"
   xmlns:inkscape="http://www.inkscape.org/namespaces/inkscape"
   width="744.09448819"
   height="1052.3622047"
   id="svg2"
   version="1.1"
   inkscape:version="0.48.2 r9819"
   sodipodi:docname="spiral032.svg">
  <sodipodi:namedview
     id="base"
     pagecolor="#ffffff"
     bordercolor="#666666"
     borderopacity="1.0"
     inkscape:pageopacity="0.0"
     inkscape:pageshadow="2"
     inkscape:zoom="0.33782926"
     inkscape:cx="176.15198"
     inkscape:cy="606.21734"
     inkscape:document-units="px"
     inkscape:current-layer="layer1"
     showgrid="false"
     inkscape:window-width="834"
     inkscape:window-height="646"
     inkscape:window-x="323"
     inkscape:window-y="74"
     inkscape:window-maximized="0"
     inkscape:snap-center="false" />
  <defs
     id="defs4" />
  <metadata
     id="metadata7">
    <rdf:RDF>
      <cc:Work
         rdf:about="">
        <dc:format>image/svg+xml</dc:format>
        <dc:type
           rdf:resource="http://purl.org/dc/dcmitype/StillImage" />
        <dc:title></dc:title>
      </cc:Work>
    </rdf:RDF>
  </metadata>
  <g
     id="layer1"
     inkscape:groupmode="layer"
     inkscape:label="Layer 1">
    <path
       inkscape:connector-curvature="0"
       style="fill:none;stroke:#000000;stroke-width:0.20493791px;stroke-linecap:butt;stroke-linejoin:miter;stroke-opacity:1"
       d="m 386.36859,669.94002 c -1.26908,-0.14904 -2.71665,0.002 -4.37136,0.20075 -1.50695,0.28557 -3.31412,0.5286 -5.38885,0.46846 -2.17385,-0.0602 -4.61407,-0.58685 -6.40418,-1.21133 -1.38649,-0.71999 -1.77173,-1.34502 -2.57533,-1.55525 -0.64308,-0.2102 -2.40459,0.0967 -4.54117,0.4831 -1.60059,0.50641 -3.47126,0.88755 -5.93838,0.64031 -2.5613,-0.26292 -5.65484,-1.33623 -7.27627,-2.44701 -0.5072,-1.08191 0.88749,-1.82041 0.76893,-2.01521 0.0265,-0.16966 -2.68326,0.1798 -5.7949,0.61219 -1.87046,0.6837 -3.75572,1.19317 -6.62388,0.68838 -2.94119,-0.52793 -6.76303,-2.2797 -8.0616,-3.83004 0.80257,-1.21739 4.64147,-1.66651 5.26991,-1.73093 0.71817,-0.0264 -3.54681,0.12685 -8.07138,0.36605 -2.29599,0.78411 -4.15066,1.42205 -7.41767,0.58688 -3.30259,-0.85684 -7.89245,-3.44105 -8.73612,-5.35764 2.47824,-1.03598 9.34875,-0.66866 10.77615,-0.48483 1.41062,0.21175 -4.97193,-0.17367 -11.28171,-0.44754 -2.85057,0.77927 -4.63589,1.55533 -8.28879,0.31512 -3.63349,-1.24827 -8.99471,-4.83527 -9.27514,-7.02308 4.44189,-0.46215 14.84295,1.34848 17.11262,1.89883 2.08541,0.53225 -6.92234,-0.81654 -15.31615,-1.98868 -3.50477,0.64661 -5.18937,1.57818 -9.20403,-0.14247 -3.92326,-1.69895 -10.01946,-6.46808 -9.65469,-8.81566 6.60618,0.56362 20.9408,4.51946 24.08939,5.55264 2.72784,0.91893 -9.35415,-1.87927 -20.05216,-4.38433 -4.2265,0.36953 -5.78671,1.47995 -10.1276,-0.79566 -4.16183,-2.20391 -10.91654,-8.33614 -9.85163,-10.72074 8.8764,2.08391 27.44945,8.9378 31.5091,10.5657 3.32596,1.35327 -12.21999,-3.42182 -25.36055,-7.72835 -4.98256,-0.0625 -6.40249,1.25437 -11.02275,-1.64828 -4.33975,-2.75671 -11.63714,-10.42744 -9.84488,-12.72027 11.15413,4.12438 34.17444,14.65723 39.17505,16.98521 3.87109,1.81543 -15.47265,-5.48687 -31.11121,-12.08239 -5.73945,-0.6542 -7.01022,0.89985 -11.85181,-2.69797 -4.44913,-3.34969 -12.1356,-12.72177 -9.61551,-14.79252 13.33844,6.69289 40.92442,21.69246 46.8963,24.81732 4.35738,2.28553 -19.06721,-8.1002 -37.17859,-17.4779 -6.46407,-1.40421 -7.58306,0.41994 -12.57726,-3.93571 -4.48323,-3.97422 -12.37014,-15.19152 -9.14813,-16.91362 15.33033,9.78116 47.51821,30.02263 54.49467,34.03106 4.78081,2.74403 -22.96464,-11.27252 -43.44531,-23.91794 -7.12453,-2.30581 -8.09469,-0.17695 -13.16252,-5.34576 -4.43619,-4.62039 -12.30464,-17.80299 -8.43084,-19.05778 17.03369,13.36443 53.78852,39.59369 61.8083,44.5606 5.13867,3.17268 -27.13278,-15.00034 -49.80604,-31.38049 -7.69089,-3.34674 -8.51929,-0.87619 -13.57296,-6.90542 -4.30371,-5.27748 -11.90857,-20.51687 -7.45497,-21.19735 18.35783,17.40232 59.58596,50.32153 68.69493,56.30845 5.42909,3.55513 -31.54737,-19.26742 -56.16891,-39.82038 -8.13589,-4.5101 -8.8334,-1.65802 -13.77692,-8.58493 -4.08296,-5.93411 -11.15867,-23.29044 -6.2165,-23.30541 19.22035,21.8412 64.78214,62.09637 75.03555,69.15029 5.64969,3.87707 -36.19308,-24.04657 -62.45735,-49.17255 -8.43606,-5.7749 -9.01659,-2.49689 -13.74735,-10.34794 -3.77251,-6.57796 -10.03853,-26.07839 -4.71453,-25.35461 19.54796,26.61417 69.27117,74.78516 80.73496,82.93727 5.79756,4.12689 -41.0628,-29.30068 -68.61088,-59.35485 -8.57116,-7.11563 -9.05195,-3.36124 -13.46247,-12.15143 -3.37277,-7.1962 -8.53882,-28.83385 -2.95193,-27.31942 19.27883,31.64367 72.97204,88.23673 85.7233,97.50096 5.86868,4.29586 -46.15758,-34.9845 -74.58471,-70.27082 -8.52562,-8.50372 -8.92794,-4.2143 -12.9073,-13.94615 -2.88599,-7.77535 -6.65749,-31.51053 -0.93447,-29.17622 18.36374,36.84306 75.82828,102.28451 89.95598,112.6566 5.85715,4.37821 -51.48521,-41.04532 -80.34904,-81.81157 -8.28884,-9.90819 -8.63926,-5.01434 -12.07527,-15.67788 -2.31657,-8.30169 -4.39898,-34.06353 1.32989,-30.90385 16.76719,42.11825 77.80865,116.75034 93.41241,128.2063 5.75652,4.37203 -57.05854,-47.42428 -85.88746,-93.85865 -7.85528,-11.29567 -8.18806,-5.71515 -10.96919,-17.28787 -1.67128,-8.76129 -1.77379,-36.45015 3.83153,-32.48446 14.46844,47.37025 78.90646,131.4485 96.09629,143.94398 5.55745,4.27813 -62.89486,-54.05777 -91.19632,-106.28647 -7.22497,-12.63158 -7.58501,-6.26706 -9.60253,-18.71435 -0.95945,-9.14034 1.2022,-38.63131 6.56031,-33.90346 11.46204,52.49723 79.13876,146.18887 98.03278,159.65805 5.25015,4.1013 -69.01323,-60.87808 -96.2818,-118.96352 -6.40374,-13.88099 -6.85043,-6.61861 -8.00058,-19.89451 -0.19331,-9.42581 4.5087,-40.57212 9.50623,-35.14957 7.75826,57.39665 78.54479,160.78017 99.2671,175.13508 4.82396,3.85003 -75.43284,-67.8142 -101.1583,-131.7551 -5.40332,-15.00886 -6.01492,-6.717 -6.2011,-20.76557 0.61198,-9.60521 8.12186,-42.24264 12.66059,-36.21485 3.38293,61.96772 77.18445,175.03356 99.86216,190.16377 4.26646,3.53555 -82.17134,-74.79311 -105.84635,-144.52505 -4.24146,-15.9814 -5.1198,-6.51013 -4.25481,-21.26701 1.43823,-9.66807 12.01516,-43.61827 16.01644,-37.0942 -1.62251,66.11334 75.1366,188.76545 99.89653,204.53808 3.56936,3.17443 -89.24327,-81.74109 -110.37056,-157.13756 -2.94182,-16.76659 -4.21739,-5.94798 -2.22541,-21.34323 2.26412,-9.60529 16.16008,-44.67957 19.56937,-37.78477 -7.20182,69.74291 72.49663,201.80098 99.46175,218.0612 2.71954,2.78353 -96.65837,-88.58389 -114.75777,-169.45893 -1.53403,-17.33483 -3.37056,-4.98491 -0.18927,-20.94466 3.06565,-9.41136 20.52693,-45.41389 23.31791,-38.28651 -13.28472,72.7744 69.37408,213.97672 98.65992,230.54892 1.70922,2.38438 -104.42062,-95.24909 -119.03534,-181.35954 -0.0532,-17.66061 -2.6517,-3.58038 1.76579,-20.03115 3.81631,-9.08317 25.08538,-45.81429 27.26336,-38.5998 -19.78795,75.13586 65.89087,225.14346 97.60115,241.83254 0.53149,2.00013 -112.52694,-101.66617 -123.22965,-192.71557 1.46018,-17.72217 -2.14128,-1.70056 3.54196,-18.57241 4.4879,-8.62132 29.80423,-45.88082 31.40946,-38.72683 -26.61662,76.76821 62.17793,235.16858 96.4013,251.76242 -0.81759,1.65578 -120.96673,-107.76822 -127.36483,-203.41053 2.96093,-17.50346 -1.92569,0.68106 5.0338,-16.55018 5.0515,-8.03042 34.65185,-45.62138 35.76179,-38.67091 -33.66613,77.62658 58.37328,243.93907 95.17965,260.21107 -2.33928,1.37716 -129.72186,-113.49313 -131.46239,-213.33746 4.39948,-16.99345 -2.09397,3.58356 6.13128,-13.95829 5.47824,-7.31779 39.59545,-45.05265 40.32614,-38.43697 -40.82382,77.68218 54.61947,251.36312 94.05656,267.07543 -4.0311,1.19054 -138.7662,-118.78439 -135.54024,-222.3995 5.72306,-16.18843 -2.73425,7.01929 6.72339,-10.80269 5.74126,-6.49357 44.60079,-44.20251 45.10717,-38.03333 -47.97135,76.92364 51.06022,257.37212 93.1517,272.27951 -5.88728,1.12173 -148.06669,-123.5925 -139.61293,-230.5123 6.87622,-15.09099 -3.92888,10.99593 6.70258,-7.09925 5.81705,-5.56871 49.6306,-43.1125 50.10558,-37.47368 -54.98652,75.35761 47.83913,261.92232 92.58159,275.77602 -7.89838,1.1953 -157.5831,-127.87529 -143.69118,-237.60435 7.80196,-13.7111 -5.74899,15.51954 5.96962,-2.87081 5.68724,-4.55225 54.64409,-41.84209 55.31615,-36.78117 -61.74656,73.01052 45.0956,264.99571 92.4579,277.54796 -10.05174,1.43393 -167.26977,-131.5991 -147.78284,-243.61828 8.44304,-12.06592 -8.24794,20.59887 4.43955,1.85737 5.34343,-3.4517 59.59465,-40.47272 60.72357,-35.99268 -68.12995,69.92848 42.96338,266.60078 92.88557,277.60915 -12.33141,1.85786 -177.07596,-134.73883 -151.89266,-248.51144 8.74306,-10.17948 -11.45396,26.2508 2.04779,7.06436 4.78512,-2.26215 64.42764,-39.11367 66.29909,-35.16548 -74.01953,66.17752 41.56719,266.77265 93.96066,276.00476 -14.71849,2.48407 -186.94737,-137.27883 -156.02331,-252.25644 8.64811,-8.08186 -15.36086,32.50516 -1.24201,12.74099 4.02829,-0.96962 69.07692,-37.9075 71.99523,-34.38416 -79.30508,61.8437 41.02097,265.57309 95.76907,272.81082 -17.19239,3.32606 -196.82749,-139.21207 -160.17606,-254.84117 8.1079,-5.80789 -19.91891,39.41075 -5.4301,18.89864 3.10792,0.45523 73.46059,-37.03522 77.74006,-33.76825 -83.88577,57.03197 41.42511,263.08921 98.38457,268.13304 -19.73048,4.39333 -206.65887,-140.54102 -164.35146,-256.26879 7.07742,-3.39529 -25.0232,47.0378 -10.47043,25.57726 2.084,2.05727 77.47388,-36.71908 83.42973,-33.47895 -87.673,51.86575 42.86381,259.4323 101.86649,262.10518 -22.30928,5.69129 -216.38391,-141.27651 -168.54962,-256.55718 5.51873,-0.88188 -30.50204,55.47752 -16.25903,32.85075 1.04757,3.8943 80.97967,-37.22033 88.91889,-33.72291 -90.59215,46.48514 45.40339,254.73588 106.25913,254.88681 -24.9045,7.22099 -225.94663,-141.43733 -172.77151,-255.73841 3.40243,1.6978 -36.10565,64.83578 -22.62175,40.82824 0.12719,6.02747 83.79657,-38.82912 94.01081,-34.75117 -92.58528,41.04527 49.09041,249.15311 111.58944,246.66004 -27.49249,8.97937 -235.29366,-141.04996 -177.01899,-253.85787 0.70958,4.31716 -41.49664,75.21928 -29.30142,49.64818 -0.50811,8.50597 85.6844,-41.84226 98.44544,-36.85036 -93.61178,35.71378 53.94958,242.85348 117.86614,237.62598 -30.05017,10.95921 -244.37475,-140.14711 -181.29525,-250.97311 -2.56658,6.96304 -46.24503,86.7136 -35.94689,59.4622 -0.65086,11.34604 86.3305,-46.52409 101.89052,-40.32355 -93.64994,30.66775 59.98313,236.01899 125.07877,228.00002 -32.55596,13.14953 -253.14421,-138.76741 -185.60528,-247.15262 -6.41754,9.64173 -49.83079,99.35339 -42.10727,70.40957 -0.0652,14.50597 85.34116,-53.04799 103.93543,-45.46019 -92.69652,26.08951 67.17034,228.83901 133.19698,218.00659 -34.98954,15.53565 -261.56071,-136.95368 -189.95551,-242.47446 -10.81612,12.38542 -51.65627,113.08695 -47.23445,82.58187 1.49381,17.86409 82.24914,-61.42079 104.0932,-52.49507 -90.76523,22.1608 75.46806,221.50344 142.17239,207.87125 -37.33301,18.09986 -269.58877,-134.75277 -194.35456,-237.02444 -15.71183,15.25843 -51.07129,127.73924 -50.69755,95.98265 4.2525,21.20243 76.54956,-71.4045 101.81133,-61.55715 -87.88272,19.05172 84.81467,214.19107 151.94117,197.80869 -39.57113,20.82191 -277.19843,-132.21343 -198.81266,-230.89439 -21.02437,18.36099 -47.41097,142.97749 -51.81023,110.48607 8.38471,24.20128 67.77121,-82.46788 96.49162,-72.6062 -84.08008,16.89801 95.13707,207.04611 162.43098,187.99912 -41.6908,23.67903 -284.36503,-129.3865 -203.34085,-224.18067 -26.63582,21.83004 -40.04599,158.28668 -49.87156,125.80155 13.97519,26.44614 55.56662,-93.80508 87.52121,-85.33636 -79.38208,15.73868 106.36041,200.11585 173.5714,178.52473 -43.68186,26.64701 -291.07035,-126.32299 -207.95184,-216.98129 -32.3818,25.83423 -28.4427,172.95657 -44.21765,141.44858 20.98365,27.44793 39.7809,-104.42104 74.35457,-99.00371 C 255.00245,427.814 447.21651,605.64862 514.10091,581.668 468.56414,611.3682 216.79977,458.5943 301.44263,372.27358 263.39924,402.83577 289.21362,558.36112 267.16096,529.0198 296.37414,555.69671 287.63923,415.78522 323.9235,416.72737 256.22107,431.93171 454.78317,602.46113 521.10686,576.27803 473.85647,609.09024 218.05689,456.59001 303.63373,374.76282 c -43.34181,36.20385 8.73887,196.61589 -19.65761,170.82035 38.28635,23.60751 -2.05568,-119.15379 35.01252,-123.68551 -61.56591,14.66058 143.1403,177.13274 208.67995,148.96529 -48.82044,35.95635 -308.31417,-116.21357 -222.4084,-193.43342 -47.93788,42.92559 34.3137,203.35994 -0.16359,182.62949 47.63325,17.77464 -27.3074,-121.12085 9.5744,-131.90774 -55.98273,13.54586 154.57097,167.22408 219.11667,137.31898 -50.24691,39.10615 -313.09591,-112.69522 -227.47473,-185.22974 -51.43804,50.84302 64.0058,205.08725 24.10037,191.00971 56.49444,8.83719 -54.51788,-118.15157 -19.02708,-135.83984 -51.27372,11.93505 164.72774,156.10408 228.08306,124.73522 -51.53127,42.23514 -317.40121,-109.17496 -232.67957,-176.97287 -53.40698,59.99265 96.94842,200.60033 52.70414,194.73757 63.94394,-3.35399 -82.66462,-109.38689 -50.09017,-134.4093 -47.60058,9.98859 173.33494,143.96503 235.31871,111.43064 -52.67749,45.31817 -321.24011,-105.69125 -238.02606,-168.71509 -53.38716,70.30798 131.88658,188.83675 84.8556,192.60982 68.93394,-18.69045 -110.4577,-94.16212 -82.63656,-126.61906 -45.03703,7.89538 180.19715,131.04002 240.64341,97.66071 -53.69097,48.33106 -324.62586,-102.27824 -243.51041,-160.48895 -50.92255,81.59928 167.19309,168.97837 119.38847,183.53546 70.3632,-36.74883 -136.35774,-72.08734 -115.37448,-111.6286 -43.59828,5.85449 185.17181,117.58889 243.92984,83.70547 -54.57768,51.25059 -327.57403,-98.96665 -249.11792,-152.30472 -45.58775,93.5411 200.91811,140.56157 154.77436,166.63675 67.1679,-56.75039 -158.62211,-43.13279 -146.70627,-88.8523 -43.25256,4.0675 188.16182,103.89242 245.09598,69.86366 -55.34495,54.05527 -330.10261,-95.7827 -254.81923,-144.14894 -37.01946,105.66763 230.87052,103.58133 189.16292,141.35333 58.43215,-77.54631 -175.38071,-7.70872 -174.77137,-58.0596 -43.92659,2.73111 189.11424,90.24757 244.10353,56.44794 -56.00098,56.72559 -332.23133,-92.74836 -260.56575,-135.9864 -24.94948,117.37724 254.73434,58.57847 220.45294,107.54215 43.51027,-97.63514 -184.74283,33.26921 -197.52243,-19.46783 -45.50965,2.03085 188.02132,76.96222 240.9586,43.77976 -56.55418,59.2438 -333.98136,-89.88085 -266.286,-127.76582 -9.23767,127.94781 270.2152,6.70087 246.39385,65.56604 22.15246,-115.22172 -184.92943,78.34038 -212.83193,26.18018 -47.85674,2.13547 184.92202,64.34974 235.7128,32.18452 -57.01273,61.59369 -335.37432,-87.19405 -271.88401,-119.42914 10.09809,136.56174 275.21149,-50.27266 264.71749,16.36063 -5.38006,-128.3174 -174.42716,125.49322 -218.62653,77.56424 -50.79244,3.19107 179.90379,52.72266 228.46494,21.98514 C 513.31305,588.20237 234.26573,439.74376 293.45623,413.5191 326.31368,555.86014 561.45673,303.56581 566.75165,374.98769 528.5272,240.1048 414.59777,547.19149 353.7092,507.75754 299.59413,513.07401 526.81192,550.14381 573.0709,521.2527 515.3914,586.9878 235.89274,438.85698 290.84542,419.04995 349.48425,563.43792 538.27062,249.62976 561.15739,322.08276 486.29252,189.0735 443.53378,537.60443 366.56388,511.39448 c -57.60095,8.59867 164.70396,33.63153 208.59741,7.0126 C 517.25731,585.91237 237.52758,438.116 288.47052,425.156 375.29909,566.98724 501.53609,199.80346 542.91234,268.8943 429.7771,147.77085 471.81566,521.10375 380.57179,513.10031 319.56224,526.18904 535.51305,539.82776 576.98538,515.91252 518.9196,584.97688 239.16466,437.53119 286.49372,431.84216 403.09022,565.71744 451.86817,157.62292 511.5098,218.54499 361.22315,120.34002 497.81056,497.47617 395.4611,512.63585 c -64.08874,18.79902 144.09492,21.914 183.09679,1.13897 -58.17207,70.40697 -337.75983,-76.66148 -293.48555,-74.68899 146.90091,119.85189 105.76157,-312.51318 182.16184,-264.68532 -183.12702,-63.99163 52.50485,292.48587 -56.31782,335.39629 -66.58067,25.70022 132.4888,19.39439 168.97635,2.19954 -58.22966,71.53026 -337.47088,-75.12285 -295.53811,-65.15863 176.50176,99.27479 36.61237,-337.015 126.89961,-306.97291 -208.23078,-19.15066 124.50521,290.07299 15.32808,364.55612 -68.22838,33.71975 120.48648,19.32786 154.41985,6.15641 -58.24471,72.43316 -336.97208,-73.75435 -296.52571,-55.55282 203.98839,71.89367 -38.77124,-345.07039 61.18534,-336.88184 -222.21273,34.60879 198.41148,269.57415 96.40664,378.25277 -68.78176,42.74088 108.48624,21.8225 139.82904,13.11972 C 523.67391,582.63239 245.61729,436.97314 285.55979,463.55101 513.37845,501.29818 169.2514,128.69616 273.44587,111.98423 51.399076,206.48873 543.05052,341.81171 456.95595,485.66337 388.95059,538.26609 553.87016,512.59218 582.58846,508.80513 524.41632,582.3912 247.17867,437.33569 287.711,472.30221 534.08558,469.51259 96.35301,166.69868 198.3952,123.42943 -7.0124381,280.17861 531.36822,294.30069 470.80421,472.23008 c -65.68468,63.101 86.2178,34.63313 112.27947,36.2105 C 524.98704,582.2859 248.71035,437.92222 291.0197,481.14537 549.0524,432.17753 32.017605,223.36174 124.9255,153.57326 c -171.001376,216.72765 383.22937,94.12833 358.23433,302.5948 -61.63416,73.9906 76.85598,44.85324 100.23064,52.24475 C 525.38696,582.31582 250.20997,438.74458 295.55753,489.93183 556.80569,390.29052 -18.827616,296.7448 57.840149,202.3719 -61.013599,471.6582 473.13183,204.88065 493.56599,437.6213 c -55.70383,84.98871 69.29035,57.43363 89.94907,71.09026 -57.90002,73.76938 -331.83807,-68.89709 -282.13852,-10.2131 19.73973,22.95792 52.66852,42.45206 99.42486,49.49413"
       id="path3225" />
  </g>
</svg>
