<?xml version="1.0" encoding="UTF-8" standalone="no"?>
<!-- Created with Inkscape (http://www.inkscape.org/) -->

<svg
   xmlns:dc="http://purl.org/dc/elements/1.1/"
   xmlns:cc="http://creativecommons.org/ns#"
   xmlns:rdf="http://www.w3.org/1999/02/22-rdf-syntax-ns#"
   xmlns:svg="http://www.w3.org/2000/svg"
   xmlns="http://www.w3.org/2000/svg"
   xmlns:sodipodi="http://sodipodi.sourceforge.net/DTD/sodipodi-0.dtd"
   xmlns:inkscape="http://www.inkscape.org/namespaces/inkscape"
   sodipodi:docname="spiral042.svg"
   inkscape:version="0.48.2 r9819"
   version="1.1"
   id="svg2"
   height="1052.3622047"
   width="744.09448819">
  <sodipodi:namedview
     id="base"
     pagecolor="#ffffff"
     bordercolor="#666666"
     borderopacity="1.0"
     inkscape:pageopacity="0.0"
     inkscape:pageshadow="2"
     inkscape:zoom="0.47776272"
     inkscape:cx="201.88171"
     inkscape:cy="636.1886"
     inkscape:document-units="px"
     inkscape:current-layer="layer1"
     showgrid="false"
     inkscape:window-width="834"
     inkscape:window-height="646"
     inkscape:window-x="384"
     inkscape:window-y="58"
     inkscape:window-maximized="0"
     inkscape:snap-center="false" />
  <defs
     id="defs4" />
  <metadata
     id="metadata7">
    <rdf:RDF>
      <cc:Work
         rdf:about="">
        <dc:format>image/svg+xml</dc:format>
        <dc:type
           rdf:resource="http://purl.org/dc/dcmitype/StillImage" />
        <dc:title></dc:title>
      </cc:Work>
    </rdf:RDF>
  </metadata>
  <g
     inkscape:label="Layer 1"
     inkscape:groupmode="layer"
     id="layer1">
    <path
       inkscape:connector-curvature="0"
       style="fill:none;stroke:#000000;stroke-width:0.8391003px;stroke-linecap:butt;stroke-linejoin:miter;stroke-opacity:1"
       d="m 84.422311,370.27789 c 0.716509,7.2593 0.802294,9.80217 0.252157,6.75821 -0.691409,-4.10705 -1.791835,-15.77819 -2.176958,-24.55659 -0.139737,-10.83124 0.208983,-13.74899 0.53093,-8.03441 0.525202,6.83957 1.621997,22.64699 2.700123,34.46935 1.895203,14.25877 2.30155,19.26889 0.654066,11.84573 -1.71181,-8.8288 -4.051848,-31.08065 -4.478614,-47.45541 0.506289,-17.87482 1.328016,-21.89769 1.389493,-11.1178 0.50218,11.89924 2.014768,36.81523 3.955858,55.19548 3.585917,21.15425 4.655197,28.98269 1.510699,17.43867 -3.055032,-13.37575 -6.966569,-46.74736 -7.184349,-70.88366 1.712868,-24.77649 3.089955,-29.43477 2.436029,-13.51547 0.20056,16.9852 1.993668,50.65607 4.962912,75.26219 5.750939,27.85357 7.870244,38.78661 2.87581,23.49257 -4.730838,-17.77447 -10.580745,-62.76895 -10.321287,-94.80462 3.471634,-31.44712 5.414359,-36.25576 3.602757,-15.19237 -0.36031,22.10318 1.614171,64.1475 5.762685,94.63946 8.349641,34.29486 11.936518,48.55117 4.799481,29.95891 C 88.95034,411.76509 80.757696,354.63238 81.78261,314.60534 c 5.764161,-37.80984 8.21094,-42.28437 4.819386,-16.11816 -1.15957,27.24814 0.933245,77.26782 6.397133,113.29669 11.336521,40.42692 16.823221,58.14912 7.326781,36.78375 -9.0946,-26.07109 -20.069556,-95.87527 -17.970219,-143.93117 8.563971,-43.79606 11.383879,-47.46718 6.013485,-16.26811 -2.174219,32.41486 0.0084,89.99133 6.908204,131.20301 14.66156,46.20638 22.47774,67.45538 10.49562,43.90566 C 93.992687,433.55136 79.765888,350.5295 83.2693,294.46874 95.107324,245.12279 98.105332,242.69472 90.3805,278.84377 87.001381,316.44401 89.277184,381.13092 97.717389,427.1716 115.98819,478.76837 126.5439,503.52364 112.05195,478.42714 97.257556,444.87202 79.288256,348.08459 84.545088,284.1095 c 15.548242,-54.40886 18.471652,-55.19283 8.038442,-14.18084 -4.747312,42.80534 -2.346544,114.12051 7.72213,164.64289 22.10675,56.56793 35.77774,84.73379 18.8607,58.75733 -18.12823,-36.94345 -40.338664,-148.0297 -32.961377,-219.75807 19.652837,-58.9435 22.196997,-57.72371 8.722689,-11.94018 -6.250732,48.03587 -3.669544,125.45489 8.099368,180.12516 26.10845,61.09478 43.22472,92.51178 24.07761,66.32945 -21.773,-40.08381 -48.713358,-165.9684 -38.833958,-245.21585 24.107128,-62.91665 25.918528,-59.37126 9.095445,-8.92255 -7.859899,53.29189 -5.026423,136.25669 8.498223,194.75979 30.21183,65.15716 51.05079,99.61743 29.97413,73.88724 C 110.11685,479.61449 77.989546,338.4847 90.763199,252.02649 c 28.863981,-66.30214 29.539501,-60.13884 9.094467,-5.16235 -9.537783,58.49764 -6.379113,146.49713 8.940894,208.54067 34.34964,68.73885 59.13291,106.00259 36.52339,81.34582 -29.97013,-45.64279 -67.685102,-202.39554 -51.619582,-295.68336 33.874082,-69.0795 32.957022,-60.02587 8.664112,-0.70289 -11.242626,63.50881 -7.697178,156.14926 9.44212,221.46551 38.45212,71.82787 67.34456,111.63829 43.68257,88.62297 -34.51653,-48.09143 -78.139222,-220.76728 -58.38469,-320.4323 39.08573,-71.23317 36.05944,-59.02759 7.75401,4.41091 -12.941955,68.27662 -8.95592,165.183 10.01106,233.52911 42.4476,74.41609 75.55564,116.51078 51.39315,95.64179 -39.35823,-50.34181 -89.106433,-239.16196 -65.27255,-344.68464 44.4444,-72.75105 38.72618,-57.13778 6.3174,10.13736 -14.60539,72.78431 -10.134451,173.56208 10.65315,244.72012 46.26365,76.49955 83.63134,120.6177 59.58113,102.33275 -44.48654,-52.40329 -100.459766,-257.5177 -72.16978,-368.31555 49.89178,-73.62377 40.83016,-54.35351 4.31091,16.43708 -16.201787,77.00649 -11.21508,181.24555 11.37091,255.02248 49.82812,78.07815 91.4317,123.96579 68.15548,108.63363 -49.87908,-54.27251 -112.048851,-275.77275 -78.94658,-391.20563 55.36425,-73.84364 42.24366,-50.68206 1.69572,23.26955 -17.700164,80.90789 -12.184178,188.1916 12.16296,264.41953 53.07103,79.15586 98.81426,126.57132 76.99803,114.48278 -55.48399,-55.92465 -123.690143,-293.85802 -85.44679,-413.23468 60.78912,-73.40253 42.84632,-46.14678 -1.56079,30.58964 -19.071505,84.44626 -13.03372,194.36066 13.02299,272.89819 55.9258,79.73992 105.6403,128.46181 85.92641,119.79707 C 151.88386,551.60908 77.932201,297.22974 121.61201,174.64162 187.68998,102.35285 164.145,133.851 116.12847,212.9868 c -20.290516,87.57513 -13.7626,199.71796 13.93833,280.45169 58.331,79.84047 111.78282,129.67748 94.75634,124.53845 -66.83357,-58.33827 -146.11415,-329.1429 -96.74081,-454.18465 71.11418,-70.482543 41.22072,-34.67695 -10.08797,46.47469 -21.337237,90.24586 -14.37774,204.2352 14.88909,287.08183 60.23171,79.46939 117.13249,130.26964 103.44429,128.79243 C 163.88016,567.00876 79.806392,279.83795 135.0889,153.10848 c 75.73857,-67.953572 38.85254,-27.88688 -15.37947,54.90692 -22.198164,92.40987 -14.89465,207.8915 15.84756,292.79996 61.58106,78.63953 121.60284,130.29875 111.97014,132.648 C 169.48867,573.72153 81.269559,270.28251 142.63225,142.63029 222.38538,77.955047 178.03229,122.11358 121.27984,206.19036 98.412963,300.20996 105.94237,416.86394 138.05785,503.81785 200.39926,581.18136 263.19,633.6483 258.36387,639.99875 174.75458,579.78492 83.144531,260.2104 150.71003,132.39841 c 82.95952,-60.655254 30.86469,-12.67567 -27.99008,72.34167 -23.343947,95.0307 -15.73819,212.57628 17.63734,301.59623 62.48525,75.65246 127.68428,128.93196 128.42936,139.46579 -89.16377,-60.59245 -183.308318,-396.13869 -109.4696,-523.34836 85.19656,-55.950914 25.2787,-4.48453 -35.26492,81.14934 -23.63628,95.40264 -16.1357,213.60217 18.37549,304.74756 61.99636,73.51523 129.2485,127.6696 136.32681,142.57887 C 184.04348,590.00749 88.318271,238.68524 168.44494,112.83754 c 86.34294,-50.656369 18.70593,3.9238 -43.13879,89.87086 -23.75586,95.10114 -16.5741,213.76129 18.93657,307.1323 60.8706,70.9576 129.83823,126.10639 143.99514,145.59759 C 187.97013,594.18931 91.711297,227.32273 178.082,103.59114 c 86.30508,-44.884406 11.24213,12.40362 -51.56362,98.38526 -23.71777,94.09908 -17.10066,213.07085 19.26019,308.80958 59.11647,67.98162 129.48957,124.30115 151.44028,148.59978 C 191.35995,597.7639 95.703179,215.62704 188.21329,94.755535 273.22391,55.999633 191.2277,115.5509 127.73096,201.31976 c -23.53797,92.37822 -17.7636,211.55431 19.28261,309.8457 56.75599,64.5856 128.25913,122.30821 158.67651,151.66297 C 194.17269,600.73677 100.33782,203.65408 198.82046,86.371324 c 82.408,-32.394841 -5.82037,28.925306 -69.82961,114.273536 -23.2305,89.93068 -18.60949,209.24092 18.93834,310.31247 53.8251,60.76445 126.22169,120.17814 165.72511,154.86379 C 196.3708,603.10962 105.65655,191.46443 209.88171,78.478308 288.34896,52.553922 194.80218,115.08609 130.34905,199.85372 c -22.80466,86.7598 -19.68064,206.16391 18.16141,310.28523 50.37417,56.51026 123.46739,117.95877 172.6128,158.27736 C 197.9188,604.87919 111.69759,179.1231 221.3721,71.115157 294.55301,51.651397 196.81172,114.76542 131.85989,198.84629 109.59774,281.72742 110.8474,401.20577 148.74644,508.68638 195.21506,560.50075 268.8451,624.38367 328.11664,670.66365 198.78372,606.03702 118.49549,166.6993 233.26365,64.319125 299.82886,51.193491 199.21639,114.1807 133.58082,197.52291 111.98601,275.84638 110.94945,395.38834 148.6308,506.57441 190.82012,553.24383 264.85803,620.0167 334.661,672.60962 198.93499,606.56854 126.08087,154.26572 245.52534,58.126093 304.18636,51.111707 202.2065,113.18887 135.57205,195.78777 114.78959,268.91665 111.02009,388.50706 148.16255,503.77639 185.79534,544.84933 260.13289,615.0223 340.78871,674.29744 198.34511,606.45279 134.47984,141.89854 258.12217,52.571016 307.65951,51.345271 205.96886,111.66957 137.89691,193.55188 118.10475,260.90572 111.12115,380.50923 147.34646,500.26402 180.25802,535.29648 254.794,609.43048 346.53667,675.76689 196.99046,605.6621 143.71373,129.67696 271.01053,47.689588 c 39.30082,4.151197 -60.3281,61.847322 -130.38831,143.047012 -18.57797,61.06955 -29.28955,180.61385 5.57162,305.2709 28.15351,28.57138 102.7769,107.27026 205.75158,181.04683 C 194.85178,604.16127 153.79898,117.68277 284.12655,43.520426 c 28.11813,9.029559 -67.61108,63.229344 -140.30778,143.756624 -17.08243,54.36305 -32.06453,173.72054 0.90454,303.69843 23.49961,21.73567 98.07141,105.63375 212.33475,187.21736 C 191.91591,601.90797 164.74625,106.0007 297.37104,40.103597 313.62047,53.425246 223.6234,103.32027 147.56196,183.12536 132.32302,230.46335 112.5059,349.43278 142.96132,485.13517 162.05975,499.73252 236.3966,589.47983 361.91923,679.21219 188.17678,598.85211 176.56014,94.718077 310.60863,37.470526 c 4.07177,16.942687 -78.4624,61.849287 -158.6766,140.783284 -12.97595,40.11594 -38.2038,158.40381 -10.98887,300.19911 15.09595,7.25067 88.96011,103.50252 225.63116,201.68607 C 183.6375,594.93638 189.23779,83.925429 323.68912,35.630871 315.75516,55.450485 242.20442,94.882817 157.01381,172.658 146.79182,205.49461 115.58119,322.69836 138.71366,470.89442 150.33709,470.69467 223.43482,574.11279 371.06867,680.99691 178.31188,590.09639 202.76763,73.716327 336.47079,34.567516 317.23249,56.468304 253.89231,90.208013 162.89636,166.35912 155.98368,192.01785 118.24177,307.61103 136.32814,462.42573 145.11723,454.77446 217.10167,566.039 375.4468,681.80657 172.22692,584.26172 217.12762,64.187381 348.8288,34.239872 319.49248,57.408459 267.26891,85.556754 169.6711,159.40664 166.67306,178.16539 121.89983,291.48706 133.85331,453.01453 140.5308,438.00817 211.00195,557.82981 379.75167,682.58586 165.42465,577.35681 232.28305,55.437763 360.65526,34.589204 322.85447,58.242274 282.34632,81.247892 177.42968,151.87988 c 1.54886,12.32903 -50.67752,122.57848 -46.06147,290.7517 5.35238,-22.16725 73.85147,106.95594 252.65605,240.71829 C 157.96473,569.30309 248.18484,47.567815 371.85743,35.543184 327.56136,58.984468 299.07589,77.648659 186.2605,143.88943 192.98355,150.4634 132.99441,256.70166 128.96503,431.25351 133.8236,402.22382 199.8233,541.41829 388.30286,684.11103 149.92616,560.02087 264.76809,40.677094 382.35668,37.019523 333.78569,59.701273 317.33443,75.160572 196.24406,135.57789 208.72373,137.2812 140.81102,238.44158 126.74962,418.8659 131.97064,383.38572 194.86539,533.4294 392.62271,684.87925 141.40956,549.43302 281.95046,34.862017 392.08857,38.929277 341.63862,60.515056 336.9103,74.200396 207.44788,127.11916 c 18.72599,-2.0761 -57.08472,92.83254 -82.60633,278.34818 6.44204,-41.39498 65.54173,120.25942 272.17401,280.19449 C 132.53823,537.46818 299.63258,30.212418 401.00344,41.180068 351.1727,61.606151 357.49349,75.17557 219.92001,118.71714 c 25.31625,-4.57185 -58.14443,82.83496 -96.54689,272.35722 8.49752,-46.64123 63.0271,127.33828 278.13611,295.38935 C 123.45893,524.0655 317.69752,26.808429 409.06681,43.679417 362.3788,63.211341 378.66936,78.454909 233.68221,110.6027 265.73101,104.9831 175.1222,183.60461 122.48727,375.72548 133.81922,324.64893 182.92759,511.58414 406.1273,687.28754 114.34137,509.17929 336.01167,24.716779 416.26002,46.338114 375.17808,65.617923 399.92065,84.335438 248.72287,103.02909 c 38.66776,-5.098903 -58.31061,63.47388 -126.38893,256.456 14.85214,-54.5502 57.63307,145.84674 288.55485,328.64871 C 105.37695,492.78498 354.42601,23.987117 422.58047,49.073516 389.41107,69.152209 420.63811,93.007454 264.99004,96.265436 309.85815,93.316217 207.57772,150.65941 123.06551,342.44592 141.98594,285.53659 177.51317,499.73913 415.80777,689.00091 96.775157,474.88337 372.77748,24.648203 428.04111,51.812369 c -23.21505,22.349363 12.101,52.707981 -145.6564,38.77626 50.30808,0.813323 -55.92102,45.898041 -157.55366,234.141131 23.35098,-58.01248 50.72528,170.15214 296.06212,365.1558 C 88.759218,455.50591 390.89181,26.704113 432.66926,54.493044 421.06877,80.990539 457.7156,118.75282 300.75627,86.27282 355.38153,92.354826 246.82291,124.37671 127.7702,306.48712 155.68254,248.73734 174.08491,490.82809 426.14845,690.7829 81.559818,434.71779 408.5868,30.130633 436.50402,57.066556 437.67602,89.94764 472.64806,135.39096 319.89878,83.577548 377.35851,96.226469 268.31566,114.67689 132.00673,287.89608 164.34428,231.83376 173.08802,487.63797 431.57134,691.68684 75.407682,412.61965 425.67709,34.872217 439.59335,59.496639 454.07696,101.2697 484.28903,153.91892 339.55049,82.734246 398.03128,102.93448 290.51671,107.66512 137.6422,269.15917 173.98148,216.20465 172.5575,485.36371 437.15358,692.59043 70.525603,389.34656 441.97984,40.839878 441.98975,61.758451 469.60407,115.07957 492.10726,173.6249 359.39611,83.931887 416.81335,112.25086 312.92908,103.52605 144.74959,250.50037 184.37727,202.00019 172.4903,484.05006 442.88065,693.48625 67.120806,365.06515 457.32091,47.910276 443.74659,63.836749 483.51773,131.34427 495.7514,193.62613 379.0724,87.302389 433.16111,123.79934 335.00516,102.33069 153.36773,232.15992 195.29575,189.31908 172.88999,483.73394 448.7316,694.36687 65.378438,339.96897 471.54162,55.926415 444.9151,65.723853 495.04533,149.83652 495.10599,212.91337 398.17803,92.906602 446.61241,137.06304 356.17401,104.02168 163.49614,214.38856 206.49391,178.20874 173.7686,484.4448 454.67877,695.22531 65.456715,314.2719 484.50463,64.699577 445.54276,67.417828 c 57.89329,102.687802 44.7933,162.996932 -29.25527,33.304342 40.53569,50.68184 -40.41445,7.68414 -241.19618,96.7181 42.64142,-28.77194 0.0564,288.76376 285.59646,498.61527 C 67.48406,288.20322 496.09943,74.012984 445.67843,68.923134 508.0297,191.46393 481.91355,245.07583 432.96794,110.63387 c 30.63038,55.46021 -39.38624,4.52511 -244.90376,70.93 40.72236,-20.90974 -11.0047,307.4611 278.65305,515.28917 C 71.557889,262.00181 506.24674,83.62665 445.53049,70.316863 c 62.80485,142.678017 25.08822,185.633377 2.2695,52.111237 19.11136,57.9286 -38.94557,1.40605 -245.52004,44.56583 37.17119,-12.90778 -22.73251,325.91803 270.4388,530.6213 C 77.74427,235.91304 514.9017,93.284281 445.88336,71.95679 c 58.23002,161.63153 11.62475,190.33552 14.5172,63.83521 6.50678,57.62564 -39.05198,-1.90235 -242.84132,18.14954 31.99002,-5.08524 -34.89258,343.91821 261.07771,544.40041 C 86.078098,210.18562 522.05668,102.72318 447.11833,74.046734 c 48.33349,177.959146 -3.29476,189.591306 23.32862,76.271946 -6.56591,54.24489 -39.603,-5.59936 -236.76442,-7.73391 25.25174,2.25178 -47.19876,361.26759 250.72677,556.45104 C 96.563025,185.07 527.74636,111.69249 449.32112,76.669266 482.82601,266.97672 430.55579,259.89116 477.70004,165.51797 458.21833,213.20969 437.25084,155.69409 250.39562,133.06066 267.49148,141.88728 191.07621,510.86138 489.9665,699.70251 109.17106,160.81647 532.05872,119.98845 452.53274,79.912509 467.13029,277.32026 415.68368,253.65426 482.02612,180.83455 450.28381,218.99064 440.60275,166.20867 267.41851,125.45772 275.13782,139.8648 196.5314,518.84487 495.23238,700.35091 123.84219,137.67252 535.15575,127.51538 456.75659,83.879267 449.67351,282.08902 397.51696,252.84299 483.41363,195.6713 440.24406,221.91937 441.03223,175.73299 284.45485,119.81124 281.81972,138.62809 202.945,527.74539 500.12432,700.99298 140.48342,115.88054 537.27488,134.32916 461.9539,88.687693 432.1463,280.74265 379.05919,260.38474 481.98396,209.4181 427.90388,222.69049 438.72987,183.86861 301.20318,116.10048 287.50983,138.04407 210.41833,537.48806 504.55329,701.64357 158.96727,95.675055 538.66173,140.56766 468.03812,94.469167 416.66935,274.04882 363.63241,276.33929 477.99286,221.48464 412.87438,223.0452 433.89102,190.41244 317.36891,114.24885 292.20307,137.99176 219.05585,547.97929 508.42441,702.31982 179.12905,77.279697 539.49926,146.34395 474.86965,101.3631 402.25014,270.06017 354.38822,299.49677 471.81863,231.33492 395.31402,225.60359 426.6662,195.43069 332.67563,114.12711 295.91215,138.36492 228.96105,559.10511 511.63729,703.04023 200.74467,60.9145 539.91728,151.74446 482.25103,109.50832 386.73234,274.35256 353.9812,327.55056 463.9293,238.52278 376.52385,232.82982 417.14806,199.33623 346.87541,115.55929 298.66306,139.07368 240.23222,570.73046 514.08645,703.82359 223.43469,46.813658 540.02985,156.88106 489.92377,119.03104 373.17831,287.49216 364.2183,357.29881 454.80801,242.73153 358.67528,246.1029 405.4386,202.93119 359.75818,118.33137 300.49061,140.04518 252.95717,582.69873 515.66183,704.6873 246.96397,35.006592 539.95471,161.93224 497.56756,130.0291 365.35026,308.6134 385.77354,384.95579 444.7829,243.84885 344.18881,265.54644 391.80583,207.34052 371.15778,122.20192 301.43445,141.22351 267.20784,594.83299 516.24966,705.64546 271.25873,25.475251 539.80978,167.1584 504.80318,142.55301 366.69284,335.34256 418.01537,406.55139 433.67994,242.23 335.28346,290.24308 376.84798,213.78866 380.956,126.91444 301.53559,142.56923 283.03391,606.93746 515.73301,706.70649 296.12405,18.283746 539.68871,172.88051 511.20064,156.58487 379.70798,363.93293 458.97553,418.3778 420.61619,239.42255 333.70676,318.50124 361.53682,223.29046 389.08302,132.21027 300.83333,144.05871 300.45679,618.80107 513.99293,707.87039 321.33103,13.488942 539.62469,179.42597 516.29376,172.01616 405.41455,389.64544 505.47137,417.4315 405.07964,238.39243 340.56765,348.10869 347.09897,236.41005 395.51559,137.84158 299.363,145.68355 319.46379,630.20251 510.90985,709.12561 346.63729,11.125285 539.56117,187.0733 519.60232,188.62672 c -76.63166,218.7117 33.77007,213.1712 -131.52665,53.16343 -31.8329,134.79166 -53.26139,11.38604 12.19632,-98.20663 -103.11774,3.86675 -60.26959,497.33296 106.09279,566.86222 -134.57159,-699.24438 32.97438,-514.42752 14.29791,-504.37817 -31.12645,206.12917 77.32307,164.86431 -149.18749,44.77647 8.87671,150.5644 -45.64834,22.2889 31.93042,-101.59908 -109.17562,0.13519 -41.42935,501.47698 96.83632,562.54089 -103.69733,-698.087501 38.45663,-505.42683 18.82475,-487.93493 21.35934,176.64868 115.45277,101.94701 -161.7864,41.8147 54.52073,154.61028 -36.26558,29.79382 47.71687,-110.98859 -114.39097,-3.16735 -19.75493,504.73445 87.43377,558.40189"
       id="path3082" />
  </g>
</svg>
