<?xml version="1.0" encoding="UTF-8" standalone="no"?>
<!-- Created with Inkscape (http://www.inkscape.org/) -->

<svg
   xmlns:dc="http://purl.org/dc/elements/1.1/"
   xmlns:cc="http://creativecommons.org/ns#"
   xmlns:rdf="http://www.w3.org/1999/02/22-rdf-syntax-ns#"
   xmlns:svg="http://www.w3.org/2000/svg"
   xmlns="http://www.w3.org/2000/svg"
   xmlns:sodipodi="http://sodipodi.sourceforge.net/DTD/sodipodi-0.dtd"
   xmlns:inkscape="http://www.inkscape.org/namespaces/inkscape"
   width="744.09448819"
   height="1052.3622047"
   id="svg3783"
   version="1.1"
   inkscape:version="0.48.2 r9819"
   sodipodi:docname="spiral050.svg">
  <sodipodi:namedview
     id="base"
     pagecolor="#ffffff"
     bordercolor="#666666"
     borderopacity="1.0"
     inkscape:pageopacity="0.0"
     inkscape:pageshadow="2"
     inkscape:zoom="0.49497475"
     inkscape:cx="236.82754"
     inkscape:cy="762.54256"
     inkscape:document-units="px"
     inkscape:current-layer="layer1"
     showgrid="false"
     inkscape:window-width="1024"
     inkscape:window-height="749"
     inkscape:window-x="-4"
     inkscape:window-y="-4"
     inkscape:window-maximized="1" />
  <defs
     id="defs3785">
    <inkscape:perspective
       id="perspective3823"
       inkscape:persp3d-origin="334.90438 : 296.50168 : 1"
       inkscape:vp_z="372.04724 : 175.3937 : 0"
       inkscape:vp_y="0 : 1000 : 0"
       inkscape:vp_x="-314.90439 : 155.3937 : 0"
       sodipodi:type="inkscape:persp3d" />
  </defs>
  <metadata
     id="metadata3788">
    <rdf:RDF>
      <cc:Work
         rdf:about="">
        <dc:format>image/svg+xml</dc:format>
        <dc:type
           rdf:resource="http://purl.org/dc/dcmitype/StillImage" />
        <dc:title></dc:title>
      </cc:Work>
    </rdf:RDF>
  </metadata>
  <g
     id="layer1"
     inkscape:groupmode="layer"
     inkscape:label="Layer 1">
    <flowRoot
       style="fill:black;stroke:none;stroke-opacity:1;stroke-width:1px;stroke-linejoin:miter;stroke-linecap:butt;fill-opacity:1;font-family:Sans;font-style:normal;font-weight:normal;font-size:40px;line-height:125%;letter-spacing:0px;word-spacing:0px"
       id="flowRoot3475"
       xml:space="preserve"><flowRegion
         id="flowRegion3477"><rect
           y="840.23016"
           x="40.406101"
           height="76.771591"
           width="474.7717"
           id="rect3479" /></flowRegion><flowPara
         id="flowPara3481" /></flowRoot>    <path
       inkscape:connector-curvature="0"
       id="path3094"
       d="m 334.4248,217.22059 c -5.22535,-1.70337 -10.39014,-2.1831 -11.46015,-1.56268 -1.26821,1.01758 4.63125,3.24421 11.53983,5.16028 9.52402,3.42365 17.95411,5.88139 19.38412,5.20667 2.47653,-0.44486 -6.15293,-6.00079 -17.91067,-10.62547 -13.67439,-3.78455 -25.70601,-3.54498 -26.73241,-1.19999 0.11797,2.97349 12.64043,6.31938 26.84182,9.54422 17.67403,7.02496 32.38844,13.0992 34.05092,11.60018 3.78652,-0.30823 -10.32656,-11.55423 -31.26876,-21.2132 -22.22058,-5.92531 -41.17871,-3.75383 -41.67833,0.68882 2.40884,5.00749 21.04139,8.24375 41.64,12.28487 25.49131,11.69259 45.5853,22.83397 47.35948,20.41495 5.43207,0.60876 -12.89869,-17.54682 -43.0603,-33.98731 -30.9016,-8.39458 -56.68749,-3.30201 -56.07723,3.62535 5.65737,6.99359 29.50292,9.10322 55.62886,13.80316 32.79116,17.66439 56.94929,35.05969 58.80193,31.51567 7.13758,2.31599 -13.74547,-23.60827 -52.7144,-48.72296 -39.67526,-11.45167 -72.25815,-2.70577 -69.79663,7.08927 9.78446,8.83343 37.75393,9.06065 68.6088,14.57436 39.28375,25.09262 65.87577,49.53354 67.89582,44.59935 8.65753,4.76411 -12.85219,-29.33415 -59.71205,-65.04494 -48.44692,-15.33468 -87.96553,-2.46567 -82.78225,10.55113 14.64848,10.48287 45.61113,8.33129 80.47601,15.09865 44.59029,33.99748 71.79743,65.78192 74.22307,59.20433 9.78024,7.84412 -10.31696,-34.31761 -63.62407,-82.44174 -57.06109,-20.25229 -103.89211,-3.05241 -95.04186,13.50135 20.07083,11.94647 52.99814,7.16997 91.20017,15.87233 48.27733,44.22725 74.25211,83.11491 77.47012,74.732 10.34132,11.3979 -6.34491,-38.18343 -64.14451,-100.28979 -65.29708,-26.37219 -120.0958,-4.90054 -106.62357,15.47345 25.86011,13.25552 59.95376,5.87478 100.79295,17.3599 49.9137,55.43539 72.94959,100.66731 77.46513,90.48147 10.23409,15.23418 -1.23078,-40.61653 -61.1155,-117.8853 -72.87148,-33.80611 -136.58699,-8.4065 -117.59205,16.05949 31.8357,14.43819 66.62173,4.80976 109.27167,19.96647 49.14262,67.08534 67.82635,117.46493 74.2086,105.69847 9.41394,19.14696 4.66503,-41.38528 -54.54313,-134.48317 -79.44787,-42.59184 -153.31374,-13.9281 -128.00385,14.9192 37.84545,15.49079 73.20532,4.43476 116.62601,24.01026 45.75356,78.48729 59.07632,132.50887 67.88985,119.63385 7.89649,22.93341 10.94584,-40.35454 -44.60166,-149.3379 -84.65432,-52.67551 -170.15501,-21.78355 -137.88503,11.78343 43.76975,16.35758 79.87148,5.30839 122.79435,29.69641 39.73772,88.86482 47.1511,144.86816 58.88491,131.60755 5.75069,26.40953 17.20933,-37.49006 -31.62647,-161.7451 -88.10875,-63.89664 -186.91853,-32.24773 -147.21383,6.45596 49.50241,16.91866 86.61913,8.01714 127.65692,37.0945 31.31237,97.43974 32.7256,153.76657 47.73194,141.06806 3.0876,29.42266 23.07674,-32.85361 -16.09623,-171.07946 -89.45072,-75.9794 -203.33877,-45.5438 -155.91036,-1.1844 54.85203,16.9928 93.1798,13.02395 131.04685,46.12379 20.90757,103.5204 16.63341,158.65186 35.0862,147.63962 0.0469,31.85895 28.21819,-26.59047 1.39427,-176.82723 -88.37678,-88.53329 -219.0709,-61.83033 -163.83527,-11.18034 59.30815,16.8087 99.02904,20.50351 132.77679,56.55048 9.11752,106.57672 -0.21881,159.23659 21.66056,151.14872 -3.2175,33.64675 32.372,-18.91155 20.16876,-178.6101 -84.67709,-101.06561 -233.6815,-81.18784 -170.79766,-23.4922 62.84841,17.90436 103.50951,30.25358 132.67434,67.99928 -3.37383,106.28984 -16.94489,155.50724 8.1607,151.62731 -6.55109,34.75551 35.3573,-10.07227 39.50864,-176.19998 C 385.22879,208.56571 216.85627,217.9628 286.90168,283.57735 c 65.53675,20.86741 106.01744,41.71043 130.64197,79.97843 -15.87861,102.57209 -32.7665,147.70347 -4.77476,149.29374 -9.81089,35.19178 37.07969,-0.35108 58.69357,-169.52431 -69.21715,-123.74319 -257.32265,-128.99225 -181.59999,-54.74397 67.58712,25.60185 106.69781,54.30744 127.24966,92.1844 -27.78767,95.55661 -47.08326,136.27457 -16.62161,144.51618 -12.87478,34.99241 37.53065,9.9704 77.04162,-158.66138 C 419.77728,233.95283 212.5133,209.48877 291.43277,292.84171 c 69.10041,31.77037 105.83155,67.3922 123.0677,104.33973 -38.63851,85.56583 -59.51864,121.82351 -26.99937,137.76578 -15.64844,34.21712 36.78138,20.62464 93.94521,-143.82755 -44.27358,-139.2221 -268.96404,-187.69929 -189.94768,-94.84778 69.83892,38.68186 103.47347,80.0682 118.29483,115.9561 -48.16032,73.06593 -69.93853,105.04787 -35.68203,129.56693 -18.06901,32.94042 34.97301,31.37047 108.90198,-125.35777 C 453.70424,273.48846 214.63852,196.2236 290.00744,298.78919 c 69.68339,45.62073 99.83562,91.52123 113.16433,126.59605 -56.29359,58.61936 -78.44433,86.68785 -42.59126,120.45138 -20.10672,31.24469 32.3041,42.00083 121.53798,-103.68203 C 468.61048,298.62568 219.61772,188.15334 286.93864,300.31085 c 68.64231,51.93947 95.24405,101.09808 107.94207,135.90652 -63.18448,42.84268 -85.34421,67.48607 -47.77623,110.92038 -21.76399,29.2143 29.01698,52.34544 131.62308,-79.29946 2.4173,-140.81339 -250.68805,-288.16474 -196.4353,-167.07181 66.81516,57.11308 90.06705,108.33733 102.90174,143.62502 -69.15748,26.3757 -91.10768,48.16229 -51.38464,101.41768 -23.07298,26.93153 25.38359,62.26931 139.07797,-52.7525 C 490.62747,358.22132 240.4312,171.48736 276.08215,300.11263 c 64.33966,60.7671 84.64265,112.97202 98.29544,149.5741 -74.67093,9.86375 -96.31009,29.40172 -53.63007,92.31345 -24.09208,24.47425 21.69236,71.66721 143.97315,-24.60368 C 496.4938,391.58881 257.13991,164.53477 268.33366,298.34544 c 61.33778,62.68521 79.21702,114.91448 94.32364,153.64979 -80.26093,-6.04887 -101.57249,11.85218 -54.75937,83.89785 -24.90136,21.91518 18.23565,80.4557 146.52032,4.58457 C 498.33564,426.37369 278.24359,159.95034 259.08668,295.5086 c 57.8699,62.80409 73.89942,114.23465 91.10677,155.80948 -86.47921,-20.71923 -107.50432,-3.87763 -55.02395,76.38203 -25.59785,19.32201 15.29776,88.56347 147.05763,34.26458 C 495.9297,461.73875 303.47578,158.98062 248.40699,291.69406 c 53.89991,61.20393 68.63374,111.14095 88.65746,156.0643 -93.83191,-33.5077 -114.65889,-17.23333 -54.65691,69.90343 -26.29059,16.7579 13.14591,95.92145 146.02985,63.91366 60.81381,-84.76116 -96.25862,-418.70736 -192.02516,-294.54294 49.26773,58.102 63.18003,105.97142 86.84774,154.48099 -102.73113,-43.79471 -123.5213,-27.77736 -53.85725,64.53308 -27.09594,14.281 12.01931,102.45376 143.96457,93.03966 65.10398,-68.33705 -50.06709,-426.37104 -190.04517,-317.4231 43.65916,53.86263 57.09353,99.2063 85.36193,151.2056 -113.49163,-51.05069 -134.56949,-35.41877 -52.78226,60.28161 -28.1348,11.94 12.12262,108.07174 141.44669,121.18311 66.59118,-51.57548 -1.90971,-424.98645 -187.80223,-338.67279 36.56107,49.04525 49.68341,91.52267 83.6211,146.53079 -126.49164,-55.19291 -148.37164,-41.29965 -51.54822,57.10238 -29.53025,9.7639 13.61893,112.67204 139.0926,147.91841 65.44307,-35.05252 46.22728,-414.01947 -184.91187,-358.3261 27.2261,44.52005 39.95494,83.92117 80.6876,141.04023 -142.34305,-59.02898 -164.46609,-50.19478 -50.24041,54.88761 -31.41096,7.73438 16.62682,116.14293 137.52669,172.85872 61.95146,-19.2671 92.25217,-393.46755 -180.62325,-376.86987 14.84588,41.57031 26.62493,77.87897 75.24492,135.78698 -156.80545,-72.42978 -177.107643,-69.77199 -48.93409,53.45219 -33.91341,5.72757 21.22354,118.38491 137.36469,195.67197 56.49996,-4.61983 134.13675,-363.8829 -173.95605,-395.17782 -0.32391,41.18121 8.32817,75.24701 65.77578,132.22484 C 79.721257,282.5686 62.029807,280.26743 190.91687,435.24965 c -37.17065,3.38423 27.45923,119.36269 139.20885,216.12742 49.52945,8.59662 170.08514,-326.3378 -163.8898,-414.00344 -15.22297,40.25052 -15.65321,77.0591 50.78997,131.69365 C 76.373997,230.5391 61.673557,224.50135 170.23164,420.51798 c -41.20205,-0.13826 35.38297,119.23162 143.65629,234.2193 41.50511,20.19713 198.68166,-282.33601 -149.39761,-433.47437 -27.19915,33.93091 -39.90879,71.83745 28.88206,134.89172 -97.554283,-180.44028 -109.105933,-189.07957 -46.37574,49.26232 -45.46857,-6.42702 45.04247,118.6467 151.28569,250.47926 32.88438,30.09558 218.99671,-233.6817 -129.4797,-452.96726 -34.14408,22.28182 -58.98896,56.03999 -1.31268,141.62277 C 138.866,127.12575 130.35779,116.83083 121.05422,388.35876 73.053697,371.07399 177.26913,507.74353 283.42866,654.97469 307.5224,693.26446 514.07284,472.649 180.12175,183.76039 146.03865,191.53413 111.38059,216.6846 138.81762,332.20581 202.6745,93.731696 196.95199,82.445166 93.587777,366.12382 48.066247,333.48788 160.91469,490.89377 269.39629,652.10618 284.90527,696.94943 503.17807,521.89876 198.98504,165.63251 172.88523,159.44065 132.39729,172.88597 112.11151,309.91357 281.0398,82.924236 277.86259,71.041426 68.364897,335.32378 32.632857,285.74301 142.59509,473.4439 256.2058,647.43179 263.64771,697.29722 485.26617,568.31791 225.35881,150.70145 214.59733,134.71805 173.21543,135.26356 94.696607,276.37981 365.29696,99.268696 364.57053,87.035676 50.732317,295.04248 c -18.4524,-64.40865 71.261973,159.94935 193.096723,346.05326 0.13476,53.49346 217.53664,-30.5683 14.71718,-499.92258 9.84974,-18.42886 -27.42024,-29.84532 -167.650903,93.81803 354.780783,-91.24474 356.584963,-103.55911 -45.409,12.32963 5.17625,-73.97475 53.53716,187.25652 186.707553,385.92238 -6.24355,55.87538 200.55731,14.24035 64.98602,-494.18275 32.44076,-11.44539 3.45762,-31.92216 -193.70437,51.53076 409.36048,23.06333 413.86616,11.11222 -47.580503,5.57761 33.1652,-75.8156 18.30728,214.32488 165.291603,427.84894 -11.59442,57.15807 179.63733,54.48726 118.11485,-478.06361 53.07449,5.52797 34.99141,-19.68514 -205.89263,2.95376 425.85161,154.25256 433.15895,143.35775 -49.958173,-2.23498 62.789233,-68.253234 -34.19997,233.80161 127.206503,466.88763 -15.88567,57.4782 156.34071,89.70316 171.86229,-450.7239 67.87429,31.39369 61.33017,6.3968 -202.89593,-46.97372 400.62144,288.4946 410.58044,279.56019 -51.83819,-11.56166 C 218.5762,53.680656 27.454526,342.57744 200.42436,602.01017 181.27883,658.96668 332.60177,721.74475 424.22393,189.96304 497.93482,253.54603 501.57586,233.4798 239.0255,96.804856 574.32115,508.56877 586.39985,502.57568 186.70251,74.264256 300.44604,50.825236 13.212996,296.37071 190.28025,589.50026 168.82653,645.19757 298.80346,734.18728 461.82921,226.82482 530.55431,325.33938 541.38033,313.92329 306.81726,95.794866 543.10393,607.61999 556.3485,605.43598 256.37406,60.917256 384.865,72.473536 10.940316,243.53676 179.99614,576.15755 157.06289,629.94652 266.55891,741.01539 493.01168,272.19971 545.6008,404.41289 559.57431,403.86867 377.0731,115.06616 490.67507,694.84699 503.77417,697.04337 331.71568,67.258066 464.31005,118.82549 24.048016,187.65287 169.32868,562.09765 145.58742,613.40355 236.58473,742.76862 515.91177,324.2768 542.38829,485.22586 555.15288,496.09681 443.47712,154.74866 422.69242,765.70141 434.12656,772.42459 406.90911,94.580876 531.60213,187.63793 54.345747,133.572 158.02489,547.41445 c -24.05831,48.31249 51.32594,192.62467 371.25226,-166.57686 -7.2213,181.77067 0.33308,203.05214 -29.1792,-167.93915 C 345.43564,817.92088 353.66898,828.85322 476.01143,142.33491 580.72265,274.52518 101.78154,86.717096 145.82946,532.16505 c -24.078,44.86437 39.25932,201.25529 386.70425,-92.69933 -45.3456,192.84372 -46.13597,222.34709 9.54201,-153.65234 C 264.96259,851.32971 268.63152,865.74106 533.56386,208.20106 607.44596,373.52618 164.41958,52.395726 132.49506,516.34502 108.49849,557.35118 163.81102,723.46944 525.7826,497.75755 441.30276,691.32048 430.18766,726.1607 566.11842,368.56677 186.48929,867.38592 184.54915,884.25783 575.13134,288.37706 489.86261,648.1419 -237.7648,848.12405 245.07721,412.97488 221.07786,449.74153 145.33662,710.68355 509.73192,553.50846 388.31252,737.96454 366.10755,775.05904 570.74673,455.6549"
       style="fill:none;stroke:#000000;stroke-width:1px;stroke-linecap:butt;stroke-linejoin:miter;stroke-opacity:1"
       sodipodi:nodetypes="ccccccccccccccccccccccccccccccccccccccccccccccccccccccccccccccccccccccccccccccccccccccccccccccccccccccccccccccccccccccccccccccccccccccccccccccccccccccccccccccccccccccccccccccccccccccccccccccccccccccc" />
  </g>
</svg>
