<?xml version="1.0" encoding="UTF-8" standalone="no"?>
<!-- Created with Inkscape (http://www.inkscape.org/) -->

<svg
   xmlns:dc="http://purl.org/dc/elements/1.1/"
   xmlns:cc="http://creativecommons.org/ns#"
   xmlns:rdf="http://www.w3.org/1999/02/22-rdf-syntax-ns#"
   xmlns:svg="http://www.w3.org/2000/svg"
   xmlns="http://www.w3.org/2000/svg"
   xmlns:sodipodi="http://sodipodi.sourceforge.net/DTD/sodipodi-0.dtd"
   xmlns:inkscape="http://www.inkscape.org/namespaces/inkscape"
   width="744.09448819"
   height="1052.3622047"
   id="svg3783"
   version="1.1"
   inkscape:version="0.48.2 r9819"
   sodipodi:docname="letter sized frame blank.svg">
  <sodipodi:namedview
     id="base"
     pagecolor="#ffffff"
     bordercolor="#666666"
     borderopacity="1.0"
     inkscape:pageopacity="0.0"
     inkscape:pageshadow="2"
     inkscape:zoom="0.98994949"
     inkscape:cx="-23.696951"
     inkscape:cy="703.27205"
     inkscape:document-units="px"
     inkscape:current-layer="layer1"
     showgrid="false"
     inkscape:window-width="1084"
     inkscape:window-height="748"
     inkscape:window-x="82"
     inkscape:window-y="-16"
     inkscape:window-maximized="0" />
  <defs
     id="defs3785">
    <inkscape:perspective
       sodipodi:type="inkscape:persp3d"
       inkscape:vp_x="0 : 658.18109 : 1"
       inkscape:vp_y="0 : 1000 : 0"
       inkscape:vp_z="744.09448 : 658.18109 : 1"
       inkscape:persp3d-origin="372.04724 : 482.78739 : 1"
       id="perspective3025" />
    <inkscape:perspective
       sodipodi:type="inkscape:persp3d"
       inkscape:vp_x="0 : 526.18109 : 1"
       inkscape:vp_y="0 : 1000 : 0"
       inkscape:vp_z="744.09448 : 526.18109 : 1"
       inkscape:persp3d-origin="372.04724 : 350.78739 : 1"
       id="perspective2995" />
  </defs>
  <metadata
     id="metadata3788">
    <rdf:RDF>
      <cc:Work
         rdf:about="">
        <dc:format>image/svg+xml</dc:format>
        <dc:type
           rdf:resource="http://purl.org/dc/dcmitype/StillImage" />
        <dc:title></dc:title>
      </cc:Work>
    </rdf:RDF>
  </metadata>
  <g
     inkscape:label="Layer 1"
     inkscape:groupmode="layer"
     id="layer1">
    <rect
       style="fill:none;stroke:#000000;stroke-width:0.91610378;stroke-opacity:1"
       id="rect4319"
       width="516.12524"
       height="779.49591"
       x="7.8454075"
       y="12.284647" />
    <flowRoot
       xml:space="preserve"
       id="flowRoot3475"
       style="fill:black;stroke:none;stroke-opacity:1;stroke-width:1px;stroke-linejoin:miter;stroke-linecap:butt;fill-opacity:1;font-family:Sans;font-style:normal;font-weight:normal;font-size:40px;line-height:125%;letter-spacing:0px;word-spacing:0px"><flowRegion
         id="flowRegion3477"><rect
           id="rect3479"
           width="474.7717"
           height="76.771591"
           x="40.406101"
           y="840.23016" /></flowRegion><flowPara
         id="flowPara3481" /></flowRoot>    <path
       style="fill:none;stroke:#000000;stroke-width:1px;stroke-linecap:butt;stroke-linejoin:miter;stroke-opacity:1"
       d="M-190.408921625 408.915967321C-190.388851285 408.996060651 -191.433324992 407.083895566 -192.289889625 405.500413377C-194.500908276 401.218171039 -197.833601983 394.297419887 -194.759850876 400.71480256C-188.500825067 412.053923759 -185.725045849 416.642383027 -184.162858946 419.112192413C-181.676767265 422.852437693 -168.326391932 439.347442359 -179.96858573 425.160810633C-192.629003101 405.128121416 -197.778363514 394.50133276 -198.85691509 391.845016245C-199.973717726 388.906559551 -209.233045087 359.853306938 -201.848304627 384.390373642C-187.29457119 413.871808876 -176.760440032 429.258781436 -174.373969485 432.441044725C-170.893400329 436.770673303 -135.169436846 467.2330676 -167.085071516 440.824083697C-193.320361739 404.018387952 -203.271787346 380.954997932 -203.988450074 378.347389535C-204.338413302 376.639356238 -213.366416725 327.274297541 -206.978017742 368.428115128C-185.98417602 415.799151824 -166.249077037 441.457110611 -162.85336472 445.211114886C-157.451817053 450.620970866 -93.5299211019 485.796398438 -151.678542118 455.395072071C-193.866591706 403.167622744 -207.545332416 367.319939395 -207.822867016 365.172445428C-207.450062 365.386246076 -212.057970543 297.940296087 -210.396336368 353.074099684C-184.49918401 417.93480351 -154.308531756 452.840811667 -149.575427995 457.11152169C-141.28236788 463.638289415 -46.6596376244 491.05666354 -133.774097513 468.300774638C-194.282434748 402.557340813 -210.643478191 353.793519766 -210.505377769 352.450352159C-209.545987688 355.315270881 -207.037809103 272.489622671 -212.355512642 338.507895888C-182.824616756 420.279082198 -141.007229891 463.156126479 -134.568532562 467.804147617C-122.355826658 475.089995367 0.062667261749 480.467120569 -113.530472254 478.926379479C-194.5727425 402.185251742 -212.648247142 340.50597125 -212.181908314 340.280960159C-210.858193752 346.499325036 -199.773658995 251.029955344 -213.100814265 324.85275529C-180.9469062 422.826547179 -126.440887598 472.166069552 -117.927772173 476.93163326C-100.80611252 484.177996371 39.8978716881 454.236155483 -91.2655240432 486.647750155C-194.740040616 402.050853946 -213.65332156 327.558682039 -212.994919588 328.736295201C-211.589734403 338.968499699 -191.410702584 233.341497127 -212.862724845 312.183896066C-178.852099181 425.569196626 -110.744031643 479.642201881 -99.8247519803 484.131179082C-76.9864529074 490.069518183 66.4698689752 416.156213912 -67.4725941921 490.876132672C-194.785742012 402.153141875 -213.757049433 315.030695804 -213.079990371 317.865123686C-211.911184527 332.725915217 -182.782859359 219.035247822 -211.851796296 300.53836388C-176.525667609 428.496865705 -94.0932966177 485.36950895 -80.5138812843 489.052180029C-51.513133644 491.961860772 76.0818225606 373.178269391 -42.8268050539 491.112394927C-194.709873762 402.491111353 -213.058626664 302.983649418 -212.563611053 307.696212665C-211.960686833 327.759962503 -174.458852357 207.660721773 -210.255958018 289.923115536C-173.951435646 431.598570345 -76.7095025667 489.153915692 -60.3383299327 491.376288805C-25.2827040801 489.17520278 69.6040006494 333.284119789 -18.1695821842 487.008914288C-194.511103765 403.063830151 -211.655681425 291.462788741 -211.561785157 298.242355967C-211.845729301 324.051371787 -166.798328476 198.770988869 -208.239628045 280.322779729C-171.113023765 434.860566467 -58.8553209899 490.832094709 -39.7267829489 490.841878915C0.543845126363 481.263909678 52.5568109915 302.221797203 5.52543017895 478.43201973C-194.187334421 403.869218211 -209.642345906 280.49916934 -210.179323952 289.503254894C-211.645258882 321.579025064 -160.007574438 191.960139237 -205.944083914 271.705721266C-167.992888098 438.267530213 -40.8313833183 490.281123092 -19.1853181232 487.269242733C24.6092727714 468.132250292 32.7673111255 281.024072382 27.2155131134 465.516716459C-193.735276721 404.904963381 -207.107945315 270.111679804 -208.509658291 281.468455281C-211.411679766 320.324413361 -154.185246289 186.877801873 -203.488739382 264.029513666C-164.573152311 441.80150629 -22.9703366604 487.428020481 0.718767615938 480.585717999C45.4822748673 450.132058993 17.042410732 266.487199751 45.8762155153 448.701641761C-193.150378317 406.168585307 -204.136031872 260.30875679 -206.635084967 274.119973434C-211.172451626 320.274101637 -149.35850479 183.232524995 -200.972931126 257.245078964C-160.835766486 445.441793594 -5.62865293493 482.258875514 19.3826861236 470.847719144C61.8347623126 428.113086596 9.55679931183 254.407797039 60.6067225196 428.733965858C-192.427362432 407.656486126 -200.803692199 251.089834164 -204.627216323 267.43417131C-210.931028901 321.422178045 -145.509627605 180.788166448 -198.477993274 251.300026811C-156.762462203 449.165012527 10.8264115617 474.825938721 36.20240851 458.256238284C72.6550791308 403.392534479 12.4975167705 242.701564191 70.7448316696 406.631181213C-191.559495774 409.365244675 -197.181154326 242.446850578 -202.547719657 261.38378617C-210.666982537 323.770769067 -142.594136514 179.356882229 -196.069322979 246.140909652C-152.334726626 452.945134028 26.0299633457 465.252687055 50.6131343253 443.163253727C77.4556346982 377.62339211 26.8947248937 232.434300787 75.9704094065 383.596389422C-190.539651282 411.28972145 -193.331806951 234.366101589 -200.449102166 255.939237225C-210.335254769 327.32975091 -140.552613419 178.790987484 -193.7985662 241.715290951C-147.535500438 456.752025082 39.635657761 453.735652359 62.135039912 426.065123621C76.4219356384 352.558408498 52.4146214542 227.139015806 76.3775395857 360.888887459C-189.359268083 413.424899083 -189.312104189 226.829053441 -198.375569961 251.069878133C-209.864384372 332.115953828 -139.318111367 178.975069921 -191.705617322 237.973083228C-142.347535661 460.553039454 51.3333075211 440.542047529 70.4193753867 407.580137368C70.4430767032 329.745158223 86.7115764567 231.319079303 72.4929153961 339.662864426C-188.009304413 415.764216232 -185.17167482 219.813407522 -196.363883054 246.744794156C-209.15387278 338.150574722 -138.819925382 179.818271297 -189.820438221 234.867346607C-136.755849088 464.311137454 60.8661206724 426.00344616 75.2886074726 388.410550924C60.9875717048 310.230321821 125.266470013 248.736523392 65.2248816049 320.805628954C-186.479505676 418.300793218 -180.953865377 213.29452863 -194.444151738 242.933475034C-208.070804458 345.453492344 -138.985355789 181.247472915 -188.16461336 232.354855915C-130.747316286 467.985589261 68.0477502708 410.503996679 76.7652855198 369.289174455C49.8371047069 294.370167665 162.075325293 281.006314829 55.7435224815 304.81030706C-184.758739463 421.026831601 -176.695850773 207.245843342 -192.640777441 239.606657203C-206.445777592 354.038116816 -139.741081482 183.201800776 -186.752922753 230.396587007C-124.311395027 471.531763256 72.7766940994 394.463604959 75.0829939892 350.915814153C38.7604849058 281.839154129 190.970964842 326.935333405 45.3138911205 291.724421756C-182.835916323 423.932297743 -172.42935714 201.63993532 -190.973055316 236.736337181C-204.069026228 363.901172012 -141.012975213 185.627093283 -185.5945391 228.957888102C-117.439973936 474.90151529 75.0463908044 378.318361763 70.6744701787 333.888773579C29.2460539724 271.842787098 207.051017394 382.777390863 35.1258990404 281.196946866C-180.698391356 427.007257203 -168.180681458 196.448596476 -189.456019149 234.296398086C-200.687312561 375.009722537 -142.727071445 188.472221807 -184.694125215 228.008625484C-110.130324474 478.042069018 74.9508789507 362.495116822 64.1353771567 318.645190506C22.3838252928 263.451485625 207.682550829 443.212168688 26.1705849875 272.615087296C-178.333658311 430.23950068 -163.97151562 191.643785793 -188.10088823 232.262514722C-196.003273684 387.283917404 -144.810517766 191.68599009 -184.052596008 227.522954382C-102.383427571 480.897464457 72.6828693593 347.384497227 56.1667009457 305.418196381C18.8920870827 255.916629745 192.807735565 502.6292512 19.1932485324 265.288019087C-175.728448221 433.615802294 -159.81940731 187.197966075 -186.915746522 230.612394506C-189.678427895 400.576594366 -147.193645513 195.215955199 -183.66813383 227.479851493C-94.2063695672 483.408075653 68.5250096708 333.318169428 47.5044460834 294.223549813C19.2039188206 248.866103362 164.579171727 556.267557616 14.7170795374 258.620182015C-172.869486951 437.121024017 -155.737841818 183.084004065 -185.90595677 229.325795742C-181.343390628 414.647505025 -149.812479028 199.008615226 -183.536716439 227.862970074C-85.6131143088 485.511205074 62.8330359198 320.543096111 38.8504647919 284.88069876C23.531266886 242.35862789 126.578445858 600.922533413 13.0993115451 252.231116208C-169.743043261 440.738714323 -151.737359572 179.276127587 -185.074689634 228.384723543C-170.617855128 429.135606195 -152.612139691 203.012073943 -183.652497031 228.660653395C-76.6245426518 487.14191391 56.0126595341 309.206533852 30.8181991388 277.064556622C31.8732650693 236.825928992 82.9334156778 635.14847823 14.5803759525 246.010041857C-166.33580707 444.450182215 -147.825079558 175.749186681 -184.423274905 227.773404457C-157.142546736 443.533363074 -155.55111398 207.181921409 -184.008090084 229.865755089C-67.2703148761 488.233541672 48.4922608079 299.348749606 23.904532516 270.378397225C43.9891204958 232.947384996 37.5808860572 659.056693466 19.3016533011 240.114358324C-162.634587723 448.234980311 -144.006060614 172.479730682 -183.951413907 227.47807937C-140.630275086 457.163147675 -158.60457927 211.488962638 -184.595233709 231.477019661C-57.5893653408 488.718832513 40.6945162206 290.9059604 18.4885850722 264.429115761C59.3752039455 231.494320858 -6.20560645211 673.886198725 27.2955497422 234.929219067C-158.626469468 452.07083413 -140.28288258 169.445328472 -183.65767038 227.487415692C-120.931140066 469.17152436 -161.767792813 215.930622113 -185.404468594 233.49835801C-47.6308697662 488.53114957 33.0110904618 283.725295414 14.8487085506 258.891047133C77.2732520653 233.172862531 -46.0121306275 681.514605843 38.4567062577 231.004045907C-154.299427091 455.933198327 -136.656416457 166.625034351 -183.539482047 227.79216766C-98.117961621 478.543737042 -165.05803621 220.544835184 -186.425148453 235.939588617C-37.4542289304 487.605917272 25.783878996 277.588442079 13.187354731 253.549123316C96.7238458018 238.491194607 -80.2764714692 684.027778063 52.5155949606 228.974935453C-149.642931759 459.794991779 -133.125757404 163.999095599 -183.593539851 228.385515063C-72.5801322572 484.15676069 -168.513322127 225.424792958 -187.645079027 238.816763111C-27.1314856692 485.882466104 19.296991813 272.242662201 13.6504873128 248.319197612C116.660043449 247.670168158 -108.162539836 683.398513642 69.0252288694 229.482572776C-144.64656227 463.627894204 -129.689133109 161.54944234 -183.815737979 229.262806268C-45.1091853616 484.880950849 -172.187864837 230.734463595 -189.050351255 242.15336876C-16.7453582798 483.305870425 13.7767552458 267.431433278 16.3369474789 243.249234617C136.018775794 260.606963578 -129.396306406 681.280329849 87.3679871219 233.093380376C-139.302862095 467.400373805 -126.343396789 159.259092587 -184.201580122 230.422195558C-16.9624656574 479.735582524 -176.140506743 236.721775315 -190.623959262 245.979799492C-6.39039929264 479.829155729 9.3998781283 262.922612686 21.2965521551 238.506969645C153.853460281 276.893452776 -144.134279564 678.896210805 106.786917821 240.231906589C-133.605545805 471.079350034 -123.084725519 157.112472291 -184.745805453 231.863974618C10.1429004787 468.09711254 -180.414476008 243.727881027 -192.344986037 250.33454493C3.82767892711 475.415657963 6.30561401843 258.53061134 28.5206919871 234.357411822C169.421891521 295.877223274 -152.890346126 676.998263526 126.434371944 251.131223094C-127.55054339 474.629696267 -119.908745071 155.095328456 -185.442781368 233.59142785C34.1321273311 449.933202084 -185.003967967 252.18847133 -194.187072478 255.264811759C13.7925820046 470.041638949 4.60709778441 254.130106881 37.9304489274 231.134504511C182.240359843 316.751233871 -156.551623546 675.882045992 145.433639934 265.805667076C-121.136883614 478.014087698 -116.81046791 153.194504051 -186.286302238 235.610763667C52.8047350266 426.015080415 -189.805169564 262.62341337 -196.115930439 260.825870171C23.3793272896 463.69861892 4.39995989894 249.663752049 49.366105055 229.209242173C192.096801075 338.651297351 -156.475140274 675.4515665 162.945645433 284.048834953C-114.367086032 481.193275394 -113.784731709 151.398082465 -187.269353782 237.931071332C64.2057532014 398.027479192 -194.550276119 275.607470558 -198.08703058 267.081712469C32.4558248282 456.396099016 5.7664038044 245.143339395 62.5814251568 228.956448873C199.028954601 360.749036922 -154.638124242 675.329892449 178.228886544 305.452566339C-107.246018749 484.127029591 -110.826231967 149.695286308 -188.384161126 240.565050686C67.0907807301 368.487756832 -198.728329241 291.712399835 -200.042005868 274.103788724C40.8859362767 448.163587594 8.77438525527 240.64749087 77.2463381665 230.722483626C203.273984115 382.324317949 -153.778738281 674.977841485 190.690353803 329.44665325C-99.7835307358 486.773389856 -107.929385902 148.076218979 -189.621600231 243.528645084C61.3841827317 340.381123066 -201.50474619 311.405775797 -201.9046773 281.969450808C48.5323217824 439.05297987 13.4732274672 236.31545625 92.9557238249 234.796230879C205.203442193 402.817285851 -157.437747252 673.707225602 199.917763474 355.348187947C-91.9932088039 489.089790359 -105.088835151 146.532098017 -190.97098999 246.841676148C48.4457908404 316.500346849 -201.665745748 334.896128554 -203.576467182 290.7596926C55.2607810842 429.139836086 19.8865983533 232.33909169 109.246828023 241.385480619C205.25297058 421.856162759 -169.805018683 670.384378447 205.694987887 382.418046697"
       id="path3160"
       inkscape:connector-curvature="0"
       sodipodi:nodetypes="cccsssssssssssssssssssssssssssssssssssssssssssssssssssssssssssssssssssssssssssssssssssssssssssssssssssssssssssssssssssssssssssssssssssssssssssssssssssssssssssssc" />
  </g>
</svg>
