<?xml version="1.0" encoding="UTF-8" standalone="no"?>
<!-- Created with Inkscape (http://www.inkscape.org/) -->

<svg
   xmlns:dc="http://purl.org/dc/elements/1.1/"
   xmlns:cc="http://creativecommons.org/ns#"
   xmlns:rdf="http://www.w3.org/1999/02/22-rdf-syntax-ns#"
   xmlns:svg="http://www.w3.org/2000/svg"
   xmlns="http://www.w3.org/2000/svg"
   xmlns:sodipodi="http://sodipodi.sourceforge.net/DTD/sodipodi-0.dtd"
   xmlns:inkscape="http://www.inkscape.org/namespaces/inkscape"
   sodipodi:docname="spiral015.svg"
   inkscape:version="0.48.2 r9819"
   version="1.1"
   id="svg3783"
   height="1052.3622047"
   width="744.09448819">
  <sodipodi:namedview
     id="base"
     pagecolor="#ffffff"
     bordercolor="#666666"
     borderopacity="1.0"
     inkscape:pageopacity="0.0"
     inkscape:pageshadow="2"
     inkscape:zoom="0.49497475"
     inkscape:cx="-28.706925"
     inkscape:cy="773.09613"
     inkscape:document-units="px"
     inkscape:current-layer="layer1"
     showgrid="false"
     inkscape:window-width="1084"
     inkscape:window-height="748"
     inkscape:window-x="82"
     inkscape:window-y="-16"
     inkscape:window-maximized="0" />
  <defs
     id="defs3785" />
  <metadata
     id="metadata3788">
    <rdf:RDF>
      <cc:Work
         rdf:about="">
        <dc:format>image/svg+xml</dc:format>
        <dc:type
           rdf:resource="http://purl.org/dc/dcmitype/StillImage" />
        <dc:title></dc:title>
      </cc:Work>
    </rdf:RDF>
  </metadata>
  <g
     inkscape:label="Layer 1"
     inkscape:groupmode="layer"
     id="layer1">
    <rect
       style="fill:none;stroke:#000000;stroke-width:0.91610378;stroke-opacity:1"
       id="rect4319"
       width="516.12524"
       height="779.49591"
       x="7.8454075"
       y="12.284647" />
    <flowRoot
       xml:space="preserve"
       id="flowRoot3475"
       style="fill:black;stroke:none;stroke-opacity:1;stroke-width:1px;stroke-linejoin:miter;stroke-linecap:butt;fill-opacity:1;font-family:Sans;font-style:normal;font-weight:normal;font-size:40px;line-height:125%;letter-spacing:0px;word-spacing:0px"><flowRegion
         id="flowRegion3477"><rect
           id="rect3479"
           width="474.7717"
           height="76.771591"
           x="40.406101"
           y="840.23016" /></flowRegion><flowPara
         id="flowPara3481" /></flowRoot>    <path
       id="path4177"
       d="m 305.73998,546.7744 c -2.84433,1.10579 -3.85293,1.41731 -2.64737,0.89076 1.55956,-0.69897 5.84494,-2.5141 9.03414,-3.88457 3.8476,-1.74678 5.08274,-2.20787 3.23387,-1.21707 -2.28172,1.18064 -8.16307,3.78076 -12.8134,5.58935 -5.70099,2.02494 -7.61977,2.53386 -4.57242,1.35931 3.39626,-1.3931 11.35086,-4.69013 17.04714,-7.19656 6.08954,-2.92918 7.92969,-3.64769 4.68071,-1.79026 -3.79389,2.04696 -13.04976,6.19615 -20.44929,8.97006 -8.76552,2.83293 -11.69601,3.49619 -6.62958,1.77457 5.31172,-2.00753 17.05862,-6.76718 25.2025,-10.44013 8.17414,-4.15672 10.55194,-5.12796 6.02289,-2.36643 -5.2147,2.93983 -17.78373,8.64814 -27.9931,12.33415 -12.03269,3.50251 -16.07447,4.25996 -8.82275,2.12232 7.32219,-2.53629 22.96939,-8.72375 33.50906,-13.59358 10.10657,-5.41565 12.95987,-6.6283 7.26693,-2.93852 -6.55471,3.8553 -22.37185,11.12508 -35.45631,15.66686 -15.50242,4.00795 -20.75452,4.78143 -11.15455,2.38682 9.43114,-2.96748 29.0867,-10.53837 41.97425,-16.63368 11.89502,-6.6953 15.16832,-8.13335 8.41964,-3.50068 -7.82036,4.78862 -26.82286,13.61756 -42.85031,18.95443 -19.17373,4.32231 -25.73279,5.01426 -13.62653,2.55117 11.63916,-3.28753 35.41377,-12.18847 50.60432,-19.53586 13.54852,-7.98705 17.19291,-9.63116 9.48759,-4.04795 -9.01705,5.73532 -31.14571,16.11746 -50.18628,22.18394 -23.04335,4.417 -31.00083,4.90931 -16.23861,2.59716 13.94465,-3.48171 41.95217,-13.64989 59.40366,-22.27415 15.07608,-9.28377 19.04929,-11.11267 10.47746,-4.57645 -10.15004,6.69178 -35.34967,18.61802 -57.47532,25.34344 -27.10488,4.26192 -36.54366,4.41518 -18.98882,2.50543 16.34425,-3.53443 48.70165,-14.89716 68.37473,-24.82128 16.48673,-10.57993 20.7526,-12.57138 11.39562,-5.08309 -11.22417,7.65486 -39.44368,21.11349 -64.72782,28.42152 -31.34856,3.82576 -42.33958,3.47903 -21.87353,2.25566 18.83273,-3.42944 55.65992,-15.90342 77.51789,-27.14885 17.7891,-11.8711 22.31733,-14.00293 12.24834,-5.56562 -12.24424,8.62223 -43.4367,23.5992 -71.95404,31.40751 -35.76075,3.07637 -48.35888,2.04751 -24.88653,1.82673 21.4027,-3.15002 62.82213,-16.64072 86.83082,-29.22745 18.99154,-13.15404 23.75717,-15.40496 13.04161,-6.02249 -13.21479,9.59201 -47.33734,26.07129 -79.1634,34.29122 -40.32375,1.98114 -54.5635,0.0679 -28.01946,1.19689 24.04463,-2.67923 70.18077,-17.08014 96.30863,-31.02687 20.10195,-14.42656 25.08488,-16.77681 13.7811,-6.45276 -14.14022,10.56294 -51.15394,28.52675 -86.36496,37.06288 -45.01512,0.5076 -60.90635,-2.51022 -31.26097,0.34411 26.74657,-2.00017 77.72515,-17.19209 105.94316,-32.51636 21.12778,-15.68726 26.31235,-18.11924 14.47234,-6.85615 -15.02468,11.53421 -54.89468,30.96332 -93.56692,39.71312 -49.80788,-1.37602 -67.33171,-5.73409 -34.59713,-0.75366 29.49396,-1.0963 85.44173,-16.94673 115.72325,-33.66498 22.07597,-16.93559 27.45036,-19.43424 15.1204,-7.23283 -15.87216,12.50551 -58.56732,33.37943 -100.77679,42.23286 -54.67015,-3.70009 -73.7747,-9.64554 -38.01084,-2.11807 32.26968,0.0482 93.31305,-16.31411 125.63406,-34.44191 22.95293,-18.17157 28.50877,-20.72485 15.73014,-7.58341 -16.68637,13.47686 -62.17937,35.77398 -108.0014,44.61321 -59.56491,-6.49289 -80.16175,-14.27959 -41.4817,-3.77001 35.05366,1.44802 101.31841,-15.26485 135.65713,-34.81685 23.76461,-19.39589 29.49648,-21.99502 16.30608,-7.90897 -17.47076,14.44859 -65.73793,38.14648 -115.24654,46.84549 -64.4505,-9.77982 -86.41174,-19.66279 -44.98637,-5.72917 37.82336,3.11636 109.43324,-13.77042 145.77036,-34.76054 24.51635,-20.6096 30.42133,-23.24926 16.85241,-8.21084 -18.22869,15.42143 -69.24999,40.49691 -122.51736,48.92112 -69.28023,-13.58254 -92.43626,-25.81141 -48.49794,-8.01343 40.55329,5.06433 117.62909,-11.80371 155.94767,-34.24521 25.21307,-21.81423 31.29031,-24.49273 17.37309,-8.49072 -18.96313,16.39629 -72.722,42.82555 -129.81789,50.83164 -74.0031,-17.91823 -98.14174,-32.73019 -51.98659,-10.63855 43.21558,7.30068 125.87396,-9.33959 166.15931,-33.24509 25.85909,-23.01159 32.10945,-25.731 17.87166,-8.75049 -19.67689,17.37432 -76.16035,45.13312 -137.15132,52.56864 -78.5641,-22.79885 -103.43045,-40.41085 -55.41909,-13.61745 45.77957,9.83107 134.13181,-6.35541 176.37158,-31.737 26.45832,-24.20376 32.88398,-26.96997 18.3515,-8.9923 -20.37264,18.35688 -79.57101,47.42055 -144.51978,54.12374 -82.90469,-28.23019 -108.20306,-48.83123 -58.75965,-16.9598 48.21277,12.65782 142.36332,-2.83162 186.54741,-29.70087 27.01418,-25.39298 33.61816,-28.21567 18.81561,-9.21839 -21.0527,19.34547 -82.95979,49.68906 -151.92429,55.48862 -86.96378,-34.21146 -112.36038,-57.95451 -61.96976,-20.67141 50.48073,15.77922 150.52575,1.24766 196.64622,-27.12031 27.52962,-26.58171 34.31558,-29.47438 19.26678,-9.43129 -21.71929,20.34176 -86.33221,51.9401 -159.36495,56.65503 -90.67822,-40.73454 -115.806058,-67.72938 -65.00877,-24.75377 52.54781,19.18929 158.57341,5.89418 206.62466,-23.98323 28.00712,-27.77239 34.97897,-30.75233 19.70748,-9.63345 -22.37434,21.34745 -89.69369,54.17522 -166.84057,57.61474 -93.98401,-47.78354 -118.448891,-78.08988 -67.83439,-29.20363 54.37742,22.87731 166.4581,11.11493 216.43663,-20.28216 28.44886,-28.96765 35.61038,-32.05573 20.14,-9.8275 -23.0197,22.3644 -93.04937,56.3961 -174.34898,58.35957 -96.81715,-55.33448 -120.205179,-88.95654 -70.40309,-34.01243 55.93295,26.82748 174.12967,16.91169 226.03415,-16.01496 28.85655,-30.17004 36.21113,-33.3908 20.56637,-10.01612 -23.65693,23.39449 -96.40423,58.60452 -181.88664,58.88157 -99.11521,-63.35538 -121.001388,-100.2378 -72.67126,-39.16634 57.17838,31.01892 181.53669,23.28086 235.36795,-11.18482 29.23153,-31.38213 36.78184,-34.76358 20.98837,-10.20205 -24.2875,24.4397 -99.7632,60.80233 -189.44903,59.17288 C 92.016455,484.20606 72.058699,444.18062 118.23907,511.36649 c 58.07931,35.42541 188.62701,30.21283 244.38797,-5.80098 29.57481,-32.6064 37.3225,-36.17993 21.40761,-10.38797 C 359.122,520.67949 280.90363,558.16888 187.00446,554.40338 85.136069,473.765 67.524802,430.77587 110.87173,503.97845 c 58.60336,40.01561 195.34868,37.69222 253.04445,0.12155 29.88705,-33.84531 37.83246,-37.64547 21.82544,-10.57662 -25.5335,26.58329 -106.51235,65.17341 -204.62313,59.03316 -102.214953,-89.79707 -117.080152,-135.51035 -77.24328,-56.4731 58.72146,44.75315 201.65063,45.69745 261.28838,6.56162 30.16864,-35.10124 38.31048,-39.1657 22.24305,-10.77072 C 361.25561,519.56007 277.49485,559.22465 175.1872,550.46219 73.375819,451.24222 61.628118,403.10042 97.297781,487.7086 155.70643,537.30594 304.78148,541.9098 366.37047,501.20095 396.7901,464.82453 405.12516,460.45526 389.03191,490.228 362.2659,519.03924 275.69798,559.75172 169.22245,548.11141 68.604138,439.27224 60.308425,389.04717 91.185168,478.88672 148.82999,533.39022 303.98629,542.05722 367.53796,499.76788 398.17782,462.0949 406.70064,457.37759 390.6194,488.58197 363.2403,518.54373 273.83607,560.2772 163.2369,545.49574 64.633183,426.91383 60.079642,374.9924 85.579654,469.65583 c 56.415376,59.4237 217.559726,72.56703 283.087496,28.69028 30.82888,-38.99292 39.53151,-44.10408 23.50374,-11.41225 -27.9909,31.13931 -120.26447,73.86625 -234.92638,55.67364 C 61.500533,414.23575 60.929286,361.03651 80.519258,460.05831 c 54.712172,64.3081 221.720382,82.34806 289.239872,36.87748 30.98597,-40.33801 39.85761,-45.8911 23.92876,-11.65445 -28.60174,32.34577 -123.78191,76.03803 -242.42794,54.15832 C 59.236146,401.30991 62.833579,347.27221 76.03731,450.14067 c 52.53379,69.10566 225.24877,92.46669 294.77759,45.39645 31.11026,-41.71 40.13696,-47.75519 24.35689,-11.915 -29.21196,33.58306 -127.34017,78.21161 -249.8727,52.36409 C 57.862101,388.20997 65.759411,333.78252 72.16172,439.95223 c 49.88583,73.76558 228.1157,102.87314 299.6737,54.19803 C 403.03604,451.03996 412.2004,444.4505 396.62373,481.954 366.80206,516.80699 265.67986,562.34173 139.3785,532.24203 57.392634,375.01051 69.666432,320.63992 68.914793,429.54463 115.69584,507.78306 299.21262,543.05983 372.82163,492.77536 404.0774,448.23505 413.35824,441.04767 398.04471,480.2748 367.61375,516.43218 263.4471,562.84165 133.51576,528.2032 57.834277,361.78519 74.509527,307.90498 66.312867,418.97045 c 43.239003,82.47753 231.777573,124.33966 307.461573,72.4421 31.27421,-46.0011 40.64628,-53.84159 25.66109,-12.83008 -31.03974,37.4979 -138.30603,84.74906 -271.70632,45.28457 C 59.186285,348.60624 80.240832,295.62718 64.366399,408.28262 103.65232,494.7229 296.90958,543.57552 374.69468,490.06199 405.94902,442.56833 415.38263,434.0185 400.79684,476.87497 369.14902,515.75126 258.72307,563.80913 122.03775,519.23214 61.441215,335.54293 86.811935,283.84502 63.08001,397.5332 c 34.953683,90.08908 232.58874,146.32204 312.50316,91.19061 31.1944,-49.01871 40.65515,-58.33502 26.54596,-13.57339 C 369.87415,515.44458 256.2236,564.27183 116.46104,514.29866 64.585634,322.66095 94.175563,272.58739 62.452796,386.77235 92.731956,480.16508 294.36659,544.14837 376.44071,487.39811 407.53317,436.82131 416.98159,426.68097 403.43272,473.407 370.57193,515.16001 253.62674,564.71661 111.019,509.06814 68.601123,310.02115 102.28704,261.87486 62.478786,376.04783 87.7817,472.37445 293.00183,544.45386 377.26807,486.08501 c 30.94651,-52.16827 40.33775,-63.19044 27.43975,-14.44206 -33.46481,43.25437 -153.7798,93.49713 -298.97571,31.901 -32.267045,-205.86425 5.373,-251.82208 -42.584621,-138.14008 20.068142,98.8739 228.425401,179.36678 314.918471,119.38076 30.75444,-53.79324 40.03795,-65.75486 27.8885,-14.92798 -34.06645,44.79963 -157.83141,95.68167 -305.33369,27.87426 C 79.151865,285.6871 120.59237,242.13864 64.444557,354.88104 79.063875,455.90633 290.07839,545.09746 378.83508,483.4971 409.34912,428.04542 418.46835,415.08736 407.17256,468.04657 372.50752,514.43668 245.20727,565.90696 95.705595,491.63577 85.633791,274.08858 130.71537,233.13314 66.352535,344.51536 75.353253,447.29462 288.51686,545.43292 379.57612,482.22253 409.79917,425.07928 418.69125,411.06875 408.36191,466.21128 373.10206,514.23838 242.17621,566.241 91.007004,485.26701 92.882046,262.92397 141.44406,224.71315 68.851592,334.33849 72.106803,438.47985 286.88682,545.77554 380.28972,480.96099 410.16886,422.09355 418.76432,406.97606 409.52218,464.34944 373.67214,514.0612 239.02553,566.53494 86.544957,478.63472 100.86755,252.22825 152.75092,216.88784 71.92029,324.37744 69.343444,429.50152 285.18669,546.1237 380.9765,479.71264 410.45643,419.08911 418.67896,402.81212 410.65289,462.45985 374.21826,513.905 235.75124,566.78258 82.339067,471.75098 109.56175,242.03194 164.61035,209.66888 75.536344,314.65468 67.077445,420.40004 283.41496,546.47556 381.63708,478.47756 410.66012,416.06693 418.42628,398.58053 411.7535,460.54134 374.7408,513.76976 232.34947,566.97713 78.408065,464.62929 118.93706,232.36208 176.99688,203.07163 79.677249,305.18845 65.318436,411.21638 281.57016,546.8292 382.27203,477.25589 410.77806,413.02837 417.99714,394.28576 412.82332,458.59294 375.24022,513.65533 228.81704,567.11111 74.769957,457.28504 128.96727,223.24292 189.88429,197.1153 84.320954,295.99303 64.07134,401.99118 279.65062,547.18253 382.88192,476.04775 410.80844,409.97489 417.38222,389.93313 413.86156,456.61374 375.71685,513.56171 225.15104,567.17639 71.441531,449.7349 139.62754,214.6971 203.24443,191.82288 89.446242,287.07938 63.336481,392.76354 277.65487,547.53325 383.46729,474.85321 410.74942,406.9082 416.57212,385.52893 414.86739,454.60293 376.17108,513.48882 221.34959,567.1642 68.438444,441.99711 150.89407,206.74672 217.04578,187.22088 95.033288,278.45551 63.109916,383.5711 275.58134,547.87892 384.02869,473.67245 410.5992,403.83024 415.55735,381.0804 415.83979,452.55981 376.60326,513.43668 217.41137,567.06513 65.774956,434.09116 162.74384,199.41411 231.25304,183.33824 101.0638,270.12728 63.383775,374.44851 273.4286,548.21688 384.56661,472.50554 410.35597,400.74318 414.32852,376.59587 416.77772,450.48382 377.01366,513.40531 213.33625,566.86923 63.463727,426.03737 175.15384,192.72288 245.82615,180.20546 107.52125,262.09891 64.146803,365.42726 271.19518,548.54428 385.08155,471.35265 410.01807,397.64939 412.87634,372.08473 417.68004,448.37446 377.40261,513.39468 209.12509,566.566 61.51589,417.85727 188.09984,186.69864 260.71994,177.85325 114.3911,254.37349 65.384868,356.53577 268.87961,548.85814 385.574,470.21387 409.5838,394.55146 411.19185,367.55755 418.54554,446.23134 377.77038,513.40485 204.78019,566.14461 59.940762,409.5726 201.55557,181.3694 275.88431,176.31121 121.66044,246.95395 67.081632,347.79827 266.48062,549.15515 386.04442,469.08935 409.05166,391.45222 409.26644,363.0261 419.37292,444.05426 378.11723,513.43585 200.30514,565.59388 58.745976,401.20595 215.49151,176.76553 291.26397,175.60658 129.31827,239.84323 69.219118,339.23537 263.99689,549.43191 386.49327,467.97922 408.4202,388.3546 407.09201,358.50328 420.1608,441.84301 378.44341,513.48774 195.70521,564.90254 57.937299,392.7797 229.87294,172.91992 306.79921,175.76291 137.35493,233.04515 71.778327,330.86375 261.42728,549.68474 386.92101,466.88361 407.68816,385.26194 404.66112,354.00333 420.90778,439.59756 378.74914,513.56057 190.98738,564.05939 57.518751,384.31648 244.65982,169.86683 322.42604,176.79901 145.76213,226.56454 74.739819,322.69642 258.77072,549.90972 387.32807,465.80266 406.85439,382.17755 401.96729,349.5417 421.61236,437.31798 379.03465,513.65441 186.1602,563.05339 57.492578,375.83827 259.80447,167.64127 338.07732,178.72792 154.53235,220.40794 78.084232,314.74284 256.02626,550.10279 387.71485,464.7365 405.91792,379.10507 399.00486,345.135 422.273,435.00443 379.30017,513.76924 181.23423,561.87403 57.859361,367.36674 275.25219,166.27724 353.68311,181.55612 163.65872,214.58358 c -81.865947,92.42566 89.53433,335.676 224.42308,249.1017 16.79618,-87.63703 7.68773,-122.88412 34.80633,-31.02808 C 379.54586,513.90521 176.22191,560.51152 58.618089,358.92285 290.93949,165.80626 369.17225,185.28302 173.13434,209.10185 c -87.286765,90.39717 77.13623,341.27368 215.29497,253.5473 15.30474,-89.6381 3.82897,-126.08999 35.02679,-32.37249 C 379.77194,514.06228 171.13729,558.95694 59.76633,350.5263 306.79554,166.25534 384.47262,189.90039 182.95189,203.97525 c -92.71979,88.2378 64.30643,346.47064 205.80587,257.65299 13.72801,-91.63072 -0.2881,-129.19915 35.2175,-33.76493 C 379.97859,514.24053 165.99634,557.20262 61.30032,342.19599 322.74148,167.64507 399.51249,195.39216 193.10337,199.21847 94.931371,285.15008 244.15602,550.46563 389.06757,460.62269 401.13309,367.01191 384.40401,328.43194 424.4439,425.41776 380.16596,514.43995 160.81662,555.24234 63.215238,333.94919 338.69283,169.98779 414.22168,201.73443 203.57919,194.84829 99.932188,278.30725 240.96372,550.42955 389.3591,459.63268 399.67619,364.05856 380.06358,324.58954 424.8603,422.94071 380.33424,514.66059 155.61718,553.07157 65.50525,325.80222 354.55992,173.28584 428.53217,208.89543 214.36823,190.88331 c -109.14504,80.79728 23.31348,359.44889 175.26451,267.77501 8.48281,-97.51639 -14.18,-137.73395 35.58997,-38.2253 C 380.48355,514.90239 150.4183,550.68765 68.163905,317.76947 370.25086,177.53048 442.37937,216.83585 225.45687,187.34386 110.79518,265.2651 234.31049,550.16797 389.88884,457.69978 396.45191,358.2665 370.57817,317.4593 425.5294,417.8956 380.61407,515.16532 145.24114,548.08995 71.18413,309.86426 385.6732,182.70103 455.70308,225.50932 236.82907,184.25139 116.64075,259.05575 230.8509,549.93103 390.12776,456.75722 394.6864,355.43693 365.44891,314.21741 425.7786,415.32952 380.72592,515.44934 140.10764,545.28008 74.558553,302.09825 400.73682,188.76474 468.44798,234.86273 248.46574,181.62817 122.7546,253.04743 227.30411,549.61541 390.34988,455.83078 392.82038,352.6578 360.07654,311.22167 425.96855,412.73593 380.81923,515.75434 135.03999,542.26189 78.27976,294.48155 415.35613,195.67711 480.56486,244.83716 260.34449,179.49673 129.13323,247.23569 223.6716,549.21494 390.55551,454.92063 390.85555,349.93374 354.47524,308.49469 426.09751,410.1161 380.89409,516.08028 130.06036,539.04151 82.34028,287.02314 429.45223,203.38281 492.01102,255.36858 272.43975,177.87918 135.77483,241.61696 219.95534,548.72337 390.74504,454.02688 388.79399,347.26941 348.66182,306.05837 426.16376,407.47143 380.95064,516.42695 125.19047,535.62736 86.733027,279.73051 442.9554,211.81738 502.75086,266.38872 284.72234,176.79669 142.67915,236.18902 216.15761,548.13427 390.91876,453.14974 386.63806,344.66934 342.65575,303.93358 426.16557,404.80344 380.98898,516.79418 120.45115,532.02983 91.451157,272.61025 455.806,220.90866 512.75624,277.826 297.1598,176.26883 149.84695,230.95143 212.28115,547.44116 391.07703,452.28933 384.39053,342.13813 336.479,302.13974 426.10131,402.11375 381.00917,517.18182 115.86211,528.26141 96.488529,265.66778 467.95615,230.57925 522.00682,289.60666 309.71636,176.31283 157.28005,225.90568 208.32913,546.63748 391.22017,451.44581 382.05445,339.68013 330.1561,300.69457 425.96933,399.40408 381.0113,517.58964 111.44157,524.33626 101.83948,258.90795 479.36976,240.74842 530.48993,301.65555 322.35331,176.94308 164.98077,221.05551 204.30522,545.71667 391.3485,450.61932 379.63322,337.29971 323.71376,299.61363 425.76806,396.6763 380.99541,518.01734 107.20584,520.26999 107.49911,252.33503 490.02279,251.33432 538.20079,313.89734 335.02939,178.1705 172.95152,216.4071 200.21347,544.67212 391.46233,449.81003 377.13061,335.00099 317.18091,298.91003 425.496,393.93235 380.9616,518.46464 103.1692,516.07928 113.46342,245.95277 499.90311,262.25636 545.14203,326.25741 347.70102,180.00203 181.19432,211.96927 196.05864,543.49734 391.56197,449.0181 374.5506,332.78789 310.58812,298.59413 425.15171,391.17435 380.90987,518.9312 99.343661,511.78168 119.72897,239.76506 509.00935,273.43666 551.32363,338.66297 360.3233,182.44027 189.71062,207.7533 191.8459,542.18586 391.64775,448.24365 371.89762,330.66424 303.96756,298.67321 424.73381,388.40444 380.84024,519.41668 95.738783,507.39506 126.29341,233.77566 517.34976,284.80153 556.76204,351.04339 372.85009,185.48304 198.50059,203.77305 187.58088,540.73135 391.71993,447.48689 369.17629,328.63354 297.35246,299.15122 424.24107,385.62495 380.75273,519.92068 92.361669,502.93738 133.15487,227.9889 524.94147,296.28337 561.4801,363.33172 385.23515,189.12336 207.56259,200.04483 183.26984,539.12768 391.77885,446.74788 366.39152,326.699 290.77641,300.02875 423.67229,382.83829 380.6473,520.44282 89.216911,498.42625 140.31247,222.40947 531.80828,307.82053 565.50592,375.46472 397.43232,193.34916 216.89328,196.5869 178.91955,537.3689 391.82477,446.02684 363.54855,324.86368 284.27369,301.30263 423.02642,380.04694 380.52397,520.9826 86.306697,493.87873 147.76568,217.04299 c 330.47566,25.28242 413.84118,135.40727 348.44808,38.14273"
       style="fill:none;stroke:#000000;stroke-width:0.63938951px;stroke-linecap:butt;stroke-linejoin:miter;stroke-opacity:1"
       inkscape:connector-curvature="0" />
  </g>
</svg>
