<?xml version="1.0" encoding="UTF-8" standalone="no"?>
<!-- Created with Inkscape (http://www.inkscape.org/) -->

<svg
   xmlns:dc="http://purl.org/dc/elements/1.1/"
   xmlns:cc="http://creativecommons.org/ns#"
   xmlns:rdf="http://www.w3.org/1999/02/22-rdf-syntax-ns#"
   xmlns:svg="http://www.w3.org/2000/svg"
   xmlns="http://www.w3.org/2000/svg"
   xmlns:sodipodi="http://sodipodi.sourceforge.net/DTD/sodipodi-0.dtd"
   xmlns:inkscape="http://www.inkscape.org/namespaces/inkscape"
   sodipodi:docname="letter sized frame blank.svg"
   inkscape:version="0.48.2 r9819"
   version="1.1"
   id="svg3783"
   height="1052.3622047"
   width="744.09448819">
  <sodipodi:namedview
     id="base"
     pagecolor="#ffffff"
     bordercolor="#666666"
     borderopacity="1.0"
     inkscape:pageopacity="0.0"
     inkscape:pageshadow="2"
     inkscape:zoom="0.35"
     inkscape:cx="-425.73048"
     inkscape:cy="995.85847"
     inkscape:document-units="px"
     inkscape:current-layer="layer1"
     showgrid="false"
     inkscape:window-width="1084"
     inkscape:window-height="748"
     inkscape:window-x="82"
     inkscape:window-y="-16"
     inkscape:window-maximized="0" />
  <defs
     id="defs3785" />
  <metadata
     id="metadata3788">
    <rdf:RDF>
      <cc:Work
         rdf:about="">
        <dc:format>image/svg+xml</dc:format>
        <dc:type
           rdf:resource="http://purl.org/dc/dcmitype/StillImage" />
        <dc:title></dc:title>
      </cc:Work>
    </rdf:RDF>
  </metadata>
  <g
     inkscape:label="Layer 1"
     inkscape:groupmode="layer"
     id="layer1">
    <rect
       style="fill:none;stroke:#000000;stroke-width:0.91610378;stroke-opacity:1"
       id="rect4319"
       width="516.12524"
       height="779.49591"
       x="7.8454075"
       y="12.284647" />
    <flowRoot
       xml:space="preserve"
       id="flowRoot3475"
       style="fill:black;stroke:none;stroke-opacity:1;stroke-width:1px;stroke-linejoin:miter;stroke-linecap:butt;fill-opacity:1;font-family:Sans;font-style:normal;font-weight:normal;font-size:40px;line-height:125%;letter-spacing:0px;word-spacing:0px"><flowRegion
         id="flowRegion3477"><rect
           id="rect3479"
           width="474.7717"
           height="76.771591"
           x="40.406101"
           y="840.23016" /></flowRegion><flowPara
         id="flowPara3481" /></flowRoot>    <path
       inkscape:connector-curvature="0"
       style="fill:none;stroke:#000000;stroke-width:1px;stroke-linecap:butt;stroke-linejoin:miter;stroke-opacity:1"
       d="m 232.68631,370.42285 c -0.94513,1.16671 -3.59843,1.64588 -5.594,1.27614 -2.61202,-0.39563 -3.39885,-2.12753 -2.03555,-3.66993 1.79957,-1.86191 6.00527,-2.5735 8.98118,-1.69823 3.58566,1.23273 4.41169,3.83087 2.30831,5.55579 -2.29452,2.15924 -7.58561,2.98407 -11.61132,2.13532 -4.57681,-0.68558 -5.99161,-3.82421 -3.2633,-6.84529 3.39491,-3.22016 10.5973,-4.37954 15.48153,-2.64811 5.44702,2.30855 6.56287,6.49347 3.05065,9.05884 -3.49043,3.04093 -11.32915,4.13049 -17.42558,2.88012 -6.54577,-0.76393 -8.71854,-5.22311 -4.65521,-9.96294 5.05999,-4.71748 15.32803,-6.33466 22.03239,-3.67158 7.2392,3.33379 8.69537,8.98521 3.81258,12.50431 -4.56322,3.94947 -14.88922,5.26173 -23.11819,3.68034 -8.45472,-0.47855 -11.53502,-6.1736 -6.22764,-12.9959 6.803,-6.37641 20.1763,-8.45116 28.60541,-4.82356 9.01822,4.24341 10.87665,11.2791 4.66385,15.78852 -5.49851,4.93349 -18.27589,6.52443 -28.6707,4.68355 -10.14517,0.29164 -14.36946,-6.63023 -8.02787,-15.94072 8.61455,-8.2148 25.11091,-10.73561 35.17255,-6.14166 10.79981,5.04316 13.10867,13.39609 5.60644,18.93939 -6.28753,5.95512 -21.45628,7.92548 -34.00559,5.92725 -11.61396,1.42802 -17.20115,-6.69881 -10.10287,-18.84468 10.47795,-10.23177 30.09638,-13.17517 41.70464,-7.63063 12.584,5.73819 15.38644,15.34498 6.63715,21.97193 -6.93196,7.00401 -24.40886,9.46866 -39.09608,7.42016 -12.83691,2.83217 -20.00765,-6.49263 -12.45286,-21.74281 12.37953,-12.40953 35.10314,-15.74094 48.17768,-9.27139 14.36799,6.3283 17.70405,17.12773 7.75166,24.89332 -7.43546,8.07507 -27.11975,11.15425 -43.93281,9.14509 -13.78705,4.42885 -22.78283,-6.10772 -15.06784,-24.65136 14.31208,-14.72086 40.11012,-18.39711 54.57532,-11.03404 16.14883,6.81065 20.05577,18.74364 8.94581,27.70721 -7.80335,9.1641 -29.58022,12.97999 -48.51068,11.08139 -14.44845,6.14474 -25.54517,-5.63318 -17.94036,-27.58419 16.27403,-17.1349 45.10403,-21.1069 60.88839,-12.88616 17.9234,7.18195 22.43553,20.19177 10.21515,30.41601 -8.04256,10.26692 -31.78518,14.94241 -52.82779,13.21121 -14.82207,7.89558 -28.33242,-5.14742 -21.06469,-30.55556 18.2681,-19.62071 50.07729,-23.83661 67.11318,-14.79713 19.68833,7.43883 24.83694,21.47169 11.55508,33.02181 -8.16143,11.37932 -33.73372,17.03744 -56.88531,15.51978 -15.00472,9.55428 -31.19255,-4.71178 -24.43541,-33.57918 20.29959,-22.14892 55.02621,-26.55702 73.24961,-16.74011 21.44012,7.5787 27.25322,22.58424 12.96057,35.52688 -8.16936,12.49733 -35.43,19.26043 -60.68637,17.9938 -15.16344,11.09047 -34.17504,-4.36854 -28.04649,-36.66602 22.37486,-24.69258 59.94909,-29.24405 79.29955,-18.6928 23.17482,7.59986 29.67723,23.53182 14.4264,37.93418 -8.07673,13.61735 -36.88462,21.60535 -64.23462,20.61932 -15.34962,12.51682 -37.32618,-4.14285 -31.8921,-39.82267 24.50042,-27.22754 64.84532,-31.8787 85.26582,-20.63738 24.88827,7.5017 32.10142,24.31875 15.94703,40.24748 -7.89436,14.73653 -38.11411,24.06424 -67.53223,23.38086 -15.59831,13.83723 -40.68818,-4.04699 -35.96735,-43.05076 26.68192,-29.7325 69.71422,-34.44662 91.15109,-22.56015 26.57602,7.28472 34.51808,24.9512 17.51667,42.47143 -7.63339,15.85291 -39.13997,26.62716 -70.57841,26.26246 -15.9439,15.06183 -44.29983,-4.08531 -40.26945,-46.34871 28.92362,-32.18883 74.5545,-36.93773 96.95731,-24.45105 28.2335,6.95071 36.91959,25.43736 19.1295,44.61175 -7.30514,16.96565 -39.98612,29.28299 -73.36826,29.25245 -16.42238,16.19829 -48.19788,-4.26214 -44.79851,-49.7172 31.22829,-34.58053 79.36392,-39.34564 102.68541,-26.30322 29.85605,6.50287 39.29842,25.78773 20.7796,46.67542 -6.92081,18.07518 -40.67717,32.02048 -75.91417,32.38441 -17.06405,17.20257 -52.39589,-4.62431 -49.53603,-53.20073 33.59663,-36.89376 84.13905,-41.66682 108.335,-28.11218 31.43911,5.94576 41.6474,26.01487 22.46112,48.67042 -6.49142,19.18328 -41.23679,34.82946 -78.31341,35.69712 -17.85594,18.02552 -56.8171,-5.22252 -54.3773,-56.84792 36.02757,-39.11706 88.87522,-43.9006 113.90441,-29.87574 32.97825,5.28534 43.95998,26.13359 24.16839,50.60611 -6.02775,20.29313 -41.68758,37.70127 -80.60163,39.17503 -18.8599,18.70958 -61.44114,-6.05285 -59.27808,-60.65259 38.51802,-41.24099 93.56642,-46.0484 119.39052,-31.5934 34.46939,4.52916 46.23033,26.16099 25.89596,52.49304 -5.54023,21.40928 -42.05071,40.62916 -82.78674,42.8054 -20.11155,19.30716 -66.27043,-7.11447 -64.22088,-64.61113 41.0632,-43.25812 98.2056,-48.11346 124.78912,-33.26599 35.90893,3.68612 48.45358,26.11622 27.63872,54.34293 -5.03893,22.53764 -42.34623,43.60831 -84.87848,46.57474 -21.61446,19.84701 -71.30111,-8.40685 -69.18552,-68.71926 43.65678,-45.16295 102.78457,-50.10062 130.09478,-34.89546 37.29393,2.76664 50.62603,26.0205 29.392,56.16869 -4.53354,23.68543 -42.5932,46.63584 -86.88925,50.46799 -23.36473,20.34368 -76.5227,-9.92925 -74.14864,-72.97144 46.29077,-46.95179 107.29417,-52.01585 135.30117,-36.4847 38.62215,1.78276 52.74517,25.89727 31.15155,57.98451 -4.03331,24.86095 -42.81003,49.71046 -88.83334,54.46894 -25.35668,20.80567 -81.91913,-11.6814 -79.08463,-77.36142 48.95601,-48.62275 111.7245,-53.86616 140.40118,-38.03713 39.89227,0.74774 54.81004,25.77154 32.91372,59.80555 -3.54714,26.07364 -43.01462,52.83228 -90.7259,58.561 -27.58422,21.2379 -87.47042,-13.66443 -83.96696,-81.8832 51.64236,-50.17565 116.06505,-55.65943 145.38709,-39.5567 41.10407,-0.32368 56.82104,25.67029 34.67539,61.64798 -3.08352,27.33374 -43.22447,56.00266 -92.58225,62.72779 -30.04159,21.64217 -93.15361,-15.88144 -88.76905,-86.53162 54.33871,-51.61189 120.30482,-57.40398 150.25079,-41.04755 42.2585,-1.41546 58.78032,25.62187 36.43417,63.52887 -2.65078,28.65234 -43.4569,59.22384 -94.41762,66.9533 -32.72341,22.01748 -98.94353,-18.33748 -93.46482,-91.3027 57.03341,-52.9344 124.43248,-59.10853 154.98399,-42.51412 43.35773,-2.51025 60.6914,25.65624 38.18813,65.4663 -2.25685,30.04091 -43.72903,62.49867 -96.24698,71.22198 -35.62469,22.35979 -104.81312,-21.03956 -98.02895,-96.19359 59.71428,-54.14765 128.43668,-60.78218 159.57832,-43.96079 44.40541,-3.58962 62.55955,25.80441 39.93613,67.47877 -1.90963,31.51149 -44.05816,65.83043 -98.085,75.51877 -38.7407,22.66225 -110.73395,-23.99631 -102.43721,-101.2027 62.36893,-55.25734 132.30602,-62.43399 164.02567,-45.39188 45.40658,-4.63414 64.39139,26.09846 41.67751,69.58558 -1.61705,33.0761 -44.46149,69.2223 -99.94627,79.82869 -42.06664,22.91526 -116.67614,-27.2175 -106.66634,-106.32948 64.98499,-56.27028 136.02939,-64.07294 168.31821,-46.81139 46.36783,-5.62333 66.19499,26.57127 43.41221,71.80641 -1.38711,34.74678 -44.95657,72.67738 -101.84533,84.13687 -45.59738,23.10666 -122.60866,-30.71362 -110.69413,-111.5741 67.55001,-57.19442 139.59601,-65.70775 172.44872,-48.22308 47.29723,-6.53599 67.9795,27.25629 45.14057,74.16127 -1.22811,36.5353 -45.56122,76.19815 -103.79674,88.42827 -49.32713,23.22176 -128.49938,-34.49531 -114.49941,-116.9373 70.05188,-58.03865 142.99562,-67.34692 176.41065,-49.63035 48.20433,-7.35007 69.75506,28.18736 46.86324,76.67045 -1.14882,38.45288 -46.29361,79.78631 -105.81513,92.68741 -53.24929,23.24365 -134.31523,-38.57284 -118.06206,-122.42026 72.47886,-58.81241 146.21868,-68.99818 180.19831,-51.03584 49.10016,-8.04321 71.53239,29.39858 48.58117,79.35411 -1.1586,40.51008 -47.17245,83.44239 -107.91529,96.89838 -57.35604,23.15342 -140.02252,-42.95572 -121.36299,-128.02422 74.81965,-59.52583 149.2564,-70.66896 183.80695,-52.44185 49.99716,-8.59227 73.32259,30.92414 50.29534,82.23264 -1.2677,42.71638 -48.21695,87.16549 -110.11205,101.04446 -61.63822,22.93034 -145.58692,-47.65225 -124.38414,-133.75041 77.06349,-60.18947 152.101,-72.36563 187.23306,-53.84984 50.90881,-8.97389 75.13652,32.79796 52.00655,85.32601 -1.48734,45.08017 -49.44686,90.95303 -112.4204,105.10825 -66.08483,22.55212 -150.97385,-52.66895 -127.10844,-139.59976 79.20036,-60.81412 154.74578,-74.09402 190.47435,-55.26055 51.84985,-9.16451 76.98465,35.05357 53.71536,88.65383 -1.82973,47.60824 -50.88249,94.80045 -114.85507,109.07146 -70.68321,21.99531 -156.14878,-58.01045 -129.51988,-145.57298 81.22083,-61.4105 157.18523,-75.85866 193.52979,-56.67381 52.83577,-9.14031 78.87638,37.72409 55.42169,92.23542 -2.30854,50.3057 -52.54473,98.70081 -117.43074,112.91468 -75.41852,21.23547 -161.07735,-63.67912 -131.60344,-151.67008 83.1163,-61.98942 159.41514,-77.66334 196.3999,-58.08869 53.88266,-8.87741 80.8196,40.84188 57.12484,96.08935 -2.93882,53.17563 -54.45497,102.64468 -120.16185,116.61762 -80.2737,20.24764 -165.72575,-69.67471 -133.34506,-157.89049 84.87889,-62.56142 161.43271,-79.51066 199.08661,-59.50319 55.00698,-8.35193 82.82014,44.43849 58.82294,100.23357 -3.73708,56.21886 -56.63485,106.6197 -123.06214,120.15868 -85.22922,19.00687 -170.06112,-75.99431 -134.73177,-164.23266 86.50165,-63.13666 163.23677,-81.40191 201.59355,-60.91437 56.22509,-7.53999 84.88128,48.54418 60.51299,104.6849 -4.72137,59.43366 -59.10639,110.61067 -126.14488,123.51538 -90.26313,17.4884 -174.0516,-82.6321 -135.75143,-170.69427 87.97827,-63.72481 164.82754,-83.33742 203.92575,-62.31836 57.55306,-6.41767 87.00304,53.18837 62.1903,109.45961 -5.91115,62.81544 -61.89122,114.59874 -129.4221,126.66382 -95.35082,15.66842 -177.66697,-89.57924 -136.39311,-177.27179 89.30345,-64.33484 166.20713,-85.31611 206.0901,-63.71022 59.00613,-4.96119 89.18177,58.39867 63.84853,114.57254 -7.32743,66.3564 -65.0111,118.56188 -132.9049,129.57915 C 196.2419,505.60082 115.82835,395.2525 160.06021,308.11588 c 90.4726,-64.97519 167.37932,-87.3357 208.09501,-65.08395 60.5983,-3.14688 91.4096,64.2011 65.47917,120.03737 -8.99233,70.04537 -68.48678,122.47426 -136.60269,132.23526 -105.57633,11.03566 -183.66011,-104.35141 -136.50341,-190.75447 91.48211,-65.65324 168.34965,-89.39269 209.9506,-66.43248 62.34198,-0.95118 93.67378,70.61957 67.07142,125.86627 -10.9292,73.86755 -72.33785,126.30629 -140.52331,134.60508 -110.65204,8.18415 -185.98716,-112.14392 -135.95507,-197.64619 92.32903,-66.37574 169.12559,-91.48232 211.6685,-67.74787 64.24738,1.64951 95.95642,77.6757 68.61201,132.06997 -13.16178,77.80402 -76.58255,130.02469 -144.6723,136.66057 -115.65817,4.95437 -187.83821,-120.18094 -134.99506,-204.62683 93.01139,-67.14829 169.7165,-93.59864 213.26209,-69.02105 66.32205,4.67857 98.23386,85.38843 70.08485,138.6574 -15.71438,81.83187 -81.23681,133.59231 -149.053,138.37284 -120.55816,1.33456 -189.19437,-128.43924 -133.61777,-211.68596 93.52798,-67.9755 170.13374,-95.73448 214.74624,-70.24194 68.57045,8.15923 100.47646,93.77339 71.47094,145.6356 -18.61099,85.92369 -86.31386,136.96827 -153.66594,139.71223 -125.31407,-2.68313 -190.03977,-136.89309 -131.8188,-218.8115 93.87837,-68.86105 170.39047,-97.88167 216.1372,-71.39959 70.99329,12.11451 102.64838,102.84257 72.74816,153.00946 C 430.1043,461.57376 360.15551,511.63446 293.47038,512.17487 163.58376,505.07265 103.10876,366.66041 163.87515,286.18507 257.93822,216.37758 334.37714,186.15416 381.32796,213.70298 454.9151,230.27019 486.03529,326.30682 455.21918,374.48448 429.69172,468.65202 357.44754,517.44957 291.64368,515.63671 157.40776,503.71529 101.49324,361.36344 164.6983,282.43112 258.78155,211.61486 335.18369,180.25914 383.41029,208.95439 459.75411,230.49418 490.01495,332.01472 458.28192,377.9063 428.69324,476.14877 354.12259,523.39446 289.4248,519.09866 151.10279,501.96427 100.02462,355.96117 165.55537,278.65678 259.49641,206.76886 335.91522,174.36298 385.4905,204.28692 464.74047,231.34072 493.77596,338.49643 461.14796,381.80475 427.07314,484.03208 350.16571,529.42983 286.80758,522.54416 144.70221,499.8147 98.699359,350.47043 166.43853,274.86394 260.0779,201.84209 336.58496,168.47954 387.5821,199.7169 469.86872,232.84714 497.27089,345.75976 463.79584,386.19025 424.79712,492.26342 345.56565,535.51206 283.78753,525.95473 138.23991,497.2651 97.512079,344.9076 167.33986,271.05407 260.52179,196.83764 337.20781,162.62296 389.69942,195.26104 475.12819,235.04987 500.44778,353.80595 466.20169,391.07034 421.83346,500.79756 340.31539,541.59379 280.36214,529.31013 131.74967,494.31768 96.455649,339.28818 168.25123,267.22831 260.82462,191.75913 337.80044,156.8077 391.85756,190.93638 480.50249,237.98397 503.25048,362.62929 468.33957,396.44918 418.15381,509.58302 334.41273,547.62451 276.53091,532.58856 125.2648,490.97829 95.521359,333.62689 169.16456,263.38743 260.98377,186.61073 338.38128,151.04853 394.07219,186.76029 485.96926,241.68297 505.6196,372.21605 470.1814,402.32744 413.73404,518.56257 327.86104,553.55114 272.29559,535.76686 118.81746,487.2565 94.699159,327.93741 170.07172,259.53189 260.9975,181.39713 338.97023,145.36026 396.35949,182.75058 491.49979,246.17812 507.49325,382.54437 471.69734,408.70191 408.55548,527.67372 320.6693,559.31917 267.66015,538.82078 112.43816,483.16534 93.977689,322.2324 170.96463,255.66191 c 89.90039,-79.5384 168.62435,-115.90384 227.77135,-76.73649 98.32281,72.57219 110.07231,214.658 74.12007,236.63974 C 402.60554,536.84966 312.85259,564.87338 262.63122,541.72524 106.15536,478.72126 93.344649,316.52344 171.83532,251.77747 260.58655,170.79545 340.26059,134.25727 401.2184,175.30334 502.60435,257.66608 509.50152,405.29333 473.62492,422.90564 395.87879,546.02008 304.43237,570.1589 257.21798,544.45471 99.994959,473.94375 92.786779,310.82102 172.67586,247.87838 260.16341,165.41898 341.00962,128.87352 403.82344,171.90339 508.08808,264.7038 509.51115,417.62478 473.97066,430.70702 388.37739,555.11253 295.43639,575.12232 251.43224,546.98346 93.979879,468.855 92.290239,305.1346 173.47851,243.96431 259.59803,160.00042 341.86179,123.62261 406.56766,168.74504 513.45508,272.62568 508.77815,430.51949 473.85965,438.94842 380.11192,564.05344 285.89873,579.71274 245.28857,549.28609 88.129929,463.47964 91.840499,299.47256 174.23567,240.03483 258.894,154.54636 342.84404,118.52082 409.4672,165.84831 518.64464,281.44044 507.24804,443.91007 473.25856,447.60409 371.1014,572.76974 275.8592,583.88285 238.80416,551.33772 82.461329,457.84408 91.422989,293.84223 174.93995,236.08949 258.05617,149.06366 343.98425,113.58478 412.53767,163.23376 523.59056,291.15002 504.87237,457.72089 472.13485,456.64365 361.37382,581.19006 265.36334,587.58999 231.99883,553.11455 76.986829,451.97629 91.022679,288.25006 175.58414,232.12781 257.09071,143.55934 345.311,108.83164 415.79379,160.92257 528.22208,301.74817 501.61028,471.86893 470.4576,466.03167 350.96551,589.24654 254.46132,590.79709 224.89492,554.59414 71.715509,445.9053 90.624619,282.70161 176.16131,228.14932 256.00504,138.04049 346.85339,104.27914 419.24921,158.93645 532.46486,313.2202 497.43011,486.26465 468.1979,475.7284 339.92143,596.87587 243.20752,593.47348 217.51712,555.7559 66.652769,439.66059 90.213999,277.20168 176.66479,224.15364 254.80794,132.51422 348.64096,99.94598 422.91627,157.29785 536.2421,325.5419 492.31059,500.81369 465.32973,485.68964 328.29389,604.02114 231.65934,595.59563 209.89213,556.58134 61.80051,433.2718 89.776169,271.75432 177.08819,220.14047 253.50966,126.98768 350.70313,95.85162 426.80572,156.02983 539.476,338.67941 486.24195,515.41845 461.83061,495.86717 316.14227,610.63268 219.87655,597.14771 202.04866,557.05453 57.15727,426.76833 89.296849,266.363 177.42541,216.10963 252.1218,121.46789 353.0691,92.01666 430.92646,155.15615 542.08931,352.58822 479.22688,529.97984 457.68213,506.20929 303.53161,616.66945 207.91966,598.12177 194.0168,557.16226 52.71848,420.17899 88.762189,261.03067 177.67067,212.0611 250.65741,115.96173 355.7675,88.46302 435.28516,154.70107 544.00701,367.21361 471.28098,544.39934 452.87079,516.66115 290.53159,622.0998 195.84937,598.5181 185.82795,556.89448 48.47665,413.53162 88.158909,255.75988 177.81861,207.995 249.131,110.47595 358.82605,85.21407 439.88618,154.68965 545.1581,382.49055 462.43291,558.58104 447.38833,527.16574 277.21491,626.90213 183.72514,598.34497 177.51419,556.2443 44.421759,406.85287 87.474279,250.55273 177.86406,203.91164 247.55854,105.01695 362.27103,82.29478 444.7311,155.14725 545.47755,398.34414 452.72408,572.43396 441.23227,537.6644 263.65623,631.06523 171.6041,597.6184 169.10812,555.20831 40.541519,400.16803 86.696309,245.41118 177.80244,199.81155 245.95733,99.59089 366.12704,79.73186 449.81854,156.09986 544.90806,414.69024 442.20837,585.87365 434.40628,548.09772 249.93042,634.58839 159.54033,596.36178 160.64219,553.78656 36.821779,393.50085 85.813719,240.33691 177.62935,195.69544 244.3463,94.20372 370.41654,77.55404 455.14381,157.5735 543.40184,431.43678 430.95087,598.82446 426.92059,558.40639 236.11121,637.4812 147.5837,594.60515 152.14837,551.98261 33.246839,386.87346 84.816059,235.33149 177.34097,191.56421 242.74568,88.861 375.15939,75.79215 460.69876,159.59452 540.92231,448.48481 419.02658,611.22111 418.79183,568.53221 222.26987,639.76307 135.7794,592.38449 143.65779,549.80346 29.799761,380.30628 83.693679,230.39641 176.93383,187.41903 241.17712,83.56796 380.37218,74.47909 466.47147,162.18902 537.44538,465.73054 406.51917,623.00978 410.04311,578.41904 208.47398,641.46256 124.16734,589.74092 135.20031,547.25952 26.462771,373.81805 82.437869,225.53313 176.40491,183.26123 239.6636,78.32957 386.068,73.65003 472.44601,165.38268 532.96072,483.06701 393.51873,634.14956 400.70403,588.01358 194.78645,642.61642 112.78168,586.71956 126.80408,544.36433 23.217551,367.42586 81.040809,220.74314 175.75169,179.09239 238.22938,73.15045 392.25565,73.3423 478.60234,169.20055 527.47248,500.38625 380.12019,644.61268 390.8101,597.26654 181.26459,643.26863 101.65063,583.36883 118.4951,541.13433 20.045451,361.14502 79.495579,216.02792 174.97207,174.91419 236.90013,68.03509 398.93917,73.59525 484.91609,173.66657 520.99963,517.58162 366.42117,654.38497 380.40252,606.13323 167.9596,643.46912 90.796669,579.73938 110.29729,537.58877 16.927881,354.98952 77.796279,211.38905 174.06453,170.7286 235.70249,62.98768 406.11743,74.45034 491.35856,178.80325 513.57612,534.54999 352.52016,663.46552 369.52727,614.57458 154.91611,643.2726 80.236319,575.88309 102.23187,533.74914 13.846521,348.9716 75.937959,206.82808 173.02794,166.53766 234.66446,58.01248 413.78339,75.95059 497.89667,184.6312 505.25014,551.19423 338.51434,671.86635 358.23486,622.55756 142.17218,642.7373 69.980689,571.85234 94.317319,529.63899 10.783431,343.10241 73.916629,202.34669 171.86181,162.34367 233.81494,53.11365 421.92364,78.14041 504.49287,191.1685 496.0836,567.42504 324.49832,679.61124 346.57913,630.05579 189.75894,650.2726 126.33645,609.85751 137.47463,576.5978"
       id="path2985" />
  </g>
</svg>
