<?xml version="1.0" encoding="UTF-8" standalone="no"?>
<!-- Created with Inkscape (http://www.inkscape.org/) -->

<svg
   xmlns:osb="http://www.openswatchbook.org/uri/2009/osb"
   xmlns:dc="http://purl.org/dc/elements/1.1/"
   xmlns:cc="http://creativecommons.org/ns#"
   xmlns:rdf="http://www.w3.org/1999/02/22-rdf-syntax-ns#"
   xmlns:svg="http://www.w3.org/2000/svg"
   xmlns="http://www.w3.org/2000/svg"
   xmlns:sodipodi="http://sodipodi.sourceforge.net/DTD/sodipodi-0.dtd"
   xmlns:inkscape="http://www.inkscape.org/namespaces/inkscape"
   width="744.09448819"
   height="1052.3622047"
   id="svg3783"
   version="1.1"
   inkscape:version="0.48.2 r9819"
   sodipodi:docname="stars001.svg">
  <defs
     id="defs3785">
    <marker
       inkscape:stockid="Tail"
       orient="auto"
       refY="0.0"
       refX="0.0"
       id="Tail"
       style="overflow:visible">
      <g
         id="g8475"
         transform="scale(-1.2)">
        <path
           id="path8477"
           d="M -3.8048674,-3.9585227 L 0.54352094,0"
           style="fill:none;fill-rule:evenodd;stroke:#000000;stroke-width:0.8;marker-start:none;marker-end:none;stroke-linecap:round" />
        <path
           id="path8479"
           d="M -1.2866832,-3.9585227 L 3.0617053,0"
           style="fill:none;fill-rule:evenodd;stroke:#000000;stroke-width:0.8;marker-start:none;marker-end:none;stroke-linecap:round" />
        <path
           id="path8481"
           d="M 1.3053582,-3.9585227 L 5.6537466,0"
           style="fill:none;fill-rule:evenodd;stroke:#000000;stroke-width:0.8;marker-start:none;marker-end:none;stroke-linecap:round" />
        <path
           id="path8483"
           d="M -3.8048674,4.1775838 L 0.54352094,0.21974226"
           style="fill:none;fill-rule:evenodd;stroke:#000000;stroke-width:0.8;marker-start:none;marker-end:none;stroke-linecap:round" />
        <path
           id="path8485"
           d="M -1.2866832,4.1775838 L 3.0617053,0.21974226"
           style="fill:none;fill-rule:evenodd;stroke:#000000;stroke-width:0.8;marker-start:none;marker-end:none;stroke-linecap:round" />
        <path
           id="path8487"
           d="M 1.3053582,4.1775838 L 5.6537466,0.21974226"
           style="fill:none;fill-rule:evenodd;stroke:#000000;stroke-width:0.8;marker-start:none;marker-end:none;stroke-linecap:round" />
      </g>
    </marker>
    <linearGradient
       id="linearGradient5695"
       osb:paint="solid">
      <stop
         style="stop-color:#000000;stop-opacity:1;"
         offset="0"
         id="stop5697" />
    </linearGradient>
  </defs>
  <sodipodi:namedview
     id="base"
     pagecolor="#ffffff"
     bordercolor="#666666"
     borderopacity="1.0"
     inkscape:pageopacity="0.0"
     inkscape:pageshadow="2"
     inkscape:zoom="0.98994949"
     inkscape:cx="273.41462"
     inkscape:cy="803.35027"
     inkscape:document-units="px"
     inkscape:current-layer="layer1"
     showgrid="false"
     inkscape:window-width="1280"
     inkscape:window-height="749"
     inkscape:window-x="-4"
     inkscape:window-y="-4"
     inkscape:window-maximized="1" />
  <metadata
     id="metadata3788">
    <rdf:RDF>
      <cc:Work
         rdf:about="">
        <dc:format>image/svg+xml</dc:format>
        <dc:type
           rdf:resource="http://purl.org/dc/dcmitype/StillImage" />
        <dc:title></dc:title>
      </cc:Work>
    </rdf:RDF>
  </metadata>
  <g
     inkscape:label="Layer 1"
     inkscape:groupmode="layer"
     id="layer1">
    <rect
       style="fill:none;stroke:#000000;stroke-width:0.91452992;stroke-opacity:1"
       id="rect4319"
       width="516.12524"
       height="776.81982"
       x="7.8454075"
       y="12.284647" />
    <flowRoot
       xml:space="preserve"
       id="flowRoot3475"
       style="fill:black;stroke:none;stroke-opacity:1;stroke-width:1px;stroke-linejoin:miter;stroke-linecap:butt;fill-opacity:1;font-family:Sans;font-style:normal;font-weight:normal;font-size:40px;line-height:125%;letter-spacing:0px;word-spacing:0px"><flowRegion
         id="flowRegion3477"><rect
           id="rect3479"
           width="474.7717"
           height="76.771591"
           x="40.406101"
           y="840.23016" /></flowRegion><flowPara
         id="flowPara3481" /></flowRoot>    <path
       sodipodi:type="spiral"
       style="fill:none;stroke:#000000;stroke-width:1px;stroke-linecap:butt;stroke-linejoin:miter;stroke-opacity:1"
       id="path12742"
       sodipodi:cx="203.04066"
       sodipodi:cy="226.0574"
       sodipodi:expansion="1.1"
       sodipodi:revolution="37.330002"
       sodipodi:radius="194.36974"
       sodipodi:argument="-23.288284"
       sodipodi:t0="0.033325613"
       d="m 198.55888,224.97846 c 0.27503,-2.84301 3.05404,-4.73312 5.8015,-4.40296 3.39419,0.40789 5.63132,3.74783 5.17925,7.04647 -0.54184,3.95372 -4.45381,6.54407 -8.31193,5.9662 -4.52064,-0.67709 -7.46943,-5.17034 -6.76266,-9.59527 0.81367,-5.09418 5.89617,-8.40598 10.89449,-7.5677 5.67371,0.95154 9.35257,6.63032 8.38058,12.208 -1.09067,6.25874 -7.37202,10.30831 -13.53452,9.20067 -6.84883,-1.23099 -11.27245,-8.12064 -10.02746,-14.873 1.37244,-7.44361 8.87564,-12.24436 16.22256,-10.86047 8.04277,1.51496 13.22351,9.63657 11.69932,17.5824 -1.6585,8.64605 -10.40304,14.20944 -18.9519,12.54368 -9.2532,-1.803 -15.20175,-11.1747 -13.39323,-20.33047 1.94843,-9.86402 11.95127,-16.20008 21.7176,-14.24769 10.47831,2.09472 17.20412,12.73247 15.10684,23.11284 -2.24184,11.09589 -13.51807,18.21358 -24.51578,15.97044 -11.71664,-2.38977 -19.22822,-14.30786 -16.83832,-25.92606 2.53846,-12.34041 15.10165,-20.24781 27.34337,-17.71028 12.96705,2.68788 21.27212,15.89926 18.58615,28.76739 -2.838,13.59647 -16.70054,22.30098 -30.19784,19.46579 -14.22857,-2.98881 -23.33423,-17.50534 -20.34906,-31.6345 3.14025,-14.86323 18.31351,-24.37166 33.0771,-21.23582 15.50037,3.29234 25.41316,19.12496 22.12597,34.52546 -3.44503,16.1399 -19.93956,26.45858 -35.97936,23.01937 -16.78176,-3.5983 -27.5078,-20.75719 -23.91595,-37.43862 3.75215,-17.42585 21.57777,-28.56069 38.90308,-24.81558 18.07212,3.90654 29.61713,22.4012 25.71819,40.37256 -4.06147,18.72051 -23.2274,30.67703 -41.84693,26.62369 -19.37094,-4.21692 -31.74029,-24.05629 -27.532,-43.32603 4.37287,-20.02337 24.88778,-32.80681 44.80975,-28.44304 20.67774,4.52931 33.8765,25.72181 29.35674,46.29794 -4.68624,21.334 -26.55831,34.94928 -47.7905,30.27303 -21.9921,-4.84362 -36.02508,-27.39721 -31.19184,-49.28731 5.00145,-22.652 28.23845,-37.10381 50.78825,-32.11313 23.31366,5.15974 38.18542,29.08199 33.03682,52.29325 -5.31845,23.97703 -29.92775,39.26983 -53.80219,33.96287 -24.64207,-5.47758 -40.35697,-30.7757 -34.89122,-55.31499 5.63713,-25.30875 31.62578,-41.44679 56.83157,-35.82182 25.97703,5.79708 42.53922,32.47794 36.75462,58.35183 -5.95742,26.64688 -33.33215,43.63423 -59.87571,37.68958 -27.31826,-6.11815 -44.73173,-34.18835 -38.62664,-61.40311 6.27925,-27.99116 35.0465,-45.83171 62.93398,-39.56579 28.66552,6.44073 46.93408,35.90657 40.50696,64.46824 -6.60256,29.34133 -36.76852,48.03883 -66.00584,41.45013 -30.01856,-6.76476 -49.14589,-37.63231 -42.39524,-67.54669 6.9273,-30.69718 38.49791,-50.25523 69.09075,-43.34228 31.37717,7.09018 51.3668,39.36527 44.2912,70.63794 -7.2534,32.05851 -40.23439,52.48058 -72.18823,45.24198 -32.74116,-7.41695 -53.59651,-41.10522 -46.19458,-73.74155 7.58083,-33.42511 41.97773,-54.71455 75.29786,-47.14896 34.11034,7.74502 55.83468,42.85189 48.1051,76.85709 -7.90952,34.79681 -43.72767,56.95686 -78.4192,49.06297 -35.48453,-8.07433 -58.08106,-44.60505 -50.02255,-79.98415 8.23945,-36.17346 45.48401,-59.20724 81.55188,-50.9838 36.86359,8.40487 60.33538,46.36451 51.94671,83.12236 -8.57057,37.55489 -47.24654,61.46544 -84.69555,52.91124 -38.24735,-8.73657 -62.59739,-48.13007 -53.87736,-86.27139 8.90285,-38.94095 49.01507,-63.73121 87.84985,-54.84507 39.63568,9.06941 64.86687,49.90153 55.81433,89.4309 -9.23624,40.33152 -50.78942,66.00435 -91.01449,56.78512 -41.02845,-9.40334 -67.1436,-51.67873 -57.75743,-92.60059 9.57072,-41.72646 52.56944,-68.28462 94.18918,-58.73122 42.42553,9.73836 69.42738,53.46151 59.70648,95.78019 -9.90626,43.12565 -54.35494,70.57185 -97.37361,60.6832 -43.82681,-10.07442 -71.71802,-55.24972 -61.66135,-98.96941 10.24283,-44.52899 56.14581,-72.86585 100.56755,-62.64091 45.23218,10.41149 74.01533,57.0432 63.62186,102.168 -10.5804,45.93636 -57.94188,75.16644 -103.77074,64.60419 -46.64152,-10.74955 -76.31915,-58.84182 -65.58787,-105.37572 10.91894,-47.34766 59.74302,-77.47346 106.98293,-66.57291 48.05476,11.08857 78.62933,60.64546 67.55927,108.59234 -11.25843,48.76281 -61.54913,79.78674 -110.20393,68.54694 -49.47178,-11.42853 -80.94568,-62.45399 -69.5359,-111.81765 11.59885,-50.18169 63.36006,-82.10615 113.4335,-70.52615 50.89251,11.7694 83.2681,64.2673 71.51767,115.05145 -11.94019,51.60422 -65.17572,84.43152 -116.67147,72.51042 -52.31684,-12.11118 -85.596411,-66.08528 -73.50442,-118.29353 12.28239,-53.03034 66.99597,-86.76274 119.91761,-74.49965 53.74472,12.45383 87.93051,67.90781 75.49608,121.54371 -12.62546,54.45996 -68.82075,89.09968 -123.17177,76.49371 -55.17605,-12.79732 -90.270252,-69.7348 -77.49253,-124.8018 12.96939,-55.89299 70.64994,-91.4422 126.43377,-78.49251 56.61077,13.14165 92.61552,71.56615 79.49366,128.06765 -13.31413,57.32937 -72.48344,93.7902 -129.70344,80.49595 C 119.56948,318.17125 82.65206,258.25628 96.118895,200.31697 109.77858,141.54793 170.44006,104.17341 229.0995,117.81303 288.58958,131.6458 326.42171,193.05462 312.6091,252.435 298.60307,312.64692 236.44607,350.93716 176.34396,336.95137 115.40942,322.77187 76.660555,259.86587 90.819732,199.04124 105.17289,137.3833 168.82869,98.175323 230.37662,112.50807 292.75874,127.03508 332.42632,191.4415 317.9198,253.7135 303.21876,316.82056 238.06093,356.94823 175.06409,342.26775 111.23133,327.39248 70.643095,261.48246 85.497714,197.76002 100.5474,133.2008 167.2104,92.151529 231.65919,107.18048 296.9456,122.40475 338.45639,189.82152 323.25293,254.9974 307.85388,321.01174 239.68259,362.98451 173.77887,347.60635 107.03587,332.03235 64.600652,263.10578 80.153694,196.47349 95.90283,129.0011 165.58544,86.102983 232.94701,101.83108 301.14951,117.75553 344.51099,188.19492 328.60765,256.2865 312.50772,325.21981 241.3108,369.0451 172.4885,352.96635 102.82367,336.69077 58.534122,264.73559 74.788457,195.18186 91.239872,124.78481 163.95404,80.030563 234.23989,96.460658 305.36986,113.08807 350.58924,186.56195 333.98322,257.58062 317.17963,329.44419 242.94533,375.12915 171.19315,358.34702 98.595307,341.3671 52.444336,266.37167 69.402733,193.8853 86.559154,120.55249 162.31643,73.935087 235.53766,91.06992 c 74.06843,17.33309 121.1527,93.8529 103.84127,167.80967 C 321.86901,333.68431 244.58597,381.23587 169.893,363.74766 94.351321,346.06075 46.332069,268.0138 63.997199,192.58396 81.861264,116.30468 160.67281,67.817313 236.84016,85.659535 313.8577,103.70091 362.8136,183.27772 344.79413,260.18325 326.57528,337.93969 246.23253,387.36452 168.58819,369.16764 90.092211,350.77116 40.19804,269.6618 58.57249,191.27802 77.146747,112.04187 159.02337,61.677951 238.14724,80.230125 318.1242,98.98232 368.95825,181.62686 350.2282,261.49145 331.29791,342.20983 247.8848,393.51442 167.27887,374.60634 85.818447,355.49781 34.042923,271.31549 53.129195,189.96759 72.416116,107.76451 157.36829,55.517662 239.45877,74.782272 322.40512,94.247737 375.12367,179.9704 355.68058,262.80406 336.03642,346.4943 249.54263,399.68494 165.96518,380.06321 81.530466,360.24021 27.867349,272.97468 47.667869,188.65283 67.669851,103.47304 155.70775,49.337069 240.77459,69.316521 326.70005,89.497634 381.30925,178.30852 361.15072,264.12095 340.79033,350.79267 251.20585,405.87547 164.64724,385.53771 77.228681,364.9979 21.671912,274.63922 42.189033,187.33385 62.908402,99.167863 154.04189,43.136753 242.09461,63.833385 331.0086,84.732456 387.51441,176.64136 366.63813,265.44199 345.55921,355.10455 252.87431,412.08543 163.32518,391.02936 72.91348,369.77046 15.457167,276.30897 36.693176,186.01077 58.132193,94.849365 152.37087,36.917265 243.41869,58.333346 335.33037,79.95262 393.73861,174.96906 372.14232,266.76708 350.34265,359.42957 254.54786,418.31431 161.9991,396.53768 68.585227,374.55748 9.2236411,277.98377 31.180761,184.68371 53.341623,90.517905 150.69482,30.679123 244.74674,52.81686 339.66501,75.15852 399.98134,173.29178 377.66285,268.09609 355.14026,363.76739 256.22637,424.5616 160.66912,402.06222 64.244269,379.35857 2.9718296,279.6635 25.652222,183.35276 48.537069,86.173821 149.01389,24.422814 246.07864,47.284355 344.0122,70.350527 406.24212,171.60964 383.19929,269.42894 359.95167,368.11766 257.90971,430.82681 159.33533,407.60258 59.89093,384.17337 -3.2977984,281.34802 20.107972,182.01804 43.71889,81.817436 147.32818,18.148802 247.41429,41.73624 348.37161,65.528995 412.52048,169.92276 388.75125,270.76552 364.77653,372.48008 259.59775,437.10951 157.99783,413.15836 55.52552,389.00155 -9.5847983,283.03723 14.548402,180.67962 22.582918,146.60234 39.946454,114.96392 64.359427,89.869635"
       transform="translate(49.497475,47.47717)" />
  </g>
</svg>
