<?xml version="1.0" encoding="UTF-8" standalone="no"?>
<!-- Created with Inkscape (http://www.inkscape.org/) -->

<svg
   xmlns:dc="http://purl.org/dc/elements/1.1/"
   xmlns:cc="http://creativecommons.org/ns#"
   xmlns:rdf="http://www.w3.org/1999/02/22-rdf-syntax-ns#"
   xmlns:svg="http://www.w3.org/2000/svg"
   xmlns="http://www.w3.org/2000/svg"
   xmlns:sodipodi="http://sodipodi.sourceforge.net/DTD/sodipodi-0.dtd"
   xmlns:inkscape="http://www.inkscape.org/namespaces/inkscape"
   width="744.09448819"
   height="1052.3622047"
   id="svg3783"
   version="1.1"
   inkscape:version="0.48.2 r9819"
   sodipodi:docname="map000.svg">
  <sodipodi:namedview
     id="base"
     pagecolor="#ffffff"
     bordercolor="#666666"
     borderopacity="1.0"
     inkscape:pageopacity="0.0"
     inkscape:pageshadow="2"
     inkscape:zoom="0.49497475"
     inkscape:cx="314.0181"
     inkscape:cy="842.9274"
     inkscape:document-units="px"
     inkscape:current-layer="layer1"
     showgrid="false"
     inkscape:window-width="1024"
     inkscape:window-height="748"
     inkscape:window-x="36"
     inkscape:window-y="-16"
     inkscape:window-maximized="0"
     inkscape:object-nodes="true"
     inkscape:snap-grids="false"
     inkscape:snap-to-guides="false"
     inkscape:snap-nodes="false" />
  <defs
     id="defs3785">
    <inkscape:perspective
       id="perspective3823"
       inkscape:persp3d-origin="334.90438 : 296.50168 : 1"
       inkscape:vp_z="372.04724 : 175.3937 : 0"
       inkscape:vp_y="0 : 1000 : 0"
       inkscape:vp_x="-314.90439 : 155.3937 : 0"
       sodipodi:type="inkscape:persp3d" />
  </defs>
  <metadata
     id="metadata3788">
    <rdf:RDF>
      <cc:Work
         rdf:about="">
        <dc:format>image/svg+xml</dc:format>
        <dc:type
           rdf:resource="http://purl.org/dc/dcmitype/StillImage" />
        <dc:title></dc:title>
      </cc:Work>
    </rdf:RDF>
  </metadata>
  <g
     id="layer1"
     inkscape:groupmode="layer"
     inkscape:label="Layer 1">
    <path
       style="fill:none;stroke:#000000;stroke-width:1;stroke-miterlimit:4;stroke-opacity:1;stroke-dasharray:none"
       d="m 263.80819,-98.140551 -3.21875,89.3125006 -30.71875,-83.1562506 19.09375,87.3125006 -50.46875,-72.8750006 40.21875,79.8125006 -67,-58.0625006 58.78125,67.312501 -79.3125,-39.562501 73.65625,50.562501 -86.65625,-18.5937504 83.9375,30.6562504 -88.5625,3.5625 88.90625,8.8125 -84.90625,25.46875 88.34375,-13.59375 -20.65625,12.46875 -10.0625,-4.34375 8.59375,5.21875 -53.78125,32.4375 62.9375,-26.906251 6.96875,4.25 -19.8125,20.156251 -16.09375,-2.5 14.3125,4.3125 -28.28125,28.78125 34.84375,-26.78125 17,5.15625 -4.40625,7.59375 -5.625,-5.9375 5,7.03125 -6.65625,11.46875 -28.875,2.78125 26.625,1.125 -6.5,11.1875 -12.78125,-8.03125 11.71875,9.875 -3.9375,6.78125 4.75,-6.09375 11.6875,9.875 -25.625,9.28125 29.28125,-6.1875 17.9375,15.125 -11.71875,8 -50.1875,-16.125 43.25,20.84375 -14.34375,9.78125 17.0625,-8.46875 25,12.0625 -3.34375,3.84375 -75.59375,-4.46875 67.59375,13.5625 -8.34375,9.53125 -58.65625,11.40625 89.25,-4.78125 -4.21875,2 0,-0.3125 -0.0625,0.34375 -31.1875,14.8125 -3.15625,-12.75 1.4375,13.59375 -26.0625,12.375 -8.15625,-15.125 6,16.15625 -14.65625,6.96875 15.4375,-4.84375 10.28125,27.625 -8.5625,7.15625 9.125,-5.65625 13.53125,36.375 -60.1875,-65.09375 51,73.375 -74.1875,-47.875 8.5,-1.09375 -89.375001,-1.125 82.406251,-32.65625 -86.812501,21.125 71.687501,-52.15625 -78.875001,42.0625 56.46875,-68.34375 -65.90625,60.34375 37.71875,-80.21875 -48.84375,74.84375 16.5625,-87.09375 -28.6875,84.65625 -5.62500004,-88.46875 -6.71874996,89.09375 -27.4375,-84.28125 15.625,87.96875 -47.531248,-74.8125 36.999998,81.34375 -64.624998,-60.65625 56.062498,69.5625 -77.687499,-42.65625 71.625001,53.4375 -85.875001,-22 82.656251,33.96875 -88.625001,0.0312 88.500001,12.3125 -85.843751,22.09375 88.781251,-10.0625 -77.656251,42.75 83.499999,-31.84375 -64.562499,60.71875 72.937499,-51.625 -47.437498,74.875 57.812498,-68.125 -11.3125,34.875 -3.09375,-1.4375 2.9375,1.90625 -10.156248,31.3125 -4.8125,-0.875 4.59375,1.53125 -5.5,17 7.874998,-16.21875 26.65625,8.84375 -0.96875,15.46875 3,-14.78125 30.71875,10.15625 0.78125,4.125 -0.1875,-3.90625 17.84375,5.90625 -88.406248,6.21875 89.124998,6.15625 -84.093748,27.96875 87.874998,-16.21875 -74.5,48.03125 81.09375,-37.53125 -60.21875,65.03125 69.1875,-56.53125 -42.125,77.96875 52.9375,-71.96875 -21.40625,86 33.375,-82.875 0.65625,88.625 11.71875,-88.5625 22.656251,85.6875 -10.65625,-88.71875 43.25,77.375 -32.375,-83.3125 61.125,64.1875 -52.09375,-72.59375 75.1875,46.9375 -68.5,-57.375 26.875,8.53125 -4.28125,5.78125 5.34375,-5.4375 29.71875,9.40625 -5.8125,14.34375 7.90625,-13.65625 24.75,7.84375 -22.96875,-10.96875 13.625,-23.625 16.28125,0.90625 -6.6875,49.96875 24.03125,-86.09375 10.40625,88.03125 1.875,-89.34375 32,82.6875 -20.40625,-87 51.5625,72.09375 -41.40625,-79.1875 67.84375,57.03125 -59.78125,-66.40625 79.90625,38.34375 -74.4375,-49.4375 86.9375,17.28125 -84.375,-29.375 88.5,-4.90625 -89.0625,-7.46875 54.59375,-17.25 0.6875,1.6875 -0.4375,-1.78125 29.6875,-9.375 -30.71875,5.1875 -5.59375,-22.625 19.375,-12.09375 18.625,25.4375 -14.90625,-27.75 0.3125,-0.1875 -0.34375,0.15625 -27.375,-50.90625 68.53125,56.25 -53.4375,-58 1.71875,-3.59375 29.875,13.90625 -0.125,2.0625 0.375,-1.9375 41.375,19.28125 -40.0625,-25.96875 3.03125,-15.53125 26.09375,4.875 3.6875,18.5 -1.0625,-18 20.46875,3.8125 -20.625,-6.90625 -1.5,-25.6875 17.375,-1.15625 18.5625,38.59375 -12.46875,-39 2.375,-0.15625 -2.5,-0.1875 -3.9375,-12.3125 1.25,0.71875 -1.34375,-1.0625 -6.03125,-18.84375 5.84375,-1.90625 46.6875,55.4375 -42.96875,-68.375 9.46875,2.75 58.125,41.4375 -64.875,-61.46875 82.6875,31.9375 -78.09375,-43.40625 88.03125,10.34375 -86.46875,-22.625 87.84375,-11.875 -89.34375,-0.40625 82.125,-33.343751 -86.65625,21.843751 71.25,-52.71875 -78.5,42.6875 55.90625,-68.78125 -53.25,49.562499 -8.28125,2.875 33.15625,-72.0937494 -48.21875,75.2187494 5.5,-30.281249 9.71875,-8.59375 -9.28125,6.15625 9.90625,-54.4687504 -20.25,61.3125004 -3.59375,2.40625 -5.75,-1.3125 -2.0625,-28.84375 0.875,-1.3125 11.875,-1.96875 -10.71875,0.28125 4.21875,-6.25 -5.6875,6.28125 -0.78125,0.03125 -2.1875,-30.8125004 6.875,-3.0624996 -6.96875,1.9999996 -0.15625,-2.3124996 -0.15625,2.4062496 -31.84375,9.09374999 -2.15625,-6.40624999 1.25,6.6875 -23,6.5625 1.15625,-12.46875 45.5,-35.9375006 -77.125,45.1250006 53.75,-70.5000006 -63.5,62.9062506 34.5,-81.6562506 -45.84375,76.7187506 13.125,-87.6875006 -25.3125,85.7187506 -9.125,-88.1875006 z m 128.53125,91.1875006 -2.0625,30.7500004 -21.875,0.5625 -2.6875,-8 4.90625,-13.6875004 21.71875,-9.625 z m -55.25,2.90625 -2.96875,12.59375 -6,1.7187504 -1.46875,-2.2500004 1.09375,2.3437504 -13.96875,4 23.3125,-18.4062504 z m 33.03125,6.96875 -5.4375,10.3750004 -2.3125,-6.9375004 7.75,-3.4375 z m -9.375,4.15625 1.90625,10.1250004 -3.90625,7.4375 -20.96875,0.5625 -2.375,-3.65625 0.3125,-3.40625 25.03125,-11.0625004 z m -29.3125,12.9687504 -1.28125,5.34375 -11.5,0.3125 12.78125,-5.65625 z m 32.15625,2.28125 0.40625,2.15625 -1.1875,0.03125 0.78125,-2.1875 z m 26.5,4 -0.25,3.96875 -14.1875,15.71875 -5.5,-16.375 19.9375,-3.3125 z m -24.96875,4.15625 3.40625,18.375 -13.3125,-3.03125 5.1875,-14.5625 4.71875,-0.78125 z m -10.34375,1.71875 -5.59375,10.65625 -5.65625,-8.78125 11.25,-1.875 z m -15.65625,2.625 3.8125,8.21875 -9.3125,-2.15625 0.46875,-5.21875 5.03125,-0.84375 z m 50.375,0.21875 -1.21875,18.34375 -9.6875,-2.21875 10.90625,-16.125 z m -62,1.71875 -0.625,2.59375 -6.3125,-1.4375 6.9375,-1.15625 z m -4.9375,13.75 1.65625,0.125 -0.25,1.125 -1.40625,-1.25 z m 10.09375,0.875 11.5625,0.96875 -4.40625,8.40625 -7.65625,-3.9375 0.5,-5.4375 z m 23.34375,1.96875 12.09375,1.0625 -6.65625,7.375 -5.4375,-8.4375 z m 22.78125,2 9.3125,0.78125 -0.75,11.0625 -3.78125,2.5 -4.78125,-14.34375 z m 18.625,1.59375 4.78125,0.40625 -4.53125,3 -0.25,-3.40625 z m -46.96875,2.21875 4.34375,9.3125 -6.46875,-3.34375 2.125,-5.96875 z m 54.1875,1.34375 -5.71875,17.374999 -0.8125,-11.562499 6.53125,-5.8125 z m -89.46875,1.34375 5.9375,2.09375 -0.625,2.625 -5.3125,-4.71875 z m 55.90625,0.5 2.5625,13.906249 -1.625,1.09375 -0.75,-0.375 -4.9375,-7.656249 4.75,-6.96875 z m -39.9375,5.53125 3.03125,3.6875 -2.5625,4.906249 -1.15625,-1.03125 0.6875,-7.562499 z m -98.96875,1.59375 -9.25,9.406249 -6.34375,-2.75 15.59375,-6.656249 z m 114.8125,3.531249 3.3125,1.15625 -0.9375,1.03125 -2.375,-2.1875 z m 39.75,3.375 -0.15625,2.25 -0.5625,-1.625 0.71875,-0.625 z m 43.78125,1.5 -8.25,7.65625 2.0625,-4.5 6.1875,-3.15625 z m -189.59375,0.375 -3.875,6.6875 -3.09375,-1.34375 6.96875,-5.34375 z m 118.8125,0.84375 2.28125,4.90625 -1.8125,1.1875 -2.84375,-2.625 2.375,-3.46875 z m -17.3125,2.53125 0.53125,0.65625 -1.28125,1.4375 0.75,-2.09375 z m -90.875,2.9375 -1.65625,5.90625 -2.21875,-0.96875 3.875,-4.9375 z m -22.5625,2.84375 4.90625,2.96875 -9.03125,15.593751 -16.625,-2.59375 20.75,-15.968751 z m 34.3125,0.9375 0.125,0.125 -0.1875,7.750001 -2.84375,-1.21875 2.90625,-6.656251 z m -20.53125,7.437501 4.8125,2.90625 -1.40625,4.96875 -3.96875,-7.15625 0.5625,-0.71875 z m -0.875,1.125 3.59375,9.28125 -0.8125,2.875 -10.96875,-1.71875 8.1875,-10.4375 z m 32.125,2.40625 1.40625,1.46875 0.0937,0.71875 -1.75,-0.75 0.25,-1.4375 z m -17.59375,4.71875 6.53125,3.96875 -0.0625,3.875 -9.28125,-1.4375 2.8125,-6.40625 z m -27.3125,9.1875 13.25,4.03125 -3.15625,11.15625 -11.46875,1.09375 -6.21875,-6.59375 7.59375,-9.6875 z m 20.5625,6.25 1.03125,0.3125 2.8125,7.25 -7.5,0.71875 3.65625,-8.28125 z m 542.09375,0.90625 -18.5,87.40625 -16.03125,-87.1875 3.84375,89.28125 -37.1875,-80.4375 25.875,85.5 -56.03125,-68.6875 46.375,76.40625 -71.34375,-52.59375 63.875,62.46875 -82.1875,-33.1875 77.4375,44.59375 -87.875,-11.71875 86.09375,23.96875 -66.53125,7.9375 1.3125,-3.9375 -2,4.03125 -20.78125,2.46875 19.375,0.40625 -36.25,73.1875 6.15625,-88.40625 -18.46875,87.40625 -16.0625,-87.15625 3.875,89.28125 -37.21875,-80.46875 25.9375,85.53125 -56.0625,-68.6875 46.375,76.375 -71.375,-52.5625 63.9375,62.46875 -82.21875,-33.1875 77.4375,44.59375 -87.84375,-11.6875 86.09375,23.9375 -88.03125,10.53125 89.34375,1.75 -82.625,32.09375 82.3125,-19.40625 1.75,1 -69.125,49.53125 79.125,-41.5 -19.0625,22.75 -6.4375,-0.8125 5.78125,1.5625 -37.21875,44.4375 46.4375,-41.90625 10,2.6875 -12.375,25.875 -14.34375,1.8125 13.375,0.1875 -15.03125,31.40625 20.78125,-31.34375 20,0.28125 -4.40625,22.28125 -27.78125,11 26.90625,-6.53125 -3.3125,16.78125 6.03125,-17.4375 26.65625,-6.4375 0.8125,14.1875 -41.96875,30.46875 42.40625,-22.5625 0.34375,5.875 0.53125,-6.34375 28.34375,-15.0625 1.125,3.53125 -50.40625,60.875 54.0625,-49.40625 0.5625,1.8125 -0.34375,-2 11.6875,-10.6875 -3.34375,7.09375 -17.9375,25.78125 11.8125,-12.75 -28.28125,60.0625 48.875,-74.8125 -16.625,87.0625 14.875,-43.78125 14.71875,-27.21875 4.6875,74.875 6.84375,-89.09375 8.75,26.96875 -2.71875,25.71875 4.8125,-19.28125 16.5,50.90625 -12.125,-68.53125 2.5,-10.09375 20.5,32.3125 2.3125,15.6875 -0.0937,-12.1875 18.8125,29.65625 -18.90625,-41.625 -0.15625,-22.9375 28.78125,27.0625 5.21875,12.40625 -2.65625,-10 15.375,14.4375 -17.1875,-21.375 -8.3125,-31.46875 32.1875,17.71875 11.3125,14.9375 -7.03125,-12.5625 10.6875,5.875 -12.6875,-9.5 -18.875,-33.71875 29.15625,7.5 24.5625,19.5 -16.625,-17.46875 8.71875,2.25 -10.84375,-4.46875 -28.125,-29.5625 19.96875,0.0312 46.21875,20.625 -33.03125,-20.625 11.84375,0 -15.25,-2.125 -32.9375,-20.59375 6.8125,-1.75 74.1875,12.59375 -55.125,-17.5 19.65625,-5.03125 -26.21875,2.96875 -23.5,-7.46875 88.34375,-7.34375 -79.53125,-4.46875 19.34375,-10.625 54.6875,-19 -87.65625,17.375 43.25,-28.6875 2.375,7.46875 -1.375,-8.125 25.71875,-17.0625 7.65625,12.25 -5.96875,-13.375 2.21875,-1.46875 -2.375,1.125 -30.28125,-67.875 64.18746,61.125 -55.56246,-70 77.40626,43.25 -71.25001,-53.96875 85.71881,22.625 -82.40631,-34.5625 88.62501,0.625 -88.40626,-12.96875 85.99996,-21.46875 -88.84371,9.40625 77.96871,-42.15625 -83.74996,31.21875 65.03126,-60.21875 -73.31251,51.0625 48,-74.53125 -58.34375,67.71875 28,-84.125 -39.6875,80.0625 6.1875,-88.40625 z m -535.75,1 6.59375,2 -0.0625,2.78125 -3.6875,0.34375 -2.84375,-5.125 z m -35.75,3.125 3.8125,5.34375 -8.65625,0.84375 4.84375,-6.1875 z m -8.4375,10.78125 16.59375,0.6875 6.21875,8.71875 -1.9375,6.84375 -14.59375,5.28125 -15.5,-9.75 9.21875,-11.78125 z m 22.28125,0.9375 2.875,0.125 -0.625,2.25 -2.25,-2.375 z m 8.0625,0.34375 15.25,0.65625 1.8125,4.6875 -14.71875,5.3125 -4.8125,-5.0625 2.46875,-5.59375 z m 25.59375,1.09375 2.84375,0.125 -3.0625,1.125 0.21875,-1.25 z m -30.6875,10.46875 1.03125,1.4375 -1.96875,0.71875 0.9375,-2.15625 z m 37.625,1.34375 -2.25,1.53125 -0.53125,-0.9375 2.78125,-0.59375 z m -12.75,2.6875 -0.0625,3.59375 -0.8125,0.21875 0.8125,-0.0937 -0.0625,2.40625 -4.15625,2.84375 -6.34375,-6.71875 10.625,-2.25 z m 2.78125,4 0.0312,0.0937 -0.0625,0.0312 0.0312,-0.125 z m -21.875,0.0625 7.1875,10.09375 -8.0625,5.5 -11.96875,-7.53125 2.5625,-5.875 10.28125,-2.1875 z m -12.1875,2.59375 -1.40625,5 -5.625,-3.5 7.03125,-1.5 z m 50.875,0.9375 -2.59375,2.96875 -0.71875,-1.3125 3.3125,-1.65625 z m 150.03125,1.25 11.96875,8.53125 -9.1875,-4.09375 -2.78125,-4.4375 z m -67.4375,4.0625 -0.5625,0.90625 -0.25,-0.3125 0.8125,-0.59375 z m -95.5625,1.09375 2.25,5.8125 -1.375,1.5625 -5.03125,-5.3125 4.15625,-2.0625 z m 153.46875,2.6875 10.21875,12.125 -6,1.09375 -4.21875,-13.21875 z m -67.8125,3.34375 3.375,3.34375 -2,3.25 -1.5,0.6875 -2.3125,-5.53125 2.4375,-1.75 z m -99.4375,0.8125 6.78125,9.5 -0.9375,1.0625 -11.96875,-7.53125 6.125,-3.03125 z m 156.03125,1.09375 4.75,9.90625 -4.125,0.75 -0.625,-10.65625 z m -24.5,1.46875 -0.75,13.875 -3.71875,0.6875 -1.5,-2 5.96875,-12.5625 z m -147.25,5.25 13.78125,11.625 -1.46875,1.6875 -23.78125,-7.65625 11.46875,-5.65625 z m 158.5625,0.84375 2.375,1.375 0.71875,3.65625 -4.21875,0.78125 1.125,-5.8125 z m -54.1875,0.40625 1.0625,1.8125 -4.5625,2.09375 -0.0312,-0.125 3.53125,-3.78125 z m 22.59375,1.875 3.5625,3.5625 -1.625,5.125 -7.75,1.40625 -1.4375,-3.40625 3.6875,-4.4375 3.5625,-2.25 z m 50.6875,2.4375 2.3125,4.8125 -4.9375,-3.9375 2.625,-0.875 z m -4.96875,3.5625 9.34375,5.5 9,18.71875 -17,-1.25 -1.34375,-22.96875 z m -10.09375,1.40625 4.21875,21.0625 -7.53125,-0.5625 -5.25,-6.90625 2.25,-11.5 6.3125,-2.09375 z m -21.1875,6.96875 4.375,4.375 -0.4375,8.15625 -14.375,-1.0625 4.53125,-9.53125 5.90625,-1.9375 z m -15.96875,5.25 -0.125,0.4375 -0.15625,-0.34375 0.28125,-0.0937 z m -116.71875,1.5 5.28125,2.5625 -7.71875,-0.46875 2.4375,-2.09375 z m 109.8125,0.78125 1.90625,3.1875 -9.5,-0.6875 7.59375,-2.5 z m 34.5,4.09375 1.59375,1.5625 -1.875,-0.125 0.28125,-1.4375 z m -157.5,6.5 17.59375,3.53125 -28.03125,5.46875 10.4375,-9 z m 172.1875,0.53125 1.625,8.1875 -5.96875,-7.90625 4.34375,-0.28125 z m -7.125,0.46875 9,8.96875 2.9375,14.71875 -24,-8.03125 2.90625,-15.03125 9.15625,-0.625 z m -15.65625,1.0625 -0.71875,13.15625 -8.5,-2.875 -3.96875,-9.40625 13.1875,-0.875 z m -18.1875,1.21875 4.53125,7.59375 -7.46875,-2.5 2.40625,-5.0625 0.53125,-0.0312 z m -6.5,0.4375 -1,3.125 -7.625,-2.5625 8.625,-0.5625 z m -11.03125,12.6875 6.625,1.25 -0.8125,2.53125 -5.8125,-3.78125 z m 9.875,1.84375 18.625,3.46875 5.625,9.46875 -0.375,7.09375 -25.53125,-16.53125 1.65625,-3.5 z m 20.71875,3.875 3.96875,0.75 -0.40625,7.75 -3.5625,-8.5 z m -119.25,4.8125 -9.53125,7.9375 0.0312,-4.9375 1.0625,-0.34375 -0.53125,1.0625 0.8125,-1.15625 8.15625,-2.5625 z m 83.3125,0.625 3.5,1.625 0.90625,3.15625 -4.40625,-4.78125 z m 5.96875,2.78125 1.75,0.8125 -1.125,3.53125 -0.625,-4.34375 z m -100.625,0.15625 -1,6.71875 -22.46875,18.75 -4.1875,-16.78125 27.65625,-8.6875 z m 19.15625,6.03125 -17.5625,24.34375 0.125,-13.5 17.4375,-10.84375 z m -49.5,3.53125 2.09375,19.875 -14.625,12.1875 -12.96875,-24.0625 25.5,-8 z m 106.96875,4.15625 13.6875,18.65625 -7.59375,6 -6.09375,-24.65625 z m -50.5625,2.8125 -24.8125,59 0.25,-33.34375 24.5625,-25.65625 z m 14.5,1.46875 -3.625,29.53125 -23.75,31.3125 6.09375,-22.96875 21.28125,-37.875 z m 24.53125,0.1875 10.40625,25.9375 -10.71875,8.46875 0.3125,-34.40625 z m -12.28125,1.46875 0.78125,5.96875 -3.65625,4.78125 2.875,-10.75 z m -55.71875,0.0937 -3.125,21.21875 -10.09375,14 -5.84375,-23.40625 19.0625,-11.8125 z m 413.1875,0.40625 68.875,1.40625 -41.34375,16.03125 5.125,-7.9375 -7.6875,8.9375 -35.6875,13.84375 10.71875,-32.28125 z m -356.03125,10.625 3.59375,27.34375 -19.375,15.34375 7.34375,-27.59375 8.4375,-15.09375 z m 36.4375,2.125 19.28125,26.34375 -19.90625,8.875 -6.78125,-27.46875 7.40625,-7.75 z m 392.8125,0.21875 -39.0625,27.96875 -2.625,-9.46875 1.375,10.34375 -24.5,17.5625 -3.71875,-6.4375 18.09375,-28.09375 50.4375,-11.875 z m -511.15625,2 3.28125,31.3125 -2.9375,4.03125 -14.375,-26.65625 14.03125,-8.6875 z m 518.21875,8.15625 -14.125,16.84375 -0.1875,-9.34375 14.3125,-7.5 z m -608.09375,1.03125 67.4375,58.1875 -28.40625,-9.46875 3.875,-5.4375 -4.84375,5.125 -29.75,-9.9375 5.0625,-13.0625 -6.9375,12.4375 -21.6875,-7.21875 22.125,2.78125 -27.78125,-7.53125 1.25,-10.4375 -2.65625,10.0625 -31.406251,-8.5 -0.40625,-3.03125 -0.0312,2.9375 -25.21875,-6.84375 79.375001,-10.0625 z m 546.40625,1.6875 -17.6875,20.53125 -1.8125,-3.15625 1.4375,3.59375 -21.3125,24.71875 -2.21875,-2.28125 12.125,-36.46875 29.46875,-6.9375 z m -352.0625,1.4375 9.03125,22.5625 -21.3125,9.46875 0.1875,-19.34375 12.09375,-12.6875 z m 399.0625,3.53125 -1.375,11.46875 -22.28125,26.5625 -0.65625,-2.34375 0.1875,-2.78125 -0.40625,1.96875 -3.78125,-13.53125 16.125,-14.9375 12.1875,-6.40625 z m 24.09375,0.375 -15.15625,31.59375 -7.875,2.9375 -0.28125,-13.53125 23.3125,-21 z m -507.59375,0.40625 -3.46875,23.53125 -3.9375,-15.8125 7.40625,-7.71875 z m 554.96875,3.4375 21.125,33.8125 -13.46875,11.28125 -7.65625,-45.09375 z m -36.28125,1.625 -14.6875,74.125 -0.34375,0.5 -5.625,6.59375 5.3125,-22.625 2.1875,-0.53125 -2.09375,0.21875 12.875,-54.6875 2.375,-3.59375 z m 24.46875,1.96875 3.84375,12.09375 -5.5,7.65625 1.65625,-19.75 z m -12.375,0.5625 1.78125,31.6875 -24.84375,34.71875 23.0625,-66.40625 z m -65.5625,1.21875 -11.125,7.75 -0.46875,-1.6875 11.59375,-6.0625 z m 48.59375,3.625 -20.15625,51.9375 -8.46875,0.90625 -0.0312,-1.25 5.40625,-16.5625 23.25,-35.03125 z m -471.46875,1.5 -1.46875,11.90625 -9.34375,7.40625 10.8125,-19.3125 z m 24.1875,0.53125 1.9375,14.90625 -27.71875,12.34375 0.0937,-0.3125 25.6875,-26.9375 z m -257.500001,0.4375 26.875,3.375 -0.0937,11.8125 -26.78125,-15.1875 z m 642.562501,1.03125 0.28125,2.15625 -22.21875,15.46875 -2.71875,-4.71875 24.65625,-12.90625 z m -468.09375,1.28125 0.96875,9.1875 -3.5,-6.5 2.53125,-2.6875 z m -145.937501,1.28125 29.156251,3.65625 -5.84375,22.125 -21.500001,-12.1875 -1.8125,-13.59375 z m 709.687501,1.46875 10.375,32.75 -19.625,16.5 3.09375,-37.5 6.15625,-11.75 z m -452.125,2.375 8.21875,20.5625 -31.375,5.3125 0.125,-11.53125 23.03125,-14.34375 z m -226.40625,0.0625 5.5,0.6875 20.6875,10.25 -12.8125,22.9375 -16.3125,-9.21875 2.9375,-24.65625 z m 552.84375,0.53125 2.59375,6.375 -5.125,3.6875 5.46875,-2.875 2.21875,5.5 -1.15625,0.8125 -0.71875,-3.84375 0.21875,4.1875 -18.4375,12.84375 -1.34375,-1.34375 16.28125,-25.34375 z m 30.96875,0.0937 2.65625,19.78125 -2.84375,3.34375 -12.6875,4.75 -6,-10.375 18.875,-17.5 z m 28,0.96875 -1.46875,12.1875 -17.6875,6.59375 -0.34375,-1.21875 19.5,-17.5625 z m -676.187501,2.34375 1.125,0.4375 0.1875,0.84375 -1.3125,-1.28125 z m 3.5,1.375 27.9375,11.0625 -0.125,17.71875 -26.5,-25.5 -1.3125,-3.28125 z m 684.375001,3.96875 -7.375,15.375 -0.21875,-11.28125 7.59375,-4.09375 z m -595.125,2.75 25.3125,12.5625 -11.8125,12.40625 -22.5625,-1.59375 9.0625,-23.375 z m -100.125001,1.84375 13.28125,9.65625 5.03125,19.96875 -18.3125,-29.625 z m 779.218751,1.09375 17.75,28.40625 -26.25,12.5625 -4.5,-26.5625 13,-14.40625 z m -506.5625,0.875 1.3125,10.125 -24.125,4.09375 22.8125,-14.21875 z m 409.125,0.71875 -3.28125,27.34375 -7.3125,0.78125 -5.4375,-19.46875 16.03125,-8.65625 z m -84.34375,0.15625 1.59375,2.15625 -3,3.46875 -0.28125,-0.5625 1.6875,-5.0625 z m -553.875001,1.53125 19.312501,7.625 -6.625001,25.125 -9.5625,-9.1875 -3.125,-23.5625 z m 589.500001,3.21875 3.71875,9.21875 -4.65625,1.75 -1.65625,-8.5625 2.59375,-2.40625 z m -642.656251,0.1875 32.125,38.78125 4.40625,17.5625 -32.875,-44.5625 -3.65625,-11.78125 z m 605.156251,0.75 0.0937,0.375 -0.375,0.4375 0.28125,-0.8125 z m 140.46875,2.375 1.40625,25.03125 -25.90625,21.75 24.5,-46.78125 z m -608.6875,0.78125 29.1875,14.46875 -37.625,-2.65625 8.4375,-11.8125 z m 501.28125,0.0312 0.40625,8 -9.65625,3.59375 -1.53125,-1.59375 10.78125,-10 z m -649.468751,1.1875 21.15625,44.9375 -19.71875,-16.09375 -1.4375,-28.84375 z m -24.53125,1.28125 -0.375,6.09375 -1.84375,-1.5 2.21875,-4.59375 z m 113.781251,0.0312 16.375,6.46875 -0.25,0.40625 -16.4375,-1.1875 15.28125,3.25 -14.53125,26.09375 -4.125,-3.96875 3.6875,-31.0625 z m -48.125001,0.5 18.34375,13.3125 -0.1875,31.59375 -18.15625,-44.90625 z m 586.093751,0.25 0.3125,0.4375 -1.0625,0.75 0.75,-1.1875 z m -639.406251,0.125 3.53125,18.4375 -6.25,-5.09375 2.71875,-13.34375 z m 691.437501,0.25 -3.5,17.1875 -1.78125,0.1875 -6.375,-11.0625 11.65625,-6.3125 z m 30.84375,2.40625 -1.1875,2.40625 0,-0.625 1.1875,-1.78125 z m -737.218751,1.75 2.125,2.28125 -2.03125,32.8125 -14,-6.46875 13.90625,-28.625 z m 809.875001,0.8125 7.15625,22.5625 -30.0625,14.40625 0.15625,-1.875 12.71875,-11.9375 -12.46875,8.8125 0.65625,-7.75 21.84375,-24.21875 z m -101.3125,4.09375 1,7.4375 -1.46875,0.15625 0.46875,-7.59375 z m -570.71875,0.125 18.625,3.96875 -21.375,22.5 -8.0625,1.46875 10.8125,-27.9375 z m 550.3125,0.65625 3.4375,8.5625 -8.4375,0.875 -1.1875,-6.09375 6.1875,-3.34375 z m -525.78125,4.5625 27.5625,5.875 -12.09375,7.5625 -28.84375,5.28125 13.375,-18.71875 z m 581.53125,0.25 -7.3125,18.875 -0.34375,-16.96875 7.65625,-1.90625 z m -66.375,0.9375 0.15625,2.9375 -1.9375,-1.96875 1.78125,-0.96875 z m -666.031251,0.96875 8.375,9 4.78125,25.03125 -18.34375,-8.46875 5.1875,-25.5625 z m 84.03125,2.625 7.875,5.6875 -4.71875,17.90625 -3.15625,-23.59375 z m 630.375001,0.25 -0.96875,8.125 -1.53125,3.15625 -1.46875,-5.3125 3.96875,-5.96875 z m -1.625,0.0937 -2.5,5.28125 -1.21875,-4.34375 3.71875,-0.9375 z m -54.90625,0.46875 0.53125,0.6875 -2.25,0.25 1.71875,-0.9375 z m -475.75,1.0625 9.84375,2.09375 -15.78125,2.875 5.9375,-4.96875 z m 516.8125,1.9375 1.84375,13.8125 -4.9375,-8.53125 0.28125,-4.5625 2.8125,-0.71875 z m -15.40625,3.84375 3.875,9.625 -0.125,0.625 -3.40625,-0.5 -7.75,-7.90625 7.40625,-1.84375 z m -645.937501,0.0312 15.78125,29.125 -9.03125,-7.34375 -6.75,-21.78125 z m 628.562501,4.3125 0.71875,1 0.0937,1.9375 -7.9375,-1.15625 7.125,-1.78125 z m 108.375,0.21875 0.34375,6.21875 -16.375,11.5625 16.03125,-17.78125 z m -673.53125,0.0625 4.03125,2.9375 -5.5625,9.96875 1.53125,-12.90625 z m -127.062501,2.65625 14.375,9.25 -1.4375,23.53125 -26.5,-4.84375 13.5625,-27.9375 z m 220.125001,1.21875 -64.3125,29.65625 33.84375,-28.375 30.46875,-1.28125 z m -176.531251,0.0625 27.90625,30.09375 -27.03125,-12.46875 -0.875,-17.625 z m 133.968751,1.71875 -30.59375,19.15625 13.1875,-18.40625 17.40625,-0.75 z m -30.53125,1.28125 -10.03125,10.5625 4,-10.3125 6.03125,-0.25 z m 654.0625,2.21875 0.0937,1.46875 -3.4375,1.65625 3.34375,-3.125 z m -98.40625,4.84375 0.0625,0 4.375,5.9375 -3.71875,-2.25 -0.71875,-3.6875 z m -477.5,1.15625 -35.3125,28.75 -29.8125,1.6875 60.6875,-29.09375 4.4375,-1.34375 z m -205.312501,0.28125 21.25,13.65625 2.28125,11.9375 -27.6875,-5.0625 4.15625,-20.53125 z m 213.000001,9.40625 -12.8125,17.34375 -17.46875,1 30.28125,-18.34375 z m 359.5,4.96875 -2.125,1.5 -1.59375,-0.625 3.71875,-0.875 z m -547.406251,1.75 21.21875,13.65625 -20.71875,-3.8125 -0.5,-9.84375 z m 197.781251,0.75 -3.5625,8.78125 -5.34375,0.3125 8.90625,-9.09375 z m 11.40625,4.75 -5.0625,37.78125 -15.03125,-2.96875 20.09375,-34.8125 z m 425.125,1.625 3.21875,1.8125 0.375,1.15625 -1.1875,-0.0625 -2.40625,-2.90625 z m -440.71875,3.96875 -11.3125,27.90625 -18.40625,-3.625 22.34375,-22.8125 7.375,-1.46875 z m -22.0625,4.375 -13.8125,18.6875 -28.15625,-5.5625 11.875,-7.1875 30.09375,-5.9375 z m 392.34375,0.96875 -8.25,17.25 -9.53125,-1.21875 17.78125,-16.03125 z m 47.375,3.8125 4.71875,7.53125 -3.6875,-1.46875 -1.03125,-6.0625 z m -36.28125,1.65625 -2.75,13.875 -5.96875,-0.75 8.71875,-13.125 z m -443.6875,1.53125 -5.4375,4.4375 -8.5,-1.6875 13.9375,-2.75 z m 455.75,1.0625 0.0312,0.0312 0.6875,11.9375 -3.8125,0.8125 -1.28125,-0.15625 4.375,-12.625 z m 11.8125,6.71875 3.5625,2.03125 0.0625,0.125 -3.875,0.8125 0.25,-2.96875 z m -482.3125,7.3125 36.46875,2.03125 -8.40625,11.375 -28.0625,-13.40625 z m 487.59375,0.0937 0.40625,1.28125 -6.34375,-0.8125 0,-0.0625 5.9375,-0.40625 z m -40.90625,1 4.28125,1.15625 -3,0.625 4.25,-0.3125 2.3125,0.625 -3.5625,18 -19.21875,2.40625 14.9375,-22.5 z m 51.4375,0.5625 2.25,1.28125 -2.09375,-0.25 -0.15625,-1.03125 z m -456.1875,0.6875 22.5625,1.25 -9.25,22.8125 -25.125,-12 11.8125,-12.0625 z m 421.75,3.34375 8.09375,2.1875 0.59375,10.625 -13.75,1.71875 5.0625,-14.53125 z m 162.125,1.34375 23.3125,10.40625 -15.46875,-2.15625 -7.84375,-8.25 z m -144.96875,3.3125 10.9375,2.96875 0.84375,2.625 -12.375,1.5625 0.59375,-7.15625 z m 140.4375,12.15625 4.125,0 30.71875,24.375 -27.5625,-11.34375 -7.28125,-13.03125 z m -13.21875,1.5 3.40625,4.5 -2.5,-1.03125 -0.90625,-3.46875 z m -151.75,2.875 16.53125,0.21875 0.0937,1.34375 -15.25,7.5625 15.375,-5.125 0.40625,7.125 -24.34375,9.625 7.1875,-20.75 z m 27.65625,0.375 12.3125,0.15625 0.4375,1.40625 -18,7.09375 0.59375,-7.09375 4.65625,-1.5625 z m 112.6875,7.96875 3.03125,0.78125 1.78125,4.28125 -4.8125,-3.59375 0,-1.46875 z m 15.4375,3.96875 9.3125,2.40625 23.75,31.34375 -30.09375,-22.5 -2.96875,-11.25 z m -111.8125,0.875 0.53125,1.65625 -24.03125,17.4375 1.15625,-13.6875 22.34375,-5.40625 z m 11.375,9.0625 -4.5,5.4375 -0.46875,-2.78125 4.96875,-2.65625 z m 85.09375,1.125 11.59375,6.375 12.59375,30.03125 -24.125,-30 -0.0625,-6.40625 z m -17.71875,3.90625 10.25,9.625 2.8125,19.125 -13.0625,-28.75 z m -10.53125,6.5 0.1875,0.28125 -0.0625,0.4375 -0.125,-0.71875 z m -24.15625,4.3125 0.15625,2.46875 -11.125,29.84375 10.96875,-32.3125 z m -364.40625,56.96875 -15.6875,87.96875 -18.78125,-86.625 6.65625,89.125 -11.0625,-22.03125 0.75,-3.0625 -1,2.53125 -28.4375,-56.6875 23.46875,69.375 -2.53125,6.4375 -50.5,-58.03125 24.15625,37.0625 -2.375,19.21875 -31,-21.34375 -0.21875,-0.84375 0.0937,0.75 -14.875,-10.25 15.375,14.09375 3.75,29.15625 -30.65625,-11.28125 -6.1875,-10.84375 4,10.0625 -2.59375,-0.96875 -1.03125,-0.375 0.96875,0.53125 -12.40625,28.1875 -17.53125,-18.09375 15.90625,21.78125 -9.625,21.9375 -11.375,-6.96875 1.28125,-53.875 -8.15625,49.6875 -10.90625,-6.6875 10.59375,8.6875 -4.71875,28.6875 -3.34375,-1.03125 -17.9375,-77.5 6.5625,74 -6.875,-2.125 7,3.28125 1.21875,13.84375 -40.812501,-78.65625 29.781251,84.25 -59.125001,-66.0625 49.8125,74.1875 -73.6875,-49.28125 66.6875,59.5 -83.625,-29.40625 79.40625,41.03125 -88.3125,-7.6875 87.09375,20 -87.4375,14.5 89.3125,-2.28125 -81.0625,35.8125 85.9375,-24.4375 -69.625,54.84375 77.187501,-45.0625 -53.812501,70.46875 63.562501,-62.84375 -34.593751,81.625 45.906251,-76.65625 -13.21875,87.65625 25.4375,-85.6875 1.5,14.71875 -4,3.40625 4.09375,-2.59375 7.40625,72.65625 2.9375,-79.28125 3.3125,-2.09375 10.90625,29.65625 -4.28125,6.09375 4.6875,-5.03125 16.40625,44.53125 -10.96875,-50.34375 10.0625,-10.75 15.71875,22.71875 -6.25,16.5 7.78125,-14.25 15.03125,21.75 -12.875,-25.65625 11.3125,-20.71875 15.75,13.65625 -3.84375,34.90625 7.96875,-31.3125 8.5,7.375 -8.03125,-9.21875 7.375,-29.09375 10.375,5.1875 8.28125,58.21875 -0.125,-54.15625 2.6875,1.34375 -2.6875,-1.84375 -0.0937,-33.53125 0.53125,0.125 33.40625,80.59375 -20.1875,-77.75 2.0625,0.4375 -2.15625,-0.78125 -2.1875,-8.40625 13.9375,18.5625 -2.0625,12.5625 3.375,-10.8125 38,50.5625 -34.375,-62.15625 2.21875,-7.15625 23.96875,19.21875 1.1875,13.3125 0.59375,-11.875 32.3125,25.875 -31.90625,-33.78125 0.90625,-17.5 24.96875,11.28125 7.1875,20.34375 -3.84375,-18.84375 22.15625,10 -23.0625,-14.5625 -5.0625,-24.84375 20.78125,3.625 20.59375,30.6875 -14.34375,-29.625 12.84375,2.25 -12.40625,-4 19.78125,-8.9375 18.28125,16.34375 -20.4375,21.65625 28.96875,-23.21875 -13.71875,12.15625 46.9375,-31.1875 -35.34375,63.90625 53.625,-71.46875 -1.21875,4.6875 -39.1875,58.0625 33.90625,-37.6875 -15.71875,60.75 33.125,-80.09375 1.03125,-1.125 -0.0312,12.65625 -22.3125,62.5625 22.28125,-42.65625 -0.0937,54.71875 10.59375,-74.84375 3.625,-6.9375 3.03125,11.8125 -6.125,66.96875 11.09375,-47.40625 12.1875,47.84375 -7.5,-67.78125 2.75,-11.75 4.4375,8.09375 11.53125,71.5 -1.125,-52.4375 22.59375,41.3125 -23,-60.8125 -0.3125,-13.875 2.75,2.9375 32.65625,74.78125 -15.90625,-56.875 32.75,35 -38.09375,-54.125 -2.8125,-10.0625 54.53125,69.875 -34.09375,-59.03125 43.78125,27.90625 -52.5625,-44.84375 68.375,52.6875 -55.4375,-56.5625 41.28125,13.5 33.09375,14.1875 -76.46875,-46.25 87.59375,13.59375 -37.5625,-11.34375 16.15625,1.0625 -40.25,-8.3125 -23.90625,-7.21875 88.21875,-8.59375 -65.15625,-2.71875 40.6875,-7.65625 -53.5,2.5625 72,-26.1875 -87.40625,18.625 1.34375,-0.90625 58.59375,-27.4375 -33.6875,10.375 46.90625,-32.09375 -80.03125,39.75 22.1875,-25.3125 27.625,-22.75 -16.59375,10.1875 25.21875,-28.78125 -53.125,45.875 -11.84375,7.25 24.75,-48.9375 7.65625,-10.46875 -4.90625,5.0625 9.84375,-19.46875 -22.875,32.9375 -24.875,25.65625 15.84375,-71.78125 -5.625,15.125 -26.28125,46.125 -2.28125,-66.0625 -9,85.84375 -0.78125,1.40625 -1.4375,-4.84375 10.09375,-78.4375 -15.96875,58.4375 -17.21875,-58.5625 11.6875,78.84375 -1.34375,4.90625 -1.3125,-2.15625 -10.3125,-83.21875 -1,64.21875 -29.96875,-50.34375 29.65625,70.5 -0.0625,4.96875 -32.46875,-82.5 16.46875,68.4375 -31.6875,-31.46875 -12.84375,-17.75 0.8125,-0.8125 -0.90625,0.6875 -2.90625,-4.03125 2.34375,4.4375 -26.46875,19.71875 -2.1875,-1.8125 1.875,2.03125 -43.4375,32.34375 45.625,-76 -56.15625,69.53125 25.28125,-84.96875 -37.09375,81.28125 3.34375,-88.5625 z m 89.34375,46.65625 4.4375,8.34375 -1.1875,-1.15625 1.84375,2.4375 10.4375,19.6875 -20.3125,8.3125 -18.09375,-15.03125 22.875,-22.59375 z m -161.4375,20.75 20.6875,31.75 -0.8125,2.0625 -19.5625,-13.46875 -0.3125,-20.34375 z m -33,1.09375 28.5625,26.21875 -1.375,11.0625 -18.875,-6.96875 -8.3125,-30.3125 z m 170.8125,1.5 14.59375,16.03125 -0.0312,0 -10.0625,-5.90625 8.34375,6.625 -26.875,11 -9.53125,-4.5 23.5625,-23.25 z m 136.75,4.0625 -12.03125,32.40625 -0.0625,-2.03125 12.09375,-30.375 z m -97.21875,2.625 15.71875,29.625 -5,0.6875 -13.84375,-8.15625 -14.40625,-11.9375 17.53125,-10.21875 z m -242.9375,7.28125 2.9375,1.5625 13,32.59375 -0.84375,1.09375 -22.90625,-2.28125 -1.15625,-1.1875 8.96875,-31.78125 z m 94.9375,0.65625 3.8125,11.25 -5.09375,-5.875 1.28125,-5.375 z m -89.3125,2.34375 24.5,13.125 -9.875,12.53125 -14.625,-25.65625 z m 214.625,2.9375 4.625,3.65625 14.0625,15.46875 -19.90625,2.75 -20.03125,-9.46875 21.25,-12.40625 z m -40.5625,3.5 7.78125,5.125 -22.1875,9.09375 14.40625,-14.21875 z m -113.59375,5.84375 14.8125,13.5625 -0.25,0.625 -14.4375,-5.3125 -0.125,-8.875 z m -35.75,0.9375 5.96875,3.1875 2.375,18.21875 -14.125,-1.40625 -2.90625,-5.09375 8.6875,-14.90625 z m 165.59375,3.90625 13.71875,9 -6.78125,0.9375 -10.125,-2.90625 7.375,3.28125 -28.71875,3.96875 24.53125,-14.28125 z m 62.8125,2.375 2.6875,5.09375 -6.71875,-3.96875 4.03125,-1.125 z m -215.625,0.5625 15.5,8.28125 -1.03125,8.1875 -2.28125,-0.21875 2.21875,-2.25 -2.875,2.1875 -7.28125,-0.75 -4.25,-15.4375 z m 198.03125,4.40625 16.71875,18.40625 -1.75,-0.5 -29.25,-13.84375 14.28125,-4.0625 z m -248.5,5.9375 20.03125,4.90625 -6.84375,8.71875 -13.1875,-13.625 z m 73.75,2.09375 9.84375,5.25 -0.28125,0.65625 -9.46875,-0.96875 -0.0937,-4.9375 z m 145.625,0.25 23.84375,10.59375 12.96875,8.5 -24.4375,-2.8125 -41.5625,-8.03125 29.1875,-8.25 z m -222.4375,1.09375 11.6875,16 -8.625,10.96875 -9.125,-5.5625 6.0625,-21.40625 z m 27.3125,2.5 1.21875,0.3125 8.46875,21.125 -1.09375,0.84375 -4.8125,0.71875 -10.71875,-11.0625 6.9375,-11.9375 z m 10.96875,2.6875 11.75,2.84375 0.6875,5.40625 -5.375,4.09375 -7.0625,-12.34375 z m 150.96875,3.125 7.375,2.5 -10.875,-1.21875 0.75,-0.5 2.75,-0.78125 z m -129.0625,2.21875 6.65625,1.625 -1,8.0625 -2.875,0.4375 -2.78125,-10.125 z m -84.9375,3.125 9.46875,7.8125 -8.34375,19 -1.75,-0.5625 0.625,-26.25 z m 101.8125,1 4.875,1.1875 -0.78125,2.0625 -4.03125,0.59375 -0.0625,-3.84375 z m -25.875,2.5625 0.6875,5.125 -3.5,0.53125 -1,-1.78125 3.8125,-3.875 z m 211.03125,2.71875 1.1875,0.78125 -3.6875,-0.71875 2.5,-0.0625 z m -36.25,0.90625 13.125,4.5 -42.90625,-1.21875 54.96875,9.28125 -30.84375,1.875 -35.09375,-13.40625 40.75,-1.03125 z m -209.96875,1.0625 3.84375,5.28125 -7.59375,1.15625 3.75,-6.4375 z m -23.8125,5.71875 6.3125,5.1875 -9.15625,11.65625 -1.75,-0.5625 4.59375,-16.28125 z m 60.09375,2.09375 0.53125,0 0.15625,1.1875 -0.6875,-1.1875 z m -13.5625,0.15625 0.625,0 2.8125,7.03125 -5.15625,-5.3125 1.71875,-1.71875 z m -16.75,0.1875 2.5,3.46875 -4.75,3.65625 -9.28125,-5.6875 0.75,-1.3125 10.78125,-0.125 z m 160.34375,3.84375 12.75,2.9375 -7.9375,0.46875 -4.8125,-3.40625 z m -221.4375,4.8125 2.03125,0.96875 -0.75,4.625 -1.28125,-5.59375 z m 45.1875,0.28125 5.4375,4.5 -7.25,5.53125 -3.40625,-1.03125 5.21875,-9 z m 184.3125,0.625 5.40625,0.4375 -3.78125,0.71875 -1.625,-1.15625 z m -161.375,0.0937 4.15625,5.6875 -6.0625,-3.71875 1.90625,-1.96875 z m 169.5625,0.5625 17.21875,1.34375 28.28125,6.5 -31.59375,7.15625 -18.8125,-13.34375 4.90625,-1.65625 z m 43.6875,3.40625 15.90625,1.25 -7.9375,1.78125 -7.96875,-3.03125 z m -62.25,2.9375 21.53125,11.125 -3.65625,0.84375 4.53125,-0.375 7.1875,3.71875 -14.59375,4.71875 -16.53125,-19.5 1.53125,-0.53125 z m -160.875,3.125 6.3125,5.21875 -0.78125,0.34375 -8.4375,-2.59375 2.90625,-2.96875 z m 149.03125,4.1875 17.59375,15.71875 -4.125,1.3125 -5.34375,-0.3125 -8.125,-16.71875 z m 59.625,2.125 -9.75,3.15625 -2.9375,-2.0625 12.6875,-1.09375 z m 37.4375,0.9375 -26.59375,16.8125 -13.75,-9.75 40.34375,-7.0625 z m -107.4375,3.71875 6.15625,9.1875 -4.34375,-0.25 -1.8125,-8.9375 z m -149.59375,0.125 1.65625,0.78125 -4.125,1.75 2.46875,-2.53125 z m 137.90625,3.84375 1.5,4.25 -1.71875,-0.125 0.21875,-4.125 z m 70.40625,0.84375 19.375,10 -14.84375,9.375 -7.34375,3.78125 -13.0625,-15.40625 8.34375,-0.65625 -9.375,-0.5625 -2.65625,-3.125 19.5625,-3.40625 z m -82.75,0.125 0.21875,2.4375 -0.96875,-0.0312 0.75,-2.40625 z m -12.71875,1.15625 -0.0937,0.5 -1.1875,-0.0625 1.28125,-0.4375 z m -98.375,0.78125 0.15625,0.0937 -0.28125,0 0.125,-0.0937 z m 246.4375,2.6875 -14.1875,15.0625 -8.8125,-6.25 7.625,-3.4375 15.375,-5.375 z m -82.1875,0.4375 0.6875,0.625 -3.15625,-0.1875 2.46875,-0.4375 z m 3.75,3.34375 18.78125,16.78125 -1.375,0.71875 1.5625,-0.53125 0.71875,0.625 -17.625,11.15625 -1,-0.34375 -13.3125,-27.4375 12.25,-0.96875 z m -22.71875,1.8125 16.21875,24.1875 -19.65625,-6.34375 -3.53125,-17.3125 6.96875,-0.53125 z m -17.40625,1.34375 4.75,13.53125 -10.34375,-3.3125 0.5,-9.8125 5.09375,-0.40625 z m -15.65625,1.25 0.53125,5.875 -6.8125,-2.1875 1.03125,-3.28125 5.25,-0.40625 z m 109.4375,1.4375 10.5625,5.46875 -23.1875,24.59375 -14.90625,-17.625 27.53125,-12.4375 z m -119.0625,13.0625 11.0625,1.90625 0.78125,8.71875 -12.6875,-8 0.84375,-2.625 z m 19.21875,3.34375 13.625,2.375 8.25,23.34375 -22.46875,-14.15625 0.59375,-11.5625 z m -31.375,6.65625 1.84375,0.8125 -0.15625,0.96875 -1.6875,-1.78125 z m -83.3125,0.375 -0.0937,0.0937 -0.0625,-0.0312 0.15625,-0.0625 z m 91.21875,3.1875 17.03125,7.6875 1.46875,16.71875 -19.625,-20.78125 1.125,-3.625 z m -108.03125,3.84375 6.84375,1.46875 -2.09375,1.8125 -4.75,-3.28125 z m 92.3125,2.15625 7.25,5.8125 -0.9375,5.625 -6.3125,-11.4375 z m -70.90625,2.4375 1.59375,0.34375 -5.15625,7.34375 -4.0625,-2.8125 7.625,-4.875 z m 13.375,5.09375 -4.28125,11.28125 -3.8125,-2.625 8.09375,-8.65625 z m -40.4375,1.3125 0.84375,0.4375 -0.28125,0.21875 -0.5625,-0.65625 z m 51.96875,3.1875 -1.8125,16.40625 -5.21875,-3.5625 7.03125,-12.84375 z m 12.28125,1.5 3.875,27.28125 -9.1875,-6.34375 5.3125,-20.9375 z m -54.6875,0.0937 8.5,4.25 -4.5625,6.46875 -7.40625,-8.53125 3.46875,-2.1875 z m -13.21875,8.40625 11.6875,10.125 -5.34375,7.59375 -8.28125,-16.46875 1.9375,-1.25 z m 30.375,0.15625 6.875,3.4375 -5.71875,15.1875 -8.9375,-10.25 7.78125,-8.375 z m -45.1875,2.8125 0.34375,0.5 -0.1875,0.15625 -0.15625,-0.65625 z m -11.65625,4.125 1.84375,5.03125 -2.09375,1.78125 0.25,-6.8125 z m 14.78125,0.375 12.5,18.125 -8.1875,11.625 -6.1875,-28.5625 1.875,-1.1875 z m 57.53125,0.4375 7.40625,3.6875 -3.15625,28.5 -13.4375,-15.4375 9.1875,-16.75 z m -28.96875,6.71875 12.1875,10.625 -8.125,21.53125 -11.9375,-23.71875 7.875,-8.4375 z"
       id="path14389"
       inkscape:connector-curvature="0" />
  </g>
</svg>
