<?xml version="1.0" encoding="UTF-8" standalone="no"?>
<!-- Created with Inkscape (http://www.inkscape.org/) -->

<svg
   xmlns:dc="http://purl.org/dc/elements/1.1/"
   xmlns:cc="http://creativecommons.org/ns#"
   xmlns:rdf="http://www.w3.org/1999/02/22-rdf-syntax-ns#"
   xmlns:svg="http://www.w3.org/2000/svg"
   xmlns="http://www.w3.org/2000/svg"
   xmlns:sodipodi="http://sodipodi.sourceforge.net/DTD/sodipodi-0.dtd"
   xmlns:inkscape="http://www.inkscape.org/namespaces/inkscape"
   width="744.09448819"
   height="1052.3622047"
   id="svg3783"
   version="1.1"
   inkscape:version="0.48.2 r9819"
   sodipodi:docname="map000.svg">
  <sodipodi:namedview
     id="base"
     pagecolor="#ffffff"
     bordercolor="#666666"
     borderopacity="1.0"
     inkscape:pageopacity="0.0"
     inkscape:pageshadow="2"
     inkscape:zoom="0.49497475"
     inkscape:cx="314.0181"
     inkscape:cy="842.9274"
     inkscape:document-units="px"
     inkscape:current-layer="layer1"
     showgrid="false"
     inkscape:window-width="1024"
     inkscape:window-height="748"
     inkscape:window-x="36"
     inkscape:window-y="-16"
     inkscape:window-maximized="0"
     inkscape:object-nodes="true"
     inkscape:snap-grids="false"
     inkscape:snap-to-guides="false"
     inkscape:snap-nodes="false" />
  <defs
     id="defs3785">
    <inkscape:perspective
       id="perspective3823"
       inkscape:persp3d-origin="334.90438 : 296.50168 : 1"
       inkscape:vp_z="372.04724 : 175.3937 : 0"
       inkscape:vp_y="0 : 1000 : 0"
       inkscape:vp_x="-314.90439 : 155.3937 : 0"
       sodipodi:type="inkscape:persp3d" />
  </defs>
  <metadata
     id="metadata3788">
    <rdf:RDF>
      <cc:Work
         rdf:about="">
        <dc:format>image/svg+xml</dc:format>
        <dc:type
           rdf:resource="http://purl.org/dc/dcmitype/StillImage" />
        <dc:title></dc:title>
      </cc:Work>
    </rdf:RDF>
  </metadata>
  <g
     id="layer1"
     inkscape:groupmode="layer"
     inkscape:label="Layer 1">
    <g
       id="g14298">
      <path
         style="fill:none;stroke:#000000;stroke-width:0.29105622;stroke-miterlimit:4;stroke-opacity:1;stroke-dasharray:none"
         d="m 283.16044,59.755454 c -5.65202,9.764549 -12.04953,17.501096 -23.71537,10.906095 -13.73277,-3.214204 13.26328,12.951204 1.3651,18.956814 -11.659,13.700037 0.13547,8.953639 10.51702,5.318511 6.87978,7.953156 15.65656,21.069406 12.68787,2.217784 -5.55423,-10.44419 25.57047,-10.095505 12.55002,-14.660517 -13.84631,-0.144044 -12.7624,-12.034225 -13.38923,-22.578504 l -0.0154,-0.160183 0,0 z M 412.87147,105.7969 c -5.65709,9.76324 -12.05433,17.51239 -23.72417,10.91381 -13.71695,-3.20734 13.27514,12.94749 1.37289,18.94852 -11.65833,13.70164 0.11574,8.96714 10.50893,5.3191 6.8812,7.95134 15.66513,21.08103 12.69697,2.22689 -5.55386,-10.44534 25.56956,-10.09289 12.55085,-14.6629 -13.8441,-0.15201 -12.76443,-12.03909 -13.39006,-22.58523 l -0.0154,-0.16019 0,0 z m -268.19922,21.59274 c -5.65186,9.76385 -12.04943,17.50061 -23.71676,10.91235 -13.73096,-3.20754 13.26664,12.94437 1.36648,18.95056 -11.659,13.70005 0.13548,8.95363 10.51703,5.31851 6.8832,7.94995 15.66839,21.0695 12.69076,2.21767 -5.55989,-10.44417 25.56883,-10.09538 12.54713,-14.6604 -13.84631,-0.14405 -12.7624,-12.03423 -13.38923,-22.57851 l -0.0154,-0.16018 0,0 z m 247.30684,25.76757 c -3.4443,7.51065 -16.46192,21.72763 -18.72516,7.0722 3.20349,-18.39739 -15.18624,13.63675 -11.07323,6.95294 -8.32662,-1.15569 -25.59707,-8.64034 -12.61169,4.35061 12.19691,5.50029 -10.93098,21.74893 -2.17922,21.12468 11.39543,-6.18007 16.84559,-2.34104 22.91013,6.72044 4.39629,8.42893 2.00142,-22.03632 13.21463,-7.23072 12.24484,10.82333 -15.49421,-2.22773 1.35287,13.19053 10.63176,5.18242 -14.74497,23.20218 -1.52995,19.24187 8.85198,-8.82439 20.92545,3.68081 20.62124,7.95918 -15.11075,-6.06782 -5.48475,4.44494 -0.0463,12.14636 -5.43831,9.00016 -15.21008,21.40655 1.80423,12.75834 -6.23973,10.15017 11.50736,-3.47701 15.38512,9.83835 3.90279,2.32586 1.79573,-11.68499 10.18812,2.84344 -2.20927,3.97956 21.28584,-3.41997 6.68342,11.46516 -11.96404,15.62195 9.78502,-2.16014 14.47972,4.93671 -8.80069,-0.23651 13.68989,13.18772 3.36626,20.23804 -11.65454,13.70504 0.12764,8.96264 10.51559,5.31766 6.88129,7.95134 15.66685,21.08108 12.69076,2.22678 -5.55779,-10.44354 25.56621,-10.10486 12.54713,-14.6695 -13.84631,-0.14405 -12.76239,-12.03423 -13.38922,-22.57851 -3.31431,5.93641 -16.38987,22.42683 -15.21969,5.83151 1.11219,-6.87605 27.85656,-8.6717 9.28091,-12.45359 -16.95298,0.46086 -2.76033,-18.86788 3.56722,-5.97877 9.62075,11.44283 -2.90264,-17.80274 10.32032,-15.81998 17.4881,-4.22815 5.15724,-7.32312 -5.38105,-10.48622 -0.89366,-10.47756 -0.28498,-26.25857 -8.96221,-9.25917 -1.64004,11.72616 -26.62264,-6.85844 -18.77229,4.48922 4.82181,10.11772 -10.05665,15.90317 -17.90256,8.35103 -3.6833,-6.5293 0.17897,-28.28775 -9.00797,-10.98121 -4.46529,3.24655 -1.56836,-19.50884 -10.44897,-0.63594 -7.83435,13.61115 -12.31342,-11.32904 -4.66179,-13.73585 15.00571,-4.29583 15.22106,-8.02265 -0.27694,-11.14495 -6.06528,-3.28146 0.38405,-29.11391 -8.91003,-12.65237 -6.60412,15.57656 -13.3144,-1.2392 -7.31081,-8.1968 12.36423,-4.18813 20.49802,-8.2155 2.88065,-11.26428 -7.31372,-0.77776 -3.19143,-14.72547 -5.39928,-19.96719 z m -178.39927,0.24558 c -5.65759,9.7607 -12.05797,17.50065 -23.72555,10.91096 -13.71487,-3.2007 13.27817,12.95068 1.37283,18.95051 -11.6628,13.69665 0.12357,8.95814 10.51037,5.31995 6.8812,7.95134 15.66512,21.08103 12.69696,2.22689 -5.55212,-10.44356 25.56785,-10.10499 12.55002,-14.66962 -13.84631,-0.14405 -12.76239,-12.03423 -13.38922,-22.57851 l -0.0154,-0.16018 0,0 z M 91.072431,165.03594 c -5.657594,9.7607 -12.057968,17.50065 -23.725553,10.91096 -13.714844,-3.2007 13.27817,12.9507 1.372839,18.95052 -11.662796,13.69664 0.12358,8.95813 10.510364,5.31994 6.881202,7.95134 15.665132,21.08103 12.696966,2.22689 C 86.374923,192.00069 117.4949,192.33927 104.47707,187.77464 90.630758,187.63059 91.714672,175.74041 91.087843,165.19613 l -0.01541,-0.16019 0,0 z m 135.950539,24.48511 c -5.65186,9.76385 -12.04943,17.50061 -23.71676,10.91235 -13.73096,-3.20754 13.26666,12.94437 1.36649,18.95056 -11.659,13.70004 0.13547,8.95364 10.51702,5.31851 6.8832,7.94995 15.66839,21.0695 12.69076,2.21767 -3.05716,-7.73164 19.44379,-16.8317 17.78308,-7.16049 -7.53981,10.65749 -11.74718,18.69397 4.29488,10.80401 15.2676,0.0723 -0.22412,13.99816 -9.51389,5.56335 -13.73276,-3.2142 13.26328,12.95121 1.3651,18.95682 -12.62316,16.54579 2.18472,2.64328 8.25102,11.05311 12.20421,5.49904 -10.93534,21.74668 -2.18518,21.1219 10.44823,-7.96314 19.86847,8.3184 10.21231,15.52213 -11.97052,15.62097 9.77429,-2.15377 14.47555,4.93774 8.71667,12.94666 12.33032,12.00519 10.51867,-3.70146 3.59262,-11.73475 19.589,7.19302 10.90019,13.09836 -4.40821,9.17808 -9.81677,18.04073 -21.23049,11.70404 -12.636,-3.92332 11.63087,16.88373 -9.89703,7.00859 -3.28222,-13.28011 -6.12486,-5.6932 -13.52955,4.10521 -10.24065,-2.38813 -25.06666,-7.84816 -11.58049,5.65919 10.64159,5.18279 -14.74502,23.20013 -1.52627,19.24228 11.2873,-8.01578 17.40097,2.23836 24.10771,10.39817 -6.98673,-8.35332 15.37164,-17.91516 9.35371,-9.34888 -12.63532,16.37174 8.54439,-2.24589 11.45233,11.03153 -5.43519,9.00225 -15.19766,21.40938 1.81131,12.75166 13.63215,2.4681 -4.96213,18.83408 -2.07209,21.43768 8.15764,-6.58394 22.63913,-2.7096 21.54479,4.36403 -14.49358,-5.14077 -18.01724,-2.93891 -6.91961,9.0496 2.97752,6.21926 -17.41917,23.32513 -0.22415,15.47099 9.8971,-9.56161 16.71299,11.239 21.00125,9.8146 -2.76136,-8.55975 2.68998,-25.66017 12.05048,-15.50828 11.71599,17.40911 4.66576,-1.07367 11.65233,-6.73037 17.96523,-7.73418 -0.12407,18.60219 12.01123,10.32849 7.55894,1.22989 10.24698,-6.74503 17.99107,5.81076 10.64294,14.2457 -1.56395,-14.71293 9.60058,-14.18825 17.19152,-4.37157 9.44291,-7.79538 -3.43078,-11.02443 -3.05702,-10.07559 13.32063,-7.01298 14.13051,2.68215 8.02005,5.43491 -16.8609,23.92624 -0.73469,17.56992 10.77913,-7.80393 15.96686,4.13734 22.59039,11.00827 -1.16387,-11.22058 -0.52972,-21.23692 12.77891,-22.76428 12.99059,-5.47534 -18.3438,-2.67326 -12.24694,-14.52681 0.0213,-12.29272 -1.26395,-13.46507 7.66695,-17.32372 7.42022,-0.12027 16.32057,22.06955 13.82737,1.9894 -3.18676,-9.96849 15.54483,-17.41845 19.05222,-6.63313 11.5473,16.78793 1.85199,-8.17677 9.8267,-11.50178 15.00554,-4.29535 15.22118,-8.02296 -0.27608,-11.14742 -6.05051,-3.29443 0.37557,-29.10604 -8.91089,-12.64989 -3.42421,12.11525 -16.55663,3.29625 -22.75331,3.23488 -0.19375,6.08952 -9.80256,18.3482 -19.82499,10.87207 -9.60998,-4.3849 -10.29067,10.97092 -16.2435,10.16709 -5.31781,7.39196 -26.24699,-7.62381 -12.37849,7.83433 -9.27117,4.23266 -13.48548,-9.3424 -10.8192,-19.20893 8.27065,-9.19037 15.21049,12.50412 19.04148,9.99185 -2.42584,-12.06506 1.95716,-19.57024 14.29383,-21.74882 7.28382,-4.89391 -20.65478,-2.82818 -13.95768,-15.53474 -0.83876,-8.6848 6.55257,-1.9052 3.82504,-19.08858 10.23905,-0.50379 8.69515,15.13091 1.17097,21.38534 -3.00626,8.23537 18.38192,-9.85129 20.43437,4.36257 10.70164,16.52962 4.44983,-4.10233 8.73539,-10.30521 12.36423,-4.18813 20.498,-8.2155 2.88064,-11.26428 -9.30342,0.0384 -0.25067,-29.13014 -9.49085,-14.55233 -2.19465,12.6791 -24.66753,6.63286 -6.47735,2.46185 -11.03409,-2.35653 -20.37306,-6.04666 -17.70684,-19.18169 -0.96903,-14.12482 -7.67899,14.91657 -16.00111,7.51215 0.82444,-14.19744 -3.15911,-13.43202 -7.58945,-7.93412 -6.24645,-12.86935 15.00582,-13.8391 15.83836,-18.1791 -12.22404,-1.42035 -18.00627,-7.9087 -16.26763,-20.31397 -2.40449,-8.44373 -9.07561,18.77136 -19.0921,8.47618 -20.98499,-10.06184 4.86202,12.62388 -6.76351,7.75536 -13.43784,1.90335 -6.40103,-19.02013 -10.8434,-20.14268 -5.12957,11.18577 -13.08871,14.6742 -24.34713,9.18751 -8.78694,-0.32874 15.04914,14.43843 2.15958,20.78439 -13.95998,15.52837 12.87981,-0.0964 -1.88261,14.13102 -1.85536,9.91183 -27.57058,1.0366 -9.99102,-1.24073 -7.0785,-3.06888 -20.76627,-4.70441 -16.97819,-17.74956 16.72978,-6.07407 -3.19123,-5.58946 -8.10337,-11.85201 -8.05175,-13.20246 16.99013,-15.5777 -1.95928,-18.7645 -11.26475,0.41363 -6.61539,-15.31381 -4.80979,-20.78993 12.36449,-4.18888 20.49815,-8.21594 2.87844,-11.25794 -9.30126,0.0359 -0.24798,-29.13282 -9.48865,-14.55866 -4.13166,12.65256 -15.35298,6.033 -24.75023,4.3719 15.4487,12.47972 -8.25183,8.96928 -8.25452,-0.87744 -0.43796,-4.55236 -0.87603,-9.10492 -1.31392,-13.65715 z m 231.84448,52.26278 c 2.63393,2.37905 -1.00597,4.73177 0,0 z m -22.38404,11.333 c 3.22262,4.07873 -4.49237,14.03155 -3.45465,10.7816 0.98915,-3.84368 -2.33858,-10.1802 3.45465,-10.7816 z m -169.75855,3.31077 c -2.13661,4.29709 -3.14443,0.47592 0,0 z m 260.49533,10.75089 c -5.6514,9.76654 -12.04582,17.51245 -23.71508,10.9138 -13.71493,-3.20825 13.26224,12.94806 1.36623,18.94995 -11.65454,13.70504 0.12764,8.96264 10.51559,5.31767 6.88129,7.95134 15.66686,21.08106 12.69076,2.22677 -5.5595,-10.4453 25.56793,-10.09276 12.54796,-14.66278 -13.8441,-0.15201 -12.76441,-12.03909 -13.39005,-22.58523 l -0.0154,-0.16018 0,0 z m -176.21636,8.57706 c -0.52979,7.86775 -14.66548,22.38893 -15.17571,7.7863 2.46365,-3.84489 10.82207,-5.10079 15.17571,-7.7863 z m -76.07482,3.79283 c -0.82922,3.42146 -1.66014,-0.55951 0,0 z m 48.12433,6.07579 c 6.21612,10.58139 14.8838,11.15926 15.0666,17.22325 -8.12402,18.55427 -3.29988,-13.9046 -11.46776,3.64099 -0.86533,-10.10287 -0.62436,-24.11123 -8.9404,-7.91172 -0.52517,-5.27681 -4.49687,-12.88695 5.34156,-12.95252 z m 35.85449,2.31026 c 13.56003,8.79126 5.22235,16.51562 0.2964,3.0881 l -0.16194,-1.68716 -0.13446,-1.40094 0,0 z m -10.97828,2.59222 c -0.005,1.75509 -3.82399,-0.33223 0,0 z m -1.88277,22.02023 c 11.48645,8.67515 -6.12765,3.41807 0,0 z m 19.30976,10.29611 c -0.98468,4.26827 12.93186,16.32574 12.56119,8.99609 -1.22544,-16.17473 19.0729,2.68021 4.91041,8.44236 -9.63046,15.55741 -11.16547,-14.58454 -14.94643,-4.2885 -9.14368,11.84776 -3.28995,2.6675 -9.62876,5.05925 -6.67093,-9.52705 -11.37361,1.86797 -12.67679,-12.54721 4.4235,-2.59509 11.53203,-1.25751 17.83403,-5.0721 l 1.62206,-0.4916 0.3243,-0.0983 -1e-5,0 z m -65.74232,1.07327 c -3.54501,10.55804 -5.60779,-0.50114 0,0 z m 7.98585,2.0283 c 7.45416,8.46282 -13.4979,19.35598 -10.75788,3.76624 2.48036,-1.92518 7.39119,-2.41388 10.75788,-3.76624 z m 12.71552,9.40475 c 5.88745,4.94965 -6.99529,19.68841 -13.25215,14.48002 -16.41588,-2.91702 20.1463,-7.85086 -1.47348,-10.56898 6.28368,-2.39945 9.0622,-1.98494 14.72563,-3.91104 z m -59.53009,0.95503 c 10.27918,9.45899 -0.21773,14.09741 0,0 l 0,0 z m 63.3593,3.73825 c 3.13149,3.08572 -1.00886,5.63043 0,0 z m -117.75953,4.0657 c -5.65759,9.7607 -12.05797,17.50065 -23.72555,10.91096 -13.71485,-3.2007 13.27817,12.95068 1.37284,18.95052 -11.66279,13.69664 0.12357,8.95814 10.51036,5.31994 6.8812,7.95134 15.66512,21.08103 12.69696,2.22689 -5.55213,-10.44357 25.56785,-10.10499 12.55002,-14.66962 -13.84631,-0.14405 -12.76239,-12.03423 -13.38922,-22.57851 l -0.0154,-0.16018 0,0 z m 92.82874,9.13188 c 1.57254,2.3927 -4.35678,0.0513 0,0 z m 31.7979,0.69126 c 10.47197,10.31642 -15.1074,-0.0277 0,0 z m -30.79739,0.74583 c 0.25452,0.17321 -0.084,0.11518 0,0 z m -33.88076,0.89136 c -5.3013,17.06232 -11.03981,2.86675 0,0 z m 38.56495,5.83022 c -2.89938,10.98288 -8.07319,3.11957 0,0 z m 128.97429,2.17383 c 11.50376,8.46317 -1.1677,20.9076 0.29253,3.04734 l -0.16196,-1.68716 -0.13057,-1.36018 0,0 z m -258.9218,2.87418 c -5.65775,9.7614 -12.05808,17.50113 -23.72417,10.90472 -13.71667,-3.20737 13.2748,12.95749 1.37146,18.95676 -11.66279,13.69664 0.12357,8.95814 10.51036,5.31994 6.88311,7.94995 15.66666,21.06948 12.69696,2.2178 -5.55385,-10.44534 25.56956,-10.09289 12.55085,-14.6629 -13.84388,-0.15203 -12.76478,-12.03906 -13.39091,-22.58514 l -0.0146,-0.15118 0,0 z m 150.91265,2.50126 c 1.44169,5.49106 -3.75795,2.94866 0,0 z m 79.84946,0.58212 c 10.73704,4.25158 6.53152,28.17299 1.27842,13.31146 -0.42614,-4.43715 -0.85228,-8.87431 -1.27842,-13.31146 z m -43.97678,0.55482 c 11.66891,5.42264 1.63796,16.48176 -0.0627,3.15679 l 0.0337,-1.69458 0.0291,-1.46221 0,0 z m -49.68876,2.58313 c 9.94341,6.76686 -10.75296,0.40542 0,0 z m 16.4083,0 c 9.51579,12.17126 -13.68032,4.44181 0,0 z m -11.72411,5.29358 c 15.6066,10.16999 -3.80105,11.17677 -8.05862,3.50177 2.68621,-1.16726 5.37241,-2.33451 8.05862,-3.50177 z m 7.93128,0.74583 c 5.15529,4.25433 -2.3566,11.5696 0,0 z m 38.8651,6.67611 c -5.32631,6.91099 -7.71215,1.77325 0,0 z m -54.0455,4.53865 c 0.54,0.32549 -0.18685,0.25489 0,0 z m 63.29564,0.31835 c 6.88042,6.29694 -0.62531,5.79586 0,0 z m -275.821259,7.82213 c -5.651895,9.764 -12.04945,17.50072 -23.716453,10.91096 -13.712825,-3.20162 13.265256,12.95126 1.366176,18.95196 -11.659,13.70005 0.135481,8.95363 10.517027,5.3185 6.883199,7.94995 15.668389,21.06951 12.690755,2.21768 -5.559884,-10.44417 25.568834,-10.09538 12.547134,-14.6604 C 96.515548,420.65748 97.599462,408.7673 96.972633,398.22302 l -0.01541,-0.16019 0,0 z m 215.108749,3.73826 c -1.56324,5.9544 -7.14834,1.12863 0,0 z m 97.85856,0.8004 c -4.44968,8.58295 -5.64211,1.26651 0,0 z m 134.23149,0.80041 c -5.65136,9.76639 -12.04579,17.51234 -23.71538,10.91519 -13.73306,-3.21416 13.26362,12.94118 1.36653,18.94856 -11.65454,13.70504 0.12764,8.96264 10.51559,5.31767 6.88128,7.95135 15.66683,21.08106 12.69075,2.22677 -5.55949,-10.44531 25.56794,-10.09276 12.54797,-14.66278 -13.8441,-0.15201 -12.76441,-12.03909 -13.39005,-22.58523 l -0.0154,-0.16018 0,0 z m -168.56703,2.14654 c -0.45444,3.96584 -2.19597,-0.46041 0,0 z m -66.98841,0.75492 c 1.4964,0.48033 -1.32764,3.15133 0,0 z m 90.40934,3.91107 c 6.55116,4.43311 -2.02234,6.62852 0,0 z m -12.74281,0.38201 c 2.2016,1.37041 -2.9492,0.0455 0,0 z m -165.25627,22.03842 c -5.65136,9.76639 -12.04579,17.51234 -23.71538,10.91519 -13.73306,-3.21416 13.26363,12.94118 1.36654,18.94856 -11.65454,13.70504 0.12764,8.96264 10.51559,5.31767 6.87787,7.95455 15.65501,21.08097 12.68787,2.22689 -5.55385,-10.44534 25.56956,-10.09289 12.55085,-14.6629 -13.8441,-0.15201 -12.76442,-12.03909 -13.39006,-22.58523 l -0.0154,-0.16018 0,0 z m 128.48314,25.73118 c -5.65759,9.7607 -12.05796,17.50066 -23.72555,10.91097 -13.71432,-3.2004 13.27671,12.94982 1.37451,18.9515 -4.57455,9.267 -10.02863,19.85193 -21.63867,12.84365 -16.97029,-5.26873 9.91036,10.99707 0.57034,17.13045 -11.33709,13.64411 -3.05007,11.85358 9.25919,6.8995 6.28847,4.99768 15.89437,22.32415 13.05556,3.79168 -6.63463,-11.61692 21.63088,-11.16273 14.18151,-15.80012 -10.03953,0.78772 -20.20588,-11.95148 -11.12632,-17.65839 9.48166,-5.6253 14.76849,10.50472 20.26863,13.88381 -5.4383,9.00019 -15.20989,21.40711 1.80362,12.75626 8.21383,-8.50841 17.50628,21.19419 17.82297,7.39997 -7.61171,-9.22597 14.41684,-22.81569 8.75547,-12.718 -10.54719,14.84706 13.14425,-5.68808 16.30748,5.01127 9.4721,14.9967 10.335,6.58195 9.42064,-6.6658 7.34208,-2.04966 18.98546,-14.15165 24.47498,-3.66281 9.42817,15.32173 8.56099,2.63807 8.31332,-8.36042 9.68917,-4.08656 24.88477,-8.38373 6.03442,-11.37866 -11.65066,2.05777 -1.69812,-27.43489 -10.06896,-16.46624 -4.42393,13.11693 -15.3962,8.41887 -25.61955,5.75826 5.1479,6.30511 14.75749,18.45473 3.04879,22.35103 -11.8126,2.17748 -1.84231,-27.47123 -10.20283,-16.50751 -10.09067,0.59695 -20.71654,-5.62358 -17.81737,-18.01892 -1.18905,-14.04232 -8.21266,16.61529 -17.59977,7.15629 -17.51595,-8.89635 -2.96128,10.06769 -15.25392,-0.57633 -0.54613,-5.67712 -1.09254,-11.35449 -1.63849,-17.03144 z m 154.18703,6.97626 c -5.65139,9.76654 -12.04581,17.51246 -23.71507,10.91381 -13.71695,-3.20734 13.27514,12.94748 1.37289,18.94851 -11.65833,13.70164 0.11573,8.96715 10.50893,5.3191 11.15525,4.85803 8.41123,21.92327 -4.14454,16.92179 -16.63234,-6.85814 -8.47364,2.88864 -1.80392,11.6381 -5.43498,9.00191 -15.21006,21.41853 1.80188,12.75969 8.21677,-8.51588 17.50451,21.19839 17.8247,7.40565 -4.14116,-13.21382 7.501,-15.85751 17.33706,-19.71075 -9.06147,-2.84664 -20.50141,-4.78145 -17.39509,-17.5666 -3.01636,-10.03639 -0.48995,-18.08954 11.61297,-20.1268 12.98389,-5.46697 -18.3361,-2.68461 -12.24232,-14.53213 -0.38583,-3.99013 -0.77166,-7.98025 -1.15749,-11.97037 z m -214.54482,0.41839 c -5.65709,9.76324 -12.05433,17.51239 -23.72417,10.91381 -13.71695,-3.20734 13.27514,12.94749 1.37289,18.94852 -11.65833,13.70164 0.11574,8.96714 10.50893,5.3191 6.8812,7.95134 15.66513,21.08104 12.69697,2.2269 -5.55386,-10.44535 25.56956,-10.09292 12.55084,-14.66292 -13.84409,-0.15199 -12.76441,-12.03908 -13.39005,-22.58522 l -0.0154,-0.16019 0,0 z m 73.57356,19.18243 c 6.20791,9.28714 -15.36989,21.19996 -12.25165,5.32996 4.08388,-1.77665 8.16777,-3.55331 12.25165,-5.32996 z m -214.65397,2.29206 c -5.65186,9.76385 -12.04942,17.50062 -23.71676,10.91236 -13.73096,-3.20754 13.26665,12.94437 1.36648,18.95056 -11.65901,13.70003 0.13549,8.95362 10.51703,5.31852 6.8832,7.94995 15.66835,21.06951 12.69088,2.21768 -5.54793,-10.43608 25.56694,-10.0963 12.54701,-14.66042 -13.84631,-0.14405 -12.7624,-12.03423 -13.38923,-22.57851 l -0.0154,-0.16019 0,0 z m 252.48218,1.26428 c -2.58558,12.45349 -23.39605,6.22555 -5.12905,2.23367 1.70968,-0.74456 3.41937,-1.48911 5.12905,-2.23367 z m -28.59627,10.60536 c 7.09027,2.49518 5.91038,15.91663 0,0 z m 268.98144,0.73674 c -5.65139,9.76654 -12.04581,17.51246 -23.71507,10.91381 -13.717,-3.20736 13.2751,12.94746 1.37287,18.94852 -11.6583,13.70164 0.11575,8.96714 10.50893,5.31908 6.88129,7.95134 15.66686,21.08108 12.69075,2.22678 -5.55953,-10.44531 25.56793,-10.09278 12.54795,-14.66278 -13.84411,-0.15198 -12.7644,-12.03908 -13.39002,-22.58521 l -0.0154,-0.1602 z m -256.64793,4.54775 c 4.24705,3.18887 -1.9536,7.22595 0,0 z m 169.45837,3.89287 c -5.65708,9.76325 -12.05431,17.51241 -23.72415,10.91382 -13.71695,-3.20734 13.27514,12.94748 1.37289,18.94851 -11.65833,13.70165 0.11573,8.96715 10.50893,5.31909 6.88119,7.95135 15.6651,21.08104 12.69697,2.2269 -5.55384,-10.44534 25.56957,-10.09291 12.55085,-14.6629 -13.84409,-0.15198 -12.76442,-12.03907 -13.39008,-22.5852 l -0.0154,-0.16022 0,0 z m -300.15171,9.35929 c -5.65187,9.76384 -12.04944,17.50061 -23.71677,10.91233 -13.73096,-3.20754 13.26665,12.94442 1.36649,18.9506 -11.65902,13.70004 0.13548,8.95361 10.51702,5.31849 6.8832,7.94994 15.66837,21.0695 12.69088,2.21767 -5.54792,-10.43607 25.56694,-10.09629 12.54701,-14.66041 -13.84631,-0.14404 -12.76238,-12.03423 -13.38922,-22.5785 l -0.0154,-0.16018 0,0 z m 102.55184,23.44821 c -5.65136,9.76639 -12.04579,17.51238 -23.71538,10.91521 -13.73307,-3.21416 13.26362,12.94114 1.36654,18.94854 -11.65453,13.70505 0.12759,8.96269 10.51558,5.31768 6.88129,7.95134 15.66686,21.08104 12.69076,2.22675 -5.55949,-10.44529 25.56793,-10.09275 12.54796,-14.66277 -13.8441,-0.152 -12.76441,-12.03909 -13.39005,-22.58522 l -0.0154,-0.16019 0,0 z m 20.60132,37.67359 c -5.65759,9.76071 -12.05796,17.50066 -23.72555,10.91096 -13.71485,-3.20072 13.27816,12.95071 1.37284,18.95053 -11.6628,13.69664 0.12358,8.95813 10.51036,5.31994 16.34087,13.43612 -6.68282,2.83432 5.69856,15.66355 12.19354,5.49711 -10.93676,21.74352 -2.18172,21.11732 11.07035,-7.24962 18.31741,-0.99786 24.60641,8.63711 3.71579,-1.52273 -3.2176,-21.32445 10.89125,-20.02921 18.85879,-5.59838 -9.18882,-4.00084 -8.81462,-12.50026 0.55697,-15.59949 -2.92093,-16.95266 -10.68242,-3.18131 -10.09695,6.82077 -10.17477,-17.79034 1.06131,-16.36853 19.02899,-5.06557 -2.52073,-5.4964 -7.09783,-11.48866 -0.5462,-5.67715 -1.09239,-11.35429 -1.63859,-17.03144 z"
         id="path13778"
         inkscape:connector-curvature="0" />
      <path
         style="fill:none;stroke:#000000;stroke-width:0.29105622;stroke-miterlimit:4;stroke-opacity:1;stroke-dasharray:none"
         d="m 438.20245,59.755454 c 5.65202,9.764549 12.04953,17.501096 23.71537,10.906095 13.73277,-3.214204 -13.26328,12.951204 -1.3651,18.956814 11.659,13.700037 -0.13547,8.953639 -10.51702,5.318511 -6.87978,7.953156 -15.65656,21.069406 -12.68787,2.217784 5.55423,-10.44419 -25.57047,-10.095505 -12.55002,-14.660517 13.84631,-0.144044 12.7624,-12.034225 13.38923,-22.578504 l 0.0154,-0.160183 0,0 z M 308.49142,105.7969 c 5.65709,9.76324 12.05433,17.51239 23.72417,10.91381 13.71695,-3.20734 -13.27514,12.94749 -1.37289,18.94852 11.65833,13.70164 -0.11574,8.96714 -10.50893,5.3191 -6.8812,7.95134 -15.66513,21.08103 -12.69697,2.22689 5.55386,-10.44534 -25.56956,-10.09289 -12.55085,-14.6629 13.8441,-0.15201 12.76443,-12.03909 13.39006,-22.58523 l 0.0154,-0.16019 0,0 z m 268.19922,21.59274 c 5.65186,9.76385 12.04943,17.50061 23.71676,10.91235 13.73096,-3.20754 -13.26664,12.94437 -1.36648,18.95056 11.659,13.70005 -0.13548,8.95363 -10.51703,5.31851 -6.8832,7.94995 -15.66839,21.0695 -12.69076,2.21767 5.55989,-10.44417 -25.56883,-10.09538 -12.54713,-14.6604 13.84631,-0.14405 12.7624,-12.03423 13.38923,-22.57851 l 0.0154,-0.16018 0,0 z M 329.3838,153.15721 c 3.4443,7.51065 16.46192,21.72763 18.72516,7.0722 -3.20349,-18.39739 15.18624,13.63675 11.07323,6.95294 8.32662,-1.15569 25.59707,-8.64034 12.61169,4.35061 -12.19691,5.50029 10.93098,21.74893 2.17922,21.12468 -11.39543,-6.18007 -16.84559,-2.34104 -22.91013,6.72044 -4.39629,8.42893 -2.00142,-22.03632 -13.21463,-7.23072 -12.24484,10.82333 15.49421,-2.22773 -1.35287,13.19053 -10.63176,5.18242 14.74497,23.20218 1.52995,19.24187 -8.85198,-8.82439 -20.92545,3.68081 -20.62124,7.95918 15.11075,-6.06782 5.48475,4.44494 0.0463,12.14636 5.43831,9.00016 15.21008,21.40655 -1.80423,12.75834 6.23973,10.15017 -11.50736,-3.47701 -15.38512,9.83835 -3.90279,2.32586 -1.79573,-11.68499 -10.18812,2.84344 2.20927,3.97956 -21.28584,-3.41997 -6.68342,11.46516 11.96404,15.62195 -9.78502,-2.16014 -14.47972,4.93671 8.80069,-0.23651 -13.68989,13.18772 -3.36626,20.23804 11.65454,13.70504 -0.12764,8.96264 -10.51559,5.31766 -6.88129,7.95134 -15.66685,21.08108 -12.69076,2.22678 5.55779,-10.44354 -25.56621,-10.10486 -12.54713,-14.6695 13.84631,-0.14405 12.76239,-12.03423 13.38922,-22.57851 3.31431,5.93641 16.38987,22.42683 15.21969,5.83151 -1.11219,-6.87605 -27.85656,-8.6717 -9.28091,-12.45359 16.95298,0.46086 2.76033,-18.86788 -3.56722,-5.97877 -9.62075,11.44283 2.90264,-17.80274 -10.32032,-15.81998 -17.4881,-4.22815 -5.15724,-7.32312 5.38105,-10.48622 0.89366,-10.47756 0.28498,-26.25857 8.96221,-9.25917 1.64004,11.72616 26.62264,-6.85844 18.77229,4.48922 -4.82181,10.11772 10.05665,15.90317 17.90256,8.35103 3.6833,-6.5293 -0.17897,-28.28775 9.00797,-10.98121 4.46529,3.24655 1.56836,-19.50884 10.44897,-0.63594 7.83435,13.61115 12.31342,-11.32904 4.66179,-13.73585 -15.00571,-4.29583 -15.22106,-8.02265 0.27694,-11.14495 6.06528,-3.28146 -0.38405,-29.11391 8.91003,-12.65237 6.60412,15.57656 13.3144,-1.2392 7.31081,-8.1968 -12.36423,-4.18813 -20.49802,-8.2155 -2.88065,-11.26428 7.31372,-0.77776 3.19143,-14.72547 5.39928,-19.96719 z m 178.39927,0.24558 c 5.65759,9.7607 12.05797,17.50065 23.72555,10.91096 13.71487,-3.2007 -13.27817,12.95068 -1.37283,18.95051 11.6628,13.69665 -0.12357,8.95814 -10.51037,5.31995 -6.8812,7.95134 -15.66512,21.08103 -12.69696,2.22689 5.55212,-10.44356 -25.56785,-10.10499 -12.55002,-14.66962 13.84631,-0.14405 12.76239,-12.03423 13.38922,-22.57851 l 0.0154,-0.16018 z m 122.50739,11.63315 c 5.65759,9.7607 12.05797,17.50065 23.72555,10.91096 13.71485,-3.2007 -13.27817,12.9507 -1.37284,18.95052 11.6628,13.69664 -0.12358,8.95813 -10.51036,5.31994 -6.8812,7.95134 -15.66513,21.08103 -12.69697,2.22689 5.55213,-10.44356 -25.56785,-10.10498 -12.55002,-14.66961 13.84631,-0.14405 12.7624,-12.03423 13.38923,-22.57851 l 0.0154,-0.16019 0,0 z m -135.95054,24.48511 c 5.65186,9.76385 12.04943,17.50061 23.71676,10.91235 13.73096,-3.20754 -13.26666,12.94437 -1.36649,18.95056 11.659,13.70004 -0.13547,8.95364 -10.51702,5.31851 -6.8832,7.94995 -15.66839,21.0695 -12.69076,2.21767 3.05716,-7.73164 -19.44379,-16.8317 -17.78308,-7.16049 7.53981,10.65749 11.74718,18.69397 -4.29488,10.80401 -15.2676,0.0723 0.22412,13.99816 9.51389,5.56335 13.73276,-3.2142 -13.26328,12.95121 -1.3651,18.95682 12.62316,16.54579 -2.18472,2.64328 -8.25102,11.05311 -12.20421,5.49904 10.93534,21.74668 2.18518,21.1219 -10.44823,-7.96314 -19.86847,8.3184 -10.21231,15.52213 11.97052,15.62097 -9.77429,-2.15377 -14.47555,4.93774 -8.71667,12.94666 -12.33032,12.00519 -10.51867,-3.70146 -3.59262,-11.73475 -19.589,7.19302 -10.90019,13.09836 4.40821,9.17808 9.81677,18.04073 21.23049,11.70404 12.636,-3.92332 -11.63087,16.88373 9.89703,7.00859 3.28222,-13.28011 6.12486,-5.6932 13.52955,4.10521 10.24065,-2.38813 25.06666,-7.84816 11.58049,5.65919 -10.64159,5.18279 14.74502,23.20013 1.52627,19.24228 -11.2873,-8.01578 -17.40097,2.23836 -24.10771,10.39817 6.98673,-8.35332 -15.37164,-17.91516 -9.35371,-9.34888 12.63532,16.37174 -8.54439,-2.24589 -11.45233,11.03153 5.43519,9.00225 15.19766,21.40938 -1.81131,12.75166 -13.63215,2.4681 4.96213,18.83408 2.07209,21.43768 -8.15764,-6.58394 -22.63913,-2.7096 -21.54479,4.36403 14.49358,-5.14077 18.01724,-2.93891 6.91961,9.0496 -2.97752,6.21926 17.41917,23.32513 0.22415,15.47099 -9.8971,-9.56161 -16.71299,11.239 -21.00125,9.8146 2.76136,-8.55975 -2.68998,-25.66017 -12.05048,-15.50828 -11.71599,17.40911 -4.66576,-1.07367 -11.65233,-6.73037 -17.96523,-7.73418 0.12407,18.60219 -12.01123,10.32849 -7.55894,1.22989 -10.24698,-6.74503 -17.99107,5.81076 -10.64294,14.2457 1.56395,-14.71293 -9.60058,-14.18825 -17.19152,-4.37157 -9.44291,-7.79538 3.43078,-11.02443 3.05702,-10.07559 -13.32063,-7.01298 -14.13051,2.68215 -8.02005,5.43491 16.8609,23.92624 0.73469,17.56992 -10.77913,-7.80393 -15.96686,4.13734 -22.59039,11.00827 1.16387,-11.22058 0.52972,-21.23692 -12.77891,-22.76428 -12.99059,-5.47534 18.3438,-2.67326 12.24694,-14.52681 -0.0213,-12.29272 1.26395,-13.46507 -7.66695,-17.32372 -7.42022,-0.12027 -16.32057,22.06955 -13.82737,1.9894 3.18676,-9.96849 -15.54483,-17.41845 -19.05222,-6.63313 -11.5473,16.78793 -1.85199,-8.17677 -9.8267,-11.50178 -15.00554,-4.29535 -15.22118,-8.02296 0.27608,-11.14742 6.05051,-3.29443 -0.37557,-29.10604 8.91089,-12.64989 3.42421,12.11525 16.55663,3.29625 22.75331,3.23488 0.19375,6.08952 9.80256,18.3482 19.82499,10.87207 9.60998,-4.3849 10.29067,10.97092 16.2435,10.16709 5.31781,7.39196 26.24699,-7.62381 12.37849,7.83433 9.27117,4.23266 13.48548,-9.3424 10.8192,-19.20893 -8.27065,-9.19037 -15.21049,12.50412 -19.04148,9.99185 2.42584,-12.06506 -1.95716,-19.57024 -14.29383,-21.74882 -7.28382,-4.89391 20.65478,-2.82818 13.95768,-15.53474 0.83876,-8.6848 -6.55257,-1.9052 -3.82504,-19.08858 -10.23905,-0.50379 -8.69515,15.13091 -1.17097,21.38534 3.00626,8.23537 -18.38192,-9.85129 -20.43437,4.36257 -10.70164,16.52962 -4.44983,-4.10233 -8.73539,-10.30521 -12.36423,-4.18813 -20.498,-8.2155 -2.88064,-11.26428 9.30342,0.0384 0.25067,-29.13014 9.49085,-14.55233 2.19465,12.6791 24.66753,6.63286 6.47735,2.46185 11.03409,-2.35653 20.37306,-6.04666 17.70684,-19.18169 0.96903,-14.12482 7.67899,14.91657 16.00111,7.51215 -0.82444,-14.19744 3.15911,-13.43202 7.58945,-7.93412 6.24645,-12.86935 -15.00582,-13.8391 -15.83836,-18.1791 12.22404,-1.42035 18.00627,-7.9087 16.26763,-20.31397 2.40449,-8.44373 9.07561,18.77136 19.0921,8.47618 20.98499,-10.06184 -4.86202,12.62388 6.76351,7.75536 13.43784,1.90335 6.40103,-19.02013 10.8434,-20.14268 5.12957,11.18577 13.08871,14.6742 24.34713,9.18751 8.78694,-0.32874 -15.04914,14.43843 -2.15958,20.78439 13.95998,15.52837 -12.87981,-0.0964 1.88261,14.13102 1.85536,9.91183 27.57058,1.0366 9.99102,-1.24073 7.0785,-3.06888 20.76627,-4.70441 16.97819,-17.74956 -16.72978,-6.07407 3.19123,-5.58946 8.10337,-11.85201 8.05175,-13.20246 -16.99013,-15.5777 1.95928,-18.7645 11.26475,0.41363 6.61539,-15.31381 4.80979,-20.78993 -12.36449,-4.18888 -20.49815,-8.21594 -2.87844,-11.25794 9.30126,0.0359 0.24798,-29.13282 9.48865,-14.55866 4.13166,12.65256 15.35298,6.033 24.75023,4.3719 -15.4487,12.47972 8.25183,8.96928 8.25452,-0.87744 0.43796,-4.55236 0.87603,-9.10492 1.31392,-13.65715 z m -231.84448,52.26278 c -2.63393,2.37905 1.00597,4.73177 0,0 z m 22.38404,11.333 c -3.22262,4.07873 4.49237,14.03155 3.45465,10.7816 -0.98915,-3.84368 2.33858,-10.1802 -3.45465,-10.7816 z m 169.75855,3.31077 c 2.13661,4.29709 3.14443,0.47592 0,0 z M 194.1427,267.17849 c 5.6514,9.76654 12.04582,17.51245 23.71508,10.9138 13.71493,-3.20825 -13.26224,12.94806 -1.36623,18.94995 11.65454,13.70504 -0.12764,8.96264 -10.51559,5.31767 -6.88129,7.95134 -15.66686,21.08106 -12.69076,2.22677 5.5595,-10.4453 -25.56793,-10.09276 -12.54796,-14.66278 13.8441,-0.15201 12.76441,-12.03909 13.39005,-22.58523 l 0.0154,-0.16018 0,0 z m 176.21636,8.57706 c 0.52979,7.86775 14.66548,22.38893 15.17571,7.7863 -2.46365,-3.84489 -10.82207,-5.10079 -15.17571,-7.7863 z m 76.07482,3.79283 c 0.82922,3.42146 1.66014,-0.55951 0,0 z m -48.12433,6.07579 c -6.21612,10.58139 -14.8838,11.15926 -15.0666,17.22325 8.12402,18.55427 3.29988,-13.9046 11.46776,3.64099 0.86533,-10.10287 0.62436,-24.11123 8.9404,-7.91172 0.52517,-5.27681 4.49687,-12.88695 -5.34156,-12.95252 z m -35.85449,2.31026 c -13.56003,8.79126 -5.22235,16.51562 -0.2964,3.0881 l 0.16194,-1.68716 0.13446,-1.40094 0,0 z m 10.97828,2.59222 c 0.006,1.75509 3.82399,-0.33223 0,0 z m 1.88277,22.02023 c -11.48645,8.67515 6.12765,3.41807 0,0 z m -19.30976,10.29611 c 0.98468,4.26827 -12.93186,16.32574 -12.56119,8.99609 1.22544,-16.17473 -19.0729,2.68021 -4.91041,8.44236 9.63046,15.55741 11.16547,-14.58454 14.94643,-4.2885 9.14368,11.84776 3.28995,2.6675 9.62876,5.05925 6.67093,-9.52705 11.37361,1.86797 12.67679,-12.54721 -4.4235,-2.59509 -11.53203,-1.25751 -17.83403,-5.0721 l -1.62206,-0.4916 -0.3243,-0.0983 10e-6,0 z m 65.74232,1.07327 c 3.54501,10.55804 5.60779,-0.50114 0,0 z m -7.98585,2.0283 c -7.45416,8.46282 13.4979,19.35598 10.75788,3.76624 -2.48036,-1.92518 -7.39119,-2.41388 -10.75788,-3.76624 z m -12.71552,9.40475 c -5.88745,4.94965 6.99529,19.68841 13.25215,14.48002 16.41588,-2.91702 -20.1463,-7.85086 1.47348,-10.56898 -6.28368,-2.39945 -9.0622,-1.98494 -14.72563,-3.91104 z m 59.53009,0.95503 c -10.27918,9.45899 0.21773,14.09741 0,0 l 0,0 z m -63.3593,3.73825 c -3.13149,3.08572 1.00886,5.63043 0,0 z m 117.75953,4.0657 c 5.65759,9.7607 12.05797,17.50065 23.72555,10.91096 13.71485,-3.2007 -13.27817,12.95068 -1.37284,18.95052 11.66279,13.69664 -0.12357,8.95814 -10.51036,5.31994 -6.8812,7.95134 -15.66512,21.08103 -12.69696,2.22689 5.55213,-10.44357 -25.56785,-10.10499 -12.55002,-14.66962 13.84631,-0.14405 12.76239,-12.03423 13.38922,-22.57851 l 0.0154,-0.16018 0,0 z m -92.82874,9.13188 c -1.57254,2.3927 4.35678,0.0513 0,0 z m -31.7979,0.69126 c -10.47197,10.31642 15.1074,-0.0277 0,0 z m 30.79739,0.74583 c -0.25452,0.17321 0.084,0.11518 0,0 z m 33.88076,0.89136 c 5.3013,17.06232 11.03981,2.86675 0,0 z m -38.56495,5.83022 c 2.89938,10.98288 8.07319,3.11957 0,0 z m -128.97429,2.17383 c -11.50376,8.46317 1.1677,20.9076 -0.29253,3.04734 l 0.16196,-1.68716 0.13057,-1.36018 0,0 z m 258.9218,2.87418 c 5.65775,9.7614 12.05808,17.50113 23.72417,10.90472 13.71667,-3.20737 -13.2748,12.95749 -1.37146,18.95676 11.66279,13.69664 -0.12357,8.95814 -10.51036,5.31994 -6.88311,7.94995 -15.66666,21.06948 -12.69696,2.2178 5.55385,-10.44534 -25.56956,-10.09289 -12.55085,-14.6629 13.84388,-0.15203 12.76478,-12.03906 13.39091,-22.58514 l 0.0145,-0.15118 0,0 z m -150.91265,2.50126 c -1.44169,5.49106 3.75795,2.94866 0,0 z m -79.84946,0.58212 c -10.73704,4.25158 -6.53152,28.17299 -1.27842,13.31146 0.42614,-4.43715 0.85228,-8.87431 1.27842,-13.31146 z m 43.97678,0.55482 c -11.66891,5.42264 -1.63796,16.48176 0.0627,3.15679 l -0.0337,-1.69458 -0.0291,-1.46221 0,0 z m 49.68876,2.58313 c -9.94341,6.76686 10.75296,0.40542 0,0 z m -16.4083,0 c -9.51579,12.17126 13.68032,4.44181 0,0 z m 11.72411,5.29358 c -15.6066,10.16999 3.80105,11.17677 8.05862,3.50177 -2.68621,-1.16726 -5.37241,-2.33451 -8.05862,-3.50177 z m -7.93128,0.74583 c -5.15529,4.25433 2.3566,11.5696 0,0 z m -38.8651,6.67611 c 5.32631,6.91099 7.71215,1.77325 0,0 z m 54.0455,4.53865 c -0.54,0.32549 0.18685,0.25489 0,0 z m -63.29564,0.31835 c -6.88042,6.29694 0.62531,5.79586 0,0 z m 275.82126,7.82213 c 5.6519,9.764 12.04945,17.50072 23.71645,10.91096 13.71283,-3.20162 -13.26525,12.95126 -1.36617,18.95196 11.659,13.70005 -0.13548,8.95363 -10.51703,5.3185 -6.8832,7.94995 -15.66839,21.06951 -12.69076,2.21768 5.55989,-10.44417 -25.56883,-10.09538 -12.54713,-14.6604 13.84631,-0.14405 12.7624,-12.03423 13.38923,-22.57851 l 0.0154,-0.16019 0,0 z m -215.10875,3.73826 c 1.56324,5.9544 7.14834,1.12863 0,0 z m -97.85856,0.8004 c 4.44968,8.58295 5.64211,1.26651 0,0 z m -134.23149,0.80041 c 5.65136,9.76639 12.04579,17.51234 23.71538,10.91519 13.73306,-3.21416 -13.26362,12.94118 -1.36653,18.94856 11.65454,13.70504 -0.12764,8.96264 -10.51559,5.31767 -6.88128,7.95135 -15.66683,21.08106 -12.69075,2.22677 5.55949,-10.44531 -25.56794,-10.09276 -12.54797,-14.66278 13.8441,-0.15201 12.76441,-12.03909 13.39005,-22.58523 l 0.0154,-0.16018 0,0 z m 168.56703,2.14654 c 0.45444,3.96584 2.19597,-0.46041 0,0 z m 66.98841,0.75492 c -1.4964,0.48033 1.32764,3.15133 0,0 z m -90.40934,3.91107 c -6.55116,4.43311 2.02234,6.62852 0,0 z m 12.74281,0.38201 c -2.2016,1.37041 2.9492,0.0455 0,0 z m 165.25627,22.03842 c 5.65136,9.76639 12.04579,17.51234 23.71538,10.91519 13.73306,-3.21416 -13.26363,12.94118 -1.36654,18.94856 11.65454,13.70504 -0.12764,8.96264 -10.51559,5.31767 -6.87787,7.95455 -15.65501,21.08097 -12.68787,2.22689 5.55385,-10.44534 -25.56956,-10.09289 -12.55085,-14.6629 13.8441,-0.15201 12.76442,-12.03909 13.39006,-22.58523 l 0.0154,-0.16018 0,0 z m -128.48314,25.73118 c 5.65759,9.7607 12.05796,17.50066 23.72555,10.91097 13.71432,-3.2004 -13.27671,12.94982 -1.37451,18.9515 4.57455,9.267 10.02863,19.85193 21.63867,12.84365 16.97029,-5.26873 -9.91036,10.99707 -0.57034,17.13045 11.33709,13.64411 3.05007,11.85358 -9.25919,6.8995 -6.28847,4.99768 -15.89437,22.32415 -13.05556,3.79168 6.63463,-11.61692 -21.63088,-11.16273 -14.18151,-15.80012 10.03953,0.78772 20.20588,-11.95148 11.12632,-17.65839 -9.48166,-5.6253 -14.76849,10.50472 -20.26863,13.88381 5.4383,9.00019 15.20989,21.40711 -1.80362,12.75626 -8.21383,-8.50841 -17.50628,21.19419 -17.82297,7.39997 7.61171,-9.22597 -14.41684,-22.81569 -8.75547,-12.718 10.54719,14.84706 -13.14425,-5.68808 -16.30748,5.01127 -9.4721,14.9967 -10.335,6.58195 -9.42064,-6.6658 -7.34208,-2.04966 -18.98546,-14.15165 -24.47498,-3.66281 -9.42817,15.32173 -8.56099,2.63807 -8.31332,-8.36042 -9.68917,-4.08656 -24.88477,-8.38373 -6.03442,-11.37866 11.65066,2.05777 1.69812,-27.43489 10.06896,-16.46624 4.42393,13.11693 15.3962,8.41887 25.61955,5.75826 -5.1479,6.30511 -14.75749,18.45473 -3.04879,22.35103 11.8126,2.17748 1.84231,-27.47123 10.20283,-16.50751 10.09067,0.59695 20.71654,-5.62358 17.81737,-18.01892 1.18905,-14.04232 8.21266,16.61529 17.59977,7.15629 17.51595,-8.89635 2.96128,10.06769 15.25392,-0.57633 0.54613,-5.67712 1.09254,-11.35449 1.63849,-17.03144 z m -154.18703,6.97626 c 5.65139,9.76654 12.04581,17.51246 23.71507,10.91381 13.71695,-3.20734 -13.27514,12.94748 -1.37289,18.94851 11.65833,13.70164 -0.11573,8.96715 -10.50893,5.3191 -11.15525,4.85803 -8.41123,21.92327 4.14454,16.92179 16.63234,-6.85814 8.47364,2.88864 1.80392,11.6381 5.43498,9.00191 15.21006,21.41853 -1.80188,12.75969 -8.21677,-8.51588 -17.50451,21.19839 -17.8247,7.40565 4.14116,-13.21382 -7.501,-15.85751 -17.33706,-19.71075 9.06147,-2.84664 20.50141,-4.78145 17.39509,-17.5666 3.01636,-10.03639 0.48995,-18.08954 -11.61297,-20.1268 -12.98389,-5.46697 18.3361,-2.68461 12.24232,-14.53213 0.38583,-3.99013 0.77166,-7.98025 1.15749,-11.97037 z m 214.54482,0.41839 c 5.65709,9.76324 12.05433,17.51239 23.72417,10.91381 13.71695,-3.20734 -13.27514,12.94749 -1.37289,18.94852 11.65833,13.70164 -0.11574,8.96714 -10.50893,5.3191 -6.8812,7.95134 -15.66513,21.08104 -12.69697,2.2269 5.55386,-10.44535 -25.56956,-10.09292 -12.55084,-14.66292 13.84409,-0.15199 12.76441,-12.03908 13.39005,-22.58522 l 0.0154,-0.16019 0,0 z m -73.57356,19.18243 c -6.20791,9.28714 15.36989,21.19996 12.25165,5.32996 -4.08388,-1.77665 -8.16777,-3.55331 -12.25165,-5.32996 z m 214.65397,2.29206 c 5.65186,9.76385 12.04942,17.50062 23.71676,10.91236 13.73096,-3.20754 -13.26665,12.94437 -1.36648,18.95056 11.65901,13.70003 -0.13549,8.95362 -10.51703,5.31852 -6.8832,7.94995 -15.66835,21.06951 -12.69088,2.21768 5.54793,-10.43608 -25.56694,-10.0963 -12.54701,-14.66042 13.84631,-0.14405 12.7624,-12.03423 13.38923,-22.57851 l 0.0154,-0.16019 0,0 z m -252.48218,1.26428 c 2.58558,12.45349 23.39605,6.22555 5.12905,2.23367 -1.70968,-0.74456 -3.41937,-1.48911 -5.12905,-2.23367 z m 28.59627,10.60536 c -7.09027,2.49518 -5.91038,15.91663 0,0 z m -268.981438,0.73674 c 5.65139,9.76654 12.045811,17.51246 23.715068,10.91381 13.717,-3.20735 -13.275097,12.94746 -1.37287,18.94852 11.6583,13.70164 -0.11575,8.96714 -10.508928,5.31908 -6.881288,7.95134 -15.666856,21.08108 -12.690752,2.22678 5.559528,-10.44531 -25.56793,-10.09278 -12.547951,-14.66278 13.844111,-0.15198 12.764401,-12.03908 13.39002,-22.58521 l 0.01541,-0.1602 0,0 z m 256.647928,4.54775 c -4.24705,3.18887 1.9536,7.22595 0,0 z m -169.45837,3.89287 c 5.65708,9.76325 12.05431,17.51241 23.72415,10.91382 13.71695,-3.20734 -13.27514,12.94748 -1.37289,18.94851 11.65833,13.70165 -0.11573,8.96715 -10.50893,5.31909 -6.88119,7.95135 -15.6651,21.08104 -12.69697,2.2269 5.55384,-10.44534 -25.56957,-10.09291 -12.55085,-14.6629 13.84409,-0.15198 12.76442,-12.03907 13.39008,-22.5852 l 0.0154,-0.16022 0,0 z m 300.15171,9.35929 c 5.65187,9.76384 12.04944,17.50061 23.71677,10.91233 13.73096,-3.20754 -13.26665,12.94442 -1.36649,18.9506 11.65902,13.70004 -0.13548,8.95361 -10.51702,5.31849 -6.8832,7.94994 -15.66837,21.0695 -12.69088,2.21767 5.54792,-10.43607 -25.56694,-10.09629 -12.54701,-14.66041 13.84631,-0.14404 12.76238,-12.03423 13.38922,-22.5785 l 0.0154,-0.16018 0,0 z m -102.55184,23.44821 c 5.65136,9.76639 12.04579,17.51238 23.71538,10.91521 13.73307,-3.21416 -13.26362,12.94114 -1.36654,18.94854 11.65453,13.70505 -0.12759,8.96269 -10.51558,5.31768 -6.88129,7.95134 -15.66686,21.08104 -12.69076,2.22675 5.55949,-10.44529 -25.56793,-10.09275 -12.54796,-14.66277 13.8441,-0.152 12.76441,-12.03909 13.39005,-22.58522 l 0.0154,-0.16019 0,0 z m -20.60132,37.67359 c 5.65759,9.76071 12.05796,17.50066 23.72555,10.91096 13.71485,-3.20072 -13.27816,12.95071 -1.37284,18.95053 11.6628,13.69664 -0.12358,8.95813 -10.51036,5.31994 -16.34087,13.43612 6.68282,2.83432 -5.69856,15.66355 -12.19354,5.49711 10.93676,21.74352 2.18172,21.11732 -11.07035,-7.24962 -18.31741,-0.99786 -24.60641,8.63711 -3.71579,-1.52273 3.2176,-21.32445 -10.89125,-20.02921 -18.85879,-5.59838 9.18882,-4.00084 8.81462,-12.50026 -0.55697,-15.59949 2.92093,-16.95266 10.68242,-3.18131 10.09695,6.82077 10.17477,-17.79034 -1.06131,-16.36853 -19.02899,-5.06557 2.52073,-5.4964 7.09783,-11.48866 0.5462,-5.67715 1.09239,-11.35429 1.63859,-17.03144 z"
         id="path14292"
         inkscape:connector-curvature="0" />
      <path
         style="fill:none;stroke:#000000;stroke-width:0.29105622;stroke-miterlimit:4;stroke-opacity:1;stroke-dasharray:none"
         d="m 438.20245,660.75017 c 5.65202,-9.76455 12.04953,-17.5011 23.71537,-10.90609 13.73277,3.2142 -13.26328,-12.95121 -1.3651,-18.95682 11.659,-13.70004 -0.13547,-8.95364 -10.51702,-5.31851 -6.87978,-7.95315 -15.65656,-21.06941 -12.68787,-2.21779 5.55423,10.44419 -25.57047,10.09551 -12.55002,14.66052 13.84631,0.14405 12.7624,12.03423 13.38923,22.57851 l 0.0154,0.16018 0,0 z M 308.49142,614.70872 c 5.65709,-9.76324 12.05433,-17.51239 23.72417,-10.91381 13.71695,3.20734 -13.27514,-12.94749 -1.37289,-18.94852 11.65833,-13.70164 -0.11574,-8.96714 -10.50893,-5.3191 -6.8812,-7.95134 -15.66513,-21.08103 -12.69697,-2.22689 5.55386,10.44534 -25.56956,10.09289 -12.55085,14.6629 13.8441,0.15201 12.76443,12.03909 13.39006,22.58523 l 0.0154,0.16019 0,0 z m 268.19922,-21.59274 c 5.65186,-9.76385 12.04943,-17.50061 23.71676,-10.91235 13.73096,3.20754 -13.26664,-12.94437 -1.36648,-18.95056 11.659,-13.70005 -0.13548,-8.95363 -10.51703,-5.31851 -6.8832,-7.94995 -15.66839,-21.0695 -12.69076,-2.21767 5.55989,10.44417 -25.56883,10.09538 -12.54713,14.6604 13.84631,0.14405 12.7624,12.03423 13.38923,22.57851 l 0.0154,0.16018 0,0 z M 329.3838,567.34841 c 3.4443,-7.51065 16.46192,-21.72763 18.72516,-7.0722 -3.20349,18.39739 15.18624,-13.63675 11.07323,-6.95294 8.32662,1.15569 25.59707,8.64034 12.61169,-4.35061 -12.19691,-5.50029 10.93098,-21.74893 2.17922,-21.12468 -11.39543,6.18007 -16.84559,2.34104 -22.91013,-6.72044 -4.39629,-8.42893 -2.00142,22.03632 -13.21463,7.23072 -12.24484,-10.82333 15.49421,2.22773 -1.35287,-13.19053 -10.63176,-5.18242 14.74497,-23.20218 1.52995,-19.24187 -8.85198,8.82439 -20.92545,-3.68081 -20.62124,-7.95918 15.11075,6.06782 5.48475,-4.44494 0.0463,-12.14636 5.43831,-9.00016 15.21008,-21.40655 -1.80423,-12.75834 6.23973,-10.15017 -11.50736,3.47701 -15.38512,-9.83835 -3.90279,-2.32586 -1.79573,11.68499 -10.18812,-2.84344 2.20927,-3.97956 -21.28584,3.41997 -6.68342,-11.46516 11.96404,-15.62195 -9.78502,2.16014 -14.47972,-4.93671 8.80069,0.23651 -13.68989,-13.18772 -3.36626,-20.23804 11.65454,-13.70504 -0.12764,-8.96264 -10.51559,-5.31766 -6.88129,-7.95134 -15.66685,-21.08108 -12.69076,-2.22678 5.55779,10.44354 -25.56621,10.10486 -12.54713,14.6695 13.84631,0.14405 12.76239,12.03423 13.38922,22.57851 3.31431,-5.93641 16.38987,-22.42683 15.21969,-5.83151 -1.11219,6.87605 -27.85656,8.6717 -9.28091,12.45359 16.95298,-0.46086 2.76033,18.86788 -3.56722,5.97877 -9.62075,-11.44283 2.90264,17.80274 -10.32032,15.81998 -17.4881,4.22815 -5.15724,7.32312 5.38105,10.48622 0.89366,10.47756 0.28498,26.25857 8.96221,9.25917 1.64004,-11.72616 26.62264,6.85844 18.77229,-4.48922 -4.82181,-10.11772 10.05665,-15.90317 17.90256,-8.35103 3.6833,6.5293 -0.17897,28.28775 9.00797,10.98121 4.46529,-3.24655 1.56836,19.50884 10.44897,0.63594 7.83435,-13.61115 12.31342,11.32904 4.66179,13.73585 -15.00571,4.29583 -15.22106,8.02265 0.27694,11.14495 6.06528,3.28146 -0.38405,29.11391 8.91003,12.65237 6.60412,-15.57656 13.3144,1.2392 7.31081,8.1968 -12.36423,4.18813 -20.49802,8.2155 -2.88065,11.26428 7.31372,0.77776 3.19143,14.72547 5.39928,19.96719 z m 178.39927,-0.24558 c 5.65759,-9.7607 12.05797,-17.50065 23.72555,-10.91096 13.71487,3.2007 -13.27817,-12.95068 -1.37283,-18.95051 11.6628,-13.69665 -0.12357,-8.95814 -10.51037,-5.31995 -6.8812,-7.95134 -15.66512,-21.08103 -12.69696,-2.22689 5.55212,10.44356 -25.56785,10.10499 -12.55002,14.66962 13.84631,0.14405 12.76239,12.03423 13.38922,22.57851 l 0.0154,0.16018 0,0 z m 122.50739,-11.63315 c 5.65759,-9.7607 12.05797,-17.50065 23.72555,-10.91096 13.71485,3.2007 -13.27817,-12.9507 -1.37284,-18.95052 11.6628,-13.69664 -0.12358,-8.95813 -10.51036,-5.31994 -6.8812,-7.95134 -15.66513,-21.08103 -12.69697,-2.22689 5.55213,10.44356 -25.56785,10.10498 -12.55002,14.66961 13.84631,0.14405 12.7624,12.03423 13.38923,22.57851 l 0.0154,0.16019 0,0 z M 494.33992,530.98457 c 5.65186,-9.76385 12.04943,-17.50061 23.71676,-10.91235 13.73096,3.20754 -13.26666,-12.94437 -1.36649,-18.95056 11.659,-13.70004 -0.13547,-8.95364 -10.51702,-5.31851 -6.8832,-7.94995 -15.66839,-21.0695 -12.69076,-2.21767 3.05716,7.73164 -19.44379,16.8317 -17.78308,7.16049 7.53981,-10.65749 11.74718,-18.69397 -4.29488,-10.80401 -15.2676,-0.0723 0.22412,-13.99816 9.51389,-5.56335 13.73276,3.2142 -13.26328,-12.95121 -1.3651,-18.95682 12.62316,-16.54579 -2.18472,-2.64328 -8.25102,-11.05311 -12.20421,-5.49904 10.93534,-21.74668 2.18518,-21.1219 -10.44823,7.96314 -19.86847,-8.3184 -10.21231,-15.52213 11.97052,-15.62097 -9.77429,2.15377 -14.47555,-4.93774 -8.71667,-12.94666 -12.33032,-12.00519 -10.51867,3.70146 -3.59262,11.73475 -19.589,-7.19302 -10.90019,-13.09836 4.40821,-9.17808 9.81677,-18.04073 21.23049,-11.70404 12.636,3.92332 -11.63087,-16.88373 9.89703,-7.00859 3.28222,13.28011 6.12486,5.6932 13.52955,-4.10521 10.24065,2.38813 25.06666,7.84816 11.58049,-5.65919 -10.64159,-5.18279 14.74502,-23.20013 1.52627,-19.24228 -11.2873,8.01578 -17.40097,-2.23836 -24.10771,-10.39817 6.98673,8.35332 -15.37164,17.91516 -9.35371,9.34888 12.63532,-16.37174 -8.54439,2.24589 -11.45233,-11.03153 5.43519,-9.00225 15.19766,-21.40938 -1.81131,-12.75166 -13.63215,-2.4681 4.96213,-18.83408 2.07209,-21.43768 -8.15764,6.58394 -22.63913,2.7096 -21.54479,-4.36403 14.49358,5.14077 18.01724,2.93891 6.91961,-9.0496 -2.97752,-6.21926 17.41917,-23.32513 0.22415,-15.47099 -9.8971,9.56161 -16.71299,-11.239 -21.00125,-9.8146 2.76136,8.55975 -2.68998,25.66017 -12.05048,15.50828 -11.71599,-17.40911 -4.66576,1.07367 -11.65233,6.73037 -17.96523,7.73418 0.12407,-18.60219 -12.01123,-10.32849 -7.55894,-1.22989 -10.24698,6.74503 -17.99107,-5.81076 -10.64294,-14.2457 1.56395,14.71293 -9.60058,14.18825 -17.19152,4.37157 -9.44291,7.79538 3.43078,11.02443 3.05702,10.07559 -13.32063,7.01298 -14.13051,-2.68215 -8.02005,-5.43491 16.8609,-23.92624 0.73469,-17.56992 -10.77913,7.80393 -15.96686,-4.13734 -22.59039,-11.00827 1.16387,11.22058 0.52972,21.23692 -12.77891,22.76428 -12.99059,5.47534 18.3438,2.67326 12.24694,14.52681 -0.0213,12.29272 1.26395,13.46507 -7.66695,17.32372 -7.42022,0.12027 -16.32057,-22.06955 -13.82737,-1.9894 3.18676,9.96849 -15.54483,17.41845 -19.05222,6.63313 -11.5473,-16.78793 -1.85199,8.17677 -9.8267,11.50178 -15.00554,4.29535 -15.22118,8.02296 0.27608,11.14742 6.05051,3.29443 -0.37557,29.10604 8.91089,12.64989 3.42421,-12.11525 16.55663,-3.29625 22.75331,-3.23488 0.19375,-6.08952 9.80256,-18.3482 19.82499,-10.87207 9.60998,4.3849 10.29067,-10.97092 16.2435,-10.16709 5.31781,-7.39196 26.24699,7.62381 12.37849,-7.83433 9.27117,-4.23266 13.48548,9.3424 10.8192,19.20893 -8.27065,9.19037 -15.21049,-12.50412 -19.04148,-9.99185 2.42584,12.06506 -1.95716,19.57024 -14.29383,21.74882 -7.28382,4.89391 20.65478,2.82818 13.95768,15.53474 0.83876,8.6848 -6.55257,1.9052 -3.82504,19.08858 -10.23905,0.50379 -8.69515,-15.13091 -1.17097,-21.38534 3.00626,-8.23537 -18.38192,9.85129 -20.43437,-4.36257 -10.70164,-16.52962 -4.44983,4.10233 -8.73539,10.30521 -12.36423,4.18813 -20.498,8.2155 -2.88064,11.26428 9.30342,-0.0384 0.25067,29.13014 9.49085,14.55233 2.19465,-12.6791 24.66753,-6.63286 6.47735,-2.46185 11.03409,2.35653 20.37306,6.04666 17.70684,19.18169 0.96903,14.12482 7.67899,-14.91657 16.00111,-7.51215 -0.82444,14.19744 3.15911,13.43202 7.58945,7.93412 6.24645,12.86935 -15.00582,13.8391 -15.83836,18.1791 12.22404,1.42035 18.00627,7.9087 16.26763,20.31397 2.40449,8.44373 9.07561,-18.77136 19.0921,-8.47618 20.98499,10.06184 -4.86202,-12.62388 6.76351,-7.75536 13.43784,-1.90335 6.40103,19.02013 10.8434,20.14268 5.12957,-11.18577 13.08871,-14.6742 24.34713,-9.18751 8.78694,0.32874 -15.04914,-14.43843 -2.15958,-20.78439 13.95998,-15.52837 -12.87981,0.0964 1.88261,-14.13102 1.85536,-9.91183 27.57058,-1.0366 9.99102,1.24073 7.0785,3.06888 20.76627,4.70441 16.97819,17.74956 -16.72978,6.07407 3.19123,5.58946 8.10337,11.85201 8.05175,13.20246 -16.99013,15.5777 1.95928,18.7645 11.26475,-0.41363 6.61539,15.31381 4.80979,20.78993 -12.36449,4.18888 -20.49815,8.21594 -2.87844,11.25794 9.30126,-0.0359 0.24798,29.13282 9.48865,14.55866 4.13166,-12.65256 15.35298,-6.033 24.75023,-4.3719 -15.4487,-12.47972 8.25183,-8.96928 8.25452,0.87744 0.43796,4.55236 0.87603,9.10492 1.31392,13.65715 z M 262.49544,478.72179 c -2.63393,-2.37905 1.00597,-4.73177 0,0 z m 22.38404,-11.333 c -3.22262,-4.07873 4.49237,-14.03155 3.45465,-10.7816 -0.97088,3.79523 2.31112,10.20648 -3.45465,10.7816 z m 169.75855,-3.31077 c 2.13661,-4.29709 3.14443,-0.47592 0,0 z M 194.1427,453.32713 c 5.6514,-9.76654 12.04582,-17.51245 23.71508,-10.9138 13.71493,3.20825 -13.26224,-12.94806 -1.36623,-18.94995 11.65454,-13.70504 -0.12764,-8.96264 -10.51559,-5.31767 -6.88129,-7.95134 -15.66686,-21.08106 -12.69076,-2.22677 5.5595,10.4453 -25.56793,10.09276 -12.54796,14.66278 13.8441,0.15201 12.76441,12.03909 13.39005,22.58523 l 0.0154,0.16018 0,0 z m 176.21636,-8.57706 c 0.52979,-7.86775 14.66548,-22.38893 15.17571,-7.7863 -2.46365,3.84489 -10.82207,5.10079 -15.17571,7.7863 z m 76.07482,-3.79283 c 0.82922,-3.42146 1.66014,0.55951 0,0 z m -48.12433,-6.07579 c -6.21612,-10.58139 -14.8838,-11.15926 -15.0666,-17.22325 8.12402,-18.55427 3.29988,13.9046 11.46776,-3.64099 0.86533,10.10287 0.62436,24.11123 8.9404,7.91172 0.52517,5.27681 4.49687,12.88695 -5.34156,12.95252 z m -35.85449,-2.31026 c -13.56003,-8.79126 -5.22235,-16.51562 -0.2964,-3.0881 l 0.16194,1.68716 0.13446,1.40094 0,0 z m 10.97828,-2.59222 c 0.006,-1.75509 3.82399,0.33223 0,0 z m 1.88277,-22.02023 c -11.48645,-8.67515 6.12765,-3.41807 0,0 z m -19.30976,-10.29611 c 0.98468,-4.26827 -12.93186,-16.32574 -12.56119,-8.99609 1.22544,16.17473 -19.0729,-2.68021 -4.91041,-8.44236 9.63046,-15.55741 11.16547,14.58454 14.94643,4.2885 9.14368,-11.84776 3.28995,-2.6675 9.62876,-5.05925 6.67093,9.52705 11.37361,-1.86797 12.67679,12.54721 -4.4235,2.59509 -11.53203,1.25751 -17.83403,5.0721 l -1.62206,0.4916 -0.3243,0.0983 10e-6,0 z m 65.74232,-1.07327 c 3.54501,-10.55804 5.60779,0.50114 0,0 z m -7.98585,-2.0283 c -7.45416,-8.46282 13.4979,-19.35598 10.75788,-3.76624 -2.48036,1.92518 -7.39119,2.41388 -10.75788,3.76624 z m -12.71552,-9.40475 c -5.88745,-4.94965 6.99529,-19.68841 13.25215,-14.48002 16.41588,2.91702 -20.1463,7.85086 1.47348,10.56898 -6.28368,2.39945 -9.0622,1.98494 -14.72563,3.91104 z m 59.53009,-0.95503 c -10.27918,-9.45899 0.21773,-14.09741 0,0 l 0,0 z m -63.3593,-3.73825 c -3.13149,-3.08572 1.00886,-5.63043 0,0 z m 117.75953,-4.0657 c 5.65759,-9.7607 12.05797,-17.50065 23.72555,-10.91096 13.71485,3.2007 -13.27817,-12.95068 -1.37284,-18.95052 11.66279,-13.69664 -0.12357,-8.95814 -10.51036,-5.31994 -6.8812,-7.95134 -15.66512,-21.08103 -12.69696,-2.22689 5.55213,10.44357 -25.56785,10.10499 -12.55002,14.66962 13.84631,0.14405 12.76239,12.03423 13.38922,22.57851 l 0.0154,0.16018 0,0 z m -92.82874,-9.13188 c -1.57254,-2.3927 4.35678,-0.0513 0,0 z m -31.7979,-0.69126 c -10.47197,-10.31642 15.1074,0.0277 0,0 z m 30.79739,-0.74583 c -0.25452,-0.17321 0.084,-0.11518 0,0 z m 33.88076,-0.89136 c 5.3013,-17.06232 11.03981,-2.86675 0,0 z m -38.56495,-5.83022 c 2.89938,-10.98288 8.07319,-3.11957 0,0 z m -128.97429,-2.17383 c -11.50376,-8.46317 1.1677,-20.9076 -0.29253,-3.04734 l 0.16196,1.68716 0.13057,1.36018 0,0 z m 258.9218,-2.87418 c 5.65775,-9.7614 12.05808,-17.50113 23.72417,-10.90472 13.71667,3.20737 -13.2748,-12.95749 -1.37146,-18.95676 11.66279,-13.69664 -0.12357,-8.95814 -10.51036,-5.31994 -6.88311,-7.94995 -15.66666,-21.06948 -12.69696,-2.2178 5.55385,10.44534 -25.56956,10.09289 -12.55085,14.6629 13.84388,0.15203 12.76478,12.03906 13.39091,22.58514 l 0.0145,0.15118 0,0 z m -150.91265,-2.50126 c -1.44169,-5.49106 3.75795,-2.94866 0,0 z m -79.84946,-0.58212 c -10.73704,-4.25158 -6.53152,-28.17299 -1.27842,-13.31146 0.42614,4.43715 0.85228,8.87431 1.27842,13.31146 z m 43.97678,-0.55482 c -11.66891,-5.42264 -1.63796,-16.48176 0.0627,-3.15679 l -0.0337,1.69458 -0.0291,1.46221 0,0 z m 49.68876,-2.58313 c -9.94341,-6.76686 10.75296,-0.40542 0,0 z m -16.4083,0 c -9.51579,-12.17126 13.68032,-4.44181 0,0 z m 11.72411,-5.29358 c -15.6066,-10.16999 3.80105,-11.17677 8.05862,-3.50177 -2.68621,1.16726 -5.37241,2.33451 -8.05862,3.50177 z m -7.93128,-0.74583 c -5.15529,-4.25433 2.3566,-11.5696 0,0 z m -38.8651,-6.67611 c 5.32631,-6.91099 7.71215,-1.77325 0,0 z m 54.0455,-4.53865 c -0.54,-0.32549 0.18685,-0.25489 0,0 z m -63.29564,-0.31835 c -6.88042,-6.29694 0.62531,-5.79586 0,0 z m 275.82126,-7.82213 c 5.6519,-9.764 12.04945,-17.50072 23.71645,-10.91096 13.71283,3.20162 -13.26525,-12.95126 -1.36617,-18.95196 11.659,-13.70005 -0.13548,-8.95363 -10.51703,-5.3185 -6.8832,-7.94995 -15.66839,-21.06951 -12.69076,-2.21768 5.55989,10.44417 -25.56883,10.09538 -12.54713,14.6604 13.84631,0.14405 12.7624,12.03423 13.38923,22.57851 l 0.0154,0.16019 0,0 z m -215.10875,-3.73826 c 1.56324,-5.9544 7.14834,-1.12863 0,0 z m -97.85856,-0.8004 c 4.44968,-8.58295 5.64211,-1.26651 0,0 z m -134.23149,-0.80041 c 5.65136,-9.76639 12.04579,-17.51234 23.71538,-10.91519 13.73306,3.21416 -13.26362,-12.94118 -1.36653,-18.94856 11.65454,-13.70504 -0.12764,-8.96264 -10.51559,-5.31767 -6.88128,-7.95135 -15.66683,-21.08106 -12.69075,-2.22677 5.55949,10.44531 -25.56794,10.09276 -12.54797,14.66278 13.8441,0.15201 12.76441,12.03909 13.39005,22.58523 l 0.0154,0.16018 0,0 z m 168.56703,-2.14654 c 0.45444,-3.96584 2.19597,0.46041 0,0 z m 66.98841,-0.75492 c -1.4964,-0.48033 1.32764,-3.15133 0,0 z m -90.40934,-3.91107 c -6.55116,-4.43311 2.02234,-6.62852 0,0 z m 12.74281,-0.38201 c -2.2016,-1.37041 2.9492,-0.0455 0,0 z m 165.25627,-22.03842 c 5.65136,-9.76639 12.04579,-17.51234 23.71538,-10.91519 13.73306,3.21416 -13.26363,-12.94118 -1.36654,-18.94856 11.65454,-13.70504 -0.12764,-8.96264 -10.51559,-5.31767 -6.87787,-7.95455 -15.65501,-21.08097 -12.68787,-2.22689 5.55385,10.44534 -25.56956,10.09289 -12.55085,14.6629 13.8441,0.15201 12.76442,12.03909 13.39006,22.58523 l 0.0154,0.16018 0,0 z M 371.86891,262.13958 c 5.65759,-9.7607 12.05796,-17.50066 23.72555,-10.91097 13.71432,3.2004 -13.27671,-12.94982 -1.37451,-18.9515 4.57455,-9.267 10.02863,-19.85193 21.63867,-12.84365 16.97029,5.26873 -9.91036,-10.99707 -0.57034,-17.13045 11.33709,-13.64411 3.05007,-11.85358 -9.25919,-6.8995 -6.28847,-4.99768 -15.89437,-22.32415 -13.05556,-3.79168 6.63463,11.61692 -21.63088,11.16273 -14.18151,15.80012 10.03953,-0.78772 20.20588,11.95148 11.12632,17.65839 -9.48166,5.6253 -14.76849,-10.50472 -20.26863,-13.88381 5.4383,-9.00019 15.20989,-21.40711 -1.80362,-12.75626 -8.21383,8.50841 -17.50628,-21.19419 -17.82297,-7.39997 7.61171,9.22597 -14.41684,22.81569 -8.75547,12.718 10.54719,-14.84706 -13.14425,5.68808 -16.30748,-5.01127 -9.4721,-14.9967 -10.335,-6.58195 -9.42064,6.6658 -7.34208,2.04966 -18.98546,14.15165 -24.47498,3.66281 -9.42817,-15.32173 -8.56099,-2.63807 -8.31332,8.36042 -9.68917,4.08656 -24.88477,8.38373 -6.03442,11.37866 11.65066,-2.05777 1.69812,27.43489 10.06896,16.46624 4.42393,-13.11693 15.3962,-8.41887 25.61955,-5.75826 -5.1479,-6.30511 -14.75749,-18.45473 -3.04879,-22.35103 11.8126,-2.17748 1.84231,27.47123 10.20283,16.50751 10.09067,-0.59695 20.71654,5.62358 17.81737,18.01892 1.18905,14.04232 8.21266,-16.61529 17.59977,-7.15629 17.51595,8.89635 2.96128,-10.06769 15.25392,0.57633 0.54613,5.67712 1.09254,11.35449 1.63849,17.03144 z m -154.18703,-6.97626 c 5.65139,-9.76654 12.04581,-17.51246 23.71507,-10.91381 13.71695,3.20734 -13.27514,-12.94748 -1.37289,-18.94851 11.65833,-13.70164 -0.11573,-8.96715 -10.50893,-5.3191 -11.15525,-4.85803 -8.41123,-21.92327 4.14454,-16.92179 16.63234,6.85814 8.47364,-2.88864 1.80392,-11.6381 5.43498,-9.00191 15.21006,-21.41853 -1.80188,-12.75969 -8.21677,8.51588 -17.50451,-21.19839 -17.8247,-7.40565 4.14116,13.21382 -7.501,15.85751 -17.33706,19.71075 9.06147,2.84664 20.50141,4.78145 17.39509,17.5666 3.01636,10.03639 0.48995,18.08954 -11.61297,20.1268 -12.98389,5.46697 18.3361,2.68461 12.24232,14.53213 0.38583,3.99013 0.77166,7.98025 1.15749,11.97037 z m 214.54482,-0.41839 c 5.65709,-9.76324 12.05433,-17.51239 23.72417,-10.91381 13.71695,3.20734 -13.27514,-12.94749 -1.37289,-18.94852 11.65833,-13.70164 -0.11574,-8.96714 -10.50893,-5.3191 -6.8812,-7.95134 -15.66513,-21.08104 -12.69697,-2.2269 5.55386,10.44535 -25.56956,10.09292 -12.55084,14.66292 13.84409,0.15199 12.76441,12.03908 13.39005,22.58522 l 0.0154,0.16019 0,0 z M 358.65314,235.5625 c -6.20791,-9.28714 15.36989,-21.19996 12.25165,-5.32996 -4.08388,1.77665 -8.16777,3.55331 -12.25165,5.32996 z m 214.65397,-2.29206 c 5.65186,-9.76385 12.04942,-17.50062 23.71676,-10.91236 13.73096,3.20754 -13.26665,-12.94437 -1.36648,-18.95056 11.65901,-13.70003 -0.13549,-8.95362 -10.51703,-5.31852 -6.8832,-7.94995 -15.66835,-21.06951 -12.69088,-2.21768 5.54793,10.43608 -25.56694,10.0963 -12.54701,14.66042 13.84631,0.14405 12.7624,12.03423 13.38923,22.57851 l 0.0154,0.16019 0,0 z m -252.48218,-1.26428 c 2.58558,-12.45349 23.39605,-6.22555 5.12905,-2.23367 -1.70968,0.74456 -3.41937,1.48911 -5.12905,2.23367 z M 349.4212,221.4008 c -7.09027,-2.49518 -5.91038,-15.91663 0,0 z M 80.439762,220.66406 c 5.65139,-9.76654 12.045811,-17.51246 23.715068,-10.91381 13.717,3.20735 -13.275097,-12.94746 -1.37287,-18.94852 11.6583,-13.70164 -0.11575,-8.96714 -10.508928,-5.31908 -6.881288,-7.95134 -15.666856,-21.08108 -12.690752,-2.22678 5.559528,10.44531 -25.56793,10.09278 -12.547951,14.66278 13.844111,0.15198 12.764401,12.03908 13.39002,22.58521 l 0.01541,0.1602 0,0 z m 256.647928,-4.54775 c -4.24705,-3.18887 1.9536,-7.22595 0,0 z m -169.45837,-3.89287 c 5.65708,-9.76325 12.05431,-17.51241 23.72415,-10.91382 13.71695,3.20734 -13.27514,-12.94748 -1.37289,-18.94851 11.65833,-13.70165 -0.11573,-8.96715 -10.50893,-5.31909 -6.88119,-7.95135 -15.6651,-21.08104 -12.69697,-2.2269 5.55384,10.44534 -25.56957,10.09291 -12.55085,14.6629 13.84409,0.15198 12.76442,12.03907 13.39008,22.5852 l 0.0154,0.16022 0,0 z m 300.15171,-9.35929 c 5.65187,-9.76384 12.04944,-17.50061 23.71677,-10.91233 13.73096,3.20754 -13.26665,-12.94442 -1.36649,-18.9506 11.65902,-13.70004 -0.13548,-8.95361 -10.51702,-5.31849 -6.8832,-7.94994 -15.66837,-21.0695 -12.69088,-2.21767 5.54792,10.43607 -25.56694,10.09629 -12.54701,14.66041 13.84631,0.14404 12.76238,12.03423 13.38922,22.5785 l 0.0154,0.16018 0,0 z M 365.22919,179.41594 c 5.65136,-9.76639 12.04579,-17.51238 23.71538,-10.91521 13.73307,3.21416 -13.26362,-12.94114 -1.36654,-18.94854 11.65453,-13.70505 -0.12759,-8.96269 -10.51558,-5.31768 -6.88129,-7.95134 -15.66686,-21.08104 -12.69076,-2.22675 5.55949,10.44529 -25.56793,10.09275 -12.54796,14.66277 13.8441,0.152 12.76441,12.03909 13.39005,22.58522 l 0.0154,0.16019 0,0 z m -20.60132,-37.67359 c 5.65759,-9.76071 12.05796,-17.50066 23.72555,-10.91096 13.71485,3.20072 -13.27816,-12.95071 -1.37284,-18.95053 11.6628,-13.696643 -0.12358,-8.95813 -10.51036,-5.31994 -16.34087,-13.436117 6.68282,-2.83432 -5.69856,-15.663548 -12.19354,-5.497112 10.93676,-21.743519 2.18172,-21.117321 -11.07035,7.249619 -18.31741,0.997862 -24.60641,-8.637105 -3.71579,1.522725 3.2176,21.324448 -10.89125,20.02921 -18.85879,5.598379 9.18882,4.000837 8.81462,12.500257 -0.55697,15.599487 2.92093,16.952657 10.68242,3.181307 10.09695,-6.820759 10.17477,17.79033 -1.06131,16.36853 -19.02899,5.06557 2.52073,5.4964 7.09783,11.48866 0.5462,5.67715 1.09239,11.35429 1.63859,17.03144 z"
         id="path14294"
         inkscape:connector-curvature="0" />
      <path
         style="fill:none;stroke:#000000;stroke-width:0.29105622;stroke-miterlimit:4;stroke-opacity:1;stroke-dasharray:none"
         d="m 283.16044,660.75017 c -5.65202,-9.76455 -12.04953,-17.5011 -23.71537,-10.90609 -13.73277,3.2142 13.26328,-12.95121 1.3651,-18.95682 -11.659,-13.70004 0.13547,-8.95364 10.51702,-5.31851 6.87978,-7.95315 15.65656,-21.06941 12.68787,-2.21779 -5.55423,10.44419 25.57047,10.09551 12.55002,14.66052 -13.84631,0.14405 -12.7624,12.03423 -13.38923,22.57851 l -0.0154,0.16018 0,0 z m 129.71103,-46.04145 c -5.65709,-9.76324 -12.05433,-17.51239 -23.72417,-10.91381 -13.71695,3.20734 13.27514,-12.94749 1.37289,-18.94852 -11.65833,-13.70164 0.11574,-8.96714 10.50893,-5.3191 6.8812,-7.95134 15.66513,-21.08103 12.69697,-2.22689 -5.55386,10.44534 25.56956,10.09289 12.55085,14.6629 -13.8441,0.15201 -12.76443,12.03909 -13.39006,22.58523 l -0.0154,0.16019 0,0 z M 144.67225,593.11598 c -5.65186,-9.76385 -12.04943,-17.50061 -23.71676,-10.91235 -13.73096,3.20754 13.26664,-12.94437 1.36648,-18.95056 -11.659,-13.70005 0.13548,-8.95363 10.51703,-5.31851 6.8832,-7.94995 15.66839,-21.0695 12.69076,-2.21767 -5.55989,10.44417 25.56883,10.09538 12.54713,14.6604 -13.84631,0.14405 -12.7624,12.03423 -13.38923,22.57851 l -0.0154,0.16018 0,0 z m 247.30684,-25.76757 c -3.4443,-7.51065 -16.46192,-21.72763 -18.72516,-7.0722 3.20349,18.39739 -15.18624,-13.63675 -11.07323,-6.95294 -8.32662,1.15569 -25.59707,8.64034 -12.61169,-4.35061 12.19691,-5.50029 -10.93098,-21.74893 -2.17922,-21.12468 11.39543,6.18007 16.84559,2.34104 22.91013,-6.72044 4.39629,-8.42893 2.00142,22.03632 13.21463,7.23072 12.24484,-10.82333 -15.49421,2.22773 1.35287,-13.19053 10.63176,-5.18242 -14.74497,-23.20218 -1.52995,-19.24187 8.85198,8.82439 20.92545,-3.68081 20.62124,-7.95918 -15.11075,6.06782 -5.48475,-4.44494 -0.0463,-12.14636 -5.43831,-9.00016 -15.21008,-21.40655 1.80423,-12.75834 -6.23973,-10.15017 11.50736,3.47701 15.38512,-9.83835 3.90279,-2.32586 1.79573,11.68499 10.18812,-2.84344 -2.20927,-3.97956 21.28584,3.41997 6.68342,-11.46516 -11.96404,-15.62195 9.78502,2.16014 14.47972,-4.93671 -8.80069,0.23651 13.68989,-13.18772 3.36626,-20.23804 -11.65454,-13.70504 0.12764,-8.96264 10.51559,-5.31766 6.88129,-7.95134 15.66685,-21.08108 12.69076,-2.22678 -5.55779,10.44354 25.56621,10.10486 12.54713,14.6695 -13.84631,0.14405 -12.76239,12.03423 -13.38922,22.57851 -3.31431,-5.93641 -16.38987,-22.42683 -15.21969,-5.83151 1.11219,6.87605 27.85656,8.6717 9.28091,12.45359 -16.95298,-0.46086 -2.76033,18.86788 3.56722,5.97877 9.62075,-11.44283 -2.90264,17.80274 10.32032,15.81998 17.4881,4.22815 5.15724,7.32312 -5.38105,10.48622 -0.89366,10.47756 -0.28498,26.25857 -8.96221,9.25917 -1.64004,-11.72616 -26.62264,6.85844 -18.77229,-4.48922 4.82181,-10.11772 -10.05665,-15.90317 -17.90256,-8.35103 -3.6833,6.5293 0.17897,28.28775 -9.00797,10.98121 -4.46529,-3.24655 -1.56836,19.50884 -10.44897,0.63594 -7.83435,-13.61115 -12.31342,11.32904 -4.66179,13.73585 15.00571,4.29583 15.22106,8.02265 -0.27694,11.14495 -6.06528,3.28146 0.38405,29.11391 -8.91003,12.65237 -6.60412,-15.57656 -13.3144,1.2392 -7.31081,8.1968 12.36423,4.18813 20.49802,8.2155 2.88065,11.26428 -7.31372,0.77776 -3.19143,14.72547 -5.39928,19.96719 z m -178.39927,-0.24558 c -5.65759,-9.7607 -12.05797,-17.50065 -23.72555,-10.91096 -13.71487,3.2007 13.27817,-12.95068 1.37283,-18.95051 -11.6628,-13.69665 0.12357,-8.95814 10.51037,-5.31995 6.8812,-7.95134 15.66512,-21.08103 12.69696,-2.22689 -5.55212,10.44356 25.56785,10.10499 12.55002,14.66962 -13.84631,0.14405 -12.76239,12.03423 -13.38922,22.57851 l -0.0154,0.16018 0,0 z M 91.072432,555.46968 c -5.657594,-9.7607 -12.057968,-17.50065 -23.725553,-10.91096 -13.714846,3.2007 13.27817,-12.9507 1.372839,-18.95052 -11.662797,-13.69664 0.123579,-8.95813 10.510364,-5.31994 6.881202,-7.95134 15.665132,-21.08103 12.696966,-2.22689 -5.552124,10.44356 25.567852,10.10498 12.550022,14.66961 -13.846312,0.14405 -12.762397,12.03423 -13.389226,22.57851 l -0.01541,0.16019 0,0 z M 227.02297,530.98457 c -5.65186,-9.76385 -12.04943,-17.50061 -23.71676,-10.91235 -13.73096,3.20754 13.26666,-12.94437 1.36649,-18.95056 -11.659,-13.70004 0.13547,-8.95364 10.51702,-5.31851 6.8832,-7.94995 15.66839,-21.0695 12.69076,-2.21767 -3.05716,7.73164 19.44379,16.8317 17.78308,7.16049 -7.53981,-10.65749 -11.74718,-18.69397 4.29488,-10.80401 15.2676,-0.0723 -0.22412,-13.99816 -9.51389,-5.56335 -13.73276,3.2142 13.26328,-12.95121 1.3651,-18.95682 -12.62316,-16.54579 2.18472,-2.64328 8.25102,-11.05311 12.20421,-5.49904 -10.93534,-21.74668 -2.18518,-21.1219 10.44823,7.96314 19.86847,-8.3184 10.21231,-15.52213 -11.97052,-15.62097 9.77429,2.15377 14.47555,-4.93774 8.71667,-12.94666 12.33032,-12.00519 10.51867,3.70146 3.59262,11.73475 19.589,-7.19302 10.90019,-13.09836 -4.40821,-9.17808 -9.81677,-18.04073 -21.23049,-11.70404 -12.636,3.92332 11.63087,-16.88373 -9.89703,-7.00859 -3.28222,13.28011 -6.12486,5.6932 -13.52955,-4.10521 -10.24065,2.38813 -25.06666,7.84816 -11.58049,-5.65919 10.64159,-5.18279 -14.74502,-23.20013 -1.52627,-19.24228 11.2873,8.01578 17.40097,-2.23836 24.10771,-10.39817 -6.98673,8.35332 15.37164,17.91516 9.35371,9.34888 -12.63532,-16.37174 8.54439,2.24589 11.45233,-11.03153 -5.43519,-9.00225 -15.19766,-21.40938 1.81131,-12.75166 13.63215,-2.4681 -4.96213,-18.83408 -2.07209,-21.43768 8.15764,6.58394 22.63913,2.7096 21.54479,-4.36403 -14.49358,5.14077 -18.01724,2.93891 -6.91961,-9.0496 2.97752,-6.21926 -17.41917,-23.32513 -0.22415,-15.47099 9.8971,9.56161 16.71299,-11.239 21.00125,-9.8146 -2.76136,8.55975 2.68998,25.66017 12.05048,15.50828 11.71599,-17.40911 4.66576,1.07367 11.65233,6.73037 17.96523,7.73418 -0.12407,-18.60219 12.01123,-10.32849 7.55894,-1.22989 10.24698,6.74503 17.99107,-5.81076 10.64294,-14.2457 -1.56395,14.71293 9.60058,14.18825 17.19152,4.37157 9.44291,7.79538 -3.43078,11.02443 -3.05702,10.07559 13.32063,7.01298 14.13051,-2.68215 8.02005,-5.43491 -16.8609,-23.92624 -0.73469,-17.56992 10.77913,7.80393 15.96686,-4.13734 22.59039,-11.00827 -1.16387,11.22058 -0.52972,21.23692 12.77891,22.76428 12.99059,5.47534 -18.3438,2.67326 -12.24694,14.52681 0.0213,12.29272 -1.26395,13.46507 7.66695,17.32372 7.42022,0.12027 16.32057,-22.06955 13.82737,-1.9894 -3.18676,9.96849 15.54483,17.41845 19.05222,6.63313 11.5473,-16.78793 1.85199,8.17677 9.8267,11.50178 15.00554,4.29535 15.22118,8.02296 -0.27608,11.14742 -6.05051,3.29443 0.37557,29.10604 -8.91089,12.64989 -3.42421,-12.11525 -16.55663,-3.29625 -22.75331,-3.23488 -0.19375,-6.08952 -9.80256,-18.3482 -19.82499,-10.87207 -9.60998,4.3849 -10.29067,-10.97092 -16.2435,-10.16709 -5.31781,-7.39196 -26.24699,7.62381 -12.37849,-7.83433 -9.27117,-4.23266 -13.48548,9.3424 -10.8192,19.20893 8.27065,9.19037 15.21049,-12.50412 19.04148,-9.99185 -2.42584,12.06506 1.95716,19.57024 14.29383,21.74882 7.28382,4.89391 -20.65478,2.82818 -13.95768,15.53474 -0.83876,8.6848 6.55257,1.9052 3.82504,19.08858 10.23905,0.50379 8.69515,-15.13091 1.17097,-21.38534 -3.00626,-8.23537 18.38192,9.85129 20.43437,-4.36257 10.70164,-16.52962 4.44983,4.10233 8.73539,10.30521 12.36423,4.18813 20.498,8.2155 2.88064,11.26428 -9.30342,-0.0384 -0.25067,29.13014 -9.49085,14.55233 -2.19465,-12.6791 -24.66753,-6.63286 -6.47735,-2.46185 -11.03409,2.35653 -20.37306,6.04666 -17.70684,19.18169 -0.96903,14.12482 -7.67899,-14.91657 -16.00111,-7.51215 0.82444,14.19744 -3.15911,13.43202 -7.58945,7.93412 -6.24645,12.86935 15.00582,13.8391 15.83836,18.1791 -12.22404,1.42035 -18.00627,7.9087 -16.26763,20.31397 -2.40449,8.44373 -9.07561,-18.77136 -19.0921,-8.47618 -20.98499,10.06184 4.86202,-12.62388 -6.76351,-7.75536 -13.43784,-1.90335 -6.40103,19.02013 -10.8434,20.14268 -5.12957,-11.18577 -13.08871,-14.6742 -24.34713,-9.18751 -8.78694,0.32874 15.04914,-14.43843 2.15958,-20.78439 -13.95998,-15.52837 12.87981,0.0964 -1.88261,-14.13102 -1.85536,-9.91183 -27.57058,-1.0366 -9.99102,1.24073 -7.0785,3.06888 -20.76627,4.70441 -16.97819,17.74956 16.72978,6.07407 -3.19123,5.58946 -8.10337,11.85201 -8.05175,13.20246 16.99013,15.5777 -1.95928,18.7645 -11.26475,-0.41363 -6.61539,15.31381 -4.80979,20.78993 12.36449,4.18888 20.49815,8.21594 2.87844,11.25794 -9.30126,-0.0359 -0.24798,29.13282 -9.48865,14.55866 -4.13166,-12.65256 -15.35298,-6.033 -24.75023,-4.3719 15.4487,-12.47972 -8.25183,-8.96928 -8.25452,0.87744 -0.43796,4.55236 -0.87603,9.10492 -1.31392,13.65715 z m 231.84448,-52.26278 c 2.63393,-2.37905 -1.00597,-4.73177 0,0 z m -22.38404,-11.333 c 3.22262,-4.07873 -4.49237,-14.03155 -3.45465,-10.7816 0.97088,3.79523 -2.31112,10.20648 3.45465,10.7816 z m -169.75855,-3.31077 c -2.13661,-4.29709 -3.14443,-0.47592 0,0 z m 260.49533,-10.75089 c -5.6514,-9.76654 -12.04582,-17.51245 -23.71508,-10.9138 -13.71493,3.20825 13.26224,-12.94806 1.36623,-18.94995 -11.65454,-13.70504 0.12764,-8.96264 10.51559,-5.31767 6.88129,-7.95134 15.66686,-21.08106 12.69076,-2.22677 -5.5595,10.4453 25.56793,10.09276 12.54796,14.66278 -13.8441,0.15201 -12.76441,12.03909 -13.39005,22.58523 l -0.0154,0.16018 0,0 z m -176.21636,-8.57706 c -0.52979,-7.86775 -14.66548,-22.38893 -15.17571,-7.7863 2.46365,3.84489 10.82207,5.10079 15.17571,7.7863 z m -76.07482,-3.79283 c -0.82922,-3.42146 -1.66014,0.55951 0,0 z m 48.12433,-6.07579 c 6.21612,-10.58139 14.8838,-11.15926 15.0666,-17.22325 -8.12402,-18.55427 -3.29988,13.9046 -11.46776,-3.64099 -0.86533,10.10287 -0.62436,24.11123 -8.9404,7.91172 -0.52517,5.27681 -4.49687,12.88695 5.34156,12.95252 z m 35.85449,-2.31026 c 13.56003,-8.79126 5.22235,-16.51562 0.2964,-3.0881 l -0.16194,1.68716 -0.13446,1.40094 0,0 z m -10.97828,-2.59222 c -0.005,-1.75509 -3.82399,0.33223 0,0 z m -1.88277,-22.02023 c 11.48645,-8.67515 -6.12765,-3.41807 0,0 z m 19.30976,-10.29611 c -0.98468,-4.26827 12.93186,-16.32574 12.56119,-8.99609 -1.22544,16.17473 19.0729,-2.68021 4.91041,-8.44236 -9.63046,-15.55741 -11.16547,14.58454 -14.94643,4.2885 -9.14368,-11.84776 -3.28995,-2.6675 -9.62876,-5.05925 -6.67093,9.52705 -11.37361,-1.86797 -12.67679,12.54721 4.4235,2.59509 11.53203,1.25751 17.83403,5.0721 l 1.62206,0.4916 0.3243,0.0983 -1e-5,0 z m -65.74232,-1.07327 c -3.54501,-10.55804 -5.60779,0.50114 0,0 z m 7.98585,-2.0283 c 7.45416,-8.46282 -13.4979,-19.35598 -10.75788,-3.76624 2.48036,1.92518 7.39119,2.41388 10.75788,3.76624 z m 12.71552,-9.40475 c 5.88745,-4.94965 -6.99529,-19.68841 -13.25215,-14.48002 -16.41588,2.91702 20.1463,7.85086 -1.47348,10.56898 6.28368,2.39945 9.0622,1.98494 14.72563,3.91104 z m -59.53009,-0.95503 c 10.27918,-9.45899 -0.21773,-14.09741 0,0 l 0,0 z m 63.3593,-3.73825 c 3.13149,-3.08572 -1.00886,-5.63043 0,0 z m -117.75953,-4.0657 c -5.65759,-9.7607 -12.05797,-17.50065 -23.72555,-10.91096 -13.71485,3.2007 13.27817,-12.95068 1.37284,-18.95052 -11.66279,-13.69664 0.12357,-8.95814 10.51036,-5.31994 6.8812,-7.95134 15.66512,-21.08103 12.69696,-2.22689 -5.55213,10.44357 25.56785,10.10499 12.55002,14.66962 -13.84631,0.14405 -12.76239,12.03423 -13.38922,22.57851 l -0.0154,0.16018 0,0 z m 92.82874,-9.13188 c 1.57254,-2.3927 -4.35678,-0.0513 0,0 z m 31.7979,-0.69126 c 10.47197,-10.31642 -15.1074,0.0277 0,0 z m -30.79739,-0.74583 c 0.25452,-0.17321 -0.084,-0.11518 0,0 z M 266.33376,364.937 c -5.3013,-17.06232 -11.03981,-2.86675 0,0 z m 38.56495,-5.83022 c -2.89938,-10.98288 -8.07319,-3.11957 0,0 z M 433.873,356.93295 c 11.50376,-8.46317 -1.1677,-20.9076 0.29253,-3.04734 l -0.16196,1.68716 -0.13057,1.36018 0,0 z m -258.9218,-2.87418 c -5.65775,-9.7614 -12.05808,-17.50113 -23.72417,-10.90472 -13.71667,3.20737 13.2748,-12.95749 1.37146,-18.95676 -11.66279,-13.69664 0.12357,-8.95814 10.51036,-5.31994 6.88311,-7.94995 15.66666,-21.06948 12.69696,-2.2178 -5.55385,10.44534 25.56956,10.09289 12.55085,14.6629 -13.84388,0.15203 -12.76478,12.03906 -13.39091,22.58514 l -0.0146,0.15118 0,0 z m 150.91265,-2.50126 c 1.44169,-5.49106 -3.75795,-2.94866 0,0 z m 79.84946,-0.58212 c 10.73704,-4.25158 6.53152,-28.17299 1.27842,-13.31146 -0.42614,4.43715 -0.85228,8.87431 -1.27842,13.31146 z m -43.97678,-0.55482 c 11.66891,-5.42264 1.63796,-16.48176 -0.0627,-3.15679 l 0.0337,1.69458 0.0291,1.46221 0,0 z m -49.68876,-2.58313 c 9.94341,-6.76686 -10.75296,-0.40542 0,0 z m 16.4083,0 c 9.51579,-12.17126 -13.68032,-4.44181 0,0 z m -11.72411,-5.29358 c 15.6066,-10.16999 -3.80105,-11.17677 -8.05862,-3.50177 2.68621,1.16726 5.37241,2.33451 8.05862,3.50177 z m 7.93128,-0.74583 c 5.15529,-4.25433 -2.3566,-11.5696 0,0 z m 38.8651,-6.67611 c -5.32631,-6.91099 -7.71215,-1.77325 0,0 z m -54.0455,-4.53865 c 0.54,-0.32549 -0.18685,-0.25489 0,0 z m 63.29564,-0.31835 c 6.88042,-6.29694 -0.62531,-5.79586 0,0 z M 96.957222,322.44279 c -5.651895,-9.764 -12.04945,-17.50072 -23.716453,-10.91096 -13.712827,3.20162 13.265257,-12.95126 1.366176,-18.95196 -11.659001,-13.70005 0.13548,-8.95363 10.517027,-5.3185 6.883199,-7.94995 15.668388,-21.06951 12.690755,-2.21768 -5.559884,10.44416 25.568833,10.09538 12.547133,14.6604 -13.846312,0.14405 -12.762397,12.03423 -13.389226,22.57851 l -0.01541,0.16019 0,0 z m 215.108748,-3.73826 c -1.56324,-5.9544 -7.14834,-1.12863 0,0 z m 97.85856,-0.8004 c -4.44968,-8.58295 -5.64211,-1.26651 0,0 z m 134.23149,-0.80041 c -5.65136,-9.76639 -12.04579,-17.51234 -23.71538,-10.91519 -13.73306,3.21416 13.26362,-12.94118 1.36653,-18.94856 -11.65454,-13.70504 0.12764,-8.96264 10.51559,-5.31767 6.88128,-7.95135 15.66683,-21.08106 12.69075,-2.22677 -5.55949,10.44531 25.56794,10.09276 12.54797,14.66278 -13.8441,0.15201 -12.76441,12.03909 -13.39005,22.58523 l -0.0154,0.16018 0,0 z m -168.56703,-2.14654 c -0.45444,-3.96584 -2.19597,0.46041 0,0 z m -66.98841,-0.75492 c 1.4964,-0.48033 -1.32764,-3.15133 0,0 z m 90.40934,-3.91107 c 6.55116,-4.43311 -2.02234,-6.62852 0,0 z m -12.74281,-0.38201 c 2.2016,-1.37041 -2.9492,-0.0455 0,0 z M 221.01084,287.87076 c -5.65136,-9.76639 -12.04579,-17.51234 -23.71538,-10.91519 -13.73306,3.21416 13.26363,-12.94118 1.36654,-18.94856 -11.65454,-13.70504 0.12764,-8.96264 10.51559,-5.31767 6.87787,-7.95455 15.65501,-21.08097 12.68787,-2.22689 -5.55385,10.44534 25.56956,10.09289 12.55085,14.6629 -13.8441,0.15201 -12.76442,12.03909 -13.39006,22.58523 l -0.0154,0.16018 0,0 z m 128.48314,-25.73118 c -5.65759,-9.7607 -12.05796,-17.50066 -23.72555,-10.91097 -13.71432,3.2004 13.27671,-12.94982 1.37451,-18.9515 -4.57455,-9.267 -10.02863,-19.85193 -21.63867,-12.84365 -16.97029,5.26873 9.91036,-10.99707 0.57034,-17.13045 -11.33709,-13.64411 -3.05007,-11.85358 9.25919,-6.8995 6.28847,-4.99768 15.89437,-22.32415 13.05556,-3.79168 -6.63463,11.61692 21.63088,11.16273 14.18151,15.80012 -10.03953,-0.78772 -20.20588,11.95148 -11.12632,17.65839 9.48166,5.6253 14.76849,-10.50472 20.26863,-13.88381 -5.4383,-9.00019 -15.20989,-21.40711 1.80362,-12.75626 8.21383,8.50841 17.50628,-21.19419 17.82297,-7.39997 -7.61171,9.22597 14.41684,22.81569 8.75547,12.718 -10.54719,-14.84706 13.14425,5.68808 16.30748,-5.01127 9.4721,-14.9967 10.335,-6.58195 9.42064,6.6658 7.34208,2.04966 18.98546,14.15165 24.47498,3.66281 9.42817,-15.32173 8.56099,-2.63807 8.31332,8.36042 9.68917,4.08656 24.88477,8.38373 6.03442,11.37866 -11.65066,-2.05777 -1.69812,27.43489 -10.06896,16.46624 -4.42393,-13.11693 -15.3962,-8.41887 -25.61955,-5.75826 5.1479,-6.30511 14.75749,-18.45473 3.04879,-22.35103 -11.8126,-2.17748 -1.84231,27.47123 -10.20283,16.50751 -10.09067,-0.59695 -20.71654,5.62358 -17.81737,18.01892 -1.18905,14.04232 -8.21266,-16.61529 -17.59977,-7.15629 -17.51595,8.89635 -2.96128,-10.06769 -15.25392,0.57633 -0.54613,5.67712 -1.09254,11.35449 -1.63849,17.03144 z m 154.18703,-6.97626 c -5.65139,-9.76654 -12.04581,-17.51246 -23.71507,-10.91381 -13.71695,3.20734 13.27514,-12.94748 1.37289,-18.94851 -11.65833,-13.70164 0.11573,-8.96715 10.50893,-5.3191 11.15525,-4.85803 8.41123,-21.92327 -4.14454,-16.92179 -16.63234,6.85814 -8.47364,-2.88864 -1.80392,-11.6381 -5.43498,-9.00191 -15.21006,-21.41853 1.80188,-12.75969 8.21677,8.51588 17.50451,-21.19839 17.8247,-7.40565 -4.14116,13.21382 7.501,15.85751 17.33706,19.71075 -9.06147,2.84664 -20.50141,4.78145 -17.39509,17.5666 -3.01636,10.03639 -0.48995,18.08954 11.61297,20.1268 12.98389,5.46697 -18.3361,2.68461 -12.24232,14.53213 -0.38583,3.99013 -0.77166,7.98025 -1.15749,11.97037 z m -214.54482,-0.41839 c -5.65709,-9.76324 -12.05433,-17.51239 -23.72417,-10.91381 -13.71695,3.20734 13.27514,-12.94749 1.37289,-18.94852 -11.65833,-13.70164 0.11574,-8.96714 10.50893,-5.3191 6.8812,-7.95134 15.66513,-21.08104 12.69697,-2.2269 -5.55386,10.44535 25.56956,10.09292 12.55084,14.66292 -13.84409,0.15199 -12.76441,12.03908 -13.39005,22.58522 l -0.0154,0.16019 0,0 z m 73.57356,-19.18243 c 6.20791,-9.28714 -15.36989,-21.19996 -12.25165,-5.32996 4.08388,1.77665 8.16777,3.55331 12.25165,5.32996 z m -214.65397,-2.29206 c -5.65186,-9.76385 -12.04942,-17.50062 -23.71676,-10.91236 -13.73096,3.20754 13.26665,-12.94437 1.36648,-18.95056 -11.65901,-13.70003 0.13549,-8.95362 10.51703,-5.31852 6.8832,-7.94995 15.66835,-21.06951 12.69088,-2.21768 -5.54793,10.43608 25.56694,10.0963 12.54701,14.66042 -13.84631,0.14405 -12.7624,12.03423 -13.38923,22.57851 l -0.0154,0.16019 0,0 z m 252.48218,-1.26428 c -2.58558,-12.45349 -23.39605,-6.22555 -5.12905,-2.23367 1.70968,0.74456 3.41937,1.48911 5.12905,2.23367 z M 371.94169,221.4008 c 7.09027,-2.49518 5.91038,-15.91663 0,0 z m 268.98144,-0.73674 c -5.65139,-9.76654 -12.04581,-17.51246 -23.71507,-10.91381 -13.717,3.20736 13.2751,-12.94746 1.37287,-18.94852 -11.6583,-13.70164 0.11575,-8.96714 10.50893,-5.31908 6.88129,-7.95134 15.66686,-21.08108 12.69075,-2.22678 -5.55953,10.44531 25.56793,10.09278 12.54795,14.66278 -13.84411,0.15198 -12.7644,12.03908 -13.39002,22.58521 l -0.0154,0.1602 0,0 z M 384.2752,216.11631 c 4.24705,-3.18887 -1.9536,-7.22595 0,0 z m 169.45837,-3.89287 c -5.65708,-9.76325 -12.05431,-17.51241 -23.72415,-10.91382 -13.71695,3.20734 13.27514,-12.94748 1.37289,-18.94851 -11.65833,-13.70165 0.11573,-8.96715 10.50893,-5.31909 6.88119,-7.95135 15.6651,-21.08104 12.69697,-2.2269 -5.55384,10.44534 25.56957,10.09291 12.55085,14.6629 -13.84409,0.15198 -12.76442,12.03907 -13.39008,22.5852 l -0.0154,0.16022 0,0 z m -300.15171,-9.35929 c -5.65187,-9.76384 -12.04944,-17.50061 -23.71677,-10.91233 -13.73096,3.20754 13.26665,-12.94442 1.36649,-18.9506 -11.65902,-13.70004 0.13548,-8.95361 10.51702,-5.31849 6.8832,-7.94994 15.66837,-21.0695 12.69088,-2.21767 -5.54792,10.43607 25.56694,10.09629 12.54701,14.66041 -13.84631,0.14404 -12.76238,12.03423 -13.38922,22.5785 l -0.0154,0.16018 0,0 z M 356.1337,179.41594 c -5.65136,-9.76639 -12.04579,-17.51238 -23.71538,-10.91521 -13.73307,3.21416 13.26362,-12.94114 1.36654,-18.94854 -11.65453,-13.70505 0.12759,-8.96269 10.51558,-5.31768 6.88129,-7.95134 15.66686,-21.08104 12.69076,-2.22675 -5.55949,10.44529 25.56793,10.09275 12.54796,14.66277 -13.8441,0.152 -12.76441,12.03909 -13.39005,22.58522 l -0.0154,0.16019 0,0 z m 20.60132,-37.67359 c -5.65759,-9.76071 -12.05796,-17.50066 -23.72555,-10.91096 -13.71485,3.20072 13.27816,-12.95071 1.37284,-18.95053 -11.6628,-13.696643 0.12358,-8.95813 10.51036,-5.31994 16.34087,-13.436117 -6.68282,-2.83432 5.69856,-15.663548 12.19354,-5.497112 -10.93676,-21.743519 -2.18172,-21.117321 11.07035,7.249619 18.31741,0.997862 24.60641,-8.637105 3.71579,1.522725 -3.2176,21.324448 10.89125,20.02921 18.85879,5.598379 -9.18882,4.000837 -8.81462,12.500257 0.55697,15.599487 -2.92093,16.952657 -10.68242,3.181307 -10.09695,-6.820759 -10.17477,17.79033 1.06131,16.36853 19.02899,5.06557 -2.52073,5.4964 -7.09783,11.48866 -0.5462,5.67715 -1.09239,11.35429 -1.63859,17.03144 z"
         id="path14296"
         inkscape:connector-curvature="0" />
    </g>
  </g>
</svg>
