<?xml version="1.0" encoding="UTF-8" standalone="no"?>
<!-- Created with Inkscape (http://www.inkscape.org/) -->

<svg
   xmlns:dc="http://purl.org/dc/elements/1.1/"
   xmlns:cc="http://creativecommons.org/ns#"
   xmlns:rdf="http://www.w3.org/1999/02/22-rdf-syntax-ns#"
   xmlns:svg="http://www.w3.org/2000/svg"
   xmlns="http://www.w3.org/2000/svg"
   xmlns:sodipodi="http://sodipodi.sourceforge.net/DTD/sodipodi-0.dtd"
   xmlns:inkscape="http://www.inkscape.org/namespaces/inkscape"
   width="744.09448819"
   height="1052.3622047"
   id="svg2"
   version="1.1"
   inkscape:version="0.48.2 r9819"
   sodipodi:docname="topo001.svg">
  <sodipodi:namedview
     id="base"
     pagecolor="#ffffff"
     bordercolor="#666666"
     borderopacity="1.0"
     inkscape:pageopacity="0.0"
     inkscape:pageshadow="2"
     inkscape:zoom="0.67565852"
     inkscape:cx="236.49676"
     inkscape:cy="870.34345"
     inkscape:document-units="px"
     inkscape:current-layer="layer1"
     showgrid="false"
     inkscape:window-width="805"
     inkscape:window-height="637"
     inkscape:window-x="199"
     inkscape:window-y="87"
     inkscape:window-maximized="0" />
  <defs
     id="defs4" />
  <metadata
     id="metadata7">
    <rdf:RDF>
      <cc:Work
         rdf:about="">
        <dc:format>image/svg+xml</dc:format>
        <dc:type
           rdf:resource="http://purl.org/dc/dcmitype/StillImage" />
        <dc:title></dc:title>
      </cc:Work>
    </rdf:RDF>
  </metadata>
  <g
     inkscape:label="Layer 1"
     inkscape:groupmode="layer"
     id="layer1">
    <path
       style="fill:none;stroke:#000000;stroke-width:1px;stroke-linecap:butt;stroke-linejoin:miter;stroke-opacity:1"
       d="m 29.600752,72.577305 553.534058,0"
       id="path8220"
       inkscape:connector-curvature="0" />
    <path
       inkscape:connector-curvature="0"
       id="path8222"
       d="m 29.600752,74.577305 c 147.140398,0 2.216277,5.510651 441.421208,0 l 112.11285,0"
       style="fill:none;stroke:#000000;stroke-width:1px;stroke-linecap:butt;stroke-linejoin:miter;stroke-opacity:1"
       sodipodi:nodetypes="ccc" />
    <path
       sodipodi:nodetypes="ccc"
       style="fill:none;stroke:#000000;stroke-width:1px;stroke-linecap:butt;stroke-linejoin:miter;stroke-opacity:1"
       d="m 29.600752,74.577305 c 147.140398,0 2.216277,5.510651 441.421208,0 l 112.11285,0"
       id="path8224"
       inkscape:connector-curvature="0" />
    <path
       sodipodi:nodetypes="cscc"
       style="fill:none;stroke:#000000;stroke-width:1px;stroke-linecap:butt;stroke-linejoin:miter;stroke-opacity:1"
       d="m 29.600752,76.577305 c 149.427098,1.307698 11.025638,7.51438 374.819448,0.803787 20.56547,-0.379354 42.72124,-0.504161 66.60176,-0.803787 l 112.11285,0"
       id="path8228"
       inkscape:connector-curvature="0" />
    <path
       inkscape:connector-curvature="0"
       id="path8247"
       d="m 28.554207,78.240211 c 149.427103,1.307698 -5.405389,13.567916 374.819453,0.803787 20.55739,-0.690111 42.72124,-0.504161 66.60176,-0.803787 l 59.31452,0 c 17.59944,5.038589 35.19889,0 52.79833,0"
       style="fill:none;stroke:#000000;stroke-width:1px;stroke-linecap:butt;stroke-linejoin:miter;stroke-opacity:1"
       sodipodi:nodetypes="csccc" />
    <path
       sodipodi:nodetypes="cssccsc"
       style="fill:none;stroke:#000000;stroke-width:1px;stroke-linecap:butt;stroke-linejoin:miter;stroke-opacity:1"
       d="m 28.554207,80.240211 c 149.427103,0.255756 -4.109851,25.160059 374.819453,0.803787 15.68505,-1.008181 33.49952,-1.078814 52.6617,-0.672654 4.57946,0.09707 9.22678,-0.072 13.94006,-0.131133 15.25408,4.517431 39.50372,0.03929 59.31452,0 5.01306,4.324434 13.47606,4.514127 23.60735,2.873541 9.58409,-1.551975 20.17646,-2.841296 29.19098,-2.873541"
       id="path8249"
       inkscape:connector-curvature="0" />
    <path
       inkscape:connector-curvature="0"
       id="path8251"
       d="m 28.554207,82.240211 c 149.427103,0.255756 -3.682308,31.086819 374.819453,0.803787 15.35459,-1.228485 28.58278,-4.356644 52.6617,-0.672654 4.5278,0.692738 9.22678,-0.072 13.94006,-0.131133 12.27522,7.49629 38.85567,0.687343 59.31452,0 3.23287,4.809942 -4.05661,9.295765 23.60735,2.873541 9.45743,-2.195554 20.17646,-2.841296 29.19098,-2.873541"
       style="fill:none;stroke:#000000;stroke-width:1px;stroke-linecap:butt;stroke-linejoin:miter;stroke-opacity:1"
       sodipodi:nodetypes="cssccsc" />
    <path
       sodipodi:nodetypes="csssccsc"
       style="fill:none;stroke:#000000;stroke-width:1px;stroke-linecap:butt;stroke-linejoin:miter;stroke-opacity:1"
       d="m 28.554207,84.240211 c 123.845043,0.21197 67.480858,35.088139 208.964703,15.327886 40.27128,-5.624463 94.2545,-7.454704 165.85475,-14.524099 15.06252,-1.487186 5.14987,-6.159175 52.6617,-0.672654 4.55025,0.525449 9.22678,-0.072 13.94006,-0.131133 2.70812,10.685322 14.35502,8.854227 59.31452,0 0.95946,6.173988 -19.54079,18.586279 23.60735,2.873541 9.12287,-3.322163 20.17646,-2.841296 29.19098,-2.873541"
       id="path8253"
       inkscape:connector-curvature="0" />
    <path
       inkscape:connector-curvature="0"
       id="path8255"
       d="m 28.554207,86.240211 c 123.845043,0.21197 85.981323,35.828159 227.465173,16.067909 40.27128,-5.624467 72.79395,-5.974671 144.3942,-13.044066 15.06252,-1.487186 8.10995,-8.379231 55.62178,-2.89271 4.55025,0.525449 9.22678,-0.072 13.94006,-0.131133 -13.01417,13.104136 4.74444,10.332778 59.31452,0 0.43403,6.474237 -31.30218,25.307079 23.60735,2.873541 8.98777,-3.671993 20.17646,-2.841296 29.19098,-2.873541"
       style="fill:none;stroke:#000000;stroke-width:1px;stroke-linecap:butt;stroke-linejoin:miter;stroke-opacity:1"
       sodipodi:nodetypes="csssccsc" />
    <path
       sodipodi:nodetypes="csssccsc"
       style="fill:none;stroke:#000000;stroke-width:1px;stroke-linecap:butt;stroke-linejoin:miter;stroke-opacity:1"
       d="m 28.554207,88.240211 c 123.845043,0.21197 93.282623,47.685399 233.385323,19.767999 36.8389,-7.34066 66.76195,-9.793797 138.47405,-16.744156 15.07939,-1.461499 13.83972,-6.571728 55.62178,-2.89271 4.56283,0.401769 9.22678,-0.072 13.94006,-0.131133 -29.98183,14.316119 -5.56059,11.068851 59.31452,0 0.27073,6.855281 -36.44105,37.297789 23.60735,2.873541 8.42301,-4.828703 20.17646,-2.841296 29.19098,-2.873541"
       id="path8257"
       inkscape:connector-curvature="0" />
    <path
       inkscape:connector-curvature="0"
       id="path8259"
       d="m 28.554207,90.240211 c 123.845043,0.21197 61.482065,55.635539 233.385323,19.767999 36.77126,-7.67231 62.91047,-8.62927 134.77396,-13.784081 12.11807,-0.869236 10.94105,-8.21205 59.32187,-5.852785 4.57505,0.2231 9.22678,-0.072 13.94006,-0.131133 -48.46659,31.260489 -8.44013,13.708429 59.31452,0 0.27073,7.072345 -36.44105,51.530559 23.60735,2.873541 7.54337,-6.112367 20.17646,-2.841296 29.19098,-2.873541"
       style="fill:none;stroke:#000000;stroke-width:1px;stroke-linecap:butt;stroke-linejoin:miter;stroke-opacity:1"
       sodipodi:nodetypes="csssccsc" />
    <path
       sodipodi:nodetypes="cssssccsc"
       style="fill:none;stroke:#000000;stroke-width:1px;stroke-linecap:butt;stroke-linejoin:miter;stroke-opacity:1"
       d="m 28.554207,92.240211 c 4.128474,0.02571 14.507753,1.16387 37.486551,3.043786 75.045792,6.139563 42.288972,66.155783 195.898772,16.724213 35.75732,-11.50669 62.76258,-11.48323 134.77396,-13.784081 13.02426,-0.41614 13.76408,-6.800537 59.32187,-5.852785 4.5795,0.09527 9.22678,-0.072 13.94006,-0.131133 -59.66805,52.263229 -12.20937,20.775759 59.31452,0 0.28953,7.279117 -34.62983,71.453959 23.60735,2.873541 6.28446,-7.400611 20.17646,-2.841296 29.19098,-2.873541"
       id="path8261"
       inkscape:connector-curvature="0" />
    <path
       inkscape:connector-curvature="0"
       id="path8263"
       d="m 28.554207,94.240211 c 4.212534,-0.05835 16.176042,-0.504419 37.486551,3.043786 74.274032,12.366643 43.688972,70.311783 195.898772,16.724213 25.15444,-8.85597 62.76258,-11.48324 134.77396,-13.78408 13.02426,-0.416139 1.04913,-0.443065 59.32187,-5.852786 4.56088,-0.423407 9.22678,-0.072 13.94006,-0.131133 -59.66805,68.873269 -12.20937,33.667089 59.31452,0 0.69157,8.183719 -23.30357,89.043979 23.60735,2.873541 4.41883,-8.116924 12.11209,-1.228423 29.19098,-2.873541"
       style="fill:none;stroke:#000000;stroke-width:1px;stroke-linecap:butt;stroke-linejoin:miter;stroke-opacity:1"
       sodipodi:nodetypes="cssssccsc" />
    <path
       sodipodi:nodetypes="cssssccsc"
       style="fill:none;stroke:#000000;stroke-width:1px;stroke-linecap:butt;stroke-linejoin:miter;stroke-opacity:1"
       d="m 28.554207,96.240211 c 3.06774,0.227849 10.127948,1.007605 37.486551,3.043786 75.088842,5.588533 39.511222,93.008453 195.898772,16.724213 23.96836,-11.69152 62.75455,-11.74988 134.77396,-13.78408 13.04806,-0.36854 4.74593,6.95054 59.32187,-5.852786 4.45942,-1.046165 9.22678,-0.072 13.94006,-0.131133 -54.54998,80.263359 -9.61524,39.669809 59.31452,0 2.38534,9.538739 -15.87391,94.977959 23.60735,2.873541 3.63976,-8.491063 -2.01738,6.845558 29.19098,-2.873541"
       id="path8265"
       inkscape:connector-curvature="0" />
    <path
       inkscape:connector-curvature="0"
       id="path8267"
       d="m 28.554207,98.240211 c 3.06774,0.227849 7.907891,2.487649 35.266495,4.523829 75.088838,5.58853 84.454448,107.48503 182.578438,30.04455 20.93381,-16.52119 79.7964,-43.354428 150.31435,-28.58446 9.2165,1.93039 -1.19111,10.51276 59.32187,-5.852786 4.42164,-1.195819 9.22678,-0.072 13.94006,-0.131133 -49.21321,85.189609 9.07478,60.622229 59.31452,3.700089 3.74618,10.62742 3.97342,104.19581 27.30744,-0.82655 2.00368,-9.018215 -9.9088,29.89786 25.49089,-2.873539"
       style="fill:none;stroke:#000000;stroke-width:1px;stroke-linecap:butt;stroke-linejoin:miter;stroke-opacity:1"
       sodipodi:nodetypes="cssssccsc" />
    <path
       sodipodi:nodetypes="cssssccsc"
       style="fill:none;stroke:#000000;stroke-width:1px;stroke-linecap:butt;stroke-linejoin:miter;stroke-opacity:1"
       d="m 28.554207,100.24021 c 3.06774,0.22785 7.907968,3.96666 35.266495,6.00387 75.094008,5.59176 117.022618,126.3601 182.578438,28.56451 14.84887,-22.15141 73.87773,-40.401407 144.3942,-25.62438 9.21584,1.93121 -6.44658,17.82212 62.28194,-8.81287 4.27099,-1.655172 9.9668,8.06821 14.68008,8.00908 -42.09284,87.87612 22.12726,65.67807 60.05454,3.70009 4.49803,10.79665 24.00233,109.91621 28.78748,-8.96676 0.37154,-9.23065 4.52167,49.13849 25.49089,-2.87354"
       id="path8269"
       inkscape:connector-curvature="0" />
    <path
       inkscape:connector-curvature="0"
       id="path8271"
       d="m 28.554207,102.24021 c 3.06774,0.22785 7.179546,7.51659 34.526476,9.70396 75.937897,6.07399 141.600727,136.28177 183.318457,24.86442 9.35117,-24.97458 68.98864,-34.6984 142.17414,-21.18427 7.24719,1.33824 -21.93189,26.66104 58.58185,-8.81287 4.19168,-1.84683 10.70682,15.4684 15.4201,15.40927 -14.9866,78.18013 30.43015,64.11258 63.75463,8.88022 12.16536,4.97857 37.71018,84.93012 29.5275,-17.84698 -0.57069,-7.16808 3.736,53.2038 26.23091,-11.01375"
       style="fill:none;stroke:#000000;stroke-width:1px;stroke-linecap:butt;stroke-linejoin:miter;stroke-opacity:1"
       sodipodi:nodetypes="cssssccsc" />
    <path
       sodipodi:nodetypes="cssssccsc"
       style="fill:none;stroke:#000000;stroke-width:1px;stroke-linecap:butt;stroke-linejoin:miter;stroke-opacity:1"
       d="m 28.554207,104.24021 c 3.06774,0.22785 8.221679,4.1332 34.526476,11.92402 72.514977,21.47711 139.060577,140.85903 181.838417,29.30453 9.33585,-24.34569 62.32847,-30.01817 135.51397,-26.3644 7.36055,0.36747 -13.79168,25.181 66.72206,-10.29291 4.19168,-1.84683 9.9668,29.52876 14.68008,29.46963 11.57779,71.16959 56.50165,45.40657 65.23467,-1.48005 18.38604,-8.89155 41.84848,90.68124 28.04746,-6.00668 -0.87504,-6.13037 12.50645,47.29993 26.97093,-26.55414"
       id="path8273"
       inkscape:connector-curvature="0" />
    <path
       inkscape:connector-curvature="0"
       id="path8275"
       d="m 28.554207,106.24021 c 3.06774,0.22785 8.244513,4.05651 34.526476,11.92402 72.683367,21.75777 148.976797,166.01961 181.098397,36.70472 6.2858,-25.30533 57.14834,-31.49821 130.33384,-27.84444 7.36055,0.36747 -13.05166,26.66104 67.46208,-8.81287 4.19168,-1.84683 18.10701,34.70889 22.82029,34.64976 55.14823,55.11374 36.55917,23.0856 56.35444,-3.70011 7.84264,-32.20645 32.8744,86.83809 40.62778,3.61357 1.17569,-12.61981 16.34581,26.89951 20.31076,-46.53465"
       style="fill:none;stroke:#000000;stroke-width:1px;stroke-linecap:butt;stroke-linejoin:miter;stroke-opacity:1"
       sodipodi:nodetypes="cssssccsc" />
    <path
       sodipodi:nodetypes="cssssccsc"
       style="fill:none;stroke:#000000;stroke-width:1px;stroke-linecap:butt;stroke-linejoin:miter;stroke-opacity:1"
       d="m 28.554207,108.24021 c 3.06774,0.22785 6.626386,3.04031 35.266495,15.62411 69.460988,30.51956 146.016718,177.85991 178.138318,48.54502 6.2858,-25.30533 57.14834,-44.81854 130.33384,-41.16477 7.36055,0.36747 -10.8316,24.44098 69.68214,-11.03293 4.19168,-1.84683 32.16737,47.28921 36.88065,47.23008 57.61373,44.37303 33.79565,12.69222 46.73419,-9.62026 -6.67137,-49.911 32.96958,97.90615 42.10782,2.13353 1.20388,-12.61715 10.42566,21.71938 14.39061,-51.71478"
       id="path8277"
       inkscape:connector-curvature="0" />
    <path
       inkscape:connector-curvature="0"
       id="path8279"
       d="m 28.554207,110.24021 c 3.06774,0.22785 6.643723,3.00092 35.266495,15.62411 70.456758,31.07277 167.347018,189.71008 178.138318,48.54502 1.98744,-25.99848 54.53198,-40.10909 127.71748,-36.45532 7.36055,0.36747 -8.21524,19.73153 72.2985,-15.74238 4.19168,-1.84683 38.44664,54.61502 43.15992,54.55589 92.98929,42.16206 33.71395,11.87972 42.02474,-10.14353 -6.84289,-49.18203 27.10873,118.89019 41.06127,2.6568 1.51059,-12.58411 9.90239,14.39357 13.86734,-59.04059"
       style="fill:none;stroke:#000000;stroke-width:1px;stroke-linecap:butt;stroke-linejoin:miter;stroke-opacity:1"
       sodipodi:nodetypes="cssssccsc" />
    <path
       sodipodi:nodetypes="cssssccsc"
       style="fill:none;stroke:#000000;stroke-width:1px;stroke-linecap:butt;stroke-linejoin:miter;stroke-opacity:1"
       d="m 28.554207,112.24021 c 3.06774,0.22785 13.463719,12.38031 42.069035,25.04301 71.359818,31.58881 161.052588,184.00677 171.335778,39.12612 1.31185,-18.48269 54.50719,-26.5567 127.71748,-36.45532 6.54062,-0.88434 -31.87969,44.9658 71.77523,-13.64929 3.98716,-2.25467 38.96991,52.52193 43.68319,52.4628 83.23153,30.47065 31.72578,32.88874 39.93165,9.74082 -6.70342,-49.39214 21.4942,91.43297 44.2009,-2.57593 2.97579,-12.32016 8.85585,-0.25805 12.8208,-73.69221"
       id="path8281"
       inkscape:connector-curvature="0" />
    <path
       inkscape:connector-curvature="0"
       id="path8283"
       d="m 28.554207,114.24021 c 3.06774,0.22785 12.942223,16.56248 41.545763,29.22919 71.31646,31.58158 147.26853,183.88555 173.95214,41.74248 3.38356,-18.02416 51.43647,-26.62236 125.62439,-43.25786 5.30055,-1.18857 -38.31442,56.18771 71.77523,-12.07947 3.8928,-2.41394 38.96991,50.95211 43.68319,50.89298 72.67023,30.47065 22.31988,37.07492 34.69893,13.927 -1.43534,-28.86288 28.89234,78.38513 50.48016,0.0404 3.36696,-12.21905 7.80931,-7.06059 11.77426,-80.49475"
       style="fill:none;stroke:#000000;stroke-width:1px;stroke-linecap:butt;stroke-linejoin:miter;stroke-opacity:1"
       sodipodi:nodetypes="cssssccsc" />
    <path
       sodipodi:nodetypes="cssssccsc"
       style="fill:none;stroke:#000000;stroke-width:1px;stroke-linecap:butt;stroke-linejoin:miter;stroke-opacity:1"
       d="m 28.554207,116.24021 c 3.06774,0.22785 12.899198,21.1079 41.545763,33.677 71.89616,31.5455 150.89339,187.22767 173.42887,45.66703 2.88314,-18.11095 51.43647,-26.62236 125.62439,-43.25786 5.30055,-1.18857 -37.52951,50.43171 72.56014,-17.83547 3.8928,-2.41394 39.23154,50.95211 43.94482,50.89298 68.23098,26.52465 25.50471,41.21406 39.40838,19.42136 -2.25956,-27.12285 18.79584,80.54239 45.24744,-8.07032 3.62535,-12.14489 7.80931,-7.06059 11.77426,-80.49475"
       id="path8285"
       inkscape:connector-curvature="0" />
    <path
       inkscape:connector-curvature="0"
       id="path8289"
       d="m 28.554207,118.24021 c 3.067677,0.22782 27.152387,31.74312 57.51965,50.92959 71.128963,44.94027 151.784513,165.42804 158.565013,45.7831 1.03764,-18.30962 39.65997,-48.82849 115.63414,-51.74629 6.2941,-0.24173 -27.56356,46.03478 81.44036,-26.7157 3.8099,-2.54277 40.34157,53.72718 45.05485,53.66805 63.73707,30.80405 22.61826,42.09649 36.63331,17.2013 -1.54725,-26.08999 12.28128,82.00454 45.68094,1.44381 8.36996,-20.18854 9.04085,-17.12973 13.0058,-90.56389"
       style="fill:none;stroke:#000000;stroke-width:1px;stroke-linecap:butt;stroke-linejoin:miter;stroke-opacity:1"
       sodipodi:nodetypes="cssssccsc" />
    <path
       sodipodi:nodetypes="cssssccsc"
       style="fill:none;stroke:#000000;stroke-width:1px;stroke-linecap:butt;stroke-linejoin:miter;stroke-opacity:1"
       d="m 28.554207,120.24021 c 3.067677,0.22782 19.979471,38.32667 51.5995,55.3697 71.266353,38.41221 172.320613,170.22166 164.485163,41.34299 -1.1129,-18.3052 32.9998,-44.38833 108.97397,-47.30618 6.2941,-0.24173 -36.36121,58.62347 88.10053,-25.97568 3.78823,-2.57494 39.60155,52.24714 44.31483,52.18801 63.73707,31.26515 23.35828,48.46284 37.37333,13.50121 -1.56776,-26.09683 0.68148,87.01816 45.68094,10.32404 11.05988,-18.84974 9.04085,-26.00996 13.0058,-99.44412"
       id="path8291"
       inkscape:connector-curvature="0" />
    <path
       inkscape:connector-curvature="0"
       id="path8293"
       d="m 28.554207,122.24021 c 3.062869,0.23103 16.023211,44.9253 51.5995,59.55588 75.411573,31.01265 174.586113,183.44047 164.485163,37.15681 -1.25294,-18.14534 18.09534,-38.24889 105.31106,-45.73636 5.30701,-0.45561 -47.17358,73.27365 91.24017,-21.7895 3.77575,-2.59321 33.32228,49.1075 38.03556,49.04837 63.73707,31.26515 29.63755,55.78865 43.6526,20.82702 -1.60973,-27.66759 -4.49697,82.25619 45.68094,3.5215 11.74565,-18.43022 9.56412,-29.14959 13.52907,-102.58375"
       style="fill:none;stroke:#000000;stroke-width:1px;stroke-linecap:butt;stroke-linejoin:miter;stroke-opacity:1"
       sodipodi:nodetypes="cssssccsc" />
    <path
       sodipodi:nodetypes="cssssccsc"
       style="fill:none;stroke:#000000;stroke-width:1px;stroke-linecap:butt;stroke-linejoin:miter;stroke-opacity:1"
       d="m 28.554207,124.24021 c 3.062869,0.23103 -1.585701,59.69449 47.936594,67.92824 75.446399,12.54398 178.249019,175.06811 168.148069,28.78445 -1.25294,-18.14534 9.72298,-38.24889 96.9387,-45.73636 5.30701,-0.45561 -38.80122,78.50637 99.61253,-16.55678 3.77575,-2.59321 24.94992,39.16533 29.6632,39.1062 63.73707,31.26515 39.05645,65.20755 53.0715,30.24592 -1.60973,-27.66759 -9.20642,81.20965 40.97149,2.47496 11.74565,-18.43022 13.22703,-32.8125 17.19198,-106.24666"
       id="path8295"
       inkscape:connector-curvature="0" />
    <path
       inkscape:connector-curvature="0"
       id="path8297"
       d="m 28.554207,126.24021 c 2.755066,0.76969 -7.79472,75.07754 46.366777,75.25405 76.486276,0.24927 200.847106,183.89591 171.810976,13.08628 -2.45129,-14.42007 74.46374,-44.14858 90.65943,-35.79418 1.19992,0.61896 -51.68502,80.95302 103.79871,-18.1266 3.86287,-2.46156 23.3801,41.25842 28.09338,41.19929 63.41719,29.02593 36.48823,65.02128 51.50169,37.04846 -1.40748,-28.88111 -6.0441,69.56152 43.06458,-2.75776 12.27748,-18.08029 14.27357,-36.47541 18.23852,-109.90957"
       style="fill:none;stroke:#000000;stroke-width:1px;stroke-linecap:butt;stroke-linejoin:miter;stroke-opacity:1"
       sodipodi:nodetypes="cssssccsc" />
    <path
       sodipodi:nodetypes="cssssccsc"
       style="fill:none;stroke:#000000;stroke-width:1px;stroke-linecap:butt;stroke-linejoin:miter;stroke-opacity:1"
       d="m 28.554207,128.24021 c 2.755066,0.76969 -25.1355245,102.28441 46.890049,82.05659 75.175284,-21.1124 212.169414,196.14522 171.287704,6.28374 -2.30533,-10.70634 74.57254,-44.06953 90.65943,-35.79418 1.18687,0.61054 -60.36404,83.56938 103.27544,-15.51024 3.91825,-2.3724 22.85683,41.25842 27.57011,41.19929 62.93909,28.22911 33.20085,62.68196 51.50169,40.1881 -1.5401,-28.93795 -10.14637,63.69198 47.77403,-4.85085 14.10597,-16.69297 10.61066,-40.13832 14.57561,-113.57248"
       id="path8303"
       inkscape:connector-curvature="0" />
    <path
       inkscape:connector-curvature="0"
       id="path8305"
       d="m 28.554207,130.24021 c 2.862296,0.64739 -24.0455851,115.35694 40.610781,91.47549 73.509152,-27.15131 231.564522,197.41915 179.787032,1.67496 -3.45724,-13.07003 58.5549,-43.66543 82.1601,-35.37158 4.66402,1.63874 -100.37443,97.30351 109.55471,-20.74296 4.52913,-2.5468 17.62411,39.6886 22.33739,39.62947 62.65793,28.28534 17.97135,70.64662 55.16459,44.37428 -1.48007,-28.57782 -7.39762,72.85862 49.34385,-2.75776 13.11722,-17.48062 10.61066,-44.84777 14.57561,-118.28193"
       style="fill:none;stroke:#000000;stroke-width:1px;stroke-linecap:butt;stroke-linejoin:miter;stroke-opacity:1"
       sodipodi:nodetypes="cssssccsc" />
    <path
       sodipodi:nodetypes="cssssccsc"
       style="fill:none;stroke:#000000;stroke-width:1px;stroke-linecap:butt;stroke-linejoin:miter;stroke-opacity:1"
       d="m 28.554207,132.24021 c 2.862296,0.64739 -18.19273,125.21484 44.796959,97.23149 72.404424,-32.16589 236.804054,199.99794 175.600854,-4.08104 -3.87605,-12.9245 69.55745,-46.02248 77.97392,-33.27849 1.59424,2.41395 -114.21396,104.175 113.74089,-19.17314 4.56994,-2.47283 15.53102,38.64205 20.2443,38.58292 60.64961,26.94646 3.29789,65.05049 53.59477,47.51392 -1.48007,-28.57782 -3.73471,67.10262 53.00676,-8.51376 13.11722,-17.48062 10.61066,-44.84777 14.57561,-118.28193"
       id="path8307"
       inkscape:connector-curvature="0" />
    <path
       inkscape:connector-curvature="0"
       id="path8309"
       d="m 28.554207,134.24021 c 2.862296,0.64739 -12.120065,155.9222 44.796959,97.23149 39.840514,-41.08205 238.897144,209.62097 177.693944,0.62841 -3.7922,-12.94935 84.50437,-50.59274 75.88083,-37.98794 -2.97461,4.3479 -132.75465,107.53108 112.69435,-21.7895 4.59705,-2.42206 13.9612,44.92132 18.67448,44.86219 60.64961,26.94646 -23.89207,92.0939 49.93186,53.26992 -2.00917,-27.92683 -11.90692,78.32833 59.28603,-17.93267 12.99545,-17.57134 10.61066,-44.84777 14.57561,-118.28193"
       style="fill:none;stroke:#000000;stroke-width:1px;stroke-linecap:butt;stroke-linejoin:miter;stroke-opacity:1"
       sodipodi:nodetypes="cssssccsc" />
    <path
       sodipodi:nodetypes="cssssccsc"
       style="fill:none;stroke:#000000;stroke-width:1px;stroke-linecap:butt;stroke-linejoin:miter;stroke-opacity:1"
       d="m 28.554207,136.24021 c 2.862296,0.64739 -12.120065,164.29456 44.796959,105.60385 39.840514,-41.08205 257.260714,206.49535 177.693944,-7.74395 -4.69774,-12.64902 87.45756,-47.94915 75.88083,-37.98794 -6.91592,5.95081 -148.26034,114.91719 112.69435,-21.7895 4.60273,-2.41124 13.9612,44.92132 18.67448,44.86219 60.64961,26.94646 -10.182,69.95898 54.11804,45.42083 -1.8621,-28.25037 -9.94378,72.64893 55.09985,-10.08358 13.50746,-17.18087 10.61066,-44.84777 14.57561,-118.28193"
       id="path8311"
       inkscape:connector-curvature="0" />
    <path
       sodipodi:nodetypes="cssssccsc"
       style="fill:none;stroke:#000000;stroke-width:1px;stroke-linecap:butt;stroke-linejoin:miter;stroke-opacity:1"
       d="m 28.554207,136.24021 c 2.862296,0.64739 -12.236466,155.80909 44.796959,97.23149 39.943414,-41.02488 242.789914,211.78362 177.693944,0.62841 -3.97514,-12.89437 87.41373,-47.99987 75.88083,-37.98794 -5.00842,4.3479 -137.67927,109.62417 112.17108,-19.69641 4.61459,-2.38847 14.48447,42.82823 19.19775,42.7691 54.25214,25.20801 -17.93342,79.98336 45.22241,59.02592 -2.61681,-26.83308 -12.80601,82.66771 63.99548,-23.68867 12.79454,-17.71816 10.61066,-44.84777 14.57561,-118.28193"
       id="path8313"
       inkscape:connector-curvature="0" />
    <path
       inkscape:connector-curvature="0"
       id="path8381"
       d="m 28.554207,138.24021 c 2.862296,0.64739 -6.371018,189.40905 47.757034,108.56393 31.660089,-47.28719 256.202779,209.35212 179.173979,-12.92409 -4.41823,-12.74934 65.7798,-35.89764 52.94025,-27.62767 -6.91592,4.45455 -129.75987,104.68138 131.19482,-26.96963 4.63914,-2.34043 9.52109,41.96124 14.23437,41.90211 64.55577,25.21039 -18.1465,84.06037 46.15354,59.52222 -2.9031,-12.63537 6.70985,72.51422 72.68459,-24.18497 12.31717,-18.05328 4.69051,-33.00747 8.65546,-106.44163"
       style="fill:none;stroke:#000000;stroke-width:1px;stroke-linecap:butt;stroke-linejoin:miter;stroke-opacity:1"
       sodipodi:nodetypes="cssssccsc" />
    <path
       sodipodi:nodetypes="cssssccsc"
       style="fill:none;stroke:#000000;stroke-width:1px;stroke-linecap:butt;stroke-linejoin:miter;stroke-opacity:1"
       d="m 28.554207,140.24021 c 2.862296,0.64739 -1.895864,193.93423 47.757034,108.56393 28.632939,-49.22981 268.126789,227.78596 182.134059,-12.18407 -4.55182,-12.70225 47.31668,-33.35406 35.91981,-23.18756 -5.68675,5.07283 -104.61431,99.59901 145.25518,-29.18968 4.61867,-2.38058 9.52109,39.00116 14.23437,38.94203 60.64961,26.94646 -18.80059,85.36855 45.49945,60.8304 -3.8538,-12.63537 2.88294,71.20604 73.33868,-25.49315 12.86981,-17.66357 4.69051,-33.00747 8.65546,-106.44163"
       id="path8383"
       inkscape:connector-curvature="0" />
    <path
       inkscape:connector-curvature="0"
       id="path8385"
       d="m 28.554207,142.24021 c 2.924979,0.77908 2.146255,218.6947 51.41994,106.99411 21.230683,-48.12873 282.424073,245.13774 181.610783,-12.18407 -4.37649,-11.17081 12.20586,-8.56886 18.39019,-13.76865 5.71815,-4.80783 -83.93633,95.50416 157.55208,-35.99223 4.5634,-2.48488 10.04436,39.00116 14.75764,38.94203 63.8569,25.57191 -26.68246,90.4821 46.80763,60.83041 -4.37212,-11.54755 -6.94879,86.52516 73.60032,-26.5397 12.6808,-17.79974 4.69051,-33.00747 8.65546,-106.44163"
       style="fill:none;stroke:#000000;stroke-width:1px;stroke-linecap:butt;stroke-linejoin:miter;stroke-opacity:1"
       sodipodi:nodetypes="cssssccsc" />
    <path
       sodipodi:nodetypes="cssssccsc"
       style="fill:none;stroke:#000000;stroke-width:1px;stroke-linecap:butt;stroke-linejoin:miter;stroke-opacity:1"
       d="m 28.554207,144.24021 c 2.924971,0.77907 7.948844,222.01417 53.513029,109.61047 16.179932,-39.91477 295.267324,259.0475 179.517694,-14.80043 -3.97577,-9.40612 3.20787,0.0397 13.68074,-9.0592 7.28337,-6.32787 -69.41791,92.13521 162.26153,-40.70168 4.50769,-2.58455 10.04436,39.00116 14.75764,38.94203 60.63259,26.95497 -33.22753,93.95085 45.63027,61.61531 -6.27194,-10.59764 -16.53807,91.12358 74.77768,-27.3246 13.34364,-17.3084 4.69051,-33.00747 8.65546,-106.44163"
       id="path8387"
       inkscape:connector-curvature="0" />
    <path
       inkscape:connector-curvature="0"
       id="path8389"
       d="m 28.554207,146.24021 c 1.713821,-0.74774 18.769522,232.59091 53.513029,109.61047 8.192581,-28.99901 295.702594,269.22785 183.180604,-10.61425 -3.80966,-9.47462 -8.07446,0.3088 3.73856,-6.96611 13.07853,-8.05426 -52.73288,85.67948 165.40117,-43.84132 4.46784,-2.65285 13.70726,37.43135 18.42054,37.37222 60.63259,26.95497 -43.78001,90.70481 43.01391,65.80149 -9.75291,-14.68584 -21.03537,89.62057 76.3475,-29.94097 13.80189,-16.94523 5.21378,-36.1471 9.17873,-109.58126"
       style="fill:none;stroke:#000000;stroke-width:1px;stroke-linecap:butt;stroke-linejoin:miter;stroke-opacity:1"
       sodipodi:nodetypes="cssssccsc" />
    <path
       sodipodi:nodetypes="cssssccsc"
       style="fill:none;stroke:#000000;stroke-width:1px;stroke-linecap:butt;stroke-linejoin:miter;stroke-opacity:1"
       d="m 28.554207,148.24021 c 1.706432,-0.77861 23.639742,235.61166 53.513029,109.61047 6.843032,-28.86292 314.364844,285.32823 189.497064,-1.24794 -4.07914,-9.36176 -13.94899,-0.0328 -2.45093,-7.79591 12.59804,-8.50582 -53.85104,83.81265 165.2742,-52.37783 4.41316,-2.74286 11.70395,39.52444 16.41723,39.46531 60.46734,27.06013 -60.49249,101.71102 40.30777,67.89458 -10.75352,-13.35169 -15.10926,88.3472 85.24313,-35.17369 13.78079,-16.96239 1.0276,-35.10056 4.99255,-108.53472"
       id="path8391"
       inkscape:connector-curvature="0" />
    <path
       inkscape:connector-curvature="0"
       id="path8393"
       d="m 28.554207,150.24021 c 1.718563,-0.85544 36.665916,242.47975 54.253048,114.05058 3.939622,-28.7689 328.646245,294.92463 193.989765,-3.07169 -4.20507,-9.30587 -15.46928,9.85507 -2.84723,4.09698 13.698,-6.24892 -53.39544,73.97699 160.43778,-66.88708 4.33917,-2.85846 11.70395,39.52444 16.41723,39.46531 60.46734,27.06013 -85.12639,114.02797 40.30777,67.89458 -11.25154,-10.86159 -17.23232,98.9625 84.50311,-31.4736 13.44102,-17.23287 1.76762,-38.80065 5.73257,-112.23481"
       style="fill:none;stroke:#000000;stroke-width:1px;stroke-linecap:butt;stroke-linejoin:miter;stroke-opacity:1"
       sodipodi:nodetypes="cssssccsc" />
    <path
       sodipodi:nodetypes="cssssccsc"
       style="fill:none;stroke:#000000;stroke-width:1px;stroke-linecap:butt;stroke-linejoin:miter;stroke-opacity:1"
       d="m 28.554207,152.24021 c 1.723882,-0.85012 76.051673,293.7565 54.253048,114.05058 -3.409497,-28.10759 347.866615,334.92513 203.483045,12.61108 -4.17476,-9.31951 -13.23628,7.19444 -0.84392,0.95735 14.06918,-7.08106 -60.35977,60.53429 148.94119,-79.43022 4.31929,-2.88841 11.70395,39.52444 16.41723,39.46531 60.19383,27.25159 -121.87491,139.75194 40.30777,67.89458 -11.69391,-8.64975 -20.33711,114.48643 84.50311,-31.4736 12.74976,-17.75039 1.76762,-38.80065 5.73257,-112.23481"
       id="path8395"
       inkscape:connector-curvature="0" />
    <path
       inkscape:connector-curvature="0"
       id="path8397"
       d="m 30.647297,719.34187 553.534053,0"
       style="fill:none;stroke:#000000;stroke-width:1px;stroke-linecap:butt;stroke-linejoin:miter;stroke-opacity:1" />
    <path
       inkscape:connector-curvature="0"
       id="path8806"
       d="m 28.554207,154.24021 c 5.166283,1.3405 100.219423,333.17462 58.693161,127.37092 -5.298481,-26.25922 383.035932,338.10872 199.042932,-0.70926 -4.87328,-8.97402 -13.31228,21.84148 -0.84392,15.75773 14.01529,-6.83855 -58.63757,60.67568 144.50108,-85.35037 4.21909,-3.0329 16.14406,30.64421 20.85734,30.58508 60.24093,27.24928 -146.84221,166.08547 32.90758,73.81473 -9.41999,-19.55271 -24.88671,123.1541 91.9033,-37.39375 12.85639,-17.67331 1.76762,-38.80065 5.73257,-112.23481"
       style="fill:none;stroke:#000000;stroke-width:1px;stroke-linecap:butt;stroke-linejoin:miter;stroke-opacity:1"
       sodipodi:nodetypes="cssssccsc" />
    <path
       sodipodi:nodetypes="cssssccsc"
       style="fill:none;stroke:#000000;stroke-width:1px;stroke-linecap:butt;stroke-linejoin:miter;stroke-opacity:1"
       d="m 28.554207,156.24021 c 5.175843,1.3491 144.691983,385.50677 66.093349,142.1713 -7.827084,-24.23207 381.928024,332.74675 191.642744,-15.50964 -4.89645,-8.9614 1.48809,27.76162 13.95646,21.67788 14.01528,-6.83853 -77.671,97.08598 129.7007,-91.27052 3.84629,-3.4936 16.14406,36.56436 20.85734,36.50523 60.24093,27.24928 -206.37523,196.80103 32.90758,67.89458 -9.41999,-15.52609 -24.88671,147.6835 91.9033,-37.39375 11.66311,-18.48255 1.76762,-38.80065 5.73257,-112.23481"
       id="path8808"
       inkscape:connector-curvature="0" />
    <path
       inkscape:connector-curvature="0"
       id="path8810"
       d="m 28.554207,158.24021 c 5.175843,1.3491 193.587853,389.63305 66.093349,142.1713 -11.902533,-23.10234 373.722024,327.23195 219.763454,20.75128 -4.58397,-9.12519 -19.23243,-1.09911 -6.76406,-7.18285 14.01528,-6.83853 -85.07119,100.04605 122.30051,-88.31045 3.84629,-3.4936 8.74387,33.60429 13.45715,33.54516 60.10219,27.3757 -226.79386,214.81375 40.30777,60.49439 -15.23333,-8.74386 -41.58768,167.16797 91.9033,-37.39375 11.94367,-18.3025 1.76762,-38.80065 5.73257,-112.23481"
       style="fill:none;stroke:#000000;stroke-width:1px;stroke-linecap:butt;stroke-linejoin:miter;stroke-opacity:1"
       sodipodi:nodetypes="cssssccsc" />
    <path
       sodipodi:nodetypes="cssssccsc"
       style="fill:none;stroke:#000000;stroke-width:1px;stroke-linecap:butt;stroke-linejoin:miter;stroke-opacity:1"
       d="m 28.554207,160.24021 c 5.329569,1.95683 248.316483,426.15618 94.214063,156.97168 -12.57489,-21.96569 363.997,326.82146 202.003,15.57114 -4.71455,-9.0584 -22.1925,-3.31916 -9.72413,-9.4029 14.01528,-6.83853 -94.69144,101.52609 112.68026,-86.83041 3.84629,-3.4936 4.30376,25.46408 9.01704,25.40495 49.50348,7.27408 -223.36517,215.15715 35.86766,75.29476 -18.92673,-2.6809 -50.1741,183.36989 103.00358,-52.93414 11.8877,-18.3389 1.76762,-38.80065 5.73257,-112.23481"
       id="path8812"
       inkscape:connector-curvature="0" />
    <path
       inkscape:connector-curvature="0"
       id="path8814"
       d="m 28.554207,162.24021 c 5.190416,1.32724 216.713783,403.12771 94.214063,156.97168 -10.61005,-21.32028 392.83531,357.43075 202.003,15.57114 -4.97744,-8.91666 -22.1925,-3.31916 -9.72413,-9.4029 14.01528,-6.83853 -96.17148,112.62637 111.20022,-75.73013 3.84629,-3.4936 -6.79652,17.32388 -2.08324,17.26475 47.57834,-19.87063 -198.7085,222.49107 55.84817,61.97442 -16.48675,-6.86373 -47.25037,176.032 95.60339,-42.57388 11.95529,-18.29491 1.76762,-38.80065 5.73257,-112.23481"
       style="fill:none;stroke:#000000;stroke-width:1px;stroke-linecap:butt;stroke-linejoin:miter;stroke-opacity:1"
       sodipodi:nodetypes="cssssccsc" />
    <path
       sodipodi:nodetypes="cssssccsc"
       style="fill:none;stroke:#000000;stroke-width:1px;stroke-linecap:butt;stroke-linejoin:miter;stroke-opacity:1"
       d="m 28.554207,164.24021 c 10.482419,2.40284 262.045953,394.38722 89.033933,158.45172 -11.61842,-15.84397 416.3417,362.22995 208.66317,13.35108 -5.22343,-8.77482 -17.51431,32.83016 -6.76406,-1.26269 4.85922,-15.41031 -93.28654,119.87627 106.76011,-83.13032 3.6471,-3.70106 -10.49661,19.54394 -5.78333,19.48481 41.00897,-23.50574 -191.62628,224.42428 46.96794,66.41453 -24.09903,2.98745 -58.72199,200.49787 108.18371,-49.23405 12.1439,-18.17026 1.76762,-38.80065 5.73257,-112.23481"
       id="path8818"
       inkscape:connector-curvature="0" />
    <path
       inkscape:connector-curvature="0"
       id="path8820"
       d="m 578.91096,72.577305 -553.534056,0"
       style="fill:none;stroke:#000000;stroke-width:1px;stroke-linecap:butt;stroke-linejoin:miter;stroke-opacity:1" />
    <path
       sodipodi:nodetypes="ccc"
       style="fill:none;stroke:#000000;stroke-width:1px;stroke-linecap:butt;stroke-linejoin:miter;stroke-opacity:1"
       d="m 578.91096,74.577305 c -147.1404,0 -2.21627,5.510651 -441.42121,0 l -112.112846,0"
       id="path8822"
       inkscape:connector-curvature="0" />
    <path
       inkscape:connector-curvature="0"
       id="path8824"
       d="m 578.91096,74.577305 c -147.1404,0 -2.21627,5.510651 -441.42121,0 l -112.112846,0"
       style="fill:none;stroke:#000000;stroke-width:1px;stroke-linecap:butt;stroke-linejoin:miter;stroke-opacity:1"
       sodipodi:nodetypes="ccc" />
    <path
       inkscape:connector-curvature="0"
       id="path8826"
       d="m 578.91096,76.577305 c -149.4271,1.307698 -11.02564,7.51438 -374.81945,0.803787 -20.56547,-0.379354 -42.72124,-0.504161 -66.60176,-0.803787 l -112.112846,0"
       style="fill:none;stroke:#000000;stroke-width:1px;stroke-linecap:butt;stroke-linejoin:miter;stroke-opacity:1"
       sodipodi:nodetypes="cscc" />
    <path
       sodipodi:nodetypes="csccc"
       style="fill:none;stroke:#000000;stroke-width:1px;stroke-linecap:butt;stroke-linejoin:miter;stroke-opacity:1"
       d="m 579.95751,78.240211 c -149.42711,1.307698 5.40539,13.567916 -374.81946,0.803787 -20.55739,-0.690111 -42.72124,-0.504161 -66.60176,-0.803787 l -59.314516,0 c -17.59944,5.038589 -35.19889,0 -52.79833,0"
       id="path8828"
       inkscape:connector-curvature="0" />
    <path
       inkscape:connector-curvature="0"
       id="path8830"
       d="m 579.95751,80.240211 c -149.42711,0.255756 4.10985,25.160059 -374.81946,0.803787 -15.68505,-1.008181 -33.49952,-1.078814 -52.6617,-0.672654 -4.57946,0.09707 -9.22678,-0.072 -13.94006,-0.131133 -15.25408,4.517431 -39.503716,0.03929 -59.314516,0 -5.01306,4.324434 -13.47606,4.514127 -23.60735,2.873541 -9.58409,-1.551975 -20.17646,-2.841296 -29.19098,-2.873541"
       style="fill:none;stroke:#000000;stroke-width:1px;stroke-linecap:butt;stroke-linejoin:miter;stroke-opacity:1"
       sodipodi:nodetypes="cssccsc" />
    <path
       sodipodi:nodetypes="cssccsc"
       style="fill:none;stroke:#000000;stroke-width:1px;stroke-linecap:butt;stroke-linejoin:miter;stroke-opacity:1"
       d="m 579.95751,82.240211 c -149.42711,0.255756 3.68231,31.086819 -374.81946,0.803787 -15.35459,-1.228485 -28.58278,-4.356644 -52.6617,-0.672654 -4.5278,0.692738 -9.22678,-0.072 -13.94006,-0.131133 -12.27522,7.49629 -38.855666,0.687343 -59.314516,0 -3.23287,4.809942 4.05661,9.295765 -23.60735,2.873541 -9.45743,-2.195554 -20.17646,-2.841296 -29.19098,-2.873541"
       id="path8832"
       inkscape:connector-curvature="0" />
    <path
       inkscape:connector-curvature="0"
       id="path8834"
       d="M 579.95751,84.240211 C 456.11246,84.452181 512.47665,119.32835 370.9928,99.568097 330.72152,93.943634 276.7383,92.113393 205.13805,85.043998 c -15.06252,-1.487186 -5.14987,-6.159175 -52.6617,-0.672654 -4.55025,0.525449 -9.22678,-0.072 -13.94006,-0.131133 -2.70812,10.685322 -14.35502,8.854227 -59.314516,0 -0.95946,6.173988 19.54079,18.586279 -23.60735,2.873541 -9.12287,-3.322163 -20.17646,-2.841296 -29.19098,-2.873541"
       style="fill:none;stroke:#000000;stroke-width:1px;stroke-linecap:butt;stroke-linejoin:miter;stroke-opacity:1"
       sodipodi:nodetypes="csssccsc" />
    <path
       sodipodi:nodetypes="csssccsc"
       style="fill:none;stroke:#000000;stroke-width:1px;stroke-linecap:butt;stroke-linejoin:miter;stroke-opacity:1"
       d="m 579.95751,86.240211 c -123.84505,0.21197 -85.98133,35.828159 -227.46518,16.067909 -40.27128,-5.624467 -72.79395,-5.974671 -144.3942,-13.044066 -15.06252,-1.487186 -8.10995,-8.379231 -55.62178,-2.89271 -4.55025,0.525449 -9.22678,-0.072 -13.94006,-0.131133 13.01417,13.104136 -4.74444,10.332778 -59.314516,0 -0.43403,6.474237 31.302176,25.307079 -23.60735,2.873541 -8.98777,-3.671993 -20.17646,-2.841296 -29.19098,-2.873541"
       id="path8836"
       inkscape:connector-curvature="0" />
    <path
       inkscape:connector-curvature="0"
       id="path8838"
       d="m 579.95751,88.240211 c -123.84505,0.21197 -93.28263,47.685399 -233.38533,19.767999 -36.8389,-7.34066 -66.76195,-9.793797 -138.47405,-16.744156 -15.07939,-1.461499 -13.83972,-6.571728 -55.62178,-2.89271 -4.56283,0.401769 -9.22678,-0.072 -13.94006,-0.131133 29.98183,14.316119 5.56059,11.068851 -59.314516,0 -0.27073,6.855281 36.441046,37.297789 -23.60735,2.873541 -8.42301,-4.828703 -20.17646,-2.841296 -29.19098,-2.873541"
       style="fill:none;stroke:#000000;stroke-width:1px;stroke-linecap:butt;stroke-linejoin:miter;stroke-opacity:1"
       sodipodi:nodetypes="csssccsc" />
    <path
       sodipodi:nodetypes="csssccsc"
       style="fill:none;stroke:#000000;stroke-width:1px;stroke-linecap:butt;stroke-linejoin:miter;stroke-opacity:1"
       d="m 579.95751,90.240211 c -123.84505,0.21197 -61.48207,55.635539 -233.38533,19.767999 -36.77126,-7.67231 -62.91047,-8.62927 -134.77396,-13.784081 -12.11807,-0.869236 -10.94105,-8.21205 -59.32187,-5.852785 -4.57505,0.2231 -9.22678,-0.072 -13.94006,-0.131133 48.46659,31.260489 8.44013,13.708429 -59.314516,0 -0.27073,7.072345 36.441046,51.530559 -23.60735,2.873541 -7.54337,-6.112367 -20.17646,-2.841296 -29.19098,-2.873541"
       id="path8840"
       inkscape:connector-curvature="0" />
    <path
       inkscape:connector-curvature="0"
       id="path8842"
       d="m 579.95751,92.240211 c -4.12848,0.02571 -14.50776,1.16387 -37.48655,3.043786 -75.0458,6.139563 -42.28898,66.155783 -195.89878,16.724213 -35.75732,-11.50669 -62.76258,-11.48323 -134.77396,-13.784081 -13.02426,-0.41614 -13.76408,-6.800537 -59.32187,-5.852785 -4.5795,0.09527 -9.22678,-0.072 -13.94006,-0.131133 59.66805,52.263229 12.20937,20.775759 -59.314516,0 -0.28953,7.279117 34.629826,71.453959 -23.60735,2.873541 -6.28446,-7.400611 -20.17646,-2.841296 -29.19098,-2.873541"
       style="fill:none;stroke:#000000;stroke-width:1px;stroke-linecap:butt;stroke-linejoin:miter;stroke-opacity:1"
       sodipodi:nodetypes="cssssccsc" />
    <path
       sodipodi:nodetypes="cssssccsc"
       style="fill:none;stroke:#000000;stroke-width:1px;stroke-linecap:butt;stroke-linejoin:miter;stroke-opacity:1"
       d="m 579.95751,94.240211 c -4.21254,-0.05835 -16.17604,-0.504419 -37.48655,3.043786 -74.27404,12.366643 -43.68898,70.311783 -195.89878,16.724213 -25.15444,-8.85597 -62.76258,-11.48324 -134.77396,-13.78408 -13.02426,-0.416139 -1.04913,-0.443065 -59.32187,-5.852786 -4.56088,-0.423407 -9.22678,-0.072 -13.94006,-0.131133 59.66805,68.873269 12.20937,33.667089 -59.314516,0 -0.69157,8.183719 23.303566,89.043979 -23.60735,2.873541 -4.41883,-8.116924 -12.11209,-1.228423 -29.19098,-2.873541"
       id="path8844"
       inkscape:connector-curvature="0" />
    <path
       inkscape:connector-curvature="0"
       id="path8846"
       d="m 579.95751,96.240211 c -3.06774,0.227849 -10.12795,1.007605 -37.48655,3.043786 -75.08885,5.588533 -39.51123,93.008453 -195.89878,16.724213 -23.96836,-11.69152 -62.75455,-11.74988 -134.77396,-13.78408 -13.04806,-0.36854 -4.74593,6.95054 -59.32187,-5.852786 -4.45942,-1.046165 -9.22678,-0.072 -13.94006,-0.131133 54.54998,80.263359 9.61524,39.669809 -59.314516,0 -2.38534,9.538739 15.87391,94.977959 -23.60735,2.873541 -3.63976,-8.491063 2.01738,6.845558 -29.19098,-2.873541"
       style="fill:none;stroke:#000000;stroke-width:1px;stroke-linecap:butt;stroke-linejoin:miter;stroke-opacity:1"
       sodipodi:nodetypes="cssssccsc" />
    <path
       sodipodi:nodetypes="cssssccsc"
       style="fill:none;stroke:#000000;stroke-width:1px;stroke-linecap:butt;stroke-linejoin:miter;stroke-opacity:1"
       d="m 579.95751,98.240211 c -3.06774,0.227849 -7.90789,2.487649 -35.2665,4.523829 -75.08884,5.58853 -84.45445,107.48503 -182.57844,30.04455 -20.93381,-16.52119 -79.7964,-43.354428 -150.31435,-28.58446 -9.2165,1.93039 1.19111,10.51276 -59.32187,-5.852786 -4.42164,-1.195819 -9.22678,-0.072 -13.94006,-0.131133 49.21321,85.189609 -9.07478,60.622229 -59.314516,3.700089 -3.74618,10.62742 -3.97342,104.19581 -27.30744,-0.82655 -2.00368,-9.018215 9.9088,29.89786 -25.49089,-2.873539"
       id="path8848"
       inkscape:connector-curvature="0" />
    <path
       inkscape:connector-curvature="0"
       id="path8850"
       d="m 579.95751,100.24021 c -3.06774,0.22785 -7.90797,3.96666 -35.2665,6.00387 -75.09401,5.59176 -117.02262,126.3601 -182.57844,28.56451 -14.84887,-22.15141 -73.87773,-40.401407 -144.3942,-25.62438 -9.21584,1.93121 6.44658,17.82212 -62.28194,-8.81287 -4.27099,-1.655172 -9.9668,8.06821 -14.68008,8.00908 42.09284,87.87612 -22.12726,65.67807 -60.054536,3.70009 -4.49803,10.79665 -24.00233,109.91621 -28.78748,-8.96676 -0.37154,-9.23065 -4.52167,49.13849 -25.49089,-2.87354"
       style="fill:none;stroke:#000000;stroke-width:1px;stroke-linecap:butt;stroke-linejoin:miter;stroke-opacity:1"
       sodipodi:nodetypes="cssssccsc" />
    <path
       sodipodi:nodetypes="cssssccsc"
       style="fill:none;stroke:#000000;stroke-width:1px;stroke-linecap:butt;stroke-linejoin:miter;stroke-opacity:1"
       d="m 579.95751,102.24021 c -3.06774,0.22785 -7.17955,7.51659 -34.52648,9.70396 -75.9379,6.07399 -141.60073,136.28177 -183.31846,24.86442 -9.35117,-24.97458 -68.98864,-34.6984 -142.17414,-21.18427 -7.24719,1.33824 21.93189,26.66104 -58.58185,-8.81287 -4.19168,-1.84683 -10.70682,15.4684 -15.4201,15.40927 14.9866,78.18013 -30.43015,64.11258 -63.754626,8.88022 -12.16536,4.97857 -37.71018,84.93012 -29.5275,-17.84698 0.57069,-7.16808 -3.736,53.2038 -26.23091,-11.01375"
       id="path8852"
       inkscape:connector-curvature="0" />
    <path
       inkscape:connector-curvature="0"
       id="path8854"
       d="m 579.95751,104.24021 c -3.06774,0.22785 -8.22168,4.1332 -34.52648,11.92402 -72.51498,21.47711 -139.06058,140.85903 -181.83842,29.30453 -9.33585,-24.34569 -62.32847,-30.01817 -135.51397,-26.3644 -7.36055,0.36747 13.79168,25.181 -66.72206,-10.29291 -4.19168,-1.84683 -9.9668,29.52876 -14.68008,29.46963 -11.57779,71.16959 -56.501646,45.40657 -65.234666,-1.48005 -18.38604,-8.89155 -41.84848,90.68124 -28.04746,-6.00668 0.87504,-6.13037 -12.50645,47.29993 -26.97093,-26.55414"
       style="fill:none;stroke:#000000;stroke-width:1px;stroke-linecap:butt;stroke-linejoin:miter;stroke-opacity:1"
       sodipodi:nodetypes="cssssccsc" />
    <path
       sodipodi:nodetypes="cssssccsc"
       style="fill:none;stroke:#000000;stroke-width:1px;stroke-linecap:butt;stroke-linejoin:miter;stroke-opacity:1"
       d="m 579.95751,106.24021 c -3.06774,0.22785 -8.24452,4.05651 -34.52648,11.92402 -72.68337,21.75777 -148.9768,166.01961 -181.0984,36.70472 -6.2858,-25.30533 -57.14834,-31.49821 -130.33384,-27.84444 -7.36055,0.36747 13.05166,26.66104 -67.46208,-8.81287 -4.19168,-1.84683 -18.10701,34.70889 -22.82029,34.64976 -55.148226,55.11374 -36.55917,23.0856 -56.354436,-3.70011 -7.84264,-32.20645 -32.8744,86.83809 -40.62778,3.61357 -1.17569,-12.61981 -16.34581,26.89951 -20.31076,-46.53465"
       id="path8856"
       inkscape:connector-curvature="0" />
    <path
       inkscape:connector-curvature="0"
       id="path8858"
       d="m 579.95751,108.24021 c -3.06774,0.22785 -6.62639,3.04031 -35.2665,15.62411 -69.46099,30.51956 -146.01672,177.85991 -178.13832,48.54502 -6.2858,-25.30533 -57.14834,-44.81854 -130.33384,-41.16477 -7.36055,0.36747 10.8316,24.44098 -69.68214,-11.03293 -4.19168,-1.84683 -32.16737,47.28921 -36.88065,47.23008 -57.613726,44.37303 -33.795646,12.69222 -46.734186,-9.62026 6.67137,-49.911 -32.96958,97.90615 -42.10782,2.13353 -1.20388,-12.61715 -10.42566,21.71938 -14.39061,-51.71478"
       style="fill:none;stroke:#000000;stroke-width:1px;stroke-linecap:butt;stroke-linejoin:miter;stroke-opacity:1"
       sodipodi:nodetypes="cssssccsc" />
    <path
       sodipodi:nodetypes="cssssccsc"
       style="fill:none;stroke:#000000;stroke-width:1px;stroke-linecap:butt;stroke-linejoin:miter;stroke-opacity:1"
       d="m 579.95751,110.24021 c -3.06774,0.22785 -6.64373,3.00092 -35.2665,15.62411 -70.45676,31.07277 -167.34702,189.71008 -178.13832,48.54502 -1.98744,-25.99848 -54.53198,-40.10909 -127.71748,-36.45532 -7.36055,0.36747 8.21524,19.73153 -72.2985,-15.74238 -4.19168,-1.84683 -38.44664,54.61502 -43.15992,54.55589 -92.989286,42.16206 -33.713946,11.87972 -42.024736,-10.14353 6.84289,-49.18203 -27.10873,118.89019 -41.06127,2.6568 -1.51059,-12.58411 -9.90239,14.39357 -13.86734,-59.04059"
       id="path8860"
       inkscape:connector-curvature="0" />
    <path
       inkscape:connector-curvature="0"
       id="path8862"
       d="m 579.95751,112.24021 c -3.06774,0.22785 -13.46372,12.38031 -42.06904,25.04301 -71.35982,31.58881 -161.05259,184.00677 -171.33578,39.12612 -1.31185,-18.48269 -54.50719,-26.5567 -127.71748,-36.45532 -6.54062,-0.88434 31.87969,44.9658 -71.77523,-13.64929 -3.98716,-2.25467 -38.96991,52.52193 -43.68319,52.4628 -83.231526,30.47065 -31.725776,32.88874 -39.931646,9.74082 6.70342,-49.39214 -21.4942,91.43297 -44.2009,-2.57593 -2.97579,-12.32016 -8.85585,-0.25805 -12.8208,-73.69221"
       style="fill:none;stroke:#000000;stroke-width:1px;stroke-linecap:butt;stroke-linejoin:miter;stroke-opacity:1"
       sodipodi:nodetypes="cssssccsc" />
    <path
       sodipodi:nodetypes="cssssccsc"
       style="fill:none;stroke:#000000;stroke-width:1px;stroke-linecap:butt;stroke-linejoin:miter;stroke-opacity:1"
       d="m 579.95751,114.24021 c -3.06774,0.22785 -12.94223,16.56248 -41.54577,29.22919 -71.31646,31.58158 -147.26853,183.88555 -173.95214,41.74248 -3.38356,-18.02416 -51.43647,-26.62236 -125.62439,-43.25786 -5.30055,-1.18857 38.31442,56.18771 -71.77523,-12.07947 -3.8928,-2.41394 -38.96991,50.95211 -43.68319,50.89298 -72.670226,30.47065 -22.31988,37.07492 -34.698926,13.927 1.43534,-28.86288 -28.89234,78.38513 -50.48016,0.0404 -3.36696,-12.21905 -7.80931,-7.06059 -11.77426,-80.49475"
       id="path8864"
       inkscape:connector-curvature="0" />
    <path
       inkscape:connector-curvature="0"
       id="path8866"
       d="m 579.95751,116.24021 c -3.06774,0.22785 -12.8992,21.1079 -41.54577,33.677 -71.89616,31.5455 -150.89339,187.22767 -173.42887,45.66703 -2.88314,-18.11095 -51.43647,-26.62236 -125.62439,-43.25786 -5.30055,-1.18857 37.52951,50.43171 -72.56014,-17.83547 -3.8928,-2.41394 -39.23154,50.95211 -43.94482,50.89298 -68.230976,26.52465 -25.504706,41.21406 -39.408376,19.42136 2.25956,-27.12285 -18.79584,80.54239 -45.24744,-8.07032 -3.62535,-12.14489 -7.80931,-7.06059 -11.77426,-80.49475"
       style="fill:none;stroke:#000000;stroke-width:1px;stroke-linecap:butt;stroke-linejoin:miter;stroke-opacity:1"
       sodipodi:nodetypes="cssssccsc" />
    <path
       sodipodi:nodetypes="cssssccsc"
       style="fill:none;stroke:#000000;stroke-width:1px;stroke-linecap:butt;stroke-linejoin:miter;stroke-opacity:1"
       d="m 579.95751,118.24021 c -3.06768,0.22782 -27.15239,31.74312 -57.51965,50.92959 -71.12897,44.94027 -151.78452,165.42804 -158.56502,45.7831 -1.03764,-18.30962 -39.65997,-48.82849 -115.63414,-51.74629 -6.2941,-0.24173 27.56356,46.03478 -81.44036,-26.7157 -3.8099,-2.54277 -40.34157,53.72718 -45.05485,53.66805 -63.737066,30.80405 -22.618256,42.09649 -36.633306,17.2013 1.54725,-26.08999 -12.28128,82.00454 -45.68094,1.44381 -8.36996,-20.18854 -9.04085,-17.12973 -13.0058,-90.56389"
       id="path8868"
       inkscape:connector-curvature="0" />
    <path
       inkscape:connector-curvature="0"
       id="path8870"
       d="m 579.95751,120.24021 c -3.06768,0.22782 -19.97947,38.32667 -51.5995,55.3697 -71.26636,38.41221 -172.32062,170.22166 -164.48517,41.34299 1.1129,-18.3052 -32.9998,-44.38833 -108.97397,-47.30618 -6.2941,-0.24173 36.36121,58.62347 -88.10053,-25.97568 -3.78823,-2.57494 -39.60155,52.24714 -44.31483,52.18801 -63.737066,31.26515 -23.358276,48.46284 -37.373326,13.50121 1.56776,-26.09683 -0.68148,87.01816 -45.68094,10.32404 -11.05988,-18.84974 -9.04085,-26.00996 -13.0058,-99.44412"
       style="fill:none;stroke:#000000;stroke-width:1px;stroke-linecap:butt;stroke-linejoin:miter;stroke-opacity:1"
       sodipodi:nodetypes="cssssccsc" />
    <path
       sodipodi:nodetypes="cssssccsc"
       style="fill:none;stroke:#000000;stroke-width:1px;stroke-linecap:butt;stroke-linejoin:miter;stroke-opacity:1"
       d="m 579.95751,122.24021 c -3.06287,0.23103 -16.02321,44.9253 -51.5995,59.55588 -75.41158,31.01265 -174.58612,183.44047 -164.48517,37.15681 1.25294,-18.14534 -18.09534,-38.24889 -105.31106,-45.73636 -5.30701,-0.45561 47.17358,73.27365 -91.24017,-21.7895 -3.77575,-2.59321 -33.32228,49.1075 -38.03556,49.04837 -63.737066,31.26515 -29.637546,55.78865 -43.652596,20.82702 1.60973,-27.66759 4.49697,82.25619 -45.68094,3.5215 -11.74565,-18.43022 -9.56412,-29.14959 -13.52907,-102.58375"
       id="path8872"
       inkscape:connector-curvature="0" />
    <path
       inkscape:connector-curvature="0"
       id="path8874"
       d="m 579.95751,124.24021 c -3.06287,0.23103 1.5857,59.69449 -47.9366,67.92824 -75.4464,12.54398 -178.24902,175.06811 -168.14807,28.78445 1.25294,-18.14534 -9.72298,-38.24889 -96.9387,-45.73636 -5.30701,-0.45561 38.80122,78.50637 -99.61253,-16.55678 -3.77575,-2.59321 -24.94992,39.16533 -29.6632,39.1062 -63.737066,31.26515 -39.056446,65.20755 -53.071496,30.24592 1.60973,-27.66759 9.20642,81.20965 -40.97149,2.47496 -11.74565,-18.43022 -13.22703,-32.8125 -17.19198,-106.24666"
       style="fill:none;stroke:#000000;stroke-width:1px;stroke-linecap:butt;stroke-linejoin:miter;stroke-opacity:1"
       sodipodi:nodetypes="cssssccsc" />
    <path
       sodipodi:nodetypes="cssssccsc"
       style="fill:none;stroke:#000000;stroke-width:1px;stroke-linecap:butt;stroke-linejoin:miter;stroke-opacity:1"
       d="m 579.95751,126.24021 c -2.75507,0.76969 7.79472,75.07754 -46.36678,75.25405 -76.48628,0.24927 -200.84711,183.89591 -171.81098,13.08628 2.45129,-14.42007 -74.46374,-44.14858 -90.65943,-35.79418 -1.19992,0.61896 51.68502,80.95302 -103.79871,-18.1266 -3.86287,-2.46156 -23.3801,41.25842 -28.09338,41.19929 -63.417186,29.02593 -36.48823,65.02128 -51.501686,37.04846 1.40748,-28.88111 6.0441,69.56152 -43.06458,-2.75776 -12.27748,-18.08029 -14.27357,-36.47541 -18.23852,-109.90957"
       id="path8876"
       inkscape:connector-curvature="0" />
    <path
       inkscape:connector-curvature="0"
       id="path8878"
       d="m 579.95751,128.24021 c -2.75507,0.76969 25.13552,102.28441 -46.89005,82.05659 -75.17529,-21.1124 -212.16942,196.14522 -171.28771,6.28374 2.30533,-10.70634 -74.57254,-44.06953 -90.65943,-35.79418 -1.18687,0.61054 60.36404,83.56938 -103.27544,-15.51024 -3.91825,-2.3724 -22.85683,41.25842 -27.57011,41.19929 -62.939086,28.22911 -33.20085,62.68196 -51.501686,40.1881 1.5401,-28.93795 10.14637,63.69198 -47.77403,-4.85085 -14.10597,-16.69297 -10.61066,-40.13832 -14.57561,-113.57248"
       style="fill:none;stroke:#000000;stroke-width:1px;stroke-linecap:butt;stroke-linejoin:miter;stroke-opacity:1"
       sodipodi:nodetypes="cssssccsc" />
    <path
       sodipodi:nodetypes="cssssccsc"
       style="fill:none;stroke:#000000;stroke-width:1px;stroke-linecap:butt;stroke-linejoin:miter;stroke-opacity:1"
       d="m 579.95751,130.24021 c -2.8623,0.64739 24.04558,115.35694 -40.61078,91.47549 -73.50916,-27.15131 -231.56453,197.41915 -179.78704,1.67496 3.45724,-13.07003 -58.5549,-43.66543 -82.1601,-35.37158 -4.66402,1.63874 100.37443,97.30351 -109.55471,-20.74296 -4.52913,-2.5468 -17.62411,39.6886 -22.33739,39.62947 -62.657926,28.28534 -17.97135,70.64662 -55.164586,44.37428 1.48007,-28.57782 7.39762,72.85862 -49.34385,-2.75776 -13.11722,-17.48062 -10.61066,-44.84777 -14.57561,-118.28193"
       id="path8880"
       inkscape:connector-curvature="0" />
    <path
       inkscape:connector-curvature="0"
       id="path8882"
       d="m 579.95751,132.24021 c -2.8623,0.64739 18.19273,125.21484 -44.79696,97.23149 -72.40443,-32.16589 -236.80406,199.99794 -175.60086,-4.08104 3.87605,-12.9245 -69.55745,-46.02248 -77.97392,-33.27849 -1.59424,2.41395 114.21396,104.175 -113.74089,-19.17314 -4.56994,-2.47283 -15.53102,38.64205 -20.2443,38.58292 -60.649606,26.94646 -3.29789,65.05049 -53.594766,47.51392 1.48007,-28.57782 3.73471,67.10262 -53.00676,-8.51376 -13.11722,-17.48062 -10.61066,-44.84777 -14.57561,-118.28193"
       style="fill:none;stroke:#000000;stroke-width:1px;stroke-linecap:butt;stroke-linejoin:miter;stroke-opacity:1"
       sodipodi:nodetypes="cssssccsc" />
    <path
       sodipodi:nodetypes="cssssccsc"
       style="fill:none;stroke:#000000;stroke-width:1px;stroke-linecap:butt;stroke-linejoin:miter;stroke-opacity:1"
       d="m 579.95751,134.24021 c -2.8623,0.64739 12.12006,155.9222 -44.79696,97.23149 -39.84052,-41.08205 -238.89715,209.62097 -177.69395,0.62841 3.7922,-12.94935 -84.50437,-50.59274 -75.88083,-37.98794 2.97461,4.3479 132.75465,107.53108 -112.69435,-21.7895 -4.59705,-2.42206 -13.9612,44.92132 -18.67448,44.86219 -60.649606,26.94646 23.89207,92.0939 -49.93186,53.26992 2.00917,-27.92683 11.90692,78.32833 -59.286026,-17.93267 -12.99545,-17.57134 -10.61066,-44.84777 -14.57561,-118.28193"
       id="path8884"
       inkscape:connector-curvature="0" />
    <path
       inkscape:connector-curvature="0"
       id="path8886"
       d="m 579.95751,136.24021 c -2.8623,0.64739 12.12006,164.29456 -44.79696,105.60385 -39.84052,-41.08205 -257.26072,206.49535 -177.69395,-7.74395 4.69774,-12.64902 -87.45756,-47.94915 -75.88083,-37.98794 6.91592,5.95081 148.26034,114.91719 -112.69435,-21.7895 -4.60273,-2.41124 -13.9612,44.92132 -18.67448,44.86219 -60.649606,26.94646 10.182,69.95898 -54.118036,45.42083 1.8621,-28.25037 9.943776,72.64893 -55.09985,-10.08358 -13.50746,-17.18087 -10.61066,-44.84777 -14.57561,-118.28193"
       style="fill:none;stroke:#000000;stroke-width:1px;stroke-linecap:butt;stroke-linejoin:miter;stroke-opacity:1"
       sodipodi:nodetypes="cssssccsc" />
    <path
       inkscape:connector-curvature="0"
       id="path8888"
       d="m 579.95751,136.24021 c -2.8623,0.64739 12.23646,155.80909 -44.79696,97.23149 -39.94342,-41.02488 -242.78992,211.78362 -177.69395,0.62841 3.97514,-12.89437 -87.41373,-47.99987 -75.88083,-37.98794 5.00842,4.3479 137.67927,109.62417 -112.17108,-19.69641 -4.61459,-2.38847 -14.48447,42.82823 -19.19775,42.7691 -54.252136,25.20801 17.93342,79.98336 -45.22241,59.02592 2.61681,-26.83308 12.80601,82.66771 -63.995476,-23.68867 -12.79454,-17.71816 -10.61066,-44.84777 -14.57561,-118.28193"
       style="fill:none;stroke:#000000;stroke-width:1px;stroke-linecap:butt;stroke-linejoin:miter;stroke-opacity:1"
       sodipodi:nodetypes="cssssccsc" />
    <path
       sodipodi:nodetypes="cssssccsc"
       style="fill:none;stroke:#000000;stroke-width:1px;stroke-linecap:butt;stroke-linejoin:miter;stroke-opacity:1"
       d="m 579.95751,138.24021 c -2.8623,0.64739 6.37102,189.40905 -47.75704,108.56393 -31.66009,-47.28719 -256.20278,209.35212 -179.17398,-12.92409 4.41823,-12.74934 -65.7798,-35.89764 -52.94025,-27.62767 6.91592,4.45455 129.75987,104.68138 -131.19482,-26.96963 -4.63914,-2.34043 -9.52109,41.96124 -14.23437,41.90211 -64.555766,25.21039 18.1465,84.06037 -46.15354,59.52222 2.9031,-12.63537 -6.70985,72.51422 -72.684586,-24.18497 -12.31717,-18.05328 -4.69051,-33.00747 -8.65546,-106.44163"
       id="path8890"
       inkscape:connector-curvature="0" />
    <path
       inkscape:connector-curvature="0"
       id="path8892"
       d="m 579.95751,140.24021 c -2.8623,0.64739 1.89586,193.93423 -47.75704,108.56393 -28.63294,-49.22981 -268.12679,227.78596 -182.13406,-12.18407 4.55182,-12.70225 -47.31668,-33.35406 -35.91981,-23.18756 5.68675,5.07283 104.61431,99.59901 -145.25518,-29.18968 -4.61867,-2.38058 -9.52109,39.00116 -14.23437,38.94203 -60.649606,26.94646 18.80059,85.36855 -45.49945,60.8304 3.8538,-12.63537 -2.88294,71.20604 -73.338676,-25.49315 -12.86981,-17.66357 -4.69051,-33.00747 -8.65546,-106.44163"
       style="fill:none;stroke:#000000;stroke-width:1px;stroke-linecap:butt;stroke-linejoin:miter;stroke-opacity:1"
       sodipodi:nodetypes="cssssccsc" />
    <path
       sodipodi:nodetypes="cssssccsc"
       style="fill:none;stroke:#000000;stroke-width:1px;stroke-linecap:butt;stroke-linejoin:miter;stroke-opacity:1"
       d="m 579.95751,142.24021 c -2.92498,0.77908 -2.14626,218.6947 -51.41994,106.99411 -21.23069,-48.12873 -282.42408,245.13774 -181.61079,-12.18407 4.37649,-11.17081 -12.20586,-8.56886 -18.39019,-13.76865 -5.71815,-4.80783 83.93633,95.50416 -157.55208,-35.99223 -4.5634,-2.48488 -10.04436,39.00116 -14.75764,38.94203 -63.856896,25.57191 26.68246,90.4821 -46.80763,60.83041 4.37212,-11.54755 6.94879,86.52516 -73.600316,-26.5397 -12.6808,-17.79974 -4.69051,-33.00747 -8.65546,-106.44163"
       id="path8894"
       inkscape:connector-curvature="0" />
    <path
       inkscape:connector-curvature="0"
       id="path8896"
       d="m 579.95751,144.24021 c -2.92497,0.77907 -7.94885,222.01417 -53.51303,109.61047 -16.17993,-39.91477 -295.26733,259.0475 -179.5177,-14.80043 3.97577,-9.40612 -3.20787,0.0397 -13.68074,-9.0592 -7.28337,-6.32787 69.41791,92.13521 -162.26153,-40.70168 -4.50769,-2.58455 -10.04436,39.00116 -14.75764,38.94203 -60.632586,26.95497 33.22753,93.95085 -45.63027,61.61531 6.27194,-10.59764 16.53807,91.12358 -74.777676,-27.3246 -13.34364,-17.3084 -4.69051,-33.00747 -8.65546,-106.44163"
       style="fill:none;stroke:#000000;stroke-width:1px;stroke-linecap:butt;stroke-linejoin:miter;stroke-opacity:1"
       sodipodi:nodetypes="cssssccsc" />
    <path
       sodipodi:nodetypes="cssssccsc"
       style="fill:none;stroke:#000000;stroke-width:1px;stroke-linecap:butt;stroke-linejoin:miter;stroke-opacity:1"
       d="m 579.95751,146.24021 c -1.71382,-0.74774 -18.76952,232.59091 -53.51303,109.61047 -8.19258,-28.99901 -295.7026,269.22785 -183.18061,-10.61425 3.80966,-9.47462 8.07446,0.3088 -3.73856,-6.96611 -13.07853,-8.05426 52.73288,85.67948 -165.40117,-43.84132 -4.46784,-2.65285 -13.70726,37.43135 -18.42054,37.37222 -60.632586,26.95497 43.78001,90.70481 -43.01391,65.80149 9.75291,-14.68584 21.03537,89.62057 -76.347496,-29.94097 -13.80189,-16.94523 -5.21378,-36.1471 -9.17873,-109.58126"
       id="path8898"
       inkscape:connector-curvature="0" />
    <path
       inkscape:connector-curvature="0"
       id="path8900"
       d="m 579.95751,148.24021 c -1.70643,-0.77861 -23.63974,235.61166 -53.51303,109.61047 -6.84303,-28.86292 -314.36485,285.32823 -189.49707,-1.24794 4.07914,-9.36176 13.94899,-0.0328 2.45093,-7.79591 -12.59804,-8.50582 53.85104,83.81265 -165.2742,-52.37783 -4.41316,-2.74286 -11.70395,39.52444 -16.41723,39.46531 -60.467336,27.06013 60.49249,101.71102 -40.30777,67.89458 10.75352,-13.35169 15.10926,88.3472 -85.243126,-35.17369 -13.78079,-16.96239 -1.0276,-35.10056 -4.99255,-108.53472"
       style="fill:none;stroke:#000000;stroke-width:1px;stroke-linecap:butt;stroke-linejoin:miter;stroke-opacity:1"
       sodipodi:nodetypes="cssssccsc" />
    <path
       sodipodi:nodetypes="cssssccsc"
       style="fill:none;stroke:#000000;stroke-width:1px;stroke-linecap:butt;stroke-linejoin:miter;stroke-opacity:1"
       d="m 579.95751,150.24021 c -1.71857,-0.85544 -36.66592,242.47975 -54.25305,114.05058 -3.93962,-28.7689 -328.64625,294.92463 -193.98977,-3.07169 4.20507,-9.30587 15.46928,9.85507 2.84723,4.09698 -13.698,-6.24892 53.39544,73.97699 -160.43778,-66.88708 -4.33917,-2.85846 -11.70395,39.52444 -16.41723,39.46531 -60.467336,27.06013 85.12639,114.02797 -40.30777,67.89458 11.25154,-10.86159 17.23232,98.9625 -84.503106,-31.4736 -13.44102,-17.23287 -1.76762,-38.80065 -5.73257,-112.23481"
       id="path8902"
       inkscape:connector-curvature="0" />
    <path
       inkscape:connector-curvature="0"
       id="path8904"
       d="m 579.95751,152.24021 c -1.72388,-0.85012 -76.05168,293.7565 -54.25305,114.05058 3.4095,-28.10759 -347.86662,334.92513 -203.48305,12.61108 4.17476,-9.31951 13.23628,7.19444 0.84392,0.95735 -14.06918,-7.08106 60.35977,60.53429 -148.94119,-79.43022 -4.31929,-2.88841 -11.70395,39.52444 -16.41723,39.46531 -60.193826,27.25159 121.87491,139.75194 -40.30777,67.89458 11.69391,-8.64975 20.33711,114.48643 -84.503106,-31.4736 -12.74976,-17.75039 -1.76762,-38.80065 -5.73257,-112.23481"
       style="fill:none;stroke:#000000;stroke-width:1px;stroke-linecap:butt;stroke-linejoin:miter;stroke-opacity:1"
       sodipodi:nodetypes="cssssccsc" />
    <path
       sodipodi:nodetypes="cssssccsc"
       style="fill:none;stroke:#000000;stroke-width:1px;stroke-linecap:butt;stroke-linejoin:miter;stroke-opacity:1"
       d="m 579.95751,154.24021 c -5.16629,1.3405 -100.21943,333.17462 -58.69316,127.37092 5.29848,-26.25922 -383.03594,338.10872 -199.04294,-0.70926 4.87328,-8.97402 13.31228,21.84148 0.84392,15.75773 -14.01529,-6.83855 58.63757,60.67568 -144.50108,-85.35037 -4.21909,-3.0329 -16.14406,30.64421 -20.85734,30.58508 -60.240926,27.24928 146.84221,166.08547 -32.90758,73.81473 9.41999,-19.55271 24.88671,123.1541 -91.903296,-37.39375 -12.85639,-17.67331 -1.76762,-38.80065 -5.73257,-112.23481"
       id="path8906"
       inkscape:connector-curvature="0" />
    <path
       inkscape:connector-curvature="0"
       id="path8908"
       d="m 579.95751,156.24021 c -5.17585,1.3491 -144.69199,385.50677 -66.09335,142.1713 7.82708,-24.23207 -381.92803,332.74675 -191.64275,-15.50964 4.89645,-8.9614 -1.48809,27.76162 -13.95646,21.67788 -14.01528,-6.83853 77.671,97.08598 -129.7007,-91.27052 -3.84629,-3.4936 -16.14406,36.56436 -20.85734,36.50523 -60.240926,27.24928 206.37523,196.80103 -32.90758,67.89458 9.41999,-15.52609 24.88671,147.6835 -91.903296,-37.39375 -11.66311,-18.48255 -1.76762,-38.80065 -5.73257,-112.23481"
       style="fill:none;stroke:#000000;stroke-width:1px;stroke-linecap:butt;stroke-linejoin:miter;stroke-opacity:1"
       sodipodi:nodetypes="cssssccsc" />
    <path
       sodipodi:nodetypes="cssssccsc"
       style="fill:none;stroke:#000000;stroke-width:1px;stroke-linecap:butt;stroke-linejoin:miter;stroke-opacity:1"
       d="m 579.95751,158.24021 c -5.17585,1.3491 -193.58786,389.63305 -66.09335,142.1713 11.90253,-23.10234 -373.72203,327.23195 -219.76346,20.75128 4.58397,-9.12519 19.23243,-1.09911 6.76406,-7.18285 -14.01528,-6.83853 85.07119,100.04605 -122.30051,-88.31045 -3.84629,-3.4936 -8.74387,33.60429 -13.45715,33.54516 -60.10219,27.3757 226.79386,214.81375 -40.30777,60.49439 15.23333,-8.74386 41.58768,167.16797 -91.903296,-37.39375 -11.94367,-18.3025 -1.76762,-38.80065 -5.73257,-112.23481"
       id="path8910"
       inkscape:connector-curvature="0" />
    <path
       inkscape:connector-curvature="0"
       id="path8912"
       d="m 579.95751,160.24021 c -5.32957,1.95683 -248.31649,426.15618 -94.21407,156.97168 12.57489,-21.96569 -363.997,326.82146 -202.003,15.57114 4.71455,-9.0584 22.1925,-3.31916 9.72413,-9.4029 -14.01528,-6.83853 94.69144,101.52609 -112.68026,-86.83041 -3.84629,-3.4936 -4.30376,25.46408 -9.01704,25.40495 -49.50348,7.27408 223.36517,215.15715 -35.86766,75.29476 18.92673,-2.6809 50.1741,183.36989 -103.003576,-52.93414 -11.8877,-18.3389 -1.76762,-38.80065 -5.73257,-112.23481"
       style="fill:none;stroke:#000000;stroke-width:1px;stroke-linecap:butt;stroke-linejoin:miter;stroke-opacity:1"
       sodipodi:nodetypes="cssssccsc" />
    <path
       sodipodi:nodetypes="cssssccsc"
       style="fill:none;stroke:#000000;stroke-width:1px;stroke-linecap:butt;stroke-linejoin:miter;stroke-opacity:1"
       d="m 579.95751,162.24021 c -5.19042,1.32724 -216.71379,403.12771 -94.21407,156.97168 10.61005,-21.32028 -392.835306,357.43075 -202.003,15.57114 4.97744,-8.91666 22.1925,-3.31916 9.72413,-9.4029 -14.01528,-6.83853 96.17148,112.62637 -111.20022,-75.73013 -3.84629,-3.4936 6.79652,17.32388 2.08324,17.26475 -47.57834,-19.87063 198.7085,222.49107 -55.84817,61.97442 16.48675,-6.86373 47.25037,176.032 -95.603386,-42.57388 -11.95529,-18.29491 -1.76762,-38.80065 -5.73257,-112.23481"
       id="path8914"
       inkscape:connector-curvature="0" />
    <path
       inkscape:connector-curvature="0"
       id="path8916"
       d="m 579.95751,164.24021 c -10.48242,2.40284 -262.04596,394.38722 -89.03394,158.45172 11.61842,-15.84397 -416.341696,362.22995 -208.66317,13.35108 5.22343,-8.77482 17.51431,32.83016 6.76406,-1.26269 -4.85922,-15.41031 93.28654,119.87627 -106.76011,-83.13032 -3.6471,-3.70106 10.49661,19.54394 5.78333,19.48481 -41.00897,-23.50574 191.62628,224.42428 -46.96794,66.41453 24.09903,2.98745 58.72199,200.49787 -108.183706,-49.23405 -12.1439,-18.17026 -1.76762,-38.80065 -5.73257,-112.23481"
       style="fill:none;stroke:#000000;stroke-width:1px;stroke-linecap:butt;stroke-linejoin:miter;stroke-opacity:1"
       sodipodi:nodetypes="cssssccsc" />
  </g>
</svg>
