<?xml version="1.0" encoding="UTF-8" standalone="no"?>
<!-- Created with Inkscape (http://www.inkscape.org/) -->

<svg
   xmlns:dc="http://purl.org/dc/elements/1.1/"
   xmlns:cc="http://creativecommons.org/ns#"
   xmlns:rdf="http://www.w3.org/1999/02/22-rdf-syntax-ns#"
   xmlns:svg="http://www.w3.org/2000/svg"
   xmlns="http://www.w3.org/2000/svg"
   xmlns:sodipodi="http://sodipodi.sourceforge.net/DTD/sodipodi-0.dtd"
   xmlns:inkscape="http://www.inkscape.org/namespaces/inkscape"
   width="744.09448819"
   height="1052.3622047"
   id="svg2"
   version="1.1"
   inkscape:version="0.48.2 r9819"
   sodipodi:docname="tree002.svg">
  <sodipodi:namedview
     id="base"
     pagecolor="#ffffff"
     bordercolor="#666666"
     borderopacity="1.0"
     inkscape:pageopacity="0.0"
     inkscape:pageshadow="2"
     inkscape:zoom="0.49497475"
     inkscape:cx="287.91967"
     inkscape:cy="542.82322"
     inkscape:document-units="px"
     inkscape:current-layer="layer1"
     showgrid="false"
     showguides="true"
     inkscape:guide-bbox="true"
     inkscape:window-width="818"
     inkscape:window-height="652"
     inkscape:window-x="432"
     inkscape:window-y="76"
     inkscape:window-maximized="0" />
  <defs
     id="defs4" />
  <metadata
     id="metadata7">
    <rdf:RDF>
      <cc:Work
         rdf:about="">
        <dc:format>image/svg+xml</dc:format>
        <dc:type
           rdf:resource="http://purl.org/dc/dcmitype/StillImage" />
        <dc:title />
      </cc:Work>
    </rdf:RDF>
  </metadata>
  <g
     inkscape:label="Layer 1"
     inkscape:groupmode="layer"
     id="layer1">
    <path
       id="path3367"
       d=""
       style="fill:none;stroke:#000000"
       inkscape:connector-curvature="0" />
    <path
       id="path3375"
       d=""
       style="fill:none;stroke:#000000"
       inkscape:connector-curvature="0" />
    <path
       id="path3391"
       d=""
       style="fill:none;stroke:#000000"
       inkscape:connector-curvature="0" />
    <path
       id="path3407"
       d=""
       style="fill:none;stroke:#000000"
       inkscape:connector-curvature="0" />
    <path
       id="path3429"
       d=""
       style="fill:none;stroke:#000000"
       inkscape:connector-curvature="0" />
    <path
       inkscape:connector-curvature="0"
       style="fill:none;stroke:#000000"
       d=""
       id="path3738" />
    <path
       inkscape:connector-curvature="0"
       style="fill:none;stroke:#000000"
       d=""
       id="path3746" />
    <path
       inkscape:connector-curvature="0"
       style="fill:none;stroke:#000000"
       d=""
       id="path3750" />
    <path
       inkscape:connector-curvature="0"
       style="fill:none;stroke:#000000"
       d=""
       id="path3766" />
    <path
       inkscape:connector-curvature="0"
       style="fill:none;stroke:#000000"
       d=""
       id="path3782" />
    <path
       inkscape:connector-curvature="0"
       style="fill:none;stroke:#000000"
       d=""
       id="path3804" />
    <g
       id="g4029"
       transform="matrix(0.74202323,0,0,0.74202323,711.74038,237.39596)">
      <g
         id="g4048"
         transform="matrix(1.08,0,0,1.08,72.437458,-49.544094)">
        <path
           inkscape:connector-curvature="0"
           style="fill:none;stroke:#000000"
           d="m -779.96822,494.80118 0,21 m 0,-21 9,0 3,1 1,1 1,2 0,2 -1,2 -1,1 -3,1 -9,0 m 7,0 7,11"
           id="path3752" />
        <path
           inkscape:connector-curvature="0"
           style="fill:none;stroke:#000000"
           d="m -753.96822,494.80118 -2,1 -2,2 -1,2 -1,3 0,5 1,3 1,2 2,2 2,1 4,0 2,-1 2,-2 1,-2 1,-3 0,-5 -1,-3 -1,-2 -2,-2 -2,-1 -4,0"
           id="path3754" />
        <path
           inkscape:connector-curvature="0"
           style="fill:none;stroke:#000000"
           d="m -736.96822,494.80118 0,21 m 0,-21 9,0 3,1 1,1 1,2 0,2 -1,2 -1,1 -3,1 m -9,0 9,0 3,1 1,1 1,2 0,3 -1,2 -1,1 -3,1 -9,0"
           id="path3756" />
        <path
           inkscape:connector-curvature="0"
           style="fill:none;stroke:#000000"
           d="m -710.96822,494.80118 -2,1 -2,2 -1,2 -1,3 0,5 1,3 1,2 2,2 2,1 4,0 2,-1 2,-2 1,-2 1,-3 0,-5 -1,-3 -1,-2 -2,-2 -2,-1 -4,0"
           id="path3758" />
        <path
           inkscape:connector-curvature="0"
           style="fill:none;stroke:#000000"
           d="m -689.96822,494.80118 0,21 m -7,-21 14,0"
           id="path3760" />
        <path
           inkscape:connector-curvature="0"
           style="fill:none;stroke:#000000"
           d="m -677.96822,494.80118 0,21"
           id="path3762" />
        <path
           inkscape:connector-curvature="0"
           style="fill:none;stroke:#000000"
           d="m -655.96822,499.80118 -1,-2 -2,-2 -2,-1 -4,0 -2,1 -2,2 -1,2 -1,3 0,5 1,3 1,2 2,2 2,1 4,0 2,-1 2,-2 1,-2"
           id="path3764" />
      </g>
    </g>
    <g
       id="g4020"
       transform="matrix(0.74202323,0,0,1.7790494,717.04054,-284.2061)">
      <path
         id="path3768"
         d="m -632.96822,494.80118 0,21 m 0,-21 7,0 3,1 2,2 1,2 1,3 0,5 -1,3 -1,2 -2,2 -3,1 -7,0"
         style="fill:none;stroke:#000000"
         inkscape:connector-curvature="0" />
      <path
         id="path3770"
         d="m -611.96822,494.80118 0,21 m 0,-21 9,0 3,1 1,1 1,2 0,2 -1,2 -1,1 -3,1 -9,0 m 7,0 7,11"
         style="fill:none;stroke:#000000"
         inkscape:connector-curvature="0" />
      <path
         id="path3772"
         d="m -585.96822,494.80118 -8,21 m 8,-21 8,21 m -13,-7 10,0"
         style="fill:none;stroke:#000000"
         inkscape:connector-curvature="0" />
      <path
         id="path3774"
         d="m -574.96822,494.80118 5,21 m 5,-21 -5,21 m 5,-21 5,21 m 5,-21 -5,21"
         style="fill:none;stroke:#000000"
         inkscape:connector-curvature="0" />
      <path
         id="path3776"
         d="m -548.96822,494.80118 0,21"
         style="fill:none;stroke:#000000"
         inkscape:connector-curvature="0" />
      <path
         id="path3778"
         d="m -540.96822,494.80118 0,21 m 0,-21 14,21 m 0,-21 0,21"
         style="fill:none;stroke:#000000"
         inkscape:connector-curvature="0" />
      <path
         id="path3780"
         d="m -504.96822,499.80118 -1,-2 -2,-2 -2,-1 -4,0 -2,1 -2,2 -1,2 -1,3 0,5 1,3 1,2 2,2 2,1 4,0 2,-1 2,-2 1,-2 0,-3 m -5,0 5,0"
         style="fill:none;stroke:#000000"
         inkscape:connector-curvature="0" />
    </g>
    <g
       id="g4008"
       transform="matrix(0.58217409,0,0,0.58217409,419.65664,330.88831)">
      <path
         id="path3784"
         d="m -467.96822,499.80118 -1,-2 -2,-2 -2,-1 -4,0 -2,1 -2,2 -1,2 -1,3 0,5 1,3 1,2 2,2 2,1 4,0 2,-1 2,-2 1,-2"
         style="fill:none;stroke:#000000"
         inkscape:connector-curvature="0" />
      <path
         id="path3786"
         d="m -455.96822,494.80118 -2,1 -2,2 -1,2 -1,3 0,5 1,3 1,2 2,2 2,1 4,0 2,-1 2,-2 1,-2 1,-3 0,-5 -1,-3 -1,-2 -2,-2 -2,-1 -4,0"
         style="fill:none;stroke:#000000"
         inkscape:connector-curvature="0" />
      <path
         id="path3788"
         d="m -438.96822,494.80118 0,21 m 0,0 12,0"
         style="fill:none;stroke:#000000"
         inkscape:connector-curvature="0" />
      <path
         id="path3790"
         d="m -421.96822,494.80118 0,21 m 0,0 12,0"
         style="fill:none;stroke:#000000"
         inkscape:connector-curvature="0" />
      <path
         id="path3792"
         d="m -404.96822,494.80118 0,21 m 0,-21 13,0 m -13,10 8,0 m -8,11 13,0"
         style="fill:none;stroke:#000000"
         inkscape:connector-curvature="0" />
      <path
         id="path3794"
         d="m -371.96822,499.80118 -1,-2 -2,-2 -2,-1 -4,0 -2,1 -2,2 -1,2 -1,3 0,5 1,3 1,2 2,2 2,1 4,0 2,-1 2,-2 1,-2"
         style="fill:none;stroke:#000000"
         inkscape:connector-curvature="0" />
      <path
         id="path3796"
         d="m -360.96822,494.80118 0,21 m -7,-21 14,0"
         style="fill:none;stroke:#000000"
         inkscape:connector-curvature="0" />
      <path
         id="path3798"
         d="m -348.96822,494.80118 0,21"
         style="fill:none;stroke:#000000"
         inkscape:connector-curvature="0" />
      <path
         id="path3800"
         d="m -343.96822,494.80118 8,21 m 8,-21 -8,21"
         style="fill:none;stroke:#000000"
         inkscape:connector-curvature="0" />
      <path
         id="path3802"
         d="m -322.96822,494.80118 0,21 m 0,-21 13,0 m -13,10 8,0 m -8,11 13,0"
         style="fill:none;stroke:#000000"
         inkscape:connector-curvature="0" />
    </g>
    <g
       id="g4057"
       transform="matrix(0.74202323,0,0,0.74202323,690.90346,211.38748)">
      <path
         id="path3806"
         d="m -646.53965,584.08689 0,-1 1,-2 1,-1 2,-1 4,0 2,1 1,1 1,2 0,2 -1,2 -2,3 -10,10 14,0"
         style="fill:none;stroke:#000000"
         inkscape:connector-curvature="0" />
      <path
         id="path3808"
         d="m -621.53965,579.08689 -3,1 -2,3 -1,5 0,3 1,5 2,3 3,1 2,0 3,-1 2,-3 1,-5 0,-3 -1,-5 -2,-3 -3,-1 -2,0"
         style="fill:none;stroke:#000000"
         inkscape:connector-curvature="0" />
      <path
         id="path3810"
         d="m -604.53965,583.08689 2,-1 3,-3 0,21"
         style="fill:none;stroke:#000000"
         inkscape:connector-curvature="0" />
      <path
         id="path3812"
         d="m -586.53965,584.08689 0,-1 1,-2 1,-1 2,-1 4,0 2,1 1,1 1,2 0,2 -1,2 -2,3 -10,10 14,0"
         style="fill:none;stroke:#000000"
         inkscape:connector-curvature="0" />
    </g>
    <g
       id="g4339"
       transform="matrix(0.83526231,0,0,0.83526231,60.034201,95.872901)">
      <path
         id="path3730"
         d="m 110.00117,541.78797 0,39.31442 m -13.104805,-39.31442 26.209615,0"
         style="fill:none;stroke:#000000;stroke-width:1.87211502"
         inkscape:connector-curvature="0" />
      <path
         id="path3732"
         d="m 132.46655,541.78797 0,39.31442 m 0,-39.31442 16.84904,0 5.61634,1.87212 1.87212,1.87211 1.87211,3.74423 0,3.74423 -1.87211,3.74423 -1.87212,1.87212 -5.61634,1.87211 -16.84904,0 m 13.10481,0 13.1048,20.59327"
         style="fill:none;stroke:#000000;stroke-width:1.87211502"
         inkscape:connector-curvature="0" />
      <path
         id="path3734"
         d="m 171.78097,541.78797 0,39.31442 m 0,-39.31442 24.33749,0 m -24.33749,18.72115 14.97692,0 m -14.97692,20.59327 24.33749,0"
         style="fill:none;stroke:#000000;stroke-width:1.87211502"
         inkscape:connector-curvature="0" />
      <path
         id="path3736"
         d="m 207.35115,541.78797 0,39.31442 m 0,-39.31442 24.3375,0 m -24.3375,18.72115 14.97692,0 m -14.97692,20.59327 24.3375,0"
         style="fill:none;stroke:#000000;stroke-width:1.87211502"
         inkscape:connector-curvature="0" />
    </g>
    <path
       inkscape:connector-curvature="0"
       style="fill:none;stroke:#000000;stroke-width:1.38979757"
       d="m 270.04166,548.85472 0,31.24901 m 0,-31.24901 18.17248,31.24901 m 0,-31.24901 0,31.24901"
       id="path3740" />
    <path
       inkscape:connector-curvature="0"
       style="fill:none;stroke:#000000;stroke-width:1.38979757"
       d="m 303.79056,550.34277 -2.59607,1.48805 -2.59607,2.97609 -1.29804,4.46415 0,2.97609 1.29804,4.46414 2.59607,2.9761 2.59607,1.48805 3.8941,0 2.59607,-1.48805 2.59607,-2.9761 1.29803,-4.46414 0,-2.97609 -1.29803,-4.46415 -2.59607,-2.97609 -2.59607,-1.48805 -3.8941,0"
       id="path3742" />
    <path
       style="fill:none;stroke:#000000;stroke-width:1.11238837px;stroke-linecap:butt;stroke-linejoin:miter;stroke-opacity:1"
       d="m 296.06893,577.72237 19.67793,0"
       id="path4002"
       inkscape:connector-curvature="0" />
    <path
       style="fill:none;stroke:#333333;stroke-width:0.7881453;stroke-miterlimit:4;stroke-opacity:1;stroke-dasharray:none"
       d="m 359.89668,532.7501 c -85.82195,0.32111 -171.64494,-0.20052 -257.46661,0.25856 0.31586,43.47157 -0.34743,86.94692 0.305,130.41625 88.72332,-0.40575 177.44827,0.31393 266.17083,-0.36198 -0.3329,-43.44572 0.42796,-86.89533 -0.25808,-130.33868 -2.91705,-4.9e-4 -5.8341,0.018 -8.75114,0.0258 z"
       id="rect4063"
       inkscape:connector-curvature="0" />
    <path
       style="fill:none;stroke:#000000;stroke-width:0.74202323px;stroke-linecap:butt;stroke-linejoin:miter;stroke-opacity:1"
       d="m 176.84763,587.47565 124.02389,0"
       id="path4355"
       inkscape:connector-curvature="0" />
    <g
       inkscape:label="Hershey Text"
       transform="matrix(1.6666667,0,0,1.6666667,316.85502,568.76026)"
       id="g4527">
      <path
         inkscape:connector-curvature="0"
         style="fill:none;stroke:#000000"
         d="m -6,-7 0,-1 1,-2 1,-1 2,-1 4,0 2,1 1,1 1,2 0,2 L 5,-4 3,-1 -7,9 7,9"
         transform="translate(10,0)"
         id="path4529" />
    </g>
    <g
       transform="translate(-36.529474,-34.285714)"
       id="g4844">
      <path
         style="fill:none;stroke:#333333;stroke-width:1;stroke-miterlimit:4;stroke-opacity:1"
         d="m 242.43661,377.61979 c 0,9.20521 -7.46231,18.81037 -16.66752,18.81037 -9.20522,0 -16.66752,-9.60516 -16.66752,-18.81037 0,-9.20522 7.4623,-16.66752 16.66752,-16.66752 9.20521,0 16.66752,7.4623 16.66752,16.66752 z"
         id="path4715"
         inkscape:connector-curvature="0"
         sodipodi:nodetypes="sssss" />
      <path
         style="fill:none;stroke:#333333;stroke-width:1.0687964;stroke-miterlimit:4;stroke-opacity:1"
         d="m 264.92455,422.64845 c 0,5.68094 -3.96368,10.28626 -8.85312,10.28626 -4.88944,0 -8.85311,-4.60532 -8.85311,-10.28626 0,-5.68096 3.96367,-10.28626 8.85311,-10.28626 4.88944,0 8.85312,4.6053 8.85312,10.28626 z"
         id="path4719"
         inkscape:connector-curvature="0" />
      <path
         style="fill:none;stroke:#333333;stroke-width:1;stroke-miterlimit:4;stroke-opacity:1"
         d="m 224.84375,358.97321 c -15.33696,-2.00203 -25.85065,12.6796 -15.46875,27.5625 8.94622,18.27407 25.25913,16.56204 31.90625,4.32589 7.79449,-10.65304 0.36061,-30.30404 -12.75,-31.73214 -1.22171,-0.14247 -2.45722,-0.23642 -3.6875,-0.15625 z"
         id="path4723"
         inkscape:connector-curvature="0"
         sodipodi:nodetypes="ccccc" />
      <path
         style="fill:none;stroke:#333333;stroke-width:1.0687964;stroke-miterlimit:4;stroke-opacity:1"
         d="m 255.03561,410.0934 c -9.13828,0.49994 -16.2792,14.6804 -6.56901,21.56515 7.84147,12.986 18.00235,2.34856 18.40563,-7.81241 0.75243,-7.65311 -5.2027,-14.63343 -11.83662,-13.75274 z"
         id="path4725"
         inkscape:connector-curvature="0"
         sodipodi:nodetypes="cccc" />
      <path
         style="fill:none;stroke:#333333;stroke-width:1;stroke-miterlimit:4;stroke-opacity:1"
         d="m 221.25,353.95982 c -12.09072,-0.32966 -25.46037,18.79121 -17.40625,29.8616 3.74643,9.86722 10.31578,18.88973 22.21875,19.73661 14.32454,0.54861 25.44915,-18.03232 20.64732,-30.74107 -2.39788,-9.27645 -9.72679,-19.05492 -19.63393,-18.08036 -0.98961,-0.0575 -4.8333,-0.86892 -5.82589,-0.77678 z"
         id="path4731"
         inkscape:connector-curvature="0"
         sodipodi:nodetypes="cccccc" />
      <path
         style="fill:none;stroke:#333333;stroke-width:1.0687964;stroke-miterlimit:4;stroke-opacity:1"
         d="m 255.5625,405.89286 c -12.00104,0.0214 -19.04172,25.04546 -8.59375,32.14285 2.70712,5.74992 10.75217,6.25324 15.8125,1.33036 10.10406,-7.28188 15.9371,-27.14024 1.375,-30.92411 -1.16371,-0.31545 -7.38384,-2.6577 -8.59375,-2.5491 z"
         id="path4733"
         inkscape:connector-curvature="0"
         sodipodi:nodetypes="ccccc" />
      <path
         style="fill:none;stroke:#333333;stroke-width:1;stroke-miterlimit:4;stroke-opacity:1"
         d="M 220.53571,351.97321 C 207.17692,351.523 194.29323,363.2848 199.5,381.38839 c 0.19167,11.02981 3.22048,16.35321 10.3125,16.39732 8.87451,15.43425 23.3976,13.4993 31.1875,1.625 8.81294,-8.1545 12.90819,-22.03565 7.08482,-32.65625 -3.42321,-8.09717 -9.08865,-14.96713 -18.32589,-14.15625 -1.64208,-0.18865 -7.58989,-0.68802 -9.22322,-0.625 z"
         id="path4739"
         inkscape:connector-curvature="0"
         sodipodi:nodetypes="ccccccc" />
      <path
         style="fill:none;stroke:#333333;stroke-width:1.0687964;stroke-miterlimit:4;stroke-opacity:1"
         d="m 254.875,403.91071 c -13.19883,-3.37398 -16.52487,11.59787 -14.96875,23.71875 0.003,8.67746 4.59271,15.48819 9.4375,15.75 9.9731,11.06859 18.07336,-0.64433 21.71875,-10.40625 12.00864,-10.39421 7.9142,-21.09565 -3.03125,-25.1875 0.26413,-10.53412 -7.97956,-4.9092 -13.15625,-3.875 z"
         id="path4741"
         inkscape:connector-curvature="0"
         sodipodi:nodetypes="cccccc" />
      <path
         style="fill:none;stroke:#333333;stroke-width:1;stroke-miterlimit:4;stroke-opacity:1"
         d="m 218.5625,345.71875 c -13.7892,0.18417 -29.77002,18.35984 -26.9375,31.84821 1.6088,7.34724 0.32738,18.22879 8.96875,21.5 4.87847,0.30744 10.80326,9.9367 15.03125,11.97768 8.73381,6.92793 21.79687,-1.34491 26.9375,-10.38393 10.30665,-9.30256 15.07584,-25.86186 7.33482,-37.8125 -3.55228,-7.88075 -13.0388,-17.04658 -21.89732,-16.00893 -3.1391,-0.24729 -6.28473,-1.28501 -9.4375,-1.12053 z"
         id="path4747"
         inkscape:connector-curvature="0"
         sodipodi:nodetypes="cccccccc" />
      <path
         style="fill:none;stroke:#333333;stroke-width:1.0687964;stroke-miterlimit:4;stroke-opacity:1"
         d="m 263.375,397.36161 c -4.32601,0.57436 -8.15168,5.24096 -12.59375,4.08035 -9.97179,0.34103 -14.24486,12.01 -13.93304,20.375 -0.031,8.54924 -6.40734,22.36646 11.18304,23.40625 3.86817,10.46704 10.96021,7.11478 15.8125,2.3125 4.97322,-0.37056 11.98491,-9.05691 16.19643,-17.28125 5.77623,-6.22878 3.55785,-17.3285 -4.20982,-21.78125 -3.25705,-1.06655 -2.39102,-3.31092 -3.22768,-6.21875 -1.10999,-2.02406 -6.97905,-5.13767 -9.22768,-4.89285 z"
         id="path4749"
         inkscape:connector-curvature="0"
         sodipodi:nodetypes="ccccccccc" />
      <path
         style="fill:none;stroke:#333333;stroke-width:1;stroke-miterlimit:4;stroke-opacity:1"
         d="m 223.22321,342.33928 c -22.6882,-0.12166 -43.95143,19.21285 -33.13839,47.26339 4.04683,10.62271 16.68515,16.81743 24.47768,24.25446 5.79925,3.62328 14.17221,2.30837 19.98214,-1.70982 0.89896,10.21758 -4.65443,24.28735 3.26786,32.64732 7.88789,3.89529 9.50923,4.22399 11.48661,9.17411 9.08119,2.21017 19.39864,-5.03395 25.48214,-10.59821 8.83994,-8.03582 15.18768,-25.72008 4.48214,-35.70536 -3.96434,-5.50547 -6.97946,-10.09991 -13.07143,-13.21429 -5.01821,-1.38811 -14.02961,10.86496 -16.41518,4.18304 -0.54084,-4.82008 5.98878,-13.42842 5.62947,-18.375 2.97561,-19.332 -12.56974,-38.97364 -32.18304,-37.91964 z"
         id="path4787"
         inkscape:connector-curvature="0"
         sodipodi:nodetypes="cccccccccccc" />
      <path
         style="fill:none;stroke:#333333;stroke-width:1;stroke-miterlimit:4;stroke-opacity:1"
         d="m 224.0625,339.24553 c -18.49522,-0.87224 -39.22025,13.87044 -40.20982,33.16518 -0.99902,12.66012 6.03146,27.66634 16.58177,34.83338 7.15646,4.19385 10.58805,13.65771 19.68609,13.58626 3.74379,0.12488 7.78166,-0.80487 11.10714,-2.40625 -0.40887,10.10393 -2.75001,22.42884 5.70982,30.31697 4.19657,2.10562 8.01731,1.60588 9.15179,6.95089 12.31694,2.94514 25.68725,-4.10932 33.44196,-12.74554 7.77018,-9.52016 11.06063,-28.5207 1.1875,-37.73214 -4.17827,-5.54215 -8.80923,-14.03132 -16.375,-14.58928 -4.65969,0.54928 -8.16218,7.66052 -12.46875,7.81696 0.45603,-7.16433 8.24287,-13.27627 7.62946,-20.84375 1.33674,-18.84845 -15.94243,-38.92511 -35.44196,-38.35268 z"
         id="path4808"
         inkscape:connector-curvature="0"
         sodipodi:nodetypes="ccccccccccccc" />
      <path
         style="fill:none;stroke:#333333;stroke-width:1;stroke-miterlimit:4;stroke-opacity:1"
         d="m 220.5,337.25446 c -26.29314,0.25727 -42.99639,21.56065 -39.60268,43.58036 1.39868,13.4756 10.50637,25.28754 21.85268,32.4866 8.81895,10.01466 9.99162,13.63096 17.90625,10.83036 2.39688,0.43572 9.8269,-4.71831 8.21875,0.009 -0.75323,9.2639 0.73614,29.17628 11.30804,28.92411 3.24317,1.13342 4.31076,1.41456 4.28571,5.72321 15.37757,3.8743 32.2837,-6.40582 39.99801,-19.7817 5.84187,-11.13097 6.75937,-26.79456 -2.90426,-36.05312 -4.46189,-6.21353 -10.32062,-20.77178 -19.21875,-13.90625 -2.95726,1.06308 -5.41099,4.1532 -7.4375,5.5625 6.86988,-9.43724 15.15799,-19.06719 8.37946,-22.40179 C 259.19582,350.45207 238.66995,334.38434 218,336.54024 z"
         id="path4812"
         inkscape:connector-curvature="0"
         sodipodi:nodetypes="cccccccccccccc" />
      <path
         style="fill:none;stroke:#333333;stroke-width:1;stroke-miterlimit:4;stroke-opacity:1"
         d="m 219.875,334.37946 c -6.14512,0.86819 -10.92607,2.20329 -16.96875,4.4375 -17.35399,6.88411 -27.77883,26.74234 -23.625,44.9375 2.34019,13.5061 11.18706,26.14393 22.124,33.66997 4.4828,5.0547 10.26918,13.82283 18.40725,10.89699 2.29955,-0.22679 5.62996,-3.7371 7,-3.37946 -0.0502,9.75833 0.15039,23.73621 8.41964,30.41071 2.35753,2.25231 7.21734,0.35418 6.16518,5.25 0.51107,3.31216 6.9893,2.11487 10.08928,2.45536 15.98817,2.79211 48.84867,-25.87064 39.08929,-47.66518 -1.51252,-9.11102 -8.1657,-16.09419 -12.20982,-24.00893 -4.04992,-5.54288 -9.88943,-8.35257 -14.70982,-5.41071 3.26986,-4.10647 9.85467,-11.42159 1.375,-15.21875 -4.29434,-20.60262 -23.72404,-37.37277 -45.15625,-36.375 z"
         id="path4816"
         inkscape:connector-curvature="0"
         sodipodi:nodetypes="cccccccccccccc" />
      <path
         style="fill:none;stroke:#333333;stroke-width:1;stroke-miterlimit:4;stroke-opacity:1"
         d="m 219.8125,331.30803 c -15.56892,1.79729 -31.44327,6.92896 -38.5625,21.57589 -11.61755,21.45077 -0.8365,53.47478 17.9375,66.86161 5.51022,5.8815 10.80914,13.9761 20.25893,10.41518 1.72918,-0.0101 6.06068,-2.41372 5.3973,1.11558 0.24901,10.09866 1.50152,22.93018 11.31252,28.31299 2.80179,0.13677 3.89195,2.60933 3.625,5.33482 3.23396,4.78545 10.14076,2.65698 15.03125,3.5134 15.3547,-2.11516 27.97154,-15.02961 35.5,-28.02233 4.40446,-7.62004 6.04186,-18.99501 2.55804,-27.12946 -2.58734,-9.33517 -9.45779,-18.72748 -14.68304,-26.67857 -2.19263,-3.01338 -6.88955,-3.26041 -9.40625,-4.10268 3.50214,-3.96014 3.18146,-12.83055 -2.03125,-14.97321 -4.79217,-20.99343 -24.97034,-37.28014 -46.9375,-36.22322 z"
         id="path4820"
         inkscape:connector-curvature="0"
         sodipodi:nodetypes="cccccccccccccc" />
      <path
         style="fill:none;stroke:#333333;stroke-width:1;stroke-miterlimit:4;stroke-opacity:1"
         d="m 220.78125,327.85714 c -16.77906,1.12642 -37.40591,9.58171 -44.19196,26.24107 -9.6961,22.61646 1.32779,52.48169 19.66071,67.72321 6.041,5.51704 12.22017,13.47461 21.96875,10.80804 2.3166,-0.5358 5.73546,-2.30101 4.73507,1.65512 0.3298,10.17869 1.07817,22.75891 11.29172,27.31363 3.10213,0.52869 2.56603,7.09171 5.72321,8.19196 5.03837,3.40172 11.8446,0.38166 17.4375,0.21429 16.91149,-3.91463 32.18735,-18.15918 39.08036,-33.53125 5.97885,-14.12709 -1.23574,-29.5639 -9.29018,-41.46875 -3.66073,-5.46006 -7.03489,-14.02647 -15.22768,-13.84375 2.20925,-6.43462 1.29592,-12.33876 -3.53125,-15.125 -2.68003,-21.0953 -25.74231,-38.83405 -47.65625,-38.17857 z"
         id="path4824"
         inkscape:connector-curvature="0"
         sodipodi:nodetypes="ccccccccccccc" />
      <path
         style="fill:none;stroke:#333333;stroke-width:1;stroke-miterlimit:4;stroke-opacity:1"
         d="m 219.03125,324.45798 c -19.62819,1.81373 -42.82102,14.1087 -47.79648,34.57773 -6.44734,24.83254 5.82812,51.55773 25.11336,67.08211 4.46201,9.25167 14.55627,15.352 24.65187,7.82414 -0.65889,11.41322 -2.47349,30.16334 13.3125,31.57773 0.24276,8.19078 4.51967,10.43129 10.6875,7.85977 12.75104,3.64297 30.107,-5.35035 40.33117,-15.01271 11.11326,-10.26303 18.80743,-25.33457 14.38758,-41.20604 -2.97014,-12.55355 -10.45459,-25.39053 -17.9375,-35.64531 -1.78472,-2.18911 -4.84002,-1.50794 -7.15625,-2.32344 1.35663,-5.1815 0.0655,-11.28084 -4.34375,-14.53125 -2.9506,-25.48267 -28.21378,-41.69627 -51.25,-40.20273 z"
         id="path4828"
         inkscape:connector-curvature="0"
         sodipodi:nodetypes="cccccccccccc" />
      <path
         style="fill:none;stroke:#333333;stroke-width:1;stroke-miterlimit:4;stroke-opacity:1"
         d="m 221.125,319.349 c -21.23254,1.2665 -44.22791,15.99629 -51.28125,37.15546 -7.7627,25.8555 4.62681,54.47637 24.90625,70.90625 3.78956,9.0277 11.34639,24.56777 24.03125,10.21875 -0.94112,9.90339 -4.02603,23.427 9.59375,28.40625 2.83904,0.74457 3.20199,1.50617 3.26602,4.71875 1.28275,5.18803 9.10755,8.96335 13.51523,6.73906 15.92624,3.10915 34.47469,-8.27507 45.65546,-18.70781 12.32563,-10.18316 17.99778,-23.36238 11.8961,-45.75 -3.97577,-12.28455 -9.8275,-23.95576 -18.05743,-33.9375 -1.95993,-1.76085 -8.79115,-0.22776 -7.52538,-3.90625 0.2692,-4.58959 0.40794,-8.84278 -2.50587,-12.03125 C 271.3459,339.02299 244.81062,318.84184 221.125,319.349 z"
         id="path4832"
         inkscape:connector-curvature="0"
         sodipodi:nodetypes="ccccccccccccc" />
      <path
         style="fill:none;stroke:#333333;stroke-width:1;stroke-miterlimit:4;stroke-opacity:1"
         d="m 220,317.41071 c -24.00217,2.15018 -47.9703,18.97604 -53.29469,43.32335 -5.13374,25.35459 6.91463,51.87425 26.38844,67.8954 3.141,7.24238 7.99441,17.83505 17.53125,16.6875 1.922,0.14163 4.84342,-2.61791 5.53125,-2 -1.44152,8.84987 0.36345,20.00726 9.625,23.8125 2.71004,0.58645 4.62852,1.64144 4.125,4.78125 2.35222,6.52441 10.24264,9.33009 16.5,7.84375 20.0637,1.83366 37.79211,-11.27218 51.21875,-24.6875 13.14715,-13.88568 10.96621,-35.31789 3.75278,-51.48017 -4.20413,-9.49936 -8.97215,-19.45566 -16.50278,-26.67608 -2.46795,-1.34415 -7.44411,0.27529 -5.625,-4.25 0.72911,-6.14685 -3.4829,-10.94714 -4.25,-16.75 -7.41812,-22.3643 -31.32237,-39.23971 -55,-38.5 z"
         id="path4836"
         inkscape:connector-curvature="0" />
      <path
         style="fill:none;stroke:#333333;stroke-width:1;stroke-miterlimit:4;stroke-opacity:1"
         d="m 219.9375,315.41071 c -26.23722,2.2125 -52.15513,21.5853 -55.8125,48.65625 -3.46032,24.81539 8.47261,50.10995 27.34375,65.8125 3.17346,8.33511 9.76688,19.3285 20.375,17.3125 3.50186,-2.27634 1.15906,3.18983 2.0625,5.09375 0.46846,8.19495 5.93387,15.64565 13.90625,17.875 0.41133,9.01944 11.38581,13.46134 19.40625,11.65625 21.63665,1.26462 40.48045,-12.99617 54.28125,-28.21875 12.27348,-16.30521 8.06374,-39.21247 -0.75,-56.21875 -4.18624,-8.15896 -8.37534,-17.65794 -16.1875,-22.71875 -1.61756,-0.58878 -4.75118,0.21739 -3.25,-2.4375 0.0839,-7.15446 -4.08523,-13.38858 -5.625,-20.1875 -9.03261,-21.73658 -32.04369,-37.2015 -55.75,-36.625 z"
         id="path4840"
         inkscape:connector-curvature="0" />
    </g>
    <g
       id="g5909"
       transform="translate(-11.428572,-20)">
      <path
         sodipodi:nodetypes="cccc"
         inkscape:connector-curvature="0"
         id="path5049"
         d="m 320.78675,272.34496 c -3.81919,9.48781 -0.50412,9.72693 6.0625,11.09375 2.76487,-1.66265 7.40466,-9.11527 0.72355,-9.32068 -2.01614,-0.13368 -5.31297,-3.94418 -6.78605,-1.77307 z"
         style="fill:none;stroke:#333333;stroke-width:1;stroke-miterlimit:4;stroke-opacity:1;stroke-dasharray:none" />
      <path
         sodipodi:nodetypes="ccccc"
         inkscape:connector-curvature="0"
         id="path5053"
         d="m 321.443,269.71996 c -3.43029,1.63162 -3.25019,7.51146 -4.0625,10.5625 1.85047,1.99713 7.91999,6.2907 11.34375,4.84946 3.60891,-2.71796 6.03337,-11.04604 0.84375,-12.25063 -3.11032,0.14843 -4.98286,-3.54831 -8.125,-3.16133 z"
         style="fill:none;stroke:#333333;stroke-width:1;stroke-miterlimit:4;stroke-opacity:1;stroke-dasharray:none" />
      <path
         sodipodi:nodetypes="ccccc"
         inkscape:connector-curvature="0"
         id="path5057"
         d="m 321.66619,267.71996 c -5.36685,1.87956 -5.18933,8.67262 -6.50444,13.15625 3.30599,4.50539 10.49359,9.51128 15.65625,5.50444 3.80218,-3.85289 5.56313,-13.90097 -1,-15.50444 -3.07875,-0.12303 -4.74363,-3.86299 -8.15181,-3.15625 z"
         style="fill:none;stroke:#333333;stroke-width:1;stroke-miterlimit:4;stroke-opacity:1;stroke-dasharray:none" />
      <path
         sodipodi:nodetypes="ccccc"
         inkscape:connector-curvature="0"
         id="path5061"
         d="m 321.78675,265.65746 c -7.57219,0.0433 -9.58,7.20952 -8.25,16.375 5.28464,7.21523 15.88035,12.39946 19.59375,3.7086 4.54505,-5.39304 6.24534,-15.2123 -4,-17.05235 -2.5179,-1.98874 -4.90376,-4.74396 -7.34375,-3.03125 z"
         style="fill:none;stroke:#333333;stroke-width:1;stroke-miterlimit:4;stroke-opacity:1;stroke-dasharray:none" />
      <path
         sodipodi:nodetypes="cccccccc"
         inkscape:connector-curvature="0"
         id="path5065"
         d="m 322.66175,263.15746 c -4.8455,0.55847 -10.03285,3.16502 -10.875,8.5625 -1.47529,5.87824 -1.65901,16.03967 4.625,16.21875 4.67772,5.31833 14.32986,9.17695 17.9375,-0.15625 4.39717,-5.22008 6.88335,-14.8534 0.0937,-19.21875 -3.85734,-1.14114 -6.59741,-4.209 -10.34375,-5.40625 -0.47415,-0.051 -0.9633,-0.051 -1.4375,0 z"
         style="fill:none;stroke:#333333;stroke-width:1;stroke-miterlimit:4;stroke-opacity:1;stroke-dasharray:none" />
      <path
         sodipodi:nodetypes="ccccccc"
         inkscape:connector-curvature="0"
         id="path5069"
         d="m 322.47425,261.15746 c -7.9933,-2.62679 -13.52892,6.4462 -13.34375,14.03125 -0.70325,5.35159 -0.11503,13.4003 6.34375,14.71875 4.51539,5.4016 14.46326,8.38568 19.40625,1.21875 4.27122,-6.15385 8.72017,-15.14051 3.1875,-22 -3.0339,-4.94486 -8.34168,-5.2532 -12.59375,-7.59375 -0.92893,-0.49401 -1.98655,-0.4431 -3,-0.375 z"
         style="fill:none;stroke:#333333;stroke-width:1;stroke-miterlimit:4;stroke-opacity:1;stroke-dasharray:none" />
      <path
         sodipodi:nodetypes="ccccccc"
         inkscape:connector-curvature="0"
         id="path5073"
         d="m 318.818,258.71996 c -9.64212,1.38627 -13.25944,12.63737 -12.66386,20.96875 -1.0615,7.55334 3.26685,12.04455 8.85136,12.65625 5.8344,9.49294 18.06034,7.74971 22.375,-1.34375 5.21576,-7.08587 10.5518,-21.82095 0.90625,-24.875 -3.93179,-3.81815 -9.51119,-5.64936 -14.65625,-7 -1.61833,0.057 -3.16031,-0.68214 -4.8125,-0.40625 z"
         style="fill:none;stroke:#333333;stroke-width:1;stroke-miterlimit:4;stroke-opacity:1;stroke-dasharray:none" />
      <path
         sodipodi:nodetypes="cccccc"
         inkscape:connector-curvature="0"
         id="path5077"
         d="m 318.943,256.94125 c -10.92676,1.22344 -17.53663,11.61348 -14.875,23.24746 -1.10791,6.51504 3.53778,12.31886 9.90625,13.46114 5.80027,10.57739 20.30932,7.75114 24.75,-2.03506 4.57387,-7.1056 9.99412,-16.2393 4.78125,-24.33233 -6.79192,-5.83978 -15.35254,-10.15116 -24.5625,-10.34121 z"
         style="fill:none;stroke:#333333;stroke-width:1;stroke-miterlimit:4;stroke-opacity:1;stroke-dasharray:none" />
      <path
         sodipodi:nodetypes="cscccc"
         inkscape:connector-curvature="0"
         id="path5081"
         d="m 318.6305,255.47504 c -12.1429,0.94397 -17.13582,13.42748 -15.99365,24.99492 0.70626,7.15283 3.88193,13.42423 10.24365,15.25 1.26951,10.81113 22.34432,7.61818 26.86739,-3.1875 5.1744,-7.48611 11.29188,-19.13933 5.03886,-27.53886 -7.25404,-6.23366 -16.43369,-9.51786 -26.15625,-9.51856 z"
         style="fill:none;stroke:#333333;stroke-width:1;stroke-miterlimit:4;stroke-opacity:1;stroke-dasharray:none" />
      <path
         sodipodi:nodetypes="ccccccc"
         inkscape:connector-curvature="0"
         id="path5085"
         d="m 316.8391,253.53246 c -12.35476,1.09518 -17.4654,14.6108 -16.30235,25.74746 0.14452,7.47002 3.22538,15.22031 9.86612,18.47129 4.98874,8.01626 15.60863,7.63595 22.29013,4.28125 8.13364,-3.79333 11.57957,-13.91769 15.1875,-21.44765 3.39789,-7.84223 2.25581,-17.46162 -6.30489,-20.92735 -6.8051,-4.2296 -16.68102,-6.40123 -24.73651,-6.125 z"
         style="fill:none;stroke:#333333;stroke-width:1;stroke-miterlimit:4;stroke-opacity:1;stroke-dasharray:none" />
      <path
         sodipodi:nodetypes="ccccccc"
         inkscape:connector-curvature="0"
         id="path5089"
         d="m 316.06039,251.53246 c -12.84705,0.77998 -18.81116,15.26984 -17.61739,26.875 -0.0322,8.29816 4.45585,17.01203 11.8539,21.28125 8.65836,11.53316 26.40614,6.78679 32.32725,-5.21875 4.74408,-9.00309 12.60562,-20.86811 6.9751,-31.16386 -4.95778,-7.4467 -14.1217,-8.66796 -22.36992,-10.54981 -3.26122,-0.54843 -7.84768,-1.35456 -11.16894,-1.22383 z"
         style="fill:none;stroke:#333333;stroke-width:1;stroke-miterlimit:4;stroke-opacity:1;stroke-dasharray:none" />
      <path
         sodipodi:nodetypes="cccccccc"
         inkscape:connector-curvature="0"
         id="path5093"
         d="m 311.22871,250.85835 c -13.64155,1.27124 -15.83954,15.42928 -14.4069,27.70536 -0.13196,9.5949 5.14543,17.29258 12.83994,22.5211 5.03567,11.06272 31.44019,7.92939 33.96367,-5.77745 5.32265,-9.9379 12.61895,-21.76426 6.36739,-33.11865 -7.24013,-10.13062 -17.84326,-10.82998 -29.12325,-12.59375 -1.15441,-0.0593 -1.92344,-0.2853 -3.07835,-0.20977 z"
         style="fill:none;stroke:#333333;stroke-width:1;stroke-miterlimit:4;stroke-opacity:1;stroke-dasharray:none" />
      <path
         sodipodi:nodetypes="cccccccc"
         inkscape:connector-curvature="0"
         id="path5097"
         d="m 317.34925,246.36728 c -7.27271,1.32942 -17.10965,3.48233 -20.72768,10.97768 -4.5988,9.3017 -3.8283,20.57853 -1.375,30.34375 1.95961,6.85689 9.01566,11.2498 13.63393,16.03125 5.02906,10.76165 17.95163,10.89174 31.58929,1 5.85085,-4.50717 7.30423,-12.39058 11.13839,-18.40625 5.20676,-9.49135 5.30358,-23.51716 -4.43304,-30.46875 -8.15406,-6.52155 -19.7945,-8.67869 -29.82589,-9.47768 z"
         style="fill:none;stroke:#333333;stroke-width:1;stroke-miterlimit:4;stroke-opacity:1;stroke-dasharray:none" />
      <path
         sodipodi:nodetypes="cccccccc"
         inkscape:connector-curvature="0"
         id="path5869"
         d="m 313.07143,244.40625 c -10.01556,1.31158 -19.6344,5.73406 -21.91964,16.84375 -2.68981,10.34166 -0.57075,24.76064 4.41071,34.28125 4.22138,6.12798 7.33723,4.2416 11.20982,10.62946 8.61498,10.18907 25.98865,9.88858 34.38785,0.51183 7.27858,-5.44658 10.60769,-15.01454 15.0809,-22.42254 4.85201,-10.98605 1.87852,-25.74437 -9.29464,-31.8125 -8.54741,-5.45853 -23.84507,-7.39334 -33.875,-8.03125 z"
         style="fill:none;stroke:#333333;stroke-width:1;stroke-miterlimit:4;stroke-opacity:1;stroke-dasharray:none" />
      <path
         sodipodi:nodetypes="cccccccc"
         inkscape:connector-curvature="0"
         id="path5873"
         d="m 312.8125,242.4375 c -11.17773,-0.25136 -22.23531,4.14124 -24.0625,20.46875 -1.91932,11.98257 -0.14894,27.05388 6.4375,37.25446 3.40005,3.71282 7.48236,3.6967 9.92857,8.33929 10.12442,11.09211 30.14949,14.58835 39.35268,-2.03125 6.77401,-6.86227 13.84803,-18.98069 17.73214,-27.76339 4.9236,-12.74553 -1.56777,-25.22101 -17.91964,-29.95536 -5.16678,-4.89756 -17.9231,-6.02697 -31.46875,-6.3125 z"
         style="fill:none;stroke:#333333;stroke-width:1;stroke-miterlimit:4;stroke-opacity:1;stroke-dasharray:none" />
      <path
         sodipodi:nodetypes="cccccccc"
         inkscape:connector-curvature="0"
         id="path5877"
         d="m 309.5625,240.5 c -10.92525,-0.0484 -22.32518,8.21703 -23.77232,19.125 -2.4276,14.4033 -0.16147,33.24438 9.08482,45.20536 3.8806,2.50017 7.78255,4.83282 10.34375,8.78125 9.88173,9.90277 32.49497,7.84107 41.89732,-3.87947 8.72354,-11.23961 16.8077,-25.42879 20.75893,-39.4375 2.93821,-12.66749 -9.63556,-19.82605 -21.4375,-22.95089 -10.63486,-7.08391 -24.46777,-6.64002 -36.875,-6.84375 z"
         style="fill:none;stroke:#333333;stroke-width:1;stroke-miterlimit:4;stroke-opacity:1;stroke-dasharray:none" />
      <path
         sodipodi:nodetypes="cccccccc"
         inkscape:connector-curvature="0"
         id="path5881"
         d="m 308.46875,236.03125 c -13.16424,0.4068 -25.28015,14.092 -25.25,27.5625 -1.21482,14.86396 -0.71705,31.09885 8.80804,42.9375 7.40377,3.28836 12.47122,12.96343 20.62946,14.85268 14.86255,4.87936 35.18563,-2.30711 42.61139,-16.48473 7.55765,-11.55186 12.97056,-24.1212 15.04486,-37.9617 2.27611,-12.68494 -10.23552,-19.24687 -23.03125,-21.46875 -11.43901,-7.3271 -25.73283,-9.3185 -38.8125,-9.4375 z"
         style="fill:none;stroke:#333333;stroke-width:1;stroke-miterlimit:4;stroke-opacity:1;stroke-dasharray:none" />
      <path
         sodipodi:nodetypes="cccccccc"
         inkscape:connector-curvature="0"
         id="path5885"
         d="m 307.75,232.27679 c -16.08889,1.32167 -29.53046,19.35757 -28.59118,35.00292 -0.78166,14.12941 1.05225,30.21751 10.9885,41.06404 8.53296,4.72295 15.09799,16.43546 25.72768,17.36607 17.35594,3.20524 38.28442,-7.473 45.6897,-23.66397 7.03451,-12.27569 13.11618,-26.08476 12.98441,-40.48335 -1.96153,-11.3208 -17.94972,-16.22128 -27.97768,-18 -11.87775,-7.43609 -24.92379,-11.30344 -38.82143,-11.28571 z"
         style="fill:none;stroke:#333333;stroke-width:1;stroke-miterlimit:4;stroke-opacity:1;stroke-dasharray:none" />
      <path
         sodipodi:nodetypes="cccccccc"
         inkscape:connector-curvature="0"
         id="path5889"
         d="m 306.84375,230.34375 c -19.0518,1.59015 -35.59622,15.66531 -29.8125,39.5625 -0.32108,14.33045 -2.5386,33.20226 12.875,40.625 9.11935,6.4689 16.05733,21.39156 28.21875,17.53125 20.07316,6.32182 39.81982,-7.47038 47.45934,-29.1299 6.23484,-12.06931 12.15308,-25.64899 10.50941,-39.52635 -2.77682,-15.78847 -17.45903,-16.71275 -28.8125,-17.75 -11.98538,-8.71224 -26.17592,-15.03297 -40.4375,-11.3125 z"
         style="fill:none;stroke:#333333;stroke-width:1;stroke-miterlimit:4;stroke-opacity:1;stroke-dasharray:none" />
      <path
         inkscape:connector-curvature="0"
         id="path5901"
         d="m 313.40625,227.3125 c -13.72476,0.9377 -29.05957,5.30127 -35.90625,18.34375 -4.89435,8.19342 -3.62777,18.01461 -2.53125,26.96875 -0.63432,13.16149 -1.19931,29.87275 11.15625,38.0625 10.33279,5.14046 15.35268,19.55096 28.1875,20 6.26961,-1.15048 12.55339,2.25133 18.96875,0.5 16.88801,-2.63939 29.2136,-16.98793 34.64546,-32.45147 6.6763,-13.37141 13.53367,-29.03513 8.94829,-44.07978 -4.03384,-11.86771 -17.95011,-14.38426 -28.90625,-14.96875 -10.06972,-7.15985 -21.87794,-13.04705 -34.5625,-12.375 z"
         style="fill:none;stroke:#333333;stroke-width:1;stroke-miterlimit:4;stroke-opacity:1;stroke-dasharray:none" />
      <path
         inkscape:connector-curvature="0"
         id="path5905"
         d="m 314.53125,225.28125 c -15.66124,0.43832 -33.58769,6.49782 -40.09375,21.9375 -5.1043,11.67959 -0.42559,24.58496 -1.69495,36.81222 -0.15317,11.59539 3.89504,24.66986 15.06995,30.00028 8.62262,6.46734 14.8957,19.16928 27.3125,18.5625 7.53362,-0.29651 15.19876,2.62862 22.59375,-0.3125 16.67329,-4.50557 27.64689,-19.68372 33.28125,-35.25 6.88779,-13.96559 13.47347,-31.52021 6.21875,-46.5 -5.75623,-9.81417 -18.09745,-12.20609 -28.5625,-12.8125 -10.0049,-7.02606 -21.59812,-12.74429 -34.125,-12.4375 z"
         style="fill:none;stroke:#333333;stroke-width:1;stroke-miterlimit:4;stroke-opacity:1;stroke-dasharray:none" />
    </g>
  </g>
</svg>
