<?xml version="1.0" encoding="UTF-8" standalone="no"?>
<!-- Created with Inkscape (http://www.inkscape.org/) -->

<svg
   xmlns:dc="http://purl.org/dc/elements/1.1/"
   xmlns:cc="http://creativecommons.org/ns#"
   xmlns:rdf="http://www.w3.org/1999/02/22-rdf-syntax-ns#"
   xmlns:svg="http://www.w3.org/2000/svg"
   xmlns="http://www.w3.org/2000/svg"
   xmlns:sodipodi="http://sodipodi.sourceforge.net/DTD/sodipodi-0.dtd"
   xmlns:inkscape="http://www.inkscape.org/namespaces/inkscape"
   width="744.09448819"
   height="1052.3622047"
   id="svg3783"
   version="1.1"
   inkscape:version="0.48.2 r9819"
   sodipodi:docname="sun003.svg">
  <sodipodi:namedview
     id="base"
     pagecolor="#ffffff"
     bordercolor="#666666"
     borderopacity="1.0"
     inkscape:pageopacity="0.0"
     inkscape:pageshadow="2"
     inkscape:zoom="0.24748737"
     inkscape:cx="-333.8342"
     inkscape:cy="835.49821"
     inkscape:document-units="px"
     inkscape:current-layer="svg3783"
     showgrid="false"
     inkscape:window-width="1024"
     inkscape:window-height="748"
     inkscape:window-x="10"
     inkscape:window-y="-16"
     inkscape:window-maximized="0" />
  <defs
     id="defs3785">
    <inkscape:perspective
       sodipodi:type="inkscape:persp3d"
       inkscape:vp_x="-314.90439 : 155.3937 : 0"
       inkscape:vp_y="0 : 1000 : 0"
       inkscape:vp_z="372.04724 : 175.3937 : 0"
       inkscape:persp3d-origin="334.90438 : 296.50168 : 1"
       id="perspective3823" />
  </defs>
  <metadata
     id="metadata3788">
    <rdf:RDF>
      <cc:Work
         rdf:about="">
        <dc:format>image/svg+xml</dc:format>
        <dc:type
           rdf:resource="http://purl.org/dc/dcmitype/StillImage" />
        <dc:title></dc:title>
      </cc:Work>
    </rdf:RDF>
  </metadata>
  <g
     inkscape:label="Layer 1"
     inkscape:groupmode="layer"
     id="layer1">
    <flowRoot
       xml:space="preserve"
       id="flowRoot3475"
       style="fill:black;stroke:none;stroke-opacity:1;stroke-width:1px;stroke-linejoin:miter;stroke-linecap:butt;fill-opacity:1;font-family:Sans;font-style:normal;font-weight:normal;font-size:40px;line-height:125%;letter-spacing:0px;word-spacing:0px"><flowRegion
         id="flowRegion3477"><rect
           id="rect3479"
           width="474.7717"
           height="76.771591"
           x="40.406101"
           y="840.23016" /></flowRegion><flowPara
         id="flowPara3481" /></flowRoot>  </g>
  <path
     sodipodi:type="arc"
     style="fill:none;stroke:#000000;stroke-width:1;stroke-miterlimit:4;stroke-opacity:1;stroke-dasharray:none"
     id="path8799"
     sodipodi:cx="-981.86829"
     sodipodi:cy="-10.318293"
     sodipodi:rx="32.324883"
     sodipodi:ry="32.324883"
     d="m -1012.8138,-19.660331 a 32.324883,32.324883 0 1 1 -0.053,0.17868"
     sodipodi:start="3.4347795"
     sodipodi:end="9.7121958"
     sodipodi:open="true" />
  <path
     style="fill:none;stroke:#000000;stroke-width:1;stroke-miterlimit:4;stroke-opacity:1;stroke-dasharray:none"
     d="M 485.21875 -57.375 C 471.439 -57.259794 458.75457 -48.261219 454.5625 -34.375 L 454.5 -34.1875 C 450.45009 -20.486998 455.90211 -6.2411232 467.03125 1.5 C 466.61899 2.4945143 466.25529 3.5098305 465.9375 4.5625 L 465.875 4.75 C 460.83485 21.800415 470.5102 39.736569 487.53125 44.875 C 494.17839 46.881684 500.97356 46.638056 507.09375 44.59375 C 523.47755 48.276739 540.16394 38.736217 545.09375 22.40625 C 550.25322 5.3155188 540.59073 -12.715535 523.5 -17.875 C 521.42987 -18.499947 519.35541 -18.885087 517.28125 -19.09375 C 520.29873 -35.115213 510.80475 -51.150335 494.84375 -55.96875 C 491.63924 -56.93615 488.39869 -57.401586 485.21875 -57.375 z M -982.15625 -42.65625 C -995.936 -42.541044 -1008.6204 -33.542469 -1012.8125 -19.65625 L -1012.875 -19.46875 C -1017.9152 -2.4183353 -1008.2398 15.486569 -991.21875 20.625 C -974.12802 25.784465 -956.09697 16.121981 -950.9375 -0.96875 C -945.77803 -18.059481 -955.44052 -36.090535 -972.53125 -41.25 C -975.73576 -42.2174 -978.97631 -42.682836 -982.15625 -42.65625 z M -48 14.65625 C -61.779752 14.771456 -74.495435 23.770031 -78.6875 37.65625 L -78.71875 37.84375 C -83.758901 54.894165 -74.083554 72.799069 -57.0625 77.9375 C -39.971769 83.096965 -21.940715 73.434481 -16.78125 56.34375 C -11.621785 39.253019 -21.315519 21.221965 -38.40625 16.0625 C -41.610762 15.0951 -44.820057 14.629664 -48 14.65625 z M 80.125 28.75 C 66.345248 28.865206 53.660815 37.863781 49.46875 51.75 L 49.40625 51.9375 C 49.32319 52.218486 49.2626 52.499853 49.1875 52.78125 C 46.227092 56.147823 43.912441 60.174804 42.53125 64.75 L 42.46875 64.9375 C 39.919239 73.562285 41.13152 82.411677 45.15625 89.71875 C 42.915054 92.686068 41.137481 96.075843 40 99.84375 L 39.96875 100.03125 C 38.708712 104.29385 38.348198 108.62325 38.8125 112.78125 C 37.976441 112.45098 37.126147 112.1395 36.25 111.875 C 19.159269 106.71553 1.1282151 116.37802 -4.03125 133.46875 L -4.09375 133.65625 C -9.1339011 150.70666 0.54144554 168.61157 17.5625 173.75 C 26.554515 176.46457 35.809845 175.07332 43.3125 170.65625 C 46.904256 179.27251 54.18017 186.27963 63.8125 189.1875 C 74.120347 192.29931 84.757031 190.01808 92.71875 183.96875 C 92.696332 184.0412 92.678203 184.11478 92.65625 184.1875 L 92.59375 184.375 C 87.553599 201.42541 97.228946 219.33032 114.25 224.46875 C 125.84741 227.96985 137.88173 224.6541 146.03125 216.8125 C 149.07275 216.95521 152.08006 216.65555 154.96875 215.96875 C 155.27944 217.89517 155.76101 219.77057 156.40625 221.59375 C 144.1779 223.18302 133.42053 231.73981 129.625 244.3125 L 129.5625 244.5 C 124.52235 261.55041 134.1977 279.45532 151.21875 284.59375 C 154.33321 285.53396 157.46832 285.96752 160.5625 285.96875 C 160.77907 286.03907 160.99973 286.12138 161.21875 286.1875 C 162.85199 286.68055 164.48653 287.02137 166.125 287.25 C 165.04968 302.01624 174.2837 316.07916 189.03125 320.53125 C 192.2881 321.51445 195.58293 321.95021 198.8125 321.90625 C 202.81412 327.37585 208.57808 331.6415 215.5625 333.75 C 232.65323 338.90947 250.68428 329.24698 255.84375 312.15625 C 258.90718 302.00863 256.74858 291.51507 250.90625 283.59375 C 261.21602 280.72334 269.86493 272.78725 273.1875 261.78125 C 273.97821 259.16202 274.41106 256.5199 274.53125 253.90625 C 275.83831 254.50087 277.21257 255.01111 278.625 255.4375 C 291.66056 259.37277 305.24896 254.68568 313.25 244.65625 C 313.70658 244.81651 314.15717 244.95252 314.625 245.09375 C 331.71573 250.25322 349.74678 240.59073 354.90625 223.5 C 355.61113 221.16509 356.01737 218.80375 356.1875 216.46875 C 358.95208 213.19719 361.12052 209.33125 362.4375 204.96875 C 367.59697 187.87802 357.93448 169.84697 340.84375 164.6875 C 338.25741 163.90672 335.64405 163.47129 333.0625 163.34375 C 332.42271 150.06208 323.58182 138.03118 310.125 133.96875 C 307.73723 133.24791 305.32453 132.8183 302.9375 132.65625 C 303.52302 130.32312 303.8383 127.9746 303.90625 125.65625 C 306.93508 127.99337 310.43346 129.82897 314.3125 131 C 323.15621 133.6698 332.25393 132.34508 339.6875 128.09375 C 342.47096 138.57526 350.4573 147.4193 361.59375 150.78125 C 378.68448 155.94072 396.71553 146.27823 401.875 129.1875 C 402.63057 126.68467 403.07605 124.15627 403.21875 121.65625 C 412.47913 118.29877 420.08974 110.7828 423.15625 100.625 C 428.31572 83.534269 418.65323 65.503215 401.5625 60.34375 C 398.35799 59.37635 395.11744 58.910914 391.9375 58.9375 C 378.15775 59.052706 365.44207 68.051281 361.25 81.9375 L 361.21875 82.125 C 360.49912 84.559461 360.0786 87.007846 359.9375 89.4375 C 358.19519 90.069599 356.51271 90.863904 354.90625 91.78125 C 352.13146 81.295634 344.14828 72.459269 333 69.09375 C 329.79549 68.12635 326.55494 67.692164 323.375 67.71875 C 309.59525 67.833956 296.91082 76.801281 292.71875 90.6875 L 292.65625 90.875 C 291.84403 93.622676 291.42248 96.389288 291.34375 99.125 C 288.31235 96.786704 284.81958 94.953197 280.9375 93.78125 C 277.73299 92.81385 274.52369 92.379664 271.34375 92.40625 C 257.564 92.521456 244.84832 101.52003 240.65625 115.40625 L 240.625 115.5625 C 235.58485 132.61291 245.2602 150.54907 262.28125 155.6875 C 264.65824 156.40508 267.06129 156.80573 269.4375 156.96875 C 268.33454 161.31081 268.15809 165.68693 268.8125 169.875 C 265.36211 166.73031 261.17654 164.28384 256.40625 162.84375 C 253.20174 161.87635 249.96119 161.44216 246.78125 161.46875 C 233.0015 161.58396 220.31707 170.55128 216.125 184.4375 L 216.0625 184.625 C 215.09786 187.88829 214.65698 191.1745 214.71875 194.40625 C 210.73881 187.66642 204.30271 182.34669 196.21875 179.90625 C 190.55436 178.19625 184.80655 178.12774 179.4375 179.40625 C 177.543 167.56817 169.12539 157.26074 156.875 153.5625 C 153.67049 152.5951 150.42994 152.16091 147.25 152.1875 C 138.92972 152.25706 131.01826 155.58264 125.125 161.25 C 117.43412 160.8787 109.98631 163.29185 104.03125 167.8125 C 104.05352 167.74051 104.07194 167.66601 104.09375 167.59375 C 107.64089 155.84387 104.18665 143.65058 96.125 135.5 C 108.20024 133.78383 118.77444 125.25694 122.53125 112.8125 C 123.18875 110.63453 123.58986 108.42993 123.78125 106.25 C 127.42025 109.87465 131.99166 112.66258 137.25 114.25 C 154.34073 119.40947 172.37178 109.74698 177.53125 92.65625 C 182.69072 75.565519 173.02823 57.534465 155.9375 52.375 C 152.73299 51.4076 149.49244 50.973414 146.3125 51 C 139.09072 51.060378 132.18029 53.580538 126.625 57.9375 C 122.62511 51.448006 116.34056 46.313896 108.46875 43.9375 C 108.19761 43.855648 107.92784 43.793012 107.65625 43.71875 C 103.64611 37.424345 97.455276 32.482371 89.75 30.15625 C 86.545488 29.18885 83.304943 28.723414 80.125 28.75 z M 520.46875 46.96875 C 506.689 47.083956 494.00457 56.082531 489.8125 69.96875 L 489.75 70.15625 C 488.37124 74.820495 488.07722 79.549202 488.75 84.0625 C 481.01946 87.889659 474.81466 94.777985 472.125 103.6875 L 472.09375 103.84375 C 467.0536 120.89416 476.72895 138.83032 493.75 143.96875 C 495.56745 144.51741 497.39664 144.87205 499.21875 145.09375 C 493.53104 146.90316 488.40151 150.30247 484.46875 154.875 C 476.45824 158.64004 470.00979 165.63944 467.25 174.78125 L 467.1875 174.9375 C 462.14735 191.98791 471.8227 209.92407 488.84375 215.0625 C 492.16341 216.06466 495.5212 216.50147 498.8125 216.4375 C 504.37891 217.1484 509.885 216.34556 514.875 214.34375 C 525.61041 212.53666 535.03205 205.33715 539.375 194.8125 C 542.79642 203.92448 550.25646 211.41115 560.28125 214.4375 C 575.21233 218.945 590.89971 212.13137 598.0625 198.9375 C 600.57698 200.57549 603.3579 201.90168 606.375 202.8125 C 623.46573 207.97197 641.52803 198.27823 646.6875 181.1875 C 651.84697 164.09677 642.15323 146.06572 625.0625 140.90625 C 621.85799 139.93885 618.61744 139.50466 615.4375 139.53125 C 603.80047 139.62854 592.93408 146.04674 587.3125 156.40625 C 584.7894 154.75977 581.9982 153.4458 578.96875 152.53125 C 575.76424 151.56385 572.52369 151.12966 569.34375 151.15625 C 557.26357 151.25725 546.03787 158.16141 540.625 169.21875 C 538.25271 158.05777 530.0074 148.49928 518.3125 144.96875 C 516.50123 144.42195 514.69108 144.0662 512.875 143.84375 C 522.68674 140.71551 530.83019 132.94724 534.03125 122.34375 C 535.45661 117.62226 535.74474 112.85575 535.0625 108.28125 C 542.7951 104.45741 548.99691 97.568812 551.6875 88.65625 C 556.84697 71.565519 547.18448 53.534465 530.09375 48.375 C 526.88924 47.4076 523.64869 46.942164 520.46875 46.96875 z M 596.8125 71.34375 C 583.03275 71.458956 570.31707 80.457531 566.125 94.34375 L 566.09375 94.5 C 561.0536 111.55041 570.72895 129.48657 587.75 134.625 C 604.84073 139.78447 622.87178 130.09073 628.03125 113 C 633.19072 95.909269 623.52823 77.878215 606.4375 72.71875 C 603.23299 71.75135 599.99244 71.317164 596.8125 71.34375 z M 418.4375 133.15625 C 404.65775 133.27146 391.94207 142.23878 387.75 156.125 L 387.71875 156.3125 C 382.6786 173.36291 392.35395 191.29907 409.375 196.4375 C 426.46573 201.59697 444.49678 191.90323 449.65625 174.8125 C 454.81572 157.72177 445.12198 139.69072 428.03125 134.53125 C 424.82674 133.56385 421.61744 133.12966 418.4375 133.15625 z M -582.53125 168.15625 C -596.311 168.27146 -609.02668 177.27003 -613.21875 191.15625 L -613.25 191.3125 C -618.29015 208.36291 -608.6148 226.29907 -591.59375 231.4375 C -574.50302 236.59697 -556.47197 226.93448 -551.3125 209.84375 C -546.15303 192.75302 -555.81552 174.69072 -572.90625 169.53125 C -576.11076 168.56385 -579.35131 168.12966 -582.53125 168.15625 z M 278.96875 188.78125 C 280.46337 190.14736 282.11574 191.39089 283.875 192.46875 C 282.35078 192.66453 280.84581 192.93685 279.375 193.34375 C 279.35486 191.79985 279.20568 190.28654 278.96875 188.78125 z M 219.21875 210.1875 C 222.08139 215.0552 226.20068 219.18655 231.3125 222.03125 C 222.03178 225.38588 214.38417 232.91885 211.3125 243.09375 L 211.25 243.28125 C 209.60933 248.83152 209.52618 254.45507 210.75 259.71875 C 209.77017 259.31444 208.75482 258.93778 207.71875 258.625 C 206.07532 258.12887 204.4306 257.78792 202.78125 257.5625 C 203.21592 251.62329 201.96698 245.78968 199.375 240.65625 C 207.96602 237.05663 214.94155 229.80104 217.84375 220.1875 C 218.84903 216.85751 219.28475 213.4871 219.21875 210.1875 z M 625.3125 220.625 C 612.44287 220.7326 600.52755 228.58882 595.59375 240.9375 C 594.26892 240.78675 592.936 240.70779 591.625 240.71875 C 577.84525 240.83396 565.16082 249.83253 560.96875 263.71875 L 560.90625 263.875 C 555.8661 280.92541 565.54145 298.86157 582.5625 304 C 598.74923 308.88656 615.76665 300.48538 621.90625 285.0625 C 637.14836 286.82263 651.94078 277.48719 656.53125 262.28125 C 661.69072 245.19052 651.99698 227.15947 634.90625 222 C 631.70174 221.0326 628.49244 220.59841 625.3125 220.625 z M 477.96875 233.1875 C 466.44629 233.28384 455.69716 239.57433 450.03125 249.75 C 449.74602 249.65527 449.47702 249.55615 449.1875 249.46875 C 432.09677 244.30928 414.03447 253.97177 408.875 271.0625 L 408.84375 271.25 C 408.14002 273.63066 407.71452 276.03231 407.5625 278.40625 C 405.69594 266.52555 397.25271 256.17712 384.96875 252.46875 C 367.87802 247.30928 349.81572 256.97177 344.65625 274.0625 L 344.625 274.25 C 340.72916 287.42931 345.62134 301.14847 355.90625 309.0625 C 351.7451 312.25887 348.32613 316.49563 346.09375 321.53125 C 345.95959 321.48887 345.82259 321.44703 345.6875 321.40625 C 342.48299 320.43885 339.24244 320.00466 336.0625 320.03125 C 322.28275 320.14646 309.59832 329.11378 305.40625 343 L 305.34375 343.1875 C 305.07407 344.09981 304.8428 345.02221 304.65625 345.9375 C 294.69424 347.9931 285.98599 354.69206 281.65625 364.375 C 278.7653 362.24781 275.47604 360.56529 271.84375 359.46875 C 261.60427 356.37758 251.03795 358.60303 243.09375 364.5625 C 239.55989 361.22188 235.22223 358.62605 230.25 357.125 C 213.15927 351.96553 195.12822 361.62802 189.96875 378.71875 L 189.90625 378.90625 C 184.8661 395.95666 194.54145 413.89282 211.5625 419.03125 C 221.77961 422.11566 232.34113 419.87047 240.28125 413.9375 C 243.81695 417.28389 248.18172 419.87326 253.15625 421.375 C 268.90257 426.12861 285.45856 418.28499 292 403.65625 C 294.8916 405.78538 298.18026 407.46597 301.8125 408.5625 C 318.90323 413.72197 336.93428 404.02823 342.09375 386.9375 C 342.38773 385.96371 342.61345 385.00863 342.8125 384.03125 C 352.81413 381.97315 361.5512 375.22827 365.875 365.5 C 366.01098 365.54299 366.14432 365.58366 366.28125 365.625 C 383.37198 370.78447 401.40303 361.12198 406.5625 344.03125 C 408.37992 338.01104 408.3517 331.86964 406.8125 326.21875 C 410.78485 333.04102 417.25347 338.44503 425.40625 340.90625 C 429.62586 342.1801 433.90487 342.54688 438.03125 342.125 C 434.89925 344.16444 432.12741 346.76345 429.84375 349.8125 C 420.20287 353.01321 412.22143 360.66104 409.0625 371.125 L 409 371.3125 C 403.95985 388.36291 413.6352 406.26782 430.65625 411.40625 C 440.26979 414.30845 450.1854 412.53909 457.9375 407.375 C 455.91383 422.80242 465.29386 437.8623 480.65625 442.5 C 497.41396 447.55894 515.07937 438.34729 520.625 421.875 C 520.66559 421.88743 520.70932 421.89397 520.75 421.90625 C 525.8218 423.43736 530.96849 423.66826 535.84375 422.78125 C 539.72526 430.24291 546.50435 436.19117 555.1875 438.8125 C 567.28595 442.46486 579.85689 438.67644 588 430.09375 C 588.66571 439.21543 593.18156 447.67301 600.40625 453.28125 C 590.46524 456.33559 582.17024 464.10406 578.9375 474.8125 L 578.875 475 C 573.83485 492.05041 583.5102 509.98657 600.53125 515.125 C 617.62198 520.28447 635.65303 510.59073 640.8125 493.5 C 644.78661 480.33577 639.95335 466.62438 629.71875 458.65625 C 639.65823 455.59412 647.92449 447.79896 651.15625 437.09375 C 656.31572 420.00302 646.65323 401.97197 629.5625 396.8125 C 626.35799 395.8451 623.11744 395.37966 619.9375 395.40625 C 611.11369 395.48002 602.73332 399.19025 596.75 405.5 C 596.24809 398.69311 593.60278 392.25358 589.28125 387.09375 C 589.55238 386.38094 589.80742 385.6477 590.03125 384.90625 C 592.65602 376.21171 591.45122 367.27062 587.375 359.90625 C 587.13575 346.23655 578.167 333.69488 564.375 329.53125 C 561.17049 328.56385 557.92994 328.12966 554.75 328.15625 C 540.97025 328.27146 528.28582 337.23878 524.09375 351.125 L 524.03125 351.3125 C 523.2252 354.03929 522.80221 356.78387 522.71875 359.5 C 512.1665 361.97955 503.15289 369.69369 499.46875 380.625 C 499.42799 380.61252 499.38459 380.60608 499.34375 380.59375 C 495.00662 379.28443 490.60812 378.95767 486.375 379.4375 C 486.47066 379.1497 486.56805 378.85468 486.65625 378.5625 C 491.81572 361.47177 482.12198 343.40947 465.03125 338.25 C 460.81061 336.97584 456.53414 336.63923 452.40625 337.0625 C 455.59199 334.98871 458.41301 332.33737 460.71875 329.21875 C 463.0956 330.70276 465.68943 331.93278 468.5 332.78125 C 485.59073 337.94072 503.62178 328.24698 508.78125 311.15625 C 511.67618 301.56679 509.91554 291.68097 504.78125 283.9375 C 506.66886 281.21876 508.17949 278.18277 509.1875 274.84375 C 514.34697 257.75302 504.68448 239.72197 487.59375 234.5625 C 484.38924 233.5951 481.14869 233.16091 477.96875 233.1875 z M 407.875 285.34375 C 408.13708 287.03475 408.53972 288.69578 409.0625 290.3125 C 408.84338 290.61327 408.61554 290.90935 408.40625 291.21875 C 406.41463 294.01236 404.82679 297.16165 403.78125 300.625 L 403.75 300.8125 C 401.99099 306.76308 402.01882 312.82651 403.53125 318.40625 C 401.43376 314.80904 398.64333 311.61153 395.28125 309.03125 C 400.47151 305.05367 404.52838 299.48802 406.5625 292.75 C 407.30654 290.28535 407.72561 287.80631 407.875 285.34375 z M 66.9375 305.21875 C 53.157748 305.33396 40.473315 314.33253 36.28125 328.21875 L 36.21875 328.375 C 31.94103 342.84617 38.270586 357.96221 50.6875 365.34375 C 42.886197 369.15553 36.644753 376.06347 33.9375 385.03125 L 33.875 385.1875 C 30.587695 396.30818 33.562086 407.80203 40.75 415.875 C 33.576371 419.80623 27.861195 426.43245 25.3125 434.875 L 25.28125 435.0625 C 20.241099 452.11291 29.916446 470.01782 46.9375 475.15625 C 54.356471 477.39594 61.948857 476.83734 68.59375 474.09375 C 72.611309 480.04379 78.623164 484.7011 86.03125 486.9375 C 94.874961 489.6073 103.97106 488.30827 111.40625 484.0625 C 112.10827 486.27302 113.03646 488.39966 114.1875 490.40625 C 100.96724 491.10724 89.015365 499.93934 84.96875 513.34375 L 84.90625 513.5 C 79.866099 530.55041 89.541446 548.48657 106.5625 553.625 C 116.31432 556.56895 126.35798 554.67757 134.15625 549.34375 C 137.96812 553.5603 142.9142 556.832 148.75 558.59375 C 150.35226 559.07745 151.98625 559.42715 153.59375 559.65625 C 152.62567 574.33604 161.82546 588.25745 176.5 592.6875 C 193.59073 597.84697 211.62178 588.18448 216.78125 571.09375 C 221.94072 554.00302 212.27823 535.97197 195.1875 530.8125 C 193.58524 530.3288 191.98319 529.98396 190.375 529.75 C 191.34967 515.06912 182.12455 501.12133 167.4375 496.6875 C 166.94504 496.53883 166.46245 496.40547 165.96875 496.28125 C 169.19169 492.79535 171.6911 488.5408 173.15625 483.6875 C 178.31572 466.59677 168.62198 448.53447 151.53125 443.375 C 148.32674 442.4076 145.11744 441.97341 141.9375 442 C 136.33948 442.0468 130.93416 443.57014 126.1875 446.28125 C 123.07736 436.44246 115.34261 428.2697 104.71875 425.0625 C 101.51424 424.0951 98.273693 423.66091 95.09375 423.6875 C 90.912913 423.72246 86.83909 424.6014 83.0625 426.15625 C 82.251884 424.95198 81.342385 423.80782 80.375 422.71875 C 87.560627 418.79306 93.259163 412.17668 95.8125 403.71875 C 100.19105 389.21481 93.891541 374.01179 81.4375 366.59375 C 89.233528 362.78191 95.483178 355.86432 98.1875 346.90625 C 103.34697 329.81552 93.653231 311.75322 76.5625 306.59375 C 73.357988 305.62635 70.117443 305.19216 66.9375 305.21875 z M 677.9375 313.34375 C 664.15775 313.45896 651.47332 322.45753 647.28125 336.34375 L 647.21875 336.53125 C 642.1786 353.58166 651.85395 371.48657 668.875 376.625 C 685.96573 381.78447 704.02803 372.12198 709.1875 355.03125 C 714.34697 337.94052 704.65323 319.90947 687.5625 314.75 C 684.35799 313.7826 681.11744 313.31716 677.9375 313.34375 z M -312.4375 363.15625 C -326.21725 363.27146 -338.90168 372.27003 -343.09375 386.15625 L -343.15625 386.3125 C -348.1964 403.36291 -338.52105 421.29907 -321.5 426.4375 C -304.40927 431.59697 -286.37822 421.93448 -281.21875 404.84375 C -276.05928 387.75302 -285.72177 369.69072 -302.8125 364.53125 C -306.01701 363.56385 -309.25756 363.12966 -312.4375 363.15625 z M -60.96875 407.9375 C -74.748502 408.05271 -87.432935 417.05128 -91.625 430.9375 L -91.6875 431.125 C -96.727651 448.17541 -87.052304 466.08032 -70.03125 471.21875 C -52.940519 476.37822 -34.909465 466.71573 -29.75 449.625 C -24.590535 432.53427 -34.253019 414.50322 -51.34375 409.34375 C -54.548262 408.37635 -57.788807 407.91091 -60.96875 407.9375 z M 708.84375 411.5 C 695.064 411.61521 682.34832 420.58253 678.15625 434.46875 L 678.125 434.65625 C 673.08485 451.70666 682.7602 469.61157 699.78125 474.75 C 716.87198 479.90947 734.90303 470.24698 740.0625 453.15625 C 745.22197 436.06552 735.55948 418.03447 718.46875 412.875 C 715.26424 411.9076 712.02369 411.47341 708.84375 411.5 z M 287 425.8125 C 273.22025 425.92771 260.53582 434.92628 256.34375 448.8125 L 256.28125 449 C 256.09643 449.62524 255.92686 450.24813 255.78125 450.875 C 245.41639 453.71977 236.71057 461.66968 233.375 472.71875 L 233.3125 472.90625 C 230.70513 481.72676 232.03246 490.76023 236.28125 498.15625 C 228.91938 502.05634 223.06703 508.79946 220.46875 517.40625 L 220.40625 517.5625 C 215.3661 534.61291 225.04145 552.54907 242.0625 557.6875 C 259.15323 562.84697 277.21553 553.15323 282.375 536.0625 C 285.05204 527.19483 283.71634 518.06966 279.4375 510.625 C 286.80346 506.728 292.65136 500.01423 295.25 491.40625 C 295.45529 490.72624 295.62246 490.02589 295.78125 489.34375 C 306.16733 486.50933 314.91105 478.56027 318.25 467.5 C 323.40947 450.40927 313.71573 432.37822 296.625 427.21875 C 293.42049 426.25135 290.17994 425.78591 287 425.8125 z M 382.0625 448.9375 C 368.28275 449.05271 355.59832 458.05128 351.40625 471.9375 L 351.34375 472.125 C 349.48015 478.4294 349.64997 484.838 351.4375 490.6875 C 347.58939 486.31144 342.52045 482.93306 336.53125 481.125 C 319.44052 475.96553 301.40947 485.62802 296.25 502.71875 L 296.1875 502.90625 C 291.14735 519.95666 300.8227 537.86157 317.84375 543 C 334.93448 548.15947 352.96553 538.49698 358.125 521.40625 C 360.04252 515.05448 359.92415 508.55986 358.125 502.65625 C 361.97079 507.01694 367.02521 510.41504 373 512.21875 C 390.09073 517.37822 408.12178 507.71573 413.28125 490.625 C 418.44072 473.53427 408.77823 455.50322 391.6875 450.34375 C 388.48299 449.37635 385.24244 448.91091 382.0625 448.9375 z M 539.53125 497.46875 C 528.70801 497.55924 518.57736 503.13753 512.6875 512.25 C 510.67123 511.88705 508.64871 511.70209 506.65625 511.71875 C 492.8765 511.83396 480.16082 520.80128 475.96875 534.6875 L 475.9375 534.875 C 470.89735 551.92541 480.5727 569.83032 497.59375 574.96875 C 511.69294 579.22511 526.43792 573.39203 534.0625 561.625 C 550.02185 564.53417 565.98153 555.05532 570.78125 539.15625 C 575.94072 522.06552 566.24698 504.03447 549.15625 498.875 C 545.95174 497.9076 542.71119 497.44216 539.53125 497.46875 z M -25.09375 520.21875 C -38.873502 520.33396 -51.589185 529.33253 -55.78125 543.21875 L -55.8125 543.375 C -60.852651 560.42541 -51.177304 578.36157 -34.15625 583.5 C -17.065519 588.65947 0.96553492 578.99698 6.125 561.90625 C 11.284465 544.81552 1.6219812 526.75322 -15.46875 521.59375 C -18.673262 520.62635 -21.913807 520.19216 -25.09375 520.21875 z M 797.15625 526.3125 C 783.3765 526.42771 770.69207 535.42628 766.5 549.3125 L 766.4375 549.5 C 761.39735 566.55041 771.0727 584.45532 788.09375 589.59375 C 805.18448 594.75322 823.24678 585.09073 828.40625 568 C 833.56572 550.90927 823.87198 532.87822 806.78125 527.71875 C 803.57674 526.75135 800.33619 526.28591 797.15625 526.3125 z M 687.375 533.5 C 673.59525 533.61521 660.91082 542.61378 656.71875 556.5 L 656.65625 556.6875 C 651.6161 573.73791 661.29145 591.64282 678.3125 596.78125 C 695.40323 601.94072 713.43428 592.27823 718.59375 575.1875 C 723.75322 558.09677 714.09073 540.06572 697 534.90625 C 693.79549 533.93885 690.55494 533.47341 687.375 533.5 z M -135.4375 541.75 C -149.21725 541.86521 -161.90168 550.86378 -166.09375 564.75 L -166.15625 564.9375 C -168.69479 573.52516 -167.48595 582.34032 -163.5 589.625 C -166.08756 589.00374 -168.69057 588.69735 -171.25 588.71875 C -185.02975 588.83396 -197.74543 597.83253 -201.9375 611.71875 L -201.96875 611.90625 C -207.0089 628.95666 -197.33355 646.86157 -180.3125 652 C -163.22177 657.15947 -145.19072 647.49698 -140.03125 630.40625 C -137.42095 621.75964 -138.60512 612.87064 -142.625 605.53125 C -136.8067 606.92168 -130.94306 606.64432 -125.5625 604.96875 C -121.62061 609.859 -116.21626 613.64167 -109.75 615.59375 C -92.659269 620.75322 -74.596965 611.09073 -69.4375 594 C -64.278035 576.90927 -73.971769 558.87822 -91.0625 553.71875 C -94.267012 552.75135 -97.507557 552.31716 -100.6875 552.34375 C -103.87479 552.3704 -106.9902 552.88734 -109.96875 553.8125 C -113.91153 548.90885 -119.33399 545.11203 -125.8125 543.15625 C -129.01701 542.18885 -132.25756 541.72341 -135.4375 541.75 z M 383.6875 545.53125 C 369.90775 545.64646 357.22332 554.64503 353.03125 568.53125 L 352.96875 568.71875 C 352.8548 569.10423 352.78649 569.48879 352.6875 569.875 C 350.82036 572.30061 349.26646 575.01701 348.125 578 C 339.67785 581.64591 332.83625 588.84515 329.96875 598.34375 L 329.90625 598.5 C 324.8661 615.55041 334.54145 633.48657 351.5625 638.625 C 367.8813 643.55143 385.08143 634.94751 391.09375 619.28125 C 396.99131 616.73748 402.09842 612.45865 405.625 606.875 C 407.73403 608.16419 410.02235 609.23253 412.46875 610.03125 C 414.5103 612.12354 416.8436 613.94286 419.4375 615.4375 C 422.38133 625.61872 430.26235 634.14878 441.15625 637.4375 C 458.24698 642.59697 476.27803 632.90323 481.4375 615.8125 C 485.86655 601.14128 479.36559 585.78997 466.625 578.46875 C 463.74694 568.52176 456.14641 560.15847 445.625 556.71875 C 441.93626 552.93383 437.25969 550.01 431.84375 548.375 C 428.63924 547.4076 425.39869 546.97341 422.21875 547 C 415.71735 547.05436 409.4805 549.09836 404.25 552.6875 C 401.1025 550.1519 397.41982 548.17744 393.3125 546.9375 C 390.10799 545.9701 386.86744 545.50466 383.6875 545.53125 z M 117.59375 568 C 106.51115 568.09266 96.132171 573.90244 90.3125 583.40625 C 76.892369 583.64809 64.531824 592.31541 60.15625 605.6875 C 54.350011 609.70254 49.823725 615.62297 47.625 622.90625 L 47.5625 623.09375 C 42.522349 640.14416 52.197696 658.08032 69.21875 663.21875 C 86.056739 668.30192 103.79456 658.96397 109.25 642.34375 C 112.90162 639.82739 116.07843 636.54672 118.46875 632.65625 C 132.12809 632.40951 144.652 623.43791 148.8125 609.65625 C 153.97197 592.56552 144.30948 574.53447 127.21875 569.375 C 124.01424 568.4076 120.77369 567.97341 117.59375 568 z M -262.46875 575.625 C -276.2485 575.74021 -288.93293 584.73878 -293.125 598.625 L -293.1875 598.78125 C -293.21858 598.88641 -293.25128 598.98853 -293.28125 599.09375 C -304.20042 601.61888 -313.49758 609.75174 -316.96875 621.25 L -317.03125 621.40625 C -322.0714 638.45666 -312.39605 656.39282 -295.375 661.53125 C -278.28427 666.69072 -260.25322 657.02823 -255.09375 639.9375 C -255.04727 639.78354 -255.01283 639.62286 -254.96875 639.46875 C -244.02643 636.94695 -234.69379 628.79231 -231.21875 617.28125 C -226.05928 600.19052 -235.75302 582.15947 -252.84375 577 C -256.04826 576.0326 -259.28881 575.59841 -262.46875 575.625 z M 272.96875 605.15625 C 259.189 605.27146 246.47332 614.23878 242.28125 628.125 L 242.25 628.3125 C 237.20985 645.36291 246.8852 663.29907 263.90625 668.4375 C 280.99698 673.59697 299.02803 663.90323 304.1875 646.8125 C 309.34697 629.72177 299.65323 611.69072 282.5625 606.53125 C 279.35799 605.56385 276.14869 605.12966 272.96875 605.15625 z M 595.5 606.84375 C 581.72025 606.95896 569.00457 615.95753 564.8125 629.84375 L 564.78125 630 C 559.7411 647.05041 569.41645 664.98657 586.4375 670.125 C 603.52823 675.28447 621.55928 665.62198 626.71875 648.53125 C 631.87822 631.44052 622.21573 613.37822 605.125 608.21875 C 601.92049 607.25135 598.67994 606.81716 595.5 606.84375 z M 672.25 613.8125 C 658.47025 613.92771 645.78582 622.92628 641.59375 636.8125 L 641.53125 637 C 636.4911 654.05041 646.16645 671.95532 663.1875 677.09375 C 680.27823 682.25322 698.30928 672.59073 703.46875 655.5 C 708.62822 638.40927 698.96573 620.37822 681.875 615.21875 C 678.67049 614.25135 675.42994 613.78591 672.25 613.8125 z M -6.40625 615.15625 C -20.186002 615.27146 -32.870435 624.27003 -37.0625 638.15625 L -37.125 638.3125 C -42.165151 655.36291 -32.489804 673.29907 -15.46875 678.4375 C 1.6219812 683.59697 19.684285 673.93448 24.84375 656.84375 C 30.003215 639.75302 20.309481 621.69072 3.21875 616.53125 C 0.014237905 615.56385 -3.2263072 615.12966 -6.40625 615.15625 z M 147.28125 631.34375 C 133.5015 631.45896 120.78582 640.42628 116.59375 654.3125 L 116.5625 654.5 C 111.52235 671.55041 121.1977 689.45532 138.21875 694.59375 C 155.30948 699.75322 173.34053 690.09073 178.5 673 C 183.65947 655.90927 173.96573 637.87822 156.875 632.71875 C 153.67049 631.75135 150.46119 631.31716 147.28125 631.34375 z M 781.4375 633.46875 C 767.65775 633.58396 754.94207 642.55128 750.75 656.4375 L 750.71875 656.625 C 745.6786 673.67541 755.35395 691.61157 772.375 696.75 C 789.46573 701.90947 807.49678 692.21573 812.65625 675.125 C 817.81572 658.03427 808.15323 640.00322 791.0625 634.84375 C 787.85799 633.87635 784.61744 633.44216 781.4375 633.46875 z M 483.96875 651.25 C 470.189 651.36521 457.47332 660.36378 453.28125 674.25 L 453.25 674.4375 C 448.20985 691.48791 457.8852 709.39282 474.90625 714.53125 C 485.38928 717.69594 496.21554 715.28196 504.21875 709 C 503.3574 710.69132 502.63032 712.49409 502.0625 714.375 L 502 714.5625 C 500.97307 718.0365 500.55497 721.53901 500.6875 724.96875 C 497.23633 727.8389 494.35319 731.44848 492.3125 735.65625 C 479.7103 736.93385 468.48283 745.61742 464.59375 758.5 L 464.5625 758.6875 C 464.2075 759.88844 463.93031 761.07645 463.71875 762.28125 C 459.9905 762.8288 456.4047 764.02015 453.125 765.78125 C 450.35644 755.27741 442.34903 746.40077 431.1875 743.03125 C 427.98299 742.06385 424.74244 741.62966 421.5625 741.65625 C 407.78275 741.77146 395.09832 750.77003 390.90625 764.65625 L 390.84375 764.8125 C 390.39582 766.3278 390.0644 767.85531 389.84375 769.375 C 386.52893 766.5264 382.57838 764.31317 378.125 762.96875 C 361.03427 757.80928 343.00322 767.47177 337.84375 784.5625 L 337.8125 784.75 C 335.2669 793.36157 336.45613 802.20356 340.46875 809.5 C 328.1627 811.02548 317.31489 819.58194 313.5 832.21875 L 313.4375 832.40625 C 308.39735 849.45666 318.0727 867.39282 335.09375 872.53125 C 339.95517 873.99885 344.89804 874.26436 349.59375 873.5 C 352.50715 875.65987 355.82958 877.3607 359.5 878.46875 C 362.20184 879.2844 364.93073 879.73974 367.625 879.84375 C 360.18821 883.72842 354.27263 890.4895 351.65625 899.15625 L 351.59375 899.3125 C 346.5536 916.36291 356.22895 934.29907 373.25 939.4375 C 376.03562 940.27844 378.84922 940.72706 381.625 940.8125 C 385.03177 943.85333 389.12327 946.21882 393.78125 947.625 C 410.87198 952.78447 428.90303 943.12198 434.0625 926.03125 C 436.86955 916.73291 435.27944 907.16368 430.5 899.53125 C 434.06409 902.95092 438.48182 905.60064 443.53125 907.125 C 460.62198 912.28447 478.65303 902.59073 483.8125 885.5 C 488.97197 868.40927 479.30948 850.37822 462.21875 845.21875 C 459.01424 844.25135 455.77369 843.81716 452.59375 843.84375 C 438.814 843.95896 426.09832 852.95753 421.90625 866.84375 L 421.875 867 C 419.14056 876.25039 420.74858 885.75704 425.5 893.34375 C 421.93477 889.92218 417.52381 887.27606 412.46875 885.75 C 409.70411 884.91539 406.91191 884.46478 404.15625 884.375 C 400.7425 881.31299 396.61649 878.94378 391.9375 877.53125 C 389.23567 876.7156 386.50703 876.2911 383.8125 876.1875 C 391.24507 872.30483 397.16553 865.53957 399.78125 856.875 C 403.98039 842.96537 398.35686 828.40462 386.90625 820.6875 C 392.8472 816.67082 397.51588 810.65053 399.75 803.25 C 400.22415 801.67939 400.55187 800.10712 400.78125 798.53125 C 404.09544 801.37973 408.04987 803.59406 412.5 804.9375 C 421.04537 807.51723 429.83439 806.37821 437.125 802.46875 C 439.89219 812.98399 447.90265 821.84974 459.0625 825.21875 C 476.15323 830.37822 494.18428 820.68448 499.34375 803.59375 C 499.72303 802.33739 499.99673 801.07353 500.21875 799.8125 C 510.61085 798.285 519.89145 791.73513 524.625 781.96875 C 537.22541 780.68511 548.42342 772.00756 552.3125 759.125 C 553.37661 755.60012 553.82014 752.04663 553.6875 748.5625 C 558.39149 744.65225 562.03675 739.35872 563.9375 733.0625 C 569.09697 715.97177 559.43448 697.90947 542.34375 692.75 C 531.8639 689.58627 521.03559 692.03195 513.03125 698.3125 C 513.89808 696.61403 514.61687 694.8277 515.1875 692.9375 C 520.34697 675.84677 510.68448 657.81572 493.59375 652.65625 C 490.38924 651.68885 487.14869 651.22341 483.96875 651.25 z M -330.65625 672.59375 C -344.436 672.70896 -357.12043 681.70753 -361.3125 695.59375 L -361.375 695.78125 C -366.31141 712.48071 -357.12148 729.98951 -340.75 735.53125 C -341.85497 750.31704 -332.61184 764.41671 -317.84375 768.875 C -300.75302 774.03447 -282.72197 764.34073 -277.5625 747.25 C -277.27135 746.28555 -277.04184 745.31155 -276.84375 744.34375 C -275.61344 742.21823 -274.58432 739.92187 -273.84375 737.46875 C -268.68428 720.37802 -278.37802 702.34697 -295.46875 697.1875 C -296.7257 696.80804 -297.9883 696.50321 -299.25 696.28125 C -302.11686 685.97678 -310.02747 677.3219 -321.03125 674 C -324.23576 673.0326 -327.47631 672.56716 -330.65625 672.59375 z M 685.03125 680.03125 C 671.2515 680.14646 658.56707 689.14503 654.375 703.03125 L 654.3125 703.21875 C 649.27235 720.26916 658.9477 738.17407 675.96875 743.3125 C 693.05948 748.47197 711.12178 738.80948 716.28125 721.71875 C 721.44072 704.62802 711.74698 686.59697 694.65625 681.4375 C 691.45174 680.4701 688.21119 680.00466 685.03125 680.03125 z M 251.375 683.4375 C 244.19805 683.49751 237.31886 685.97437 231.78125 690.28125 C 221.99481 693.41583 213.85068 701.13718 210.65625 711.71875 L 210.59375 711.90625 C 205.5536 728.95666 215.22895 746.89282 232.25 752.03125 C 242.66897 755.1766 253.44707 752.79307 261.4375 746.59375 C 271.24924 743.46551 279.39269 735.69724 282.59375 725.09375 C 287.75322 708.00302 278.09073 689.97197 261 684.8125 C 257.79549 683.8451 254.55494 683.41091 251.375 683.4375 z M 26.46875 715.5625 C 12.688998 715.67771 0.0045653768 724.64503 -4.1875 738.53125 L -4.25 738.71875 C -9.2901511 755.76916 0.38519554 773.70532 17.40625 778.84375 C 34.496981 784.00322 52.528035 774.30948 57.6875 757.21875 C 62.846965 740.12802 53.184481 722.09697 36.09375 716.9375 C 32.889238 715.9701 29.648693 715.53591 26.46875 715.5625 z M -84.625 751.625 C -98.404752 751.74021 -111.12043 760.70753 -115.3125 774.59375 L -115.34375 774.78125 C -120.3839 791.83166 -110.70855 809.76782 -93.6875 814.90625 C -76.596769 820.06572 -58.565715 810.37198 -53.40625 793.28125 C -48.246785 776.19052 -57.909269 758.15947 -75 753 C -78.204512 752.0326 -81.445057 751.59841 -84.625 751.625 z M 228.5 763.90625 C 214.72025 764.02146 202.03582 773.02003 197.84375 786.90625 L 197.78125 787.09375 C 192.7411 804.14416 202.41645 822.04907 219.4375 827.1875 C 224.58275 828.74078 229.81037 828.93295 234.75 828 C 232.17318 843.77415 241.61613 859.38647 257.3125 864.125 C 274.40323 869.28447 292.46553 859.59073 297.625 842.5 C 302.78447 825.40927 293.09073 807.37822 276 802.21875 C 272.79549 801.25135 269.55494 800.81716 266.375 800.84375 C 264.44757 800.85986 262.55182 801.05452 260.6875 801.40625 C 263.25093 785.65117 253.8227 770.05143 238.125 765.3125 C 234.92049 764.3451 231.67994 763.87966 228.5 763.90625 z M 99.15625 778.46875 C 85.376498 778.58396 72.660815 787.58253 68.46875 801.46875 L 68.4375 801.625 C 67.126016 806.06164 66.823617 810.55949 67.375 814.875 C 66.286068 816.84504 65.395619 818.94537 64.71875 821.1875 L 64.65625 821.375 C 59.616099 838.42541 69.291446 856.33032 86.3125 861.46875 C 103.40323 866.62822 121.43428 856.96573 126.59375 839.875 C 127.95136 835.37791 128.2799 830.81381 127.71875 826.4375 C 128.80167 824.47443 129.70082 822.38948 130.375 820.15625 C 135.53447 803.06552 125.87198 785.00322 108.78125 779.84375 C 105.57674 778.87635 102.33619 778.44216 99.15625 778.46875 z M 578.03125 808.15625 C 564.2515 808.27146 551.53582 817.27003 547.34375 831.15625 L 547.3125 831.34375 C 542.27235 848.39416 551.9477 866.29907 568.96875 871.4375 C 586.05948 876.59697 604.09053 866.93448 609.25 849.84375 C 614.40947 832.75302 604.74698 814.72197 587.65625 809.5625 C 584.45174 808.5951 581.21119 808.12966 578.03125 808.15625 z M 664.09375 813.53125 C 650.314 813.64646 637.59832 822.64503 633.40625 836.53125 L 633.375 836.71875 C 628.33485 853.76916 638.0102 871.67407 655.03125 876.8125 C 672.12198 881.97197 690.15303 872.30948 695.3125 855.21875 C 700.47197 838.12802 690.80948 820.09697 673.71875 814.9375 C 670.51424 813.9701 667.27369 813.50466 664.09375 813.53125 z M 41 835.65625 C 27.220248 835.77146 14.535815 844.73878 10.34375 858.625 L 10.28125 858.8125 C 5.2410989 875.86291 14.916446 893.79907 31.9375 898.9375 C 49.028231 904.09697 67.059285 894.40323 72.21875 877.3125 C 77.378215 860.22177 67.715731 842.19072 50.625 837.03125 C 47.420488 836.06385 44.179943 835.62966 41 835.65625 z M 129.03125 876.375 C 115.2515 876.49021 102.56707 885.45753 98.375 899.34375 L 98.3125 899.53125 C 93.272349 916.58166 102.9477 934.51782 119.96875 939.65625 C 137.05948 944.81572 155.09053 935.12198 160.25 918.03125 C 165.40947 900.94052 155.74698 882.90947 138.65625 877.75 C 135.45174 876.7826 132.21119 876.34841 129.03125 876.375 z M 644.78125 927.21875 C 631.0015 927.33396 618.31707 936.33253 614.125 950.21875 L 614.0625 950.40625 C 609.02235 967.45666 618.6977 985.36157 635.71875 990.5 C 636.95479 990.87315 638.19685 991.15411 639.4375 991.375 C 638.75348 997.86718 640.08169 1004.2391 643 1009.7812 C 634.2657 1013.3344 627.1561 1020.645 624.21875 1030.375 L 624.15625 1030.5625 C 623.98943 1031.1268 623.82234 1031.6843 623.6875 1032.25 C 619.89838 1024.3535 612.94686 1018.0105 603.90625 1015.2812 C 600.70174 1014.3139 597.46119 1013.8797 594.28125 1013.9062 C 580.5015 1014.0215 567.81707 1023.0255 563.625 1036.9062 L 563.5625 1037.0625 C 558.52235 1054.1129 568.1977 1072.0491 585.21875 1077.1875 C 602.30948 1082.347 620.34053 1072.679 625.5 1055.5938 C 625.6892 1054.9616 625.8503 1054.3474 626 1053.7188 C 629.79131 1061.6164 636.77006 1067.9577 645.8125 1070.6875 C 662.90323 1075.847 680.93428 1066.1532 686.09375 1049.0625 C 688.6515 1040.59 687.57907 1031.9144 683.75 1024.6562 C 692.47886 1021.1071 699.59693 1013.7824 702.53125 1004.0625 C 703.52709 1000.7638 703.96347 997.42572 703.90625 994.15625 C 706.00883 995.66364 708.31846 996.94488 710.8125 997.9375 C 713.65528 1008.3105 721.60746 1017.0395 732.65625 1020.375 C 745.9257 1024.3809 759.77836 1019.4375 767.71875 1009.0312 C 768.66135 1009.4162 769.63092 1009.7624 770.625 1010.0625 C 787.71573 1015.222 805.74678 1005.5282 810.90625 988.4375 C 816.06572 971.34677 806.40323 953.31572 789.3125 948.15625 C 776.04182 944.15001 762.19031 949.09189 754.25 959.5 C 754.13724 959.45403 754.01977 959.41979 753.90625 959.375 C 751.06264 948.99867 743.12258 940.27639 732.0625 936.9375 C 714.97177 931.77803 696.94072 941.47177 691.78125 958.5625 L 691.75 958.71875 C 690.78955 961.96786 690.34894 965.25095 690.40625 968.46875 C 687.58767 966.4469 684.41143 964.83942 680.90625 963.78125 C 679.66288 963.40589 678.43557 963.09621 677.1875 962.875 C 678.76609 947.75935 669.49474 933.18002 654.40625 928.625 C 651.20174 927.6576 647.96119 927.19216 644.78125 927.21875 z M 87.5625 933.3125 C 73.782748 933.42771 61.098315 942.42628 56.90625 956.3125 L 56.84375 956.5 C 51.803599 973.55041 61.478946 991.45532 78.5 996.59375 C 95.590731 1001.7532 113.65303 992.09073 118.8125 975 C 123.97197 957.90927 114.27823 939.87822 97.1875 934.71875 C 93.982988 933.75135 90.742443 933.28591 87.5625 933.3125 z M 250.6875 933.6875 C 238.59368 933.78861 227.31795 940.7274 221.90625 951.8125 C 218.91784 949.53876 215.49367 947.74278 211.6875 946.59375 C 194.59677 941.43428 176.56572 951.09677 171.40625 968.1875 L 171.34375 968.375 C 166.3036 985.42541 175.97895 1003.3302 193 1008.4688 C 208.39719 1013.1168 224.54981 1005.7258 231.375 991.71875 C 234.37179 994.00415 237.80486 995.8155 241.625 996.96875 C 258.71573 1002.1282 276.74678 992.46573 281.90625 975.375 C 287.06572 958.28427 277.37198 940.25322 260.28125 935.09375 C 257.07674 934.12635 253.86744 933.66091 250.6875 933.6875 z M 147.53125 1001.9375 C 133.7515 1002.0527 121.06707 1011.0513 116.875 1024.9375 L 116.8125 1025.125 C 111.77235 1042.1754 121.4477 1060.0802 138.46875 1065.2188 C 139.12705 1065.4135 139.77719 1065.5949 140.4375 1065.75 C 144.02916 1069.2395 148.50067 1071.953 153.625 1073.5 C 170.71573 1078.6595 188.74678 1068.9977 193.90625 1051.9062 C 199.06572 1034.8211 189.37198 1016.7845 172.28125 1011.625 C 171.6462 1011.4333 171.01016 1011.2774 170.375 1011.125 C 166.77675 1007.6145 162.30156 1004.8971 157.15625 1003.3438 C 153.95174 1002.3764 150.71119 1001.9109 147.53125 1001.9375 z M 75.53125 1027.0625 C 61.751498 1027.1777 49.067065 1036.1763 44.875 1050.0625 L 44.8125 1050.25 C 39.772349 1067.3004 49.447696 1085.2052 66.46875 1090.3438 C 83.559481 1095.5032 101.62178 1085.8407 106.78125 1068.75 C 111.94072 1051.6593 102.24698 1033.6282 85.15625 1028.4688 C 81.951738 1027.5014 78.711193 1027.0359 75.53125 1027.0625 z M 714.90625 1064.7188 C 701.1265 1064.8338 688.44207 1073.832 684.25 1087.7188 L 684.1875 1087.875 C 679.14735 1104.9254 688.8227 1122.8616 705.84375 1128 C 722.93448 1133.1595 740.99678 1123.4977 746.15625 1106.4062 C 751.31572 1089.3207 741.62198 1071.2532 724.53125 1066.0938 C 721.32674 1065.1264 718.08619 1064.6916 714.90625 1064.7188 z "
     id="path8801" />
  <path
     sodipodi:open="true"
     sodipodi:end="9.7121958"
     sodipodi:start="3.4347795"
     d="m -1012.8138,-19.660331 a 32.324883,32.324883 0 1 1 -0.053,0.17868"
     sodipodi:ry="32.324883"
     sodipodi:rx="32.324883"
     sodipodi:cy="-10.318293"
     sodipodi:cx="-981.86829"
     id="path9247"
     style="fill:none;stroke:#000000;stroke-width:1;stroke-miterlimit:4;stroke-opacity:1;stroke-dasharray:none"
     sodipodi:type="arc" />
</svg>
