<?xml version="1.0" encoding="UTF-8" standalone="no"?>
<!-- Created with Inkscape (http://www.inkscape.org/) -->

<svg
   xmlns:dc="http://purl.org/dc/elements/1.1/"
   xmlns:cc="http://creativecommons.org/ns#"
   xmlns:rdf="http://www.w3.org/1999/02/22-rdf-syntax-ns#"
   xmlns:svg="http://www.w3.org/2000/svg"
   xmlns="http://www.w3.org/2000/svg"
   xmlns:sodipodi="http://sodipodi.sourceforge.net/DTD/sodipodi-0.dtd"
   xmlns:inkscape="http://www.inkscape.org/namespaces/inkscape"
   width="744.09448819"
   height="1052.3622047"
   id="svg3783"
   version="1.1"
   inkscape:version="0.48.2 r9819"
   sodipodi:docname="virus001.svg">
  <sodipodi:namedview
     id="base"
     pagecolor="#ffffff"
     bordercolor="#666666"
     borderopacity="1.0"
     inkscape:pageopacity="0.0"
     inkscape:pageshadow="2"
     inkscape:zoom="0.35"
     inkscape:cx="-170.73037"
     inkscape:cy="414.53444"
     inkscape:document-units="px"
     inkscape:current-layer="svg3783"
     showgrid="false"
     inkscape:window-width="1024"
     inkscape:window-height="748"
     inkscape:window-x="56"
     inkscape:window-y="8"
     inkscape:window-maximized="0" />
  <defs
     id="defs3785">
    <inkscape:perspective
       sodipodi:type="inkscape:persp3d"
       inkscape:vp_x="-314.90439 : 155.3937 : 0"
       inkscape:vp_y="0 : 1000 : 0"
       inkscape:vp_z="372.04724 : 175.3937 : 0"
       inkscape:persp3d-origin="334.90438 : 296.50168 : 1"
       id="perspective3823" />
  </defs>
  <metadata
     id="metadata3788">
    <rdf:RDF>
      <cc:Work
         rdf:about="">
        <dc:format>image/svg+xml</dc:format>
        <dc:type
           rdf:resource="http://purl.org/dc/dcmitype/StillImage" />
        <dc:title></dc:title>
      </cc:Work>
    </rdf:RDF>
  </metadata>
  <g
     inkscape:label="Layer 1"
     inkscape:groupmode="layer"
     id="layer1">
    <flowRoot
       xml:space="preserve"
       id="flowRoot3475"
       style="fill:black;stroke:none;stroke-opacity:1;stroke-width:1px;stroke-linejoin:miter;stroke-linecap:butt;fill-opacity:1;font-family:Sans;font-style:normal;font-weight:normal;font-size:40px;line-height:125%;letter-spacing:0px;word-spacing:0px"><flowRegion
         id="flowRegion3477"><rect
           id="rect3479"
           width="474.7717"
           height="76.771591"
           x="40.406101"
           y="840.23016" /></flowRegion><flowPara
         id="flowPara3481" /></flowRoot>  </g>
  <path
     sodipodi:type="arc"
     style="fill:none;stroke:#000000;stroke-width:1;stroke-miterlimit:4;stroke-opacity:1;stroke-dasharray:none"
     id="path9249"
     sodipodi:cx="-810.14233"
     sodipodi:cy="181.61069"
     sodipodi:rx="14.142136"
     sodipodi:ry="14.142136"
     d="m -823.68099,177.52355 a 14.142136,14.142136 0 1 1 -0.0234,0.0782"
     sodipodi:start="3.4347795"
     sodipodi:end="9.7121958"
     sodipodi:open="true"
     transform="matrix(1.1985557,0,0,1.1985557,163.5512,-33.251837)" />
  <path
     style="fill:none;stroke:#000000;stroke-width:1.19855571;stroke-miterlimit:4;stroke-opacity:1;stroke-dasharray:none"
     d="M 189.8125 -41.375 C 182.58684 -41.31459 175.91694 -36.59399 173.71875 -29.3125 L 173.6875 -29.21875 C 171.04461 -20.278056 176.10595 -10.881929 185.03125 -8.1875 C 193.99308 -5.4820411 203.45079 -10.569416 206.15625 -19.53125 C 208.86171 -28.493084 203.80558 -37.950791 194.84375 -40.65625 C 193.16341 -41.163524 191.47996 -41.388941 189.8125 -41.375 z M 418.3125 -22.15625 C 411.08684 -22.09584 404.41694 -17.37524 402.21875 -10.09375 L 402.1875 -10 C 399.54461 -1.0593064 404.6372 8.3368209 413.5625 11.03125 C 422.52433 13.736709 431.98204 8.6493343 434.6875 -0.3125 C 437.39296 -9.2743343 432.30558 -18.732041 423.34375 -21.4375 C 421.66341 -21.944774 419.97996 -22.170191 418.3125 -22.15625 z M 490.9375 -17.5 C 483.71184 -17.43959 477.04194 -12.71899 474.84375 -5.4375 L 474.8125 -5.34375 C 472.16961 3.5969436 477.23095 12.993071 486.15625 15.6875 C 495.11808 18.392959 504.57579 13.305584 507.28125 4.34375 C 509.98671 -4.6180843 504.93058 -14.075791 495.96875 -16.78125 C 494.28841 -17.288524 492.60496 -17.513941 490.9375 -17.5 z M 24.03125 -14.125 C 16.805588 -14.06459 10.135685 -9.3439903 7.9375 -2.0625 L 7.90625 -1.96875 C 5.2633556 6.9719436 10.355952 16.368071 19.28125 19.0625 C 28.243084 21.767959 37.700791 16.680584 40.40625 7.71875 C 43.111709 -1.2430843 38.024334 -10.700791 29.0625 -13.40625 C 27.382156 -13.913524 25.698711 -14.138941 24.03125 -14.125 z M 89.125 -4.0625 C 82.884718 -4.0103279 77.101224 -0.4640618 74.21875 5.1875 C 72.155806 1.4501885 68.65953 -1.5125714 64.25 -2.84375 C 55.288166 -5.5492089 45.830459 -0.49308425 43.125 8.46875 L 43.09375 8.5625 C 40.450856 17.503194 45.543452 26.899321 54.46875 29.59375 C 62.444744 32.001597 70.785491 28.234934 74.4375 21.0625 C 76.496783 24.808397 79.960265 27.79225 84.375 29.125 C 93.336834 31.830459 102.79454 26.743084 105.5 17.78125 C 108.20546 8.8194157 103.14933 -0.63829109 94.1875 -3.34375 C 92.507156 -3.8510235 90.792461 -4.0764409 89.125 -4.0625 z M 413.5625 12.9375 C 406.33684 12.99791 399.69819 17.71851 397.5 25 L 397.46875 25.09375 C 394.82586 34.034444 399.8872 43.430571 408.8125 46.125 C 417.77433 48.830459 427.23204 43.774334 429.9375 34.8125 C 432.64296 25.850666 427.58683 16.392959 418.625 13.6875 C 416.94466 13.180226 415.22996 12.923559 413.5625 12.9375 z M 229.40625 18.5 C 222.18059 18.56041 215.51069 23.28101 213.3125 30.5625 L 213.28125 30.65625 C 210.63836 39.596944 215.73095 48.993071 224.65625 51.6875 C 233.61808 54.392959 243.07579 49.305584 245.78125 40.34375 C 248.48671 31.381916 243.39933 21.924209 234.4375 19.21875 C 232.75716 18.711476 231.07371 18.486059 229.40625 18.5 z M 514.9375 21.4375 C 507.71184 21.49791 501.04194 26.21851 498.84375 33.5 L 498.8125 33.59375 C 496.92726 39.971374 498.99217 46.569175 503.5625 50.8125 C 496.0194 50.500338 488.93898 55.282202 486.65625 62.84375 L 486.625 62.9375 C 483.98211 71.878194 489.04345 81.274321 497.96875 83.96875 C 506.93058 86.674209 516.38829 81.586834 519.09375 72.625 C 521.02553 66.225968 518.98968 59.578687 514.40625 55.3125 C 521.94334 55.613852 529.03136 50.837521 531.3125 43.28125 C 534.01796 34.319416 528.93058 24.861709 519.96875 22.15625 C 518.28841 21.648976 516.60496 21.423559 514.9375 21.4375 z M 134.125 22.625 C 126.89934 22.68541 120.26069 27.40601 118.0625 34.6875 L 118.03125 34.78125 C 115.38836 43.721944 120.4497 53.118071 129.375 55.8125 C 138.33683 58.517959 147.79454 53.430584 150.5 44.46875 C 153.20546 35.506916 148.14933 26.049209 139.1875 23.34375 C 137.50716 22.836476 135.79246 22.611059 134.125 22.625 z M 12.875 29.375 C 5.6493376 29.43541 -1.0205646 34.12476 -3.21875 41.40625 L -3.25 41.5 C -5.8928944 50.440694 -0.80029801 59.836821 8.125 62.53125 C 17.086834 65.236709 26.544541 60.180584 29.25 51.21875 C 31.955459 42.256916 26.868084 32.799209 17.90625 30.09375 C 16.225906 29.586476 14.542461 29.361059 12.875 29.375 z M 589.78125 32.125 C 582.55559 32.18541 575.88569 36.90601 573.6875 44.1875 L 573.65625 44.28125 C 572.22521 49.122333 573.05439 54.090559 575.53125 58.0625 C 569.0938 58.877415 563.43385 63.355836 561.4375 69.96875 L 561.40625 70.0625 C 558.76336 79.003194 563.8247 88.399321 572.75 91.09375 C 581.71183 93.799209 591.16954 88.711834 593.875 79.75 C 595.34046 74.895673 594.51175 69.899775 592.03125 65.90625 C 598.47942 65.097409 604.15941 60.614533 606.15625 54 C 608.86171 45.038166 603.77433 35.580459 594.8125 32.875 C 593.13216 32.367726 591.44871 32.111059 589.78125 32.125 z M 366.09375 32.65625 C 358.86809 32.71666 352.22944 37.40601 350.03125 44.6875 L 350 44.78125 C 347.35711 53.721944 352.41845 63.118071 361.34375 65.8125 C 370.30558 68.517959 379.76329 63.461834 382.46875 54.5 C 385.17421 45.538166 380.11808 36.080459 371.15625 33.375 C 369.47591 32.867726 367.76121 32.642309 366.09375 32.65625 z M 174.0625 47.71875 C 166.83684 47.77916 160.16694 52.49976 157.96875 59.78125 L 157.9375 59.875 C 155.29461 68.815694 160.35595 78.211821 169.28125 80.90625 C 178.24308 83.611709 187.73204 78.555584 190.4375 69.59375 C 193.14296 60.631916 188.05558 51.174209 179.09375 48.46875 C 177.41341 47.961476 175.72996 47.704809 174.0625 47.71875 z M 299.5 74.28125 C 292.27434 74.34166 285.63569 79.06226 283.4375 86.34375 L 283.40625 86.4375 C 283.22564 87.048498 283.07852 87.668278 282.96875 88.28125 C 276.31116 88.909717 270.3639 93.485997 268.3125 100.28125 L 268.28125 100.375 C 265.63836 109.31569 270.73095 118.71182 279.65625 121.40625 C 288.61808 124.11171 298.07579 119.02433 300.78125 110.0625 C 300.97531 109.41968 301.10343 108.77024 301.21875 108.125 C 307.88782 107.50908 313.82029 102.96249 315.875 96.15625 C 318.58046 87.194416 313.52433 77.736709 304.5625 75.03125 C 302.88216 74.523976 301.16746 74.267309 299.5 74.28125 z M 21.34375 86.21875 C 14.118088 86.27916 7.4481854 90.99976 5.25 98.28125 L 5.21875 98.375 C 2.5758556 107.31569 7.668452 116.71182 16.59375 119.40625 C 25.555584 122.11171 35.013291 117.02433 37.71875 108.0625 C 40.424209 99.100666 35.336834 89.642959 26.375 86.9375 C 24.694656 86.430226 23.011211 86.204809 21.34375 86.21875 z M 470 93.53125 C 462.77434 93.59166 456.13569 98.31226 453.9375 105.59375 L 453.90625 105.6875 C 452.52921 110.3459 453.26845 115.10668 455.53125 119 C 455.36387 126.42757 460.11061 133.37537 467.5625 135.625 C 473.46634 137.40729 479.58174 135.79891 483.84375 131.9375 C 483.40065 132.81308 483.01221 133.71542 482.71875 134.6875 L 482.6875 134.78125 C 481.96349 137.23051 481.83276 139.72321 482.1875 142.09375 C 481.34816 141.97573 480.52123 141.93053 479.6875 141.9375 C 472.46184 141.99791 465.79194 146.71851 463.59375 154 L 463.5625 154.09375 C 460.91961 163.03444 466.0122 172.43057 474.9375 175.125 C 483.89933 177.83046 493.35704 172.74308 496.0625 163.78125 C 496.81706 161.28178 496.93528 158.76312 496.5625 156.34375 C 504.72206 157.52287 512.7324 152.63252 515.1875 144.5 C 517.89296 135.53817 512.80558 126.08046 503.84375 123.375 C 497.90972 121.58359 491.79606 123.22524 487.53125 127.125 C 487.994 126.22331 488.38423 125.28582 488.6875 124.28125 C 490.1082 119.57519 489.36813 114.74261 487.0625 110.8125 C 487.21269 103.406 482.50268 96.496094 475.0625 94.25 C 473.38216 93.742726 471.66746 93.517309 470 93.53125 z M 125.28125 109.21875 C 118.05559 109.27916 111.41694 113.99976 109.21875 121.28125 L 109.1875 121.375 C 106.74666 129.63217 110.88429 138.26001 118.5625 141.65625 C 118.38064 142.11183 118.20688 142.58423 118.0625 143.0625 L 118.03125 143.15625 C 115.38836 152.09694 120.48095 161.49307 129.40625 164.1875 C 132.31521 165.06568 135.26561 165.12772 138.03125 164.5 C 136.76046 172.72011 141.66179 180.81122 149.84375 183.28125 C 158.80558 185.98671 168.26329 180.89933 170.96875 171.9375 C 173.67421 162.97567 168.61808 153.51796 159.65625 150.8125 C 157.97591 150.30523 156.26121 150.07981 154.59375 150.09375 C 153.38309 150.10387 152.19083 150.2381 151.03125 150.5 C 152.18435 142.97531 148.13822 135.55791 141.15625 132.46875 C 141.34024 132.0088 141.51038 131.54568 141.65625 131.0625 C 144.36171 122.10067 139.30558 112.64296 130.34375 109.9375 C 128.66341 109.43023 126.94871 109.20481 125.28125 109.21875 z M 375.46875 109.5 C 368.24309 109.56041 361.60444 114.28101 359.40625 121.5625 L 359.375 121.65625 C 356.73211 130.59694 361.79345 139.99307 370.71875 142.6875 C 379.68058 145.39296 389.13829 140.33683 391.84375 131.375 C 394.54921 122.41317 389.49308 112.95546 380.53125 110.25 C 378.85091 109.74273 377.13621 109.48606 375.46875 109.5 z M 186.46875 111.34375 C 179.24309 111.40416 172.57319 116.12476 170.375 123.40625 L 170.375 123.5 C 167.73211 132.44069 172.79345 141.83682 181.71875 144.53125 C 185.22887 145.59091 188.80441 145.43672 192.03125 144.34375 C 193.95781 146.29163 196.38309 147.80963 199.1875 148.65625 C 208.14933 151.36171 217.60704 146.30558 220.3125 137.34375 C 223.01796 128.38192 217.93058 118.92421 208.96875 116.21875 C 207.28841 115.71148 205.60496 115.48606 203.9375 115.5 C 202.12119 115.51519 200.34013 115.80719 198.65625 116.375 C 196.73408 114.43187 194.30057 112.93921 191.5 112.09375 C 189.81966 111.58648 188.13621 111.32981 186.46875 111.34375 z M 76.375 128.53125 C 69.149338 128.59166 62.510685 133.31226 60.3125 140.59375 L 60.28125 140.6875 C 57.638356 149.62819 62.699702 159.02432 71.625 161.71875 C 80.586834 164.42421 90.044541 159.33683 92.75 150.375 C 95.455459 141.41317 90.399334 131.95546 81.4375 129.25 C 79.757156 128.74273 78.042461 128.51731 76.375 128.53125 z M 257.46875 131 C 250.24309 131.06041 243.60444 135.74976 241.40625 143.03125 L 241.375 143.125 C 238.73211 152.06569 243.79345 161.46182 252.71875 164.15625 C 257.2381 165.52058 261.87672 164.90133 265.71875 162.8125 C 267.8254 165.91319 270.97742 168.33281 274.84375 169.5 C 283.80558 172.20546 293.26329 167.14933 295.96875 158.1875 C 298.67421 149.22567 293.58683 139.76796 284.625 137.0625 C 280.10499 135.69797 275.46748 136.31274 271.625 138.40625 C 269.52218 135.3066 266.3984 132.88619 262.53125 131.71875 C 260.85091 131.21148 259.13621 130.98606 257.46875 131 z M -0.4375 131.90625 C -7.6631624 131.96666 -14.301815 136.68726 -16.5 143.96875 L -16.53125 144.0625 C -19.174144 153.00319 -14.112798 162.39932 -5.1875 165.09375 C 3.7743343 167.79921 13.232041 162.71183 15.9375 153.75 C 18.642959 144.78817 13.586834 135.33046 4.625 132.625 C 2.9446561 132.11773 1.2299606 131.89231 -0.4375 131.90625 z M 559.5625 132.59375 C 552.33684 132.65416 545.69819 137.37476 543.5 144.65625 L 543.46875 144.75 C 540.82586 153.69069 545.8872 163.08682 554.8125 165.78125 C 563.77433 168.48671 573.23204 163.43058 575.9375 154.46875 C 578.64296 145.50692 573.58683 136.04921 564.625 133.34375 C 562.94466 132.83648 561.22996 132.57981 559.5625 132.59375 z M 440.9375 132.8125 C 433.71184 132.87291 427.04194 137.59351 424.84375 144.875 L 424.8125 144.96875 C 423.48404 149.46283 424.10269 154.05974 426.1875 157.875 C 425.78329 158.6977 425.42984 159.56247 425.15625 160.46875 L 425.125 160.5625 C 423.84269 164.90045 424.39854 169.3276 426.3125 173.0625 C 425.60417 174.2418 425.00948 175.52914 424.59375 176.90625 L 424.5625 177 C 421.91961 185.94069 427.0122 195.33682 435.9375 198.03125 C 444.89933 200.73671 454.35704 195.64933 457.0625 186.6875 C 458.3791 182.32626 457.82534 177.85464 455.90625 174.09375 C 456.62086 172.90759 457.20659 171.63599 457.625 170.25 C 458.99232 165.72074 458.38511 161.06579 456.28125 157.21875 C 456.68336 156.39869 457.03999 155.55893 457.3125 154.65625 C 460.01796 145.69442 454.93058 136.23671 445.96875 133.53125 C 444.28841 133.02398 442.60496 132.79856 440.9375 132.8125 z M 352.78125 141.71875 C 345.55559 141.77916 338.91694 146.49976 336.71875 153.78125 L 336.6875 153.875 C 334.04461 162.81569 339.10595 172.21182 348.03125 174.90625 C 349.94395 175.48367 351.86259 175.68818 353.75 175.59375 C 350.09804 177.66793 347.18462 181.06815 345.875 185.40625 L 345.84375 185.5 C 343.20086 194.44069 348.29345 203.83682 357.21875 206.53125 C 366.18058 209.23671 375.63829 204.14933 378.34375 195.1875 C 381.04921 186.22567 375.96183 176.76796 367 174.0625 C 365.10837 173.49144 363.21144 173.28961 361.34375 173.375 C 364.97165 171.29422 367.8527 167.88051 369.15625 163.5625 C 371.86171 154.60067 366.80558 145.14296 357.84375 142.4375 C 356.16341 141.93023 354.44871 141.70481 352.78125 141.71875 z M 630.75 145.5 C 623.52434 145.56041 616.85444 150.28101 614.65625 157.5625 L 614.625 157.65625 C 611.98211 166.59694 617.0747 175.99307 626 178.6875 C 634.96183 181.39296 644.41954 176.30558 647.125 167.34375 C 649.83046 158.38192 644.74308 148.92421 635.78125 146.21875 C 634.10091 145.71148 632.41746 145.48606 630.75 145.5 z M -25.40625 155.125 C -32.631912 155.18541 -39.270565 159.87476 -41.46875 167.15625 L -41.5 167.25 C -42.545156 170.78568 -42.379384 174.3894 -41.25 177.625 C -42.348299 176.99463 -43.51655 176.47555 -44.78125 176.09375 C -46.461594 175.58648 -48.176289 175.36106 -49.84375 175.375 C -57.069412 175.43541 -63.739315 180.15601 -65.9375 187.4375 L -65.9375 187.53125 C -68.580394 196.47194 -63.519048 205.86807 -54.59375 208.5625 C -45.631916 211.26796 -36.174209 206.18058 -33.46875 197.21875 C -32.388614 193.6408 -32.569947 189.99353 -33.71875 186.71875 C -32.612019 187.35651 -31.431517 187.89626 -30.15625 188.28125 C -21.194416 190.98671 -11.736709 185.93058 -9.03125 176.96875 C -6.3257911 168.00692 -11.381916 158.54921 -20.34375 155.84375 C -22.024094 155.33648 -23.738789 155.11106 -25.40625 155.125 z M 18.65625 162.09375 C 11.430588 162.15416 4.7606854 166.87476 2.5625 174.15625 L 2.53125 174.25 C -0.11164444 183.19069 4.980952 192.58682 13.90625 195.28125 C 15.626773 195.80066 17.358177 196.02897 19.0625 196 C 20.367552 196.84338 21.813458 197.52859 23.375 198 C 24.090368 198.21596 24.813244 198.34992 25.53125 198.46875 C 26.331695 204.91533 30.788302 210.59588 37.40625 212.59375 C 46.368084 215.29921 55.825791 210.24308 58.53125 201.28125 C 61.236709 192.31942 56.180584 182.86171 47.21875 180.15625 C 46.501447 179.93971 45.785976 179.77338 45.0625 179.65625 C 44.247585 173.2188 39.769164 167.5276 33.15625 165.53125 C 31.423234 165.00808 29.686469 164.78213 27.96875 164.8125 C 26.675187 163.98259 25.23195 163.31 23.6875 162.84375 C 22.007156 162.33648 20.323711 162.07981 18.65625 162.09375 z M 738.09375 162.59375 C 730.86809 162.65416 724.19819 167.37476 722 174.65625 L 722 174.75 C 719.35711 183.69069 724.41845 193.08682 733.34375 195.78125 C 742.30558 198.48671 751.76329 193.39933 754.46875 184.4375 C 757.17421 175.47567 752.08683 166.01796 743.125 163.3125 C 741.44466 162.80523 739.76121 162.57981 738.09375 162.59375 z M -807.59375 167.46875 C -814.81941 167.52916 -821.48931 172.24976 -823.6875 179.53125 L -823.71875 179.625 C -826.36164 188.56569 -821.26905 197.96182 -812.34375 200.65625 C -803.38192 203.36171 -793.92421 198.27433 -791.21875 189.3125 C -788.51329 180.35067 -793.60067 170.89296 -802.5625 168.1875 C -804.24284 167.68023 -805.92629 167.45481 -807.59375 167.46875 z M 299.90625 172.40625 C 292.68059 172.46666 286.04194 177.15601 283.84375 184.4375 L 283.8125 184.53125 C 281.16961 193.47194 286.23095 202.86807 295.15625 205.5625 C 304.11808 208.26796 313.57579 203.21183 316.28125 194.25 C 318.98671 185.28817 313.93058 175.83046 304.96875 173.125 C 303.28841 172.61773 301.57371 172.39231 299.90625 172.40625 z M 126.71875 184.0625 C 119.49309 184.12291 112.82319 188.84351 110.625 196.125 L 110.59375 196.21875 C 107.95086 205.15944 113.04345 214.55557 121.96875 217.25 C 130.93058 219.95546 140.38829 214.89933 143.09375 205.9375 C 145.79921 196.97567 140.71183 187.51796 131.75 184.8125 C 130.06966 184.30523 128.38621 184.04856 126.71875 184.0625 z M 506.25 187.0625 C 499.02434 187.12291 492.38569 191.84351 490.1875 199.125 L 490.15625 199.21875 C 487.51336 208.15944 492.5747 217.55557 501.5 220.25 C 510.46183 222.95546 519.91954 217.86808 522.625 208.90625 C 525.33046 199.94442 520.27433 190.48671 511.3125 187.78125 C 509.63216 187.27398 507.91746 187.04856 506.25 187.0625 z M 570.5 189.96875 C 563.27434 190.02916 556.63569 194.74976 554.4375 202.03125 L 554.40625 202.125 C 551.76336 211.06569 556.8247 220.46182 565.75 223.15625 C 574.71183 225.86171 584.16954 220.80558 586.875 211.84375 C 589.58046 202.88192 584.52433 193.42421 575.5625 190.71875 C 573.88216 190.21148 572.16746 189.95481 570.5 189.96875 z M 172.3125 195.1875 C 165.08684 195.24791 158.41694 199.96851 156.21875 207.25 L 156.1875 207.34375 C 154.68251 212.43502 155.67761 217.68497 158.46875 221.75 C 158.44459 221.80006 158.42996 221.85604 158.40625 221.90625 C 152.81705 223.31179 148.09925 227.51889 146.3125 233.4375 L 146.28125 233.53125 C 143.63836 242.47194 148.6997 251.86807 157.625 254.5625 C 165.78078 257.02462 174.32953 253.02159 177.84375 245.53125 C 182.99464 244.22906 187.41748 240.558 189.46875 235.34375 C 190.09371 237.6986 191.21204 239.89855 192.75 241.78125 C 188.10646 243.62275 184.30583 247.47132 182.75 252.625 L 182.71875 252.71875 C 180.07586 261.65944 185.1372 271.05557 194.0625 273.75 C 198.36475 275.04879 202.77097 274.54335 206.5 272.6875 C 207.97326 278.15191 212.15468 282.74481 217.96875 284.5 C 219.4519 284.94774 220.96002 285.14816 222.4375 285.1875 C 219.57507 287.28656 217.35364 290.31296 216.25 293.96875 L 216.25 294.0625 C 213.60711 303.00319 218.66845 312.39932 227.59375 315.09375 C 229.25299 315.59465 230.91524 315.82011 232.5625 315.8125 C 234.312 319.52162 237.37392 322.59532 241.375 324.25 C 243.02039 329.38039 247.04945 333.67 252.59375 335.34375 C 261.55558 338.04921 271.01329 332.96183 273.71875 324 C 275.79075 317.1365 273.30518 310.00193 268 305.8125 C 268.42702 298.18145 263.64069 290.96288 256 288.65625 C 252.61547 287.6345 249.1669 287.73138 246.03125 288.71875 C 243.93994 285.91735 240.97644 283.71222 237.375 282.625 C 235.88358 282.17476 234.38921 281.94213 232.90625 281.90625 C 233.92872 281.15532 234.84853 280.28358 235.6875 279.3125 C 242.35587 278.69596 248.28921 274.1494 250.34375 267.34375 C 253.04921 258.38192 247.99308 248.92421 239.03125 246.21875 C 237.35091 245.71148 235.63621 245.48606 233.96875 245.5 C 229.07911 245.54088 224.47555 247.7187 221.3125 251.375 C 219.20588 251.5701 217.17372 252.16246 215.3125 253.09375 C 214.68441 250.77966 213.57939 248.63402 212.0625 246.78125 C 216.70943 244.9366 220.50581 241.0628 222.0625 235.90625 C 222.6431 233.98302 222.84733 232.05356 222.75 230.15625 C 224.67148 232.08877 227.08584 233.59549 229.875 234.4375 C 238.83683 237.14296 248.29454 232.05558 251 223.09375 C 251.10337 222.75133 251.16916 222.40597 251.25 222.0625 C 253.30814 225.83728 256.78006 228.84752 261.21875 230.1875 C 270.18058 232.89296 279.63829 227.80558 282.34375 218.84375 C 285.04921 209.88192 279.99308 200.42421 271.03125 197.71875 C 269.35091 197.21148 267.63621 196.98606 265.96875 197 C 258.74309 197.06041 252.10444 201.78101 249.90625 209.0625 L 249.875 209.15625 C 249.78628 209.45639 249.72773 209.76161 249.65625 210.0625 C 247.59358 206.2968 244.08957 203.30711 239.65625 201.96875 C 237.97591 201.46148 236.29246 201.23606 234.625 201.25 C 227.39934 201.31041 220.72944 206.03101 218.53125 213.3125 L 218.5 213.40625 C 217.94215 215.29342 217.74902 217.20206 217.84375 219.0625 C 215.92654 217.13437 213.50441 215.6222 210.71875 214.78125 C 202.22109 212.21592 193.30392 216.67557 190.09375 224.78125 C 189.59463 222.90157 188.78153 221.12752 187.6875 219.53125 C 188.07625 218.73004 188.42197 217.9108 188.6875 217.03125 C 191.39296 208.06942 186.30558 198.61171 177.34375 195.90625 C 175.66341 195.39898 173.97996 195.17356 172.3125 195.1875 z M 426.4375 197.0625 C 419.21184 197.12291 412.57319 201.81226 410.375 209.09375 L 410.34375 209.1875 C 407.70086 218.12819 412.7622 227.52432 421.6875 230.21875 C 426.4558 231.65824 431.35507 230.87841 435.3125 228.5 C 434.61582 232.01923 435.09494 235.55232 436.46875 238.65625 C 430.99536 240.12646 426.38453 244.32782 424.625 250.15625 L 424.59375 250.25 C 421.95086 259.19069 427.0122 268.58682 435.9375 271.28125 C 438.45801 272.04216 440.99979 272.16602 443.4375 271.78125 C 445.50463 275.49296 448.92642 278.45715 453.3125 279.78125 C 457.2333 280.96489 461.27747 280.65558 464.78125 279.1875 C 463.30465 287.53376 468.28856 295.83652 476.59375 298.34375 C 485.55558 301.04921 495.01329 295.96183 497.71875 287 C 500.42421 278.03817 495.33683 268.58046 486.375 265.875 C 484.69466 265.36773 483.01121 265.14231 481.34375 265.15625 C 479.10924 265.17493 476.91865 265.62081 474.90625 266.46875 C 476.38298 258.1285 471.43387 249.82084 463.125 247.3125 C 462.07732 246.99622 461.01841 246.79741 459.96875 246.6875 C 463.7815 244.64735 466.83837 241.18772 468.1875 236.71875 C 470.89296 227.75692 465.80558 218.26796 456.84375 215.5625 C 455.16341 215.05523 453.47996 214.82981 451.8125 214.84375 C 448.75133 214.86934 445.78267 215.74244 443.21875 217.28125 C 444.89697 208.82611 439.92368 200.32425 431.5 197.78125 C 429.81966 197.27398 428.10496 197.04856 426.4375 197.0625 z M -106.5 204.09375 C -113.72566 204.15416 -120.39556 208.87476 -122.59375 216.15625 L -122.625 216.25 C -125.26789 225.19069 -120.1753 234.58682 -111.25 237.28125 C -102.28817 239.98671 -92.830459 234.93058 -90.125 225.96875 C -87.419541 217.00692 -92.506916 207.54921 -101.46875 204.84375 C -103.14909 204.33648 -104.83254 204.07981 -106.5 204.09375 z M -25.5 207.78125 C -31.731305 207.83335 -37.544393 211.36267 -40.4375 217 C -49.370978 214.35904 -58.772883 219.44494 -61.46875 228.375 L -61.5 228.46875 C -64.142894 237.40944 -59.081548 246.80557 -50.15625 249.5 C -42.18614 251.90607 -33.812517 248.1621 -30.15625 241 C -21.222776 243.64086 -11.820867 238.55506 -9.125 229.625 C -6.4195411 220.66317 -11.506916 211.20546 -20.46875 208.5 C -22.149094 207.99273 -23.832539 207.76731 -25.5 207.78125 z M 100.9375 207.875 C 95.955067 207.91666 91.232539 210.16174 88.0625 213.9375 C 87.998937 213.91751 87.938961 213.89431 87.875 213.875 C 78.913166 211.16954 69.455459 216.22567 66.75 225.1875 L 66.71875 225.28125 C 64.075856 234.22194 69.137202 243.64932 78.0625 246.34375 C 78.283159 246.41036 78.497551 246.47403 78.71875 246.53125 C 77.082976 248.33594 75.781986 250.51319 75.03125 253 L 75.03125 253.09375 C 72.388356 262.03444 77.449702 271.43057 86.375 274.125 C 95.336834 276.83046 104.79454 271.74308 107.5 262.78125 C 110.20546 253.81942 105.11808 244.36171 96.15625 241.65625 C 95.944655 241.59237 95.743303 241.55526 95.53125 241.5 C 95.69215 241.32329 95.846316 241.15272 96 240.96875 C 96.05395 240.98562 96.102014 241.01488 96.15625 241.03125 C 105.11808 243.73671 114.57579 238.68058 117.28125 229.71875 C 119.98671 220.75692 114.93058 211.29921 105.96875 208.59375 C 104.28841 208.08648 102.60496 207.86106 100.9375 207.875 z M 392.625 211.875 C 385.39934 211.93541 378.76069 216.65601 376.5625 223.9375 L 376.53125 224.03125 C 373.88836 232.97194 378.9497 242.36807 387.875 245.0625 C 396.83683 247.76796 406.29454 242.68058 409 233.71875 C 411.70546 224.75692 406.64933 215.29921 397.6875 212.59375 C 396.00716 212.08648 394.29246 211.86106 392.625 211.875 z M 600.8125 212.875 C 593.58684 212.93541 586.94819 217.65601 584.75 224.9375 L 584.71875 225.03125 C 582.07586 233.97194 587.1372 243.36807 596.0625 246.0625 C 605.02433 248.76796 614.48204 243.71183 617.1875 234.75 C 619.89296 225.78817 614.83683 216.33046 605.875 213.625 C 604.19466 213.11773 602.47996 212.86106 600.8125 212.875 z M 346.6875 216.375 C 339.46184 216.43541 332.79194 221.15601 330.59375 228.4375 L 330.5625 228.53125 C 329.61075 231.75094 329.69018 235.02768 330.5625 238.03125 C 328.73499 238.22065 326.96128 238.72185 325.3125 239.46875 C 324.19348 238.81887 323.01203 238.26543 321.71875 237.875 C 320.03841 237.36773 318.32371 237.14231 316.65625 237.15625 C 309.43059 237.21666 302.79194 241.93726 300.59375 249.21875 L 300.5625 249.3125 C 298.56451 256.07154 300.97258 263.09377 306.125 267.28125 C 306.00794 267.24316 305.89967 267.192 305.78125 267.15625 C 304.10091 266.64898 302.41746 266.39231 300.75 266.40625 C 293.52434 266.46666 286.85444 271.18726 284.65625 278.46875 L 284.65625 278.5625 C 282.01336 287.50319 287.0747 296.89932 296 299.59375 C 304.96183 302.29921 314.41954 297.24308 317.125 288.28125 C 319.17681 281.48462 316.73457 274.42414 311.53125 270.21875 C 311.65707 270.25992 311.77885 270.30529 311.90625 270.34375 C 316.00571 271.58132 320.19929 271.17988 323.8125 269.53125 C 324.92848 270.17773 326.11824 270.73617 327.40625 271.125 C 336.36808 273.83046 345.82579 268.77433 348.53125 259.8125 C 349.51228 256.56282 349.47261 253.22208 348.59375 250.1875 C 355.17393 249.48888 361.03022 244.95066 363.0625 238.21875 C 365.76796 229.25692 360.68058 219.79921 351.71875 217.09375 C 350.03841 216.58648 348.35496 216.36106 346.6875 216.375 z M 548.3125 219.9375 C 541.08684 219.99791 534.41694 224.68726 532.21875 231.96875 L 532.21875 232.0625 C 529.57586 241.00319 534.6372 250.43057 543.5625 253.125 C 552.52433 255.83046 561.98204 250.74308 564.6875 241.78125 C 567.39296 232.81942 562.30558 223.36171 553.34375 220.65625 C 551.66341 220.14898 549.97996 219.92356 548.3125 219.9375 z M 640.4375 239 C 633.21184 239.06041 626.54194 243.74976 624.34375 251.03125 L 624.3125 251.125 C 621.66961 260.06569 626.7622 269.46182 635.6875 272.15625 C 644.64933 274.86171 654.10704 269.80558 656.8125 260.84375 C 659.51796 251.88192 654.43058 242.42421 645.46875 239.71875 C 643.78841 239.21148 642.10496 238.98606 640.4375 239 z M 56.03125 239.125 C 48.805588 239.18541 42.135685 243.90601 39.9375 251.1875 L 39.9375 251.28125 C 37.294606 260.22194 42.355952 269.61807 51.28125 272.3125 C 60.243084 275.01796 69.700791 269.96183 72.40625 261 C 75.111709 252.03817 70.055584 242.58046 61.09375 239.875 C 59.413406 239.36773 57.698711 239.11106 56.03125 239.125 z M 577.34375 244.0625 C 570.11809 244.12291 563.44819 248.84351 561.25 256.125 L 561.21875 256.21875 C 558.57586 265.15944 563.66845 274.55557 572.59375 277.25 C 581.55558 279.95546 591.01329 274.86808 593.71875 265.90625 C 596.42421 256.94442 591.33683 247.48671 582.375 244.78125 C 580.69466 244.27398 579.01121 244.04856 577.34375 244.0625 z M 144.03125 252.40625 C 136.80559 252.46666 130.13569 257.18726 127.9375 264.46875 L 127.90625 264.5625 C 125.26336 273.50319 130.35595 282.89932 139.28125 285.59375 C 148.24308 288.29921 157.70079 283.21183 160.40625 274.25 C 163.11171 265.28817 158.02433 255.83046 149.0625 253.125 C 147.38216 252.61773 145.69871 252.39231 144.03125 252.40625 z M 756.25 256.0625 C 749.02434 256.12291 742.35444 260.84351 740.15625 268.125 L 740.125 268.21875 C 737.48211 277.15944 742.5747 286.55557 751.5 289.25 C 760.46183 291.95546 769.91954 286.89933 772.625 277.9375 C 775.33046 268.97567 770.24308 259.48671 761.28125 256.78125 C 759.60091 256.27398 757.91746 256.04856 756.25 256.0625 z M 666.875 271.3125 C 659.64934 271.37291 652.97944 276.06226 650.78125 283.34375 L 650.75 283.4375 C 650.69806 283.6132 650.67101 283.79275 650.625 283.96875 C 645.16797 285.43989 640.56804 289.59103 638.8125 295.40625 L 638.78125 295.5 C 636.13836 304.44069 641.1997 313.83682 650.125 316.53125 C 659.08683 319.23671 668.54454 314.18058 671.25 305.21875 C 671.3098 305.02066 671.36142 304.82412 671.40625 304.625 C 671.41848 304.62171 671.42528 304.59707 671.4375 304.59375 C 670.22385 312.77881 675.13305 320.82142 683.28125 323.28125 C 692.24308 325.98671 701.70079 320.89933 704.40625 311.9375 C 707.11171 302.97567 702.05558 293.51796 693.09375 290.8125 C 689.94215 289.86107 686.74027 289.88184 683.78125 290.6875 C 684.97594 282.51815 680.04821 274.4892 671.90625 272.03125 C 670.22591 271.52398 668.54246 271.29856 666.875 271.3125 z M -84.96875 271.625 C -92.194412 271.68541 -98.864315 276.40601 -101.0625 283.6875 L -101.09375 283.78125 C -103.73664 292.72194 -98.675298 302.11807 -89.75 304.8125 C -80.788166 307.51796 -71.330459 302.43058 -68.625 293.46875 C -65.919541 284.50692 -70.975666 275.04921 -79.9375 272.34375 C -81.617844 271.83648 -83.301289 271.61106 -84.96875 271.625 z M 345.71875 280.96875 C 338.49309 281.02916 331.85444 285.74976 329.65625 293.03125 L 329.625 293.125 C 328.49188 296.95824 328.7883 300.87577 330.1875 304.3125 C 323.33016 304.75244 317.13365 309.34832 315.03125 316.3125 L 315 316.40625 C 312.35711 325.34694 317.4497 334.74307 326.375 337.4375 C 335.33683 340.14296 344.79454 335.08683 347.5 326.125 C 348.66924 322.25189 348.39428 318.28577 346.96875 314.8125 C 353.82509 314.37074 359.99133 309.77676 362.09375 302.8125 C 364.79921 293.85067 359.74308 284.39296 350.78125 281.6875 C 349.10091 281.18023 347.38621 280.95481 345.71875 280.96875 z M 419.03125 284.28125 C 411.80559 284.34166 405.16694 289.03101 402.96875 296.3125 L 402.9375 296.40625 C 400.29461 305.34694 405.35595 314.74307 414.28125 317.4375 C 423.24308 320.14296 432.70079 315.08683 435.40625 306.125 C 438.11171 297.16317 433.05558 287.70546 424.09375 285 C 422.41341 284.49273 420.69871 284.26731 419.03125 284.28125 z M 464.28125 297.15625 C 457.05559 297.21666 450.38569 301.93726 448.1875 309.21875 L 448.15625 309.3125 C 447.28788 312.25011 447.27685 315.21784 447.9375 318 C 443.67453 319.95802 440.24478 323.65206 438.78125 328.5 L 438.75 328.59375 C 436.10711 337.53444 441.16845 346.93057 450.09375 349.625 C 459.05558 352.33046 468.51329 347.27433 471.21875 338.3125 C 472.11719 335.33641 472.141 332.32002 471.46875 329.5 C 475.73697 327.54413 479.16145 323.84802 480.625 319 C 483.33046 310.03817 478.27433 300.58046 469.3125 297.875 C 467.63216 297.36773 465.94871 297.14231 464.28125 297.15625 z M 572.84375 306.3125 C 565.61809 306.37291 558.97944 311.09351 556.78125 318.375 L 556.75 318.46875 C 554.10711 327.40944 559.16845 336.80557 568.09375 339.5 C 577.05558 342.20546 586.51329 337.11808 589.21875 328.15625 C 591.92421 319.19442 586.86808 309.73671 577.90625 307.03125 C 576.22591 306.52398 574.51121 306.29856 572.84375 306.3125 z M 48.46875 319.5 C 43.405446 319.54233 38.634757 321.88673 35.46875 325.78125 C 30.332906 327.42675 26.050137 331.48236 24.375 337.03125 L 24.375 337.0625 C 18.91481 338.54055 14.317716 342.7171 12.5625 348.53125 L 12.53125 348.625 C 9.8883556 357.56569 14.949702 366.96182 23.875 369.65625 C 32.836834 372.36171 42.294541 367.27433 45 358.3125 C 45.005868 358.29306 44.994205 358.26944 45 358.25 C 46.226162 357.91463 47.413177 357.46635 48.53125 356.875 C 47.468161 358.35602 46.65022 360.03169 46.09375 361.875 L 46.0625 361.96875 C 43.419606 370.90944 48.480952 380.30557 57.40625 383 C 66.368084 385.70546 75.825791 380.61808 78.53125 371.65625 C 81.236709 362.69442 76.180584 353.23671 67.21875 350.53125 C 65.538406 350.02398 63.823711 349.79856 62.15625 349.8125 C 60.894852 349.82305 59.644752 349.99539 58.4375 350.28125 C 61.404575 348.17823 63.711304 345.09498 64.84375 341.34375 C 67.549209 332.38192 62.493084 322.92421 53.53125 320.21875 C 51.850906 319.71148 50.136211 319.48606 48.46875 319.5 z M 196.53125 321.125 C 189.30559 321.18541 182.63569 325.90601 180.4375 333.1875 L 180.40625 333.28125 C 177.76336 342.22194 182.8247 351.61807 191.75 354.3125 C 200.71183 357.01796 210.16954 351.96183 212.875 343 C 215.58046 334.03817 210.52433 324.58046 201.5625 321.875 C 199.88216 321.36773 198.19871 321.11106 196.53125 321.125 z M 369.71875 327.59375 C 362.49309 327.65416 355.82319 332.37476 353.625 339.65625 L 353.625 339.75 C 352.56687 343.32956 352.74095 346.98375 353.90625 350.25 C 351.87479 347.89014 349.17054 346.02908 345.96875 345.0625 C 337.00692 342.35704 327.54921 347.44442 324.84375 356.40625 L 324.8125 356.5 C 322.16961 365.44069 327.2622 374.83682 336.1875 377.53125 C 337.03782 377.78795 337.89693 377.94251 338.75 378.0625 C 337.13312 379.86108 335.87057 382.0303 335.125 384.5 L 335.09375 384.59375 C 332.45086 393.53444 337.5122 402.93057 346.4375 405.625 C 355.39933 408.33046 364.85704 403.27433 367.5625 394.3125 C 370.26796 385.35067 365.21183 375.89296 356.25 373.1875 C 355.38964 372.92777 354.52367 372.75065 353.65625 372.625 C 355.27786 370.82658 356.56627 368.6594 357.3125 366.1875 C 358.39983 362.58571 358.20403 358.91655 357.03125 355.625 C 359.06125 357.98597 361.76702 359.81469 364.96875 360.78125 C 373.93058 363.48671 383.38829 358.43058 386.09375 349.46875 C 388.79921 340.50692 383.71183 331.04921 374.75 328.34375 C 373.06966 327.83648 371.38621 327.57981 369.71875 327.59375 z M 118.0625 329.46875 C 110.83684 329.52916 104.19819 334.24976 102 341.53125 L 101.96875 341.625 C 99.325856 350.56569 104.3872 359.96182 113.3125 362.65625 C 122.27433 365.36171 131.73204 360.30558 134.4375 351.34375 C 137.14296 342.38192 132.08683 332.89296 123.125 330.1875 C 121.44466 329.68023 119.72996 329.45481 118.0625 329.46875 z M 227.59375 338.46875 C 220.36809 338.52916 213.72944 343.21851 211.53125 350.5 L 211.5 350.59375 C 208.85711 359.53444 213.91845 368.93057 222.84375 371.625 C 231.80558 374.33046 241.26329 369.27433 243.96875 360.3125 C 246.67421 351.35067 241.61808 341.89296 232.65625 339.1875 C 230.97591 338.68023 229.26121 338.45481 227.59375 338.46875 z M 648.5625 343.5 C 641.39117 343.55996 634.81048 348.18671 632.5625 355.375 C 626.5375 356.50624 621.3306 360.8541 619.4375 367.125 L 619.40625 367.21875 C 616.76336 376.15944 621.85595 385.55557 630.78125 388.25 C 639.68862 390.93902 649.07343 385.9538 651.84375 377.09375 C 657.85365 375.95547 663.04742 371.60463 664.9375 365.34375 C 667.64296 356.38192 662.58683 346.92421 653.625 344.21875 C 651.94466 343.71148 650.22996 343.48606 648.5625 343.5 z M 274.78125 345 C 267.55559 345.06041 260.91694 349.78101 258.71875 357.0625 L 258.6875 357.15625 C 256.04461 366.09694 261.10595 375.49307 270.03125 378.1875 C 278.99308 380.89296 288.45079 375.80558 291.15625 366.84375 C 293.86171 357.88192 288.80558 348.42421 279.84375 345.71875 C 278.16341 345.21148 276.44871 344.98606 274.78125 345 z M 545.53125 350.8125 C 538.30559 350.87291 531.63569 355.56226 529.4375 362.84375 L 529.4375 362.9375 C 526.79461 371.87819 531.85595 381.27432 540.78125 383.96875 C 549.74308 386.67421 559.20079 381.61808 561.90625 372.65625 C 564.61171 363.69442 559.52433 354.23671 550.5625 351.53125 C 548.88216 351.02398 547.19871 350.79856 545.53125 350.8125 z M 388.21875 360.65625 C 380.99309 360.71666 374.32319 365.43726 372.125 372.71875 L 372.09375 372.8125 C 369.45086 381.75319 374.54345 391.14932 383.46875 393.84375 C 392.43058 396.54921 401.88829 391.49308 404.59375 382.53125 C 407.29921 373.56942 402.21183 364.11171 393.25 361.40625 C 391.56966 360.89898 389.88621 360.64231 388.21875 360.65625 z M 5.53125 362.78125 C 0.81543984 362.82068 -3.6587542 364.83341 -6.8125 368.25 C -8.2030211 367.30406 -9.7735393 366.54301 -11.46875 366.03125 C -20.430584 363.32579 -29.888291 368.41317 -32.59375 377.375 L -32.625 377.46875 C -35.267894 386.40944 -30.175298 395.80557 -21.25 398.5 C -14.812559 400.44338 -8.1378843 398.36044 -3.875 393.71875 C -2.4819146 394.66643 -0.91578487 395.42519 0.78125 395.9375 C 9.7430843 398.64296 19.200791 393.58683 21.90625 384.625 C 24.611709 375.66317 19.524334 366.20546 10.5625 363.5 C 8.8821561 362.99273 7.1987106 362.76731 5.53125 362.78125 z M 496.34375 367.65625 C 489.11809 367.71666 482.44819 372.43726 480.25 379.71875 L 480.21875 379.8125 C 477.57586 388.75319 482.6372 398.14932 491.5625 400.84375 C 500.52433 403.54921 510.01329 398.46183 512.71875 389.5 C 515.42421 380.53817 510.33683 371.08046 501.375 368.375 C 499.69466 367.86773 498.01121 367.64231 496.34375 367.65625 z M 774 374.15625 C 766.77434 374.21666 760.13569 378.93726 757.9375 386.21875 L 757.90625 386.3125 C 755.26336 395.25319 760.3247 404.64932 769.25 407.34375 C 778.21183 410.04921 787.66954 404.99308 790.375 396.03125 C 793.08046 387.06942 788.02433 377.61171 779.0625 374.90625 C 777.38216 374.39898 775.66746 374.14231 774 374.15625 z M 125.5 375.4375 C 118.27434 375.49791 111.63569 380.21851 109.4375 387.5 L 109.40625 387.59375 C 106.76336 396.53444 111.8247 405.93057 120.75 408.625 C 129.71183 411.33046 139.16954 406.24308 141.875 397.28125 C 144.58046 388.31942 139.52433 378.86171 130.5625 376.15625 C 128.88216 375.64898 127.16746 375.42356 125.5 375.4375 z M 239.1875 381.3125 C 231.96184 381.37291 225.29194 386.09351 223.09375 393.375 L 223.0625 393.46875 C 220.4423 402.33269 225.4356 411.6214 234.21875 414.40625 C 227.28738 414.77473 220.99668 419.40943 218.875 426.4375 L 218.84375 426.53125 C 216.20086 435.47194 221.29345 444.86807 230.21875 447.5625 C 235.47437 449.1491 240.86502 448.04136 245 445.0625 C 246.07776 449.28637 248.74857 453.01236 252.5625 455.34375 C 250.79408 463.85459 255.81144 472.44308 264.28125 475 C 273.24308 477.70546 282.70079 472.64933 285.40625 463.6875 C 287.68467 456.14025 284.40372 448.26524 277.96875 444.34375 C 279.73915 435.83791 274.78757 427.24601 266.3125 424.6875 C 264.63216 424.18023 262.91746 423.95481 261.25 423.96875 C 257.7139 423.99831 254.33454 425.1482 251.53125 427.15625 C 250.75307 424.11839 249.13828 421.34435 246.875 419.15625 C 255.67708 421.50976 264.81646 416.47322 267.46875 407.6875 C 270.17421 398.72567 265.11808 389.26796 256.15625 386.5625 C 254.39163 386.02978 252.59152 385.80308 250.84375 385.84375 C 249.01095 384.14648 246.76986 382.83265 244.21875 382.0625 C 242.53841 381.55523 240.85496 381.29856 239.1875 381.3125 z M -132.625 384.9375 C -139.85066 384.99791 -146.52056 389.68726 -148.71875 396.96875 L -148.75 397.0625 C -151.39289 406.00319 -146.3003 415.39932 -137.375 418.09375 C -128.41317 420.79921 -118.95546 415.74308 -116.25 406.78125 C -113.54454 397.81942 -118.63192 388.36171 -127.59375 385.65625 C -129.27409 385.14898 -130.95754 384.92356 -132.625 384.9375 z M 823.3125 388.625 C 816.08684 388.68541 809.41694 393.40601 807.21875 400.6875 L 807.1875 400.78125 C 804.54461 409.72194 809.60595 419.11807 818.53125 421.8125 C 827.49308 424.51796 836.98204 419.46183 839.6875 410.5 C 842.39296 401.53817 837.30558 392.08046 828.34375 389.375 C 826.66341 388.86773 824.97996 388.61106 823.3125 388.625 z M 669.03125 393.5625 C 661.80559 393.62291 655.13569 398.31226 652.9375 405.59375 L 652.90625 405.6875 C 650.26336 414.62819 655.35595 424.02432 664.28125 426.71875 C 673.24308 429.42421 682.70079 424.36808 685.40625 415.40625 C 688.11171 406.44442 683.02433 396.98671 674.0625 394.28125 C 672.38216 393.77398 670.69871 393.54856 669.03125 393.5625 z M 463.5625 394.46875 C 456.33684 394.52916 449.69819 399.24976 447.5 406.53125 L 447.46875 406.625 C 446.38656 410.28597 446.60609 414.02143 447.84375 417.34375 C 447.02097 418.63061 446.33823 420.02804 445.875 421.5625 L 445.84375 421.65625 C 443.20086 430.59694 448.29345 439.99307 457.21875 442.6875 C 463.38001 444.5475 469.78777 442.72415 474.0625 438.5 C 474.61076 445.24617 479.19684 451.30235 486.0625 453.375 C 495.02433 456.08046 504.48204 450.99308 507.1875 442.03125 C 507.2126 441.9481 507.22623 441.86448 507.25 441.78125 C 508.66168 442.75252 510.24183 443.54116 511.96875 444.0625 C 513.56467 444.54429 515.16356 444.76996 516.75 444.78125 C 516.50736 445.3508 516.27681 445.95612 516.09375 446.5625 L 516.0625 446.65625 C 513.41961 455.59694 518.5122 464.99307 527.4375 467.6875 C 531.61912 468.94988 535.90128 468.5141 539.5625 466.78125 C 540.99441 472.32675 545.18301 477.00631 551.0625 478.78125 C 560.02433 481.48671 569.48204 476.43058 572.1875 467.46875 C 574.89296 458.50692 569.80558 449.04921 560.84375 446.34375 C 556.6719 445.08433 552.4057 445.53087 548.75 447.25 C 547.31794 441.69914 543.10642 436.99616 537.21875 435.21875 C 535.62283 434.73696 534.02396 434.51047 532.4375 434.5 C 532.68014 433.93058 532.91069 433.35638 533.09375 432.75 C 535.79921 423.78817 530.71183 414.33046 521.75 411.625 C 520.06966 411.11773 518.38621 410.86106 516.71875 410.875 C 509.49309 410.93541 502.82319 415.65601 500.625 422.9375 L 500.59375 423.03125 C 500.58149 423.07273 500.57443 423.11475 500.5625 423.15625 C 499.15748 422.19195 497.56227 421.42505 495.84375 420.90625 C 489.65266 419.03724 483.24363 420.88356 478.96875 425.15625 C 478.83771 423.57235 478.51763 422.02983 477.96875 420.5625 C 478.79256 419.27546 479.47384 417.87962 479.9375 416.34375 C 482.64296 407.38192 477.58683 397.92421 468.625 395.21875 C 466.94466 394.71148 465.22996 394.45481 463.5625 394.46875 z M 149.9375 406.40625 C 142.71184 406.46666 136.04194 411.18726 133.84375 418.46875 L 133.8125 418.5625 C 131.16961 427.50319 136.2622 436.89932 145.1875 439.59375 C 154.14933 442.29921 163.60704 437.21183 166.3125 428.25 C 169.01796 419.28817 163.93058 409.83046 154.96875 407.125 C 153.28841 406.61773 151.60496 406.39231 149.9375 406.40625 z M -11.65625 411.53125 C -18.881912 411.59166 -25.551815 416.31226 -27.75 423.59375 L -27.78125 423.6875 C -30.424144 432.62819 -25.331548 442.02432 -16.40625 444.71875 C -14.97958 445.14944 -13.547561 445.3534 -12.125 445.40625 C -10.076021 447.85792 -7.3172076 449.75801 -4.03125 450.75 C 4.9305843 453.45546 14.388291 448.39933 17.09375 439.4375 C 19.799209 430.47567 14.743084 420.98671 5.78125 418.28125 C 4.3395303 417.84601 2.8747311 417.64262 1.4375 417.59375 C -0.61049669 415.1606 -3.3548769 413.26846 -6.625 412.28125 C -8.3053439 411.77398 -9.9887894 411.51731 -11.65625 411.53125 z M -157.84375 412.5 C -165.06941 412.56041 -171.73931 417.28101 -173.9375 424.5625 L -173.96875 424.65625 C -176.61164 433.59694 -171.51905 442.99307 -162.59375 445.6875 C -153.63192 448.39296 -144.17421 443.30558 -141.46875 434.34375 C -138.76329 425.38192 -143.85067 415.92421 -152.8125 413.21875 C -154.49284 412.71148 -156.17629 412.48606 -157.84375 412.5 z M 186.53125 417.75 C 179.30559 417.81041 172.63569 422.53101 170.4375 429.8125 L 170.40625 429.90625 C 169.32703 433.55717 169.57771 437.27828 170.8125 440.59375 C 169.18558 449.02519 174.14149 457.49849 182.53125 460.03125 C 191.49308 462.73671 200.95079 457.64933 203.65625 448.6875 C 204.76406 445.01788 204.5458 441.27589 203.3125 437.9375 C 204.94999 429.50422 199.96422 421.03637 191.5625 418.5 C 189.88216 417.99273 188.19871 417.73606 186.53125 417.75 z M 686.5625 423.53125 C 679.33684 423.59166 672.66694 428.28101 670.46875 435.5625 L 670.4375 435.65625 C 667.79461 444.59694 672.8872 453.99307 681.8125 456.6875 C 690.77433 459.39296 700.23204 454.33683 702.9375 445.375 C 705.64296 436.41317 700.55558 426.95546 691.59375 424.25 C 689.91341 423.74273 688.22996 423.51731 686.5625 423.53125 z M 418.4375 432.875 C 411.21184 432.93541 404.57319 437.65601 402.375 444.9375 L 402.34375 445.03125 C 399.70086 453.97194 404.7622 463.36807 413.6875 466.0625 C 422.64933 468.76796 432.10704 463.71183 434.8125 454.75 C 437.51796 445.78817 432.46183 436.33046 423.5 433.625 C 421.81966 433.11773 420.10496 432.86106 418.4375 432.875 z M 126.96875 435.5625 C 119.74309 435.62291 113.10444 440.34351 110.90625 447.625 L 110.875 447.71875 C 108.23211 456.65944 113.29345 466.05557 122.21875 468.75 C 122.65467 468.8816 123.09381 468.99851 123.53125 469.09375 C 123.49042 469.21859 123.44441 469.34236 123.40625 469.46875 L 123.40625 469.5625 C 121.95026 474.48801 122.82828 479.558 125.40625 483.5625 C 125.19359 484.29735 125.0483 485.04456 124.9375 485.78125 C 118.22415 486.35141 112.22196 490.87609 110.15625 497.71875 L 110.125 497.8125 C 107.48211 506.75319 112.5747 516.14932 121.5 518.84375 C 125.4547 520.03762 129.50626 519.71637 133.03125 518.21875 C 132.98176 518.36783 132.92068 518.50494 132.875 518.65625 L 132.84375 518.75 C 130.20086 527.69069 135.2622 537.08682 144.1875 539.78125 C 153.14933 542.48671 162.60704 537.43058 165.3125 528.46875 C 165.81352 526.80912 166.03898 525.11638 166.03125 523.46875 C 173.88223 524.1909 181.41397 519.3416 183.78125 511.5 C 184.0476 510.61773 184.22445 509.72873 184.34375 508.84375 C 186.43328 506.87477 188.04863 504.35062 188.9375 501.40625 C 191.64296 492.44442 186.58683 482.98671 177.625 480.28125 C 175.94466 479.77398 174.22996 479.54856 172.5625 479.5625 C 166.95272 479.6094 161.69264 482.47387 158.59375 487.15625 C 158.40052 484.24148 157.46758 481.46931 155.90625 479.0625 C 158.48774 470.15547 153.43189 460.81199 144.53125 458.125 C 144.09125 457.99217 143.65883 457.87619 143.21875 457.78125 C 143.25708 457.66351 143.30779 457.55663 143.34375 457.4375 C 146.04921 448.47567 140.99308 439.01796 132.03125 436.3125 C 130.35091 435.80523 128.63621 435.54856 126.96875 435.5625 z M 84.90625 437.03125 C 77.680588 437.09166 71.010685 441.81226 68.8125 449.09375 L 68.78125 449.1875 C 66.138356 458.12819 71.230952 467.52432 80.15625 470.21875 C 89.118084 472.92421 98.575791 467.83683 101.28125 458.875 C 103.98671 449.91317 98.899334 440.45546 89.9375 437.75 C 88.257156 437.24273 86.573711 437.01731 84.90625 437.03125 z M -131 443.15625 C -138.22566 443.21666 -144.89556 447.90601 -147.09375 455.1875 L -147.125 455.28125 C -148.70655 460.63152 -147.49189 466.13838 -144.375 470.28125 C -144.58933 470.79918 -144.80337 471.32719 -144.96875 471.875 L -145 471.96875 C -147.64289 480.90944 -142.5503 490.30557 -133.625 493 C -124.66317 495.70546 -115.20546 490.61808 -112.5 481.65625 C -110.8784 476.2847 -112.05359 470.72959 -115.1875 466.5625 C -114.97815 466.0537 -114.78731 465.53764 -114.625 465 C -111.91954 456.03817 -117.00692 446.58046 -125.96875 443.875 C -127.64909 443.36773 -129.33254 443.14231 -131 443.15625 z M 725 447.90625 C 717.77434 447.96666 711.13569 452.68726 708.9375 459.96875 L 708.90625 460.0625 C 706.26336 469.00319 711.3247 478.39932 720.25 481.09375 C 729.21183 483.79921 738.66954 478.71183 741.375 469.75 C 744.08046 460.78817 739.02433 451.33046 730.0625 448.625 C 728.38216 448.11773 726.66746 447.89231 725 447.90625 z M 439.5 460.84375 C 432.27434 460.90416 425.60444 465.59351 423.40625 472.875 L 423.375 472.96875 C 420.73211 481.90944 425.8247 491.30557 434.75 494 C 443.71183 496.70546 453.16954 491.64933 455.875 482.6875 C 458.58046 473.72567 453.49308 464.26796 444.53125 461.5625 C 442.85091 461.05523 441.16746 460.82981 439.5 460.84375 z M 222.65625 466.40625 C 215.43059 466.46666 208.76069 471.18726 206.5625 478.46875 L 206.5625 478.5625 C 204.8881 484.22685 206.31003 490.07131 209.84375 494.28125 C 209.75016 501.64604 214.47839 508.48581 221.875 510.71875 C 229.17967 512.92393 236.80504 509.96121 240.84375 503.9375 C 241.72979 510.28478 246.18519 515.84011 252.71875 517.8125 C 254.07155 518.22089 255.43079 518.43327 256.78125 518.5 C 255.83194 524.43299 258.11497 530.30363 262.53125 534.0625 C 261.07715 534.83727 259.74039 535.83169 258.5625 537 C 257.25433 531.24857 253.019 526.32649 246.96875 524.5 C 238.00692 521.79454 228.54921 526.88192 225.84375 535.84375 L 225.8125 535.9375 C 223.16961 544.87819 228.23095 554.27432 237.15625 556.96875 C 243.30242 558.8242 249.69399 557.01912 253.96875 552.8125 C 255.28206 558.5519 259.55709 563.42761 265.59375 565.25 C 274.55558 567.95546 284.01329 562.86808 286.71875 553.90625 C 288.72472 547.26148 286.45621 540.36055 281.5 536.125 C 285.34022 534.07782 288.39294 530.55777 289.75 526.0625 C 290.23497 524.45603 290.46202 522.84659 290.46875 521.25 C 293.58578 519.14377 296.01553 515.97591 297.1875 512.09375 C 297.25026 511.88586 297.28931 511.67708 297.34375 511.46875 C 298.14029 511.85557 298.96866 512.20457 299.84375 512.46875 C 299.88533 512.4813 299.92715 512.48778 299.96875 512.5 C 299.7746 519.30657 303.69475 525.68288 310.0625 528.46875 C 307.84736 537.20976 312.88526 546.21477 321.59375 548.84375 C 330.55558 551.54921 340.01329 546.49308 342.71875 537.53125 C 344.22287 532.54886 343.29297 527.44302 340.65625 523.40625 C 342.57241 523.23642 344.43056 522.75101 346.15625 521.96875 C 346.01298 526.87195 348.01565 531.55866 351.53125 534.84375 C 350.92676 535.91564 350.40182 537.05375 350.03125 538.28125 L 350 538.375 C 349.29488 540.76037 349.15 543.18572 349.46875 545.5 C 348.83579 546.6016 348.28919 547.79401 347.90625 549.0625 L 347.90625 549.15625 C 345.26336 558.09694 350.3247 567.49307 359.25 570.1875 C 359.91312 570.38769 360.58439 570.5084 361.25 570.625 C 359.23709 572.56981 357.67799 575.03931 356.8125 577.90625 L 356.78125 578 C 355.85791 581.12359 355.92315 584.28909 356.71875 587.21875 C 356.27826 587.0437 355.83741 586.88959 355.375 586.75 C 353.69466 586.24273 351.97996 586.01731 350.3125 586.03125 C 343.08684 586.09166 336.44819 590.81226 334.25 598.09375 L 334.21875 598.1875 C 331.57586 607.12819 336.6372 616.52432 345.5625 619.21875 C 346.89028 619.61959 348.23651 619.83421 349.5625 619.90625 C 351.65784 623.40304 355.01314 626.16788 359.21875 627.4375 C 368.18058 630.14296 377.63829 625.08683 380.34375 616.125 C 382.18313 610.03207 380.41466 603.71106 376.28125 599.4375 C 382.24848 598.26989 387.4017 593.91351 389.28125 587.6875 C 391.98671 578.72567 386.89933 569.26796 377.9375 566.5625 C 377.28163 566.3645 376.62443 566.20839 375.96875 566.09375 C 377.96571 564.1544 379.51347 561.69756 380.375 558.84375 C 381.10683 556.41955 381.23562 553.97835 380.90625 551.625 C 381.54029 550.52277 382.08532 549.36386 382.46875 548.09375 C 384.39591 541.71004 382.36819 535.07971 377.8125 530.8125 C 378.42125 529.73716 378.94038 528.57639 379.3125 527.34375 C 380.12204 524.66216 380.22899 521.95126 379.75 519.375 C 381.85072 522.3361 384.91172 524.65083 388.65625 525.78125 C 390.8335 526.43853 393.0556 526.64255 395.1875 526.4375 C 394.00785 534.60353 398.93265 542.60821 407.0625 545.0625 C 416.02433 547.76796 425.48204 542.68058 428.1875 533.71875 C 428.95794 531.16667 429.08869 528.59018 428.6875 526.125 C 432.08372 524.03075 434.75558 520.74715 436 516.625 C 438.70546 507.66317 433.61808 498.20546 424.65625 495.5 C 422.97591 494.99273 421.29246 494.73606 419.625 494.75 C 415.03511 494.78837 410.66892 496.70763 407.53125 499.96875 C 405.42542 496.89723 402.31134 494.50378 398.46875 493.34375 C 391.95155 491.37629 385.19181 493.549 380.9375 498.3125 C 381.41441 497.39333 381.81475 496.43395 382.125 495.40625 C 384.83046 486.44442 379.74308 476.98671 370.78125 474.28125 C 369.10091 473.77398 367.41746 473.54856 365.75 473.5625 C 358.52434 473.62291 351.85444 478.31226 349.65625 485.59375 L 349.625 485.6875 C 348.92298 488.06237 348.77733 490.47625 349.09375 492.78125 C 347.60695 491.70746 345.91683 490.84105 344.0625 490.28125 C 336.43142 487.97753 328.46902 491.33188 324.59375 497.90625 C 324.02855 497.61735 323.45032 497.35315 322.84375 497.125 C 324.39163 495.36164 325.59011 493.23667 326.3125 490.84375 C 329.01796 481.88192 323.93058 472.42421 314.96875 469.71875 C 313.28841 469.21148 311.60496 468.98606 309.9375 469 C 306.79998 469.02623 303.7636 469.95081 301.15625 471.5625 C 293.56672 471.19201 286.4203 475.9593 284.125 483.5625 L 284.09375 483.65625 C 283.41861 485.94019 283.26607 488.24646 283.53125 490.46875 C 279.47338 489.84392 275.43166 490.70259 272.09375 492.75 C 270.00568 489.3092 266.69155 486.59969 262.53125 485.34375 C 260.85091 484.83648 259.16746 484.61106 257.5 484.625 C 251.90706 484.67176 246.67345 487.53013 243.5625 492.1875 C 243.12437 489.00805 241.79498 486.00038 239.75 483.5625 C 239.83619 476.20432 235.08507 469.35823 227.6875 467.125 C 226.00716 466.61773 224.32371 466.39231 222.65625 466.40625 z M 562.5 479.09375 C 555.27434 479.15416 548.63569 483.84351 546.4375 491.125 L 546.40625 491.21875 C 543.76336 500.15944 548.8247 509.55557 557.75 512.25 C 566.71183 514.95546 576.16954 509.89933 578.875 500.9375 C 581.58046 491.97567 576.52433 482.51796 567.5625 479.8125 C 565.88216 479.30523 564.16746 479.07981 562.5 479.09375 z M 42.09375 486.15625 C 34.868088 486.21666 28.198185 490.93726 26 498.21875 L 25.96875 498.3125 C 23.959774 505.1087 26.414005 512.16466 31.625 516.34375 C 31.285565 517.62482 31.135712 518.91187 31.09375 520.1875 C 30.936619 520.59326 30.784098 521.014 30.65625 521.4375 L 30.625 521.53125 C 27.982106 530.47194 33.043452 539.86807 41.96875 542.5625 C 50.930584 545.26796 60.388291 540.18058 63.09375 531.21875 C 63.527628 529.78153 63.730708 528.33908 63.78125 526.90625 C 63.942915 526.49136 64.08787 526.05854 64.21875 525.625 C 66.281921 518.79075 63.816822 511.69655 58.5625 507.5 C 60.931482 498.69087 55.918334 489.52959 47.125 486.875 C 45.444656 486.36773 43.761211 486.14231 42.09375 486.15625 z M -28.46875 497.71875 C -35.694412 497.77916 -42.333065 502.49976 -44.53125 509.78125 L -44.5625 509.875 C -47.205394 518.81569 -42.144048 528.21182 -33.21875 530.90625 C -24.256916 533.61171 -14.799209 528.55558 -12.09375 519.59375 C -9.3882911 510.63192 -14.444416 501.17421 -23.40625 498.46875 C -25.086594 497.96148 -26.801289 497.70481 -28.46875 497.71875 z M 378.5 501.8125 C 378.03724 502.71384 377.64702 503.65168 377.34375 504.65625 L 377.3125 504.75 C 376.52479 507.41476 376.42685 510.13132 376.90625 512.6875 C 375.1732 510.23474 372.79811 508.20388 369.90625 506.9375 C 373.20384 506.12606 376.21424 504.35315 378.5 501.8125 z M 151.1875 502.3125 C 150.80581 503.77235 150.65018 505.24209 150.65625 506.6875 C 147.80331 506.42095 145.00756 506.9166 142.46875 508 C 142.52128 507.84261 142.57673 507.69115 142.625 507.53125 C 142.86322 506.74216 143.03654 505.94801 143.15625 505.15625 C 146.05525 504.90472 148.81434 503.91608 151.1875 502.3125 z M 355.9375 504.1875 C 356.89837 504.88556 357.94653 505.50241 359.0625 506 C 358.03299 506.25257 357.02186 506.59476 356.0625 507.03125 C 356.08503 506.07686 356.06812 505.1208 355.9375 504.1875 z M 91.5 514.28125 C 84.274338 514.34166 77.604435 519.06226 75.40625 526.34375 L 75.375 526.4375 C 72.732106 535.37819 77.824702 544.77432 86.75 547.46875 C 95.711834 550.17421 105.16954 545.11808 107.875 536.15625 C 110.58046 527.19442 105.49308 517.73671 96.53125 515.03125 C 94.850906 514.52398 93.167461 514.26731 91.5 514.28125 z M 494.875 523.875 C 487.64934 523.93541 480.97944 528.62476 478.78125 535.90625 L 478.75 536 C 478.46855 536.95212 478.29859 537.92119 478.1875 538.875 C 476.10966 536.19966 473.24162 534.11657 469.75 533.0625 C 468.06966 532.55523 466.35496 532.32981 464.6875 532.34375 C 457.46184 532.40416 450.82319 537.09351 448.625 544.375 L 448.59375 544.46875 C 445.95086 553.40944 451.0122 562.80557 459.9375 565.5 C 464.55753 566.89473 469.29694 566.20249 473.1875 564 C 471.85442 565.65245 470.80763 567.59231 470.15625 569.75 L 470.125 569.84375 C 467.87296 577.46222 471.2499 585.39825 477.8125 589.25 C 476.93354 590.58286 476.20401 592.04884 475.71875 593.65625 L 475.6875 593.75 C 473.04461 602.69069 478.1372 612.08682 487.0625 614.78125 C 496.02433 617.48671 505.48204 612.43058 508.1875 603.46875 C 510.49122 595.83767 507.10897 587.87517 500.53125 584 C 501.41857 582.65738 502.13603 581.15095 502.625 579.53125 C 505.33046 570.56942 500.24308 561.11171 491.28125 558.40625 C 486.67381 557.01532 481.94726 557.68283 478.0625 559.875 C 479.37632 558.23498 480.41768 556.32346 481.0625 554.1875 C 481.35994 553.20222 481.54131 552.20638 481.65625 551.21875 C 483.73766 553.89649 486.60142 555.97696 490.09375 557.03125 C 499.05558 559.73671 508.54454 554.68058 511.25 545.71875 C 513.95546 536.75692 508.86808 527.29921 499.90625 524.59375 C 498.22591 524.08648 496.54246 523.86106 494.875 523.875 z M 578.53125 529.4375 C 571.30559 529.49791 564.63569 534.21851 562.4375 541.5 L 562.40625 541.59375 C 559.76336 550.53444 564.85595 559.93057 573.78125 562.625 C 582.74308 565.33046 592.20079 560.24308 594.90625 551.28125 C 597.61171 542.31942 592.52433 532.86171 583.5625 530.15625 C 581.88216 529.64898 580.19871 529.42356 578.53125 529.4375 z M 702.90625 530.375 C 695.68059 530.43541 689.04194 535.15601 686.84375 542.4375 L 686.8125 542.53125 C 684.16961 551.47194 689.23095 560.86807 698.15625 563.5625 C 707.11808 566.26796 716.57579 561.21183 719.28125 552.25 C 721.98671 543.28817 716.93058 533.83046 707.96875 531.125 C 706.28841 530.61773 704.57371 530.36106 702.90625 530.375 z M -145.03125 540.90625 C -152.25691 540.96666 -158.89556 545.68726 -161.09375 552.96875 L -161.125 553.0625 C -163.76789 562.00319 -158.70655 571.39932 -149.78125 574.09375 C -140.81942 576.79921 -131.36171 571.71183 -128.65625 562.75 C -125.95079 553.78817 -131.00692 544.33046 -139.96875 541.625 C -141.64909 541.11773 -143.36379 540.89231 -145.03125 540.90625 z M 776.25 545.0625 C 769.02434 545.12291 762.35444 549.84351 760.15625 557.125 L 760.15625 557.21875 C 757.51336 566.15944 762.5747 575.55557 771.5 578.25 C 780.46183 580.95546 789.91954 575.86808 792.625 566.90625 C 795.33046 557.94442 790.24308 548.48671 781.28125 545.78125 C 779.60091 545.27398 777.91746 545.04856 776.25 545.0625 z M -65.8125 549.03125 C -73.038162 549.09166 -79.708065 553.81226 -81.90625 561.09375 L -81.90625 561.1875 C -84.549144 570.12819 -79.487798 579.52432 -70.5625 582.21875 C -61.600666 584.92421 -52.142959 579.83683 -49.4375 570.875 C -46.732041 561.91317 -51.819416 552.45546 -60.78125 549.75 C -62.461594 549.24273 -64.145039 549.01731 -65.8125 549.03125 z M 431.21875 552 C 423.99309 552.06041 417.32319 556.78101 415.125 564.0625 L 415.09375 564.15625 C 414.64414 565.67724 414.45949 567.20661 414.4375 568.71875 C 409.96855 570.60877 406.35802 574.39025 404.84375 579.40625 L 404.8125 579.5 C 402.16961 588.44069 407.23095 597.83682 416.15625 600.53125 C 425.11808 603.23671 434.57579 598.18058 437.28125 589.21875 C 437.75029 587.66504 437.97744 586.10824 438 584.5625 C 442.46319 582.66201 446.08216 578.85088 447.59375 573.84375 C 450.29921 564.88192 445.21183 555.42421 436.25 552.71875 C 434.56966 552.21148 432.88621 551.98606 431.21875 552 z M 741.96875 563.0625 C 734.74309 563.12291 728.07319 567.84351 725.875 575.125 L 725.84375 575.21875 C 723.20086 584.15944 728.29345 593.55557 737.21875 596.25 C 746.18058 598.95546 755.63829 593.89933 758.34375 584.9375 C 761.04921 575.97567 755.96183 566.51796 747 563.8125 C 745.31966 563.30523 743.63621 563.04856 741.96875 563.0625 z M -9.53125 563.15625 C -16.756912 563.21666 -23.426815 567.93726 -25.625 575.21875 L -25.65625 575.3125 C -25.922266 576.21241 -26.073899 577.1294 -26.1875 578.03125 C -27.223928 577.45687 -28.319124 576.98149 -29.5 576.625 C -31.180344 576.11773 -32.863789 575.89231 -34.53125 575.90625 C -41.756912 575.96666 -48.426815 580.68726 -50.625 587.96875 L -50.65625 588.0625 C -52.099154 592.94372 -51.21579 597.94932 -48.6875 601.9375 C -49.066558 601.91591 -49.437295 601.90311 -49.8125 601.90625 C -57.038162 601.96666 -63.676815 606.68726 -65.875 613.96875 L -65.90625 614.0625 C -68.549144 623.00319 -63.487798 632.39932 -54.5625 635.09375 C -45.600666 637.79921 -36.142959 632.71183 -33.4375 623.75 C -31.956018 618.84259 -32.834912 613.79592 -35.375 609.78125 C -27.728265 610.22503 -20.498374 605.40477 -18.1875 597.75 C -17.905833 596.81698 -17.742762 595.87309 -17.625 594.9375 C -16.584338 595.51521 -15.466911 595.98581 -14.28125 596.34375 C -5.3194157 599.04921 4.1382911 593.99308 6.84375 585.03125 C 9.5492089 576.06942 4.4618343 566.61171 -4.5 563.90625 C -6.1803439 563.39898 -7.8637894 563.14231 -9.53125 563.15625 z M 132.375 568.625 C 125.14934 568.68541 118.51069 573.40601 116.3125 580.6875 L 116.28125 580.78125 C 113.63836 589.72194 118.6997 599.11807 127.625 601.8125 C 131.12135 602.868 134.72051 602.73743 137.9375 601.65625 C 138.08511 601.70521 138.22521 601.76728 138.375 601.8125 C 147.33683 604.51796 156.79454 599.46183 159.5 590.5 C 162.20546 581.53817 157.11808 572.08046 148.15625 569.375 C 146.47591 568.86773 144.79246 568.64231 143.125 568.65625 C 141.31858 568.67135 139.55076 568.96935 137.875 569.53125 C 137.72592 569.48176 137.58881 569.42068 137.4375 569.375 C 135.75716 568.86773 134.04246 568.61106 132.375 568.625 z M 240.84375 569.8125 C 233.61809 569.87291 226.94819 574.59351 224.75 581.875 L 224.71875 581.96875 C 222.07586 590.90944 227.16845 600.30557 236.09375 603 C 245.05558 605.70546 254.51329 600.61808 257.21875 591.65625 C 259.92421 582.69442 254.83683 573.23671 245.875 570.53125 C 244.19466 570.02398 242.51121 569.79856 240.84375 569.8125 z M 186.65625 576.15625 C 179.43059 576.21666 172.79194 580.93726 170.59375 588.21875 L 170.5625 588.3125 C 167.91961 597.25319 172.98095 606.64932 181.90625 609.34375 C 190.86808 612.04921 200.32579 606.99308 203.03125 598.03125 C 205.73671 589.06942 200.68058 579.61171 191.71875 576.90625 C 190.03841 576.39898 188.32371 576.14231 186.65625 576.15625 z M 447.28125 598.5625 C 440.05559 598.62291 433.38569 603.34351 431.1875 610.625 L 431.15625 610.71875 C 430.55467 612.75385 430.37391 614.81291 430.53125 616.8125 C 429.14873 617.87636 427.94744 619.15665 426.9375 620.625 C 419.04112 619.84455 411.44249 624.71005 409.0625 632.59375 L 409.03125 632.6875 C 406.38836 641.62819 411.48095 651.02432 420.40625 653.71875 C 427.63549 655.90116 435.18005 652.99638 439.25 647.09375 C 440.6182 647.22664 441.98787 647.16158 443.3125 646.96875 C 445.00862 651.99856 449.00548 656.16321 454.46875 657.8125 C 463.43058 660.51796 472.88829 655.43058 475.59375 646.46875 C 478.29921 637.50692 473.21183 628.04921 464.25 625.34375 C 463.37864 625.0807 462.49537 624.89864 461.625 624.78125 C 462.48373 623.46292 463.1786 621.98848 463.65625 620.40625 C 466.36171 611.44442 461.27433 601.98671 452.3125 599.28125 C 450.63216 598.77398 448.94871 598.54856 447.28125 598.5625 z M -110.5625 609.5625 C -117.78816 609.62291 -124.45806 614.34351 -126.65625 621.625 L -126.6875 621.71875 C -127.27349 623.7011 -127.44309 625.70709 -127.3125 627.65625 C -127.78535 627.62164 -128.25153 627.62109 -128.71875 627.625 C -135.94441 627.68541 -142.58306 632.40601 -144.78125 639.6875 L -144.8125 639.78125 C -147.45539 648.72194 -142.39405 658.11807 -133.46875 660.8125 C -124.50692 663.51796 -115.04921 658.43058 -112.34375 649.46875 C -111.73117 647.43958 -111.549 645.40213 -111.6875 643.40625 C -103.92819 643.99904 -96.52929 639.19468 -94.1875 631.4375 C -91.482041 622.47567 -96.569416 613.01796 -105.53125 610.3125 C -107.21159 609.80523 -108.89504 609.54856 -110.5625 609.5625 z M 230.3125 617.90625 C 223.08684 617.96666 216.44819 622.68726 214.25 629.96875 L 214.21875 630.0625 C 214.01669 630.74606 213.86358 631.40806 213.75 632.09375 C 212.2879 626.61307 208.14335 621.97901 202.3125 620.21875 C 196.81865 618.56023 191.13439 619.83362 186.9375 623.125 C 185.02337 621.21226 182.61413 619.74259 179.84375 618.90625 C 178.16341 618.39898 176.47996 618.17356 174.8125 618.1875 C 167.58684 618.24791 160.91694 622.96851 158.71875 630.25 L 158.6875 630.34375 C 156.04461 639.28444 161.1372 648.68057 170.0625 651.375 C 175.57135 653.03805 181.26868 651.7535 185.46875 648.4375 C 187.38001 650.34721 189.73365 651.85237 192.5 652.6875 C 201.46183 655.39296 210.91954 650.30558 213.625 641.34375 C 213.8379 640.63853 213.9751 639.92658 214.09375 639.21875 C 214.26533 639.8607 214.47435 640.47869 214.71875 641.09375 C 214.61065 641.39095 214.49879 641.69346 214.40625 642 L 214.375 642.09375 C 211.73211 651.03444 216.79345 660.43057 225.71875 663.125 C 227.07155 663.53339 228.43079 663.74456 229.78125 663.8125 C 229.28057 664.76185 228.85305 665.77778 228.53125 666.84375 L 228.5 666.9375 C 225.85711 675.87819 230.91845 685.27432 239.84375 687.96875 C 241.52409 688.47602 243.23879 688.70144 244.90625 688.6875 C 243.52545 690.36811 242.44879 692.35129 241.78125 694.5625 L 241.75 694.65625 C 239.10711 703.59694 244.16845 712.99307 253.09375 715.6875 C 262.05558 718.39296 271.51329 713.30558 274.21875 704.34375 C 274.30623 704.05397 274.36615 703.75932 274.4375 703.46875 C 275.6188 704.17957 276.90091 704.77079 278.28125 705.1875 C 287.24308 707.89296 296.70079 702.83683 299.40625 693.875 C 302.11171 684.91317 297.05558 675.45546 288.09375 672.75 C 286.41341 672.24273 284.69871 671.98606 283.03125 672 C 275.80559 672.06041 269.16694 676.78101 266.96875 684.0625 L 266.9375 684.15625 C 266.86104 684.41491 266.81366 684.67825 266.75 684.9375 C 265.56447 684.22287 264.29224 683.63716 262.90625 683.21875 C 261.20484 682.70512 259.50006 682.47869 257.8125 682.5 C 259.19868 680.8179 260.29942 678.84215 260.96875 676.625 C 263.67421 667.66317 258.61808 658.20546 249.65625 655.5 C 248.30775 655.09291 246.94003 654.88066 245.59375 654.8125 C 246.09356 653.8646 246.52236 652.8771 246.84375 651.8125 C 247.99252 648.00722 247.72978 644.11671 246.375 640.6875 C 246.48925 640.37585 246.59033 640.07186 246.6875 639.75 C 249.39296 630.78817 244.33683 621.33046 235.375 618.625 C 233.69466 618.11773 231.97996 617.89231 230.3125 617.90625 z M 293.71875 621.03125 C 288.33688 621.07625 283.26329 623.7143 280.125 628.0625 C 278.5465 626.85226 276.73559 625.89011 274.71875 625.28125 C 265.75692 622.57579 256.29921 627.66317 253.59375 636.625 L 253.5625 636.71875 C 250.91961 645.65944 255.98095 655.05557 264.90625 657.75 C 272.01637 659.89645 279.41639 657.10932 283.53125 651.40625 C 285.11767 652.63043 286.9362 653.60515 288.96875 654.21875 C 297.93058 656.92421 307.38829 651.83683 310.09375 642.875 C 312.79921 633.91317 307.74308 624.45546 298.78125 621.75 C 297.10091 621.24273 295.38621 621.01731 293.71875 621.03125 z M 803.125 621.28125 C 795.89934 621.34166 789.22944 626.06226 787.03125 633.34375 L 787.03125 633.4375 C 784.38836 642.37819 789.4497 651.77432 798.375 654.46875 C 807.33683 657.17421 816.79454 652.11808 819.5 643.15625 C 822.20546 634.19442 817.11808 624.73671 808.15625 622.03125 C 806.47591 621.52398 804.79246 621.26731 803.125 621.28125 z M 92.5625 621.84375 C 85.515607 621.90267 79.013506 626.36872 76.65625 633.34375 C 71.098591 634.76741 66.404037 638.95069 64.625 644.84375 L 64.59375 644.9375 C 61.950856 653.87819 67.012202 663.27432 75.9375 665.96875 C 84.715836 668.61881 93.957043 663.8082 96.875 655.1875 C 102.43859 653.77195 107.15698 649.58548 108.9375 643.6875 C 111.64296 634.72567 106.55558 625.26796 97.59375 622.5625 C 95.913406 622.05523 94.229961 621.82981 92.5625 621.84375 z M 0.25 622.25 C -6.9756624 622.31041 -13.645565 626.99976 -15.84375 634.28125 L -15.875 634.375 C -18.517894 643.31569 -13.425298 652.71182 -4.5 655.40625 C 4.4618343 658.11171 13.919541 653.05558 16.625 644.09375 C 19.330459 635.13192 14.243084 625.67421 5.28125 622.96875 C 3.6009061 622.46148 1.9174606 622.23606 0.25 622.25 z M 136.28125 626.03125 C 129.05559 626.09166 122.38569 630.81226 120.1875 638.09375 L 120.15625 638.1875 C 117.80961 646.12599 121.54124 654.41582 128.65625 658.0625 C 126.77119 659.96739 125.29765 662.34804 124.46875 665.09375 L 124.4375 665.1875 C 122.17441 672.84335 125.5637 680.82624 132.1875 684.65625 C 131.03528 689.46902 132.06049 694.35415 134.6875 698.1875 C 133.18443 696.67326 131.39826 695.40652 129.34375 694.53125 C 130.64461 686.29313 125.73561 678.13304 117.53125 675.65625 C 115.85091 675.14898 114.16746 674.92356 112.5 674.9375 C 105.27434 674.99791 98.604435 679.71851 96.40625 687 L 96.375 687.09375 C 93.91093 695.42949 98.151255 704.14164 105.96875 707.46875 C 104.66481 715.71037 109.57851 723.8362 117.78125 726.3125 C 126.74308 729.01796 136.20079 723.96183 138.90625 715 C 140.44742 709.89488 139.44365 704.64478 136.65625 700.5625 C 138.5752 702.49509 140.96084 703.97049 143.75 704.8125 C 152.71183 707.51796 162.20079 702.46183 164.90625 693.5 C 165.54745 691.37602 165.74325 689.20824 165.5625 687.125 C 166.26072 685.95516 166.83858 684.70657 167.25 683.34375 C 169.95546 674.38192 164.86808 664.92421 155.90625 662.21875 C 155.84506 662.20028 155.77998 662.20525 155.71875 662.1875 C 154.13568 659.12756 151.62664 656.54801 148.4375 654.90625 C 150.32801 653.00181 151.82664 650.62308 152.65625 647.875 C 155.36171 638.91317 150.27433 629.45546 141.3125 626.75 C 139.63216 626.24273 137.94871 626.01731 136.28125 626.03125 z M 654.8125 640.78125 C 647.58684 640.84166 640.91694 645.56226 638.71875 652.84375 L 638.6875 652.9375 C 636.04461 661.87819 641.1372 671.27432 650.0625 673.96875 C 654.90767 675.43144 659.88536 674.59874 663.875 672.125 C 663.63914 672.68247 663.4289 673.28239 663.25 673.875 L 663.21875 673.96875 C 660.57586 682.90944 665.66845 692.30557 674.59375 695 C 683.55558 697.70546 693.01329 692.61808 695.71875 683.65625 C 698.42421 674.69442 693.33683 665.23671 684.375 662.53125 C 679.52067 661.06579 674.52477 661.8945 670.53125 664.375 C 670.77389 663.80531 671.00444 663.23138 671.1875 662.625 C 673.89296 653.66317 668.80558 644.20546 659.84375 641.5 C 658.16341 640.99273 656.47996 640.76731 654.8125 640.78125 z M 320.96875 645.875 C 313.74309 645.93541 307.10444 650.65601 304.90625 657.9375 L 304.875 658.03125 C 302.23211 666.97194 307.29345 676.36807 316.21875 679.0625 C 325.18058 681.76796 334.63829 676.71183 337.34375 667.75 C 340.04921 658.78817 334.99308 649.33046 326.03125 646.625 C 324.35091 646.11773 322.63621 645.86106 320.96875 645.875 z M 42.78125 648.59375 C 35.555588 648.65416 28.885685 653.37476 26.6875 660.65625 L 26.65625 660.75 C 24.013356 669.69069 29.105952 679.08682 38.03125 681.78125 C 46.993084 684.48671 56.450791 679.43058 59.15625 670.46875 C 61.861709 661.50692 56.774334 652.04921 47.8125 649.34375 C 46.132156 648.83648 44.448711 648.57981 42.78125 648.59375 z M 356.6875 657.28125 C 349.46184 657.34166 342.79194 662.06226 340.59375 669.34375 L 340.59375 669.4375 C 337.95086 678.37819 343.0122 687.77432 351.9375 690.46875 C 354.79226 691.33057 357.68507 691.40338 360.40625 690.8125 C 362.23112 695.5292 366.10942 699.39801 371.3125 700.96875 C 373.08765 701.50465 374.86727 701.73266 376.625 701.6875 C 378.38071 703.21662 380.47104 704.40871 382.84375 705.125 C 391.80558 707.83046 401.26329 702.77433 403.96875 693.8125 C 406.67421 684.85067 401.58683 675.39296 392.625 672.6875 C 390.84985 672.1516 389.07027 671.89332 387.3125 671.9375 C 385.55728 670.4124 383.46292 669.21522 381.09375 668.5 C 379.41341 667.99273 377.72996 667.76731 376.0625 667.78125 C 374.90489 667.79093 373.76923 667.94858 372.65625 668.1875 C 370.84597 663.45676 366.97438 659.57717 361.75 658 C 360.06966 657.49273 358.35496 657.26731 356.6875 657.28125 z M 486.8125 672.4375 C 479.58684 672.49791 472.94819 677.21851 470.75 684.5 L 470.71875 684.59375 C 468.07586 693.53444 473.1372 702.93057 482.0625 705.625 C 491.02433 708.33046 500.48204 703.27433 503.1875 694.3125 C 505.89296 685.35067 500.83683 675.86171 491.875 673.15625 C 490.19466 672.64898 488.47996 672.42356 486.8125 672.4375 z M 569.96875 673.1875 C 562.74309 673.24791 556.10444 677.96851 553.90625 685.25 L 553.875 685.34375 C 551.23211 694.28444 556.29345 703.68057 565.21875 706.375 C 574.18058 709.08046 583.63829 704.02433 586.34375 695.0625 C 589.04921 686.10067 583.99308 676.64296 575.03125 673.9375 C 573.35091 673.43023 571.63621 673.17356 569.96875 673.1875 z M 218.125 699.75 C 210.89934 699.81041 204.26069 704.53101 202.0625 711.8125 L 202.03125 711.90625 C 199.38836 720.84694 204.4497 730.24307 213.375 732.9375 C 222.33683 735.64296 231.79454 730.55558 234.5 721.59375 C 237.20546 712.63192 232.14933 703.17421 223.1875 700.46875 C 221.50716 699.96148 219.79246 699.73606 218.125 699.75 z M -96.96875 711.25 C -104.19441 711.31041 -110.83306 716.03101 -113.03125 723.3125 L -113.0625 723.40625 C -115.70539 732.34694 -110.64405 741.74307 -101.71875 744.4375 C -92.756916 747.14296 -83.299209 742.05558 -80.59375 733.09375 C -77.888291 724.13192 -82.944416 714.67421 -91.90625 711.96875 C -93.586594 711.46148 -95.301289 711.23606 -96.96875 711.25 z M -39.15625 712.78125 C -43.869771 712.82066 -48.319346 714.86055 -51.46875 718.28125 C -57.084767 719.66724 -61.863769 723.8749 -63.65625 729.8125 L -63.6875 729.90625 C -66.330394 738.84694 -61.237798 748.24307 -52.3125 750.9375 C -45.882829 752.87853 -39.200949 750.81282 -34.9375 746.1875 C -29.332337 744.79124 -24.571907 740.55655 -22.78125 734.625 C -20.075791 725.66317 -25.163166 716.20546 -34.125 713.5 C -35.805344 712.99273 -37.488789 712.76731 -39.15625 712.78125 z M -2.53125 713.15625 C -9.7569124 713.21666 -16.426815 717.90601 -18.625 725.1875 L -18.65625 725.28125 C -21.299144 734.22194 -16.206548 743.61807 -7.28125 746.3125 C 1.6805843 749.01796 11.138291 743.96183 13.84375 735 C 16.549209 726.03817 11.461834 716.58046 2.5 713.875 C 0.81965608 713.36773 -0.86378944 713.14231 -2.53125 713.15625 z M 340.46875 714.40625 C 336.87397 714.4363 333.42778 715.6421 330.59375 717.71875 C 324.82162 717.87501 319.44543 721.01467 316.46875 726.03125 C 314.52114 721.73189 310.81099 718.25249 305.9375 716.78125 C 299.88348 714.95362 293.61607 716.67773 289.34375 720.75 C 289.0519 720.64425 288.76955 720.52831 288.46875 720.4375 C 286.78841 719.93023 285.07371 719.70481 283.40625 719.71875 C 276.18059 719.77916 269.54194 724.49976 267.34375 731.78125 L 267.3125 731.875 C 266.01978 736.24816 266.58692 740.71522 268.53125 744.46875 C 267.30979 743.71704 265.96901 743.09029 264.53125 742.65625 C 255.56942 739.95079 246.11171 745.00692 243.40625 753.96875 L 243.375 754.0625 C 240.73211 763.00319 245.8247 772.39932 254.75 775.09375 C 263.71183 777.79921 273.16954 772.74308 275.875 763.78125 C 277.20155 759.38706 276.67352 754.87207 274.71875 751.09375 C 275.92978 751.83507 277.2332 752.47665 278.65625 752.90625 C 284.71185 754.73436 291.00901 753.01667 295.28125 748.9375 C 295.572 749.04277 295.85668 749.15956 296.15625 749.25 C 302.17371 751.06659 308.3857 749.36316 312.65625 745.34375 C 312.37413 745.98413 312.11393 746.62457 311.90625 747.3125 L 311.875 747.40625 C 309.23211 756.34694 314.29345 765.74307 323.21875 768.4375 C 332.18058 771.14296 341.63829 766.05558 344.34375 757.09375 C 345.28512 753.97546 345.24832 750.80711 344.46875 747.875 C 350.17883 746.54136 355.0274 742.29792 356.84375 736.28125 C 359.54921 727.31942 354.49308 717.86171 345.53125 715.15625 C 343.85091 714.64898 342.13621 714.39231 340.46875 714.40625 z M 443.375 719.8125 C 436.14934 719.87291 429.51069 724.56226 427.3125 731.84375 L 427.28125 731.9375 C 424.63836 740.87819 429.6997 750.27432 438.625 752.96875 C 447.58683 755.67421 457.04454 750.61808 459.75 741.65625 C 462.45546 732.69442 457.39933 723.23671 448.4375 720.53125 C 446.75716 720.02398 445.04246 719.79856 443.375 719.8125 z M 102.25 724.8125 C 97.854255 724.84925 93.687409 726.58931 90.59375 729.59375 C 90.508039 729.56641 90.430189 729.52609 90.34375 729.5 C 81.769153 726.91144 72.758919 731.44274 69.625 739.6875 C 65.953602 741.75927 63.033283 745.17686 61.71875 749.53125 L 61.6875 749.625 C 59.044606 758.56569 64.137202 767.96182 73.0625 770.65625 C 81.637097 773.24481 90.647291 768.71475 93.78125 760.46875 C 95.035301 759.75896 96.207945 758.887 97.25 757.875 C 97.335364 757.90223 97.413914 757.94276 97.5 757.96875 C 106.46183 760.67421 115.91954 755.61808 118.625 746.65625 C 121.33046 737.69442 116.27433 728.23671 107.3125 725.53125 C 105.63216 725.02398 103.91746 724.79856 102.25 724.8125 z M 634.6875 728.40625 C 627.46184 728.46666 620.79194 733.18726 618.59375 740.46875 L 618.5625 740.53125 C 612.17581 741.38746 606.54614 745.83543 604.5625 752.40625 L 604.53125 752.5 C 601.88836 761.44069 606.98095 770.83682 615.90625 773.53125 C 624.86808 776.23671 634.32579 771.18058 637.03125 762.21875 C 637.03788 762.19678 637.05596 762.17822 637.0625 762.15625 C 643.44904 761.30453 649.07885 756.85207 651.0625 750.28125 C 653.76796 741.31942 648.68058 731.86171 639.71875 729.15625 C 638.03841 728.64898 636.35496 728.39231 634.6875 728.40625 z M 140.21875 757.96875 C 132.99309 758.02916 126.35444 762.74976 124.15625 770.03125 L 124.125 770.125 C 123.78219 771.2847 123.59195 772.46559 123.5 773.625 C 121.46854 771.26514 118.79554 769.40408 115.59375 768.4375 C 106.63192 765.73204 97.174209 770.81942 94.46875 779.78125 L 94.4375 779.875 C 91.794606 788.81569 96.855952 798.21182 105.78125 800.90625 C 114.74308 803.61171 124.20079 798.52433 126.90625 789.5625 C 127.26036 788.3895 127.46615 787.205 127.5625 786.03125 C 129.58922 788.37592 132.28228 790.1943 135.46875 791.15625 C 144.43058 793.86171 153.88829 788.77433 156.59375 779.8125 C 159.29921 770.85067 154.24308 761.39296 145.28125 758.6875 C 143.60091 758.18023 141.88621 757.95481 140.21875 757.96875 z M 419.34375 764.34375 C 412.11809 764.40416 405.44819 769.12476 403.25 776.40625 L 403.21875 776.5 C 400.57586 785.44069 405.66845 794.83682 414.59375 797.53125 C 420.57307 799.33633 426.73178 797.65203 431 793.6875 C 432.93652 795.66622 435.38382 797.20667 438.21875 798.0625 C 447.18058 800.76796 456.63829 795.68058 459.34375 786.71875 C 462.04921 777.75692 456.96183 768.29921 448 765.59375 C 446.31966 765.08648 444.63621 764.86106 442.96875 764.875 C 438.70107 764.91068 434.63561 766.58301 431.5625 769.4375 C 429.63279 767.47112 427.19862 765.94616 424.375 765.09375 C 422.69466 764.58648 421.01121 764.32981 419.34375 764.34375 z M 206.8125 769.5625 C 201.48452 769.60704 196.49345 772.20028 193.34375 776.46875 C 192.25657 777.33081 191.29586 778.352 190.4375 779.46875 C 189.19572 779.38329 187.98405 779.4428 186.78125 779.625 C 186.70433 779.60038 186.64027 779.55473 186.5625 779.53125 C 177.60067 776.82579 168.14296 781.88192 165.4375 790.84375 L 165.40625 790.9375 C 162.76336 799.87819 167.8247 809.27432 176.75 811.96875 C 179.22476 812.71585 181.72847 812.85793 184.125 812.5 C 184.21966 812.53037 184.3107 812.5649 184.40625 812.59375 C 191.36308 814.69393 198.58595 812.0796 202.75 806.625 C 208.53956 807.00767 214.10516 804.39295 217.5 799.78125 C 220.11618 797.70771 222.14962 794.87547 223.1875 791.4375 C 225.89296 782.47567 220.83683 773.01796 211.875 770.3125 C 210.19466 769.80523 208.47996 769.54856 206.8125 769.5625 z M 385.90625 778.6875 C 378.68059 778.74791 372.04194 783.43726 369.84375 790.71875 L 369.8125 790.8125 C 368.61315 794.86982 369.01006 799.01772 370.625 802.59375 C 369.20231 801.60666 367.62221 800.80871 365.875 800.28125 C 356.91317 797.57579 347.45546 802.66317 344.75 811.625 L 344.71875 811.71875 C 342.07586 820.65944 347.16845 830.05557 356.09375 832.75 C 365.05558 835.45546 374.51329 830.36808 377.21875 821.40625 C 378.45006 817.32752 378.03038 813.16347 376.40625 809.5625 C 377.82134 810.5406 379.42073 811.31982 381.15625 811.84375 C 390.11808 814.54921 399.57579 809.49308 402.28125 800.53125 C 404.98671 791.56942 399.93058 782.11171 390.96875 779.40625 C 389.28841 778.89898 387.57371 778.67356 385.90625 778.6875 z M 307.25 790.0625 C 302.05185 790.10596 297.1609 792.57281 294 796.65625 C 288.19929 797.9254 283.24582 802.1877 281.40625 808.28125 L 281.375 808.375 C 278.73211 817.31569 283.79345 826.71182 292.71875 829.40625 C 299.6345 831.49402 306.82449 828.94689 311 823.5625 C 316.8057 822.28848 321.78519 818.00063 323.625 811.90625 C 326.33046 802.94442 321.27433 793.48671 312.3125 790.78125 C 310.63216 790.27398 308.91746 790.04856 307.25 790.0625 z M 549.28125 791.09375 C 542.05559 791.15416 535.38569 795.87476 533.1875 803.15625 L 533.15625 803.25 C 530.9221 810.80797 534.22361 818.67717 540.6875 822.5625 C 534.06939 823.22372 528.16682 827.76774 526.125 834.53125 L 526.09375 834.625 C 523.45086 843.56569 528.54345 852.96182 537.46875 855.65625 C 546.43058 858.36171 555.88829 853.27433 558.59375 844.3125 C 560.8808 836.73666 557.6051 828.81239 551.125 824.90625 C 557.73038 824.22961 563.61761 819.69048 565.65625 812.9375 C 568.36171 803.97567 563.27433 794.51796 554.3125 791.8125 C 552.63216 791.30523 550.94871 791.07981 549.28125 791.09375 z M 133.0625 809.34375 C 125.83684 809.40416 119.16694 814.12476 116.96875 821.40625 L 116.9375 821.5 C 114.29461 830.44069 119.3872 839.83682 128.3125 842.53125 C 137.27433 845.23671 146.73204 840.14933 149.4375 831.1875 C 152.14296 822.22567 147.05558 812.76796 138.09375 810.0625 C 136.41341 809.55523 134.72996 809.32981 133.0625 809.34375 z M 247.78125 825.4375 C 240.55559 825.49791 233.88569 830.21851 231.6875 837.5 L 231.65625 837.59375 C 229.01336 846.53444 234.10595 855.93057 243.03125 858.625 C 251.99308 861.33046 261.45079 856.27433 264.15625 847.3125 C 266.86171 838.35067 261.77433 828.89296 252.8125 826.1875 C 251.13216 825.68023 249.44871 825.42356 247.78125 825.4375 z M 165.21875 832.625 C 157.99309 832.68541 151.32319 837.40601 149.125 844.6875 L 149.125 844.78125 C 146.48211 853.72194 151.54345 863.11807 160.46875 865.8125 C 169.43058 868.51796 178.88829 863.43058 181.59375 854.46875 C 184.29921 845.50692 179.24308 836.04921 170.28125 833.34375 C 168.60091 832.83648 166.88621 832.61106 165.21875 832.625 z M 508.28125 845.0625 C 504.80151 845.09159 501.46876 846.20176 498.6875 848.15625 C 498.68065 848.16106 498.66309 848.15143 498.65625 848.15625 C 491.43059 848.21666 484.76069 852.93726 482.5625 860.21875 L 482.53125 860.3125 C 479.88836 869.25319 484.9497 878.64932 493.875 881.34375 C 499.06197 882.90963 504.41738 881.85539 508.53125 878.96875 C 508.54171 878.96868 508.55205 878.96884 508.5625 878.96875 C 515.78816 878.90834 522.45806 874.18774 524.65625 866.90625 C 527.36171 857.94442 522.27433 848.48671 513.3125 845.78125 C 511.63216 845.27398 509.94871 845.04856 508.28125 845.0625 z M 642.75 849.21875 C 635.52434 849.27916 628.85444 853.99976 626.65625 861.28125 L 626.625 861.375 C 623.98211 870.31569 629.0747 879.71182 638 882.40625 C 646.96183 885.11171 656.41954 880.02433 659.125 871.0625 C 661.83046 862.10067 656.74308 852.64296 647.78125 849.9375 C 646.10091 849.43023 644.41746 849.20481 642.75 849.21875 z M 314.8125 850.46875 C 307.58684 850.52916 300.91694 855.21851 298.71875 862.5 L 298.6875 862.59375 C 297.76589 865.71147 297.80257 868.88742 298.59375 871.8125 C 298.31229 872.44839 298.04983 873.09861 297.84375 873.78125 L 297.8125 873.875 C 295.16961 882.81569 300.2622 892.21182 309.1875 894.90625 C 318.14933 897.61171 327.60704 892.55558 330.3125 883.59375 C 331.26393 880.44215 331.24316 877.24027 330.4375 874.28125 C 330.71949 873.64421 330.98098 872.9966 331.1875 872.3125 C 333.89296 863.35067 328.80558 853.89296 319.84375 851.1875 C 318.16341 850.68023 316.47996 850.45481 314.8125 850.46875 z M 368.90625 858.5625 C 361.68059 858.62291 355.01069 863.34351 352.8125 870.625 L 352.78125 870.71875 C 350.13836 879.65944 355.1997 889.05557 364.125 891.75 C 373.08683 894.45546 382.54454 889.36808 385.25 880.40625 C 387.95546 871.44442 382.89933 861.98671 373.9375 859.28125 C 372.25716 858.77398 370.57371 858.54856 368.90625 858.5625 z M 48.28125 861.3125 C 41.055588 861.37291 34.416935 866.06226 32.21875 873.34375 L 32.1875 873.4375 C 29.544606 882.37819 34.605952 891.77432 43.53125 894.46875 C 52.493084 897.17421 61.950791 892.11808 64.65625 883.15625 C 67.361709 874.19442 62.305584 864.73671 53.34375 862.03125 C 51.663406 861.52398 49.948711 861.29856 48.28125 861.3125 z M 151.84375 865.125 C 144.61809 865.18541 137.97944 869.87476 135.78125 877.15625 L 135.75 877.25 C 135.17972 879.17921 134.98428 881.1315 135.09375 883.03125 C 131.963 885.1394 129.51835 888.29664 128.34375 892.1875 L 128.3125 892.28125 C 125.66961 901.22194 130.7622 910.61807 139.6875 913.3125 C 148.64933 916.01796 158.10704 910.93058 160.8125 901.96875 C 161.406 900.00278 161.58392 898.03092 161.46875 896.09375 C 164.59543 893.9875 167.04425 890.85928 168.21875 886.96875 C 170.92421 878.00692 165.86808 868.54921 156.90625 865.84375 C 155.22591 865.33648 153.51121 865.11106 151.84375 865.125 z M 410.15625 874.34375 C 402.93059 874.40416 396.26069 879.12476 394.0625 886.40625 L 394.03125 886.5 C 391.38836 895.44069 396.4497 904.83682 405.375 907.53125 C 414.33683 910.23671 423.79454 905.18058 426.5 896.21875 C 429.20546 887.25692 424.14933 877.79921 415.1875 875.09375 C 413.50716 874.58648 411.82371 874.32981 410.15625 874.34375 z M 336.09375 899.5 C 328.86809 899.56041 322.19819 904.28101 320 911.5625 L 320 911.65625 C 317.35711 920.59694 322.41845 929.99307 331.34375 932.6875 C 339.95033 935.28571 348.99233 930.71078 352.09375 922.40625 C 353.46572 928.04869 357.69818 932.82634 363.65625 934.625 C 372.61808 937.33046 382.07579 932.24308 384.78125 923.28125 C 387.48671 914.31942 382.43058 904.86171 373.46875 902.15625 C 371.78841 901.64898 370.07371 901.42356 368.40625 901.4375 C 361.5255 901.49503 355.17609 905.7722 352.6875 912.46875 C 351.31367 906.82543 347.08749 902.05 341.125 900.25 C 339.44466 899.74273 337.76121 899.48606 336.09375 899.5 z M 343.59375 961.6875 C 336.36809 961.74791 329.72944 966.46851 327.53125 973.75 L 327.5 973.84375 C 324.85711 982.78444 329.91845 992.18057 338.84375 994.875 C 347.80558 997.58046 357.26329 992.49308 359.96875 983.53125 C 362.67421 974.56942 357.61808 965.11171 348.65625 962.40625 C 346.97591 961.89898 345.26121 961.67356 343.59375 961.6875 z "
     id="path9251" />
</svg>
