<?xml version="1.0" encoding="UTF-8" standalone="no"?>
<!-- Created with Inkscape (http://www.inkscape.org/) -->

<svg
   xmlns:dc="http://purl.org/dc/elements/1.1/"
   xmlns:cc="http://creativecommons.org/ns#"
   xmlns:rdf="http://www.w3.org/1999/02/22-rdf-syntax-ns#"
   xmlns:svg="http://www.w3.org/2000/svg"
   xmlns="http://www.w3.org/2000/svg"
   xmlns:sodipodi="http://sodipodi.sourceforge.net/DTD/sodipodi-0.dtd"
   xmlns:inkscape="http://www.inkscape.org/namespaces/inkscape"
   width="744.09448819"
   height="1052.3622047"
   id="svg3783"
   version="1.1"
   inkscape:version="0.48.2 r9819"
   sodipodi:docname="letter sized frame blank.svg">
  <sodipodi:namedview
     id="base"
     pagecolor="#ffffff"
     bordercolor="#666666"
     borderopacity="1.0"
     inkscape:pageopacity="0.0"
     inkscape:pageshadow="2"
     inkscape:zoom="0.7"
     inkscape:cx="129.31389"
     inkscape:cy="735.07232"
     inkscape:document-units="px"
     inkscape:current-layer="layer1"
     showgrid="false"
     inkscape:window-width="1024"
     inkscape:window-height="748"
     inkscape:window-x="20"
     inkscape:window-y="9"
     inkscape:window-maximized="0" />
  <defs
     id="defs3785">
    <inkscape:perspective
       sodipodi:type="inkscape:persp3d"
       inkscape:vp_x="-314.90439 : 155.3937 : 0"
       inkscape:vp_y="0 : 1000 : 0"
       inkscape:vp_z="372.04724 : 175.3937 : 0"
       inkscape:persp3d-origin="334.90438 : 296.50168 : 1"
       id="perspective3823" />
  </defs>
  <metadata
     id="metadata3788">
    <rdf:RDF>
      <cc:Work
         rdf:about="">
        <dc:format>image/svg+xml</dc:format>
        <dc:type
           rdf:resource="http://purl.org/dc/dcmitype/StillImage" />
        <dc:title></dc:title>
      </cc:Work>
    </rdf:RDF>
  </metadata>
  <g
     inkscape:label="Layer 1"
     inkscape:groupmode="layer"
     id="layer1">
    <rect
       style="fill:none;stroke:#000000;stroke-width:0.91610378;stroke-opacity:1"
       id="rect4319"
       width="516.12524"
       height="779.49591"
       x="7.8454075"
       y="12.284647" />
    <flowRoot
       xml:space="preserve"
       id="flowRoot3475"
       style="fill:black;stroke:none;stroke-opacity:1;stroke-width:1px;stroke-linejoin:miter;stroke-linecap:butt;fill-opacity:1;font-family:Sans;font-style:normal;font-weight:normal;font-size:40px;line-height:125%;letter-spacing:0px;word-spacing:0px"><flowRegion
         id="flowRegion3477"><rect
           id="rect3479"
           width="474.7717"
           height="76.771591"
           x="40.406101"
           y="840.23016" /></flowRegion><flowPara
         id="flowPara3481" /></flowRoot>    <g
       transform="matrix(0.52293945,0,0,0.52293945,748.66408,253.1277)"
       id="g4968">
      <path
         style="fill:none;stroke:#000000;stroke-width:2.74033666;stroke-miterlimit:4;stroke-opacity:1"
         d="M 103.84724,382.59652 263.74957,191.48067 423.65194,382.59658 263.74957,674.1486 z"
         id="path4970"
         inkscape:connector-curvature="0"
         sodipodi:nodetypes="ccccc" />
      <path
         style="fill:none;stroke:#000000;stroke-width:2.74033666px;stroke-linecap:butt;stroke-linejoin:miter;stroke-opacity:1"
         d="M 263.74957,194.93951 162.08595,424.88544 264.47437,672.01129 216.81536,382.59658 z"
         id="path4972"
         inkscape:connector-curvature="0"
         sodipodi:nodetypes="ccccc" />
      <path
         inkscape:connector-curvature="0"
         id="path4974"
         d="M 264.47437,194.93951 368.95582,430.17159 263.74957,674.65434 313.28717,385.23963 z"
         style="fill:none;stroke:#000000;stroke-width:2.74033666px;stroke-linecap:butt;stroke-linejoin:miter;stroke-opacity:1"
         sodipodi:nodetypes="ccccc" />
      <path
         style="fill:none;stroke:#000000;stroke-width:3.11955285px;stroke-linecap:butt;stroke-linejoin:miter;stroke-opacity:1"
         d="M 103.56794,381.62973 262.83445,97.951808 423.85747,381.4127"
         id="path4976"
         inkscape:connector-curvature="0"
         sodipodi:nodetypes="ccc" />
      <path
         style="fill:none;stroke:#000000;stroke-width:1px;stroke-linecap:butt;stroke-linejoin:miter;stroke-opacity:1"
         d="m 252.9438,236.33101 11.42857,15.19434 9.91334,-15.12256"
         id="path4978"
         inkscape:connector-curvature="0"
         sodipodi:nodetypes="ccc" />
    </g>
    <path
       transform="matrix(0.96635829,0,0,0.96635829,0.55989372,67.651257)"
       style="fill:none;stroke:#000000;stroke-width:1;stroke-miterlimit:4;stroke-opacity:1"
       d="M 516.02096,289.57967 C 544.20159,421.51899 411.86668,546.6479 271.42856,546.6479 130.99043,546.6479 55.038453,404.17346 23.551709,272.98384 -7.9350381,141.79421 130.99043,58.076462 271.42856,58.076462 c 140.43812,0 216.41176,99.563888 244.5924,231.503208 z"
       id="path5228"
       inkscape:connector-curvature="0"
       sodipodi:nodetypes="sssss" />
    <path
       style="fill:none;stroke:#000000;stroke-width:0.9663583;stroke-miterlimit:4;stroke-opacity:1"
       d="m 259.75,125.71875 c -90.22812,0.0641 -216.678525,15.17988 -235.575164,103.65395 -14.9481393,67.4949 16.328697,128.97505 27.76324,197.285 11.346882,73.17897 89.396204,149.31976 162.325584,162.68529 74.82823,14.61326 156.32701,-5.76888 213.24149,-56.7225 49.94793,-43.85396 84.85504,-123.41866 69.03244,-188.64614 C 481.05085,276.67633 485.98382,218.06127 426.59089,172.57343 378.29136,135.05749 316.07552,124.72906 259.75,125.71875 z"
       id="path5231"
       inkscape:connector-curvature="0"
       sodipodi:nodetypes="cccccccc" />
    <path
       style="fill:none;stroke:#000000;stroke-width:0.9663583;stroke-miterlimit:4;stroke-opacity:1"
       d="m 259.78125,127.71875 c -92.92279,-0.0948 -220.728644,20.37453 -235.676298,112.54748 -12.064272,69.7083 16.020347,134.1619 33.09286,202.97431 16.899209,72.44802 102.999368,139.6166 176.945098,147.11505 74.97258,8.7249 154.06443,-17.61241 206.14777,-72.76023 46.27126,-47.7689 70.56962,-130.25428 48.50516,-193.587 C 466.87646,258.20508 467.74863,198.37645 403.3716,159.01472 359.59988,131.57453 307.36919,126.87702 259.78125,127.71875 z"
       id="path5239"
       inkscape:connector-curvature="0"
       sodipodi:nodetypes="cccccccc" />
    <path
       style="fill:none;stroke:#000000;stroke-width:0.9663583;stroke-miterlimit:4;stroke-opacity:1"
       d="M 259.8125,129.71875 C 168.79761,129.66168 42.837962,147.11562 26.662088,237.30236 12.514007,311.46372 39.994232,382.61986 62.292575,454.75194 83.31426,527.15261 176.11218,587.27741 251.40316,589.72997 324.984,593.30211 435.76967,568.58392 470.41484,503.44253 502.83636,444.43332 508.0394,370.69371 480.83343,308.68256 454.00675,244.86387 451.69782,184.83421 384.60373,150.75819 345.14681,130.02312 300.82398,129.01241 259.8125,129.71875 z"
       id="path5243"
       inkscape:connector-curvature="0"
       sodipodi:nodetypes="cccccccc" />
    <path
       style="fill:none;stroke:#000000;stroke-width:0.9663583;stroke-miterlimit:4;stroke-opacity:1"
       d="M 259.84375,131.71875 C 169.67742,131.53352 44.604724,148.43834 28.636952,237.65375 13.709853,314.81321 40.505905,391.39933 67.735064,465.15088 92.715761,537.68817 191.94397,590.64218 268.625,587.9375 341.85091,586.4358 446.97939,554.14518 476.52518,486.66823 503.22887,427.75595 503.40669,356.8965 474.17799,298.83482 443.29221,235.41287 438.01219,175.05845 367.67678,144.9852 332.6425,129.45155 295.0857,131.12471 259.84375,131.71875 z"
       id="path5247"
       inkscape:connector-curvature="0"
       sodipodi:nodetypes="cccccccc" />
    <path
       style="fill:none;stroke:#000000;stroke-width:0.9663583;stroke-miterlimit:4;stroke-opacity:1"
       d="M 259.875,133.71875 C 166.66337,133.4706 40.747398,155.71181 28.819375,248.85808 18.20768,325.06002 43.123721,400.90074 72.419823,472.16243 100.49636,545.19821 205.33118,592.60279 283.18405,585.16695 357.01782,579.38564 457.85631,538.63685 481.76118,468.16796 503.34071,407.67356 497.11809,337.44591 463.11773,282.73547 427.83826,223.83462 420.78567,164.95332 350.28747,140.31867 320.26428,129.31758 289.38553,133.23614 259.875,133.71875 z"
       id="path5251"
       inkscape:connector-curvature="0"
       sodipodi:nodetypes="cccccccc" />
    <path
       style="fill:none;stroke:#000000;stroke-width:0.9663583;stroke-miterlimit:4;stroke-opacity:1"
       d="M 259.90625,135.71875 C 170.95053,135.52036 48.621952,150.62054 32.44264,238.37936 17.574483,316.24499 44.005691,396.14021 73.614382,469.72933 101.99402,545.64976 211.38649,593.00724 291.89192,582.29223 365.4264,573.81392 462.70738,528.9662 483.26752,457.08549 502.41199,394.02406 505.90004,333.13838 478.3807,272.91995 451.51477,211.40224 404.56814,157.34797 334.39323,137.31992 c -25.27108,-7.50946 -50.14159,-2.00049 -74.48698,-1.60117 z"
       id="path5255"
       inkscape:connector-curvature="0"
       sodipodi:nodetypes="cccccccc" />
    <path
       style="fill:none;stroke:#000000;stroke-width:0.9663583;stroke-miterlimit:4;stroke-opacity:1"
       d="M 259.9375,137.71875 C 169.84783,137.47131 47.524273,154.90082 33.449111,244.17964 20.658537,322.83079 46.000204,404.1043 78.645455,476.95701 109.24818,550.28413 219.39657,592.115 298.06523,579.49354 372.31601,568.96093 467.26438,519.2997 484.31898,445.69171 500.35704,380.83267 501.98742,318.45823 469.78125,259.71875 438.51593,199.81056 385.67644,148.79083 313.70636,134.31279 c -18.88577,-4.02205 -35.98266,3.13781 -53.76886,3.40596 z"
       id="path5259"
       inkscape:connector-curvature="0"
       sodipodi:nodetypes="cccccccc" />
    <path
       style="fill:none;stroke:#000000;stroke-width:0.9663583;stroke-miterlimit:4;stroke-opacity:1"
       d="M 259.96875,139.71875 C 169.25212,139.32945 46.849668,158.74657 34.717888,249.16976 23.824472,327.65081 48.372984,409.5725 82.689985,481.28227 115.89676,555.4404 230.45842,592.42806 310.08402,575.40971 384.01562,560.91207 473.68432,505.1496 485.5009,430.11942 496.46397,365.90598 496.58353,305.26303 461.875,249.71875 425.51248,188.80952 358.94764,147.89394 288.5993,141.05107 c -9.50043,-1.05019 -19.07442,-1.45007 -28.63055,-1.33232 z"
       id="path5263"
       inkscape:connector-curvature="0"
       sodipodi:nodetypes="cccccccc" />
    <path
       style="fill:none;stroke:#000000;stroke-width:0.9663583;stroke-miterlimit:4;stroke-opacity:1"
       d="m 260,141.71875 c -93.10878,-0.43383 -216.075559,23.45468 -224.35195,116.84491 -7.177231,76.80085 15.887268,158.0351 51.269282,227.05129 35.229098,73.66589 152.397268,106.05223 231.589618,85.91694 74.06743,-17.51125 159.59731,-78.35943 166.8013,-154.71123 6.78057,-63.94394 21.9765,-118.77424 -18.31758,-176.11274 -44.65423,-66.08295 -126.21141,-98.34494 -199.33338,-98.97434 -2.55209,-0.0585 -5.10494,-0.0497 -7.65729,-0.0148 z"
       id="path5267"
       inkscape:connector-curvature="0"
       sodipodi:nodetypes="ccccccccc" />
    <path
       style="fill:none;stroke:#000000;stroke-width:0.9663583;stroke-miterlimit:4;stroke-opacity:1"
       d="m 260.03125,143.71875 c -92.93981,-0.50594 -215.185244,23.73489 -222.529568,116.81033 -6.611408,76.70884 16.300327,159.41896 52.907738,227.60971 37.2662,74.65317 158.00451,102.88443 237.87183,78.76746 72.90762,-20.81688 153.2591,-85.8294 155.93922,-162.20729 3.14624,-64.04426 16.04068,-119.97388 -27.45881,-174.4224 C 409.91496,169.48749 330.6733,142.0026 260.03125,143.71875 z"
       id="path5271"
       inkscape:connector-curvature="0"
       sodipodi:nodetypes="ccccccc" />
    <path
       style="fill:none;stroke:#000000;stroke-width:0.9663583;stroke-miterlimit:4;stroke-opacity:1"
       d="m 260.0625,145.71875 c -91.18595,-0.63706 -212.211667,21.59788 -220.37418,112.8072 -7.671064,78.46801 15.79837,164.22468 54.731622,233.04417 39.920898,75.81161 165.926248,98.864 246.261648,69.26941 68.70354,-24.23894 141.68367,-89.63935 141.77831,-163.21578 0.97298,-66.2382 11.02359,-125.48568 -37.90303,-178.65429 C 397.5305,166.31386 325.04776,144.16993 260.0625,145.71875 z"
       id="path5275"
       inkscape:connector-curvature="0"
       sodipodi:nodetypes="ccccccc" />
    <path
       style="fill:none;stroke:#000000;stroke-width:0.9663583;stroke-miterlimit:4;stroke-opacity:1"
       d="M 260.09375,147.71875 C 170.42412,147.14911 51.134291,166.72999 41.859157,256.59087 33.196221,336.32676 57.148632,424.98083 98.098223,494.16555 139.99961,570.64471 270.99072,589.4597 351.34396,554.56929 418.86443,526.60964 485.27828,456.84586 480.15787,383.28721 476.49384,319.80259 485.64951,262.98332 437.00538,214.04186 390.5166,165.75095 321.73808,146.22953 260.09375,147.71875 z"
       id="path5279"
       inkscape:connector-curvature="0"
       sodipodi:nodetypes="ccccccc" />
    <path
       style="fill:none;stroke:#000000;stroke-width:0.9663583;stroke-miterlimit:4;stroke-opacity:1"
       d="M 260.125,149.71875 C 169.00144,149.06201 49.597994,171.77369 43.246401,263.36821 37.499287,341.30634 60.380821,428.90313 101.34426,495.85225 144.71819,572.35217 277.18141,587.52946 356.8125,550 422.40341,520.58855 484.97239,449.87459 477.74973,377.54535 472.04659,312.22357 478.34474,252.62965 424.97148,205.34417 379.59191,163.80708 316.747,148.35688 260.125,149.71875 z"
       id="path5283"
       inkscape:connector-curvature="0"
       sodipodi:nodetypes="ccccccc" />
    <path
       style="fill:none;stroke:#000000;stroke-width:0.9663583;stroke-miterlimit:4;stroke-opacity:1"
       d="m 260.1875,151.71875 c -91.58761,-0.73637 -210.533987,23.32627 -215.160697,115.39211 -4.34012,77.78071 18.172344,166.37193 60.629697,232.13389 45.22925,75.3568 177.99486,85.87297 256.406,46.099 C 423.47666,515.44761 482.13928,448.17751 475.91727,379.43861 470.68972,310.74422 473.52558,246.55203 415.39991,199.86478 371.32103,163.14094 313.10832,150.47627 260.1875,151.71875 z"
       id="path5287"
       inkscape:connector-curvature="0"
       sodipodi:nodetypes="ccccccc" />
    <path
       style="fill:none;stroke:#000000;stroke-width:0.9663583;stroke-miterlimit:4;stroke-opacity:1"
       d="M 262.6875,153.6875 C 172.43149,151.98411 54.010332,172.54652 47.271764,262.94051 40.974317,343.15961 64.601638,435.7725 110.05931,502.54087 157.41373,577.39292 292.46493,582.72682 369.625,539.1875 427.34209,507.82318 480.66582,442.25561 473.64719,376.4404 467.18678,305.72024 466.83051,238.54556 403.92072,193.58958 362.56848,162.75788 310.2461,153.09359 262.6875,153.6875 z"
       id="path5291"
       inkscape:connector-curvature="0"
       sodipodi:nodetypes="ccccccc" />
    <path
       style="fill:none;stroke:#000000;stroke-width:0.9663583;stroke-miterlimit:4;stroke-opacity:1"
       d="M 254.28125,155.71875 C 166.9889,157.71976 54.301239,178.05556 49.062421,265.93385 44.016084,345.38011 67.300322,438.49786 113.41533,504.0366 161.9864,578.58618 298.75198,580.36552 374.85929,533.92602 429.7091,501.74928 479.24072,437.19959 471.32044,373.32646 463.59755,301.46552 460.40654,232.49268 394.81196,189.77144 352.65517,160.77278 301.36165,153.7775 254.28125,155.71875 z"
       id="path5295"
       inkscape:connector-curvature="0"
       sodipodi:nodetypes="ccccccc" />
    <path
       style="fill:none;stroke:#000000;stroke-width:0.9663583;stroke-miterlimit:4;stroke-opacity:1"
       d="m 260.9375,157.5625 c -85.34036,-0.70896 -199.14549,13.1679 -209.01414,98.38043 -9.748967,81.77402 15.505495,179.46414 63.15981,246.98381 49.82204,76.63735 190.97387,75.6593 267.13197,24.06214 54.41848,-35.29114 98.05774,-104.06982 84.8874,-168.32354 C 454.12706,290.51805 450.39082,224.9064 385.63515,186.33864 347.49217,162.36181 302.45859,157.07837 260.9375,157.5625 z"
       id="path5299"
       inkscape:connector-curvature="0"
       sodipodi:nodetypes="ccccccc" />
    <path
       style="fill:none;stroke:#000000;stroke-width:0.9663583;stroke-miterlimit:4;stroke-opacity:1"
       d="m 255,159.59375 c -83.41285,1.87544 -192.999541,15.82459 -201.415355,99.48994 -8.344268,81.17548 16.664496,179.24313 64.891925,245.34731 50.66951,75.44285 191.48688,71.35513 265.97728,18.66578 55.12439,-37.10645 95.62478,-109.50567 78.38481,-174.48045 C 446.27764,282.39387 441.06923,217.96779 375.47269,182.83786 337.89474,161.37581 294.83926,158.29446 255,159.59375 z"
       id="path5303"
       inkscape:connector-curvature="0"
       sodipodi:nodetypes="ccccccc" />
    <path
       style="fill:none;stroke:#000000;stroke-width:0.9663583;stroke-miterlimit:4;stroke-opacity:1"
       d="m 258.78125,161.5 c -85.60611,0.29474 -197.304853,16.74034 -203.630508,102.54977 -6.051907,79.91275 18.287989,177.53121 66.751718,241.81719 51.8205,74.58029 192.36635,67.13139 265.62569,12.65031 C 442.26983,479.827 479.2595,404.72248 458.34535,339.95684 439.00995,276.52109 433.50848,214.12349 369.08292,181.78423 334.25909,163.1676 295.21078,160.93959 258.78125,161.5 z"
       id="path5307"
       inkscape:connector-curvature="0"
       sodipodi:nodetypes="ccccccc" />
    <path
       style="fill:none;stroke:#000000;stroke-width:0.9663583;stroke-miterlimit:4;stroke-opacity:1"
       d="m 258.8125,163.5 c -86.63383,0.23456 -198.252435,19.10505 -202.001554,106.24593 -3.509217,78.08773 20.129855,174.75513 67.964484,236.73036 51.97513,73.26558 191.34884,63.82278 263.22568,9.26559 55.03392,-39.66664 89.84212,-116.45253 66.56098,-181.08036 C 433.00066,271.63239 425.58953,209.28876 359.58387,179.40024 327.0304,163.78218 291.9959,163.0173 258.8125,163.5 z"
       id="path5311"
       inkscape:connector-curvature="0"
       sodipodi:nodetypes="ccccccc" />
    <path
       style="fill:none;stroke:#000000;stroke-width:0.9663583;stroke-miterlimit:4;stroke-opacity:1"
       d="m 258.84375,165.5 c -88.41166,0.29462 -199.961211,22.47617 -200.207083,111.585 -0.240536,76.00216 22.149059,171.07817 69.569653,230.74649 52.74655,71.81214 228.87757,82.25769 286.26563,13.60505 C 459.9897,469.58309 476.4375,392.08128 449.84116,327.61368 425.8915,266.56276 417.52211,205.28488 351.53218,178.09019 321.18621,164.85203 289.33933,165.04265 258.84375,165.5 z"
       id="path5315"
       inkscape:connector-curvature="0"
       sodipodi:nodetypes="ccccccc" />
    <path
       style="fill:none;stroke:#000000;stroke-width:0.9663583;stroke-miterlimit:4;stroke-opacity:1"
       d="m 258.875,167.5 c -83.03474,0.11046 -191.641205,13.9556 -197.764933,97.26118 -6.104613,79.89918 19.287223,181.26602 69.935423,243.5503 53.2923,71.1312 228.97724,78.2993 284.64745,8.6014 44.37055,-52.65146 58.74262,-130.77146 29.95468,-194.21575 C 437.40942,-24.543117 409.42296,198.81871 342.09632,176.55005 314.48121,165.85224 286.17326,167.08844 258.875,167.5 z"
       id="path5319"
       inkscape:connector-curvature="0"
       sodipodi:nodetypes="ccccccc" />
    <path
       style="fill:none;stroke:#000000;stroke-width:0.9663583;stroke-miterlimit:4;stroke-opacity:1"
       d="m 258.90625,169.5 c -84.05773,-0.004 -192.653481,16.49919 -196.136996,100.96909 -3.345112,78.08669 21.150485,178.10576 71.118506,238.28943 54.20817,70.74539 229.43706,74.2497 283.54796,2.85275 C 459.48626,458.96306 471.76458,382.1763 442.59987,320.69584 415.17388,259.51445 401.29821,196.6942 331.49636,175.06261 306.91386,166.7883 282.73928,169.16333 258.90625,169.5 z"
       id="path5323"
       inkscape:connector-curvature="0"
       sodipodi:nodetypes="ccccccc" />
    <path
       style="fill:none;stroke:#000000;stroke-width:0.9663583;stroke-miterlimit:4;stroke-opacity:1"
       d="m 258.9375,171.5 c -86.4955,0.0495 -195.268286,21.01258 -194.321844,108.13504 0.787195,74.41348 23.51826,171.58141 71.451414,228.68398 55.10906,71.22848 231.11396,71.08216 283.63853,-2.92325 39.53894,-53.12448 49.4001,-128.70934 18.89922,-188.5149 C 409.14485,255.85528 393.08211,193.27653 321.82829,174.29642 300.25977,168.10527 279.6819,171.17928 258.9375,171.5 z"
       id="path5327"
       inkscape:connector-curvature="0"
       sodipodi:nodetypes="ccccccc" />
    <path
       style="fill:none;stroke:#000000;stroke-width:0.9663583;stroke-miterlimit:4;stroke-opacity:1"
       d="m 258.96875,173.5 c -80.9464,0.15709 -185.836953,11.00693 -191.908879,92.08281 -6.013919,78.92179 20.244272,183.11432 71.887609,243.14899 55.43037,70.14708 229.98591,67.39551 280.96138,-7.02229 34.55722,-48.08121 44.96417,-113.93203 23.25975,-169.82312 -23.37373,-60.5801 -33.84,-121.84342 -99.30491,-147.96091 C 315.71038,172.91127 286.83036,173.04353 258.96875,173.5 z"
       id="path5331"
       inkscape:connector-curvature="0"
       sodipodi:nodetypes="ccccccc" />
    <path
       style="fill:none;stroke:#000000;stroke-width:0.9663583;stroke-miterlimit:4;stroke-opacity:1"
       d="m 259,175.5 c -83.63652,0.12647 -189.186061,16.26795 -190.389416,100.41275 -0.910058,76.30027 23.445193,177.76152 74.493926,234.8005 54.71836,66.0163 222.23626,63.21458 272.75846,-6.70162 37.87972,-50.39727 48.39171,-121.57295 21.97209,-179.7417 C 409.70095,261.06906 391.14177,196.01296 318.03858,177.71976 297.5983,172.18499 278.5291,175.20145 259,175.5 z"
       id="path5335"
       inkscape:connector-curvature="0"
       sodipodi:nodetypes="ccccccc" />
    <path
       style="fill:none;stroke:#000000;stroke-width:0.9663583;stroke-miterlimit:4;stroke-opacity:1"
       d="m 259.03125,177.5 c -80.5162,-0.0527 -184.293482,11.75736 -188.224002,92.58249 -3.958869,78.89973 22.499491,184.78143 76.421932,242.4051 56.69606,65.46703 224.46087,56.18215 272.09223,-16.8199 35.53858,-52.22185 42.2473,-124.37845 11.77343,-180.663 C 399.70726,255.10837 380.5815,192.447 308.75016,177.62103 291.30715,173.65131 275.60101,177.25209 259.03125,177.5 z"
       id="path5339"
       inkscape:connector-curvature="0"
       sodipodi:nodetypes="ccccccc" />
    <path
       style="fill:none;stroke:#000000;stroke-width:0.9663583;stroke-miterlimit:4;stroke-opacity:1"
       d="m 259.0625,179.5 c -80.97108,-0.0466 -184.140794,12.85263 -186.395529,94.31401 -2.149007,76.95441 23.660322,182.12611 76.727519,238.1 54.29968,62.1202 215.0685,56.55489 263.69193,-10.72851 39.01251,-52.28075 47.62812,-127.25301 16.25519,-185.26311 C 397.64676,255.31492 376.23065,191.67774 302.88665,178.58306 287.22222,175.43612 273.78944,179.28284 259.0625,179.5 z"
       id="path5343"
       inkscape:connector-curvature="0"
       sodipodi:nodetypes="ccccccc" />
    <path
       style="fill:none;stroke:#000000;stroke-width:0.9663583;stroke-miterlimit:4;stroke-opacity:1"
       d="M 259.09375,181.5 C 179.55494,181.4835 78.011302,191.97705 74.730847,271.96889 71.619501,349.87662 98.335296,457.09287 152.85721,512.78592 208.6181,574.70506 370.24949,563.56159 416.12336,493.42418 451.26578,441.62922 457.30802,369.6371 426.35285,314.55119 393.21668,253.47926 363.85144,193.73117 295.12034,184.20622 283.26579,182.26402 271.15927,181.32715 259.09375,181.5 z"
       id="path5347"
       inkscape:connector-curvature="0"
       sodipodi:nodetypes="ccccccc" />
    <path
       style="fill:none;stroke:#000000;stroke-width:0.9663583;stroke-miterlimit:4;stroke-opacity:1"
       d="M 259.125,183.5 C 180.45007,183.35003 79.862222,193.27005 76.746119,272.06367 73.599356,349.28751 100.5213,457.23179 154.99628,512.17386 211.69571,574.41795 373.5136,559.87931 417.62666,487.43381 449.88215,436.36347 454.2025,367.0542 423.8318,314.06351 389.69412,252.49692 358.13526,192.38 288.1875,185.21875 278.55829,183.95658 268.83697,183.36238 259.125,183.5 z"
       id="path5351"
       inkscape:connector-curvature="0"
       sodipodi:nodetypes="ccccccc" />
    <path
       style="fill:none;stroke:#000000;stroke-width:0.9663583;stroke-miterlimit:4;stroke-opacity:1"
       d="m 259.15625,185.5 c -80.52465,-0.2917 -181.841814,14.10185 -180.546713,95.53272 1.465513,74.39146 26.500443,179.7561 79.872133,231.95005 56.53537,60.09932 215.04072,43.95009 257.98255,-27.46746 33.47922,-53.49098 35.51185,-126.58729 0.0785,-179.72919 -36.94279,-57.5052 -67.51326,-114.97915 -135.82401,-119.37987 -7.15832,-0.71611 -14.36801,-1.01028 -21.5625,-0.90625 z"
       id="path5355"
       inkscape:connector-curvature="0"
       sodipodi:nodetypes="cccccccc" />
    <path
       style="fill:none;stroke:#000000;stroke-width:0.9663583;stroke-miterlimit:4;stroke-opacity:1"
       d="m 259.1875,187.5 c -78.97358,-0.23444 -178.31956,11.26673 -178.591751,90.74646 -0.07933,75.1022 26.329241,182.94379 80.673891,234.74908 54.94905,57.03775 206.79603,43.1349 250.41252,-23.621 35.12595,-52.17734 39.1005,-124.83475 5.5889,-178.79883 C 380.72528,250.36288 347.15283,191.19416 276.8472,188.0732 270.97589,187.61788 265.07639,187.41403 259.1875,187.5 z"
       id="path5359"
       inkscape:connector-curvature="0"
       sodipodi:nodetypes="ccccccc" />
    <path
       style="fill:none;stroke:#000000;stroke-width:0.9663583;stroke-miterlimit:4;stroke-opacity:1"
       d="m 259.21875,189.5 c -79.42752,-0.40311 -62.20568,-5.66444 -136.05731,25.30618 -68.233243,28.68921 7.64581,321.25664 81.65355,323.98939 79.76461,6.36474 169.32602,11.82131 209.90666,-57.93113 31.85613,-53.17053 32.19627,-124.91498 -3.55142,-176.1116 -38.5206,-56.86573 -71.17861,-113.89701 -139.85605,-115.02946 -4.02714,-0.18215 -8.06387,-0.29087 -12.09543,-0.22338 z"
       id="path5363"
       inkscape:connector-curvature="0"
       sodipodi:nodetypes="ccccccc" />
    <path
       style="fill:none;stroke:#000000;stroke-width:0.9663583;stroke-miterlimit:4;stroke-opacity:1"
       d="m 259.25,191.5 c -78.07129,-0.42789 -60.9935,-4.90376 -133.61932,24.44575 -68.952344,27.93373 6.78349,319.06664 81.1862,320.9957 79.47195,5.5663 169.19755,10.19307 208.15221,-60.47622 C 445.85636,422.19987 443.77107,349.33706 404.92282,299.4406 364.89229,246.04587 333.19715,190.83448 266.18795,191.55121 263.87556,191.50701 261.56272,191.41688 259.25,191.5 z"
       id="path5367"
       inkscape:connector-curvature="0"
       sodipodi:nodetypes="ccccccc" />
    <path
       style="fill:none;stroke:#000000;stroke-width:0.9663583;stroke-miterlimit:4;stroke-opacity:1"
       d="m 247.49554,190.64285 c -79.41065,-0.49786 -66.39297,-6.35865 -139.22388,27.02297 -65.410758,30.15054 17.42222,313.83507 89.78846,314.61167 76.54312,4.01807 162.61865,10.36006 201.51386,-56.3961 32.36747,-53.7347 31.06281,-127.48055 -7.74308,-177.70929 -40.37061,-54.32794 -73.9774,-109.80504 -141.96036,-107.5605 -0.79185,-0.009 -1.58333,0.0212 -2.375,0.0312 z"
       id="path5371"
       inkscape:connector-curvature="0"
       sodipodi:nodetypes="cccccccc" />
    <path
       style="fill:none;stroke:#000000;stroke-width:0.9663583;stroke-miterlimit:4;stroke-opacity:1"
       d="m 264.875,195.40625 c -70.60657,-2.40907 -47.47352,1.17518 -116.25729,17.40591 -67.600627,15.33051 -40.67802,298.23204 25.15886,315.36169 46.22172,11.65101 98.35469,-27.1922 130.00351,-63.07084 34.8475,-38.40891 104.39417,30.62547 120.31286,-19.0578 16.65121,-49.81601 8.03751,-109.08014 -26.55923,-149.5478 C 357.28777,247.34516 328.43414,194.58737 264.875,195.40625 z"
       id="path5375"
       inkscape:connector-curvature="0"
       sodipodi:nodetypes="ccccccc" />
    <path
       style="fill:none;stroke:#000000;stroke-width:0.9663583;stroke-miterlimit:4;stroke-opacity:1"
       d="m 256.625,197.34375 c -71.15707,1.12822 -52.06844,-1.32153 -119.8521,20.81201 -68.206658,22.55011 -10.04774,305.92469 61.40394,312.30652 69.20064,7.75909 118.18764,-1.69744 173.57316,-44.55603 48.55319,-36.00559 70.01282,-101.10354 44.64683,-156.07342 -29.96789,-64.17384 -66.11434,-126.11423 -135.91878,-131.83798 -7.92591,-0.74747 -15.90201,-0.61433 -23.85305,-0.6511 z"
       id="path5379"
       inkscape:connector-curvature="0"
       sodipodi:nodetypes="ccccccc" />
    <path
       style="fill:none;stroke:#000000;stroke-width:0.9663583;stroke-miterlimit:4;stroke-opacity:1"
       d="m 255.03125,199.375 c -71.90919,1.92792 -55.98426,-2.62963 -123.85717,22.88165 -66.302938,25.60557 2.98481,303.42149 73.67849,306.83452 70.02537,5.20698 121.34546,-4.70602 174.39743,-51.80992 48.8131,-42.21996 60.15211,-116.25758 22.27521,-169.06234 -39.01362,-55.26364 -73.26888,-111.28092 -140.96271,-108.87516 -1.8438,0.008 -3.68792,-0.0241 -5.53125,0.0312 z"
       id="path5383"
       inkscape:connector-curvature="0"
       sodipodi:nodetypes="cccccccc" />
    <path
       style="fill:none;stroke:#000000;stroke-width:0.9663583;stroke-miterlimit:4;stroke-opacity:1"
       d="m 262.25,201.28125 c -74.68114,-1.39483 -63.55434,-4.03838 -133.40731,24.03202 -64.761459,26.9004 9.34259,300.0412 79.39409,301.98891 73.36344,4.09755 157.61957,12.21694 195.80883,-51.53904 31.69655,-52.17251 30.06793,-124.55846 -8.85089,-172.647 C 356.21642,253.20896 325.61978,199.61247 262.25,201.28125 z"
       id="path5387"
       inkscape:connector-curvature="0"
       sodipodi:nodetypes="cccccc" />
    <path
       style="fill:none;stroke:#000000;stroke-width:0.9663583;stroke-miterlimit:4;stroke-opacity:1"
       d="m 262.28125,203.28125 c -75.26612,-1.44774 -67.08696,-4.8953 -136.5562,25.57321 -63.666811,28.66649 18.8332,297.51559 88.75878,296.67423 71.49085,1.34631 153.20811,9.52017 189.30218,-53.22513 30.37528,-52.20494 27.3541,-123.46309 -11.94524,-170.22857 C 352.8325,254.26084 323.95471,201.68932 262.28125,203.28125 z"
       id="path5391"
       inkscape:connector-curvature="0"
       sodipodi:nodetypes="cccccc" />
    <path
       style="fill:none;stroke:#000000;stroke-width:0.9663583;stroke-miterlimit:4;stroke-opacity:1"
       d="m 257.03125,205.28125 c -70.25889,1.19544 -57.96676,-2.19538 -124.05889,22.76109 -67.410641,26.02395 12.01009,297.715 84.17915,295.51548 68.10647,0.22347 146.08916,10.37032 182.3195,-47.96797 32.28635,-50.98762 30.58687,-122.83893 -7.40773,-170.07931 -39.54489,-50.27008 -71.19661,-103.5211 -135.03203,-100.22929 z"
       id="path5395"
       inkscape:connector-curvature="0"
       sodipodi:nodetypes="cccccc" />
    <path
       style="fill:none;stroke:#000000;stroke-width:0.9663583;stroke-miterlimit:4;stroke-opacity:1"
       d="m 260.125,207.15625 c -68.23034,-0.0344 -55.11809,-0.55521 -120.29236,20.58636 -65.132638,21.4986 -5.58658,287.85578 62.31755,293.43454 64.2109,5.43069 111.10138,-3.46617 162.97481,-42.61465 50.48301,-36.94842 67.25645,-105.5959 34.44627,-159.01153 C 363.6979,262.25413 327.29314,204.88757 260.125,207.15625 z"
       id="path5399"
       inkscape:connector-curvature="0"
       sodipodi:nodetypes="cccccc" />
    <path
       style="fill:none;stroke:#000000;stroke-width:0.9663583;stroke-miterlimit:4;stroke-opacity:1"
       d="m 263.3125,209.09375 c -68.37497,-1.38985 -57.53703,-0.65987 -122.85802,20.53659 -60.496353,20.07809 -11.90917,277.63596 50.4007,288.12007 74.97289,12.23081 165.75314,20.12249 205.89832,-45.15908 30.48055,-49.64481 29.05097,-118.6013 -7.85874,-164.71042 -37.08792,-47.08459 -65.59395,-99.59984 -125.58226,-98.78716 z"
       id="path5403"
       inkscape:connector-curvature="0"
       sodipodi:nodetypes="cccccc" />
    <path
       style="fill:none;stroke:#000000;stroke-width:0.9663583;stroke-miterlimit:4;stroke-opacity:1"
       d="m 257,211.09375 c -68.13902,1.56331 -60.0867,-2.08988 -124.18434,23.47863 -62.410626,25.69123 13.65441,283.21529 81.06237,283.22089 70.82145,1.1267 153.75215,8.1356 186.45971,-55.64981 C 426.05109,412.0245 420.81831,345.77984 382.48659,303.30552 343.59192,258.94194 315.95352,208.32617 257,211.09375 z"
       id="path5407"
       inkscape:connector-curvature="0"
       sodipodi:nodetypes="cccccc" />
    <path
       style="fill:none;stroke:#000000;stroke-width:0.9663583;stroke-miterlimit:4;stroke-opacity:1"
       d="m 259.8125,213 c -67.22146,0.38659 -59.52905,-1.29511 -123.30911,22.28928 -61.327477,23.44143 6.0491,277.22186 71.18854,280.35028 70.1994,3.76762 153.65109,12.1459 188.49874,-50.022 C 425.61635,413.51189 419.10274,341.75721 375.90516,299.14689 337.79012,259.88037 314.53628,211.42104 259.8125,213 z"
       id="path5411"
       inkscape:connector-curvature="0"
       sodipodi:nodetypes="cccccc" />
    <path
       style="fill:none;stroke:#000000;stroke-width:0.9663583;stroke-miterlimit:4;stroke-opacity:1"
       d="m 238.80357,215.35714 c -67.87042,0.19581 -63.78339,-2.27409 -126.85546,23.87711 -62.148931,26.23225 20.47965,278.25393 87.78246,274.90042 64.615,-1.82017 116.83322,-11.63999 160.40753,-60.76233 38.21133,-42.61302 36.34637,-105.81075 -2.82614,-148.41738 -37.50768,-41.42648 -62.30449,-91.20312 -118.50839,-89.59782 z"
       id="path5415"
       inkscape:connector-curvature="0"
       sodipodi:nodetypes="cccccc" />
    <path
       style="fill:none;stroke:#000000;stroke-width:0.9663583;stroke-miterlimit:4;stroke-opacity:1"
       d="m 259.9375,217 c -66.35907,0.14581 -62.4303,-1.61505 -124.69497,23.11324 -63.792718,25.97432 22.01215,277.41409 90.49951,271.42915 61.71376,-3.73436 110.84181,-12.4249 152.94546,-58.72989 39.94431,-43.36444 36.6909,-109.21705 -6.02658,-151.33769 C 335.47182,263.63018 313.01625,215.42538 259.9375,217 z"
       id="path5419"
       inkscape:connector-curvature="0"
       sodipodi:nodetypes="cccccc" />
    <path
       style="fill:none;stroke:#000000;stroke-width:0.9663583;stroke-miterlimit:4;stroke-opacity:1"
       d="m 260,219 c -65.62539,0.13585 -62.51747,-1.31159 -124.01505,22.95555 -63.752692,25.90565 24.17965,274.85812 92.52404,267.41078 61.21014,-4.83799 110.82853,-13.62167 151.42851,-60.96008 C 417.60132,404.94901 411.87368,341.24046 369.49381,301.12811 332.77841,265.07559 311.66961,217.47861 260,219 z"
       id="path5423"
       inkscape:connector-curvature="0"
       sodipodi:nodetypes="cccccc" />
    <path
       style="fill:none;stroke:#000000;stroke-width:0.9663583;stroke-miterlimit:4;stroke-opacity:1"
       d="m 260.0625,221 c -66.10242,0.002 -66.37745,-2.35719 -127.72352,24.69354 -61.455844,27.94604 32.97524,270.51113 99.8511,261.32797 62.39998,-6.39165 136.22794,2.24517 162.42126,-55.94668 C 417.43909,400.61248 406.3429,335.23575 363.9169,298.61401 327.47612,265.73664 309.06529,219.58439 260.0625,221 z"
       id="path5427"
       inkscape:connector-curvature="0"
       sodipodi:nodetypes="cccccc" />
    <path
       style="fill:none;stroke:#000000;stroke-width:0.9663583;stroke-miterlimit:4;stroke-opacity:1"
       d="m 260.125,223 c -63.35224,-0.0152 -61.73073,-0.47203 -121.26757,22.17428 -57.591731,22.61116 11.35845,258.70502 72.51328,260.87982 63.02296,1.57277 115.94511,-8.81377 160.31679,-54.52285 41.89549,-42.45543 37.55991,-109.09183 -7.1552,-149.69493 C 328.59425,268.33389 309.54331,221.56165 260.125,223 z"
       id="path5431"
       inkscape:connector-curvature="0"
       sodipodi:nodetypes="cccccc" />
    <path
       style="fill:none;stroke:#000000;stroke-width:0.9663583;stroke-miterlimit:4;stroke-opacity:1"
       d="m 260.1875,225 c -65.74557,-0.1041 -69.82125,-2.80508 -129.72426,26.05681 -57.244188,28.27499 37.34977,260.23482 100.45662,252.21724 57.9712,-5.88627 106.52723,-14.30501 144.89264,-59.21155 C 412.45564,401.56713 404.83546,340.38069 362.43986,302.6392 327.02785,270.06443 308.64328,223.59638 260.1875,225 z"
       id="path5435"
       inkscape:connector-curvature="0"
       sodipodi:nodetypes="cccccc" />
    <path
       style="fill:none;stroke:#000000;stroke-width:0.9663583;stroke-miterlimit:4;stroke-opacity:1"
       d="m 262.5,226.96875 c -62.23234,-1.02394 -62.84665,-0.0571 -121.42439,21.68688 -54.808523,20.84919 8.27993,248.88811 65.87107,253.20763 63.61946,3.82092 119.70302,-7.97777 163.70957,-55.05076 38.78443,-40.93164 33.71909,-102.04366 -7.62827,-140.94811 C 328.60693,273.12719 310.41607,226.30669 262.5,226.96875 z"
       id="path5439"
       inkscape:connector-curvature="0"
       sodipodi:nodetypes="cccccc" />
    <path
       style="fill:none;stroke:#000000;stroke-width:0.9663583;stroke-miterlimit:4;stroke-opacity:1"
       d="m 259.625,228.96875 c -63.29191,0.20073 -68.57955,-1.89437 -126.48096,25.24941 -56.35156,27.15764 36.55574,253.34008 98.46305,245.00889 56.47636,-6.19301 104.5832,-14.59539 141.92416,-58.5708 C 409.27543,398.32909 413.2052,330.63732 378.59375,286.5 351.18157,250.1007 305.53389,227.44568 259.625,228.96875 z"
       id="path5443"
       inkscape:connector-curvature="0"
       sodipodi:nodetypes="cccccc" />
    <path
       style="fill:none;stroke:#000000;stroke-width:0.9663583;stroke-miterlimit:4;stroke-opacity:1"
       d="m 259.6875,230.96875 c -61.38877,0.20203 -66.10704,-0.93872 -123.03951,23.86544 -59.01942,26.4383 36.75227,253.05092 99.98021,241.71643 56.77806,-8.13335 107.14313,-17.25469 141.27714,-64.83941 30.55642,-42.86811 30.93509,-106.63943 -3.53034,-147.36746 -27.25807,-33.93443 -70.88004,-54.83087 -114.6875,-53.375 z"
       id="path5447"
       inkscape:connector-curvature="0"
       sodipodi:nodetypes="cccccc" />
    <path
       style="fill:none;stroke:#000000;stroke-width:0.9663583;stroke-miterlimit:4;stroke-opacity:1"
       d="m 236.89286,233.32589 c -63.03017,0.0855 -72.47181,-2.48986 -128.95222,26.97617 -54.940816,29.35908 48.17304,246.64511 109.17592,234.06418 53.24981,-9.00406 100.32239,-16.70713 133.9013,-60.22785 33.34695,-43.25577 33.56748,-110.14799 -3.625,-151.3125 -27.06993,-31.62337 -68.66203,-50.87115 -110.5,-49.5 z"
       id="path5451"
       inkscape:connector-curvature="0"
       sodipodi:nodetypes="cccccc" />
    <path
       style="fill:none;stroke:#000000;stroke-width:0.9663583;stroke-miterlimit:4;stroke-opacity:1"
       d="m 259.8125,234.96875 c -61.40309,0.10083 -70.58402,-1.78658 -126.43205,25.88644 -54.966793,28.15573 45.23389,243.48886 105.71573,231.27978 53.76412,-8.81412 102.60583,-17.31577 135.29996,-62.41574 31.41674,-43.27734 29.77505,-108.95624 -7.60166,-148.14522 -26.7531,-29.90009 -66.65486,-47.89376 -106.98198,-46.60526 z"
       id="path5455"
       inkscape:connector-curvature="0"
       sodipodi:nodetypes="cccccc" />
    <path
       style="fill:none;stroke:#000000;stroke-width:0.9663583;stroke-miterlimit:4;stroke-opacity:1"
       d="m 261.71875,236.9375 c -59.21523,-0.80484 -67.38993,-0.35904 -122.23867,23.30923 -55.638994,24.55838 33.78735,239.60425 93.24107,230.95343 52.30946,-6.62956 99.62589,-14.6755 134.34097,-55.42378 37.3899,-42.92122 36.93551,-114.48144 -3.6897,-154.96887 -25.75227,-27.65939 -63.58336,-44.61262 -101.65367,-43.87001 z"
       id="path5459"
       inkscape:connector-curvature="0"
       sodipodi:nodetypes="cccccc" />
    <path
       style="fill:none;stroke:#000000;stroke-width:0.9663583;stroke-miterlimit:4;stroke-opacity:1"
       d="m 261.75,238.9375 c -59.15386,-0.95297 -69.86699,-0.81928 -124.0301,24.31271 -50.013488,23.97141 30.17812,229.70483 85.0641,226.93282 56.15555,-3.31216 108.26401,-13.49854 144.43475,-57.71428 35.56085,-42.75369 33.76297,-112.66665 -6.5,-151.5625 C 335.36138,254.41615 298.78225,238.2372 261.75,238.9375 z"
       id="path5463"
       inkscape:connector-curvature="0"
       sodipodi:nodetypes="cccccc" />
    <path
       style="fill:none;stroke:#000000;stroke-width:0.9663583;stroke-miterlimit:4;stroke-opacity:1"
       d="m 261.78125,240.9375 c -59.10727,-0.98544 -71.85476,-1.15723 -125.46772,25.22344 -52.444447,26.59515 44.45044,231.68112 101.84187,220.19736 50.35649,-8.62007 97.10633,-16.24528 129.12585,-57.1708 33.94764,-42.77321 30.61424,-111.56989 -9.88536,-148.80998 -24.81841,-24.9322 -60.04113,-40.12257 -95.61464,-39.44002 z"
       id="path5467"
       inkscape:connector-curvature="0"
       sodipodi:nodetypes="cccccc" />
    <path
       style="fill:none;stroke:#000000;stroke-width:0.9663583;stroke-miterlimit:4;stroke-opacity:1"
       d="m 237.52679,242.9375 c -59.9895,-1.10721 -76.47524,-2.18973 -129.35074,27.59775 -49.708695,28.58237 53.98661,226.37772 109.63701,213.04506 48.32537,-9.7666 93.93876,-16.86238 124.40123,-56.61156 32.21805,-41.64999 28.96266,-107.82938 -9.53125,-144.25 -24.70574,-25.14963 -59.69299,-40.46761 -95.15625,-39.78125 z"
       id="path5471"
       inkscape:connector-curvature="0"
       sodipodi:nodetypes="cccccc" />
    <path
       style="fill:none;stroke:#000000;stroke-width:0.9663583;stroke-miterlimit:4;stroke-opacity:1"
       d="m 257.625,244.9375 c -55.11907,1.16891 -67.38834,0.32798 -118.00209,24.13995 -53.751655,25.78884 46.83487,227.13659 104.31756,212.08181 C 290.68794,470.90828 335.35636,464.22591 364.9375,425.75 397.18005,384.06824 393.11717,317.39167 353.21875,281.78125 327.7862,257.23279 293.02865,243.38759 257.625,244.9375 z"
       id="path5475"
       inkscape:connector-curvature="0"
       sodipodi:nodetypes="cccccc" />
    <path
       style="fill:none;stroke:#000000;stroke-width:0.9663583;stroke-miterlimit:4;stroke-opacity:1"
       d="m 260.96875,246.84375 c -55.36316,-0.39297 -69.56758,0.3083 -120.26605,23.93183 -53.35797,25.54798 47.08873,223.6259 103.76923,208.2102 C 291.25166,468.4883 337.0976,461.17322 365.53125,421.625 394.37524,381.16316 390.09516,319.30442 353.6875,284.90625 329.42666,260.79222 295.52745,246.1204 260.96875,246.84375 z"
       id="path5479"
       inkscape:connector-curvature="0"
       sodipodi:nodetypes="cccccc" />
    <path
       style="fill:none;stroke:#000000;stroke-width:0.9663583;stroke-miterlimit:4;stroke-opacity:1"
       d="m 261,248.84375 c -55.75612,-0.55839 -73.04401,-0.36196 -123.06305,25.54172 -50.837316,27.26859 53.87998,218.52379 109.23426,201.89741 C 293.601,464.73963 340.64048,457.04464 366.9975,415.83872 392.9759,374.44255 385.91756,314.31749 348.06509,282.33564 324.52354,260.9253 292.93425,248.16912 261,248.84375 z"
       id="path5483"
       inkscape:connector-curvature="0"
       sodipodi:nodetypes="cccccc" />
    <path
       style="fill:none;stroke:#000000;stroke-width:0.9663583;stroke-miterlimit:4;stroke-opacity:1"
       d="m 261.03125,250.84375 c -54.79873,-0.6106 -72.99012,-0.0615 -122.13643,25.31099 -50.370356,26.93223 54.57902,214.89677 108.75512,197.94797 46.12814,-11.84515 93.46204,-19.73126 118.81881,-61.22771 24.44062,-40.99197 16.44811,-99.50186 -20.84375,-130.03125 -23.02579,-20.47556 -53.59714,-32.64445 -84.59375,-32 z"
       id="path5487"
       inkscape:connector-curvature="0"
       sodipodi:nodetypes="cccccc" />
    <path
       style="fill:none;stroke:#000000;stroke-width:0.9663583;stroke-miterlimit:4;stroke-opacity:1"
       d="M 261.0625,252.84375 C 210.15806,64.796258 192.08639,115.16115 142.10429,276.78449 91.079917,302.17118 193.13113,489.06453 247.13548,472.19988 292.39656,460.61964 339.82,452.60717 364.78125,411.8125 388.95119,371.40819 380.65933,313.16051 343.21875,283.375 320.56604,263.78649 291.17919,252.23433 261.0625,252.84375 z"
       id="path5491"
       inkscape:connector-curvature="0"
       sodipodi:nodetypes="cccccc" />
    <path
       style="fill:none;stroke:#000000;stroke-width:0.9663583;stroke-miterlimit:4;stroke-opacity:1"
       d="m 261.09375,254.84375 c -53.0391,-0.6039 -72.84242,0.48939 -120.41167,24.93843 -47.684545,25.62398 51.65248,205.63389 103.38181,191.23024 42.15336,-10.14787 85.77664,-16.48691 112.84236,-51.29367 31.4757,-39.83794 24.24956,-105.40715 -16.82333,-136.3677 -21.87553,-18.29276 -50.29858,-29.12739 -78.98917,-28.5073 z"
       id="path5495"
       inkscape:connector-curvature="0"
       sodipodi:nodetypes="cccccc" />
    <path
       style="fill:none;stroke:#000000;stroke-width:0.9663583;stroke-miterlimit:4;stroke-opacity:1"
       d="m 261.125,256.84375 c -51.64232,-0.68016 -71.86802,1.08629 -118.39385,24.14285 -48.46399,25.02903 52.05226,203.40551 103.79431,187.35345 42.79701,-11.29532 88.84682,-18.64557 113.50579,-56.46505 25.77127,-40.16739 16.34078,-99.835 -22.74469,-128.2238 -21.3056,-17.24009 -48.59048,-27.39787 -76.16156,-26.80745 z"
       id="path5499"
       inkscape:connector-curvature="0"
       sodipodi:nodetypes="cccccc" />
    <path
       style="fill:none;stroke:#000000;stroke-width:0.9663583;stroke-miterlimit:4;stroke-opacity:1"
       d="m 261.1875,258.84375 c -51.84803,-0.78873 -75.01043,0.39974 -120.83933,25.72914 -46.44465,26.59375 59.37737,198.51046 109.64899,180.70419 41.08699,-12.28496 86.38639,-19.10919 109.53409,-56.37083 24.338,-40.13511 13.53656,-98.37274 -25.46875,-125.25 -20.65057,-16.00621 -46.62311,-25.36479 -72.875,-24.8125 z"
       id="path5503"
       inkscape:connector-curvature="0"
       sodipodi:nodetypes="cccccc" />
    <path
       style="fill:none;stroke:#000000;stroke-width:0.9663583;stroke-miterlimit:4;stroke-opacity:1"
       d="m 261.21875,260.84375 c -50.4626,-0.77007 -73.70963,0.95533 -118.83926,24.90788 -46.979184,25.90803 59.17679,195.86132 108.93581,177.00895 40.2706,-12.6351 85.72946,-19.63433 107.6222,-56.79183 22.55458,-39.55261 11.26671,-95.57958 -26.89218,-121.32084 -20.15621,-15.3982 -45.38184,-24.33959 -70.82657,-23.80416 z"
       id="path5507"
       inkscape:connector-curvature="0"
       sodipodi:nodetypes="cccccc" />
    <path
       style="fill:none;stroke:#000000;stroke-width:0.9663583;stroke-miterlimit:4;stroke-opacity:1"
       d="m 261.25,262.84375 c -49.92556,-0.79296 -74.53452,0.97318 -118.98606,25.26769 -46.115983,26.36124 62.32322,191.94235 111.25072,171.81851 40.89428,-13.82693 88.94475,-22.18157 107.45409,-62.3987 C 378.1969,358.73313 365.1891,308.09499 328.9375,284.8125 309.42898,270.54068 285.43888,262.35896 261.25,262.84375 z"
       id="path5511"
       inkscape:connector-curvature="0"
       sodipodi:nodetypes="cccccc" />
    <path
       style="fill:none;stroke:#000000;stroke-width:0.9663583;stroke-miterlimit:4;stroke-opacity:1"
       d="m 261.28125,264.84375 c -50.15255,-0.88697 -77.57551,0.43423 -121.1572,26.87581 -43.390725,27.53467 67.6098,186.06984 114.66353,165.65813 37.34553,-13.38469 81.96036,-19.73827 101.64992,-55.28394 21.46514,-39.36398 7.58833,-94.4038 -31.32771,-117.52991 -18.64638,-12.89476 -41.13716,-20.15535 -63.82854,-19.72009 z"
       id="path5515"
       inkscape:connector-curvature="0"
       sodipodi:nodetypes="cccccc" />
    <path
       style="fill:none;stroke:#000000;stroke-width:0.9663583;stroke-miterlimit:4;stroke-opacity:1"
       d="m 261.3125,266.84375 c -59.19504,-83.70034 -76.06709,-17.11747 -116.11077,24.25124 -38.98354,21.53236 44.4081,176.7898 87.63803,170.4207 38.51473,-6.86989 81.69482,-13.7854 108.84774,-42.60944 25.03128,-25.25368 29.19983,-66.15815 13.82191,-97.46624 -7.96592,-17.96043 -23.32,-31.55665 -40.41566,-40.78376 -16.34595,-9.14654 -35.03847,-14.17502 -53.78125,-13.8125 z"
       id="path5519"
       inkscape:connector-curvature="0"
       sodipodi:nodetypes="ccccccc" />
    <path
       style="fill:none;stroke:#000000;stroke-width:0.9663583;stroke-miterlimit:4;stroke-opacity:1"
       d="m 261.34375,268.84375 c -47.69298,-0.95519 -76.00025,1.40652 -117.81815,25.53752 -41.83984,25.49559 62.15528,178.10084 107.38935,160.30314 36.7913,-12.60429 82.05864,-19.24648 101.71005,-53.87191 20.12575,-36.52697 8.57738,-87.49944 -26.3125,-110.78125 -18.85609,-13.4954 -41.61506,-21.69605 -64.96875,-21.1875 z"
       id="path5523"
       inkscape:connector-curvature="0"
       sodipodi:nodetypes="cccccc" />
    <path
       style="fill:none;stroke:#000000;stroke-width:0.9663583;stroke-miterlimit:4;stroke-opacity:1"
       d="m 256.96875,270.875 c -45.0557,1.36857 -72.68806,2.40776 -112.43503,25.24183 -41.78091,25.51471 63.75484,174.87022 108.35064,155.7456 35.4881,-13.07939 80.54849,-19.50701 98.86564,-53.70618 19.39094,-37.19811 5.57522,-88.21037 -30.99059,-109.48876 -18.79913,-12.36551 -41.22274,-18.98794 -63.79066,-17.79249 z"
       id="path5527"
       inkscape:connector-curvature="0"
       sodipodi:nodetypes="cccccc" />
    <path
       style="fill:none;stroke:#000000;stroke-width:0.9663583;stroke-miterlimit:4;stroke-opacity:1"
       d="m 259.1875,272.78125 c -46.03976,0.30932 -77.04238,1.662 -116.46556,26.86872 -39.76527,12.41002 62.7244,-83.43504 112.04966,149.35277 35.01458,-13.78627 81.23306,-20.77481 97.27857,-56.14064 16.31343,-36.81971 0.86706,-84.96695 -34.98758,-104.18023 -17.38719,-10.70157 -37.3876,-16.52492 -57.87509,-15.90062 z"
       id="path5531"
       inkscape:connector-curvature="0"
       sodipodi:nodetypes="cccccc" />
    <path
       style="fill:none;stroke:#000000;stroke-width:0.9663583;stroke-miterlimit:4;stroke-opacity:1"
       d="m 259.21875,274.78125 c -59.01141,-174.33982 -80.39284,-43.01987 -115.46183,26.58466 -38.97239,26.5375 69.68084,165.64804 111.86206,145.12825 33.89507,-13.85478 79.81827,-20.78327 95.03673,-55.4214 15.72154,-37.07507 -1.13439,-84.36098 -37.11449,-102.19948 -16.42896,-9.49124 -35.31242,-14.71522 -54.32247,-14.09203 z"
       id="path5535"
       inkscape:connector-curvature="0"
       sodipodi:nodetypes="cccccc" />
    <path
       style="fill:none;stroke:#000000;stroke-width:0.9663583;stroke-miterlimit:4;stroke-opacity:1"
       d="M 261.03125,276.75 C 210.61269,266.96027 74.226922,108.63723 144.79191,303.08185 106.30447,329.32297 215.18149,465.11737 256.43233,443.98566 288.39798,430.41502 332.95177,424.1212 348.09375,391.875 365.06466,354.76242 347.38062,306.30856 310.12071,289.24247 295.15983,281.15295 278.17016,276.46972 261.03125,276.75 z"
       id="path5539"
       inkscape:connector-curvature="0"
       sodipodi:nodetypes="cccccc" />
    <path
       style="fill:none;stroke:#000000;stroke-width:0.9663583;stroke-miterlimit:4;stroke-opacity:1"
       d="m 256.9375,278.8125 c -42.71548,1.45619 -76.54562,2.51103 -112.73766,27.14877 -36.58367,26.56624 73.13495,156.86588 112.91847,135.53532 31.72619,-14.01717 77.04638,-20.71067 90.63169,-53.87159 14.44712,-36.72639 -4.63338,-82.8923 -41.375,-98.0625 -15.2236,-7.74976 -32.22462,-11.60405 -49.4375,-10.75 z"
       id="path5543"
       inkscape:connector-curvature="0"
       sodipodi:nodetypes="cccccc" />
    <path
       style="fill:none;stroke:#000000;stroke-width:0.9663583;stroke-miterlimit:4;stroke-opacity:1"
       d="m 260.1875,280.71875 c -43.1397,-0.27715 -79.43693,2.07916 -115.65451,27.48193 -35.51128,26.70535 74.58679,152.41993 113.27129,130.80685 31.32317,-14.34824 77.66501,-21.76481 89.28947,-55.50753 12.10085,-36.05028 -8.08537,-79.76065 -43.96498,-93.30573 -13.35957,-6.36697 -28.1026,-9.74846 -42.94127,-9.47552 z"
       id="path5547"
       inkscape:connector-curvature="0"
       sodipodi:nodetypes="cccccc" />
    <path
       style="fill:none;stroke:#000000;stroke-width:0.9663583;stroke-miterlimit:4;stroke-opacity:1"
       d="m 256.28125,282.8125 c -40.97033,1.84746 -77.08242,2.89523 -111.32023,27.59997 -34.49406,26.70812 75.9302,147.9736 113.48835,126.08923 29.35205,-14.03327 74.38283,-20.51977 86.20688,-52.15795 13.34646,-36.44137 -8.22645,-80.94656 -44.875,-93.5 -13.64423,-6.04945 -28.54221,-8.82295 -43.5,-8.03125 z"
       id="path5551"
       inkscape:connector-curvature="0"
       sodipodi:nodetypes="cccccc" />
    <path
       style="fill:none;stroke:#000000;stroke-width:0.9663583;stroke-miterlimit:4;stroke-opacity:1"
       d="m 259.125,284.71875 c -57.59538,-371.21942 -86.53956,-160.08117 -114.52281,28.52579 -32.91758,27.18289 78.91766,142.82687 115.23146,120.33755 28.66818,-14.5139 74.19121,-21.4747 84.0726,-53.30084 -51.423,-720.56463 -13.87555,-103.07213 -47.13545,-88.55584 -11.92164,-4.89707 -24.73896,-7.34951 -37.6458,-7.00666 z"
       id="path5555"
       inkscape:connector-curvature="0"
       sodipodi:nodetypes="cccccc" />
    <path
       style="fill:none;stroke:#000000;stroke-width:0.9663583;stroke-miterlimit:4;stroke-opacity:1"
       d="m 259.1875,286.71875 c -40.5757,0.23088 -80.11716,2.7673 -113.29333,28.06395 -32.94594,27.13043 79.88818,139.22631 115.23694,115.83842 27.36184,-14.70007 72.57599,-21.42939 81.30639,-52.55862 9.70617,-35.37218 -13.53257,-75.4397 -48.625,-85.34375 -10.93883,-4.21591 -22.83585,-6.317 -34.625,-6 z"
       id="path5559"
       inkscape:connector-curvature="0"
       sodipodi:nodetypes="cccccc" />
    <path
       style="fill:none;stroke:#000000;stroke-width:0.9663583;stroke-miterlimit:4;stroke-opacity:1"
       d="m 259.21875,288.71875 c -39.82932,0.18577 -80.59266,2.92824 -112.80168,28.24811 -31.78183,27.01905 80.84757,134.6679 115.02882,111.23443 26.04438,-14.54956 70.64181,-20.85619 79.08536,-50.73254 9.63377,-35.05129 -14.34573,-74.70898 -49.5,-83.65625 -10.22311,-3.5975 -20.98583,-5.3817 -31.8125,-5.09375 z"
       id="path5563"
       inkscape:connector-curvature="0"
       sodipodi:nodetypes="cccccc" />
    <path
       style="fill:none;stroke:#000000;stroke-width:0.9663583;stroke-miterlimit:4;stroke-opacity:1"
       d="m 259.25,290.71875 c -38.73899,0.0869 -80.30649,3.29283 -111.61805,27.8396 -31.22097,26.62694 59.12238,116.78072 83.54145,84.12203 20.3472,-22.26073 102.68118,0.47844 108.5141,-30.55538 6.20337,-33.88899 -17.97183,-69.39857 -51.25,-77.09375 -9.43085,-3.0633 -19.26899,-4.56302 -29.1875,-4.3125 z"
       id="path5567"
       inkscape:connector-curvature="0"
       sodipodi:nodetypes="cccccc" />
    <path
       style="fill:none;stroke:#000000;stroke-width:0.9663583;stroke-miterlimit:4;stroke-opacity:1"
       d="m 259.28125,292.71875 c -37.65606,0.0646 -79.80105,3.61697 -110.43441,27.43109 -30.72165,26.40271 58.27877,112.69493 81.80979,80.13904 19.1352,-21.62526 101.43286,1.09506 107.06212,-28.53888 6.15212,-33.53646 -18.51532,-68.48904 -51.65625,-75.375 -8.68336,-2.60812 -17.67061,-3.88902 -26.78125,-3.65625 z"
       id="path5571"
       inkscape:connector-curvature="0"
       sodipodi:nodetypes="cccccc" />
    <path
       style="fill:none;stroke:#000000;stroke-width:0.9663583;stroke-miterlimit:4;stroke-opacity:1"
       d="m 259.3125,294.71875 c -36.97383,0.0563 -80.29965,3.7965 -109.89892,27.61183 -29.52584,26.1955 58.29976,107.7442 80.65488,75.62756 18.00436,-21.06227 100.28771,1.65465 105.68154,-26.61439 6.09355,-33.22026 -19.07793,-67.43186 -51.875,-73.53125 -7.97583,-2.21998 -16.27775,-3.30837 -24.5625,-3.09375 z"
       id="path5575"
       inkscape:connector-curvature="0"
       sodipodi:nodetypes="cccccc" />
    <path
       style="fill:none;stroke:#000000;stroke-width:0.9663583;stroke-miterlimit:4;stroke-opacity:1"
       d="m 259.34375,296.71875 c -36.20991,-0.0281 -80.91338,3.94537 -109.42735,27.87231 -28.56913,26.41591 90.97199,107.26706 128.05235,96.28394 25.99572,-4.94844 51.56822,-23.8896 56.0625,-51.375 5.05124,-32.32454 -20.42545,-65.04558 -52.1875,-70.15625 -7.30443,-1.89839 -14.88576,-2.81849 -22.5,-2.625 z"
       id="path5579"
       inkscape:connector-curvature="0"
       sodipodi:nodetypes="cccccc" />
    <path
       style="fill:none;stroke:#000000;stroke-width:0.9663583;stroke-miterlimit:4;stroke-opacity:1"
       d="M 259.375,298.71875 C 187.55903,-14.643395 157.29726,129.59471 149.9746,327.27331 c -27.02608,26.77059 94.01518,102.8972 129.78625,91.182 25.75067,-5.47659 50.8789,-25.89313 52.7704,-53.64281 2.08296,-31.1358 -23.29305,-60.13986 -53.875,-64.1875 -6.26269,-1.41983 -12.78425,-2.05633 -19.28125,-1.90625 z"
       id="path5583"
       inkscape:connector-curvature="0"
       sodipodi:nodetypes="cccccc" />
    <path
       style="fill:none;stroke:#000000;stroke-width:0.9663583;stroke-miterlimit:4;stroke-opacity:1"
       d="m 259.4375,300.71875 c -34.50666,-0.14671 -81.42822,4.29172 -108.14523,28.07494 -26.40691,26.39644 94.19283,99.42274 128.99462,87.5127 25.04874,-5.6686 49.24923,-25.89783 50.30686,-53.05639 1.24643,-30.70624 -24.87282,-58.16165 -54.71875,-61.15625 -5.40372,-1.03645 -10.93415,-1.51188 -16.4375,-1.375 z"
       id="path5587"
       inkscape:connector-curvature="0"
       sodipodi:nodetypes="cccccc" />
    <path
       style="fill:none;stroke:#000000;stroke-width:0.9663583;stroke-miterlimit:4;stroke-opacity:1"
       d="m 259.46875,302.71875 c -33.29056,-0.2019 -80.56075,4.80967 -106.4093,27.19068 -26.27491,25.66867 93.8063,96.53228 127.94055,84.18432 23.34381,-5.64172 45.83594,-24.54816 47.53125,-49.71875 2.01554,-30.85372 -24.86058,-58.45077 -55.0625,-60.6875 -4.60665,-0.73036 -9.29424,-1.10179 -14,-0.96875 z"
       id="path5591"
       inkscape:connector-curvature="0"
       sodipodi:nodetypes="cccccc" />
    <path
       style="fill:none;stroke:#000000;stroke-width:0.9663583;stroke-miterlimit:4;stroke-opacity:1"
       d="m 259.5,304.71875 c -31.90564,-0.33111 -80.06211,5.03754 -105.14531,26.7443 -25.63564,25.23077 94.05551,93.05647 127.23906,80.41195 21.93172,-5.60029 43.25746,-23.63223 44.9375,-47.65625 2.012,-30.48252 -25.44819,-57.43271 -55.03125,-58.78125 -3.97378,-0.54936 -7.9871,-0.83618 -12,-0.71875 z"
       id="path5595"
       inkscape:connector-curvature="0"
       sodipodi:nodetypes="cccccc" />
    <path
       style="fill:none;stroke:#000000;stroke-width:0.9663583;stroke-miterlimit:4;stroke-opacity:1"
       d="M 259.53125,306.71875 C 203.36557,-53.89442 140.9496,156.34525 155.64668,333.0012 c -24.9834,24.83975 94.2955,89.55018 126.44707,76.65505 21.81985,-5.80875 42.42632,-24.52152 42.53125,-48.3125 0.11778,-28.87695 -26.56014,-53.41704 -54.875,-54.09375 -3.38196,-0.46234 -6.80678,-0.61419 -10.21875,-0.53125 z"
       id="path5599"
       inkscape:connector-curvature="0"
       sodipodi:nodetypes="cccccc" />
    <path
       style="fill:none;stroke:#000000;stroke-width:0.9663583;stroke-miterlimit:4;stroke-opacity:1"
       d="m 259.59375,308.71875 c -42.99839,-226.160574 -84.59244,-87.58686 -102.68078,25.83839 -24.32963,24.39468 94.76694,85.99739 125.68078,72.88036 21.34159,-5.94943 41.35049,-25.0934 39.96875,-48.6875 -1.54613,-27.85017 -28.21423,-49.93644 -55.53125,-49.78125 -2.46568,-0.25897 -4.95934,-0.32996 -7.4375,-0.25 z"
       id="path5603"
       inkscape:connector-curvature="0"
       sodipodi:nodetypes="cccccc" />
    <path
       style="fill:none;stroke:#000000;stroke-width:0.9663583;stroke-miterlimit:4;stroke-opacity:1"
       d="m 259.625,310.71875 c -29.32257,-0.32919 -79.69054,5.96225 -102.12149,26.08927 -22.73978,24.295 95.79407,81.55081 125.55899,68.41073 21.09912,-6.0062 40.9685,-26.68136 37.125,-50.09375 -3.85922,-26.08218 -29.37116,-44.94184 -55.125,-44.3125 -1.80852,-0.14782 -3.62481,-0.14364 -5.4375,-0.0937 z"
       id="path5607"
       inkscape:connector-curvature="0"
       sodipodi:nodetypes="ccccccc" />
    <path
       style="fill:none;stroke:#000000;stroke-width:0.9663583;stroke-miterlimit:4;stroke-opacity:1"
       d="m 259.65625,312.71875 c -28.00908,-0.46816 -79.23904,6.2587 -100.82366,25.60225 -21.95254,23.69417 95.71333,78.0251 124.69866,64.679 20.58344,-6.10994 39.55118,-27.40322 34.25,-49.90625 -4.82139,-24.38325 -29.81258,-41.45697 -54.1875,-40.375 -1.31205,-0.0487 -2.6254,-0.042 -3.9375,0 z"
       id="path5611"
       inkscape:connector-curvature="0"
       sodipodi:nodetypes="cccccc" />
    <path
       style="fill:none;stroke:#000000;stroke-width:0.9663583;stroke-miterlimit:4;stroke-opacity:1"
       d="m 264.8125,314.6875 c -25.41286,-2.42875 -73.40858,7.73052 -96.3096,19.37609 -17.93956,9.09317 55.07047,60.27653 72.52835,67.21766 14.35316,6.07597 30.7786,5.36843 44.71875,-1.125 18.91751,-6.78015 35.36323,-27.13931 29.84375,-47.75 -5.11381,-22.55474 -28.17455,-38.18941 -50.78125,-37.71875 z"
       id="path5615"
       inkscape:connector-curvature="0"
       sodipodi:nodetypes="cccccc" />
    <path
       style="fill:none;stroke:#000000;stroke-width:0.9663583;stroke-miterlimit:4;stroke-opacity:1"
       d="m 258.9375,316.5 c -25.00659,0.60014 -76.86459,7.14777 -96.60365,24.30078 -17.00237,17.04912 79.49751,64.00357 102.54115,62.57422 19.97811,-1.54156 41.31404,-12.77009 48.1875,-32.78125 6.53086,-20.4589 -8.63587,-42.00372 -27.25,-49.65625 -8.48864,-3.90483 -17.6613,-4.49579 -26.875,-4.4375 z"
       id="path5619"
       inkscape:connector-curvature="0"
       sodipodi:nodetypes="cccccc" />
    <path
       style="fill:none;stroke:#000000;stroke-width:0.9663583;stroke-miterlimit:4;stroke-opacity:1"
       d="m 257.9375,318.53125 c -23.47679,1.12847 -75.63757,7.67474 -94.28598,23.78992 -18.76284,19.33631 87.06984,64.74885 112.03598,57.24133 18.4612,-4.39938 37.72513,-19.90451 36.875,-40.4375 -1.5964,-23.57058 -25.01729,-41.05491 -47.84304,-40.53771 -2.25863,-0.11004 -4.52189,-0.12111 -6.78196,-0.056 z"
       id="path5623"
       inkscape:connector-curvature="0"
       sodipodi:nodetypes="ccccccc" />
    <path
       style="fill:none;stroke:#000000;stroke-width:0.9663583;stroke-miterlimit:4;stroke-opacity:1"
       d="m 258.0625,320.53125 c -22.44916,1.12083 -74.93174,8.00703 -93.01617,23.25697 -18.58041,19.41972 88.32841,61.82573 112.67242,53.14928 16.9499,-4.76891 34.24099,-19.75304 32.75,-38.75 -2.33507,-23.32064 -26.68868,-39.4511 -49.15625,-37.6875 -1.08361,-0.008 -2.16677,10e-4 -3.25,0.0312 z"
       id="path5627"
       inkscape:connector-curvature="0"
       sodipodi:nodetypes="ccccccc" />
    <path
       style="fill:none;stroke:#000000;stroke-width:0.9663583;stroke-miterlimit:4;stroke-opacity:1"
       d="m 262.5,322.4375 c -22.89959,-1.27564 -77.77384,7.47256 -96.1874,22.90666 -17.88818,19.17251 88.94853,58.45697 112.3749,49.21834 15.82593,-4.92013 31.6322,-19.31214 29.6875,-37.25 -2.93887,-21.45264 -25.17092,-35.96034 -45.875,-34.875 z"
       id="path5631"
       inkscape:connector-curvature="0"
       sodipodi:nodetypes="ccccc" />
    <path
       style="fill:none;stroke:#000000;stroke-width:0.9663583;stroke-miterlimit:4;stroke-opacity:1"
       d="m 259.34375,324.40625 c -20.92257,0.4851 -76.03546,8.2982 -92.36003,23.17153 -16.67447,19.35988 91.16198,54.36637 113.45849,44.27471 14.82703,-5.27231 29.3333,-20.1592 25.43279,-37.13374 -4.69727,-20.26253 -26.76373,-32.15588 -46.53125,-30.3125 z"
       id="path5635"
       inkscape:connector-curvature="0"
       sodipodi:nodetypes="ccccc" />
    <path
       style="fill:none;stroke:#000000;stroke-width:0.9663583;stroke-miterlimit:4;stroke-opacity:1"
       d="m 262.1875,326.25 c -20.73505,-0.79503 -41.22688,12.1533 -37.29162,33.87869 7.64062,23.00987 33.7377,39.54282 54.88537,29.84006 14.33196,-4.96 28.18235,-19.627 23.9375,-35.71875 -4.75595,-17.85353 -23.77262,-28.52245 -41.53125,-28 z"
       id="path5639"
       inkscape:connector-curvature="0"
       sodipodi:nodetypes="ccccc" />
    <path
       style="fill:none;stroke:#000000;stroke-width:0.9663583;stroke-miterlimit:4;stroke-opacity:1"
       d="m 259.40625,328.25 c -18.62901,0.70194 -35.88932,11.92612 -32.5658,31.36911 7.62019,22.31954 33.29681,38.0451 53.53455,27.97464 13.60514,-4.93776 26.47633,-20.06309 20.6875,-35.21875 -6.02645,-16.65847 -24.7695,-25.34684 -41.65625,-24.125 z"
       id="path5643"
       inkscape:connector-curvature="0"
       sodipodi:nodetypes="ccccc" />
    <path
       style="fill:none;stroke:#000000;stroke-width:0.9663583;stroke-miterlimit:4;stroke-opacity:1"
       d="m 261.125,330.15625 c -18.33466,-0.12304 -37.5523,16.1554 -34.59375,35.5 7.16845,21.4095 35.26656,29.74522 54.40625,19.5625 12.62833,-4.92257 24.12461,-19.8401 17.6875,-33.59375 -6.07175,-14.42095 -22.48684,-21.96058 -37.5,-21.46875 z"
       id="path5647"
       inkscape:connector-curvature="0"
       sodipodi:nodetypes="ccccc" />
    <path
       style="fill:none;stroke:#000000;stroke-width:0.9663583;stroke-miterlimit:4;stroke-opacity:1"
       d="m 261.15625,332.15625 c -17.31591,-0.29037 -35.95946,15.63776 -32.40625,33.78125 7.8492,20.62412 35.57748,27.26317 53.6875,16.4375 11.37419,-5.26911 20.61805,-19.82064 13.5,-31.8125 -6.43144,-12.47577 -21.16574,-18.83849 -34.78125,-18.40625 z"
       id="path5651"
       inkscape:connector-curvature="0"
       sodipodi:nodetypes="ccccc" />
    <path
       style="fill:none;stroke:#000000;stroke-width:0.9663583;stroke-miterlimit:4;stroke-opacity:1"
       d="m 261.21875,334.15625 c -16.13857,-0.26759 -33.41643,14.10435 -30.53125,31.21875 7.65773,19.71421 34.84399,25.69425 51.90625,14.6875 10.71807,-5.18144 18.47185,-19.90072 10.4817,-30.4802 -6.72581,-10.6598 -19.63939,-15.75633 -31.8567,-15.42605 z"
       id="path5655"
       inkscape:connector-curvature="0"
       sodipodi:nodetypes="ccccc" />
    <path
       style="fill:none;stroke:#000000;stroke-width:0.9663583;stroke-miterlimit:4;stroke-opacity:1"
       d="m 259.78125,336.1875 c -14.61339,0.43041 -30.14453,13.90063 -26.875,29.34375 8.63957,19.50961 36.44461,23.27093 52.3125,10.5625 8.46858,-5.72245 12.7975,-19.14007 4.90625,-27.25 -6.84762,-9.19275 -19.04678,-13.29594 -30.34375,-12.65625 z"
       id="path5659"
       inkscape:connector-curvature="0"
       sodipodi:nodetypes="ccccc" />
    <path
       style="fill:none;stroke:#000000;stroke-width:0.9663583;stroke-miterlimit:4;stroke-opacity:1"
       d="m 260.90625,338.15625 c -13.93445,-0.24836 -29.55713,12.8049 -25.78125,27.46875 10.17646,20.63173 43.99318,21.1799 55.28125,1.4375 3.89972,-6.89642 1.4046,-15.27408 -4.53125,-20.0625 -6.57619,-6.3275 -15.92858,-9.10298 -24.96875,-8.84375 z"
       id="path5663"
       inkscape:connector-curvature="0"
       sodipodi:nodetypes="ccccc" />
    <path
       style="fill:none;stroke:#000000;stroke-width:0.9663583;stroke-miterlimit:4;stroke-opacity:1"
       d="m 259.125,340.21875 c -11.97596,0.73271 -25.01811,11.74707 -22.125,24.71875 10.05073,19.8033 43.85176,19.39721 52.65625,-1.125 3.28003,-10.46027 -7.14395,-18.9071 -16,-21.84375 -4.67601,-1.53216 -9.58258,-2.06615 -14.53125,-1.75 z"
       id="path5667"
       inkscape:connector-curvature="0"
       sodipodi:nodetypes="ccccc" />
    <path
       style="fill:none;stroke:#000000;stroke-width:0.9663583;stroke-miterlimit:4;stroke-opacity:1"
       d="m 260.1875,342.15625 c -11.20971,0.23265 -23.58647,10.16261 -21.28125,22.09375 9.5829,18.29533 41.33831,17.72653 49.09375,-1.90625 1.93075,-10.60213 -10.08356,-17.98442 -19.1875,-19.5625 -2.82145,-0.53767 -5.71376,-0.72725 -8.625,-0.625 z"
       id="path5671"
       inkscape:connector-curvature="0"
       sodipodi:nodetypes="ccccc" />
    <path
       style="fill:none;stroke:#000000;stroke-width:0.9663583;stroke-miterlimit:4;stroke-opacity:1"
       d="m 260.3125,344.15625 c -10.08397,0.16347 -21.74464,9.04844 -19.21875,19.875 9.35363,16.25666 38.37228,15.35321 45.0625,-2.8125 0.43104,-12.38054 -15.80161,-17.69491 -25.84375,-17.0625 z"
       id="path5675"
       inkscape:connector-curvature="0"
       sodipodi:nodetypes="cccc" />
    <path
       style="fill:none;stroke:#000000;stroke-width:0.9663583;stroke-miterlimit:4;stroke-opacity:1"
       d="m 261.34375,346.125 c -9.03118,-0.40872 -20.66923,7.5458 -18.15625,17.5 8.95059,14.20528 34.81932,13.25764 40.96875,-2.96875 -0.37128,-10.77209 -14.16767,-14.59564 -22.8125,-14.53125 z"
       id="path5679"
       inkscape:connector-curvature="0"
       sodipodi:nodetypes="cccc" />
    <path
       style="fill:none;stroke:#000000;stroke-width:0.9663583;stroke-miterlimit:4;stroke-opacity:1"
       d="m 259.78125,348.15625 c -7.35509,0.32909 -16.82307,6.96962 -14.5,15 8.49773,12.12682 30.85424,11.32714 36.84375,-2.875 -1.14091,-9.89857 -14.15076,-12.31609 -22.34375,-12.125 z"
       id="path5687"
       inkscape:connector-curvature="0"
       sodipodi:nodetypes="cccc" />
    <path
       style="fill:none;stroke:#000000;stroke-width:0.9663583;stroke-miterlimit:4;stroke-opacity:1"
       d="m 259.28125,350.21875 c -5.86347,0.50107 -13.82614,5.61261 -11.96875,12.34375 7.94564,10.2366 27.33411,9.50398 32.6875,-2.78125 -1.93702,-8.49948 -13.68755,-9.72202 -20.71875,-9.5625 z"
       id="path5691"
       inkscape:connector-curvature="0"
       sodipodi:nodetypes="cccc" />
    <path
       style="fill:none;stroke:#000000;stroke-width:0.9663583;stroke-miterlimit:4;stroke-opacity:1"
       d="m 259.0625,352.25 c -4.63202,0.62731 -10.83215,4.19739 -9.8125,9.53125 7.00045,8.38881 23.84946,8.08113 28.53125,-2.46875 -2.95113,-6.81093 -12.46888,-7.05303 -18.71875,-7.0625 z"
       id="path5695"
       inkscape:connector-curvature="0"
       sodipodi:nodetypes="cccc" />
    <path
       style="fill:none;stroke:#000000;stroke-width:0.9663583;stroke-miterlimit:4;stroke-opacity:1"
       d="m 259.03125,354.28125 c -3.33547,0.5994 -8.42156,2.92468 -7.625,6.90625 6.2974,6.36298 19.69114,6.35291 24.03125,-2.03125 -3.55563,-5.09815 -10.93983,-4.73272 -16.40625,-4.875 z"
       id="path5699"
       inkscape:connector-curvature="0"
       sodipodi:nodetypes="cccc" />
    <path
       style="fill:none;stroke:#000000;stroke-width:0.9663583;stroke-miterlimit:4;stroke-opacity:1"
       d="m 258.9375,356.34375 c -1.82986,0.23775 -7.70396,2.74861 -4.40625,4.84375 5.28799,3.6234 14.46232,3.73116 18.40625,-1.90625 -3.73736,-3.3521 -9.33216,-2.85623 -14,-2.9375 z"
       id="path5703"
       inkscape:connector-curvature="0"
       sodipodi:nodetypes="cccc" />
    <path
       style="fill:none;stroke:#000000;stroke-width:0.9663583;stroke-miterlimit:4;stroke-opacity:1"
       d="m 258.90625,358.375 c -2.65886,0.41154 -3.70736,1.95296 -0.5,2.5625 3.64059,1.27268 8.59453,1.20553 11.40625,-1.34375 -3.38843,-1.53363 -7.23065,-1.18795 -10.90625,-1.21875 z"
       id="path5707"
       inkscape:connector-curvature="0"
       sodipodi:nodetypes="cccc" />
  </g>
</svg>
