<?xml version="1.0" encoding="UTF-8" standalone="no"?>
<!-- Created with Inkscape (http://www.inkscape.org/) -->

<svg
   xmlns:dc="http://purl.org/dc/elements/1.1/"
   xmlns:cc="http://creativecommons.org/ns#"
   xmlns:rdf="http://www.w3.org/1999/02/22-rdf-syntax-ns#"
   xmlns:svg="http://www.w3.org/2000/svg"
   xmlns="http://www.w3.org/2000/svg"
   xmlns:sodipodi="http://sodipodi.sourceforge.net/DTD/sodipodi-0.dtd"
   xmlns:inkscape="http://www.inkscape.org/namespaces/inkscape"
   sodipodi:docname="letter sized frame.svg"
   inkscape:version="0.48.2 r9819"
   version="1.1"
   id="svg3783"
   height="1052.3622047"
   width="744.09448819">
  <defs
     id="defs3785" />
  <sodipodi:namedview
     id="base"
     pagecolor="#ffffff"
     bordercolor="#666666"
     borderopacity="1.0"
     inkscape:pageopacity="0.0"
     inkscape:pageshadow="2"
     inkscape:zoom="0.7"
     inkscape:cx="154.09111"
     inkscape:cy="672.6858"
     inkscape:document-units="px"
     inkscape:current-layer="layer1"
     showgrid="false"
     inkscape:window-width="983"
     inkscape:window-height="779"
     inkscape:window-x="208"
     inkscape:window-y="59"
     inkscape:window-maximized="0"
     inkscape:snap-bbox="true"
     inkscape:snap-nodes="true"
     inkscape:snap-grids="true"
     inkscape:snap-to-guides="true"
     inkscape:object-paths="true"
     inkscape:snap-intersection-paths="true"
     inkscape:object-nodes="false"
     inkscape:snap-smooth-nodes="false"
     inkscape:snap-global="false"
     inkscape:snap-page="false" />
  <metadata
     id="metadata3788">
    <rdf:RDF>
      <cc:Work
         rdf:about="">
        <dc:format>image/svg+xml</dc:format>
        <dc:type
           rdf:resource="http://purl.org/dc/dcmitype/StillImage" />
        <dc:title></dc:title>
      </cc:Work>
    </rdf:RDF>
  </metadata>
  <g
     inkscape:label="Layer 1"
     inkscape:groupmode="layer"
     id="layer1">
    <rect
       style="fill:none;stroke:#000000;stroke-width:0.91452992;stroke-opacity:1"
       id="rect4319"
       width="516.12524"
       height="776.81982"
       x="7.8454075"
       y="12.284647" />
    <flowRoot
       xml:space="preserve"
       id="flowRoot3475"
       style="fill:black;stroke:none;stroke-opacity:1;stroke-width:1px;stroke-linejoin:miter;stroke-linecap:butt;fill-opacity:1;font-family:Sans;font-style:normal;font-weight:normal;font-size:40px;line-height:125%;letter-spacing:0px;word-spacing:0px"><flowRegion
         id="flowRegion3477"><rect
           id="rect3479"
           width="474.7717"
           height="76.771591"
           x="40.406101"
           y="840.23016" /></flowRegion><flowPara
         id="flowPara3481" /></flowRoot>    <path
       style="fill:none;stroke:#000000;stroke-width:1px;stroke-linecap:butt;stroke-linejoin:miter;stroke-opacity:1"
       d="m 307.8834,147.43837 0,156.65331 c 5.92721,12.93505 11.22213,25.0919 0,16.92006 l 0,32.77901 c -1.51377,2.79865 -9.25135,5.84625 0,8.21429 l 0,22.67857 c 0.81865,1.12508 2.30335,2.00588 -2.0308,5.13726 -0.58532,0.42289 0.85143,1.30176 2.0308,1.82703 l 0,25.71428 c 4.88901,2.12697 6.49153,4.66475 0,8.21429 l 0,90.43333"
       id="path10401"
       inkscape:connector-curvature="0"
       sodipodi:nodetypes="ccccccscccc" />
    <path
       style="fill:none;stroke:#000000;stroke-width:1px;stroke-linecap:butt;stroke-linejoin:miter;stroke-opacity:1"
       d="m 454.76854,209.6787 0,368.57143"
       id="path10401-0"
       inkscape:connector-curvature="0" />
    <path
       style="fill:none;stroke:#000000;stroke-width:1px;stroke-linecap:butt;stroke-linejoin:miter;stroke-opacity:1"
       d="m 493.64988,132.95334 0,368.57143"
       id="path10401-3"
       inkscape:connector-curvature="0" />
    <path
       style="fill:none;stroke:#000000;stroke-width:1px;stroke-linecap:butt;stroke-linejoin:miter;stroke-opacity:1"
       d="m 485.00958,97.888506 0,368.571434"
       id="path10401-8"
       inkscape:connector-curvature="0" />
    <path
       style="fill:none;stroke:#000000;stroke-width:1px;stroke-linecap:butt;stroke-linejoin:miter;stroke-opacity:1"
       d="m 251.72145,161.5746 0,117.03758 c -4.06195,-5.48006 -7.2865,2.19517 -2.365,8.65751 4.20973,5.52773 2.04255,11.96655 2.365,16.16392 l 0,226.71242"
       id="path10401-2"
       inkscape:connector-curvature="0"
       sodipodi:nodetypes="ccscc" />
    <path
       style="fill:none;stroke:#000000;stroke-width:1px;stroke-linecap:butt;stroke-linejoin:miter;stroke-opacity:1"
       d="m 191.23933,147.80848 0,120.26799 c 0,4.59716 -6.81267,9.37135 0.74151,17.49902 0.55338,0.59539 1.32852,5.20955 1.13098,5.94409 -0.87626,3.25834 -2.79676,6.34981 -1.74736,8.66868 10.14904,22.42645 1.62113,15.38187 -0.12513,13.24535 l 0,39.77674 c -0.79565,5.50014 -7.71994,2.62233 -0.96056,9.99154 2.7791,3.02982 -1.29274,10.42649 -0.29267,20.56496 1.13421,11.49835 0.7205,22.51861 1.25323,33.58819 1.94519,2.65165 4.55643,5.3033 0,7.95495 l 0,91.06992"
       id="path10401-5"
       inkscape:connector-curvature="0"
       sodipodi:nodetypes="ccsssccssccc" />
    <path
       style="fill:none;stroke:#000000;stroke-width:1px;stroke-linecap:butt;stroke-linejoin:miter;stroke-opacity:1"
       d="m 96.196008,164.14311 0,368.57143"
       id="path10401-20"
       inkscape:connector-curvature="0" />
    <path
       style="fill:none;stroke:#000000;stroke-width:1px;stroke-linecap:butt;stroke-linejoin:miter;stroke-opacity:1"
       d="m 152.35796,91.791766 0.0402,164.038314 c 0.45182,3.40822 8.16858,10.48227 -0.0402,9.0321 l 0,51.51786 c -0.18695,3.05171 -11.97045,6.686 -0.30249,9.08828 l 0.30249,134.89488"
       id="path10401-37"
       inkscape:connector-curvature="0"
       sodipodi:nodetypes="cccccc" />
    <path
       style="fill:none;stroke:#000000;stroke-width:1px;stroke-linecap:butt;stroke-linejoin:miter;stroke-opacity:1"
       d="m 182.59903,105.50751 0,248.5511 c 1.62534,23.77976 10.81365,47.55952 0,71.33929 l 0,48.68104"
       id="path10401-29"
       inkscape:connector-curvature="0"
       sodipodi:nodetypes="cccc" />
    <path
       style="fill:none;stroke:#000000;stroke-width:1px;stroke-linecap:butt;stroke-linejoin:miter;stroke-opacity:1"
       d="m 411.56704,101.51337 0,368.57143"
       id="path10401-7"
       inkscape:connector-curvature="0" />
    <path
       style="fill:none;stroke:#000000;stroke-width:1px;stroke-linecap:butt;stroke-linejoin:miter;stroke-opacity:1"
       d="m 459.0887,134.99654 0,368.57143"
       id="path10401-53"
       inkscape:connector-curvature="0" />
    <path
       style="fill:none;stroke:#000000;stroke-width:1px;stroke-linecap:butt;stroke-linejoin:miter;stroke-opacity:1"
       d="m 420.20732,155.39542 0,368.57143"
       id="path10401-4"
       inkscape:connector-curvature="0" />
    <path
       style="fill:none;stroke:#000000;stroke-width:1px;stroke-linecap:butt;stroke-linejoin:miter;stroke-opacity:1"
       d="m 65.954953,201.00205 0,368.57143"
       id="path10401-32"
       inkscape:connector-curvature="0" />
    <path
       style="fill:none;stroke:#000000;stroke-width:1px;stroke-linecap:butt;stroke-linejoin:miter;stroke-opacity:1"
       d="m 424.52749,209.57387 0,368.57143"
       id="path10401-1"
       inkscape:connector-curvature="0" />
    <path
       style="fill:none;stroke:#000000;stroke-width:1px;stroke-linecap:butt;stroke-linejoin:miter;stroke-opacity:1"
       d="m 407.24686,147.03174 0,108.27687 c -2.60575,2.40497 -13.2664,3.59619 0,8.39286 l 0,251.9017"
       id="path10401-13"
       inkscape:connector-curvature="0"
       sodipodi:nodetypes="cccc" />
    <path
       style="fill:none;stroke:#000000;stroke-width:1px;stroke-linecap:butt;stroke-linejoin:miter;stroke-opacity:1"
       d="m 333.80432,152.30887 0,102.19617 c 0.0972,3.89555 4.64897,9.00599 0,11.60714 l 0,87.67857 c -4.24683,4.03466 -5.70748,7.14059 0,7.85715 l 0,55.35714 c -1.36025,1.87229 5.90377,2.44115 0,8.75 l 0,95.12526"
       id="path10401-25"
       inkscape:connector-curvature="0"
       sodipodi:nodetypes="cccccccc" />
    <path
       style="fill:none;stroke:#000000;stroke-width:1px;stroke-linecap:butt;stroke-linejoin:miter;stroke-opacity:1"
       d="m 467.72897,174.79426 0,368.57143"
       id="path10401-35"
       inkscape:connector-curvature="0" />
    <path
       style="fill:none;stroke:#000000;stroke-width:1px;stroke-linecap:butt;stroke-linejoin:miter;stroke-opacity:1"
       d="m 14.113144,94.602556 0,368.571434"
       id="path10401-12"
       inkscape:connector-curvature="0" />
    <path
       style="fill:none;stroke:#000000;stroke-width:1px;stroke-linecap:butt;stroke-linejoin:miter;stroke-opacity:1"
       d="m 394.28642,185.47843 0,69.47304 c -0.0572,2.82156 -13.36707,4.2954 0,8.48214 l 0,290.61625"
       id="path10401-22"
       inkscape:connector-curvature="0"
       sodipodi:nodetypes="cccc" />
    <path
       style="fill:none;stroke:#000000;stroke-width:1px;stroke-linecap:butt;stroke-linejoin:miter;stroke-opacity:1"
       d="m 208.51993,142.82538 0,112.92966 c -5.09272,5.99743 -6.76201,9.80388 0,8.21428 l 0,53.03572 c 1.3058,3.16406 9.79353,6.0519 0,9.64286 l 0,27.1938 c -2.33832,2.32896 -10.0903,3.03382 0,9.09137 l 0,53.79062 c 3.42291,2.80936 4.93613,5.69511 0,8.83884 l 0,85.83428"
       id="path10401-6"
       inkscape:connector-curvature="0"
       sodipodi:nodetypes="cccccccccc" />
    <path
       style="fill:none;stroke:#000000;stroke-width:1px;stroke-linecap:butt;stroke-linejoin:miter;stroke-opacity:1"
       d="m 199.87963,126.2373 0,132.19631 c -3.44027,8.55556 -9.7072,20.81502 0,12.14286 l 0,39.10714 c 3.5218,6.52047 11.70162,15.91794 0,13.03571 l 0,31.12238 c -4.1633,3.64535 -7.42091,7.08368 0,8.08122 l 0,55.17958 c 2.24304,2.74266 6.9839,5.39919 0,8.46003 l 0,69.2462"
       id="path10401-40"
       inkscape:connector-curvature="0"
       sodipodi:nodetypes="cccccccccc" />
    <path
       style="fill:none;stroke:#000000;stroke-width:1px;stroke-linecap:butt;stroke-linejoin:miter;stroke-opacity:1"
       d="m 415.88717,143.73171 0,368.57143"
       id="path10401-70"
       inkscape:connector-curvature="0" />
    <path
       style="fill:none;stroke:#000000;stroke-width:1px;stroke-linecap:butt;stroke-linejoin:miter;stroke-opacity:1"
       d="m 100.51616,208.69593 0,368.57143"
       id="path10401-34"
       inkscape:connector-curvature="0" />
    <path
       style="fill:none;stroke:#000000;stroke-width:1px;stroke-linecap:butt;stroke-linejoin:miter;stroke-opacity:1"
       d="m 27.073596,95.168086 0,368.571434"
       id="path10401-00"
       inkscape:connector-curvature="0" />
    <path
       style="fill:none;stroke:#000000;stroke-width:1px;stroke-linecap:butt;stroke-linejoin:miter;stroke-opacity:1"
       d="m 260.36174,182.58497 0,171.56293 c 1.15021,9.19174 -6.64538,17.5234 1.60931,28.39359 6.22679,8.19976 2.71991,19.73816 0.19885,30.95638 -0.857,3.81349 2.62102,9.6034 -1.80816,11.18574 l 0,126.47279"
       id="path10401-531"
       inkscape:connector-curvature="0"
       sodipodi:nodetypes="ccsscc" />
    <path
       style="fill:none;stroke:#000000;stroke-width:1px;stroke-linecap:butt;stroke-linejoin:miter;stroke-opacity:1"
       d="m 31.393746,222.84038 0,368.57143"
       id="path10401-06"
       inkscape:connector-curvature="0" />
    <path
       style="fill:none;stroke:#000000;stroke-width:1px;stroke-linecap:butt;stroke-linejoin:miter;stroke-opacity:1"
       d="m 186.91918,103.2732 0,172.66041 c 0.21659,5.31731 -1.77625,12.65034 1.02172,14.22664 2.28252,1.28591 1.85623,16.43904 -1.02172,15.05907 l 0,48.87491 c -4.78169,6.33154 -1.348,6.11814 0.2241,8.44687 1.32555,1.96353 0.70419,4.72816 0.46981,7.33849 -1.6502,18.37876 4.01233,36.64677 -0.69391,55.80921 l 0,46.15583"
       id="path10401-75"
       inkscape:connector-curvature="0"
       sodipodi:nodetypes="ccsccsscc" />
    <path
       style="fill:none;stroke:#000000;stroke-width:1px;stroke-linecap:butt;stroke-linejoin:miter;stroke-opacity:1"
       d="m 83.235557,204.59025 0,368.57143"
       id="path10401-004"
       inkscape:connector-curvature="0" />
    <path
       style="fill:none;stroke:#000000;stroke-width:1px;stroke-linecap:butt;stroke-linejoin:miter;stroke-opacity:1"
       d="m 286.28266,198.88642 0,72.94005 c -7.0105,-8.33246 -7.535,-2.86967 -3.30755,6.44831 1.83483,4.04428 2.54792,6.69088 3.30755,9.44454 l 0,66.42858 c 0.36427,4.65369 -1.26851,9.2823 0.96382,14.47258 2.30162,5.35138 3.7887,10.54189 0.98815,21.6063 -2.55211,10.08288 -6.82631,11.81757 -3.21321,21.60292 0.44949,1.21737 5.90604,11.75951 1.26129,13.38962 l 0,142.23853"
       id="path10401-54"
       inkscape:connector-curvature="0"
       sodipodi:nodetypes="ccsccssscc" />
    <path
       style="fill:none;stroke:#000000;stroke-width:1px;stroke-linecap:butt;stroke-linejoin:miter;stroke-opacity:1"
       d="m 342.44461,127.78948 0,127.0727 c -1.92369,2.18345 -3.88267,4.33162 0,12.32143 0.78239,3.47416 2.98483,7.36599 0,9.73214 l 0,219.44516"
       id="path10401-9"
       inkscape:connector-curvature="0"
       sodipodi:nodetypes="ccccc" />
    <path
       style="fill:none;stroke:#000000;stroke-width:1px;stroke-linecap:butt;stroke-linejoin:miter;stroke-opacity:1"
       d="m 489.32974,121.41947 0,368.57143"
       id="path10401-56"
       inkscape:connector-curvature="0" />
    <path
       style="fill:none;stroke:#000000;stroke-width:1px;stroke-linecap:butt;stroke-linejoin:miter;stroke-opacity:1"
       d="m 195.55948,161.67671 0,101.04261 c -10.72775,21.70954 -0.98198,10.8996 0,17.85715 l 0,20.71428 c 1.92924,7.61148 14.31357,22.54726 0,17.67857 l 0.12627,34.95243 c -1.73922,2.78844 -10.16761,5.23385 -0.006,8.63258 l -0.0394,54.50218 c 4.45593,5.60005 4.62915,8.50358 -0.006,8.37987 l -0.0751,104.81176"
       id="path10401-48"
       inkscape:connector-curvature="0"
       sodipodi:nodetypes="cccccccccc" />
    <path
       style="fill:none;stroke:#000000;stroke-width:1px;stroke-linecap:butt;stroke-linejoin:miter;stroke-opacity:1"
       d="m 316.52371,162.13572 -0.12627,92.78603 c 0.5329,12.02369 0.0981,15.385 1.12048,28.59357 2.13,27.51814 1.06652,27.05998 0.26848,28.63503 0.42969,5.5392 6.11994,10.29223 -1.26269,14.35343 l 0,27.1084 c -1.91971,2.97619 -13.07775,5.95238 0,8.92857 l 0,22.14286 c 1.60184,1.58189 3.26072,4.37127 1.6945,4.74567 -4.33876,1.03716 -0.87398,2.43146 -1.6945,3.64719 l 0,23.57143 c 2.3357,2.85678 14.44814,5.46287 0,8.75 l 0,105.30925"
       id="path10401-21"
       inkscape:connector-curvature="0"
       sodipodi:nodetypes="ccscccccscccc" />
    <path
       style="fill:none;stroke:#000000;stroke-width:1px;stroke-linecap:butt;stroke-linejoin:miter;stroke-opacity:1"
       d="m 320.84387,204.98316 -0.25254,49.93859 c -2.87281,2.05912 -2.43648,14.44392 -1.015,28.8232 1.05671,10.68927 1.23065,22.36444 1.26754,31.11723 0.10639,3.93452 2.65184,9.37 0,11.60714 l 0,27.14286 c -2.15689,2.61788 -8.459,4.89032 0,8.39286 l 0,22.5 c 1.30233,2.52602 4.90798,4.88752 0,7.85714 l 0,24.64286 c 3.37142,2.95931 11.38613,6.05932 0,8.57143 l 0,147.97812"
       id="path10401-68"
       inkscape:connector-curvature="0"
       sodipodi:nodetypes="ccsccccccccc" />
    <path
       style="fill:none;stroke:#000000;stroke-width:1px;stroke-linecap:butt;stroke-linejoin:miter;stroke-opacity:1"
       d="m 130.75722,171.86253 0.0158,83.05922 c 5.25079,2.44882 8.68732,5.10734 -0.032,8.44726 l -0.12307,54.6875 c -0.73565,2.69682 -8.52271,4.25631 0.005,8.44727 l 0.13394,213.93018"
       id="path10401-31"
       inkscape:connector-curvature="0"
       sodipodi:nodetypes="cccccc" />
    <path
       style="fill:none;stroke:#000000;stroke-width:1px;stroke-linecap:butt;stroke-linejoin:miter;stroke-opacity:1"
       d="m 472.04913,150.11955 0,368.57143"
       id="path10401-484"
       inkscape:connector-curvature="0" />
    <path
       style="fill:none;stroke:#000000;stroke-width:1px;stroke-linecap:butt;stroke-linejoin:miter;stroke-opacity:1"
       d="m 238.76099,157.30358 0,102.02289 c -8.27429,-1.68191 -6.93923,3.84319 0,13.57143 l 0,36.42857 c 2.87241,-0.99638 7.19217,-4.62429 0,12.67857 l 0,48.3779 c -0.11643,4.18979 -5.02976,-2.61935 1.61906,13.78074 2.31679,5.71463 0.75676,13.16712 -1.61906,24.22625 l 0,117.48508"
       id="path10401-92"
       inkscape:connector-curvature="0"
       sodipodi:nodetypes="ccccccscc" />
    <path
       style="fill:none;stroke:#000000;stroke-width:1px;stroke-linecap:butt;stroke-linejoin:miter;stroke-opacity:1"
       d="m 156.67813,118.75878 -0.10254,138.78182 c 0.97432,4.35575 7.95771,13.71907 -0.008,10.62493 l -0.0341,46.16101 c -5.65713,6.29124 -7.22993,8.57963 -0.007,9.83367 l 0.15177,163.17"
       id="path10401-07"
       inkscape:connector-curvature="0"
       sodipodi:nodetypes="cccccc" />
    <path
       style="fill:none;stroke:#000000;stroke-width:1px;stroke-linecap:butt;stroke-linejoin:miter;stroke-opacity:1"
       d="m 364.04536,124.84587 0,130.01631 c 4.38572,2.97619 10.11242,5.95238 0,8.92857 l 0,229.62655"
       id="path10401-060"
       inkscape:connector-curvature="0"
       sodipodi:nodetypes="cccc" />
    <path
       style="fill:none;stroke:#000000;stroke-width:1px;stroke-linecap:butt;stroke-linejoin:miter;stroke-opacity:1"
       d="m 52.994502,216.37828 0,368.57143"
       id="path10401-705"
       inkscape:connector-curvature="0" />
    <path
       style="fill:none;stroke:#000000;stroke-width:1px;stroke-linecap:butt;stroke-linejoin:miter;stroke-opacity:1"
       d="m 35.713899,105.84305 0,368.57143"
       id="path10401-67"
       inkscape:connector-curvature="0" />
    <path
       style="fill:none;stroke:#000000;stroke-width:1px;stroke-linecap:butt;stroke-linejoin:miter;stroke-opacity:1"
       d="m 160.99827,140.96817 0,118.89401 c 0.002,4.22736 5.8455,12.83651 0,12.67857 l 0,36.25 c -0.36419,2.05606 1.03639,5.68089 -4.36053,8.28207 -4.01847,1.93679 -3.01841,6.87979 4.36053,4.57508 l 0,187.8917"
       id="path10401-38"
       inkscape:connector-curvature="0"
       sodipodi:nodetypes="ccccscc" />
    <path
       style="fill:none;stroke:#000000;stroke-width:1px;stroke-linecap:butt;stroke-linejoin:miter;stroke-opacity:1"
       d="m 61.6348,191.64868 0,368.57143"
       id="path10401-49"
       inkscape:connector-curvature="0" />
    <path
       style="fill:none;stroke:#000000;stroke-width:1px;stroke-linecap:butt;stroke-linejoin:miter;stroke-opacity:1"
       d="m 497.97005,140.09885 0,368.57143"
       id="path10401-26"
       inkscape:connector-curvature="0" />
    <path
       style="fill:none;stroke:#000000;stroke-width:1px;stroke-linecap:butt;stroke-linejoin:miter;stroke-opacity:1"
       d="m 256.04159,217.15774 0,136.63301 c -0.19786,12.19141 -2.56525,30.97945 1.55659,34.78383 6.92803,6.39444 -0.6453,16.73533 1.16049,26.95142 0.63693,3.60337 0.95818,7.09715 -2.71708,9.8719 l 0,160.33127"
       id="path10401-57"
       inkscape:connector-curvature="0"
       sodipodi:nodetypes="ccsscc" />
    <path
       style="fill:none;stroke:#000000;stroke-width:1px;stroke-linecap:butt;stroke-linejoin:miter;stroke-opacity:1"
       d="m 355.40506,154.22077 0,100.64141 c 2.26166,2.71021 11.6445,4.86408 0,8.66072 l 0,259.2693"
       id="path10401-74"
       inkscape:connector-curvature="0"
       sodipodi:nodetypes="cccc" />
    <path
       style="fill:none;stroke:#000000;stroke-width:1px;stroke-linecap:butt;stroke-linejoin:miter;stroke-opacity:1"
       d="m 502.2902,169.86635 0,368.57143"
       id="path10401-579"
       inkscape:connector-curvature="0" />
    <path
       style="fill:none;stroke:#000000;stroke-width:1px;stroke-linecap:butt;stroke-linejoin:miter;stroke-opacity:1"
       d="m 122.11692,169.79473 0,85.12702 c 0.52676,0.58788 0.71121,1.50218 1.43663,1.9138 1.85923,1.05496 2.19374,2.50511 0.0781,5.1489 -0.70552,0.88165 -0.80139,2.35535 -1.51473,3.85987 -6.79367,18.19142 5.71869,36.22072 -1.28761,51.66874 -1.35657,2.99105 0.1336,5.98496 1.19831,8.99072 l 0.0893,211.86238"
       id="path10401-83"
       inkscape:connector-curvature="0"
       sodipodi:nodetypes="ccsscscc" />
    <path
       style="fill:none;stroke:#000000;stroke-width:1px;stroke-linecap:butt;stroke-linejoin:miter;stroke-opacity:1"
       d="m 18.433294,205.99035 0,368.57143"
       id="path10401-02"
       inkscape:connector-curvature="0" />
    <path
       style="fill:none;stroke:#000000;stroke-width:1px;stroke-linecap:butt;stroke-linejoin:miter;stroke-opacity:1"
       d="m 506.61034,199.33962 0,368.57143"
       id="path10401-23"
       inkscape:connector-curvature="0" />
    <path
       style="fill:none;stroke:#000000;stroke-width:1px;stroke-linecap:butt;stroke-linejoin:miter;stroke-opacity:1"
       d="m 225.80054,204.97065 0,49.35582 c -4.47918,1.19791 -8.57144,2.53401 0,8.39285 l 0,55.89286 c 1.35603,1.57366 10.1702,-2.92969 0,8.03572 l 0,29.71918 c -1.73912,2.28396 -9.58676,-0.71511 0,11.36421 l 0,43.94164 c 3.37451,0.58238 7.10636,0.82975 0,11.23795 l 0,150.6312"
       id="path10401-671"
       inkscape:connector-curvature="0"
       sodipodi:nodetypes="cccccccccc" />
    <path
       style="fill:none;stroke:#000000;stroke-width:1px;stroke-linecap:butt;stroke-linejoin:miter;stroke-opacity:1"
       d="m 178.27887,216.5111 0,368.57143"
       id="path10401-55"
       inkscape:connector-curvature="0" />
    <path
       style="fill:none;stroke:#000000;stroke-width:1px;stroke-linecap:butt;stroke-linejoin:miter;stroke-opacity:1"
       d="m 368.36551,160.55276 0,94.48799 c 1.24453,-0.24446 10.92726,5.10701 0,8.39286 l 0,265.69058"
       id="path10401-402"
       inkscape:connector-curvature="0"
       sodipodi:nodetypes="cccc" />
    <path
       style="fill:none;stroke:#000000;stroke-width:1px;stroke-linecap:butt;stroke-linejoin:miter;stroke-opacity:1"
       d="m 433.16777,136.29196 0,368.57143"
       id="path10401-60"
       inkscape:connector-curvature="0" />
    <path
       style="fill:none;stroke:#000000;stroke-width:1px;stroke-linecap:butt;stroke-linejoin:miter;stroke-opacity:1"
       d="m 139.39752,191.28103 0,63.67044 c 2.34985,2.50676 11.38872,4.2703 0,8.30357 l 0,54.80147 c -1.86734,2.68697 -10.66305,4.89613 0,8.44727 l 0,233.34868"
       id="path10401-61"
       inkscape:connector-curvature="0"
       sodipodi:nodetypes="cccccc" />
    <path
       style="fill:none;stroke:#000000;stroke-width:1px;stroke-linecap:butt;stroke-linejoin:miter;stroke-opacity:1"
       d="m 22.753446,156.68346 0,368.57143"
       id="path10401-11"
       inkscape:connector-curvature="0" />
    <path
       style="fill:none;stroke:#000000;stroke-width:1px;stroke-linecap:butt;stroke-linejoin:miter;stroke-opacity:1"
       d="m 476.36929,156.79624 0,368.57143"
       id="path10401-73"
       inkscape:connector-curvature="0" />
    <path
       style="fill:none;stroke:#000000;stroke-width:1px;stroke-linecap:butt;stroke-linejoin:miter;stroke-opacity:1"
       d="m 104.83631,135.59768 0,368.57143"
       id="path10401-0048"
       inkscape:connector-curvature="0" />
    <path
       style="fill:none;stroke:#000000;stroke-width:1px;stroke-linecap:butt;stroke-linejoin:miter;stroke-opacity:1"
       d="m 294.92295,154.45734 0,129.69056 c -3.14718,-1.61435 -9.07344,-7.8605 0,10.89285 0.70881,2.28156 4.04429,5.51827 0,6.07143 l 0,53.21429 c -5.73564,4.85378 -3.69219,6.59592 0,7.67857 l 0,21.42857 c -0.76071,3.22095 -3.60669,7.27601 0,8.75 l 0,24.82143 c 1.60548,2.40012 7.97532,4.15055 0,7.85714 l 0,98.16659"
       id="path10401-30"
       inkscape:connector-curvature="0"
       sodipodi:nodetypes="ccccccccccc" />
    <path
       style="fill:none;stroke:#000000;stroke-width:1px;stroke-linecap:butt;stroke-linejoin:miter;stroke-opacity:1"
       d="m 135.07737,180.03705 0,74.8847 c 2.69443,2.36267 14.01753,4.32992 0.0158,8.44726 l -0.12931,54.6875 c -1.04873,2.78575 -9.45362,5.36133 0.004,8.44727 l 0.1095,222.1047"
       id="path10401-129"
       inkscape:connector-curvature="0"
       sodipodi:nodetypes="cccccc" />
    <path
       style="fill:none;stroke:#000000;stroke-width:1px;stroke-linecap:butt;stroke-linejoin:miter;stroke-opacity:1"
       d="m 212.84009,171.07589 0,83.25058 c -3.90624,4.11086 -9.81464,8.95584 0,8.03571 l 0,56.25 c 1.67691,2.25788 10.37303,1.75822 0,8.75 l 0,26.10071 c -1.371,2.89489 -11.85122,5.1687 0,8.9651 l 0,54.42197 c 0.51778,2.5528 6.3513,2.79441 0,8.33376 l 0,114.4636"
       id="path10401-03"
       inkscape:connector-curvature="0"
       sodipodi:nodetypes="cccccccccc" />
    <path
       style="fill:none;stroke:#000000;stroke-width:1px;stroke-linecap:butt;stroke-linejoin:miter;stroke-opacity:1"
       d="m 148.00848,133.00884 0.0463,122.21249 c 1.58633,3.10466 9.97998,7.21782 -0.0477,8.60189 l 0.0288,53.703 c -0.81932,2.58039 -10.124,2.22354 0.0386,8.60538 l -0.0363,175.14834"
       id="path10401-88"
       inkscape:connector-curvature="0"
       sodipodi:nodetypes="cccccc" />
    <path
       style="fill:none;stroke:#000000;stroke-width:1px;stroke-linecap:butt;stroke-linejoin:miter;stroke-opacity:1"
       d="m 230.12069,207.39281 0,48.00509 c -0.78663,2.3606 -10.61068,-0.29959 0,8.39285 l 0,53.03572 c 2.84712,0.54448 8.03355,-0.95793 0,9.10714 l 0,33.71646 c -1.96288,1.38608 -8.59142,-4.638 0,13.51079 l 0,32.70369 c 1.21422,3.01667 7.02916,0.23984 0,13.63706 l 0,156.46263"
       id="path10401-577"
       inkscape:connector-curvature="0"
       sodipodi:nodetypes="cccccccccc" />
    <path
       style="fill:none;stroke:#000000;stroke-width:1px;stroke-linecap:butt;stroke-linejoin:miter;stroke-opacity:1"
       d="m 402.92671,203.3626 0,51.85672 c -1.45647,2.61719 -10.92355,4.4057 0,8.30358 l 0,308.41113"
       id="path10401-08"
       inkscape:connector-curvature="0"
       sodipodi:nodetypes="cccc" />
    <path
       style="fill:none;stroke:#000000;stroke-width:1px;stroke-linecap:butt;stroke-linejoin:miter;stroke-opacity:1"
       d="m 446.12824,178.33839 0,368.57143"
       id="path10401-93"
       inkscape:connector-curvature="0" />
    <path
       style="fill:none;stroke:#000000;stroke-width:1px;stroke-linecap:butt;stroke-linejoin:miter;stroke-opacity:1"
       d="m 281.96249,188.51795 0,77.05852 c -8.459,-6.38835 -2.15689,8.13488 0,16.78571 l 0,274.7272"
       id="path10401-074"
       inkscape:connector-curvature="0"
       sodipodi:nodetypes="cccc" />
    <path
       style="fill:none;stroke:#000000;stroke-width:1px;stroke-linecap:butt;stroke-linejoin:miter;stroke-opacity:1"
       d="m 450.44838,200.64301 0,368.57143"
       id="path10401-78"
       inkscape:connector-curvature="0" />
    <path
       style="fill:none;stroke:#000000;stroke-width:1px;stroke-linecap:butt;stroke-linejoin:miter;stroke-opacity:1"
       d="m 351.08492,139.36037 0,115.5911 c 0.51352,2.77708 4.78854,5.40369 0,8.39285 l 0,244.58748"
       id="path10401-371"
       inkscape:connector-curvature="0"
       sodipodi:nodetypes="cccc" />
    <path
       style="fill:none;stroke:#000000;stroke-width:1px;stroke-linecap:butt;stroke-linejoin:miter;stroke-opacity:1"
       d="m 70.275107,207.89848 0,368.57143"
       id="path10401-008"
       inkscape:connector-curvature="0" />
    <path
       style="fill:none;stroke:#000000;stroke-width:1px;stroke-linecap:butt;stroke-linejoin:miter;stroke-opacity:1"
       d="m 389.96627,100.20102 0,154.57188 c -2.77096,3.40734 -7.05282,7.13093 0,8.48214 l 0,205.51741"
       id="path10401-345"
       inkscape:connector-curvature="0"
       sodipodi:nodetypes="cccc" />
    <path
       style="fill:none;stroke:#000000;stroke-width:1px;stroke-linecap:butt;stroke-linejoin:miter;stroke-opacity:1"
       d="m 264.68189,175.6112 0,79.42955 c 0.0211,11.37214 0.0664,22.57366 2.48593,33.55563 2.14618,9.74146 2.66095,21.23354 -2.48593,37.5158 l 0,27.67857 c 0.8446,4.32721 2.5552,19.9017 -1.66164,18.87449 -6.75673,-1.64592 4.31784,11.99249 4.37499,21.50453 0.0382,6.3553 0.63908,13.77226 -1.88801,20.26135 -1.24721,3.2026 -0.68075,7.271 -0.82534,10.7882 l 0,118.96331"
       id="path10401-01"
       inkscape:connector-curvature="0"
       sodipodi:nodetypes="ccsccssscc" />
    <path
       style="fill:none;stroke:#000000;stroke-width:1px;stroke-linecap:butt;stroke-linejoin:miter;stroke-opacity:1"
       d="m 398.60657,203.28555 0,51.48735 c -0.632,2.81609 -11.19464,5.45485 0,8.48214 l 0,308.60194"
       id="path10401-45"
       inkscape:connector-curvature="0"
       sodipodi:nodetypes="cccc" />
    <path
       style="fill:none;stroke:#000000;stroke-width:1px;stroke-linecap:butt;stroke-linejoin:miter;stroke-opacity:1"
       d="m 269.00204,106.56611 0,147.93893 c -1.62973,6.45439 -2.88685,12.00127 1.06674,26.29691 2.80824,10.15421 3.71442,21.65048 0.22617,33.12509 -1.23246,4.05418 -5.40169,8.67927 -1.29291,12.18514 l 0,149.02536"
       id="path10401-62"
       inkscape:connector-curvature="0"
       sodipodi:nodetypes="ccsscc" />
    <path
       style="fill:none;stroke:#000000;stroke-width:1px;stroke-linecap:butt;stroke-linejoin:miter;stroke-opacity:1"
       d="m 510.93052,197.57152 0,368.57143"
       id="path10401-035"
       inkscape:connector-curvature="0" />
    <path
       style="fill:none;stroke:#000000;stroke-width:1px;stroke-linecap:butt;stroke-linejoin:miter;stroke-opacity:1"
       d="m 437.48792,187.03289 0,368.57143"
       id="path10401-66"
       inkscape:connector-curvature="0" />
    <path
       style="fill:none;stroke:#000000;stroke-width:1px;stroke-linecap:butt;stroke-linejoin:miter;stroke-opacity:1"
       d="m 312.20355,100.03198 0,154.56223 c 1.89242,14.45537 -1.82938,26.16575 1.10489,36.50752 2.87817,10.14402 3.9508,18.13572 -1.10489,19.05087 4.33892,6.38292 11.51933,13.38355 0.14793,16.35118 l -0.0286,27.46592 c -5.34285,2.91641 -7.89369,5.83283 -0.009,8.74924 l -0.0223,21.42911 c -0.19109,1.85227 2.12214,3.90555 0.57852,4.82065 -2.81111,1.6665 -0.0762,2.0784 -0.58726,3.57238 l -0.0256,24.64191 c 2.54927,2.75511 8.62097,5.36932 -0.009,8.5716 l -0.0446,42.84882"
       id="path10401-676"
       inkscape:connector-curvature="0"
       sodipodi:nodetypes="ccscccccscccc" />
    <path
       style="fill:none;stroke:#000000;stroke-width:1px;stroke-linecap:butt;stroke-linejoin:miter;stroke-opacity:1"
       d="m 143.71767,223.96277 -0.0609,31.00833 c 1.23086,2.68602 9.57668,4.51824 0.16036,8.48191 l -0.29181,54.52655 c -0.27613,2.82414 -11.0788,5.44967 0.0147,8.48832 l 0.1777,266.06632"
       id="path10401-77"
       inkscape:connector-curvature="0"
       sodipodi:nodetypes="cccccc" />
    <path
       style="fill:none;stroke:#000000;stroke-width:1px;stroke-linecap:butt;stroke-linejoin:miter;stroke-opacity:1"
       d="m 277.64234,163.10492 0,95.8644 c -0.66765,3.56898 -5.29738,-2.76726 0,15.71429 l 0,256.99274"
       id="path10401-19"
       inkscape:connector-curvature="0"
       sodipodi:nodetypes="cccc" />
    <path
       style="fill:none;stroke:#000000;stroke-width:1px;stroke-linecap:butt;stroke-linejoin:miter;stroke-opacity:1"
       d="m 290.6028,190.4987 0,88.6492 c -11.52108,-13.03478 -6.94893,-1.64207 -1.89185,6.73576 2.23445,3.70172 1.86666,6.53773 1.89185,8.26424 l 0,60 c -2.01093,3.31598 -1.92621,7.3581 -0.90347,11.61042 2.8169,11.71197 1.7799,21.44795 0.92699,30.73572 -0.65218,7.10205 -5.74057,16.77145 0.1718,21.20303 4.81,3.60531 2.85413,5.65898 -0.19532,7.52225 l 0,133.85081"
       id="path10401-16"
       inkscape:connector-curvature="0"
       sodipodi:nodetypes="ccsccssscc" />
    <path
       style="fill:none;stroke:#000000;stroke-width:1px;stroke-linecap:butt;stroke-linejoin:miter;stroke-opacity:1"
       d="m 117.79677,221.04447 0.11807,33.87728 c 0.50693,3.02829 3.80453,4.02996 -0.18602,9.38586 -0.59821,0.80287 -0.14319,2.10356 -0.25201,3.35627 -1.54792,17.81956 4.39767,31.27773 -1.33735,51.25626 -0.77309,2.69312 0.98513,5.31838 1.7466,7.58364 l -0.0893,263.11212"
       id="path10401-27"
       inkscape:connector-curvature="0"
       sodipodi:nodetypes="ccssscc" />
    <path
       style="fill:none;stroke:#000000;stroke-width:1px;stroke-linecap:butt;stroke-linejoin:miter;stroke-opacity:1"
       d="m 48.674352,211.89002 0,368.57143"
       id="path10401-276"
       inkscape:connector-curvature="0" />
    <path
       style="fill:none;stroke:#000000;stroke-width:1px;stroke-linecap:butt;stroke-linejoin:miter;stroke-opacity:1"
       d="m 204.19979,106.49492 0,150.68869 c -4.1348,6.34356 -7.55061,12.11192 0,9.10714 l 0,48.39286 c 4.01038,5.56317 8.06929,11.1562 0,9.28571 l 0,29.99865 c -2.46248,2.42011 -9.7293,3.97791 0,8.58629 l 0,54.67451 c 3.46831,2.63673 7.92946,5.2451 0,8.20749 l 0,49.63009"
       id="path10401-51"
       inkscape:connector-curvature="0"
       sodipodi:nodetypes="cccccccccc" />
    <path
       style="fill:none;stroke:#000000;stroke-width:1px;stroke-linecap:butt;stroke-linejoin:miter;stroke-opacity:1"
       d="m 303.56325,198.71572 0,101.33535 c 0.51261,4.91261 14.52949,21.70897 0,13.38453 l 0,39.81944 c -1.30715,3.29236 -6.93539,7.03956 0,9.46428 l 0,22.85715 c -3.88871,2.5559 -6.4492,4.99105 0,6.60714 l 0,25.53571 c 4.25301,2.67857 1.69271,5.35715 0,8.03572 l 0,141.53211"
       id="path10401-39"
       inkscape:connector-curvature="0"
       sodipodi:nodetypes="cccccccccc" />
    <path
       style="fill:none;stroke:#000000;stroke-width:1px;stroke-linecap:butt;stroke-linejoin:miter;stroke-opacity:1"
       d="m 91.875856,149.36632 0,368.57143"
       id="path10401-95"
       inkscape:connector-curvature="0" />
    <path
       style="fill:none;stroke:#000000;stroke-width:1px;stroke-linecap:butt;stroke-linejoin:miter;stroke-opacity:1"
       d="m 44.354199,161.01352 0,368.57143"
       id="path10401-926"
       inkscape:connector-curvature="0" />
    <path
       style="fill:none;stroke:#000000;stroke-width:1px;stroke-linecap:butt;stroke-linejoin:miter;stroke-opacity:1"
       d="m 338.12447,93.201276 0,162.018044 c 0.0937,8.57286 4.43525,22.60723 0,25.35715 l 0,181.19624"
       id="path10401-532"
       inkscape:connector-curvature="0"
       sodipodi:nodetypes="cccc" />
    <path
       style="fill:none;stroke:#000000;stroke-width:1px;stroke-linecap:butt;stroke-linejoin:miter;stroke-opacity:1"
       d="m 381.32598,105.8832 0,149.33612 c -0.0231,3.97247 -2.4032,8.91996 -0.46598,11.68877 5.8075,8.30047 -1.3866,20.14272 1.49797,31.52128 2.31685,9.13911 -0.0982,18.80054 -1.03199,28.03995 l 0,147.98531"
       id="path10401-44"
       inkscape:connector-curvature="0"
       sodipodi:nodetypes="ccsscc" />
    <path
       style="fill:none;stroke:#000000;stroke-width:1px;stroke-linecap:butt;stroke-linejoin:miter;stroke-opacity:1"
       d="m 346.76477,98.203916 0,368.571434"
       id="path10401-42"
       inkscape:connector-curvature="0" />
    <path
       style="fill:none;stroke:#000000;stroke-width:1px;stroke-linecap:butt;stroke-linejoin:miter;stroke-opacity:1"
       d="m 113.47662,105.30596 0,368.57143"
       id="path10401-79"
       inkscape:connector-curvature="0" />
    <path
       style="fill:none;stroke:#000000;stroke-width:1px;stroke-linecap:butt;stroke-linejoin:miter;stroke-opacity:1"
       d="m 57.314653,96.440516 0,368.571434"
       id="path10401-237"
       inkscape:connector-curvature="0" />
    <path
       style="fill:none;stroke:#000000;stroke-width:1px;stroke-linecap:butt;stroke-linejoin:miter;stroke-opacity:1"
       d="m 377.00583,108.92393 0,146.02754 c 1.33218,0.32822 4.35825,3.42881 0.40056,7.66583 -0.2588,0.27706 -0.0565,-0.39942 0,0 0.41282,2.91894 0.45338,3.82529 0.78939,5.0092 1.90509,6.71327 -2.99703,14.9014 0.59367,24.02011 4.63431,11.76902 -1.77904,25.87635 -1.78358,34.912 l 0,150.93675"
       id="path10401-315"
       inkscape:connector-curvature="0"
       sodipodi:nodetypes="ccsssscc" />
    <path
       style="fill:none;stroke:#000000;stroke-width:1px;stroke-linecap:butt;stroke-linejoin:miter;stroke-opacity:1"
       d="m 325.16399,141.46764 0,212.68026 c -10.83022,4.6649 -1.59939,5.87099 0,8.39285 l 0,55.17857 c 9.24665,6.78819 2.8711,6.63319 0,8.03572 l 0,84.28403"
       id="path10401-785"
       inkscape:connector-curvature="0"
       sodipodi:nodetypes="cccccc" />
    <path
       style="fill:none;stroke:#000000;stroke-width:1px;stroke-linecap:butt;stroke-linejoin:miter;stroke-opacity:1"
       d="m 372.68567,147.87173 0,107.16902 c -1.65336,0.0445 8.40425,1.99921 0,8.57143 l 0,252.83098"
       id="path10401-832"
       inkscape:connector-curvature="0"
       sodipodi:nodetypes="cccc" />
    <path
       style="fill:none;stroke:#000000;stroke-width:1px;stroke-linecap:butt;stroke-linejoin:miter;stroke-opacity:1"
       d="m 40.034048,175.85165 0,368.57143"
       id="path10401-41"
       inkscape:connector-curvature="0" />
    <path
       style="fill:none;stroke:#000000;stroke-width:1px;stroke-linecap:butt;stroke-linejoin:miter;stroke-opacity:1"
       d="m 173.95873,193.05433 0,87.70071 c -1.85279,11.53609 -7.8282,34.50308 0,19.19643 l 0,261.67429"
       id="path10401-15"
       inkscape:connector-curvature="0"
       sodipodi:nodetypes="cccc" />
    <path
       style="fill:none;stroke:#000000;stroke-width:1px;stroke-linecap:butt;stroke-linejoin:miter;stroke-opacity:1"
       d="m 87.555708,148.74164 0,368.57143"
       id="path10401-951"
       inkscape:connector-curvature="0" />
    <path
       style="fill:none;stroke:#000000;stroke-width:1px;stroke-linecap:butt;stroke-linejoin:miter;stroke-opacity:1"
       d="m 359.7252,160.02864 0,95.19068 c 5.5217,2.54351 10.13227,5.11421 0,8.125 l 0,265.25575"
       id="path10401-064"
       inkscape:connector-curvature="0"
       sodipodi:nodetypes="cccc" />
    <path
       style="fill:none;stroke:#000000;stroke-width:1px;stroke-linecap:butt;stroke-linejoin:miter;stroke-opacity:1"
       d="m 385.64611,98.034146 0,157.185174 c -0.76431,3.31792 -5.43799,9.60156 0,8.21429 l 0,203.17197"
       id="path10401-530"
       inkscape:connector-curvature="0"
       sodipodi:nodetypes="cccc" />
    <path
       style="fill:none;stroke:#000000;stroke-width:1px;stroke-linecap:butt;stroke-linejoin:miter;stroke-opacity:1"
       d="m 329.48416,236.6479 0,117.32142 c -10.16652,7.52703 -2.69769,6.54043 0,7.85715 l 0,55 c 2.06615,2.91667 6.06927,5.83333 0,8.75 l 0,179.64286"
       id="path10401-89"
       inkscape:connector-curvature="0"
       sodipodi:nodetypes="cccccc" />
    <path
       style="fill:none;stroke:#000000;stroke-width:1px;stroke-linecap:butt;stroke-linejoin:miter;stroke-opacity:1"
       d="m 299.24311,245.21933 0,46.96428 c -2.06211,-1.3178 -5.60575,-1.82796 -0.35714,5.53571 0.88042,5.11482 5.11081,11.30982 0.35714,10.35715 l 0,45.89285 c -3.73733,2.79762 -1.21765,5.59524 0,8.39286 l 0,22.32143 c -3.51198,3.67066 -6.3128,7.10427 0,7.5 l 0,24.28571 c 2.09891,3.22642 5.22405,6.51698 0,9.28572 l 0,188.03572"
       id="path10401-134"
       inkscape:connector-curvature="0"
       sodipodi:nodetypes="ccccccccccc" />
    <path
       style="fill:none;stroke:#000000;stroke-width:1px;stroke-linecap:butt;stroke-linejoin:miter;stroke-opacity:1"
       d="m 247.40128,242.36219 0,25.17856 c -8.2291,-3.89947 -5.17564,7.14118 0.67085,21.7859 2.98938,7.48804 -0.29081,16.54848 -0.67085,23.39267 l 0,298.2143"
       id="path10401-746"
       inkscape:connector-curvature="0"
       sodipodi:nodetypes="ccscc" />
    <path
       style="fill:none;stroke:#000000;stroke-width:1px;stroke-linecap:butt;stroke-linejoin:miter;stroke-opacity:1"
       d="m 221.48039,242.36219 0,10.71428 c -1.61767,2.79762 -6.34425,5.59524 0,8.39285 l 0,58.03572 c 2.69612,1.00021 10.57376,-1.45393 0,8.39286 l 0,27.08022 c -4.24712,1.19057 -5.48433,3.8342 0,9.72272 l 0,49.87628 c 5.31344,0.74887 5.79394,3.84099 0,9.97526 l 0,186.38124"
       id="path10401-36"
       inkscape:connector-curvature="0"
       sodipodi:nodetypes="cccccccccc" />
    <path
       style="fill:none;stroke:#000000;stroke-width:1px;stroke-linecap:butt;stroke-linejoin:miter;stroke-opacity:1"
       d="m 165.31842,242.36219 0,20.62499 c -0.77235,6.96552 -1.38723,7.34295 3.21398,17.43733 1.40984,3.09299 -0.14933,5.84922 -3.21398,5.68767 l 0,7.58929 c 1.0965,-1.1714 1.32039,4.62197 -0.13798,10.35108 -0.4387,1.72341 -0.55728,3.52788 -1.19617,5.05818 -0.71373,1.70957 -0.80278,3.58593 -1.73117,4.72245 -5.02165,6.14748 -2.06441,7.3003 3.06532,4.60043 l 0,292.50001"
       id="path10401-52"
       inkscape:connector-curvature="0"
       sodipodi:nodetypes="ccsccssscc" />
    <path
       style="fill:none;stroke:#000000;stroke-width:1px;stroke-linecap:butt;stroke-linejoin:miter;stroke-opacity:1"
       d="m 109.15647,242.36219 0,368.57143"
       id="path10401-81"
       inkscape:connector-curvature="0" />
    <path
       style="fill:none;stroke:#000000;stroke-width:1px;stroke-linecap:butt;stroke-linejoin:miter;stroke-opacity:1"
       d="m 78.915403,236.6479 0,368.57143"
       id="path10401-031"
       inkscape:connector-curvature="0" />
    <path
       style="fill:none;stroke:#000000;stroke-width:1px;stroke-linecap:butt;stroke-linejoin:miter;stroke-opacity:1"
       d="m 74.595252,236.6479 0,368.57143"
       id="path10401-552"
       inkscape:connector-curvature="0" />
    <path
       style="fill:none;stroke:#000000;stroke-width:1px;stroke-linecap:butt;stroke-linejoin:miter;stroke-opacity:1"
       d="m 428.84763,187.24437 0,368.57143"
       id="path10401-217"
       inkscape:connector-curvature="0" />
    <path
       style="fill:none;stroke:#000000;stroke-width:1px;stroke-linecap:butt;stroke-linejoin:miter;stroke-opacity:1"
       d="m 441.80808,179.3153 0,368.57143"
       id="path10401-482"
       inkscape:connector-curvature="0" />
    <path
       style="fill:none;stroke:#000000;stroke-width:1px;stroke-linecap:butt;stroke-linejoin:miter;stroke-opacity:1"
       d="m 515.25065,116.20943 0,368.57143"
       id="path10401-363"
       inkscape:connector-curvature="0" />
    <path
       style="fill:none;stroke:#000000;stroke-width:1px;stroke-linecap:butt;stroke-linejoin:miter;stroke-opacity:1"
       d="m 480.68943,205.01496 0,368.57143"
       id="path10401-0352"
       inkscape:connector-curvature="0" />
    <path
       style="fill:none;stroke:#000000;stroke-width:1px;stroke-linecap:butt;stroke-linejoin:miter;stroke-opacity:1"
       d="m 463.40884,150.71894 0,368.57143"
       id="path10401-80"
       inkscape:connector-curvature="0" />
    <path
       style="fill:none;stroke:#000000;stroke-width:1px;stroke-linecap:butt;stroke-linejoin:miter;stroke-opacity:1"
       d="m 234.44084,163.07717 0,93.57073 c -5.95238,0.35714 -5.95238,4.04761 0,11.07142 l 0,46.42858 c 4.04662,-1.56543 7.61752,-2.54096 0,10.35714 l 0,39.31191 c -0.90461,2.9124 -6.06879,-6.02792 0,16.28871 0.27601,12.05283 4.50023,23.11861 0,36.36549 l 0,115.17745"
       id="path10401-72"
       inkscape:connector-curvature="0"
       sodipodi:nodetypes="ccccccccc" />
    <path
       style="fill:none;stroke:#000000;stroke-width:1px;stroke-linecap:butt;stroke-linejoin:miter;stroke-opacity:1"
       d="m 126.43706,119.80327 0,135.11848 c 3.0743,2.77329 4.531,5.67348 0,8.44726 l 0.17857,54.6875 c -0.1107,2.7589 -3.96588,3.94117 -0.009,8.41281 l -0.16975,161.90538"
       id="path10401-486"
       inkscape:connector-curvature="0"
       sodipodi:nodetypes="cccccc" />
    <path
       style="fill:none;stroke:#000000;stroke-width:1px;stroke-linecap:butt;stroke-linejoin:miter;stroke-opacity:1"
       d="m 273.3222,102.74548 0,153.00956 -1.60714,2.67857 c 2.06585,8.49216 -0.0514,7.22633 0.23702,13.41008 0.56264,12.06401 1.76285,28.93073 1.37012,36.94706 -0.32034,5.99404 -6.44645,15.97956 0,17.32143 l 0,145.20473"
       id="path10401-09"
       inkscape:connector-curvature="0"
       sodipodi:nodetypes="cccsccc" />
    <path
       style="fill:none;stroke:#000000;stroke-width:1px;stroke-linecap:butt;stroke-linejoin:miter;stroke-opacity:1"
       d="m 217.16023,93.769856 0,160.378044 c -1.16542,2.73004 -7.83794,5.98456 0,7.85714 l 0,56.96428 c 2.33862,1.95856 10.78648,1.8807 0,8.21429 l 0,27.16316 c -0.81244,2.57003 -10.82906,2.308 0,8.46003 l 0,53.79062 c 6.89583,-0.18586 6.22913,2.92476 0,8.46003 l 0,37.28384"
       id="path10401-300"
       inkscape:connector-curvature="0"
       sodipodi:nodetypes="cccccccccc" />
    <path
       style="fill:none;stroke:#000000;stroke-width:1px;stroke-linecap:butt;stroke-linejoin:miter;stroke-opacity:1"
       d="m 169.63857,137.40724 0,130.93708 c 2.32741,13.30397 0.48236,22.32067 -1.68537,29.90461 -2.23998,7.8367 -4.48706,19.23611 1.68537,14.20254 l 0,193.5272"
       id="path10401-87"
       inkscape:connector-curvature="0"
       sodipodi:nodetypes="ccscc" />
    <path
       style="fill:none;stroke:#000000;stroke-width:1px;stroke-linecap:butt;stroke-linejoin:miter;stroke-opacity:1"
       d="m 243.08113,102.3312 0,160.74527 c -10.91499,-3.99953 -4.73379,7.58865 0,17.85714 l 0,19.82143 c 2.48386,2.37484 6.20932,3.05066 0,17.32143 l 0,152.82616"
       id="path10401-63"
       inkscape:connector-curvature="0"
       sodipodi:nodetypes="cccccc" />
    <flowRoot
       xml:space="preserve"
       id="flowRoot11576"
       style="fill:black;stroke:none;stroke-opacity:1;stroke-width:1px;stroke-linejoin:miter;stroke-linecap:butt;fill-opacity:1;font-family:Sans;font-style:normal;font-weight:normal;font-size:40px;line-height:125%;letter-spacing:0px;word-spacing:0px"><flowRegion
         id="flowRegion11578"><rect
           id="rect11580"
           width="382.85715"
           height="205.71428"
           x="68.571426"
           y="232.36218" /></flowRegion><flowPara
         id="flowPara11582"></flowPara></flowRoot>    <flowRoot
       style="fill:black;stroke:none;stroke-opacity:1;stroke-width:1px;stroke-linejoin:miter;stroke-linecap:butt;fill-opacity:1;font-family:Sans;font-style:normal;font-weight:normal;font-size:40px;line-height:125%;letter-spacing:0px;word-spacing:0px"
       id="flowRoot11584"
       xml:space="preserve"><flowRegion
         id="flowRegion11586"><rect
           y="232.36218"
           x="68.571426"
           height="205.71428"
           width="382.85715"
           id="rect11588" /></flowRegion><flowPara
         id="flowPara11590"></flowPara></flowRoot>    <g
       transform="translate(-13.059495,-15.428571)"
       style="font-size:40px;font-style:normal;font-weight:normal;text-align:center;line-height:125%;letter-spacing:0px;word-spacing:0px;text-anchor:middle;fill:none;stroke:#ff0000;stroke-opacity:1;font-family:Sans"
       id="flowRoot11592" />
  </g>
</svg>
