<?xml version="1.0" encoding="UTF-8" standalone="no"?>
<!-- Created for Inkscape (http://www.inkscape.org/) -->

<svg
   xmlns:dc="http://purl.org/dc/elements/1.1/"
   xmlns:cc="http://creativecommons.org/ns#"
   xmlns:rdf="http://www.w3.org/1999/02/22-rdf-syntax-ns#"
   xmlns:svg="http://www.w3.org/2000/svg"
   xmlns="http://www.w3.org/2000/svg"
   xmlns:sodipodi="http://sodipodi.sourceforge.net/DTD/sodipodi-0.dtd"
   xmlns:inkscape="http://www.inkscape.org/namespaces/inkscape"
   width="3200"
   height="800"
   id="svg2985"
   version="1.1"
   inkscape:version="0.48.1 r9760">
  <defs
     id="defs2987" />
  <sodipodi:namedview
     id="base"
     pagecolor="#ffffff"
     bordercolor="#666666"
     borderopacity="1.0"
     inkscape:pageopacity="0.0"
     inkscape:pageshadow="2"
     inkscape:zoom="0.35"
     inkscape:cx="1600"
     inkscape:cy="400"
     inkscape:document-units="px"
     inkscape:current-layer="layer1"
     showgrid="false"  />
  <metadata
     id="metadata2990">
    <rdf:RDF>
      <cc:Work
         rdf:about="">
        <dc:format>image/svg+xml</dc:format>
        <dc:type
           rdf:resource="http://purl.org/dc/dcmitype/StillImage" />
        <dc:title />
      </cc:Work>
    </rdf:RDF>
  </metadata>
  <g
     inkscape:label="Layer 1"
     inkscape:groupmode="layer"
     id="layer1"> 
     <g>
<path style="fill:none;stroke:black;stroke-width:2px;stroke-linejoin:round;stroke-linecap:round;" d="M 
1608.6852 93.6248
1618.9982 83.72128
1617.9978 75.01052
1613.2863 64.69097
1615.8522 46.637707
1623.9783 67.71605
1639.7803 57.658394
1632.5962 67.47453
1630.6677 81.740616
1637.2737 89.86798
1628.5913 96.97945
1627.533 105.98315
1620.6476 92.97443
1615.5078 103.48116
1600.7952 105.65416
1609.0408 113.61662
1599.7242 120.914734
1593.6532 133.68701
1603.6807 149.53407
1599.9761 165.05911
1620.8848 163.93846
1638.295 177.41248
1629.6265 200.59534
1616.8423 191.2457
1598.546 181.84839
1574.058 161.69661
1575.7483 137.30524
1566.9741 125.02394
1552.1506 133.7093
1550.0593 154.72127
1527.3661 155.1459
1529.6205 137.61943
1524.7236 121.12735
1538.5942 125.75072
1535.457 110.21983
1553.6254 117.06044
1547.8542 102.634155
1563.5798 102.33836
1563.4539 79.15626
1571.8723 86.174095
1575.3206 94.661804
1573.4575 111.873474
1584.7985 121.301575
1587.2131 109.27047
1582.0177 99.48688
1594.287 99.28466
1590.1327 90.55312
1601.2166 85.74361
1608.9438 78.997574
1588.5048 81.560165
1595.0767 72.40982
1603.1233 64.38719
1589.0266 59.617867
1579.6477 72.95894
1568.7697 63.09366
1553.4299 70.55682
1551.0435 88.511505
1538.2909 72.00777
1532.3475 90.73873
1513.6376 85.11238
1521.5674 104.09656
1508.4993 96.84072
1497.0515 101.61951
1489.11 109.96053
1490.5308 120.95386
1484.1483 133.47736
1488.9231 145.55594
1496.8585 135.98204
1501.3358 126.49147
1499.8413 115.36773
1506.2174 107.15837
1511.616 115.21731
1513.3302 124.74161
1513.5059 135.05
1507.0316 147.07489
1511.5042 162.45934
1502.7822 176.63065
1511.4995 191.25412
1519.0475 208.48521
1500.536 224.48984
1495.1937 206.54918
1490.7241 189.65161
1476.1261 199.57397
1461.359 206.34033
1475.513 223.26468
1470.1881 245.93954
1453.6968 231.05743
1445.2828 215.73923
1432.9552 237.9793
1424.1294 228.1685
1419.008 215.23047
1432.2876 204.8314
1436.0435 189.98096
1453.3142 191.67087
1453.5873 175.94382
1462.8967 166.41696
1471.3928 181.31467
1485.6891 173.99052
1494.4897 161.38004
1481.4976 153.3183
1472.9595 160.73174
1469.6377 145.1318
1470.3572 133.15222
1454.0828 153.83363
1432.1368 156.09851
1437.908 171.1305
1420.5339 175.43875
1414.0929 195.80467
1384.5594 193.66858
1377.1736 243.2038
1362.0371 202.76703
1337.0955 204.51811
1348.3405 186.29593
1333.4243 184.16899
1321.4607 180.78848
1307.5056 179.65508
1312.2709 200.56493
1293.5673 189.25061
1276.3687 206.97282
1276.2288 176.21739
1291.2838 172.42258
1303.8422 161.9264
1317.6014 164.58415
1330.4023 166.67441
1344.8065 170.42145
1360.0637 176.06566
1375.0784 177.51328
1374.3301 163.33258
1357.438 156.22144
1375.8342 146.45561
1392.0159 172.34058
1396.1399 155.03268
1392.3773 132.58197
1416.023 137.73149
1443.3994 140.10828
1456.9675 134.01974
1464.546 119.88826
1477.9036 121.2948
1474.3884 107.83068
1483.7881 99.72762
1482.2473 89.12109
1474.8333 79.90652
1484.3057 72.71222
1486.9368 41.80885
1492.4222 63.8482
1496.2227 89.00523
1499.1118 76.50299
1504.3328 59.745087
1518.146 70.75441
1518.0901 54.497345
1531.3898 52.95492
1549.9434 43.94859
1577.7574 24.855274
1518.9233 15.591154
1500.1973 20.16441
1466.7598 20.860512
1437.4423 15.081541
1434.1516 33.163692
1450.4324 41.42443
1463.4266 57.298584
1433.7406 60.118523
1413.5945 24.917274
1398.8179 15.31158
1385.1205 26.36184
1376.4838 47.954956
1402.124 51.8426
1412.692 78.75815
1439.7278 83.15195
1462.5604 83.6861
1465.6019 96.38411
1457.5377 107.1431
1449.2156 120.52054
1427.7833 105.084015
1400.8317 104.252396
1382.9741 76.409966
1354.2341 62.580444
1349.709 38.307808
1356.0778 17.305408
1320.8142 34.899506
1289.8701 50.317482
1279.2102 20.654728
1239.7286 25.936615
1221.7144 69.5182
1263.7867 91.797264
1306.6138 85.323265
1342.5804 84.5497
1371.4214 117.483635
1342.8542 125.7305
1337.4978 150.82388
1308.9998 135.07283
1281.7715 148.66458
1258.276 157.90413
1224.9156 137.17957
1236.8977 174.84479
1265.367 184.81784
1251.6523 185.99437
1234.0693 198.94113
1215.3418 185.09958
1192.0283 192.33398
1159.1124 190.07646
1184.2233 156.37537
1168.9283 108.146385
1180.8643 34.94118
1121.4161 56.2817
1101.3064 159.8223
1137.2295 233.47997
1192.8555 238.1904
1230.6392 260.97287
1265.0961 296.08212
1306.932 276.7807
1319.284 240.75467
1345.3838 265.1823
1374.2365 279.37213
1354.4949 332.73404
1355.249 393.56198
1379.5669 442.16525
1445.1913 448.03546
1454.3105 460.76776
1453.3633 477.47922
1470.846 458.01996
1471.3057 469.91077
1468.5652 479.65662
1470.6316 490.28635
1458.3005 498.61923
1473.435 502.87265
1470.5632 517.48773
1461.3481 538.393
1465.1921 556.54944
1467.4003 571.2286
1477.5554 578.76794
1485.0686 569.4209
1481.1292 559.1543
1479.8127 544.8122
1482.2749 529.3756
1481.8472 515.7513
1484.8937 505.9856
1484.0677 496.08737
1488.6248 488.53308
1481.6146 482.917
1484.9719 474.70654
1497.1799 482.76938
1495.2319 475.156
1499.1583 468.4994
1506.875 467.78967
1508.1841 476.9961
1517.7043 481.33408
1529.3441 481.4867
1541.2068 483.4857
1545.6597 492.91986
1536.1311 497.9718
1542.7512 507.52472
1565.771 509.9381
1553.4907 515.3979
1543.3944 528.7965
1557.6241 532.8805
1565.3403 547.6237
1579.2925 548.98804
1573.6273 536.94836
1575.355 523.7902
1581.2207 510.4154
1590.3002 500.4317
1571.0425 493.9334
1555.9683 498.52267
1556.4794 484.86572
1565.7334 475.99078
1580.5604 482.0642
1593.948 483.34833
1598.0417 468.7022
1591.4873 460.10956
1595.2449 448.95856
1584.7368 434.90292
1582.053 421.01996
1562.5632 434.5101
1541.5795 428.2721
1546.5369 411.39893
1557.613 402.54248
1561.3245 419.06097
1571.1707 406.40747
1576.4337 391.7258
1561.2908 391.4231
1559.6638 379.70697
1561.9287 363.98007
1568.6772 348.37402
1573.278 333.5638
1568.0166 320.71698
1566.4663 308.53778
1554.7439 312.11566
1543.5288 309.04205
1538.8397 325.964
1553.8237 323.72247
1555.0364 336.2675
1546.7483 346.77753
1545.587 359.0222
1546.3181 373.31418
1538.977 383.7633
1547.1218 391.75717
1534.8202 398.80505
1532.671 410.65903
1523.3325 419.24896
1515.9412 429.46335
1526.3062 436.0859
1529.6694 447.52216
1537.5588 453.9552
1543.2903 443.39746
1552.8162 450.57687
1566.5508 452.8416
1577.0256 446.37753
1580.4673 461.90842
1570.7728 463.98044
1560.6328 461.6657
1551.4835 460.80115
1550.5677 472.4845
1542.4087 462.45032
1534.1674 470.49106
1528.7223 461.97626
1518.4012 468.18866
1520.4724 454.6894
1517.7468 445.2563
1508.0569 442.4989
1507.0787 421.2375
1494.8694 417.3209
1485.194 421.4319
1474.5612 419.7109
1478.2218 427.70337
1488.691 432.07367
1501.2402 433.49646
1494.0383 446.44885
1507.5571 451.21008
1510.356 459.1679
1499.6011 456.4301
1491.9531 459.18222
1490.8594 467.37488
1481.7966 464.7121
1485.1194 453.85983
1478.4229 447.33945
1477.3417 437.54648
1463.4237 445.6418
1455.251 433.15625
1467.6343 430.45514
1458.1179 419.28796
1438.5249 432.91992
1441.93 419.46054
1441.3096 405.04352
1426.9673 411.5821
1430.7003 395.8783
1420.886 386.18942
1440.6079 382.53925
1451.4067 395.9681
1459.5559 406.96954
1469.4429 413.9917
1469.9965 402.70447
1479.0836 401.8711
1482.2804 390.6036
1472.4921 380.96167
1466.3782 392.03607
1458.5444 378.33566
1447.8817 368.47202
1459.7053 361.77304
1457.2985 349.3252
1448.5612 348.2362
1437.0446 360.60117
1426.212 370.96127
1408.1113 354.3086
1400.8591 314.44705
1420.9172 301.9488
1423.265 322.56198
1428.9054 312.69208
1440.6729 307.0345
1431.625 301.0648
1426.0184 291.04333
1413.3989 286.92517
1416.4156 274.6756
1421.4403 264.3205
1405.5032 260.64404
1414.6511 243.15794
1430.0397 252.70483
1446.2095 246.05658
1453.4602 258.51154
1468.0227 266.00546
1486.1819 263.8464
1490.0671 243.44089
1503.9164 256.95065
1504.6793 271.02386
1511.3007 282.1652
1523.3169 282.319
1508.0199 296.74265
1494.6221 283.04736
1480.05 277.67538
1472.2242 284.07178
1467.5377 291.42474
1458.9205 279.64886
1447.258 273.65857
1436.116 263.60336
1433.147 273.638
1425.5988 280.17914
1437.7058 282.77597
1440.6235 295.0883
1448.869 286.74646
1456.1572 295.69678
1451.1605 304.60147
1454.6514 314.76447
1448.1877 319.55017
1437.3 324.07394
1441.6714 335.7931
1429.1002 334.4997
1427.5068 348.039
1438.7511 346.74292
1452.553 332.1211
1462.0018 313.16083
1463.6877 324.2586
1465.2069 337.193
1469.7491 350.04242
1472.9186 364.15363
1485.8857 370.3393
1503.1406 373.89075
1496.9907 355.3869
1481.7952 346.811
1480.5474 331.34674
1475.3408 320.17288
1469.9106 310.58127
1477.084 303.38818
1465.1 301.66495
1485.689 294.6293
1485.5607 313.02316
1499.8723 312.13602
1500.2833 332.27496
1512.1301 344.7022
1513.812 362.21503
1515.3911 378.6876
1508.9419 394.96042
1496.5822 387.30646
1483.6947 410.7152
1494.3386 400.92462
1505.0093 408.8698
1520.4211 404.80295
1521.0875 393.6861
1527.4514 383.00336
1530.2346 372.3985
1531.1802 364.1328
1526.8557 354.07916
1529.5336 340.6933
1520.7812 325.89966
1516.3782 311.44977
1528.9995 306.45294
1534.5853 296.78815
1524.2599 292.01263
1537.2617 286.5777
1537.7139 275.5584
1549.6329 279.87628
1559.3328 282.7591
1553.7627 290.93582
1544.946 295.97772
1556.2168 300.65356
1566.1644 292.17365
1566.8254 278.8501
1576.168 277.37097
1579.8615 285.24832
1583.3173 292.5221
1575.1089 293.16302
1576.691 302.55096
1582.7804 309.2113
1592.695 305.7799
1587.9048 297.98178
1590.1753 288.11426
1597.54 289.61157
1605.5061 291.26154
1603.298 281.1682
1610.8384 285.11084
1614.1835 273.92603
1628.5146 273.36996
1623.6251 261.91656
1619.9335 247.58043
1605.826 243.0252
1607.1445 257.91962
1600.9897 268.79803
1594.2689 278.789
1586.3173 272.53668
1591.7148 253.39769
1579.5381 257.05722
1570.9648 264.9259
1559.9276 266.04697
1547.342 267.12506
1535.9902 260.34625
1526.0127 272.5083
1521.0515 260.08118
1511.8282 242.78111
1523.8838 233.7345
1536.4082 221.3266
1544.0673 241.35352
1552.9846 255.28807
1566.9736 249.6258
1581.3206 239.32465
1563.3262 224.02397
1550.69 207.97905
1536.6058 194.29071
1522.8091 178.29088
1536.8406 171.35748
1551.7712 177.8948
1562.4397 189.66782
1578.1677 193.65207
1582.9733 213.17937
1602.7834 204.92426
1600.4114 226.45789
1625.3275 222.63585
1648.0402 228.7501
1638.0466 246.25328
1655.6984 258.86578
1641.2134 267.91095
1640.0793 282.16122
1623.6056 284.2102
1616.118 291.2078
1623.0305 297.73544
1613.5784 300.77036
1597.5674 298.27365
1605.207 298.65942
1605.81 309.58795
1597.2933 317.9527
1582.9934 320.81396
1590.5692 333.3218
1594.4885 349.42383
1581.7555 361.94308
1576.1166 376.85312
1591.5265 385.54633
1601.0952 370.7173
1612.4548 359.33643
1620.4574 344.50037
1609.58 330.49872
1619.1935 315.5141
1637.6106 332.7199
1639.6707 355.32697
1658.1201 346.52167
1657.9381 328.1635
1644.7842 310.73364
1631.2474 305.3515
1635.9222 293.46716
1654.5549 295.47855
1658.3423 280.31097
1674.4698 265.713
1679.8745 282.14227
1675.4642 297.91907
1662.4854 308.7182
1674.8682 315.57208
1677.2006 327.88184
1679.1498 339.3529
1696.4597 345.3722
1708.3855 339.30463
1717.2896 331.1731
1725.5089 326.48288
1734.9855 327.49332
1746.484 327.3165
1725.5845 315.57993
1737.6187 312.74274
1749.6531 314.79587
1747.1587 300.71564
1736.7356 299.37323
1725.512 303.5229
1707.6072 299.62436
1713.2935 309.71558
1711.0283 321.3858
1696.1483 327.63757
1692.9384 312.56207
1692.2076 296.03537
1702.6981 284.71173
1714.5566 287.1082
1720.4613 293.53424
1729.5887 289.95306
1733.824 280.7232
1725.4622 274.9935
1730.8003 264.8927
1723.9393 256.26086
1720.2891 248.58829
1716.459 265.01526
1713.516 275.72943
1697.7162 271.83212
1704.0295 261.45642
1712.2661 254.13683
1702.8534 248.31413
1690.4719 255.30821
1666.406 244.5231
1682.1353 241.50873
1695.1492 239.25195
1686.356 227.35692
1698.1143 222.83496
1709.6833 218.85962
1720.1403 216.47723
1700.6025 210.07303
1711.2327 206.6646
1718.7974 201.8566
1716.4268 190.32553
1716.0397 179.88434
1706.2852 178.7213
1699.7043 175.10269
1692.9316 172.18332
1696.4746 183.986
1689.0175 181.55853
1680.7118 177.65198
1672.3159 200.09863
1682.5872 192.59024
1694.7615 192.71555
1704.9333 187.27747
1705.8245 196.99344
1692.127 203.52615
1681.821 213.49902
1667.9979 224.01468
1659.3208 205.74004
1645.9888 199.18102
1667.1488 183.38194
1657.5923 173.21042
1655.6902 160.75198
1671.943 157.21803
1675.5499 167.12566
1684.8665 155.70924
1687.9033 165.07771
1697.8257 163.50479
1702.2439 154.39995
1707.3604 161.78561
1709.7485 170.16615
1720.2686 168.15015
1726.6709 175.09227
1729.0356 183.33582
1727.1003 190.87375
1727.9082 198.8573
1735.3439 206.68774
1726.1531 208.96115
1731.5891 217.44511
1739.1755 221.4365
1748.4259 220.77316
1745.0813 212.26453
1744.8245 202.2642
1738.8525 195.36185
1740.0698 186.93628
1739.0046 178.94348
1735.4686 170.52002
1742.704 171.46854
1749.9192 173.50348
1747.4849 165.61446
1759.0145 170.04555
1755.7635 159.7897
1764.0184 157.04509
1772.751 162.96025
1769.3625 172.91612
1775.8328 180.73875
1785.2433 183.31407
1785.3633 172.72588
1797.5234 179.63475
1802.1611 167.02731
1787.0159 161.30687
1797.1189 151.98753
1784.9856 143.51598
1794.3389 133.92459
1774.6548 117.6494
1776.5966 151.68832
1765.434 144.09964
1752.9297 149.0855
1747.783 157.7634
1738.0276 159.74176
1729.7334 162.89157
1724.6995 153.48499
1715.8229 158.07117
1711.9465 144.7168
1723.3694 141.49977
1733.2205 146.28616
1741.5706 151.6641
1743.6467 140.03418
1753.6467 123.675964
1738.948 124.40518
1725.6208 109.640045
1719.0693 88.1469
1699.9154 101.55626
1710.0977 112.043594
1729.1819 129.92017
1717.2158 129.19008
1707.7946 127.47525
1694.3799 123.70462
1698.3838 138.77335
1695.6499 150.65797
1689.2306 145.24606
1687.6982 135.48738
1681.1599 129.4563
1673.2837 123.46602
1663.929 128.63824
1652.2264 133.86206
1661.048 139.47507
1673.03 135.52841
1679.8893 144.6388
1671.5325 146.28055
1664.092 149.05298
1655.8145 148.98312
1646.7482 148.3728
1636.3877 155.55148
1623.2078 143.90334
1641.2078 138.67569
1632.9927 134.74762
1627.5873 127.160965
1610.5698 135.5944
1615.3453 124.37747
1621.0886 114.778496
1630.6062 117.85897
1639.3411 120.258026
1643.4396 127.15999
1655.0415 120.94766
1665.5955 116.694626
1662.2241 106.3311
1651.1823 107.18367
1645.8652 114.23287
1636.239 110.71413
1638.9991 101.86998
1646.9938 96.612854
1649.0642 84.69615
1644.4493 72.90754
1657.5864 72.75247
1656.3536 54.665142
1670.022 67.61725
1671.1482 81.94142
1658.0819 93.8615
1671.5614 96.405785
1676.6963 107.62847
1684.5723 116.132706
1693.5325 89.07506
1685.5785 76.73311
1702.7141 61.55597
1678.583 48.022625
1654.5583 20.138199
1696.3812 22.405333
1743.9983 33.98548
1795.1594 33.56277
1760.5286 78.61589
1740.5525 102.151665
1798.9414 86.85842
1812.0525 119.68883
1818.0162 138.15356
1836.7474 127.54584
1838.2439 96.149254
1859.4689 125.38588
1878.2493 109.24529
1886.5845 131.68404
1929.308 119.27324
1906.2975 114.55954
1875.956 40.404697
1943.241 43.399826
2002.4233 35.785473
2070.3691 37.946808
2061.172 98.12692
2026.5793 91.96684
2028.8441 116.15892
1991.6405 107.60216
1948.39 102.623245
1962.8044 118.99208
1987.7971 179.25749
2067.7583 176.0537
2054.406 251.87865
1983.7628 261.12018
1969.732 340.02686
2043.1023 336.85144
2072.4343 413.48187
2022.1075 474.97583
1994.5168 418.35272
1946.2633 402.67755
1909.8043 438.5232
1884.4958 433.35297
1889.4146 419.5468
1896.9163 405.1808
1877.112 400.7768
1868.7131 413.25058
1852.6439 412.47995
1847.8213 397.99118
1858.993 403.11212
1862.7095 392.09076
1871.2683 372.52133
1878.5448 365.40894
1867.8436 362.03296
1869.5662 347.06958
1857.6989 357.70587
1846.0608 370.76486
1851.3566 385.0855
1861.9937 382.457
1859.6198 372.57922
1875.0421 383.1079
1889.0547 389.513
1904.1273 384.66003
1901.9288 369.35596
1887.8666 372.29004
1881.5225 355.55585
1894.6069 354.67377
1888.0448 340.98502
1887.5381 318.83948
1866.0936 336.1646
1858.5027 323.65683
1848.2777 335.98407
1857.0518 344.54
1849.0342 351.31635
1841.2842 355.92084
1829.784 358.03625
1832.6465 346.8947
1833.0574 337.72815
1838.6133 330.99234
1822.5413 331.68585
1820.522 342.33005
1817.4795 352.01276
1823.5115 367.20126
1814.1807 361.61642
1806.0155 366.26587
1800.2322 374.85492
1793.7113 382.6124
1786.4384 391.37146
1778.2808 396.26013
1767.2322 383.11374
1780.4402 375.9254
1789.4375 367.2928
1796.9138 357.92712
1804.3202 351.0777
1808.0367 339.90918
1795.8748 339.56546
1785.4336 350.33978
1771.7482 344.02524
1776.669 333.6867
1788.6606 322.62238
1798.1041 327.23416
1809.0507 326.91486
1807.7745 313.96527
1821.5974 320.76865
1827.7444 312.39102
1821.4358 304.11304
1835.74 320.2298
1844.1304 309.23145
1835.2184 302.94427
1828.4508 290.93826
1821.6681 277.71515
1834.5383 267.91388
1821.4534 261.55615
1833.1907 242.65848
1820.7448 231.00168
1826.7557 218.89384
1834.0795 197.36682
1847.7125 213.39005
1850.6493 231.95445
1850.8909 246.8394
1852.8774 258.9798
1851.3812 273.88986
1845.7634 289.5949
1886.6101 277.41922
1928.923 294.6122
1896.6377 236.33441
1939.3875 216.9892
1901.1199 178.95782
1846.585 154.35464
1811.7028 184.16699
1816.3428 200.13608
1802.291 193.22882
1795.012 201.62491
1790.0165 192.92203
1783.0754 202.19879
1777.824 210.63084
1772.9739 218.66515
1774.3394 228.12845
1765.6555 223.68858
1765.9365 210.27916
1770.0186 200.96289
1777.6741 193.1047
1768.4182 189.75476
1764.9167 181.98705
1757.5116 182.61418
1749.643 180.75928
1749.9917 191.44885
1759.182 196.00049
1755.061 205.13101
1757.366 214.97482
1757.2916 222.98154
1759.0247 230.83649
1764.0325 233.78459
1767.5895 241.17827
1775.6428 248.09781
1779.1934 237.46213
1770.9094 234.69644
1782.353 226.22589
1785.193 218.2514
1789.8717 232.30243
1799.8894 229.48795
1795.5549 220.98196
1790.6719 210.97086
1802.3167 209.70792
1813.6205 212.48941
1809.1107 222.62729
1807.8645 235.9451
1818.2505 243.40314
1814.4307 253.50462
1803.2822 250.2116
1797.146 240.68341
1786.4713 243.32367
1792.9952 251.37712
1792.9333 261.10532
1804.7258 264.3023
1807.6509 275.91263
1791.3279 270.40955
1786.6476 278.09113
1789.6261 287.6136
1798.7854 283.88696
1812.6792 289.0166
1810.1372 300.93646
1799.7739 298.07245
1796.0654 313.81476
1787.2595 309.69714
1781.3823 302.5467
1774.3083 309.09332
1767.0215 303.1864
1779.3763 290.94202
1775.9426 281.94885
1776.7217 271.8802
1765.8159 280.80414
1767.3799 291.16925
1753.3027 288.00986
1756.0083 277.86334
1765.3955 268.4512
1778.2764 262.52094
1783.3663 255.02457
1768.688 258.43088
1763.6355 252.8632
1762.917 246.63188
1757.5078 240.92719
1752.3359 236.0139
1751.8833 228.78162
1744.1674 230.04486
1735.3342 230.97552
1728.4878 228.19382
1720.9329 226.74713
1713.1238 241.70425
1704.5944 234.14911
1713.2808 229.92076
1723.5203 238.79764
1732.1707 242.4876
1739.604 239.48943
1746.353 240.31853
1751.1664 247.94894
1732.3644 252.6347
1741.7542 252.4331
1753.582 257.36218
1753.8687 267.57507
1742.2524 263.8137
1743.2472 275.09732
1742.8939 288.15723
1758.383 295.8875
1756.7727 306.0817
1764.845 313.91153
1775.9852 317.6235
1761.3896 322.44598
1759.484 332.45944
1757.1714 343.5062
1767.074 362.44153
1748.541 364.7354
1738.2545 354.3026
1739.3169 340.33566
1724.2273 340.9077
1722.5624 353.88654
1707.2281 355.39093
1712.7681 370.1114
1728.6177 368.85547
1729.6011 389.29855
1738.3527 378.885
1751.6604 384.15436
1740.239 398.30066
1752.7366 405.29404
1748.2349 413.75388
1755.9911 421.80994
1763.2908 415.452
1766.842 403.3499
1775.2769 410.63266
1785.8611 411.8993
1791.2157 403.10675
1801.4951 407.4089
1811.4491 404.84897
1806.9121 419.3552
1816.8049 416.6447
1824.647 398.57635
1810.9365 389.86597
1799.5189 393.8535
1813.3112 377.7491
1829.553 377.09177
1838.7064 386.86703
1839.5813 408.20837
1829.186 415.9996
1828.7673 427.66724
1819.6365 427.52206
1813.5745 432.96237
1825.6165 440.25403
1838.4204 429.95276
1838.0544 440.45544
1842.4622 449.82748
1840.5724 459.76593
1850.3672 460.96555
1856.853 466.1599
1864.7432 463.84518
1869.2097 473.99078
1861.5437 478.60443
1870.5342 486.03168
1878.6793 484.22357
1879.4373 474.13538
1874.5754 466.88535
1880.5267 461.49847
1872.485 456.1323
1865.4785 453.9178
1858.6625 453.64136
1851.2699 452.39075
1853.8077 442.9758
1849.8975 433.92072
1848.5957 422.72473
1859.4431 426.1511
1871.207 424.3512
1872.4984 436.17456
1862.4781 435.9065
1865.1558 445.11475
1875.8115 445.53516
1885.3752 448.51013
1893.8907 463.62936
1890.6888 477.55908
1890.049 490.21515
1879.8024 498.11874
1869.1198 499.0073
1871.4502 509.55084
1862.3655 514.1352
1863.2241 524.81287
1873.3706 520.72656
1883.4761 524.2647
1884.6304 510.98553
1895.6003 503.17517
1913.966 479.48346
1953.2311 483.1349
1988.845 522.9585
1944.6267 540.8956
1905.7336 551.5165
1872.5074 533.5679
1865.6748 547.70667
1856.2604 542.2237
1861.9866 534.9846
1850.6292 528.23706
1850.1946 537.1284
1842.5435 541.7299
1842.0616 533.2231
1836.8436 529.4479
1831.4166 524.47437
1835.1647 515.3854
1843.7463 519.34985
1854.2035 520.15173
1850.2019 510.8518
1855.8467 504.20508
1859.3931 497.57
1862.4895 489.4458
1850.9323 490.37854
1845.5769 497.48068
1840.2556 505.18542
1830.5922 505.64502
1824.2693 499.01633
1818.1724 505.3641
1810.6982 505.93732
1809.3625 497.93585
1815.9327 494.65442
1822.1555 490.52856
1830.8676 494.02036
1839.1372 491.0429
1841.6548 479.7787
1852.7739 482.85312
1852.9333 474.18674
1845.3917 469.93372
1836.5386 469.6312
1829.0958 476.29257
1833.3118 484.19882
1824.3458 483.2611
1816.0107 477.26562
1806.7845 477.78998
1815.6711 485.0775
1808.5654 487.87787
1801.3116 486.33026
1797.4338 479.6883
1790.7502 486.01947
1794.4673 493.1424
1801.1334 497.12045
1795.7826 505.1119
1803.69 508.0625
1810.7329 515.2044
1822.1318 511.67645
1825.7234 517.82794
1816.3535 521.4433
1822.705 526.7087
1828.1317 533.5824
1832.9078 540.87415
1826.8097 549.4399
1825.3689 559.931
1837.5529 557.3013
1838.6455 549.39636
1850.2981 550.64594
1851.824 577.74225
1862.7032 596.275
1839.598 596.3682
1840.1125 612.1304
1852.1813 608.8872
1875.8992 606.4044
1865.0107 613.9965
1871.2202 626.5144
1879.8535 618.1299
1891.919 618.10144
1890.2517 631.14154
1903.8005 642.84705
1907.7261 622.2788
1921.0905 617.24756
1915.0378 605.4655
1901.1136 609.11536
1889.084 605.2521
1882.8148 587.11957
1904.5294 590.9096
1925.2463 589.74927
1944.1542 591.4828
1933.19 608.0456
1934.2255 628.2354
1949.8607 609.2235
1964.19 586.7357
1966.7567 605.7256
1985.567 612.9147
1985.0068 596.57544
1989.6199 574.1808
2017.1472 572.1091
2043.2698 565.72217
2036.4701 530.23114
2093.691 504.46008
2101.0327 593.11816
2097.0254 669.93335
2100.4182 748.88635
2041.1799 740.327
2019.9751 730.42456
2021.9935 710.8075
2042.6553 713.9899
2037.5831 684.99414
2036.4214 656.28174
2037.7379 624.55066
2041.8591 602.89075
2047.2954 588.49493
2033.0112 585.5062
2023.4746 597.68506
2004.114 593.0676
2010.8687 608.2069
2005.5208 626.88904
1997.0114 654.83374
1964.9038 630.6164
1942.9316 652.09155
1899.4413 667.8961
1902.28 698.96967
1912.8867 684.7239
1931.2876 675.48773
1950.2147 689.46765
1967.0441 682.80945
1988.6177 697.8036
2006.719 688.22943
2001.126 710.2905
1977.8501 717.8014
1988.4948 726.72974
2001.319 734.1571
2017.8485 748.08057
2014.6093 769.70496
2026.6989 760.5757
2042.2273 764.02313
2048.2944 781.16846
2036.6941 784.7265
2024.2 782.97925
2011.1515 786.005
2000.8718 781.94446
1988.5139 783.60297
1972.658 784.7352
1956.2161 784.69666
1940.7648 781.838
1919.1445 784.9015
1928.4148 771.9381
1918.0001 756.1442
1918.9495 740.2062
1922.6162 726.84766
1907.6238 721.5876
1921.6371 707.93475
1934.7727 696.42224
1958.1282 715.3806
1938.9653 718.53485
1935.2932 738.46423
1951.3418 737.8393
1967.0447 744.7617
1982.7244 744.0753
1999.9714 752.4696
1997.8478 767.7477
1983.8472 761.354
1974.6097 768.9293
1960.9736 769.3798
1950.8973 759.963
1935.4851 756.11255
1908.0396 768.23474
1895.8226 783.0319
1894.2053 747.9983
1905.2236 742.6134
1890.6743 721.0984
1866.6748 719.2279
1857.3105 738.0632
1857.3071 761.6826
1876.9296 743.8415
1886.6313 763.6418
1874.6519 780.51514
1858.2043 783.1736
1841.6785 781.50507
1815.1854 774.5051
1828.9613 748.5358
1820.7886 721.3694
1832.335 699.85834
1853.553 699.9724
1868.759 696.6377
1883.5713 702.2488
1885.5347 682.34
1874.8262 661.38574
1862.408 676.14294
1843.9143 678.4623
1845.1123 656.58374
1858.4092 638.7024
1853.9165 621.9606
1841.3584 628.42554
1828.62 629.48755
1822.9221 622.4586
1813.8893 620.344
1808.3964 615.1384
1803.5205 621.3445
1807.7385 628.49286
1815.7798 630.2106
1816.2286 642.61774
1823.9331 637.6448
1834.0487 642.8999
1825.7466 654.012
1828.879 670.4841
1806.2046 686.22705
1782.6118 688.98065
1758.8958 698.4128
1755.1316 677.4673
1767.7144 658.8704
1747.1854 655.1493
1728.6067 645.0979
1716.3188 662.1131
1726.7136 680.998
1701.6532 682.8596
1689.8992 672.6593
1677.5002 676.01917
1668.3237 680.7102
1660.4911 686.4648
1653.4144 695.6377
1640.9304 690.90765
1647.2854 678.6562
1632.8563 669.29767
1632.8564 681.69293
1623.256 689.62616
1619.3037 681.01636
1609.3728 678.6648
1601.0157 695.9064
1595.185 677.1806
1585.4583 681.7384
1575.0547 690.41785
1565.6831 697.8193
1556.6434 704.32556
1543.3972 705.2936
1529.6521 706.6049
1532.6947 695.631
1538.1603 685.3258
1527.4373 683.82043
1524.2733 674.13855
1517.3809 669.5216
1508.4257 671.2593
1503.7328 678.0303
1505.7036 687.4872
1515.2207 682.13824
1520.1733 693.1881
1514.4635 703.67505
1500.8915 706.2033
1493.1882 711.7295
1489.9238 720.6001
1498.8712 723.6376
1507.1089 717.8568
1519.639 718.2007
1513.9556 730.9125
1526.335 729.2912
1533.5748 739.4
1534.0962 751.46747
1535.8325 761.7185
1530.1829 768.2499
1534.3094 774.8017
1543.4391 770.01483
1547.4508 757.4031
1548.8376 745.2278
1565.8951 754.7543
1583.0728 740.13837
1559.2646 735.30634
1545.8816 730.92224
1537.9121 718.06683
1550.9463 718.5736
1563.6936 718.0696
1578.7614 718.8215
1575.5731 705.7439
1586.6024 697.4441
1594.8965 709.88965
1613.5833 711.61346
1605.1302 731.4912
1629.1589 734.1428
1653.0486 744.839
1628.407 697.64966
1638.0273 704.88464
1653.45 712.63684
1678.5801 726.81555
1680.6824 701.739
1705.288 707.7572
1738.0549 716.0653
1771.3057 723.05176
1793.1892 745.7617
1761.3253 750.25916
1776.8186 779.68396
1741.6267 770.3815
1715.3065 781.2886
1715.4072 742.21594
1692.8889 766.4204
1679.3933 783.25903
1663.5374 769.23676
1639.5078 772.436
1615.9569 775.1671
1602.5214 755.75995
1584.2164 774.35565
1572.8545 787.0402
1564.488 775.39545
1554.405 769.528
1552.9773 785.80927
1541.4045 780.1277
1538.966 788.4001
1529.4741 786.3142
1525.5358 778.40375
1515.1936 779.60956
1517.2949 788.0996
1501.3987 786.3076
1494.53 775.2932
1485.2102 765.6936
1479.8921 775.519
1482.2896 786.84174
1460.8218 784.9061
1443.445 786.8047
1441.8181 775.0134
1434.0796 762.0332
1426.8181 782.6381
1413.5918 782.5393
1402.1973 785.1264
1390.3589 784.93964
1392.9717 770.83704
1404.6757 764.58484
1418.8044 761.88586
1408.7316 744.31934
1391.101 750.7654
1376.2144 759.54224
1376.8843 774.01526
1375.0282 786.1662
1354.0535 784.61255
1360.5687 768.5116
1361.4468 752.4926
1374.9167 742.8883
1381.5896 728.24915
1363.7634 729.5844
1352.4067 738.57556
1342.3981 751.6796
1338.8826 769.9634
1322.2192 781.894
1306.574 760.8684
1323.2959 746.41125
1306.3752 729.7539
1335.0452 725.5385
1292.7032 708.3591
1269.5208 691.7175
1262.6003 719.1181
1243.5249 702.3069
1227.3093 719.31555
1211.3558 732.1247
1232.98 756.74963
1242.9949 735.7595
1279.7535 735.70557
1282.302 760.50073
1288.411 783.28577
1263.8604 784.65173
1257.121 770.17377
1258.2224 751.49976
1234.3663 781.63495
1203.5626 783.6599
1166.9146 778.249
1188.7903 764.3168
1214.484 767.1315
1204.5552 748.80347
1178.922 738.3918
1118.4135 748.7504
1155.4518 675.2937
1209.5903 672.064
1256.4554 655.7094
1301.3818 678.35876
1319.905 704.52527
1344.0133 699.0478
1358.666 715.34045
1364.5793 693.0671
1382.8143 709.18384
1399.4747 727.81165
1410.3954 709.5917
1406.159 688.2589
1423.1023 694.5752
1431.7957 699.9543
1431.7308 711.82007
1423.2119 726.6382
1428.5088 743.59985
1445.971 749.0332
1452.8833 763.8175
1465.8395 772.60223
1470.0862 760.27313
1483.4915 753.32227
1494.2004 757.129
1502.7458 763.8905
1507.7383 773.94006
1520.6608 770.3927
1524.685 760.33545
1514.3225 762.6098
1513.3793 751.8014
1523.4753 750.0744
1519.7657 740.61395
1503.2537 750.89197
1507.0465 741.28613
1503.5175 731.7429
1490.7908 731.73926
1493.6624 742.91644
1480.9978 740.08887
1479.5905 727.2531
1481.2104 714.88904
1473.5884 707.51953
1466.647 701.47986
1457.3519 709.4861
1457.5009 722.1177
1469.1309 718.9114
1468.5217 732.9145
1472.314 748.266
1462.1152 745.47406
1455.8512 735.84827
1444.929 730.3727
1443.9431 718.08417
1444.1152 705.3056
1450.9596 696.8638
1458.6003 696.2335
1476.6606 696.0693
1486.3656 702.9301
1498.2391 695.8127
1488.5972 691.39496
1480.5668 686.83264
1470.5701 681.5033
1466.3777 691.11395
1459.9259 682.7623
1449.1543 683.1801
1441.4304 692.9546
1435.3965 683.4897
1422.5552 681.4014
1414.494 669.5901
1417.8406 655.63727
1422.502 640.87177
1438.6157 653.5345
1430.4983 668.59186
1445.088 669.1207
1458.9126 670.3515
1479.7625 676.91833
1471.0474 666.8545
1474.0223 655.08105
1486.2339 651.88324
1484.1411 642.64453
1484.5648 632.0995
1494.97 632.4637
1499.2712 622.6675
1487.9905 621.5266
1494.1055 612.5705
1487.0496 601.4659
1480.3494 611.09576
1472.0916 603.651
1462.9901 619.346
1476.5884 621.11
1472.7432 632.5194
1467.0736 643.54395
1456.0261 654.82025
1453.7773 635.77673
1438.2494 636.9064
1425.6473 620.91046
1408.9255 621.2776
1399.3486 643.26996
1391.4332 661.1438
1385.8042 681.90497
1354.9545 652.0898
1333.6763 677.5494
1300.9055 630.77454
1357.4962 594.0205
1337.5234 539.948
1288.875 571.4491
1224.6731 580.594
1138.8256 573.9916
1195.5615 494.13535
1156.3386 417.4054
1144.7448 313.01404
1218.955 350.87488
1291.8083 360.73993
1282.0493 431.65256
1290.0148 497.16168
1375.1642 488.4046
1399.2073 539.3948
1441.5952 573.8508
1420.5288 596.03723
1442.5784 620.67944
1444.4717 605.0209
1459.3318 598.5298
1466.622 586.5215
1480.6091 591.5366
1489.5168 580.7538
1500.0588 576.9669
1496.3912 564.5309
1494.2046 551.32117
1496.2607 538.0975
1496.0408 523.99756
1492.1069 514.5621
1501.2595 510.7849
1494.9541 504.24554
1494.6619 496.16818
1500.119 492.31653
1507.8286 490.00757
1521.4668 494.68
1529.0884 490.83392
1513.9563 495.6906
1506.0349 501.84665
1507.4528 518.4052
1512.2526 509.97556
1519.9146 507.77814
1528.6543 505.49033
1532.5732 521.6411
1520.7953 523.256
1508.4358 531.2285
1518.8184 539.84766
1507.9875 552.75653
1511.1184 566.184
1522.1504 564.10474
1523.8994 552.7109
1536.0205 542.9901
1548.3949 550.9518
1559.5376 557.2956
1558.029 568.77734
1562.2357 580.80676
1563.1257 593.4308
1549.2456 583.6645
1536.1559 582.197
1546.1218 566.99963
1535.2947 562.362
1524.6658 574.48425
1520.9077 585.26874
1506.4263 586.97864
1497.0457 591.4396
1500.4642 602.1676
1504.917 610.89856
1509.9661 617.9264
1509.5752 626.64465
1511.281 635.54614
1501.7585 638.6986
1499.7312 646.99365
1495.8099 653.91296
1493.3131 661.83545
1484.4728 662.63605
1486.5305 671.39453
1492.8832 679.85974
1497.2141 670.2892
1502.7104 661.9124
1508.67 654.3747
1512.709 661.9651
1523.9922 658.3036
1536.1322 659.105
1534.7556 671.12775
1546.5173 666.25397
1557.9893 670.53467
1547.4755 679.53723
1549.3672 692.6488
1561.3363 684.2145
1571.9861 676.56305
1581.6504 666.59924
1572.2415 657.8983
1561.7462 652.23846
1547.8752 653.6252
1534.7524 647.4017
1524.1669 644.4893
1513.5883 646.6396
1521.3009 632.27856
1534.2378 632.9182
1531.9222 617.24207
1520.5513 618.31256
1515.2087 607.3785
1512.0107 597.5946
1530.2196 598.3336
1544.0431 599.5509
1547.9343 613.88257
1546.2192 626.8805
1550.033 639.84827
1563.6804 636.6135
1575.4377 642.98645
1586.926 638.35706
1596.2981 634.4087
1607.6548 633.31195
1602.7974 622.4089
1589.079 624.43854
1576.467 624.3468
1563.9318 622.1582
1559.382 607.56335
1572.9695 602.9457
1579.364 612.37415
1591.2628 611.1749
1601.0391 610.52374
1605.5614 600.298
1612.455 591.3807
1602.361 586.0098
1593.5426 592.5077
1586.572 599.9028
1578.731 587.229
1592.1699 579.87085
1584.531 571.86127
1573.1038 574.39246
1570.6779 562.01245
1583.2278 560.26764
1590.935 545.98193
1596.5845 555.8402
1606.0916 561.0763
1595.3076 566.9329
1604.1406 573.94794
1613.0598 571.93713
1613.4412 582.11694
1621.5426 578.08777
1629.5724 575.1947
1637.8517 570.4584
1636.9275 581.7223
1633.3103 593.8696
1625.1272 586.70593
1621.0681 599.1
1613.3943 610.96875
1619.7903 619.984
1614.4751 627.96875
1625.1802 629.4437
1617.9153 638.34937
1614.0671 648.87524
1603.3657 645.37866
1586.2479 651.5924
1593.8257 659.55225
1601.262 669.6864
1606.9824 658.9054
1619.9578 667.0553
1621.383 656.95935
1628.4346 650.1017
1639.605 656.0094
1646.2797 665.81726
1659.1595 670.48737
1669.4353 663.1183
1657.251 655.7434
1662.1937 643.38324
1651.78 627.97943
1644.7815 639.6703
1635.8423 643.2199
1634.6436 629.33636
1626.6031 610.86926
1636.0186 605.3379
1637.1995 619.0808
1647.8578 612.86755
1646.2643 600.90594
1644.7303 590.5074
1655.9023 588.6278
1648.7134 580.86646
1647.3796 573.25244
1660.2637 580.0563
1661.2118 571.62225
1666.1047 563.8599
1668.708 555.979
1667.7261 547.62085
1660.1558 543.74274
1644.1821 550.42456
1647.5413 557.5217
1646.0753 565.4954
1655.0632 564.07166
1656.2834 553.31647
1649.5868 542.5278
1645.8853 533.6937
1639.0181 527.9514
1629.8489 537.4861
1637.0554 544.26434
1624.6777 548.3656
1626.6508 556.63306
1634.9259 554.45996
1639.6318 560.46326
1632.2131 564.0571
1625.937 565.8874
1620.8042 569.9722
1616.931 562.61066
1614.0303 554.48315
1614.1642 545.4689
1618.1512 536.65674
1603.3816 544.9668
1604.6205 532.02527
1590.3339 530.23926
1602.3514 514.37524
1604.1207 494.4271
1615.9778 499.26575
1621.6764 511.09528
1615.8251 524.15283
1627.8279 525.39197
1635.9956 516.0494
1645.9673 515.3511
1653.9072 524.53186
1659.403 533.4549
1669.7156 526.8469
1670.9819 536.7018
1676.4319 543.5753
1677.9327 552.2491
1678.2473 561.4152
1672.3445 578.7695
1679.4261 571.6166
1691.853 570.9525
1693.5582 586.91724
1698.4755 615.8558
1686.2927 606.11206
1669.1289 606.6681
1679.8362 591.6239
1667.3198 591.78723
1657.1373 600.15125
1659.759 617.3656
1673.7478 622.6844
1684.1874 639.68677
1676.1953 650.5021
1682.7814 661.681
1694.6387 653.01
1701.9553 639.25
1714.7899 629.54285
1725.6685 615.60114
1709.3649 598.45044
1711.9042 583.90607
1704.5192 572.94836
1714.6809 563.84393
1702.4723 558.79095
1696.4766 549.0442
1689.3385 558.63617
1685.8579 548.4249
1685.1279 539.45905
1680.8882 531.17084
1686.2661 520.06104
1690.9253 528.4391
1695.0225 538.4885
1703.3837 529.81335
1707.4221 541.853
1715.0071 551.1267
1723.017 540.0818
1717.3317 528.6679
1728.0436 520.72626
1741.1049 524.31757
1737.4655 535.71295
1749.0514 542.18494
1749.5376 531.79156
1758.5681 534.3297
1759.9741 544.1057
1769.5757 547.99445
1769.5338 539.1596
1777.594 533.2312
1785.97 526.70166
1787.9165 537.7994
1778.2734 543.66064
1781.8157 552.3316
1775.582 554.59625
1770.0632 556.2998
1761.9775 554.9291
1753.0883 553.2039
1757.156 567.64014
1737.1583 566.8694
1736.9526 548.509
1727.0166 556.87415
1723.0621 572.67065
1728.597 585.0707
1740.8628 597.7561
1743.8346 614.40027
1741.2421 631.2595
1762.682 636.14026
1788.4286 638.4758
1797.487 656.83435
1803.271 639.12756
1796.3412 628.1362
1784.0378 622.4822
1792.9026 615.25757
1800.8335 612.4487
1807.9651 605.62463
1818.8586 611.99396
1823.3843 597.854
1812.092 593.7583
1802.5475 589.62616
1795.4592 603.69476
1781.7783 605.1127
1771.0149 613.1605
1764.3286 598.7435
1757.9165 583.4376
1767.616 575.06104
1768.2747 564.0154
1778.2915 566.6219
1779.18 559.4676
1786.0497 560.3725
1788.7024 570.3257
1780.0479 577.65295
1773.9783 588.3631
1786.6462 594.0502
1793.1732 581.8312
1801.185 570.29114
1814.024 558.3578
1804.0333 557.953
1794.388 561.6196
1791.6105 552.9076
1786.8733 546.244
1798.717 548.3599
1815.9539 547.5767
1821.9958 540.0528
1815.4775 533.93933
1807.3362 529.1228
1807.8726 542.663
1798.7385 538.6563
1796.178 530.24695
1799.0443 522.0789
1796.0387 514.909
1787.0789 515.2677
1779.9652 518.0064
1777.3538 508.17963
1787.8575 505.82736
1788.0864 495.8772
1781.915 500.37787
1775.5479 496.03964
1780.6215 487.763
1782.6987 478.82117
1774.8319 475.75085
1771.0007 487.92725
1765.5005 496.40195
1770.2805 503.33215
1765.5197 511.54883
1769.6112 515.0973
1773.6631 518.89307
1772.3745 525.374
1765.7834 530.32935
1761.4854 521.67993
1752.5328 522.977
1746.854 515.8438
1756.6819 512.4455
1762.4083 505.62766
1757.738 500.432
1750.8552 498.4066
1753.1399 488.28247
1761.4706 488.3952
1766.1357 480.09787
1763.9496 471.63608
1765.022 463.73193
1761.649 456.69138
1759.3395 449.5825
1751.9467 445.0857
1746.147 447.16986
1740.5559 450.29498
1738.336 457.17133
1748.0276 457.3938
1752.6843 465.64178
1753.957 477.18503
1741.1509 471.18567
1742.4552 482.036
1741.3232 493.2968
1742.2666 502.5589
1749.365 507.89682
1734.2504 508.759
1718.658 502.91293
1711.8583 516.7775
1704.7902 503.4814
1728.6544 491.48743
1723.1449 478.35263
1732.4805 464.56067
1727.293 454.67206
1720.3296 464.93073
1718.3762 451.9308
1705.2406 451.12756
1706.8312 470.24362
1708.4468 486.6537
1694.6304 489.07928
1682.014 498.86227
1693.1794 499.98972
1693.0647 510.17517
1698.6168 518.69824
1682.9282 509.6362
1676.8516 519.6812
1673.1965 510.34015
1664.9004 516.6313
1655.7202 515.5154
1656.3641 507.50916
1655.6387 499.30255
1644.1682 502.72406
1633.2231 501.7296
1629.2229 490.29718
1620.4985 482.05627
1608.4089 479.71088
1613.9579 466.78574
1637.3304 479.63452
1648.22 487.91208
1662.2216 490.2512
1668.9813 501.47626
1676.565 487.6142
1687.3262 475.7563
1688.7512 459.74753
1669.7249 457.86066
1665.7563 475.47723
1650.5002 468.2279
1635.0143 463.9671
1623.8488 456.1529
1612.3926 447.71982
1602.161 435.08148
1604.9375 420.1222
1585.3538 404.58673
1598.7512 405.44684
1607.8916 389.77875
1616.9941 405.81366
1632.2506 408.4383
1635.6848 423.17035
1620.6439 428.76877
1634.9084 442.45566
1651.9927 431.96213
1653.3855 448.9099
1673.325 436.4283
1690.2412 441.65448
1700.2799 429.9334
1689.0118 420.00153
1675.8656 413.49094
1663.0657 420.08517
1648.4286 413.13745
1662.267 401.2749
1647.6561 396.5493
1632.011 393.42892
1621.9277 381.82788
1628.384 367.6811
1643.7461 379.18637
1661.3896 381.64642
1657.3274 365.4677
1674.0459 358.38983
1686.3208 351.7696
1694.5798 368.30475
1680.1819 376.32123
1674.1625 391.0006
1684.9196 398.69397
1698.4142 402.03925
1700.4274 386.45734
1716.8767 386.94894
1715.612 405.4491
1705.3864 414.457
1710.9916 432.26056
1718.9819 439.57248
1730.5999 447.35632
1732.7063 440.86676
1729.8483 436.11188
1728.0355 428.81366
1719.0834 421.71472
1732.0526 420.86804
1726.6007 406.4859
1737.0391 407.6413
1737.2139 414.96567
1740.9464 421.86218
1747.4579 424.82013
1737.9183 430.2628
1739.4946 442.6187
1743.1885 436.8545
1751.48 435.58398
1760.8606 440.20184
1764.9592 430.3984
1771.2888 441.72217
1771.7012 452.41882
1774.1616 463.9428
1783.6766 469.8689
1781.5406 461.83075
1787.4846 458.49792
1781.1877 451.6247
1782.877 442.30087
1792.0077 436.2912
1783.5701 431.88422
1774.9717 421.37054
1774.834 431.54108
1787.5945 423.43576
1796.1345 417.21136
1799.7766 428.15137
1806.2811 436.05896
1811.5981 443.64368
1818.2015 448.27255
1822.996 455.76196
1831.6235 453.3386
1828.6495 465.71738
1821.1843 470.1427
1811.8126 468.81195
1815.9186 461.15552
1809.7018 454.6506
1802.8258 450.0118
1800.3931 440.5747
1794.343 446.41492
1790.2415 451.79285
1796.7007 457.88937
1803.7986 461.38696
1803.9529 468.4431
1800.0182 473.5361
1794.8615 469.66833
1791.3276 464.81708
1790.1255 477.2241
" />
</g></g></svg>
